<?xml version="1.0" encoding="UTF-8" standalone="no"?>
<svg width="40px" height="40px" viewBox="0 0 40 40" version="1.1" xmlns="http://www.w3.org/2000/svg" xmlns:xlink="http://www.w3.org/1999/xlink" xmlns:sketch="http://www.bohemiancoding.com/sketch/ns">
    <!-- Generator: Sketch 3.4.4 (17249) - http://www.bohemiancoding.com/sketch -->
    <title>red copy1</title>
    <desc>Created with Sketch.</desc>
    <defs>
        <circle id="path-1" cx="20" cy="20" r="20"></circle>
        <path id="path-3" d="M26,5.97202286 L37.1705078,9.0484375 C38.4372796,9.49436298 39.4655646,10.4539551 40,11.677676 L40,15.6 L0,15.6 L0,11.677676 C0.534435447,10.4539551 1.56272035,9.49436298 2.82949219,9.0484375 L14,5.97202286 L14,2.22044605e-16 L26,4.4408921e-17 L26,5.97202286 Z"></path>
        <rect id="path-5" x="0" y="0" width="12.4" height="2"></rect>
    </defs>
    <g id="Page-1" stroke="none" stroke-width="1" fill="none" fill-rule="evenodd" sketch:type="MSPage">
        <g id="Artboard-2" sketch:type="MSArtboardGroup" transform="translate(-316.000000, -199.000000)">
            <g id="red-copy" sketch:type="MSLayerGroup" transform="translate(316.000000, 199.000000)">
                <mask id="mask-2" sketch:name="circle" fill="white">
                    <use xlink:href="#path-1"></use>
                </mask>
                <use id="circle" fill="#FFFFFF" sketch:type="MSShapeGroup" xlink:href="#path-1"></use>
                <g id="body" mask="url(#mask-2)">
                    <g transform="translate(0.000000, 24.400000)">
                        <mask id="mask-4" sketch:name="shoulders" fill="white">
                            <use xlink:href="#path-3"></use>
                        </mask>
                        <use id="shoulders" stroke="none" fill="#E6C19C" fill-rule="evenodd" sketch:type="MSShapeGroup" xlink:href="#path-3"></use>
                        <path d="M0,-1.2 L40,-1.2 L40,15.6 L0,15.6 L0,-1.2 Z M20,10.8 C24.418278,10.8 28,8.2927946 28,5.2 C28,2.1072054 24.418278,-0.4 20,-0.4 C15.581722,-0.4 12,2.1072054 12,5.2 C12,8.2927946 15.581722,10.8 20,10.8 Z" id="shirt" stroke="none" fill="#DF1941" fill-rule="evenodd" sketch:type="MSShapeGroup" mask="url(#mask-4)"></path>
                        <path d="M20,11.2 C25.0810197,11.2 29.2,8.24507935 29.2,4.6 C29.2,0.954920651 25.0810197,-2 20,-2 C14.9189803,-2 10.8,0.954920651 10.8,4.6 C10.8,8.24507935 14.9189803,11.2 20,11.2 Z M20,9.6 C24.1973641,9.6 27.6,7.18233765 27.6,4.2 C27.6,1.21766235 24.1973641,-1.2 20,-1.2 C15.8026359,-1.2 12.4,1.21766235 12.4,4.2 C12.4,7.18233765 15.8026359,9.6 20,9.6 Z" id="lace" stroke="none" fill="#DF1941" fill-rule="evenodd" sketch:type="MSShapeGroup" mask="url(#mask-4)"></path>
                        <path d="M20.0071634,6.79999232 C19.3285223,6.80126828 18.4481585,6.64362543 17.8671575,6.34497406 C17.1729295,5.98812079 14.6505967,3.92461144 13.8057748,3.0221872 C12.6724902,1.81163215 12.1293107,0.321252012 11.9544641,-2.28542984 C11.7796175,-4.89211169 11.118567,-14.1637216 11.118567,-16.3000073 C11.118567,-19.3132965 13.3895745,-23.9763834 19.9782821,-23.9999166 C19.9852402,-23.9999786 19.9922122,-24.0000064 19.9991982,-23.9999998 C20.0018516,-23.9999973 20.0045043,-23.999994 20.0071562,-23.99999 C20.009804,-23.999994 20.0124567,-23.9999973 20.0151101,-23.9999998 C20.0220961,-24.0000064 20.0290681,-23.9999786 20.0360262,-23.9999166 C26.6247338,-23.9763834 28.8957413,-19.3132965 28.8957413,-16.3000073 C28.8957413,-14.1637216 28.2346908,-4.89211169 28.0598442,-2.28542984 C27.8849976,0.321252012 27.3418181,1.81163215 26.2085335,3.0221872 C25.3637116,3.92461144 22.8413788,5.98812079 22.1471508,6.34497406 C21.5661498,6.64362543 20.685786,6.80126828 20.0071449,6.79999232 L20.0071634,6.79999232 Z" id="head-shadow-shadow" stroke="none" fill="#D4B08C" fill-rule="evenodd" sketch:type="MSShapeGroup" mask="url(#mask-4)"></path>
                    </g>
                </g>
                <path d="M20.0071625,29.6000168 C19.396911,29.6009779 18.6052652,29.4822338 18.0828142,29.2572754 C17.4585466,28.9884766 15.1904001,27.4341433 14.4307146,26.7543945 C13.411636,25.842547 12.923195,24.7199219 12.7659685,22.7564453 C12.6087419,20.7929687 12.0143083,13.8091519 12.0143083,12.2 C12.0143083,9.93024747 14.0564566,6.41778898 19.9811917,6.40006262 C19.9874486,6.40001592 19.993718,6.39999503 20,6.4 C20.002386,6.40000189 20.0047713,6.40000434 20.007156,6.40000736 C20.009537,6.40000434 20.0119223,6.40000189 20.0143083,6.4 C20.0205903,6.39999503 20.0268597,6.40001592 20.0331166,6.40006262 C25.9578517,6.41778898 28,9.93024747 28,12.2 C28,13.8091519 27.4055664,20.7929687 27.2483398,22.7564453 C27.0911133,24.7199219 26.6026723,25.842547 25.5835938,26.7543945 C24.8239082,27.4341433 22.5557617,28.9884766 21.9314941,29.2572754 C21.4090431,29.4822338 20.6173973,29.6009779 20.0071458,29.6000168 L20.0071625,29.6000168 Z" id="head" fill="#F2CEA5" sketch:type="MSShapeGroup" mask="url(#mask-2)"></path>
                <g id="face" mask="url(#mask-2)">
                    <g transform="translate(13.600000, 15.600000)">
                        <path d="M9.18347926,8.41113486 L3.60063677,8.40196795 C3.44533993,8.40171295 3.34901617,8.57083247 3.42845536,8.7042738 C3.96684783,9.60866126 4.90267123,10.118995 6.08934744,10.2019754 C7.33693537,10.2892153 8.68920054,9.68156396 9.34790006,8.72452639 C9.43914306,8.59195763 9.34441307,8.41139911 9.18347926,8.41113486 L9.18347926,8.41113486 Z" id="mouth" fill="#A3705F" sketch:type="MSShapeGroup"></path>
                        <g id="eyes-narrowed" stroke-width="1" fill="none" sketch:type="MSLayerGroup" transform="translate(0.000000, 0.800000)">
                            <mask id="mask-6" sketch:name="Rectangle 5" fill="white">
                                <use xlink:href="#path-5"></use>
                            </mask>
                            <use id="Rectangle-5" sketch:type="MSShapeGroup" xlink:href="#path-5"></use>
                            <circle id="Oval-3" fill="#291F21" sketch:type="MSShapeGroup" mask="url(#mask-6)" cx="10" cy="1.6" r="0.8"></circle>
                            <circle id="Oval-3" fill="#291F21" sketch:type="MSShapeGroup" mask="url(#mask-6)" cx="2.8" cy="1.6" r="0.8"></circle>
                        </g>
                        <g id="brows" stroke-width="1" fill="none" sketch:type="MSLayerGroup">
                            <path d="M5.36941509,1.19272461 C5.36941509,1.19272461 4.91604595,0.00668945313 2.94885845,0 C1.60243921,0.00853153662 0.773727339,0.586683144 0.394401042,1.2" id="Path-16" stroke="#CC9872" stroke-width="0.8" sketch:type="MSShapeGroup" transform="translate(2.881908, 0.600000) scale(-1, 1) translate(-2.881908, -0.600000) "></path>
                            <path d="M12.4205566,1.19272461 C12.4205566,1.19272461 11.9671875,0.00668945313 10,0 C8.06582031,0.0122558594 7.2,1.2 7.2,2 C7.18740234,2.77412109 7.2,5.6 7.2,5.6" id="Path-16" stroke="#BB8660" stroke-width="0.8" sketch:type="MSShapeGroup"></path>
                        </g>
                    </g>
                </g>
                <g id="hair" mask="url(#mask-2)" sketch:type="MSShapeGroup">
                    <g transform="translate(10.400000, 4.000000)" id="Path-5">
                        <path d="M13.5510583,15.2687256 C13.5510583,15.2687256 13.2361169,12.7657471 12.0625389,12.3811523 C11.9053916,11.6529297 11.4714928,9.58862305 11.4790612,8.4390625 C11.4866296,7.28950195 11.5930261,6.14765625 12.2475182,5.21269531 C12.9728931,4.17647641 14.5067712,3.59033203 15.3067712,3.59033203 C16.2369456,4.14027507 18.38606,5.41670644 19.0750329,6.1842041 C19.4297198,6.57931597 18.9172936,6.88833008 18.9172936,6.88833008 C18.9172936,6.88833008 18.4329743,6.69409747 18.2182923,6.63796805 C17.2078082,6.37377331 15.0308896,6.14698456 14.3288659,7.14863281 C13.477694,8.36308594 13.4856089,11.8702735 13.4790612,12.4 C13.4732995,12.8661377 13.5510583,15.2687256 13.5510583,15.2687256 Z" fill="#D98C21" transform="translate(15.339531, 9.429529) scale(-1, 1) translate(-15.339531, -9.429529) "></path>
                        <path d="M0.583575472,12.3811523 C1.75715343,12.7657471 2.06799927,15.2687256 2.06799927,15.2687256 C2.06799927,15.2687256 1.99433605,12.8661377 2.00009777,12.4 C2.00896964,11.7448457 2.06957394,8.77782357 3.36293945,7.3362793 C4.7894043,5.74638672 6.7046875,5.22529297 7.78398437,5.92138672 C8.33146249,6.27448336 10.207373,8.13510742 12.217258,6.60688173 C13.4344278,5.68140091 15.6,3.6 15.6,3.6 C15.6,3.6 14.4378903,0.0281250144 9.15820277,0.456835934 C6.92384524,0.638265889 4.45819895,0.102343746 4.45819895,0.102343746 C4.45819895,0.102343746 4.42266462,1.11638948 4.83427734,1.63457031 C1.50275865,2.5672306 0.452845639,4.9455161 0.133470992,6.78748645 C0.0662926162,7.1368894 0.0314750524,7.49696167 0.0144129515,7.86122838 C0.00319933698,8.07413554 -0.000174367592,8.2685333 9.77691482e-05,8.4390625 C-0.00747059023,9.58862305 0.426428174,11.6529297 0.583575472,12.3811523 Z" fill="#E6A422"></path>
                    </g>
                </g>
            </g>
        </g>
    </g>
</svg>