<?xml version="1.0" standalone="no"?>
<!DOCTYPE svg PUBLIC "-//W3C//DTD SVG 1.1//EN" "http://www.w3.org/Graphics/SVG/1.1/DTD/svg11.dtd" >
<svg>
<metadata>
Created by FontForge 20120731 at Fri Jan 15 01:18:21 2016
 By ,,,
Copyright (c) 2013 by FontFont. All rights reserved.
</metadata>
<defs>
<font id="FFKievitSlab-ThinItalic" horiz-adv-x="495" >
  <font-face 
    font-family="FF Kievit Slab"
    font-weight="250"
    font-style="italic"
    font-stretch="normal"
    units-per-em="1000"
    panose-1="2 0 4 3 2 0 0 2 0 4"
    ascent="760"
    descent="-240"
    x-height="474"
    cap-height="666"
    bbox="-313 -250 1018 926"
    underline-thickness="24"
    underline-position="-111"
    slope="-10"
    unicode-range="U+0020-FEFF"
  />
<missing-glyph horiz-adv-x="532" 
d="M67 0v666h398v-666h-398zM91 24h350v618h-350v-618z" />
    <glyph glyph-name=".notdef" horiz-adv-x="532" 
d="M67 0v666h398v-666h-398zM91 24h350v618h-350v-618z" />
    <glyph glyph-name=".null" horiz-adv-x="0" 
 />
    <glyph glyph-name="nonmarkingreturn" horiz-adv-x="333" 
 />
    <glyph glyph-name="space" unicode=" " horiz-adv-x="240" 
 />
    <glyph glyph-name="exclam" unicode="!" horiz-adv-x="242" 
d="M78 -8q-9 0 -15.5 7t-6.5 17q0 13 8.5 22.5t20.5 9.5q9 0 15.5 -7t6.5 -17q0 -13 -8.5 -22.5t-20.5 -9.5zM99 158l85 508h30l-97 -508h-18z" />
    <glyph glyph-name="quotedbl" unicode="&#x22;" horiz-adv-x="238" 
d="M108 462l31 204h36l-49 -204h-18zM195 462l31 204h36l-49 -204h-18z" />
    <glyph glyph-name="numbersign" unicode="#" horiz-adv-x="569" 
d="M124 0l58 243h-143l7 24h142l39 159h-139l7 24h138l52 216h26l-52 -216h141l52 216h26l-52 -216h152l-7 -24h-151l-39 -159h147l-7 -24h-146l-58 -243h-26l58 243h-141l-58 -243h-26zM214 267h141l39 159h-141z" />
    <glyph glyph-name="dollar" unicode="$" horiz-adv-x="473" 
d="M153 -123l21 114q-98 6 -156 67l15 93h19q0 -33 -9 -85q52 -52 147 -52q79 0 128 41.5t49 100.5q0 17 -3.5 32t-12 29.5t-15 24.5t-22 23.5t-22.5 19.5t-26.5 20.5t-24.5 18.5q-72 53 -104 91t-32 93q0 76 56 120t126 48l19 108h25l-20 -108q93 -7 138 -50l-16 -93h-21
q0 27 10 85q-55 34 -134 34q-56 0 -106.5 -39.5t-50.5 -102.5q0 -28 9.5 -52t33.5 -47.5t36.5 -33.5t46.5 -35q34 -26 46 -35.5t35 -31t31.5 -35.5t16 -36t7.5 -46q0 -69 -56 -117.5t-140 -50.5l-20 -113h-24z" />
    <glyph glyph-name="percent" unicode="%" horiz-adv-x="769" 
d="M221 372q63 0 108 46t45 109q0 50 -32 85.5t-82 35.5q-63 0 -108 -46t-45 -109q0 -50 32 -85.5t82 -35.5zM217 348q-58 0 -97 42.5t-39 96.5q0 77 52 131t131 54q58 0 97 -42.5t39 -96.5q0 -77 -52 -131t-131 -54zM109 0l554 666h31l-555 -666h-30zM543 18q63 0 108 46
t45 109q0 50 -32 85.5t-82 35.5q-63 0 -108 -46t-45 -109q0 -50 32 -85.5t82 -35.5zM539 -6q-58 0 -97 42.5t-39 96.5q0 77 52 131t131 54q58 0 97 -42.5t39 -96.5q0 -77 -52 -131t-131 -54z" />
    <glyph glyph-name="ampersand" unicode="&#x26;" horiz-adv-x="655" 
d="M544 -89q-40 0 -77.5 29t-99.5 98q-87 -48 -174 -48q-73 0 -114 52.5t-41 131.5q0 120 67.5 215t170.5 95q44 0 75 -25.5t31 -68.5q0 -52 -52.5 -93.5t-114.5 -58.5l156 -171q55 33 96 77q68 68 109 158t41 174q0 96 -54.5 145.5t-153.5 69.5l7 21q102 -16 164.5 -72.5
t62.5 -162.5q0 -88 -43.5 -182t-116.5 -167q-36 -39 -96 -78q59 -65 91.5 -90.5t68.5 -25.5q32 0 66 25l11 -20q-37 -28 -80 -28zM195 14q80 0 156 42l-163 178l7 23q71 17 116 56t45 77q0 32 -23.5 51t-60.5 19q-60 0 -109 -44t-74 -108.5t-25 -129.5q0 -73 33.5 -118.5
t97.5 -45.5z" />
    <glyph glyph-name="quotesingle" unicode="'" horiz-adv-x="151" 
d="M108 462l31 204h36l-49 -204h-18z" />
    <glyph glyph-name="parenleft" unicode="(" horiz-adv-x="279" 
d="M198 -186h-24q-49 61 -81.5 152.5t-32.5 180.5q0 169 76.5 325.5t200.5 247.5h24q-123 -92 -199.5 -249.5t-76.5 -323.5q0 -90 31.5 -179t81.5 -154z" />
    <glyph glyph-name="parenright" unicode=")" horiz-adv-x="279" 
d="M-45 -186h-24q123 92 199.5 249.5t76.5 323.5q0 89 -31 177t-82 156h24q49 -61 81.5 -152.5t32.5 -180.5q0 -169 -77 -326t-200 -247z" />
    <glyph glyph-name="asterisk" unicode="*" horiz-adv-x="422" 
d="M139 365l-18 15l111 118l-134 44l12 23l131 -48l25 149h26l-29 -150l149 50l3 -26l-153 -45l70 -118l-20 -12l-65 120z" />
    <glyph glyph-name="plus" unicode="+" horiz-adv-x="594" 
d="M249 42l38 213h-198l5 24h198l36 203h26l-36 -203h198l-4 -24h-198l-39 -213h-26z" />
    <glyph glyph-name="comma" unicode="," horiz-adv-x="164" 
d="M52 48q9 0 15.5 -6.5t6.5 -17.5q0 -32 -24 -68.5t-48 -57.5l-11 8q42 48 42 80q0 6 -5 15.5t-5 15.5q0 13 9 22t20 9z" />
    <glyph glyph-name="hyphen" unicode="-" horiz-adv-x="292" 
d="M62 280l5 24h180l-5 -24h-180z" />
    <glyph glyph-name="period" unicode="." horiz-adv-x="155" 
d="M35 -8q-9 0 -15.5 7t-6.5 17q0 13 8.5 22.5t20.5 9.5q9 0 15.5 -7t6.5 -17q0 -13 -8.5 -22.5t-20.5 -9.5z" />
    <glyph glyph-name="slash" unicode="/" horiz-adv-x="364" 
d="M17 0l361 666h26l-360 -666h-27z" />
    <glyph glyph-name="zero" unicode="0" 
d="M212 -10q-53 0 -90 36.5t-52.5 90.5t-15.5 119q0 74 14.5 148t43.5 141t82 109t121 42q53 0 90 -36.5t52.5 -90.5t15.5 -119q0 -74 -14.5 -148t-43.5 -141t-82 -109t-121 -42zM214 14q58 0 105 40.5t73.5 103.5t40.5 132t14 134q0 94 -34.5 161t-99.5 67
q-58 0 -105 -40.5t-73.5 -103.5t-40.5 -132t-14 -134q0 -94 34.5 -161t99.5 -67z" />
    <glyph glyph-name="one" unicode="1" 
d="M67 0l3 18q28 5 151 5l111 616l-169 -56l-6 22l179 62h26l-116 -644q128 0 155 -5l-3 -18h-331z" />
    <glyph glyph-name="two" unicode="2" 
d="M3 0l2 14q23 21 68.5 63.5t66.5 62t59.5 56.5t57.5 56.5t48.5 51.5t44 51.5t33 47t27 48.5t15 44t6.5 45q0 52 -30.5 82t-88.5 30q-99 0 -167 -66l-12 15q75 75 183 75q65 0 103 -36t38 -94q0 -26 -6 -52.5t-22.5 -56.5t-29.5 -53t-44 -58.5t-48 -55.5t-59.5 -61
t-60.5 -58t-69 -64t-68 -63h308q3 33 23 96h18l-21 -120h-375z" />
    <glyph glyph-name="three" unicode="3" 
d="M149 -10q-67 0 -107 14l6 22q36 -12 105 -12q99 0 166 48t67 137q0 67 -65 109.5t-153 42.5l4 23q49 0 106.5 20t103 62t45.5 92q0 47 -32 75.5t-86 28.5q-96 0 -168 -64l-12 15q73 73 184 73q62 0 101 -36t39 -88q0 -41 -21.5 -75.5t-55 -56.5t-66 -35.5t-63.5 -20.5v-1
q56 -7 110.5 -51.5t54.5 -108.5q0 -105 -74.5 -159t-188.5 -54z" />
    <glyph glyph-name="four" unicode="4" 
d="M294 0l31 169h-306l4 20l395 477h23l-86 -473h94l-4 -24h-95l-30 -169h-26zM57 193h272l76 420z" />
    <glyph glyph-name="five" unicode="5" 
d="M122 -10q-45 0 -73 7l7 23q18 -6 73 -6q109 0 187 59.5t78 168.5q0 72 -56.5 108t-140.5 36q-43 0 -65 -2l58 282h288l-5 -24h-265l-45 -232h39q93 0 155.5 -42t62.5 -121q0 -123 -86.5 -190t-211.5 -67z" />
    <glyph glyph-name="six" unicode="6" 
d="M226 -10q-58 0 -96 36.5t-52 86t-14 108.5q0 197 122 327t306 130l3 -23q-152 0 -260 -94q-109 -94 -137 -244q78 78 174 78q75 0 123 -46t48 -116q0 -107 -61 -175t-156 -68zM228 14q83 0 136 61t53 156q0 61 -40.5 100.5t-108.5 39.5q-76 0 -174 -79q-4 -31 -4 -69
q0 -85 33.5 -147t104.5 -62z" />
    <glyph glyph-name="seven" unicode="7" 
d="M124 -22l-22 10l377 654h-316q-12 -67 -21 -94h-21l20 118h370l-5 -24z" />
    <glyph glyph-name="eight" unicode="8" 
d="M209 -10q-68 0 -113.5 39.5t-45.5 98.5q0 38 13.5 69t45 58.5t59 45.5t78.5 47q-58 41 -88.5 76.5t-30.5 79.5q0 76 56.5 124t138.5 48q63 0 105 -34.5t42 -86.5q0 -69 -43.5 -113.5t-133.5 -95.5q67 -47 99 -82.5t32 -81.5q0 -82 -63 -137t-151 -55zM213 14
q73 0 128.5 49.5t55.5 113.5q0 30 -19.5 58.5t-42 47t-67.5 50.5q-99 -55 -145.5 -97.5t-46.5 -102.5q0 -50 38.5 -84.5t98.5 -34.5zM318 652q-67 0 -116 -41.5t-49 -101.5q0 -42 28 -73t89 -75q90 52 131.5 92t41.5 97q0 45 -34.5 73.5t-90.5 28.5z" />
    <glyph glyph-name="nine" unicode="9" 
d="M43 -10l-3 23q152 0 260 94t136 243q-77 -77 -173 -77q-75 0 -123 46t-48 116q0 107 61 175t156 68q58 0 96 -36.5t52 -86t14 -108.5q0 -197 -122 -327t-306 -130zM267 297q79 0 173 79q5 38 5 69q0 85 -33.5 147t-104.5 62q-83 0 -136 -61t-53 -156q0 -61 40.5 -100.5
t108.5 -39.5z" />
    <glyph glyph-name="colon" unicode=":" horiz-adv-x="155" 
d="M35 -8q-9 0 -15.5 7t-6.5 17q0 13 8.5 22.5t20.5 9.5q9 0 15.5 -7t6.5 -17q0 -13 -8.5 -22.5t-20.5 -9.5zM116 426q-9 0 -15.5 7t-6.5 17q0 13 8.5 22.5t20.5 9.5q9 0 15.5 -7t6.5 -17q0 -13 -8.5 -22.5t-20.5 -9.5z" />
    <glyph glyph-name="semicolon" unicode=";" horiz-adv-x="167" 
d="M52 48q9 0 15.5 -6.5t6.5 -17.5q0 -32 -24 -68.5t-48 -57.5l-11 8q42 48 42 80q0 6 -5 15.5t-5 15.5q0 13 9 22t20 9zM121 426q-9 0 -15.5 7t-6.5 17q0 13 8.5 22.5t20.5 9.5q9 0 15.5 -7t6.5 -17q0 -13 -8.5 -22.5t-20.5 -9.5z" />
    <glyph glyph-name="less" unicode="&#x3c;" horiz-adv-x="336" 
d="M230 34l-204 212l281 212l14 -20l-257 -195l185 -192z" />
    <glyph glyph-name="equal" unicode="=" horiz-adv-x="452" 
d="M21 183l5 24h380l-5 -24h-380zM48 328l4 24h380l-4 -24h-380z" />
    <glyph glyph-name="greater" unicode="&#x3e;" horiz-adv-x="336" 
d="M29 34l-14 20l257 195l-185 192l19 17l204 -212z" />
    <glyph glyph-name="question" unicode="?" horiz-adv-x="360" 
d="M93 158l12 68q9 51 36 84.5t78 64.5q115 66 115 171q0 106 -128 106q-51 0 -86 -20l-6 22q39 22 97 22q69 0 109 -33t40 -92q0 -121 -130 -196q-48 -29 -70.5 -58.5t-30.5 -72.5l-12 -66h-24zM77 -8q-9 0 -15.5 7t-6.5 17q0 13 8.5 22.5t20.5 9.5q9 0 15.5 -7t6.5 -17
q0 -13 -8.5 -22.5t-20.5 -9.5z" />
    <glyph glyph-name="at" unicode="@" horiz-adv-x="712" 
d="M355 -80q-142 0 -226 92t-84 227q0 154 103 260.5t245 106.5q136 0 216.5 -80.5t80.5 -208.5q0 -83 -47 -157.5t-112 -74.5q-42 0 -64.5 33.5t-22.5 88.5q0 40 3 52h-1q-25 -73 -66.5 -123.5t-90.5 -50.5q-38 0 -59 34t-21 78q0 99 59 181t143 82q45 0 93 -25l-27 -109
q-12 -47 -12 -117q0 -43 18.5 -71.5t49.5 -28.5q54 0 92.5 67.5t38.5 138.5q0 120 -73 193.5t-200 73.5q-130 0 -225 -100t-95 -241q0 -126 78.5 -211.5t207.5 -85.5q92 0 156 33l10 -21q-61 -36 -168 -36zM291 109q101 0 181 296l4 15q-7 6 -29.5 11.5t-38.5 5.5
q-70 0 -121.5 -73.5t-51.5 -164.5q0 -34 13 -62t43 -28z" />
    <glyph glyph-name="A" unicode="A" horiz-adv-x="647" 
d="M-45 0l3 18q27 5 75 5l349 643h32l117 -643q50 0 78 -5l-3 -18h-183l3 18q27 5 79 5l-34 186h-309l-102 -186q54 0 81 -5l-3 -18h-183zM175 233h291l-73 402z" />
    <glyph glyph-name="B" unicode="B" horiz-adv-x="562" 
d="M1 0l3 18q27 5 86 5l113 620q-57 0 -85 5l3 18h209q93 0 141.5 -33.5t48.5 -96.5q0 -77 -42.5 -123t-114.5 -58v-1q58 -12 93 -49.5t35 -92.5q0 -109 -73.5 -160.5t-203.5 -51.5h-213zM117 24h100q117 0 182.5 46t65.5 140q0 63 -49 97.5t-142 34.5h-100zM178 366h96
q220 0 220 166q0 110 -170 110h-96z" />
    <glyph glyph-name="C" unicode="C" horiz-adv-x="622" 
d="M336 -10q-131 0 -202.5 80t-71.5 200q0 167 110 286.5t282 119.5q115 0 162 -37l-18 -107h-19q0 24 11 94q-43 26 -139 26q-107 0 -191.5 -53.5t-128 -139t-43.5 -183.5q0 -115 64.5 -188.5t186.5 -73.5q108 0 182 44q13 74 20 93h18l-19 -107q-37 -27 -94.5 -40.5
t-109.5 -13.5z" />
    <glyph glyph-name="D" unicode="D" horiz-adv-x="662" 
d="M1 0l3 18q27 5 86 5l113 620q-57 0 -85 5l3 18h204q141 0 226 -70t85 -194q0 -187 -119 -294.5t-311 -107.5h-205zM117 24h94q175 0 287 100t112 271q0 117 -77 182t-213 65h-92z" />
    <glyph glyph-name="E" unicode="E" horiz-adv-x="509" 
d="M1 0l3 18q27 5 86 5l113 620q-57 0 -85 5l3 18h402l-21 -126h-19q0 29 11 102h-266l-51 -284h206q6 34 16 71h18l-30 -171h-17q1 27 9 76h-206l-56 -310h271q11 64 23 93h18l-21 -117h-407z" />
    <glyph glyph-name="F" unicode="F" horiz-adv-x="497" 
d="M1 0l3 18q27 5 86 5l113 620q-57 0 -85 5l3 18h402l-21 -126h-19q0 29 11 102h-266l-55 -304h205q6 41 16 71h18l-30 -171h-17q1 27 9 76h-205l-53 -291q57 0 85 -5l-3 -18h-197z" />
    <glyph glyph-name="G" unicode="G" horiz-adv-x="685" 
d="M349 -10q-138 0 -212.5 79.5t-74.5 200.5q0 163 108 284.5t273 121.5q52 0 106.5 -14t81.5 -35l-18 -107h-19q0 39 9 95q-60 37 -162 37t-184 -55t-125.5 -140.5t-43.5 -180.5q0 -115 66.5 -188.5t194.5 -73.5q67 0 117.5 19t76.5 45l35 193q-68 2 -80 6l3 16h174l-3 -18
q-35 -3 -68 -4l-38 -206q-82 -75 -217 -75z" />
    <glyph glyph-name="H" unicode="H" horiz-adv-x="730" 
d="M1 0l3 18q27 5 86 5l113 620q-57 0 -85 5l3 18h197l-3 -18q-27 -5 -86 -5l-50 -276h418l50 276q-57 0 -85 5l3 18h197l-3 -18q-27 -5 -86 -5l-113 -620q57 0 85 -5l-3 -18h-197l3 18q27 5 86 5l58 320h-418l-58 -320q57 0 85 -5l-3 -18h-197z" />
    <glyph glyph-name="I" unicode="I" horiz-adv-x="286" 
d="M1 0l3 18q27 5 86 5l113 620q-57 0 -85 5l3 18h197l-3 -18q-27 -5 -86 -5l-113 -620q57 0 85 -5l-3 -18h-197z" />
    <glyph glyph-name="J" unicode="J" horiz-adv-x="261" 
d="M-42 -179q-19 0 -31 5l9 24q8 -5 30 -5q80 0 105 138l119 660q-57 0 -85 5l3 18h197l-3 -18q-27 -5 -86 -5l-121 -667q-29 -155 -137 -155z" />
    <glyph glyph-name="K" unicode="K" horiz-adv-x="584" 
d="M345 0l3 18q24 3 37 3l24 1q8 1 23 1l-238 326l315 294q-57 0 -84 5l3 18h194l-3 -18q-25 -5 -74 -5l-318 -295l240 -325q51 0 78 -5l-3 -18h-197zM1 0l3 18q27 5 86 5l113 620q-57 0 -85 5l3 18h197l-3 -18q-27 -5 -86 -5l-113 -620q57 0 85 -5l-3 -18h-197z" />
    <glyph glyph-name="L" unicode="L" horiz-adv-x="460" 
d="M1 0l3 18q27 5 86 5l113 620q-58 0 -86 5l3 18h198l-3 -18q-27 -5 -86 -5l-112 -619h253q3 33 23 96h18l-21 -120h-389z" />
    <glyph glyph-name="M" unicode="M" horiz-adv-x="869" 
d="M-19 0l3 18q27 5 78 5l190 620q-61 0 -88 5l3 18h120l110 -635l338 635h113l-3 -18q-25 -5 -83 -5l-32 -620q51 0 79 -5l-3 -18h-189l3 18q25 5 85 5l30 590l-327 -613h-31l-107 615l-182 -592q56 0 83 -5l-3 -18h-187z" />
    <glyph glyph-name="N" unicode="N" horiz-adv-x="706" 
d="M1 0l3 18q27 5 86 5l113 620q-56 0 -84 5l3 18h110l294 -624l109 601q-57 0 -85 5l3 18h197l-3 -18q-27 -5 -86 -5l-117 -643h-25l-294 622l-109 -599q57 0 85 -5l-3 -18h-197z" />
    <glyph glyph-name="O" unicode="O" horiz-adv-x="702" 
d="M321 -10q-118 0 -188.5 82t-70.5 198q0 168 98.5 287t255.5 119q117 0 188.5 -82.5t71.5 -197.5q0 -168 -99 -287t-256 -119zM327 14q93 0 168 54t115 139t40 182q0 110 -65.5 186.5t-174.5 76.5q-139 0 -230.5 -112.5t-91.5 -262.5q0 -110 65 -186.5t174 -76.5z" />
    <glyph glyph-name="P" unicode="P" horiz-adv-x="502" 
d="M1 0l3 18q27 5 86 5l113 620q-56 0 -84 5l3 18h196q93 0 142.5 -41.5t49.5 -107.5q0 -98 -69 -157.5t-189 -59.5h-85l-51 -277q57 0 85 -5l-3 -18h-197zM171 324h84q107 0 168 52.5t61 135.5q0 59 -43 94.5t-129 35.5h-84z" />
    <glyph glyph-name="Q" unicode="Q" horiz-adv-x="702" 
d="M490 -151q-154 0 -235 149q-90 21 -141.5 97.5t-51.5 174.5q0 168 98.5 287t255.5 119q117 0 188.5 -82.5t71.5 -197.5q0 -168 -99 -287t-256 -119q-11 0 -33 2q33 -57 87.5 -88.5t118.5 -31.5q78 0 135 42l10 -19q-60 -46 -149 -46zM327 14q93 0 168 54t115 139t40 182
q0 110 -65.5 186.5t-174.5 76.5q-139 0 -230.5 -112.5t-91.5 -262.5q0 -110 65 -186.5t174 -76.5z" />
    <glyph glyph-name="R" unicode="R" horiz-adv-x="570" 
d="M500 -7q-50 0 -76 45l-127 228q-23 43 -40.5 58.5t-39.5 15.5h-43l-58 -317q57 0 85 -5l-3 -18h-197l3 18q27 5 86 5l113 620q-56 0 -84 5l3 18h199q91 0 141.5 -36t50.5 -95q0 -90 -67 -142.5t-174 -52.5v-1q16 -7 48 -61l126 -223q23 -39 60 -39q21 0 32 4l-2 -20
q-11 -7 -36 -7zM178 364h87q100 0 161 45t61 121q0 52 -44 82t-128 30h-87z" />
    <glyph glyph-name="S" unicode="S" horiz-adv-x="440" 
d="M190 -10q-110 0 -172 68l18 107h18q0 -21 -4 -46l-3 -28l-3 -25q51 -52 145 -52q83 0 130.5 43t47.5 102q0 45 -31 83.5t-98 86.5q-67 47 -100 89t-33 96q0 76 60.5 119t133.5 43q41 0 84.5 -14t65.5 -36l-18 -107h-19q0 5 1.5 21.5t1.5 24.5l3 28l4 25q-57 34 -123 34
q-63 0 -115.5 -36t-52.5 -101q0 -46 31 -85t98 -87q67 -47 100 -88.5t33 -94.5q0 -71 -57 -120.5t-146 -49.5z" />
    <glyph glyph-name="T" unicode="T" horiz-adv-x="502" 
d="M109 0l3 18q27 5 86 5l112 619h-185q-12 -67 -21 -94h-21l20 118h449l-20 -118h-19q0 8 2 42l3 27l4 25h-186l-112 -619q57 0 85 -5l-3 -18h-197z" />
    <glyph glyph-name="U" unicode="U" horiz-adv-x="685" 
d="M299 -10q-63 0 -105.5 21.5t-60.5 57.5t-23.5 83t5.5 99l71 392q-57 0 -85 5l3 18h197l-3 -18q-27 -5 -86 -5l-71 -390q-10 -66 -4 -119t48 -86.5t118 -33.5q204 0 248 239l71 390q-57 0 -85 5l3 18h197l-3 -18q-27 -5 -86 -5l-71 -392q-24 -128 -91 -194.5t-187 -66.5z
" />
    <glyph glyph-name="V" unicode="V" horiz-adv-x="647" 
d="M265 0l-117 643q-51 0 -79 5l3 18h185l-3 -18q-27 -5 -80 -5l112 -612l333 612q-55 0 -82 5l3 18h185l-3 -18q-25 -5 -75 -5l-350 -643h-32z" />
    <glyph glyph-name="W" unicode="W" horiz-adv-x="964" 
d="M228 0l-52 643q-54 0 -81 5l3 18h188l-3 -18q-25 -5 -81 -5l38 -477l9 -121l297 621h26l63 -510l13 -108l267 595q-54 0 -81 5l3 18h181l-3 -18q-12 -3 -72 -5l-290 -643h-24l-64 513l-13 109l-297 -622h-27z" />
    <glyph glyph-name="X" unicode="X" horiz-adv-x="625" 
d="M-26 0l3 18q27 5 82 5l253 326l-130 294q-55 0 -82 5l3 18h197l-3 -18q-27 -5 -86 -5l120 -272l211 272q-59 0 -87 5l3 18h197l-3 -18q-25 -5 -78 -5l-231 -298l143 -322q54 0 81 -5l-3 -18h-197l3 18q27 5 86 5l-133 300l-233 -300q57 0 84 -5l-3 -18h-197z" />
    <glyph glyph-name="Y" unicode="Y" horiz-adv-x="606" 
d="M161 0l3 18q28 5 87 5l42 227l-137 393q-56 0 -83 5l3 18h197l-3 -18q-25 -5 -85 -5l124 -363l256 363q-56 0 -84 5l3 18h197l-3 -18q-25 -5 -80 -5l-279 -393l-42 -227q57 0 85 -5l-3 -18h-198z" />
    <glyph glyph-name="Z" unicode="Z" horiz-adv-x="540" 
d="M-3 0l5 27l505 615h-348q-12 -67 -21 -94h-21l20 118h410l-4 -21l-513 -621h394q3 33 23 96h18l-21 -120h-447z" />
    <glyph glyph-name="bracketleft" unicode="[" horiz-adv-x="282" 
d="M20 -161l159 881h162l-4 -24h-136l-151 -833h136l-4 -24h-162z" />
    <glyph glyph-name="backslash" unicode="\" horiz-adv-x="365" 
d="M247 -161l-157 881h23l158 -881h-24z" />
    <glyph glyph-name="bracketright" unicode="]" horiz-adv-x="282" 
d="M-43 -161l4 24h135l151 833h-136l4 24h162l-159 -881h-161z" />
    <glyph glyph-name="underscore" unicode="_" horiz-adv-x="363" 
d="M-69 -139l4 24h365l-5 -24h-364z" />
    <glyph glyph-name="grave" unicode="`" horiz-adv-x="500" 
d="M290 539l-102 119h40l82 -119h-20z" />
    <glyph glyph-name="a" unicode="a" horiz-adv-x="478" 
d="M141 -10q-48 0 -74.5 35.5t-26.5 96.5q0 65 16 127.5t47.5 116t84.5 86t119 32.5q47 0 109 -10l-46 -256q-16 -87 -33 -195q56 0 84 -5l-3 -18h-113q16 105 44 223h-1q-12 -37 -29 -74t-42.5 -74.5t-61 -61t-74.5 -23.5zM145 13q43 0 84 39t69 97.5t47 116.5t27 108
l14 80q-42 7 -88 7q-56 0 -101.5 -31t-73.5 -80.5t-43 -107t-15 -113.5q0 -116 80 -116z" />
    <glyph glyph-name="b" unicode="b" horiz-adv-x="471" 
d="M167 -10q-46 0 -108 10l125 698q-28 3 -85 3l3 19q25 4 113 4l-6 -32l-39 -218q-41 -209 -44 -223h1q12 38 29 74.5t42 74t60 61t74 23.5q48 0 73.5 -35.5t25.5 -96.5q0 -66 -15.5 -128t-46.5 -115.5t-83.5 -86t-118.5 -32.5zM176 14q56 0 101.5 31t72.5 80.5t41.5 106.5
t14.5 113q0 115 -78 115q-44 0 -84 -38.5t-68 -97t-46.5 -116.5t-26.5 -108l-14 -79q42 -7 87 -7z" />
    <glyph glyph-name="c" unicode="c" horiz-adv-x="391" 
d="M173 -10q-68 0 -101.5 51t-33.5 133q0 120 67.5 215t170.5 95q61 0 99 -31l-16 -93h-21q0 19 9 84q-31 17 -75 17q-59 0 -108.5 -44.5t-74.5 -109t-25 -129.5q0 -165 113 -165q73 0 132 65l14 -18q-62 -70 -150 -70z" />
    <glyph glyph-name="d" unicode="d" horiz-adv-x="490" 
d="M142 -10q-48 0 -75 35.5t-27 96.5q0 65 16.5 127.5t48 116t85 86t119.5 32.5q28 0 84 -6l40 220q-28 3 -85 3l3 19q25 4 113 4l-6 -35l-86 -471q-18 -100 -33 -195q56 0 84 -5l-3 -18h-113q16 105 44 223h-1q-11 -37 -29 -74t-43.5 -74.5t-61 -61t-74.5 -23.5zM146 13
q43 0 84 39t69.5 97.5t47.5 116.5t27 108l14 80q-42 7 -88 7q-56 0 -102 -31t-74 -80.5t-43.5 -107t-15.5 -113.5q0 -116 81 -116z" />
    <glyph glyph-name="e" unicode="e" horiz-adv-x="398" 
d="M173 -10q-68 0 -101.5 51t-33.5 133q0 76 29 146.5t84.5 117t124.5 46.5q44 0 75 -25.5t31 -68.5q0 -135 -317 -184q-1 -5 -1 -15v-13q0 -165 113 -165q73 0 132 64l14 -17q-62 -70 -150 -70zM272 461q-77 0 -133 -69.5t-71 -162.5q288 46 288 161q0 32 -23.5 51.5
t-60.5 19.5z" />
    <glyph glyph-name="f" unicode="f" horiz-adv-x="283" 
d="M-53 -228q-51 0 -78 20l11 21q28 -18 71 -18q47 0 74 33.5t41 113.5l89 509h-98l5 23h97l15 83q30 173 168 173q59 0 107 -31l-13 -21q-45 29 -98 29q-57 0 -90.5 -37t-48.5 -117l-14 -79h131l-5 -23h-130l-90 -513q-15 -86 -49.5 -126t-94.5 -40z" />
    <glyph glyph-name="g" unicode="g" horiz-adv-x="468" 
d="M107 -228q-74 0 -114 37l14 20q35 -33 106 -33q86 0 130.5 53.5t61.5 150.5l12 65q25 129 32 158h-1q-12 -37 -29 -74t-42.5 -74.5t-61 -61t-74.5 -23.5q-48 0 -74.5 35.5t-26.5 96.5q0 65 16 127.5t47.5 116t84.5 86t119 32.5q47 0 109 -10l-86 -479
q-19 -108 -71 -165.5t-152 -57.5zM145 13q43 0 84 39t69 97.5t47 116.5t27 108l14 80q-42 7 -88 7q-56 0 -101.5 -31t-73.5 -80.5t-43 -107t-15 -113.5q0 -116 80 -116z" />
    <glyph glyph-name="h" unicode="h" horiz-adv-x="519" 
d="M58 0l126 698q-29 3 -86 3l3 19q25 4 113 4l-9 -49l-36 -201q-28 -157 -48 -244h1q82 254 224 254q56 0 78 -39t10 -109l-57 -313q57 0 85 -5l-3 -18h-112l60 331q24 130 -65 130q-46 0 -87.5 -35t-71.5 -92t-51 -120t-32 -127l-16 -87h-26z" />
    <glyph glyph-name="i" unicode="i" horiz-adv-x="254" 
d="M70 0l82 452q-28 3 -85 3l3 19q25 4 116 4l-14 -60l-72 -395q57 0 85 -5l-3 -18h-112zM190 582q-9 0 -15.5 7t-6.5 17q0 13 8.5 22.5t20.5 9.5q9 0 15.5 -7t6.5 -17q0 -13 -8.5 -22.5t-20.5 -9.5z" />
    <glyph glyph-name="j" unicode="j" horiz-adv-x="242" 
d="M-61 -228q-40 0 -68 17l11 21q28 -15 61 -15q50 0 78 36t41 111l89 510q-28 3 -85 3l3 19q25 4 116 4l-14 -60l-84 -480q-15 -84 -49 -125t-99 -41zM190 582q-9 0 -15.5 7t-6.5 17q0 13 8.5 22.5t20.5 9.5q9 0 15.5 -7t6.5 -17q0 -13 -8.5 -22.5t-20.5 -9.5z" />
    <glyph glyph-name="k" unicode="k" horiz-adv-x="438" 
d="M59 0l125 698q-28 3 -85 3l3 19q25 4 116 4l-14 -60l-119 -664h-26zM329 0l-192 270l257 204h40l-262 -206l174 -245q53 0 78 -5l-3 -18h-92z" />
    <glyph glyph-name="l" unicode="l" horiz-adv-x="242" 
d="M59 0l125 698q-28 3 -85 3l3 19q25 4 116 4l-14 -60l-115 -641q57 0 85 -5l-3 -18h-112z" />
    <glyph glyph-name="m" unicode="m" horiz-adv-x="813" 
d="M71 0l81 452q-28 3 -85 3l3 19q25 4 116 4l-14 -60q-34 -171 -38 -188h1q82 254 223 254q89 0 89 -104q0 -28 -28 -150h1q82 254 223 254q55 0 76 -39t9 -109l-57 -313q57 0 85 -5l-3 -18h-112l60 331q24 130 -62 130q-45 0 -86.5 -35t-71.5 -92t-51 -120t-32 -127
l-16 -87h-26l60 331q24 130 -62 130q-45 0 -86.5 -35t-71.5 -92t-51 -120t-32 -127l-16 -87h-26z" />
    <glyph glyph-name="n" unicode="n" horiz-adv-x="532" 
d="M71 0l81 452q-28 3 -85 3l3 19q25 4 116 4l-14 -60q-36 -180 -38 -188h1q82 254 224 254q56 0 78 -39t10 -109l-57 -313q57 0 85 -5l-3 -18h-112l60 331q24 130 -65 130q-46 0 -87.5 -35t-71.5 -92t-51 -120t-32 -127l-16 -87h-26z" />
    <glyph glyph-name="o" unicode="o" horiz-adv-x="459" 
d="M184 -10q-51 0 -85.5 31t-47.5 71t-13 84q0 116 66 212t171 96q51 0 85.5 -31t47.5 -71t13 -84q0 -116 -66 -212t-171 -96zM190 13q61 0 109.5 45t72 108t23.5 125q0 69 -30 119.5t-96 50.5q-61 0 -109.5 -45t-72 -108t-23.5 -125q0 -69 30 -119.5t96 -50.5z" />
    <glyph glyph-name="p" unicode="p" horiz-adv-x="483" 
d="M-53 -218l3 18q27 5 86 5l116 647q-28 3 -85 3l3 19q25 4 113 4q-13 -71 -23 -121q-5 -30 -22 -106h1q12 38 29 74.5t42 74t60 61t74 23.5q48 0 73.5 -35.5t25.5 -96.5q0 -66 -15.5 -128t-46.5 -115.5t-83.5 -86t-118.5 -32.5q-36 0 -83 7l-34 -192q57 0 85 -5l-3 -18
h-197zM188 13q56 0 101.5 31t72.5 81t41.5 107t14.5 113q0 116 -78 116q-44 0 -84 -38.5t-68 -97.5t-46.5 -117t-26.5 -108l-14 -80q42 -7 87 -7z" />
    <glyph glyph-name="q" unicode="q" horiz-adv-x="478" 
d="M182 -218l3 18q28 5 87 5l35 195q41 209 44 223h-1q-11 -37 -29 -74t-43.5 -74.5t-61 -61t-74.5 -23.5q-48 0 -75 35.5t-27 96.5q0 65 16.5 127.5t48 116t85 86t119.5 32.5q47 0 109 -10l-120 -669q57 0 85 -5l-3 -18h-198zM146 13q43 0 84 39t69.5 97.5t47.5 116.5
t27 108l14 80q-42 7 -88 7q-56 0 -102 -31t-74 -80.5t-43.5 -107t-15.5 -113.5q0 -116 81 -116z" />
    <glyph glyph-name="r" unicode="r" horiz-adv-x="339" 
d="M71 0l81 452q-28 3 -85 3l3 19q25 4 113 4q-3 -15 -26 -141q-19 -92 -23 -107h1q10 40 25 77.5t39.5 80.5t62 69.5t82.5 26.5q9 0 23 -2l-5 -23q-6 2 -11 2h-11q-43 0 -82 -35t-67 -92.5t-47.5 -119.5t-30.5 -127l-16 -87h-26z" />
    <glyph glyph-name="s" unicode="s" horiz-adv-x="360" 
d="M142 -10q-76 0 -118 38l15 87h21q0 -28 -9 -80q34 -22 94 -22q56 0 91 27.5t35 76.5q0 23 -7.5 42t-23.5 33.5t-27.5 22.5t-31.5 20q-1 1 -15 9.5t-18.5 12t-17 13.5t-18 18t-13.5 20t-11 26t-3 30q0 56 38.5 88t98.5 32q67 0 102 -27l-15 -93h-21q0 18 9 83
q-31 14 -77 14q-48 0 -79 -25.5t-31 -69.5q0 -14 3 -26.5t10 -23.5t13 -18.5t17 -16t16 -12.5t17 -11.5t14 -8.5q51 -33 68 -53q28 -33 28 -78q0 -59 -43 -93.5t-111 -34.5z" />
    <glyph glyph-name="t" unicode="t" horiz-adv-x="303" 
d="M143 -10q-38 0 -53 28t-6 79l63 354h-89l5 23h89l24 135l27 4l-25 -139h117l-5 -23h-117l-63 -355q-17 -83 37 -83t92 51l15 -18q-45 -56 -111 -56z" />
    <glyph glyph-name="u" unicode="u" horiz-adv-x="533" 
d="M170 -10q-56 0 -76.5 39t-8.5 109l57 314q-28 3 -85 3l3 19q25 4 113 4l-61 -335q-24 -129 62 -129q46 0 88 35t72 92t51.5 119.5t33.5 126.5l12 65q-28 3 -85 3l3 19q25 4 113 4l-47 -260q-16 -87 -33 -195q56 0 84 -5l-3 -18h-113q15 102 48 244h-1
q-12 -40 -28.5 -76.5t-44 -80.5t-67.5 -70.5t-87 -26.5z" />
    <glyph glyph-name="v" unicode="v" horiz-adv-x="433" 
d="M166 0l-77 452q-42 3 -75 3l3 19q25 4 93 4l76 -449l235 445h28l-251 -474h-32z" />
    <glyph glyph-name="w" unicode="w" horiz-adv-x="685" 
d="M148 0l-57 452q-31 3 -75 3l3 19q25 4 95 4l54 -438l218 434h26l44 -310l17 -124l208 434h28l-229 -474h-26l-62 434l-218 -434h-26z" />
    <glyph glyph-name="x" unicode="x" horiz-adv-x="446" 
d="M7 0l203 247l-97 204q-41 4 -85 4l3 19q25 4 96 4l100 -210l169 206h32l-189 -230l105 -221q57 0 85 -5l-3 -18h-98l-106 223l-184 -223h-31z" />
    <glyph glyph-name="y" unicode="y" horiz-adv-x="433" 
d="M-21 -228q-25 0 -45 9l7 22q16 -7 44 -7q51 0 87.5 44t94.5 153l-78 459q-42 3 -75 3l3 19q25 4 93 4l75 -451l236 447h28l-253 -477q-36 -68 -58 -104t-48 -67t-51.5 -42.5t-59.5 -11.5z" />
    <glyph glyph-name="z" unicode="z" horiz-adv-x="401" 
d="M4 0l4 25l348 426h-238q-12 -72 -21 -93h-21l20 116h293l-5 -27l-350 -424h264q2 10 6.5 31.5t8.5 37.5t7 24h21l-21 -116h-316z" />
    <glyph glyph-name="braceleft" unicode="{" horiz-adv-x="324" 
d="M226 -149h-68q-44 0 -61.5 29t-8.5 78l37 202q9 49 -19.5 81t-69.5 32l5 25q41 0 80.5 32t48.5 81l38 205q18 104 107 104h68l-4 -24h-69q-63 0 -77 -80l-37 -209q-9 -54 -45.5 -84t-82.5 -37v-1q41 -6 66 -40t17 -83l-37 -207q-14 -80 47 -80h69z" />
    <glyph glyph-name="bar" unicode="|" horiz-adv-x="280" 
d="M44 -250l181 1000h16l-181 -1000h-16z" />
    <glyph glyph-name="braceright" unicode="}" horiz-adv-x="324" 
d="M-43 -150l4 24h69q63 0 77 80l37 209q9 54 45.5 84t82.5 37v1q-40 6 -66 40.5t-17 82.5l37 207q14 80 -47 80h-69l4 24h68q44 0 61.5 -29t8.5 -78l-37 -202q-9 -49 19.5 -81t69.5 -32l-5 -25q-41 0 -80.5 -32t-48.5 -81l-38 -205q-18 -104 -107 -104h-68z" />
    <glyph glyph-name="uni00A0" unicode="&#xa0;" horiz-adv-x="240" 
 />
    <glyph glyph-name="exclamdown" unicode="&#xa1;" horiz-adv-x="242" 
d="M158 426q-9 0 -15.5 7t-6.5 17q0 13 8.5 22.5t20.5 9.5q9 0 15.5 -7t6.5 -17q0 -13 -8.5 -22.5t-20.5 -9.5zM30 -192l97 508h18l-85 -508h-30z" />
    <glyph glyph-name="sterling" unicode="&#xa3;" horiz-adv-x="458" 
d="M7 0l4 21q126 74 152 217q5 20 12 84h-96l4 24h93q9 112 18 164q13 76 54.5 121t111.5 45q38 0 70 -14.5t44 -34.5l-18 -107h-19q0 34 10 101q-33 31 -91 31q-56 0 -91.5 -39t-45.5 -101q-8 -46 -17 -166h153l-4 -24h-151q-6 -51 -11 -82q-14 -81 -52.5 -134.5
t-86.5 -81.5h297q3 33 23 96h18l-22 -120h-359z" />
    <glyph glyph-name="yen" unicode="&#xa5;" horiz-adv-x="606" 
d="M161 0l3 18q28 5 87 5l15 83h-156l4 24h157l17 95h-157l4 24h158l-137 394q-56 0 -83 5l3 18h197l-3 -18q-25 -5 -85 -5l124 -363l256 363q-56 0 -84 5l3 18h197l-3 -18q-25 -5 -80 -5l-280 -394h159l-4 -24h-159l-17 -95h159l-4 -24h-160l-15 -83q57 0 85 -5l-3 -18
h-198z" />
    <glyph glyph-name="section" unicode="&#xa7;" horiz-adv-x="448" 
d="M142 -153q-60 0 -93 35l15 19q30 -30 83 -30q49 0 84 40.5t35 90.5q0 28 -12 60t-25.5 53.5t-41.5 63.5q-27 40 -40.5 62.5t-27 58t-13.5 64.5q0 45 26 83t57 57q-14 37 -14 68q0 65 43 111.5t106 46.5q60 0 93 -35l-15 -19q-30 30 -83 30q-49 0 -84 -40.5t-35 -90.5
q0 -28 12 -60t25.5 -53.5t41.5 -63.5q27 -40 40.5 -62.5t27 -58t13.5 -64.5q0 -44 -27 -84t-56 -57q14 -40 14 -67q0 -65 -43 -111.5t-106 -46.5zM268 93q25 18 46 51t21 66q0 28 -12 60t-25.5 53.5t-41.5 63.5q-44 64 -58 96q-26 -19 -46.5 -51t-20.5 -65q0 -28 12 -60
t25.5 -53.5t41.5 -63.5q39 -57 58 -97z" />
    <glyph glyph-name="dieresis" unicode="&#xa8;" horiz-adv-x="500" 
d="M234 549q-9 0 -16 7t-7 18t7 18t16 7t16 -7t7 -18t-7 -18t-16 -7zM382 549q-9 0 -16 7t-7 18t7 18t16 7t16 -7t7 -18t-7 -18t-16 -7z" />
    <glyph glyph-name="copyright" unicode="&#xa9;" horiz-adv-x="833" 
d="M443 -10q-153 0 -259.5 107.5t-106.5 261.5t106.5 262.5t259.5 108.5t259.5 -108.5t106.5 -262.5t-106.5 -261.5t-259.5 -107.5zM443 14q143 0 241.5 99.5t98.5 245.5q0 145 -98.5 246t-241.5 101t-241.5 -101t-98.5 -246q0 -146 98.5 -245.5t241.5 -99.5zM449 120
q-98 0 -161.5 69.5t-63.5 170.5t63.5 170.5t161.5 69.5q78 0 131 -47v-104h-21q-4 11 -4 94q-47 33 -106 33q-85 0 -142 -63.5t-57 -152.5t57 -152.5t142 -63.5q40 0 78.5 14t58.5 33l12 -20q-23 -20 -63.5 -35.5t-85.5 -15.5z" />
    <glyph glyph-name="guillemotleft" unicode="&#xab;" horiz-adv-x="423" 
d="M158 58l-109 188l176 187h31l-178 -190l108 -185h-28zM301 58l-109 188l176 187h31l-178 -190l108 -185h-28z" />
    <glyph glyph-name="uni00AD" unicode="&#xad;" horiz-adv-x="292" 
d="M62 280l5 24h180l-5 -24h-180z" />
    <glyph glyph-name="registered" unicode="&#xae;" horiz-adv-x="833" 
d="M443 -10q-153 0 -259.5 107.5t-106.5 261.5t106.5 262.5t259.5 108.5t259.5 -108.5t106.5 -262.5t-106.5 -261.5t-259.5 -107.5zM443 14q143 0 241.5 99.5t98.5 245.5q0 145 -98.5 246t-241.5 101t-241.5 -101t-98.5 -246q0 -146 98.5 -245.5t241.5 -99.5zM263 120v18
q26 3 69 5v434q-56 0 -69 5v18h178q63 0 101 -36.5t38 -85.5q0 -48 -38 -84.5t-101 -36.5h-16v-1q22 -16 44 -48l82 -116q23 -30 36.5 -41t35.5 -11h13q8 0 12 1v-18q-14 -6 -38 -6t-39 12t-43 50l-84 121q-20 26 -28 35t-22 15.5t-36 6.5v-214q42 -2 71 -5v-18h-166z
M358 381h81q54 0 84.5 28.5t30.5 67.5q0 41 -30.5 69t-84.5 28h-81v-193z" />
    <glyph glyph-name="overscore" unicode="&#xaf;" horiz-adv-x="500" 
d="M198 589l5 24h223l-5 -24h-223z" />
    <glyph glyph-name="degree" unicode="&#xb0;" horiz-adv-x="344" 
d="M229 432q-51 0 -83 36t-32 85q0 50 32.5 86.5t84.5 36.5q51 0 83 -36t32 -85q0 -50 -32.5 -86.5t-84.5 -36.5zM230 455q42 0 66.5 28t24.5 71t-24.5 71t-66.5 28t-66.5 -28t-24.5 -71t24.5 -71t66.5 -28z" />
    <glyph glyph-name="acute" unicode="&#xb4;" horiz-adv-x="500" 
d="M144 539l124 119h41l-144 -119h-21z" />
    <glyph glyph-name="mu" unicode="&#xb5;" horiz-adv-x="504" 
d="M13 -218l124 692h26l-59 -325q-11 -64 11.5 -99.5t78.5 -35.5q46 0 95.5 32.5t78.5 72.5l64 355h26l-71 -393q-8 -47 -6 -81h-27q-1 9 1 37q1 23 6 45q-9 -11 -31 -33q-66 -59 -141 -59q-84 0 -103 70h-1q-8 -68 -17 -115l-29 -163h-26z" />
    <glyph glyph-name="middot" unicode="&#xb7;" horiz-adv-x="155" 
d="M73 262q-9 0 -15.5 7t-6.5 17q0 13 8.5 22.5t20.5 9.5q9 0 15.5 -7t6.5 -17q0 -13 -8.5 -22.5t-20.5 -9.5z" />
    <glyph glyph-name="cedilla" unicode="&#xb8;" horiz-adv-x="500" 
d="M163 -210q-38 0 -57 12l8 22q17 -11 49 -11q63 0 63 48q0 42 -76 42l40 103h22l-31 -83q32 -2 51 -19.5t19 -42.5q0 -34 -25 -52.5t-63 -18.5z" />
    <glyph glyph-name="guillemotright" unicode="&#xbb;" horiz-adv-x="424" 
d="M21 57l178 190l-108 185h28l109 -188l-176 -187h-31zM165 57l178 190l-108 185h28l109 -188l-176 -187h-31z" />
    <glyph glyph-name="questiondown" unicode="&#xbf;" horiz-adv-x="360" 
d="M143 -200q-69 0 -109 33t-40 92q0 121 130 196q48 29 70.5 58.5t30.5 72.5l12 66h24l-12 -68q-9 -51 -36 -84.5t-78 -64.5q-115 -66 -115 -171q0 -106 128 -106q51 0 86 20l6 -22q-38 -22 -97 -22zM270 426q-9 0 -15.5 7t-6.5 17q0 13 8.5 22.5t20.5 9.5q9 0 15.5 -7
t6.5 -17q0 -13 -8.5 -22.5t-20.5 -9.5z" />
    <glyph glyph-name="Agrave" unicode="&#xc0;" horiz-adv-x="647" 
d="M-45 0l3 18q27 5 75 5l349 643h32l117 -643q50 0 78 -5l-3 -18h-183l3 18q27 5 79 5l-34 186h-309l-102 -186q54 0 81 -5l-3 -18h-183zM175 233h291l-73 402zM397 731l-102 119h40l82 -119h-20z" />
    <glyph glyph-name="Aacute" unicode="&#xc1;" horiz-adv-x="647" 
d="M-45 0l3 18q27 5 75 5l349 643h32l117 -643q50 0 78 -5l-3 -18h-183l3 18q27 5 79 5l-34 186h-309l-102 -186q54 0 81 -5l-3 -18h-183zM175 233h291l-73 402zM398 731l124 119h41l-144 -119h-21z" />
    <glyph glyph-name="Acircumflex" unicode="&#xc2;" horiz-adv-x="647" 
d="M-45 0l3 18q27 5 75 5l349 643h32l117 -643q50 0 78 -5l-3 -18h-183l3 18q27 5 79 5l-34 186h-309l-102 -186q54 0 81 -5l-3 -18h-183zM175 233h291l-73 402zM288 732l141 140h8l92 -140h-23l-77 107l-114 -107h-27z" />
    <glyph glyph-name="Atilde" unicode="&#xc3;" horiz-adv-x="647" 
d="M-45 0l3 18q27 5 75 5l349 643h32l117 -643q50 0 78 -5l-3 -18h-183l3 18q27 5 79 5l-34 186h-309l-102 -186q54 0 81 -5l-3 -18h-183zM175 233h291l-73 402zM461 742q-22 0 -48.5 22.5t-43.5 22.5q-28 0 -60 -34l-12 15q34 40 76 40q22 0 48 -22.5t44 -22.5q33 0 60 34
l12 -16q-33 -39 -76 -39z" />
    <glyph glyph-name="Adieresis" unicode="&#xc4;" horiz-adv-x="647" 
d="M-45 0l3 18q27 5 75 5l349 643h32l117 -643q50 0 78 -5l-3 -18h-183l3 18q27 5 79 5l-34 186h-309l-102 -186q54 0 81 -5l-3 -18h-183zM175 233h291l-73 402zM339 741q-9 0 -16 7t-7 18t7 18t16 7t16 -7t7 -18t-7 -18t-16 -7zM487 741q-9 0 -16 7t-7 18t7 18t16 7t16 -7
t7 -18t-7 -18t-16 -7z" />
    <glyph glyph-name="Aring" unicode="&#xc5;" horiz-adv-x="647" 
d="M-45 0l3 18q27 5 75 5l349 643h32l117 -643q50 0 78 -5l-3 -18h-183l3 18q27 5 79 5l-34 186h-309l-102 -186q54 0 81 -5l-3 -18h-183zM175 233h291l-73 402zM424 740q-36 0 -59.5 26t-23.5 60q0 35 24 61.5t61 26.5q36 0 59.5 -26t23.5 -60q0 -35 -24 -61.5t-61 -26.5z
M426 761q28 0 44 20t16 45q0 26 -17 46.5t-45 20.5t-44 -20t-16 -45q0 -26 17 -46.5t45 -20.5z" />
    <glyph glyph-name="AE" unicode="&#xc6;" horiz-adv-x="842" 
d="M-62 0l3 18q27 5 73 5l486 620l-40 2l-31 3l3 18h424l-21 -126h-19q0 29 11 102h-266l-51 -284h206q14 62 16 71h18l-30 -171h-17q1 27 9 76h-206l-56 -310h271q11 64 23 93h18l-21 -117h-407l3 18q27 5 86 5l34 186h-267l-146 -186q52 0 80 -5l-3 -18h-183zM209 233h252
l74 410h-5z" />
    <glyph glyph-name="Ccedilla" unicode="&#xc7;" horiz-adv-x="622" 
d="M336 -10q-131 0 -202.5 80t-71.5 200q0 167 110 286.5t282 119.5q115 0 162 -37l-18 -107h-19q0 24 11 94q-43 26 -139 26q-107 0 -191.5 -53.5t-128 -139t-43.5 -183.5q0 -115 64.5 -188.5t186.5 -73.5q108 0 182 44q13 74 20 93h18l-19 -107q-37 -27 -94.5 -40.5
t-109.5 -13.5zM285 -210q-38 0 -57 12l8 22q17 -11 49 -11q63 0 63 48q0 42 -76 42l40 103h22l-31 -83q32 -2 51 -19.5t19 -42.5q0 -34 -25 -52.5t-63 -18.5z" />
    <glyph glyph-name="Egrave" unicode="&#xc8;" horiz-adv-x="509" 
d="M1 0l3 18q27 5 86 5l113 620q-57 0 -85 5l3 18h402l-21 -126h-19q0 29 11 102h-266l-51 -284h206q6 34 16 71h18l-30 -171h-17q1 27 9 76h-206l-56 -310h271q11 64 23 93h18l-21 -117h-407zM339 731l-102 119h40l82 -119h-20z" />
    <glyph glyph-name="Eacute" unicode="&#xc9;" horiz-adv-x="509" 
d="M1 0l3 18q27 5 86 5l113 620q-57 0 -85 5l3 18h402l-21 -126h-19q0 29 11 102h-266l-51 -284h206q6 34 16 71h18l-30 -171h-17q1 27 9 76h-206l-56 -310h271q11 64 23 93h18l-21 -117h-407zM340 731l124 119h41l-144 -119h-21z" />
    <glyph glyph-name="Ecircumflex" unicode="&#xca;" horiz-adv-x="509" 
d="M1 0l3 18q27 5 86 5l113 620q-57 0 -85 5l3 18h402l-21 -126h-19q0 29 11 102h-266l-51 -284h206q6 34 16 71h18l-30 -171h-17q1 27 9 76h-206l-56 -310h271q11 64 23 93h18l-21 -117h-407zM230 732l141 140h8l92 -140h-23l-77 107l-114 -107h-27z" />
    <glyph glyph-name="Edieresis" unicode="&#xcb;" horiz-adv-x="509" 
d="M1 0l3 18q27 5 86 5l113 620q-57 0 -85 5l3 18h402l-21 -126h-19q0 29 11 102h-266l-51 -284h206q6 34 16 71h18l-30 -171h-17q1 27 9 76h-206l-56 -310h271q11 64 23 93h18l-21 -117h-407zM281 741q-9 0 -16 7t-7 18t7 18t16 7t16 -7t7 -18t-7 -18t-16 -7zM429 741
q-9 0 -16 7t-7 18t7 18t16 7t16 -7t7 -18t-7 -18t-16 -7z" />
    <glyph glyph-name="Igrave" unicode="&#xcc;" horiz-adv-x="286" 
d="M1 0l3 18q27 5 86 5l113 620q-57 0 -85 5l3 18h197l-3 -18q-27 -5 -86 -5l-113 -620q57 0 85 -5l-3 -18h-197zM220 731l-102 119h40l82 -119h-20z" />
    <glyph glyph-name="Iacute" unicode="&#xcd;" horiz-adv-x="286" 
d="M1 0l3 18q27 5 86 5l113 620q-57 0 -85 5l3 18h197l-3 -18q-27 -5 -86 -5l-113 -620q57 0 85 -5l-3 -18h-197zM220 731l124 119h41l-144 -119h-21z" />
    <glyph glyph-name="Icircumflex" unicode="&#xce;" horiz-adv-x="286" 
d="M1 0l3 18q27 5 86 5l113 620q-57 0 -85 5l3 18h197l-3 -18q-27 -5 -86 -5l-113 -620q57 0 85 -5l-3 -18h-197zM111 732l141 140h8l92 -140h-23l-77 107l-114 -107h-27z" />
    <glyph glyph-name="Idieresis" unicode="&#xcf;" horiz-adv-x="286" 
d="M1 0l3 18q27 5 86 5l113 620q-57 0 -85 5l3 18h197l-3 -18q-27 -5 -86 -5l-113 -620q57 0 85 -5l-3 -18h-197zM162 741q-9 0 -16 7t-7 18t7 18t16 7t16 -7t7 -18t-7 -18t-16 -7zM310 741q-9 0 -16 7t-7 18t7 18t16 7t16 -7t7 -18t-7 -18t-16 -7z" />
    <glyph glyph-name="Eth" unicode="&#xd0;" horiz-adv-x="666" 
d="M5 0l3 18q27 5 86 5l57 312h-73l5 24h72l52 284q-57 0 -85 5l3 18h204q141 0 226 -70t85 -194q0 -187 -119 -294.5t-311 -107.5h-205zM121 24h94q175 0 287 100t112 271q0 117 -77 182t-213 65h-92l-51 -283h124l-5 -24h-124z" />
    <glyph glyph-name="Ntilde" unicode="&#xd1;" horiz-adv-x="706" 
d="M1 0l3 18q27 5 86 5l113 620q-56 0 -84 5l3 18h110l294 -624l109 601q-57 0 -85 5l3 18h197l-3 -18q-27 -5 -86 -5l-117 -643h-25l-294 622l-109 -599q57 0 85 -5l-3 -18h-197zM494 742q-22 0 -48.5 22.5t-43.5 22.5q-28 0 -60 -34l-12 15q34 40 76 40q22 0 48 -22.5
t44 -22.5q33 0 60 34l12 -16q-33 -39 -76 -39z" />
    <glyph glyph-name="Ograve" unicode="&#xd2;" horiz-adv-x="702" 
d="M321 -10q-118 0 -188.5 82t-70.5 198q0 168 98.5 287t255.5 119q117 0 188.5 -82.5t71.5 -197.5q0 -168 -99 -287t-256 -119zM327 14q93 0 168 54t115 139t40 182q0 110 -65.5 186.5t-174.5 76.5q-139 0 -230.5 -112.5t-91.5 -262.5q0 -110 65 -186.5t174 -76.5zM409 731
l-102 119h40l82 -119h-20z" />
    <glyph glyph-name="Oacute" unicode="&#xd3;" horiz-adv-x="702" 
d="M321 -10q-118 0 -188.5 82t-70.5 198q0 168 98.5 287t255.5 119q117 0 188.5 -82.5t71.5 -197.5q0 -168 -99 -287t-256 -119zM327 14q93 0 168 54t115 139t40 182q0 110 -65.5 186.5t-174.5 76.5q-139 0 -230.5 -112.5t-91.5 -262.5q0 -110 65 -186.5t174 -76.5zM410 731
l124 119h41l-144 -119h-21z" />
    <glyph glyph-name="Ocircumflex" unicode="&#xd4;" horiz-adv-x="702" 
d="M321 -10q-118 0 -188.5 82t-70.5 198q0 168 98.5 287t255.5 119q117 0 188.5 -82.5t71.5 -197.5q0 -168 -99 -287t-256 -119zM327 14q93 0 168 54t115 139t40 182q0 110 -65.5 186.5t-174.5 76.5q-139 0 -230.5 -112.5t-91.5 -262.5q0 -110 65 -186.5t174 -76.5zM300 732
l141 140h8l92 -140h-23l-77 107l-114 -107h-27z" />
    <glyph glyph-name="Otilde" unicode="&#xd5;" horiz-adv-x="702" 
d="M321 -10q-118 0 -188.5 82t-70.5 198q0 168 98.5 287t255.5 119q117 0 188.5 -82.5t71.5 -197.5q0 -168 -99 -287t-256 -119zM327 14q93 0 168 54t115 139t40 182q0 110 -65.5 186.5t-174.5 76.5q-139 0 -230.5 -112.5t-91.5 -262.5q0 -110 65 -186.5t174 -76.5zM473 742
q-22 0 -48.5 22.5t-43.5 22.5q-28 0 -60 -34l-12 15q34 40 76 40q22 0 48 -22.5t44 -22.5q33 0 60 34l12 -16q-33 -39 -76 -39z" />
    <glyph glyph-name="Odieresis" unicode="&#xd6;" horiz-adv-x="702" 
d="M321 -10q-118 0 -188.5 82t-70.5 198q0 168 98.5 287t255.5 119q117 0 188.5 -82.5t71.5 -197.5q0 -168 -99 -287t-256 -119zM327 14q93 0 168 54t115 139t40 182q0 110 -65.5 186.5t-174.5 76.5q-139 0 -230.5 -112.5t-91.5 -262.5q0 -110 65 -186.5t174 -76.5zM351 741
q-9 0 -16 7t-7 18t7 18t16 7t16 -7t7 -18t-7 -18t-16 -7zM499 741q-9 0 -16 7t-7 18t7 18t16 7t16 -7t7 -18t-7 -18t-16 -7z" />
    <glyph glyph-name="multiply" unicode="&#xd7;" horiz-adv-x="493" 
d="M85 109l-16 18l166 141l-116 138l18 16l116 -138l166 141l16 -18l-166 -142l116 -137l-19 -16l-116 137z" />
    <glyph glyph-name="Oslash" unicode="&#xd8;" horiz-adv-x="703" 
d="M66 -58l-17 15l90 109q-76 82 -76 204q0 168 98.5 287t255.5 119q101 0 172 -66l87 105l17 -15l-88 -106q72 -80 72 -198q0 -168 -99 -287t-256 -119q-96 0 -166 60zM328 14q93 0 168 54t115 139t40 182q0 110 -63 184l-415 -502q62 -57 155 -57zM156 87l416 502
q-65 63 -161 63q-139 0 -230.5 -112.5t-91.5 -262.5q0 -117 67 -190z" />
    <glyph glyph-name="Ugrave" unicode="&#xd9;" horiz-adv-x="685" 
d="M299 -10q-63 0 -105.5 21.5t-60.5 57.5t-23.5 83t5.5 99l71 392q-57 0 -85 5l3 18h197l-3 -18q-27 -5 -86 -5l-71 -390q-10 -66 -4 -119t48 -86.5t118 -33.5q204 0 248 239l71 390q-57 0 -85 5l3 18h197l-3 -18q-27 -5 -86 -5l-71 -392q-24 -128 -91 -194.5t-187 -66.5z
M416 731l-102 119h40l82 -119h-20z" />
    <glyph glyph-name="Uacute" unicode="&#xda;" horiz-adv-x="685" 
d="M299 -10q-63 0 -105.5 21.5t-60.5 57.5t-23.5 83t5.5 99l71 392q-57 0 -85 5l3 18h197l-3 -18q-27 -5 -86 -5l-71 -390q-10 -66 -4 -119t48 -86.5t118 -33.5q204 0 248 239l71 390q-57 0 -85 5l3 18h197l-3 -18q-27 -5 -86 -5l-71 -392q-24 -128 -91 -194.5t-187 -66.5z
M417 731l124 119h41l-144 -119h-21z" />
    <glyph glyph-name="Ucircumflex" unicode="&#xdb;" horiz-adv-x="685" 
d="M299 -10q-63 0 -105.5 21.5t-60.5 57.5t-23.5 83t5.5 99l71 392q-57 0 -85 5l3 18h197l-3 -18q-27 -5 -86 -5l-71 -390q-10 -66 -4 -119t48 -86.5t118 -33.5q204 0 248 239l71 390q-57 0 -85 5l3 18h197l-3 -18q-27 -5 -86 -5l-71 -392q-24 -128 -91 -194.5t-187 -66.5z
M307 732l141 140h8l92 -140h-23l-77 107l-114 -107h-27z" />
    <glyph glyph-name="Udieresis" unicode="&#xdc;" horiz-adv-x="685" 
d="M299 -10q-63 0 -105.5 21.5t-60.5 57.5t-23.5 83t5.5 99l71 392q-57 0 -85 5l3 18h197l-3 -18q-27 -5 -86 -5l-71 -390q-10 -66 -4 -119t48 -86.5t118 -33.5q204 0 248 239l71 390q-57 0 -85 5l3 18h197l-3 -18q-27 -5 -86 -5l-71 -392q-24 -128 -91 -194.5t-187 -66.5z
M358 741q-9 0 -16 7t-7 18t7 18t16 7t16 -7t7 -18t-7 -18t-16 -7zM506 741q-9 0 -16 7t-7 18t7 18t16 7t16 -7t7 -18t-7 -18t-16 -7z" />
    <glyph glyph-name="Yacute" unicode="&#xdd;" horiz-adv-x="606" 
d="M161 0l3 18q28 5 87 5l42 227l-137 393q-56 0 -83 5l3 18h197l-3 -18q-25 -5 -85 -5l124 -363l256 363q-56 0 -84 5l3 18h197l-3 -18q-25 -5 -80 -5l-279 -393l-42 -227q57 0 85 -5l-3 -18h-198zM382 731l124 119h41l-144 -119h-21z" />
    <glyph glyph-name="Thorn" unicode="&#xde;" horiz-adv-x="500" 
d="M1 0l3 18q27 5 86 5l113 620q-57 0 -85 5l3 18h112l-23 -125h86q93 0 142.5 -41.5t49.5 -107.5q0 -98 -69 -157.5t-189 -59.5h-86l-28 -152q57 0 85 -5l-3 -18h-197zM148 199h85q107 0 168 52.5t61 135.5q0 59 -43 94.5t-129 35.5h-84z" />
    <glyph glyph-name="germandbls" unicode="&#xdf;" horiz-adv-x="523" 
d="M-53 -228q-51 0 -78 20l11 21q26 -17 71 -17q44 0 73.5 38.5t41.5 107.5l89 509h-96l4 23h96l10 58q37 198 206 198q58 0 96.5 -33.5t38.5 -89.5t-28.5 -94.5t-85.5 -72.5q-29 -18 -42 -26t-34 -24t-30 -31t-9 -30q0 -26 18 -44.5t66 -48.5q89 -59 89 -129
q0 -54 -41 -85.5t-98 -31.5q-75 0 -120 41l14 18q42 -35 110 -35q45 0 77.5 25t32.5 66q0 35 -19 61t-62 53q-52 34 -72 55t-20 53q0 10 2 18.5t7.5 17.5t9.5 15.5t14 15t15.5 13.5t19 14t19 12.5t21.5 13.5t21 13q50 31 75 64t25 81q0 45 -32 73t-82 28q-145 0 -177 -182
l-103 -586q-13 -77 -49.5 -121.5t-94.5 -44.5z" />
    <glyph glyph-name="agrave" unicode="&#xe0;" horiz-adv-x="478" 
d="M141 -10q-48 0 -74.5 35.5t-26.5 96.5q0 65 16 127.5t47.5 116t84.5 86t119 32.5q47 0 109 -10l-46 -256q-16 -87 -33 -195q56 0 84 -5l-3 -18h-113q16 105 44 223h-1q-12 -37 -29 -74t-42.5 -74.5t-61 -61t-74.5 -23.5zM145 13q43 0 84 39t69 97.5t47 116.5t27 108
l14 80q-42 7 -88 7q-56 0 -101.5 -31t-73.5 -80.5t-43 -107t-15 -113.5q0 -116 80 -116zM280 539l-102 119h40l82 -119h-20z" />
    <glyph glyph-name="aacute" unicode="&#xe1;" horiz-adv-x="478" 
d="M141 -10q-48 0 -74.5 35.5t-26.5 96.5q0 65 16 127.5t47.5 116t84.5 86t119 32.5q47 0 109 -10l-46 -256q-16 -87 -33 -195q56 0 84 -5l-3 -18h-113q16 105 44 223h-1q-12 -37 -29 -74t-42.5 -74.5t-61 -61t-74.5 -23.5zM145 13q43 0 84 39t69 97.5t47 116.5t27 108
l14 80q-42 7 -88 7q-56 0 -101.5 -31t-73.5 -80.5t-43 -107t-15 -113.5q0 -116 80 -116zM280 539l124 119h41l-144 -119h-21z" />
    <glyph glyph-name="acircumflex" unicode="&#xe2;" horiz-adv-x="478" 
d="M141 -10q-48 0 -74.5 35.5t-26.5 96.5q0 65 16 127.5t47.5 116t84.5 86t119 32.5q47 0 109 -10l-46 -256q-16 -87 -33 -195q56 0 84 -5l-3 -18h-113q16 105 44 223h-1q-12 -37 -29 -74t-42.5 -74.5t-61 -61t-74.5 -23.5zM145 13q43 0 84 39t69 97.5t47 116.5t27 108
l14 80q-42 7 -88 7q-56 0 -101.5 -31t-73.5 -80.5t-43 -107t-15 -113.5q0 -116 80 -116zM171 540l141 140h8l92 -140h-23l-77 107l-114 -107h-27z" />
    <glyph glyph-name="atilde" unicode="&#xe3;" horiz-adv-x="478" 
d="M141 -10q-48 0 -74.5 35.5t-26.5 96.5q0 65 16 127.5t47.5 116t84.5 86t119 32.5q47 0 109 -10l-46 -256q-16 -87 -33 -195q56 0 84 -5l-3 -18h-113q16 105 44 223h-1q-12 -37 -29 -74t-42.5 -74.5t-61 -61t-74.5 -23.5zM145 13q43 0 84 39t69 97.5t47 116.5t27 108
l14 80q-42 7 -88 7q-56 0 -101.5 -31t-73.5 -80.5t-43 -107t-15 -113.5q0 -116 80 -116zM344 550q-22 0 -48.5 22.5t-43.5 22.5q-28 0 -60 -34l-12 15q34 40 76 40q22 0 48 -22.5t44 -22.5q33 0 60 34l12 -16q-33 -39 -76 -39z" />
    <glyph glyph-name="adieresis" unicode="&#xe4;" horiz-adv-x="478" 
d="M141 -10q-48 0 -74.5 35.5t-26.5 96.5q0 65 16 127.5t47.5 116t84.5 86t119 32.5q47 0 109 -10l-46 -256q-16 -87 -33 -195q56 0 84 -5l-3 -18h-113q16 105 44 223h-1q-12 -37 -29 -74t-42.5 -74.5t-61 -61t-74.5 -23.5zM145 13q43 0 84 39t69 97.5t47 116.5t27 108
l14 80q-42 7 -88 7q-56 0 -101.5 -31t-73.5 -80.5t-43 -107t-15 -113.5q0 -116 80 -116zM222 549q-9 0 -16 7t-7 18t7 18t16 7t16 -7t7 -18t-7 -18t-16 -7zM370 549q-9 0 -16 7t-7 18t7 18t16 7t16 -7t7 -18t-7 -18t-16 -7z" />
    <glyph glyph-name="aring" unicode="&#xe5;" horiz-adv-x="478" 
d="M141 -10q-48 0 -74.5 35.5t-26.5 96.5q0 65 16 127.5t47.5 116t84.5 86t119 32.5q47 0 109 -10l-46 -256q-16 -87 -33 -195q56 0 84 -5l-3 -18h-113q16 105 44 223h-1q-12 -37 -29 -74t-42.5 -74.5t-61 -61t-74.5 -23.5zM145 13q43 0 84 39t69 97.5t47 116.5t27 108
l14 80q-42 7 -88 7q-56 0 -101.5 -31t-73.5 -80.5t-43 -107t-15 -113.5q0 -116 80 -116zM307 548q-36 0 -59.5 26t-23.5 60q0 35 24 61.5t61 26.5q36 0 59.5 -26t23.5 -60q0 -35 -24 -61.5t-61 -26.5zM309 569q28 0 44 20t16 45q0 26 -17 46.5t-45 20.5t-44 -20t-16 -45
q0 -26 17 -46.5t45 -20.5z" />
    <glyph glyph-name="ae" unicode="&#xe6;" horiz-adv-x="666" 
d="M124 -10q-45 0 -77 30t-32 75q0 82 85 129q74 42 187 42h30l11 65q12 66 -10.5 97.5t-81.5 31.5q-69 0 -135 -56l-12 18q72 62 151 62q62 0 93 -36.5t19 -103.5h1q26 62 75 101t116 39q44 0 75 -25.5t31 -68.5q0 -71 -81 -109.5t-194 -38.5h-37q-6 -33 -6 -64
q0 -164 113 -164q73 0 132 64l14 -18q-62 -70 -150 -70q-95 0 -124 102q-82 -102 -193 -102zM127 14q102 0 185 100q-5 24 -5 60q0 39 5 68h-30q-97 0 -167 -37q-75 -42 -75 -110q0 -33 25.5 -57t61.5 -24zM344 265h38q100 0 171 32.5t71 92.5q0 32 -23.5 51t-60.5 19
q-68 0 -121.5 -57.5t-74.5 -137.5z" />
    <glyph glyph-name="ccedilla" unicode="&#xe7;" horiz-adv-x="391" 
d="M173 -10q-68 0 -101.5 51t-33.5 133q0 120 67.5 215t170.5 95q61 0 99 -31l-16 -93h-21q0 19 9 84q-31 17 -75 17q-59 0 -108.5 -44.5t-74.5 -109t-25 -129.5q0 -165 113 -165q73 0 132 65l14 -18q-62 -70 -150 -70zM139 -210q-38 0 -57 12l8 22q17 -11 49 -11
q63 0 63 48q0 42 -76 42l40 103h22l-31 -83q32 -2 51 -19.5t19 -42.5q0 -34 -25 -52.5t-63 -18.5z" />
    <glyph glyph-name="egrave" unicode="&#xe8;" horiz-adv-x="398" 
d="M173 -10q-68 0 -101.5 51t-33.5 133q0 76 29 146.5t84.5 117t124.5 46.5q44 0 75 -25.5t31 -68.5q0 -135 -317 -184q-1 -5 -1 -15v-13q0 -165 113 -165q73 0 132 64l14 -17q-62 -70 -150 -70zM272 461q-77 0 -133 -69.5t-71 -162.5q288 46 288 161q0 32 -23.5 51.5
t-60.5 19.5zM260 539l-102 119h40l82 -119h-20z" />
    <glyph glyph-name="eacute" unicode="&#xe9;" horiz-adv-x="398" 
d="M173 -10q-68 0 -101.5 51t-33.5 133q0 76 29 146.5t84.5 117t124.5 46.5q44 0 75 -25.5t31 -68.5q0 -135 -317 -184q-1 -5 -1 -15v-13q0 -165 113 -165q73 0 132 64l14 -17q-62 -70 -150 -70zM272 461q-77 0 -133 -69.5t-71 -162.5q288 46 288 161q0 32 -23.5 51.5
t-60.5 19.5zM260 539l124 119h41l-144 -119h-21z" />
    <glyph glyph-name="ecircumflex" unicode="&#xea;" horiz-adv-x="398" 
d="M173 -10q-68 0 -101.5 51t-33.5 133q0 76 29 146.5t84.5 117t124.5 46.5q44 0 75 -25.5t31 -68.5q0 -135 -317 -184q-1 -5 -1 -15v-13q0 -165 113 -165q73 0 132 64l14 -17q-62 -70 -150 -70zM272 461q-77 0 -133 -69.5t-71 -162.5q288 46 288 161q0 32 -23.5 51.5
t-60.5 19.5zM151 540l141 140h8l92 -140h-23l-77 107l-114 -107h-27z" />
    <glyph glyph-name="edieresis" unicode="&#xeb;" horiz-adv-x="398" 
d="M173 -10q-68 0 -101.5 51t-33.5 133q0 76 29 146.5t84.5 117t124.5 46.5q44 0 75 -25.5t31 -68.5q0 -135 -317 -184q-1 -5 -1 -15v-13q0 -165 113 -165q73 0 132 64l14 -17q-62 -70 -150 -70zM272 461q-77 0 -133 -69.5t-71 -162.5q288 46 288 161q0 32 -23.5 51.5
t-60.5 19.5zM202 549q-9 0 -16 7t-7 18t7 18t16 7t16 -7t7 -18t-7 -18t-16 -7zM350 549q-9 0 -16 7t-7 18t7 18t16 7t16 -7t7 -18t-7 -18t-16 -7z" />
    <glyph glyph-name="igrave" unicode="&#xec;" horiz-adv-x="254" 
d="M70 0l82 452q-28 3 -85 3l3 19q25 4 116 4l-14 -60l-72 -395q57 0 85 -5l-3 -18h-112zM166 539l-102 119h40l82 -119h-20z" />
    <glyph glyph-name="iacute" unicode="&#xed;" horiz-adv-x="254" 
d="M70 0l82 452q-28 3 -85 3l3 19q25 4 116 4l-14 -60l-72 -395q57 0 85 -5l-3 -18h-112zM166 539l124 119h41l-144 -119h-21z" />
    <glyph glyph-name="icircumflex" unicode="&#xee;" horiz-adv-x="254" 
d="M70 0l82 452q-28 3 -85 3l3 19q25 4 116 4l-14 -60l-72 -395q57 0 85 -5l-3 -18h-112zM57 540l141 140h8l92 -140h-23l-77 107l-114 -107h-27z" />
    <glyph glyph-name="idieresis" unicode="&#xef;" horiz-adv-x="254" 
d="M70 0l82 452q-28 3 -85 3l3 19q25 4 116 4l-14 -60l-72 -395q57 0 85 -5l-3 -18h-112zM108 549q-9 0 -16 7t-7 18t7 18t16 7t16 -7t7 -18t-7 -18t-16 -7zM256 549q-9 0 -16 7t-7 18t7 18t16 7t16 -7t7 -18t-7 -18t-16 -7z" />
    <glyph glyph-name="eth" unicode="&#xf0;" horiz-adv-x="459" 
d="M184 -10q-51 0 -85.5 31t-47.5 71t-13 84q0 116 66 212t171 96q31 0 65 -18t53 -44q-12 141 -89 216l-93 -72l-12 18l89 68q-69 55 -173 55l8 23q110 0 185 -62l95 73l12 -18l-90 -70q96 -96 96 -275q0 -97 -27 -184t-82.5 -145.5t-127.5 -58.5zM190 14q61 0 109 55.5
t72 136t24 165.5v20q-18 29 -55 49t-71 20q-60 0 -109 -45t-72.5 -107.5t-23.5 -124.5q0 -69 30 -119t96 -50z" />
    <glyph glyph-name="ntilde" unicode="&#xf1;" horiz-adv-x="532" 
d="M71 0l81 452q-28 3 -85 3l3 19q25 4 116 4l-14 -60q-36 -180 -38 -188h1q82 254 224 254q56 0 78 -39t10 -109l-57 -313q57 0 85 -5l-3 -18h-112l60 331q24 130 -65 130q-46 0 -87.5 -35t-71.5 -92t-51 -120t-32 -127l-16 -87h-26zM371 550q-22 0 -48.5 22.5t-43.5 22.5
q-28 0 -60 -34l-12 15q34 40 76 40q22 0 48 -22.5t44 -22.5q33 0 60 34l12 -16q-33 -39 -76 -39z" />
    <glyph glyph-name="ograve" unicode="&#xf2;" horiz-adv-x="459" 
d="M184 -10q-51 0 -85.5 31t-47.5 71t-13 84q0 116 66 212t171 96q51 0 85.5 -31t47.5 -71t13 -84q0 -116 -66 -212t-171 -96zM190 13q61 0 109.5 45t72 108t23.5 125q0 69 -30 119.5t-96 50.5q-61 0 -109.5 -45t-72 -108t-23.5 -125q0 -69 30 -119.5t96 -50.5zM272 539
l-102 119h40l82 -119h-20z" />
    <glyph glyph-name="oacute" unicode="&#xf3;" horiz-adv-x="459" 
d="M184 -10q-51 0 -85.5 31t-47.5 71t-13 84q0 116 66 212t171 96q51 0 85.5 -31t47.5 -71t13 -84q0 -116 -66 -212t-171 -96zM190 13q61 0 109.5 45t72 108t23.5 125q0 69 -30 119.5t-96 50.5q-61 0 -109.5 -45t-72 -108t-23.5 -125q0 -69 30 -119.5t96 -50.5zM272 539
l124 119h41l-144 -119h-21z" />
    <glyph glyph-name="ocircumflex" unicode="&#xf4;" horiz-adv-x="459" 
d="M184 -10q-51 0 -85.5 31t-47.5 71t-13 84q0 116 66 212t171 96q51 0 85.5 -31t47.5 -71t13 -84q0 -116 -66 -212t-171 -96zM190 13q61 0 109.5 45t72 108t23.5 125q0 69 -30 119.5t-96 50.5q-61 0 -109.5 -45t-72 -108t-23.5 -125q0 -69 30 -119.5t96 -50.5zM163 540
l141 140h8l92 -140h-23l-77 107l-114 -107h-27z" />
    <glyph glyph-name="otilde" unicode="&#xf5;" horiz-adv-x="459" 
d="M184 -10q-51 0 -85.5 31t-47.5 71t-13 84q0 116 66 212t171 96q51 0 85.5 -31t47.5 -71t13 -84q0 -116 -66 -212t-171 -96zM190 13q61 0 109.5 45t72 108t23.5 125q0 69 -30 119.5t-96 50.5q-61 0 -109.5 -45t-72 -108t-23.5 -125q0 -69 30 -119.5t96 -50.5zM336 550
q-22 0 -48.5 22.5t-43.5 22.5q-28 0 -60 -34l-12 15q34 40 76 40q22 0 48 -22.5t44 -22.5q33 0 60 34l12 -16q-33 -39 -76 -39z" />
    <glyph glyph-name="odieresis" unicode="&#xf6;" horiz-adv-x="459" 
d="M184 -10q-51 0 -85.5 31t-47.5 71t-13 84q0 116 66 212t171 96q51 0 85.5 -31t47.5 -71t13 -84q0 -116 -66 -212t-171 -96zM190 13q61 0 109.5 45t72 108t23.5 125q0 69 -30 119.5t-96 50.5q-61 0 -109.5 -45t-72 -108t-23.5 -125q0 -69 30 -119.5t96 -50.5zM214 549
q-9 0 -16 7t-7 18t7 18t16 7t16 -7t7 -18t-7 -18t-16 -7zM362 549q-9 0 -16 7t-7 18t7 18t16 7t16 -7t7 -18t-7 -18t-16 -7z" />
    <glyph glyph-name="oslash" unicode="&#xf8;" horiz-adv-x="459" 
d="M1 -45l-17 15l79 95q-25 46 -25 111q0 116 66 212t171 96q62 0 100 -45l83 99l17 -15l-86 -103q32 -51 32 -122q0 -116 -66 -212t-171 -96q-70 0 -108 55zM81 87l277 332q-31 41 -89 41q-60 0 -109 -45t-72.5 -107.5t-23.5 -124.5q0 -55 17 -96zM190 14q60 0 109 45
t72.5 107.5t23.5 124.5q0 63 -24 108l-278 -334q31 -51 97 -51z" />
    <glyph glyph-name="ugrave" unicode="&#xf9;" horiz-adv-x="533" 
d="M170 -10q-56 0 -76.5 39t-8.5 109l57 314q-28 3 -85 3l3 19q25 4 113 4l-61 -335q-24 -129 62 -129q46 0 88 35t72 92t51.5 119.5t33.5 126.5l12 65q-28 3 -85 3l3 19q25 4 113 4l-47 -260q-16 -87 -33 -195q56 0 84 -5l-3 -18h-113q15 102 48 244h-1
q-12 -40 -28.5 -76.5t-44 -80.5t-67.5 -70.5t-87 -26.5zM284 539l-102 119h40l82 -119h-20z" />
    <glyph glyph-name="uacute" unicode="&#xfa;" horiz-adv-x="533" 
d="M170 -10q-56 0 -76.5 39t-8.5 109l57 314q-28 3 -85 3l3 19q25 4 113 4l-61 -335q-24 -129 62 -129q46 0 88 35t72 92t51.5 119.5t33.5 126.5l12 65q-28 3 -85 3l3 19q25 4 113 4l-47 -260q-16 -87 -33 -195q56 0 84 -5l-3 -18h-113q15 102 48 244h-1
q-12 -40 -28.5 -76.5t-44 -80.5t-67.5 -70.5t-87 -26.5zM284 539l124 119h41l-144 -119h-21z" />
    <glyph glyph-name="ucircumflex" unicode="&#xfb;" horiz-adv-x="533" 
d="M170 -10q-56 0 -76.5 39t-8.5 109l57 314q-28 3 -85 3l3 19q25 4 113 4l-61 -335q-24 -129 62 -129q46 0 88 35t72 92t51.5 119.5t33.5 126.5l12 65q-28 3 -85 3l3 19q25 4 113 4l-47 -260q-16 -87 -33 -195q56 0 84 -5l-3 -18h-113q15 102 48 244h-1
q-12 -40 -28.5 -76.5t-44 -80.5t-67.5 -70.5t-87 -26.5zM175 540l141 140h8l92 -140h-23l-77 107l-114 -107h-27z" />
    <glyph glyph-name="udieresis" unicode="&#xfc;" horiz-adv-x="533" 
d="M170 -10q-56 0 -76.5 39t-8.5 109l57 314q-28 3 -85 3l3 19q25 4 113 4l-61 -335q-24 -129 62 -129q46 0 88 35t72 92t51.5 119.5t33.5 126.5l12 65q-28 3 -85 3l3 19q25 4 113 4l-47 -260q-16 -87 -33 -195q56 0 84 -5l-3 -18h-113q15 102 48 244h-1
q-12 -40 -28.5 -76.5t-44 -80.5t-67.5 -70.5t-87 -26.5zM226 549q-9 0 -16 7t-7 18t7 18t16 7t16 -7t7 -18t-7 -18t-16 -7zM374 549q-9 0 -16 7t-7 18t7 18t16 7t16 -7t7 -18t-7 -18t-16 -7z" />
    <glyph glyph-name="yacute" unicode="&#xfd;" horiz-adv-x="433" 
d="M-21 -228q-25 0 -45 9l7 22q16 -7 44 -7q51 0 87.5 44t94.5 153l-78 459q-42 3 -75 3l3 19q25 4 93 4l75 -451l236 447h28l-253 -477q-36 -68 -58 -104t-48 -67t-51.5 -42.5t-59.5 -11.5zM264 539l124 119h41l-144 -119h-21z" />
    <glyph glyph-name="thorn" unicode="&#xfe;" horiz-adv-x="471" 
d="M-65 -218l3 18q27 5 86 5l160 893q-28 3 -85 3l3 19q20 4 113 4l-45 -250q-6 -32 -12.5 -67.5t-15.5 -81t-15 -74.5q12 38 29 74.5t42 74t60 61t74 23.5q48 0 73.5 -35.5t25.5 -96.5q0 -66 -15.5 -128t-46.5 -115.5t-83.5 -86t-118.5 -32.5q-36 0 -83 7l-34 -192
q57 0 85 -5l-3 -18h-197zM176 14q56 0 101.5 31t72.5 80.5t41.5 106.5t14.5 113q0 115 -78 115q-44 0 -84 -38.5t-68 -97t-46.5 -116.5t-26.5 -108l-14 -79q42 -7 87 -7z" />
    <glyph glyph-name="ydieresis" unicode="&#xff;" horiz-adv-x="433" 
d="M-21 -228q-25 0 -45 9l7 22q16 -7 44 -7q51 0 87.5 44t94.5 153l-78 459q-42 3 -75 3l3 19q25 4 93 4l75 -451l236 447h28l-253 -477q-36 -68 -58 -104t-48 -67t-51.5 -42.5t-59.5 -11.5zM206 549q-9 0 -16 7t-7 18t7 18t16 7t16 -7t7 -18t-7 -18t-16 -7zM354 549
q-9 0 -16 7t-7 18t7 18t16 7t16 -7t7 -18t-7 -18t-16 -7z" />
    <glyph glyph-name="Amacron" unicode="&#x100;" horiz-adv-x="647" 
d="M-45 0l3 18q27 5 75 5l349 643h32l117 -643q50 0 78 -5l-3 -18h-183l3 18q27 5 79 5l-34 186h-309l-102 -186q54 0 81 -5l-3 -18h-183zM175 233h291l-73 402zM302 781l5 24h223l-5 -24h-223z" />
    <glyph glyph-name="amacron" unicode="&#x101;" horiz-adv-x="478" 
d="M141 -10q-48 0 -74.5 35.5t-26.5 96.5q0 65 16 127.5t47.5 116t84.5 86t119 32.5q47 0 109 -10l-46 -256q-16 -87 -33 -195q56 0 84 -5l-3 -18h-113q16 105 44 223h-1q-12 -37 -29 -74t-42.5 -74.5t-61 -61t-74.5 -23.5zM145 13q43 0 84 39t69 97.5t47 116.5t27 108
l14 80q-42 7 -88 7q-56 0 -101.5 -31t-73.5 -80.5t-43 -107t-15 -113.5q0 -116 80 -116zM185 589l5 24h223l-5 -24h-223z" />
    <glyph glyph-name="Abreve" unicode="&#x102;" horiz-adv-x="647" 
d="M-45 0l3 18q27 5 75 5l349 643h32l117 -643q50 0 78 -5l-3 -18h-183l3 18q27 5 79 5l-34 186h-309l-102 -186q54 0 81 -5l-3 -18h-183zM175 233h291l-73 402zM413 733q-48 0 -73 37t-25 90v8h23v-8q0 -43 19.5 -73t57.5 -30q42 0 74.5 34.5t44.5 76.5h23
q-16 -55 -53.5 -95t-90.5 -40z" />
    <glyph glyph-name="abreve" unicode="&#x103;" horiz-adv-x="478" 
d="M141 -10q-48 0 -74.5 35.5t-26.5 96.5q0 65 16 127.5t47.5 116t84.5 86t119 32.5q47 0 109 -10l-46 -256q-16 -87 -33 -195q56 0 84 -5l-3 -18h-113q16 105 44 223h-1q-12 -37 -29 -74t-42.5 -74.5t-61 -61t-74.5 -23.5zM145 13q43 0 84 39t69 97.5t47 116.5t27 108
l14 80q-42 7 -88 7q-56 0 -101.5 -31t-73.5 -80.5t-43 -107t-15 -113.5q0 -116 80 -116zM296 541q-48 0 -73 37t-25 90v8h23v-8q0 -43 19.5 -73t57.5 -30q42 0 74.5 34.5t44.5 76.5h23q-16 -55 -53.5 -95t-90.5 -40z" />
    <glyph glyph-name="Aogonek" unicode="&#x104;" horiz-adv-x="647" 
d="M-45 0l3 18q27 5 75 5l349 643h32l117 -643q50 0 78 -5l-3 -18h-183l3 18q27 5 79 5l-34 186h-309l-102 -186q54 0 81 -5l-3 -18h-183zM175 233h291l-73 402zM511 -210q-33 0 -54.5 19t-21.5 51q0 62 74 140h24q-36 -43 -54.5 -74t-18.5 -64q0 -23 15 -36.5t36 -13.5
q28 0 52 13l8 -18q-23 -17 -60 -17z" />
    <glyph glyph-name="aogonek" unicode="&#x105;" horiz-adv-x="478" 
d="M141 -10q-48 0 -74.5 35.5t-26.5 96.5q0 65 16 127.5t47.5 116t84.5 86t119 32.5q47 0 109 -10l-46 -256q-16 -87 -33 -195q56 0 84 -5l-3 -18h-113q16 105 44 223h-1q-12 -37 -29 -74t-42.5 -74.5t-61 -61t-74.5 -23.5zM145 13q43 0 84 39t69 97.5t47 116.5t27 108
l14 80q-42 7 -88 7q-56 0 -101.5 -31t-73.5 -80.5t-43 -107t-15 -113.5q0 -116 80 -116zM345 -210q-33 0 -54.5 19t-21.5 51q0 62 74 140h24q-36 -43 -54.5 -74t-18.5 -64q0 -23 15 -36.5t36 -13.5q28 0 52 13l8 -18q-23 -17 -60 -17z" />
    <glyph glyph-name="Cacute" unicode="&#x106;" horiz-adv-x="622" 
d="M336 -10q-131 0 -202.5 80t-71.5 200q0 167 110 286.5t282 119.5q115 0 162 -37l-18 -107h-19q0 24 11 94q-43 26 -139 26q-107 0 -191.5 -53.5t-128 -139t-43.5 -183.5q0 -115 64.5 -188.5t186.5 -73.5q108 0 182 44q13 74 20 93h18l-19 -107q-37 -27 -94.5 -40.5
t-109.5 -13.5zM422 731l124 119h41l-144 -119h-21z" />
    <glyph glyph-name="cacute" unicode="&#x107;" horiz-adv-x="391" 
d="M173 -10q-68 0 -101.5 51t-33.5 133q0 120 67.5 215t170.5 95q61 0 99 -31l-16 -93h-21q0 19 9 84q-31 17 -75 17q-59 0 -108.5 -44.5t-74.5 -109t-25 -129.5q0 -165 113 -165q73 0 132 65l14 -18q-62 -70 -150 -70zM261 539l124 119h41l-144 -119h-21z" />
    <glyph glyph-name="Ccircumflex" unicode="&#x108;" horiz-adv-x="622" 
d="M336 -10q-131 0 -202.5 80t-71.5 200q0 167 110 286.5t282 119.5q115 0 162 -37l-18 -107h-19q0 24 11 94q-43 26 -139 26q-107 0 -191.5 -53.5t-128 -139t-43.5 -183.5q0 -115 64.5 -188.5t186.5 -73.5q108 0 182 44q13 74 20 93h18l-19 -107q-37 -27 -94.5 -40.5
t-109.5 -13.5zM312 732l141 140h8l92 -140h-23l-77 107l-114 -107h-27z" />
    <glyph glyph-name="ccircumflex" unicode="&#x109;" horiz-adv-x="391" 
d="M173 -10q-68 0 -101.5 51t-33.5 133q0 120 67.5 215t170.5 95q61 0 99 -31l-16 -93h-21q0 19 9 84q-31 17 -75 17q-59 0 -108.5 -44.5t-74.5 -109t-25 -129.5q0 -165 113 -165q73 0 132 65l14 -18q-62 -70 -150 -70zM152 540l141 140h8l92 -140h-23l-77 107l-114 -107
h-27z" />
    <glyph glyph-name="Cdotaccent" unicode="&#x10a;" horiz-adv-x="622" 
d="M336 -10q-131 0 -202.5 80t-71.5 200q0 167 110 286.5t282 119.5q115 0 162 -37l-18 -107h-19q0 24 11 94q-43 26 -139 26q-107 0 -191.5 -53.5t-128 -139t-43.5 -183.5q0 -115 64.5 -188.5t186.5 -73.5q108 0 182 44q13 74 20 93h18l-19 -107q-37 -27 -94.5 -40.5
t-109.5 -13.5zM444 782q-9 0 -16 7t-7 18t7 18t16 7t16 -7t7 -18t-7 -18t-16 -7z" />
    <glyph glyph-name="cdotaccent" unicode="&#x10b;" horiz-adv-x="391" 
d="M173 -10q-68 0 -101.5 51t-33.5 133q0 120 67.5 215t170.5 95q61 0 99 -31l-16 -93h-21q0 19 9 84q-31 17 -75 17q-59 0 -108.5 -44.5t-74.5 -109t-25 -129.5q0 -165 113 -165q73 0 132 65l14 -18q-62 -70 -150 -70zM284 590q-9 0 -16 7t-7 18t7 18t16 7t16 -7t7 -18
t-7 -18t-16 -7z" />
    <glyph glyph-name="Ccaron" unicode="&#x10c;" horiz-adv-x="622" 
d="M336 -10q-131 0 -202.5 80t-71.5 200q0 167 110 286.5t282 119.5q115 0 162 -37l-18 -107h-19q0 24 11 94q-43 26 -139 26q-107 0 -191.5 -53.5t-128 -139t-43.5 -183.5q0 -115 64.5 -188.5t186.5 -73.5q108 0 182 44q13 74 20 93h18l-19 -107q-37 -27 -94.5 -40.5
t-109.5 -13.5zM430 732l-92 140h23l77 -107l114 107h27l-141 -140h-8z" />
    <glyph glyph-name="ccaron" unicode="&#x10d;" horiz-adv-x="391" 
d="M173 -10q-68 0 -101.5 51t-33.5 133q0 120 67.5 215t170.5 95q61 0 99 -31l-16 -93h-21q0 19 9 84q-31 17 -75 17q-59 0 -108.5 -44.5t-74.5 -109t-25 -129.5q0 -165 113 -165q73 0 132 65l14 -18q-62 -70 -150 -70zM270 540l-92 140h23l77 -107l114 107h27l-141 -140h-8
z" />
    <glyph glyph-name="Dcaron" unicode="&#x10e;" horiz-adv-x="662" 
d="M1 0l3 18q27 5 86 5l113 620q-57 0 -85 5l3 18h204q141 0 226 -70t85 -194q0 -187 -119 -294.5t-311 -107.5h-205zM117 24h94q175 0 287 100t112 271q0 117 -77 182t-213 65h-92zM366 732l-92 140h23l77 -107l114 107h27l-141 -140h-8z" />
    <glyph glyph-name="dcaron" unicode="&#x10f;" horiz-adv-x="490" 
d="M142 -10q-48 0 -75 35.5t-27 96.5q0 65 16.5 127.5t48 116t85 86t119.5 32.5q28 0 84 -6l40 220q-28 3 -85 3l3 19q25 4 113 4l-6 -35l-86 -471q-18 -100 -33 -195q56 0 84 -5l-3 -18h-113q16 105 44 223h-1q-11 -37 -29 -74t-43.5 -74.5t-61 -61t-74.5 -23.5zM146 13
q43 0 84 39t69.5 97.5t47.5 116.5t27 108l14 80q-42 7 -88 7q-56 0 -102 -31t-74 -80.5t-43.5 -107t-15.5 -113.5q0 -116 81 -116zM471 561l68 159h35l-87 -159h-16z" />
    <glyph glyph-name="Dcroat" unicode="&#x110;" horiz-adv-x="666" 
d="M5 0l3 18q27 5 86 5l57 312h-73l5 24h72l52 284q-57 0 -85 5l3 18h204q141 0 226 -70t85 -194q0 -187 -119 -294.5t-311 -107.5h-205zM121 24h94q175 0 287 100t112 271q0 117 -77 182t-213 65h-92l-51 -283h124l-5 -24h-124z" />
    <glyph glyph-name="dslash" unicode="&#x111;" horiz-adv-x="490" 
d="M142 -10q-48 0 -75 35.5t-27 96.5q0 65 16.5 127.5t48 116t85 86t119.5 32.5q28 0 84 -6l20 111h-161l4 24h161l16 85q-28 3 -85 3l3 19q25 4 113 4l-6 -35l-14 -76h43l-4 -24h-44l-67 -371q-18 -100 -33 -195q56 0 84 -5l-3 -18h-113q16 105 44 223h-1q-11 -37 -29 -74
t-43.5 -74.5t-61 -61t-74.5 -23.5zM146 13q43 0 84 39t69.5 97.5t47.5 116.5t27 108l14 80q-42 7 -88 7q-56 0 -102 -31t-74 -80.5t-43.5 -107t-15.5 -113.5q0 -116 81 -116z" />
    <glyph glyph-name="Emacron" unicode="&#x112;" horiz-adv-x="509" 
d="M1 0l3 18q27 5 86 5l113 620q-57 0 -85 5l3 18h402l-21 -126h-19q0 29 11 102h-266l-51 -284h206q6 34 16 71h18l-30 -171h-17q1 27 9 76h-206l-56 -310h271q11 64 23 93h18l-21 -117h-407zM244 781l5 24h223l-5 -24h-223z" />
    <glyph glyph-name="emacron" unicode="&#x113;" horiz-adv-x="398" 
d="M173 -10q-68 0 -101.5 51t-33.5 133q0 76 29 146.5t84.5 117t124.5 46.5q44 0 75 -25.5t31 -68.5q0 -135 -317 -184q-1 -5 -1 -15v-13q0 -165 113 -165q73 0 132 64l14 -17q-62 -70 -150 -70zM272 461q-77 0 -133 -69.5t-71 -162.5q288 46 288 161q0 32 -23.5 51.5
t-60.5 19.5zM165 589l5 24h223l-5 -24h-223z" />
    <glyph glyph-name="Ebreve" unicode="&#x114;" horiz-adv-x="509" 
d="M1 0l3 18q27 5 86 5l113 620q-57 0 -85 5l3 18h402l-21 -126h-19q0 29 11 102h-266l-51 -284h206q6 34 16 71h18l-30 -171h-17q1 27 9 76h-206l-56 -310h271q11 64 23 93h18l-21 -117h-407zM355 733q-48 0 -73 37t-25 90v8h23v-8q0 -43 19.5 -73t57.5 -30q42 0 74.5 34.5
t44.5 76.5h23q-16 -55 -53.5 -95t-90.5 -40z" />
    <glyph glyph-name="ebreve" unicode="&#x115;" horiz-adv-x="398" 
d="M173 -10q-68 0 -101.5 51t-33.5 133q0 76 29 146.5t84.5 117t124.5 46.5q44 0 75 -25.5t31 -68.5q0 -135 -317 -184q-1 -5 -1 -15v-13q0 -165 113 -165q73 0 132 64l14 -17q-62 -70 -150 -70zM272 461q-77 0 -133 -69.5t-71 -162.5q288 46 288 161q0 32 -23.5 51.5
t-60.5 19.5zM276 541q-48 0 -73 37t-25 90v8h23v-8q0 -43 19.5 -73t57.5 -30q42 0 74.5 34.5t44.5 76.5h23q-16 -55 -53.5 -95t-90.5 -40z" />
    <glyph glyph-name="Edotaccent" unicode="&#x116;" horiz-adv-x="509" 
d="M1 0l3 18q27 5 86 5l113 620q-57 0 -85 5l3 18h402l-21 -126h-19q0 29 11 102h-266l-51 -284h206q6 34 16 71h18l-30 -171h-17q1 27 9 76h-206l-56 -310h271q11 64 23 93h18l-21 -117h-407zM362 782q-9 0 -16 7t-7 18t7 18t16 7t16 -7t7 -18t-7 -18t-16 -7z" />
    <glyph glyph-name="edotaccent" unicode="&#x117;" horiz-adv-x="398" 
d="M173 -10q-68 0 -101.5 51t-33.5 133q0 76 29 146.5t84.5 117t124.5 46.5q44 0 75 -25.5t31 -68.5q0 -135 -317 -184q-1 -5 -1 -15v-13q0 -165 113 -165q73 0 132 64l14 -17q-62 -70 -150 -70zM272 461q-77 0 -133 -69.5t-71 -162.5q288 46 288 161q0 32 -23.5 51.5
t-60.5 19.5zM283 590q-9 0 -16 7t-7 18t7 18t16 7t16 -7t7 -18t-7 -18t-16 -7z" />
    <glyph glyph-name="Eogonek" unicode="&#x118;" horiz-adv-x="509" 
d="M1 0l3 18q27 5 86 5l113 620q-57 0 -85 5l3 18h402l-21 -126h-19q0 29 11 102h-266l-51 -284h206q6 34 16 71h18l-30 -171h-17q1 27 9 76h-206l-56 -310h271q11 64 23 93h18l-21 -117h-407zM326 -210q-33 0 -54.5 19t-21.5 51q0 62 74 140h24q-36 -43 -54.5 -74
t-18.5 -64q0 -23 15 -36.5t36 -13.5q28 0 52 13l8 -18q-23 -17 -60 -17z" />
    <glyph glyph-name="eogonek" unicode="&#x119;" horiz-adv-x="398" 
d="M219 -210q-40 0 -58.5 24t-18.5 61q0 34 18 67.5t39 49.5q-16 -2 -26 -2q-68 0 -101.5 51t-33.5 133q0 76 29 146.5t84.5 117t124.5 46.5q44 0 75 -25.5t31 -68.5q0 -135 -317 -184q-1 -5 -1 -15v-13q0 -165 113 -165q73 0 132 64l14 -17q-25 -27 -67 -51
q-90 -49 -90 -134q0 -25 14.5 -43.5t38.5 -18.5q28 0 52 13l8 -19q-23 -17 -60 -17zM272 461q-77 0 -133 -69.5t-71 -162.5q288 46 288 161q0 32 -23.5 51.5t-60.5 19.5z" />
    <glyph glyph-name="Ecaron" unicode="&#x11a;" horiz-adv-x="509" 
d="M1 0l3 18q27 5 86 5l113 620q-57 0 -85 5l3 18h402l-21 -126h-19q0 29 11 102h-266l-51 -284h206q6 34 16 71h18l-30 -171h-17q1 27 9 76h-206l-56 -310h271q11 64 23 93h18l-21 -117h-407zM348 732l-92 140h23l77 -107l114 107h27l-141 -140h-8z" />
    <glyph glyph-name="ecaron" unicode="&#x11b;" horiz-adv-x="398" 
d="M173 -10q-68 0 -101.5 51t-33.5 133q0 76 29 146.5t84.5 117t124.5 46.5q44 0 75 -25.5t31 -68.5q0 -135 -317 -184q-1 -5 -1 -15v-13q0 -165 113 -165q73 0 132 64l14 -17q-62 -70 -150 -70zM272 461q-77 0 -133 -69.5t-71 -162.5q288 46 288 161q0 32 -23.5 51.5
t-60.5 19.5zM269 540l-92 140h23l77 -107l114 107h27l-141 -140h-8z" />
    <glyph glyph-name="Gcircumflex" unicode="&#x11c;" horiz-adv-x="685" 
d="M349 -10q-138 0 -212.5 79.5t-74.5 200.5q0 163 108 284.5t273 121.5q52 0 106.5 -14t81.5 -35l-18 -107h-19q0 39 9 95q-60 37 -162 37t-184 -55t-125.5 -140.5t-43.5 -180.5q0 -115 66.5 -188.5t194.5 -73.5q67 0 117.5 19t76.5 45l35 193q-68 2 -80 6l3 16h174l-3 -18
q-35 -3 -68 -4l-38 -206q-82 -75 -217 -75zM318 732l141 140h8l92 -140h-23l-77 107l-114 -107h-27z" />
    <glyph glyph-name="gcircumflex" unicode="&#x11d;" horiz-adv-x="468" 
d="M107 -228q-74 0 -114 37l14 20q35 -33 106 -33q86 0 130.5 53.5t61.5 150.5l12 65q25 129 32 158h-1q-12 -37 -29 -74t-42.5 -74.5t-61 -61t-74.5 -23.5q-48 0 -74.5 35.5t-26.5 96.5q0 65 16 127.5t47.5 116t84.5 86t119 32.5q47 0 109 -10l-86 -479
q-19 -108 -71 -165.5t-152 -57.5zM145 13q43 0 84 39t69 97.5t47 116.5t27 108l14 80q-42 7 -88 7q-56 0 -101.5 -31t-73.5 -80.5t-43 -107t-15 -113.5q0 -116 80 -116zM171 540l141 140h8l92 -140h-23l-77 107l-114 -107h-27z" />
    <glyph glyph-name="Gbreve" unicode="&#x11e;" horiz-adv-x="685" 
d="M349 -10q-138 0 -212.5 79.5t-74.5 200.5q0 163 108 284.5t273 121.5q52 0 106.5 -14t81.5 -35l-18 -107h-19q0 39 9 95q-60 37 -162 37t-184 -55t-125.5 -140.5t-43.5 -180.5q0 -115 66.5 -188.5t194.5 -73.5q67 0 117.5 19t76.5 45l35 193q-68 2 -80 6l3 16h174l-3 -18
q-35 -3 -68 -4l-38 -206q-82 -75 -217 -75zM443 733q-48 0 -73 37t-25 90v8h23v-8q0 -43 19.5 -73t57.5 -30q42 0 74.5 34.5t44.5 76.5h23q-16 -55 -53.5 -95t-90.5 -40z" />
    <glyph glyph-name="gbreve" unicode="&#x11f;" horiz-adv-x="468" 
d="M107 -228q-74 0 -114 37l14 20q35 -33 106 -33q86 0 130.5 53.5t61.5 150.5l12 65q25 129 32 158h-1q-12 -37 -29 -74t-42.5 -74.5t-61 -61t-74.5 -23.5q-48 0 -74.5 35.5t-26.5 96.5q0 65 16 127.5t47.5 116t84.5 86t119 32.5q47 0 109 -10l-86 -479
q-19 -108 -71 -165.5t-152 -57.5zM145 13q43 0 84 39t69 97.5t47 116.5t27 108l14 80q-42 7 -88 7q-56 0 -101.5 -31t-73.5 -80.5t-43 -107t-15 -113.5q0 -116 80 -116zM296 541q-48 0 -73 37t-25 90v8h23v-8q0 -43 19.5 -73t57.5 -30q42 0 74.5 34.5t44.5 76.5h23
q-16 -55 -53.5 -95t-90.5 -40z" />
    <glyph glyph-name="Gdotaccent" unicode="&#x120;" horiz-adv-x="685" 
d="M349 -10q-138 0 -212.5 79.5t-74.5 200.5q0 163 108 284.5t273 121.5q52 0 106.5 -14t81.5 -35l-18 -107h-19q0 39 9 95q-60 37 -162 37t-184 -55t-125.5 -140.5t-43.5 -180.5q0 -115 66.5 -188.5t194.5 -73.5q67 0 117.5 19t76.5 45l35 193q-68 2 -80 6l3 16h174l-3 -18
q-35 -3 -68 -4l-38 -206q-82 -75 -217 -75zM450 782q-9 0 -16 7t-7 18t7 18t16 7t16 -7t7 -18t-7 -18t-16 -7z" />
    <glyph glyph-name="gdotaccent" unicode="&#x121;" horiz-adv-x="468" 
d="M107 -228q-74 0 -114 37l14 20q35 -33 106 -33q86 0 130.5 53.5t61.5 150.5l12 65q25 129 32 158h-1q-12 -37 -29 -74t-42.5 -74.5t-61 -61t-74.5 -23.5q-48 0 -74.5 35.5t-26.5 96.5q0 65 16 127.5t47.5 116t84.5 86t119 32.5q47 0 109 -10l-86 -479
q-19 -108 -71 -165.5t-152 -57.5zM145 13q43 0 84 39t69 97.5t47 116.5t27 108l14 80q-42 7 -88 7q-56 0 -101.5 -31t-73.5 -80.5t-43 -107t-15 -113.5q0 -116 80 -116zM303 590q-9 0 -16 7t-7 18t7 18t16 7t16 -7t7 -18t-7 -18t-16 -7z" />
    <glyph glyph-name="Gcommaaccent" unicode="&#x122;" horiz-adv-x="685" 
d="M339 -70q18 0 18 -21q0 -28 -19 -59.5t-39 -51.5l-12 9q36 42 36 69q0 6 -4 14t-4 13q0 11 7 19t17 8zM349 -10q-138 0 -212.5 79.5t-74.5 200.5q0 163 108 284.5t273 121.5q52 0 106.5 -14t81.5 -35l-18 -107h-19q0 39 9 95q-60 37 -162 37t-184 -55t-125.5 -140.5
t-43.5 -180.5q0 -115 66.5 -188.5t194.5 -73.5q67 0 117.5 19t76.5 45l35 193q-68 2 -80 6l3 16h174l-3 -18q-35 -3 -68 -4l-38 -206q-82 -75 -217 -75z" />
    <glyph glyph-name="gcommaaccent" unicode="&#x123;" horiz-adv-x="468" 
d="M290 540q-18 0 -18 21q0 28 19 60.5t39 50.5l12 -9q-36 -42 -36 -69q0 -6 4 -14t4 -13q0 -11 -7 -19t-17 -8zM107 -228q-74 0 -114 37l14 20q35 -33 106 -33q86 0 130.5 53.5t61.5 150.5l12 65q25 129 32 158h-1q-12 -37 -29 -74t-42.5 -74.5t-61 -61t-74.5 -23.5
q-48 0 -74.5 35.5t-26.5 96.5q0 65 16 127.5t47.5 116t84.5 86t119 32.5q47 0 109 -10l-86 -479q-19 -108 -71 -165.5t-152 -57.5zM145 13q43 0 84 39t69 97.5t47 116.5t27 108l14 80q-42 7 -88 7q-56 0 -101.5 -31t-73.5 -80.5t-43 -107t-15 -113.5q0 -116 80 -116z" />
    <glyph glyph-name="Hcircumflex" unicode="&#x124;" horiz-adv-x="730" 
d="M1 0l3 18q27 5 86 5l113 620q-57 0 -85 5l3 18h197l-3 -18q-27 -5 -86 -5l-50 -276h418l50 276q-57 0 -85 5l3 18h197l-3 -18q-27 -5 -86 -5l-113 -620q57 0 85 -5l-3 -18h-197l3 18q27 5 86 5l58 320h-418l-58 -320q57 0 85 -5l-3 -18h-197zM329 732l141 140h8l92 -140
h-23l-77 107l-114 -107h-27z" />
    <glyph glyph-name="hcircumflex" unicode="&#x125;" horiz-adv-x="519" 
d="M58 0l126 698q-29 3 -86 3l3 19q25 4 113 4l-9 -49l-36 -201q-28 -157 -48 -244h1q82 254 224 254q56 0 78 -39t10 -109l-57 -313q57 0 85 -5l-3 -18h-112l60 331q24 130 -65 130q-46 0 -87.5 -35t-71.5 -92t-51 -120t-32 -127l-16 -87h-26zM258 786l141 140h8l92 -140
h-23l-77 107l-114 -107h-27z" />
    <glyph glyph-name="Itilde" unicode="&#x128;" horiz-adv-x="286" 
d="M1 0l3 18q27 5 86 5l113 620q-57 0 -85 5l3 18h197l-3 -18q-27 -5 -86 -5l-113 -620q57 0 85 -5l-3 -18h-197zM284 742q-22 0 -48.5 22.5t-43.5 22.5q-28 0 -60 -34l-12 15q34 40 76 40q22 0 48 -22.5t44 -22.5q33 0 60 34l12 -16q-33 -39 -76 -39z" />
    <glyph glyph-name="itilde" unicode="&#x129;" horiz-adv-x="254" 
d="M70 0l82 452q-28 3 -85 3l3 19q25 4 116 4l-14 -60l-72 -395q57 0 85 -5l-3 -18h-112zM230 550q-22 0 -48.5 22.5t-43.5 22.5q-28 0 -60 -34l-12 15q34 40 76 40q22 0 48 -22.5t44 -22.5q33 0 60 34l12 -16q-33 -39 -76 -39z" />
    <glyph glyph-name="Imacron" unicode="&#x12a;" horiz-adv-x="286" 
d="M1 0l3 18q27 5 86 5l113 620q-57 0 -85 5l3 18h197l-3 -18q-27 -5 -86 -5l-113 -620q57 0 85 -5l-3 -18h-197zM125 781l5 24h223l-5 -24h-223z" />
    <glyph glyph-name="imacron" unicode="&#x12b;" horiz-adv-x="254" 
d="M70 0l82 452q-28 3 -85 3l3 19q25 4 116 4l-14 -60l-72 -395q57 0 85 -5l-3 -18h-112zM71 589l5 24h223l-5 -24h-223z" />
    <glyph glyph-name="Ibreve" unicode="&#x12c;" horiz-adv-x="286" 
d="M1 0l3 18q27 5 86 5l113 620q-57 0 -85 5l3 18h197l-3 -18q-27 -5 -86 -5l-113 -620q57 0 85 -5l-3 -18h-197zM236 733q-48 0 -73 37t-25 90v8h23v-8q0 -43 19.5 -73t57.5 -30q42 0 74.5 34.5t44.5 76.5h23q-16 -55 -53.5 -95t-90.5 -40z" />
    <glyph glyph-name="ibreve" unicode="&#x12d;" horiz-adv-x="254" 
d="M70 0l82 452q-28 3 -85 3l3 19q25 4 116 4l-14 -60l-72 -395q57 0 85 -5l-3 -18h-112zM182 541q-48 0 -73 37t-25 90v8h23v-8q0 -43 19.5 -73t57.5 -30q42 0 74.5 34.5t44.5 76.5h23q-16 -55 -53.5 -95t-90.5 -40z" />
    <glyph glyph-name="Iogonek" unicode="&#x12e;" horiz-adv-x="286" 
d="M1 0l3 18q27 5 86 5l113 620q-57 0 -85 5l3 18h197l-3 -18q-27 -5 -86 -5l-113 -620q57 0 85 -5l-3 -18h-197zM89 -210q-33 0 -54.5 19t-21.5 51q0 62 74 140h24q-36 -43 -54.5 -74t-18.5 -64q0 -23 15 -36.5t36 -13.5q28 0 52 13l8 -18q-23 -17 -60 -17z" />
    <glyph glyph-name="iogonek" unicode="&#x12f;" horiz-adv-x="254" 
d="M70 0l82 452q-28 3 -85 3l3 19q25 4 116 4l-14 -60l-72 -395q57 0 85 -5l-3 -18h-112zM190 582q-9 0 -15.5 7t-6.5 17q0 13 8.5 22.5t20.5 9.5q9 0 15.5 -7t6.5 -17q0 -13 -8.5 -22.5t-20.5 -9.5zM109 -210q-33 0 -54.5 19t-21.5 51q0 62 74 140h24q-36 -43 -54.5 -74
t-18.5 -64q0 -23 15 -36.5t36 -13.5q28 0 52 13l8 -18q-23 -17 -60 -17z" />
    <glyph glyph-name="Idot" unicode="&#x130;" horiz-adv-x="286" 
d="M1 0l3 18q27 5 86 5l113 620q-57 0 -85 5l3 18h197l-3 -18q-27 -5 -86 -5l-113 -620q57 0 85 -5l-3 -18h-197zM243 782q-9 0 -16 7t-7 18t7 18t16 7t16 -7t7 -18t-7 -18t-16 -7z" />
    <glyph glyph-name="dotlessi" unicode="&#x131;" horiz-adv-x="254" 
d="M70 0l82 452q-28 3 -85 3l3 19q25 4 116 4l-14 -60l-72 -395q57 0 85 -5l-3 -18h-112z" />
    <glyph glyph-name="Kcommaaccent" unicode="&#x136;" horiz-adv-x="584" 
d="M252 -70q18 0 18 -21q0 -28 -19 -59.5t-39 -51.5l-12 9q36 42 36 69q0 6 -4 14t-4 13q0 11 7 19t17 8zM345 0l3 18q24 3 37 3l24 1q8 1 23 1l-238 326l315 294q-57 0 -84 5l3 18h194l-3 -18q-25 -5 -74 -5l-318 -295l240 -325q51 0 78 -5l-3 -18h-197zM1 0l3 18
q27 5 86 5l113 620q-57 0 -85 5l3 18h197l-3 -18q-27 -5 -86 -5l-113 -620q57 0 85 -5l-3 -18h-197z" />
    <glyph glyph-name="kcommaaccent" unicode="&#x137;" horiz-adv-x="438" 
d="M182 -70q18 0 18 -21q0 -28 -19 -59.5t-39 -51.5l-12 9q36 42 36 69q0 6 -4 14t-4 13q0 11 7 19t17 8zM59 0l125 698q-28 3 -85 3l3 19q25 4 116 4l-14 -60l-119 -664h-26zM329 0l-192 270l257 204h40l-262 -206l174 -245q53 0 78 -5l-3 -18h-92z" />
    <glyph glyph-name="Lacute" unicode="&#x139;" horiz-adv-x="460" 
d="M1 0l3 18q27 5 86 5l113 620q-58 0 -86 5l3 18h198l-3 -18q-27 -5 -86 -5l-112 -619h253q3 33 23 96h18l-21 -120h-389zM220 731l124 119h41l-144 -119h-21z" />
    <glyph glyph-name="lacute" unicode="&#x13a;" horiz-adv-x="242" 
d="M59 0l125 698q-28 3 -85 3l3 19q25 4 116 4l-14 -60l-115 -641q57 0 85 -5l-3 -18h-112zM202 785l124 119h41l-144 -119h-21z" />
    <glyph glyph-name="Lcommaaccent" unicode="&#x13b;" horiz-adv-x="460" 
d="M217 -70q18 0 18 -21q0 -28 -19 -59.5t-39 -51.5l-12 9q36 42 36 69q0 6 -4 14t-4 13q0 11 7 19t17 8zM1 0l3 18q27 5 86 5l113 620q-58 0 -86 5l3 18h198l-3 -18q-27 -5 -86 -5l-112 -619h253q3 33 23 96h18l-21 -120h-389z" />
    <glyph glyph-name="lcommaaccent" unicode="&#x13c;" horiz-adv-x="242" 
d="M63 -70q18 0 18 -21q0 -28 -19 -59.5t-39 -51.5l-12 9q36 42 36 69q0 6 -4 14t-4 13q0 11 7 19t17 8zM59 0l125 698q-28 3 -85 3l3 19q25 4 116 4l-14 -60l-115 -641q57 0 85 -5l-3 -18h-112z" />
    <glyph glyph-name="Lcaron" unicode="&#x13d;" horiz-adv-x="460" 
d="M1 0l3 18q27 5 86 5l113 620q-58 0 -86 5l3 18h198l-3 -18q-27 -5 -86 -5l-112 -619h253q3 33 23 96h18l-21 -120h-389zM309 508l68 159h35l-87 -159h-16z" />
    <glyph glyph-name="lcaron" unicode="&#x13e;" horiz-adv-x="242" 
d="M59 0l125 698q-28 3 -85 3l3 19q25 4 116 4l-14 -60l-115 -641q57 0 85 -5l-3 -18h-112zM221 561l68 159h35l-87 -159h-16z" />
    <glyph glyph-name="Ldot" unicode="&#x13f;" horiz-adv-x="460" 
d="M1 0l3 18q27 5 86 5l113 620q-58 0 -86 5l3 18h198l-3 -18q-27 -5 -86 -5l-112 -619h253q3 33 23 96h18l-21 -120h-389zM310 319q-9 0 -16 7t-7 18t7 18t16 7t16 -7t7 -18t-7 -18t-16 -7z" />
    <glyph glyph-name="ldot" unicode="&#x140;" horiz-adv-x="242" 
d="M59 0l125 698q-28 3 -85 3l3 19q25 4 116 4l-14 -60l-115 -641q57 0 85 -5l-3 -18h-112zM248 267q-9 0 -16 7t-7 18t7 18t16 7t16 -7t7 -18t-7 -18t-16 -7z" />
    <glyph glyph-name="Lslash" unicode="&#x141;" horiz-adv-x="468" 
d="M9 0l3 18q27 5 86 5l54 298l-101 -79l-14 19l122 94l52 288q-58 0 -86 5l3 18h198l-3 -18q-27 -5 -86 -5l-48 -264l134 105l14 -19l-154 -120l-58 -321h253q3 33 23 96h18l-21 -120h-389z" />
    <glyph glyph-name="lslash" unicode="&#x142;" horiz-adv-x="258" 
d="M67 0l57 315l-87 -72l7 38l87 72l62 345q-29 3 -89 3l3 19q21 4 116 4l-6 -33l-56 -312l91 76l-7 -38l-91 -76l-57 -318q57 0 85 -5l-3 -18h-112z" />
    <glyph glyph-name="Nacute" unicode="&#x143;" horiz-adv-x="706" 
d="M1 0l3 18q27 5 86 5l113 620q-56 0 -84 5l3 18h110l294 -624l109 601q-57 0 -85 5l3 18h197l-3 -18q-27 -5 -86 -5l-117 -643h-25l-294 622l-109 -599q57 0 85 -5l-3 -18h-197zM431 731l124 119h41l-144 -119h-21z" />
    <glyph glyph-name="nacute" unicode="&#x144;" horiz-adv-x="532" 
d="M71 0l81 452q-28 3 -85 3l3 19q25 4 116 4l-14 -60q-36 -180 -38 -188h1q82 254 224 254q56 0 78 -39t10 -109l-57 -313q57 0 85 -5l-3 -18h-112l60 331q24 130 -65 130q-46 0 -87.5 -35t-71.5 -92t-51 -120t-32 -127l-16 -87h-26zM308 539l124 119h41l-144 -119h-21z
" />
    <glyph glyph-name="Ncommaaccent" unicode="&#x145;" horiz-adv-x="706" 
d="M297 -70q18 0 18 -21q0 -28 -19 -59.5t-39 -51.5l-12 9q36 42 36 69q0 6 -4 14t-4 13q0 11 7 19t17 8zM1 0l3 18q27 5 86 5l113 620q-56 0 -84 5l3 18h110l294 -624l109 601q-57 0 -85 5l3 18h197l-3 -18q-27 -5 -86 -5l-117 -643h-25l-294 622l-109 -599q57 0 85 -5
l-3 -18h-197z" />
    <glyph glyph-name="ncommaaccent" unicode="&#x146;" horiz-adv-x="532" 
d="M219 -70q18 0 18 -21q0 -28 -19 -59.5t-39 -51.5l-12 9q36 42 36 69q0 6 -4 14t-4 13q0 11 7 19t17 8zM71 0l81 452q-28 3 -85 3l3 19q25 4 116 4l-14 -60q-36 -180 -38 -188h1q82 254 224 254q56 0 78 -39t10 -109l-57 -313q57 0 85 -5l-3 -18h-112l60 331
q24 130 -65 130q-46 0 -87.5 -35t-71.5 -92t-51 -120t-32 -127l-16 -87h-26z" />
    <glyph glyph-name="Ncaron" unicode="&#x147;" horiz-adv-x="706" 
d="M1 0l3 18q27 5 86 5l113 620q-56 0 -84 5l3 18h110l294 -624l109 601q-57 0 -85 5l3 18h197l-3 -18q-27 -5 -86 -5l-117 -643h-25l-294 622l-109 -599q57 0 85 -5l-3 -18h-197zM439 732l-92 140h23l77 -107l114 107h27l-141 -140h-8z" />
    <glyph glyph-name="ncaron" unicode="&#x148;" horiz-adv-x="532" 
d="M71 0l81 452q-28 3 -85 3l3 19q25 4 116 4l-14 -60q-36 -180 -38 -188h1q82 254 224 254q56 0 78 -39t10 -109l-57 -313q57 0 85 -5l-3 -18h-112l60 331q24 130 -65 130q-46 0 -87.5 -35t-71.5 -92t-51 -120t-32 -127l-16 -87h-26zM316 540l-92 140h23l77 -107l114 107
h27l-141 -140h-8z" />
    <glyph glyph-name="napostrophe" unicode="&#x149;" horiz-adv-x="681" 
d="M104 528l-13 9q39 44 39 73q0 8 -4 18t-4 17q0 11 7 19t18 8q9 0 15 -9t6 -21q0 -50 -64 -114zM220 0l81 452q-28 3 -85 3l3 19q25 4 116 4l-14 -60q-36 -180 -38 -188h1q82 254 224 254q56 0 78 -39t10 -109l-57 -313q57 0 85 -5l-3 -18h-112l60 331q24 130 -65 130
q-46 0 -87.5 -35t-71.5 -92t-51 -120t-32 -127l-16 -87h-26z" />
    <glyph glyph-name="Omacron" unicode="&#x14c;" horiz-adv-x="702" 
d="M321 -10q-118 0 -188.5 82t-70.5 198q0 168 98.5 287t255.5 119q117 0 188.5 -82.5t71.5 -197.5q0 -168 -99 -287t-256 -119zM327 14q93 0 168 54t115 139t40 182q0 110 -65.5 186.5t-174.5 76.5q-139 0 -230.5 -112.5t-91.5 -262.5q0 -110 65 -186.5t174 -76.5zM314 781
l5 24h223l-5 -24h-223z" />
    <glyph glyph-name="omacron" unicode="&#x14d;" horiz-adv-x="459" 
d="M184 -10q-51 0 -85.5 31t-47.5 71t-13 84q0 116 66 212t171 96q51 0 85.5 -31t47.5 -71t13 -84q0 -116 -66 -212t-171 -96zM190 13q61 0 109.5 45t72 108t23.5 125q0 69 -30 119.5t-96 50.5q-61 0 -109.5 -45t-72 -108t-23.5 -125q0 -69 30 -119.5t96 -50.5zM177 589
l5 24h223l-5 -24h-223z" />
    <glyph glyph-name="Obreve" unicode="&#x14e;" horiz-adv-x="702" 
d="M321 -10q-118 0 -188.5 82t-70.5 198q0 168 98.5 287t255.5 119q117 0 188.5 -82.5t71.5 -197.5q0 -168 -99 -287t-256 -119zM327 14q93 0 168 54t115 139t40 182q0 110 -65.5 186.5t-174.5 76.5q-139 0 -230.5 -112.5t-91.5 -262.5q0 -110 65 -186.5t174 -76.5zM425 733
q-48 0 -73 37t-25 90v8h23v-8q0 -43 19.5 -73t57.5 -30q42 0 74.5 34.5t44.5 76.5h23q-16 -55 -53.5 -95t-90.5 -40z" />
    <glyph glyph-name="obreve" unicode="&#x14f;" horiz-adv-x="459" 
d="M184 -10q-51 0 -85.5 31t-47.5 71t-13 84q0 116 66 212t171 96q51 0 85.5 -31t47.5 -71t13 -84q0 -116 -66 -212t-171 -96zM190 13q61 0 109.5 45t72 108t23.5 125q0 69 -30 119.5t-96 50.5q-61 0 -109.5 -45t-72 -108t-23.5 -125q0 -69 30 -119.5t96 -50.5zM288 541
q-48 0 -73 37t-25 90v8h23v-8q0 -43 19.5 -73t57.5 -30q42 0 74.5 34.5t44.5 76.5h23q-16 -55 -53.5 -95t-90.5 -40z" />
    <glyph glyph-name="Ohungarumlaut" unicode="&#x150;" horiz-adv-x="702" 
d="M321 -10q-118 0 -188.5 82t-70.5 198q0 168 98.5 287t255.5 119q117 0 188.5 -82.5t71.5 -197.5q0 -168 -99 -287t-256 -119zM327 14q93 0 168 54t115 139t40 182q0 110 -65.5 186.5t-174.5 76.5q-139 0 -230.5 -112.5t-91.5 -262.5q0 -110 65 -186.5t174 -76.5zM328 731
l103 119h41l-123 -119h-21zM456 731l103 119h41l-123 -119h-21z" />
    <glyph glyph-name="ohungarumlaut" unicode="&#x151;" horiz-adv-x="459" 
d="M184 -10q-51 0 -85.5 31t-47.5 71t-13 84q0 116 66 212t171 96q51 0 85.5 -31t47.5 -71t13 -84q0 -116 -66 -212t-171 -96zM190 13q61 0 109.5 45t72 108t23.5 125q0 69 -30 119.5t-96 50.5q-61 0 -109.5 -45t-72 -108t-23.5 -125q0 -69 30 -119.5t96 -50.5zM190 539
l103 119h41l-123 -119h-21zM318 539l103 119h41l-123 -119h-21z" />
    <glyph glyph-name="OE" unicode="&#x152;" horiz-adv-x="836" 
d="M325 -10q-118 0 -188.5 82t-70.5 198q0 168 98.5 287t255.5 119q54 0 108 -10h322l-21 -126h-19q0 29 11 102h-272l-51 -284h212q14 62 16 71h18l-30 -171h-17q1 27 9 76h-212l-56 -310h277q11 64 23 93h18l-21 -117h-327q-36 -10 -83 -10zM331 14q43 0 80 12l112 614
q-46 12 -109 12q-139 0 -230.5 -112.5t-91.5 -262.5q0 -110 65 -186.5t174 -76.5z" />
    <glyph glyph-name="oe" unicode="&#x153;" horiz-adv-x="744" 
d="M184 -10q-51 0 -85.5 31t-47.5 71t-13 84q0 116 66 212t171 96q65 0 103 -52t38 -117q23 68 78 118.5t128 50.5q44 0 75 -25.5t31 -68.5q0 -135 -317 -184q-1 -5 -1 -15v-13q0 -164 113 -164q73 0 132 64l14 -18q-62 -70 -150 -70q-63 0 -96 46t-35 114
q-26 -67 -80.5 -113.5t-123.5 -46.5zM190 14q60 0 109 45t72.5 107.5t23.5 124.5q0 69 -30 119t-96 50q-60 0 -109 -45t-72.5 -107.5t-23.5 -124.5q0 -69 30 -119t96 -50zM414 229q288 46 288 161q0 32 -23.5 51t-60.5 19q-77 0 -133 -69t-71 -162z" />
    <glyph glyph-name="Racute" unicode="&#x154;" horiz-adv-x="570" 
d="M500 -7q-50 0 -76 45l-127 228q-23 43 -40.5 58.5t-39.5 15.5h-43l-58 -317q57 0 85 -5l-3 -18h-197l3 18q27 5 86 5l113 620q-56 0 -84 5l3 18h199q91 0 141.5 -36t50.5 -95q0 -90 -67 -142.5t-174 -52.5v-1q16 -7 48 -61l126 -223q23 -39 60 -39q21 0 32 4l-2 -20
q-11 -7 -36 -7zM178 364h87q100 0 161 45t61 121q0 52 -44 82t-128 30h-87zM338 731l124 119h41l-144 -119h-21z" />
    <glyph glyph-name="racute" unicode="&#x155;" horiz-adv-x="339" 
d="M71 0l81 452q-28 3 -85 3l3 19q25 4 113 4q-3 -15 -26 -141q-19 -92 -23 -107h1q10 40 25 77.5t39.5 80.5t62 69.5t82.5 26.5q9 0 23 -2l-5 -23q-6 2 -11 2h-11q-43 0 -82 -35t-67 -92.5t-47.5 -119.5t-30.5 -127l-16 -87h-26zM234 541l124 119h41l-144 -119h-21z" />
    <glyph glyph-name="Rcommaaccent" unicode="&#x156;" horiz-adv-x="570" 
d="M259 -70q18 0 18 -21q0 -28 -19 -59.5t-39 -51.5l-12 9q36 42 36 69q0 6 -4 14t-4 13q0 11 7 19t17 8zM500 -7q-50 0 -76 45l-127 228q-23 43 -40.5 58.5t-39.5 15.5h-43l-58 -317q57 0 85 -5l-3 -18h-197l3 18q27 5 86 5l113 620q-56 0 -84 5l3 18h199q91 0 141.5 -36
t50.5 -95q0 -90 -67 -142.5t-174 -52.5v-1q16 -7 48 -61l126 -223q23 -39 60 -39q21 0 32 4l-2 -20q-11 -7 -36 -7zM178 364h87q100 0 161 45t61 121q0 52 -44 82t-128 30h-87z" />
    <glyph glyph-name="rcommaaccent" unicode="&#x157;" horiz-adv-x="339" 
d="M75 -70q18 0 18 -21q0 -28 -19 -59.5t-39 -51.5l-12 9q36 42 36 69q0 6 -4 14t-4 13q0 11 7 19t17 8zM71 0l81 452q-28 3 -85 3l3 19q25 4 113 4q-3 -15 -26 -141q-19 -92 -23 -107h1q10 40 25 77.5t39.5 80.5t62 69.5t82.5 26.5q9 0 23 -2l-5 -23q-6 2 -11 2h-11
q-43 0 -82 -35t-67 -92.5t-47.5 -119.5t-30.5 -127l-16 -87h-26z" />
    <glyph glyph-name="Rcaron" unicode="&#x158;" horiz-adv-x="570" 
d="M500 -7q-50 0 -76 45l-127 228q-23 43 -40.5 58.5t-39.5 15.5h-43l-58 -317q57 0 85 -5l-3 -18h-197l3 18q27 5 86 5l113 620q-56 0 -84 5l3 18h199q91 0 141.5 -36t50.5 -95q0 -90 -67 -142.5t-174 -52.5v-1q16 -7 48 -61l126 -223q23 -39 60 -39q21 0 32 4l-2 -20
q-11 -7 -36 -7zM178 364h87q100 0 161 45t61 121q0 52 -44 82t-128 30h-87zM346 732l-92 140h23l77 -107l114 107h27l-141 -140h-8z" />
    <glyph glyph-name="rcaron" unicode="&#x159;" horiz-adv-x="339" 
d="M71 0l81 452q-28 3 -85 3l3 19q25 4 113 4q-3 -15 -26 -141q-19 -92 -23 -107h1q10 40 25 77.5t39.5 80.5t62 69.5t82.5 26.5q9 0 23 -2l-5 -23q-6 2 -11 2h-11q-43 0 -82 -35t-67 -92.5t-47.5 -119.5t-30.5 -127l-16 -87h-26zM243 542l-92 140h23l77 -107l114 107h27
l-141 -140h-8z" />
    <glyph glyph-name="Sacute" unicode="&#x15a;" horiz-adv-x="440" 
d="M190 -10q-110 0 -172 68l18 107h18q0 -21 -4 -46l-3 -28l-3 -25q51 -52 145 -52q83 0 130.5 43t47.5 102q0 45 -31 83.5t-98 86.5q-67 47 -100 89t-33 96q0 76 60.5 119t133.5 43q41 0 84.5 -14t65.5 -36l-18 -107h-19q0 5 1.5 21.5t1.5 24.5l3 28l4 25q-57 34 -123 34
q-63 0 -115.5 -36t-52.5 -101q0 -46 31 -85t98 -87q67 -47 100 -88.5t33 -94.5q0 -71 -57 -120.5t-146 -49.5zM296 731l124 119h41l-144 -119h-21z" />
    <glyph glyph-name="sacute" unicode="&#x15b;" horiz-adv-x="360" 
d="M142 -10q-76 0 -118 38l15 87h21q0 -28 -9 -80q34 -22 94 -22q56 0 91 27.5t35 76.5q0 23 -7.5 42t-23.5 33.5t-27.5 22.5t-31.5 20q-1 1 -15 9.5t-18.5 12t-17 13.5t-18 18t-13.5 20t-11 26t-3 30q0 56 38.5 88t98.5 32q67 0 102 -27l-15 -93h-21q0 18 9 83
q-31 14 -77 14q-48 0 -79 -25.5t-31 -69.5q0 -14 3 -26.5t10 -23.5t13 -18.5t17 -16t16 -12.5t17 -11.5t14 -8.5q51 -33 68 -53q28 -33 28 -78q0 -59 -43 -93.5t-111 -34.5zM223 539l124 119h41l-144 -119h-21z" />
    <glyph glyph-name="Scircumflex" unicode="&#x15c;" horiz-adv-x="440" 
d="M190 -10q-110 0 -172 68l18 107h18q0 -21 -4 -46l-3 -28l-3 -25q51 -52 145 -52q83 0 130.5 43t47.5 102q0 45 -31 83.5t-98 86.5q-67 47 -100 89t-33 96q0 76 60.5 119t133.5 43q41 0 84.5 -14t65.5 -36l-18 -107h-19q0 5 1.5 21.5t1.5 24.5l3 28l4 25q-57 34 -123 34
q-63 0 -115.5 -36t-52.5 -101q0 -46 31 -85t98 -87q67 -47 100 -88.5t33 -94.5q0 -71 -57 -120.5t-146 -49.5zM186 732l141 140h8l92 -140h-23l-77 107l-114 -107h-27z" />
    <glyph glyph-name="scircumflex" unicode="&#x15d;" horiz-adv-x="360" 
d="M142 -10q-76 0 -118 38l15 87h21q0 -28 -9 -80q34 -22 94 -22q56 0 91 27.5t35 76.5q0 23 -7.5 42t-23.5 33.5t-27.5 22.5t-31.5 20q-1 1 -15 9.5t-18.5 12t-17 13.5t-18 18t-13.5 20t-11 26t-3 30q0 56 38.5 88t98.5 32q67 0 102 -27l-15 -93h-21q0 18 9 83
q-31 14 -77 14q-48 0 -79 -25.5t-31 -69.5q0 -14 3 -26.5t10 -23.5t13 -18.5t17 -16t16 -12.5t17 -11.5t14 -8.5q51 -33 68 -53q28 -33 28 -78q0 -59 -43 -93.5t-111 -34.5zM114 540l141 140h8l92 -140h-23l-77 107l-114 -107h-27z" />
    <glyph glyph-name="Scedilla" unicode="&#x15e;" horiz-adv-x="440" 
d="M190 -10q-110 0 -172 68l18 107h18q0 -21 -4 -46l-3 -28l-3 -25q51 -52 145 -52q83 0 130.5 43t47.5 102q0 45 -31 83.5t-98 86.5q-67 47 -100 89t-33 96q0 76 60.5 119t133.5 43q41 0 84.5 -14t65.5 -36l-18 -107h-19q0 5 1.5 21.5t1.5 24.5l3 28l4 25q-57 34 -123 34
q-63 0 -115.5 -36t-52.5 -101q0 -46 31 -85t98 -87q67 -47 100 -88.5t33 -94.5q0 -71 -57 -120.5t-146 -49.5zM158 -210q-38 0 -57 12l8 22q17 -11 49 -11q63 0 63 48q0 42 -76 42l40 103h22l-31 -83q32 -2 51 -19.5t19 -42.5q0 -34 -25 -52.5t-63 -18.5z" />
    <glyph glyph-name="scedilla" unicode="&#x15f;" horiz-adv-x="360" 
d="M142 -10q-76 0 -118 38l15 87h21q0 -28 -9 -80q34 -22 94 -22q56 0 91 27.5t35 76.5q0 23 -7.5 42t-23.5 33.5t-27.5 22.5t-31.5 20q-1 1 -15 9.5t-18.5 12t-17 13.5t-18 18t-13.5 20t-11 26t-3 30q0 56 38.5 88t98.5 32q67 0 102 -27l-15 -93h-21q0 18 9 83
q-31 14 -77 14q-48 0 -79 -25.5t-31 -69.5q0 -14 3 -26.5t10 -23.5t13 -18.5t17 -16t16 -12.5t17 -11.5t14 -8.5q51 -33 68 -53q28 -33 28 -78q0 -59 -43 -93.5t-111 -34.5zM114 -210q-38 0 -57 12l8 22q17 -11 49 -11q63 0 63 48q0 42 -76 42l40 103h22l-31 -83
q32 -2 51 -19.5t19 -42.5q0 -34 -25 -52.5t-63 -18.5z" />
    <glyph glyph-name="Scaron" unicode="&#x160;" horiz-adv-x="440" 
d="M190 -10q-110 0 -172 68l18 107h18q0 -21 -4 -46l-3 -28l-3 -25q51 -52 145 -52q83 0 130.5 43t47.5 102q0 45 -31 83.5t-98 86.5q-67 47 -100 89t-33 96q0 76 60.5 119t133.5 43q41 0 84.5 -14t65.5 -36l-18 -107h-19q0 5 1.5 21.5t1.5 24.5l3 28l4 25q-57 34 -123 34
q-63 0 -115.5 -36t-52.5 -101q0 -46 31 -85t98 -87q67 -47 100 -88.5t33 -94.5q0 -71 -57 -120.5t-146 -49.5zM304 732l-92 140h23l77 -107l114 107h27l-141 -140h-8z" />
    <glyph glyph-name="scaron" unicode="&#x161;" horiz-adv-x="360" 
d="M142 -10q-76 0 -118 38l15 87h21q0 -28 -9 -80q34 -22 94 -22q56 0 91 27.5t35 76.5q0 23 -7.5 42t-23.5 33.5t-27.5 22.5t-31.5 20q-1 1 -15 9.5t-18.5 12t-17 13.5t-18 18t-13.5 20t-11 26t-3 30q0 56 38.5 88t98.5 32q67 0 102 -27l-15 -93h-21q0 18 9 83
q-31 14 -77 14q-48 0 -79 -25.5t-31 -69.5q0 -14 3 -26.5t10 -23.5t13 -18.5t17 -16t16 -12.5t17 -11.5t14 -8.5q51 -33 68 -53q28 -33 28 -78q0 -59 -43 -93.5t-111 -34.5zM232 540l-92 140h23l77 -107l114 107h27l-141 -140h-8z" />
    <glyph glyph-name="Tcommaaccent" unicode="&#x162;" horiz-adv-x="502" 
d="M109 0l3 18q27 5 86 5l112 619h-185q-12 -67 -21 -94h-21l20 118h449l-20 -118h-19q0 8 2 42l3 27l4 25h-186l-112 -619q57 0 85 -5l-3 -18h-197zM169 -210q-38 0 -57 12l8 22q17 -11 49 -11q63 0 63 48q0 42 -76 42l40 103h22l-31 -83q32 -2 51 -19.5t19 -42.5
q0 -34 -25 -52.5t-63 -18.5z" />
    <glyph glyph-name="tcommaaccent" unicode="&#x163;" horiz-adv-x="303" 
d="M143 -10q-38 0 -53 28t-6 79l63 354h-89l5 23h89l24 135l27 4l-25 -139h117l-5 -23h-117l-63 -355q-17 -83 37 -83t92 51l15 -18q-45 -56 -111 -56zM107 -210q-38 0 -57 12l8 22q17 -11 49 -11q63 0 63 48q0 42 -76 42l40 103h22l-31 -83q32 -2 51 -19.5t19 -42.5
q0 -34 -25 -52.5t-63 -18.5z" />
    <glyph glyph-name="Tcaron" unicode="&#x164;" horiz-adv-x="502" 
d="M109 0l3 18q27 5 86 5l112 619h-185q-12 -67 -21 -94h-21l20 118h449l-20 -118h-19q0 8 2 42l3 27l4 25h-186l-112 -619q57 0 85 -5l-3 -18h-197zM335 732l-92 140h23l77 -107l114 107h27l-141 -140h-8z" />
    <glyph glyph-name="tcaron" unicode="&#x165;" horiz-adv-x="303" 
d="M143 -10q-38 0 -53 28t-6 79l63 354h-89l5 23h89l24 135l27 4l-25 -139h117l-5 -23h-117l-63 -355q-17 -83 37 -83t92 51l15 -18q-45 -56 -111 -56zM230 561l68 159h35l-87 -159h-16z" />
    <glyph glyph-name="Utilde" unicode="&#x168;" horiz-adv-x="685" 
d="M299 -10q-63 0 -105.5 21.5t-60.5 57.5t-23.5 83t5.5 99l71 392q-57 0 -85 5l3 18h197l-3 -18q-27 -5 -86 -5l-71 -390q-10 -66 -4 -119t48 -86.5t118 -33.5q204 0 248 239l71 390q-57 0 -85 5l3 18h197l-3 -18q-27 -5 -86 -5l-71 -392q-24 -128 -91 -194.5t-187 -66.5z
M480 742q-22 0 -48.5 22.5t-43.5 22.5q-28 0 -60 -34l-12 15q34 40 76 40q22 0 48 -22.5t44 -22.5q33 0 60 34l12 -16q-33 -39 -76 -39z" />
    <glyph glyph-name="utilde" unicode="&#x169;" horiz-adv-x="533" 
d="M170 -10q-56 0 -76.5 39t-8.5 109l57 314q-28 3 -85 3l3 19q25 4 113 4l-61 -335q-24 -129 62 -129q46 0 88 35t72 92t51.5 119.5t33.5 126.5l12 65q-28 3 -85 3l3 19q25 4 113 4l-47 -260q-16 -87 -33 -195q56 0 84 -5l-3 -18h-113q15 102 48 244h-1
q-12 -40 -28.5 -76.5t-44 -80.5t-67.5 -70.5t-87 -26.5zM348 550q-22 0 -48.5 22.5t-43.5 22.5q-28 0 -60 -34l-12 15q34 40 76 40q22 0 48 -22.5t44 -22.5q33 0 60 34l12 -16q-33 -39 -76 -39z" />
    <glyph glyph-name="Umacron" unicode="&#x16a;" horiz-adv-x="685" 
d="M299 -10q-63 0 -105.5 21.5t-60.5 57.5t-23.5 83t5.5 99l71 392q-57 0 -85 5l3 18h197l-3 -18q-27 -5 -86 -5l-71 -390q-10 -66 -4 -119t48 -86.5t118 -33.5q204 0 248 239l71 390q-57 0 -85 5l3 18h197l-3 -18q-27 -5 -86 -5l-71 -392q-24 -128 -91 -194.5t-187 -66.5z
M321 781l5 24h223l-5 -24h-223z" />
    <glyph glyph-name="umacron" unicode="&#x16b;" horiz-adv-x="533" 
d="M170 -10q-56 0 -76.5 39t-8.5 109l57 314q-28 3 -85 3l3 19q25 4 113 4l-61 -335q-24 -129 62 -129q46 0 88 35t72 92t51.5 119.5t33.5 126.5l12 65q-28 3 -85 3l3 19q25 4 113 4l-47 -260q-16 -87 -33 -195q56 0 84 -5l-3 -18h-113q15 102 48 244h-1
q-12 -40 -28.5 -76.5t-44 -80.5t-67.5 -70.5t-87 -26.5zM189 589l5 24h223l-5 -24h-223z" />
    <glyph glyph-name="Ubreve" unicode="&#x16c;" horiz-adv-x="685" 
d="M299 -10q-63 0 -105.5 21.5t-60.5 57.5t-23.5 83t5.5 99l71 392q-57 0 -85 5l3 18h197l-3 -18q-27 -5 -86 -5l-71 -390q-10 -66 -4 -119t48 -86.5t118 -33.5q204 0 248 239l71 390q-57 0 -85 5l3 18h197l-3 -18q-27 -5 -86 -5l-71 -392q-24 -128 -91 -194.5t-187 -66.5z
M432 733q-48 0 -73 37t-25 90v8h23v-8q0 -43 19.5 -73t57.5 -30q42 0 74.5 34.5t44.5 76.5h23q-16 -55 -53.5 -95t-90.5 -40z" />
    <glyph glyph-name="ubreve" unicode="&#x16d;" horiz-adv-x="533" 
d="M170 -10q-56 0 -76.5 39t-8.5 109l57 314q-28 3 -85 3l3 19q25 4 113 4l-61 -335q-24 -129 62 -129q46 0 88 35t72 92t51.5 119.5t33.5 126.5l12 65q-28 3 -85 3l3 19q25 4 113 4l-47 -260q-16 -87 -33 -195q56 0 84 -5l-3 -18h-113q15 102 48 244h-1
q-12 -40 -28.5 -76.5t-44 -80.5t-67.5 -70.5t-87 -26.5zM300 541q-48 0 -73 37t-25 90v8h23v-8q0 -43 19.5 -73t57.5 -30q42 0 74.5 34.5t44.5 76.5h23q-16 -55 -53.5 -95t-90.5 -40z" />
    <glyph glyph-name="Uring" unicode="&#x16e;" horiz-adv-x="685" 
d="M299 -10q-63 0 -105.5 21.5t-60.5 57.5t-23.5 83t5.5 99l71 392q-57 0 -85 5l3 18h197l-3 -18q-27 -5 -86 -5l-71 -390q-10 -66 -4 -119t48 -86.5t118 -33.5q204 0 248 239l71 390q-57 0 -85 5l3 18h197l-3 -18q-27 -5 -86 -5l-71 -392q-24 -128 -91 -194.5t-187 -66.5z
M443 740q-36 0 -59.5 26t-23.5 60q0 35 24 61.5t61 26.5q36 0 59.5 -26t23.5 -60q0 -35 -24 -61.5t-61 -26.5zM445 761q28 0 44 20t16 45q0 26 -17 46.5t-45 20.5t-44 -20t-16 -45q0 -26 17 -46.5t45 -20.5z" />
    <glyph glyph-name="uring" unicode="&#x16f;" horiz-adv-x="533" 
d="M170 -10q-56 0 -76.5 39t-8.5 109l57 314q-28 3 -85 3l3 19q25 4 113 4l-61 -335q-24 -129 62 -129q46 0 88 35t72 92t51.5 119.5t33.5 126.5l12 65q-28 3 -85 3l3 19q25 4 113 4l-47 -260q-16 -87 -33 -195q56 0 84 -5l-3 -18h-113q15 102 48 244h-1
q-12 -40 -28.5 -76.5t-44 -80.5t-67.5 -70.5t-87 -26.5zM311 548q-36 0 -59.5 26t-23.5 60q0 35 24 61.5t61 26.5q36 0 59.5 -26t23.5 -60q0 -35 -24 -61.5t-61 -26.5zM313 569q28 0 44 20t16 45q0 26 -17 46.5t-45 20.5t-44 -20t-16 -45q0 -26 17 -46.5t45 -20.5z" />
    <glyph glyph-name="Uhungarumlaut" unicode="&#x170;" horiz-adv-x="685" 
d="M299 -10q-63 0 -105.5 21.5t-60.5 57.5t-23.5 83t5.5 99l71 392q-57 0 -85 5l3 18h197l-3 -18q-27 -5 -86 -5l-71 -390q-10 -66 -4 -119t48 -86.5t118 -33.5q204 0 248 239l71 390q-57 0 -85 5l3 18h197l-3 -18q-27 -5 -86 -5l-71 -392q-24 -128 -91 -194.5t-187 -66.5z
M335 731l103 119h41l-123 -119h-21zM463 731l103 119h41l-123 -119h-21z" />
    <glyph glyph-name="uhungarumlaut" unicode="&#x171;" horiz-adv-x="533" 
d="M170 -10q-56 0 -76.5 39t-8.5 109l57 314q-28 3 -85 3l3 19q25 4 113 4l-61 -335q-24 -129 62 -129q46 0 88 35t72 92t51.5 119.5t33.5 126.5l12 65q-28 3 -85 3l3 19q25 4 113 4l-47 -260q-16 -87 -33 -195q56 0 84 -5l-3 -18h-113q15 102 48 244h-1
q-12 -40 -28.5 -76.5t-44 -80.5t-67.5 -70.5t-87 -26.5zM202 539l103 119h41l-123 -119h-21zM330 539l103 119h41l-123 -119h-21z" />
    <glyph glyph-name="Uogonek" unicode="&#x172;" horiz-adv-x="685" 
d="M440 -210q-40 0 -58.5 24t-18.5 61q0 75 79 149q-58 -34 -143 -34q-63 0 -105.5 21.5t-60.5 57.5t-23.5 83t5.5 99l71 392q-57 0 -85 5l3 18h197l-3 -18q-27 -5 -86 -5l-71 -390q-10 -66 -4 -119t48 -86.5t118 -33.5q204 0 248 239l71 390q-57 0 -85 5l3 18h197l-3 -18
q-27 -5 -86 -5l-71 -392q-8 -43 -17 -73t-30 -63.5t-33.5 -50t-50.5 -64.5q-2 -2 -10 -13t-11.5 -16t-10.5 -16t-10.5 -19t-8 -18.5t-6.5 -21t-2 -21.5q0 -25 14.5 -43.5t38.5 -18.5q28 0 52 13l8 -19q-23 -17 -60 -17z" />
    <glyph glyph-name="uogonek" unicode="&#x173;" horiz-adv-x="533" 
d="M170 -10q-56 0 -76.5 39t-8.5 109l57 314q-28 3 -85 3l3 19q25 4 113 4l-61 -335q-24 -129 62 -129q46 0 88 35t72 92t51.5 119.5t33.5 126.5l12 65q-28 3 -85 3l3 19q25 4 113 4l-47 -260q-16 -87 -33 -195q56 0 84 -5l-3 -18h-113q15 102 48 244h-1
q-12 -40 -28.5 -76.5t-44 -80.5t-67.5 -70.5t-87 -26.5zM394 -210q-33 0 -54.5 19t-21.5 51q0 62 74 140h24q-36 -43 -54.5 -74t-18.5 -64q0 -23 15 -36.5t36 -13.5q28 0 52 13l8 -18q-23 -17 -60 -17z" />
    <glyph glyph-name="Ydieresis" unicode="&#x178;" horiz-adv-x="606" 
d="M161 0l3 18q28 5 87 5l42 227l-137 393q-56 0 -83 5l3 18h197l-3 -18q-25 -5 -85 -5l124 -363l256 363q-56 0 -84 5l3 18h197l-3 -18q-25 -5 -80 -5l-279 -393l-42 -227q57 0 85 -5l-3 -18h-198zM323 741q-9 0 -16 7t-7 18t7 18t16 7t16 -7t7 -18t-7 -18t-16 -7zM471 741
q-9 0 -16 7t-7 18t7 18t16 7t16 -7t7 -18t-7 -18t-16 -7z" />
    <glyph glyph-name="Zacute" unicode="&#x179;" horiz-adv-x="540" 
d="M-3 0l5 27l505 615h-348q-12 -67 -21 -94h-21l20 118h410l-4 -21l-513 -621h394q3 33 23 96h18l-21 -120h-447zM332 731l124 119h41l-144 -119h-21z" />
    <glyph glyph-name="zacute" unicode="&#x17a;" horiz-adv-x="401" 
d="M4 0l4 25l348 426h-238q-12 -72 -21 -93h-21l20 116h293l-5 -27l-350 -424h264q2 10 6.5 31.5t8.5 37.5t7 24h21l-21 -116h-316zM238 539l124 119h41l-144 -119h-21z" />
    <glyph glyph-name="Zdotaccent" unicode="&#x17b;" horiz-adv-x="540" 
d="M-3 0l5 27l505 615h-348q-12 -67 -21 -94h-21l20 118h410l-4 -21l-513 -621h394q3 33 23 96h18l-21 -120h-447zM354 782q-9 0 -16 7t-7 18t7 18t16 7t16 -7t7 -18t-7 -18t-16 -7z" />
    <glyph glyph-name="zdotaccent" unicode="&#x17c;" horiz-adv-x="401" 
d="M4 0l4 25l348 426h-238q-12 -72 -21 -93h-21l20 116h293l-5 -27l-350 -424h264q2 10 6.5 31.5t8.5 37.5t7 24h21l-21 -116h-316zM261 590q-9 0 -16 7t-7 18t7 18t16 7t16 -7t7 -18t-7 -18t-16 -7z" />
    <glyph glyph-name="Zcaron" unicode="&#x17d;" horiz-adv-x="540" 
d="M-3 0l5 27l505 615h-348q-12 -67 -21 -94h-21l20 118h410l-4 -21l-513 -621h394q3 33 23 96h18l-21 -120h-447zM340 732l-92 140h23l77 -107l114 107h27l-141 -140h-8z" />
    <glyph glyph-name="zcaron" unicode="&#x17e;" horiz-adv-x="401" 
d="M4 0l4 25l348 426h-238q-12 -72 -21 -93h-21l20 116h293l-5 -27l-350 -424h264q2 10 6.5 31.5t8.5 37.5t7 24h21l-21 -116h-316zM247 540l-92 140h23l77 -107l114 107h27l-141 -140h-8z" />
    <glyph glyph-name="Scommaaccent" unicode="&#x218;" horiz-adv-x="440" 
d="M184 -70q18 0 18 -21q0 -28 -19 -59.5t-39 -51.5l-12 9q36 42 36 69q0 6 -4 14t-4 13q0 11 7 19t17 8zM190 -10q-110 0 -172 68l18 107h18q0 -21 -4 -46l-3 -28l-3 -25q51 -52 145 -52q83 0 130.5 43t47.5 102q0 45 -31 83.5t-98 86.5q-67 47 -100 89t-33 96
q0 76 60.5 119t133.5 43q41 0 84.5 -14t65.5 -36l-18 -107h-19q0 5 1.5 21.5t1.5 24.5l3 28l4 25q-57 34 -123 34q-63 0 -115.5 -36t-52.5 -101q0 -46 31 -85t98 -87q67 -47 100 -88.5t33 -94.5q0 -71 -57 -120.5t-146 -49.5z" />
    <glyph glyph-name="scommaaccent" unicode="&#x219;" horiz-adv-x="360" 
d="M140 -70q18 0 18 -21q0 -28 -19 -59.5t-39 -51.5l-12 9q36 42 36 69q0 6 -4 14t-4 13q0 11 7 19t17 8zM142 -10q-76 0 -118 38l15 87h21q0 -28 -9 -80q34 -22 94 -22q56 0 91 27.5t35 76.5q0 23 -7.5 42t-23.5 33.5t-27.5 22.5t-31.5 20q-1 1 -15 9.5t-18.5 12t-17 13.5
t-18 18t-13.5 20t-11 26t-3 30q0 56 38.5 88t98.5 32q67 0 102 -27l-15 -93h-21q0 18 9 83q-31 14 -77 14q-48 0 -79 -25.5t-31 -69.5q0 -14 3 -26.5t10 -23.5t13 -18.5t17 -16t16 -12.5t17 -11.5t14 -8.5q51 -33 68 -53q28 -33 28 -78q0 -59 -43 -93.5t-111 -34.5z" />
    <glyph glyph-name="uni021A" unicode="&#x21a;" horiz-adv-x="502" 
d="M198 -70q18 0 18 -21q0 -28 -19 -59.5t-39 -51.5l-12 9q36 42 36 69q0 6 -4 14t-4 13q0 11 7 19t17 8zM109 0l3 18q27 5 86 5l112 619h-185q-12 -67 -21 -94h-21l20 118h449l-20 -118h-19q0 8 2 42l3 27l4 25h-186l-112 -619q57 0 85 -5l-3 -18h-197z" />
    <glyph glyph-name="uni021B" unicode="&#x21b;" horiz-adv-x="303" 
d="M135 -70q18 0 18 -21q0 -28 -19 -59.5t-39 -51.5l-12 9q36 42 36 69q0 6 -4 14t-4 13q0 11 7 19t17 8zM143 -10q-38 0 -53 28t-6 79l63 354h-89l5 23h89l24 135l27 4l-25 -139h117l-5 -23h-117l-63 -355q-17 -83 37 -83t92 51l15 -18q-45 -56 -111 -56z" />
    <glyph glyph-name="circumflex" unicode="&#x2c6;" horiz-adv-x="500" 
d="M184 540l141 140h8l92 -140h-23l-77 107l-114 -107h-27z" />
    <glyph glyph-name="caron" unicode="&#x2c7;" horiz-adv-x="500" 
d="M300 540l-92 140h23l77 -107l114 107h27l-141 -140h-8z" />
    <glyph glyph-name="breve" unicode="&#x2d8;" horiz-adv-x="500" 
d="M305 541q-48 0 -73 37t-25 90v8h23v-8q0 -43 19.5 -73t57.5 -30q42 0 74.5 34.5t44.5 76.5h23q-16 -55 -53.5 -95t-90.5 -40z" />
    <glyph glyph-name="dotaccent" unicode="&#x2d9;" horiz-adv-x="500" 
d="M314 590q-9 0 -16 7t-7 18t7 18t16 7t16 -7t7 -18t-7 -18t-16 -7z" />
    <glyph glyph-name="ring" unicode="&#x2da;" horiz-adv-x="500" 
d="M320 548q-36 0 -59.5 26t-23.5 60q0 35 24 61.5t61 26.5q36 0 59.5 -26t23.5 -60q0 -35 -24 -61.5t-61 -26.5zM322 569q28 0 44 20t16 45q0 26 -17 46.5t-45 20.5t-44 -20t-16 -45q0 -26 17 -46.5t45 -20.5z" />
    <glyph glyph-name="ogonek" unicode="&#x2db;" horiz-adv-x="500" 
d="M192 -210q-33 0 -54.5 19t-21.5 51q0 62 74 140h24q-36 -43 -54.5 -74t-18.5 -64q0 -23 15 -36.5t36 -13.5q28 0 52 13l8 -18q-23 -17 -60 -17z" />
    <glyph glyph-name="tilde" unicode="&#x2dc;" horiz-adv-x="500" 
d="M357 550q-22 0 -48.5 22.5t-43.5 22.5q-28 0 -60 -34l-12 15q34 40 76 40q22 0 48 -22.5t44 -22.5q33 0 60 34l12 -16q-33 -39 -76 -39z" />
    <glyph glyph-name="hungarumlaut" unicode="&#x2dd;" horiz-adv-x="500" 
d="M92 539l103 119h41l-123 -119h-21zM220 539l103 119h41l-123 -119h-21z" />
    <glyph glyph-name="uni0394" unicode="&#x394;" horiz-adv-x="594" 
d="M0 0l5 24l357 642h31l126 -642l-5 -24h-514zM33 24h460l-120 611z" />
    <glyph glyph-name="uni03A9" unicode="&#x3a9;" horiz-adv-x="720" 
d="M39 0l4 24h156q-46 31 -82 102t-36 156q0 160 100.5 277t245.5 117q107 0 181 -84.5t74 -197.5q0 -126 -65 -229.5t-157 -140.5h167l-4 -24h-213l4 24q106 35 174 140t68 226q0 105 -68 183.5t-165 78.5q-86 0 -159.5 -52.5t-115 -136.5t-41.5 -177q0 -86 36.5 -157.5
t92.5 -104.5l-4 -24h-193z" />
    <glyph glyph-name="uni03BC" unicode="&#x3bc;" horiz-adv-x="504" 
d="M13 -218l124 692h26l-59 -325q-11 -64 11.5 -99.5t78.5 -35.5q46 0 95.5 32.5t78.5 72.5l64 355h26l-71 -393q-8 -47 -6 -81h-27q-1 9 1 37q1 23 6 45q-9 -11 -31 -33q-66 -59 -141 -59q-84 0 -103 70h-1q-8 -68 -17 -115l-29 -163h-26z" />
    <glyph glyph-name="uni1E9E" unicode="&#x1e9e;" horiz-adv-x="650" 
d="M-11 0l3 18q28 5 87 5l66 372q49 281 301 281q100 0 190 -29l-5 -21l-206 -240l58 -42q108 -81 108 -173q0 -76 -54.5 -128.5t-149.5 -52.5q-97 0 -160 50l16 20q57 -47 146 -47q82 0 129 45.5t47 110.5q0 84 -102 157l-75 55l215 248q-72 24 -161 24q-113 0 -181 -64.5
t-92 -201.5l-64 -364q49 0 77 -5l-3 -18h-190z" />
    <glyph glyph-name="uni2007" unicode="&#x2007;" 
 />
    <glyph glyph-name="uni2008" unicode="&#x2008;" horiz-adv-x="155" 
 />
    <glyph glyph-name="uni200B" unicode="&#x200b;" horiz-adv-x="0" 
 />
    <glyph glyph-name="endash" unicode="&#x2013;" horiz-adv-x="499" 
d="M62 269l5 24h387l-5 -24h-387z" />
    <glyph glyph-name="emdash" unicode="&#x2014;" horiz-adv-x="796" 
d="M62 269l5 24h684l-5 -24h-684z" />
    <glyph glyph-name="quoteleft" unicode="&#x2018;" horiz-adv-x="149" 
d="M116 532q-9 0 -15 9t-6 21q0 50 64 114l13 -9q-39 -44 -39 -73q0 -8 4 -18t4 -17q0 -11 -7 -19t-18 -8z" />
    <glyph glyph-name="quoteright" unicode="&#x2019;" horiz-adv-x="149" 
d="M104 528l-13 9q39 44 39 73q0 8 -4 18t-4 17q0 11 7 19t18 8q9 0 15 -9t6 -21q0 -50 -64 -114z" />
    <glyph glyph-name="quotesinglbase" unicode="&#x201a;" horiz-adv-x="149" 
d="M1 -102l-13 9q39 44 39 73q0 8 -4 18t-4 17q0 11 7 19t18 8q9 0 15 -9t6 -21q0 -50 -64 -114z" />
    <glyph glyph-name="quotedblleft" unicode="&#x201c;" horiz-adv-x="259" 
d="M116 532q-9 0 -15 9t-6 21q0 50 64 114l13 -9q-39 -44 -39 -73q0 -8 4 -18t4 -17q0 -11 -7 -19t-18 -8zM226 532q-9 0 -15 9t-6 21q0 50 64 114l13 -9q-39 -44 -39 -73q0 -8 4 -18t4 -17q0 -11 -7 -19t-18 -8z" />
    <glyph glyph-name="quotedblright" unicode="&#x201d;" horiz-adv-x="259" 
d="M104 528l-13 9q39 44 39 73q0 8 -4 18t-4 17q0 11 7 19t18 8q9 0 15 -9t6 -21q0 -50 -64 -114zM214 528l-13 9q39 44 39 73q0 8 -4 18t-4 17q0 11 7 19t18 8q9 0 15 -9t6 -21q0 -50 -64 -114z" />
    <glyph glyph-name="quotedblbase" unicode="&#x201e;" horiz-adv-x="259" 
d="M1 -102l-13 9q39 44 39 73q0 8 -4 18t-4 17q0 11 7 19t18 8q9 0 15 -9t6 -21q0 -50 -64 -114zM111 -102l-13 9q39 44 39 73q0 8 -4 18t-4 17q0 11 7 19t18 8q9 0 15 -9t6 -21q0 -50 -64 -114z" />
    <glyph glyph-name="bullet" unicode="&#x2022;" horiz-adv-x="296" 
d="M148 219q-29 0 -47.5 19t-18.5 47q0 29 18.5 48t47.5 19q28 0 47 -19t19 -48q0 -28 -19 -47t-47 -19z" />
    <glyph glyph-name="ellipsis" unicode="&#x2026;" horiz-adv-x="465" 
d="M35 -8q-9 0 -15.5 7t-6.5 17q0 13 8.5 22.5t20.5 9.5q9 0 15.5 -7t6.5 -17q0 -13 -8.5 -22.5t-20.5 -9.5zM190 -8q-9 0 -15.5 7t-6.5 17q0 13 8.5 22.5t20.5 9.5q9 0 15.5 -7t6.5 -17q0 -13 -8.5 -22.5t-20.5 -9.5zM345 -8q-9 0 -15.5 7t-6.5 17q0 13 8.5 22.5t20.5 9.5
q9 0 15.5 -7t6.5 -17q0 -13 -8.5 -22.5t-20.5 -9.5z" />
    <glyph glyph-name="guilsinglleft" unicode="&#x2039;" horiz-adv-x="280" 
d="M158 58l-109 188l176 187h31l-178 -190l108 -185h-28z" />
    <glyph glyph-name="guilsinglright" unicode="&#x203a;" horiz-adv-x="280" 
d="M21 57l178 190l-108 185h28l109 -188l-176 -187h-31z" />
    <glyph glyph-name="Euro" unicode="&#x20ac;" horiz-adv-x="570" 
d="M332 -10q-106 0 -161 78t-55 187h-84l5 24h79q6 67 16 108h-76l5 24h78q35 114 115 189.5t192 75.5q77 0 132 -38l-13 -20q-50 34 -121 34q-97 0 -169.5 -69t-107.5 -172h197l-5 -24h-199q-15 -54 -18 -108h198l-5 -24h-193q3 -101 50 -171t142 -70q77 0 138 40l11 -20
q-63 -44 -151 -44z" />
    <glyph glyph-name="trademark" unicode="&#x2122;" horiz-adv-x="703" 
d="M297 379l2 15q15 5 51 5l64 246q-36 2 -45 5l2 16h80l43 -184q13 -57 13 -81h1q13 31 43 81l109 184h79l-2 -17l-19 -3l-26 -2l-24 -245q30 0 48 -5l-2 -15h-122l2 15q13 5 48 5l18 171q4 39 10 74h-1q-8 -21 -42 -81l-109 -184h-25l-43 184q-12 48 -14 81h-1
q-2 -13 -16 -74l-43 -171q36 -2 45 -5l-2 -15h-122zM100 379l2 15q15 5 49 5l43 243h-72q-5 -25 -14 -49h-19l12 73h214l-13 -73h-19q-2 19 3 49h-66l-43 -243q29 0 47 -5l-2 -15h-122z" />
    <glyph glyph-name="Omega" unicode="&#x2126;" horiz-adv-x="720" 
d="M39 0l4 24h156q-46 31 -82 102t-36 156q0 160 100.5 277t245.5 117q107 0 181 -84.5t74 -197.5q0 -126 -65 -229.5t-157 -140.5h167l-4 -24h-213l4 24q106 35 174 140t68 226q0 105 -68 183.5t-165 78.5q-86 0 -159.5 -52.5t-115 -136.5t-41.5 -177q0 -86 36.5 -157.5
t92.5 -104.5l-4 -24h-193z" />
    <glyph glyph-name="increment" unicode="&#x2206;" horiz-adv-x="594" 
d="M0 0l5 24l357 642h31l126 -642l-5 -24h-514zM33 24h460l-120 611z" />
    <glyph glyph-name="f.sc" unicode="&#xa730;" horiz-adv-x="450" 
d="M2 0l3 18q27 5 86 5l82 458q-58 0 -86 5l3 18h382l-18 -107h-19q0 21 8 83h-244l-37 -210h178q5 26 14 61h18l-26 -150h-17l3 33l4 32h-179l-40 -223q68 0 96 -5l-3 -18h-208z" />
    <glyph glyph-name="zero.osf" unicode="&#xeb00;" horiz-adv-x="491" 
d="M203 -10q-81 0 -123 60.5t-42 140.5q0 71 28 137t87 111t135 45q81 0 123 -60.5t42 -140.5q0 -71 -28 -137t-87 -111t-135 -45zM207 14q66 0 118 42.5t77 102t25 119.5q0 72 -35.5 127t-107.5 55q-66 0 -118 -42.5t-77 -102t-25 -119.5q0 -72 35.5 -127t107.5 -55z" />
    <glyph glyph-name="one.osf" unicode="&#xeb01;" horiz-adv-x="303" 
d="M29 0l3 18q27 5 86 5l76 424l-126 -45l-7 22l137 50h27l-81 -451q57 0 85 -5l-3 -18h-197z" />
    <glyph glyph-name="two.osf" unicode="&#xeb02;" horiz-adv-x="448" 
d="M1 0l2 14q17 13 68.5 51.5t70 53t57.5 46.5t54.5 51t37 47t29 53t7.5 51q0 41 -23.5 67t-70.5 26q-69 0 -137 -54l-11 17q76 61 154 61q54 0 84 -31.5t30 -81.5q0 -26 -8.5 -52t-19 -47t-33 -47t-38.5 -42t-48.5 -42.5t-49 -39t-54 -40t-50.5 -37.5h314l-4 -24h-361z" />
    <glyph glyph-name="three.osf" unicode="&#xeb03;" horiz-adv-x="403" 
d="M45 -188q-34 0 -68 8l6 23q28 -7 66 -7q95 0 163 53t68 141q0 66 -51.5 104.5t-136.5 38.5l4 23q47 0 98 20t89 59.5t38 87.5q0 43 -26 70t-73 27q-71 0 -135 -51l-11 16q72 59 150 59q55 0 88 -33.5t33 -83.5q0 -70 -55.5 -118.5t-120.5 -62.5v-1q50 -4 93 -45.5
t43 -104.5q0 -103 -77 -163t-185 -60z" />
    <glyph glyph-name="four.osf" unicode="&#xeb04;" horiz-adv-x="526" 
d="M281 -177l32 177h-312l4 23l401 451h18l-81 -450h116l-4 -24h-116l-32 -177h-26zM37 24h280l71 393z" />
    <glyph glyph-name="five.osf" unicode="&#xeb05;" horiz-adv-x="388" 
d="M30 -188q-39 0 -57 5l7 23q12 -4 56 -4q99 0 171 55t72 148q0 75 -48 122t-123 47q-23 0 -45 -2l54 268h254l-4 -24h-231l-42 -219q3 1 9 1h10q83 0 137.5 -54t54.5 -133q0 -109 -80 -171t-195 -62z" />
    <glyph glyph-name="six.osf" unicode="&#xeb06;" horiz-adv-x="480" 
d="M216 -10q-58 0 -96 36.5t-52 86t-14 108.5q0 198 121 327.5t309 129.5h11l2 -23h-13q-156 0 -261 -93q-110 -93 -136 -253q74 70 175 70q74 0 122.5 -43.5t48.5 -110.5q0 -102 -62 -168.5t-155 -66.5zM218 14q81 0 135 59.5t54 149.5q0 57 -41.5 94.5t-107.5 37.5
q-89 0 -175 -72q-3 -29 -3 -60q0 -85 33.5 -147t104.5 -62z" />
    <glyph glyph-name="seven.osf" unicode="&#xeb07;" horiz-adv-x="429" 
d="M13 -196l-21 10l406 636h-314q-12 -67 -21 -94h-21l20 118h367l-4 -24z" />
    <glyph glyph-name="eight.osf" unicode="&#xeb08;" horiz-adv-x="490" 
d="M201 -10q-67 0 -108 39t-41 99q0 72 45 119t141 101q-54 39 -81.5 75t-27.5 81q0 77 52 124.5t133 47.5q62 0 99.5 -33.5t37.5 -87.5q0 -48 -22.5 -86.5t-55.5 -64.5t-89 -58q61 -43 91 -80t30 -84q0 -82 -58.5 -137t-145.5 -55zM205 14q72 0 123 49t51 114
q0 44 -28.5 78t-90.5 78q-94 -51 -138 -95t-44 -105q0 -51 34 -85t93 -34zM310 652q-67 0 -111 -41t-44 -102q0 -43 26 -76t81 -72q85 49 124 90t39 99q0 46 -30 74t-85 28z" />
    <glyph glyph-name="nine.osf" unicode="&#xeb09;" horiz-adv-x="480" 
d="M-19 -188l-2 23q162 0 273 88q112 88 137 242q-74 -70 -172 -70q-74 0 -121 43.5t-47 110.5q0 103 58.5 169t150.5 66q58 0 96.5 -36.5t53 -86t14.5 -108.5q0 -198 -123.5 -319.5t-317.5 -121.5zM221 119q84 0 171 71q4 25 4 61q0 85 -34 147t-106 62q-80 0 -130.5 -59
t-50.5 -150q0 -58 40 -95t106 -37z" />
    <glyph glyph-name="zero.lf" unicode="&#xeb0a;" horiz-adv-x="587" 
d="M252 -10q-92 0 -137 71.5t-45 174.5q0 74 17 148t50 141t92 109t134 42q92 0 137 -71.5t45 -174.5q0 -58 -10 -117.5t-33 -118t-56 -103.5t-83.5 -73t-110.5 -28zM256 14q53 0 98.5 27t75 70t50.5 97.5t30 109t9 106.5q0 61 -15.5 110.5t-52.5 83.5t-92 34
q-53 0 -98.5 -27t-75 -70t-50.5 -97.5t-30 -109t-9 -106.5q0 -61 15.5 -110.5t52.5 -83.5t92 -34z" />
    <glyph glyph-name="one.lf" unicode="&#xeb0b;" horiz-adv-x="328" 
d="M38 0l3 18q27 5 104 5l111 616l-141 -46l-6 22l151 52h26l-116 -644q74 0 101 -5l-3 -18h-230z" />
    <glyph glyph-name="two.lf" unicode="&#xeb0c;" horiz-adv-x="481" 
d="M0 0l2 14q23 21 68.5 63.5t66.5 62t59.5 56.5t57.5 56.5t48.5 51.5t44 51.5t33 47t27 48.5t15 44t6.5 45q0 52 -30.5 82t-88.5 30q-99 0 -167 -66l-12 15q75 75 183 75q65 0 103 -36t38 -94q0 -26 -6 -52.5t-22.5 -56.5t-29.5 -53t-44 -58.5t-48 -55.5t-59.5 -61
t-60.5 -58t-69 -64t-68 -63h308q3 33 23 96h18l-21 -120h-375z" />
    <glyph glyph-name="three.lf" unicode="&#xeb0d;" horiz-adv-x="437" 
d="M95 -10q-34 0 -68 8l5 23q28 -7 67 -7q105 0 175.5 52t70.5 142q0 64 -58.5 103.5t-144.5 39.5l4 23q49 0 103 20t95.5 61.5t41.5 92.5q0 47 -33.5 75.5t-87.5 28.5q-75 0 -149 -52l-11 15q74 61 164 61q62 0 102.5 -36.5t40.5 -87.5q0 -39 -19 -73.5t-49.5 -57
t-61.5 -36.5t-61 -21v-1q52 -4 101 -45.5t49 -104.5q0 -107 -78 -165t-198 -58z" />
    <glyph glyph-name="four.lf" unicode="&#xeb0e;" horiz-adv-x="497" 
d="M291 0l31 169h-306l4 20l395 477h23l-86 -473h94l-4 -24h-95l-30 -169h-26zM54 193h272l76 420z" />
    <glyph glyph-name="five.lf" unicode="&#xeb0f;" horiz-adv-x="424" 
d="M67 -10q-27 0 -47 5l6 23q12 -4 48 -4q110 0 190 60t80 168q0 72 -56.5 108t-140.5 36q-23 0 -45 -2l58 282h262l-5 -24h-239l-45 -232h19q94 0 156 -42t62 -121q0 -122 -88.5 -189.5t-214.5 -67.5z" />
    <glyph glyph-name="six.lf" unicode="&#xeb10;" horiz-adv-x="489" 
d="M226 -10q-58 0 -96 36.5t-52 86t-14 108.5q0 197 122 327t306 130l3 -23q-152 0 -260 -94q-109 -94 -137 -244q78 78 174 78q75 0 123 -46t48 -116q0 -107 -61 -175t-156 -68zM228 14q83 0 136 61t53 156q0 61 -40.5 100.5t-108.5 39.5q-76 0 -174 -79q-4 -31 -4 -69
q0 -85 33.5 -147t104.5 -62z" />
    <glyph glyph-name="seven.lf" unicode="&#xeb11;" horiz-adv-x="440" 
d="M105 -22l-22 10l350 654h-297q-12 -67 -21 -94h-21l20 118h350l-5 -24z" />
    <glyph glyph-name="eight.lf" unicode="&#xeb12;" horiz-adv-x="456" 
d="M189 -10q-67 0 -108 39t-41 99q0 72 45 119t141 101q-54 39 -81.5 75t-27.5 81q0 77 52 124.5t133 47.5q62 0 99.5 -33.5t37.5 -87.5q0 -48 -22.5 -86.5t-55.5 -64.5t-89 -58q61 -43 91 -80t30 -84q0 -82 -58.5 -137t-145.5 -55zM193 14q72 0 123 49t51 114
q0 44 -28.5 78t-90.5 78q-94 -51 -138 -95t-44 -105q0 -51 34 -85t93 -34zM298 652q-67 0 -111 -41t-44 -102q0 -43 26 -76t81 -72q85 49 124 90t39 99q0 46 -30 74t-85 28z" />
    <glyph glyph-name="nine.lf" unicode="&#xeb13;" horiz-adv-x="489" 
d="M29 -10l-3 23q152 0 260 94t136 243q-77 -77 -173 -77q-75 0 -123 46t-48 116q0 107 61 175t156 68q58 0 96 -36.5t52 -86t14 -108.5q0 -197 -122 -327t-306 -130zM253 297q79 0 173 79q5 38 5 69q0 85 -33.5 147t-104.5 62q-83 0 -136 -61t-53 -156q0 -61 40.5 -100.5
t108.5 -39.5z" />
    <glyph glyph-name="zero.tosf" unicode="&#xeb14;" 
d="M206 -10q-78 0 -117.5 60t-39.5 141q0 72 26.5 137.5t82.5 110.5t131 45q79 0 118 -60t39 -141q0 -72 -26.5 -137.5t-82.5 -110.5t-131 -45zM209 14q63 0 113 42.5t74 102t24 119.5q0 72 -33 127t-101 55q-63 0 -113 -42.5t-74 -102t-24 -119.5q0 -72 33 -127t101 -55z
" />
    <glyph glyph-name="one.tosf" unicode="&#xeb15;" 
d="M81 0l3 19q27 5 126 5l76 423l-137 -49l-7 22l148 54h27l-81 -450q97 0 125 -5l-3 -19h-277z" />
    <glyph glyph-name="two.tosf" unicode="&#xeb16;" 
d="M26 0l2 14q177 139 219 176q123 111 123 185q0 85 -92 85q-42 0 -85 -19t-72 -44l-12 18q82 69 174 69q55 0 84 -28t29 -77q0 -25 -8 -50t-28.5 -52t-38 -47.5t-54 -52t-57 -48.5t-67 -53t-66.5 -52h315l-4 -24h-362z" />
    <glyph glyph-name="three.tosf" unicode="&#xeb17;" 
d="M95 -188q-41 0 -71 10l6 23q27 -9 68 -9q96 0 169.5 53t73.5 141q0 64 -58.5 103.5t-144.5 39.5l4 23q78 0 159 51t81 121q0 43 -26.5 67.5t-73.5 24.5q-87 0 -159 -57l-11 17q76 64 174 64q56 0 89 -30.5t33 -81.5q0 -69 -62.5 -120t-128.5 -66v-1q52 -4 101.5 -46
t49.5 -104q0 -103 -82 -163t-191 -60z" />
    <glyph glyph-name="four.tosf" unicode="&#xeb18;" 
d="M260 -177l32 177h-312l4 23l401 451h18l-81 -450h116l-4 -24h-116l-32 -177h-26zM16 24h280l71 393z" />
    <glyph glyph-name="five.tosf" unicode="&#xeb19;" 
d="M90 -188q-49 0 -78 8l7 23q26 -7 75 -7q98 0 167 55t69 148q0 75 -48 122t-123 47q-34 0 -60 -2l54 268h261l-4 -24h-238l-42 -219q5 1 16 1h18q83 0 137.5 -54.5t54.5 -133.5q0 -108 -76.5 -170t-189.5 -62z" />
    <glyph glyph-name="six.tosf" unicode="&#xeb1a;" 
d="M227 -10q-58 0 -96 36.5t-52 86t-14 108.5q0 198 121 327.5t309 129.5h11l2 -23h-13q-156 0 -261 -93q-110 -93 -136 -253q74 70 175 70q74 0 122.5 -43.5t48.5 -110.5q0 -102 -62 -168.5t-155 -66.5zM229 14q81 0 135 59.5t54 149.5q0 57 -41.5 94.5t-107.5 37.5
q-89 0 -175 -72q-3 -29 -3 -60q0 -85 33.5 -147t104.5 -62z" />
    <glyph glyph-name="seven.tosf" unicode="&#xeb1b;" 
d="M42 -196l-22 10l424 636h-331q-12 -67 -21 -94h-21l20 118h385l-4 -24z" />
    <glyph glyph-name="eight.tosf" unicode="&#xeb1c;" 
d="M208 -10q-68 0 -113.5 39.5t-45.5 98.5q0 38 13.5 69t45 58.5t59 45.5t78.5 47q-58 41 -88.5 76.5t-30.5 79.5q0 76 56.5 124t138.5 48q63 0 105 -34.5t42 -86.5q0 -69 -43.5 -113.5t-133.5 -95.5q67 -47 99 -82.5t32 -81.5q0 -82 -63 -137t-151 -55zM212 14
q73 0 128.5 49.5t55.5 113.5q0 30 -19.5 58.5t-42 47t-67.5 50.5q-99 -55 -145.5 -97.5t-46.5 -102.5q0 -50 38.5 -84.5t98.5 -34.5zM317 652q-67 0 -116 -41.5t-49 -101.5q0 -42 28 -73t89 -75q90 52 131.5 92t41.5 97q0 45 -34.5 73.5t-90.5 28.5z" />
    <glyph glyph-name="nine.tosf" unicode="&#xeb1d;" 
d="M-8 -188l-2 23q162 0 273 88q112 88 137 242q-74 -70 -172 -70q-74 0 -121 43.5t-47 110.5q0 103 58.5 169t150.5 66q58 0 96.5 -36.5t53 -86t14.5 -108.5q0 -198 -123.5 -319.5t-317.5 -121.5zM232 119q84 0 171 71q4 25 4 61q0 85 -34 147t-106 62q-80 0 -130.5 -59
t-50.5 -150q0 -58 40 -95t106 -37z" />
    <glyph glyph-name="numbersign.lf" unicode="&#xeb1e;" horiz-adv-x="569" 
d="M124 0l58 243h-143l7 24h142l39 159h-139l7 24h138l52 216h26l-52 -216h141l52 216h26l-52 -216h152l-7 -24h-151l-39 -159h147l-7 -24h-146l-58 -243h-26l58 243h-141l-58 -243h-26zM214 267h141l39 159h-141z" />
    <glyph glyph-name="dollar.lf" unicode="&#xeb1f;" horiz-adv-x="473" 
d="M153 -123l21 114q-98 6 -156 67l15 93h19q0 -33 -9 -85q52 -52 147 -52q79 0 128 41.5t49 100.5q0 17 -3.5 32t-12 29.5t-15 24.5t-22 23.5t-22.5 19.5t-26.5 20.5t-24.5 18.5q-72 53 -104 91t-32 93q0 76 56 120t126 48l19 108h25l-20 -108q93 -7 138 -50l-16 -93h-21
q0 27 10 85q-55 34 -134 34q-56 0 -106.5 -39.5t-50.5 -102.5q0 -28 9.5 -52t33.5 -47.5t36.5 -33.5t46.5 -35q34 -26 46 -35.5t35 -31t31.5 -35.5t16 -36t7.5 -46q0 -69 -56 -117.5t-140 -50.5l-20 -113h-24z" />
    <glyph glyph-name="percent.lf" unicode="&#xeb20;" horiz-adv-x="769" 
d="M221 372q63 0 108 46t45 109q0 50 -32 85.5t-82 35.5q-63 0 -108 -46t-45 -109q0 -50 32 -85.5t82 -35.5zM217 348q-58 0 -97 42.5t-39 96.5q0 77 52 131t131 54q58 0 97 -42.5t39 -96.5q0 -77 -52 -131t-131 -54zM109 0l554 666h31l-555 -666h-30zM543 18q63 0 108 46
t45 109q0 50 -32 85.5t-82 35.5q-63 0 -108 -46t-45 -109q0 -50 32 -85.5t82 -35.5zM539 -6q-58 0 -97 42.5t-39 96.5q0 77 52 131t131 54q58 0 97 -42.5t39 -96.5q0 -77 -52 -131t-131 -54z" />
    <glyph glyph-name="numbersign.osf" unicode="&#xeb21;" horiz-adv-x="473" 
d="M81 120l53 162h-107l7 24h108l45 139h-108l7 24h108l47 141h26l-47 -141h124l47 141h26l-47 -141h111l-7 -24h-111l-45 -139h111l-7 -24h-112l-53 -162h-26l53 162h-124l-53 -162h-26zM168 306h124l45 139h-124z" />
    <glyph glyph-name="dollar.osf" unicode="&#xeb22;" horiz-adv-x="395" 
d="M114 -123l21 114q-71 5 -118 39l15 87h21q0 -20 -8 -76q49 -27 106 -27q68 0 112 26t44 75q0 20 -9.5 38t-28.5 33t-33 23.5t-37 20.5q-61 30 -92.5 59.5t-31.5 73.5q0 56 41.5 86.5t107.5 34.5l19 105h26l-19 -106q69 -5 112 -37l-16 -93h-21q0 19 9 82q-45 25 -100 25
q-61 0 -97.5 -25.5t-36.5 -69.5q0 -20 9.5 -38t28.5 -33t33 -23.5t37 -20.5q62 -32 93 -60.5t31 -72.5q0 -62 -50 -93t-121 -34l-21 -113h-26z" />
    <glyph glyph-name="percent.osf" unicode="&#xeb23;" horiz-adv-x="628" 
d="M158 232q-44 0 -68 29.5t-24 66.5q0 66 39 112t96 46q44 0 68 -29.5t24 -66.5q0 -66 -39 -112t-96 -46zM162 255q45 0 76 39t31 92q0 31 -18 54t-54 23q-45 0 -76 -39t-31 -92q0 -31 18 -54t54 -23zM427 -12q-44 0 -68 29.5t-24 66.5q0 66 39 112t96 46q44 0 68 -29.5
t24 -66.5q0 -66 -39 -112t-96 -46zM431 11q45 0 76 39t31 92q0 31 -18 54t-54 23q-45 0 -76 -39t-31 -92q0 -31 18 -54t54 -23zM119 0l367 474h27l-368 -474h-26z" />
    <glyph glyph-name="fi" unicode="&#xfb01;" horiz-adv-x="521" 
d="M-53 -228q-51 0 -78 20l11 21q28 -18 71 -18q47 0 74 33.5t41 113.5l89 509h-98l5 23h97l17 92q30 164 176 164q79 0 130 -42l-13 -21q-50 40 -121 40q-119 0 -147 -145l-16 -88h264l-82 -451q57 0 85 -5l-3 -18h-112l81 451h-237l-90 -513q-15 -86 -49.5 -126t-94.5 -40
z" />
    <glyph glyph-name="fl" unicode="&#xfb02;" horiz-adv-x="520" 
d="M-53 -228q-51 0 -78 20l11 21q28 -18 71 -18q47 0 74 33.5t41 113.5l89 509h-98l5 23h97l15 82q30 174 186 174q54 0 107 -12l28 2l-14 -60l-114 -637q57 0 85 -5l-3 -18h-112l124 695q-55 12 -105 12q-130 0 -157 -155l-14 -78h131l-5 -23h-130l-90 -513
q-15 -86 -49.5 -126t-94.5 -40z" />
    <glyph glyph-name="uniFEFF" unicode="&#xfeff;" horiz-adv-x="0" 
 />
    <glyph glyph-name="NULL" horiz-adv-x="0" 
 />
    <glyph glyph-name="CR" horiz-adv-x="240" 
 />
    <glyph glyph-name="uni2007.osf" horiz-adv-x="491" 
 />
    <glyph glyph-name="uni030C.alt001" horiz-adv-x="1" 
d="M-313 561l68 159h35l-87 -159h-16z" />
    <glyph glyph-name="slash.case" horiz-adv-x="364" 
d="M-54 -109l477 881h26l-476 -881h-27z" />
    <glyph glyph-name="f_f" horiz-adv-x="547" 
d="M-53 -228q-51 0 -78 20l11 21q28 -18 71 -18q47 0 74 33.5t41 113.5l89 509h-98l5 23h97l10 56q16 101 60 150.5t129 49.5q73 0 133 -48q42 48 115 48q59 0 107 -31l-13 -21q-45 29 -98 29q-57 0 -90.5 -37t-48.5 -117l-14 -79h131l-5 -23h-130l-90 -513
q-15 -86 -49.5 -126t-94.5 -40q-51 0 -78 20l11 21q28 -18 71 -18q47 0 74 33.5t41 113.5l89 509h-238l-90 -513q-15 -86 -49.5 -126t-94.5 -40zM185 474h238l15 83q12 66 38 106q-57 44 -122 44q-71 0 -107.5 -44t-52.5 -137z" />
    <glyph glyph-name="f_f_i" horiz-adv-x="785" 
d="M-53 -228q-51 0 -78 20l11 21q28 -18 71 -18q47 0 74 33.5t41 113.5l89 509h-98l5 23h97l10 56q16 101 60 150.5t129 49.5q72 0 134 -49q45 49 124 49t130 -42l-13 -21q-50 40 -121 40q-119 0 -147 -145l-16 -88h264l-10 -56l-72 -395q57 0 85 -5l-3 -18h-112l81 451
h-237l-90 -513q-15 -86 -49.5 -126t-94.5 -40q-51 0 -78 20l11 21q28 -18 71 -18q47 0 74 33.5t41 113.5l89 509h-238l-90 -513q-15 -86 -49.5 -126t-94.5 -40zM185 474h238l17 92q10 58 36 96q-57 45 -122 45q-71 0 -107.5 -44t-52.5 -137z" />
    <glyph glyph-name="f_f_l" horiz-adv-x="784" 
d="M-53 -228q-51 0 -78 20l11 21q28 -18 71 -18q47 0 74 33.5t41 113.5l89 509h-98l5 23h97l10 56q16 101 60 150.5t129 49.5q74 0 136 -50q47 50 130 50q54 0 107 -12l28 2l-14 -60l-114 -637q57 0 85 -5l-3 -18h-112l124 695q-55 12 -105 12q-130 0 -157 -155l-14 -78h131
l-5 -23h-130l-90 -513q-15 -86 -49.5 -126t-94.5 -40q-51 0 -78 20l11 21q28 -18 71 -18q47 0 74 33.5t41 113.5l89 509h-238l-90 -513q-15 -86 -49.5 -126t-94.5 -40zM185 474h238l15 82q12 65 40 105q-59 46 -124 46q-71 0 -107.5 -44t-52.5 -137z" />
    <glyph glyph-name="f_i" horiz-adv-x="521" 
d="M-53 -228q-51 0 -78 20l11 21q28 -18 71 -18q47 0 74 33.5t41 113.5l89 509h-98l5 23h97l17 92q30 164 176 164q79 0 130 -42l-13 -21q-50 40 -121 40q-119 0 -147 -145l-16 -88h264l-82 -451q57 0 85 -5l-3 -18h-112l81 451h-237l-90 -513q-15 -86 -49.5 -126t-94.5 -40
z" />
    <glyph glyph-name="f_l" horiz-adv-x="520" 
d="M-53 -228q-51 0 -78 20l11 21q28 -18 71 -18q47 0 74 33.5t41 113.5l89 509h-98l5 23h97l15 82q30 174 186 174q54 0 107 -12l28 2l-14 -60l-114 -637q57 0 85 -5l-3 -18h-112l124 695q-55 12 -105 12q-130 0 -157 -155l-14 -78h131l-5 -23h-130l-90 -513
q-15 -86 -49.5 -126t-94.5 -40z" />
    <glyph glyph-name="uni2007.tosf" 
 />
    </font>
</defs>
</svg>
