<?xml version="1.0" standalone="no"?>
<!DOCTYPE svg PUBLIC "-//W3C//DTD SVG 1.1//EN" "http://www.w3.org/Graphics/SVG/1.1/DTD/svg11.dtd" >
<svg>
<metadata>
Created by FontForge 20120731 at Fri Jan 15 01:18:23 2016
 By ,,,
Copyright (c) 2013 by FontFont. All rights reserved.
</metadata>
<defs>
<font id="FFKievitSlab-Italic" horiz-adv-x="525" >
  <font-face 
    font-family="FF Kievit Slab"
    font-weight="400"
    font-style="italic"
    font-stretch="normal"
    units-per-em="1000"
    panose-1="2 6 5 4 3 0 0 2 0 4"
    ascent="760"
    descent="-240"
    x-height="480"
    cap-height="666"
    bbox="-330 -250 994 934"
    underline-thickness="60"
    underline-position="-75"
    slope="-10"
    unicode-range="U+0020-FEFF"
  />
<missing-glyph horiz-adv-x="556" 
d="M52 0v666h452v-666h-452zM113 61h330v544h-330v-544z" />
    <glyph glyph-name=".notdef" horiz-adv-x="556" 
d="M52 0v666h452v-666h-452zM113 61h330v544h-330v-544z" />
    <glyph glyph-name=".null" horiz-adv-x="0" 
 />
    <glyph glyph-name="nonmarkingreturn" horiz-adv-x="333" 
 />
    <glyph glyph-name="space" unicode=" " horiz-adv-x="220" 
 />
    <glyph glyph-name="exclam" unicode="!" horiz-adv-x="248" 
d="M95 -9q-25 0 -42 17t-17 41q0 23 17 39.5t42 16.5q23 0 40 -16.5t17 -39.5q0 -24 -17 -41t-40 -17zM84 199l66 467h88l-98 -467h-56z" />
    <glyph glyph-name="quotedbl" unicode="&#x22;" horiz-adv-x="359" 
d="M124 444l20 222h91l-55 -222h-56zM256 444l20 222h91l-55 -222h-56z" />
    <glyph glyph-name="numbersign" unicode="#" horiz-adv-x="555" 
d="M92 0l58 218h-126l15 56h126l36 135h-127l15 56h127l54 201h55l-54 -201h119l54 201h55l-54 -201h120l-15 -56h-120l-36 -135h122l-16 -56h-121l-59 -218h-55l59 218h-119l-58 -218h-55zM220 274h119l36 135h-119z" />
    <glyph glyph-name="dollar" unicode="$" horiz-adv-x="474" 
d="M146 -118l18 107q-111 10 -160 59l26 144h63q0 -24 -13 -115q44 -28 113 -28q70 0 111.5 36t41.5 91q0 46 -29 76.5t-79 56.5q-33 17 -49 27t-41 32t-36.5 51t-11.5 67q0 78 51 129.5t136 60.5l19 108h58l-20 -107q87 -7 132 -40l-27 -151h-63q0 24 13 115q-39 16 -86 16
q-60 0 -98 -30t-38 -83q0 -44 29 -74.5t79 -56.5q66 -36 87 -55q51 -47 51 -124q0 -83 -54 -139.5t-146 -64.5l-19 -108h-58z" />
    <glyph glyph-name="percent" unicode="%" horiz-adv-x="807" 
d="M229 396q52 0 88 38.5t36 94.5q0 43 -23.5 68t-67.5 25q-54 0 -89 -38.5t-35 -94.5q0 -42 23.5 -67.5t67.5 -25.5zM224 342q-69 0 -109.5 43.5t-40.5 97.5q0 76 53 134.5t139 58.5q70 0 110 -43t40 -98q0 -76 -53 -134.5t-139 -58.5zM119 0l530 666h70l-530 -666h-70z
M578 47q52 0 88 38.5t36 94.5q0 43 -23.5 68t-67.5 25q-54 0 -89 -38.5t-35 -94.5q0 -42 23.5 -67.5t67.5 -25.5zM573 -7q-69 0 -109.5 43.5t-40.5 97.5q0 76 53 134.5t139 58.5q70 0 110 -43t40 -98q0 -76 -53 -134.5t-139 -58.5z" />
    <glyph glyph-name="ampersand" unicode="&#x26;" horiz-adv-x="694" 
d="M557 -90q-49 0 -88 28t-95 93q-84 -43 -164 -43q-79 0 -123.5 48.5t-44.5 120.5q0 134 80 234.5t182 100.5q51 0 81.5 -25.5t30.5 -74.5q0 -52 -44 -93t-99 -59l115 -133q45 30 87 72q59 59 94.5 135.5t35.5 141.5q0 85 -50 132.5t-158 64.5l13 61q266 -36 266 -254
q0 -73 -43.5 -161.5t-114.5 -159.5q-42 -43 -92 -77q47 -56 74.5 -75.5t58.5 -19.5q35 0 66 20l24 -50q-37 -27 -92 -27zM223 52q55 0 114 27l-134 152l13 40q59 14 95 46t36 68q0 45 -57 45q-69 0 -123 -82t-54 -183q0 -113 110 -113z" />
    <glyph glyph-name="quotesingle" unicode="'" horiz-adv-x="215" 
d="M116 444l20 222h91l-55 -222h-56z" />
    <glyph glyph-name="parenleft" unicode="(" horiz-adv-x="296" 
d="M219 -177h-65q-113 144 -113 344q0 316 262 553h71q-42 -38 -80 -83.5t-82 -115.5t-70 -161.5t-26 -190.5q0 -114 28 -194.5t75 -151.5z" />
    <glyph glyph-name="parenright" unicode=")" horiz-adv-x="301" 
d="M2 -177h-73q48 46 90 98t84.5 123.5t67.5 160t25 181.5q0 110 -32.5 195t-73.5 139h68q42 -50 77.5 -136.5t35.5 -196.5q0 -312 -269 -564z" />
    <glyph glyph-name="asterisk" unicode="*" horiz-adv-x="434" 
d="M152 329l-45 35l107 116l-128 37l24 56l127 -48l20 141h66l-30 -142l137 47l13 -56l-145 -36l72 -123l-53 -27l-63 123z" />
    <glyph glyph-name="plus" unicode="+" horiz-adv-x="563" 
d="M205 42l34 194h-179l11 61h179l32 185h67l-32 -185h181l-11 -61h-181l-34 -194h-67z" />
    <glyph glyph-name="comma" unicode="," horiz-adv-x="216" 
d="M72 112q26 0 44.5 -18t18.5 -49q0 -55 -36 -106.5t-78 -83.5l-31 28q55 51 55 90q0 16 -14 39.5t-14 42.5q0 25 16 41t39 16z" />
    <glyph glyph-name="hyphen" unicode="-" horiz-adv-x="305" 
d="M53 255l11 64h201l-11 -64h-201z" />
    <glyph glyph-name="period" unicode="." horiz-adv-x="216" 
d="M78 -9q-26 0 -43.5 17.5t-17.5 42.5q0 24 17.5 41.5t43.5 17.5q24 0 41.5 -17.5t17.5 -41.5q0 -25 -17.5 -42.5t-41.5 -17.5z" />
    <glyph glyph-name="slash" unicode="/" horiz-adv-x="402" 
d="M7 0l350 666h67l-350 -666h-67z" />
    <glyph glyph-name="zero" unicode="0" 
d="M226 -12q-93 0 -137 74t-44 190q0 73 18.5 146.5t52.5 136.5t90 103t123 40q62 0 104.5 -37t60.5 -92.5t18 -124.5q0 -108 -31.5 -205t-98.5 -164t-156 -67zM233 51q56 0 102.5 53.5t72 138.5t25.5 180q0 88 -28 140t-84 52q-83 0 -141.5 -113.5t-58.5 -247.5
q0 -95 28.5 -149t83.5 -54z" />
    <glyph glyph-name="one" unicode="1" 
d="M38 0l10 56q67 9 169 9l92 532l-164 -52l-16 60l204 61h61l-104 -601q100 0 163 -9l-10 -56h-405z" />
    <glyph glyph-name="two" unicode="2" 
d="M1 0l8 43q86 71 130.5 110t104.5 96t89 96t50.5 85.5t21.5 88.5q0 45 -27 69.5t-73 24.5q-81 0 -159 -62l-39 47q93 80 206 80q81 0 127.5 -40t46.5 -111q0 -47 -22.5 -97.5t-51 -90t-84 -92.5t-90.5 -82.5t-102 -83.5q-14 -11 -21 -17q30 2 52 2h215q17 73 24 89h62
l-27 -155h-441z" />
    <glyph glyph-name="three" unicode="3" 
d="M146 -12q-74 0 -125 17l18 63q9 -4 44.5 -9.5t66.5 -5.5q100 0 156 41t56 118q0 61 -58 89.5t-147 26.5l8 53q234 31 234 160q0 33 -28 51.5t-74 18.5q-76 0 -153 -51l-33 47q93 71 197 71q81 0 125.5 -36t44.5 -94q0 -67 -53.5 -114.5t-129.5 -70.5v-1q60 -10 103 -50.5
t43 -97.5q0 -108 -85 -167t-210 -59z" />
    <glyph glyph-name="four" unicode="4" 
d="M287 0l27 151h-308l10 61l380 454h76l-78 -448h87l-11 -67h-87l-26 -151h-70zM379 556l-285 -342q23 4 82 4h147l58 338h-2z" />
    <glyph glyph-name="five" unicode="5" 
d="M122 -12q-48 0 -87 12l15 64q36 -11 81 -11q107 0 170.5 48.5t63.5 134.5q0 61 -53 91t-139 30q-33 0 -55 -2l60 311h317l-11 -66h-248l-34 -179h2q104 0 171.5 -50t67.5 -128q0 -122 -89 -188.5t-232 -66.5z" />
    <glyph glyph-name="six" unicode="6" 
d="M243 -12q-97 0 -146 66.5t-49 160.5q0 195 131 329t321 134l9 -59q-179 0 -288 -128q-59 -72 -80 -150q27 28 68 45.5t85 17.5q85 0 132 -47t47 -124q0 -100 -64.5 -172.5t-165.5 -72.5zM248 51q73 0 110.5 54t37.5 126q0 54 -29.5 82.5t-83.5 28.5q-85 0 -154 -61
q-5 -38 -5 -71q0 -159 124 -159z" />
    <glyph glyph-name="seven" unicode="7" 
d="M142 -29l-60 29l368 600h-268q-4 -22 -13.5 -61t-14.5 -50h-53l31 177h410l-9 -54z" />
    <glyph glyph-name="eight" unicode="8" 
d="M226 -12q-85 0 -134 44.5t-49 107.5q0 119 177 209q-97 75 -97 152q0 76 62 126.5t146 50.5q80 0 125.5 -38t45.5 -99q0 -60 -45.5 -105t-120.5 -84q119 -74 119 -167q0 -82 -63 -139.5t-166 -57.5zM234 53q62 0 103 36t41 90q0 38 -28.5 69t-85.5 68q-71 -38 -107.5 -77
t-36.5 -94q0 -41 30.5 -66.5t83.5 -25.5zM325 614q-52 0 -89 -31t-37 -79q0 -34 22.5 -61t68.5 -57q136 67 136 146q0 37 -26 59.5t-75 22.5z" />
    <glyph glyph-name="nine" unicode="9" 
d="M54 -18l-7 59q131 0 223 63q112 76 146 223q-64 -65 -159 -65q-82 0 -130 47t-48 124q0 99 69.5 172t165.5 73q97 0 143.5 -65t46.5 -156q0 -209 -121 -342t-329 -133zM268 324q89 0 158 61q4 32 4 75q0 72 -31 113.5t-92 41.5q-66 0 -108.5 -56t-42.5 -123
q0 -112 112 -112z" />
    <glyph glyph-name="colon" unicode=":" horiz-adv-x="216" 
d="M78 -9q-26 0 -43.5 17.5t-17.5 42.5q0 24 17.5 41.5t43.5 17.5q24 0 41.5 -17.5t17.5 -41.5q0 -25 -17.5 -42.5t-41.5 -17.5zM141 366q-26 0 -43.5 17.5t-17.5 42.5q0 24 17.5 41.5t43.5 17.5q24 0 41.5 -17.5t17.5 -41.5q0 -25 -17.5 -42.5t-41.5 -17.5z" />
    <glyph glyph-name="semicolon" unicode=";" horiz-adv-x="216" 
d="M72 112q26 0 44.5 -18t18.5 -49q0 -55 -36 -106.5t-78 -83.5l-31 28q55 51 55 90q0 16 -14 39.5t-14 42.5q0 25 16 41t39 16zM140 366q-26 0 -43.5 17.5t-17.5 42.5q0 24 17.5 41.5t43.5 17.5q24 0 41.5 -17.5t17.5 -41.5q0 -25 -17.5 -42.5t-41.5 -17.5z" />
    <glyph glyph-name="less" unicode="&#x3c;" horiz-adv-x="398" 
d="M255 26l-209 220l279 218l37 -48l-227 -175l163 -174z" />
    <glyph glyph-name="equal" unicode="=" horiz-adv-x="531" 
d="M55 153l11 63h389l-11 -63h-389zM84 316l11 63h389l-11 -63h-389z" />
    <glyph glyph-name="greater" unicode="&#x3e;" horiz-adv-x="398" 
d="M73 26l-37 48l227 175l-163 174l43 41l209 -220z" />
    <glyph glyph-name="question" unicode="?" horiz-adv-x="406" 
d="M171 193h-54q-7 26 -7 53q0 47 25.5 77.5t81.5 62.5q61 35 88.5 65t27.5 81q0 82 -104 82q-39 0 -85 -20l-21 58q52 26 117 26q81 0 126 -39.5t45 -99.5q0 -38 -13 -70t-39 -57t-48 -41t-57 -36q-19 -11 -30 -18.5t-26.5 -20t-22.5 -27t-7 -30.5q0 -22 3 -46zM134 -9
q-25 0 -42 17t-17 41q0 23 17 39.5t42 16.5q23 0 40 -16.5t17 -39.5q0 -24 -17 -41t-40 -17z" />
    <glyph glyph-name="at" unicode="@" horiz-adv-x="745" 
d="M367 -91q-150 0 -239.5 95t-89.5 236q0 152 104.5 265.5t258.5 113.5q61 0 115 -18.5t92 -49t65 -69.5t40.5 -81t13.5 -82q0 -96 -50 -166t-124 -70q-50 0 -77.5 30t-27.5 80v2h-2q-19 -44 -53.5 -78t-85.5 -34q-43 0 -68.5 34.5t-25.5 80.5q0 105 56 185.5t156 80.5
q30 0 117 -21l-25 -139q-14 -76 -14 -95q0 -30 15 -50t38 -20q49 0 81.5 51t32.5 122q0 108 -78 180t-191 72q-116 0 -206.5 -95.5t-90.5 -225.5q0 -122 73.5 -200t200.5 -78q87 0 149 29l23 -51q-84 -34 -183 -34zM325 145q37 0 68.5 42.5t48.5 91.5t28 104l4 20
q-37 10 -55 10q-58 0 -95.5 -61.5t-37.5 -142.5q0 -25 10 -44.5t29 -19.5z" />
    <glyph glyph-name="A" unicode="A" horiz-adv-x="654" 
d="M-38 0l8 50q22 5 59 7l341 609h72l105 -608q39 -1 65 -8l-8 -50h-212l8 50q28 6 69 8l-22 139h-268l-76 -139q42 -2 68 -8l-8 -50h-201zM214 259h222l-31 195q-9 45 -18 124h-2q-47 -96 -63 -124z" />
    <glyph glyph-name="B" unicode="B" horiz-adv-x="569" 
d="M-6 0l8 50q40 8 81 8l98 550q-37 0 -77 8l9 50h246q89 0 139.5 -37t50.5 -107q0 -136 -146 -174v-2q53 -10 87 -45.5t34 -88.5q0 -105 -74.5 -158.5t-201.5 -53.5h-254zM160 60h93q192 0 192 149q0 50 -35.5 80t-105.5 30h-99zM216 377h93q78 0 119 35.5t41 97.5
q0 96 -123 96h-89z" />
    <glyph glyph-name="C" unicode="C" horiz-adv-x="649" 
d="M335 -12q-133 0 -207 79t-74 200q0 116 56 211.5t146.5 147.5t193.5 52q125 0 193 -47l-27 -148h-63q0 26 12 110q-51 22 -126 22q-132 0 -218 -98.5t-86 -246.5q0 -96 52.5 -157.5t152.5 -61.5q91 0 155 34l7 30l8 35q7 36 14 51h63l-26 -146q-32 -28 -97.5 -47.5
t-128.5 -19.5z" />
    <glyph glyph-name="D" unicode="D" horiz-adv-x="680" 
d="M-6 0l8 50q40 8 81 8l98 550q-37 0 -77 8l9 50h230q161 0 243 -68.5t82 -188.5q0 -81 -26.5 -153.5t-76.5 -130t-130.5 -91.5t-180.5 -34h-260zM161 60h105q148 0 234.5 98.5t86.5 245.5q0 103 -62 152.5t-191 49.5h-76z" />
    <glyph glyph-name="E" unicode="E" horiz-adv-x="541" 
d="M-6 0l8 50q40 8 81 8l98 550q-37 0 -77 8l9 50h448l-29 -161h-63q0 38 9 101h-221l-42 -236h156q16 61 20 70h55l-36 -198h-55q-2 18 6 70h-156l-45 -252h226q9 60 26 101h64l-29 -161h-453z" />
    <glyph glyph-name="F" unicode="F" horiz-adv-x="519" 
d="M-6 0l8 50q40 8 81 8l98 550q-37 0 -77 8l9 50h448l-29 -161h-63q0 38 9 101h-221l-45 -252h156q16 61 20 70h55l-36 -198h-55q-2 18 6 70h-156l-43 -238q43 0 78 -8l-8 -50h-235z" />
    <glyph glyph-name="G" unicode="G" horiz-adv-x="722" 
d="M357 -12q-146 0 -224.5 76.5t-78.5 203.5q0 175 117 292.5t281 117.5q72 0 127.5 -17t84.5 -39l-27 -148h-63q0 27 12 111q-65 30 -146 30q-133 0 -219 -96.5t-86 -247.5q0 -106 57 -163t170 -57q21 0 40.5 2t34.5 5.5t27.5 7t22.5 8t16 7.5t13 7l6 4l25 143q-37 0 -77 8
l9 50h229l-9 -50q-40 -8 -76 -8l-33 -181l-10 -6q-9 -6 -18 -11t-24.5 -12.5t-33.5 -13.5t-40.5 -11.5t-50 -8.5t-56.5 -3z" />
    <glyph glyph-name="H" unicode="H" horiz-adv-x="749" 
d="M-6 0l8 50q40 8 81 8l97 550q-37 0 -77 8l9 50h235l-9 -50q-40 -8 -81 -8l-40 -228h366l40 228q-37 0 -77 8l9 50h235l-9 -50q-40 -8 -81 -8l-98 -550q42 0 77 -8l-8 -50h-235l8 50q40 8 81 8l47 261h-365l-47 -261q42 0 77 -8l-8 -50h-235z" />
    <glyph glyph-name="I" unicode="I" horiz-adv-x="307" 
d="M-6 0l8 50q40 8 81 8l98 550q-37 0 -77 8l9 50h235l-9 -50q-40 -8 -81 -8l-98 -550q42 0 77 -8l-8 -50h-235z" />
    <glyph glyph-name="J" unicode="J" horiz-adv-x="282" 
d="M-42 -190q-41 0 -60 11l27 66q16 -7 36 -7q78 0 99 118l108 610q-37 0 -77 8l9 50h235l-9 -50q-40 -8 -81 -8l-111 -622q-31 -176 -176 -176z" />
    <glyph glyph-name="K" unicode="K" horiz-adv-x="626" 
d="M348 0l8 50q26 7 65 8l-201 289l277 261q-55 6 -62 8l9 50h216l-9 -50q-4 -1 -66 -8l-281 -261l206 -290q52 -2 73 -7l-8 -50h-227zM-6 0l8 50q40 8 81 8l98 550q-37 0 -77 8l9 50h235l-9 -50q-40 -8 -81 -8l-98 -550q42 0 77 -8l-8 -50h-235z" />
    <glyph glyph-name="L" unicode="L" horiz-adv-x="496" 
d="M-6 0l8 50q40 8 81 8l98 550q-37 0 -77 8l9 50h235l-9 -50q-40 -8 -82 -8l-97 -548h202l6 32q11 50 22 79h60l-30 -171h-426z" />
    <glyph glyph-name="M" unicode="M" horiz-adv-x="882" 
d="M-26 0l8 50q33 7 73 8l172 552q-40 0 -75 8l9 48h156l77 -482q2 -14 12 -100h2q45 93 49 100l252 482h155l-9 -48q-40 -8 -78 -8l-28 -552q40 0 75 -8l-8 -50h-233l8 50q32 6 84 8l21 379q4 70 9 97h-2q-18 -40 -43 -87l-235 -447h-75l-71 441l-14 93h-2q-5 -30 -26 -97
l-113 -379q55 -2 80 -8l-8 -50h-222z" />
    <glyph glyph-name="N" unicode="N" horiz-adv-x="714" 
d="M-6 0l8 50q40 8 81 8l98 550q-37 0 -77 8l9 50h148l225 -464q24 -53 39 -97h2q6 54 15 104l70 399q-37 0 -77 8l9 50h222l-9 -50q-40 -8 -81 -8l-107 -608h-65l-231 477q-21 44 -36 88h-2q-5 -41 -14 -95l-74 -412q42 0 77 -8l-8 -50h-222z" />
    <glyph glyph-name="O" unicode="O" horiz-adv-x="722" 
d="M334 -12q-129 0 -204.5 84t-75.5 203q0 100 44 191.5t129 151.5t191 60q136 0 208 -83t72 -207q0 -100 -43 -190.5t-128 -150t-193 -59.5zM337 51q84 0 149.5 49.5t98.5 126t33 162.5q0 95 -53 160.5t-151 65.5q-126 0 -203 -101.5t-77 -237.5q0 -96 55 -160.5t148 -64.5
z" />
    <glyph glyph-name="P" unicode="P" horiz-adv-x="550" 
d="M-6 0l8 50q40 8 81 8l98 550q-37 0 -77 8l9 50h239q95 0 150.5 -43t55.5 -123q0 -108 -76.5 -168.5t-199.5 -60.5h-83l-39 -213q42 0 77 -8l-8 -50h-235zM210 331h79q93 0 140.5 43t47.5 117q0 115 -138 115h-81z" />
    <glyph glyph-name="Q" unicode="Q" horiz-adv-x="722" 
d="M493 -162q-78 0 -139 39t-114 125q-87 27 -136.5 102.5t-49.5 170.5q0 100 44 191.5t129 151.5t191 60q136 0 208 -83t72 -207q0 -98 -42 -187.5t-124.5 -150t-187.5 -62.5q35 -48 70 -67t86 -19q64 0 118 35l27 -58q-60 -41 -152 -41zM338 53q126 0 203 101t77 235
q0 95 -54 159.5t-151 64.5q-84 0 -149 -49t-97.5 -124.5t-32.5 -163.5q0 -95 55.5 -159t148.5 -64z" />
    <glyph glyph-name="R" unicode="R" horiz-adv-x="598" 
d="M503 -8q-37 0 -59.5 14t-40.5 50l-71 145q-29 59 -54.5 83.5t-62.5 24.5h-10l-45 -251q42 0 77 -8l-8 -50h-235l8 50q40 8 81 8l98 550q-37 0 -77 8l9 50h253q88 0 137.5 -39.5t49.5 -111.5q0 -93 -63.5 -144.5t-167.5 -55.5v-2q40 -13 77 -83l68 -136q14 -26 31.5 -35.5
t47.5 -9.5h8q5 0 8 1l-8 -50q-21 -8 -51 -8zM215 366h100q78 0 118.5 40t40.5 104q0 96 -123 96h-93z" />
    <glyph glyph-name="S" unicode="S" horiz-adv-x="474" 
d="M190 -12q-64 0 -113 18t-73 42l26 144h63q0 -24 -13 -115q46 -28 118 -28q64 0 106 36t42 88q0 34 -16 61t-36 41t-54 32q-30 16 -41.5 22t-35.5 24t-34 34t-19.5 42.5t-9.5 59.5q0 81 61 135t155 54q105 0 160 -41l-27 -151h-63q0 24 13 115q-39 16 -90 16
q-55 0 -93.5 -30.5t-38.5 -77.5q0 -34 16 -61t36 -41t54 -32q29 -15 41 -22t36 -24.5t34 -33.5t19.5 -43t9.5 -59q0 -89 -63.5 -147t-169.5 -58z" />
    <glyph glyph-name="T" unicode="T" horiz-adv-x="602" 
d="M141 0l8 50q40 8 81 8l98 548h-165q-10 -68 -28 -112h-63l31 172h551l-31 -172h-63q0 46 11 112h-166l-98 -548q42 0 77 -8l-8 -50h-235z" />
    <glyph glyph-name="U" unicode="U" horiz-adv-x="717" 
d="M330 -12q-109 0 -165.5 53.5t-56.5 146.5q0 30 6 61l63 359q-37 0 -77 8l9 50h234l-9 -50q-40 -8 -81 -8l-61 -349q-19 -106 16 -156.5t128 -50.5q90 0 139.5 50t67.5 152l62 354q-37 0 -77 8l9 50h222l-9 -50q-40 -8 -81 -8l-65 -367q-23 -124 -86 -188.5t-188 -64.5z
" />
    <glyph glyph-name="V" unicode="V" horiz-adv-x="652" 
d="M262 0l-124 608q-38 0 -78 8l9 50h234l-9 -50q-32 -6 -79 -8l79 -401q11 -56 19 -119h2q43 96 55 119l205 401q-51 2 -78 8l9 50h227l-9 -50q-28 -6 -71 -8l-318 -608h-73z" />
    <glyph glyph-name="W" unicode="W" horiz-adv-x="908" 
d="M191 0l-59 608q-36 0 -76 8l9 50h237l-9 -50q-24 -6 -85 -8l32 -355q9 -97 10 -141h2q9 26 58 139l183 415h83l49 -431q6 -44 12 -123h2q14 41 50 125l154 371q-61 2 -84 8l9 50h226l-9 -50q-28 -6 -69 -8l-264 -608h-72l-49 422q-9 79 -15 150h-2q-22 -56 -64 -150
l-190 -422h-69z" />
    <glyph glyph-name="X" unicode="X" horiz-adv-x="601" 
d="M-26 0l8 50q33 7 70 8l223 290l-114 260q-35 0 -70 8l9 50h225l-9 -50q-22 -5 -76 -7l88 -210l153 210q-55 2 -76 7l9 50h225l-9 -50q-28 -6 -69 -8l-204 -265l125 -285q46 -2 72 -8l-8 -50h-227l8 50q6 1 18 2t29.5 2.5t28.5 2.5l-99 235l-172 -235q11 -1 28.5 -2.5
t29.5 -2.5t17 -2l-8 -50h-225z" />
    <glyph glyph-name="Y" unicode="Y" horiz-adv-x="595" 
d="M143 0l8 50q40 8 81 8l35 193l-123 357q-39 0 -79 8l9 50h233l-9 -50q-7 -1 -18 -2.5t-28 -3t-26 -2.5l93 -288h1l191 288q-68 8 -70 8l9 50h225l-9 -50q-40 -8 -78 -8l-244 -356l-35 -194q42 0 77 -8l-8 -50h-235z" />
    <glyph glyph-name="Z" unicode="Z" horiz-adv-x="543" 
d="M-4 0l10 55l447 547h-261q-11 -49 -27 -108h-64l31 172h430l-10 -51l-452 -551h294q20 89 28 109h64l-31 -173h-459z" />
    <glyph glyph-name="bracketleft" unicode="[" horiz-adv-x="301" 
d="M9 -161l153 881h197l-10 -56h-128l-133 -769h128l-10 -56h-197z" />
    <glyph glyph-name="backslash" unicode="\" horiz-adv-x="371" 
d="M264 -161l-163 881h63l163 -881h-63z" />
    <glyph glyph-name="bracketright" unicode="]" horiz-adv-x="301" 
d="M-46 -161l10 56h127l134 769h-128l10 56h197l-153 -881h-197z" />
    <glyph glyph-name="underscore" unicode="_" horiz-adv-x="387" 
d="M-73 -159l11 61h391l-11 -61h-391z" />
    <glyph glyph-name="grave" unicode="`" horiz-adv-x="500" 
d="M273 540l-106 126h97l71 -126h-62z" />
    <glyph glyph-name="a" unicode="a" horiz-adv-x="506" 
d="M148 -12q-56 0 -86 40t-30 107q0 92 31 172t97.5 132.5t155.5 52.5q81 0 135 -19l-48 -264q-11 -58 -24 -151q43 0 78 -8l-9 -50h-144q11 80 28 151h-2q-83 -163 -182 -163zM165 50q42 0 85.5 52t73 125t40.5 145l8 52q-25 9 -70 9q-90 0 -143.5 -85t-53.5 -202
q0 -96 60 -96z" />
    <glyph glyph-name="b" unicode="b" horiz-adv-x="502" 
d="M188 -12q-87 0 -144 19l119 657q-55 5 -80 5l9 50q63 7 157 7l-19 -80l-31 -168q-13 -69 -34 -148h2q41 76 83.5 119t105.5 43q57 0 85.5 -43.5t28.5 -110.5q0 -91 -33 -170t-98.5 -129.5t-150.5 -50.5zM194 47q93 0 148 83t55 201q0 99 -58 99q-45 0 -89.5 -54
t-73.5 -126.5t-42 -143.5l-10 -51q24 -8 70 -8z" />
    <glyph glyph-name="c" unicode="c" horiz-adv-x="432" 
d="M192 -12q-74 0 -117 49t-43 137q0 134 80 226t183 92q71 0 115 -33l-24 -132h-57q0 35 10 99q-26 8 -52 8q-70 0 -126 -71.5t-56 -180.5q0 -66 25 -100t68 -34q64 0 121 57l40 -45q-72 -72 -167 -72z" />
    <glyph glyph-name="d" unicode="d" horiz-adv-x="513" 
d="M147 -12q-59 0 -87 43t-28 111q0 143 80 246.5t205 103.5q40 0 72 -8l33 180q-55 5 -80 5l9 50q63 7 157 7l-19 -80l-79 -437q-18 -97 -24 -151q43 0 78 -8l-9 -50h-144q11 84 27 149h-2q-86 -161 -189 -161zM160 50q46 0 91.5 51t76 123.5t42.5 147.5l8 51
q-28 10 -76 10q-88 0 -142.5 -84.5t-54.5 -196.5q0 -102 55 -102z" />
    <glyph glyph-name="e" unicode="e" horiz-adv-x="441" 
d="M190 -12q-77 0 -117.5 49.5t-40.5 123.5q0 136 77.5 233.5t183.5 97.5q56 0 90 -28t34 -81q0 -153 -312 -191v-22q0 -58 24 -90t70 -32q70 0 128 60l39 -46q-74 -74 -176 -74zM279 434q-55 0 -101.5 -54t-64.5 -136q103 13 166 45.5t63 86.5q0 58 -63 58z" />
    <glyph glyph-name="f" unicode="f" horiz-adv-x="303" 
d="M-58 -230q-46 0 -86 19l23 57q36 -15 68 -15q74 0 96 120l86 471h-84l10 58h84l15 80q32 172 183 172q67 0 116 -31l-32 -60q-42 25 -90 25q-50 0 -74.5 -30t-33.5 -86l-13 -70h119l-10 -58h-119l-85 -469q-18 -94 -57.5 -138.5t-115.5 -44.5z" />
    <glyph glyph-name="g" unicode="g" horiz-adv-x="502" 
d="M136 -229q-83 0 -145 49l38 55q57 -43 115 -43q129 0 160 169l8 43q12 61 25 102h-2q-34 -67 -83.5 -112.5t-106.5 -45.5t-84.5 43t-27.5 111q0 144 80 247t204 103q72 0 143 -17l-88 -476q-22 -121 -78 -174.5t-158 -53.5zM162 50q46 0 91.5 52t76 124.5t42.5 145.5
l8 52q-28 10 -77 10q-89 0 -143 -83.5t-54 -198.5q0 -102 56 -102z" />
    <glyph glyph-name="h" unicode="h" horiz-adv-x="546" 
d="M44 0l122 664q-55 5 -80 5l9 50q63 7 157 7l-19 -80l-30 -166q-13 -76 -32 -151h2q84 163 199 163q60 0 84.5 -44.5t10.5 -119.5l-50 -270q42 0 77 -8l-9 -50h-149l57 322q19 108 -44 108q-64 0 -128.5 -97.5t-96.5 -277.5l-10 -55h-70z" />
    <glyph glyph-name="i" unicode="i" horiz-adv-x="267" 
d="M55 0l77 424q-55 5 -80 5l9 50q63 7 157 7l-18 -79l-64 -349q42 0 77 -8l-9 -50h-149zM200 572q-21 0 -37 15.5t-16 37.5t16 37.5t37 15.5q22 0 37.5 -15.5t15.5 -37.5t-15.5 -37.5t-37.5 -15.5z" />
    <glyph glyph-name="j" unicode="j" horiz-adv-x="256" 
d="M-64 -230q-36 0 -70 13l26 58q17 -10 50 -10q48 0 71.5 32.5t34.5 97.5l84 463q-55 5 -80 5l9 50q63 7 157 7l-18 -79l-82 -451q-8 -43 -19 -73.5t-31 -58t-53 -41t-79 -13.5zM200 572q-21 0 -37 15.5t-16 37.5t16 37.5t37 15.5q22 0 37.5 -15.5t15.5 -37.5t-15.5 -37.5
t-37.5 -15.5z" />
    <glyph glyph-name="k" unicode="k" horiz-adv-x="474" 
d="M45 0l115 664q-53 5 -80 5l9 50q63 7 157 7l-18 -79l-112 -647h-71zM325 0l-154 268l220 212h89l-231 -216l119 -206q43 0 78 -8l-9 -50h-112z" />
    <glyph glyph-name="l" unicode="l" horiz-adv-x="255" 
d="M43 0l120 664q-55 5 -80 5l9 50q63 7 157 7l-18 -79l-107 -589q42 0 77 -8l-9 -50h-149z" />
    <glyph glyph-name="m" unicode="m" horiz-adv-x="835" 
d="M54 0l77 423q-50 6 -80 6l9 50q63 7 154 7l-16 -75q-2 -8 -9.5 -41t-11.5 -46h2q83 168 194 168q51 0 74 -30.5t23 -78.5q0 -24 -5 -51h2q21 35 36 57.5t39.5 49t54.5 40t65 13.5q60 0 83.5 -45.5t10.5 -119.5l-50 -269q42 0 77 -8l-9 -50h-149l55 308q24 122 -41 122
q-67 0 -128.5 -99.5t-92.5 -275.5l-10 -55h-69l56 308q20 122 -45 122q-64 0 -124.5 -98.5t-92.5 -276.5l-10 -55h-69z" />
    <glyph glyph-name="n" unicode="n" horiz-adv-x="556" 
d="M55 0l77 424q-53 5 -80 5l9 50q63 7 154 7l-18 -79l-19 -83h2q85 168 202 168q60 0 84.5 -44.5t10.5 -119.5l-50 -270q42 0 77 -8l-9 -50h-149l57 322q19 108 -44 108t-128 -98t-97 -277l-10 -55h-69z" />
    <glyph glyph-name="o" unicode="o" horiz-adv-x="478" 
d="M200 -12q-85 0 -127.5 59.5t-42.5 139.5q0 116 72.5 210.5t174.5 94.5q83 0 127 -57t44 -139q0 -122 -72.5 -215t-175.5 -93zM207 46q71 0 118.5 73.5t47.5 164.5q0 150 -100 150q-73 0 -121.5 -75t-48.5 -170q0 -66 26 -104.5t78 -38.5z" />
    <glyph glyph-name="p" unicode="p" horiz-adv-x="515" 
d="M-63 -218l9 50q40 8 79 8l106 583q-66 6 -80 6l9 50q63 7 155 7l-18 -79l-19 -77h2q37 73 81 117.5t107 44.5q56 0 85.5 -43.5t29.5 -110.5q0 -91 -33 -170t-98.5 -129.5t-150.5 -50.5q-54 0 -75 8l-29 -156q42 0 77 -8l-9 -50h-228zM207 45q93 0 148 84.5t55 201.5
q0 44 -15 71.5t-44 27.5q-45 0 -90 -54t-74 -126t-42 -143l-9 -54q24 -8 71 -8z" />
    <glyph glyph-name="q" unicode="q" horiz-adv-x="501" 
d="M183 -218l9 50q40 8 80 8l31 162l7 35l8 38q9 46 18 71h-2q-34 -67 -83.5 -112.5t-106.5 -45.5t-84.5 43t-27.5 111q0 144 80 247t204 103q72 0 143 -17l-118 -635q43 0 78 -8l-9 -50h-227zM161 50q46 0 91.5 52t76 124.5t42.5 145.5l8 52q-28 10 -77 10
q-89 0 -143 -83.5t-54 -198.5q0 -102 56 -102z" />
    <glyph glyph-name="r" unicode="r" horiz-adv-x="377" 
d="M55 0l77 424q-53 5 -80 5l9 50q63 7 154 7l-18 -79q-16 -72 -20 -86h2q31 68 77.5 119.5t96.5 51.5q32 0 49 -9l-30 -68q-11 4 -28 4q-64 0 -121.5 -97t-88.5 -267l-10 -55h-69z" />
    <glyph glyph-name="s" unicode="s" horiz-adv-x="410" 
d="M166 -12q-99 0 -145 40l22 122h57q0 -40 -8 -90q34 -14 81 -14q42 0 68 22t26 58q0 17 -6 31t-20 26t-23.5 18.5t-30.5 18.5q-45 25 -71 55t-26 81q0 60 44.5 98t118.5 38q88 0 130 -32l-23 -127h-57v15q0 27 8 75q-27 11 -61 11q-40 0 -64.5 -20.5t-24.5 -51.5
q0 -17 6 -31t20 -26t23.5 -18.5t30.5 -18.5q20 -13 28.5 -18.5t25 -19t23.5 -25.5t13.5 -31.5t6.5 -41.5q0 -62 -45.5 -103t-126.5 -41z" />
    <glyph glyph-name="t" unicode="t" horiz-adv-x="339" 
d="M163 -12q-59 0 -79 33t-8 99l56 302h-84l10 58h85l25 135l74 18l-28 -153h119l-10 -58h-119l-53 -286q-10 -39 -6.5 -63t28.5 -24q17 0 36.5 9.5t27.5 15.5t27 22l36 -48q-68 -60 -137 -60z" />
    <glyph glyph-name="u" unicode="u" horiz-adv-x="555" 
d="M174 -12q-60 0 -84.5 44t-10.5 120l49 272q-53 5 -79 5l9 50q63 7 152 7l-58 -327q-19 -109 45 -109q62 0 126.5 94t94.5 259l4 21q-53 5 -82 5l9 50q63 7 153 7l-50 -277q-12 -66 -24 -151q43 0 78 -8l-9 -50h-144q12 92 28 160h-2q-18 -34 -33.5 -57.5t-41.5 -53
t-59 -45.5t-71 -16z" />
    <glyph glyph-name="v" unicode="v" horiz-adv-x="475" 
d="M163 0l-57 422q-61 7 -80 7l9 50q63 7 133 7l40 -308q4 -39 6 -85h2l207 387h74l-273 -480h-61z" />
    <glyph glyph-name="w" unicode="w" horiz-adv-x="730" 
d="M150 0l-48 423q-66 6 -78 6l9 50q63 7 134 7l28 -285q2 -19 5 -101h2l189 380h71l20 -279q3 -36 3 -98h2l193 377h72l-261 -480h-58l-27 382h-2l-194 -382h-60z" />
    <glyph glyph-name="x" unicode="x" horiz-adv-x="447" 
d="M-16 0l209 250l-84 172q-37 0 -72 8l9 50h113l79 -175l140 175h79l-193 -232l91 -190q44 -2 72 -8l-8 -50h-114l-87 193l-155 -193h-79z" />
    <glyph glyph-name="y" unicode="y" horiz-adv-x="486" 
d="M20 -220q-51 0 -82 17l30 59q24 -11 59 -11q40 0 75.5 29t80.5 107l-86 441q-61 7 -81 7l9 50q63 7 132 7l66 -350q4 -21 7 -49t3 -31h2q12 36 31 78l154 346h76l-176 -368q-47 -98 -77 -152t-66 -99.5t-72.5 -63t-84.5 -17.5z" />
    <glyph glyph-name="z" unicode="z" horiz-adv-x="461" 
d="M12 0l8 46l329 377h-189q-10 -60 -24 -91h-57l26 148h344l-8 -49l-329 -374h213q10 60 24 91h57l-27 -148h-367z" />
    <glyph glyph-name="braceleft" unicode="{" horiz-adv-x="349" 
d="M255 -161h-79q-44 0 -72.5 31.5t-19.5 84.5l35 193q9 52 -13.5 80.5t-76.5 29.5l10 56q109 0 127 108l33 191q18 107 127 107h81l-10 -57h-65q-31 0 -46.5 -19t-22.5 -60l-30 -175q-11 -58 -40 -87t-79 -39v-2q91 -26 75 -123l-32 -187q-7 -41 1.5 -58t40.5 -17h66z" />
    <glyph glyph-name="bar" unicode="|" horiz-adv-x="243" 
d="M7 -250l176 1000h57l-176 -1000h-57z" />
    <glyph glyph-name="braceright" unicode="}" horiz-adv-x="349" 
d="M-45 -161l10 57h65q33 0 47.5 19.5t21.5 59.5l31 183q16 98 120 128v2q-92 25 -75 124l30 176q7 42 -1 58.5t-41 16.5h-66l10 57h84q44 0 69.5 -30t16.5 -85l-32 -183q-8 -49 15.5 -78.5t74.5 -31.5l-10 -56q-50 0 -84 -27.5t-43 -80.5l-35 -202q-9 -54 -43 -80.5
t-80 -26.5h-85z" />
    <glyph glyph-name="uni00A0" unicode="&#xa0;" horiz-adv-x="220" 
 />
    <glyph glyph-name="exclamdown" unicode="&#xa1;" horiz-adv-x="248" 
d="M151 378q-23 0 -40 16.5t-17 39.5q0 24 17 41t40 17q25 0 42 -17t17 -41q0 -23 -17 -39.5t-42 -16.5zM8 -183l98 467h56l-66 -467h-88z" />
    <glyph glyph-name="sterling" unicode="&#xa3;" horiz-adv-x="494" 
d="M-8 0l9 49q104 56 135 186q8 30 9 63h-95l10 57h87q2 89 11 140q32 183 195 183q93 0 150 -42l-27 -151h-63q0 24 13 115q-35 17 -80 17q-47 0 -74 -30.5t-39 -96.5q-11 -63 -13 -135h147l-10 -57h-139l-9 -63q-26 -118 -109 -175h247l6 32q11 50 22 79h60l-30 -171h-413
z" />
    <glyph glyph-name="yen" unicode="&#xa5;" horiz-adv-x="586" 
d="M137 0l8 50q40 8 81 8l12 70h-161l11 58h161l12 65l-2 7h-159l11 58h128l-101 292q-39 0 -79 8l9 50h233l-9 -50q-7 -1 -18 -2.5t-28 -3t-26 -2.5l93 -288h1l191 288q-68 8 -70 8l9 50h225l-9 -50q-40 -8 -78 -8l-200 -292h127l-11 -58h-156l-4 -6l-12 -66h160l-11 -58
h-160l-12 -70q42 0 77 -8l-8 -50h-235z" />
    <glyph glyph-name="section" unicode="&#xa7;" horiz-adv-x="409" 
d="M117 -152q-70 0 -114 35l38 54q33 -25 79 -25q47 0 71.5 27t24.5 70q0 11 -2 21.5t-7.5 23t-9.5 21.5t-14 23.5t-14.5 22t-17 25l-17.5 24.5q-36 51 -55.5 92.5t-19.5 86.5q0 46 22.5 78t68.5 60q-18 39 -18 76q0 81 52.5 125t119.5 44q72 0 117 -31l-39 -57
q-34 25 -83 25q-46 0 -70.5 -28.5t-24.5 -74.5q0 -20 11 -45t22.5 -42.5t35.5 -49.5q30 -42 44 -62.5t29.5 -58.5t15.5 -71q0 -48 -23 -81.5t-68 -64.5q17 -37 17 -72q0 -83 -49 -127t-122 -44zM243 141q49 35 49 89q0 49 -81 161q-12 16 -34 48q-46 -28 -46 -85
q0 -47 53 -127q6 -9 27.5 -39.5t31.5 -46.5z" />
    <glyph glyph-name="dieresis" unicode="&#xa8;" horiz-adv-x="500" 
d="M219 541q-21 0 -35.5 14.5t-14.5 36.5q0 21 14.5 35.5t35.5 14.5q23 0 37 -14.5t14 -35.5q0 -22 -14.5 -36.5t-36.5 -14.5zM402 541q-21 0 -35.5 14.5t-14.5 36.5q0 21 14.5 35.5t35.5 14.5q23 0 37 -14.5t14 -35.5q0 -22 -14.5 -36.5t-36.5 -14.5z" />
    <glyph glyph-name="copyright" unicode="&#xa9;" horiz-adv-x="825" 
d="M432 -14q-153 0 -262.5 109.5t-109.5 263.5t109.5 263.5t262.5 109.5q154 0 263.5 -109.5t109.5 -263.5t-109.5 -263.5t-263.5 -109.5zM432 36q136 0 226.5 91.5t90.5 231.5q0 139 -90.5 231t-226.5 92t-226 -92t-90 -231q0 -140 90 -231.5t226 -91.5zM440 127
q-98 0 -163.5 68t-65.5 164q0 98 66 165t163 67q80 0 141 -50v-123h-48q-8 40 -8 90q-32 24 -86 24q-74 0 -115 -52t-41 -119q0 -73 46.5 -124t114.5 -51q63 0 116 44l31 -51q-64 -52 -151 -52z" />
    <glyph glyph-name="guillemotleft" unicode="&#xab;" horiz-adv-x="450" 
d="M130 56l-100 189l167 190h80l-171 -196l96 -183h-72zM308 56l-100 189l167 190h80l-171 -196l96 -183h-72z" />
    <glyph glyph-name="uni00AD" unicode="&#xad;" horiz-adv-x="305" 
d="M53 255l11 64h201l-11 -64h-201z" />
    <glyph glyph-name="registered" unicode="&#xae;" horiz-adv-x="825" 
d="M432 -14q-153 0 -262.5 109.5t-109.5 263.5t109.5 263.5t262.5 109.5q154 0 263.5 -109.5t109.5 -263.5t-109.5 -263.5t-263.5 -109.5zM432 36q136 0 226.5 91.5t90.5 231.5q0 139 -90.5 231t-226.5 92t-226 -92t-90 -231q0 -140 90 -231.5t226 -91.5zM233 136v42
q24 6 64 6v356q-40 0 -64 6v42h211q66 0 102.5 -37t36.5 -90q0 -54 -37.5 -84t-82.5 -33v-1q24 -18 52 -58l36 -55q18 -27 31 -37t40 -10q11 0 14 1v-44q-22 -6 -45 -6q-32 0 -49.5 11t-38.5 43l-70 107q-18 26 -32 35t-39 9v-155q41 0 63 -6v-42h-192zM362 388h46
q48 0 76.5 15t28.5 58q0 73 -84 73h-67v-146z" />
    <glyph glyph-name="overscore" unicode="&#xaf;" horiz-adv-x="500" 
d="M172 574l11 61h271l-11 -61h-271z" />
    <glyph glyph-name="degree" unicode="&#xb0;" horiz-adv-x="339" 
d="M215 418q-52 0 -90 38.5t-38 91.5t38 91.5t90 38.5q54 0 91.5 -38t37.5 -92t-37.5 -92t-91.5 -38zM215 468q33 0 54 23t21 57q0 33 -21.5 56.5t-53.5 23.5t-53 -23.5t-21 -56.5t21 -56.5t53 -23.5z" />
    <glyph glyph-name="acute" unicode="&#xb4;" horiz-adv-x="500" 
d="M149 540l111 126h111l-152 -126h-70z" />
    <glyph glyph-name="mu" unicode="&#xb5;" horiz-adv-x="531" 
d="M12 -218l127 698h72l-59 -328q-18 -98 67 -98q66 0 143 88l61 338h72l-69 -382q-11 -53 -6 -98h-72q-2 19 -1 33q2 24 4 37q-12 -15 -26 -29q-53 -53 -125 -53q-52 0 -77 27h-1q-7 -62 -14 -104l-23 -129h-73z" />
    <glyph glyph-name="middot" unicode="&#xb7;" horiz-adv-x="235" 
d="M127 234q-26 0 -43.5 17.5t-17.5 42.5q0 24 17.5 41.5t43.5 17.5q24 0 41.5 -17.5t17.5 -41.5q0 -25 -17.5 -42.5t-41.5 -17.5z" />
    <glyph glyph-name="cedilla" unicode="&#xb8;" horiz-adv-x="500" 
d="M166 -219q-36 0 -66 11l15 41q21 -9 50 -9q50 0 50 39q0 47 -71 41l36 96h51l-25 -66q31 -5 50.5 -24t19.5 -49q0 -37 -31.5 -58.5t-78.5 -21.5z" />
    <glyph glyph-name="guillemotright" unicode="&#xbb;" horiz-adv-x="450" 
d="M-1 56l167 195l-96 184h72l100 -191l-163 -188h-80zM177 56l167 195l-96 184h72l100 -191l-163 -188h-80z" />
    <glyph glyph-name="questiondown" unicode="&#xbf;" horiz-adv-x="406" 
d="M165 -195q-81 0 -126 39.5t-45 99.5q0 38 13 70t39 57t48 41t57 36q19 11 30 18.5t26.5 20t22.5 27t7 30.5q0 22 -3 46h54q7 -26 7 -53q0 -47 -25.5 -77.5t-81.5 -62.5q-61 -35 -88.5 -65t-27.5 -81q0 -82 104 -82q39 0 85 20l21 -58q-52 -26 -117 -26zM271 378
q-23 0 -40 16.5t-17 39.5q0 24 17 41t40 17q25 0 42 -17t17 -41q0 -23 -17 -39.5t-42 -16.5z" />
    <glyph glyph-name="Agrave" unicode="&#xc0;" horiz-adv-x="654" 
d="M-38 0l8 50q22 5 59 7l341 609h72l105 -608q39 -1 65 -8l-8 -50h-212l8 50q28 6 69 8l-22 139h-268l-76 -139q42 -2 68 -8l-8 -50h-201zM214 259h222l-31 195q-9 45 -18 124h-2q-47 -96 -63 -124zM373 726l-106 126h97l71 -126h-62z" />
    <glyph glyph-name="Aacute" unicode="&#xc1;" horiz-adv-x="654" 
d="M-38 0l8 50q22 5 59 7l341 609h72l105 -608q39 -1 65 -8l-8 -50h-212l8 50q28 6 69 8l-22 139h-268l-76 -139q42 -2 68 -8l-8 -50h-201zM214 259h222l-31 195q-9 45 -18 124h-2q-47 -96 -63 -124zM376 726l111 126h111l-152 -126h-70z" />
    <glyph glyph-name="Acircumflex" unicode="&#xc2;" horiz-adv-x="654" 
d="M-38 0l8 50q22 5 59 7l341 609h72l105 -608q39 -1 65 -8l-8 -50h-212l8 50q28 6 69 8l-22 139h-268l-76 -139q42 -2 68 -8l-8 -50h-201zM214 259h222l-31 195q-9 45 -18 124h-2q-47 -96 -63 -124zM267 727l147 153h50l92 -153h-61l-65 89l-94 -89h-69z" />
    <glyph glyph-name="Atilde" unicode="&#xc3;" horiz-adv-x="654" 
d="M-38 0l8 50q22 5 59 7l341 609h72l105 -608q39 -1 65 -8l-8 -50h-212l8 50q28 6 69 8l-22 139h-268l-76 -139q42 -2 68 -8l-8 -50h-201zM214 259h222l-31 195q-9 45 -18 124h-2q-47 -96 -63 -124zM460 729q-25 0 -54 19.5t-47 19.5q-21 0 -53 -29l-30 35q44 58 95 58
q25 0 54 -19.5t47 -19.5q28 0 55 29l31 -34q-48 -59 -98 -59z" />
    <glyph glyph-name="Adieresis" unicode="&#xc4;" horiz-adv-x="654" 
d="M-38 0l8 50q22 5 59 7l341 609h72l105 -608q39 -1 65 -8l-8 -50h-212l8 50q28 6 69 8l-22 139h-268l-76 -139q42 -2 68 -8l-8 -50h-201zM214 259h222l-31 195q-9 45 -18 124h-2q-47 -96 -63 -124zM330 727q-21 0 -35.5 14.5t-14.5 36.5q0 21 14.5 35.5t35.5 14.5
q23 0 37 -14.5t14 -35.5q0 -22 -14.5 -36.5t-36.5 -14.5zM513 727q-21 0 -35.5 14.5t-14.5 36.5q0 21 14.5 35.5t35.5 14.5q23 0 37 -14.5t14 -35.5q0 -22 -14.5 -36.5t-36.5 -14.5z" />
    <glyph glyph-name="Aring" unicode="&#xc5;" horiz-adv-x="654" 
d="M-38 0l8 50q22 5 59 7l341 609h72l105 -608q39 -1 65 -8l-8 -50h-212l8 50q28 6 69 8l-22 139h-268l-76 -139q42 -2 68 -8l-8 -50h-201zM214 259h222l-31 195q-9 45 -18 124h-2q-47 -96 -63 -124zM430 731q-39 0 -66.5 26.5t-27.5 67.5t27.5 68.5t66.5 27.5t66.5 -27
t27.5 -68t-27.5 -68t-66.5 -27zM430 771q23 0 36 15.5t13 39.5q0 25 -13 40t-36 15t-36 -15t-13 -40q0 -24 13 -39.5t36 -15.5z" />
    <glyph glyph-name="AE" unicode="&#xc6;" horiz-adv-x="862" 
d="M-58 0l8 50q22 5 59 7l418 551q-43 2 -69 8l9 50h515l-29 -161h-63q0 38 9 101h-221l-42 -236h156q16 61 20 70h55l-36 -198h-55q-2 18 6 70h-156l-45 -252h226q9 61 26 101h64l-29 -161h-453l8 50q40 8 81 8l24 135h-234l-102 -135q41 -2 67 -8l-8 -50h-209zM238 251
h200l62 348h-1z" />
    <glyph glyph-name="Ccedilla" unicode="&#xc7;" horiz-adv-x="649" 
d="M335 -12q-133 0 -207 79t-74 200q0 116 56 211.5t146.5 147.5t193.5 52q125 0 193 -47l-27 -148h-63q0 26 12 110q-51 22 -126 22q-132 0 -218 -98.5t-86 -246.5q0 -96 52.5 -157.5t152.5 -61.5q91 0 155 34l7 30l8 35q7 36 14 51h63l-26 -146q-32 -28 -97.5 -47.5
t-128.5 -19.5zM294 -219q-36 0 -66 11l15 41q21 -9 50 -9q50 0 50 39q0 47 -71 41l36 96h51l-25 -66q31 -5 50.5 -24t19.5 -49q0 -37 -31.5 -58.5t-78.5 -21.5z" />
    <glyph glyph-name="Egrave" unicode="&#xc8;" horiz-adv-x="541" 
d="M-6 0l8 50q40 8 81 8l98 550q-37 0 -77 8l9 50h448l-29 -161h-63q0 38 9 101h-221l-42 -236h156q16 61 20 70h55l-36 -198h-55q-2 18 6 70h-156l-45 -252h226q9 60 26 101h64l-29 -161h-453zM321 726l-106 126h97l71 -126h-62z" />
    <glyph glyph-name="Eacute" unicode="&#xc9;" horiz-adv-x="541" 
d="M-6 0l8 50q40 8 81 8l98 550q-37 0 -77 8l9 50h448l-29 -161h-63q0 38 9 101h-221l-42 -236h156q16 61 20 70h55l-36 -198h-55q-2 18 6 70h-156l-45 -252h226q9 60 26 101h64l-29 -161h-453zM324 726l111 126h111l-152 -126h-70z" />
    <glyph glyph-name="Ecircumflex" unicode="&#xca;" horiz-adv-x="541" 
d="M-6 0l8 50q40 8 81 8l98 550q-37 0 -77 8l9 50h448l-29 -161h-63q0 38 9 101h-221l-42 -236h156q16 61 20 70h55l-36 -198h-55q-2 18 6 70h-156l-45 -252h226q9 60 26 101h64l-29 -161h-453zM215 727l147 153h50l92 -153h-61l-65 89l-94 -89h-69z" />
    <glyph glyph-name="Edieresis" unicode="&#xcb;" horiz-adv-x="541" 
d="M-6 0l8 50q40 8 81 8l98 550q-37 0 -77 8l9 50h448l-29 -161h-63q0 38 9 101h-221l-42 -236h156q16 61 20 70h55l-36 -198h-55q-2 18 6 70h-156l-45 -252h226q9 60 26 101h64l-29 -161h-453zM278 727q-21 0 -35.5 14.5t-14.5 36.5q0 21 14.5 35.5t35.5 14.5
q23 0 37 -14.5t14 -35.5q0 -22 -14.5 -36.5t-36.5 -14.5zM461 727q-21 0 -35.5 14.5t-14.5 36.5q0 21 14.5 35.5t35.5 14.5q23 0 37 -14.5t14 -35.5q0 -22 -14.5 -36.5t-36.5 -14.5z" />
    <glyph glyph-name="Igrave" unicode="&#xcc;" horiz-adv-x="307" 
d="M-6 0l8 50q40 8 81 8l98 550q-37 0 -77 8l9 50h235l-9 -50q-40 -8 -81 -8l-98 -550q42 0 77 -8l-8 -50h-235zM200 726l-106 126h97l71 -126h-62z" />
    <glyph glyph-name="Iacute" unicode="&#xcd;" horiz-adv-x="307" 
d="M-6 0l8 50q40 8 81 8l98 550q-37 0 -77 8l9 50h235l-9 -50q-40 -8 -81 -8l-98 -550q42 0 77 -8l-8 -50h-235zM202 726l111 126h111l-152 -126h-70z" />
    <glyph glyph-name="Icircumflex" unicode="&#xce;" horiz-adv-x="307" 
d="M-6 0l8 50q40 8 81 8l98 550q-37 0 -77 8l9 50h235l-9 -50q-40 -8 -81 -8l-98 -550q42 0 77 -8l-8 -50h-235zM94 727l147 153h50l92 -153h-61l-65 89l-94 -89h-69z" />
    <glyph glyph-name="Idieresis" unicode="&#xcf;" horiz-adv-x="307" 
d="M-6 0l8 50q40 8 81 8l98 550q-37 0 -77 8l9 50h235l-9 -50q-40 -8 -81 -8l-98 -550q42 0 77 -8l-8 -50h-235zM157 727q-21 0 -35.5 14.5t-14.5 36.5q0 21 14.5 35.5t35.5 14.5q23 0 37 -14.5t14 -35.5q0 -22 -14.5 -36.5t-36.5 -14.5zM340 727q-21 0 -35.5 14.5
t-14.5 36.5q0 21 14.5 35.5t35.5 14.5q23 0 37 -14.5t14 -35.5q0 -22 -14.5 -36.5t-36.5 -14.5z" />
    <glyph glyph-name="Eth" unicode="&#xd0;" horiz-adv-x="688" 
d="M2 0l8 50q40 8 81 8l45 256h-69l11 58h69l42 236q-37 0 -77 8l9 50h230q161 0 243 -68.5t82 -188.5q0 -81 -26.5 -153.5t-76.5 -130t-130.5 -91.5t-180.5 -34h-260zM169 60h105q148 0 234.5 98.5t86.5 245.5q0 103 -62 152.5t-191 49.5h-76l-42 -234h113l-11 -58h-112z
" />
    <glyph glyph-name="Ntilde" unicode="&#xd1;" horiz-adv-x="714" 
d="M-6 0l8 50q40 8 81 8l98 550q-37 0 -77 8l9 50h148l225 -464q24 -53 39 -97h2q6 54 15 104l70 399q-37 0 -77 8l9 50h222l-9 -50q-40 -8 -81 -8l-107 -608h-65l-231 477q-21 44 -36 88h-2q-5 -41 -14 -95l-74 -412q42 0 77 -8l-8 -50h-222zM495 729q-25 0 -54 19.5
t-47 19.5q-21 0 -53 -29l-30 35q43 58 95 58q25 0 54 -19.5t47 -19.5q28 0 55 29l31 -34q-48 -59 -98 -59z" />
    <glyph glyph-name="Ograve" unicode="&#xd2;" horiz-adv-x="722" 
d="M334 -12q-129 0 -204.5 84t-75.5 203q0 100 44 191.5t129 151.5t191 60q136 0 208 -83t72 -207q0 -100 -43 -190.5t-128 -150t-193 -59.5zM337 51q84 0 149.5 49.5t98.5 126t33 162.5q0 95 -53 160.5t-151 65.5q-126 0 -203 -101.5t-77 -237.5q0 -96 55 -160.5t148 -64.5
zM403 726l-106 126h97l71 -126h-62z" />
    <glyph glyph-name="Oacute" unicode="&#xd3;" horiz-adv-x="722" 
d="M334 -12q-129 0 -204.5 84t-75.5 203q0 100 44 191.5t129 151.5t191 60q136 0 208 -83t72 -207q0 -100 -43 -190.5t-128 -150t-193 -59.5zM337 51q84 0 149.5 49.5t98.5 126t33 162.5q0 95 -53 160.5t-151 65.5q-126 0 -203 -101.5t-77 -237.5q0 -96 55 -160.5t148 -64.5
zM406 726l111 126h111l-152 -126h-70z" />
    <glyph glyph-name="Ocircumflex" unicode="&#xd4;" horiz-adv-x="722" 
d="M334 -12q-129 0 -204.5 84t-75.5 203q0 100 44 191.5t129 151.5t191 60q136 0 208 -83t72 -207q0 -100 -43 -190.5t-128 -150t-193 -59.5zM337 51q84 0 149.5 49.5t98.5 126t33 162.5q0 95 -53 160.5t-151 65.5q-126 0 -203 -101.5t-77 -237.5q0 -96 55 -160.5t148 -64.5
zM297 727l147 153h50l92 -153h-61l-65 89l-94 -89h-69z" />
    <glyph glyph-name="Otilde" unicode="&#xd5;" horiz-adv-x="722" 
d="M334 -12q-129 0 -204.5 84t-75.5 203q0 100 44 191.5t129 151.5t191 60q136 0 208 -83t72 -207q0 -100 -43 -190.5t-128 -150t-193 -59.5zM337 51q84 0 149.5 49.5t98.5 126t33 162.5q0 95 -53 160.5t-151 65.5q-126 0 -203 -101.5t-77 -237.5q0 -96 55 -160.5t148 -64.5
zM490 729q-25 0 -54 19.5t-47 19.5q-21 0 -53 -29l-30 35q44 58 95 58q25 0 54 -19.5t47 -19.5q28 0 55 29l31 -34q-48 -59 -98 -59z" />
    <glyph glyph-name="Odieresis" unicode="&#xd6;" horiz-adv-x="722" 
d="M334 -12q-129 0 -204.5 84t-75.5 203q0 100 44 191.5t129 151.5t191 60q136 0 208 -83t72 -207q0 -100 -43 -190.5t-128 -150t-193 -59.5zM337 51q84 0 149.5 49.5t98.5 126t33 162.5q0 95 -53 160.5t-151 65.5q-126 0 -203 -101.5t-77 -237.5q0 -96 55 -160.5t148 -64.5
zM360 727q-21 0 -35.5 14.5t-14.5 36.5q0 21 14.5 35.5t35.5 14.5q23 0 37 -14.5t14 -35.5q0 -22 -14.5 -36.5t-36.5 -14.5zM543 727q-21 0 -35.5 14.5t-14.5 36.5q0 21 14.5 35.5t35.5 14.5q23 0 37 -14.5t14 -35.5q0 -22 -14.5 -36.5t-36.5 -14.5z" />
    <glyph glyph-name="multiply" unicode="&#xd7;" horiz-adv-x="405" 
d="M41 90l-38 47l154 132l-105 129l44 37l106 -128l154 130l38 -47l-154 -130l113 -136l-45 -37l-113 135z" />
    <glyph glyph-name="Oslash" unicode="&#xd8;" horiz-adv-x="722" 
d="M69 -65l-37 31l94 111q-72 81 -72 198q0 100 44 191.5t129 151.5t191 60q102 0 173 -52l81 95l38 -33l-82 -96q70 -82 70 -204q0 -100 -43 -190.5t-128 -150t-193 -59.5q-102 0 -173 55zM337 51q84 0 149.5 49.5t98.5 126t33 162.5q0 84 -40 143l-371 -435
q52 -46 130 -46zM174 134l370 436q-51 45 -130 45q-126 0 -203 -101.5t-77 -237.5q0 -83 40 -142z" />
    <glyph glyph-name="Ugrave" unicode="&#xd9;" horiz-adv-x="717" 
d="M330 -12q-109 0 -165.5 53.5t-56.5 146.5q0 30 6 61l63 359q-37 0 -77 8l9 50h234l-9 -50q-40 -8 -81 -8l-61 -349q-19 -106 16 -156.5t128 -50.5q90 0 139.5 50t67.5 152l62 354q-37 0 -77 8l9 50h222l-9 -50q-40 -8 -81 -8l-65 -367q-23 -124 -86 -188.5t-188 -64.5z
M403 726l-106 126h97l71 -126h-62z" />
    <glyph glyph-name="Uacute" unicode="&#xda;" horiz-adv-x="717" 
d="M330 -12q-109 0 -165.5 53.5t-56.5 146.5q0 30 6 61l63 359q-37 0 -77 8l9 50h234l-9 -50q-40 -8 -81 -8l-61 -349q-19 -106 16 -156.5t128 -50.5q90 0 139.5 50t67.5 152l62 354q-37 0 -77 8l9 50h222l-9 -50q-40 -8 -81 -8l-65 -367q-23 -124 -86 -188.5t-188 -64.5z
M406 726l111 126h111l-152 -126h-70z" />
    <glyph glyph-name="Ucircumflex" unicode="&#xdb;" horiz-adv-x="717" 
d="M330 -12q-109 0 -165.5 53.5t-56.5 146.5q0 30 6 61l63 359q-37 0 -77 8l9 50h234l-9 -50q-40 -8 -81 -8l-61 -349q-19 -106 16 -156.5t128 -50.5q90 0 139.5 50t67.5 152l62 354q-37 0 -77 8l9 50h222l-9 -50q-40 -8 -81 -8l-65 -367q-23 -124 -86 -188.5t-188 -64.5z
M297 727l147 153h50l92 -153h-61l-65 89l-94 -89h-69z" />
    <glyph glyph-name="Udieresis" unicode="&#xdc;" horiz-adv-x="717" 
d="M330 -12q-109 0 -165.5 53.5t-56.5 146.5q0 30 6 61l63 359q-37 0 -77 8l9 50h234l-9 -50q-40 -8 -81 -8l-61 -349q-19 -106 16 -156.5t128 -50.5q90 0 139.5 50t67.5 152l62 354q-37 0 -77 8l9 50h222l-9 -50q-40 -8 -81 -8l-65 -367q-23 -124 -86 -188.5t-188 -64.5z
M360 727q-21 0 -35.5 14.5t-14.5 36.5q0 21 14.5 35.5t35.5 14.5q23 0 37 -14.5t14 -35.5q0 -22 -14.5 -36.5t-36.5 -14.5zM543 727q-21 0 -35.5 14.5t-14.5 36.5q0 21 14.5 35.5t35.5 14.5q23 0 37 -14.5t14 -35.5q0 -22 -14.5 -36.5t-36.5 -14.5z" />
    <glyph glyph-name="Yacute" unicode="&#xdd;" horiz-adv-x="595" 
d="M143 0l8 50q40 8 81 8l35 193l-123 357q-39 0 -79 8l9 50h233l-9 -50q-7 -1 -18 -2.5t-28 -3t-26 -2.5l93 -288h1l191 288q-68 8 -70 8l9 50h225l-9 -50q-40 -8 -78 -8l-244 -356l-35 -194q42 0 77 -8l-8 -50h-235zM347 726l111 126h111l-152 -126h-70z" />
    <glyph glyph-name="Thorn" unicode="&#xde;" horiz-adv-x="550" 
d="M-6 0l8 50q40 8 81 8l98 550q-37 0 -77 8l9 50h156l-19 -106h83q95 0 150.5 -43t55.5 -123q0 -108 -76.5 -168.5t-199.5 -60.5h-83l-20 -107q42 0 77 -8l-8 -50h-235zM191 225h79q93 0 140.5 43t47.5 117q0 115 -138 115h-81z" />
    <glyph glyph-name="germandbls" unicode="&#xdf;" horiz-adv-x="530" 
d="M-58 -230q-46 0 -86 19l23 57q36 -15 68 -15q75 0 97 124l85 467h-84l10 58h84l8 42q37 210 237 210q70 0 108.5 -38t38.5 -97t-28.5 -97t-76.5 -71q-5 -3 -17.5 -11.5t-18 -12t-15.5 -11t-14.5 -11.5t-11.5 -11t-10 -13t-5.5 -13t-2.5 -14q0 -8 3.5 -15t12 -14.5
t15.5 -13t21 -15t21 -14.5q39 -28 61.5 -56t22.5 -68q0 -66 -44.5 -107t-129.5 -41q-72 0 -123 33l33 55q40 -28 94 -28q48 0 74 23t26 63q0 17 -11.5 33.5t-24 26.5t-35.5 26q-2 1 -12 8.5t-12.5 9.5t-11.5 9t-12 9.5t-10 9.5t-9.5 11t-7 11t-6 12.5t-3 12.5t-1.5 14
q0 9 2 17.5t4 15.5t8 15t9.5 13.5t12 13.5t12.5 12t15 12t14.5 10.5t16 11.5t15.5 11q42 29 65 58t23 69q0 86 -86 86q-127 0 -155 -150l-103 -569q-16 -93 -56.5 -138t-116.5 -45z" />
    <glyph glyph-name="agrave" unicode="&#xe0;" horiz-adv-x="506" 
d="M148 -12q-56 0 -86 40t-30 107q0 92 31 172t97.5 132.5t155.5 52.5q81 0 135 -19l-48 -264q-11 -58 -24 -151q43 0 78 -8l-9 -50h-144q11 80 28 151h-2q-83 -163 -182 -163zM165 50q42 0 85.5 52t73 125t40.5 145l8 52q-25 9 -70 9q-90 0 -143.5 -85t-53.5 -202
q0 -96 60 -96zM257 540l-106 126h97l71 -126h-62z" />
    <glyph glyph-name="aacute" unicode="&#xe1;" horiz-adv-x="506" 
d="M148 -12q-56 0 -86 40t-30 107q0 92 31 172t97.5 132.5t155.5 52.5q81 0 135 -19l-48 -264q-11 -58 -24 -151q43 0 78 -8l-9 -50h-144q11 80 28 151h-2q-83 -163 -182 -163zM165 50q42 0 85.5 52t73 125t40.5 145l8 52q-25 9 -70 9q-90 0 -143.5 -85t-53.5 -202
q0 -96 60 -96zM259 540l111 126h111l-152 -126h-70z" />
    <glyph glyph-name="acircumflex" unicode="&#xe2;" horiz-adv-x="506" 
d="M148 -12q-56 0 -86 40t-30 107q0 92 31 172t97.5 132.5t155.5 52.5q81 0 135 -19l-48 -264q-11 -58 -24 -151q43 0 78 -8l-9 -50h-144q11 80 28 151h-2q-83 -163 -182 -163zM165 50q42 0 85.5 52t73 125t40.5 145l8 52q-25 9 -70 9q-90 0 -143.5 -85t-53.5 -202
q0 -96 60 -96zM151 541l147 153h50l92 -153h-61l-65 89l-94 -89h-69z" />
    <glyph glyph-name="atilde" unicode="&#xe3;" horiz-adv-x="506" 
d="M148 -12q-56 0 -86 40t-30 107q0 92 31 172t97.5 132.5t155.5 52.5q81 0 135 -19l-48 -264q-11 -58 -24 -151q43 0 78 -8l-9 -50h-144q11 80 28 151h-2q-83 -163 -182 -163zM165 50q42 0 85.5 52t73 125t40.5 145l8 52q-25 9 -70 9q-90 0 -143.5 -85t-53.5 -202
q0 -96 60 -96zM344 543q-25 0 -54 19.5t-47 19.5q-21 0 -53 -29l-30 35q44 58 95 58q25 0 54 -19.5t47 -19.5q28 0 55 29l31 -34q-48 -59 -98 -59z" />
    <glyph glyph-name="adieresis" unicode="&#xe4;" horiz-adv-x="506" 
d="M148 -12q-56 0 -86 40t-30 107q0 92 31 172t97.5 132.5t155.5 52.5q81 0 135 -19l-48 -264q-11 -58 -24 -151q43 0 78 -8l-9 -50h-144q11 80 28 151h-2q-83 -163 -182 -163zM165 50q42 0 85.5 52t73 125t40.5 145l8 52q-25 9 -70 9q-90 0 -143.5 -85t-53.5 -202
q0 -96 60 -96zM214 541q-21 0 -35.5 14.5t-14.5 36.5q0 21 14.5 35.5t35.5 14.5q23 0 37 -14.5t14 -35.5q0 -22 -14.5 -36.5t-36.5 -14.5zM397 541q-21 0 -35.5 14.5t-14.5 36.5q0 21 14.5 35.5t35.5 14.5q23 0 37 -14.5t14 -35.5q0 -22 -14.5 -36.5t-36.5 -14.5z" />
    <glyph glyph-name="aring" unicode="&#xe5;" horiz-adv-x="506" 
d="M148 -12q-56 0 -86 40t-30 107q0 92 31 172t97.5 132.5t155.5 52.5q81 0 135 -19l-48 -264q-11 -58 -24 -151q43 0 78 -8l-9 -50h-144q11 80 28 151h-2q-83 -163 -182 -163zM165 50q42 0 85.5 52t73 125t40.5 145l8 52q-25 9 -70 9q-90 0 -143.5 -85t-53.5 -202
q0 -96 60 -96zM314 545q-39 0 -66.5 26.5t-27.5 67.5t27.5 68.5t66.5 27.5t66.5 -27t27.5 -68t-27.5 -68t-66.5 -27zM314 585q23 0 36 15.5t13 39.5q0 25 -13 40t-36 15t-36 -15t-13 -40q0 -24 13 -39.5t36 -15.5z" />
    <glyph glyph-name="ae" unicode="&#xe6;" horiz-adv-x="700" 
d="M136 -12q-59 0 -95.5 33.5t-36.5 84.5q0 56 34.5 92.5t86.5 51.5q68 20 163 20h18q19 55 19 94q0 67 -79 67t-138 -49l-34 44q80 66 181 66q100 0 132 -74h2q71 74 160 74q56 0 91.5 -28t35.5 -81q0 -57 -43 -96t-110 -55.5t-155 -16.5h-1q-3 -21 -3 -45q0 -58 24 -90
t70 -32q70 0 128 60l39 -46q-74 -74 -176 -74t-140 84q-74 -84 -173 -84zM148 48q85 0 146 76q-3 18 -3 37q0 30 4 55h-12q-91 0 -137 -19q-63 -25 -63 -87q0 -30 17.5 -46t47.5 -16zM378 269h2q102 0 161.5 27.5t59.5 79.5q0 58 -63 58q-49 0 -94.5 -46.5t-65.5 -118.5z
" />
    <glyph glyph-name="ccedilla" unicode="&#xe7;" horiz-adv-x="432" 
d="M192 -12q-74 0 -117 49t-43 137q0 134 80 226t183 92q71 0 115 -33l-24 -132h-57q0 35 10 99q-26 8 -52 8q-70 0 -126 -71.5t-56 -180.5q0 -66 25 -100t68 -34q64 0 121 57l40 -45q-72 -72 -167 -72zM151 -219q-36 0 -66 11l15 41q21 -9 50 -9q50 0 50 39q0 47 -71 41
l36 96h51l-25 -66q31 -5 50.5 -24t19.5 -49q0 -37 -31.5 -58.5t-78.5 -21.5z" />
    <glyph glyph-name="egrave" unicode="&#xe8;" horiz-adv-x="441" 
d="M190 -12q-77 0 -117.5 49.5t-40.5 123.5q0 136 77.5 233.5t183.5 97.5q56 0 90 -28t34 -81q0 -153 -312 -191v-22q0 -58 24 -90t70 -32q70 0 128 60l39 -46q-74 -74 -176 -74zM279 434q-55 0 -101.5 -54t-64.5 -136q103 13 166 45.5t63 86.5q0 58 -63 58zM241 540
l-106 126h97l71 -126h-62z" />
    <glyph glyph-name="eacute" unicode="&#xe9;" horiz-adv-x="441" 
d="M190 -12q-77 0 -117.5 49.5t-40.5 123.5q0 136 77.5 233.5t183.5 97.5q56 0 90 -28t34 -81q0 -153 -312 -191v-22q0 -58 24 -90t70 -32q70 0 128 60l39 -46q-74 -74 -176 -74zM279 434q-55 0 -101.5 -54t-64.5 -136q103 13 166 45.5t63 86.5q0 58 -63 58zM243 540
l111 126h111l-152 -126h-70z" />
    <glyph glyph-name="ecircumflex" unicode="&#xea;" horiz-adv-x="441" 
d="M190 -12q-77 0 -117.5 49.5t-40.5 123.5q0 136 77.5 233.5t183.5 97.5q56 0 90 -28t34 -81q0 -153 -312 -191v-22q0 -58 24 -90t70 -32q70 0 128 60l39 -46q-74 -74 -176 -74zM279 434q-55 0 -101.5 -54t-64.5 -136q103 13 166 45.5t63 86.5q0 58 -63 58zM135 541
l147 153h50l92 -153h-61l-65 89l-94 -89h-69z" />
    <glyph glyph-name="edieresis" unicode="&#xeb;" horiz-adv-x="441" 
d="M190 -12q-77 0 -117.5 49.5t-40.5 123.5q0 136 77.5 233.5t183.5 97.5q56 0 90 -28t34 -81q0 -153 -312 -191v-22q0 -58 24 -90t70 -32q70 0 128 60l39 -46q-74 -74 -176 -74zM279 434q-55 0 -101.5 -54t-64.5 -136q103 13 166 45.5t63 86.5q0 58 -63 58zM198 541
q-21 0 -35.5 14.5t-14.5 36.5q0 21 14.5 35.5t35.5 14.5q23 0 37 -14.5t14 -35.5q0 -22 -14.5 -36.5t-36.5 -14.5zM381 541q-21 0 -35.5 14.5t-14.5 36.5q0 21 14.5 35.5t35.5 14.5q23 0 37 -14.5t14 -35.5q0 -22 -14.5 -36.5t-36.5 -14.5z" />
    <glyph glyph-name="igrave" unicode="&#xec;" horiz-adv-x="267" 
d="M55 0l77 424q-55 5 -80 5l9 50q63 7 157 7l-18 -79l-64 -349q42 0 77 -8l-9 -50h-149zM149 540l-106 126h97l71 -126h-62z" />
    <glyph glyph-name="iacute" unicode="&#xed;" horiz-adv-x="267" 
d="M55 0l77 424q-55 5 -80 5l9 50q63 7 157 7l-18 -79l-64 -349q42 0 77 -8l-9 -50h-149zM151 540l111 126h111l-152 -126h-70z" />
    <glyph glyph-name="icircumflex" unicode="&#xee;" horiz-adv-x="267" 
d="M55 0l77 424q-55 5 -80 5l9 50q63 7 157 7l-18 -79l-64 -349q42 0 77 -8l-9 -50h-149zM43 541l147 153h50l92 -153h-61l-65 89l-94 -89h-69z" />
    <glyph glyph-name="idieresis" unicode="&#xef;" horiz-adv-x="267" 
d="M55 0l77 424q-55 5 -80 5l9 50q63 7 157 7l-18 -79l-64 -349q42 0 77 -8l-9 -50h-149zM106 541q-21 0 -35.5 14.5t-14.5 36.5q0 21 14.5 35.5t35.5 14.5q23 0 37 -14.5t14 -35.5q0 -22 -14.5 -36.5t-36.5 -14.5zM289 541q-21 0 -35.5 14.5t-14.5 36.5q0 21 14.5 35.5
t35.5 14.5q23 0 37 -14.5t14 -35.5q0 -22 -14.5 -36.5t-36.5 -14.5z" />
    <glyph glyph-name="eth" unicode="&#xf0;" horiz-adv-x="467" 
d="M200 -12q-73 0 -122 53.5t-49 142.5q0 129 72.5 215t170.5 86q62 0 103 -41q-12 107 -67 162l-83 -66l-34 42l72 57q-59 32 -149 32l23 61q110 0 181 -49l87 69l34 -42l-78 -62q88 -89 88 -267q0 -72 -14.5 -140t-43.5 -125.5t-78.5 -92.5t-112.5 -35zM208 48
q78 0 124 96t46 227v3q-37 52 -110 52q-69 0 -118 -66t-49 -173q0 -69 25 -104t82 -35z" />
    <glyph glyph-name="ntilde" unicode="&#xf1;" horiz-adv-x="556" 
d="M55 0l77 424q-53 5 -80 5l9 50q63 7 154 7l-18 -79l-19 -83h2q85 168 202 168q60 0 84.5 -44.5t10.5 -119.5l-50 -270q42 0 77 -8l-9 -50h-149l57 322q19 108 -44 108t-128 -98t-97 -277l-10 -55h-69zM378 543q-25 0 -54 19.5t-47 19.5q-21 0 -53 -29l-30 35q44 58 95 58
q25 0 54 -19.5t47 -19.5q28 0 55 29l31 -34q-48 -59 -98 -59z" />
    <glyph glyph-name="ograve" unicode="&#xf2;" horiz-adv-x="478" 
d="M200 -12q-85 0 -127.5 59.5t-42.5 139.5q0 116 72.5 210.5t174.5 94.5q83 0 127 -57t44 -139q0 -122 -72.5 -215t-175.5 -93zM207 46q71 0 118.5 73.5t47.5 164.5q0 150 -100 150q-73 0 -121.5 -75t-48.5 -170q0 -66 26 -104.5t78 -38.5zM247 540l-106 126h97l71 -126
h-62z" />
    <glyph glyph-name="oacute" unicode="&#xf3;" horiz-adv-x="478" 
d="M200 -12q-85 0 -127.5 59.5t-42.5 139.5q0 116 72.5 210.5t174.5 94.5q83 0 127 -57t44 -139q0 -122 -72.5 -215t-175.5 -93zM207 46q71 0 118.5 73.5t47.5 164.5q0 150 -100 150q-73 0 -121.5 -75t-48.5 -170q0 -66 26 -104.5t78 -38.5zM249 540l111 126h111l-152 -126
h-70z" />
    <glyph glyph-name="ocircumflex" unicode="&#xf4;" horiz-adv-x="478" 
d="M200 -12q-85 0 -127.5 59.5t-42.5 139.5q0 116 72.5 210.5t174.5 94.5q83 0 127 -57t44 -139q0 -122 -72.5 -215t-175.5 -93zM207 46q71 0 118.5 73.5t47.5 164.5q0 150 -100 150q-73 0 -121.5 -75t-48.5 -170q0 -66 26 -104.5t78 -38.5zM141 541l147 153h50l92 -153h-61
l-65 89l-94 -89h-69z" />
    <glyph glyph-name="otilde" unicode="&#xf5;" horiz-adv-x="478" 
d="M200 -12q-85 0 -127.5 59.5t-42.5 139.5q0 116 72.5 210.5t174.5 94.5q83 0 127 -57t44 -139q0 -122 -72.5 -215t-175.5 -93zM207 46q71 0 118.5 73.5t47.5 164.5q0 150 -100 150q-73 0 -121.5 -75t-48.5 -170q0 -66 26 -104.5t78 -38.5zM334 543q-25 0 -54 19.5
t-47 19.5q-21 0 -53 -29l-30 35q44 58 95 58q25 0 54 -19.5t47 -19.5q28 0 55 29l31 -34q-48 -59 -98 -59z" />
    <glyph glyph-name="odieresis" unicode="&#xf6;" horiz-adv-x="478" 
d="M200 -12q-85 0 -127.5 59.5t-42.5 139.5q0 116 72.5 210.5t174.5 94.5q83 0 127 -57t44 -139q0 -122 -72.5 -215t-175.5 -93zM207 46q71 0 118.5 73.5t47.5 164.5q0 150 -100 150q-73 0 -121.5 -75t-48.5 -170q0 -66 26 -104.5t78 -38.5zM204 541q-21 0 -35.5 14.5
t-14.5 36.5q0 21 14.5 35.5t35.5 14.5q23 0 37 -14.5t14 -35.5q0 -22 -14.5 -36.5t-36.5 -14.5zM387 541q-21 0 -35.5 14.5t-14.5 36.5q0 21 14.5 35.5t35.5 14.5q23 0 37 -14.5t14 -35.5q0 -22 -14.5 -36.5t-36.5 -14.5z" />
    <glyph glyph-name="oslash" unicode="&#xf8;" horiz-adv-x="478" 
d="M23 -59l-38 32l76 91q-31 49 -31 123q0 116 72.5 210.5t174.5 94.5q68 0 111 -40l86 100l38 -32l-92 -109q28 -49 28 -115q0 -122 -72.5 -215t-175.5 -93q-63 0 -106 37zM110 119l237 281q-27 36 -74 36q-74 0 -123.5 -76t-49.5 -171q0 -43 10 -70zM207 44q71 0 120 74.5
t49 165.5q0 34 -8 68l-234 -277q28 -31 73 -31z" />
    <glyph glyph-name="ugrave" unicode="&#xf9;" horiz-adv-x="555" 
d="M174 -12q-60 0 -84.5 44t-10.5 120l49 272q-53 5 -79 5l9 50q63 7 152 7l-58 -327q-19 -109 45 -109q62 0 126.5 94t94.5 259l4 21q-53 5 -82 5l9 50q63 7 153 7l-50 -277q-12 -66 -24 -151q43 0 78 -8l-9 -50h-144q12 92 28 160h-2q-18 -34 -33.5 -57.5t-41.5 -53
t-59 -45.5t-71 -16zM277 540l-106 126h97l71 -126h-62z" />
    <glyph glyph-name="uacute" unicode="&#xfa;" horiz-adv-x="555" 
d="M174 -12q-60 0 -84.5 44t-10.5 120l49 272q-53 5 -79 5l9 50q63 7 152 7l-58 -327q-19 -109 45 -109q62 0 126.5 94t94.5 259l4 21q-53 5 -82 5l9 50q63 7 153 7l-50 -277q-12 -66 -24 -151q43 0 78 -8l-9 -50h-144q12 92 28 160h-2q-18 -34 -33.5 -57.5t-41.5 -53
t-59 -45.5t-71 -16zM280 540l111 126h111l-152 -126h-70z" />
    <glyph glyph-name="ucircumflex" unicode="&#xfb;" horiz-adv-x="555" 
d="M174 -12q-60 0 -84.5 44t-10.5 120l49 272q-53 5 -79 5l9 50q63 7 152 7l-58 -327q-19 -109 45 -109q62 0 126.5 94t94.5 259l4 21q-53 5 -82 5l9 50q63 7 153 7l-50 -277q-12 -66 -24 -151q43 0 78 -8l-9 -50h-144q12 92 28 160h-2q-18 -34 -33.5 -57.5t-41.5 -53
t-59 -45.5t-71 -16zM171 541l147 153h50l92 -153h-61l-65 89l-94 -89h-69z" />
    <glyph glyph-name="udieresis" unicode="&#xfc;" horiz-adv-x="555" 
d="M174 -12q-60 0 -84.5 44t-10.5 120l49 272q-53 5 -79 5l9 50q63 7 152 7l-58 -327q-19 -109 45 -109q62 0 126.5 94t94.5 259l4 21q-53 5 -82 5l9 50q63 7 153 7l-50 -277q-12 -66 -24 -151q43 0 78 -8l-9 -50h-144q12 92 28 160h-2q-18 -34 -33.5 -57.5t-41.5 -53
t-59 -45.5t-71 -16zM234 541q-21 0 -35.5 14.5t-14.5 36.5q0 21 14.5 35.5t35.5 14.5q23 0 37 -14.5t14 -35.5q0 -22 -14.5 -36.5t-36.5 -14.5zM417 541q-21 0 -35.5 14.5t-14.5 36.5q0 21 14.5 35.5t35.5 14.5q23 0 37 -14.5t14 -35.5q0 -22 -14.5 -36.5t-36.5 -14.5z" />
    <glyph glyph-name="yacute" unicode="&#xfd;" horiz-adv-x="486" 
d="M20 -220q-51 0 -82 17l30 59q24 -11 59 -11q40 0 75.5 29t80.5 107l-86 441q-61 7 -81 7l9 50q63 7 132 7l66 -350q4 -21 7 -49t3 -31h2q12 36 31 78l154 346h76l-176 -368q-47 -98 -77 -152t-66 -99.5t-72.5 -63t-84.5 -17.5zM257 540l111 126h111l-152 -126h-70z" />
    <glyph glyph-name="thorn" unicode="&#xfe;" horiz-adv-x="504" 
d="M-74 -218l9 50q40 8 79 8l149 824q-55 5 -80 5l9 50q63 7 157 7l-19 -80l-31 -168q-13 -69 -34 -148h2q41 76 83.5 119t105.5 43q56 0 86 -44t30 -110q0 -91 -33 -170t-98.5 -129.5t-150.5 -50.5q-54 0 -75 8l-29 -156q42 0 77 -8l-9 -50h-228zM196 45q93 0 148 84.5
t55 201.5q0 44 -15 71.5t-44 27.5q-45 0 -90 -54t-74 -126t-42 -143l-9 -54q24 -8 71 -8z" />
    <glyph glyph-name="ydieresis" unicode="&#xff;" horiz-adv-x="486" 
d="M20 -220q-51 0 -82 17l30 59q24 -11 59 -11q40 0 75.5 29t80.5 107l-86 441q-61 7 -81 7l9 50q63 7 132 7l66 -350q4 -21 7 -49t3 -31h2q12 36 31 78l154 346h76l-176 -368q-47 -98 -77 -152t-66 -99.5t-72.5 -63t-84.5 -17.5zM212 541q-21 0 -35.5 14.5t-14.5 36.5
q0 21 14.5 35.5t35.5 14.5q23 0 37 -14.5t14 -35.5q0 -22 -14.5 -36.5t-36.5 -14.5zM395 541q-21 0 -35.5 14.5t-14.5 36.5q0 21 14.5 35.5t35.5 14.5q23 0 37 -14.5t14 -35.5q0 -22 -14.5 -36.5t-36.5 -14.5z" />
    <glyph glyph-name="Amacron" unicode="&#x100;" horiz-adv-x="654" 
d="M-38 0l8 50q22 5 59 7l341 609h72l105 -608q39 -1 65 -8l-8 -50h-212l8 50q28 6 69 8l-22 139h-268l-76 -139q42 -2 68 -8l-8 -50h-201zM214 259h222l-31 195q-9 45 -18 124h-2q-47 -96 -63 -124zM280 760l11 61h271l-11 -61h-271z" />
    <glyph glyph-name="amacron" unicode="&#x101;" horiz-adv-x="506" 
d="M148 -12q-56 0 -86 40t-30 107q0 92 31 172t97.5 132.5t155.5 52.5q81 0 135 -19l-48 -264q-11 -58 -24 -151q43 0 78 -8l-9 -50h-144q11 80 28 151h-2q-83 -163 -182 -163zM165 50q42 0 85.5 52t73 125t40.5 145l8 52q-25 9 -70 9q-90 0 -143.5 -85t-53.5 -202
q0 -96 60 -96zM164 574l11 61h271l-11 -61h-271z" />
    <glyph glyph-name="Abreve" unicode="&#x102;" horiz-adv-x="654" 
d="M-38 0l8 50q22 5 59 7l341 609h72l105 -608q39 -1 65 -8l-8 -50h-212l8 50q28 6 69 8l-22 139h-268l-76 -139q42 -2 68 -8l-8 -50h-201zM214 259h222l-31 195q-9 45 -18 124h-2q-47 -96 -63 -124zM418 722q-59 0 -93.5 36.5t-29.5 105.5h61q-3 -38 12.5 -61t52.5 -23
q32 0 56.5 22.5t32.5 61.5h64q-15 -70 -60 -106t-96 -36z" />
    <glyph glyph-name="abreve" unicode="&#x103;" horiz-adv-x="506" 
d="M148 -12q-56 0 -86 40t-30 107q0 92 31 172t97.5 132.5t155.5 52.5q81 0 135 -19l-48 -264q-11 -58 -24 -151q43 0 78 -8l-9 -50h-144q11 80 28 151h-2q-83 -163 -182 -163zM165 50q42 0 85.5 52t73 125t40.5 145l8 52q-25 9 -70 9q-90 0 -143.5 -85t-53.5 -202
q0 -96 60 -96zM302 536q-59 0 -93.5 36.5t-29.5 105.5h61q-3 -38 12.5 -61t52.5 -23q32 0 56.5 22.5t32.5 61.5h64q-15 -70 -60 -106t-96 -36z" />
    <glyph glyph-name="Aogonek" unicode="&#x104;" horiz-adv-x="654" 
d="M-38 0l8 50q22 5 59 7l341 609h72l105 -608q39 -1 65 -8l-8 -50h-212l8 50q28 6 69 8l-22 139h-268l-76 -139q42 -2 68 -8l-8 -50h-201zM214 259h222l-31 195q-9 45 -18 124h-2q-47 -96 -63 -124zM493 -219q-45 0 -67.5 21t-22.5 55q0 73 88 143h50l-11 -12
q-11 -12 -13 -14.5t-11.5 -14t-12.5 -16.5t-10 -16t-9 -19t-4.5 -18.5t-2.5 -20.5q0 -38 43 -38q26 0 44 7l7 -40q-32 -17 -68 -17z" />
    <glyph glyph-name="aogonek" unicode="&#x105;" horiz-adv-x="506" 
d="M148 -12q-56 0 -86 40t-30 107q0 92 31 172t97.5 132.5t155.5 52.5q81 0 135 -19l-48 -264q-11 -58 -24 -151q43 0 78 -8l-9 -50h-144q11 80 28 151h-2q-83 -163 -182 -163zM165 50q42 0 85.5 52t73 125t40.5 145l8 52q-25 9 -70 9q-90 0 -143.5 -85t-53.5 -202
q0 -96 60 -96zM354 -219q-45 0 -67.5 21t-22.5 55q0 73 88 143h50l-11 -12q-11 -12 -13 -14.5t-11.5 -14t-12.5 -16.5t-10 -16t-9 -19t-4.5 -18.5t-2.5 -20.5q0 -38 43 -38q26 0 44 7l7 -40q-32 -17 -68 -17z" />
    <glyph glyph-name="Cacute" unicode="&#x106;" horiz-adv-x="649" 
d="M335 -12q-133 0 -207 79t-74 200q0 116 56 211.5t146.5 147.5t193.5 52q125 0 193 -47l-27 -148h-63q0 26 12 110q-51 22 -126 22q-132 0 -218 -98.5t-86 -246.5q0 -96 52.5 -157.5t152.5 -61.5q91 0 155 34l7 30l8 35q7 36 14 51h63l-26 -146q-32 -28 -97.5 -47.5
t-128.5 -19.5zM405 726l111 126h111l-152 -126h-70z" />
    <glyph glyph-name="cacute" unicode="&#x107;" horiz-adv-x="432" 
d="M192 -12q-74 0 -117 49t-43 137q0 134 80 226t183 92q71 0 115 -33l-24 -132h-57q0 35 10 99q-26 8 -52 8q-70 0 -126 -71.5t-56 -180.5q0 -66 25 -100t68 -34q64 0 121 57l40 -45q-72 -72 -167 -72zM258 540l111 126h111l-152 -126h-70z" />
    <glyph glyph-name="Ccircumflex" unicode="&#x108;" horiz-adv-x="649" 
d="M335 -12q-133 0 -207 79t-74 200q0 116 56 211.5t146.5 147.5t193.5 52q125 0 193 -47l-27 -148h-63q0 26 12 110q-51 22 -126 22q-132 0 -218 -98.5t-86 -246.5q0 -96 52.5 -157.5t152.5 -61.5q91 0 155 34l7 30l8 35q7 36 14 51h63l-26 -146q-32 -28 -97.5 -47.5
t-128.5 -19.5zM296 727l147 153h50l92 -153h-61l-65 89l-94 -89h-69z" />
    <glyph glyph-name="ccircumflex" unicode="&#x109;" horiz-adv-x="432" 
d="M192 -12q-74 0 -117 49t-43 137q0 134 80 226t183 92q71 0 115 -33l-24 -132h-57q0 35 10 99q-26 8 -52 8q-70 0 -126 -71.5t-56 -180.5q0 -66 25 -100t68 -34q64 0 121 57l40 -45q-72 -72 -167 -72zM150 541l147 153h50l92 -153h-61l-65 89l-94 -89h-69z" />
    <glyph glyph-name="Cdotaccent" unicode="&#x10a;" horiz-adv-x="649" 
d="M335 -12q-133 0 -207 79t-74 200q0 116 56 211.5t146.5 147.5t193.5 52q125 0 193 -47l-27 -148h-63q0 26 12 110q-51 22 -126 22q-132 0 -218 -98.5t-86 -246.5q0 -96 52.5 -157.5t152.5 -61.5q91 0 155 34l7 30l8 35q7 36 14 51h63l-26 -146q-32 -28 -97.5 -47.5
t-128.5 -19.5zM455 749q-23 0 -39 17t-16 40q0 24 16 41t39 17t39.5 -16.5t16.5 -40.5t-16.5 -41t-39.5 -17z" />
    <glyph glyph-name="cdotaccent" unicode="&#x10b;" horiz-adv-x="432" 
d="M192 -12q-74 0 -117 49t-43 137q0 134 80 226t183 92q71 0 115 -33l-24 -132h-57q0 35 10 99q-26 8 -52 8q-70 0 -126 -71.5t-56 -180.5q0 -66 25 -100t68 -34q64 0 121 57l40 -45q-72 -72 -167 -72zM309 563q-23 0 -39 17t-16 40q0 24 16 41t39 17t39.5 -16.5
t16.5 -40.5t-16.5 -41t-39.5 -17z" />
    <glyph glyph-name="Ccaron" unicode="&#x10c;" horiz-adv-x="649" 
d="M335 -12q-133 0 -207 79t-74 200q0 116 56 211.5t146.5 147.5t193.5 52q125 0 193 -47l-27 -148h-63q0 26 12 110q-51 22 -126 22q-132 0 -218 -98.5t-86 -246.5q0 -96 52.5 -157.5t152.5 -61.5q91 0 155 34l7 30l8 35q7 36 14 51h63l-26 -146q-32 -28 -97.5 -47.5
t-128.5 -19.5zM418 725l-96 153h61l69 -89l99 89h69l-152 -153h-50z" />
    <glyph glyph-name="ccaron" unicode="&#x10d;" horiz-adv-x="432" 
d="M192 -12q-74 0 -117 49t-43 137q0 134 80 226t183 92q71 0 115 -33l-24 -132h-57q0 35 10 99q-26 8 -52 8q-70 0 -126 -71.5t-56 -180.5q0 -66 25 -100t68 -34q64 0 121 57l40 -45q-72 -72 -167 -72zM272 539l-96 153h61l69 -89l99 89h69l-152 -153h-50z" />
    <glyph glyph-name="Dcaron" unicode="&#x10e;" horiz-adv-x="680" 
d="M-6 0l8 50q40 8 81 8l98 550q-37 0 -77 8l9 50h230q161 0 243 -68.5t82 -188.5q0 -81 -26.5 -153.5t-76.5 -130t-130.5 -91.5t-180.5 -34h-260zM161 60h105q148 0 234.5 98.5t86.5 245.5q0 103 -62 152.5t-191 49.5h-76zM366 725l-96 153h61l69 -89l99 89h69l-152 -153
h-50z" />
    <glyph glyph-name="dcaron" unicode="&#x10f;" horiz-adv-x="513" 
d="M147 -12q-59 0 -87 43t-28 111q0 143 80 246.5t205 103.5q40 0 72 -8l33 180q-55 5 -80 5l9 50q63 7 157 7l-19 -80l-79 -437q-18 -97 -24 -151q43 0 78 -8l-9 -50h-144q11 84 27 149h-2q-86 -161 -189 -161zM160 50q46 0 91.5 51t76 123.5t42.5 147.5l8 51
q-28 10 -76 10q-88 0 -142.5 -84.5t-54.5 -196.5q0 -102 55 -102zM504 554l71 166h91l-106 -166h-56z" />
    <glyph glyph-name="Dcroat" unicode="&#x110;" horiz-adv-x="688" 
d="M2 0l8 50q40 8 81 8l45 256h-69l11 58h69l42 236q-37 0 -77 8l9 50h230q161 0 243 -68.5t82 -188.5q0 -81 -26.5 -153.5t-76.5 -130t-130.5 -91.5t-180.5 -34h-260zM169 60h105q148 0 234.5 98.5t86.5 245.5q0 103 -62 152.5t-191 49.5h-76l-42 -234h113l-11 -58h-112z
" />
    <glyph glyph-name="dslash" unicode="&#x111;" horiz-adv-x="513" 
d="M147 -12q-59 0 -87 43t-28 111q0 143 80 246.5t205 103.5q34 0 72 -8l12 68h-143l11 54h142l11 58q-55 5 -80 5l9 50q63 7 157 7l-19 -80l-7 -38h47l-11 -58h-47l-61 -341q-12 -66 -24 -151q43 0 78 -8l-9 -50h-144q11 84 27 149h-2q-86 -161 -189 -161zM160 50
q46 0 91.5 51t76 123.5t42.5 147.5l8 51q-28 10 -76 10q-88 0 -142.5 -84.5t-54.5 -196.5q0 -102 55 -102z" />
    <glyph glyph-name="Emacron" unicode="&#x112;" horiz-adv-x="541" 
d="M-6 0l8 50q40 8 81 8l98 550q-37 0 -77 8l9 50h448l-29 -161h-63q0 38 9 101h-221l-42 -236h156q16 61 20 70h55l-36 -198h-55q-2 18 6 70h-156l-45 -252h226q9 60 26 101h64l-29 -161h-453zM228 760l11 61h271l-11 -61h-271z" />
    <glyph glyph-name="emacron" unicode="&#x113;" horiz-adv-x="441" 
d="M190 -12q-77 0 -117.5 49.5t-40.5 123.5q0 136 77.5 233.5t183.5 97.5q56 0 90 -28t34 -81q0 -153 -312 -191v-22q0 -58 24 -90t70 -32q70 0 128 60l39 -46q-74 -74 -176 -74zM279 434q-55 0 -101.5 -54t-64.5 -136q103 13 166 45.5t63 86.5q0 58 -63 58zM148 574l11 61
h271l-11 -61h-271z" />
    <glyph glyph-name="Ebreve" unicode="&#x114;" horiz-adv-x="541" 
d="M-6 0l8 50q40 8 81 8l98 550q-37 0 -77 8l9 50h448l-29 -161h-63q0 38 9 101h-221l-42 -236h156q16 61 20 70h55l-36 -198h-55q-2 18 6 70h-156l-45 -252h226q9 60 26 101h64l-29 -161h-453zM366 722q-59 0 -93.5 36.5t-29.5 105.5h61q-3 -38 12.5 -61t52.5 -23
q32 0 56.5 22.5t32.5 61.5h64q-15 -70 -60 -106t-96 -36z" />
    <glyph glyph-name="ebreve" unicode="&#x115;" horiz-adv-x="441" 
d="M190 -12q-77 0 -117.5 49.5t-40.5 123.5q0 136 77.5 233.5t183.5 97.5q56 0 90 -28t34 -81q0 -153 -312 -191v-22q0 -58 24 -90t70 -32q70 0 128 60l39 -46q-74 -74 -176 -74zM279 434q-55 0 -101.5 -54t-64.5 -136q103 13 166 45.5t63 86.5q0 58 -63 58zM286 536
q-59 0 -93.5 36.5t-29.5 105.5h61q-3 -38 12.5 -61t52.5 -23q32 0 56.5 22.5t32.5 61.5h64q-15 -70 -60 -106t-96 -36z" />
    <glyph glyph-name="Edotaccent" unicode="&#x116;" horiz-adv-x="541" 
d="M-6 0l8 50q40 8 81 8l98 550q-37 0 -77 8l9 50h448l-29 -161h-63q0 38 9 101h-221l-42 -236h156q16 61 20 70h55l-36 -198h-55q-2 18 6 70h-156l-45 -252h226q9 60 26 101h64l-29 -161h-453zM374 749q-23 0 -39 17t-16 40q0 24 16 41t39 17t39.5 -16.5t16.5 -40.5
t-16.5 -41t-39.5 -17z" />
    <glyph glyph-name="edotaccent" unicode="&#x117;" horiz-adv-x="441" 
d="M190 -12q-77 0 -117.5 49.5t-40.5 123.5q0 136 77.5 233.5t183.5 97.5q56 0 90 -28t34 -81q0 -153 -312 -191v-22q0 -58 24 -90t70 -32q70 0 128 60l39 -46q-74 -74 -176 -74zM279 434q-55 0 -101.5 -54t-64.5 -136q103 13 166 45.5t63 86.5q0 58 -63 58zM294 563
q-23 0 -39 17t-16 40q0 24 16 41t39 17t39.5 -16.5t16.5 -40.5t-16.5 -41t-39.5 -17z" />
    <glyph glyph-name="Eogonek" unicode="&#x118;" horiz-adv-x="541" 
d="M-6 0l8 50q40 8 81 8l98 550q-37 0 -77 8l9 50h448l-29 -161h-63q0 38 9 101h-221l-42 -236h156q16 61 20 70h55l-36 -198h-55q-2 18 6 70h-156l-45 -252h226q9 60 26 101h64l-29 -161h-453zM347 -219q-45 0 -67.5 21t-22.5 55q0 73 88 143h50l-11 -12q-11 -12 -13 -14.5
t-11.5 -14t-12.5 -16.5t-10 -16t-9 -19t-4.5 -18.5t-2.5 -20.5q0 -38 43 -38q26 0 44 7l7 -40q-32 -17 -68 -17z" />
    <glyph glyph-name="eogonek" unicode="&#x119;" horiz-adv-x="441" 
d="M230 -219q-45 0 -67.5 21t-22.5 55q0 65 75 132q-4 -1 -12 -1h-13q-77 0 -117.5 49.5t-40.5 123.5q0 136 77.5 233.5t183.5 97.5q56 0 90 -28t34 -81q0 -153 -312 -191v-22q0 -58 24 -90t70 -32q70 0 128 60l39 -46q-19 -16 -82 -59q-30 -20 -55 -58.5t-25 -75.5
q0 -38 43 -38q26 0 44 7l7 -40q-32 -17 -68 -17zM279 434q-55 0 -101.5 -54t-64.5 -136q103 13 166 45.5t63 86.5q0 58 -63 58z" />
    <glyph glyph-name="Ecaron" unicode="&#x11a;" horiz-adv-x="541" 
d="M-6 0l8 50q40 8 81 8l98 550q-37 0 -77 8l9 50h448l-29 -161h-63q0 38 9 101h-221l-42 -236h156q16 61 20 70h55l-36 -198h-55q-2 18 6 70h-156l-45 -252h226q9 60 26 101h64l-29 -161h-453zM337 725l-96 153h61l69 -89l99 89h69l-152 -153h-50z" />
    <glyph glyph-name="ecaron" unicode="&#x11b;" horiz-adv-x="441" 
d="M190 -12q-77 0 -117.5 49.5t-40.5 123.5q0 136 77.5 233.5t183.5 97.5q56 0 90 -28t34 -81q0 -153 -312 -191v-22q0 -58 24 -90t70 -32q70 0 128 60l39 -46q-74 -74 -176 -74zM279 434q-55 0 -101.5 -54t-64.5 -136q103 13 166 45.5t63 86.5q0 58 -63 58zM257 539
l-96 153h61l69 -89l99 89h69l-152 -153h-50z" />
    <glyph glyph-name="Gcircumflex" unicode="&#x11c;" horiz-adv-x="722" 
d="M357 -12q-146 0 -224.5 76.5t-78.5 203.5q0 175 117 292.5t281 117.5q72 0 127.5 -17t84.5 -39l-27 -148h-63q0 27 12 111q-65 30 -146 30q-133 0 -219 -96.5t-86 -247.5q0 -106 57 -163t170 -57q21 0 40.5 2t34.5 5.5t27.5 7t22.5 8t16 7.5t13 7l6 4l25 143q-37 0 -77 8
l9 50h229l-9 -50q-40 -8 -76 -8l-33 -181l-10 -6q-9 -6 -18 -11t-24.5 -12.5t-33.5 -13.5t-40.5 -11.5t-50 -8.5t-56.5 -3zM306 727l147 153h50l92 -153h-61l-65 89l-94 -89h-69z" />
    <glyph glyph-name="gcircumflex" unicode="&#x11d;" horiz-adv-x="502" 
d="M136 -229q-83 0 -145 49l38 55q57 -43 115 -43q129 0 160 169l8 43q12 61 25 102h-2q-34 -67 -83.5 -112.5t-106.5 -45.5t-84.5 43t-27.5 111q0 144 80 247t204 103q72 0 143 -17l-88 -476q-22 -121 -78 -174.5t-158 -53.5zM162 50q46 0 91.5 52t76 124.5t42.5 145.5
l8 52q-28 10 -77 10q-89 0 -143 -83.5t-54 -198.5q0 -102 56 -102zM151 541l147 153h50l92 -153h-61l-65 89l-94 -89h-69z" />
    <glyph glyph-name="Gbreve" unicode="&#x11e;" horiz-adv-x="722" 
d="M357 -12q-146 0 -224.5 76.5t-78.5 203.5q0 175 117 292.5t281 117.5q72 0 127.5 -17t84.5 -39l-27 -148h-63q0 27 12 111q-65 30 -146 30q-133 0 -219 -96.5t-86 -247.5q0 -106 57 -163t170 -57q21 0 40.5 2t34.5 5.5t27.5 7t22.5 8t16 7.5t13 7l6 4l25 143q-37 0 -77 8
l9 50h229l-9 -50q-40 -8 -76 -8l-33 -181l-10 -6q-9 -6 -18 -11t-24.5 -12.5t-33.5 -13.5t-40.5 -11.5t-50 -8.5t-56.5 -3zM457 722q-59 0 -93.5 36.5t-29.5 105.5h61q-3 -38 12.5 -61t52.5 -23q32 0 56.5 22.5t32.5 61.5h64q-15 -70 -60 -106t-96 -36z" />
    <glyph glyph-name="gbreve" unicode="&#x11f;" horiz-adv-x="502" 
d="M136 -229q-83 0 -145 49l38 55q57 -43 115 -43q129 0 160 169l8 43q12 61 25 102h-2q-34 -67 -83.5 -112.5t-106.5 -45.5t-84.5 43t-27.5 111q0 144 80 247t204 103q72 0 143 -17l-88 -476q-22 -121 -78 -174.5t-158 -53.5zM162 50q46 0 91.5 52t76 124.5t42.5 145.5
l8 52q-28 10 -77 10q-89 0 -143 -83.5t-54 -198.5q0 -102 56 -102zM302 536q-59 0 -93.5 36.5t-29.5 105.5h61q-3 -38 12.5 -61t52.5 -23q32 0 56.5 22.5t32.5 61.5h64q-15 -70 -60 -106t-96 -36z" />
    <glyph glyph-name="Gdotaccent" unicode="&#x120;" horiz-adv-x="722" 
d="M357 -12q-146 0 -224.5 76.5t-78.5 203.5q0 175 117 292.5t281 117.5q72 0 127.5 -17t84.5 -39l-27 -148h-63q0 27 12 111q-65 30 -146 30q-133 0 -219 -96.5t-86 -247.5q0 -106 57 -163t170 -57q21 0 40.5 2t34.5 5.5t27.5 7t22.5 8t16 7.5t13 7l6 4l25 143q-37 0 -77 8
l9 50h229l-9 -50q-40 -8 -76 -8l-33 -181l-10 -6q-9 -6 -18 -11t-24.5 -12.5t-33.5 -13.5t-40.5 -11.5t-50 -8.5t-56.5 -3zM465 749q-23 0 -39 17t-16 40q0 24 16 41t39 17t39.5 -16.5t16.5 -40.5t-16.5 -41t-39.5 -17z" />
    <glyph glyph-name="gdotaccent" unicode="&#x121;" horiz-adv-x="502" 
d="M136 -229q-83 0 -145 49l38 55q57 -43 115 -43q129 0 160 169l8 43q12 61 25 102h-2q-34 -67 -83.5 -112.5t-106.5 -45.5t-84.5 43t-27.5 111q0 144 80 247t204 103q72 0 143 -17l-88 -476q-22 -121 -78 -174.5t-158 -53.5zM162 50q46 0 91.5 52t76 124.5t42.5 145.5
l8 52q-28 10 -77 10q-89 0 -143 -83.5t-54 -198.5q0 -102 56 -102zM310 563q-23 0 -39 17t-16 40q0 24 16 41t39 17t39.5 -16.5t16.5 -40.5t-16.5 -41t-39.5 -17z" />
    <glyph glyph-name="Gcommaaccent" unicode="&#x122;" horiz-adv-x="722" 
d="M315 -50q21 0 35 -12.5t14 -34.5q0 -39 -27.5 -74t-61.5 -59l-24 20q43 37 43 63q0 11 -11 27t-11 30q0 17 12.5 28.5t30.5 11.5zM357 -12q-146 0 -224.5 76.5t-78.5 203.5q0 175 117 292.5t281 117.5q72 0 127.5 -17t84.5 -39l-27 -148h-63q0 27 12 111q-65 30 -146 30
q-133 0 -219 -96.5t-86 -247.5q0 -106 57 -163t170 -57q21 0 40.5 2t34.5 5.5t27.5 7t22.5 8t16 7.5t13 7l6 4l25 143q-37 0 -77 8l9 50h229l-9 -50q-40 -8 -76 -8l-33 -181l-10 -6q-9 -6 -18 -11t-24.5 -12.5t-33.5 -13.5t-40.5 -11.5t-50 -8.5t-56.5 -3z" />
    <glyph glyph-name="gcommaaccent" unicode="&#x123;" horiz-adv-x="502" 
d="M306 539q-21 0 -35 12.5t-14 34.5q0 39 27.5 74t61.5 59l24 -20q-43 -37 -43 -63q0 -11 11 -27t11 -30q0 -17 -12.5 -28.5t-30.5 -11.5zM136 -229q-83 0 -145 49l38 55q57 -43 115 -43q129 0 160 169l8 43q12 61 25 102h-2q-34 -67 -83.5 -112.5t-106.5 -45.5t-84.5 43
t-27.5 111q0 144 80 247t204 103q72 0 143 -17l-88 -476q-22 -121 -78 -174.5t-158 -53.5zM162 50q46 0 91.5 52t76 124.5t42.5 145.5l8 52q-28 10 -77 10q-89 0 -143 -83.5t-54 -198.5q0 -102 56 -102z" />
    <glyph glyph-name="Hcircumflex" unicode="&#x124;" horiz-adv-x="749" 
d="M-6 0l8 50q40 8 81 8l97 550q-37 0 -77 8l9 50h235l-9 -50q-40 -8 -81 -8l-40 -228h366l40 228q-37 0 -77 8l9 50h235l-9 -50q-40 -8 -81 -8l-98 -550q42 0 77 -8l-8 -50h-235l8 50q40 8 81 8l47 261h-365l-47 -261q42 0 77 -8l-8 -50h-235zM309 727l147 153h50l92 -153
h-61l-65 89l-94 -89h-69z" />
    <glyph glyph-name="hcircumflex" unicode="&#x125;" horiz-adv-x="546" 
d="M44 0l122 664q-55 5 -80 5l9 50q63 7 157 7l-19 -80l-30 -166q-13 -76 -32 -151h2q84 163 199 163q60 0 84.5 -44.5t10.5 -119.5l-50 -270q42 0 77 -8l-9 -50h-149l57 322q19 108 -44 108q-64 0 -128.5 -97.5t-96.5 -277.5l-10 -55h-70zM237 781l147 153h50l92 -153h-61
l-65 89l-94 -89h-69z" />
    <glyph glyph-name="Itilde" unicode="&#x128;" horiz-adv-x="307" 
d="M-6 0l8 50q40 8 81 8l98 550q-37 0 -77 8l9 50h235l-9 -50q-40 -8 -81 -8l-98 -550q42 0 77 -8l-8 -50h-235zM287 729q-25 0 -54 19.5t-47 19.5q-21 0 -53 -29l-30 35q44 58 95 58q25 0 54 -19.5t47 -19.5q28 0 55 29l31 -34q-48 -59 -98 -59z" />
    <glyph glyph-name="itilde" unicode="&#x129;" horiz-adv-x="267" 
d="M55 0l77 424q-55 5 -80 5l9 50q63 7 157 7l-18 -79l-64 -349q42 0 77 -8l-9 -50h-149zM236 543q-25 0 -54 19.5t-47 19.5q-21 0 -53 -29l-30 35q43 58 95 58q25 0 54 -19.5t47 -19.5q28 0 55 29l31 -34q-48 -59 -98 -59z" />
    <glyph glyph-name="Imacron" unicode="&#x12a;" horiz-adv-x="307" 
d="M-6 0l8 50q40 8 81 8l98 550q-37 0 -77 8l9 50h235l-9 -50q-40 -8 -81 -8l-98 -550q42 0 77 -8l-8 -50h-235zM107 760l11 61h271l-11 -61h-271z" />
    <glyph glyph-name="imacron" unicode="&#x12b;" horiz-adv-x="267" 
d="M55 0l77 424q-55 5 -80 5l9 50q63 7 157 7l-18 -79l-64 -349q42 0 77 -8l-9 -50h-149zM56 574l11 61h271l-11 -61h-271z" />
    <glyph glyph-name="Ibreve" unicode="&#x12c;" horiz-adv-x="307" 
d="M-6 0l8 50q40 8 81 8l98 550q-37 0 -77 8l9 50h235l-9 -50q-40 -8 -81 -8l-98 -550q42 0 77 -8l-8 -50h-235zM245 722q-59 0 -93.5 36.5t-29.5 105.5h61q-3 -38 12.5 -61t52.5 -23q32 0 56.5 22.5t32.5 61.5h64q-15 -70 -60 -106t-96 -36z" />
    <glyph glyph-name="ibreve" unicode="&#x12d;" horiz-adv-x="267" 
d="M55 0l77 424q-55 5 -80 5l9 50q63 7 157 7l-18 -79l-64 -349q42 0 77 -8l-9 -50h-149zM194 536q-59 0 -93.5 36.5t-29.5 105.5h61q-3 -38 12.5 -61t52.5 -23q32 0 56.5 22.5t32.5 61.5h64q-15 -70 -60 -106t-96 -36z" />
    <glyph glyph-name="Iogonek" unicode="&#x12e;" horiz-adv-x="307" 
d="M-6 0l8 50q40 8 81 8l98 550q-37 0 -77 8l9 50h235l-9 -50q-40 -8 -81 -8l-98 -550q42 0 77 -8l-8 -50h-235zM90 -219q-45 0 -67.5 21t-22.5 55q0 73 88 143h50l-11 -12q-11 -12 -13 -14.5t-11.5 -14t-12.5 -16.5t-10 -16t-9 -19t-4.5 -18.5t-2.5 -20.5q0 -38 43 -38
q26 0 44 7l7 -40q-32 -17 -68 -17z" />
    <glyph glyph-name="iogonek" unicode="&#x12f;" horiz-adv-x="267" 
d="M55 0l77 424q-55 5 -80 5l9 50q63 7 157 7l-18 -79l-64 -349q42 0 77 -8l-9 -50h-149zM200 572q-21 0 -37 15.5t-16 37.5t16 37.5t37 15.5q22 0 37.5 -15.5t15.5 -37.5t-15.5 -37.5t-37.5 -15.5zM108 -219q-45 0 -67.5 21t-22.5 55q0 73 88 143h50l-11 -12
q-11 -12 -13 -14.5t-11.5 -14t-12.5 -16.5t-10 -16t-9 -19t-4.5 -18.5t-2.5 -20.5q0 -38 43 -38q26 0 44 7l7 -40q-32 -17 -68 -17z" />
    <glyph glyph-name="Idot" unicode="&#x130;" horiz-adv-x="307" 
d="M-6 0l8 50q40 8 81 8l98 550q-37 0 -77 8l9 50h235l-9 -50q-40 -8 -81 -8l-98 -550q42 0 77 -8l-8 -50h-235zM253 749q-23 0 -39 17t-16 40q0 24 16 41t39 17t39.5 -16.5t16.5 -40.5t-16.5 -41t-39.5 -17z" />
    <glyph glyph-name="dotlessi" unicode="&#x131;" horiz-adv-x="267" 
d="M55 0l77 424q-55 5 -80 5l9 50q63 7 157 7l-18 -79l-64 -349q42 0 77 -8l-9 -50h-149z" />
    <glyph glyph-name="Kcommaaccent" unicode="&#x136;" horiz-adv-x="626" 
d="M260 -50q21 0 35 -12.5t14 -34.5q0 -39 -27.5 -74t-61.5 -59l-24 20q43 37 43 63q0 11 -11 27t-11 30q0 17 12.5 28.5t30.5 11.5zM348 0l8 50q26 7 65 8l-201 289l277 261q-55 6 -62 8l9 50h216l-9 -50q-4 -1 -66 -8l-281 -261l206 -290q52 -2 73 -7l-8 -50h-227zM-6 0
l8 50q40 8 81 8l98 550q-37 0 -77 8l9 50h235l-9 -50q-40 -8 -81 -8l-98 -550q42 0 77 -8l-8 -50h-235z" />
    <glyph glyph-name="kcommaaccent" unicode="&#x137;" horiz-adv-x="474" 
d="M191 -50q21 0 35 -12.5t14 -34.5q0 -39 -27.5 -74t-61.5 -59l-24 20q43 37 43 63q0 11 -11 27t-11 30q0 17 12.5 28.5t30.5 11.5zM45 0l115 664q-53 5 -80 5l9 50q63 7 157 7l-18 -79l-112 -647h-71zM325 0l-154 268l220 212h89l-231 -216l119 -206q43 0 78 -8l-9 -50
h-112z" />
    <glyph glyph-name="Lacute" unicode="&#x139;" horiz-adv-x="496" 
d="M-6 0l8 50q40 8 81 8l98 550q-37 0 -77 8l9 50h235l-9 -50q-40 -8 -82 -8l-97 -548h202l6 32q11 50 22 79h60l-30 -171h-426zM200 726l111 126h111l-152 -126h-70z" />
    <glyph glyph-name="lacute" unicode="&#x13a;" horiz-adv-x="255" 
d="M43 0l120 664q-55 5 -80 5l9 50q63 7 157 7l-18 -79l-107 -589q42 0 77 -8l-9 -50h-149zM183 780l111 126h111l-152 -126h-70z" />
    <glyph glyph-name="Lcommaaccent" unicode="&#x13b;" horiz-adv-x="496" 
d="M227 -50q21 0 35 -12.5t14 -34.5q0 -39 -27.5 -74t-61.5 -59l-24 20q43 37 43 63q0 11 -11 27t-11 30q0 17 12.5 28.5t30.5 11.5zM-6 0l8 50q40 8 81 8l98 550q-37 0 -77 8l9 50h235l-9 -50q-40 -8 -82 -8l-97 -548h202l6 32q11 50 22 79h60l-30 -171h-426z" />
    <glyph glyph-name="lcommaaccent" unicode="&#x13c;" horiz-adv-x="255" 
d="M60 -50q21 0 35 -12.5t14 -34.5q0 -39 -27.5 -74t-61.5 -59l-24 20q43 37 43 63q0 11 -11 27t-11 30q0 17 12.5 28.5t30.5 11.5zM43 0l120 664q-55 5 -80 5l9 50q63 7 157 7l-18 -79l-107 -589q42 0 77 -8l-9 -50h-149z" />
    <glyph glyph-name="Lcaron" unicode="&#x13d;" horiz-adv-x="496" 
d="M-6 0l8 50q40 8 81 8l98 550q-37 0 -77 8l9 50h235l-9 -50q-40 -8 -82 -8l-97 -548h202l6 32q11 50 22 79h60l-30 -171h-426zM350 501l71 166h91l-106 -166h-56z" />
    <glyph glyph-name="lcaron" unicode="&#x13e;" horiz-adv-x="255" 
d="M43 0l120 664q-55 5 -80 5l9 50q63 7 157 7l-18 -79l-107 -589q42 0 77 -8l-9 -50h-149zM247 554l71 166h91l-106 -166h-56z" />
    <glyph glyph-name="Ldot" unicode="&#x13f;" horiz-adv-x="496" 
d="M-6 0l8 50q40 8 81 8l98 550q-37 0 -77 8l9 50h235l-9 -50q-40 -8 -82 -8l-97 -548h202l6 32q11 50 22 79h60l-30 -171h-426zM362 302q-23 0 -39 17t-16 40q0 24 16 41t39 17t39.5 -16.5t16.5 -40.5t-16.5 -41t-39.5 -17z" />
    <glyph glyph-name="ldot" unicode="&#x140;" horiz-adv-x="295" 
d="M43 0l120 664q-55 5 -80 5l9 50q63 7 157 7l-18 -79l-107 -589q42 0 77 -8l-9 -50h-149zM280 240q-23 0 -39 17t-16 40q0 24 16 41t39 17t39.5 -16.5t16.5 -40.5t-16.5 -41t-39.5 -17z" />
    <glyph glyph-name="Lslash" unicode="&#x141;" horiz-adv-x="504" 
d="M2 0l8 50q40 8 81 8l40 223l-85 -58l-24 42l121 84l46 259q-37 0 -77 8l9 50h235l-9 -50q-40 -8 -82 -8l-35 -198l121 84l27 -43l-161 -111l-49 -280h202l6 32q11 50 22 79h60l-30 -171h-426z" />
    <glyph glyph-name="lslash" unicode="&#x142;" horiz-adv-x="271" 
d="M51 0l50 279l-78 -55l12 68l79 56l57 316q-55 5 -80 5l9 50q63 7 157 7l-18 -79l-44 -242l93 67l-12 -69l-94 -66l-50 -279q42 0 77 -8l-9 -50h-149z" />
    <glyph glyph-name="Nacute" unicode="&#x143;" horiz-adv-x="714" 
d="M-6 0l8 50q40 8 81 8l98 550q-37 0 -77 8l9 50h148l225 -464q24 -53 39 -97h2q6 54 15 104l70 399q-37 0 -77 8l9 50h222l-9 -50q-40 -8 -81 -8l-107 -608h-65l-231 477q-21 44 -36 88h-2q-5 -41 -14 -95l-74 -412q42 0 77 -8l-8 -50h-222zM411 726l111 126h111
l-152 -126h-70z" />
    <glyph glyph-name="nacute" unicode="&#x144;" horiz-adv-x="556" 
d="M55 0l77 424q-53 5 -80 5l9 50q63 7 154 7l-18 -79l-19 -83h2q85 168 202 168q60 0 84.5 -44.5t10.5 -119.5l-50 -270q42 0 77 -8l-9 -50h-149l57 322q19 108 -44 108t-128 -98t-97 -277l-10 -55h-69zM294 540l111 126h111l-152 -126h-70z" />
    <glyph glyph-name="Ncommaaccent" unicode="&#x145;" horiz-adv-x="714" 
d="M303 -50q21 0 35 -12.5t14 -34.5q0 -39 -27.5 -74t-61.5 -59l-24 20q43 37 43 63q0 11 -11 27t-11 30q0 17 12.5 28.5t30.5 11.5zM-6 0l8 50q40 8 81 8l98 550q-37 0 -77 8l9 50h148l225 -464q24 -53 39 -97h2q6 54 15 104l70 399q-37 0 -77 8l9 50h222l-9 -50
q-40 -8 -81 -8l-107 -608h-65l-231 477q-21 44 -36 88h-2q-5 -41 -14 -95l-74 -412q42 0 77 -8l-8 -50h-222z" />
    <glyph glyph-name="ncommaaccent" unicode="&#x146;" horiz-adv-x="556" 
d="M218 -50q21 0 35 -12.5t14 -34.5q0 -39 -27.5 -74t-61.5 -59l-24 20q43 37 43 63q0 11 -11 27t-11 30q0 17 12.5 28.5t30.5 11.5zM55 0l77 424q-53 5 -80 5l9 50q63 7 154 7l-18 -79l-19 -83h2q85 168 202 168q60 0 84.5 -44.5t10.5 -119.5l-50 -270q42 0 77 -8l-9 -50
h-149l57 322q19 108 -44 108t-128 -98t-97 -277l-10 -55h-69z" />
    <glyph glyph-name="Ncaron" unicode="&#x147;" horiz-adv-x="714" 
d="M-6 0l8 50q40 8 81 8l98 550q-37 0 -77 8l9 50h148l225 -464q24 -53 39 -97h2q6 54 15 104l70 399q-37 0 -77 8l9 50h222l-9 -50q-40 -8 -81 -8l-107 -608h-65l-231 477q-21 44 -36 88h-2q-5 -41 -14 -95l-74 -412q42 0 77 -8l-8 -50h-222zM424 725l-96 153h61l69 -89
l99 89h69l-152 -153h-50z" />
    <glyph glyph-name="ncaron" unicode="&#x148;" horiz-adv-x="556" 
d="M55 0l77 424q-53 5 -80 5l9 50q63 7 154 7l-18 -79l-19 -83h2q85 168 202 168q60 0 84.5 -44.5t10.5 -119.5l-50 -270q42 0 77 -8l-9 -50h-149l57 322q19 108 -44 108t-128 -98t-97 -277l-10 -55h-69zM307 539l-96 153h61l69 -89l99 89h69l-152 -153h-50z" />
    <glyph glyph-name="napostrophe" unicode="&#x149;" horiz-adv-x="766" 
d="M117 428l-29 26q55 53 55 92q0 16 -13.5 38t-13.5 40q0 23 15.5 38.5t38.5 15.5q25 0 43 -17.5t18 -48.5q0 -51 -36.5 -102t-77.5 -82zM265 0l77 424q-53 5 -80 5l9 50q63 7 154 7l-18 -79l-19 -83h2q85 168 202 168q60 0 84.5 -44.5t10.5 -119.5l-50 -270q42 0 77 -8
l-9 -50h-149l57 322q19 108 -44 108t-128 -98t-97 -277l-10 -55h-69z" />
    <glyph glyph-name="Omacron" unicode="&#x14c;" horiz-adv-x="722" 
d="M334 -12q-129 0 -204.5 84t-75.5 203q0 100 44 191.5t129 151.5t191 60q136 0 208 -83t72 -207q0 -100 -43 -190.5t-128 -150t-193 -59.5zM337 51q84 0 149.5 49.5t98.5 126t33 162.5q0 95 -53 160.5t-151 65.5q-126 0 -203 -101.5t-77 -237.5q0 -96 55 -160.5t148 -64.5
zM310 760l11 61h271l-11 -61h-271z" />
    <glyph glyph-name="omacron" unicode="&#x14d;" horiz-adv-x="478" 
d="M200 -12q-85 0 -127.5 59.5t-42.5 139.5q0 116 72.5 210.5t174.5 94.5q83 0 127 -57t44 -139q0 -122 -72.5 -215t-175.5 -93zM207 46q71 0 118.5 73.5t47.5 164.5q0 150 -100 150q-73 0 -121.5 -75t-48.5 -170q0 -66 26 -104.5t78 -38.5zM154 574l11 61h271l-11 -61h-271
z" />
    <glyph glyph-name="Obreve" unicode="&#x14e;" horiz-adv-x="722" 
d="M334 -12q-129 0 -204.5 84t-75.5 203q0 100 44 191.5t129 151.5t191 60q136 0 208 -83t72 -207q0 -100 -43 -190.5t-128 -150t-193 -59.5zM337 51q84 0 149.5 49.5t98.5 126t33 162.5q0 95 -53 160.5t-151 65.5q-126 0 -203 -101.5t-77 -237.5q0 -96 55 -160.5t148 -64.5
zM448 722q-59 0 -93.5 36.5t-29.5 105.5h61q-3 -38 12.5 -61t52.5 -23q32 0 56.5 22.5t32.5 61.5h64q-15 -70 -60 -106t-96 -36z" />
    <glyph glyph-name="obreve" unicode="&#x14f;" horiz-adv-x="478" 
d="M200 -12q-85 0 -127.5 59.5t-42.5 139.5q0 116 72.5 210.5t174.5 94.5q83 0 127 -57t44 -139q0 -122 -72.5 -215t-175.5 -93zM207 46q71 0 118.5 73.5t47.5 164.5q0 150 -100 150q-73 0 -121.5 -75t-48.5 -170q0 -66 26 -104.5t78 -38.5zM292 536q-59 0 -93.5 36.5
t-29.5 105.5h61q-3 -38 12.5 -61t52.5 -23q32 0 56.5 22.5t32.5 61.5h64q-15 -70 -60 -106t-96 -36z" />
    <glyph glyph-name="Ohungarumlaut" unicode="&#x150;" horiz-adv-x="722" 
d="M334 -12q-129 0 -204.5 84t-75.5 203q0 100 44 191.5t129 151.5t191 60q136 0 208 -83t72 -207q0 -100 -43 -190.5t-128 -150t-193 -59.5zM337 51q84 0 149.5 49.5t98.5 126t33 162.5q0 95 -53 160.5t-151 65.5q-126 0 -203 -101.5t-77 -237.5q0 -96 55 -160.5t148 -64.5
zM312 726l109 126h107l-151 -126h-65zM470 726l109 126h107l-151 -126h-65z" />
    <glyph glyph-name="ohungarumlaut" unicode="&#x151;" horiz-adv-x="478" 
d="M200 -12q-85 0 -127.5 59.5t-42.5 139.5q0 116 72.5 210.5t174.5 94.5q83 0 127 -57t44 -139q0 -122 -72.5 -215t-175.5 -93zM207 46q71 0 118.5 73.5t47.5 164.5q0 150 -100 150q-73 0 -121.5 -75t-48.5 -170q0 -66 26 -104.5t78 -38.5zM155 540l109 126h107l-151 -126
h-65zM313 540l109 126h107l-151 -126h-65z" />
    <glyph glyph-name="OE" unicode="&#x152;" horiz-adv-x="880" 
d="M332 -12q-130 0 -204 82.5t-74 204.5q0 100 44 191.5t130 151.5t193 60q76 0 114 -12h365l-29 -161h-63q0 38 9 101h-221l-42 -236h156q16 61 20 70h55l-36 -198h-55q-2 18 6 70h-156l-45 -252h226q9 61 26 101h64l-29 -161h-362q-44 -12 -92 -12zM336 53q48 0 88 15
l94 528q-38 17 -102 17q-128 0 -205 -100t-77 -237q0 -97 53 -160t149 -63z" />
    <glyph glyph-name="oe" unicode="&#x153;" horiz-adv-x="769" 
d="M200 -12q-85 0 -127.5 59.5t-42.5 139.5q0 75 31.5 144.5t89 115t126.5 45.5q57 0 96.5 -29t57.5 -78q77 107 190 107q56 0 90 -28t34 -81q0 -153 -313 -191v-22q0 -58 24 -90t71 -32q69 0 127 60l40 -46q-74 -74 -176 -74q-108 0 -144 95q-69 -95 -174 -95zM205 46
q72 0 122 74.5t50 163.5q0 72 -26.5 111t-77.5 39q-73 0 -123.5 -76.5t-50.5 -168.5q0 -65 27.5 -104t78.5 -39zM440 244q102 13 166 46.5t64 85.5q0 58 -63 58q-56 0 -102.5 -54t-64.5 -136z" />
    <glyph glyph-name="Racute" unicode="&#x154;" horiz-adv-x="598" 
d="M503 -8q-37 0 -59.5 14t-40.5 50l-71 145q-29 59 -54.5 83.5t-62.5 24.5h-10l-45 -251q42 0 77 -8l-8 -50h-235l8 50q40 8 81 8l98 550q-37 0 -77 8l9 50h253q88 0 137.5 -39.5t49.5 -111.5q0 -93 -63.5 -144.5t-167.5 -55.5v-2q40 -13 77 -83l68 -136q14 -26 31.5 -35.5
t47.5 -9.5h8q5 0 8 1l-8 -50q-21 -8 -51 -8zM215 366h100q78 0 118.5 40t40.5 104q0 96 -123 96h-93zM327 726l111 126h111l-152 -126h-70z" />
    <glyph glyph-name="racute" unicode="&#x155;" horiz-adv-x="377" 
d="M55 0l77 424q-53 5 -80 5l9 50q63 7 154 7l-18 -79q-16 -72 -20 -86h2q31 68 77.5 119.5t96.5 51.5q32 0 49 -9l-30 -68q-11 4 -28 4q-64 0 -121.5 -97t-88.5 -267l-10 -55h-69zM236 540l111 126h111l-152 -126h-70z" />
    <glyph glyph-name="Rcommaaccent" unicode="&#x156;" horiz-adv-x="598" 
d="M270 -50q21 0 35 -12.5t14 -34.5q0 -39 -27.5 -74t-61.5 -59l-24 20q43 37 43 63q0 11 -11 27t-11 30q0 17 12.5 28.5t30.5 11.5zM503 -8q-37 0 -59.5 14t-40.5 50l-71 145q-29 59 -54.5 83.5t-62.5 24.5h-10l-45 -251q42 0 77 -8l-8 -50h-235l8 50q40 8 81 8l98 550
q-37 0 -77 8l9 50h253q88 0 137.5 -39.5t49.5 -111.5q0 -93 -63.5 -144.5t-167.5 -55.5v-2q40 -13 77 -83l68 -136q14 -26 31.5 -35.5t47.5 -9.5h8q5 0 8 1l-8 -50q-21 -8 -51 -8zM215 366h100q78 0 118.5 40t40.5 104q0 96 -123 96h-93z" />
    <glyph glyph-name="rcommaaccent" unicode="&#x157;" horiz-adv-x="377" 
d="M72 -50q21 0 35 -12.5t14 -34.5q0 -39 -27.5 -74t-61.5 -59l-24 20q43 37 43 63q0 11 -11 27t-11 30q0 17 12.5 28.5t30.5 11.5zM55 0l77 424q-53 5 -80 5l9 50q63 7 154 7l-18 -79q-16 -72 -20 -86h2q31 68 77.5 119.5t96.5 51.5q32 0 49 -9l-30 -68q-11 4 -28 4
q-64 0 -121.5 -97t-88.5 -267l-10 -55h-69z" />
    <glyph glyph-name="Rcaron" unicode="&#x158;" horiz-adv-x="598" 
d="M503 -8q-37 0 -59.5 14t-40.5 50l-71 145q-29 59 -54.5 83.5t-62.5 24.5h-10l-45 -251q42 0 77 -8l-8 -50h-235l8 50q40 8 81 8l98 550q-37 0 -77 8l9 50h253q88 0 137.5 -39.5t49.5 -111.5q0 -93 -63.5 -144.5t-167.5 -55.5v-2q40 -13 77 -83l68 -136q14 -26 31.5 -35.5
t47.5 -9.5h8q5 0 8 1l-8 -50q-21 -8 -51 -8zM215 366h100q78 0 118.5 40t40.5 104q0 96 -123 96h-93zM340 725l-96 153h61l69 -89l99 89h69l-152 -153h-50z" />
    <glyph glyph-name="rcaron" unicode="&#x159;" horiz-adv-x="377" 
d="M55 0l77 424q-53 5 -80 5l9 50q63 7 154 7l-18 -79q-16 -72 -20 -86h2q31 68 77.5 119.5t96.5 51.5q32 0 49 -9l-30 -68q-11 4 -28 4q-64 0 -121.5 -97t-88.5 -267l-10 -55h-69zM250 539l-96 153h61l69 -89l99 89h69l-152 -153h-50z" />
    <glyph glyph-name="Sacute" unicode="&#x15a;" horiz-adv-x="474" 
d="M190 -12q-64 0 -113 18t-73 42l26 144h63q0 -24 -13 -115q46 -28 118 -28q64 0 106 36t42 88q0 34 -16 61t-36 41t-54 32q-30 16 -41.5 22t-35.5 24t-34 34t-19.5 42.5t-9.5 59.5q0 81 61 135t155 54q105 0 160 -41l-27 -151h-63q0 24 13 115q-39 16 -90 16
q-55 0 -93.5 -30.5t-38.5 -77.5q0 -34 16 -61t36 -41t54 -32q29 -15 41 -22t36 -24.5t34 -33.5t19.5 -43t9.5 -59q0 -89 -63.5 -147t-169.5 -58zM278 726l111 126h111l-152 -126h-70z" />
    <glyph glyph-name="sacute" unicode="&#x15b;" horiz-adv-x="410" 
d="M166 -12q-99 0 -145 40l22 122h57q0 -40 -8 -90q34 -14 81 -14q42 0 68 22t26 58q0 17 -6 31t-20 26t-23.5 18.5t-30.5 18.5q-45 25 -71 55t-26 81q0 60 44.5 98t118.5 38q88 0 130 -32l-23 -127h-57v15q0 27 8 75q-27 11 -61 11q-40 0 -64.5 -20.5t-24.5 -51.5
q0 -17 6 -31t20 -26t23.5 -18.5t30.5 -18.5q20 -13 28.5 -18.5t25 -19t23.5 -25.5t13.5 -31.5t6.5 -41.5q0 -62 -45.5 -103t-126.5 -41zM226 540l111 126h111l-152 -126h-70z" />
    <glyph glyph-name="Scircumflex" unicode="&#x15c;" horiz-adv-x="474" 
d="M190 -12q-64 0 -113 18t-73 42l26 144h63q0 -24 -13 -115q46 -28 118 -28q64 0 106 36t42 88q0 34 -16 61t-36 41t-54 32q-30 16 -41.5 22t-35.5 24t-34 34t-19.5 42.5t-9.5 59.5q0 81 61 135t155 54q105 0 160 -41l-27 -151h-63q0 24 13 115q-39 16 -90 16
q-55 0 -93.5 -30.5t-38.5 -77.5q0 -34 16 -61t36 -41t54 -32q29 -15 41 -22t36 -24.5t34 -33.5t19.5 -43t9.5 -59q0 -89 -63.5 -147t-169.5 -58zM169 727l147 153h50l92 -153h-61l-65 89l-94 -89h-69z" />
    <glyph glyph-name="scircumflex" unicode="&#x15d;" horiz-adv-x="410" 
d="M166 -12q-99 0 -145 40l22 122h57q0 -40 -8 -90q34 -14 81 -14q42 0 68 22t26 58q0 17 -6 31t-20 26t-23.5 18.5t-30.5 18.5q-45 25 -71 55t-26 81q0 60 44.5 98t118.5 38q88 0 130 -32l-23 -127h-57v15q0 27 8 75q-27 11 -61 11q-40 0 -64.5 -20.5t-24.5 -51.5
q0 -17 6 -31t20 -26t23.5 -18.5t30.5 -18.5q20 -13 28.5 -18.5t25 -19t23.5 -25.5t13.5 -31.5t6.5 -41.5q0 -62 -45.5 -103t-126.5 -41zM118 541l147 153h50l92 -153h-61l-65 89l-94 -89h-69z" />
    <glyph glyph-name="Scedilla" unicode="&#x15e;" horiz-adv-x="474" 
d="M190 -12q-64 0 -113 18t-73 42l26 144h63q0 -24 -13 -115q46 -28 118 -28q64 0 106 36t42 88q0 34 -16 61t-36 41t-54 32q-30 16 -41.5 22t-35.5 24t-34 34t-19.5 42.5t-9.5 59.5q0 81 61 135t155 54q105 0 160 -41l-27 -151h-63q0 24 13 115q-39 16 -90 16
q-55 0 -93.5 -30.5t-38.5 -77.5q0 -34 16 -61t36 -41t54 -32q29 -15 41 -22t36 -24.5t34 -33.5t19.5 -43t9.5 -59q0 -89 -63.5 -147t-169.5 -58zM155 -219q-36 0 -66 11l15 41q21 -9 50 -9q50 0 50 39q0 47 -71 41l36 96h51l-25 -66q31 -5 50.5 -24t19.5 -49
q0 -37 -31.5 -58.5t-78.5 -21.5z" />
    <glyph glyph-name="scedilla" unicode="&#x15f;" horiz-adv-x="410" 
d="M166 -12q-99 0 -145 40l22 122h57q0 -40 -8 -90q34 -14 81 -14q42 0 68 22t26 58q0 17 -6 31t-20 26t-23.5 18.5t-30.5 18.5q-45 25 -71 55t-26 81q0 60 44.5 98t118.5 38q88 0 130 -32l-23 -127h-57v15q0 27 8 75q-27 11 -61 11q-40 0 -64.5 -20.5t-24.5 -51.5
q0 -17 6 -31t20 -26t23.5 -18.5t30.5 -18.5q20 -13 28.5 -18.5t25 -19t23.5 -25.5t13.5 -31.5t6.5 -41.5q0 -62 -45.5 -103t-126.5 -41zM132 -219q-36 0 -66 11l15 41q21 -9 50 -9q50 0 50 39q0 47 -71 41l36 96h51l-25 -66q31 -5 50.5 -24t19.5 -49q0 -37 -31.5 -58.5
t-78.5 -21.5z" />
    <glyph glyph-name="Scaron" unicode="&#x160;" horiz-adv-x="474" 
d="M190 -12q-64 0 -113 18t-73 42l26 144h63q0 -24 -13 -115q46 -28 118 -28q64 0 106 36t42 88q0 34 -16 61t-36 41t-54 32q-30 16 -41.5 22t-35.5 24t-34 34t-19.5 42.5t-9.5 59.5q0 81 61 135t155 54q105 0 160 -41l-27 -151h-63q0 24 13 115q-39 16 -90 16
q-55 0 -93.5 -30.5t-38.5 -77.5q0 -34 16 -61t36 -41t54 -32q29 -15 41 -22t36 -24.5t34 -33.5t19.5 -43t9.5 -59q0 -89 -63.5 -147t-169.5 -58zM291 725l-96 153h61l69 -89l99 89h69l-152 -153h-50z" />
    <glyph glyph-name="scaron" unicode="&#x161;" horiz-adv-x="410" 
d="M166 -12q-99 0 -145 40l22 122h57q0 -40 -8 -90q34 -14 81 -14q42 0 68 22t26 58q0 17 -6 31t-20 26t-23.5 18.5t-30.5 18.5q-45 25 -71 55t-26 81q0 60 44.5 98t118.5 38q88 0 130 -32l-23 -127h-57v15q0 27 8 75q-27 11 -61 11q-40 0 -64.5 -20.5t-24.5 -51.5
q0 -17 6 -31t20 -26t23.5 -18.5t30.5 -18.5q20 -13 28.5 -18.5t25 -19t23.5 -25.5t13.5 -31.5t6.5 -41.5q0 -62 -45.5 -103t-126.5 -41zM240 539l-96 153h61l69 -89l99 89h69l-152 -153h-50z" />
    <glyph glyph-name="Tcommaaccent" unicode="&#x162;" horiz-adv-x="602" 
d="M141 0l8 50q40 8 81 8l98 548h-165q-10 -68 -28 -112h-63l31 172h551l-31 -172h-63q0 46 11 112h-166l-98 -548q42 0 77 -8l-8 -50h-235zM220 -219q-36 0 -66 11l15 41q21 -9 50 -9q50 0 50 39q0 47 -71 41l36 96h51l-25 -66q31 -5 50.5 -24t19.5 -49q0 -37 -31.5 -58.5
t-78.5 -21.5z" />
    <glyph glyph-name="tcommaaccent" unicode="&#x163;" horiz-adv-x="339" 
d="M158 -12q-59 0 -79 33t-8 99l56 302h-84l10 58h85l25 135l74 18l-28 -153h119l-10 -58h-119l-53 -286q-10 -39 -6.5 -63t28.5 -24q17 0 36.5 9.5t27.5 15.5t27 22l36 -48q-68 -60 -137 -60zM124 -219q-36 0 -66 11l15 41q21 -9 50 -9q50 0 50 39q0 47 -71 41l36 96h51
l-25 -66q31 -5 50.5 -24t19.5 -49q0 -37 -31.5 -58.5t-78.5 -21.5z" />
    <glyph glyph-name="Tcaron" unicode="&#x164;" horiz-adv-x="602" 
d="M141 0l8 50q40 8 81 8l98 548h-165q-10 -68 -28 -112h-63l31 172h551l-31 -172h-63q0 46 11 112h-166l-98 -548q42 0 77 -8l-8 -50h-235zM360 725l-96 153h61l69 -89l99 89h69l-152 -153h-50z" />
    <glyph glyph-name="tcaron" unicode="&#x165;" horiz-adv-x="339" 
d="M163 -12q-59 0 -79 33t-8 99l56 302h-84l10 58h85l25 135l74 18l-28 -153h119l-10 -58h-119l-53 -286q-10 -39 -6.5 -63t28.5 -24q17 0 36.5 9.5t27.5 15.5t27 22l36 -48q-68 -60 -137 -60zM260 554l71 166h91l-106 -166h-56z" />
    <glyph glyph-name="Utilde" unicode="&#x168;" horiz-adv-x="717" 
d="M330 -12q-109 0 -165.5 53.5t-56.5 146.5q0 30 6 61l63 359q-37 0 -77 8l9 50h234l-9 -50q-40 -8 -81 -8l-61 -349q-19 -106 16 -156.5t128 -50.5q90 0 139.5 50t67.5 152l62 354q-37 0 -77 8l9 50h222l-9 -50q-40 -8 -81 -8l-65 -367q-23 -124 -86 -188.5t-188 -64.5z
M490 729q-25 0 -54 19.5t-47 19.5q-21 0 -53 -29l-30 35q44 58 95 58q25 0 54 -19.5t47 -19.5q28 0 55 29l31 -34q-48 -59 -98 -59z" />
    <glyph glyph-name="utilde" unicode="&#x169;" horiz-adv-x="555" 
d="M174 -12q-60 0 -84.5 44t-10.5 120l49 272q-53 5 -79 5l9 50q63 7 152 7l-58 -327q-19 -109 45 -109q62 0 126.5 94t94.5 259l4 21q-53 5 -82 5l9 50q63 7 153 7l-50 -277q-12 -66 -24 -151q43 0 78 -8l-9 -50h-144q12 92 28 160h-2q-18 -34 -33.5 -57.5t-41.5 -53
t-59 -45.5t-71 -16zM364 543q-25 0 -54 19.5t-47 19.5q-21 0 -53 -29l-30 35q44 58 95 58q25 0 54 -19.5t47 -19.5q28 0 55 29l31 -34q-48 -59 -98 -59z" />
    <glyph glyph-name="Umacron" unicode="&#x16a;" horiz-adv-x="717" 
d="M330 -12q-109 0 -165.5 53.5t-56.5 146.5q0 30 6 61l63 359q-37 0 -77 8l9 50h234l-9 -50q-40 -8 -81 -8l-61 -349q-19 -106 16 -156.5t128 -50.5q90 0 139.5 50t67.5 152l62 354q-37 0 -77 8l9 50h222l-9 -50q-40 -8 -81 -8l-65 -367q-23 -124 -86 -188.5t-188 -64.5z
M310 760l11 61h271l-11 -61h-271z" />
    <glyph glyph-name="umacron" unicode="&#x16b;" horiz-adv-x="555" 
d="M174 -12q-60 0 -84.5 44t-10.5 120l49 272q-53 5 -79 5l9 50q63 7 152 7l-58 -327q-19 -109 45 -109q62 0 126.5 94t94.5 259l4 21q-53 5 -82 5l9 50q63 7 153 7l-50 -277q-12 -66 -24 -151q43 0 78 -8l-9 -50h-144q12 92 28 160h-2q-18 -34 -33.5 -57.5t-41.5 -53
t-59 -45.5t-71 -16zM184 574l11 61h271l-11 -61h-271z" />
    <glyph glyph-name="Ubreve" unicode="&#x16c;" horiz-adv-x="717" 
d="M330 -12q-109 0 -165.5 53.5t-56.5 146.5q0 30 6 61l63 359q-37 0 -77 8l9 50h234l-9 -50q-40 -8 -81 -8l-61 -349q-19 -106 16 -156.5t128 -50.5q90 0 139.5 50t67.5 152l62 354q-37 0 -77 8l9 50h222l-9 -50q-40 -8 -81 -8l-65 -367q-23 -124 -86 -188.5t-188 -64.5z
M448 722q-59 0 -93.5 36.5t-29.5 105.5h61q-3 -38 12.5 -61t52.5 -23q32 0 56.5 22.5t32.5 61.5h64q-15 -70 -60 -106t-96 -36z" />
    <glyph glyph-name="ubreve" unicode="&#x16d;" horiz-adv-x="555" 
d="M174 -12q-60 0 -84.5 44t-10.5 120l49 272q-53 5 -79 5l9 50q63 7 152 7l-58 -327q-19 -109 45 -109q62 0 126.5 94t94.5 259l4 21q-53 5 -82 5l9 50q63 7 153 7l-50 -277q-12 -66 -24 -151q43 0 78 -8l-9 -50h-144q12 92 28 160h-2q-18 -34 -33.5 -57.5t-41.5 -53
t-59 -45.5t-71 -16zM322 536q-59 0 -93.5 36.5t-29.5 105.5h61q-3 -38 12.5 -61t52.5 -23q32 0 56.5 22.5t32.5 61.5h64q-15 -70 -60 -106t-96 -36z" />
    <glyph glyph-name="Uring" unicode="&#x16e;" horiz-adv-x="717" 
d="M330 -12q-109 0 -165.5 53.5t-56.5 146.5q0 30 6 61l63 359q-37 0 -77 8l9 50h234l-9 -50q-40 -8 -81 -8l-61 -349q-19 -106 16 -156.5t128 -50.5q90 0 139.5 50t67.5 152l62 354q-37 0 -77 8l9 50h222l-9 -50q-40 -8 -81 -8l-65 -367q-23 -124 -86 -188.5t-188 -64.5z
M460 731q-39 0 -66.5 26.5t-27.5 67.5t27.5 68.5t66.5 27.5t66.5 -27t27.5 -68t-27.5 -68t-66.5 -27zM460 771q23 0 36 15.5t13 39.5q0 25 -13 40t-36 15t-36 -15t-13 -40q0 -24 13 -39.5t36 -15.5z" />
    <glyph glyph-name="uring" unicode="&#x16f;" horiz-adv-x="555" 
d="M174 -12q-60 0 -84.5 44t-10.5 120l49 272q-53 5 -79 5l9 50q63 7 152 7l-58 -327q-19 -109 45 -109q62 0 126.5 94t94.5 259l4 21q-53 5 -82 5l9 50q63 7 153 7l-50 -277q-12 -66 -24 -151q43 0 78 -8l-9 -50h-144q12 92 28 160h-2q-18 -34 -33.5 -57.5t-41.5 -53
t-59 -45.5t-71 -16zM334 545q-39 0 -66.5 26.5t-27.5 67.5t27.5 68.5t66.5 27.5t66.5 -27t27.5 -68t-27.5 -68t-66.5 -27zM334 585q23 0 36 15.5t13 39.5q0 25 -13 40t-36 15t-36 -15t-13 -40q0 -24 13 -39.5t36 -15.5z" />
    <glyph glyph-name="Uhungarumlaut" unicode="&#x170;" horiz-adv-x="717" 
d="M330 -12q-109 0 -165.5 53.5t-56.5 146.5q0 30 6 61l63 359q-37 0 -77 8l9 50h234l-9 -50q-40 -8 -81 -8l-61 -349q-19 -106 16 -156.5t128 -50.5q90 0 139.5 50t67.5 152l62 354q-37 0 -77 8l9 50h222l-9 -50q-40 -8 -81 -8l-65 -367q-23 -124 -86 -188.5t-188 -64.5z
M312 726l109 126h107l-151 -126h-65zM470 726l109 126h107l-151 -126h-65z" />
    <glyph glyph-name="uhungarumlaut" unicode="&#x171;" horiz-adv-x="555" 
d="M174 -12q-60 0 -84.5 44t-10.5 120l49 272q-53 5 -79 5l9 50q63 7 152 7l-58 -327q-19 -109 45 -109q62 0 126.5 94t94.5 259l4 21q-53 5 -82 5l9 50q63 7 153 7l-50 -277q-12 -66 -24 -151q43 0 78 -8l-9 -50h-144q12 92 28 160h-2q-18 -34 -33.5 -57.5t-41.5 -53
t-59 -45.5t-71 -16zM186 540l109 126h107l-151 -126h-65zM344 540l109 126h107l-151 -126h-65z" />
    <glyph glyph-name="Uogonek" unicode="&#x172;" horiz-adv-x="717" 
d="M340 -219q-45 0 -67.5 21t-22.5 55q0 79 79 131q-108 0 -164.5 53.5t-56.5 146.5q0 30 6 61l63 359q-37 0 -77 8l9 50h234l-9 -50q-40 -8 -81 -8l-61 -349q-19 -106 16 -156.5t128 -50.5q90 0 139.5 50t67.5 152l62 354q-37 0 -77 8l9 50h222l-9 -50q-40 -8 -81 -8
l-65 -367q-30 -165 -135 -222l-24 -12t-25 -13t-22.5 -12.5t-23.5 -14.5t-18.5 -15t-17.5 -18t-12 -18.5t-9.5 -22t-2.5 -24.5q0 -38 43 -38q26 0 44 7l7 -40q-32 -17 -68 -17z" />
    <glyph glyph-name="uogonek" unicode="&#x173;" horiz-adv-x="555" 
d="M174 -12q-60 0 -84.5 44t-10.5 120l49 272q-53 5 -79 5l9 50q63 7 152 7l-58 -327q-19 -109 45 -109q62 0 126.5 94t94.5 259l4 21q-53 5 -82 5l9 50q63 7 153 7l-50 -277q-12 -66 -24 -151q43 0 78 -8l-9 -50h-144q12 92 28 160h-2q-18 -34 -33.5 -57.5t-41.5 -53
t-59 -45.5t-71 -16zM404 -219q-45 0 -67.5 21t-22.5 55q0 73 88 143h50l-11 -12q-11 -12 -13 -14.5t-11.5 -14t-12.5 -16.5t-10 -16t-9 -19t-4.5 -18.5t-2.5 -20.5q0 -38 43 -38q26 0 44 7l7 -40q-32 -17 -68 -17z" />
    <glyph glyph-name="Ydieresis" unicode="&#x178;" horiz-adv-x="595" 
d="M143 0l8 50q40 8 81 8l35 193l-123 357q-39 0 -79 8l9 50h233l-9 -50q-7 -1 -18 -2.5t-28 -3t-26 -2.5l93 -288h1l191 288q-68 8 -70 8l9 50h225l-9 -50q-40 -8 -78 -8l-244 -356l-35 -194q42 0 77 -8l-8 -50h-235zM301 727q-21 0 -35.5 14.5t-14.5 36.5q0 21 14.5 35.5
t35.5 14.5q23 0 37 -14.5t14 -35.5q0 -22 -14.5 -36.5t-36.5 -14.5zM484 727q-21 0 -35.5 14.5t-14.5 36.5q0 21 14.5 35.5t35.5 14.5q23 0 37 -14.5t14 -35.5q0 -22 -14.5 -36.5t-36.5 -14.5z" />
    <glyph glyph-name="Zacute" unicode="&#x179;" horiz-adv-x="543" 
d="M-4 0l10 55l447 547h-261q-11 -49 -27 -108h-64l31 172h430l-10 -51l-452 -551h294q20 89 28 109h64l-31 -173h-459zM315 726l111 126h111l-152 -126h-70z" />
    <glyph glyph-name="zacute" unicode="&#x17a;" horiz-adv-x="461" 
d="M12 0l8 46l329 377h-189q-10 -60 -24 -91h-57l26 148h344l-8 -49l-329 -374h213q10 60 24 91h57l-27 -148h-367zM244 540l111 126h111l-152 -126h-70z" />
    <glyph glyph-name="Zdotaccent" unicode="&#x17b;" horiz-adv-x="543" 
d="M-4 0l10 55l447 547h-261q-11 -49 -27 -108h-64l31 172h430l-10 -51l-452 -551h294q20 89 28 109h64l-31 -173h-459zM365 749q-23 0 -39 17t-16 40q0 24 16 41t39 17t39.5 -16.5t16.5 -40.5t-16.5 -41t-39.5 -17z" />
    <glyph glyph-name="zdotaccent" unicode="&#x17c;" horiz-adv-x="461" 
d="M12 0l8 46l329 377h-189q-10 -60 -24 -91h-57l26 148h344l-8 -49l-329 -374h213q10 60 24 91h57l-27 -148h-367zM295 563q-23 0 -39 17t-16 40q0 24 16 41t39 17t39.5 -16.5t16.5 -40.5t-16.5 -41t-39.5 -17z" />
    <glyph glyph-name="Zcaron" unicode="&#x17d;" horiz-adv-x="543" 
d="M-4 0l10 55l447 547h-261q-11 -49 -27 -108h-64l31 172h430l-10 -51l-452 -551h294q20 89 28 109h64l-31 -173h-459zM328 725l-96 153h61l69 -89l99 89h69l-152 -153h-50z" />
    <glyph glyph-name="zcaron" unicode="&#x17e;" horiz-adv-x="461" 
d="M12 0l8 46l329 377h-189q-10 -60 -24 -91h-57l26 148h344l-8 -49l-329 -374h213q10 60 24 91h57l-27 -148h-367zM258 539l-96 153h61l69 -89l99 89h69l-152 -153h-50z" />
    <glyph glyph-name="Scommaaccent" unicode="&#x218;" horiz-adv-x="474" 
d="M195 -50q21 0 35 -12.5t14 -34.5q0 -39 -27.5 -74t-61.5 -59l-24 20q43 37 43 63q0 11 -11 27t-11 30q0 17 12.5 28.5t30.5 11.5zM190 -12q-64 0 -113 18t-73 42l26 144h63q0 -24 -13 -115q46 -28 118 -28q64 0 106 36t42 88q0 34 -16 61t-36 41t-54 32q-30 16 -41.5 22
t-35.5 24t-34 34t-19.5 42.5t-9.5 59.5q0 81 61 135t155 54q105 0 160 -41l-27 -151h-63q0 24 13 115q-39 16 -90 16q-55 0 -93.5 -30.5t-38.5 -77.5q0 -34 16 -61t36 -41t54 -32q29 -15 41 -22t36 -24.5t34 -33.5t19.5 -43t9.5 -59q0 -89 -63.5 -147t-169.5 -58z" />
    <glyph glyph-name="scommaaccent" unicode="&#x219;" horiz-adv-x="410" 
d="M153 -50q21 0 35 -12.5t14 -34.5q0 -39 -27.5 -74t-61.5 -59l-24 20q43 37 43 63q0 11 -11 27t-11 30q0 17 12.5 28.5t30.5 11.5zM166 -12q-99 0 -145 40l22 122h57q0 -40 -8 -90q34 -14 81 -14q42 0 68 22t26 58q0 17 -6 31t-20 26t-23.5 18.5t-30.5 18.5q-45 25 -71 55
t-26 81q0 60 44.5 98t118.5 38q88 0 130 -32l-23 -127h-57v15q0 27 8 75q-27 11 -61 11q-40 0 -64.5 -20.5t-24.5 -51.5q0 -17 6 -31t20 -26t23.5 -18.5t30.5 -18.5q20 -13 28.5 -18.5t25 -19t23.5 -25.5t13.5 -31.5t6.5 -41.5q0 -62 -45.5 -103t-126.5 -41z" />
    <glyph glyph-name="uni021A" unicode="&#x21a;" horiz-adv-x="602" 
d="M241 -50q21 0 35 -12.5t14 -34.5q0 -39 -27.5 -74t-61.5 -59l-24 20q43 37 43 63q0 11 -11 27t-11 30q0 17 12.5 28.5t30.5 11.5zM141 0l8 50q40 8 81 8l98 548h-165q-10 -68 -28 -112h-63l31 172h551l-31 -172h-63q0 46 11 112h-166l-98 -548q42 0 77 -8l-8 -50h-235z
" />
    <glyph glyph-name="uni021B" unicode="&#x21b;" horiz-adv-x="339" 
d="M149 -50q21 0 35 -12.5t14 -34.5q0 -39 -27.5 -74t-61.5 -59l-24 20q43 37 43 63q0 11 -11 27t-11 30q0 17 12.5 28.5t30.5 11.5zM163 -12q-59 0 -79 33t-8 99l56 302h-84l10 58h85l25 135l74 18l-28 -153h119l-10 -58h-119l-53 -286q-10 -39 -6.5 -63t28.5 -24
q17 0 36.5 9.5t27.5 15.5t27 22l36 -48q-68 -60 -137 -60z" />
    <glyph glyph-name="circumflex" unicode="&#x2c6;" horiz-adv-x="500" 
d="M157 541l147 153h50l92 -153h-61l-65 89l-94 -89h-69z" />
    <glyph glyph-name="caron" unicode="&#x2c7;" horiz-adv-x="500" 
d="M276 539l-96 153h61l69 -89l99 89h69l-152 -153h-50z" />
    <glyph glyph-name="breve" unicode="&#x2d8;" horiz-adv-x="500" 
d="M310 536q-59 0 -93.5 36.5t-29.5 105.5h61q-3 -38 12.5 -61t52.5 -23q32 0 56.5 22.5t32.5 61.5h64q-15 -70 -60 -106t-96 -36z" />
    <glyph glyph-name="dotaccent" unicode="&#x2d9;" horiz-adv-x="500" 
d="M315 563q-23 0 -39 17t-16 40q0 24 16 41t39 17t39.5 -16.5t16.5 -40.5t-16.5 -41t-39.5 -17z" />
    <glyph glyph-name="ring" unicode="&#x2da;" horiz-adv-x="500" 
d="M320 545q-39 0 -66.5 26.5t-27.5 67.5t27.5 68.5t66.5 27.5t66.5 -27t27.5 -68t-27.5 -68t-66.5 -27zM320 585q23 0 36 15.5t13 39.5q0 25 -13 40t-36 15t-36 -15t-13 -40q0 -24 13 -39.5t36 -15.5z" />
    <glyph glyph-name="ogonek" unicode="&#x2db;" horiz-adv-x="500" 
d="M191 -219q-45 0 -67.5 21t-22.5 55q0 73 88 143h50l-11 -12q-11 -12 -13 -14.5t-11.5 -14t-12.5 -16.5t-10 -16t-9 -19t-4.5 -18.5t-2.5 -20.5q0 -38 43 -38q26 0 44 7l7 -40q-32 -17 -68 -17z" />
    <glyph glyph-name="tilde" unicode="&#x2dc;" horiz-adv-x="500" 
d="M355 543q-25 0 -54 19.5t-47 19.5q-21 0 -53 -29l-30 35q43 58 95 58q25 0 54 -19.5t47 -19.5q28 0 55 29l31 -34q-48 -59 -98 -59z" />
    <glyph glyph-name="hungarumlaut" unicode="&#x2dd;" horiz-adv-x="500" 
d="M76 540l109 126h107l-151 -126h-65zM234 540l109 126h107l-151 -126h-65z" />
    <glyph glyph-name="uni0394" unicode="&#x394;" horiz-adv-x="605" 
d="M-8 0l9 52l328 614h73l131 -614l-9 -52h-532zM87 66h366l-83 393q-11 56 -19 119h-2q-43 -96 -55 -119z" />
    <glyph glyph-name="uni03A9" unicode="&#x3a9;" horiz-adv-x="736" 
d="M18 0l12 66h136q-100 87 -100 218q0 168 106.5 281t250.5 113q115 0 195.5 -76.5t80.5 -197.5q0 -108 -51.5 -195.5t-142.5 -142.5h144l-12 -66h-236l11 64q91 50 149 135t58 197q0 90 -56.5 153.5t-145.5 63.5q-119 0 -195 -96t-76 -229q0 -139 103 -224l-11 -64h-220z
" />
    <glyph glyph-name="uni03BC" unicode="&#x3bc;" horiz-adv-x="531" 
d="M12 -218l127 698h72l-59 -328q-18 -98 67 -98q66 0 143 88l61 338h72l-69 -382q-11 -53 -6 -98h-72q-2 19 -1 33q2 24 4 37q-12 -15 -26 -29q-53 -53 -125 -53q-52 0 -77 27h-1q-7 -62 -14 -104l-23 -129h-73z" />
    <glyph glyph-name="uni1E9E" unicode="&#x1e9e;" horiz-adv-x="714" 
d="M-13 0l8 50q38 8 85 8l58 329q52 290 332 290q124 0 230 -31l-8 -43l-185 -223l35 -25q56 -42 86 -83t30 -97q0 -78 -61 -132t-163 -54q-103 0 -170 44l28 56q58 -40 142 -40q69 0 108 35t39 88q0 37 -22 68.5t-74 67.5l-78 53l199 238q-65 18 -145 18q-206 0 -247 -235
l-57 -324q11 0 18 -1l21 -2q9 -1 21 -3.5t14 -2.5l-9 -49h-235z" />
    <glyph glyph-name="uni2007" unicode="&#x2007;" 
 />
    <glyph glyph-name="uni2008" unicode="&#x2008;" horiz-adv-x="216" 
 />
    <glyph glyph-name="uni200B" unicode="&#x200b;" horiz-adv-x="0" 
 />
    <glyph glyph-name="endash" unicode="&#x2013;" horiz-adv-x="561" 
d="M50 244l11 61h457l-11 -61h-457z" />
    <glyph glyph-name="emdash" unicode="&#x2014;" horiz-adv-x="868" 
d="M50 244l11 61h764l-11 -61h-764z" />
    <glyph glyph-name="quoteleft" unicode="&#x2018;" horiz-adv-x="210" 
d="M155 434q-25 0 -43 17.5t-18 48.5q0 50 36.5 102t77.5 82l29 -26q-55 -53 -55 -92q0 -16 13.5 -38t13.5 -40q0 -23 -15.5 -38.5t-38.5 -15.5z" />
    <glyph glyph-name="quoteright" unicode="&#x2019;" horiz-adv-x="210" 
d="M117 428l-29 26q55 53 55 92q0 16 -13.5 38t-13.5 40q0 23 15.5 38.5t38.5 15.5q25 0 43 -17.5t18 -48.5q0 -51 -36.5 -102t-77.5 -82z" />
    <glyph glyph-name="quotesinglbase" unicode="&#x201a;" horiz-adv-x="210" 
d="M15 -141l-29 26q55 53 55 92q0 15 -13.5 37t-13.5 41q0 23 15.5 38.5t38.5 15.5q25 0 43 -17.5t18 -48.5q0 -51 -36.5 -102t-77.5 -82z" />
    <glyph glyph-name="quotedblleft" unicode="&#x201c;" horiz-adv-x="378" 
d="M155 434q-25 0 -43 17.5t-18 48.5q0 50 36.5 102t77.5 82l29 -26q-55 -53 -55 -92q0 -16 13.5 -38t13.5 -40q0 -23 -15.5 -38.5t-38.5 -15.5zM323 434q-25 0 -43 17.5t-18 48.5q0 50 36.5 102t77.5 82l29 -26q-55 -53 -55 -92q0 -16 13.5 -38t13.5 -40q0 -23 -15.5 -38.5
t-38.5 -15.5z" />
    <glyph glyph-name="quotedblright" unicode="&#x201d;" horiz-adv-x="378" 
d="M117 428l-29 26q55 53 55 92q0 16 -13.5 38t-13.5 40q0 23 15.5 38.5t38.5 15.5q25 0 43 -17.5t18 -48.5q0 -51 -36.5 -102t-77.5 -82zM285 428l-29 26q55 53 55 92q0 16 -13.5 38t-13.5 40q0 23 15.5 38.5t38.5 15.5q25 0 43 -17.5t18 -48.5q0 -51 -36.5 -102t-77.5 -82
z" />
    <glyph glyph-name="quotedblbase" unicode="&#x201e;" horiz-adv-x="378" 
d="M15 -141l-29 26q55 53 55 92q0 15 -13.5 37t-13.5 41q0 23 15.5 38.5t38.5 15.5q25 0 43 -17.5t18 -48.5q0 -51 -36.5 -102t-77.5 -82zM183 -141l-29 26q55 53 55 92q0 15 -13.5 37t-13.5 41q0 23 15.5 38.5t38.5 15.5q25 0 43 -17.5t18 -48.5q0 -51 -36.5 -102
t-77.5 -82z" />
    <glyph glyph-name="bullet" unicode="&#x2022;" horiz-adv-x="355" 
d="M181 162q-51 0 -86.5 36t-35.5 88q0 51 35.5 88t86.5 37t87 -37t36 -88q0 -52 -35.5 -88t-87.5 -36z" />
    <glyph glyph-name="ellipsis" unicode="&#x2026;" horiz-adv-x="617" 
d="M78 -9q-26 0 -43.5 17.5t-17.5 42.5q0 24 17.5 41.5t43.5 17.5q24 0 41.5 -17.5t17.5 -41.5q0 -25 -17.5 -42.5t-41.5 -17.5zM279 -9q-26 0 -43.5 17.5t-17.5 42.5q0 24 17.5 41.5t43.5 17.5q24 0 41.5 -17.5t17.5 -41.5q0 -25 -17.5 -42.5t-41.5 -17.5zM479 -9
q-26 0 -43.5 17.5t-17.5 42.5q0 24 17.5 41.5t43.5 17.5q24 0 41.5 -17.5t17.5 -41.5q0 -25 -17.5 -42.5t-41.5 -17.5z" />
    <glyph glyph-name="guilsinglleft" unicode="&#x2039;" horiz-adv-x="272" 
d="M130 56l-100 189l167 190h80l-171 -196l96 -183h-72z" />
    <glyph glyph-name="guilsinglright" unicode="&#x203a;" horiz-adv-x="272" 
d="M-1 56l167 195l-96 184h72l100 -191l-163 -188h-80z" />
    <glyph glyph-name="Euro" unicode="&#x20ac;" horiz-adv-x="555" 
d="M327 -12q-106 0 -164 67.5t-64 170.5h-79l10 58h69q1 35 10 82h-64l10 58h69q37 115 120 184.5t192 69.5q98 0 151 -40l-40 -59q-52 34 -119 34q-79 0 -137 -51t-87 -138h179l-10 -58h-185q-9 -47 -10 -82h180l-10 -58h-170q14 -172 157 -172q63 0 130 40l27 -60
q-75 -46 -165 -46z" />
    <glyph glyph-name="trademark" unicode="&#x2122;" horiz-adv-x="747" 
d="M321 375l6 34q19 3 41 4l60 215q-13 0 -41 4l6 34h105l37 -171q2 -9 9 -56h2q5 9 13.5 27t15.5 30l97 170h107l-6 -34q-28 -4 -43 -4l-13 -215q15 -1 36 -4l-6 -34h-121l6 34q4 0 15.5 1.5t16.5 1.5l11 128q2 10 4 31.5t3 31.5h-2q-15 -42 -33 -70l-92 -158h-45l-33 150
q-3 13 -5 26.5t-3 29t-2 22.5h-2q-1 -4 -6 -27.5t-9 -37.5l-34 -126q7 0 18.5 -1.5t15.5 -1.5l-6 -34h-123zM104 375l6 34q36 4 52 4l36 208h-51q-4 -28 -13 -51h-40l17 96h244l-17 -96h-40q0 1 1.5 20.5t3.5 30.5h-51l-36 -208q17 0 49 -4l-6 -34h-155z" />
    <glyph glyph-name="Omega" unicode="&#x2126;" horiz-adv-x="736" 
d="M18 0l12 66h136q-100 87 -100 218q0 168 106.5 281t250.5 113q115 0 195.5 -76.5t80.5 -197.5q0 -108 -51.5 -195.5t-142.5 -142.5h144l-12 -66h-236l11 64q91 50 149 135t58 197q0 90 -56.5 153.5t-145.5 63.5q-119 0 -195 -96t-76 -229q0 -139 103 -224l-11 -64h-220z
" />
    <glyph glyph-name="increment" unicode="&#x2206;" horiz-adv-x="605" 
d="M-8 0l9 52l328 614h73l131 -614l-9 -52h-532zM87 66h366l-83 393q-11 56 -19 119h-2q-43 -96 -55 -119z" />
    <glyph glyph-name="f.sc" unicode="&#xa730;" horiz-adv-x="467" 
d="M-7 0l8 50q40 8 80 8l75 396q-44 0 -76 8l9 50h397l-26 -139h-58q0 36 7 81h-179l-34 -179h112q13 46 18 56h50l-31 -166h-50q-1 13 4 55h-113l-30 -162q41 0 76 -8l-8 -50h-231z" />
    <glyph glyph-name="zero.osf" unicode="&#xeb00;" horiz-adv-x="530" 
d="M231 -12q-89 0 -137 63.5t-48 146.5q0 118 75.5 206t185.5 88q95 0 140 -60.5t45 -144.5q0 -121 -74 -210t-187 -89zM238 49q80 0 130.5 69t50.5 166q0 64 -28 106t-91 42q-76 0 -128.5 -68t-52.5 -162q0 -73 31 -113t88 -40z" />
    <glyph glyph-name="one.osf" unicode="&#xeb01;" horiz-adv-x="385" 
d="M20 0l8 50q42 8 124 8l65 352l-122 -36l-15 60l164 46h56l-78 -422q78 0 118 -8l-8 -50h-312z" />
    <glyph glyph-name="two.osf" unicode="&#xeb02;" horiz-adv-x="466" 
d="M0 0l4 38q54 37 82 56t69 49.5t61.5 48t46 42.5t36.5 43.5t19.5 40.5t8.5 44q0 32 -21.5 50t-59.5 18q-64 0 -130 -49l-34 46q82 65 169 65q70 0 110.5 -32.5t40.5 -91.5q0 -38 -21.5 -79t-46.5 -69.5t-71 -65.5t-68 -52t-66 -43q57 3 67 3h192l-10 -62h-378z" />
    <glyph glyph-name="three.osf" unicode="&#xeb03;" horiz-adv-x="439" 
d="M71 -188q-44 0 -89 12l17 58q33 -9 77 -9q86 0 141.5 43.5t55.5 117.5q0 64 -47 92t-122 28l8 52q74 0 136.5 41.5t62.5 107.5q0 32 -22.5 53.5t-63.5 21.5q-63 0 -122 -44l-34 46q75 60 166 60q73 0 113.5 -37.5t40.5 -92.5q0 -63 -51 -111.5t-115 -66.5v-1
q54 -10 92 -49t38 -94q0 -101 -83.5 -164.5t-198.5 -63.5z" />
    <glyph glyph-name="four.osf" unicode="&#xeb04;" horiz-adv-x="526" 
d="M254 -177l33 177h-299l6 47l390 433h63l-78 -419h107l-10 -61h-108l-33 -177h-71zM84 61h215l57 301h-2z" />
    <glyph glyph-name="five.osf" unicode="&#xeb05;" horiz-adv-x="429" 
d="M81 -188q-44 0 -89 12l16 56q33 -9 78 -9q88 0 143 46.5t55 124.5q0 145 -203 145h-2l56 293h288l-10 -59h-216l-36 -179q88 -6 145 -59t57 -133q0 -109 -79.5 -173.5t-202.5 -64.5z" />
    <glyph glyph-name="six.osf" unicode="&#xeb06;" horiz-adv-x="527" 
d="M250 -12q-87 0 -137.5 64.5t-50.5 176.5q0 82 30.5 161t86 144t145 104.5t198.5 39.5l7 -61q-156 0 -264 -89q-89 -74 -117 -192q66 59 152 59q82 0 130.5 -45t48.5 -121q0 -101 -65 -171t-164 -70zM255 48q69 0 110.5 52t41.5 125q0 51 -29 80.5t-87 29.5
q-86 0 -154 -62q-2 -30 -2 -46q0 -85 30.5 -132t89.5 -47z" />
    <glyph glyph-name="seven.osf" unicode="&#xeb07;" horiz-adv-x="489" 
d="M91 -200l-59 33l371 586h-263q-11 -66 -29 -112h-57l31 173h406l-8 -52z" />
    <glyph glyph-name="eight.osf" unicode="&#xeb08;" horiz-adv-x="495" 
d="M209 -12q-84 0 -129.5 46t-45.5 108q0 128 172 206q-97 75 -97 152q0 78 58.5 128t138.5 50q81 0 125 -41.5t44 -98.5q0 -58 -38.5 -102t-117.5 -84q112 -78 112 -166q0 -84 -66.5 -141t-155.5 -57zM213 50q56 0 99.5 38.5t43.5 94.5q0 37 -24.5 67.5t-79.5 67.5
q-144 -69 -144 -169q0 -44 28.5 -71.5t76.5 -27.5zM302 619q-47 0 -82.5 -31.5t-35.5 -80.5q0 -62 88 -124q128 64 128 146q0 37 -25.5 63.5t-72.5 26.5z" />
    <glyph glyph-name="nine.osf" unicode="&#xeb09;" horiz-adv-x="505" 
d="M-1 -186l-7 60q145 0 249 79q89 70 123 182q-65 -49 -138 -49q-83 0 -128.5 48.5t-45.5 123.5q0 98 66.5 166t159.5 68q90 0 135 -57.5t45 -151.5q0 -211 -127.5 -340t-331.5 -129zM236 142q71 0 142 53q7 35 7 84q0 155 -111 155q-60 0 -104.5 -48t-44.5 -124
q0 -53 28 -86.5t83 -33.5z" />
    <glyph glyph-name="zero.lf" unicode="&#xeb0a;" horiz-adv-x="586" 
d="M257 -12q-54 0 -94 21t-62.5 58.5t-33.5 83.5t-11 101q0 73 19 146.5t55.5 137t96.5 103t133 39.5q103 0 153 -72.5t50 -181.5t-33 -206t-104.5 -163.5t-168.5 -66.5zM264 51q66 0 117 54t77 138t26 180q0 192 -132 192q-65 0 -117 -55.5t-77.5 -137t-25.5 -168.5
q0 -203 132 -203z" />
    <glyph glyph-name="one.lf" unicode="&#xeb0b;" horiz-adv-x="378" 
d="M-8 0l10 56q46 9 135 9l92 532l-132 -43l-16 60l172 52h61l-104 -601q87 0 132 -9l-10 -56h-340z" />
    <glyph glyph-name="two.lf" unicode="&#xeb0c;" horiz-adv-x="502" 
d="M-2 0l8 43q100 83 158 136t116.5 116.5t84.5 117.5t26 106q0 45 -27 69.5t-73 24.5q-75 0 -150 -60l-40 48q89 77 198 77q81 0 127.5 -40t46.5 -111q0 -41 -13.5 -82.5t-44.5 -84.5t-58.5 -75.5t-79 -78.5t-80.5 -70.5t-87 -71.5q38 2 77 2h192q17 73 24 89h62l-27 -155
h-440z" />
    <glyph glyph-name="three.lf" unicode="&#xeb0d;" horiz-adv-x="455" 
d="M103 -12q-59 0 -92 9l15 64q24 -8 81 -8q100 0 155.5 41t55.5 118q0 62 -50.5 90t-136.5 26l8 53q99 13 157.5 52t58.5 106q0 34 -24 53t-68 19q-78 0 -140 -41l-32 49q79 59 183 59q79 0 119.5 -37t40.5 -95q0 -68 -49 -114t-124 -69v-1q59 -11 97.5 -50.5t38.5 -97.5
q0 -108 -84.5 -167t-209.5 -59z" />
    <glyph glyph-name="four.lf" unicode="&#xeb0e;" horiz-adv-x="516" 
d="M293 0l27 151h-304l10 61l376 454h76l-78 -448h94l-11 -67h-94l-26 -151h-70zM385 556l-281 -342q23 4 82 4h143l58 338h-2z" />
    <glyph glyph-name="five.lf" unicode="&#xeb0f;" horiz-adv-x="434" 
d="M85 -12q-48 0 -76 7l15 65q28 -7 70 -7q106 0 165 48t59 135q0 121 -174 121q-33 0 -55 -2l60 311h294l-11 -66h-225l-34 -179q102 -2 162.5 -50.5t60.5 -127.5q0 -122 -84.5 -188.5t-226.5 -66.5z" />
    <glyph glyph-name="six.lf" unicode="&#xeb10;" horiz-adv-x="507" 
d="M238 -12q-97 0 -145 66t-48 161q0 196 130 329.5t320 133.5l9 -59q-179 0 -288 -128q-56 -69 -78 -150q60 63 151 63q84 0 130.5 -46.5t46.5 -124.5q0 -100 -63.5 -172.5t-164.5 -72.5zM243 51q72 0 109 54t37 126q0 54 -28.5 82.5t-82.5 28.5q-83 0 -152 -61
q-5 -38 -5 -71q0 -159 122 -159z" />
    <glyph glyph-name="seven.lf" unicode="&#xeb11;" horiz-adv-x="460" 
d="M140 -29l-61 29l318 600h-250q-4 -22 -13.5 -61t-14.5 -50h-53l31 177h393l-9 -54z" />
    <glyph glyph-name="eight.lf" unicode="&#xeb12;" horiz-adv-x="478" 
d="M202 -12q-85 0 -131 44t-46 108q0 121 169 209q-89 69 -89 152q0 77 59.5 127t142.5 50q80 0 122.5 -37.5t42.5 -99.5q0 -107 -158 -189q111 -71 111 -167q0 -83 -60.5 -140t-162.5 -57zM210 53q62 0 100 35.5t38 90.5q0 40 -26.5 71t-81.5 66q-70 -37 -104 -76t-34 -95
q0 -41 28 -66.5t80 -25.5zM301 614q-51 0 -85.5 -31t-34.5 -79q0 -35 20.5 -62t64.5 -56q130 64 130 146q0 38 -23 60t-72 22z" />
    <glyph glyph-name="nine.lf" unicode="&#xeb13;" horiz-adv-x="507" 
d="M42 -18l-7 59q131 0 223 63q110 75 144 223q-64 -65 -157 -65q-82 0 -129 47t-47 124q0 99 69 172t164 73q67 0 111 -34t60.5 -81.5t16.5 -105.5q0 -209 -120 -342t-328 -133zM256 324q87 0 156 61q4 32 4 75q0 72 -30.5 113.5t-90.5 41.5q-66 0 -107.5 -56t-41.5 -123
q0 -112 110 -112z" />
    <glyph glyph-name="zero.tosf" unicode="&#xeb14;" 
d="M224 -12q-89 0 -137 63.5t-48 146.5q0 118 75.5 206t185.5 88q95 0 140 -60.5t45 -144.5q0 -121 -74 -210t-187 -89zM231 49q80 0 130.5 69t50.5 166q0 64 -28 106t-91 42q-76 0 -128.5 -68t-52.5 -162q0 -73 31 -113t88 -40z" />
    <glyph glyph-name="one.tosf" unicode="&#xeb15;" 
d="M50 0l9 50q48 9 157 9l64 351l-154 -46l-15 60l197 56h58l-77 -421q90 0 155 -9l-9 -50h-385z" />
    <glyph glyph-name="two.tosf" unicode="&#xeb16;" 
d="M20 0l4 33q186 126 230 162q112 96 116 167q0 32 -21.5 49t-60.5 17q-81 0 -150 -51l-34 46q32 27 83.5 48t106.5 21q71 0 111 -32.5t40 -91.5q0 -24 -10 -50t-21.5 -46t-37.5 -45.5t-41 -40t-49.5 -39.5t-46 -32.5t-47.5 -31t-38 -24.5q21 3 67 3h210l-10 -62h-401z" />
    <glyph glyph-name="three.tosf" unicode="&#xeb17;" 
d="M94 -188q-54 0 -99 14l17 57q30 -10 87 -10q93 0 158 41.5t65 117.5q0 43 -30.5 71.5t-72 39t-91.5 10.5l8 55q50 0 100.5 16.5t87 51.5t36.5 79q0 32 -25 52.5t-67 20.5q-77 0 -154 -55l-35 47q91 72 199 72q74 0 117 -37.5t43 -92.5q0 -66 -57.5 -113.5t-126.5 -64.5
v-1q54 -7 101 -49t47 -96q0 -105 -92 -165.5t-216 -60.5z" />
    <glyph glyph-name="four.tosf" unicode="&#xeb18;" 
d="M241 -177l33 177h-296l6 47l379 433h73l-78 -419h95l-10 -61h-96l-33 -177h-73zM74 61h212l59 311h-2z" />
    <glyph glyph-name="five.tosf" unicode="&#xeb19;" 
d="M107 -188q-59 0 -87 13l17 58q30 -10 75 -10q90 0 153.5 46.5t63.5 122.5q0 77 -59 111.5t-146 34.5h-10h-8l-3 -1l56 293h297l-10 -59h-225l-36 -178q93 -4 158 -57.5t65 -135.5q0 -109 -88.5 -173.5t-212.5 -64.5z" />
    <glyph glyph-name="six.tosf" unicode="&#xeb1a;" 
d="M241 -12q-87 0 -136.5 64.5t-49.5 176.5q0 65 18.5 129t56.5 122t91 102t128.5 70t163.5 26l7 -61q-156 0 -264 -89q-86 -70 -115 -192q64 58 150 58q81 0 129 -44.5t48 -120.5q0 -101 -64 -171t-163 -70zM246 49q69 0 109.5 51.5t40.5 124.5q0 51 -29 79.5t-86 28.5
q-85 0 -151 -60q-2 -30 -2 -46q0 -85 29.5 -131.5t88.5 -46.5z" />
    <glyph glyph-name="seven.tosf" unicode="&#xeb1b;" 
d="M84 -200l-60 33l400 583h-271q-2 -13 -6 -28l-8 -33q-8 -35 -14 -48h-57l31 173h418l-8 -52z" />
    <glyph glyph-name="eight.tosf" unicode="&#xeb1c;" 
d="M230 -12q-85 0 -134 44.5t-49 107.5q0 119 177 209q-97 75 -97 152q0 76 62 126.5t146 50.5q80 0 125.5 -38t45.5 -99q0 -60 -45.5 -105t-120.5 -84q119 -74 119 -167q0 -82 -63 -139.5t-166 -57.5zM238 53q62 0 103 36t41 90q0 38 -28.5 69t-85.5 68q-71 -38 -107.5 -77
t-36.5 -94q0 -41 30.5 -66.5t83.5 -25.5zM329 614q-52 0 -89 -31t-37 -79q0 -34 22.5 -61t68.5 -57q136 67 136 146q0 37 -26 59.5t-75 22.5z" />
    <glyph glyph-name="nine.tosf" unicode="&#xeb1d;" 
d="M1 -186l-7 60q145 0 249 79q86 67 121 182q-65 -49 -136 -49q-82 0 -127 48.5t-45 123.5q0 98 66 166t158 68q89 0 133.5 -57.5t44.5 -151.5q0 -211 -126.5 -340t-330.5 -129zM238 144q71 0 140 51q7 35 7 84q0 153 -110 153q-60 0 -103 -47t-43 -123q0 -54 27 -86
t82 -32z" />
    <glyph glyph-name="numbersign.lf" unicode="&#xeb1e;" horiz-adv-x="555" 
d="M92 0l58 218h-126l15 56h126l36 135h-127l15 56h127l54 201h55l-54 -201h119l54 201h55l-54 -201h120l-15 -56h-120l-36 -135h122l-16 -56h-121l-59 -218h-55l59 218h-119l-58 -218h-55zM220 274h119l36 135h-119z" />
    <glyph glyph-name="dollar.lf" unicode="&#xeb1f;" horiz-adv-x="474" 
d="M146 -118l18 107q-111 10 -160 59l26 144h63q0 -24 -13 -115q44 -28 113 -28q70 0 111.5 36t41.5 91q0 46 -29 76.5t-79 56.5q-33 17 -49 27t-41 32t-36.5 51t-11.5 67q0 78 51 129.5t136 60.5l19 108h58l-20 -107q87 -7 132 -40l-27 -151h-63q0 24 13 115q-39 16 -86 16
q-60 0 -98 -30t-38 -83q0 -44 29 -74.5t79 -56.5q66 -36 87 -55q51 -47 51 -124q0 -83 -54 -139.5t-146 -64.5l-19 -108h-58z" />
    <glyph glyph-name="percent.lf" unicode="&#xeb20;" horiz-adv-x="807" 
d="M229 396q52 0 88 38.5t36 94.5q0 43 -23.5 68t-67.5 25q-54 0 -89 -38.5t-35 -94.5q0 -42 23.5 -67.5t67.5 -25.5zM224 342q-69 0 -109.5 43.5t-40.5 97.5q0 76 53 134.5t139 58.5q70 0 110 -43t40 -98q0 -76 -53 -134.5t-139 -58.5zM119 0l530 666h70l-530 -666h-70z
M578 47q52 0 88 38.5t36 94.5q0 43 -23.5 68t-67.5 25q-54 0 -89 -38.5t-35 -94.5q0 -42 23.5 -67.5t67.5 -25.5zM573 -7q-69 0 -109.5 43.5t-40.5 97.5q0 76 53 134.5t139 58.5q70 0 110 -43t40 -98q0 -76 -53 -134.5t-139 -58.5z" />
    <glyph glyph-name="numbersign.osf" unicode="&#xeb21;" horiz-adv-x="514" 
d="M88 106l46 144h-87l17 59h89l36 111h-97l17 59h99l42 131h58l-42 -131h100l42 131h58l-42 -131h89l-17 -59h-91l-36 -111h99l-17 -59h-101l-46 -144h-58l46 144h-100l-46 -144h-58zM211 309h100l36 111h-100z" />
    <glyph glyph-name="dollar.osf" unicode="&#xeb22;" horiz-adv-x="436" 
d="M109 -123l20 113q-83 7 -120 38l22 122h57q0 -40 -8 -90q37 -14 100 -14q51 0 83.5 21.5t32.5 62.5q0 32 -24 50.5t-71 38.5q-31 14 -45.5 22t-36.5 24.5t-31.5 38.5t-9.5 50q0 56 40.5 92t110.5 44l19 103h67l-19 -102q77 -6 115 -31l-23 -127h-57v15q0 44 8 75
q-30 11 -77 11q-49 0 -80.5 -19.5t-31.5 -54.5q0 -32 24 -50.5t71 -38.5q31 -14 45.5 -22t36.5 -24.5t31.5 -38.5t9.5 -50q0 -63 -44.5 -102.5t-127.5 -44.5l-20 -112h-67z" />
    <glyph glyph-name="percent.osf" unicode="&#xeb23;" horiz-adv-x="709" 
d="M163 213q-54 0 -85.5 34.5t-31.5 85.5q0 63 44 111t109 48q58 0 88 -32t30 -86q0 -65 -44.5 -113t-109.5 -48zM168 259q39 0 63.5 32t24.5 80q0 75 -61 75q-39 0 -63.5 -30t-24.5 -78q0 -79 61 -79zM508 -12q-54 0 -85.5 34.5t-31.5 85.5q0 63 44 111t109 48q58 0 88 -32
t30 -86q0 -65 -44.5 -113t-109.5 -48zM513 34q39 0 63.5 32t24.5 80q0 75 -61 75q-39 0 -63.5 -30t-24.5 -78q0 -79 61 -79zM141 0l369 480h61l-369 -480h-61z" />
    <glyph glyph-name="fi" unicode="&#xfb01;" horiz-adv-x="530" 
d="M-58 -230q-46 0 -86 19l23 57q36 -15 68 -15q74 0 96 120l86 471h-84l10 58h84l15 80q33 172 205 172q81 0 139 -38l-33 -60q-55 32 -112 32q-60 0 -89.5 -26.5t-40.5 -89.5l-13 -70h271l-18 -73l-64 -349q42 0 77 -8l-9 -50h-149l76 422h-194l-85 -469
q-18 -94 -57.5 -138.5t-115.5 -44.5z" />
    <glyph glyph-name="fl" unicode="&#xfb02;" horiz-adv-x="540" 
d="M-58 -230q-46 0 -86 19l23 57q36 -15 68 -15q74 0 96 120l86 471h-84l10 58h84l15 80q33 172 205 172q50 0 93 -9l82 3l-18 -79l-107 -589q42 0 77 -8l-9 -50h-149l118 655q-36 11 -93 11q-60 0 -89.5 -26.5t-40.5 -89.5l-13 -70h119l-10 -58h-119l-85 -469
q-18 -94 -57.5 -138.5t-115.5 -44.5z" />
    <glyph glyph-name="uniFEFF" unicode="&#xfeff;" horiz-adv-x="0" 
 />
    <glyph glyph-name="NULL" horiz-adv-x="0" 
 />
    <glyph glyph-name="CR" horiz-adv-x="220" 
 />
    <glyph glyph-name="uni2007.osf" horiz-adv-x="530" 
 />
    <glyph glyph-name="uni030C.alt001" horiz-adv-x="1" 
d="M-330 554l71 166h91l-106 -166h-56z" />
    <glyph glyph-name="slash.case" horiz-adv-x="402" 
d="M-47 -109l462 881h67l-462 -881h-67z" />
    <glyph glyph-name="f_f" horiz-adv-x="589" 
d="M-58 -230q-46 0 -86 19l23 57q36 -15 68 -15q74 0 96 120l86 471h-84l10 58h84l11 56q19 97 68.5 142.5t136.5 45.5q82 0 139 -43q48 51 129 51q67 0 116 -31l-32 -60q-42 25 -90 25q-50 0 -74 -30t-33 -86l-13 -70h118l-10 -58h-119l-85 -464q-18 -94 -57.5 -138.5
t-115.5 -44.5q-46 0 -81 19l23 57q30 -15 63 -15q74 0 96 120l86 466h-215l-85 -469q-18 -94 -57.5 -138.5t-115.5 -44.5zM210 480h215l15 80q6 35 18 64q-41 34 -109 34q-59 0 -88 -30t-42 -102z" />
    <glyph glyph-name="f_f_i" horiz-adv-x="817" 
d="M-58 -230q-46 0 -86 19l23 57q36 -15 68 -15q74 0 96 120l86 471h-84l10 58h84l11 56q19 97 68.5 142.5t136.5 45.5q80 0 141 -45q52 53 150 53q81 0 139 -38l-33 -60q-55 32 -112 32q-60 0 -89.5 -26.5t-40.5 -89.5l-13 -70h271l-18 -73l-64 -349q42 0 77 -8l-9 -50
h-149l76 422h-195l-85 -464q-18 -94 -57.5 -138.5t-115.5 -44.5q-46 0 -81 19l23 57q30 -15 63 -15q74 0 96 120l86 466h-215l-85 -469q-18 -94 -57.5 -138.5t-115.5 -44.5zM210 480h215l15 80q6 35 18 64q-41 34 -109 34q-59 0 -88 -30t-42 -102z" />
    <glyph glyph-name="f_f_l" horiz-adv-x="827" 
d="M-58 -230q-46 0 -86 19l23 57q36 -15 68 -15q74 0 96 120l86 471h-84l10 58h84l11 56q19 97 68.5 142.5t136.5 45.5q81 0 140 -44q52 52 151 52q50 0 93 -9l82 3l-18 -79l-107 -589q42 0 77 -8l-9 -50h-149l118 655q-36 11 -93 11q-60 0 -89.5 -26.5t-40.5 -89.5l-13 -70
h118l-10 -58h-119l-85 -464q-18 -94 -57.5 -138.5t-115.5 -44.5q-46 0 -81 19l23 57q30 -15 63 -15q74 0 96 120l86 466h-215l-85 -469q-18 -94 -57.5 -138.5t-115.5 -44.5zM210 480h215l15 80q6 35 18 64q-41 34 -109 34q-59 0 -88 -30t-42 -102z" />
    <glyph glyph-name="f_i" horiz-adv-x="530" 
d="M-58 -230q-46 0 -86 19l23 57q36 -15 68 -15q74 0 96 120l86 471h-84l10 58h84l15 80q33 172 205 172q81 0 139 -38l-33 -60q-55 32 -112 32q-60 0 -89.5 -26.5t-40.5 -89.5l-13 -70h271l-18 -73l-64 -349q42 0 77 -8l-9 -50h-149l76 422h-194l-85 -469
q-18 -94 -57.5 -138.5t-115.5 -44.5z" />
    <glyph glyph-name="f_l" horiz-adv-x="540" 
d="M-58 -230q-46 0 -86 19l23 57q36 -15 68 -15q74 0 96 120l86 471h-84l10 58h84l15 80q33 172 205 172q50 0 93 -9l82 3l-18 -79l-107 -589q42 0 77 -8l-9 -50h-149l118 655q-36 11 -93 11q-60 0 -89.5 -26.5t-40.5 -89.5l-13 -70h119l-10 -58h-119l-85 -469
q-18 -94 -57.5 -138.5t-115.5 -44.5z" />
    <glyph glyph-name="uni2007.tosf" 
 />
    </font>
</defs>
</svg>
