<?xml version="1.0" standalone="no"?>
<!DOCTYPE svg PUBLIC "-//W3C//DTD SVG 1.1//EN" "http://www.w3.org/Graphics/SVG/1.1/DTD/svg11.dtd" >
<svg>
<metadata>
Created by FontForge 20120731 at Fri Jan 15 01:18:28 2016
 By ,,,
Copyright (c) 2013 by FontFont. All rights reserved.
</metadata>
<defs>
<font id="FFKievitSlab-BlackItalic" horiz-adv-x="580" >
  <font-face 
    font-family="FF Kievit Slab"
    font-weight="900"
    font-style="italic"
    font-stretch="normal"
    units-per-em="1000"
    panose-1="2 0 10 3 4 0 0 2 0 4"
    ascent="760"
    descent="-240"
    x-height="493"
    cap-height="666"
    bbox="-246 -253 1032 936"
    underline-thickness="100"
    underline-position="-35"
    slope="-10"
    unicode-range="U+0020-FEFF"
  />
<missing-glyph horiz-adv-x="589" 
d="M22 0v666h545v-666h-545zM157 135h275v396h-275v-396z" />
    <glyph glyph-name=".notdef" horiz-adv-x="589" 
d="M22 0v666h545v-666h-545zM157 135h275v396h-275v-396z" />
    <glyph glyph-name=".null" horiz-adv-x="0" 
 />
    <glyph glyph-name="nonmarkingreturn" horiz-adv-x="333" 
 />
    <glyph glyph-name="space" unicode=" " horiz-adv-x="220" 
 />
    <glyph glyph-name="exclam" unicode="!" horiz-adv-x="326" 
d="M135 -9q-46 0 -75 29t-29 71t29 70.5t75 28.5t75 -28.5t29 -70.5t-29 -71t-75 -29zM90 246l44 420h204l-113 -420h-135z" />
    <glyph glyph-name="quotedbl" unicode="&#x22;" horiz-adv-x="425" 
d="M84 404l20 262h166l-78 -262h-108zM284 404l20 262h166l-78 -262h-108z" />
    <glyph glyph-name="numbersign" unicode="#" horiz-adv-x="566" 
d="M35 0l52 161h-91l45 132h88l25 78h-87l44 132h85l53 163h116l-52 -163h79l52 163h116l-52 -163h82l-45 -132h-79l-25 -78h80l-45 -132h-77l-52 -161h-116l51 161h-79l-52 -161h-116zM239 288h89l28 88h-88z" />
    <glyph glyph-name="dollar" unicode="$" horiz-adv-x="564" 
d="M134 -124l21 117q-101 11 -149 47l29 168h134q-2 -36 -6 -67q47 -14 89 -14q31 0 54.5 15t23.5 46q0 48 -70 75q-4 2 -25 10t-28 11.5t-26 12.5t-27.5 16.5t-23 19.5t-22 25.5t-15.5 30.5t-11.5 38t-3.5 46q0 82 53 133.5t142 66.5l21 117h137l-21 -116q108 -11 159 -44
l-31 -172h-134q2 36 8 77q-37 7 -66 7q-86 0 -86 -53q0 -26 18 -42t65 -35q77 -34 103 -54q71 -53 71 -149q0 -93 -59 -149.5t-166 -68.5l-21 -115h-137z" />
    <glyph glyph-name="percent" unicode="%" horiz-adv-x="910" 
d="M251 428q28 0 43 30.5t15 69.5q0 44 -33 44q-28 0 -43 -29t-15 -67q0 -48 33 -48zM241 322q-82 0 -125.5 43t-43.5 111q0 84 59.5 143t154.5 59q81 0 125 -40t44 -108q0 -85 -59.5 -146.5t-154.5 -61.5zM152 0l498 666h135l-498 -666h-135zM664 94q28 0 43 30.5t15 69.5
q0 44 -33 44q-28 0 -43 -29t-15 -67q0 -48 33 -48zM654 -12q-82 0 -125.5 43t-43.5 111q0 84 59.5 143t154.5 59q81 0 125 -40t44 -108q0 -85 -59.5 -146.5t-154.5 -61.5z" />
    <glyph glyph-name="ampersand" unicode="&#x26;" horiz-adv-x="753" 
d="M579 -93q-59 0 -103 21.5t-89 76.5q-66 -17 -137 -17q-228 0 -228 205q0 139 85 226.5t211 87.5q80 0 124 -37t44 -99q0 -74 -88 -122l51 -73q128 86 128 235q0 74 -49.5 112t-161.5 52l26 144q171 -12 260 -87.5t89 -210.5q0 -111 -57 -202t-157 -153q29 -35 70 -35
q31 0 57 15l37 -115q-50 -24 -112 -24zM275 119q21 0 34 3l-75 106l23 70q70 12 70 52q0 31 -38 31q-40 0 -67.5 -53t-27.5 -124q0 -85 81 -85z" />
    <glyph glyph-name="quotesingle" unicode="'" horiz-adv-x="225" 
d="M84 404l20 262h166l-78 -262h-108z" />
    <glyph glyph-name="parenleft" unicode="(" horiz-adv-x="376" 
d="M297 -161h-161q-111 150 -111 343q0 80 19.5 157.5t47.5 134t65.5 108.5t67 83t58.5 55h172q-37 -35 -73 -81t-76.5 -114.5t-65.5 -158.5t-25 -184q0 -202 82 -343z" />
    <glyph glyph-name="parenright" unicode=")" horiz-adv-x="376" 
d="M107 -161h-176q241 253 241 555q0 197 -86 326h163q43 -48 78 -131.5t35 -194.5q0 -86 -21 -168t-47 -136.5t-68.5 -112.5t-64 -81.5t-54.5 -56.5z" />
    <glyph glyph-name="asterisk" unicode="*" horiz-adv-x="497" 
d="M185 252l-111 85l110 94l-120 30l66 125l104 -44l7 124h147l-31 -122l115 46l32 -135l-135 -27l76 -98l-127 -77l-48 113z" />
    <glyph glyph-name="plus" unicode="+" horiz-adv-x="549" 
d="M164 27l29 164h-158l24 134h158l28 162h146l-28 -162h156l-24 -134h-156l-29 -164h-146z" />
    <glyph glyph-name="comma" unicode="," horiz-adv-x="334" 
d="M143 196q49 0 77 -33t28 -85q0 -120 -156 -259l-68 61q30 30 43.5 50.5t13.5 47.5q0 23 -21 56.5t-21 64.5q0 42 29.5 69.5t74.5 27.5z" />
    <glyph glyph-name="hyphen" unicode="-" horiz-adv-x="346" 
d="M41 207l25 142h250l-25 -142h-250z" />
    <glyph glyph-name="period" unicode="." horiz-adv-x="334" 
d="M149 -11q-45 0 -76.5 30t-31.5 74q0 43 31.5 73t76.5 30q44 0 75.5 -30t31.5 -73q0 -45 -31 -74.5t-76 -29.5z" />
    <glyph glyph-name="slash" unicode="/" horiz-adv-x="472" 
d="M-2 0l362 666h160l-362 -666h-160z" />
    <glyph glyph-name="zero" unicode="0" 
d="M254 -12q-108 0 -162 72t-54 185q0 78 20.5 153t58.5 138.5t101 102.5t140 39q109 0 162.5 -71.5t53.5 -187.5q0 -112 -36 -208.5t-110.5 -159.5t-173.5 -63zM271 128q34 0 62 49t42 118t14 138q0 105 -48 105q-30 0 -53.5 -30t-36.5 -77t-20 -98.5t-7 -101.5
q0 -103 47 -103z" />
    <glyph glyph-name="one" unicode="1" 
d="M34 0l22 121q12 3 64.5 6.5t77.5 3.5l65 380l-114 -31l-37 134l219 51h134l-92 -534q17 0 74 -4t69 -6l-22 -121h-460z" />
    <glyph glyph-name="two" unicode="2" 
d="M-16 0l16 94q178 136 234 190q108 104 108 188q0 32 -17.5 48t-45.5 16q-68 0 -134 -55l-75 109q100 88 249 88q111 0 164.5 -48t53.5 -129q0 -93 -72 -175.5t-217 -189.5q31 4 75 4h70q14 51 19 64h133l-35 -204h-526z" />
    <glyph glyph-name="three" unicode="3" 
d="M160 -12q-104 0 -158 22l53 138q54 -20 117 -20q66 0 105 21.5t39 66.5q0 65 -164 65l20 121q82 1 129 25t47 61q0 50 -61 50q-66 0 -134 -38l-60 107q105 71 247 71q97 0 147.5 -38t50.5 -101q0 -68 -45 -109.5t-113 -60.5v-2q50 -7 88.5 -43t38.5 -95
q0 -110 -87 -175.5t-260 -65.5z" />
    <glyph glyph-name="four" unicode="4" 
d="M263 0l21 122h-299l19 112l391 432h159l-71 -411h79l-23 -133h-79l-21 -122h-176zM341 435l-159 -183q15 3 66 3h63l32 180h-2z" />
    <glyph glyph-name="five" unicode="5" 
d="M166 -12q-88 0 -138 20l44 139q40 -19 105 -19q139 0 139 96q0 39 -39.5 59t-98.5 20q-46 0 -75 -9l72 372h381l-23 -140h-224l-18 -89q94 -9 155 -57.5t61 -131.5q0 -129 -86.5 -194.5t-254.5 -65.5z" />
    <glyph glyph-name="six" unicode="6" 
d="M274 -12q-122 0 -181.5 67.5t-59.5 171.5q0 203 142 327t356 124l21 -146q-133 0 -214 -48q-63 -39 -94 -102q54 39 122 39q80 0 131 -46.5t51 -130.5q0 -118 -80 -187t-194 -69zM278 120q39 0 63 28.5t24 75.5q0 32 -16 49t-43 17q-55 0 -91 -33q-1 -7 -1 -20v-19
q0 -98 64 -98z" />
    <glyph glyph-name="seven" unicode="7" 
d="M195 -29l-141 66l329 482h-153q-17 -57 -17 -58h-133l35 205h501l-14 -88z" />
    <glyph glyph-name="eight" unicode="8" 
d="M259 -12q-112 0 -178.5 44t-66.5 116q0 65 41 109.5t119 79.5q-86 63 -86 137q0 94 78 149t184 55q102 0 164.5 -41t62.5 -117q0 -54 -37 -93t-109 -74q106 -62 106 -149q0 -96 -74 -156t-204 -60zM266 115q36 0 60.5 19t24.5 49q0 22 -18 40.5t-57 41.5q-82 -45 -82 -95
q0 -24 19.5 -39.5t52.5 -15.5zM339 552q-29 0 -48.5 -18.5t-19.5 -44.5q0 -32 54 -69q72 44 72 85q0 21 -16 34t-42 13z" />
    <glyph glyph-name="nine" unicode="9" 
d="M81 -18l-29 146q91 0 170 32q93 37 137 119q-53 -34 -116 -34q-81 0 -133.5 48t-52.5 132q0 81 43 140.5t105 86t132 26.5q120 0 179 -67t59 -173q0 -96 -32 -178.5t-93 -144.5t-156 -97.5t-213 -35.5zM307 376q47 0 85 31q1 6 1 18v21q0 100 -66 100q-38 0 -61.5 -28.5
t-23.5 -73.5q0 -33 17.5 -50.5t47.5 -17.5z" />
    <glyph glyph-name="colon" unicode=":" horiz-adv-x="334" 
d="M149 -11q-45 0 -76.5 30t-31.5 74q0 43 31.5 73t76.5 30q44 0 75.5 -30t31.5 -73q0 -45 -31 -74.5t-76 -29.5zM203 291q-45 0 -76.5 30t-31.5 74q0 43 31.5 73t76.5 30q44 0 75.5 -30t31.5 -73q0 -45 -31 -74.5t-76 -29.5z" />
    <glyph glyph-name="semicolon" unicode=";" horiz-adv-x="334" 
d="M143 196q49 0 77 -33t28 -85q0 -120 -156 -259l-68 61q30 30 43.5 50.5t13.5 47.5q0 23 -21 56.5t-21 64.5q0 42 29.5 69.5t74.5 27.5zM199 291q-45 0 -76.5 30t-31.5 74q0 43 31.5 73t76.5 30q44 0 75.5 -30t31.5 -73q0 -45 -31 -74.5t-76 -29.5z" />
    <glyph glyph-name="less" unicode="&#x3c;" horiz-adv-x="415" 
d="M255 16l-229 235l287 238l82 -104l-170 -140l131 -135z" />
    <glyph glyph-name="equal" unicode="=" horiz-adv-x="492" 
d="M19 93l24 132h401l-24 -132h-401zM56 299l23 132h401l-23 -132h-401z" />
    <glyph glyph-name="greater" unicode="&#x3e;" horiz-adv-x="415" 
d="M106 16l-83 105l171 142l-131 131l101 94l229 -235z" />
    <glyph glyph-name="question" unicode="?" horiz-adv-x="425" 
d="M258 246h-139q-10 24 -10 52q0 21 6.5 38.5t20 30t24.5 20t29 18.5q5 3 7 4q52 33 64 48q13 16 13 37q0 19 -14.5 31t-41.5 12q-39 0 -83 -21l-56 124q78 38 181 38t154 -43.5t51 -110.5q0 -36 -10.5 -64.5t-31.5 -49t-38.5 -33t-45.5 -27.5q-30 -16 -44 -25t-27 -23.5
t-13 -31.5q0 -15 4 -24zM151 -9q-46 0 -75 29t-29 71t29 70.5t75 28.5t75 -28.5t29 -70.5t-29 -71t-75 -29z" />
    <glyph glyph-name="at" unicode="@" horiz-adv-x="812" 
d="M401 -104q-167 0 -264.5 94.5t-97.5 251.5q0 99 47.5 190t138 150.5t200.5 59.5q178 0 272 -88.5t94 -234.5q0 -113 -60.5 -177.5t-161.5 -64.5q-53 0 -77 17t-31 50h-3q-44 -63 -124 -63q-48 0 -77.5 34.5t-29.5 88.5q0 117 59.5 192t152.5 75t169 -31l-31 -190
q-4 -25 -4 -41q0 -34 29 -34t53.5 37.5t24.5 99.5q0 229 -256 229q-111 0 -186.5 -83t-75.5 -213q0 -246 249 -246q73 0 141 32l38 -101q-81 -34 -189 -34zM391 187q27 0 45 31.5t33 109.5l8 41q-13 5 -34 5q-39 0 -61 -37.5t-22 -95.5q0 -54 31 -54z" />
    <glyph glyph-name="A" unicode="A" horiz-adv-x="741" 
d="M-31 0l20 111q3 1 56 9l316 546h181l106 -547q42 -2 60 -8l-20 -111h-309l20 111q17 3 24 4l32 4l-6 43h-202l-22 -43l50 -8l-20 -111h-286zM304 274h130l-10 70q-3 19 -8.5 62t-7.5 56l-1 13h-2l-7 -14q-30 -65 -56 -113z" />
    <glyph glyph-name="B" unicode="B" horiz-adv-x="652" 
d="M-29 0l20 111q40 10 77 10l76 424q-43 0 -77 10l20 111h346q94 0 151.5 -39t57.5 -120q0 -69 -38 -111t-103 -58v-2q122 -24 122 -128q0 -105 -78 -156.5t-213 -51.5h-361zM254 132h93q45 0 68 22t23 59q0 63 -71 63h-87zM301 397h80q40 0 59.5 21t19.5 54q0 62 -67 62
h-68z" />
    <glyph glyph-name="C" unicode="C" horiz-adv-x="663" 
d="M343 -12q-151 0 -228 79t-77 204q0 107 50 199t146.5 150t218.5 58q139 0 206 -52l-34 -193h-134q-2 47 7 105q-21 4 -51 4q-88 0 -148.5 -76t-60.5 -182q0 -74 35.5 -116t102.5 -42q39 0 76 13q7 40 30 111h134l-34 -191q-31 -28 -94 -49.5t-145 -21.5z" />
    <glyph glyph-name="D" unicode="D" horiz-adv-x="726" 
d="M-29 0l20 111q40 10 77 10l76 424q-43 0 -77 10l20 111h309q159 0 242.5 -70.5t83.5 -197.5q0 -173 -116 -285.5t-326 -112.5h-309zM259 139h57q100 0 153.5 66.5t53.5 182.5q0 64 -36 101.5t-103 37.5h-55z" />
    <glyph glyph-name="E" unicode="E" horiz-adv-x="584" 
d="M-29 0l20 111q40 10 77 10l76 424q-43 0 -77 10l20 111h534l-36 -209h-134q-2 27 3 70h-126l-22 -126h166l-23 -128h-166l-24 -134h136q14 52 20 70h133l-37 -209h-540z" />
    <glyph glyph-name="F" unicode="F" horiz-adv-x="565" 
d="M-29 0l20 111q40 10 77 10l76 424q-43 0 -77 10l20 111h534l-40 -225h-134v15q0 38 6 71h-124l-27 -148h180l-22 -128h-180l-24 -130q36 0 76 -7l18 -3l-20 -111h-359z" />
    <glyph glyph-name="G" unicode="G" horiz-adv-x="748" 
d="M375 -12q-164 0 -250.5 81.5t-86.5 205.5q0 176 123.5 289.5t311.5 113.5q151 0 235 -53l-33 -187h-134q0 38 6 94q-34 10 -80 10q-102 0 -165.5 -70t-63.5 -191q0 -72 40 -114.5t110 -42.5q50 0 80 14l16 90q-52 0 -87 11l20 111h329l-20 -111q-8 -3 -58 -11l-32 -179
q-38 -24 -109 -42.5t-152 -18.5z" />
    <glyph glyph-name="H" unicode="H" horiz-adv-x="809" 
d="M-29 0l20 111q40 10 77 10l76 424q-43 0 -77 10l20 111h336l-20 -111q-38 -10 -71 -10l-24 -135h253l24 135q-34 0 -68 10l20 111h333l-20 -111q-38 -10 -77 -10l-76 -424q37 0 77 -10l-20 -111h-334l20 111q40 10 69 10l28 154h-253l-28 -154q29 0 69 -10l-20 -111h-334
z" />
    <glyph glyph-name="I" unicode="I" horiz-adv-x="368" 
d="M-29 0l20 111q40 10 77 10l76 424q-43 0 -77 10l20 111h342l-20 -111q-38 -10 -77 -10l-76 -424q37 0 77 -10l-20 -111h-342z" />
    <glyph glyph-name="J" unicode="J" horiz-adv-x="348" 
d="M-34 -215q-73 0 -122 22l51 136q19 -12 58 -12q40 0 59 18.5t27 66.5l94 529q-37 0 -71 10l20 111h330l-20 -111q-38 -10 -71 -10l-96 -538q-40 -222 -259 -222z" />
    <glyph glyph-name="K" unicode="K" horiz-adv-x="733" 
d="M-29 0l20 111q40 10 77 10l76 424q-43 0 -77 10l20 111h315l-20 -111l-9 -1q-9 -2 -14 -3l-28 -4l-35 -197l201 197q-38 7 -41 8l20 111h309l-20 -111q-4 -1 -67 -9l-221 -200l152 -225q45 0 69 -10l-20 -111h-317l20 111q16 5 37 8l-127 203l-36 -202q53 -8 58 -9
l-20 -111h-322z" />
    <glyph glyph-name="L" unicode="L" horiz-adv-x="561" 
d="M-29 0l20 111q40 10 77 10l76 424q-43 0 -77 10l20 111h342l-20 -111q-38 -10 -77 -10l-73 -406h127l6 26q20 69 21 70h134l-42 -235h-534z" />
    <glyph glyph-name="M" unicode="M" horiz-adv-x="976" 
d="M-30 0l20 111q7 1 17 2.5t23 3.5t20 3l122 425q-43 2 -67 10l20 111h301l39 -378l11 -110h2q21 63 43 110l168 378h300l-20 -111q-8 -2 -33.5 -5t-31.5 -4l-20 -426q25 -1 59 -9l-20 -111h-301l20 111q9 2 55 9l16 226q1 9 4 46t5 57h-2q-10 -34 -31 -80l-164 -369h-187
l-37 339q-3 25 -9 110h-2q-19 -87 -26 -112l-57 -218q7 -1 19.5 -2.5t21.5 -3t14 -2.5l-20 -111h-272z" />
    <glyph glyph-name="N" unicode="N" horiz-adv-x="783" 
d="M-29 0l20 111q40 10 77 10l76 424q-43 0 -77 10l20 111h258l147 -263q16 -29 31 -61t22.5 -50.5t7.5 -19.5h1q0 41 16 122l27 151q-42 0 -76 10l20 111h308l-20 -111q-40 -10 -73 -10l-97 -545h-151l-162 297q-36 65 -61 123l-6 13h-2q0 -9 -17 -124l-33 -188
q35 0 77 -10l-20 -111h-313z" />
    <glyph glyph-name="O" unicode="O" horiz-adv-x="766" 
d="M348 -12q-147 0 -228.5 81t-81.5 213q0 168 114 282t295 114q146 0 225.5 -79.5t79.5 -207.5q0 -172 -112 -287.5t-292 -115.5zM371 124q87 0 134.5 76.5t47.5 186.5q0 71 -33.5 113t-95.5 42q-88 0 -137.5 -75.5t-49.5 -181.5q0 -75 36 -118t98 -43z" />
    <glyph glyph-name="P" unicode="P" horiz-adv-x="626" 
d="M-29 0l20 111q40 10 77 10l76 424q-43 0 -77 10l20 111h328q105 0 170 -49.5t65 -137.5q0 -136 -85 -202t-237 -66h-58l-16 -90q26 0 79 -10l-20 -111h-342zM294 343h55q56 0 84 32t28 84q0 34 -21 54.5t-59 20.5h-53z" />
    <glyph glyph-name="Q" unicode="Q" horiz-adv-x="766" 
d="M498 -186q-93 0 -158.5 43t-118.5 151q-89 30 -136 102t-47 172q0 168 114 282t295 114q146 0 225.5 -79.5t79.5 -207.5q0 -149 -86.5 -258.5t-231.5 -136.5q22 -52 86 -52q41 0 86 24l42 -114q-64 -40 -150 -40zM371 124q87 0 134.5 76.5t47.5 186.5q0 71 -33.5 113
t-95.5 42q-88 0 -137.5 -75.5t-49.5 -181.5q0 -75 36 -118t98 -43z" />
    <glyph glyph-name="R" unicode="R" horiz-adv-x="675" 
d="M544 -9q-67 0 -94.5 18t-48.5 71l-45 110q-24 60 -62 60h-19l-23 -130q57 -8 60 -9l-20 -111h-321l20 111q40 10 77 10l76 424q-43 0 -77 10l20 111h332q116 0 175 -45t59 -130q0 -158 -171 -205v-2q40 -35 68 -92l12 -26q25 -55 82 -55h3l-20 -111q-27 -9 -83 -9z
M297 372h75q44 0 68.5 25.5t24.5 66.5q0 70 -77 70h-62z" />
    <glyph glyph-name="S" unicode="S" horiz-adv-x="553" 
d="M235 -12q-162 0 -231 52l30 168h134l-3 -31l-4 -36q47 -14 89 -14q31 0 54.5 14.5t23.5 46.5q0 48 -70 75q-4 2 -25 10t-28 11.5t-26 12.5t-27.5 16.5t-23 19.5t-22 25.5t-15.5 30.5t-11.5 38t-3.5 46q0 96 73.5 150.5t188.5 54.5q76 0 139 -15.5t90 -32.5l-31 -172h-134
q2 36 8 77q-37 7 -66 7q-86 0 -86 -53q0 -26 18 -42t65 -35q77 -34 103 -54q71 -53 71 -149q0 -105 -74 -163t-206 -58z" />
    <glyph glyph-name="T" unicode="T" horiz-adv-x="684" 
d="M129 0l20 111q40 10 77 10l73 406h-83q-12 -57 -27 -88h-134l41 227h639l-40 -227h-134q-1 21 7 88h-81l-73 -406q20 0 77 -10l-20 -111h-342z" />
    <glyph glyph-name="U" unicode="U" horiz-adv-x="734" 
d="M358 -12q-140 0 -209.5 57t-69.5 164q0 32 6 68l47 268q-27 0 -61 10l20 111h318l-20 -111q-38 -10 -69 -10l-47 -267q-13 -73 10.5 -104.5t88.5 -31.5q59 0 89.5 30.5t43.5 101.5l48 271q-33 0 -67 10l20 111h289l-20 -111q-38 -10 -63 -10l-49 -278
q-25 -143 -100.5 -211t-204.5 -68z" />
    <glyph glyph-name="V" unicode="V" horiz-adv-x="713" 
d="M236 0l-116 546q-49 6 -56 9l20 111h310l-20 -111q-8 -3 -64 -9l37 -235q4 -23 11 -92l1 -9h2l4 10q2 3 18.5 38t25.5 53l119 236q-59 7 -62 8l20 111h290l-20 -111q-8 -3 -57 -9l-306 -546h-157z" />
    <glyph glyph-name="W" unicode="W" horiz-adv-x="972" 
d="M167 0l-46 547q-48 7 -51 8l20 111h291l-20 -111q-4 -1 -54 -8l6 -165q1 -19 1 -127h2q20 58 50 135l108 276h181l13 -276q2 -60 2 -77v-58h3q25 79 45 129l64 163q-49 6 -53 8l20 111h283l-20 -111q-2 -1 -52 -8l-243 -547h-178l-11 318q-1 19 -1 132h-2
q-31 -86 -51 -132l-135 -318h-172z" />
    <glyph glyph-name="X" unicode="X" horiz-adv-x="708" 
d="M-28 0l20 111q29 8 59 9l207 226l-117 200q-46 6 -53 9l20 111h293l-20 -111q-9 -3 -27 -5l50 -105l85 105q-12 1 -26 5l20 111h271l-20 -111q-16 -4 -49 -9l-194 -208l120 -219q7 -1 29.5 -3.5t28.5 -4.5l-20 -111h-311l20 111l30 6l-51 115l-93 -116q8 -2 32 -5
l-20 -111h-284z" />
    <glyph glyph-name="Y" unicode="Y" horiz-adv-x="644" 
d="M112 0l20 111q40 10 77 10l23 124l-114 301q-32 2 -56 9l20 111h286l-20 -111q-6 -2 -21.5 -4t-21.5 -3l52 -145h1l95 145l-15 2.5l-15 2.5t-10 2l20 111h274l-20 -111q-5 -1 -14 -2.5t-20.5 -3t-18.5 -2.5l-215 -301l-22 -125q20 0 77 -10l-19 -111h-343z" />
    <glyph glyph-name="Z" unicode="Z" horiz-adv-x="599" 
d="M-23 0l22 121l381 406h-162q-20 -77 -26 -90h-134l41 229h540l-22 -120l-381 -407h182l6 25l7 26q6 20 13 39h134l-41 -229h-560z" />
    <glyph glyph-name="bracketleft" unicode="[" horiz-adv-x="369" 
d="M-18 -161l155 881h282l-22 -127h-115l-111 -627h115l-22 -127h-282z" />
    <glyph glyph-name="backslash" unicode="\" horiz-adv-x="472" 
d="M264 -161l-174 881h148l174 -881h-148z" />
    <glyph glyph-name="bracketright" unicode="]" horiz-adv-x="369" 
d="M-40 -161l22 127h115l111 627h-115l22 127h283l-155 -881h-283z" />
    <glyph glyph-name="underscore" unicode="_" horiz-adv-x="462" 
d="M-73 -203l24 135h455l-24 -135h-455z" />
    <glyph glyph-name="grave" unicode="`" horiz-adv-x="500" 
d="M251 542l-116 142h216l50 -142h-150z" />
    <glyph glyph-name="a" unicode="a" horiz-adv-x="568" 
d="M149 -12q-55 0 -93 45.5t-38 123.5q0 167 92.5 258.5t233.5 91.5q127 0 196 -36l-34 -189q-17 -98 -24 -161q28 0 68 -10l-20 -111h-230q0 65 8 99h-2q-61 -111 -157 -111zM233 132q67 0 115 236l3 14q-12 3 -31 3q-42 0 -80.5 -53t-38.5 -146q0 -54 32 -54z" />
    <glyph glyph-name="b" unicode="b" horiz-adv-x="556" 
d="M217 -12q-139 0 -209 29l105 579q-45 5 -73 5l20 111q14 2 253 8l-19 -80l-27 -148q-9 -49 -19 -85h2q33 50 69 75t89 25q59 0 94.5 -45.5t35.5 -128.5q0 -168 -87.5 -256.5t-233.5 -88.5zM235 110q47 0 83.5 48.5t36.5 144.5q0 57 -32 57q-69 0 -122 -237l-2 -9
q11 -4 36 -4z" />
    <glyph glyph-name="c" unicode="c" horiz-adv-x="468" 
d="M234 -12q-104 0 -161 55.5t-57 146.5q0 145 89.5 231t223.5 86q94 0 143 -29l-29 -172h-121q-1 21 4 64q-56 0 -93 -44.5t-37 -115.5q0 -85 69 -85q44 0 80 32l56 -114q-63 -55 -167 -55z" />
    <glyph glyph-name="d" unicode="d" horiz-adv-x="574" 
d="M157 -12q-61 0 -100 46t-39 127q0 160 86.5 253t215.5 93q36 0 58 -6l17 95q-42 5 -72 5l20 111q14 2 253 8l-19 -80l-65 -358q-17 -98 -24 -161q51 -7 61 -10l-20 -111h-223q0 67 7 95h-2q-30 -52 -66 -79.5t-88 -27.5zM233 132q74 0 122 240l2 10q-12 3 -36 3
q-46 0 -83.5 -49t-37.5 -145q0 -59 33 -59z" />
    <glyph glyph-name="e" unicode="e" horiz-adv-x="493" 
d="M228 -12q-101 0 -155.5 55.5t-54.5 157.5q0 135 85.5 220.5t212.5 85.5q80 0 123.5 -37.5t43.5 -102.5q0 -86 -76.5 -133t-207.5 -60q8 -53 60 -53q63 0 126 45l55 -111q-90 -67 -212 -67zM287 378q-33 0 -55 -29t-31 -73q58 5 88.5 23.5t30.5 45.5q0 33 -33 33z" />
    <glyph glyph-name="f" unicode="f" horiz-adv-x="373" 
d="M-53 -229q-44 0 -81 13l43 127q19 -8 43 -8q58 0 74 78l70 383h-75l23 129h76l6 33q21 107 73 155t155 48q84 0 135 -32l-67 -121q-25 19 -58 19q-51 0 -61 -54l-9 -48h103l-22 -129h-105l-66 -363q-22 -122 -75 -176t-182 -54z" />
    <glyph glyph-name="g" unicode="g" horiz-adv-x="557" 
d="M195 -229q-118 0 -210 62l72 126q69 -47 132 -47q46 0 68.5 20t32.5 70l2 10q9 47 17 76h-2q-31 -47 -64 -69.5t-85 -22.5q-58 0 -98.5 44.5t-40.5 120.5q0 166 87 256t234 90q146 0 209 -28l-83 -462q-25 -135 -82.5 -190.5t-188.5 -55.5zM235 133q14 0 26 7t28.5 29
t33.5 73.5t33 129.5l2 10q-12 3 -35 3q-46 0 -84 -49t-38 -143q0 -60 34 -60z" />
    <glyph glyph-name="h" unicode="h" horiz-adv-x="571" 
d="M5 0l108 596q-42 5 -72 5l20 111q14 2 253 8l-19 -80l-26 -145q-4 -23 -20 -84h2q63 96 161 96q67 0 94.5 -51.5t9.5 -150.5l-34 -184q29 0 69 -10l-20 -111h-245l52 300q10 58 -23 58q-73 0 -131 -329l-5 -29h-174z" />
    <glyph glyph-name="i" unicode="i" horiz-adv-x="311" 
d="M23 0l68 375q-42 5 -69 5l20 111q15 2 251 8l-19 -80l-54 -298q28 0 68 -10l-20 -111h-245zM221 541q-43 0 -70.5 28.5t-27.5 67.5q0 40 27.5 67.5t70.5 27.5t70.5 -27.5t27.5 -67.5q0 -39 -27.5 -67.5t-70.5 -28.5z" />
    <glyph glyph-name="j" unicode="j" horiz-adv-x="294" 
d="M-21 -229q-64 0 -110 19l48 131q21 -9 42 -9q28 0 41 17t23 70l69 376q-42 5 -72 5l20 111q15 2 249 8l-24 -132l-65 -371q-39 -225 -221 -225zM221 541q-43 0 -70.5 28.5t-27.5 67.5q0 40 27.5 67.5t70.5 27.5t70.5 -27.5t27.5 -67.5q0 -39 -27.5 -67.5t-70.5 -28.5z
" />
    <glyph glyph-name="k" unicode="k" horiz-adv-x="562" 
d="M322 0l-96 233l-40 -233h-179l105 596q-45 5 -73 5l20 111q15 2 256 8l-19 -80l-57 -331l156 184h189l-193 -216l65 -156q34 0 67 -7l15 -3l-20 -111h-196z" />
    <glyph glyph-name="l" unicode="l" horiz-adv-x="291" 
d="M5 0l108 596q-45 5 -73 5l20 111q14 2 253 8l-19 -80l-93 -519q29 0 69 -10l-20 -111h-245z" />
    <glyph glyph-name="m" unicode="m" horiz-adv-x="856" 
d="M23 0l68 375q-45 5 -69 5l20 111q13 2 241 8l-5 -35q-3 -22 -12 -54h2q22 31 38.5 48t48 33t70.5 16q48 0 75 -21.5t36 -69.5h2q32 45 68.5 68t87.5 23q141 0 105 -213l-31 -173q29 0 69 -10l-20 -111h-244l55 298q6 35 0.5 47.5t-23.5 12.5q-70 0 -128 -329l-5 -29h-174
l55 298q6 35 0.5 47.5t-23.5 12.5q-70 0 -128 -329l-5 -29h-174z" />
    <glyph glyph-name="n" unicode="n" horiz-adv-x="589" 
d="M23 0l68 375q-42 5 -69 5l20 111l242 8l-6 -34q-2 -6 -6 -27t-5 -27h2q65 96 161 96q67 0 94.5 -52t9.5 -150l-34 -184q29 0 69 -10l-20 -111h-245l52 301q10 57 -23 57q-73 0 -131 -329l-5 -29h-174z" />
    <glyph glyph-name="o" unicode="o" horiz-adv-x="541" 
d="M231 -12q-97 0 -156 57.5t-59 148.5q0 134 85.5 223.5t212.5 89.5q95 0 153 -58.5t58 -151.5q0 -138 -81 -223.5t-213 -85.5zM247 115q34 0 58.5 32t34 73t9.5 83q0 76 -49 76q-46 0 -75 -58.5t-29 -122.5q0 -83 51 -83z" />
    <glyph glyph-name="p" unicode="p" 
d="M-88 -218l20 111q32 10 74 10l86 472q-42 5 -69 5l20 111q13 2 241 8q-5 -45 -18 -95h2q33 51 67.5 77t89.5 26q58 0 95.5 -46.5t37.5 -127.5q0 -164 -85 -254.5t-214 -90.5q-36 0 -62 7l-17 -92q29 0 69 -10l-20 -111h-317zM254 108q47 0 84.5 48t37.5 144q0 60 -34 60
q-68 0 -122 -239l-2 -9q11 -4 36 -4z" />
    <glyph glyph-name="q" unicode="q" horiz-adv-x="560" 
d="M180 -218l20 111q32 10 74 10l19 100q11 59 19 85h-2q-34 -52 -66 -76t-83 -24q-61 0 -100 46t-39 127q0 167 88 256.5t235 89.5q131 0 207 -28l-104 -576q28 0 68 -10l-20 -111h-316zM238 133q68 0 121 239l2 9q-11 4 -34 4q-47 0 -85 -48t-38 -144q0 -60 34 -60z" />
    <glyph glyph-name="r" unicode="r" horiz-adv-x="452" 
d="M23 0l68 375q-42 5 -69 5l20 111q13 2 241 8l-5 -34q-4 -30 -13 -65h2q21 32 37 52t46 37.5t65 17.5q39 0 61 -12l-54 -164q-20 13 -52 13q-20 0 -34 -4t-34 -21.5t-35 -49.5t-32.5 -93t-32.5 -147l-5 -29h-174z" />
    <glyph glyph-name="s" unicode="s" horiz-adv-x="480" 
d="M208 -13q-57 0 -122 13.5t-86 28.5l24 134h122q0 -25 -3 -42q30 -13 60 -13t47 9t17 23q0 8 -4.5 14.5t-17 12.5t-21 9t-28.5 10q-32 10 -53.5 19.5t-47 27t-39 45.5t-13.5 65q0 79 61.5 121.5t169.5 42.5q126 0 198 -40l-23 -132h-122q0 6 2 44q-14 7 -42 7
q-63 0 -63 -30q0 -13 13.5 -21t44.5 -19q83 -29 114 -54q53 -41 53 -109q0 -82 -66.5 -124t-174.5 -42z" />
    <glyph glyph-name="t" unicode="t" horiz-adv-x="393" 
d="M178 -12q-79 0 -108 46.5t-8 156.5l32 173h-73l23 129h74l21 116l186 53l-31 -169h124l-22 -129h-126l-31 -171q-11 -61 17 -61q22 0 59 21l44 -115q-83 -50 -181 -50z" />
    <glyph glyph-name="u" unicode="u" horiz-adv-x="588" 
d="M159 -14q-68 0 -96 51t-10 151l34 187q-42 5 -69 5l20 111q14 2 246 8l-53 -306q-6 -30 -1 -44t23 -14q13 0 23.5 6.5t25.5 26.5t31.5 68t32.5 121l4 18q-42 5 -68 5l20 111q14 2 243 8l-39 -217l-15 -95t-10 -66q29 0 69 -10l-20 -111h-232q0 33 9 96h-2
q-17 -26 -30 -41.5t-33 -33.5t-46 -26.5t-57 -8.5z" />
    <glyph glyph-name="v" unicode="v" horiz-adv-x="529" 
d="M138 0l-63 375q-45 5 -69 5l20 111q90 7 214 7l14 -212q2 -42 2 -54v-32h2l127 293h178l-265 -493h-160z" />
    <glyph glyph-name="w" unicode="w" horiz-adv-x="787" 
d="M118 0l-35 375q-52 5 -73 5l20 111q93 8 225 8l2 -202q0 -48 -4 -95h2l125 291h144l9 -191q5 -64 1 -101h2l112 292h173l-224 -493h-159l-20 298h-2l-145 -298h-153z" />
    <glyph glyph-name="x" unicode="x" horiz-adv-x="521" 
d="M-48 0l214 250l-66 125q-42 5 -72 5l20 111q60 7 183 7l50 -111l79 106h187l-197 -230l69 -142q28 0 71 -10l-20 -111h-184l-53 129l-93 -129h-188z" />
    <glyph glyph-name="y" unicode="y" horiz-adv-x="533" 
d="M9 -229q-75 0 -103 18l54 134q26 -11 54 -11q49 0 73.5 23t53.5 81l-72 359q-45 5 -67 5l20 111q59 7 207 7l27 -226q4 -33 4 -75h2l2 7q7 31 25 68l99 221h179l-289 -535q-55 -101 -113.5 -144t-155.5 -43z" />
    <glyph glyph-name="z" unicode="z" horiz-adv-x="545" 
d="M-12 0l16 93l280 274h-87q-7 -27 -14 -41h-134l30 167h472l-18 -99l-273 -268h107q7 27 14 41h134l-30 -167h-497z" />
    <glyph glyph-name="braceleft" unicode="{" horiz-adv-x="443" 
d="M340 -161h-121q-69 0 -102.5 39.5t-21.5 108.5l24 136q9 50 -12 74.5t-84 27.5l22 126q67 0 94 22t37 74l24 137q26 136 150 136h145l-22 -127h-58q-26 0 -38.5 -16t-18.5 -49l-21 -122q-16 -96 -104 -124v-2q76 -26 60 -119l-23 -130q-6 -35 0.5 -50t33.5 -15h58z" />
    <glyph glyph-name="bar" unicode="|" horiz-adv-x="282" 
d="M-23 -250l176 1000h154l-176 -1000h-154z" />
    <glyph glyph-name="braceright" unicode="}" horiz-adv-x="443" 
d="M-43 -161l22 127h58q26 0 38 15t18 50l24 133q17 93 103 118v2q-77 27 -60 125l21 119q7 33 0 49t-33 16h-58l22 127h130q58 0 92.5 -40t22.5 -107l-22 -126q-9 -47 13 -72t83 -27l-22 -126q-62 -2 -92.5 -26t-38.5 -73l-26 -148q-14 -74 -51 -105t-101 -31h-143z" />
    <glyph glyph-name="uni00A0" unicode="&#xa0;" horiz-adv-x="220" 
 />
    <glyph glyph-name="exclamdown" unicode="&#xa1;" horiz-adv-x="326" 
d="M189 304q-46 0 -75 28.5t-29 70.5t29 71t75 29t75 -29t29 -71t-29 -70.5t-75 -28.5zM-14 -172l113 420h135l-44 -420h-204z" />
    <glyph glyph-name="sterling" unicode="&#xa3;" horiz-adv-x="619" 
d="M0 0l20 113q47 23 81 65t40 98h-100l22 121h78q0 46 6 82q17 98 93.5 148.5t189.5 50.5q128 0 197 -47l-33 -190h-118q0 50 8 96q-28 7 -48 7q-41 0 -72.5 -23t-39.5 -75q-3 -13 -5 -49h136l-22 -121h-119q-14 -89 -76 -137h179q16 56 18 61h126l-35 -200h-526z" />
    <glyph glyph-name="yen" unicode="&#xa5;" horiz-adv-x="681" 
d="M101 304l14 75h84l-63 167q-53 7 -60 9l19 111h291l-19 -111q-2 -1 -49 -8l53 -168h1l104 168q-26 3 -45 8l19 111h271l-19 -111q-24 -6 -50 -8l-120 -168h91l-14 -75h-131l-36 -50h157l-14 -75h-160l-10 -58q26 0 79 -10l-19 -111h-346l19 111l18 3l22 3q20 4 39 4
l11 58h-161l14 75h155l-19 50h-126z" />
    <glyph glyph-name="section" unicode="&#xa7;" horiz-adv-x="462" 
d="M116 -152q-94 0 -150 41l73 121q39 -32 76 -32q28 0 48 14t20 36q0 8 -3.5 17.5t-7.5 16.5t-13.5 18t-15 17t-19 20t-19.5 20q-79 85 -79 166q0 52 32.5 90t84.5 59q-25 45 -25 89q0 87 62 139t164 52q90 0 139 -33l-65 -116q-29 25 -67 25q-22 0 -37 -12.5t-15 -33.5
q0 -10 3.5 -20t12.5 -22t15.5 -19.5t21 -22.5t21.5 -22q74 -78 74 -166q0 -93 -108 -159q25 -42 25 -89q0 -94 -67 -144t-181 -50zM245 238l13 -12q17 15 17 40q0 31 -42 75l-21 24q-17 -19 -17 -41q0 -31 39 -73z" />
    <glyph glyph-name="dieresis" unicode="&#xa8;" horiz-adv-x="500" 
d="M204 548q-39 0 -63.5 24t-24.5 60q0 34 25 58.5t63 24.5t63 -24.5t25 -58.5q0 -36 -24.5 -60t-63.5 -24zM432 548q-39 0 -63.5 24t-24.5 60q0 34 25 58.5t63 24.5t63 -24.5t25 -58.5q0 -36 -24.5 -60t-63.5 -24z" />
    <glyph glyph-name="copyright" unicode="&#xa9;" horiz-adv-x="813" 
d="M426 -14q-153 0 -262.5 109.5t-109.5 263.5t109.5 263.5t262.5 109.5q154 0 263.5 -109.5t109.5 -263.5t-109.5 -263.5t-263.5 -109.5zM426 78q119 0 194.5 77t75.5 204q0 126 -75.5 203.5t-194.5 77.5t-194.5 -77.5t-75.5 -203.5q0 -127 75.5 -204t194.5 -77zM432 142
q-92 0 -153 60t-61 157q0 94 62.5 155.5t154.5 61.5q97 0 154 -57v-131h-95q-3 11 -9 59q-20 9 -44 9q-35 0 -59 -25.5t-24 -69.5q0 -47 23 -74.5t62 -27.5q44 0 88 44l65 -88q-66 -73 -164 -73z" />
    <glyph glyph-name="guillemotleft" unicode="&#xab;" horiz-adv-x="591" 
d="M96 51l-72 190l139 199h186l-143 -201l67 -188h-177zM348 51l-72 190l139 199h186l-143 -201l67 -188h-177z" />
    <glyph glyph-name="uni00AD" unicode="&#xad;" horiz-adv-x="346" 
d="M41 207l25 142h250l-25 -142h-250z" />
    <glyph glyph-name="registered" unicode="&#xae;" horiz-adv-x="813" 
d="M426 -14q-153 0 -262.5 109.5t-109.5 263.5t109.5 263.5t262.5 109.5q154 0 263.5 -109.5t109.5 -263.5t-109.5 -263.5t-263.5 -109.5zM426 78q119 0 194.5 77t75.5 204q0 126 -75.5 203.5t-194.5 77.5t-194.5 -77.5t-75.5 -203.5q0 -127 75.5 -204t194.5 -77zM249 170
v69q1 0 34 7v237q-33 7 -34 7v69h183q159 0 159 -118q0 -44 -23 -70.5t-55 -36.5q14 -6 35 -43l10 -17q19 -32 52 -32h2v-67q-19 -7 -53 -7q-40 0 -57.5 11.5t-34.5 41.5l-33 60q-11 21 -18 27.5t-18 6.5v-70q5 -1 13.5 -2.5t12.5 -3.5v-69h-175zM398 385h32q22 0 34 13.5
t12 34.5q0 48 -50 48h-28v-96z" />
    <glyph glyph-name="overscore" unicode="&#xaf;" horiz-adv-x="500" 
d="M161 552l22 122h285l-22 -122h-285z" />
    <glyph glyph-name="degree" unicode="&#xb0;" horiz-adv-x="352" 
d="M224 380q-62 0 -105.5 43t-43.5 106t43.5 106t105.5 43q61 0 104.5 -43t43.5 -106t-43 -106t-105 -43zM224 474q22 0 35.5 15t13.5 40t-13.5 40t-35.5 15q-23 0 -36 -15t-13 -40t13 -40t36 -15z" />
    <glyph glyph-name="acute" unicode="&#xb4;" horiz-adv-x="500" 
d="M172 542l100 142h216l-166 -142h-150z" />
    <glyph glyph-name="mu" unicode="&#xb5;" horiz-adv-x="559" 
d="M-37 -218l126 711h174l-54 -303q-10 -55 37 -55q42 0 74 40l58 318h174l-59 -322q-19 -108 -15 -171h-173q-8 29 -2 62q-49 -62 -138 -62q0 -54 -14 -131l-16 -87h-172z" />
    <glyph glyph-name="middot" unicode="&#xb7;" horiz-adv-x="334" 
d="M173 186q-45 0 -76.5 30t-31.5 74q0 43 31.5 73t76.5 30q44 0 75.5 -30t31.5 -73q0 -45 -31 -74.5t-76 -29.5z" />
    <glyph glyph-name="cedilla" unicode="&#xb8;" horiz-adv-x="500" 
d="M182 -238q-60 0 -96 17l27 73q26 -11 45 -11q45 0 45 32q0 40 -71 34l36 98h97l-19 -52q73 -19 73 -86q0 -46 -36.5 -75.5t-100.5 -29.5z" />
    <glyph glyph-name="guillemotright" unicode="&#xbb;" horiz-adv-x="591" 
d="M-6 51l143 201l-67 188h177l72 -190l-139 -199h-186zM246 51l143 201l-67 188h177l72 -190l-139 -199h-186z" />
    <glyph glyph-name="questiondown" unicode="&#xbf;" horiz-adv-x="425" 
d="M178 -184q-103 0 -154 43.5t-51 110.5q0 36 10.5 64.5t31.5 49t38.5 33t45.5 27.5q30 16 44 25t27 23.5t13 31.5q0 15 -4 24h139q10 -24 10 -52q0 -21 -6.5 -38.5t-20 -30t-24.5 -20t-29 -18.5q-5 -3 -7 -4q-52 -33 -64 -48q-13 -16 -13 -37q0 -19 14.5 -31t41.5 -12
q39 0 83 21l56 -124q-78 -38 -181 -38zM286 304q-46 0 -75 28.5t-29 70.5t29 71t75 29t75 -29t29 -71t-29 -70.5t-75 -28.5z" />
    <glyph glyph-name="Agrave" unicode="&#xc0;" horiz-adv-x="741" 
d="M-31 0l20 111q3 1 56 9l316 546h181l106 -547q42 -2 60 -8l-20 -111h-309l20 111q17 3 24 4l32 4l-6 43h-202l-22 -43l50 -8l-20 -111h-286zM304 274h130l-10 70q-3 19 -8.5 62t-7.5 56l-1 13h-2l-7 -14q-30 -65 -56 -113zM377 713l-116 142h216l50 -142h-150z" />
    <glyph glyph-name="Aacute" unicode="&#xc1;" horiz-adv-x="741" 
d="M-31 0l20 111q3 1 56 9l316 546h181l106 -547q42 -2 60 -8l-20 -111h-309l20 111q17 3 24 4l32 4l-6 43h-202l-22 -43l50 -8l-20 -111h-286zM304 274h130l-10 70q-3 19 -8.5 62t-7.5 56l-1 13h-2l-7 -14q-30 -65 -56 -113zM372 713l100 142h216l-166 -142h-150z" />
    <glyph glyph-name="Acircumflex" unicode="&#xc2;" horiz-adv-x="741" 
d="M-31 0l20 111q3 1 56 9l316 546h181l106 -547q42 -2 60 -8l-20 -111h-309l20 111q17 3 24 4l32 4l-6 43h-202l-22 -43l50 -8l-20 -111h-286zM304 274h130l-10 70q-3 19 -8.5 62t-7.5 56l-1 13h-2l-7 -14q-30 -65 -56 -113zM248 714l157 164h136l97 -164h-139l-42 53
l-60 -53h-149z" />
    <glyph glyph-name="Atilde" unicode="&#xc3;" horiz-adv-x="741" 
d="M-31 0l20 111q3 1 56 9l316 546h181l106 -547q42 -2 60 -8l-20 -111h-309l20 111q17 3 24 4l32 4l-6 43h-202l-22 -43l50 -8l-20 -111h-286zM304 274h130l-10 70q-3 19 -8.5 62t-7.5 56l-1 13h-2l-7 -14q-30 -65 -56 -113zM515 720q-38 0 -70.5 16t-50.5 16
q-28 0 -61 -30l-62 66q23 34 60 61t77 27q37 0 70.5 -16t50.5 -16q32 0 63 31l62 -66q-21 -33 -60 -61t-79 -28z" />
    <glyph glyph-name="Adieresis" unicode="&#xc4;" horiz-adv-x="741" 
d="M-31 0l20 111q3 1 56 9l316 546h181l106 -547q42 -2 60 -8l-20 -111h-309l20 111q17 3 24 4l32 4l-6 43h-202l-22 -43l50 -8l-20 -111h-286zM304 274h130l-10 70q-3 19 -8.5 62t-7.5 56l-1 13h-2l-7 -14q-30 -65 -56 -113zM345 719q-39 0 -63.5 24t-24.5 60q0 34 25 58.5
t63 24.5t63 -24.5t25 -58.5q0 -36 -24.5 -60t-63.5 -24zM573 719q-39 0 -63.5 24t-24.5 60q0 34 25 58.5t63 24.5t63 -24.5t25 -58.5q0 -36 -24.5 -60t-63.5 -24z" />
    <glyph glyph-name="Aring" unicode="&#xc5;" horiz-adv-x="741" 
d="M-31 0l20 111q3 1 56 9l316 546h181l106 -547q42 -2 60 -8l-20 -111h-309l20 111q17 3 24 4l32 4l-6 43h-202l-22 -43l50 -8l-20 -111h-286zM304 274h130l-10 70q-3 19 -8.5 62t-7.5 56l-1 13h-2l-7 -14q-30 -65 -56 -113zM463 706q-47 0 -83 33t-36 82t36 82t83 33
t83 -33t36 -82t-36 -82t-83 -33zM463 774q19 0 30.5 14t11.5 33q0 21 -11 34t-31 13t-31 -13t-11 -34q0 -19 11.5 -33t30.5 -14z" />
    <glyph glyph-name="AE" unicode="&#xc6;" horiz-adv-x="922" 
d="M-34 0l20 111q20 6 39 7l306 427q-39 2 -70 10l20 111h678l-36 -209h-134q-2 27 3 70h-126l-22 -126h166l-23 -128h-166l-24 -134h136q14 52 20 70h133l-37 -209h-512l20 111q22 6 55 8l12 67h-164l-45 -67q50 -8 52 -8l-20 -111h-281zM350 320h97l36 205h-3
q-41 -73 -91 -147z" />
    <glyph glyph-name="Ccedilla" unicode="&#xc7;" horiz-adv-x="663" 
d="M343 -12q-151 0 -228 79t-77 204q0 107 50 199t146.5 150t218.5 58q139 0 206 -52l-34 -193h-134q-2 47 7 105q-21 4 -51 4q-88 0 -148.5 -76t-60.5 -182q0 -74 35.5 -116t102.5 -42q39 0 76 13q7 40 30 111h134l-34 -191q-31 -28 -94 -49.5t-145 -21.5zM288 -238
q-60 0 -96 17l27 73q26 -11 45 -11q45 0 45 32q0 40 -71 34l36 98h97l-19 -52q73 -19 73 -86q0 -46 -36.5 -75.5t-100.5 -29.5z" />
    <glyph glyph-name="Egrave" unicode="&#xc8;" horiz-adv-x="584" 
d="M-29 0l20 111q40 10 77 10l76 424q-43 0 -77 10l20 111h534l-36 -209h-134q-2 27 3 70h-126l-22 -126h166l-23 -128h-166l-24 -134h136q14 52 20 70h133l-37 -209h-540zM284 713l-116 142h216l50 -142h-150z" />
    <glyph glyph-name="Eacute" unicode="&#xc9;" horiz-adv-x="584" 
d="M-29 0l20 111q40 10 77 10l76 424q-43 0 -77 10l20 111h534l-36 -209h-134q-2 27 3 70h-126l-22 -126h166l-23 -128h-166l-24 -134h136q14 52 20 70h133l-37 -209h-540zM279 713l100 142h216l-166 -142h-150z" />
    <glyph glyph-name="Ecircumflex" unicode="&#xca;" horiz-adv-x="584" 
d="M-29 0l20 111q40 10 77 10l76 424q-43 0 -77 10l20 111h534l-36 -209h-134q-2 27 3 70h-126l-22 -126h166l-23 -128h-166l-24 -134h136q14 52 20 70h133l-37 -209h-540zM155 714l157 164h136l97 -164h-139l-42 53l-60 -53h-149z" />
    <glyph glyph-name="Edieresis" unicode="&#xcb;" horiz-adv-x="584" 
d="M-29 0l20 111q40 10 77 10l76 424q-43 0 -77 10l20 111h534l-36 -209h-134q-2 27 3 70h-126l-22 -126h166l-23 -128h-166l-24 -134h136q14 52 20 70h133l-37 -209h-540zM252 719q-39 0 -63.5 24t-24.5 60q0 34 25 58.5t63 24.5t63 -24.5t25 -58.5q0 -36 -24.5 -60
t-63.5 -24zM480 719q-39 0 -63.5 24t-24.5 60q0 34 25 58.5t63 24.5t63 -24.5t25 -58.5q0 -36 -24.5 -60t-63.5 -24z" />
    <glyph glyph-name="Igrave" unicode="&#xcc;" horiz-adv-x="368" 
d="M-29 0l20 111q40 10 77 10l76 424q-43 0 -77 10l20 111h342l-20 -111q-38 -10 -77 -10l-76 -424q37 0 77 -10l-20 -111h-342zM195 713l-116 142h216l50 -142h-150z" />
    <glyph glyph-name="Iacute" unicode="&#xcd;" horiz-adv-x="368" 
d="M-29 0l20 111q40 10 77 10l76 424q-43 0 -77 10l20 111h342l-20 -111q-38 -10 -77 -10l-76 -424q37 0 77 -10l-20 -111h-342zM189 713l100 142h216l-166 -142h-150z" />
    <glyph glyph-name="Icircumflex" unicode="&#xce;" horiz-adv-x="368" 
d="M-29 0l20 111q40 10 77 10l76 424q-43 0 -77 10l20 111h342l-20 -111q-38 -10 -77 -10l-76 -424q37 0 77 -10l-20 -111h-342zM66 714l157 164h136l97 -164h-139l-42 53l-60 -53h-149z" />
    <glyph glyph-name="Idieresis" unicode="&#xcf;" horiz-adv-x="368" 
d="M-29 0l20 111q40 10 77 10l76 424q-43 0 -77 10l20 111h342l-20 -111q-38 -10 -77 -10l-76 -424q37 0 77 -10l-20 -111h-342zM163 719q-39 0 -63.5 24t-24.5 60q0 34 25 58.5t63 24.5t63 -24.5t25 -58.5q0 -36 -24.5 -60t-63.5 -24zM391 719q-39 0 -63.5 24t-24.5 60
q0 34 25 58.5t63 24.5t63 -24.5t25 -58.5q0 -36 -24.5 -60t-63.5 -24z" />
    <glyph glyph-name="Eth" unicode="&#xd0;" horiz-adv-x="736" 
d="M-19 0l20 111q40 10 77 10l26 149h-56l23 131h57l26 144q-43 0 -77 10l20 111h309q159 0 242.5 -70.5t83.5 -197.5q0 -173 -116 -285.5t-326 -112.5h-309zM269 139h57q100 0 153.5 66.5t53.5 182.5q0 64 -36 101.5t-103 37.5h-55l-23 -126h97l-23 -131h-98z" />
    <glyph glyph-name="Ntilde" unicode="&#xd1;" horiz-adv-x="783" 
d="M-29 0l20 111q40 10 77 10l76 424q-43 0 -77 10l20 111h258l147 -263q16 -29 31 -61t22.5 -50.5t7.5 -19.5h1q0 41 16 122l27 151q-42 0 -76 10l20 111h308l-20 -111q-40 -10 -73 -10l-97 -545h-151l-162 297q-36 65 -61 123l-6 13h-2q0 -9 -17 -124l-33 -188
q35 0 77 -10l-20 -111h-313zM536 720q-38 0 -70.5 16t-50.5 16q-29 0 -61 -30l-62 66q23 34 60 61t77 27q37 0 70.5 -16t50.5 -16q32 0 63 31l62 -66q-21 -33 -60 -61t-79 -28z" />
    <glyph glyph-name="Ograve" unicode="&#xd2;" horiz-adv-x="766" 
d="M348 -12q-147 0 -228.5 81t-81.5 213q0 168 114 282t295 114q146 0 225.5 -79.5t79.5 -207.5q0 -172 -112 -287.5t-292 -115.5zM371 124q87 0 134.5 76.5t47.5 186.5q0 71 -33.5 113t-95.5 42q-88 0 -137.5 -75.5t-49.5 -181.5q0 -75 36 -118t98 -43zM391 713l-116 142
h216l50 -142h-150z" />
    <glyph glyph-name="Oacute" unicode="&#xd3;" horiz-adv-x="766" 
d="M348 -12q-147 0 -228.5 81t-81.5 213q0 168 114 282t295 114q146 0 225.5 -79.5t79.5 -207.5q0 -172 -112 -287.5t-292 -115.5zM371 124q87 0 134.5 76.5t47.5 186.5q0 71 -33.5 113t-95.5 42q-88 0 -137.5 -75.5t-49.5 -181.5q0 -75 36 -118t98 -43zM386 713l100 142
h216l-166 -142h-150z" />
    <glyph glyph-name="Ocircumflex" unicode="&#xd4;" horiz-adv-x="766" 
d="M348 -12q-147 0 -228.5 81t-81.5 213q0 168 114 282t295 114q146 0 225.5 -79.5t79.5 -207.5q0 -172 -112 -287.5t-292 -115.5zM371 124q87 0 134.5 76.5t47.5 186.5q0 71 -33.5 113t-95.5 42q-88 0 -137.5 -75.5t-49.5 -181.5q0 -75 36 -118t98 -43zM262 714l157 164
h136l97 -164h-139l-42 53l-60 -53h-149z" />
    <glyph glyph-name="Otilde" unicode="&#xd5;" horiz-adv-x="766" 
d="M348 -12q-147 0 -228.5 81t-81.5 213q0 168 114 282t295 114q146 0 225.5 -79.5t79.5 -207.5q0 -172 -112 -287.5t-292 -115.5zM371 124q87 0 134.5 76.5t47.5 186.5q0 71 -33.5 113t-95.5 42q-88 0 -137.5 -75.5t-49.5 -181.5q0 -75 36 -118t98 -43zM529 720
q-38 0 -70.5 16t-50.5 16q-28 0 -61 -30l-62 66q23 34 60 61t77 27q37 0 70.5 -16t50.5 -16q32 0 63 31l62 -66q-21 -33 -60 -61t-79 -28z" />
    <glyph glyph-name="Odieresis" unicode="&#xd6;" horiz-adv-x="766" 
d="M348 -12q-147 0 -228.5 81t-81.5 213q0 168 114 282t295 114q146 0 225.5 -79.5t79.5 -207.5q0 -172 -112 -287.5t-292 -115.5zM371 124q87 0 134.5 76.5t47.5 186.5q0 71 -33.5 113t-95.5 42q-88 0 -137.5 -75.5t-49.5 -181.5q0 -75 36 -118t98 -43zM359 719
q-39 0 -63.5 24t-24.5 60q0 34 25 58.5t63 24.5t63 -24.5t25 -58.5q0 -36 -24.5 -60t-63.5 -24zM587 719q-39 0 -63.5 24t-24.5 60q0 34 25 58.5t63 24.5t63 -24.5t25 -58.5q0 -36 -24.5 -60t-63.5 -24z" />
    <glyph glyph-name="multiply" unicode="&#xd7;" horiz-adv-x="512" 
d="M107 51l-83 101l132 113l-94 114l119 102l95 -114l131 111l84 -102l-131 -111l95 -115l-120 -102l-95 115z" />
    <glyph glyph-name="Oslash" unicode="&#xd8;" horiz-adv-x="766" 
d="M105 -85l-95 85l86 95q-58 76 -58 187q0 168 114 282t295 114q84 0 150 -29l88 97l95 -85l-83 -91q55 -74 55 -179q0 -172 -112 -287.5t-292 -115.5q-85 0 -151 29zM370 119q90 0 138.5 78t48.5 192q0 12 -2 34l-256 -286q30 -18 71 -18zM233 283q0 -25 3 -44l259 289
q-29 19 -70 19q-91 0 -141.5 -77t-50.5 -187z" />
    <glyph glyph-name="Ugrave" unicode="&#xd9;" horiz-adv-x="734" 
d="M358 -12q-140 0 -209.5 57t-69.5 164q0 32 6 68l47 268q-27 0 -61 10l20 111h318l-20 -111q-38 -10 -69 -10l-47 -267q-13 -73 10.5 -104.5t88.5 -31.5q59 0 89.5 30.5t43.5 101.5l48 271q-33 0 -67 10l20 111h289l-20 -111q-38 -10 -63 -10l-49 -278
q-25 -143 -100.5 -211t-204.5 -68zM395 713l-116 142h216l50 -142h-150z" />
    <glyph glyph-name="Uacute" unicode="&#xda;" horiz-adv-x="734" 
d="M358 -12q-140 0 -209.5 57t-69.5 164q0 32 6 68l47 268q-27 0 -61 10l20 111h318l-20 -111q-38 -10 -69 -10l-47 -267q-13 -73 10.5 -104.5t88.5 -31.5q59 0 89.5 30.5t43.5 101.5l48 271q-33 0 -67 10l20 111h289l-20 -111q-38 -10 -63 -10l-49 -278
q-25 -143 -100.5 -211t-204.5 -68zM390 713l100 142h216l-166 -142h-150z" />
    <glyph glyph-name="Ucircumflex" unicode="&#xdb;" horiz-adv-x="734" 
d="M358 -12q-140 0 -209.5 57t-69.5 164q0 32 6 68l47 268q-27 0 -61 10l20 111h318l-20 -111q-38 -10 -69 -10l-47 -267q-13 -73 10.5 -104.5t88.5 -31.5q59 0 89.5 30.5t43.5 101.5l48 271q-33 0 -67 10l20 111h289l-20 -111q-38 -10 -63 -10l-49 -278
q-25 -143 -100.5 -211t-204.5 -68zM266 714l157 164h136l97 -164h-139l-42 53l-60 -53h-149z" />
    <glyph glyph-name="Udieresis" unicode="&#xdc;" horiz-adv-x="734" 
d="M358 -12q-140 0 -209.5 57t-69.5 164q0 32 6 68l47 268q-27 0 -61 10l20 111h318l-20 -111q-38 -10 -69 -10l-47 -267q-13 -73 10.5 -104.5t88.5 -31.5q59 0 89.5 30.5t43.5 101.5l48 271q-33 0 -67 10l20 111h289l-20 -111q-38 -10 -63 -10l-49 -278
q-25 -143 -100.5 -211t-204.5 -68zM363 719q-39 0 -63.5 24t-24.5 60q0 34 25 58.5t63 24.5t63 -24.5t25 -58.5q0 -36 -24.5 -60t-63.5 -24zM591 719q-39 0 -63.5 24t-24.5 60q0 34 25 58.5t63 24.5t63 -24.5t25 -58.5q0 -36 -24.5 -60t-63.5 -24z" />
    <glyph glyph-name="Yacute" unicode="&#xdd;" horiz-adv-x="644" 
d="M112 0l20 111q40 10 77 10l23 124l-114 301q-32 2 -56 9l20 111h286l-20 -111q-6 -2 -21.5 -4t-21.5 -3l52 -145h1l95 145l-15 2.5l-15 2.5t-10 2l20 111h274l-20 -111q-5 -1 -14 -2.5t-20.5 -3t-18.5 -2.5l-215 -301l-22 -125q20 0 77 -10l-19 -111h-343zM324 713
l100 142h216l-166 -142h-150z" />
    <glyph glyph-name="Thorn" unicode="&#xde;" horiz-adv-x="628" 
d="M-29 0l20 111q40 10 77 10l76 424q-43 0 -77 10l20 111h266l-13 -74h52q109 0 173 -47.5t64 -150.5q0 -53 -18.5 -93.5t-48.5 -65t-73 -40t-86 -21t-93 -5.5h-45l-9 -48q37 0 77 -10l-20 -111h-342zM289 303h43q115 0 115 81q0 73 -87 73h-44z" />
    <glyph glyph-name="germandbls" unicode="&#xdf;" horiz-adv-x="627" 
d="M-53 -229q-44 0 -81 13l43 127q19 -8 43 -8q60 0 75 82l69 379h-75l23 129h76l1 5q23 129 89 180t178 51t174.5 -46.5t62.5 -119.5q0 -45 -17.5 -74t-48.5 -58l-20 -16t-19.5 -16.5t-13 -13.5t-11.5 -16.5t-3 -15.5t3 -15.5t10 -16t12 -14.5t17 -17t18 -17
q60 -60 60 -131q0 -80 -61 -117t-154 -37q-80 0 -129 31l41 121q43 -24 80 -24q27 0 42 9t15 23q0 10 -6 20t-11.5 15.5t-21 19t-20.5 18.5q-60 52 -60 113q0 36 16.5 60t46.5 50q23 20 31.5 28t19.5 27.5t11 39.5q0 29 -17 47.5t-51 18.5q-71 0 -90 -109l-90 -495
q-22 -122 -75 -176t-182 -54z" />
    <glyph glyph-name="agrave" unicode="&#xe0;" horiz-adv-x="568" 
d="M149 -12q-55 0 -93 45.5t-38 123.5q0 167 92.5 258.5t233.5 91.5q127 0 196 -36l-34 -189q-17 -98 -24 -161q28 0 68 -10l-20 -111h-230q0 65 8 99h-2q-61 -111 -157 -111zM233 132q67 0 115 236l3 14q-12 3 -31 3q-42 0 -80.5 -53t-38.5 -146q0 -54 32 -54zM260 542
l-116 142h216l50 -142h-150z" />
    <glyph glyph-name="aacute" unicode="&#xe1;" horiz-adv-x="568" 
d="M149 -12q-55 0 -93 45.5t-38 123.5q0 167 92.5 258.5t233.5 91.5q127 0 196 -36l-34 -189q-17 -98 -24 -161q28 0 68 -10l-20 -111h-230q0 65 8 99h-2q-61 -111 -157 -111zM233 132q67 0 115 236l3 14q-12 3 -31 3q-42 0 -80.5 -53t-38.5 -146q0 -54 32 -54zM255 542
l100 142h216l-166 -142h-150z" />
    <glyph glyph-name="acircumflex" unicode="&#xe2;" horiz-adv-x="568" 
d="M149 -12q-55 0 -93 45.5t-38 123.5q0 167 92.5 258.5t233.5 91.5q127 0 196 -36l-34 -189q-17 -98 -24 -161q28 0 68 -10l-20 -111h-230q0 65 8 99h-2q-61 -111 -157 -111zM233 132q67 0 115 236l3 14q-12 3 -31 3q-42 0 -80.5 -53t-38.5 -146q0 -54 32 -54zM131 543
l157 164h136l97 -164h-139l-42 53l-60 -53h-149z" />
    <glyph glyph-name="atilde" unicode="&#xe3;" horiz-adv-x="568" 
d="M149 -12q-55 0 -93 45.5t-38 123.5q0 167 92.5 258.5t233.5 91.5q127 0 196 -36l-34 -189q-17 -98 -24 -161q28 0 68 -10l-20 -111h-230q0 65 8 99h-2q-61 -111 -157 -111zM233 132q67 0 115 236l3 14q-12 3 -31 3q-42 0 -80.5 -53t-38.5 -146q0 -54 32 -54zM398 549
q-38 0 -70.5 16t-50.5 16q-29 0 -61 -30l-62 66q23 34 60 61t77 27q37 0 70.5 -16t50.5 -16q32 0 63 31l62 -66q-21 -33 -60 -61t-79 -28z" />
    <glyph glyph-name="adieresis" unicode="&#xe4;" horiz-adv-x="568" 
d="M149 -12q-55 0 -93 45.5t-38 123.5q0 167 92.5 258.5t233.5 91.5q127 0 196 -36l-34 -189q-17 -98 -24 -161q28 0 68 -10l-20 -111h-230q0 65 8 99h-2q-61 -111 -157 -111zM233 132q67 0 115 236l3 14q-12 3 -31 3q-42 0 -80.5 -53t-38.5 -146q0 -54 32 -54zM228 548
q-39 0 -63.5 24t-24.5 60q0 34 25 58.5t63 24.5t63 -24.5t25 -58.5q0 -36 -24.5 -60t-63.5 -24zM456 548q-39 0 -63.5 24t-24.5 60q0 34 25 58.5t63 24.5t63 -24.5t25 -58.5q0 -36 -24.5 -60t-63.5 -24z" />
    <glyph glyph-name="aring" unicode="&#xe5;" horiz-adv-x="568" 
d="M149 -12q-55 0 -93 45.5t-38 123.5q0 167 92.5 258.5t233.5 91.5q127 0 196 -36l-34 -189q-17 -98 -24 -161q28 0 68 -10l-20 -111h-230q0 65 8 99h-2q-61 -111 -157 -111zM233 132q67 0 115 236l3 14q-12 3 -31 3q-42 0 -80.5 -53t-38.5 -146q0 -54 32 -54zM346 535
q-47 0 -83 33t-36 82t36 82t83 33t83 -33t36 -82t-36 -82t-83 -33zM346 603q19 0 30.5 14t11.5 33q0 21 -11 34t-31 13t-31 -13t-11 -34q0 -19 11.5 -33t30.5 -14z" />
    <glyph glyph-name="ae" unicode="&#xe6;" horiz-adv-x="756" 
d="M164 -12q-71 0 -114.5 36t-43.5 98q0 99 83 143q71 38 201 38h10q6 14 6 30q0 38 -57 38q-56 0 -121 -40l-63 110q90 66 209 66q99 0 147 -42v-1q70 43 158 43q80 0 123.5 -37.5t43.5 -102.5q0 -84 -82 -133.5t-203 -51.5q3 -30 17 -45.5t44 -15.5q63 0 126 45l55 -111
q-90 -67 -212 -67q-103 0 -159 60q-80 -60 -168 -60zM218 111q35 0 71 25l-3 16l-2 16q-2 22 -2 33h-11q-48 0 -69 -11q-27 -14 -27 -45q0 -34 43 -34zM550 378q-33 0 -54 -26t-30 -68q54 3 85.5 19.5t31.5 41.5q0 33 -33 33z" />
    <glyph glyph-name="ccedilla" unicode="&#xe7;" horiz-adv-x="468" 
d="M234 -12q-104 0 -161 55.5t-57 146.5q0 145 89.5 231t223.5 86q94 0 143 -29l-29 -172h-121q-1 21 4 64q-56 0 -93 -44.5t-37 -115.5q0 -85 69 -85q44 0 80 32l56 -114q-63 -55 -167 -55zM159 -238q-60 0 -96 17l27 73q26 -11 45 -11q45 0 45 32q0 40 -71 34l36 98h97
l-19 -52q73 -19 73 -86q0 -46 -36.5 -75.5t-100.5 -29.5z" />
    <glyph glyph-name="egrave" unicode="&#xe8;" horiz-adv-x="493" 
d="M228 -12q-101 0 -155.5 55.5t-54.5 157.5q0 135 85.5 220.5t212.5 85.5q80 0 123.5 -37.5t43.5 -102.5q0 -86 -76.5 -133t-207.5 -60q8 -53 60 -53q63 0 126 45l55 -111q-90 -67 -212 -67zM287 378q-33 0 -55 -29t-31 -73q58 5 88.5 23.5t30.5 45.5q0 33 -33 33zM239 542
l-116 142h216l50 -142h-150z" />
    <glyph glyph-name="eacute" unicode="&#xe9;" horiz-adv-x="493" 
d="M228 -12q-101 0 -155.5 55.5t-54.5 157.5q0 135 85.5 220.5t212.5 85.5q80 0 123.5 -37.5t43.5 -102.5q0 -86 -76.5 -133t-207.5 -60q8 -53 60 -53q63 0 126 45l55 -111q-90 -67 -212 -67zM287 378q-33 0 -55 -29t-31 -73q58 5 88.5 23.5t30.5 45.5q0 33 -33 33zM233 542
l100 142h216l-166 -142h-150z" />
    <glyph glyph-name="ecircumflex" unicode="&#xea;" horiz-adv-x="493" 
d="M228 -12q-101 0 -155.5 55.5t-54.5 157.5q0 135 85.5 220.5t212.5 85.5q80 0 123.5 -37.5t43.5 -102.5q0 -86 -76.5 -133t-207.5 -60q8 -53 60 -53q63 0 126 45l55 -111q-90 -67 -212 -67zM287 378q-33 0 -55 -29t-31 -73q58 5 88.5 23.5t30.5 45.5q0 33 -33 33zM109 543
l157 164h136l97 -164h-139l-42 53l-60 -53h-149z" />
    <glyph glyph-name="edieresis" unicode="&#xeb;" horiz-adv-x="493" 
d="M228 -12q-101 0 -155.5 55.5t-54.5 157.5q0 135 85.5 220.5t212.5 85.5q80 0 123.5 -37.5t43.5 -102.5q0 -86 -76.5 -133t-207.5 -60q8 -53 60 -53q63 0 126 45l55 -111q-90 -67 -212 -67zM287 378q-33 0 -55 -29t-31 -73q58 5 88.5 23.5t30.5 45.5q0 33 -33 33zM206 548
q-39 0 -63.5 24t-24.5 60q0 34 25 58.5t63 24.5t63 -24.5t25 -58.5q0 -36 -24.5 -60t-63.5 -24zM434 548q-39 0 -63.5 24t-24.5 60q0 34 25 58.5t63 24.5t63 -24.5t25 -58.5q0 -36 -24.5 -60t-63.5 -24z" />
    <glyph glyph-name="igrave" unicode="&#xec;" horiz-adv-x="311" 
d="M23 0l68 375q-42 5 -72 5l20 111q15 2 254 8l-19 -80l-54 -298q28 0 68 -10l-20 -111h-245zM137 542l-116 142h216l50 -142h-150z" />
    <glyph glyph-name="iacute" unicode="&#xed;" horiz-adv-x="311" 
d="M23 0l68 375q-42 5 -72 5l20 111q15 2 254 8l-19 -80l-54 -298q28 0 68 -10l-20 -111h-245zM132 542l100 142h216l-166 -142h-150z" />
    <glyph glyph-name="icircumflex" unicode="&#xee;" horiz-adv-x="311" 
d="M23 0l68 375q-42 5 -72 5l20 111q15 2 254 8l-19 -80l-54 -298q28 0 68 -10l-20 -111h-245zM8 543l157 164h136l97 -164h-139l-42 53l-60 -53h-149z" />
    <glyph glyph-name="idieresis" unicode="&#xef;" horiz-adv-x="311" 
d="M23 0l68 375q-42 5 -72 5l20 111q15 2 254 8l-19 -80l-54 -298q28 0 68 -10l-20 -111h-245zM105 548q-39 0 -63.5 24t-24.5 60q0 34 25 58.5t63 24.5t63 -24.5t25 -58.5q0 -36 -24.5 -60t-63.5 -24zM333 548q-39 0 -63.5 24t-24.5 60q0 34 25 58.5t63 24.5t63 -24.5
t25 -58.5q0 -36 -24.5 -60t-63.5 -24z" />
    <glyph glyph-name="eth" unicode="&#xf0;" horiz-adv-x="557" 
d="M239 -12q-101 0 -162 53.5t-61 149.5q0 138 82.5 219t189.5 81q35 0 65 -15q-13 45 -38 70l-55 -46l-53 60l31 26q-41 10 -104 10l48 136q108 0 186 -37l78 66l53 -60l-61 -51q106 -92 106 -259q0 -179 -76 -291t-229 -112zM253 114q46 0 72.5 68.5t33.5 165.5
q-19 17 -50 17q-52 0 -79.5 -48.5t-27.5 -114.5q0 -88 51 -88z" />
    <glyph glyph-name="ntilde" unicode="&#xf1;" horiz-adv-x="589" 
d="M23 0l68 375q-42 5 -69 5l20 111l242 8l-6 -34q-2 -6 -6 -27t-5 -27h2q65 96 161 96q67 0 94.5 -52t9.5 -150l-34 -184q29 0 69 -10l-20 -111h-245l52 301q10 57 -23 57q-73 0 -131 -329l-5 -29h-174zM391 549q-38 0 -70.5 16t-50.5 16q-28 0 -61 -30l-62 66q23 34 60 61
t77 27q37 0 70.5 -16t50.5 -16q32 0 63 31l62 -66q-21 -33 -60 -61t-79 -28z" />
    <glyph glyph-name="ograve" unicode="&#xf2;" horiz-adv-x="541" 
d="M231 -12q-97 0 -156 57.5t-59 148.5q0 134 85.5 223.5t212.5 89.5q95 0 153 -58.5t58 -151.5q0 -138 -81 -223.5t-213 -85.5zM247 115q34 0 58.5 32t34 73t9.5 83q0 76 -49 76q-46 0 -75 -58.5t-29 -122.5q0 -83 51 -83zM253 542l-116 142h216l50 -142h-150z" />
    <glyph glyph-name="oacute" unicode="&#xf3;" horiz-adv-x="541" 
d="M231 -12q-97 0 -156 57.5t-59 148.5q0 134 85.5 223.5t212.5 89.5q95 0 153 -58.5t58 -151.5q0 -138 -81 -223.5t-213 -85.5zM247 115q34 0 58.5 32t34 73t9.5 83q0 76 -49 76q-46 0 -75 -58.5t-29 -122.5q0 -83 51 -83zM248 542l100 142h216l-166 -142h-150z" />
    <glyph glyph-name="ocircumflex" unicode="&#xf4;" horiz-adv-x="541" 
d="M231 -12q-97 0 -156 57.5t-59 148.5q0 134 85.5 223.5t212.5 89.5q95 0 153 -58.5t58 -151.5q0 -138 -81 -223.5t-213 -85.5zM247 115q34 0 58.5 32t34 73t9.5 83q0 76 -49 76q-46 0 -75 -58.5t-29 -122.5q0 -83 51 -83zM124 543l157 164h136l97 -164h-139l-42 53
l-60 -53h-149z" />
    <glyph glyph-name="otilde" unicode="&#xf5;" horiz-adv-x="541" 
d="M231 -12q-97 0 -156 57.5t-59 148.5q0 134 85.5 223.5t212.5 89.5q95 0 153 -58.5t58 -151.5q0 -138 -81 -223.5t-213 -85.5zM247 115q34 0 58.5 32t34 73t9.5 83q0 76 -49 76q-46 0 -75 -58.5t-29 -122.5q0 -83 51 -83zM391 549q-38 0 -70.5 16t-50.5 16q-28 0 -61 -30
l-62 66q23 34 60 61t77 27q37 0 70.5 -16t50.5 -16q32 0 63 31l62 -66q-21 -33 -60 -61t-79 -28z" />
    <glyph glyph-name="odieresis" unicode="&#xf6;" horiz-adv-x="541" 
d="M231 -12q-97 0 -156 57.5t-59 148.5q0 134 85.5 223.5t212.5 89.5q95 0 153 -58.5t58 -151.5q0 -138 -81 -223.5t-213 -85.5zM247 115q34 0 58.5 32t34 73t9.5 83q0 76 -49 76q-46 0 -75 -58.5t-29 -122.5q0 -83 51 -83zM221 548q-39 0 -63.5 24t-24.5 60q0 34 25 58.5
t63 24.5t63 -24.5t25 -58.5q0 -36 -24.5 -60t-63.5 -24zM449 548q-39 0 -63.5 24t-24.5 60q0 34 25 58.5t63 24.5t63 -24.5t25 -58.5q0 -36 -24.5 -60t-63.5 -24z" />
    <glyph glyph-name="oslash" unicode="&#xf8;" horiz-adv-x="541" 
d="M64 -77l-84 67l71 83q-35 50 -35 121q0 134 85.5 223.5t212.5 89.5q52 0 94 -19l77 91l85 -67l-79 -93q34 -52 34 -122q0 -138 -81 -223.5t-213 -85.5q-50 0 -95 17zM245 110q48 0 76.5 51t35.5 118l-139 -162q10 -7 27 -7zM302 384q-46 0 -78 -53t-36 -116l139 163
q-10 6 -25 6z" />
    <glyph glyph-name="ugrave" unicode="&#xf9;" horiz-adv-x="588" 
d="M159 -14q-68 0 -96 51t-10 151l34 187q-42 5 -69 5l20 111q14 2 246 8l-53 -306q-6 -30 -1 -44t23 -14q13 0 23.5 6.5t25.5 26.5t31.5 68t32.5 121l4 18q-42 5 -68 5l20 111q14 2 243 8l-39 -217l-15 -95t-10 -66q29 0 69 -10l-20 -111h-232q0 33 9 96h-2
q-17 -26 -30 -41.5t-33 -33.5t-46 -26.5t-57 -8.5zM270 542l-116 142h216l50 -142h-150z" />
    <glyph glyph-name="uacute" unicode="&#xfa;" horiz-adv-x="588" 
d="M159 -14q-68 0 -96 51t-10 151l34 187q-42 5 -69 5l20 111q14 2 246 8l-53 -306q-6 -30 -1 -44t23 -14q13 0 23.5 6.5t25.5 26.5t31.5 68t32.5 121l4 18q-42 5 -68 5l20 111q14 2 243 8l-39 -217l-15 -95t-10 -66q29 0 69 -10l-20 -111h-232q0 33 9 96h-2
q-17 -26 -30 -41.5t-33 -33.5t-46 -26.5t-57 -8.5zM265 542l100 142h216l-166 -142h-150z" />
    <glyph glyph-name="ucircumflex" unicode="&#xfb;" horiz-adv-x="588" 
d="M159 -14q-68 0 -96 51t-10 151l34 187q-42 5 -69 5l20 111q14 2 246 8l-53 -306q-6 -30 -1 -44t23 -14q13 0 23.5 6.5t25.5 26.5t31.5 68t32.5 121l4 18q-42 5 -68 5l20 111q14 2 243 8l-39 -217l-15 -95t-10 -66q29 0 69 -10l-20 -111h-232q0 33 9 96h-2
q-17 -26 -30 -41.5t-33 -33.5t-46 -26.5t-57 -8.5zM141 543l157 164h136l97 -164h-139l-42 53l-60 -53h-149z" />
    <glyph glyph-name="udieresis" unicode="&#xfc;" horiz-adv-x="588" 
d="M159 -14q-68 0 -96 51t-10 151l34 187q-42 5 -69 5l20 111q14 2 246 8l-53 -306q-6 -30 -1 -44t23 -14q13 0 23.5 6.5t25.5 26.5t31.5 68t32.5 121l4 18q-42 5 -68 5l20 111q14 2 243 8l-39 -217l-15 -95t-10 -66q29 0 69 -10l-20 -111h-232q0 33 9 96h-2
q-17 -26 -30 -41.5t-33 -33.5t-46 -26.5t-57 -8.5zM238 548q-39 0 -63.5 24t-24.5 60q0 34 25 58.5t63 24.5t63 -24.5t25 -58.5q0 -36 -24.5 -60t-63.5 -24zM466 548q-39 0 -63.5 24t-24.5 60q0 34 25 58.5t63 24.5t63 -24.5t25 -58.5q0 -36 -24.5 -60t-63.5 -24z" />
    <glyph glyph-name="yacute" unicode="&#xfd;" horiz-adv-x="533" 
d="M9 -229q-75 0 -103 18l54 134q26 -11 54 -11q49 0 73.5 23t53.5 81l-72 359q-45 5 -67 5l20 111q59 7 207 7l27 -226q4 -33 4 -75h2l2 7q7 31 25 68l99 221h179l-289 -535q-55 -101 -113.5 -144t-155.5 -43zM228 542l100 142h216l-166 -142h-150z" />
    <glyph glyph-name="thorn" unicode="&#xfe;" horiz-adv-x="558" 
d="M-105 -218l20 111q30 10 73 10l125 693q-42 5 -72 5l20 111q69 8 253 8l-19 -80l-27 -148q-9 -47 -20 -88h2q33 51 67.5 77t89.5 26q58 0 95.5 -46.5t37.5 -127.5q0 -164 -85 -254.5t-214 -90.5q-36 0 -62 7l-17 -92q40 0 70 -10l-20 -111h-317zM236 108q47 0 84.5 48
t37.5 144q0 60 -34 60q-68 0 -122 -239l-2 -9q11 -4 36 -4z" />
    <glyph glyph-name="ydieresis" unicode="&#xff;" horiz-adv-x="533" 
d="M9 -229q-75 0 -103 18l54 134q26 -11 54 -11q49 0 73.5 23t53.5 81l-72 359q-45 5 -67 5l20 111q59 7 207 7l27 -226q4 -33 4 -75h2l2 7q7 31 25 68l99 221h179l-289 -535q-55 -101 -113.5 -144t-155.5 -43zM202 548q-39 0 -63.5 24t-24.5 60q0 34 25 58.5t63 24.5
t63 -24.5t25 -58.5q0 -36 -24.5 -60t-63.5 -24zM430 548q-39 0 -63.5 24t-24.5 60q0 34 25 58.5t63 24.5t63 -24.5t25 -58.5q0 -36 -24.5 -60t-63.5 -24z" />
    <glyph glyph-name="Amacron" unicode="&#x100;" horiz-adv-x="741" 
d="M-31 0l20 111q3 1 56 9l316 546h181l106 -547q42 -2 60 -8l-20 -111h-309l20 111q17 3 24 4l32 4l-6 43h-202l-22 -43l50 -8l-20 -111h-286zM304 274h130l-10 70q-3 19 -8.5 62t-7.5 56l-1 13h-2l-7 -14q-30 -65 -56 -113zM310 723l22 122h285l-22 -122h-285z" />
    <glyph glyph-name="amacron" unicode="&#x101;" horiz-adv-x="568" 
d="M149 -12q-55 0 -93 45.5t-38 123.5q0 167 92.5 258.5t233.5 91.5q127 0 196 -36l-34 -189q-17 -98 -24 -161q28 0 68 -10l-20 -111h-230q0 65 8 99h-2q-61 -111 -157 -111zM233 132q67 0 115 236l3 14q-12 3 -31 3q-42 0 -80.5 -53t-38.5 -146q0 -54 32 -54zM193 552
l22 122h285l-22 -122h-285z" />
    <glyph glyph-name="Abreve" unicode="&#x102;" horiz-adv-x="741" 
d="M-31 0l20 111q3 1 56 9l316 546h181l106 -547q42 -2 60 -8l-20 -111h-309l20 111q17 3 24 4l32 4l-6 43h-202l-22 -43l50 -8l-20 -111h-286zM304 274h130l-10 70q-3 19 -8.5 62t-7.5 56l-1 13h-2l-7 -14q-30 -65 -56 -113zM452 706q-81 0 -128.5 40.5t-39.5 118.5h137
q-5 -51 37 -51q38 0 50 51h144q-39 -159 -200 -159z" />
    <glyph glyph-name="abreve" unicode="&#x103;" horiz-adv-x="568" 
d="M149 -12q-55 0 -93 45.5t-38 123.5q0 167 92.5 258.5t233.5 91.5q127 0 196 -36l-34 -189q-17 -98 -24 -161q28 0 68 -10l-20 -111h-230q0 65 8 99h-2q-61 -111 -157 -111zM233 132q67 0 115 236l3 14q-12 3 -31 3q-42 0 -80.5 -53t-38.5 -146q0 -54 32 -54zM335 535
q-81 0 -128.5 40.5t-39.5 118.5h137q-4 -51 37 -51q38 0 50 51h144q-39 -159 -200 -159z" />
    <glyph glyph-name="Aogonek" unicode="&#x104;" horiz-adv-x="741" 
d="M-31 0l20 111q3 1 56 9l316 546h181l106 -547q42 -2 60 -8l-20 -111h-309l20 111q17 3 24 4l32 4l-6 43h-202l-22 -43l50 -8l-20 -111h-286zM304 274h130l-10 70q-3 19 -8.5 62t-7.5 56l-1 13h-2l-7 -14q-30 -65 -56 -113zM526 -238q-53 0 -85.5 23.5t-32.5 66.5
q0 79 100 148h96q-76 -74 -76 -119q0 -33 39 -33q21 0 40 7l13 -75q-34 -18 -94 -18z" />
    <glyph glyph-name="aogonek" unicode="&#x105;" horiz-adv-x="568" 
d="M149 -12q-55 0 -93 45.5t-38 123.5q0 167 92.5 258.5t233.5 91.5q127 0 196 -36l-34 -189q-17 -98 -24 -161q28 0 68 -10l-20 -111h-230q0 65 8 99h-2q-61 -111 -157 -111zM233 132q67 0 115 236l3 14q-12 3 -31 3q-42 0 -80.5 -53t-38.5 -146q0 -54 32 -54zM391 -238
q-53 0 -85.5 23.5t-32.5 66.5q0 79 100 148h96q-76 -74 -76 -119q0 -33 39 -33q21 0 40 7l13 -75q-34 -18 -94 -18z" />
    <glyph glyph-name="Cacute" unicode="&#x106;" horiz-adv-x="663" 
d="M343 -12q-151 0 -228 79t-77 204q0 107 50 199t146.5 150t218.5 58q139 0 206 -52l-34 -193h-134q-2 47 7 105q-21 4 -51 4q-88 0 -148.5 -76t-60.5 -182q0 -74 35.5 -116t102.5 -42q39 0 76 13q7 40 30 111h134l-34 -191q-31 -28 -94 -49.5t-145 -21.5zM373 713l100 142
h216l-166 -142h-150z" />
    <glyph glyph-name="cacute" unicode="&#x107;" horiz-adv-x="468" 
d="M234 -12q-104 0 -161 55.5t-57 146.5q0 145 89.5 231t223.5 86q94 0 143 -29l-29 -172h-121q-1 21 4 64q-56 0 -93 -44.5t-37 -115.5q0 -85 69 -85q44 0 80 32l56 -114q-63 -55 -167 -55zM233 542l100 142h216l-166 -142h-150z" />
    <glyph glyph-name="Ccircumflex" unicode="&#x108;" horiz-adv-x="663" 
d="M343 -12q-151 0 -228 79t-77 204q0 107 50 199t146.5 150t218.5 58q139 0 206 -52l-34 -193h-134q-2 47 7 105q-21 4 -51 4q-88 0 -148.5 -76t-60.5 -182q0 -74 35.5 -116t102.5 -42q39 0 76 13q7 40 30 111h134l-34 -191q-31 -28 -94 -49.5t-145 -21.5zM249 714l157 164
h136l97 -164h-139l-42 53l-60 -53h-149z" />
    <glyph glyph-name="ccircumflex" unicode="&#x109;" horiz-adv-x="468" 
d="M234 -12q-104 0 -161 55.5t-57 146.5q0 145 89.5 231t223.5 86q94 0 143 -29l-29 -172h-121q-1 21 4 64q-56 0 -93 -44.5t-37 -115.5q0 -85 69 -85q44 0 80 32l56 -114q-63 -55 -167 -55zM109 543l157 164h136l97 -164h-139l-42 53l-60 -53h-149z" />
    <glyph glyph-name="Cdotaccent" unicode="&#x10a;" horiz-adv-x="663" 
d="M343 -12q-151 0 -228 79t-77 204q0 107 50 199t146.5 150t218.5 58q139 0 206 -52l-34 -193h-134q-2 47 7 105q-21 4 -51 4q-88 0 -148.5 -76t-60.5 -182q0 -74 35.5 -116t102.5 -42q39 0 76 13q7 40 30 111h134l-34 -191q-31 -28 -94 -49.5t-145 -21.5zM460 719
q-39 0 -63.5 24t-24.5 60q0 34 25 58.5t63 24.5t63 -24.5t25 -58.5q0 -36 -24.5 -60t-63.5 -24z" />
    <glyph glyph-name="cdotaccent" unicode="&#x10b;" horiz-adv-x="468" 
d="M234 -12q-104 0 -161 55.5t-57 146.5q0 145 89.5 231t223.5 86q94 0 143 -29l-29 -172h-121q-1 21 4 64q-56 0 -93 -44.5t-37 -115.5q0 -85 69 -85q44 0 80 32l56 -114q-63 -55 -167 -55zM320 548q-39 0 -63.5 24t-24.5 60q0 34 25 58.5t63 24.5t63 -24.5t25 -58.5
q0 -36 -24.5 -60t-63.5 -24z" />
    <glyph glyph-name="Ccaron" unicode="&#x10c;" horiz-adv-x="663" 
d="M343 -12q-151 0 -228 79t-77 204q0 107 50 199t146.5 150t218.5 58q139 0 206 -52l-34 -193h-134q-2 47 7 105q-21 4 -51 4q-88 0 -148.5 -76t-60.5 -182q0 -74 35.5 -116t102.5 -42q39 0 76 13q7 40 30 111h134l-34 -191q-31 -28 -94 -49.5t-145 -21.5zM387 713l-98 164
h140l40 -50l62 50h148l-156 -164h-136z" />
    <glyph glyph-name="ccaron" unicode="&#x10d;" horiz-adv-x="468" 
d="M234 -12q-104 0 -161 55.5t-57 146.5q0 145 89.5 231t223.5 86q94 0 143 -29l-29 -172h-121q-1 21 4 64q-56 0 -93 -44.5t-37 -115.5q0 -85 69 -85q44 0 80 32l56 -114q-63 -55 -167 -55zM247 542l-98 164h140l40 -50l62 50h148l-156 -164h-136z" />
    <glyph glyph-name="Dcaron" unicode="&#x10e;" horiz-adv-x="726" 
d="M-29 0l20 111q40 10 77 10l76 424q-43 0 -77 10l20 111h309q159 0 242.5 -70.5t83.5 -197.5q0 -173 -116 -285.5t-326 -112.5h-309zM259 139h57q100 0 153.5 66.5t53.5 182.5q0 64 -36 101.5t-103 37.5h-55zM354 713l-98 164h140l40 -50l62 50h148l-156 -164h-136z" />
    <glyph glyph-name="dcaron" unicode="&#x10f;" horiz-adv-x="574" 
d="M157 -12q-61 0 -100 46t-39 127q0 160 86.5 253t215.5 93q36 0 58 -6l17 95q-42 5 -72 5l20 111q14 2 253 8l-19 -80l-65 -358q-17 -98 -24 -161q51 -7 61 -10l-20 -111h-223q0 67 7 95h-2q-30 -52 -66 -79.5t-88 -27.5zM233 132q74 0 122 240l2 10q-12 3 -36 3
q-46 0 -83.5 -49t-37.5 -145q0 -59 33 -59zM586 538l50 182h167l-96 -182h-121z" />
    <glyph glyph-name="Dcroat" unicode="&#x110;" horiz-adv-x="736" 
d="M-19 0l20 111q40 10 77 10l26 149h-56l23 131h57l26 144q-43 0 -77 10l20 111h309q159 0 242.5 -70.5t83.5 -197.5q0 -173 -116 -285.5t-326 -112.5h-309zM269 139h57q100 0 153.5 66.5t53.5 182.5q0 64 -36 101.5t-103 37.5h-55l-23 -126h97l-23 -131h-98z" />
    <glyph glyph-name="dslash" unicode="&#x111;" horiz-adv-x="574" 
d="M157 -12q-61 0 -100 46t-39 127q0 160 86.5 253t215.5 93q36 0 58 -6l5 28h-132l16 87h132l3 17q-45 5 -73 5l14 74q14 2 253 8l-20 -80l-2 -14h60l-19 -107h-60l-43 -237q-17 -98 -24 -161q51 -7 61 -10l-20 -111h-223q0 67 7 95h-2q-30 -52 -66 -79.5t-88 -27.5z
M233 132q74 0 122 240l2 10q-12 3 -36 3q-46 0 -83.5 -49t-37.5 -145q0 -59 33 -59z" />
    <glyph glyph-name="Emacron" unicode="&#x112;" horiz-adv-x="584" 
d="M-29 0l20 111q40 10 77 10l76 424q-43 0 -77 10l20 111h534l-36 -209h-134q-2 27 3 70h-126l-22 -126h166l-23 -128h-166l-24 -134h136q14 52 20 70h133l-37 -209h-540zM217 723l22 122h285l-22 -122h-285z" />
    <glyph glyph-name="emacron" unicode="&#x113;" horiz-adv-x="493" 
d="M228 -12q-101 0 -155.5 55.5t-54.5 157.5q0 135 85.5 220.5t212.5 85.5q80 0 123.5 -37.5t43.5 -102.5q0 -86 -76.5 -133t-207.5 -60q8 -53 60 -53q63 0 126 45l55 -111q-90 -67 -212 -67zM287 378q-33 0 -55 -29t-31 -73q58 5 88.5 23.5t30.5 45.5q0 33 -33 33zM171 552
l22 122h285l-22 -122h-285z" />
    <glyph glyph-name="Ebreve" unicode="&#x114;" horiz-adv-x="584" 
d="M-29 0l20 111q40 10 77 10l76 424q-43 0 -77 10l20 111h534l-36 -209h-134q-2 27 3 70h-126l-22 -126h166l-23 -128h-166l-24 -134h136q14 52 20 70h133l-37 -209h-540zM359 706q-81 0 -128.5 40.5t-39.5 118.5h137q-4 -51 37 -51q38 0 50 51h144q-39 -159 -200 -159z
" />
    <glyph glyph-name="ebreve" unicode="&#x115;" horiz-adv-x="493" 
d="M228 -12q-101 0 -155.5 55.5t-54.5 157.5q0 135 85.5 220.5t212.5 85.5q80 0 123.5 -37.5t43.5 -102.5q0 -86 -76.5 -133t-207.5 -60q8 -53 60 -53q63 0 126 45l55 -111q-90 -67 -212 -67zM287 378q-33 0 -55 -29t-31 -73q58 5 88.5 23.5t30.5 45.5q0 33 -33 33zM313 535
q-81 0 -128.5 40.5t-39.5 118.5h137q-4 -51 37 -51q38 0 50 51h144q-39 -159 -200 -159z" />
    <glyph glyph-name="Edotaccent" unicode="&#x116;" horiz-adv-x="584" 
d="M-29 0l20 111q40 10 77 10l76 424q-43 0 -77 10l20 111h534l-36 -209h-134q-2 27 3 70h-126l-22 -126h166l-23 -128h-166l-24 -134h136q14 52 20 70h133l-37 -209h-540zM366 719q-39 0 -63.5 24t-24.5 60q0 34 25 58.5t63 24.5t63 -24.5t25 -58.5q0 -36 -24.5 -60
t-63.5 -24z" />
    <glyph glyph-name="edotaccent" unicode="&#x117;" horiz-adv-x="493" 
d="M228 -12q-101 0 -155.5 55.5t-54.5 157.5q0 135 85.5 220.5t212.5 85.5q80 0 123.5 -37.5t43.5 -102.5q0 -86 -76.5 -133t-207.5 -60q8 -53 60 -53q63 0 126 45l55 -111q-90 -67 -212 -67zM287 378q-33 0 -55 -29t-31 -73q58 5 88.5 23.5t30.5 45.5q0 33 -33 33zM320 548
q-39 0 -63.5 24t-24.5 60q0 34 25 58.5t63 24.5t63 -24.5t25 -58.5q0 -36 -24.5 -60t-63.5 -24z" />
    <glyph glyph-name="Eogonek" unicode="&#x118;" horiz-adv-x="584" 
d="M-29 0l20 111q40 10 77 10l76 424q-43 0 -77 10l20 111h534l-36 -209h-134q-2 27 3 70h-126l-22 -126h166l-23 -128h-166l-24 -134h136q14 52 20 70h133l-37 -209h-540zM367 -238q-53 0 -85.5 23.5t-32.5 66.5q0 79 100 148h96q-76 -74 -76 -119q0 -33 39 -33q21 0 40 7
l13 -75q-34 -18 -94 -18z" />
    <glyph glyph-name="eogonek" unicode="&#x119;" horiz-adv-x="493" 
d="M306 -238q-53 0 -85.5 23.5t-32.5 66.5q0 42 29 81.5t65 60.5q-26 -6 -54 -6q-101 0 -155.5 55.5t-54.5 157.5q0 135 85.5 220.5t212.5 85.5q80 0 123.5 -37.5t43.5 -102.5q0 -86 -76.5 -133t-207.5 -60q8 -53 60 -53q63 0 126 45l55 -111l-56 -55q-76 -74 -76 -119
q0 -33 39 -33q21 0 40 7l13 -75q-34 -18 -94 -18zM287 378q-33 0 -55 -29t-31 -73q58 5 88.5 23.5t30.5 45.5q0 33 -33 33z" />
    <glyph glyph-name="Ecaron" unicode="&#x11a;" horiz-adv-x="584" 
d="M-29 0l20 111q40 10 77 10l76 424q-43 0 -77 10l20 111h534l-36 -209h-134q-2 27 3 70h-126l-22 -126h166l-23 -128h-166l-24 -134h136q14 52 20 70h133l-37 -209h-540zM293 713l-98 164h140l40 -50l62 50h148l-156 -164h-136z" />
    <glyph glyph-name="ecaron" unicode="&#x11b;" horiz-adv-x="493" 
d="M228 -12q-101 0 -155.5 55.5t-54.5 157.5q0 135 85.5 220.5t212.5 85.5q80 0 123.5 -37.5t43.5 -102.5q0 -86 -76.5 -133t-207.5 -60q8 -53 60 -53q63 0 126 45l55 -111q-90 -67 -212 -67zM287 378q-33 0 -55 -29t-31 -73q58 5 88.5 23.5t30.5 45.5q0 33 -33 33zM247 542
l-98 164h140l40 -50l62 50h148l-156 -164h-136z" />
    <glyph glyph-name="Gcircumflex" unicode="&#x11c;" horiz-adv-x="748" 
d="M375 -12q-164 0 -250.5 81.5t-86.5 205.5q0 176 123.5 289.5t311.5 113.5q151 0 235 -53l-33 -187h-134q0 38 6 94q-34 10 -80 10q-102 0 -165.5 -70t-63.5 -191q0 -72 40 -114.5t110 -42.5q50 0 80 14l16 90q-52 0 -87 11l20 111h329l-20 -111q-8 -3 -58 -11l-32 -179
q-38 -24 -109 -42.5t-152 -18.5zM272 714l157 164h136l97 -164h-139l-42 53l-60 -53h-149z" />
    <glyph glyph-name="gcircumflex" unicode="&#x11d;" horiz-adv-x="557" 
d="M195 -229q-118 0 -210 62l72 126q69 -47 132 -47q46 0 68.5 20t32.5 70l2 10q9 47 17 76h-2q-31 -47 -64 -69.5t-85 -22.5q-58 0 -98.5 44.5t-40.5 120.5q0 166 87 256t234 90q146 0 209 -28l-83 -462q-25 -135 -82.5 -190.5t-188.5 -55.5zM235 133q14 0 26 7t28.5 29
t33.5 73.5t33 129.5l2 10q-12 3 -35 3q-46 0 -84 -49t-38 -143q0 -60 34 -60zM149 543l157 164h136l97 -164h-139l-42 53l-60 -53h-149z" />
    <glyph glyph-name="Gbreve" unicode="&#x11e;" horiz-adv-x="748" 
d="M375 -12q-164 0 -250.5 81.5t-86.5 205.5q0 176 123.5 289.5t311.5 113.5q151 0 235 -53l-33 -187h-134q0 38 6 94q-34 10 -80 10q-102 0 -165.5 -70t-63.5 -191q0 -72 40 -114.5t110 -42.5q50 0 80 14l16 90q-52 0 -87 11l20 111h329l-20 -111q-8 -3 -58 -11l-32 -179
q-38 -24 -109 -42.5t-152 -18.5zM476 706q-81 0 -128.5 40.5t-39.5 118.5h137q-5 -51 37 -51q38 0 50 51h144q-39 -159 -200 -159z" />
    <glyph glyph-name="gbreve" unicode="&#x11f;" horiz-adv-x="557" 
d="M195 -229q-118 0 -210 62l72 126q69 -47 132 -47q46 0 68.5 20t32.5 70l2 10q9 47 17 76h-2q-31 -47 -64 -69.5t-85 -22.5q-58 0 -98.5 44.5t-40.5 120.5q0 166 87 256t234 90q146 0 209 -28l-83 -462q-25 -135 -82.5 -190.5t-188.5 -55.5zM235 133q14 0 26 7t28.5 29
t33.5 73.5t33 129.5l2 10q-12 3 -35 3q-46 0 -84 -49t-38 -143q0 -60 34 -60zM353 535q-81 0 -128.5 40.5t-39.5 118.5h137q-4 -51 37 -51q38 0 50 51h144q-39 -159 -200 -159z" />
    <glyph glyph-name="Gdotaccent" unicode="&#x120;" horiz-adv-x="748" 
d="M375 -12q-164 0 -250.5 81.5t-86.5 205.5q0 176 123.5 289.5t311.5 113.5q151 0 235 -53l-33 -187h-134q0 38 6 94q-34 10 -80 10q-102 0 -165.5 -70t-63.5 -191q0 -72 40 -114.5t110 -42.5q50 0 80 14l16 90q-52 0 -87 11l20 111h329l-20 -111q-8 -3 -58 -11l-32 -179
q-38 -24 -109 -42.5t-152 -18.5zM483 719q-39 0 -63.5 24t-24.5 60q0 34 25 58.5t63 24.5t63 -24.5t25 -58.5q0 -36 -24.5 -60t-63.5 -24z" />
    <glyph glyph-name="gdotaccent" unicode="&#x121;" horiz-adv-x="557" 
d="M195 -229q-118 0 -210 62l72 126q69 -47 132 -47q46 0 68.5 20t32.5 70l2 10q9 47 17 76h-2q-31 -47 -64 -69.5t-85 -22.5q-58 0 -98.5 44.5t-40.5 120.5q0 166 87 256t234 90q146 0 209 -28l-83 -462q-25 -135 -82.5 -190.5t-188.5 -55.5zM235 133q14 0 26 7t28.5 29
t33.5 73.5t33 129.5l2 10q-12 3 -35 3q-46 0 -84 -49t-38 -143q0 -60 34 -60zM360 548q-39 0 -63.5 24t-24.5 60q0 34 25 58.5t63 24.5t63 -24.5t25 -58.5q0 -36 -24.5 -60t-63.5 -24z" />
    <glyph glyph-name="Gcommaaccent" unicode="&#x122;" horiz-adv-x="748" 
d="M369 -27q38 0 65 -23t27 -61q0 -75 -107 -142l-60 38q27 20 27 43q0 13 -17 33.5t-17 47.5q0 28 24 46t58 18zM375 -12q-164 0 -250.5 81.5t-86.5 205.5q0 176 123.5 289.5t311.5 113.5q151 0 235 -53l-33 -187h-134q0 38 6 94q-34 10 -80 10q-102 0 -165.5 -70
t-63.5 -191q0 -72 40 -114.5t110 -42.5q50 0 80 14l16 90q-52 0 -87 11l20 111h329l-20 -111q-8 -3 -58 -11l-32 -179q-38 -24 -109 -42.5t-152 -18.5z" />
    <glyph glyph-name="gcommaaccent" unicode="&#x123;" horiz-adv-x="557" 
d="M349 536q-38 0 -65 23t-27 61q0 71 107 142l60 -38q-27 -20 -27 -43q0 -13 17 -33.5t17 -47.5q0 -28 -24 -46t-58 -18zM195 -229q-118 0 -210 62l72 126q69 -47 132 -47q46 0 68.5 20t32.5 70l2 10q9 47 17 76h-2q-31 -47 -64 -69.5t-85 -22.5q-58 0 -98.5 44.5
t-40.5 120.5q0 166 87 256t234 90q146 0 209 -28l-83 -462q-25 -135 -82.5 -190.5t-188.5 -55.5zM235 133q14 0 26 7t28.5 29t33.5 73.5t33 129.5l2 10q-12 3 -35 3q-46 0 -84 -49t-38 -143q0 -60 34 -60z" />
    <glyph glyph-name="Hcircumflex" unicode="&#x124;" horiz-adv-x="809" 
d="M-29 0l20 111q40 10 77 10l76 424q-43 0 -77 10l20 111h336l-20 -111q-38 -10 -71 -10l-24 -135h253l24 135q-34 0 -68 10l20 111h333l-20 -111q-38 -10 -77 -10l-76 -424q37 0 77 -10l-20 -111h-334l20 111q40 10 69 10l28 154h-253l-28 -154q29 0 69 -10l-20 -111h-334
zM285 714l157 164h136l97 -164h-139l-42 53l-60 -53h-149z" />
    <glyph glyph-name="hcircumflex" unicode="&#x125;" horiz-adv-x="571" 
d="M5 0l108 596q-42 5 -72 5l20 111q14 2 253 8l-19 -80l-26 -145q-4 -23 -20 -84h2q63 96 161 96q67 0 94.5 -51.5t9.5 -150.5l-34 -184q29 0 69 -10l-20 -111h-245l52 300q10 58 -23 58q-73 0 -131 -329l-5 -29h-174zM196 770l157 164h136l97 -164h-139l-42 53l-60 -53
h-149z" />
    <glyph glyph-name="Itilde" unicode="&#x128;" horiz-adv-x="368" 
d="M-29 0l20 111q40 10 77 10l76 424q-43 0 -77 10l20 111h342l-20 -111q-38 -10 -77 -10l-76 -424q37 0 77 -10l-20 -111h-342zM333 720q-38 0 -70.5 16t-50.5 16q-28 0 -61 -30l-62 66q23 34 60 61t77 27q37 0 70.5 -16t50.5 -16q32 0 63 31l62 -66q-21 -33 -60 -61
t-79 -28z" />
    <glyph glyph-name="itilde" unicode="&#x129;" horiz-adv-x="311" 
d="M23 0l68 375q-42 5 -72 5l20 111q15 2 254 8l-19 -80l-54 -298q28 0 68 -10l-20 -111h-245zM275 549q-38 0 -70.5 16t-50.5 16q-28 0 -61 -30l-62 66q23 34 60 61t77 27q37 0 70.5 -16t50.5 -16q32 0 63 31l62 -66q-21 -33 -60 -61t-79 -28z" />
    <glyph glyph-name="Imacron" unicode="&#x12a;" horiz-adv-x="368" 
d="M-29 0l20 111q40 10 77 10l76 424q-43 0 -77 10l20 111h342l-20 -111q-38 -10 -77 -10l-76 -424q37 0 77 -10l-20 -111h-342zM128 723l22 122h285l-22 -122h-285z" />
    <glyph glyph-name="imacron" unicode="&#x12b;" horiz-adv-x="311" 
d="M23 0l68 375q-42 5 -72 5l20 111q15 2 254 8l-19 -80l-54 -298q28 0 68 -10l-20 -111h-245zM70 552l22 122h285l-22 -122h-285z" />
    <glyph glyph-name="Ibreve" unicode="&#x12c;" horiz-adv-x="368" 
d="M-29 0l20 111q40 10 77 10l76 424q-43 0 -77 10l20 111h342l-20 -111q-38 -10 -77 -10l-76 -424q37 0 77 -10l-20 -111h-342zM270 706q-81 0 -128.5 40.5t-39.5 118.5h137q-5 -51 37 -51q38 0 50 51h144q-39 -159 -200 -159z" />
    <glyph glyph-name="ibreve" unicode="&#x12d;" horiz-adv-x="311" 
d="M23 0l68 375q-42 5 -72 5l20 111q15 2 254 8l-19 -80l-54 -298q28 0 68 -10l-20 -111h-245zM212 535q-81 0 -128.5 40.5t-39.5 118.5h137q-5 -51 37 -51q38 0 50 51h144q-39 -159 -200 -159z" />
    <glyph glyph-name="Iogonek" unicode="&#x12e;" horiz-adv-x="368" 
d="M-29 0l20 111q40 10 77 10l76 424q-43 0 -77 10l20 111h342l-20 -111q-38 -10 -77 -10l-76 -424q37 0 77 -10l-20 -111h-342zM114 -238q-53 0 -85.5 23.5t-32.5 66.5q0 79 100 148h96q-76 -74 -76 -119q0 -33 39 -33q21 0 40 7l13 -75q-34 -18 -94 -18z" />
    <glyph glyph-name="iogonek" unicode="&#x12f;" horiz-adv-x="311" 
d="M23 0l68 375q-42 5 -69 5l20 111q15 2 251 8l-19 -80l-54 -298q28 0 68 -10l-20 -111h-245zM221 541q-43 0 -70.5 28.5t-27.5 67.5q0 40 27.5 67.5t70.5 27.5t70.5 -27.5t27.5 -67.5q0 -39 -27.5 -67.5t-70.5 -28.5zM121 -238q-53 0 -85.5 23.5t-32.5 66.5q0 79 100 148
h96q-76 -74 -76 -119q0 -33 39 -33q21 0 40 7l13 -75q-34 -18 -94 -18z" />
    <glyph glyph-name="Idot" unicode="&#x130;" horiz-adv-x="368" 
d="M-29 0l20 111q40 10 77 10l76 424q-43 0 -77 10l20 111h342l-20 -111q-38 -10 -77 -10l-76 -424q37 0 77 -10l-20 -111h-342zM277 719q-39 0 -63.5 24t-24.5 60q0 34 25 58.5t63 24.5t63 -24.5t25 -58.5q0 -36 -24.5 -60t-63.5 -24z" />
    <glyph glyph-name="dotlessi" unicode="&#x131;" horiz-adv-x="311" 
d="M23 0l68 375q-42 5 -72 5l20 111q15 2 254 8l-19 -80l-54 -298q28 0 68 -10l-20 -111h-245z" />
    <glyph glyph-name="Kcommaaccent" unicode="&#x136;" horiz-adv-x="733" 
d="M323 -27q38 0 65 -23t27 -61q0 -75 -107 -142l-60 38q27 20 27 43q0 13 -17 33.5t-17 47.5q0 28 24 46t58 18zM-29 0l20 111q40 10 77 10l76 424q-43 0 -77 10l20 111h315l-20 -111l-9 -1q-9 -2 -14 -3l-28 -4l-35 -197l201 197q-38 7 -41 8l20 111h309l-20 -111
q-4 -1 -67 -9l-221 -200l152 -225q45 0 69 -10l-20 -111h-317l20 111q16 5 37 8l-127 203l-36 -202q53 -8 58 -9l-20 -111h-322z" />
    <glyph glyph-name="kcommaaccent" unicode="&#x137;" horiz-adv-x="562" 
d="M241 -27q38 0 65 -23t27 -61q0 -75 -107 -142l-60 38q27 20 27 43q0 13 -17 33.5t-17 47.5q0 28 24 46t58 18zM322 0l-96 233l-40 -233h-179l105 596q-45 5 -73 5l20 111q15 2 256 8l-19 -80l-57 -331l156 184h189l-193 -216l65 -156q34 0 67 -7l15 -3l-20 -111h-196z
" />
    <glyph glyph-name="Lacute" unicode="&#x139;" horiz-adv-x="561" 
d="M-29 0l20 111q40 10 77 10l76 424q-43 0 -77 10l20 111h342l-20 -111q-38 -10 -77 -10l-73 -406h127l6 26q20 69 21 70h134l-42 -235h-534zM190 713l100 142h216l-166 -142h-150z" />
    <glyph glyph-name="lacute" unicode="&#x13a;" horiz-adv-x="291" 
d="M5 0l108 596q-45 5 -73 5l20 111q14 2 253 8l-19 -80l-93 -519q29 0 69 -10l-20 -111h-245zM156 769l100 142h216l-166 -142h-150z" />
    <glyph glyph-name="Lcommaaccent" unicode="&#x13b;" horiz-adv-x="561" 
d="M257 -27q38 0 65 -23t27 -61q0 -75 -107 -142l-60 38q27 20 27 43q0 13 -17 33.5t-17 47.5q0 28 24 46t58 18zM-29 0l20 111q40 10 77 10l76 424q-43 0 -77 10l20 111h342l-20 -111q-38 -10 -77 -10l-73 -406h127l6 26q20 69 21 70h134l-42 -235h-534z" />
    <glyph glyph-name="lcommaaccent" unicode="&#x13c;" horiz-adv-x="291" 
d="M89 -27q38 0 65 -23t27 -61q0 -75 -107 -142l-60 38q27 20 27 43q0 13 -17 33.5t-17 47.5q0 28 24 46t58 18zM5 0l108 596q-45 5 -73 5l20 111q14 2 253 8l-19 -80l-93 -519q29 0 69 -10l-20 -111h-245z" />
    <glyph glyph-name="Lcaron" unicode="&#x13d;" horiz-adv-x="561" 
d="M-29 0l20 111q40 10 77 10l76 424q-43 0 -77 10l20 111h342l-20 -111q-38 -10 -77 -10l-73 -406h127l6 26q20 69 21 70h134l-42 -235h-534zM428 485l50 182h167l-96 -182h-121z" />
    <glyph glyph-name="lcaron" unicode="&#x13e;" horiz-adv-x="291" 
d="M5 0l108 596q-45 5 -73 5l20 111q14 2 253 8l-19 -80l-93 -519q29 0 69 -10l-20 -111h-245zM302 538l50 182h167l-96 -182h-121z" />
    <glyph glyph-name="Ldot" unicode="&#x13f;" horiz-adv-x="561" 
d="M-29 0l20 111q40 10 77 10l76 424q-43 0 -77 10l20 111h342l-20 -111q-38 -10 -77 -10l-73 -406h127l6 26q20 69 21 70h134l-42 -235h-534zM483 332q-39 0 -63.5 24t-24.5 60q0 34 25 58.5t63 24.5t63 -24.5t25 -58.5q0 -36 -24.5 -60t-63.5 -24z" />
    <glyph glyph-name="ldot" unicode="&#x140;" horiz-adv-x="409" 
d="M5 0l108 596q-45 5 -73 5l20 111q14 2 253 8l-19 -80l-93 -519q29 0 69 -10l-20 -111h-245zM355 242q-39 0 -63.5 24t-24.5 60q0 34 25 58.5t63 24.5t63 -24.5t25 -58.5q0 -36 -24.5 -60t-63.5 -24z" />
    <glyph glyph-name="Lslash" unicode="&#x141;" horiz-adv-x="571" 
d="M-19 0l20 111q40 10 77 10l11 61l-44 -25l-46 95l114 65l41 228q-43 0 -77 10l20 111h342l-20 -111q-38 -10 -77 -10l-20 -108l102 58l45 -95l-171 -98l-29 -163h127l6 26q20 69 21 70h134l-42 -235h-534z" />
    <glyph glyph-name="lslash" unicode="&#x142;" horiz-adv-x="327" 
d="M23 0l41 225l-75 -41l23 128l75 41l44 243q-45 5 -73 5l20 111q14 2 253 8l-19 -80l-33 -183l84 46l-23 -128l-84 -46l-37 -208q29 0 69 -10l-20 -111h-245z" />
    <glyph glyph-name="Nacute" unicode="&#x143;" horiz-adv-x="783" 
d="M-29 0l20 111q40 10 77 10l76 424q-43 0 -77 10l20 111h258l147 -263q16 -29 31 -61t22.5 -50.5t7.5 -19.5h1q0 41 16 122l27 151q-42 0 -76 10l20 111h308l-20 -111q-40 -10 -73 -10l-97 -545h-151l-162 297q-36 65 -61 123l-6 13h-2q0 -9 -17 -124l-33 -188
q35 0 77 -10l-20 -111h-313zM393 713l100 142h216l-166 -142h-150z" />
    <glyph glyph-name="nacute" unicode="&#x144;" horiz-adv-x="589" 
d="M23 0l68 375q-42 5 -69 5l20 111l242 8l-6 -34q-2 -6 -6 -27t-5 -27h2q65 96 161 96q67 0 94.5 -52t9.5 -150l-34 -184q29 0 69 -10l-20 -111h-245l52 301q10 57 -23 57q-73 0 -131 -329l-5 -29h-174zM248 542l100 142h216l-166 -142h-150z" />
    <glyph glyph-name="Ncommaaccent" unicode="&#x145;" horiz-adv-x="783" 
d="M332 -27q38 0 65 -23t27 -61q0 -75 -107 -142l-60 38q27 20 27 43q0 13 -17 33.5t-17 47.5q0 28 24 46t58 18zM-29 0l20 111q40 10 77 10l76 424q-43 0 -77 10l20 111h258l147 -263q16 -29 31 -61t22.5 -50.5t7.5 -19.5h1q0 41 16 122l27 151q-42 0 -76 10l20 111h308
l-20 -111q-40 -10 -73 -10l-97 -545h-151l-162 297q-36 65 -61 123l-6 13h-2q0 -9 -17 -124l-33 -188q35 0 77 -10l-20 -111h-313z" />
    <glyph glyph-name="ncommaaccent" unicode="&#x146;" horiz-adv-x="589" 
d="M249 -27q38 0 65 -23t27 -61q0 -75 -107 -142l-60 38q27 20 27 43q0 13 -17 33.5t-17 47.5q0 28 24 46t58 18zM23 0l68 375q-42 5 -69 5l20 111l242 8l-6 -34q-2 -6 -6 -27t-5 -27h2q65 96 161 96q67 0 94.5 -52t9.5 -150l-34 -184q29 0 69 -10l-20 -111h-245l52 301
q10 57 -23 57q-73 0 -131 -329l-5 -29h-174z" />
    <glyph glyph-name="Ncaron" unicode="&#x147;" horiz-adv-x="783" 
d="M-29 0l20 111q40 10 77 10l76 424q-43 0 -77 10l20 111h258l147 -263q16 -29 31 -61t22.5 -50.5t7.5 -19.5h1q0 41 16 122l27 151q-42 0 -76 10l20 111h308l-20 -111q-40 -10 -73 -10l-97 -545h-151l-162 297q-36 65 -61 123l-6 13h-2q0 -9 -17 -124l-33 -188
q35 0 77 -10l-20 -111h-313zM407 713l-98 164h140l40 -50l62 50h148l-156 -164h-136z" />
    <glyph glyph-name="ncaron" unicode="&#x148;" horiz-adv-x="589" 
d="M23 0l68 375q-42 5 -69 5l20 111l242 8l-6 -34q-2 -6 -6 -27t-5 -27h2q65 96 161 96q67 0 94.5 -52t9.5 -150l-34 -184q29 0 69 -10l-20 -111h-245l52 301q10 57 -23 57q-73 0 -131 -329l-5 -29h-174zM262 542l-98 164h140l40 -50l62 50h148l-156 -164h-136z" />
    <glyph glyph-name="napostrophe" unicode="&#x149;" horiz-adv-x="841" 
d="M137 326l-60 54q27 28 40 49.5t13 48.5q0 20 -19.5 51t-19.5 61q0 38 27.5 63t67.5 25q47 0 73 -30.5t26 -79.5q0 -108 -148 -242zM275 0l68 375q-42 5 -69 5l20 111l242 8l-6 -34q-2 -6 -6 -27t-5 -27h2q65 96 161 96q67 0 94.5 -52t9.5 -150l-34 -184q29 0 69 -10
l-20 -111h-245l52 301q10 57 -23 57q-73 0 -131 -329l-5 -29h-174z" />
    <glyph glyph-name="Omacron" unicode="&#x14c;" horiz-adv-x="766" 
d="M348 -12q-147 0 -228.5 81t-81.5 213q0 168 114 282t295 114q146 0 225.5 -79.5t79.5 -207.5q0 -172 -112 -287.5t-292 -115.5zM371 124q87 0 134.5 76.5t47.5 186.5q0 71 -33.5 113t-95.5 42q-88 0 -137.5 -75.5t-49.5 -181.5q0 -75 36 -118t98 -43zM324 723l22 122h285
l-22 -122h-285z" />
    <glyph glyph-name="omacron" unicode="&#x14d;" horiz-adv-x="541" 
d="M231 -12q-97 0 -156 57.5t-59 148.5q0 134 85.5 223.5t212.5 89.5q95 0 153 -58.5t58 -151.5q0 -138 -81 -223.5t-213 -85.5zM247 115q34 0 58.5 32t34 73t9.5 83q0 76 -49 76q-46 0 -75 -58.5t-29 -122.5q0 -83 51 -83zM186 552l22 122h285l-22 -122h-285z" />
    <glyph glyph-name="Obreve" unicode="&#x14e;" horiz-adv-x="766" 
d="M348 -12q-147 0 -228.5 81t-81.5 213q0 168 114 282t295 114q146 0 225.5 -79.5t79.5 -207.5q0 -172 -112 -287.5t-292 -115.5zM371 124q87 0 134.5 76.5t47.5 186.5q0 71 -33.5 113t-95.5 42q-88 0 -137.5 -75.5t-49.5 -181.5q0 -75 36 -118t98 -43zM466 706
q-81 0 -128.5 40.5t-39.5 118.5h137q-5 -51 37 -51q38 0 50 51h144q-39 -159 -200 -159z" />
    <glyph glyph-name="obreve" unicode="&#x14f;" horiz-adv-x="541" 
d="M231 -12q-97 0 -156 57.5t-59 148.5q0 134 85.5 223.5t212.5 89.5q95 0 153 -58.5t58 -151.5q0 -138 -81 -223.5t-213 -85.5zM247 115q34 0 58.5 32t34 73t9.5 83q0 76 -49 76q-46 0 -75 -58.5t-29 -122.5q0 -83 51 -83zM328 535q-81 0 -128.5 40.5t-39.5 118.5h137
q-5 -51 37 -51q38 0 50 51h144q-39 -159 -200 -159z" />
    <glyph glyph-name="Ohungarumlaut" unicode="&#x150;" horiz-adv-x="766" 
d="M348 -12q-147 0 -228.5 81t-81.5 213q0 168 114 282t295 114q146 0 225.5 -79.5t79.5 -207.5q0 -172 -112 -287.5t-292 -115.5zM371 124q87 0 134.5 76.5t47.5 186.5q0 71 -33.5 113t-95.5 42q-88 0 -137.5 -75.5t-49.5 -181.5q0 -75 36 -118t98 -43zM260 713l108 142
h186l-156 -142h-138zM488 713l108 142h186l-156 -142h-138z" />
    <glyph glyph-name="ohungarumlaut" unicode="&#x151;" horiz-adv-x="541" 
d="M231 -12q-97 0 -156 57.5t-59 148.5q0 134 85.5 223.5t212.5 89.5q95 0 153 -58.5t58 -151.5q0 -138 -81 -223.5t-213 -85.5zM247 115q34 0 58.5 32t34 73t9.5 83q0 76 -49 76q-46 0 -75 -58.5t-29 -122.5q0 -83 51 -83zM122 542l108 142h186l-156 -142h-138zM350 542
l108 142h186l-156 -142h-138z" />
    <glyph glyph-name="OE" unicode="&#x152;" horiz-adv-x="966" 
d="M343 -12q-145 0 -225 82.5t-80 211.5q0 105 49 195t141.5 145.5t207.5 55.5q64 0 104 -12h463l-36 -209h-134q-2 27 3 70h-126l-22 -126h166l-23 -128h-166l-24 -134h136q14 52 20 70h133l-37 -209h-447q-48 -12 -103 -12zM363 129q57 0 102 38l60 339q-33 30 -90 30
q-89 0 -143.5 -75.5t-54.5 -175.5q0 -71 32 -113.5t94 -42.5z" />
    <glyph glyph-name="oe" unicode="&#x153;" horiz-adv-x="807" 
d="M231 -12q-97 0 -156 57.5t-59 148.5q0 134 85.5 223.5t212.5 89.5q88 0 145 -51q73 51 171 51q80 0 123.5 -37.5t43.5 -102.5q0 -86 -76.5 -133t-207.5 -60q8 -53 60 -53q63 0 126 45l55 -111q-90 -67 -212 -67q-92 0 -145 46q-71 -46 -166 -46zM247 115q34 0 58.5 32
t34 73t9.5 83q0 76 -49 76q-46 0 -75 -58.5t-29 -122.5q0 -83 51 -83zM601 378q-33 0 -55 -29t-31 -73q58 5 88.5 23.5t30.5 45.5q0 33 -33 33z" />
    <glyph glyph-name="Racute" unicode="&#x154;" horiz-adv-x="675" 
d="M544 -9q-67 0 -94.5 18t-48.5 71l-45 110q-24 60 -62 60h-19l-23 -130q57 -8 60 -9l-20 -111h-321l20 111q40 10 77 10l76 424q-43 0 -77 10l20 111h332q116 0 175 -45t59 -130q0 -158 -171 -205v-2q40 -35 68 -92l12 -26q25 -55 82 -55h3l-20 -111q-27 -9 -83 -9z
M297 372h75q44 0 68.5 25.5t24.5 66.5q0 70 -77 70h-62zM315 713l100 142h216l-166 -142h-150z" />
    <glyph glyph-name="racute" unicode="&#x155;" horiz-adv-x="452" 
d="M23 0l68 375q-42 5 -69 5l20 111q13 2 241 8l-5 -34q-4 -30 -13 -65h2q21 32 37 52t46 37.5t65 17.5q39 0 61 -12l-54 -164q-20 13 -52 13q-20 0 -34 -4t-34 -21.5t-35 -49.5t-32.5 -93t-32.5 -147l-5 -29h-174zM223 542l100 142h216l-166 -142h-150z" />
    <glyph glyph-name="Rcommaaccent" unicode="&#x156;" horiz-adv-x="675" 
d="M318 -27q38 0 65 -23t27 -61q0 -75 -107 -142l-60 38q27 20 27 43q0 13 -17 33.5t-17 47.5q0 28 24 46t58 18zM544 -9q-67 0 -94.5 18t-48.5 71l-45 110q-24 60 -62 60h-19l-23 -130q57 -8 60 -9l-20 -111h-321l20 111q40 10 77 10l76 424q-43 0 -77 10l20 111h332
q116 0 175 -45t59 -130q0 -158 -171 -205v-2q40 -35 68 -92l12 -26q25 -55 82 -55h3l-20 -111q-27 -9 -83 -9zM297 372h75q44 0 68.5 25.5t24.5 66.5q0 70 -77 70h-62z" />
    <glyph glyph-name="rcommaaccent" unicode="&#x157;" horiz-adv-x="452" 
d="M107 -27q38 0 65 -23t27 -61q0 -75 -107 -142l-60 38q27 20 27 43q0 13 -17 33.5t-17 47.5q0 28 24 46t58 18zM23 0l68 375q-42 5 -69 5l20 111q13 2 241 8l-5 -34q-4 -30 -13 -65h2q21 32 37 52t46 37.5t65 17.5q39 0 61 -12l-54 -164q-20 13 -52 13q-20 0 -34 -4
t-34 -21.5t-35 -49.5t-32.5 -93t-32.5 -147l-5 -29h-174z" />
    <glyph glyph-name="Rcaron" unicode="&#x158;" horiz-adv-x="675" 
d="M544 -9q-67 0 -94.5 18t-48.5 71l-45 110q-24 60 -62 60h-19l-23 -130q57 -8 60 -9l-20 -111h-321l20 111q40 10 77 10l76 424q-43 0 -77 10l20 111h332q116 0 175 -45t59 -130q0 -158 -171 -205v-2q40 -35 68 -92l12 -26q25 -55 82 -55h3l-20 -111q-27 -9 -83 -9z
M297 372h75q44 0 68.5 25.5t24.5 66.5q0 70 -77 70h-62zM329 713l-98 164h140l40 -50l62 50h148l-156 -164h-136z" />
    <glyph glyph-name="rcaron" unicode="&#x159;" horiz-adv-x="452" 
d="M23 0l68 375q-42 5 -69 5l20 111q13 2 241 8l-5 -34q-4 -30 -13 -65h2q21 32 37 52t46 37.5t65 17.5q39 0 61 -12l-54 -164q-20 13 -52 13q-20 0 -34 -4t-34 -21.5t-35 -49.5t-32.5 -93t-32.5 -147l-5 -29h-174zM237 542l-98 164h140l40 -50l62 50h148l-156 -164h-136z
" />
    <glyph glyph-name="Sacute" unicode="&#x15a;" horiz-adv-x="553" 
d="M235 -12q-162 0 -231 52l30 168h134l-3 -31l-4 -36q47 -14 89 -14q31 0 54.5 14.5t23.5 46.5q0 48 -70 75q-4 2 -25 10t-28 11.5t-26 12.5t-27.5 16.5t-23 19.5t-22 25.5t-15.5 30.5t-11.5 38t-3.5 46q0 96 73.5 150.5t188.5 54.5q76 0 139 -15.5t90 -32.5l-31 -172h-134
q2 36 8 77q-37 7 -66 7q-86 0 -86 -53q0 -26 18 -42t65 -35q77 -34 103 -54q71 -53 71 -149q0 -105 -74 -163t-206 -58zM276 713l100 142h216l-166 -142h-150z" />
    <glyph glyph-name="sacute" unicode="&#x15b;" horiz-adv-x="480" 
d="M208 -13q-57 0 -122 13.5t-86 28.5l24 134h122q0 -25 -3 -42q30 -13 60 -13t47 9t17 23q0 8 -4.5 14.5t-17 12.5t-21 9t-28.5 10q-32 10 -53.5 19.5t-47 27t-39 45.5t-13.5 65q0 79 61.5 121.5t169.5 42.5q126 0 198 -40l-23 -132h-122q0 6 2 44q-14 7 -42 7
q-63 0 -63 -30q0 -13 13.5 -21t44.5 -19q83 -29 114 -54q53 -41 53 -109q0 -82 -66.5 -124t-174.5 -42zM198 542l100 142h216l-166 -142h-150z" />
    <glyph glyph-name="Scircumflex" unicode="&#x15c;" horiz-adv-x="553" 
d="M235 -12q-162 0 -231 52l30 168h134l-3 -31l-4 -36q47 -14 89 -14q31 0 54.5 14.5t23.5 46.5q0 48 -70 75q-4 2 -25 10t-28 11.5t-26 12.5t-27.5 16.5t-23 19.5t-22 25.5t-15.5 30.5t-11.5 38t-3.5 46q0 96 73.5 150.5t188.5 54.5q76 0 139 -15.5t90 -32.5l-31 -172h-134
q2 36 8 77q-37 7 -66 7q-86 0 -86 -53q0 -26 18 -42t65 -35q77 -34 103 -54q71 -53 71 -149q0 -105 -74 -163t-206 -58zM152 714l157 164h136l97 -164h-139l-42 53l-60 -53h-149z" />
    <glyph glyph-name="scircumflex" unicode="&#x15d;" horiz-adv-x="480" 
d="M208 -13q-57 0 -122 13.5t-86 28.5l24 134h122q0 -25 -3 -42q30 -13 60 -13t47 9t17 23q0 8 -4.5 14.5t-17 12.5t-21 9t-28.5 10q-32 10 -53.5 19.5t-47 27t-39 45.5t-13.5 65q0 79 61.5 121.5t169.5 42.5q126 0 198 -40l-23 -132h-122q0 6 2 44q-14 7 -42 7
q-63 0 -63 -30q0 -13 13.5 -21t44.5 -19q83 -29 114 -54q53 -41 53 -109q0 -82 -66.5 -124t-174.5 -42zM75 543l157 164h136l97 -164h-139l-42 53l-60 -53h-149z" />
    <glyph glyph-name="Scedilla" unicode="&#x15e;" horiz-adv-x="553" 
d="M235 -12q-162 0 -231 52l30 168h134l-3 -31l-4 -36q47 -14 89 -14q31 0 54.5 14.5t23.5 46.5q0 48 -70 75q-4 2 -25 10t-28 11.5t-26 12.5t-27.5 16.5t-23 19.5t-22 25.5t-15.5 30.5t-11.5 38t-3.5 46q0 96 73.5 150.5t188.5 54.5q76 0 139 -15.5t90 -32.5l-31 -172h-134
q2 36 8 77q-37 7 -66 7q-86 0 -86 -53q0 -26 18 -42t65 -35q77 -34 103 -54q71 -53 71 -149q0 -105 -74 -163t-206 -58zM195 -238q-60 0 -96 17l27 73q26 -11 45 -11q45 0 45 32q0 40 -71 34l36 98h97l-19 -52q73 -19 73 -86q0 -46 -36.5 -75.5t-100.5 -29.5z" />
    <glyph glyph-name="scedilla" unicode="&#x15f;" horiz-adv-x="480" 
d="M208 -13q-57 0 -122 13.5t-86 28.5l24 134h122q0 -25 -3 -42q30 -13 60 -13t47 9t17 23q0 8 -4.5 14.5t-17 12.5t-21 9t-28.5 10q-32 10 -53.5 19.5t-47 27t-39 45.5t-13.5 65q0 79 61.5 121.5t169.5 42.5q126 0 198 -40l-23 -132h-122q0 6 2 44q-14 7 -42 7
q-63 0 -63 -30q0 -13 13.5 -21t44.5 -19q83 -29 114 -54q53 -41 53 -109q0 -82 -66.5 -124t-174.5 -42zM161 -238q-60 0 -96 17l27 73q26 -11 45 -11q45 0 45 32q0 40 -71 34l36 98h97l-19 -52q73 -19 73 -86q0 -46 -36.5 -75.5t-100.5 -29.5z" />
    <glyph glyph-name="Scaron" unicode="&#x160;" horiz-adv-x="553" 
d="M235 -12q-162 0 -231 52l30 168h134l-3 -31l-4 -36q47 -14 89 -14q31 0 54.5 14.5t23.5 46.5q0 48 -70 75q-4 2 -25 10t-28 11.5t-26 12.5t-27.5 16.5t-23 19.5t-22 25.5t-15.5 30.5t-11.5 38t-3.5 46q0 96 73.5 150.5t188.5 54.5q76 0 139 -15.5t90 -32.5l-31 -172h-134
q2 36 8 77q-37 7 -66 7q-86 0 -86 -53q0 -26 18 -42t65 -35q77 -34 103 -54q71 -53 71 -149q0 -105 -74 -163t-206 -58zM290 713l-98 164h140l40 -50l62 50h148l-156 -164h-136z" />
    <glyph glyph-name="scaron" unicode="&#x161;" horiz-adv-x="480" 
d="M208 -13q-57 0 -122 13.5t-86 28.5l24 134h122q0 -25 -3 -42q30 -13 60 -13t47 9t17 23q0 8 -4.5 14.5t-17 12.5t-21 9t-28.5 10q-32 10 -53.5 19.5t-47 27t-39 45.5t-13.5 65q0 79 61.5 121.5t169.5 42.5q126 0 198 -40l-23 -132h-122q0 6 2 44q-14 7 -42 7
q-63 0 -63 -30q0 -13 13.5 -21t44.5 -19q83 -29 114 -54q53 -41 53 -109q0 -82 -66.5 -124t-174.5 -42zM213 542l-98 164h140l40 -50l62 50h148l-156 -164h-136z" />
    <glyph glyph-name="Tcommaaccent" unicode="&#x162;" horiz-adv-x="684" 
d="M129 0l20 111q40 10 77 10l73 406h-83q-12 -57 -27 -88h-134l41 227h639l-40 -227h-134q-1 21 7 88h-81l-73 -406q20 0 77 -10l-20 -111h-342zM265 -238q-60 0 -96 17l27 73q26 -11 45 -11q45 0 45 32q0 40 -71 34l36 98h97l-19 -52q73 -19 73 -86q0 -46 -36.5 -75.5
t-100.5 -29.5z" />
    <glyph glyph-name="tcommaaccent" unicode="&#x163;" horiz-adv-x="393" 
d="M178 -12q-79 0 -108 46.5t-8 156.5l32 173h-73l23 129h74l21 116l186 53l-31 -169h124l-22 -129h-126l-31 -171q-11 -61 17 -61q22 0 59 21l44 -115q-83 -50 -181 -50zM146 -238q-60 0 -96 17l27 73q26 -11 45 -11q45 0 45 32q0 40 -71 34l36 98h97l-19 -52
q73 -19 73 -86q0 -46 -36.5 -75.5t-100.5 -29.5z" />
    <glyph glyph-name="Tcaron" unicode="&#x164;" horiz-adv-x="684" 
d="M129 0l20 111q40 10 77 10l73 406h-83q-12 -57 -27 -88h-134l41 227h639l-40 -227h-134q-1 21 7 88h-81l-73 -406q20 0 77 -10l-20 -111h-342zM360 713l-98 164h140l40 -50l62 50h148l-156 -164h-136z" />
    <glyph glyph-name="tcaron" unicode="&#x165;" horiz-adv-x="393" 
d="M178 -12q-79 0 -108 46.5t-8 156.5l32 173h-73l23 129h74l21 116l186 53l-31 -169h124l-22 -129h-126l-31 -171q-11 -61 17 -61q22 0 59 21l44 -115q-83 -50 -181 -50zM327 538l50 182h167l-96 -182h-121z" />
    <glyph glyph-name="Utilde" unicode="&#x168;" horiz-adv-x="734" 
d="M358 -12q-140 0 -209.5 57t-69.5 164q0 32 6 68l47 268q-27 0 -61 10l20 111h318l-20 -111q-38 -10 -69 -10l-47 -267q-13 -73 10.5 -104.5t88.5 -31.5q59 0 89.5 30.5t43.5 101.5l48 271q-33 0 -67 10l20 111h289l-20 -111q-38 -10 -63 -10l-49 -278
q-25 -143 -100.5 -211t-204.5 -68zM533 720q-38 0 -70.5 16t-50.5 16q-28 0 -61 -30l-62 66q23 34 60 61t77 27q37 0 70.5 -16t50.5 -16q32 0 63 31l62 -66q-21 -33 -60 -61t-79 -28z" />
    <glyph glyph-name="utilde" unicode="&#x169;" horiz-adv-x="588" 
d="M159 -14q-68 0 -96 51t-10 151l34 187q-42 5 -69 5l20 111q14 2 246 8l-53 -306q-6 -30 -1 -44t23 -14q13 0 23.5 6.5t25.5 26.5t31.5 68t32.5 121l4 18q-42 5 -68 5l20 111q14 2 243 8l-39 -217l-15 -95t-10 -66q29 0 69 -10l-20 -111h-232q0 33 9 96h-2
q-17 -26 -30 -41.5t-33 -33.5t-46 -26.5t-57 -8.5zM408 549q-38 0 -70.5 16t-50.5 16q-29 0 -61 -30l-62 66q23 34 60 61t77 27q37 0 70.5 -16t50.5 -16q32 0 63 31l62 -66q-21 -33 -60 -61t-79 -28z" />
    <glyph glyph-name="Umacron" unicode="&#x16a;" horiz-adv-x="734" 
d="M358 -12q-140 0 -209.5 57t-69.5 164q0 32 6 68l47 268q-27 0 -61 10l20 111h318l-20 -111q-38 -10 -69 -10l-47 -267q-13 -73 10.5 -104.5t88.5 -31.5q59 0 89.5 30.5t43.5 101.5l48 271q-33 0 -67 10l20 111h289l-20 -111q-38 -10 -63 -10l-49 -278
q-25 -143 -100.5 -211t-204.5 -68zM328 723l22 122h285l-22 -122h-285z" />
    <glyph glyph-name="umacron" unicode="&#x16b;" horiz-adv-x="588" 
d="M159 -14q-68 0 -96 51t-10 151l34 187q-42 5 -69 5l20 111q14 2 246 8l-53 -306q-6 -30 -1 -44t23 -14q13 0 23.5 6.5t25.5 26.5t31.5 68t32.5 121l4 18q-42 5 -68 5l20 111q14 2 243 8l-39 -217l-15 -95t-10 -66q29 0 69 -10l-20 -111h-232q0 33 9 96h-2
q-17 -26 -30 -41.5t-33 -33.5t-46 -26.5t-57 -8.5zM203 552l22 122h285l-22 -122h-285z" />
    <glyph glyph-name="Ubreve" unicode="&#x16c;" horiz-adv-x="734" 
d="M358 -12q-140 0 -209.5 57t-69.5 164q0 32 6 68l47 268q-27 0 -61 10l20 111h318l-20 -111q-38 -10 -69 -10l-47 -267q-13 -73 10.5 -104.5t88.5 -31.5q59 0 89.5 30.5t43.5 101.5l48 271q-33 0 -67 10l20 111h289l-20 -111q-38 -10 -63 -10l-49 -278
q-25 -143 -100.5 -211t-204.5 -68zM470 706q-81 0 -128.5 40.5t-39.5 118.5h137q-5 -51 37 -51q38 0 50 51h144q-39 -159 -200 -159z" />
    <glyph glyph-name="ubreve" unicode="&#x16d;" horiz-adv-x="588" 
d="M159 -14q-68 0 -96 51t-10 151l34 187q-42 5 -69 5l20 111q14 2 246 8l-53 -306q-6 -30 -1 -44t23 -14q13 0 23.5 6.5t25.5 26.5t31.5 68t32.5 121l4 18q-42 5 -68 5l20 111q14 2 243 8l-39 -217l-15 -95t-10 -66q29 0 69 -10l-20 -111h-232q0 33 9 96h-2
q-17 -26 -30 -41.5t-33 -33.5t-46 -26.5t-57 -8.5zM345 535q-81 0 -128.5 40.5t-39.5 118.5h137q-4 -51 37 -51q38 0 50 51h144q-39 -159 -200 -159z" />
    <glyph glyph-name="Uring" unicode="&#x16e;" horiz-adv-x="734" 
d="M358 -12q-140 0 -209.5 57t-69.5 164q0 32 6 68l47 268q-27 0 -61 10l20 111h318l-20 -111q-38 -10 -69 -10l-47 -267q-13 -73 10.5 -104.5t88.5 -31.5q59 0 89.5 30.5t43.5 101.5l48 271q-33 0 -67 10l20 111h289l-20 -111q-38 -10 -63 -10l-49 -278
q-25 -143 -100.5 -211t-204.5 -68zM481 706q-47 0 -83 33t-36 82t36 82t83 33t83 -33t36 -82t-36 -82t-83 -33zM481 774q19 0 30.5 14t11.5 33q0 21 -11 34t-31 13t-31 -13t-11 -34q0 -19 11.5 -33t30.5 -14z" />
    <glyph glyph-name="uring" unicode="&#x16f;" horiz-adv-x="588" 
d="M159 -14q-68 0 -96 51t-10 151l34 187q-42 5 -69 5l20 111q14 2 246 8l-53 -306q-6 -30 -1 -44t23 -14q13 0 23.5 6.5t25.5 26.5t31.5 68t32.5 121l4 18q-42 5 -68 5l20 111q14 2 243 8l-39 -217l-15 -95t-10 -66q29 0 69 -10l-20 -111h-232q0 33 9 96h-2
q-17 -26 -30 -41.5t-33 -33.5t-46 -26.5t-57 -8.5zM356 535q-47 0 -83 33t-36 82t36 82t83 33t83 -33t36 -82t-36 -82t-83 -33zM356 603q19 0 30.5 14t11.5 33q0 21 -11 34t-31 13t-31 -13t-11 -34q0 -19 11.5 -33t30.5 -14z" />
    <glyph glyph-name="Uhungarumlaut" unicode="&#x170;" horiz-adv-x="734" 
d="M358 -12q-140 0 -209.5 57t-69.5 164q0 32 6 68l47 268q-27 0 -61 10l20 111h318l-20 -111q-38 -10 -69 -10l-47 -267q-13 -73 10.5 -104.5t88.5 -31.5q59 0 89.5 30.5t43.5 101.5l48 271q-33 0 -67 10l20 111h289l-20 -111q-38 -10 -63 -10l-49 -278
q-25 -143 -100.5 -211t-204.5 -68zM264 713l108 142h186l-156 -142h-138zM492 713l108 142h186l-156 -142h-138z" />
    <glyph glyph-name="uhungarumlaut" unicode="&#x171;" horiz-adv-x="588" 
d="M159 -14q-68 0 -96 51t-10 151l34 187q-42 5 -69 5l20 111q14 2 246 8l-53 -306q-6 -30 -1 -44t23 -14q13 0 23.5 6.5t25.5 26.5t31.5 68t32.5 121l4 18q-42 5 -68 5l20 111q14 2 243 8l-39 -217l-15 -95t-10 -66q29 0 69 -10l-20 -111h-232q0 33 9 96h-2
q-17 -26 -30 -41.5t-33 -33.5t-46 -26.5t-57 -8.5zM139 542l108 142h186l-156 -142h-138zM367 542l108 142h186l-156 -142h-138z" />
    <glyph glyph-name="Uogonek" unicode="&#x172;" horiz-adv-x="734" 
d="M379 -238q-53 0 -85.5 23.5t-32.5 66.5q0 71 84 137q-266 11 -266 219q0 32 6 69l47 268q-27 0 -61 10l20 111h318l-20 -111q-38 -10 -69 -10l-47 -267q-13 -73 10.5 -104.5t88.5 -31.5q59 0 89.5 30.5t43.5 101.5l48 271q-33 0 -67 10l20 111h289l-20 -111
q-38 -10 -63 -10l-49 -278q-18 -106 -69 -167t-137 -100q-38 -18 -57 -52t-19 -63q0 -37 39 -37q21 0 40 7l13 -75q-34 -18 -94 -18z" />
    <glyph glyph-name="uogonek" unicode="&#x173;" horiz-adv-x="588" 
d="M159 -14q-68 0 -96 51t-10 151l34 187q-42 5 -69 5l20 111q14 2 246 8l-53 -306q-6 -30 -1 -44t23 -14q13 0 23.5 6.5t25.5 26.5t31.5 68t32.5 121l4 18q-42 5 -68 5l20 111q14 2 243 8l-39 -217l-15 -95t-10 -66q29 0 69 -10l-20 -111h-232q0 33 9 96h-2
q-17 -26 -30 -41.5t-33 -33.5t-46 -26.5t-57 -8.5zM403 -238q-53 0 -85.5 23.5t-32.5 66.5q0 79 100 148h96q-76 -74 -76 -119q0 -33 39 -33q21 0 40 7l13 -75q-34 -18 -94 -18z" />
    <glyph glyph-name="Ydieresis" unicode="&#x178;" horiz-adv-x="644" 
d="M112 0l20 111q40 10 77 10l23 124l-114 301q-32 2 -56 9l20 111h286l-20 -111q-6 -2 -21.5 -4t-21.5 -3l52 -145h1l95 145l-15 2.5l-15 2.5t-10 2l20 111h274l-20 -111q-5 -1 -14 -2.5t-20.5 -3t-18.5 -2.5l-215 -301l-22 -125q20 0 77 -10l-19 -111h-343zM297 719
q-39 0 -63.5 24t-24.5 60q0 34 25 58.5t63 24.5t63 -24.5t25 -58.5q0 -36 -24.5 -60t-63.5 -24zM525 719q-39 0 -63.5 24t-24.5 60q0 34 25 58.5t63 24.5t63 -24.5t25 -58.5q0 -36 -24.5 -60t-63.5 -24z" />
    <glyph glyph-name="Zacute" unicode="&#x179;" horiz-adv-x="599" 
d="M-23 0l22 121l381 406h-162q-20 -77 -26 -90h-134l41 229h540l-22 -120l-381 -407h182l6 25l7 26q6 20 13 39h134l-41 -229h-560zM305 713l100 142h216l-166 -142h-150z" />
    <glyph glyph-name="zacute" unicode="&#x17a;" horiz-adv-x="545" 
d="M-12 0l16 93l280 274h-87q-7 -27 -14 -41h-134l30 167h472l-18 -99l-273 -268h107q7 27 14 41h134l-30 -167h-497zM239 542l100 142h216l-166 -142h-150z" />
    <glyph glyph-name="Zdotaccent" unicode="&#x17b;" horiz-adv-x="599" 
d="M-23 0l22 121l381 406h-162q-20 -77 -26 -90h-134l41 229h540l-22 -120l-381 -407h182l6 25l7 26q6 20 13 39h134l-41 -229h-560zM392 719q-39 0 -63.5 24t-24.5 60q0 34 25 58.5t63 24.5t63 -24.5t25 -58.5q0 -36 -24.5 -60t-63.5 -24z" />
    <glyph glyph-name="zdotaccent" unicode="&#x17c;" horiz-adv-x="545" 
d="M-12 0l16 93l280 274h-87q-7 -27 -14 -41h-134l30 167h472l-18 -99l-273 -268h107q7 27 14 41h134l-30 -167h-497zM326 548q-39 0 -63.5 24t-24.5 60q0 34 25 58.5t63 24.5t63 -24.5t25 -58.5q0 -36 -24.5 -60t-63.5 -24z" />
    <glyph glyph-name="Zcaron" unicode="&#x17d;" horiz-adv-x="599" 
d="M-23 0l22 121l381 406h-162q-20 -77 -26 -90h-134l41 229h540l-22 -120l-381 -407h182l6 25l7 26q6 20 13 39h134l-41 -229h-560zM319 713l-98 164h140l40 -50l62 50h148l-156 -164h-136z" />
    <glyph glyph-name="zcaron" unicode="&#x17e;" horiz-adv-x="545" 
d="M-12 0l16 93l280 274h-87q-7 -27 -14 -41h-134l30 167h472l-18 -99l-273 -268h107q7 27 14 41h134l-30 -167h-497zM245 542l-98 164h140l40 -50l62 50h148l-156 -164h-136z" />
    <glyph glyph-name="Scommaaccent" unicode="&#x218;" horiz-adv-x="553" 
d="M224 -27q38 0 65 -23t27 -61q0 -75 -107 -142l-60 38q27 20 27 43q0 13 -17 33.5t-17 47.5q0 28 24 46t58 18zM235 -12q-162 0 -231 52l30 168h134l-3 -31l-4 -36q47 -14 89 -14q31 0 54.5 14.5t23.5 46.5q0 48 -70 75q-4 2 -25 10t-28 11.5t-26 12.5t-27.5 16.5
t-23 19.5t-22 25.5t-15.5 30.5t-11.5 38t-3.5 46q0 96 73.5 150.5t188.5 54.5q76 0 139 -15.5t90 -32.5l-31 -172h-134q2 36 8 77q-37 7 -66 7q-86 0 -86 -53q0 -26 18 -42t65 -35q77 -34 103 -54q71 -53 71 -149q0 -105 -74 -163t-206 -58z" />
    <glyph glyph-name="scommaaccent" unicode="&#x219;" horiz-adv-x="480" 
d="M189 -27q38 0 65 -23t27 -61q0 -75 -107 -142l-60 38q27 20 27 43q0 13 -17 33.5t-17 47.5q0 28 24 46t58 18zM208 -13q-57 0 -122 13.5t-86 28.5l24 134h122q0 -25 -3 -42q30 -13 60 -13t47 9t17 23q0 8 -4.5 14.5t-17 12.5t-21 9t-28.5 10q-32 10 -53.5 19.5t-47 27
t-39 45.5t-13.5 65q0 79 61.5 121.5t169.5 42.5q126 0 198 -40l-23 -132h-122q0 6 2 44q-14 7 -42 7q-63 0 -63 -30q0 -13 13.5 -21t44.5 -19q83 -29 114 -54q53 -41 53 -109q0 -82 -66.5 -124t-174.5 -42z" />
    <glyph glyph-name="uni021A" unicode="&#x21a;" horiz-adv-x="684" 
d="M295 -27q38 0 65 -23t27 -61q0 -75 -107 -142l-60 38q27 20 27 43q0 13 -17 33.5t-17 47.5q0 28 24 46t58 18zM129 0l20 111q40 10 77 10l73 406h-83q-12 -57 -27 -88h-134l41 227h639l-40 -227h-134q-1 21 7 88h-81l-73 -406q20 0 77 -10l-20 -111h-342z" />
    <glyph glyph-name="uni021B" unicode="&#x21b;" horiz-adv-x="393" 
d="M176 -27q38 0 65 -23t27 -61q0 -75 -107 -142l-60 38q27 20 27 43q0 13 -17 33.5t-17 47.5q0 28 24 46t58 18zM178 -12q-79 0 -108 46.5t-8 156.5l32 173h-73l23 129h74l21 116l186 53l-31 -169h124l-22 -129h-126l-31 -171q-11 -61 17 -61q22 0 59 21l44 -115
q-83 -50 -181 -50z" />
    <glyph glyph-name="circumflex" unicode="&#x2c6;" horiz-adv-x="500" 
d="M103 543l157 164h136l97 -164h-139l-42 53l-60 -53h-149z" />
    <glyph glyph-name="caron" unicode="&#x2c7;" horiz-adv-x="500" 
d="M229 542l-98 164h140l40 -50l62 50h148l-156 -164h-136z" />
    <glyph glyph-name="breve" unicode="&#x2d8;" horiz-adv-x="500" 
d="M293 535q-81 0 -128.5 40.5t-39.5 118.5h137q-4 -51 37 -51q38 0 50 51h144q-39 -159 -200 -159z" />
    <glyph glyph-name="dotaccent" unicode="&#x2d9;" horiz-adv-x="500" 
d="M318 548q-39 0 -63.5 24t-24.5 60q0 34 25 58.5t63 24.5t63 -24.5t25 -58.5q0 -36 -24.5 -60t-63.5 -24z" />
    <glyph glyph-name="ring" unicode="&#x2da;" horiz-adv-x="490" 
d="M317 535q-47 0 -83 33t-36 82t36 82t83 33t83 -33t36 -82t-36 -82t-83 -33zM317 603q19 0 30.5 14t11.5 33q0 21 -11 34t-31 13t-31 -13t-11 -34q0 -19 11.5 -33t30.5 -14z" />
    <glyph glyph-name="ogonek" unicode="&#x2db;" horiz-adv-x="500" 
d="M160 -238q-53 0 -85.5 23.5t-32.5 66.5q0 79 100 148h96q-76 -74 -76 -119q0 -33 39 -33q21 0 40 7l13 -75q-34 -18 -94 -18z" />
    <glyph glyph-name="tilde" unicode="&#x2dc;" horiz-adv-x="500" 
d="M365 549q-38 0 -70.5 16t-50.5 16q-28 0 -61 -30l-62 66q23 34 60 61t77 27q37 0 70.5 -16t50.5 -16q32 0 63 31l62 -66q-21 -33 -60 -61t-79 -28z" />
    <glyph glyph-name="hungarumlaut" unicode="&#x2dd;" horiz-adv-x="500" 
d="M54 542l108 142h186l-156 -142h-138zM282 542l108 142h186l-156 -142h-138z" />
    <glyph glyph-name="uni0394" unicode="&#x394;" horiz-adv-x="690" 
d="M-1 0l16 88l313 578h176l118 -578l-16 -88h-607zM236 155h184l-28 196q-2 13 -5 39t-4 34l-2 28v11h-2l-5 -11q-24 -63 -43 -101z" />
    <glyph glyph-name="uni03A9" unicode="&#x3a9;" horiz-adv-x="772" 
d="M-16 0l26 143h110q-69 65 -69 166q0 156 115 262.5t272 106.5q130 0 215.5 -70.5t85.5 -183.5q0 -90 -40 -164.5t-98 -116.5h128l-26 -143h-339l24 134q70 22 116.5 94.5t46.5 163.5q0 58 -34.5 96t-92.5 38q-87 0 -139 -72.5t-52 -164.5q0 -51 20 -87t65 -68l-24 -134
h-310z" />
    <glyph glyph-name="uni03BC" unicode="&#x3bc;" horiz-adv-x="559" 
d="M-37 -218l126 711h174l-54 -303q-10 -55 37 -55q42 0 74 40l58 318h174l-59 -322q-19 -108 -15 -171h-173q-8 29 -2 62q-49 -62 -138 -62q0 -54 -14 -131l-16 -87h-172z" />
    <glyph glyph-name="uni1E9E" unicode="&#x1e9e;" horiz-adv-x="818" 
d="M-36 0l20 111q40 10 77 10l44 247q29 158 132.5 234t267.5 76q174 0 317 -34l-16 -93l-129 -172l9 -6q29 -22 47 -39.5t35 -51.5t17 -74q0 -99 -73.5 -159.5t-193.5 -60.5q-116 0 -191 29l53 137q70 -27 134 -27q84 0 84 53q0 23 -17 41t-68 48l-82 49l162 216
q-40 8 -109 8q-78 0 -125 -40t-64 -130l-46 -251q29 0 69 -10l-20 -111h-334z" />
    <glyph glyph-name="uni2007" unicode="&#x2007;" 
 />
    <glyph glyph-name="uni2008" unicode="&#x2008;" horiz-adv-x="334" 
 />
    <glyph glyph-name="uni200B" unicode="&#x200b;" horiz-adv-x="0" 
 />
    <glyph glyph-name="endash" unicode="&#x2013;" horiz-adv-x="558" 
d="M38 218l21 121h474l-20 -121h-475z" />
    <glyph glyph-name="emdash" unicode="&#x2014;" horiz-adv-x="882" 
d="M38 218l21 121h797l-20 -121h-798z" />
    <glyph glyph-name="quoteleft" unicode="&#x2018;" horiz-adv-x="252" 
d="M164 342q-47 0 -73 30.5t-26 79.5q0 108 148 242l60 -54q-27 -28 -40 -49.5t-13 -48.5q0 -20 19.5 -51t19.5 -61q0 -38 -27.5 -63t-67.5 -25z" />
    <glyph glyph-name="quoteright" unicode="&#x2019;" horiz-adv-x="252" 
d="M137 326l-60 54q27 28 40 49.5t13 48.5q0 20 -19.5 51t-19.5 61q0 38 27.5 63t67.5 25q47 0 73 -30.5t26 -79.5q0 -108 -148 -242z" />
    <glyph glyph-name="quotesinglbase" unicode="&#x201a;" horiz-adv-x="256" 
d="M44 -168l-60 54q27 28 40 49.5t13 48.5q0 20 -19.5 51t-19.5 61q0 38 27.5 63t67.5 25q47 0 73 -30.5t26 -79.5q0 -108 -148 -242z" />
    <glyph glyph-name="quotedblleft" unicode="&#x201c;" horiz-adv-x="498" 
d="M164 342q-47 0 -73 30.5t-26 79.5q0 108 148 242l60 -54q-27 -28 -40 -49.5t-13 -48.5q0 -20 19.5 -51t19.5 -61q0 -38 -27.5 -63t-67.5 -25zM410 342q-47 0 -73 30.5t-26 79.5q0 108 148 242l60 -54q-27 -28 -40 -49.5t-13 -48.5q0 -20 19.5 -51t19.5 -61
q0 -38 -27.5 -63t-67.5 -25z" />
    <glyph glyph-name="quotedblright" unicode="&#x201d;" horiz-adv-x="498" 
d="M137 326l-60 54q27 28 40 49.5t13 48.5q0 20 -19.5 51t-19.5 61q0 38 27.5 63t67.5 25q47 0 73 -30.5t26 -79.5q0 -108 -148 -242zM383 326l-60 54q27 28 40 49.5t13 48.5q0 20 -19.5 51t-19.5 61q0 38 27.5 63t67.5 25q47 0 73 -30.5t26 -79.5q0 -108 -148 -242z" />
    <glyph glyph-name="quotedblbase" unicode="&#x201e;" horiz-adv-x="502" 
d="M44 -168l-60 54q27 28 40 49.5t13 48.5q0 20 -19.5 51t-19.5 61q0 38 27.5 63t67.5 25q47 0 73 -30.5t26 -79.5q0 -108 -148 -242zM290 -168l-60 54q27 28 40 49.5t13 48.5q0 20 -19.5 51t-19.5 61q0 38 27.5 63t67.5 25q47 0 73 -30.5t26 -79.5q0 -108 -148 -242z" />
    <glyph glyph-name="bullet" unicode="&#x2022;" horiz-adv-x="572" 
d="M288 71q-88 0 -151 63.5t-63 152.5q0 90 63 154t151 64q90 0 152 -63.5t62 -154.5q0 -90 -62 -153t-152 -63z" />
    <glyph glyph-name="ellipsis" unicode="&#x2026;" horiz-adv-x="866" 
d="M149 -11q-45 0 -76.5 30t-31.5 74q0 43 31.5 73t76.5 30q44 0 75.5 -30t31.5 -73q0 -45 -31 -74.5t-76 -29.5zM415 -11q-45 0 -76.5 30t-31.5 74q0 43 31.5 73t76.5 30q44 0 75.5 -30t31.5 -73q0 -45 -31 -74.5t-76 -29.5zM681 -11q-45 0 -76.5 30t-31.5 74q0 43 31.5 73
t76.5 30q44 0 75.5 -30t31.5 -73q0 -45 -31 -74.5t-76 -29.5z" />
    <glyph glyph-name="guilsinglleft" unicode="&#x2039;" horiz-adv-x="339" 
d="M96 51l-72 190l139 199h186l-143 -201l67 -188h-177z" />
    <glyph glyph-name="guilsinglright" unicode="&#x203a;" horiz-adv-x="339" 
d="M-6 51l143 201l-67 188h177l72 -190l-139 -199h-186z" />
    <glyph glyph-name="Euro" unicode="&#x20ac;" horiz-adv-x="604" 
d="M348 -12q-116 0 -180 56.5t-77 161.5h-66l17 99h47q1 10 3 28.5t4 28.5h-44l17 99h56q43 103 129 160t204 57q108 0 183 -45l-87 -128q-39 28 -107 28q-76 0 -121 -72h164l-17 -99h-184q-5 -25 -7 -57h181l-17 -99h-159q20 -72 99 -72q48 0 116 47l49 -131
q-86 -62 -203 -62z" />
    <glyph glyph-name="trademark" unicode="&#x2122;" horiz-adv-x="819" 
d="M352 366l12 66q13 6 32 7l54 154q-20 2 -29 7l12 66h143l19 -125q6 -41 6 -62h2q4 18 29 62l61 125h146l-11 -66q-15 -6 -31 -7l1 -154q17 -1 30 -7l-11 -66h-153l11 64q10 3 14 4l1 33v12q0 7 0.5 15t1.5 14v5h-2q-9 -26 -22 -56l-43 -91h-94l-10 94q-3 24 -3 53h-2
q0 -1 -2 -7.5t-5 -17.5t-7 -22l-11 -32q4 0 14 -4l-11 -64h-142zM101 366l12 66q9 3 45 9l25 139h-26q-18 -50 -19 -51h-71l24 137h319l-24 -137h-71q-6 22 -1 51h-25l-25 -139q32 -6 43 -9l-12 -66h-194z" />
    <glyph glyph-name="Omega" unicode="&#x2126;" horiz-adv-x="772" 
d="M-16 0l26 143h110q-69 65 -69 166q0 156 115 262.5t272 106.5q130 0 215.5 -70.5t85.5 -183.5q0 -90 -40 -164.5t-98 -116.5h128l-26 -143h-339l24 134q70 22 116.5 94.5t46.5 163.5q0 58 -34.5 96t-92.5 38q-87 0 -139 -72.5t-52 -164.5q0 -51 20 -87t65 -68l-24 -134
h-310z" />
    <glyph glyph-name="increment" unicode="&#x2206;" horiz-adv-x="690" 
d="M-1 0l16 88l313 578h176l118 -578l-16 -88h-607zM236 155h184l-28 196q-2 13 -5 39t-4 34l-2 28v11h-2l-5 -11q-24 -63 -43 -101z" />
    <glyph glyph-name="f.sc" unicode="&#xa730;" horiz-adv-x="512" 
d="M-22 0l20 111q32 10 69 10l53 289q-39 0 -69 10l20 111h469l-28 -175h-123q-1 13 1 58h-94l-19 -103h145l-20 -110h-145l-15 -80q29 0 72 -10l-20 -111h-316z" />
    <glyph glyph-name="zero.osf" unicode="&#xeb00;" horiz-adv-x="578" 
d="M249 -12q-99 0 -161.5 58.5t-62.5 153.5q0 133 88 220t220 87q101 0 161 -58.5t60 -157.5q0 -138 -83.5 -220.5t-221.5 -82.5zM269 116q52 0 79.5 52.5t27.5 123.5q0 85 -60 85q-49 0 -78 -51t-29 -119q0 -42 16 -66.5t44 -24.5z" />
    <glyph glyph-name="one.osf" unicode="&#xeb01;" horiz-adv-x="478" 
d="M24 0l19 111q28 10 118 10l41 230l-113 -36l-27 126l213 52h127l-66 -372q62 0 106 -10l-19 -111h-399z" />
    <glyph glyph-name="two.osf" unicode="&#xeb02;" horiz-adv-x="528" 
d="M-11 0l15 85q62 36 99 59.5t86 58t73.5 64.5t24.5 55q0 49 -63 49q-52 0 -104 -37l-64 111q88 62 212 62q212 0 212 -144q0 -72 -53.5 -123.5t-164.5 -114.5l224 3l-23 -128h-474z" />
    <glyph glyph-name="three.osf" unicode="&#xeb03;" horiz-adv-x="480" 
d="M80 -188q-80 0 -125 14l38 131q29 -11 89 -11q70 0 109.5 25t39.5 72q0 72 -146 66l21 120q66 2 112 25.5t46 64.5q0 52 -69 52q-52 0 -95 -28l-66 110q82 54 211 54q95 0 148 -41t53 -105q0 -39 -15.5 -70t-42 -51t-52 -32t-54.5 -20v-2q57 -9 97 -46.5t40 -98.5
q0 -108 -90.5 -168.5t-248.5 -60.5z" />
    <glyph glyph-name="four.osf" unicode="&#xeb04;" horiz-adv-x="625" 
d="M258 -177l31 177h-309l17 99l401 394h154l-66 -368h99l-22 -125h-98l-31 -177h-176zM187 125h123l35 162h-2z" />
    <glyph glyph-name="five.osf" unicode="&#xeb05;" horiz-adv-x="483" 
d="M79 -188q-69 0 -129 16l41 133q33 -15 91 -15q63 0 102 25t39 81q0 90 -162 90h-14q-8 0 -12 -1l71 352h361l-23 -131h-205l-20 -100q86 -9 142 -60t56 -135q0 -130 -93.5 -192.5t-244.5 -62.5z" />
    <glyph glyph-name="six.osf" unicode="&#xeb06;" horiz-adv-x="564" 
d="M266 -12q-123 0 -181.5 67t-58.5 182q0 195 142.5 318t365.5 123l16 -132q-54 0 -116.5 -14.5t-102.5 -39.5q-61 -37 -95 -113q51 37 124 37q80 0 129.5 -46.5t49.5 -131.5q0 -116 -82.5 -183t-190.5 -67zM275 113q33 0 57.5 30t24.5 79q0 34 -17.5 51t-45.5 17
q-48 0 -83 -28q-4 -17 -4 -51q0 -98 68 -98z" />
    <glyph glyph-name="seven.osf" unicode="&#xeb07;" horiz-adv-x="545" 
d="M195 -191l-137 77l302 476h-167q-13 -60 -23 -84h-132l37 215h494l-15 -88z" />
    <glyph glyph-name="eight.osf" unicode="&#xeb08;" horiz-adv-x="563" 
d="M242 -12q-110 0 -172 43.5t-62 117.5q0 67 40.5 111.5t116.5 76.5q-81 61 -81 141q0 90 75.5 145t186.5 55q97 0 157 -42.5t60 -115.5q0 -56 -40 -98.5t-107 -68.5q108 -64 108 -151q0 -106 -79 -160t-203 -54zM252 108q41 0 63 20t22 52q0 43 -74 87q-76 -40 -76 -100
q0 -27 17 -43t48 -16zM331 559q-32 0 -49 -18t-17 -48q0 -42 51 -75q67 40 67 89q0 23 -14 37.5t-38 14.5z" />
    <glyph glyph-name="nine.osf" unicode="&#xeb09;" horiz-adv-x="564" 
d="M26 -181l-16 130q133 0 222 51q70 40 100 115q-52 -34 -118 -34q-84 0 -134.5 46t-50.5 128q0 64 24.5 114t66 79t89.5 44t100 15q118 0 175.5 -65.5t57.5 -172.5q0 -202 -136.5 -326t-379.5 -124zM277 205q43 0 80 28q4 21 4 52q0 47 -17.5 72t-48.5 25q-34 0 -59 -29
t-25 -74q0 -36 17.5 -55t48.5 -19z" />
    <glyph glyph-name="zero.lf" unicode="&#xeb0a;" horiz-adv-x="613" 
d="M270 -12q-120 0 -178 71.5t-58 185.5q0 62 12.5 122.5t40 117t66 99t96 68.5t125.5 26q122 0 179 -71t57 -188q0 -113 -36.5 -209t-115.5 -159t-188 -63zM287 128q42 0 75 49.5t48 118t15 137.5q0 105 -68 105q-36 0 -63.5 -30t-43 -77.5t-23 -98.5t-7.5 -101
q0 -103 67 -103z" />
    <glyph glyph-name="one.lf" unicode="&#xeb0b;" horiz-adv-x="531" 
d="M35 0l20 122q36 10 121 10l66 379l-101 -27l-37 134l206 48h134l-92 -534q20 0 69.5 -4t61.5 -6l-20 -122h-428z" />
    <glyph glyph-name="two.lf" unicode="&#xeb0c;" horiz-adv-x="555" 
d="M-26 0l16 94q88 67 135 105.5t100 90t76 95.5t23 87q0 32 -18 48t-47 16q-61 0 -127 -55l-75 109q43 38 106 63t136 25q111 0 165.5 -48.5t54.5 -128.5q0 -94 -71 -178.5t-210 -186.5q31 4 75 4h61q13 49 20 69h133l-36 -209h-517z" />
    <glyph glyph-name="three.lf" unicode="&#xeb0d;" horiz-adv-x="496" 
d="M114 -12q-91 0 -130 18l53 138q38 -16 89 -16q135 0 135 88q0 72 -144 65l20 121q156 6 156 86q0 50 -61 50q-52 0 -102 -26l-52 113q85 53 207 53q97 0 147.5 -38t50.5 -101q0 -68 -45 -109.5t-113 -60.5v-2q50 -7 88.5 -43t38.5 -95q0 -111 -83 -176t-255 -65z" />
    <glyph glyph-name="four.lf" unicode="&#xeb0e;" horiz-adv-x="624" 
d="M279 0l22 128h-299l19 112l390 426h159l-70 -405h97l-23 -133h-97l-22 -128h-176zM357 435l-158 -177q15 3 66 3h63l31 174h-2z" />
    <glyph glyph-name="five.lf" unicode="&#xeb0f;" horiz-adv-x="482" 
d="M106 -12q-77 0 -126 18l44 139q32 -17 93 -17q134 0 134 96q0 79 -118 79q-49 0 -78 -9l72 372h355l-23 -140h-198l-18 -89q89 -9 144 -57t55 -132q0 -125 -85 -192.5t-251 -67.5z" />
    <glyph glyph-name="six.lf" unicode="&#xeb10;" horiz-adv-x="579" 
d="M280 -12q-122 0 -181.5 67.5t-59.5 171.5q0 203 142 327t356 124l21 -146q-133 0 -214 -48q-63 -39 -94 -102q54 39 122 39q80 0 131 -46.5t51 -130.5q0 -118 -80 -187t-194 -69zM284 120q39 0 63 28.5t24 75.5q0 32 -16 49t-43 17q-55 0 -91 -33q-1 -7 -1 -20v-19
q0 -98 64 -98z" />
    <glyph glyph-name="seven.lf" unicode="&#xeb11;" horiz-adv-x="511" 
d="M216 -29l-146 62l265 486h-118q-12 -41 -18 -58h-132l36 205h456l-14 -88z" />
    <glyph glyph-name="eight.lf" unicode="&#xeb12;" horiz-adv-x="548" 
d="M246 -12q-112 0 -174.5 43t-62.5 117q0 66 38 110.5t114 78.5q-78 57 -78 137q0 94 74.5 149t179.5 55q102 0 160.5 -40.5t58.5 -117.5q0 -55 -34 -94t-104 -73q98 -58 98 -149q0 -97 -70.5 -156.5t-199.5 -59.5zM253 115q36 0 56.5 19t20.5 49q0 42 -67 82
q-74 -39 -74 -95q0 -25 16 -40t48 -15zM326 552q-28 0 -44 -18t-16 -45q0 -38 46 -69q64 39 64 85q0 47 -50 47z" />
    <glyph glyph-name="nine.lf" unicode="&#xeb13;" horiz-adv-x="576" 
d="M81 -18l-29 146q91 0 170 32q93 37 137 119q-53 -34 -116 -34q-81 0 -133.5 48t-52.5 132q0 81 43 140.5t105 86t132 26.5q120 0 179 -67t59 -173q0 -96 -32 -178.5t-93 -144.5t-156 -97.5t-213 -35.5zM307 376q47 0 85 31q1 6 1 18v21q0 100 -66 100q-38 0 -61.5 -28.5
t-23.5 -73.5q0 -33 17.5 -50.5t47.5 -17.5z" />
    <glyph glyph-name="zero.tosf" unicode="&#xeb14;" 
d="M246 -12q-99 0 -159.5 58t-60.5 154q0 134 85.5 220.5t218.5 86.5q101 0 163 -58.5t62 -157.5q0 -137 -85.5 -220t-223.5 -83zM264 117q52 0 80.5 55t28.5 123q0 82 -59 82q-49 0 -78.5 -53.5t-29.5 -119.5q0 -87 58 -87z" />
    <glyph glyph-name="one.tosf" unicode="&#xeb15;" 
d="M46 0l22 121q28 9 136 9l37 208l-116 -28l-29 136l220 47h127l-64 -363q83 0 134 -9l-22 -121h-445z" />
    <glyph glyph-name="two.tosf" unicode="&#xeb16;" 
d="M5 0l15 85q170 96 224 136q82 62 82 103q0 46 -58 46q-70 0 -135 -45l-70 109q103 73 249 73q207 0 207 -144q0 -64 -61 -118.5t-175 -118.5q37 4 100 4h143l-23 -130h-498z" />
    <glyph glyph-name="three.tosf" unicode="&#xeb17;" 
d="M145 -188q-91 0 -161 22l43 132q57 -20 120 -20q67 0 105.5 25t38.5 72q0 36 -49.5 53.5t-118.5 15.5l21 118q71 3 125.5 26t54.5 66q0 47 -65 47q-67 0 -130 -44l-72 106q95 76 250 76q95 0 146.5 -41t51.5 -105q0 -127 -163 -173v-2q57 -9 97 -46.5t40 -98.5
q0 -108 -88.5 -168.5t-245.5 -60.5z" />
    <glyph glyph-name="four.tosf" unicode="&#xeb18;" 
d="M235 -177l31 177h-297l19 112l387 381h154l-65 -368h79l-22 -125h-79l-31 -177h-176zM164 125h124l34 162h-2z" />
    <glyph glyph-name="five.tosf" unicode="&#xeb19;" 
d="M125 -188q-89 0 -138 18l46 135q36 -17 96 -17q63 0 105.5 25.5t42.5 78.5q0 27 -18 46t-48 28t-57.5 12.5t-57.5 3.5h-15q-8 0 -14 -1l71 352h386l-23 -131h-230l-20 -99q97 -9 158.5 -60t61.5 -136q0 -65 -27.5 -115t-76 -80t-109.5 -45t-133 -15z" />
    <glyph glyph-name="six.tosf" unicode="&#xeb1a;" 
d="M275 -12q-123 0 -180.5 66.5t-57.5 182.5q0 195 142 318t364 123l16 -132q-54 0 -116.5 -14.5t-102.5 -39.5q-61 -37 -95 -113q51 37 124 37q80 0 128.5 -46.5t48.5 -131.5q0 -116 -81.5 -183t-189.5 -67zM284 113q33 0 56.5 29.5t23.5 79.5q0 68 -61 68q-48 0 -83 -28
q-4 -17 -4 -51q0 -98 68 -98z" />
    <glyph glyph-name="seven.tosf" unicode="&#xeb1b;" 
d="M137 -191l-131 77l348 476h-151q-13 -60 -23 -84h-132l38 215h502l-15 -88z" />
    <glyph glyph-name="eight.tosf" unicode="&#xeb1c;" 
d="M259 -12q-112 0 -178.5 44t-66.5 116q0 65 41 109.5t119 79.5q-86 63 -86 137q0 94 78 149t184 55q102 0 164.5 -41t62.5 -117q0 -54 -37 -93t-109 -74q106 -62 106 -149q0 -96 -74 -156t-204 -60zM265 109q36 0 61 22t25 52q0 22 -18 40.5t-57 41.5q-82 -45 -82 -95
q0 -25 19.5 -43t51.5 -18zM340 558q-27 0 -48 -21t-21 -48q0 -32 54 -69q72 44 72 85q0 22 -16 37.5t-41 15.5z" />
    <glyph glyph-name="nine.tosf" unicode="&#xeb1d;" 
d="M26 -181l-16 130q133 0 222 51q70 40 100 115q-52 -34 -118 -34q-84 0 -134.5 46t-50.5 128q0 64 24.5 114t66 79t89.5 44t100 15q118 0 175.5 -65.5t57.5 -172.5q0 -202 -136.5 -326t-379.5 -124zM277 205q43 0 80 28q4 21 4 52q0 47 -17.5 72t-48.5 25q-34 0 -59 -29
t-25 -74q0 -36 17.5 -55t48.5 -19z" />
    <glyph glyph-name="numbersign.lf" unicode="&#xeb1e;" horiz-adv-x="566" 
d="M35 0l52 161h-91l45 132h88l25 78h-87l44 132h85l53 163h116l-52 -163h79l52 163h116l-52 -163h82l-45 -132h-79l-25 -78h80l-45 -132h-77l-52 -161h-116l51 161h-79l-52 -161h-116zM239 288h89l28 88h-88z" />
    <glyph glyph-name="dollar.lf" unicode="&#xeb1f;" horiz-adv-x="564" 
d="M134 -124l21 117q-101 11 -149 47l29 168h134q-2 -36 -6 -67q47 -14 89 -14q31 0 54.5 15t23.5 46q0 48 -70 75q-4 2 -25 10t-28 11.5t-26 12.5t-27.5 16.5t-23 19.5t-22 25.5t-15.5 30.5t-11.5 38t-3.5 46q0 82 53 133.5t142 66.5l21 117h137l-21 -116q108 -11 159 -44
l-31 -172h-134q2 36 8 77q-37 7 -66 7q-86 0 -86 -53q0 -26 18 -42t65 -35q77 -34 103 -54q71 -53 71 -149q0 -93 -59 -149.5t-166 -68.5l-21 -115h-137z" />
    <glyph glyph-name="percent.lf" unicode="&#xeb20;" horiz-adv-x="910" 
d="M251 428q28 0 43 30.5t15 69.5q0 44 -33 44q-28 0 -43 -29t-15 -67q0 -48 33 -48zM241 322q-82 0 -125.5 43t-43.5 111q0 84 59.5 143t154.5 59q81 0 125 -40t44 -108q0 -85 -59.5 -146.5t-154.5 -61.5zM152 0l498 666h135l-498 -666h-135zM664 94q28 0 43 30.5t15 69.5
q0 44 -33 44q-28 0 -43 -29t-15 -67q0 -48 33 -48zM654 -12q-82 0 -125.5 43t-43.5 111q0 84 59.5 143t154.5 59q81 0 125 -40t44 -108q0 -85 -59.5 -146.5t-154.5 -61.5z" />
    <glyph glyph-name="numbersign.osf" unicode="&#xeb21;" horiz-adv-x="514" 
d="M65 74l28 110h-81l34 125h79l16 62h-79l32 125h79l30 114h115l-29 -114h61l30 114h116l-29 -114h68l-32 -125h-68l-16 -62h70l-35 -125h-67l-28 -110h-115l27 110h-62l-28 -110h-116zM235 304h71l17 72h-68z" />
    <glyph glyph-name="dollar.osf" unicode="&#xeb22;" horiz-adv-x="492" 
d="M114 -132l22 125q-99 13 -132 36l24 134h122q0 -25 -3 -42q30 -13 60 -13t47 9t17 23q0 8 -4.5 14.5t-17 12.5t-21 9t-28.5 10q-32 10 -53.5 19.5t-47 27t-39 45.5t-13.5 65q0 70 48 111.5t136 50.5l19 107h125l-20 -110q80 -11 121 -35l-23 -132h-122q0 6 2 44
q-14 7 -42 7q-63 0 -63 -30q0 -13 13.5 -21t44.5 -19q83 -29 114 -54q53 -41 53 -109q0 -72 -52.5 -113.5t-139.5 -50.5l-22 -121h-125z" />
    <glyph glyph-name="percent.osf" unicode="&#xeb23;" horiz-adv-x="964" 
d="M194 167q-82 0 -126 40t-44 103q0 82 57.5 138.5t157.5 56.5q82 0 126.5 -39.5t44.5 -102.5q0 -82 -59 -139t-157 -57zM208 264q26 0 39 26.5t13 65.5q0 52 -33 52q-26 0 -39.5 -26.5t-13.5 -64.5q0 -53 34 -53zM718 -12q-82 0 -126 40t-44 103q0 82 57.5 138.5
t157.5 56.5q82 0 126.5 -39.5t44.5 -102.5q0 -82 -59 -139t-157 -57zM732 85q26 0 39 26.5t13 65.5q0 52 -33 52q-26 0 -39.5 -26.5t-13.5 -64.5q0 -53 34 -53zM217 0l378 494h145l-378 -494h-145z" />
    <glyph glyph-name="fi" unicode="&#xfb01;" horiz-adv-x="594" 
d="M-53 -229q-44 0 -81 13l43 127q19 -8 43 -8q60 0 75 82l69 379h-75l23 129h76l1 5q24 123 88.5 177t181.5 54q98 0 160 -36l-70 -122q-48 25 -94 25q-35 0 -58 -18t-32 -69l-3 -16h280l-17 -74l-54 -298q29 0 69 -10l-20 -111h-246l66 364h-102l-66 -363
q-22 -122 -75 -176t-182 -54z" />
    <glyph glyph-name="fl" unicode="&#xfb02;" horiz-adv-x="615" 
d="M-53 -229q-44 0 -81 13l43 127q19 -8 43 -8q60 0 75 82l69 379h-75l23 129h76l1 5q24 122 89.5 176.5t183.5 54.5q58 0 118 -12q105 3 124 3l-19 -80l-93 -519q29 0 69 -10l-20 -111h-245l106 590q-22 6 -47 6q-35 0 -58 -18t-32 -69l-3 -16h81l-24 -129h-81l-66 -363
q-22 -122 -75 -176t-182 -54z" />
    <glyph glyph-name="uniFEFF" unicode="&#xfeff;" horiz-adv-x="0" 
 />
    <glyph glyph-name="NULL" horiz-adv-x="0" 
 />
    <glyph glyph-name="CR" horiz-adv-x="220" 
 />
    <glyph glyph-name="uni2007.osf" horiz-adv-x="578" 
 />
    <glyph glyph-name="uni030C.alt001" horiz-adv-x="1" 
d="M-246 538l50 182h167l-96 -182h-121z" />
    <glyph glyph-name="slash.case" horiz-adv-x="472" 
d="M-68 -109l480 881h160l-480 -881h-160z" />
    <glyph glyph-name="f_f" horiz-adv-x="673" 
d="M-53 -229q-46 0 -81 13l43 127q19 -8 43 -8q58 0 74 78l70 383h-76l23 129h77l5 28q18 106 71.5 154.5t156.5 48.5q91 0 152 -37q53 42 149 42q84 0 135 -32l-67 -121q-25 19 -58 19q-51 0 -61 -54l-9 -48h103l-22 -129h-105l-65 -358q-11 -60 -26.5 -99.5t-43.5 -70.5
t-73.5 -45.5t-111.5 -14.5q-40 0 -72 10l43 127q18 -5 34 -5q56 0 72 78l69 378h-126l-66 -363q-22 -122 -75 -176t-182 -54zM294 493h126l6 33q5 28 10 43q-27 21 -74 21q-50 0 -60 -54z" />
    <glyph glyph-name="f_f_i" horiz-adv-x="894" 
d="M-53 -229q-44 0 -81 13l43 127q19 -8 43 -8q58 0 74 78l70 383h-76l23 129h77l6 31q20 107 74 153.5t154 46.5q106 0 166 -42q65 47 174 47q78 0 157 -34l-70 -123q-41 25 -92 25q-35 0 -58.5 -18t-33.5 -70l-3 -16h280l-17 -74l-54 -298q29 0 69 -10l-20 -111h-246
l66 364h-102l-65 -359q-11 -60 -26.5 -99.5t-43.5 -70.5t-73.5 -45.5t-111.5 -14.5q-42 0 -72 10l43 128q12 -5 32 -5q59 0 74 77l69 379h-126l-66 -363q-22 -122 -75 -176t-182 -54zM294 493h126l1 5q8 41 21 74q-32 18 -74 18q-55 0 -66 -56z" />
    <glyph glyph-name="f_f_l" horiz-adv-x="914" 
d="M-53 -229q-44 0 -81 13l43 127q19 -8 43 -8q58 0 74 78l70 383h-76l23 129h77l6 31q20 107 74 153.5t154 46.5q106 0 166 -42q65 47 174 47q58 0 118 -12l124 3l-19 -80l-93 -519q29 0 69 -10l-20 -111h-245l106 590q-22 6 -47 6q-35 0 -58 -18t-32 -69l-3 -16h81
l-24 -129h-81l-65 -358q-11 -60 -26.5 -99.5t-43.5 -70.5t-73.5 -45.5t-111.5 -14.5q-40 0 -72 10l43 127q18 -5 34 -5q56 0 72 78l69 378h-126l-66 -363q-22 -122 -75 -176t-182 -54zM294 493h126l1 5q8 41 21 74q-32 18 -74 18q-55 0 -66 -56z" />
    <glyph glyph-name="f_i" horiz-adv-x="594" 
d="M-53 -229q-44 0 -81 13l43 127q19 -8 43 -8q60 0 75 82l69 379h-75l23 129h76l1 5q24 123 88.5 177t181.5 54q98 0 160 -36l-70 -122q-48 25 -94 25q-35 0 -58 -18t-32 -69l-3 -16h280l-17 -74l-54 -298q29 0 69 -10l-20 -111h-246l66 364h-102l-66 -363
q-22 -122 -75 -176t-182 -54z" />
    <glyph glyph-name="f_l" horiz-adv-x="615" 
d="M-53 -229q-44 0 -81 13l43 127q19 -8 43 -8q60 0 75 82l69 379h-75l23 129h76l1 5q24 122 89.5 176.5t183.5 54.5q58 0 118 -12q105 3 124 3l-19 -80l-93 -519q29 0 69 -10l-20 -111h-245l106 590q-22 6 -47 6q-35 0 -58 -18t-32 -69l-3 -16h81l-24 -129h-81l-66 -363
q-22 -122 -75 -176t-182 -54z" />
    <glyph glyph-name="uni2007.tosf" 
 />
    </font>
</defs>
</svg>
