<?xml version="1.0" standalone="no"?>
<!DOCTYPE svg PUBLIC "-//W3C//DTD SVG 1.1//EN" "http://www.w3.org/Graphics/SVG/1.1/DTD/svg11.dtd" >
<svg>
<metadata>
Created by FontForge 20120731 at Fri Jan 15 01:18:17 2016
 By ,,,
Copyright (c) 2013 by FontFont. All rights reserved.
</metadata>
<defs>
<font id="FFKievitSlab-Bold" horiz-adv-x="556" >
  <font-face 
    font-family="FF Kievit Slab"
    font-weight="700"
    font-stretch="normal"
    units-per-em="1000"
    panose-1="2 0 8 3 2 0 0 2 0 4"
    ascent="760"
    descent="-240"
    x-height="487"
    cap-height="666"
    bbox="-326 -250 974 934"
    underline-thickness="60"
    underline-position="-75"
    unicode-range="U+0020-FEFF"
  />
<missing-glyph horiz-adv-x="613" 
d="M25 0v666h563v-666h-563zM128 103h357v460h-357v-460z" />
    <glyph glyph-name=".notdef" horiz-adv-x="613" 
d="M25 0v666h563v-666h-563zM128 103h357v460h-357v-460z" />
    <glyph glyph-name=".null" horiz-adv-x="0" 
 />
    <glyph glyph-name="nonmarkingreturn" horiz-adv-x="333" 
 />
    <glyph glyph-name="space" unicode=" " horiz-adv-x="226" 
 />
    <glyph glyph-name="exclam" unicode="!" horiz-adv-x="303" 
d="M152 -10q-36 0 -60.5 24.5t-24.5 58.5q0 33 24.5 57t60.5 24t60 -24t24 -57q0 -34 -24 -58.5t-60 -24.5zM98 225l-24 441h156l-25 -441h-107z" />
    <glyph glyph-name="quotedbl" unicode="&#x22;" horiz-adv-x="392" 
d="M60 422l-22 244h135l-22 -244h-91zM240 422l-22 244h135l-22 -244h-91z" />
    <glyph glyph-name="numbersign" unicode="#" horiz-adv-x="568" 
d="M97 0l28 186h-109l17 99h106l16 103h-107l16 98h106l28 180h90l-27 -180h98l28 180h91l-27 -180h101l-17 -98h-99l-16 -103h101l-16 -99h-100l-28 -186h-91l28 186h-99l-28 -186h-90zM244 391l-16 -109h103l16 109h-103z" />
    <glyph glyph-name="dollar" unicode="$" horiz-adv-x="567" 
d="M230 -121v110q-132 11 -175 48v163h102q5 -28 7 -91q51 -15 102 -15t80.5 23.5t29.5 58.5q0 40 -33 64t-101 48q-91 32 -134.5 74.5t-43.5 129.5q0 72 47 120t125 61v114h100v-111q109 -10 156 -44v-162h-102q-7 37 -7 90q-44 13 -91 13q-44 0 -69.5 -20t-25.5 -53
q0 -38 26.5 -58t90.5 -43q47 -18 76.5 -33t60.5 -39t46 -58.5t15 -80.5q0 -78 -48 -129.5t-133 -65.5v-114h-101z" />
    <glyph glyph-name="percent" unicode="%" horiz-adv-x="888" 
d="M215 331q-88 0 -136 49.5t-48 122.5q0 71 48.5 122.5t135.5 51.5q88 0 136.5 -49.5t48.5 -120.5q0 -73 -49 -124.5t-136 -51.5zM216 411q36 0 53.5 26.5t17.5 65.5t-18.5 66.5t-53.5 27.5t-53 -25.5t-18 -64.5q0 -40 19 -68t53 -28zM672 -10q-88 0 -136 50t-48 123
q0 71 48.5 122.5t135.5 51.5q88 0 136 -49.5t48 -121.5q0 -73 -48.5 -124.5t-135.5 -51.5zM673 70q36 0 53.5 26.5t17.5 66.5q0 38 -19 65.5t-53 27.5q-35 0 -53 -25.5t-18 -64.5q0 -40 19 -68t53 -28zM189 0l401 666h106l-401 -666h-106z" />
    <glyph glyph-name="ampersand" unicode="&#x26;" horiz-adv-x="772" 
d="M287 -12q-120 0 -185.5 50.5t-65.5 134.5q0 115 154 185q-85 78 -85 151q0 76 58 122.5t153 46.5q89 0 138.5 -38.5t49.5 -105.5q0 -55 -36.5 -96t-104.5 -77l167 -148q32 44 44 95q-43 2 -67 9v84h246v-85q-23 -6 -72 -8q-19 -89 -74 -159l64 -57q59 -2 81 -8v-84h-154
l-76 67q-100 -79 -235 -79zM309 592q-33 0 -55 -21.5t-22 -54.5q0 -25 13.5 -45t46.5 -50l8 -7q82 49 82 110q0 30 -20.5 49t-52.5 19zM307 87q79 0 140 44l-193 171q-76 -45 -76 -111q0 -48 34 -76t95 -28z" />
    <glyph glyph-name="quotesingle" unicode="'" horiz-adv-x="211" 
d="M60 422l-22 244h135l-22 -244h-91z" />
    <glyph glyph-name="parenleft" unicode="(" horiz-adv-x="347" 
d="M346 -168h-126q-75 79 -127 193t-52 257q0 139 53 253.5t126 184.5h126q-64 -69 -113 -180.5t-49 -254.5q0 -262 162 -453z" />
    <glyph glyph-name="parenright" unicode=")" horiz-adv-x="349" 
d="M129 -168h-128q164 185 164 442q0 255 -164 446h128q179 -192 179 -442q0 -143 -53 -257t-126 -189z" />
    <glyph glyph-name="asterisk" unicode="*" horiz-adv-x="493" 
d="M173 285l-88 61l87 103l-129 37l34 95l121 -47l-7 132h110l-7 -132l121 47l35 -95l-130 -37l87 -103l-87 -61l-74 114z" />
    <glyph glyph-name="plus" unicode="+" horiz-adv-x="560" 
d="M224 26v186h-183v102h183v180h114v-180h181v-102h-181v-186h-114z" />
    <glyph glyph-name="comma" unicode="," horiz-adv-x="286" 
d="M89 -165l-51 46q21 22 29 31.5t17.5 28t9.5 35.5q0 20 -18 49t-18 55q0 35 23 57t59 22q39 0 63 -26.5t24 -69.5q0 -58 -39.5 -118t-98.5 -110z" />
    <glyph glyph-name="hyphen" unicode="-" horiz-adv-x="330" 
d="M51 228v108h228v-108h-228z" />
    <glyph glyph-name="period" unicode="." horiz-adv-x="286" 
d="M143 -10q-37 0 -62.5 25t-25.5 61t25.5 60.5t62.5 24.5t63 -24.5t26 -60.5t-26 -61t-63 -25z" />
    <glyph glyph-name="slash" unicode="/" horiz-adv-x="437" 
d="M37 0l241 666h116l-241 -666h-116z" />
    <glyph glyph-name="zero" unicode="0" 
d="M278 -12q-84 0 -140.5 51.5t-79.5 126.5t-23 167q0 68 13 127.5t40 109.5t75.5 79t113.5 29q63 0 111.5 -29t76.5 -79t42 -110t14 -127q0 -92 -23.5 -167t-80.5 -126.5t-139 -51.5zM277 94q101 0 101 239t-100 239q-101 0 -101 -239t100 -239z" />
    <glyph glyph-name="one" unicode="1" 
d="M77 0v92q49 9 153 9v450l-141 -45l-28 105l199 55h104v-565q89 0 148 -9v-92h-435z" />
    <glyph glyph-name="two" unicode="2" 
d="M32 0v72q53 47 83 74t78 76t73.5 85t46 81t20.5 84q0 48 -25.5 73t-66.5 25q-73 0 -139 -62l-63 84q88 86 217 86q105 0 163 -52.5t58 -137.5q0 -50 -20.5 -100.5t-61.5 -102.5t-78 -90t-95 -91v-2q24 5 73 5h110q2 52 9 75h100v-182h-482z" />
    <glyph glyph-name="three" unicode="3" 
d="M194 -12q-85 0 -144 19l23 105q49 -17 119 -17q68 0 108.5 27.5t40.5 77.5q0 103 -198 103v92q78 2 129 30.5t51 74.5q0 34 -26.5 52t-70.5 18q-37 0 -73 -14.5t-58 -34.5l-53 86q31 28 86 49.5t124 21.5q98 0 154 -41t56 -111q0 -59 -43 -100t-102 -57v-2
q65 -7 116 -51.5t51 -114.5q0 -97 -80.5 -155t-209.5 -58z" />
    <glyph glyph-name="four" unicode="4" 
d="M315 0v130h-302v90l310 446h125v-432h82v-104h-82v-130h-133zM316 492l-169 -260q30 2 69 2h102v258h-2z" />
    <glyph glyph-name="five" unicode="5" 
d="M182 -12q-80 0 -124 13l21 107q31 -13 103 -13q70 0 115.5 30t45.5 89q0 112 -177 112q-61 0 -81 -5l20 345h358v-107h-238l-8 -130q119 -2 193.5 -54t74.5 -153q0 -111 -82.5 -172.5t-220.5 -61.5z" />
    <glyph glyph-name="six" unicode="6" 
d="M284 -12q-122 0 -184 84.5t-62 208.5q0 181 109.5 289t301.5 108l28 -108q-253 0 -292 -198q48 42 126 42q89 0 147.5 -56.5t58.5 -150.5q0 -98 -66 -158.5t-167 -60.5zM286 90q43 0 66.5 31t23.5 79q0 56 -25 84.5t-70 28.5q-60 0 -105 -40v-7q0 -86 30 -131t80 -45z
" />
    <glyph glyph-name="seven" unicode="7" 
d="M206 -26l-117 41l261 540h-199q0 -51 -7 -79h-103v190h462v-73z" />
    <glyph glyph-name="eight" unicode="8" 
d="M277 -12q-113 0 -176 48t-63 130q0 102 136 176q-55 32 -85.5 69t-30.5 91q0 77 64 126.5t157 49.5q100 0 160.5 -44t60.5 -123q0 -87 -126 -156q142 -72 142 -183q0 -85 -66.5 -134.5t-172.5 -49.5zM277 88q45 0 72.5 23.5t27.5 59.5t-28.5 61.5t-83.5 56.5
q-30 -21 -45 -32.5t-30.5 -35t-15.5 -50.5q0 -38 28 -60.5t75 -22.5zM282 406q84 53 84 99q0 33 -23 53.5t-61 20.5q-39 0 -63.5 -20.5t-24.5 -50.5q0 -52 88 -102z" />
    <glyph glyph-name="nine" unicode="9" 
d="M113 -18l-28 108q111 0 187 50t97 155q-51 -43 -125 -43q-89 0 -147 56t-58 151q0 98 66 158.5t165 60.5q124 0 184.5 -83t60.5 -210q0 -186 -103 -294.5t-299 -108.5zM274 353q58 0 103 40v7q0 85 -28.5 130.5t-78.5 45.5q-43 0 -66 -31t-23 -79q0 -113 93 -113z" />
    <glyph glyph-name="colon" unicode=":" horiz-adv-x="286" 
d="M143 -10q-37 0 -62.5 25t-25.5 62q0 36 25.5 60.5t62.5 24.5t63 -24.5t26 -60.5q0 -37 -26 -62t-63 -25zM143 322q-37 0 -62.5 25t-25.5 62q0 36 25.5 60.5t62.5 24.5t63 -24.5t26 -60.5q0 -37 -26 -62t-63 -25z" />
    <glyph glyph-name="semicolon" unicode=";" horiz-adv-x="286" 
d="M143 322q-37 0 -62.5 25t-25.5 62q0 36 25.5 60.5t62.5 24.5t63 -24.5t26 -60.5q0 -37 -26 -62t-63 -25zM89 -165l-51 46q21 22 29 31.5t17.5 28t9.5 35.5q0 20 -18 49t-18 55q0 35 23 57t59 22q39 0 63 -26.5t24 -69.5q0 -58 -39.5 -118t-98.5 -110z" />
    <glyph glyph-name="less" unicode="&#x3c;" horiz-adv-x="391" 
d="M288 20l-257 228l255 232l69 -70l-173 -157l177 -156z" />
    <glyph glyph-name="equal" unicode="=" horiz-adv-x="478" 
d="M39 119v102h400v-102h-400zM39 306v102h400v-102h-400z" />
    <glyph glyph-name="greater" unicode="&#x3e;" horiz-adv-x="391" 
d="M105 20l-69 71l173 157l-177 156l71 76l258 -227z" />
    <glyph glyph-name="question" unicode="?" horiz-adv-x="416" 
d="M181 678q102 0 155.5 -46.5t53.5 -125.5q0 -89 -88 -153q-7 -5 -22.5 -14.5t-22.5 -14t-18 -13.5t-15.5 -15.5t-8.5 -16.5t-4 -20q0 -14 6 -36h-96q-15 32 -15 63q0 41 17.5 65.5t57.5 50.5q37 24 54.5 44.5t17.5 50.5q0 69 -93 69q-49 0 -89 -21l-46 98q64 35 156 35z
M167 -10q-36 0 -60.5 24.5t-24.5 58.5q0 33 24.5 57t60.5 24t60 -23.5t24 -57.5t-24 -58.5t-60 -24.5z" />
    <glyph glyph-name="at" unicode="@" horiz-adv-x="822" 
d="M397 -98q-162 0 -256.5 94t-94.5 247q0 99 47.5 187.5t136 145t196.5 56.5q167 0 259.5 -89t92.5 -220q0 -106 -56.5 -174.5t-146.5 -68.5q-100 0 -108 86h-2q-48 -84 -133 -84q-47 0 -74.5 34t-27.5 85q0 112 58.5 189.5t155.5 77.5q70 0 149 -27l-29 -167
q-9 -50 -9 -65q0 -21 10 -35t27 -14q40 0 69 43t29 110q0 113 -71 176t-194 63q-113 0 -196.5 -89t-83.5 -219q0 -123 67.5 -192t195.5 -69q84 0 146 29l32 -72q-87 -38 -189 -38zM373 172q72 0 108 181l6 28q-18 8 -47 8q-45 0 -72.5 -49.5t-27.5 -118.5q0 -49 33 -49z" />
    <glyph glyph-name="A" unicode="A" horiz-adv-x="721" 
d="M10 0v84q26 6 59 8l232 574h124l225 -574q38 -2 61 -8v-84h-266v84q24 7 56 8l-30 85h-244l-32 -85q33 -1 57 -8v-84h-242zM260 267h177l-47 132q-21 58 -39 122h-2q-16 -55 -41 -122z" />
    <glyph glyph-name="B" unicode="B" horiz-adv-x="630" 
d="M26 0v84q36 9 79 9v480q-43 0 -79 9v84h310q103 0 166.5 -38.5t63.5 -126.5q0 -121 -123 -153v-2q65 -11 107.5 -51.5t42.5 -108.5q0 -96 -69.5 -141t-190.5 -45h-307zM245 295v-194h82q64 0 93.5 22.5t29.5 73.5q0 98 -118 98h-87zM245 566v-178h73q109 0 109 91
q0 87 -106 87h-76z" />
    <glyph glyph-name="C" unicode="C" horiz-adv-x="669" 
d="M388 -12q-166 0 -260 94.5t-94 243.5q0 152 99.5 252t261.5 100q128 0 209 -51v-173h-103q-8 40 -10 104q-41 16 -97 16q-95 0 -153 -66.5t-58 -172.5q0 -111 58 -176.5t157 -65.5q55 0 107 20q0 73 10 115h102v-173q-29 -27 -94.5 -47t-134.5 -20z" />
    <glyph glyph-name="D" unicode="D" horiz-adv-x="721" 
d="M26 0v84q36 9 79 9v480q-43 0 -79 9v84h281q191 0 286 -85.5t95 -236.5q0 -153 -98 -248.5t-288 -95.5h-276zM247 562v-458h66q112 0 169 61t57 174q0 114 -56 168.5t-175 54.5h-61z" />
    <glyph glyph-name="E" unicode="E" horiz-adv-x="603" 
d="M26 0v84q36 9 79 9v480q-43 0 -79 9v84h532v-188h-102q-3 11 -10 84h-201v-176h92q6 52 9 64h86v-224h-86q-3 10 -9 63h-92v-185h209q0 30 9 84h102v-188h-539z" />
    <glyph glyph-name="F" unicode="F" horiz-adv-x="574" 
d="M26 0v84q36 9 79 9v480q-43 0 -79 9v84h524v-197h-103q-9 23 -9 93h-191v-194h95q6 53 9 63h85v-223h-85q-3 10 -9 63h-95v-178q41 0 89 -9v-84h-310z" />
    <glyph glyph-name="G" unicode="G" horiz-adv-x="738" 
d="M388 -12q-169 0 -261.5 95.5t-92.5 241.5q0 154 101 253.5t267 99.5q147 0 229 -57v-170h-103q-9 27 -9 98q-54 25 -119 25q-101 0 -159 -67t-58 -172q0 -109 57.5 -176t157.5 -67q76 0 114 25v114q-50 2 -85 10v84h289v-83q-31 -10 -66 -11v-180q-96 -63 -262 -63z" />
    <glyph glyph-name="H" unicode="H" horiz-adv-x="797" 
d="M26 0v84q36 9 79 9v480q-43 0 -79 9v84h294v-84q-21 -9 -73 -9v-176h304v176q-44 0 -73 9v84h292v-84q-38 -9 -78 -9v-480q31 0 79 -9v-84h-293v84q34 9 73 9v201h-304v-201q28 0 73 -9v-84h-294z" />
    <glyph glyph-name="I" unicode="I" horiz-adv-x="353" 
d="M26 0v84q36 9 79 9v480q-43 0 -79 9v84h299v-84q-36 -9 -78 -9v-480q44 0 80 -9v-84h-301z" />
    <glyph glyph-name="J" unicode="J" horiz-adv-x="329" 
d="M45 -204q-58 0 -98 16l20 104q24 -9 47 -9q42 0 60.5 23.5t18.5 78.5v564q-42 0 -76 9v84h294v-84q-36 -9 -76 -9v-575q0 -98 -50.5 -150t-139.5 -52z" />
    <glyph glyph-name="K" unicode="K" horiz-adv-x="694" 
d="M402 0v84q13 4 51 9l-207 242v-241q41 -2 66 -10v-84h-286v84q36 9 79 9v480q-43 0 -79 9v84h285v-84q-23 -8 -65 -10v-230l198 232q-47 7 -51 8v84h273v-84q-19 -7 -74 -9l-197 -217l229 -263q34 -1 64 -9v-84h-286z" />
    <glyph glyph-name="L" unicode="L" horiz-adv-x="555" 
d="M26 0v84q36 9 79 9v480q-43 0 -79 9v84h300v-84q-36 -9 -79 -9v-467h173q0 74 9 101h101v-207h-504z" />
    <glyph glyph-name="M" unicode="M" horiz-adv-x="957" 
d="M14 0v84q26 9 64 10l78 480q-40 0 -74 9v83h239l121 -393q17 -56 36 -131h2q10 49 36 131l122 393h237v-83q-29 -9 -74 -9l78 -481q34 -1 64 -9v-84h-270v84q6 2 65 9l-36 257q-6 36 -17 127h-2q-11 -57 -35 -135l-111 -342h-142l-118 362q-7 23 -30 117h-2
q-9 -88 -13 -112l-36 -274q39 -2 66 -9v-84h-248z" />
    <glyph glyph-name="N" unicode="N" horiz-adv-x="786" 
d="M26 0v84q36 9 79 9v480q-43 0 -79 9v84h212l256 -350q58 -80 76 -114h2q-4 20 -4 111v260q-42 0 -76 9v84h272v-84q-36 -9 -76 -9v-573h-120l-275 374q-60 81 -70 106h-2q3 -39 3 -95v-292q41 0 79 -9v-84h-277z" />
    <glyph glyph-name="O" unicode="O" horiz-adv-x="754" 
d="M380 -12q-162 0 -254 97t-92 241q0 146 91.5 249t251.5 103q162 0 252.5 -95.5t90.5 -240.5q0 -70 -22 -133t-63.5 -112.5t-107.5 -79t-147 -29.5zM377 92q95 0 145 68t50 172q0 105 -49 173.5t-143 68.5q-95 0 -146 -67.5t-51 -170.5q0 -105 50 -174.5t144 -69.5z" />
    <glyph glyph-name="P" unicode="P" horiz-adv-x="601" 
d="M26 0v84q36 9 79 9v480q-43 0 -79 9v84h296q115 0 185.5 -52t70.5 -154q0 -111 -72.5 -167t-199.5 -56h-59v-144q45 0 83 -9v-84h-304zM247 565v-226h58q66 0 97 28.5t31 86.5q0 111 -124 111h-62z" />
    <glyph glyph-name="Q" unicode="Q" horiz-adv-x="753" 
d="M599 -175q-82 0 -148.5 37t-139.5 133q-130 17 -203.5 110t-73.5 221q0 146 91.5 249t251.5 103q162 0 252.5 -95.5t90.5 -240.5q0 -124 -65.5 -219.5t-184.5 -124.5q28 -38 58.5 -54.5t75.5 -16.5q48 0 82 27l44 -90q-51 -39 -131 -39zM377 92q95 0 145 68t50 172
q0 105 -49 173.5t-143 68.5q-95 0 -146 -67.5t-51 -170.5q0 -105 50 -174.5t144 -69.5z" />
    <glyph glyph-name="R" unicode="R" horiz-adv-x="662" 
d="M26 0v84q36 9 79 9v480q-43 0 -79 9v84h308q120 0 183.5 -47.5t63.5 -140.5q0 -74 -43.5 -119.5t-110.5 -55.5v-2q34 -19 82 -91l47 -71q19 -29 39 -42t53 -13h9v-84q-30 -10 -73 -10q-55 0 -85.5 16.5t-56.5 60.5l-74 123q-32 54 -53 70t-52 16h-16v-183q28 -1 68 -9
v-84h-289zM247 369h80q109 0 109 99q0 50 -27.5 74t-87.5 24h-74v-197z" />
    <glyph glyph-name="S" unicode="S" horiz-adv-x="537" 
d="M258 -12q-72 0 -133 15t-84 34v163h103q5 -28 7 -93q47 -14 102 -14q52 0 81.5 24t29.5 59q0 41 -33 63.5t-103 47.5q-89 30 -134.5 74.5t-45.5 130.5q0 85 63.5 135.5t164.5 50.5q71 0 125 -14t78 -32v-163h-102q-7 37 -7 92q-47 14 -93 14q-44 0 -70 -20.5t-26 -54.5
q0 -37 27 -57.5t91 -43.5q38 -15 62 -25.5t53 -29t45.5 -38t28 -50t11.5 -67.5q0 -91 -65.5 -146t-175.5 -55z" />
    <glyph glyph-name="T" unicode="T" horiz-adv-x="659" 
d="M179 0v84q36 9 79 9v469h-123q0 -62 -8 -99h-103v203h611v-203h-103q-9 42 -9 99h-124v-469q31 0 79 -9v-84h-299z" />
    <glyph glyph-name="U" unicode="U" horiz-adv-x="731" 
d="M370 -12q-279 0 -279 269v316q-36 0 -70 9v84h284v-84q-34 -9 -73 -9v-312q0 -86 35 -125.5t113 -39.5q141 0 141 157v320q-43 0 -72 9v84h260v-84q-34 -9 -69 -9v-303q0 -282 -270 -282z" />
    <glyph glyph-name="V" unicode="V" horiz-adv-x="691" 
d="M286 0l-214 573q-36 1 -64 9v84h283v-84q-9 -2 -70 -9l102 -306q10 -27 22 -68t12 -42h2q5 26 33 110l101 306q-63 7 -71 9v84h261v-84q-20 -7 -63 -9l-212 -573h-122z" />
    <glyph glyph-name="W" unicode="W" horiz-adv-x="988" 
d="M236 0l-160 573q-52 6 -62 9v84h269v-84q-17 -6 -66 -8l69 -265q13 -53 26 -122h2q20 98 27 127l93 352h132l93 -350q14 -50 27 -128h3q17 87 26 124l68 262q-42 2 -65 8v84h256v-84q-28 -8 -64 -9l-162 -573h-127l-97 371q-12 47 -27 124h-2q-10 -52 -30 -124l-103 -371
h-126z" />
    <glyph glyph-name="X" unicode="X" horiz-adv-x="676" 
d="M12 0v84q28 8 68 9l177 244l-169 236q-54 6 -63 9v84h268v-84q-11 -4 -46 -6l101 -151l96 150q-37 2 -49 7v84h260v-84q-20 -7 -66 -9l-164 -226l177 -254q52 -6 62 -9v-84h-273v84q11 4 47 6l-108 165l-106 -164q36 -2 50 -7v-84h-262z" />
    <glyph glyph-name="Y" unicode="Y" horiz-adv-x="660" 
d="M183 0v85q36 9 79 9v135l-190 344q-38 1 -65 9v84h275v-84q-5 -2 -54 -8l50 -99q14 -28 36 -77t25 -55h1l64 132l49 99q-51 7 -55 8v84h255v-84q-20 -7 -67 -9l-183 -330v-149q32 0 80 -9v-85h-300z" />
    <glyph glyph-name="Z" unicode="Z" horiz-adv-x="588" 
d="M34 0v92l337 470h-212q0 -61 -8 -101h-103v205h493v-90l-339 -472h239q0 77 9 100h102v-204h-518z" />
    <glyph glyph-name="bracketleft" unicode="[" horiz-adv-x="341" 
d="M65 -161v881h250v-94h-123v-693h123v-94h-250z" />
    <glyph glyph-name="backslash" unicode="\" horiz-adv-x="437" 
d="M341 -161l-318 881h116l318 -881h-116z" />
    <glyph glyph-name="bracketright" unicode="]" horiz-adv-x="341" 
d="M26 -161v94h123v693h-123v94h250v-881h-250z" />
    <glyph glyph-name="underscore" unicode="_" horiz-adv-x="433" 
d="M-1 -184v103h435v-103h-435z" />
    <glyph glyph-name="grave" unicode="`" horiz-adv-x="500" 
d="M267 541l-140 135h171l83 -135h-114z" />
    <glyph glyph-name="a" unicode="a" horiz-adv-x="513" 
d="M172 -12q-64 0 -106 36.5t-42 100.5q0 88 74 129.5t187 41.5h17v34q0 36 -18.5 52t-62.5 16q-67 0 -126 -47l-55 78q76 70 196 70q103 0 150.5 -42t47.5 -138v-207q0 -16 1 -23q36 -4 65 -4v-85q-64 -6 -183 -6q-6 19 -8 60h-2q-20 -27 -55 -46.5t-80 -19.5zM212 82
q54 0 90 43v92h-17q-133 0 -133 -80q0 -27 17.5 -41t42.5 -14z" />
    <glyph glyph-name="b" unicode="b" horiz-adv-x="554" 
d="M257 -12q-118 0 -190 39v599q-48 5 -73 5v84q70 8 211 8l-6 -80v-195h2q47 51 117 51q96 0 151.5 -62.5t55.5 -184.5q0 -123 -74.5 -193.5t-193.5 -70.5zM262 87q57 0 90 42.5t33 117.5q0 150 -104 150q-48 0 -82 -36v-264q30 -10 63 -10z" />
    <glyph glyph-name="c" unicode="c" horiz-adv-x="475" 
d="M280 -12q-119 0 -186 67t-67 180q0 123 72.5 193.5t187.5 70.5q96 0 148 -36v-154h-92q-8 37 -8 86q-17 7 -43 7q-59 0 -92 -43.5t-33 -114.5q0 -70 34 -113t96 -43q57 0 107 30l40 -86q-58 -44 -164 -44z" />
    <glyph glyph-name="d" unicode="d" horiz-adv-x="578" 
d="M226 -12q-92 0 -144.5 65.5t-52.5 184.5q0 115 62 188t157 73q67 0 109 -35h2v162q-47 5 -72 5v84q70 8 210 8l-5 -80v-532q0 -8 2 -22q36 -4 67 -4v-85q-64 -6 -184 -6q-10 20 -10 61h-2q-55 -67 -139 -67zM270 90q53 0 89 48v230q-32 30 -83 30t-78.5 -42t-27.5 -115
q0 -71 25 -111t75 -40z" />
    <glyph glyph-name="e" unicode="e" horiz-adv-x="513" 
d="M278 -12q-120 0 -185.5 66t-65.5 182q0 122 68 192.5t180 70.5q100 0 153 -60.5t53 -162.5q0 -12 -3 -60h-310q3 -62 36.5 -97t93.5 -35q69 0 123 34l42 -82q-81 -48 -185 -48zM167 301h183q-2 109 -83 109q-89 0 -100 -109z" />
    <glyph glyph-name="f" unicode="f" horiz-adv-x="363" 
d="M29 0v84q34 9 73 9v295h-73v99h73v50q0 90 50 142.5t141 52.5q79 0 118 -23l-29 -96q-29 13 -68 13q-80 0 -80 -95v-44h117v-99h-117v-295q13 0 21 -1l25 -2q8 0 16 -1.5t15 -3t9 -1.5v-84h-291z" />
    <glyph glyph-name="g" unicode="g" horiz-adv-x="534" 
d="M233 -239q-103 0 -158 34t-55 98q0 76 94 117v2q-48 28 -48 77q0 56 62 90v2q-90 48 -90 146q0 77 56.5 124.5t155.5 47.5q48 0 86 -12h177v-87h-70q21 -34 21 -73q0 -79 -55 -126t-153 -47q-23 0 -55 5q-21 -12 -21 -32t23 -28t80 -10q111 -6 154 -23q76 -31 76 -119
q0 -82 -77.5 -134t-202.5 -52zM249 -154q60 0 96.5 22.5t36.5 56.5q0 23 -16.5 35.5t-34 15t-60.5 5.5q-9 1 -13 1q-35 2 -65 6q-44 -28 -44 -73q0 -69 100 -69zM250 237q39 0 62 24t23 66t-23 65.5t-62 23.5q-38 0 -60.5 -23.5t-22.5 -65.5t22 -66t61 -24z" />
    <glyph glyph-name="h" unicode="h" horiz-adv-x="601" 
d="M17 0v84q34 9 69 9v533q-48 5 -73 5v84q70 8 211 8l-5 -80v-219h2q56 75 149 75q76 0 111.5 -42.5t35.5 -115.5v-248q39 0 68 -9v-84h-201v318q0 74 -66 74q-55 0 -99 -61v-238q35 -1 65 -9v-84h-267z" />
    <glyph glyph-name="i" unicode="i" horiz-adv-x="318" 
d="M25 0v84q34 9 73 9v304q-39 4 -73 4v84q70 8 212 8l-5 -79v-321q39 0 68 -9v-84h-275zM165 554q-35 0 -58.5 23.5t-23.5 56.5t23.5 55.5t58.5 22.5t58 -22.5t23 -55.5t-23 -56.5t-58 -23.5z" />
    <glyph glyph-name="j" unicode="j" horiz-adv-x="284" 
d="M52 -232q-54 0 -87 12l21 99q14 -6 39 -6q35 0 48 22.5t13 79.5v422q-39 4 -71 4v84q70 8 210 8l-5 -79v-447q0 -199 -168 -199zM152 554q-35 0 -58 23t-23 56t23 56t58 23t58 -23t23 -56t-23 -56t-58 -23z" />
    <glyph glyph-name="k" unicode="k" horiz-adv-x="561" 
d="M17 0v84q34 9 69 9v533q-48 5 -73 5v84q70 8 211 8l-5 -80v-550q32 0 59 -9v-84h-261zM403 0l-183 249l126 150q-32 2 -44 7v81h247v-84q-8 -3 -66 -9l-120 -131l135 -171q47 -5 57 -8v-84h-152z" />
    <glyph glyph-name="l" unicode="l" horiz-adv-x="304" 
d="M17 0v84q34 9 69 9v533q-48 5 -73 5v84q70 8 211 8l-5 -80v-550q34 0 68 -9v-84h-270z" />
    <glyph glyph-name="m" unicode="m" horiz-adv-x="879" 
d="M25 0v84q34 9 73 9v304q-39 4 -73 4v84q70 8 206 8l-4 -73h2q60 79 145 79q98 0 126 -80h2q61 80 153 80q139 0 139 -158v-248q39 0 68 -9v-84h-201v317q0 74 -58 74q-48 0 -91 -54v-244q42 -2 64 -9v-84h-197v317q0 74 -57 74q-27 0 -51.5 -18.5t-39.5 -41.5v-238
q43 -2 63 -9v-84h-269z" />
    <glyph glyph-name="n" unicode="n" horiz-adv-x="613" 
d="M25 0v84q34 9 73 9v304q-39 4 -73 4v84q70 8 206 8l-4 -73h2q57 79 153 79q76 0 111.5 -42.5t35.5 -115.5v-248q39 0 68 -9v-84h-201v318q0 74 -66 74q-55 0 -99 -61v-238q43 -2 65 -9v-84h-271z" />
    <glyph glyph-name="o" unicode="o" horiz-adv-x="543" 
d="M270 -12q-120 0 -181.5 73t-61.5 179q0 48 15 93t43.5 83t76.5 60.5t108 22.5q121 0 183.5 -72.5t62.5 -179.5q0 -103 -64 -181t-182 -78zM272 86q103 0 103 156q0 73 -26 116.5t-80 43.5q-102 0 -102 -156q0 -160 105 -160z" />
    <glyph glyph-name="p" unicode="p" horiz-adv-x="578" 
d="M13 -227v84q30 10 73 10v530q-39 4 -71 4v84q70 8 204 8l-4 -57h2q52 63 134 63q93 0 145.5 -64.5t52.5 -184.5q0 -116 -62 -189t-157 -73q-65 0 -109 36h-2v-157q39 0 72 -10v-84h-278zM302 90q51 0 78.5 41t27.5 114q0 151 -100 151q-55 0 -89 -48v-229q32 -29 83 -29z
" />
    <glyph glyph-name="q" unicode="q" horiz-adv-x="551" 
d="M282 -227v85q34 9 73 9v172h-2q-47 -51 -117 -51q-96 0 -151.5 62.5t-55.5 184.5q0 123 75.5 193.5t192.5 70.5t191 -36v-596q43 0 72 -9v-85h-278zM273 90q49 0 82 37v263q-24 11 -63 11q-57 0 -89.5 -43t-32.5 -118q0 -150 103 -150z" />
    <glyph glyph-name="r" unicode="r" horiz-adv-x="422" 
d="M25 0v84q34 9 73 9v304q-39 4 -73 4v84q70 8 207 8l-5 -84h2q17 35 50.5 62.5t74.5 27.5q46 0 66 -13l-31 -115q-19 12 -52 12q-36 0 -65 -23.5t-41 -46.5v-220q13 0 21 -1l24 -2l22 -3l15 -3v-84h-288z" />
    <glyph glyph-name="s" unicode="s" horiz-adv-x="471" 
d="M223 -12q-122 0 -183 36v132h94q0 -2 2.5 -28t2.5 -33q46 -13 84 -13q86 0 86 49q0 7 -1.5 12.5t-6 10.5t-8 8.5t-11.5 7.5t-13 6t-15.5 5.5t-16 5t-18.5 5t-18 5.5q-33 9 -56 18t-48 26t-38 45.5t-13 66.5q0 71 51 108.5t144 37.5q57 0 107 -11t69 -23v-130h-94
q-4 15 -6 61q-46 10 -73 10q-79 0 -79 -47q0 -23 23 -35t74 -25q10 -3 15 -4q28 -8 45.5 -14t41 -18.5t36.5 -26.5t23 -37.5t10 -52.5q0 -75 -57.5 -116.5t-152.5 -41.5z" />
    <glyph glyph-name="t" unicode="t" horiz-adv-x="385" 
d="M247 -12q-83 0 -119 39t-36 113v248h-75v99h75v141h132v-141h120v-99h-120v-227q0 -36 13 -51.5t40 -15.5q34 0 62 18l30 -96q-47 -28 -122 -28z" />
    <glyph glyph-name="u" unicode="u" horiz-adv-x="598" 
d="M227 -12q-76 0 -111.5 43t-35.5 115v251q-36 4 -63 4v84q70 8 201 8l-5 -79v-245q0 -74 65 -74q50 0 100 61v241q-36 4 -67 4v84q70 8 205 8l-5 -79v-281q0 -18 2 -44q36 -4 66 -4v-85q-64 -6 -186 -6q-9 36 -9 76h-2q-65 -82 -155 -82z" />
    <glyph glyph-name="v" unicode="v" 
d="M210 0l-152 395q-33 3 -52 8v84h240v-84q-2 0 -52 -8l63 -177q21 -53 27 -86h2q6 33 27 86l63 177q-51 7 -55 8v84h229v-84q-14 -4 -56 -9l-154 -394h-130z" />
    <glyph glyph-name="w" unicode="w" horiz-adv-x="806" 
d="M181 0l-117 395q-47 6 -54 8v84h245v-84q-4 -1 -57 -8l37 -126q2 -9 8 -32t10 -41t5 -32h3q6 35 26 106l64 217h131l61 -217q23 -82 26 -106h3q6 55 20 105l37 126q-53 7 -58 8v84h225v-84q-27 -7 -57 -8l-114 -395h-116l-72 226q-31 100 -33 114h-3q-5 -24 -33 -113
l-73 -227h-114z" />
    <glyph glyph-name="x" unicode="x" horiz-adv-x="538" 
d="M11 0v84q29 9 60 9l117 150l-107 151q-43 2 -64 9v84h150l112 -164l59 80q-20 3 -40 10v74h225v-84q-34 -9 -65 -9l-106 -141l116 -160q31 -1 60 -9v-84h-147l-118 174l-68 -90q23 -4 40 -10v-74h-224z" />
    <glyph glyph-name="y" unicode="y" 
d="M94 -234q-51 0 -76 9l19 104q14 -6 47 -6q49 0 72.5 20.5t38.5 63.5l15 42l-152 396q-33 3 -52 8v84h240v-84q-2 0 -52 -8l63 -176q21 -52 27 -88h2q7 36 28 87l62 177q-51 7 -55 8v84h229v-84q-14 -4 -56 -9l-174 -445q-39 -96 -85.5 -139.5t-140.5 -43.5z" />
    <glyph glyph-name="z" unicode="z" horiz-adv-x="497" 
d="M31 0v72l266 325h-151q-2 -47 -8 -74h-99v164h422v-77l-264 -320h163q2 47 8 74h99v-164h-436z" />
    <glyph glyph-name="braceleft" unicode="{" horiz-adv-x="406" 
d="M379 -161h-120q-48 0 -83.5 32.5t-35.5 91.5v173q0 99 -114 100v98q114 2 114 100v163q0 59 35 91t85 32h119v-96h-62q-29 0 -39.5 -16.5t-10.5 -51.5v-149q0 -93 -91 -119v-2q91 -29 91 -126v-159q0 -37 9.5 -51.5t40.5 -14.5h62v-96z" />
    <glyph glyph-name="bar" unicode="|" horiz-adv-x="286" 
d="M85 -250v1000h117v-1000h-117z" />
    <glyph glyph-name="braceright" unicode="}" horiz-adv-x="406" 
d="M26 -161v96h62q30 0 40.5 16.5t10.5 51.5v160q0 93 91 119v2q-91 28 -91 126v148q0 37 -9.5 51.5t-40.5 14.5h-63v96h121q48 0 83.5 -32.5t35.5 -91.5v-162q0 -99 114 -100v-98q-114 -1 -114 -100v-174q0 -59 -35.5 -91t-84.5 -32h-120z" />
    <glyph glyph-name="uni00A0" unicode="&#xa0;" horiz-adv-x="226" 
 />
    <glyph glyph-name="exclamdown" unicode="&#xa1;" horiz-adv-x="303" 
d="M152 336q-36 0 -60.5 24t-24.5 57q0 34 24.5 58t60.5 24t60 -24t24 -58q0 -33 -24 -57t-60 -24zM74 -176l24 440h107l25 -440h-156z" />
    <glyph glyph-name="sterling" unicode="&#xa3;" horiz-adv-x="585" 
d="M58 0v81q48 25 70.5 71t22.5 100q0 14 -3 34h-92v93h75q-11 49 -11 105q0 88 62 141t168 53q51 0 97.5 -11.5t70.5 -27.5v-162h-103q-7 29 -9 91q-28 7 -51 7q-46 0 -72 -25t-26 -72q0 -50 11 -99h152v-93h-135q2 -18 2 -31q0 -50 -18 -89.5t-43 -60.5h199q2 70 9 98h101
v-203h-477z" />
    <glyph glyph-name="yen" unicode="&#xa5;" horiz-adv-x="680" 
d="M106 271v67h110l-134 235q-38 1 -65 9v84h270v-84q-4 -1 -55 -8l52 -99q46 -90 63 -132h4q26 56 66 132l50 99q-51 7 -55 8v84h251v-84q-20 -7 -67 -9l-135 -235h122v-67h-161l-12 -22v-39h173v-67h-173v-49q31 0 79 -9v-85h-293v85q36 9 79 9v49h-169v67h169v25l-21 36
h-148z" />
    <glyph glyph-name="section" unicode="&#xa7;" horiz-adv-x="465" 
d="M193 -152q-84 0 -136 34l41 93q39 -27 79 -27q35 0 55 20t20 50q0 23 -22 49t-53 53t-62.5 57t-53.5 70.5t-22 84.5q0 85 77 134q-34 50 -34 101q0 75 52 120t128 45q86 0 140 -38l-48 -84q-35 26 -77 26q-29 0 -45 -18.5t-16 -45.5q0 -24 21.5 -51.5t52 -55t61.5 -58.5
t52.5 -73t21.5 -86q0 -77 -73 -133q34 -46 34 -96q0 -84 -55.5 -127.5t-137.5 -43.5zM277 191q21 21 21 52q0 13 -7 28t-22.5 33.5t-25.5 29.5t-32.5 32.5t-27.5 26.5q-18 -17 -18 -52q0 -9 3.5 -19.5t11.5 -22.5t15 -21.5t20.5 -24t20 -21.5t22 -22t19.5 -19z" />
    <glyph glyph-name="dieresis" unicode="&#xa8;" horiz-adv-x="500" 
d="M150 548q-30 0 -50 20t-20 49q0 27 20 47.5t50 20.5q31 0 51.5 -20t20.5 -48q0 -30 -20 -49.5t-52 -19.5zM349 548q-31 0 -51 20t-20 49q0 28 20.5 48t50.5 20t50.5 -20t20.5 -48q0 -29 -20 -49t-51 -20z" />
    <glyph glyph-name="copyright" unicode="&#xa9;" horiz-adv-x="836" 
d="M417 -14q-153 0 -262.5 109.5t-109.5 263.5t109.5 263.5t262.5 109.5q154 0 263.5 -109.5t109.5 -263.5t-109.5 -263.5t-263.5 -109.5zM417 60q127 0 209 83t82 216q0 131 -82 215t-209 84q-126 0 -208 -84t-82 -215q0 -133 82 -216t208 -83zM424 135q-94 0 -157 64
t-63 160t64 160t158 64q87 0 148 -54v-128h-74q-2 7 -9 73q-25 15 -62 15q-52 0 -83.5 -37.5t-31.5 -90.5q0 -58 33.5 -96t84.5 -38q49 0 101 44l50 -72q-72 -64 -159 -64z" />
    <glyph glyph-name="guillemotleft" unicode="&#xab;" horiz-adv-x="543" 
d="M151 53l-120 192l120 193h139l-119 -193l119 -192h-139zM373 53l-120 192l120 193h139l-119 -193l119 -192h-139z" />
    <glyph glyph-name="uni00AD" unicode="&#xad;" horiz-adv-x="330" 
d="M51 228v108h228v-108h-228z" />
    <glyph glyph-name="registered" unicode="&#xae;" horiz-adv-x="836" 
d="M417 -14q-153 0 -262.5 109.5t-109.5 263.5t109.5 263.5t262.5 109.5q154 0 263.5 -109.5t109.5 -263.5t-109.5 -263.5t-263.5 -109.5zM417 60q127 0 209 83t82 216q0 131 -82 215t-209 84q-126 0 -208 -84t-82 -215q0 -133 82 -216t208 -83zM231 155v57q16 5 47 7v289
q-31 2 -47 7v57h195q72 0 111 -32.5t39 -89.5q0 -91 -96 -112q17 -10 42 -50l22 -33q13 -21 25.5 -30t34.5 -9h7v-56q-21 -7 -49 -7q-37 0 -54 11t-36 42l-50 81q-15 24 -24.5 31.5t-26.5 7.5v-108q31 -2 42 -6v-57h-182zM371 386h38q72 0 72 59t-65 59h-45v-118z" />
    <glyph glyph-name="overscore" unicode="&#xaf;" horiz-adv-x="500" 
d="M108 562v95h283v-95h-283z" />
    <glyph glyph-name="degree" unicode="&#xb0;" horiz-adv-x="348" 
d="M174 397q-58 0 -100.5 41.5t-42.5 98.5q0 59 42.5 100t100.5 41t100.5 -41t42.5 -100q0 -58 -41.5 -99t-101.5 -41zM174 472q27 0 44 18.5t17 46.5q0 29 -17 47.5t-44 18.5t-44.5 -18.5t-17.5 -47.5q0 -28 17.5 -46.5t44.5 -18.5z" />
    <glyph glyph-name="acute" unicode="&#xb4;" horiz-adv-x="500" 
d="M145 541l83 135h172l-140 -135h-115z" />
    <glyph glyph-name="mu" unicode="&#xb5;" horiz-adv-x="606" 
d="M87 -218v615q-36 4 -68 4v84q70 8 206 8l-5 -79v-244q0 -35 13 -53t46 -18q61 0 106 57v241q-36 4 -68 4v84q70 8 206 8l-5 -79v-305q0 -13 1 -20q36 -4 65 -4v-85q-64 -6 -184 -6q-8 32 -10 76h-2q-58 -80 -140 -80q-22 0 -36 8h-2q7 -35 7 -100v-116h-130z" />
    <glyph glyph-name="middot" unicode="&#xb7;" horiz-adv-x="286" 
d="M143 204q-37 0 -62.5 25t-25.5 61t25.5 60.5t62.5 24.5t63 -24.5t26 -60.5t-26 -61t-63 -25z" />
    <glyph glyph-name="cedilla" unicode="&#xb8;" horiz-adv-x="500" 
d="M229 -230q-54 0 -82 15l17 60q24 -11 51 -11q48 0 48 34q0 38 -60 38h-11l36 97h76l-21 -58q32 -7 51.5 -28.5t19.5 -53.5q0 -42 -34.5 -67.5t-90.5 -25.5z" />
    <glyph glyph-name="guillemotright" unicode="&#xbb;" horiz-adv-x="543" 
d="M31 53l119 193l-119 192h139l120 -192l-120 -193h-139zM253 53l119 193l-119 192h139l120 -192l-120 -193h-139z" />
    <glyph glyph-name="questiondown" unicode="&#xbf;" horiz-adv-x="416" 
d="M249 336q-36 0 -60 23.5t-24 57.5t24 58t60 24t60.5 -24t24.5 -58q0 -33 -24.5 -57t-60.5 -24zM235 -188q-102 0 -155 46t-53 126q0 91 87 152q10 7 33 22t31.5 22t17.5 20.5t9 29.5q0 19 -5 37h95q15 -32 15 -63q0 -41 -18 -66t-57 -51q-37 -24 -54.5 -44t-17.5 -50
q0 -70 93 -70q49 0 89 21l46 -98q-63 -34 -156 -34z" />
    <glyph glyph-name="Agrave" unicode="&#xc0;" horiz-adv-x="721" 
d="M10 0v84q26 6 59 8l232 574h124l225 -574q38 -2 61 -8v-84h-266v84q24 7 56 8l-30 85h-244l-32 -85q33 -1 57 -8v-84h-242zM260 267h177l-47 132q-21 58 -39 122h-2q-16 -55 -41 -122zM307 717l-140 135h171l83 -135h-114z" />
    <glyph glyph-name="Aacute" unicode="&#xc1;" horiz-adv-x="721" 
d="M10 0v84q26 6 59 8l232 574h124l225 -574q38 -2 61 -8v-84h-266v84q24 7 56 8l-30 85h-244l-32 -85q33 -1 57 -8v-84h-242zM260 267h177l-47 132q-21 58 -39 122h-2q-16 -55 -41 -122zM287 717l83 135h172l-140 -135h-115z" />
    <glyph glyph-name="Acircumflex" unicode="&#xc2;" horiz-adv-x="721" 
d="M10 0v84q26 6 59 8l232 574h124l225 -574q38 -2 61 -8v-84h-266v84q24 7 56 8l-30 85h-244l-32 -85q33 -1 57 -8v-84h-242zM260 267h177l-47 132q-21 58 -39 122h-2q-16 -55 -41 -122zM176 718l127 159h102l125 -159h-113l-64 66l-64 -66h-113z" />
    <glyph glyph-name="Atilde" unicode="&#xc3;" horiz-adv-x="721" 
d="M10 0v84q26 6 59 8l232 574h124l225 -574q38 -2 61 -8v-84h-266v84q24 7 56 8l-30 85h-244l-32 -85q33 -1 57 -8v-84h-242zM260 267h177l-47 132q-21 58 -39 122h-2q-16 -55 -41 -122zM412 722q-32 0 -66 17.5t-52 17.5q-24 0 -54 -30l-61 53q17 30 46.5 52.5t66.5 22.5
q33 0 66.5 -17.5t51.5 -17.5q31 0 56 31l61 -53q-46 -76 -115 -76z" />
    <glyph glyph-name="Adieresis" unicode="&#xc4;" horiz-adv-x="721" 
d="M10 0v84q26 6 59 8l232 574h124l225 -574q38 -2 61 -8v-84h-266v84q24 7 56 8l-30 85h-244l-32 -85q33 -1 57 -8v-84h-242zM260 267h177l-47 132q-21 58 -39 122h-2q-16 -55 -41 -122zM253 724q-30 0 -50 20t-20 49q0 27 20.5 47.5t49.5 20.5q31 0 51.5 -20t20.5 -48
q0 -30 -20 -49.5t-52 -19.5zM452 724q-31 0 -51 20t-20 49q0 28 20.5 48t50.5 20t50.5 -20t20.5 -48q0 -29 -20 -49t-51 -20z" />
    <glyph glyph-name="Aring" unicode="&#xc5;" horiz-adv-x="721" 
d="M10 0v84q26 6 59 8l232 574h124l225 -574q38 -2 61 -8v-84h-266v84q24 7 56 8l-30 85h-244l-32 -85q33 -1 57 -8v-84h-242zM260 267h177l-47 132q-21 58 -39 122h-2q-16 -55 -41 -122zM353 711q-44 0 -77 31t-33 76q0 44 33 75t77 31t77 -31t33 -75q0 -45 -33 -76
t-77 -31zM353 767q21 0 33.5 15t12.5 36t-12.5 35.5t-33.5 14.5t-33.5 -14.5t-12.5 -35.5t12.5 -36t33.5 -15z" />
    <glyph glyph-name="AE" unicode="&#xc6;" horiz-adv-x="908" 
d="M4 0v84q25 7 51 8l263 481q-55 0 -78 9v84h623v-188h-103q-8 37 -9 84h-175v-175h86q5 47 9 67h90v-230h-90q-4 21 -9 66h-86v-186h183q0 36 8 84h103v-188h-513v84q38 9 79 9v96h-189l-51 -98q39 -2 54 -7v-84h-246zM298 292h138v267h-2q-17 -37 -92 -181z" />
    <glyph glyph-name="Ccedilla" unicode="&#xc7;" horiz-adv-x="669" 
d="M388 -12q-166 0 -260 94.5t-94 243.5q0 152 99.5 252t261.5 100q128 0 209 -51v-173h-103q-8 40 -10 104q-41 16 -97 16q-95 0 -153 -66.5t-58 -172.5q0 -111 58 -176.5t157 -65.5q55 0 107 20q0 73 10 115h102v-173q-29 -27 -94.5 -47t-134.5 -20zM346 -230
q-54 0 -82 15l17 60q24 -11 51 -11q48 0 48 34q0 38 -60 38h-11l36 97h76l-21 -58q32 -7 51.5 -28.5t19.5 -53.5q0 -42 -34.5 -67.5t-90.5 -25.5z" />
    <glyph glyph-name="Egrave" unicode="&#xc8;" horiz-adv-x="603" 
d="M26 0v84q36 9 79 9v480q-43 0 -79 9v84h532v-188h-102q-3 11 -10 84h-201v-176h92q6 52 9 64h86v-224h-86q-3 10 -9 63h-92v-185h209q0 30 9 84h102v-188h-539zM252 717l-140 135h171l83 -135h-114z" />
    <glyph glyph-name="Eacute" unicode="&#xc9;" horiz-adv-x="603" 
d="M231 717l83 135h172l-140 -135h-115zM26 0v84q36 9 79 9v480q-43 0 -79 9v84h532v-188h-102q-3 11 -10 84h-201v-176h92q6 52 9 64h86v-224h-86q-3 10 -9 63h-92v-185h209q0 30 9 84h102v-188h-539z" />
    <glyph glyph-name="Ecircumflex" unicode="&#xca;" horiz-adv-x="603" 
d="M120 718l127 159h102l125 -159h-113l-64 66l-64 -66h-113zM26 0v84q36 9 79 9v480q-43 0 -79 9v84h532v-188h-102q-3 11 -10 84h-201v-176h92q6 52 9 64h86v-224h-86q-3 10 -9 63h-92v-185h209q0 30 9 84h102v-188h-539z" />
    <glyph glyph-name="Edieresis" unicode="&#xcb;" horiz-adv-x="603" 
d="M197 724q-30 0 -50 20t-20 49q0 27 20.5 47.5t49.5 20.5q31 0 51.5 -20t20.5 -48q0 -30 -20 -49.5t-52 -19.5zM396 724q-31 0 -51 20t-20 49q0 28 20.5 48t50.5 20t50.5 -20t20.5 -48q0 -29 -20 -49t-51 -20zM26 0v84q36 9 79 9v480q-43 0 -79 9v84h532v-188h-102
q-3 11 -10 84h-201v-176h92q6 52 9 64h86v-224h-86q-3 10 -9 63h-92v-185h209q0 30 9 84h102v-188h-539z" />
    <glyph glyph-name="Igrave" unicode="&#xcc;" horiz-adv-x="353" 
d="M26 0v84q36 9 79 9v480q-43 0 -79 9v84h299v-84q-36 -9 -78 -9v-480q44 0 80 -9v-84h-301zM131 717l-140 135h171l83 -135h-114z" />
    <glyph glyph-name="Iacute" unicode="&#xcd;" horiz-adv-x="353" 
d="M26 0v84q36 9 79 9v480q-43 0 -79 9v84h299v-84q-36 -9 -78 -9v-480q44 0 80 -9v-84h-301zM112 717l83 135h172l-140 -135h-115z" />
    <glyph glyph-name="Icircumflex" unicode="&#xce;" horiz-adv-x="353" 
d="M26 0v84q36 9 79 9v480q-43 0 -79 9v84h299v-84q-36 -9 -78 -9v-480q44 0 80 -9v-84h-301zM1 718l127 159h102l125 -159h-113l-64 66l-64 -66h-113z" />
    <glyph glyph-name="Idieresis" unicode="&#xcf;" horiz-adv-x="353" 
d="M26 0v84q36 9 79 9v480q-43 0 -79 9v84h299v-84q-36 -9 -78 -9v-480q44 0 80 -9v-84h-301zM78 724q-30 0 -50 20t-20 49q0 27 20 47.5t50 20.5q31 0 51.5 -20t20.5 -48q0 -30 -20 -49.5t-52 -19.5zM277 724q-31 0 -51 20t-20 49q0 28 20.5 48t50.5 20t50.5 -20t20.5 -48
q0 -29 -20 -49t-51 -20z" />
    <glyph glyph-name="Eth" unicode="&#xd0;" horiz-adv-x="731" 
d="M50 289v99h65v185q-43 0 -79 9v84h281q191 0 286 -85.5t95 -236.5q0 -153 -98 -248.5t-288 -95.5h-276v84q36 9 79 9v196h-65zM257 562v-174h104v-99h-104v-185h66q112 0 169 61t57 174q0 114 -56 168.5t-175 54.5h-61z" />
    <glyph glyph-name="Ntilde" unicode="&#xd1;" horiz-adv-x="786" 
d="M26 0v84q36 9 79 9v480q-43 0 -79 9v84h212l256 -350q58 -80 76 -114h2q-4 20 -4 111v260q-42 0 -76 9v84h272v-84q-36 -9 -76 -9v-573h-120l-275 374q-60 81 -70 106h-2q3 -39 3 -95v-292q41 0 79 -9v-84h-277zM457 722q-33 0 -67 17.5t-51 17.5q-24 0 -54 -30l-61 53
q17 30 46.5 52.5t66.5 22.5q33 0 66.5 -17.5t51.5 -17.5q31 0 56 31l61 -53q-46 -76 -115 -76z" />
    <glyph glyph-name="Ograve" unicode="&#xd2;" horiz-adv-x="754" 
d="M380 -12q-162 0 -254 97t-92 241q0 146 91.5 249t251.5 103q162 0 252.5 -95.5t90.5 -240.5q0 -70 -22 -133t-63.5 -112.5t-107.5 -79t-147 -29.5zM377 92q95 0 145 68t50 172q0 105 -49 173.5t-143 68.5q-95 0 -146 -67.5t-51 -170.5q0 -105 50 -174.5t144 -69.5z
M330 717l-140 135h171l83 -135h-114z" />
    <glyph glyph-name="Oacute" unicode="&#xd3;" horiz-adv-x="754" 
d="M310 717l83 135h172l-140 -135h-115zM380 -12q-162 0 -254 97t-92 241q0 146 91.5 249t251.5 103q162 0 252.5 -95.5t90.5 -240.5q0 -70 -22 -133t-63.5 -112.5t-107.5 -79t-147 -29.5zM377 92q95 0 145 68t50 172q0 105 -49 173.5t-143 68.5q-95 0 -146 -67.5
t-51 -170.5q0 -105 50 -174.5t144 -69.5z" />
    <glyph glyph-name="Ocircumflex" unicode="&#xd4;" horiz-adv-x="754" 
d="M199 718l127 159h102l125 -159h-113l-64 66l-64 -66h-113zM380 -12q-162 0 -254 97t-92 241q0 146 91.5 249t251.5 103q162 0 252.5 -95.5t90.5 -240.5q0 -70 -22 -133t-63.5 -112.5t-107.5 -79t-147 -29.5zM377 92q95 0 145 68t50 172q0 105 -49 173.5t-143 68.5
q-95 0 -146 -67.5t-51 -170.5q0 -105 50 -174.5t144 -69.5z" />
    <glyph glyph-name="Otilde" unicode="&#xd5;" horiz-adv-x="754" 
d="M380 -12q-162 0 -254 97t-92 241q0 146 91.5 249t251.5 103q162 0 252.5 -95.5t90.5 -240.5q0 -70 -22 -133t-63.5 -112.5t-107.5 -79t-147 -29.5zM377 92q95 0 145 68t50 172q0 105 -49 173.5t-143 68.5q-95 0 -146 -67.5t-51 -170.5q0 -105 50 -174.5t144 -69.5z
M435 722q-33 0 -67 17.5t-51 17.5q-24 0 -54 -30l-61 53q17 30 46.5 52.5t66.5 22.5q33 0 66.5 -17.5t51.5 -17.5q31 0 56 31l61 -53q-46 -76 -115 -76z" />
    <glyph glyph-name="Odieresis" unicode="&#xd6;" horiz-adv-x="754" 
d="M276 724q-30 0 -50 20t-20 49q0 27 20 47.5t50 20.5q31 0 51.5 -20t20.5 -48q0 -30 -20 -49.5t-52 -19.5zM475 724q-31 0 -51 20t-20 49q0 28 20.5 48t50.5 20t50.5 -20t20.5 -48q0 -29 -20 -49t-51 -20zM380 -12q-162 0 -254 97t-92 241q0 146 91.5 249t251.5 103
q162 0 252.5 -95.5t90.5 -240.5q0 -70 -22 -133t-63.5 -112.5t-107.5 -79t-147 -29.5zM377 92q95 0 145 68t50 172q0 105 -49 173.5t-143 68.5q-95 0 -146 -67.5t-51 -170.5q0 -105 50 -174.5t144 -69.5z" />
    <glyph glyph-name="multiply" unicode="&#xd7;" horiz-adv-x="511" 
d="M377 64l-124 124l-120 -119l-77 76l120 120l-121 121l78 78l122 -120l118 119l77 -77l-119 -119l125 -125z" />
    <glyph glyph-name="Oslash" unicode="&#xd8;" horiz-adv-x="754" 
d="M150 -70l-71 51l63 89q-108 94 -108 256q0 146 91.5 249t251.5 103q97 0 170 -39l63 89l71 -50l-61 -86q100 -97 100 -250q0 -70 -22 -133t-63.5 -112.5t-107.5 -79t-147 -29.5q-96 0 -165 34zM183 336q0 -92 43 -151l253 360q-41 29 -99 29q-95 0 -146 -67.5t-51 -170.5
zM377 92q95 0 145 68t50 172q0 85 -35 144l-254 -360q43 -24 94 -24z" />
    <glyph glyph-name="Ugrave" unicode="&#xd9;" horiz-adv-x="731" 
d="M370 -12q-279 0 -279 269v316q-36 0 -70 9v84h284v-84q-34 -9 -73 -9v-312q0 -86 35 -125.5t113 -39.5q141 0 141 157v320q-43 0 -72 9v84h260v-84q-34 -9 -69 -9v-303q0 -282 -270 -282zM325 717l-140 135h171l83 -135h-114z" />
    <glyph glyph-name="Uacute" unicode="&#xda;" horiz-adv-x="731" 
d="M306 717l83 135h172l-140 -135h-115zM370 -12q-279 0 -279 269v316q-36 0 -70 9v84h284v-84q-34 -9 -73 -9v-312q0 -86 35 -125.5t113 -39.5q141 0 141 157v320q-43 0 -72 9v84h260v-84q-34 -9 -69 -9v-303q0 -282 -270 -282z" />
    <glyph glyph-name="Ucircumflex" unicode="&#xdb;" horiz-adv-x="731" 
d="M195 718l127 159h102l125 -159h-113l-64 66l-64 -66h-113zM370 -12q-279 0 -279 269v316q-36 0 -70 9v84h284v-84q-34 -9 -73 -9v-312q0 -86 35 -125.5t113 -39.5q141 0 141 157v320q-43 0 -72 9v84h260v-84q-34 -9 -69 -9v-303q0 -282 -270 -282z" />
    <glyph glyph-name="Udieresis" unicode="&#xdc;" horiz-adv-x="731" 
d="M272 724q-30 0 -50 20t-20 49q0 27 20 47.5t50 20.5q31 0 51.5 -20t20.5 -48q0 -30 -20 -49.5t-52 -19.5zM471 724q-31 0 -51 20t-20 49q0 28 20.5 48t50.5 20t50.5 -20t20.5 -48q0 -29 -20 -49t-51 -20zM370 -12q-279 0 -279 269v316q-36 0 -70 9v84h284v-84
q-34 -9 -73 -9v-312q0 -86 35 -125.5t113 -39.5q141 0 141 157v320q-43 0 -72 9v84h260v-84q-34 -9 -69 -9v-303q0 -282 -270 -282z" />
    <glyph glyph-name="Yacute" unicode="&#xdd;" horiz-adv-x="660" 
d="M183 0v85q36 9 79 9v135l-190 344q-38 1 -65 9v84h275v-84q-5 -2 -54 -8l50 -99q14 -28 36 -77t25 -55h1l64 132l49 99q-51 7 -55 8v84h255v-84q-20 -7 -67 -9l-183 -330v-149q32 0 80 -9v-85h-300zM267 717l83 135h172l-140 -135h-115z" />
    <glyph glyph-name="Thorn" unicode="&#xde;" horiz-adv-x="604" 
d="M26 0v84q36 9 79 9v480q-43 0 -79 9v84h221v-92h77q115 0 185 -50t70 -151q0 -103 -72 -156.5t-199 -53.5h-61v-70q45 0 83 -9v-84h-304zM247 471v-206h63q66 0 96.5 25.5t30.5 79.5q0 101 -124 101h-66z" />
    <glyph glyph-name="germandbls" unicode="&#xdf;" horiz-adv-x="626" 
d="M426 -12q-88 0 -141 32l36 92q48 -28 92 -28q67 0 67 53q0 7 -1.5 13t-5.5 11.5t-7.5 10t-10.5 10.5t-11 9t-14 9t-14 8t-15.5 8t-14.5 8q-40 22 -64 49.5t-24 72.5q0 34 18 59.5t52 52.5q52 43 52 92q0 85 -86 85q-99 0 -99 -132v-503h-206v84q34 9 73 9v295h-73v99h73
v10q0 118 66 176.5t171 58.5q102 0 159 -45.5t57 -120.5q0 -29 -7.5 -52.5t-25 -42.5t-28 -28t-32.5 -25q-19 -13 -26 -18.5t-13.5 -15t-6.5 -20.5q0 -19 14 -31.5t48 -30.5q28 -15 44 -25t38.5 -30t33.5 -45.5t11 -57.5q0 -72 -47.5 -114t-131.5 -42z" />
    <glyph glyph-name="agrave" unicode="&#xe0;" horiz-adv-x="513" 
d="M172 -12q-64 0 -106 36.5t-42 100.5q0 88 74 129.5t187 41.5h17v34q0 36 -18.5 52t-62.5 16q-67 0 -126 -47l-55 78q76 70 196 70q103 0 150.5 -42t47.5 -138v-207q0 -16 1 -23q36 -4 65 -4v-85q-64 -6 -183 -6q-6 19 -8 60h-2q-20 -27 -55 -46.5t-80 -19.5zM212 82
q54 0 90 43v92h-17q-133 0 -133 -80q0 -27 17.5 -41t42.5 -14zM195 541l-140 135h171l83 -135h-114z" />
    <glyph glyph-name="aacute" unicode="&#xe1;" horiz-adv-x="513" 
d="M172 -12q-64 0 -106 36.5t-42 100.5q0 88 74 129.5t187 41.5h17v34q0 36 -18.5 52t-62.5 16q-67 0 -126 -47l-55 78q76 70 196 70q103 0 150.5 -42t47.5 -138v-207q0 -16 1 -23q36 -4 65 -4v-85q-64 -6 -183 -6q-6 19 -8 60h-2q-20 -27 -55 -46.5t-80 -19.5zM212 82
q54 0 90 43v92h-17q-133 0 -133 -80q0 -27 17.5 -41t42.5 -14zM174 541l83 135h172l-140 -135h-115z" />
    <glyph glyph-name="acircumflex" unicode="&#xe2;" horiz-adv-x="513" 
d="M172 -12q-64 0 -106 36.5t-42 100.5q0 88 74 129.5t187 41.5h17v34q0 36 -18.5 52t-62.5 16q-67 0 -126 -47l-55 78q76 70 196 70q103 0 150.5 -42t47.5 -138v-207q0 -16 1 -23q36 -4 65 -4v-85q-64 -6 -183 -6q-6 19 -8 60h-2q-20 -27 -55 -46.5t-80 -19.5zM212 82
q54 0 90 43v92h-17q-133 0 -133 -80q0 -27 17.5 -41t42.5 -14zM65 542l127 159h102l125 -159h-113l-64 66l-64 -66h-113z" />
    <glyph glyph-name="atilde" unicode="&#xe3;" horiz-adv-x="513" 
d="M172 -12q-64 0 -106 36.5t-42 100.5q0 88 74 129.5t187 41.5h17v34q0 36 -18.5 52t-62.5 16q-67 0 -126 -47l-55 78q76 70 196 70q103 0 150.5 -42t47.5 -138v-207q0 -16 1 -23q36 -4 65 -4v-85q-64 -6 -183 -6q-6 19 -8 60h-2q-20 -27 -55 -46.5t-80 -19.5zM212 82
q54 0 90 43v92h-17q-133 0 -133 -80q0 -27 17.5 -41t42.5 -14zM301 546q-33 0 -67 17.5t-51 17.5q-24 0 -54 -30l-61 53q17 30 46.5 52.5t66.5 22.5q33 0 66.5 -17.5t51.5 -17.5q31 0 56 31l61 -53q-46 -76 -115 -76z" />
    <glyph glyph-name="adieresis" unicode="&#xe4;" horiz-adv-x="513" 
d="M172 -12q-64 0 -106 36.5t-42 100.5q0 88 74 129.5t187 41.5h17v34q0 36 -18.5 52t-62.5 16q-67 0 -126 -47l-55 78q76 70 196 70q103 0 150.5 -42t47.5 -138v-207q0 -16 1 -23q36 -4 65 -4v-85q-64 -6 -183 -6q-6 19 -8 60h-2q-20 -27 -55 -46.5t-80 -19.5zM212 82
q54 0 90 43v92h-17q-133 0 -133 -80q0 -27 17.5 -41t42.5 -14zM142 548q-30 0 -50 20t-20 49q0 27 20 47.5t50 20.5q31 0 51.5 -20t20.5 -48q0 -30 -20 -49.5t-52 -19.5zM341 548q-31 0 -51 20t-20 49q0 28 20.5 48t50.5 20t50.5 -20t20.5 -48q0 -29 -20 -49t-51 -20z" />
    <glyph glyph-name="aring" unicode="&#xe5;" horiz-adv-x="513" 
d="M172 -12q-64 0 -106 36.5t-42 100.5q0 88 74 129.5t187 41.5h17v34q0 36 -18.5 52t-62.5 16q-67 0 -126 -47l-55 78q76 70 196 70q103 0 150.5 -42t47.5 -138v-207q0 -16 1 -23q36 -4 65 -4v-85q-64 -6 -183 -6q-6 19 -8 60h-2q-20 -27 -55 -46.5t-80 -19.5zM212 82
q54 0 90 43v92h-17q-133 0 -133 -80q0 -27 17.5 -41t42.5 -14zM242 535q-44 0 -77 31t-33 76q0 44 33 75t77 31t77 -31t33 -75q0 -45 -33 -76t-77 -31zM242 591q21 0 33.5 15t12.5 36t-12.5 35.5t-33.5 14.5t-33.5 -14.5t-12.5 -35.5t12.5 -36t33.5 -15z" />
    <glyph glyph-name="ae" unicode="&#xe6;" horiz-adv-x="781" 
d="M170 -12q-64 0 -105 36.5t-41 100.5q0 60 37.5 99.5t94 55.5t128.5 16h18v34q0 33 -18 50.5t-63 17.5q-61 0 -126 -47l-55 78q78 70 196 70q108 0 152 -57q64 57 154 57q100 0 154 -60.5t54 -162.5q0 -39 -4 -60h-309q2 -62 36 -97t94 -35q69 0 123 34l42 -82
q-81 -48 -185 -48q-129 0 -196 87q-72 -87 -181 -87zM535 410q-88 0 -99 -109h182q0 109 -83 109zM212 82q64 0 102 58q-9 25 -15 77h-15q-132 0 -132 -80q0 -27 17.5 -41t42.5 -14z" />
    <glyph glyph-name="ccedilla" unicode="&#xe7;" horiz-adv-x="475" 
d="M280 -12q-119 0 -186 67t-67 180q0 123 72.5 193.5t187.5 70.5q96 0 148 -36v-154h-92q-8 37 -8 86q-17 7 -43 7q-59 0 -92 -43.5t-33 -114.5q0 -70 34 -113t96 -43q57 0 107 30l40 -86q-58 -44 -164 -44zM249 -230q-54 0 -82 15l17 60q24 -11 51 -11q48 0 48 34
q0 38 -60 38h-11l36 97h76l-21 -58q32 -7 51.5 -28.5t19.5 -53.5q0 -42 -34.5 -67.5t-90.5 -25.5z" />
    <glyph glyph-name="egrave" unicode="&#xe8;" horiz-adv-x="513" 
d="M278 -12q-120 0 -185.5 66t-65.5 182q0 122 68 192.5t180 70.5q100 0 153 -60.5t53 -162.5q0 -12 -3 -60h-310q3 -62 36.5 -97t93.5 -35q69 0 123 34l42 -82q-81 -48 -185 -48zM167 301h183q-2 109 -83 109q-89 0 -100 -109zM222 541l-140 135h171l83 -135h-114z" />
    <glyph glyph-name="eacute" unicode="&#xe9;" horiz-adv-x="513" 
d="M200 541l83 135h172l-140 -135h-115zM278 -12q-120 0 -185.5 66t-65.5 182q0 122 68 192.5t180 70.5q100 0 153 -60.5t53 -162.5q0 -12 -3 -60h-310q3 -62 36.5 -97t93.5 -35q69 0 123 34l42 -82q-81 -48 -185 -48zM167 301h183q-2 109 -83 109q-89 0 -100 -109z" />
    <glyph glyph-name="ecircumflex" unicode="&#xea;" horiz-adv-x="513" 
d="M89 542l127 159h102l125 -159h-113l-64 66l-64 -66h-113zM278 -12q-120 0 -185.5 66t-65.5 182q0 122 68 192.5t180 70.5q100 0 153 -60.5t53 -162.5q0 -12 -3 -60h-310q3 -62 36.5 -97t93.5 -35q69 0 123 34l42 -82q-81 -48 -185 -48zM167 301h183q-2 109 -83 109
q-89 0 -100 -109z" />
    <glyph glyph-name="edieresis" unicode="&#xeb;" horiz-adv-x="513" 
d="M166 548q-30 0 -50 20t-20 49q0 27 20 47.5t50 20.5q31 0 51.5 -20t20.5 -48q0 -30 -20 -49.5t-52 -19.5zM365 548q-31 0 -51 20t-20 49q0 28 20.5 48t50.5 20t50.5 -20t20.5 -48q0 -29 -20 -49t-51 -20zM278 -12q-120 0 -185.5 66t-65.5 182q0 122 68 192.5t180 70.5
q100 0 153 -60.5t53 -162.5q0 -12 -3 -60h-310q3 -62 36.5 -97t93.5 -35q69 0 123 34l42 -82q-81 -48 -185 -48zM167 301h183q-2 109 -83 109q-89 0 -100 -109z" />
    <glyph glyph-name="igrave" unicode="&#xec;" horiz-adv-x="318" 
d="M25 0v84q34 9 73 9v304q-39 4 -73 4v84q70 8 212 8l-5 -79v-321q12 0 19 -1l21 -2q9 -1 20.5 -3.5t12.5 -2.5v-84h-280zM120 541l-140 135h171l83 -135h-114z" />
    <glyph glyph-name="iacute" unicode="&#xed;" horiz-adv-x="318" 
d="M100 541l83 135h172l-140 -135h-115zM25 0v84q34 9 73 9v304q-39 4 -73 4v84q70 8 212 8l-5 -79v-321q12 0 19 -1l21 -2q9 -1 20.5 -3.5t12.5 -2.5v-84h-280z" />
    <glyph glyph-name="icircumflex" unicode="&#xee;" horiz-adv-x="318" 
d="M-11 542l127 159h102l125 -159h-113l-64 66l-64 -66h-113zM25 0v84q34 9 73 9v304q-39 4 -73 4v84q70 8 212 8l-5 -79v-321q12 0 19 -1l21 -2q9 -1 20.5 -3.5t12.5 -2.5v-84h-280z" />
    <glyph glyph-name="idieresis" unicode="&#xef;" horiz-adv-x="318" 
d="M66 548q-30 0 -50 20t-20 49q0 27 20 47.5t50 20.5q31 0 51.5 -20t20.5 -48q0 -30 -20 -49.5t-52 -19.5zM265 548q-31 0 -51 20t-20 49q0 28 20.5 48t50.5 20t50.5 -20t20.5 -48q0 -29 -20 -49t-51 -20zM25 0v84q34 9 73 9v304q-39 4 -73 4v84q70 8 212 8l-5 -79v-321
q12 0 19 -1l21 -2q9 -1 20.5 -3.5t12.5 -2.5v-84h-280z" />
    <glyph glyph-name="eth" unicode="&#xf0;" horiz-adv-x="555" 
d="M271 -12q-107 0 -175.5 67t-68.5 184q0 116 63.5 182.5t159.5 66.5q68 0 107 -37q-24 84 -85 127l-66 -60l-53 54l44 39q-55 18 -126 18l28 103q108 0 192 -34l69 62l52 -55l-50 -45q159 -110 159 -360q0 -140 -64 -226t-186 -86zM272 86q109 0 109 213v17q0 12 -1 17
q-37 58 -112 58q-50 0 -75.5 -40.5t-25.5 -109.5q0 -72 27.5 -113.5t77.5 -41.5z" />
    <glyph glyph-name="ntilde" unicode="&#xf1;" horiz-adv-x="613" 
d="M25 0v84q34 9 73 9v304q-39 4 -73 4v84q70 8 206 8l-4 -73h2q57 79 153 79q76 0 111.5 -42.5t35.5 -115.5v-248q39 0 68 -9v-84h-201v318q0 74 -66 74q-55 0 -99 -61v-238q43 -2 65 -9v-84h-271zM365 546q-33 0 -67 17.5t-51 17.5q-24 0 -54 -30l-61 53q17 30 46.5 52.5
t66.5 22.5q33 0 66.5 -17.5t51.5 -17.5q31 0 56 31l61 -53q-46 -76 -115 -76z" />
    <glyph glyph-name="ograve" unicode="&#xf2;" horiz-adv-x="543" 
d="M270 -12q-120 0 -181.5 73t-61.5 179q0 48 15 93t43.5 83t76.5 60.5t108 22.5q121 0 183.5 -72.5t62.5 -179.5q0 -103 -64 -181t-182 -78zM272 86q103 0 103 156q0 73 -26 116.5t-80 43.5q-102 0 -102 -156q0 -160 105 -160zM225 541l-140 135h171l83 -135h-114z" />
    <glyph glyph-name="oacute" unicode="&#xf3;" horiz-adv-x="543" 
d="M203 541l83 135h172l-140 -135h-115zM270 -12q-120 0 -181.5 73t-61.5 179q0 48 15 93t43.5 83t76.5 60.5t108 22.5q121 0 183.5 -72.5t62.5 -179.5q0 -103 -64 -181t-182 -78zM272 86q103 0 103 156q0 73 -26 116.5t-80 43.5q-102 0 -102 -156q0 -160 105 -160z" />
    <glyph glyph-name="ocircumflex" unicode="&#xf4;" horiz-adv-x="543" 
d="M92 542l127 159h102l125 -159h-113l-64 66l-64 -66h-113zM270 -12q-120 0 -181.5 73t-61.5 179q0 48 15 93t43.5 83t76.5 60.5t108 22.5q121 0 183.5 -72.5t62.5 -179.5q0 -103 -64 -181t-182 -78zM272 86q103 0 103 156q0 73 -26 116.5t-80 43.5q-102 0 -102 -156
q0 -160 105 -160z" />
    <glyph glyph-name="otilde" unicode="&#xf5;" horiz-adv-x="543" 
d="M270 -12q-120 0 -181.5 73t-61.5 179q0 48 15 93t43.5 83t76.5 60.5t108 22.5q121 0 183.5 -72.5t62.5 -179.5q0 -103 -64 -181t-182 -78zM272 86q103 0 103 156q0 73 -26 116.5t-80 43.5q-102 0 -102 -156q0 -160 105 -160zM328 546q-32 0 -66 17.5t-52 17.5
q-24 0 -54 -30l-61 53q17 30 46.5 52.5t66.5 22.5q33 0 66.5 -17.5t51.5 -17.5q31 0 56 31l61 -53q-46 -76 -115 -76z" />
    <glyph glyph-name="odieresis" unicode="&#xf6;" horiz-adv-x="543" 
d="M169 548q-30 0 -50 20t-20 49q0 27 20.5 47.5t49.5 20.5q31 0 51.5 -20t20.5 -48q0 -30 -20 -49.5t-52 -19.5zM368 548q-31 0 -51 20t-20 49q0 28 20.5 48t50.5 20t50.5 -20t20.5 -48q0 -29 -20 -49t-51 -20zM270 -12q-120 0 -181.5 73t-61.5 179q0 48 15 93t43.5 83
t76.5 60.5t108 22.5q121 0 183.5 -72.5t62.5 -179.5q0 -103 -64 -181t-182 -78zM272 86q103 0 103 156q0 73 -26 116.5t-80 43.5q-102 0 -102 -156q0 -160 105 -160z" />
    <glyph glyph-name="oslash" unicode="&#xf8;" horiz-adv-x="548" 
d="M109 -67l-73 48l54 80q-62 69 -62 179q0 48 15 93.5t44 83t77 60t109 22.5q57 0 102 -19l59 87l74 -49l-58 -85q71 -71 71 -186q0 -103 -65 -181t-183 -78q-63 0 -111 23zM275 85q54 0 81 42.5t27 114.5q0 45 -17 76l-148 -216q23 -17 57 -17zM164 246q0 -42 14 -67
l141 212q-20 13 -47 13q-55 0 -81.5 -43t-26.5 -115z" />
    <glyph glyph-name="ugrave" unicode="&#xf9;" horiz-adv-x="598" 
d="M227 -12q-76 0 -111.5 43t-35.5 115v251q-36 4 -63 4v84q70 8 201 8l-5 -79v-245q0 -74 65 -74q50 0 100 61v241q-36 4 -67 4v84q70 8 205 8l-5 -79v-281q0 -18 2 -44q36 -4 66 -4v-85q-64 -6 -186 -6q-9 36 -9 76h-2q-65 -82 -155 -82zM250 541l-140 135h171l83 -135
h-114z" />
    <glyph glyph-name="uacute" unicode="&#xfa;" horiz-adv-x="598" 
d="M229 541l83 135h172l-140 -135h-115zM227 -12q-76 0 -111.5 43t-35.5 115v251q-36 4 -63 4v84q70 8 201 8l-5 -79v-245q0 -74 65 -74q50 0 100 61v241q-36 4 -67 4v84q70 8 205 8l-5 -79v-281q0 -18 2 -44q36 -4 66 -4v-85q-64 -6 -186 -6q-9 36 -9 76h-2
q-65 -82 -155 -82z" />
    <glyph glyph-name="ucircumflex" unicode="&#xfb;" horiz-adv-x="598" 
d="M118 542l127 159h102l125 -159h-113l-64 66l-64 -66h-113zM227 -12q-76 0 -111.5 43t-35.5 115v251q-36 4 -63 4v84q70 8 201 8l-5 -79v-245q0 -74 65 -74q50 0 100 61v241q-36 4 -67 4v84q70 8 205 8l-5 -79v-281q0 -18 2 -44q36 -4 66 -4v-85q-64 -6 -186 -6
q-9 36 -9 76h-2q-65 -82 -155 -82z" />
    <glyph glyph-name="udieresis" unicode="&#xfc;" horiz-adv-x="598" 
d="M195 548q-30 0 -50 20t-20 49q0 27 20.5 47.5t49.5 20.5q31 0 51.5 -20t20.5 -48q0 -30 -20 -49.5t-52 -19.5zM394 548q-31 0 -51 20t-20 49q0 28 20.5 48t50.5 20t50.5 -20t20.5 -48q0 -29 -20 -49t-51 -20zM227 -12q-76 0 -111.5 43t-35.5 115v251q-36 4 -63 4v84
q70 8 201 8l-5 -79v-245q0 -74 65 -74q50 0 100 61v241q-36 4 -67 4v84q70 8 205 8l-5 -79v-281q0 -18 2 -44q36 -4 66 -4v-85q-64 -6 -186 -6q-9 36 -9 76h-2q-65 -82 -155 -82z" />
    <glyph glyph-name="yacute" unicode="&#xfd;" 
d="M94 -234q-51 0 -76 9l19 104q14 -6 47 -6q49 0 72.5 20.5t38.5 63.5l15 42l-152 396q-33 3 -52 8v84h240v-84q-2 0 -52 -8l63 -176q21 -52 27 -88h2q7 36 28 87l62 177q-51 7 -55 8v84h229v-84q-14 -4 -56 -9l-174 -445q-39 -96 -85.5 -139.5t-140.5 -43.5zM218 541
l83 135h172l-140 -135h-115z" />
    <glyph glyph-name="thorn" unicode="&#xfe;" horiz-adv-x="559" 
d="M-6 -227v84q30 10 73 10v759q-48 5 -73 5v84q70 8 211 8l-6 -80v-204h2q50 60 131 60q93 0 145.5 -64.5t52.5 -184.5q0 -116 -62 -189t-157 -73q-68 0 -110 35h-2v-156q41 0 73 -10v-84h-278zM283 90q51 0 78.5 41t27.5 114q0 151 -100 151q-56 0 -90 -48v-229
q32 -29 84 -29z" />
    <glyph glyph-name="ydieresis" unicode="&#xff;" 
d="M94 -234q-51 0 -76 9l19 104q14 -6 47 -6q49 0 72.5 20.5t38.5 63.5l15 42l-152 396q-33 3 -52 8v84h240v-84q-2 0 -52 -8l63 -176q21 -52 27 -88h2q7 36 28 87l62 177q-51 7 -55 8v84h229v-84q-14 -4 -56 -9l-174 -445q-39 -96 -85.5 -139.5t-140.5 -43.5zM184 548
q-30 0 -50 20t-20 49q0 27 20 47.5t50 20.5q31 0 51.5 -20t20.5 -48q0 -30 -20 -49.5t-52 -19.5zM383 548q-31 0 -51 20t-20 49q0 28 20.5 48t50.5 20t50.5 -20t20.5 -48q0 -29 -20 -49t-51 -20z" />
    <glyph glyph-name="Amacron" unicode="&#x100;" horiz-adv-x="721" 
d="M10 0v84q26 6 59 8l232 574h124l225 -574q38 -2 61 -8v-84h-266v84q24 7 56 8l-30 85h-244l-32 -85q33 -1 57 -8v-84h-242zM260 267h177l-47 132q-21 58 -39 122h-2q-16 -55 -41 -122zM212 738v95h283v-95h-283z" />
    <glyph glyph-name="amacron" unicode="&#x101;" horiz-adv-x="513" 
d="M172 -12q-64 0 -106 36.5t-42 100.5q0 88 74 129.5t187 41.5h17v34q0 36 -18.5 52t-62.5 16q-67 0 -126 -47l-55 78q76 70 196 70q103 0 150.5 -42t47.5 -138v-207q0 -16 1 -23q36 -4 65 -4v-85q-64 -6 -183 -6q-6 19 -8 60h-2q-20 -27 -55 -46.5t-80 -19.5zM212 82
q54 0 90 43v92h-17q-133 0 -133 -80q0 -27 17.5 -41t42.5 -14zM101 562v95h283v-95h-283z" />
    <glyph glyph-name="Abreve" unicode="&#x102;" horiz-adv-x="721" 
d="M10 0v84q26 6 59 8l232 574h124l225 -574q38 -2 61 -8v-84h-266v84q24 7 56 8l-30 85h-244l-32 -85q33 -1 57 -8v-84h-242zM260 267h177l-47 132q-21 58 -39 122h-2q-16 -55 -41 -122zM354 706q-66 0 -113.5 38.5t-55.5 112.5h109q5 -65 60 -65q54 0 60 65h108
q-6 -74 -54 -112.5t-114 -38.5z" />
    <glyph glyph-name="abreve" unicode="&#x103;" horiz-adv-x="513" 
d="M172 -12q-64 0 -106 36.5t-42 100.5q0 88 74 129.5t187 41.5h17v34q0 36 -18.5 52t-62.5 16q-67 0 -126 -47l-55 78q76 70 196 70q103 0 150.5 -42t47.5 -138v-207q0 -16 1 -23q36 -4 65 -4v-85q-64 -6 -183 -6q-6 19 -8 60h-2q-20 -27 -55 -46.5t-80 -19.5zM212 82
q54 0 90 43v92h-17q-133 0 -133 -80q0 -27 17.5 -41t42.5 -14zM242 530q-66 0 -113.5 38.5t-55.5 112.5h109q5 -65 60 -65q54 0 60 65h108q-6 -74 -54 -112.5t-114 -38.5z" />
    <glyph glyph-name="Aogonek" unicode="&#x104;" horiz-adv-x="721" 
d="M10 0v84q26 6 59 8l232 574h124l225 -574q38 -2 61 -8v-84h-266v84q24 7 56 8l-30 85h-244l-32 -85q33 -1 57 -8v-84h-242zM260 267h177l-47 132q-21 58 -39 122h-2q-16 -55 -41 -122zM638 -230q-55 0 -87.5 26t-32.5 73q0 67 71 131h76q-54 -67 -54 -114q0 -45 48 -45
q19 0 41 9l16 -62q-34 -18 -78 -18z" />
    <glyph glyph-name="aogonek" unicode="&#x105;" horiz-adv-x="513" 
d="M172 -12q-64 0 -106 36.5t-42 100.5q0 88 74 129.5t187 41.5h17v34q0 36 -18.5 52t-62.5 16q-67 0 -126 -47l-55 78q76 70 196 70q103 0 150.5 -42t47.5 -138v-207q0 -16 1 -23q36 -4 65 -4v-85q-64 -6 -183 -6q-6 19 -8 60h-2q-20 -27 -55 -46.5t-80 -19.5zM212 82
q54 0 90 43v92h-17q-133 0 -133 -80q0 -27 17.5 -41t42.5 -14zM428 -230q-55 0 -87.5 26t-32.5 73q0 67 71 131h76q-54 -67 -54 -114q0 -45 48 -45q19 0 41 9l16 -62q-34 -18 -78 -18z" />
    <glyph glyph-name="Cacute" unicode="&#x106;" horiz-adv-x="669" 
d="M300 717l83 135h172l-140 -135h-115zM388 -12q-166 0 -260 94.5t-94 243.5q0 152 99.5 252t261.5 100q128 0 209 -51v-173h-103q-8 40 -10 104q-41 16 -97 16q-95 0 -153 -66.5t-58 -172.5q0 -111 58 -176.5t157 -65.5q55 0 107 20q0 73 10 115h102v-173
q-29 -27 -94.5 -47t-134.5 -20z" />
    <glyph glyph-name="cacute" unicode="&#x107;" horiz-adv-x="475" 
d="M205 541l83 135h172l-140 -135h-115zM280 -12q-119 0 -186 67t-67 180q0 123 72.5 193.5t187.5 70.5q96 0 148 -36v-154h-92q-8 37 -8 86q-17 7 -43 7q-59 0 -92 -43.5t-33 -114.5q0 -70 34 -113t96 -43q57 0 107 30l40 -86q-58 -44 -164 -44z" />
    <glyph glyph-name="Ccircumflex" unicode="&#x108;" horiz-adv-x="669" 
d="M189 718l127 159h102l125 -159h-113l-64 66l-64 -66h-113zM388 -12q-166 0 -260 94.5t-94 243.5q0 152 99.5 252t261.5 100q128 0 209 -51v-173h-103q-8 40 -10 104q-41 16 -97 16q-95 0 -153 -66.5t-58 -172.5q0 -111 58 -176.5t157 -65.5q55 0 107 20q0 73 10 115h102
v-173q-29 -27 -94.5 -47t-134.5 -20z" />
    <glyph glyph-name="ccircumflex" unicode="&#x109;" horiz-adv-x="475" 
d="M94 542l127 159h102l125 -159h-113l-64 66l-64 -66h-113zM280 -12q-119 0 -186 67t-67 180q0 123 72.5 193.5t187.5 70.5q96 0 148 -36v-154h-92q-8 37 -8 86q-17 7 -43 7q-59 0 -92 -43.5t-33 -114.5q0 -70 34 -113t96 -43q57 0 107 30l40 -86q-58 -44 -164 -44z" />
    <glyph glyph-name="Cdotaccent" unicode="&#x10a;" horiz-adv-x="669" 
d="M388 -12q-166 0 -260 94.5t-94 243.5q0 152 99.5 252t261.5 100q128 0 209 -51v-173h-103q-8 40 -10 104q-41 16 -97 16q-95 0 -153 -66.5t-58 -172.5q0 -111 58 -176.5t157 -65.5q55 0 107 20q0 73 10 115h102v-173q-29 -27 -94.5 -47t-134.5 -20zM366 732q-32 0 -53 21
t-21 51t21 50.5t53 20.5t53 -20.5t21 -50.5t-21 -51t-53 -21z" />
    <glyph glyph-name="cdotaccent" unicode="&#x10b;" horiz-adv-x="475" 
d="M280 -12q-119 0 -186 67t-67 180q0 123 72.5 193.5t187.5 70.5q96 0 148 -36v-154h-92q-8 37 -8 86q-17 7 -43 7q-59 0 -92 -43.5t-33 -114.5q0 -70 34 -113t96 -43q57 0 107 30l40 -86q-58 -44 -164 -44zM271 556q-32 0 -53 21t-21 51t21 50.5t53 20.5t53 -20.5
t21 -50.5t-21 -51t-53 -21z" />
    <glyph glyph-name="Ccaron" unicode="&#x10c;" horiz-adv-x="669" 
d="M314 717l-125 159h113l64 -66l64 66h113l-127 -159h-102zM388 -12q-166 0 -260 94.5t-94 243.5q0 152 99.5 252t261.5 100q128 0 209 -51v-173h-103q-8 40 -10 104q-41 16 -97 16q-95 0 -153 -66.5t-58 -172.5q0 -111 58 -176.5t157 -65.5q55 0 107 20q0 73 10 115h102
v-173q-29 -27 -94.5 -47t-134.5 -20z" />
    <glyph glyph-name="ccaron" unicode="&#x10d;" horiz-adv-x="475" 
d="M219 541l-125 159h113l64 -66l64 66h113l-127 -159h-102zM280 -12q-119 0 -186 67t-67 180q0 123 72.5 193.5t187.5 70.5q96 0 148 -36v-154h-92q-8 37 -8 86q-17 7 -43 7q-59 0 -92 -43.5t-33 -114.5q0 -70 34 -113t96 -43q57 0 107 30l40 -86q-58 -44 -164 -44z" />
    <glyph glyph-name="Dcaron" unicode="&#x10e;" horiz-adv-x="721" 
d="M298 717l-125 159h113l64 -66l64 66h113l-127 -159h-102zM26 0v84q36 9 79 9v480q-43 0 -79 9v84h281q191 0 286 -85.5t95 -236.5q0 -153 -98 -248.5t-288 -95.5h-276zM247 562v-458h66q112 0 169 61t57 174q0 114 -56 168.5t-175 54.5h-61z" />
    <glyph glyph-name="dcaron" unicode="&#x10f;" horiz-adv-x="578" 
d="M520 545l36 175h137l-81 -175h-92zM226 -12q-92 0 -144.5 65.5t-52.5 184.5q0 115 62 188t157 73q67 0 109 -35h2v162q-47 5 -72 5v84q70 8 210 8l-5 -80v-532q0 -8 2 -22q36 -4 67 -4v-85q-64 -6 -184 -6q-10 20 -10 61h-2q-55 -67 -139 -67zM270 90q53 0 89 48v230
q-32 30 -83 30t-78.5 -42t-27.5 -115q0 -71 25 -111t75 -40z" />
    <glyph glyph-name="Dcroat" unicode="&#x110;" horiz-adv-x="731" 
d="M50 289v99h65v185q-43 0 -79 9v84h281q191 0 286 -85.5t95 -236.5q0 -153 -98 -248.5t-288 -95.5h-276v84q36 9 79 9v196h-65zM257 562v-174h104v-99h-104v-185h66q112 0 169 61t57 174q0 114 -56 168.5t-175 54.5h-61z" />
    <glyph glyph-name="dslash" unicode="&#x111;" horiz-adv-x="578" 
d="M226 -12q-92 0 -144.5 65.5t-52.5 184.5q0 115 62 188t157 73q67 0 109 -35h2v75h-135v73h135v33q-23 5 -66 5v65q70 8 204 8l-5 -80v-25h62v-85h-62v-422q0 -8 2 -22q36 -4 67 -4v-85q-64 -6 -184 -6q-10 20 -10 61h-2q-55 -67 -139 -67zM270 90q53 0 89 48v230
q-32 30 -83 30t-78.5 -42t-27.5 -115q0 -71 25 -111t75 -40z" />
    <glyph glyph-name="Emacron" unicode="&#x112;" horiz-adv-x="603" 
d="M26 0v84q36 9 79 9v480q-43 0 -79 9v84h532v-188h-102q-3 11 -10 84h-201v-176h92q6 52 9 64h86v-224h-86q-3 10 -9 63h-92v-185h209q0 30 9 84h102v-188h-539zM156 738v95h283v-95h-283z" />
    <glyph glyph-name="emacron" unicode="&#x113;" horiz-adv-x="513" 
d="M278 -12q-120 0 -185.5 66t-65.5 182q0 122 68 192.5t180 70.5q100 0 153 -60.5t53 -162.5q0 -12 -3 -60h-310q3 -62 36.5 -97t93.5 -35q69 0 123 34l42 -82q-81 -48 -185 -48zM167 301h183q-2 109 -83 109q-89 0 -100 -109zM125 562v95h283v-95h-283z" />
    <glyph glyph-name="Ebreve" unicode="&#x114;" horiz-adv-x="603" 
d="M26 0v84q36 9 79 9v480q-43 0 -79 9v84h532v-188h-102q-3 11 -10 84h-201v-176h92q6 52 9 64h86v-224h-86q-3 10 -9 63h-92v-185h209q0 30 9 84h102v-188h-539zM298 706q-66 0 -113.5 38.5t-55.5 112.5h109q5 -65 60 -65q54 0 60 65h108q-6 -74 -54 -112.5t-114 -38.5z
" />
    <glyph glyph-name="ebreve" unicode="&#x115;" horiz-adv-x="513" 
d="M278 -12q-120 0 -185.5 66t-65.5 182q0 122 68 192.5t180 70.5q100 0 153 -60.5t53 -162.5q0 -12 -3 -60h-310q3 -62 36.5 -97t93.5 -35q69 0 123 34l42 -82q-81 -48 -185 -48zM167 301h183q-2 109 -83 109q-89 0 -100 -109zM267 530q-66 0 -113.5 38.5t-55.5 112.5h109
q5 -65 60 -65q53 0 60 65h108q-6 -74 -54 -112.5t-114 -38.5z" />
    <glyph glyph-name="Edotaccent" unicode="&#x116;" horiz-adv-x="603" 
d="M26 0v84q36 9 79 9v480q-43 0 -79 9v84h532v-188h-102q-3 11 -10 84h-201v-176h92q6 52 9 64h86v-224h-86q-3 10 -9 63h-92v-185h209q0 30 9 84h102v-188h-539zM297 732q-32 0 -53 21t-21 51t21 50.5t53 20.5t53 -20.5t21 -50.5t-21 -51t-53 -21z" />
    <glyph glyph-name="edotaccent" unicode="&#x117;" horiz-adv-x="513" 
d="M278 -12q-120 0 -185.5 66t-65.5 182q0 122 68 192.5t180 70.5q100 0 153 -60.5t53 -162.5q0 -12 -3 -60h-310q3 -62 36.5 -97t93.5 -35q69 0 123 34l42 -82q-81 -48 -185 -48zM167 301h183q-2 109 -83 109q-89 0 -100 -109zM266 556q-32 0 -53 21t-21 51t21 50.5
t53 20.5t53 -20.5t21 -50.5t-21 -51t-53 -21z" />
    <glyph glyph-name="Eogonek" unicode="&#x118;" horiz-adv-x="603" 
d="M495 -230q-55 0 -87.5 26t-32.5 73q0 67 71 131h76q-54 -67 -54 -114q0 -45 48 -45q19 0 41 9l16 -62q-34 -18 -78 -18zM26 0v84q36 9 79 9v480q-43 0 -79 9v84h532v-188h-102q-3 11 -10 84h-201v-176h92q6 52 9 64h86v-224h-86q-3 10 -9 63h-92v-185h209q0 30 9 84h102
v-188h-539z" />
    <glyph glyph-name="eogonek" unicode="&#x119;" horiz-adv-x="513" 
d="M373 -230q-55 0 -87 26t-32 73q0 61 61 122q-17 -3 -37 -3q-120 0 -185.5 66t-65.5 182q0 122 68 192.5t180 70.5q100 0 153 -60.5t53 -162.5q0 -12 -3 -60h-310q3 -62 36.5 -97t93.5 -35q69 0 123 34l42 -82q-56 -29 -86.5 -69t-30.5 -81q0 -45 49 -45q20 0 40 9l17 -62
q-34 -18 -79 -18zM167 301h183q-2 109 -83 109q-89 0 -100 -109z" />
    <glyph glyph-name="Ecaron" unicode="&#x11a;" horiz-adv-x="603" 
d="M245 717l-125 159h113l64 -66l64 66h113l-127 -159h-102zM26 0v84q36 9 79 9v480q-43 0 -79 9v84h532v-188h-102q-3 11 -10 84h-201v-176h92q6 52 9 64h86v-224h-86q-3 10 -9 63h-92v-185h209q0 30 9 84h102v-188h-539z" />
    <glyph glyph-name="ecaron" unicode="&#x11b;" horiz-adv-x="513" 
d="M214 541l-125 159h113l64 -66l64 66h113l-127 -159h-102zM278 -12q-120 0 -185.5 66t-65.5 182q0 122 68 192.5t180 70.5q100 0 153 -60.5t53 -162.5q0 -12 -3 -60h-310q3 -62 36.5 -97t93.5 -35q69 0 123 34l42 -82q-81 -48 -185 -48zM167 301h183q-2 109 -83 109
q-89 0 -100 -109z" />
    <glyph glyph-name="Gcircumflex" unicode="&#x11c;" horiz-adv-x="738" 
d="M209 718l127 159h102l125 -159h-113l-64 66l-64 -66h-113zM388 -12q-169 0 -261.5 95.5t-92.5 241.5q0 154 101 253.5t267 99.5q147 0 229 -57v-170h-103q-9 27 -9 98q-54 25 -119 25q-101 0 -159 -67t-58 -172q0 -109 57.5 -176t157.5 -67q76 0 114 25v114q-50 2 -85 10
v84h289v-83q-31 -10 -66 -11v-180q-96 -63 -262 -63z" />
    <glyph glyph-name="gcircumflex" unicode="&#x11d;" horiz-adv-x="534" 
d="M73 542l127 159h102l125 -159h-113l-64 66l-64 -66h-113zM233 -239q-103 0 -158 34t-55 98q0 76 94 117v2q-48 28 -48 77q0 56 62 90v2q-90 48 -90 146q0 77 56.5 124.5t155.5 47.5q48 0 86 -12h177v-87h-70q21 -34 21 -73q0 -79 -55 -126t-153 -47q-23 0 -55 5
q-21 -12 -21 -32t23 -28t80 -10q111 -6 154 -23q76 -31 76 -119q0 -82 -77.5 -134t-202.5 -52zM249 -154q60 0 96.5 22.5t36.5 56.5q0 23 -16.5 35.5t-34 15t-60.5 5.5q-9 1 -13 1q-35 2 -65 6q-44 -28 -44 -73q0 -69 100 -69zM250 237q39 0 62 24t23 66t-23 65.5t-62 23.5
q-38 0 -60.5 -23.5t-22.5 -65.5t22 -66t61 -24z" />
    <glyph glyph-name="Gbreve" unicode="&#x11e;" horiz-adv-x="738" 
d="M388 -12q-169 0 -261.5 95.5t-92.5 241.5q0 154 101 253.5t267 99.5q147 0 229 -57v-170h-103q-9 27 -9 98q-54 25 -119 25q-101 0 -159 -67t-58 -172q0 -109 57.5 -176t157.5 -67q76 0 114 25v114q-50 2 -85 10v84h289v-83q-31 -10 -66 -11v-180q-96 -63 -262 -63z
M386 706q-66 0 -113.5 38.5t-55.5 112.5h109q5 -65 60 -65q54 0 60 65h108q-6 -74 -54 -112.5t-114 -38.5z" />
    <glyph glyph-name="gbreve" unicode="&#x11f;" horiz-adv-x="534" 
d="M233 -239q-103 0 -158 34t-55 98q0 76 94 117v2q-48 28 -48 77q0 56 62 90v2q-90 48 -90 146q0 77 56.5 124.5t155.5 47.5q48 0 86 -12h177v-87h-70q21 -34 21 -73q0 -79 -55 -126t-153 -47q-23 0 -55 5q-21 -12 -21 -32t23 -28t80 -10q111 -6 154 -23q76 -31 76 -119
q0 -82 -77.5 -134t-202.5 -52zM249 -154q60 0 96.5 22.5t36.5 56.5q0 23 -16.5 35.5t-34 15t-60.5 5.5q-9 1 -13 1q-35 2 -65 6q-44 -28 -44 -73q0 -69 100 -69zM250 237q39 0 62 24t23 66t-23 65.5t-62 23.5q-38 0 -60.5 -23.5t-22.5 -65.5t22 -66t61 -24zM250 530
q-66 0 -113.5 38.5t-55.5 112.5h109q5 -65 60 -65q54 0 60 65h108q-6 -74 -54 -112.5t-114 -38.5z" />
    <glyph glyph-name="Gdotaccent" unicode="&#x120;" horiz-adv-x="738" 
d="M388 -12q-169 0 -261.5 95.5t-92.5 241.5q0 154 101 253.5t267 99.5q147 0 229 -57v-170h-103q-9 27 -9 98q-54 25 -119 25q-101 0 -159 -67t-58 -172q0 -109 57.5 -176t157.5 -67q76 0 114 25v114q-50 2 -85 10v84h289v-83q-31 -10 -66 -11v-180q-96 -63 -262 -63z
M386 732q-32 0 -53 21t-21 51t21 50.5t53 20.5t53 -20.5t21 -50.5t-21 -51t-53 -21z" />
    <glyph glyph-name="gdotaccent" unicode="&#x121;" horiz-adv-x="534" 
d="M233 -239q-103 0 -158 34t-55 98q0 76 94 117v2q-48 28 -48 77q0 56 62 90v2q-90 48 -90 146q0 77 56.5 124.5t155.5 47.5q48 0 86 -12h177v-87h-70q21 -34 21 -73q0 -79 -55 -126t-153 -47q-23 0 -55 5q-21 -12 -21 -32t23 -28t80 -10q111 -6 154 -23q76 -31 76 -119
q0 -82 -77.5 -134t-202.5 -52zM249 -154q60 0 96.5 22.5t36.5 56.5q0 23 -16.5 35.5t-34 15t-60.5 5.5q-9 1 -13 1q-35 2 -65 6q-44 -28 -44 -73q0 -69 100 -69zM250 237q39 0 62 24t23 66t-23 65.5t-62 23.5q-38 0 -60.5 -23.5t-22.5 -65.5t22 -66t61 -24zM250 556
q-32 0 -53 21t-21 51t21 50.5t53 20.5t53 -20.5t21 -50.5t-21 -51t-53 -21z" />
    <glyph glyph-name="Gcommaaccent" unicode="&#x122;" horiz-adv-x="738" 
d="M382 -37q31 0 52.5 -19.5t21.5 -52.5q0 -68 -90 -133l-45 31l6 5q6 5 7.5 6.5t5.5 6.5t5.5 8.5t3 8.5t1.5 11q0 14 -16 33.5t-16 41.5q0 23 18.5 38t45.5 15zM388 -12q-169 0 -261.5 95.5t-92.5 241.5q0 154 101 253.5t267 99.5q147 0 229 -57v-170h-103q-9 27 -9 98
q-54 25 -119 25q-101 0 -159 -67t-58 -172q0 -109 57.5 -176t157.5 -67q76 0 114 25v114q-50 2 -85 10v84h289v-83q-31 -10 -66 -11v-180q-96 -63 -262 -63z" />
    <glyph glyph-name="gcommaaccent" unicode="&#x123;" horiz-adv-x="534" 
d="M256 536q-31 0 -52.5 19.5t-21.5 52.5q0 65 90 133l45 -31l-6 -5q-6 -5 -7.5 -6.5t-5.5 -6.5t-5.5 -8.5t-3 -8.5t-1.5 -11q0 -13 16 -32.5t16 -42.5t-18.5 -38t-45.5 -15zM233 -239q-103 0 -158 34t-55 98q0 76 94 117v2q-48 28 -48 77q0 56 62 90v2q-90 48 -90 146
q0 77 56.5 124.5t155.5 47.5q48 0 86 -12h177v-87h-70q21 -34 21 -73q0 -79 -55 -126t-153 -47q-23 0 -55 5q-21 -12 -21 -32t23 -28t80 -10q111 -6 154 -23q76 -31 76 -119q0 -82 -77.5 -134t-202.5 -52zM249 -154q60 0 96.5 22.5t36.5 56.5q0 23 -16.5 35.5t-34 15
t-60.5 5.5q-9 1 -13 1q-35 2 -65 6q-44 -28 -44 -73q0 -69 100 -69zM250 237q39 0 62 24t23 66t-23 65.5t-62 23.5q-38 0 -60.5 -23.5t-22.5 -65.5t22 -66t61 -24z" />
    <glyph glyph-name="Hcircumflex" unicode="&#x124;" horiz-adv-x="797" 
d="M221 718l127 159h102l125 -159h-113l-64 66l-64 -66h-113zM26 0v84q36 9 79 9v480q-43 0 -79 9v84h294v-84q-21 -9 -73 -9v-176h304v176q-44 0 -73 9v84h292v-84q-38 -9 -78 -9v-480q31 0 79 -9v-84h-293v84q34 9 73 9v201h-304v-201q28 0 73 -9v-84h-294z" />
    <glyph glyph-name="hcircumflex" unicode="&#x125;" horiz-adv-x="601" 
d="M17 0v84q34 9 69 9v533q-48 5 -73 5v84q70 8 211 8l-5 -80v-219h2q56 75 149 75q76 0 111.5 -42.5t35.5 -115.5v-248q39 0 68 -9v-84h-201v318q0 74 -66 74q-55 0 -99 -61v-238q35 -1 65 -9v-84h-267zM126 775l127 159h102l125 -159h-113l-64 66l-64 -66h-113z" />
    <glyph glyph-name="Itilde" unicode="&#x128;" horiz-adv-x="353" 
d="M26 0v84q36 9 79 9v480q-43 0 -79 9v84h299v-84q-36 -9 -78 -9v-480q44 0 80 -9v-84h-301zM237 722q-33 0 -67 17.5t-51 17.5q-24 0 -54 -30l-61 53q17 30 46.5 52.5t66.5 22.5q33 0 66.5 -17.5t51.5 -17.5q31 0 56 31l61 -53q-46 -76 -115 -76z" />
    <glyph glyph-name="itilde" unicode="&#x129;" horiz-adv-x="318" 
d="M25 0v84q34 9 73 9v304q-39 4 -73 4v84q70 8 212 8l-5 -79v-321q12 0 19 -1l21 -2q9 -1 20.5 -3.5t12.5 -2.5v-84h-280zM225 546q-33 0 -66.5 17.5t-51.5 17.5q-24 0 -54 -30l-61 53q17 30 46.5 52.5t66.5 22.5q33 0 66.5 -17.5t51.5 -17.5q31 0 56 31l61 -53
q-46 -76 -115 -76z" />
    <glyph glyph-name="Imacron" unicode="&#x12a;" horiz-adv-x="353" 
d="M26 0v84q36 9 79 9v480q-43 0 -79 9v84h299v-84q-36 -9 -78 -9v-480q44 0 80 -9v-84h-301zM37 738v95h283v-95h-283z" />
    <glyph glyph-name="imacron" unicode="&#x12b;" horiz-adv-x="318" 
d="M25 0v84q34 9 73 9v304q-39 4 -73 4v84q70 8 212 8l-5 -79v-321q12 0 19 -1l21 -2q9 -1 20.5 -3.5t12.5 -2.5v-84h-280zM25 562v95h283v-95h-283z" />
    <glyph glyph-name="Ibreve" unicode="&#x12c;" horiz-adv-x="353" 
d="M26 0v84q36 9 79 9v480q-43 0 -79 9v84h299v-84q-36 -9 -78 -9v-480q44 0 80 -9v-84h-301zM178 706q-66 0 -113.5 38.5t-55.5 112.5h109q5 -65 60 -65q54 0 60 65h108q-6 -74 -54 -112.5t-114 -38.5z" />
    <glyph glyph-name="ibreve" unicode="&#x12d;" horiz-adv-x="318" 
d="M25 0v84q34 9 73 9v304q-39 4 -73 4v84q70 8 212 8l-5 -79v-321q12 0 19 -1l21 -2q9 -1 20.5 -3.5t12.5 -2.5v-84h-280zM167 530q-66 0 -113.5 38.5t-55.5 112.5h109q5 -65 60 -65q53 0 60 65h108q-6 -74 -54 -112.5t-114 -38.5z" />
    <glyph glyph-name="Iogonek" unicode="&#x12e;" horiz-adv-x="353" 
d="M26 0v84q36 9 79 9v480q-43 0 -79 9v84h299v-84q-36 -9 -78 -9v-480q44 0 80 -9v-84h-301zM199 -230q-55 0 -87.5 26t-32.5 73q0 67 71 131h76q-54 -67 -54 -114q0 -45 48 -45q19 0 41 9l16 -62q-34 -18 -78 -18z" />
    <glyph glyph-name="iogonek" unicode="&#x12f;" horiz-adv-x="318" 
d="M25 0v84q34 9 73 9v304q-39 4 -73 4v84q70 8 212 8l-5 -79v-321q39 0 68 -9v-84h-275zM165 554q-35 0 -58.5 23.5t-23.5 56.5t23.5 55.5t58.5 22.5t58 -22.5t23 -55.5t-23 -56.5t-58 -23.5zM187 -230q-55 0 -87.5 26t-32.5 73q0 67 71 131h76q-54 -67 -54 -114
q0 -45 48 -45q19 0 41 9l16 -62q-34 -18 -78 -18z" />
    <glyph glyph-name="Idot" unicode="&#x130;" horiz-adv-x="353" 
d="M26 0v84q36 9 79 9v480q-43 0 -79 9v84h299v-84q-36 -9 -78 -9v-480q44 0 80 -9v-84h-301zM178 732q-32 0 -53 21t-21 51t21 50.5t53 20.5t53 -20.5t21 -50.5t-21 -51t-53 -21z" />
    <glyph glyph-name="dotlessi" unicode="&#x131;" horiz-adv-x="318" 
d="M25 0v84q34 9 73 9v304q-39 4 -73 4v84q70 8 212 8l-5 -79v-321q12 0 19 -1l21 -2q9 -1 20.5 -3.5t12.5 -2.5v-84h-280z" />
    <glyph glyph-name="Kcommaaccent" unicode="&#x136;" horiz-adv-x="694" 
d="M350 -37q31 0 52.5 -19.5t21.5 -52.5q0 -68 -90 -133l-45 31l6 5q6 5 7.5 6.5t5.5 6.5t5.5 8.5t3 8.5t1.5 11q0 14 -16 33.5t-16 41.5q0 23 18.5 38t45.5 15zM402 0v84q13 4 51 9l-207 242v-241q41 -2 66 -10v-84h-286v84q36 9 79 9v480q-43 0 -79 9v84h285v-84
q-23 -8 -65 -10v-230l198 232q-47 7 -51 8v84h273v-84q-19 -7 -74 -9l-197 -217l229 -263q34 -1 64 -9v-84h-286z" />
    <glyph glyph-name="kcommaaccent" unicode="&#x137;" horiz-adv-x="561" 
d="M304 -37q31 0 52.5 -19.5t21.5 -52.5q0 -68 -90 -133l-45 31l6 5q6 5 7.5 6.5t5.5 6.5t5.5 8.5t3 8.5t1.5 11q0 14 -16 33.5t-16 41.5q0 23 18.5 38t45.5 15zM17 0v84q34 9 69 9v533q-48 5 -73 5v84q70 8 211 8l-5 -80v-550q32 0 59 -9v-84h-261zM403 0l-183 249l126 150
q-32 2 -44 7v81h247v-84q-8 -3 -66 -9l-120 -131l135 -171q47 -5 57 -8v-84h-152z" />
    <glyph glyph-name="Lacute" unicode="&#x139;" horiz-adv-x="555" 
d="M112 717l83 135h172l-140 -135h-115zM26 0v84q36 9 79 9v480q-43 0 -79 9v84h300v-84q-36 -9 -79 -9v-467h173q0 74 9 101h101v-207h-504z" />
    <glyph glyph-name="lacute" unicode="&#x13a;" horiz-adv-x="304" 
d="M87 773l83 135h172l-140 -135h-115zM17 0v84q34 9 69 9v533q-48 5 -73 5v84q70 8 211 8l-5 -80v-550q34 0 68 -9v-84h-270z" />
    <glyph glyph-name="Lcommaaccent" unicode="&#x13b;" horiz-adv-x="555" 
d="M302 -37q31 0 52.5 -19.5t21.5 -52.5q0 -68 -90 -133l-45 31l6 5q6 5 7.5 6.5t5.5 6.5t5.5 8.5t3 8.5t1.5 11q0 14 -16 33.5t-16 41.5q0 23 18.5 38t45.5 15zM26 0v84q36 9 79 9v480q-43 0 -79 9v84h300v-84q-36 -9 -79 -9v-467h173q0 74 9 101h101v-207h-504z" />
    <glyph glyph-name="lcommaaccent" unicode="&#x13c;" horiz-adv-x="304" 
d="M149 -37q31 0 52.5 -19.5t21.5 -52.5q0 -68 -90 -133l-45 31l6 5q6 5 7.5 6.5t5.5 6.5t5.5 8.5t3 8.5t1.5 11q0 14 -16 33.5t-16 41.5q0 23 18.5 38t45.5 15zM17 0v84q34 9 69 9v533q-48 5 -73 5v84q70 8 211 8l-5 -80v-550q34 0 68 -9v-84h-270z" />
    <glyph glyph-name="Lcaron" unicode="&#x13d;" horiz-adv-x="555" 
d="M355 492l36 175h137l-81 -175h-92zM26 0v84q36 9 79 9v480q-43 0 -79 9v84h300v-84q-36 -9 -79 -9v-467h173q0 74 9 101h101v-207h-504z" />
    <glyph glyph-name="lcaron" unicode="&#x13e;" horiz-adv-x="304" 
d="M246 545l36 175h137l-81 -175h-92zM17 0v84q34 9 69 9v533q-48 5 -73 5v84q70 8 211 8l-5 -80v-550q34 0 68 -9v-84h-270z" />
    <glyph glyph-name="Ldot" unicode="&#x13f;" horiz-adv-x="555" 
d="M26 0v84q36 9 79 9v480q-43 0 -79 9v84h300v-84q-36 -9 -79 -9v-467h173q0 74 9 101h101v-207h-504zM407 321q-32 0 -53 21t-21 51t21 50.5t53 20.5t53 -20.5t21 -50.5t-21 -51t-53 -21z" />
    <glyph glyph-name="ldot" unicode="&#x140;" horiz-adv-x="372" 
d="M17 0v84q34 9 69 9v533q-48 5 -73 5v84q70 8 211 8l-5 -80v-550q34 0 68 -9v-84h-270zM338 243q-32 0 -53 21t-21 51t21 50.5t53 20.5t53 -20.5t21 -50.5t-21 -51t-53 -21z" />
    <glyph glyph-name="Lslash" unicode="&#x141;" horiz-adv-x="564" 
d="M58 198l-48 71l104 70v234q-43 0 -79 9v84h300v-84q-36 -9 -79 -9v-138l98 67l49 -71l-147 -99v-226h173q0 74 9 101h101v-207h-504v84q36 9 79 9v143z" />
    <glyph glyph-name="lslash" unicode="&#x142;" horiz-adv-x="320" 
d="M28 202v101l66 44v279q-48 5 -73 5v84q70 8 211 8l-5 -80v-208l65 44v-102l-65 -43v-241q34 0 68 -9v-84h-270v84q34 9 69 9v152z" />
    <glyph glyph-name="Nacute" unicode="&#x143;" horiz-adv-x="786" 
d="M332 717l83 135h172l-140 -135h-115zM26 0v84q36 9 79 9v480q-43 0 -79 9v84h212l256 -350q58 -80 76 -114h2q-4 20 -4 111v260q-42 0 -76 9v84h272v-84q-36 -9 -76 -9v-573h-120l-275 374q-60 81 -70 106h-2q3 -39 3 -95v-292q41 0 79 -9v-84h-277z" />
    <glyph glyph-name="nacute" unicode="&#x144;" horiz-adv-x="613" 
d="M25 0v84q34 9 73 9v304q-39 4 -73 4v84q70 8 206 8l-4 -73h2q57 79 153 79q76 0 111.5 -42.5t35.5 -115.5v-248q39 0 68 -9v-84h-201v318q0 74 -66 74q-55 0 -99 -61v-238q43 -2 65 -9v-84h-271zM240 541l83 135h172l-140 -135h-115z" />
    <glyph glyph-name="Ncommaaccent" unicode="&#x145;" horiz-adv-x="786" 
d="M394 -37q31 0 52.5 -19.5t21.5 -52.5q0 -68 -90 -133l-45 31l6 5q6 5 7.5 6.5t5.5 6.5t5.5 8.5t3 8.5t1.5 11q0 14 -16 33.5t-16 41.5q0 23 18.5 38t45.5 15zM26 0v84q36 9 79 9v480q-43 0 -79 9v84h212l256 -350q58 -80 76 -114h2q-4 20 -4 111v260q-42 0 -76 9v84h272
v-84q-36 -9 -76 -9v-573h-120l-275 374q-60 81 -70 106h-2q3 -39 3 -95v-292q41 0 79 -9v-84h-277z" />
    <glyph glyph-name="ncommaaccent" unicode="&#x146;" horiz-adv-x="613" 
d="M307 -37q31 0 52.5 -19.5t21.5 -52.5q0 -68 -90 -133l-45 31l6 5q6 5 7.5 6.5t5.5 6.5t5.5 8.5t3 8.5t1.5 11q0 14 -16 33.5t-16 41.5q0 23 18.5 38t45.5 15zM25 0v84q34 9 73 9v304q-39 4 -73 4v84q70 8 206 8l-4 -73h2q57 79 153 79q76 0 111.5 -42.5t35.5 -115.5v-248
q39 0 68 -9v-84h-201v318q0 74 -66 74q-55 0 -99 -61v-238q43 -2 65 -9v-84h-271z" />
    <glyph glyph-name="Ncaron" unicode="&#x147;" horiz-adv-x="786" 
d="M346 717l-125 159h113l64 -66l64 66h113l-127 -159h-102zM26 0v84q36 9 79 9v480q-43 0 -79 9v84h212l256 -350q58 -80 76 -114h2q-4 20 -4 111v260q-42 0 -76 9v84h272v-84q-36 -9 -76 -9v-573h-120l-275 374q-60 81 -70 106h-2q3 -39 3 -95v-292q41 0 79 -9v-84h-277z
" />
    <glyph glyph-name="ncaron" unicode="&#x148;" horiz-adv-x="613" 
d="M25 0v84q34 9 73 9v304q-39 4 -73 4v84q70 8 206 8l-4 -73h2q57 79 153 79q76 0 111.5 -42.5t35.5 -115.5v-248q39 0 68 -9v-84h-201v318q0 74 -66 74q-55 0 -99 -61v-238q43 -2 65 -9v-84h-271zM254 541l-125 159h113l64 -66l64 66h113l-127 -159h-102z" />
    <glyph glyph-name="napostrophe" unicode="&#x149;" horiz-adv-x="847" 
d="M119 678q38 0 60 -24.5t22 -66.5q0 -99 -133 -216l-46 42q54 54 54 95q0 18 -17 45t-17 52q0 32 22 52.5t55 20.5zM259 0v84q34 9 73 9v304q-39 4 -73 4v84q70 8 206 8l-4 -73h2q57 79 153 79q76 0 111.5 -42.5t35.5 -115.5v-248q39 0 68 -9v-84h-201v318q0 74 -66 74
q-55 0 -99 -61v-238q43 -2 65 -9v-84h-271z" />
    <glyph glyph-name="Omacron" unicode="&#x14c;" horiz-adv-x="754" 
d="M235 738v95h283v-95h-283zM380 -12q-162 0 -254 97t-92 241q0 146 91.5 249t251.5 103q162 0 252.5 -95.5t90.5 -240.5q0 -70 -22 -133t-63.5 -112.5t-107.5 -79t-147 -29.5zM377 92q95 0 145 68t50 172q0 105 -49 173.5t-143 68.5q-95 0 -146 -67.5t-51 -170.5
q0 -105 50 -174.5t144 -69.5z" />
    <glyph glyph-name="omacron" unicode="&#x14d;" horiz-adv-x="543" 
d="M128 562v95h283v-95h-283zM270 -12q-120 0 -181.5 73t-61.5 179q0 48 15 93t43.5 83t76.5 60.5t108 22.5q121 0 183.5 -72.5t62.5 -179.5q0 -103 -64 -181t-182 -78zM272 86q103 0 103 156q0 73 -26 116.5t-80 43.5q-102 0 -102 -156q0 -160 105 -160z" />
    <glyph glyph-name="Obreve" unicode="&#x14e;" horiz-adv-x="754" 
d="M380 -12q-162 0 -254 97t-92 241q0 146 91.5 249t251.5 103q162 0 252.5 -95.5t90.5 -240.5q0 -70 -22 -133t-63.5 -112.5t-107.5 -79t-147 -29.5zM377 92q95 0 145 68t50 172q0 105 -49 173.5t-143 68.5q-95 0 -146 -67.5t-51 -170.5q0 -105 50 -174.5t144 -69.5z
M377 706q-66 0 -113.5 38.5t-55.5 112.5h109q5 -65 60 -65q53 0 60 65h108q-6 -74 -54 -112.5t-114 -38.5z" />
    <glyph glyph-name="obreve" unicode="&#x14f;" horiz-adv-x="543" 
d="M270 -12q-120 0 -181.5 73t-61.5 179q0 48 15 93t43.5 83t76.5 60.5t108 22.5q121 0 183.5 -72.5t62.5 -179.5q0 -103 -64 -181t-182 -78zM272 86q103 0 103 156q0 73 -26 116.5t-80 43.5q-102 0 -102 -156q0 -160 105 -160zM270 530q-66 0 -113.5 38.5t-55.5 112.5h109
q5 -65 60 -65q54 0 60 65h108q-6 -74 -54 -112.5t-114 -38.5z" />
    <glyph glyph-name="Ohungarumlaut" unicode="&#x150;" horiz-adv-x="754" 
d="M212 717l92 135h154l-140 -135h-106zM414 717l92 135h154l-140 -135h-106zM380 -12q-162 0 -254 97t-92 241q0 146 91.5 249t251.5 103q162 0 252.5 -95.5t90.5 -240.5q0 -70 -22 -133t-63.5 -112.5t-107.5 -79t-147 -29.5zM377 92q95 0 145 68t50 172q0 105 -49 173.5
t-143 68.5q-95 0 -146 -67.5t-51 -170.5q0 -105 50 -174.5t144 -69.5z" />
    <glyph glyph-name="ohungarumlaut" unicode="&#x151;" horiz-adv-x="543" 
d="M105 541l92 135h154l-140 -135h-106zM307 541l92 135h154l-140 -135h-106zM270 -12q-120 0 -181.5 73t-61.5 179q0 48 15 93t43.5 83t76.5 60.5t108 22.5q121 0 183.5 -72.5t62.5 -179.5q0 -103 -64 -181t-182 -78zM272 86q103 0 103 156q0 73 -26 116.5t-80 43.5
q-102 0 -102 -156q0 -160 105 -160z" />
    <glyph glyph-name="OE" unicode="&#x152;" horiz-adv-x="943" 
d="M380 -12q-108 0 -188 49t-119 126t-39 169q0 144 91.5 245t251.5 101q48 0 101 -12h420v-188h-103q-7 37 -9 84h-175v-175h86q5 50 9 67h90v-230h-90q-3 14 -9 66h-86v-186h183q0 36 8 84h103v-188h-421q-50 -12 -104 -12zM377 97q53 0 95 20v431q-40 21 -92 21
q-95 0 -146 -67t-51 -166q0 -101 50 -170t144 -69z" />
    <glyph glyph-name="oe" unicode="&#x153;" horiz-adv-x="857" 
d="M270 -12q-120 0 -181.5 73t-61.5 179q0 48 15 93t43.5 83t76.5 60.5t108 22.5q113 0 175 -74q65 74 174 74q100 0 153 -60.5t53 -162.5q0 -44 -3 -60h-309q2 -62 36 -97t94 -35q69 0 123 34l41 -82q-81 -48 -184 -48q-116 0 -182 76q-67 -76 -171 -76zM272 86
q103 0 103 156q0 73 -26 116.5t-80 43.5q-102 0 -102 -156q0 -160 105 -160zM611 410q-88 0 -99 -109h182q0 49 -20 79t-63 30z" />
    <glyph glyph-name="Racute" unicode="&#x154;" horiz-adv-x="662" 
d="M260 717l83 135h172l-140 -135h-115zM26 0v84q36 9 79 9v480q-43 0 -79 9v84h308q120 0 183.5 -47.5t63.5 -140.5q0 -74 -43.5 -119.5t-110.5 -55.5v-2q34 -19 82 -91l47 -71q19 -29 39 -42t53 -13h9v-84q-30 -10 -73 -10q-55 0 -85.5 16.5t-56.5 60.5l-74 123
q-32 54 -53 70t-52 16h-16v-183q28 -1 68 -9v-84h-289zM247 369h80q109 0 109 99q0 50 -27.5 74t-87.5 24h-74v-197z" />
    <glyph glyph-name="racute" unicode="&#x155;" horiz-adv-x="422" 
d="M182 541l83 135h172l-140 -135h-115zM25 0v84q34 9 73 9v304q-39 4 -73 4v84q70 8 207 8l-5 -84h2q17 35 50.5 62.5t74.5 27.5q46 0 66 -13l-31 -115q-19 12 -52 12q-36 0 -65 -23.5t-41 -46.5v-220q13 0 21 -1l24 -2l22 -3l15 -3v-84h-288z" />
    <glyph glyph-name="Rcommaaccent" unicode="&#x156;" horiz-adv-x="662" 
d="M353 -37q31 0 52.5 -19.5t21.5 -52.5q0 -68 -90 -133l-45 31l6 5q6 5 7.5 6.5t5.5 6.5t5.5 8.5t3 8.5t1.5 11q0 14 -16 33.5t-16 41.5q0 23 18.5 38t45.5 15zM26 0v84q36 9 79 9v480q-43 0 -79 9v84h308q120 0 183.5 -47.5t63.5 -140.5q0 -74 -43.5 -119.5t-110.5 -55.5
v-2q34 -19 82 -91l47 -71q19 -29 39 -42t53 -13h9v-84q-30 -10 -73 -10q-55 0 -85.5 16.5t-56.5 60.5l-74 123q-32 54 -53 70t-52 16h-16v-183q28 -1 68 -9v-84h-289zM247 369h80q109 0 109 99q0 50 -27.5 74t-87.5 24h-74v-197z" />
    <glyph glyph-name="rcommaaccent" unicode="&#x157;" horiz-adv-x="422" 
d="M161 -37q31 0 52.5 -19.5t21.5 -52.5q0 -68 -90 -133l-45 31l6 5q6 5 7.5 6.5t5.5 6.5t5.5 8.5t3 8.5t1.5 11q0 14 -16 33.5t-16 41.5q0 23 18.5 38t45.5 15zM25 0v84q34 9 73 9v304q-39 4 -73 4v84q70 8 207 8l-5 -84h2q17 35 50.5 62.5t74.5 27.5q46 0 66 -13l-31 -115
q-19 12 -52 12q-36 0 -65 -23.5t-41 -46.5v-220q13 0 21 -1l24 -2l22 -3l15 -3v-84h-288z" />
    <glyph glyph-name="Rcaron" unicode="&#x158;" horiz-adv-x="662" 
d="M274 717l-125 159h113l64 -66l64 66h113l-127 -159h-102zM26 0v84q36 9 79 9v480q-43 0 -79 9v84h308q120 0 183.5 -47.5t63.5 -140.5q0 -74 -43.5 -119.5t-110.5 -55.5v-2q34 -19 82 -91l47 -71q19 -29 39 -42t53 -13h9v-84q-30 -10 -73 -10q-55 0 -85.5 16.5
t-56.5 60.5l-74 123q-32 54 -53 70t-52 16h-16v-183q28 -1 68 -9v-84h-289zM247 369h80q109 0 109 99q0 50 -27.5 74t-87.5 24h-74v-197z" />
    <glyph glyph-name="rcaron" unicode="&#x159;" horiz-adv-x="422" 
d="M198 541l-125 159h113l64 -66l64 66h113l-127 -159h-102zM25 0v84q34 9 73 9v304q-39 4 -73 4v84q70 8 207 8l-5 -84h2q17 35 50.5 62.5t74.5 27.5q46 0 66 -13l-31 -115q-19 12 -52 12q-36 0 -65 -23.5t-41 -46.5v-220q13 0 21 -1l24 -2l22 -3l15 -3v-84h-288z" />
    <glyph glyph-name="Sacute" unicode="&#x15a;" horiz-adv-x="537" 
d="M206 717l83 135h172l-140 -135h-115zM258 -12q-72 0 -133 15t-84 34v163h103q5 -28 7 -93q47 -14 102 -14q52 0 81.5 24t29.5 59q0 41 -33 63.5t-103 47.5q-89 30 -134.5 74.5t-45.5 130.5q0 85 63.5 135.5t164.5 50.5q71 0 125 -14t78 -32v-163h-102q-7 37 -7 92
q-47 14 -93 14q-44 0 -70 -20.5t-26 -54.5q0 -37 27 -57.5t91 -43.5q38 -15 62 -25.5t53 -29t45.5 -38t28 -50t11.5 -67.5q0 -91 -65.5 -146t-175.5 -55z" />
    <glyph glyph-name="sacute" unicode="&#x15b;" horiz-adv-x="471" 
d="M167 541l83 135h172l-140 -135h-115zM223 -12q-122 0 -183 36v132h94q0 -2 2.5 -28t2.5 -33q46 -13 84 -13q86 0 86 49q0 7 -1.5 12.5t-6 10.5t-8 8.5t-11.5 7.5t-13 6t-15.5 5.5t-16 5t-18.5 5t-18 5.5q-33 9 -56 18t-48 26t-38 45.5t-13 66.5q0 71 51 108.5t144 37.5
q57 0 107 -11t69 -23v-130h-94q-4 15 -6 61q-46 10 -73 10q-79 0 -79 -47q0 -23 23 -35t74 -25q10 -3 15 -4q28 -8 45.5 -14t41 -18.5t36.5 -26.5t23 -37.5t10 -52.5q0 -75 -57.5 -116.5t-152.5 -41.5z" />
    <glyph glyph-name="Scircumflex" unicode="&#x15c;" horiz-adv-x="537" 
d="M95 718l127 159h102l125 -159h-113l-64 66l-64 -66h-113zM258 -12q-72 0 -133 15t-84 34v163h103q5 -28 7 -93q47 -14 102 -14q52 0 81.5 24t29.5 59q0 41 -33 63.5t-103 47.5q-89 30 -134.5 74.5t-45.5 130.5q0 85 63.5 135.5t164.5 50.5q71 0 125 -14t78 -32v-163h-102
q-7 37 -7 92q-47 14 -93 14q-44 0 -70 -20.5t-26 -54.5q0 -37 27 -57.5t91 -43.5q38 -15 62 -25.5t53 -29t45.5 -38t28 -50t11.5 -67.5q0 -91 -65.5 -146t-175.5 -55z" />
    <glyph glyph-name="scircumflex" unicode="&#x15d;" horiz-adv-x="471" 
d="M58 542l127 159h102l125 -159h-113l-64 66l-64 -66h-113zM223 -12q-122 0 -183 36v132h94q0 -2 2.5 -28t2.5 -33q46 -13 84 -13q86 0 86 49q0 7 -1.5 12.5t-6 10.5t-8 8.5t-11.5 7.5t-13 6t-15.5 5.5t-16 5t-18.5 5t-18 5.5q-33 9 -56 18t-48 26t-38 45.5t-13 66.5
q0 71 51 108.5t144 37.5q57 0 107 -11t69 -23v-130h-94q-4 15 -6 61q-46 10 -73 10q-79 0 -79 -47q0 -23 23 -35t74 -25q10 -3 15 -4q28 -8 45.5 -14t41 -18.5t36.5 -26.5t23 -37.5t10 -52.5q0 -75 -57.5 -116.5t-152.5 -41.5z" />
    <glyph glyph-name="Scedilla" unicode="&#x15e;" horiz-adv-x="537" 
d="M258 -12q-72 0 -133 15t-84 34v163h103q5 -28 7 -93q47 -14 102 -14q52 0 81.5 24t29.5 59q0 41 -33 63.5t-103 47.5q-89 30 -134.5 74.5t-45.5 130.5q0 85 63.5 135.5t164.5 50.5q71 0 125 -14t78 -32v-163h-102q-7 37 -7 92q-47 14 -93 14q-44 0 -70 -20.5t-26 -54.5
q0 -37 27 -57.5t91 -43.5q38 -15 62 -25.5t53 -29t45.5 -38t28 -50t11.5 -67.5q0 -91 -65.5 -146t-175.5 -55zM243 -230q-54 0 -82 15l17 60q24 -11 51 -11q48 0 48 34q0 38 -60 38h-11l36 97h76l-21 -58q32 -7 51.5 -28.5t19.5 -53.5q0 -42 -34.5 -67.5t-90.5 -25.5z" />
    <glyph glyph-name="scedilla" unicode="&#x15f;" horiz-adv-x="471" 
d="M223 -12q-122 0 -183 36v132h94q0 -2 2.5 -28t2.5 -33q46 -13 84 -13q86 0 86 49q0 7 -1.5 12.5t-6 10.5t-8 8.5t-11.5 7.5t-13 6t-15.5 5.5t-16 5t-18.5 5t-18 5.5q-33 9 -56 18t-48 26t-38 45.5t-13 66.5q0 71 51 108.5t144 37.5q57 0 107 -11t69 -23v-130h-94
q-4 15 -6 61q-46 10 -73 10q-79 0 -79 -47q0 -23 23 -35t74 -25q10 -3 15 -4q28 -8 45.5 -14t41 -18.5t36.5 -26.5t23 -37.5t10 -52.5q0 -75 -57.5 -116.5t-152.5 -41.5zM208 -230q-54 0 -82 15l17 60q24 -11 51 -11q48 0 48 34q0 38 -60 38h-11l36 97h76l-21 -58
q32 -7 51.5 -28.5t19.5 -53.5q0 -42 -34.5 -67.5t-90.5 -25.5z" />
    <glyph glyph-name="Scaron" unicode="&#x160;" horiz-adv-x="537" 
d="M220 717l-125 159h113l64 -66l64 66h113l-127 -159h-102zM258 -12q-72 0 -133 15t-84 34v163h103q5 -28 7 -93q47 -14 102 -14q52 0 81.5 24t29.5 59q0 41 -33 63.5t-103 47.5q-89 30 -134.5 74.5t-45.5 130.5q0 85 63.5 135.5t164.5 50.5q71 0 125 -14t78 -32v-163h-102
q-7 37 -7 92q-47 14 -93 14q-44 0 -70 -20.5t-26 -54.5q0 -37 27 -57.5t91 -43.5q38 -15 62 -25.5t53 -29t45.5 -38t28 -50t11.5 -67.5q0 -91 -65.5 -146t-175.5 -55z" />
    <glyph glyph-name="scaron" unicode="&#x161;" horiz-adv-x="471" 
d="M183 541l-125 159h113l64 -66l64 66h113l-127 -159h-102zM223 -12q-122 0 -183 36v132h94q0 -2 2.5 -28t2.5 -33q46 -13 84 -13q86 0 86 49q0 7 -1.5 12.5t-6 10.5t-8 8.5t-11.5 7.5t-13 6t-15.5 5.5t-16 5t-18.5 5t-18 5.5q-33 9 -56 18t-48 26t-38 45.5t-13 66.5
q0 71 51 108.5t144 37.5q57 0 107 -11t69 -23v-130h-94q-4 15 -6 61q-46 10 -73 10q-79 0 -79 -47q0 -23 23 -35t74 -25q10 -3 15 -4q28 -8 45.5 -14t41 -18.5t36.5 -26.5t23 -37.5t10 -52.5q0 -75 -57.5 -116.5t-152.5 -41.5z" />
    <glyph glyph-name="Tcommaaccent" unicode="&#x162;" horiz-adv-x="659" 
d="M288 -230q-54 0 -82 15l17 60q24 -11 51 -11q48 0 48 34q0 38 -60 38h-11l36 97h76l-21 -58q32 -7 51.5 -28.5t19.5 -53.5q0 -42 -34.5 -67.5t-90.5 -25.5zM179 0v84q36 9 79 9v469h-123q0 -62 -8 -99h-103v203h611v-203h-103q-9 42 -9 99h-124v-469q31 0 79 -9v-84h-299
z" />
    <glyph glyph-name="tcommaaccent" unicode="&#x163;" horiz-adv-x="385" 
d="M190 -230q-54 0 -82 15l17 60q24 -11 51 -11q48 0 48 34q0 38 -60 38h-11l36 97h76l-21 -58q32 -7 51.5 -28.5t19.5 -53.5q0 -42 -34.5 -67.5t-90.5 -25.5zM247 -12q-83 0 -119 39t-36 113v248h-75v99h75v141h132v-141h120v-99h-120v-227q0 -36 13 -51.5t40 -15.5
q34 0 62 18l30 -96q-47 -28 -122 -28z" />
    <glyph glyph-name="Tcaron" unicode="&#x164;" horiz-adv-x="659" 
d="M275 717l-125 159h113l64 -66l64 66h113l-127 -159h-102zM179 0v84q36 9 79 9v469h-123q0 -62 -8 -99h-103v203h611v-203h-103q-9 42 -9 99h-124v-469q31 0 79 -9v-84h-299z" />
    <glyph glyph-name="tcaron" unicode="&#x165;" horiz-adv-x="385" 
d="M255 545l36 175h137l-81 -175h-92zM247 -12q-83 0 -119 39t-36 113v248h-75v99h75v141h132v-141h120v-99h-120v-227q0 -36 13 -51.5t40 -15.5q34 0 62 18l30 -96q-47 -28 -122 -28z" />
    <glyph glyph-name="Utilde" unicode="&#x168;" horiz-adv-x="731" 
d="M370 -12q-279 0 -279 269v316q-36 0 -70 9v84h284v-84q-34 -9 -73 -9v-312q0 -86 35 -125.5t113 -39.5q141 0 141 157v320q-43 0 -72 9v84h260v-84q-34 -9 -69 -9v-303q0 -282 -270 -282zM431 722q-33 0 -67 17.5t-51 17.5q-24 0 -54 -30l-61 53q17 30 46.5 52.5
t66.5 22.5q33 0 66.5 -17.5t51.5 -17.5q31 0 56 31l61 -53q-46 -76 -115 -76z" />
    <glyph glyph-name="utilde" unicode="&#x169;" horiz-adv-x="598" 
d="M227 -12q-76 0 -111.5 43t-35.5 115v251q-36 4 -63 4v84q70 8 201 8l-5 -79v-245q0 -74 65 -74q50 0 100 61v241q-36 4 -67 4v84q70 8 205 8l-5 -79v-281q0 -18 2 -44q36 -4 66 -4v-85q-64 -6 -186 -6q-9 36 -9 76h-2q-65 -82 -155 -82zM354 546q-32 0 -66 17.5t-52 17.5
q-24 0 -54 -30l-61 53q17 30 46.5 52.5t66.5 22.5q33 0 66.5 -17.5t51.5 -17.5q31 0 56 31l61 -53q-46 -76 -115 -76z" />
    <glyph glyph-name="Umacron" unicode="&#x16a;" horiz-adv-x="731" 
d="M370 -12q-279 0 -279 269v316q-36 0 -70 9v84h284v-84q-34 -9 -73 -9v-312q0 -86 35 -125.5t113 -39.5q141 0 141 157v320q-43 0 -72 9v84h260v-84q-34 -9 -69 -9v-303q0 -282 -270 -282zM231 738v95h283v-95h-283z" />
    <glyph glyph-name="umacron" unicode="&#x16b;" horiz-adv-x="598" 
d="M227 -12q-76 0 -111.5 43t-35.5 115v251q-36 4 -63 4v84q70 8 201 8l-5 -79v-245q0 -74 65 -74q50 0 100 61v241q-36 4 -67 4v84q70 8 205 8l-5 -79v-281q0 -18 2 -44q36 -4 66 -4v-85q-64 -6 -186 -6q-9 36 -9 76h-2q-65 -82 -155 -82zM154 562v95h283v-95h-283z" />
    <glyph glyph-name="Ubreve" unicode="&#x16c;" horiz-adv-x="731" 
d="M370 -12q-279 0 -279 269v316q-36 0 -70 9v84h284v-84q-34 -9 -73 -9v-312q0 -86 35 -125.5t113 -39.5q141 0 141 157v320q-43 0 -72 9v84h260v-84q-34 -9 -69 -9v-303q0 -282 -270 -282zM372 706q-66 0 -113.5 38.5t-55.5 112.5h109q5 -65 60 -65q54 0 60 65h108
q-6 -74 -54 -112.5t-114 -38.5z" />
    <glyph glyph-name="ubreve" unicode="&#x16d;" horiz-adv-x="598" 
d="M227 -12q-76 0 -111.5 43t-35.5 115v251q-36 4 -63 4v84q70 8 201 8l-5 -79v-245q0 -74 65 -74q50 0 100 61v241q-36 4 -67 4v84q70 8 205 8l-5 -79v-281q0 -18 2 -44q36 -4 66 -4v-85q-64 -6 -186 -6q-9 36 -9 76h-2q-65 -82 -155 -82zM295 530q-66 0 -113.5 38.5
t-55.5 112.5h109q5 -65 60 -65q53 0 60 65h108q-6 -74 -54 -112.5t-114 -38.5z" />
    <glyph glyph-name="Uring" unicode="&#x16e;" horiz-adv-x="731" 
d="M372 711q-44 0 -77 31t-33 76q0 44 33 75t77 31t77 -31t33 -75q0 -45 -33 -76t-77 -31zM372 767q21 0 33.5 15t12.5 36t-12.5 35.5t-33.5 14.5t-33.5 -14.5t-12.5 -35.5t12.5 -36t33.5 -15zM370 -12q-279 0 -279 269v316q-36 0 -70 9v84h284v-84q-34 -9 -73 -9v-312
q0 -86 35 -125.5t113 -39.5q141 0 141 157v320q-43 0 -72 9v84h260v-84q-34 -9 -69 -9v-303q0 -282 -270 -282z" />
    <glyph glyph-name="uring" unicode="&#x16f;" horiz-adv-x="598" 
d="M295 535q-44 0 -77 31t-33 76q0 44 33 75t77 31t77 -31t33 -75q0 -45 -33 -76t-77 -31zM295 591q21 0 33.5 15t12.5 36t-12.5 35.5t-33.5 14.5t-33.5 -14.5t-12.5 -35.5t12.5 -36t33.5 -15zM227 -12q-76 0 -111.5 43t-35.5 115v251q-36 4 -63 4v84q70 8 201 8l-5 -79
v-245q0 -74 65 -74q50 0 100 61v241q-36 4 -67 4v84q70 8 205 8l-5 -79v-281q0 -18 2 -44q36 -4 66 -4v-85q-64 -6 -186 -6q-9 36 -9 76h-2q-65 -82 -155 -82z" />
    <glyph glyph-name="Uhungarumlaut" unicode="&#x170;" horiz-adv-x="731" 
d="M370 -12q-279 0 -279 269v316q-36 0 -70 9v84h284v-84q-34 -9 -73 -9v-312q0 -86 35 -125.5t113 -39.5q141 0 141 157v320q-43 0 -72 9v84h260v-84q-34 -9 -69 -9v-303q0 -282 -270 -282zM208 717l92 135h154l-140 -135h-106zM410 717l92 135h154l-140 -135h-106z" />
    <glyph glyph-name="uhungarumlaut" unicode="&#x171;" horiz-adv-x="598" 
d="M227 -12q-76 0 -111.5 43t-35.5 115v251q-36 4 -63 4v84q70 8 201 8l-5 -79v-245q0 -74 65 -74q50 0 100 61v241q-36 4 -67 4v84q70 8 205 8l-5 -79v-281q0 -18 2 -44q36 -4 66 -4v-85q-64 -6 -186 -6q-9 36 -9 76h-2q-65 -82 -155 -82zM130 541l92 135h154l-140 -135
h-106zM332 541l92 135h154l-140 -135h-106z" />
    <glyph glyph-name="Uogonek" unicode="&#x172;" horiz-adv-x="731" 
d="M417 -230q-55 0 -87 26t-32 73q0 72 65 119q-272 4 -272 269v316q-36 0 -70 9v84h284v-84q-34 -9 -73 -9v-312q0 -86 35 -125.5t113 -39.5q141 0 141 157v320q-43 0 -72 9v84h260v-84q-34 -9 -69 -9v-303q0 -193 -146 -262q-59 -29 -81.5 -58t-22.5 -62q0 -47 49 -47
q20 0 40 9l17 -62q-34 -18 -79 -18z" />
    <glyph glyph-name="uogonek" unicode="&#x173;" horiz-adv-x="598" 
d="M507 -230q-55 0 -87.5 26t-32.5 73q0 67 71 131h76q-54 -67 -54 -114q0 -45 48 -45q19 0 41 9l16 -62q-34 -18 -78 -18zM227 -12q-76 0 -111.5 43t-35.5 115v251q-36 4 -63 4v84q70 8 201 8l-5 -79v-245q0 -74 65 -74q50 0 100 61v241q-36 4 -67 4v84q70 8 205 8l-5 -79
v-281q0 -18 2 -44q36 -4 66 -4v-85q-64 -6 -186 -6q-9 36 -9 76h-2q-65 -82 -155 -82z" />
    <glyph glyph-name="Ydieresis" unicode="&#x178;" horiz-adv-x="660" 
d="M183 0v85q36 9 79 9v135l-190 344q-38 1 -65 9v84h275v-84q-5 -2 -54 -8l50 -99q14 -28 36 -77t25 -55h1l64 132l49 99q-51 7 -55 8v84h255v-84q-20 -7 -67 -9l-183 -330v-149q32 0 80 -9v-85h-300zM233 724q-30 0 -50 20t-20 49q0 27 20.5 47.5t49.5 20.5q31 0 51.5 -20
t20.5 -48q0 -30 -20 -49.5t-52 -19.5zM432 724q-31 0 -51 20t-20 49q0 28 20.5 48t50.5 20t50.5 -20t20.5 -48q0 -29 -20 -49t-51 -20z" />
    <glyph glyph-name="Zacute" unicode="&#x179;" horiz-adv-x="588" 
d="M230 717l83 135h172l-140 -135h-115zM34 0v92l337 470h-212q0 -61 -8 -101h-103v205h493v-90l-339 -472h239q0 77 9 100h102v-204h-518z" />
    <glyph glyph-name="zacute" unicode="&#x17a;" horiz-adv-x="497" 
d="M173 541l83 135h172l-140 -135h-115zM31 0v72l266 325h-151q-2 -47 -8 -74h-99v164h422v-77l-264 -320h163q2 47 8 74h99v-164h-436z" />
    <glyph glyph-name="Zdotaccent" unicode="&#x17b;" horiz-adv-x="588" 
d="M34 0v92l337 470h-212q0 -61 -8 -101h-103v205h493v-90l-339 -472h239q0 77 9 100h102v-204h-518zM296 732q-32 0 -53 21t-21 51t21 50.5t53 20.5t53 -20.5t21 -50.5t-21 -51t-53 -21z" />
    <glyph glyph-name="zdotaccent" unicode="&#x17c;" horiz-adv-x="497" 
d="M31 0v72l266 325h-151q-2 -47 -8 -74h-99v164h422v-77l-264 -320h163q2 47 8 74h99v-164h-436zM241 556q-32 0 -53 21t-21 51t21 50.5t53 20.5t53 -20.5t21 -50.5t-21 -51t-53 -21z" />
    <glyph glyph-name="Zcaron" unicode="&#x17d;" horiz-adv-x="588" 
d="M244 717l-125 159h113l64 -66l64 66h113l-127 -159h-102zM34 0v92l337 470h-212q0 -61 -8 -101h-103v205h493v-90l-339 -472h239q0 77 9 100h102v-204h-518z" />
    <glyph glyph-name="zcaron" unicode="&#x17e;" horiz-adv-x="497" 
d="M189 541l-125 159h113l64 -66l64 66h113l-127 -159h-102zM31 0v72l266 325h-151q-2 -47 -8 -74h-99v164h422v-77l-264 -320h163q2 47 8 74h99v-164h-436z" />
    <glyph glyph-name="Scommaaccent" unicode="&#x218;" horiz-adv-x="537" 
d="M261 -37q31 0 52.5 -19.5t21.5 -52.5q0 -68 -90 -133l-45 31l6 5q6 5 7.5 6.5t5.5 6.5t5.5 8.5t3 8.5t1.5 11q0 14 -16 33.5t-16 41.5q0 23 18.5 38t45.5 15zM258 -12q-72 0 -133 15t-84 34v163h103q5 -28 7 -93q47 -14 102 -14q52 0 81.5 24t29.5 59q0 41 -33 63.5
t-103 47.5q-89 30 -134.5 74.5t-45.5 130.5q0 85 63.5 135.5t164.5 50.5q71 0 125 -14t78 -32v-163h-102q-7 37 -7 92q-47 14 -93 14q-44 0 -70 -20.5t-26 -54.5q0 -37 27 -57.5t91 -43.5q38 -15 62 -25.5t53 -29t45.5 -38t28 -50t11.5 -67.5q0 -91 -65.5 -146t-175.5 -55z
" />
    <glyph glyph-name="scommaaccent" unicode="&#x219;" horiz-adv-x="471" 
d="M225 -37q31 0 52.5 -19.5t21.5 -52.5q0 -68 -90 -133l-45 31l6 5q6 5 7.5 6.5t5.5 6.5t5.5 8.5t3 8.5t1.5 11q0 14 -16 33.5t-16 41.5q0 23 18.5 38t45.5 15zM223 -12q-122 0 -183 36v132h94q0 -2 2.5 -28t2.5 -33q46 -13 84 -13q86 0 86 49q0 7 -1.5 12.5t-6 10.5
t-8 8.5t-11.5 7.5t-13 6t-15.5 5.5t-16 5t-18.5 5t-18 5.5q-33 9 -56 18t-48 26t-38 45.5t-13 66.5q0 71 51 108.5t144 37.5q57 0 107 -11t69 -23v-130h-94q-4 15 -6 61q-46 10 -73 10q-79 0 -79 -47q0 -23 23 -35t74 -25q10 -3 15 -4q28 -8 45.5 -14t41 -18.5t36.5 -26.5
t23 -37.5t10 -52.5q0 -75 -57.5 -116.5t-152.5 -41.5z" />
    <glyph glyph-name="uni021A" unicode="&#x21a;" horiz-adv-x="659" 
d="M324 -37q31 0 52.5 -19.5t21.5 -52.5q0 -68 -90 -133l-45 31l6 5q6 5 7.5 6.5t5.5 6.5t5.5 8.5t3 8.5t1.5 11q0 14 -16 33.5t-16 41.5q0 23 18.5 38t45.5 15zM179 0v84q36 9 79 9v469h-123q0 -62 -8 -99h-103v203h611v-203h-103q-9 42 -9 99h-124v-469q31 0 79 -9v-84
h-299z" />
    <glyph glyph-name="uni021B" unicode="&#x21b;" horiz-adv-x="385" 
d="M225 -37q31 0 52.5 -19.5t21.5 -52.5q0 -68 -90 -133l-45 31l6 5q6 5 7.5 6.5t5.5 6.5t5.5 8.5t3 8.5t1.5 11q0 14 -16 33.5t-16 41.5q0 23 18.5 38t45.5 15zM247 -12q-83 0 -119 39t-36 113v248h-75v99h75v141h132v-141h120v-99h-120v-227q0 -36 13 -51.5t40 -15.5
q34 0 62 18l30 -96q-47 -28 -122 -28z" />
    <glyph glyph-name="circumflex" unicode="&#x2c6;" horiz-adv-x="500" 
d="M73 542l127 159h102l125 -159h-113l-64 66l-64 -66h-113z" />
    <glyph glyph-name="caron" unicode="&#x2c7;" horiz-adv-x="500" 
d="M198 541l-125 159h113l64 -66l64 66h113l-127 -159h-102z" />
    <glyph glyph-name="breve" unicode="&#x2d8;" horiz-adv-x="500" 
d="M250 530q-66 0 -113.5 38.5t-55.5 112.5h109q5 -65 60 -65q54 0 60 65h108q-6 -74 -54 -112.5t-114 -38.5z" />
    <glyph glyph-name="dotaccent" unicode="&#x2d9;" horiz-adv-x="500" 
d="M250 556q-32 0 -53 21t-21 51t21 50.5t53 20.5t53 -20.5t21 -50.5t-21 -51t-53 -21z" />
    <glyph glyph-name="ring" unicode="&#x2da;" horiz-adv-x="500" 
d="M250 535q-44 0 -77 31t-33 76q0 44 33 75t77 31t77 -31t33 -75q0 -45 -33 -76t-77 -31zM250 591q21 0 33.5 15t12.5 36t-12.5 35.5t-33.5 14.5t-33.5 -14.5t-12.5 -35.5t12.5 -36t33.5 -15z" />
    <glyph glyph-name="ogonek" unicode="&#x2db;" horiz-adv-x="500" 
d="M256 -230q-55 0 -87.5 26t-32.5 73q0 67 71 131h76q-54 -67 -54 -114q0 -45 48 -45q19 0 41 9l16 -62q-34 -18 -78 -18z" />
    <glyph glyph-name="tilde" unicode="&#x2dc;" horiz-adv-x="500" 
d="M309 546q-33 0 -67 17.5t-51 17.5q-24 0 -54 -30l-61 53q17 30 46.5 52.5t66.5 22.5q33 0 66.5 -17.5t51.5 -17.5q31 0 56 31l61 -53q-46 -76 -115 -76z" />
    <glyph glyph-name="hungarumlaut" unicode="&#x2dd;" horiz-adv-x="500" 
d="M31 541l92 135h154l-140 -135h-106zM233 541l92 135h154l-140 -135h-106z" />
    <glyph glyph-name="uni0394" unicode="&#x394;" horiz-adv-x="658" 
d="M284 399l-104 -283h287l-107 283q-29 78 -37 115h-2q-1 -3 -13.5 -44t-23.5 -71zM26 0v72l232 594h134l240 -594v-72h-606z" />
    <glyph glyph-name="uni03A9" unicode="&#x3a9;" horiz-adv-x="764" 
d="M44 0v109h126q-49 35 -82 102.5t-33 150.5q0 139 95.5 227.5t231.5 88.5t232 -88.5t96 -227.5q0 -83 -33.5 -150.5t-82.5 -102.5h127v-109h-282v103q69 45 100 105.5t31 148.5q0 84 -54 145.5t-134 61.5t-134 -61.5t-54 -145.5q0 -88 31.5 -148.5t100.5 -105.5v-103h-282
z" />
    <glyph glyph-name="uni03BC" unicode="&#x3bc;" horiz-adv-x="606" 
d="M87 -218v615q-36 4 -68 4v84q70 8 206 8l-5 -79v-244q0 -35 13 -53t46 -18q61 0 106 57v241q-36 4 -68 4v84q70 8 206 8l-5 -79v-305q0 -13 1 -20q36 -4 65 -4v-85q-64 -6 -184 -6q-8 32 -10 76h-2q-58 -80 -140 -80q-22 0 -36 8h-2q7 -35 7 -100v-116h-130z" />
    <glyph glyph-name="uni1E9E" unicode="&#x1e9e;" horiz-adv-x="799" 
d="M19 0v84q34 9 82 9v281q0 152 83.5 228t234.5 76q150 0 277 -33v-71l-115 -186l22 -12q38 -21 56.5 -33.5t43.5 -36t35.5 -54.5t10.5 -72q0 -83 -59.5 -137.5t-159.5 -54.5q-113 0 -194 38l42 98q60 -31 132 -31q51 0 78 22t27 60q0 60 -106 112l-91 44l133 231
q-62 13 -129 13q-180 0 -180 -198v-284q37 0 68 -9v-84h-291z" />
    <glyph glyph-name="uni2007" unicode="&#x2007;" 
 />
    <glyph glyph-name="uni2008" unicode="&#x2008;" horiz-adv-x="286" 
 />
    <glyph glyph-name="uni200B" unicode="&#x200b;" horiz-adv-x="0" 
 />
    <glyph glyph-name="endash" unicode="&#x2013;" horiz-adv-x="547" 
d="M46 235v94h455v-94h-455z" />
    <glyph glyph-name="emdash" unicode="&#x2014;" horiz-adv-x="870" 
d="M46 235v94h778v-94h-778z" />
    <glyph glyph-name="quoteleft" unicode="&#x2018;" horiz-adv-x="234" 
d="M115 382q-38 0 -60 24.5t-22 66.5q0 100 133 217l46 -42q-54 -56 -54 -95q0 -18 17 -45t17 -52q0 -32 -22 -53t-55 -21z" />
    <glyph glyph-name="quoteright" unicode="&#x2019;" horiz-adv-x="234" 
d="M119 678q38 0 60 -24.5t22 -66.5q0 -99 -133 -216l-46 42q54 54 54 95q0 18 -17 45t-17 52q0 32 22 52.5t55 20.5z" />
    <glyph glyph-name="quotesinglbase" unicode="&#x201a;" horiz-adv-x="234" 
d="M119 153q38 0 60 -24.5t22 -66.5q0 -99 -133 -216l-46 42q54 54 54 95q0 18 -17 45t-17 52q0 32 22 52.5t55 20.5z" />
    <glyph glyph-name="quotedblleft" unicode="&#x201c;" horiz-adv-x="449" 
d="M115 382q-38 0 -60 24.5t-22 66.5q0 100 133 217l46 -42q-54 -56 -54 -95q0 -18 17 -45t17 -52q0 -32 -22 -53t-55 -21zM330 382q-38 0 -60 24.5t-22 66.5q0 100 133 217l46 -42q-54 -56 -54 -95q0 -18 17 -45t17 -52q0 -32 -22 -53t-55 -21z" />
    <glyph glyph-name="quotedblright" unicode="&#x201d;" horiz-adv-x="449" 
d="M119 678q38 0 60 -24.5t22 -66.5q0 -99 -133 -216l-46 42q54 54 54 95q0 18 -17 45t-17 52q0 32 22 52.5t55 20.5zM334 678q38 0 60 -24.5t22 -66.5q0 -99 -133 -216l-46 42q54 54 54 95q0 18 -17 45t-17 52q0 32 22 52.5t55 20.5z" />
    <glyph glyph-name="quotedblbase" unicode="&#x201e;" horiz-adv-x="449" 
d="M119 153q38 0 60 -24.5t22 -66.5q0 -99 -133 -216l-46 42q54 54 54 95q0 18 -17 45t-17 52q0 32 22 52.5t55 20.5zM334 153q38 0 60 -24.5t22 -66.5q0 -99 -133 -216l-46 42q54 54 54 95q0 18 -17 45t-17 52q0 32 22 52.5t55 20.5z" />
    <glyph glyph-name="bullet" unicode="&#x2022;" horiz-adv-x="487" 
d="M243 111q-73 0 -125 52t-52 124q0 73 52 125t125 52t125 -52t52 -125q0 -72 -52 -124t-125 -52z" />
    <glyph glyph-name="ellipsis" unicode="&#x2026;" horiz-adv-x="770" 
d="M143 -10q-37 0 -62.5 25t-25.5 61t25.5 60.5t62.5 24.5t63 -24.5t26 -60.5t-26 -61t-63 -25zM384 -10q-37 0 -62.5 25t-25.5 61t25.5 60.5t62.5 24.5t63 -24.5t26 -60.5t-26 -61t-63 -25zM626 -10q-37 0 -62.5 25t-25.5 61t25.5 60.5t62.5 24.5t63 -24.5t26 -60.5
t-26 -61t-63 -25z" />
    <glyph glyph-name="guilsinglleft" unicode="&#x2039;" horiz-adv-x="321" 
d="M151 53l-120 192l120 193h139l-119 -193l119 -192h-139z" />
    <glyph glyph-name="guilsinglright" unicode="&#x203a;" horiz-adv-x="321" 
d="M31 53l119 193l-119 192h139l120 -192l-120 -193h-139z" />
    <glyph glyph-name="Euro" unicode="&#x20ac;" horiz-adv-x="614" 
d="M30 358v91h71q27 108 101.5 168.5t190.5 60.5q111 0 178 -43l-56 -103q-50 31 -120 31q-54 0 -92.5 -29.5t-52.5 -84.5h156v-91h-174q-1 -4 -1 -12v-11q0 -10 2 -34h173v-90h-154q34 -107 143 -107q71 0 128 40l54 -99q-76 -57 -187 -57q-106 0 -182.5 55.5t-105.5 167.5
h-72v90h59q-1 5 -1 16v41h-58z" />
    <glyph glyph-name="trademark" unicode="&#x2122;" horiz-adv-x="789" 
d="M316 370v52q10 4 34 6l26 180q-26 2 -36 6v52h127l53 -145q6 -16 17 -60h2q1 4 7.5 25t11.5 35l52 145h129v-52q-10 -4 -36 -6l27 -180q24 -2 34 -6v-52h-140v51q2 0 10 1.5t12 1.5l-8 75q-5 27 -5 54h-2q-1 -3 -3.5 -14t-5.5 -24t-7 -25l-44 -120h-73l-40 119
q-8 24 -18 64h-2q0 -15 -5 -55l-8 -74q6 -1 14 -2t10 -1v-51h-133zM80 370v52q14 5 47 7v169h-37q-2 -31 -7 -51h-58v119h286v-119h-57q-5 20 -7 51h-37v-169q27 -2 47 -7v-52h-177z" />
    <glyph glyph-name="Omega" unicode="&#x2126;" horiz-adv-x="764" 
d="M44 0v109h126q-49 35 -82 102.5t-33 150.5q0 139 95.5 227.5t231.5 88.5t232 -88.5t96 -227.5q0 -83 -33.5 -150.5t-82.5 -102.5h127v-109h-282v103q69 45 100 105.5t31 148.5q0 84 -54 145.5t-134 61.5t-134 -61.5t-54 -145.5q0 -88 31.5 -148.5t100.5 -105.5v-103h-282
z" />
    <glyph glyph-name="increment" unicode="&#x2206;" horiz-adv-x="658" 
d="M284 399l-104 -283h287l-107 283q-29 78 -37 115h-2q-1 -3 -13.5 -44t-23.5 -71zM26 0v72l232 594h134l240 -594v-72h-606z" />
    <glyph glyph-name="f.sc" unicode="&#xa730;" horiz-adv-x="508" 
d="M37 0v84q34 9 68 9v336q-38 0 -72 9v85h452v-154h-94q-7 24 -8 63h-144v-135h67q6 40 10 49h82v-184h-82q-4 9 -10 49h-67v-118q43 0 77 -9v-84h-279z" />
    <glyph glyph-name="zero.osf" unicode="&#xeb00;" horiz-adv-x="593" 
d="M296 -12q-128 0 -196 75.5t-68 178.5t69.5 180t196.5 77q128 0 195.5 -74t67.5 -179q0 -102 -69 -180t-196 -78zM298 86q59 0 90 42t31 114t-31.5 115.5t-91.5 43.5q-59 0 -90 -41.5t-31 -113.5q0 -73 31.5 -116.5t91.5 -43.5z" />
    <glyph glyph-name="one.osf" unicode="&#xeb01;" horiz-adv-x="450" 
d="M57 0v84q37 9 123 9v288l-116 -35l-24 94l170 47h102v-394q76 0 113 -9v-84h-368z" />
    <glyph glyph-name="two.osf" unicode="&#xeb02;" horiz-adv-x="514" 
d="M23 0v68q272 179 272 265q0 64 -76 64q-70 0 -122 -52l-61 78q78 76 205 76q196 0 196 -145q0 -123 -229 -258v-2q31 5 75 5h195v-99h-455z" />
    <glyph glyph-name="three.osf" unicode="&#xeb03;" horiz-adv-x="470" 
d="M139 -188q-65 0 -105 7l20 103q29 -8 77 -8q71 0 113.5 28.5t42.5 81.5q0 104 -170 104v91q58 3 105 33.5t47 79.5q0 31 -20.5 48t-59.5 17q-60 0 -109 -44l-59 80q74 66 195 66q89 0 139.5 -42t50.5 -107q0 -59 -40.5 -100.5t-91.5 -55.5v-1q62 -7 108.5 -50.5
t46.5 -112.5q0 -99 -80.5 -158.5t-209.5 -59.5z" />
    <glyph glyph-name="four.osf" unicode="&#xeb04;" horiz-adv-x="605" 
d="M335 -177v177h-315v76l336 411h112v-390h104v-97h-104v-177h-133zM333 317l-175 -220h177v220h-2z" />
    <glyph glyph-name="five.osf" unicode="&#xeb05;" horiz-adv-x="469" 
d="M131 -188q-46 0 -96 10l24 101q33 -9 73 -9q68 0 112.5 34t44.5 93q0 118 -156 118q-45 0 -70 -6l21 334h334v-99h-217l-8 -132q113 -2 175.5 -56t62.5 -150q0 -107 -81.5 -172.5t-218.5 -65.5z" />
    <glyph glyph-name="six.osf" unicode="&#xeb06;" horiz-adv-x="563" 
d="M288 -12q-124 0 -184.5 83.5t-60.5 208.5q0 179 113 288.5t306 109.5l27 -100q-146 0 -225 -71q-62 -54 -76 -144q57 44 132 44q93 0 149.5 -52.5t56.5 -147.5q0 -98 -67 -158.5t-171 -60.5zM291 84q44 0 69.5 32t25.5 81q0 54 -26 83.5t-72 29.5q-61 0 -105 -38
q-1 -6 -1 -13v-9q0 -72 27.5 -119t81.5 -47z" />
    <glyph glyph-name="seven.osf" unicode="&#xeb07;" horiz-adv-x="533" 
d="M186 -201l-111 54l284 534h-214q0 -43 -10 -96h-99v196h464v-72z" />
    <glyph glyph-name="eight.osf" unicode="&#xeb08;" horiz-adv-x="553" 
d="M272 -12q-109 0 -168.5 48.5t-59.5 126.5q0 108 134 177q-60 35 -87 74.5t-27 91.5q0 75 61 123.5t154 48.5q99 0 157 -44.5t58 -117.5q0 -51 -32 -88t-95 -70q142 -73 142 -184q0 -86 -65 -136t-172 -50zM276 82q44 0 70 25.5t26 64.5q0 32 -27 59.5t-86 59.5
q-81 -51 -81 -119q0 -39 27 -64.5t71 -25.5zM285 405q76 48 76 101q0 35 -22 57t-59 22t-59 -21.5t-22 -55.5q0 -29 20 -52.5t66 -50.5z" />
    <glyph glyph-name="nine.osf" unicode="&#xeb09;" horiz-adv-x="565" 
d="M93 -185l-27 100q143 0 232 68q63 49 80 143q-52 -45 -134 -45q-92 0 -149.5 54t-57.5 149t67 155t170 60q65 0 114 -23.5t77.5 -65t42.5 -92.5t14 -111q0 -180 -113.5 -286t-315.5 -106zM277 178q60 0 105 37q4 84 -23.5 135.5t-84.5 51.5q-45 0 -70.5 -31.5
t-25.5 -80.5q0 -54 26.5 -83t72.5 -29z" />
    <glyph glyph-name="zero.lf" unicode="&#xeb0a;" horiz-adv-x="614" 
d="M307 -12q-57 0 -103 19.5t-76.5 52t-51.5 77.5t-30 93.5t-9 102.5t9 102.5t29 93.5t50.5 77.5t76.5 52t104 19.5q70 0 124 -29t85 -79t46.5 -109.5t15.5 -127.5q0 -53 -9.5 -102t-30.5 -94t-51.5 -77.5t-76.5 -52t-102 -19.5zM306 94q128 0 128 239t-127 239
q-128 0 -128 -239t127 -239z" />
    <glyph glyph-name="one.lf" unicode="&#xeb0b;" horiz-adv-x="470" 
d="M46 0v92q59 9 134 9v450l-120 -37l-27 104l176 48h104v-565q66 0 129 -9v-92h-396z" />
    <glyph glyph-name="two.lf" unicode="&#xeb0c;" horiz-adv-x="537" 
d="M19 0v72q53 47 83 74t78 76t73.5 85t46 81t20.5 84q0 48 -25.5 73t-66.5 25q-73 0 -139 -62l-63 84q88 86 217 86q105 0 163 -52.5t58 -137.5q0 -50 -20.5 -100.5t-61.5 -102.5t-78 -90t-95 -91v-2q24 5 73 5h110q2 52 9 75h100v-182h-482z" />
    <glyph glyph-name="three.lf" unicode="&#xeb0d;" horiz-adv-x="488" 
d="M143 -12q-65 0 -114 13l22 106q39 -12 89 -12q73 0 114.5 27t41.5 78q0 55 -46 78.5t-138 24.5v92q76 2 121 30t45 75q0 70 -87 70q-63 0 -116 -41l-57 86q81 63 199 63q96 0 147.5 -41.5t51.5 -111.5q0 -60 -39.5 -100t-97.5 -56v-2q64 -7 112 -51.5t48 -114.5
q0 -100 -80 -156.5t-216 -56.5z" />
    <glyph glyph-name="four.lf" unicode="&#xeb0e;" horiz-adv-x="593" 
d="M331 0v138h-308v90l315 438h125v-424h97v-104h-97v-138h-132zM330 491l-174 -252q15 3 76 3h100v249h-2z" />
    <glyph glyph-name="five.lf" unicode="&#xeb0f;" horiz-adv-x="470" 
d="M121 -12q-60 0 -96 11l20 107q40 -11 76 -11q74 0 119.5 30t45.5 89q0 112 -164 112q-51 0 -67 -4l20 344h333v-107h-212l-8 -130q113 -3 176.5 -56.5t63.5 -150.5q0 -111 -83 -172.5t-224 -61.5z" />
    <glyph glyph-name="six.lf" unicode="&#xeb10;" horiz-adv-x="561" 
d="M288 -12q-124 0 -187 84.5t-63 208.5q0 181 112.5 289t305.5 108l28 -108q-144 0 -219 -60q-63 -51 -80 -138q50 42 130 42q92 0 151.5 -56t59.5 -151q0 -98 -67 -158.5t-171 -60.5zM291 90q45 0 69.5 31t24.5 79q0 113 -99 113q-66 0 -109 -40v-7q0 -87 30.5 -131.5
t83.5 -44.5z" />
    <glyph glyph-name="seven.lf" unicode="&#xeb11;" horiz-adv-x="485" 
d="M193 -26l-120 41l230 540h-169q0 -47 -8 -79h-103v190h431v-73z" />
    <glyph glyph-name="eight.lf" unicode="&#xeb12;" horiz-adv-x="528" 
d="M264 -12q-111 0 -171.5 48.5t-60.5 129.5q0 103 129 176q-53 31 -81 68t-28 92q0 78 61.5 127t152.5 49q98 0 155.5 -44t57.5 -124q0 -50 -31.5 -86.5t-87.5 -68.5q135 -72 135 -183q0 -85 -63.5 -134.5t-167.5 -49.5zM263 88q44 0 68.5 23.5t24.5 60.5q0 36 -27 62.5
t-77 54.5q-26 -18 -41.5 -31.5t-28.5 -36.5t-13 -50q0 -39 24 -61t70 -22zM268 406q76 48 76 99q0 34 -19.5 54t-56.5 20t-58.5 -20t-21.5 -51q0 -55 80 -102z" />
    <glyph glyph-name="nine.lf" unicode="&#xeb13;" horiz-adv-x="561" 
d="M111 -18l-28 108q127 0 208 62q68 52 85 143q-51 -43 -131 -43q-91 0 -150.5 56t-59.5 151q0 98 67 158.5t169 60.5q126 0 188.5 -83t62.5 -210q0 -185 -107 -294t-304 -109zM275 353q64 0 109 40v7q0 85 -30.5 130.5t-82.5 45.5q-45 0 -70 -31t-25 -79q0 -56 26 -84.5
t73 -28.5z" />
    <glyph glyph-name="zero.tosf" unicode="&#xeb14;" 
d="M277 -12q-119 0 -181 75.5t-62 178.5q0 48 14.5 92t43 82t77 60.5t110.5 22.5t110 -22t76 -58.5t42.5 -80.5t14.5 -92q0 -65 -24.5 -121.5t-82 -96.5t-138.5 -40zM279 94q48 0 74.5 39t26.5 109t-27.5 110.5t-75.5 40.5t-74.5 -38.5t-26.5 -108.5t27.5 -111t75.5 -41z
" />
    <glyph glyph-name="one.tosf" unicode="&#xeb15;" 
d="M82 0v90q61 9 150 9v274l-136 -43l-28 103l194 54h102v-388q81 0 144 -9v-90h-426z" />
    <glyph glyph-name="two.tosf" unicode="&#xeb16;" 
d="M38 0v68q272 179 272 265q0 64 -76 64q-70 0 -122 -52l-61 78q78 76 205 76q196 0 196 -145q0 -123 -229 -258v-2q31 5 75 5h195v-99h-455z" />
    <glyph glyph-name="three.tosf" unicode="&#xeb17;" 
d="M183 -188q-82 0 -132 14l22 105q39 -13 113 -13q67 0 111.5 28.5t44.5 78.5q0 102 -202 102v93q61 0 122.5 31t61.5 80q0 29 -23 45.5t-62 16.5q-81 0 -137 -49l-61 83q80 72 212 72q93 0 151 -40.5t58 -107.5q0 -61 -43.5 -102t-98.5 -55v-1q64 -7 114.5 -50.5
t50.5 -114.5q0 -101 -86.5 -158.5t-215.5 -57.5z" />
    <glyph glyph-name="four.tosf" unicode="&#xeb18;" 
d="M314 -177v177h-299v84l314 403h117v-389h86v-98h-86v-177h-132zM315 319l-167 -221h168v221h-1z" />
    <glyph glyph-name="five.tosf" unicode="&#xeb19;" 
d="M179 -188q-73 0 -118 12l21 106q39 -12 98 -12q66 0 111.5 32.5t45.5 90.5q0 61 -52 89.5t-126 28.5q-41 0 -75 -6l22 334h359v-103h-239l-9 -122q114 -2 188 -59t74 -155q0 -106 -81.5 -171t-218.5 -65z" />
    <glyph glyph-name="six.tosf" unicode="&#xeb1a;" 
d="M282 -12q-64 0 -112 24t-76 65.5t-42 92.5t-14 110q0 179 113 288.5t306 109.5l28 -106q-116 0 -199.5 -51t-100.5 -153q53 39 129 39q90 0 147.5 -54t57.5 -148q0 -97 -67 -157t-170 -60zM286 90q43 0 67.5 30t24.5 76q0 54 -24.5 82t-70.5 28q-62 0 -105 -36v-12
q0 -74 26.5 -121t81.5 -47z" />
    <glyph glyph-name="seven.tosf" unicode="&#xeb1b;" 
d="M177 -201l-110 54l288 525h-198q-2 -55 -8 -81h-103v190h466v-72z" />
    <glyph glyph-name="eight.tosf" unicode="&#xeb1c;" 
d="M278 -12q-111 0 -172.5 49.5t-61.5 128.5q0 106 130 176q-111 64 -111 159q0 78 61.5 127.5t152.5 49.5q102 0 160.5 -45.5t58.5 -123.5q0 -85 -121 -154q69 -37 102.5 -79.5t33.5 -103.5q0 -85 -64.5 -134.5t-168.5 -49.5zM277 87q46 0 71.5 24t25.5 61q0 58 -108 116
q-88 -54 -88 -117q0 -37 27.5 -60.5t71.5 -23.5zM282 406q79 51 79 98q0 33 -21.5 54.5t-58.5 21.5t-60 -21t-23 -52q0 -51 84 -101z" />
    <glyph glyph-name="nine.tosf" unicode="&#xeb1d;" 
d="M83 -184l-28 105q119 3 206.5 50.5t104.5 149.5q-56 -39 -130 -39q-91 0 -148.5 54t-57.5 148q0 97 69 156t171 59q124 0 183 -83.5t59 -208.5q0 -181 -113 -286t-316 -105zM268 183q63 0 104 35v11q0 75 -25.5 122t-80.5 47q-42 0 -68.5 -29t-26.5 -79q0 -51 25.5 -79
t71.5 -28z" />
    <glyph glyph-name="numbersign.lf" unicode="&#xeb1e;" horiz-adv-x="568" 
d="M97 0l28 186h-109l17 99h106l16 103h-107l16 98h106l28 180h90l-27 -180h98l28 180h91l-27 -180h101l-17 -98h-99l-16 -103h101l-16 -99h-100l-28 -186h-91l28 186h-99l-28 -186h-90zM244 391l-16 -109h103l16 109h-103z" />
    <glyph glyph-name="dollar.lf" unicode="&#xeb1f;" horiz-adv-x="567" 
d="M230 -121v110q-132 11 -175 48v163h102q5 -28 7 -91q51 -15 102 -15t80.5 23.5t29.5 58.5q0 40 -33 64t-101 48q-91 32 -134.5 74.5t-43.5 129.5q0 72 47 120t125 61v114h100v-111q109 -10 156 -44v-162h-102q-7 37 -7 90q-44 13 -91 13q-44 0 -69.5 -20t-25.5 -53
q0 -38 26.5 -58t90.5 -43q47 -18 76.5 -33t60.5 -39t46 -58.5t15 -80.5q0 -78 -48 -129.5t-133 -65.5v-114h-101z" />
    <glyph glyph-name="percent.lf" unicode="&#xeb20;" horiz-adv-x="888" 
d="M215 331q-88 0 -136 49.5t-48 122.5q0 71 48.5 122.5t135.5 51.5q88 0 136.5 -49.5t48.5 -120.5q0 -73 -49 -124.5t-136 -51.5zM216 411q36 0 53.5 26.5t17.5 65.5t-18.5 66.5t-53.5 27.5t-53 -25.5t-18 -64.5q0 -40 19 -68t53 -28zM672 -10q-88 0 -136 50t-48 123
q0 71 48.5 122.5t135.5 51.5q88 0 136 -49.5t48 -121.5q0 -73 -48.5 -124.5t-135.5 -51.5zM673 70q36 0 53.5 26.5t17.5 66.5q0 38 -19 65.5t-53 27.5q-35 0 -53 -25.5t-18 -64.5q0 -40 19 -68t53 -28zM189 0l401 666h106l-401 -666h-106z" />
    <glyph glyph-name="numbersign.osf" unicode="&#xeb21;" horiz-adv-x="526" 
d="M94 88l19 125h-89l16 96h88l12 84h-88l15 96h87l19 121h92l-19 -121h80l19 121h92l-19 -121h83l-16 -96h-81l-12 -84h82l-16 -96h-81l-18 -125h-92l18 125h-80l-19 -125h-92zM230 395l-13 -89h85l13 89h-85z" />
    <glyph glyph-name="dollar.osf" unicode="&#xeb22;" horiz-adv-x="502" 
d="M199 -127v117q-97 6 -144 34v132h93q0 -2 3 -28t3 -33q39 -13 83 -13q86 0 86 49q0 24 -21 36t-66 25q-9 3 -14 4q-28 7 -45.5 13t-42 18.5t-38.5 28t-24.5 40.5t-10.5 57q0 118 138 142v109h101v-106q92 -10 132 -33v-130h-94q-5 19 -7 61q-36 11 -72 11q-79 0 -79 -48
q0 -24 23 -36t71 -24q35 -9 49 -13.5t43.5 -17.5t43 -27t25.5 -39t12 -56q0 -62 -39.5 -101t-107.5 -51v-121h-101z" />
    <glyph glyph-name="percent.osf" unicode="&#xeb23;" horiz-adv-x="883" 
d="M201 187q-82 0 -126 45t-44 110q0 64 45.5 110.5t126.5 46.5q82 0 126 -43.5t44 -109.5q0 -65 -45.5 -112t-126.5 -47zM203 265q57 0 57 77q0 33 -14.5 56.5t-43.5 23.5q-58 0 -58 -76q0 -34 14.5 -57.5t44.5 -23.5zM681 -12q-82 0 -126 44.5t-44 110.5q0 64 45.5 110.5
t126.5 46.5t125 -44t44 -110q0 -64 -45.5 -111t-125.5 -47zM683 65q56 0 56 78q0 33 -14.5 56.5t-43.5 23.5q-58 0 -58 -77q0 -34 15 -57.5t45 -23.5zM241 0l293 487h110l-292 -487h-111z" />
    <glyph glyph-name="fi" unicode="&#xfb01;" horiz-adv-x="635" 
d="M29 0v84q34 9 73 9v295h-73v99h73v49q0 92 59 144t168 52t185 -45l-47 -93q-57 32 -125 32q-108 0 -108 -100v-39h157l164 6l-5 -79v-321q34 0 68 -9v-84h-270v84q34 9 67 9v303h-181v-303q40 0 74 -9v-84h-279z" />
    <glyph glyph-name="fl" unicode="&#xfb02;" horiz-adv-x="651" 
d="M29 0v84q34 9 73 9v295h-73v99h73v50q0 91 52.5 141.5t147.5 50.5q75 0 121 -13l148 7l-6 -80v-550q39 0 68 -9v-84h-269v84q34 9 68 9v521q-34 14 -93 14q-105 0 -105 -100v-41h117v-99h-117v-295q13 0 21 -1l25 -2q8 0 16 -1.5t15 -3t9 -1.5v-84h-291z" />
    <glyph glyph-name="uniFEFF" unicode="&#xfeff;" horiz-adv-x="0" 
 />
    <glyph glyph-name="NULL" horiz-adv-x="0" 
 />
    <glyph glyph-name="CR" horiz-adv-x="226" 
 />
    <glyph glyph-name="uni2007.osf" horiz-adv-x="593" 
 />
    <glyph glyph-name="uni030C.alt001" horiz-adv-x="1" 
d="M-326 545l36 175h137l-81 -175h-92z" />
    <glyph glyph-name="slash.case" horiz-adv-x="437" 
d="M1 -109l318 881h116l-318 -881h-116z" />
    <glyph glyph-name="f_f" horiz-adv-x="676" 
d="M29 0v84q34 9 73 9v295h-73v99h73v50q0 89 49 142t138 53q74 0 110 -20l-34 -96q-27 10 -55 10q-76 0 -76 -95v-44h181v50q0 90 50 142.5t141 52.5q79 0 118 -23l-29 -96q-29 13 -68 13q-80 0 -80 -95v-44h117v-99h-117v-295q13 0 21 -1l25 -2q8 0 16 -1.5t15 -3t9 -1.5
v-84h-285v84q34 9 67 9v303h-181v-303q40 0 74 -9v-84h-279z" />
    <glyph glyph-name="f_f_i" horiz-adv-x="948" 
d="M29 0v84q34 9 73 9v295h-73v99h73v50q0 89 49 142t138 53q74 0 110 -20l-34 -96q-27 10 -55 10q-76 0 -76 -95v-44h181v49q0 92 59 144t168 52t185 -45l-48 -93q-57 32 -124 32q-108 0 -108 -100v-39h157l164 6l-5 -79v-321q34 0 68 -9v-84h-270v84q34 9 67 9v303h-181
v-303q40 0 74 -9v-84h-273v84q34 9 67 9v303h-181v-303q40 0 74 -9v-84h-279z" />
    <glyph glyph-name="f_f_l" horiz-adv-x="964" 
d="M29 0v84q34 9 73 9v295h-73v99h73v50q0 89 49 142t138 53q74 0 110 -20l-34 -96q-27 10 -55 10q-76 0 -76 -95v-44h181v50q0 91 52.5 141.5t147.5 50.5q75 0 121 -13l148 7l-6 -80v-550q39 0 68 -9v-84h-269v84q34 9 68 9v521q-34 14 -93 14q-105 0 -105 -100v-41h117
v-99h-117v-295q13 0 21 -1l25 -2q8 0 16 -1.5t15 -3t9 -1.5v-84h-285v84q34 9 67 9v303h-181v-303q40 0 74 -9v-84h-279z" />
    <glyph glyph-name="f_i" horiz-adv-x="635" 
d="M29 0v84q34 9 73 9v295h-73v99h73v49q0 92 59 144t168 52t185 -45l-47 -93q-57 32 -125 32q-108 0 -108 -100v-39h157l164 6l-5 -79v-321q34 0 68 -9v-84h-270v84q34 9 67 9v303h-181v-303q40 0 74 -9v-84h-279z" />
    <glyph glyph-name="f_l" horiz-adv-x="651" 
d="M29 0v84q34 9 73 9v295h-73v99h73v50q0 91 52.5 141.5t147.5 50.5q75 0 121 -13l148 7l-6 -80v-550q39 0 68 -9v-84h-269v84q34 9 68 9v521q-34 14 -93 14q-105 0 -105 -100v-41h117v-99h-117v-295q13 0 21 -1l25 -2q8 0 16 -1.5t15 -3t9 -1.5v-84h-291z" />
    <glyph glyph-name="uni2007.tosf" 
 />
    </font>
</defs>
</svg>
