<?xml version="1.0" standalone="no"?>
<!DOCTYPE svg PUBLIC "-//W3C//DTD SVG 1.1//EN" "http://www.w3.org/Graphics/SVG/1.1/DTD/svg11.dtd" >
<svg>
<metadata>
Created by FontForge 20120731 at Wed Jan 13 03:50:43 2016
 By ,,,
Copyright (c) 2006 by FontFont. All rights reserved.
</metadata>
<defs>
<font id="FFKievitPro-MediumItalic" horiz-adv-x="542" >
  <font-face 
    font-family="FF Kievit Pro"
    font-weight="500"
    font-style="italic"
    font-stretch="normal"
    units-per-em="1000"
    panose-1="2 0 5 3 5 0 0 2 0 4"
    ascent="760"
    descent="-240"
    x-height="484"
    cap-height="666"
    bbox="-224 -250 1190 925"
    underline-thickness="20"
    underline-position="-113"
    unicode-range="U+000D-FB04"
  />
<missing-glyph horiz-adv-x="522" 
d="M23 0v666h476v-666h-476zM107 84h308v498h-308v-498z" />
    <glyph glyph-name="uniFB00" unicode="ff" horiz-adv-x="632" 
d="M-43 -233q-44 0 -84 17l30 82q30 -13 59 -13q70 0 90 108l81 443h-90l14 80h91l8 47q18 100 69 146.5t143 46.5q86 0 143 -41q49 48 135 48q74 0 122 -31l-43 -80q-37 23 -80 23q-42 0 -63 -25t-30 -72l-11 -62h114l-14 -80h-115l-79 -436q-18 -100 -61.5 -147
t-133.5 -47q-41 0 -81 16l30 82q32 -12 56 -12q66 0 85 104l81 440h-187l-80 -439q-18 -103 -62 -150.5t-137 -47.5zM251 484h186l12 65q6 34 16 57q-39 30 -98 30q-49 0 -73 -24.5t-35 -83.5z" />
    <glyph glyph-name="fi" unicode="fi" horiz-adv-x="560" 
d="M-44 -230q-44 0 -84 17l30 82q27 -12 60 -12q69 0 89 107l81 440h-89l14 80h89l11 57q18 99 73.5 144.5t149.5 45.5q88 0 147 -37l-44 -80q-47 29 -103 29q-53 0 -81.5 -24t-39.5 -82l-9 -53h275l-88 -484h-104l73 404h-171l-80 -436q-18 -103 -62 -150.5t-137 -47.5z
" />
    <glyph glyph-name="fl" unicode="fl" horiz-adv-x="564" 
d="M-44 -230q-44 0 -84 17l30 82q27 -12 60 -12q69 0 89 107l81 440h-89l14 80h89l12 65q17 95 71.5 138.5t153.5 43.5q107 0 187 -34l-126 -697h-104l114 632q-38 11 -81 11q-51 0 -77 -22.5t-36 -77.5l-10 -59h106l-14 -80h-107l-80 -436q-18 -103 -62 -150.5t-137 -47.5z
" />
    <glyph glyph-name="uniFB03" unicode="ffi" horiz-adv-x="852" 
d="M-43 -233q-44 0 -84 17l30 82q30 -13 59 -13q70 0 90 108l81 443h-90l14 80h91l8 47q18 100 69 146.5t143 46.5q88 0 148 -44q55 51 155 51q89 0 148 -37l-45 -80q-47 29 -103 29q-53 0 -81.5 -24t-38.5 -82l-10 -53h275l-87 -484h-104l73 404h-172l-79 -436
q-19 -103 -62.5 -150.5t-136.5 -47.5q-43 0 -81 17l30 82q26 -12 57 -12q70 0 88 107l81 440h-187l-80 -439q-18 -103 -62 -150.5t-137 -47.5zM251 484h187l10 57q5 28 18 64q-40 31 -99 31q-49 0 -73 -24.5t-35 -83.5z" />
    <glyph glyph-name="uniFB04" unicode="ffl" horiz-adv-x="856" 
d="M-43 -233q-44 0 -84 17l30 82q30 -13 59 -13q70 0 90 108l81 443h-90l14 80h91l8 47q18 100 69 146.5t143 46.5q85 0 146 -43q54 50 160 50q107 0 187 -34l-126 -697h-104l114 632q-37 11 -81 11q-51 0 -76.5 -22.5t-35.5 -77.5l-11 -59h106l-14 -80h-107l-79 -436
q-18 -100 -61.5 -147t-133.5 -47q-41 0 -81 16l30 82q32 -12 56 -12q66 0 85 104l81 440h-187l-80 -439q-18 -103 -62 -150.5t-137 -47.5zM251 484h186l12 65q5 27 16 56q-38 31 -98 31q-49 0 -73 -24.5t-35 -83.5z" />
    <glyph glyph-name=".notdef" horiz-adv-x="522" 
d="M23 0v666h476v-666h-476zM107 84h308v498h-308v-498z" />
    <glyph glyph-name=".null" horiz-adv-x="0" 
 />
    <glyph glyph-name=".null" horiz-adv-x="0" 
 />
    <glyph glyph-name="nonmarkingreturn" horiz-adv-x="333" 
 />
    <glyph glyph-name="CR" unicode="&#xd;" horiz-adv-x="220" 
 />
    <glyph glyph-name="space" unicode=" " horiz-adv-x="220" 
 />
    <glyph glyph-name="exclam" unicode="!" horiz-adv-x="268" 
d="M106 -9q-31 0 -52 20.5t-21 50.5q0 28 21 48.5t52 20.5q30 0 50.5 -20.5t20.5 -48.5q0 -29 -20.5 -50t-50.5 -21zM84 214l59 452h124l-103 -452h-80z" />
    <glyph glyph-name="quotedbl" unicode="&#x22;" horiz-adv-x="379" 
d="M116 432l11 234h109l-48 -234h-72zM263 432l26 234h110l-63 -234h-73z" />
    <glyph glyph-name="numbersign" unicode="#" horiz-adv-x="514" 
d="M81 96l40 134h-85l22 79h86l30 96h-91l21 79h93l38 126h76l-38 -126h88l38 126h76l-38 -126h83l-22 -79h-84l-29 -96h90l-23 -79h-91l-40 -134h-76l40 134h-88l-40 -134h-76zM218 307h91l31 99h-91z" />
    <glyph glyph-name="dollar" unicode="$" horiz-adv-x="438" 
d="M108 -123l20 113q-78 12 -125 51l50 77q60 -48 125 -48q100 0 100 60q0 11 -5 20t-17 17.5t-23.5 15t-33 17.5t-36.5 20q-50 29 -73.5 58.5t-23.5 74.5q0 56 42 93.5t108 46.5l19 103h92l-18 -103q62 -8 103 -35l-48 -77q-49 32 -113 32q-39 0 -62 -13.5t-23 -38.5
q0 -15 13.5 -29t27 -22t44.5 -23q9 -5 14 -7q57 -29 87 -59.5t30 -79.5q0 -63 -44 -102t-118 -48l-20 -114h-92z" />
    <glyph glyph-name="percent" unicode="%" horiz-adv-x="785" 
d="M174 199q-62 0 -97.5 36.5t-35.5 90.5q0 69 48 119.5t124 50.5q65 0 99.5 -34.5t34.5 -90.5q0 -70 -48.5 -121t-124.5 -51zM182 265q35 0 56 29t21 73q0 63 -53 63q-35 0 -56 -28t-21 -71q0 -66 53 -66zM571 -12q-62 0 -97.5 36.5t-35.5 90.5q0 69 48.5 119.5t123.5 50.5
q65 0 99.5 -34.5t34.5 -90.5q0 -71 -48.5 -121.5t-124.5 -50.5zM578 54q35 0 56 29t21 73q0 63 -52 63q-35 0 -56 -28t-21 -71q0 -66 52 -66zM164 0l372 484h87l-372 -484h-87z" />
    <glyph glyph-name="ampersand" unicode="&#x26;" horiz-adv-x="697" 
d="M558 -91q-52 0 -92 26t-93 88q-80 -35 -156 -35q-90 0 -138.5 49.5t-48.5 130.5q0 136 82 232.5t191 96.5q60 0 94.5 -29.5t34.5 -82.5q0 -49 -36.5 -85.5t-88.5 -57.5l94 -112q41 29 71 59q54 54 85.5 122t31.5 131q0 81 -49 125t-158 60l17 89q144 -16 218 -84.5
t74 -183.5q0 -82 -46.5 -171t-123.5 -157q-37 -35 -69 -57q39 -44 61.5 -59.5t51.5 -15.5q33 0 63 19l29 -72q-47 -26 -99 -26zM234 75q42 0 88 19l-115 136l17 51q51 12 80.5 37.5t29.5 55.5q0 40 -50 40q-61 0 -105.5 -72t-44.5 -164q0 -103 100 -103z" />
    <glyph glyph-name="quotesingle" unicode="'" horiz-adv-x="218" 
d="M106 432l20 234h114l-62 -234h-72z" />
    <glyph glyph-name="parenleft" unicode="(" horiz-adv-x="315" 
d="M148 -172q-112 150 -112 344q0 101 27.5 194t72.5 162.5t83 113.5t78 78h102q-40 -38 -77 -83t-80 -114.5t-69 -161t-26 -188.5q0 -193 96 -345h-95z" />
    <glyph glyph-name="parenright" unicode=")" horiz-adv-x="318" 
d="M-76 -172q259 252 259 560q0 112 -30.5 196.5t-69.5 135.5h98q43 -51 78 -135.5t35 -195.5q0 -310 -265 -561h-105z" />
    <glyph glyph-name="asterisk" unicode="*" horiz-adv-x="454" 
d="M164 305l-66 51l108 109l-125 35l37 77l120 -47l16 136h91l-31 -136l131 47l18 -81l-141 -33l73 -115l-76 -43l-58 120z" />
    <glyph glyph-name="plus" unicode="+" horiz-adv-x="555" 
d="M190 37l33 185h-173l15 84h173l31 178h91l-31 -178h174l-15 -84h-174l-32 -185h-92z" />
    <glyph glyph-name="comma" unicode="," horiz-adv-x="245" 
d="M41 -156l-43 38q56 54 56 93q0 19 -16 45t-16 49q0 30 20 49.5t50 19.5q33 0 54.5 -22.5t21.5 -60.5q0 -56 -38 -112.5t-89 -98.5z" />
    <glyph glyph-name="hyphen" unicode="-" horiz-adv-x="315" 
d="M49 240l16 88h214l-15 -88h-215z" />
    <glyph glyph-name="period" unicode="." horiz-adv-x="245" 
d="M95 -10q-31 0 -53 21.5t-22 52.5q0 30 22 51.5t53 21.5t52.5 -21.5t21.5 -51.5q0 -31 -21.5 -52.5t-52.5 -21.5z" />
    <glyph glyph-name="slash" unicode="/" horiz-adv-x="428" 
d="M-62 -161l463 881h103l-464 -881h-102z" />
    <glyph glyph-name="zero" unicode="0" horiz-adv-x="545" 
d="M237 -12q-93 0 -145.5 62t-52.5 149q0 122 79.5 210t196.5 88q96 0 146 -60t50 -149q0 -126 -77 -213t-197 -87zM247 71q71 0 115 64.5t44 151.5q0 127 -101 127q-67 0 -112.5 -63t-45.5 -148q0 -64 25.5 -98t74.5 -34z" />
    <glyph glyph-name="one" unicode="1" horiz-adv-x="343" 
d="M112 0l70 388l-115 -33l-19 83l177 46h79l-87 -484h-105z" />
    <glyph glyph-name="two" unicode="2" horiz-adv-x="473" 
d="M-7 0l8 49q82 54 126 85t93 72.5t70 75.5t21 68q0 59 -76 59q-59 0 -119 -45l-45 69q85 64 182 64q80 0 125 -34.5t45 -96.5q0 -43 -23 -85.5t-64 -79.5t-77 -63.5t-83 -54.5q39 3 69 3h171l-15 -86h-408z" />
    <glyph glyph-name="three" unicode="3" horiz-adv-x="445" 
d="M74 -188q-60 0 -99 13l25 82q33 -10 78 -10q80 0 130.5 37t50.5 103q0 104 -159 102l12 77q71 1 127.5 35.5t56.5 91.5q0 30 -20.5 47.5t-59.5 17.5q-51 0 -111 -38l-45 69q79 58 178 58q80 0 124 -38.5t44 -96.5q0 -66 -49 -112.5t-114 -64.5v-1q54 -10 92 -48t38 -96
q0 -103 -85.5 -165.5t-213.5 -62.5z" />
    <glyph glyph-name="four" unicode="4" horiz-adv-x="550" 
d="M251 -177l33 177h-299l10 67l384 417h98l-74 -401h103l-14 -83h-104l-32 -177h-105zM114 83h185l51 263h-2z" />
    <glyph glyph-name="five" unicode="5" horiz-adv-x="430" 
d="M73 -188q-55 0 -101 13l25 83q37 -11 80 -11q80 0 129.5 39t49.5 109q0 72 -58 104q-49 26 -140 23l61 312h308l-14 -83h-210l-31 -152q89 -9 143.5 -60.5t54.5 -133.5q0 -114 -83.5 -178.5t-213.5 -64.5z" />
    <glyph glyph-name="six" unicode="6" horiz-adv-x="530" 
d="M251 -12q-97 0 -150 65.5t-53 177.5q0 87 32.5 167t92 142.5t150.5 100t200 37.5l10 -86q-148 0 -249 -77q-82 -64 -111 -166q60 52 143 52q81 0 129 -45.5t48 -123.5q0 -106 -70 -175t-172 -69zM257 71q58 0 94 43.5t36 109.5q0 45 -25.5 70t-74.5 25q-74 0 -130 -50
q-2 -32 -2 -48q0 -72 26.5 -111t75.5 -39z" />
    <glyph glyph-name="seven" unicode="7" horiz-adv-x="461" 
d="M74 -197l-83 46l339 546h-287l16 89h406l-10 -63z" />
    <glyph glyph-name="eight" unicode="8" horiz-adv-x="505" 
d="M216 -12q-93 0 -142.5 45t-49.5 111q0 125 165 201q-90 69 -90 148q0 82 63.5 133.5t152.5 51.5q85 0 133.5 -42t48.5 -104q0 -58 -37 -101t-112 -80q107 -71 107 -160q0 -91 -70 -147t-169 -56zM222 73q51 0 87 31t36 79q0 32 -22 59.5t-69 58.5q-60 -30 -92 -65
t-32 -81q0 -37 25 -59.5t67 -22.5zM282 395q108 56 108 127q0 31 -21.5 52t-61.5 21q-43 0 -71.5 -25.5t-28.5 -67.5q0 -54 75 -107z" />
    <glyph glyph-name="nine" unicode="9" horiz-adv-x="522" 
d="M6 -184l-10 85q143 0 241 70q83 61 114 157q-61 -43 -128 -43q-83 0 -131 47.5t-48 124.5q0 106 72.5 173t170.5 67q100 0 148 -59.5t48 -158.5q0 -210 -130 -336.5t-347 -126.5zM248 165q63 0 122 43q6 36 6 73q0 133 -97 133q-52 0 -89.5 -40t-37.5 -106
q0 -47 24.5 -75t71.5 -28z" />
    <glyph glyph-name="colon" unicode=":" horiz-adv-x="245" 
d="M95 -10q-31 0 -53 21.5t-22 52.5q0 30 22 51.5t53 21.5t52.5 -21.5t21.5 -51.5q0 -31 -21.5 -52.5t-52.5 -21.5zM155 343q-32 0 -53.5 21t-21.5 52q0 30 22 51.5t53 21.5t52.5 -21.5t21.5 -51.5q0 -31 -21.5 -52t-52.5 -21z" />
    <glyph glyph-name="semicolon" unicode=";" horiz-adv-x="245" 
d="M41 -156l-43 38q56 54 56 93q0 19 -16 45t-16 49q0 30 20 49.5t50 19.5q33 0 54.5 -22.5t21.5 -60.5q0 -56 -38 -112.5t-89 -98.5zM156 343q-32 0 -53.5 21t-21.5 52q0 30 22 51.5t53 21.5q30 0 52 -21.5t22 -51.5t-22 -51.5t-52 -21.5z" />
    <glyph glyph-name="less" unicode="&#x3c;" horiz-adv-x="401" 
d="M255 23l-215 225l281 224l51 -66l-209 -164l153 -162z" />
    <glyph glyph-name="equal" unicode="=" horiz-adv-x="516" 
d="M42 134l15 85h393l-15 -85h-393zM74 311l14 84h393l-15 -84h-392z" />
    <glyph glyph-name="greater" unicode="&#x3e;" horiz-adv-x="401" 
d="M80 23l-52 66l210 164l-153 161l61 57l215 -224z" />
    <glyph glyph-name="question" unicode="?" horiz-adv-x="406" 
d="M99 209l10 58q8 48 26.5 73.5t62.5 51.5q31 18 43.5 26.5t30 24t24 32.5t6.5 40q0 35 -23 54.5t-66 19.5q-35 0 -84 -20l-32 79q58 30 137 30q87 0 134 -42.5t47 -105.5q0 -37 -12 -67.5t-36.5 -53.5t-45.5 -37t-54 -32q-32 -18 -46.5 -36t-19.5 -48l-9 -47h-93zM120 -9
q-31 0 -52 20.5t-21 50.5q0 28 21 48.5t52 20.5q30 0 51 -20.5t21 -48.5q0 -30 -21 -50.5t-51 -20.5z" />
    <glyph glyph-name="at" unicode="@" horiz-adv-x="766" 
d="M379 -95q-155 0 -247 95t-92 241q0 152 106.5 268.5t263.5 116.5t248 -93t91 -214q0 -102 -53.5 -170t-135.5 -68q-50 0 -77 26.5t-29 71.5h-3q-18 -38 -52 -67.5t-82 -29.5q-45 0 -71.5 34.5t-26.5 83.5q0 109 57 187.5t155 78.5q59 0 133 -24l-27 -155q-11 -66 -11 -78
q0 -24 12.5 -40t31.5 -16q45 0 75 45t30 114q0 110 -74 177t-191 67q-115 0 -200.5 -91t-85.5 -221q0 -123 69.5 -195.5t196.5 -72.5q80 0 146 29l28 -66q-84 -34 -185 -34zM347 160q45 0 76.5 61.5t47.5 145.5l5 24q-22 9 -50 9q-51 0 -82.5 -55t-31.5 -129q0 -56 35 -56z
" />
    <glyph glyph-name="A" unicode="A" horiz-adv-x="636" 
d="M213 235h209l-30 189l-16 121h-2q-26 -61 -58 -121zM-25 0l371 666h107l122 -666h-116l-23 143h-270l-77 -143h-114z" />
    <glyph glyph-name="B" unicode="B" horiz-adv-x="579" 
d="M44 0l118 666h193q89 0 142 -38t53 -111q0 -69 -38 -112.5t-105 -60.5v-2q53 -9 86 -43.5t33 -87.5q0 -105 -76 -158t-205 -53h-201zM169 88h84q161 0 161 122q0 44 -30 68.5t-89 24.5h-88zM221 386h85q66 0 99.5 30t33.5 82q0 80 -105 80h-78z" />
    <glyph glyph-name="C" unicode="C" horiz-adv-x="610" 
d="M332 -12q-137 0 -208 79t-71 202q0 169 111 289t278 120q123 0 189 -48l-57 -83q-53 37 -139 37q-115 0 -189.5 -89.5t-74.5 -219.5q0 -88 42.5 -140.5t128.5 -52.5q83 0 159 59l46 -80q-32 -30 -90.5 -51.5t-124.5 -21.5z" />
    <glyph glyph-name="D" unicode="D" horiz-adv-x="677" 
d="M43 0l118 666h174q160 0 240.5 -70t80.5 -192q0 -81 -26.5 -153t-76.5 -128.5t-131.5 -89.5t-183.5 -33h-195zM171 91h87q133 0 206.5 86t73.5 223q0 90 -51 132.5t-160 42.5h-71z" />
    <glyph glyph-name="E" unicode="E" horiz-adv-x="510" 
d="M43 0l118 666h359l-17 -94h-248l-32 -178h219l-17 -90h-218l-37 -210h255l-17 -94h-365z" />
    <glyph glyph-name="F" unicode="F" horiz-adv-x="496" 
d="M44 0l118 666h361l-17 -94h-249l-34 -185h219l-16 -91h-219l-52 -296h-111z" />
    <glyph glyph-name="G" unicode="G" horiz-adv-x="696" 
d="M351 -12q-143 0 -220 79.5t-77 204.5q0 168 114.5 287t284.5 119q131 0 209 -54l-61 -85q-60 45 -158 45q-122 0 -196.5 -88.5t-74.5 -221.5q0 -89 46.5 -141.5t137.5 -52.5q73 0 137 32l27 158h-132l16 90h240l-55 -307q-95 -65 -238 -65z" />
    <glyph glyph-name="H" unicode="H" horiz-adv-x="722" 
d="M43 0l118 666h111l-48 -271h327l48 271h111l-119 -666h-111l54 302h-326l-54 -302h-111z" />
    <glyph glyph-name="I" unicode="I" horiz-adv-x="296" 
d="M48 0l119 666h112l-119 -666h-112z" />
    <glyph glyph-name="J" unicode="J" horiz-adv-x="294" 
d="M-40 -198q-51 0 -79 15l36 92q19 -8 41 -8q40 0 62.5 25.5t32.5 82.5l118 657h110l-120 -673q-33 -191 -201 -191z" />
    <glyph glyph-name="K" unicode="K" horiz-adv-x="592" 
d="M44 0l118 666h110l-55 -308l295 308h127l-307 -318l209 -348h-123l-204 340l-60 -340h-110z" />
    <glyph glyph-name="L" unicode="L" horiz-adv-x="478" 
d="M43 0l119 666h111l-102 -574h249l-16 -92h-361z" />
    <glyph glyph-name="M" unicode="M" horiz-adv-x="856" 
d="M11 0l208 666h104l65 -450q4 -24 7.5 -61.5t3.5 -40.5h2q31 69 48 102l231 450h107l-32 -666h-110l23 388q5 75 9 99h-2q-16 -40 -42 -91l-203 -396h-105l-57 392q-4 26 -8 60l-3 35h-2q-3 -19 -26 -99l-116 -388h-102z" />
    <glyph glyph-name="N" unicode="N" horiz-adv-x="708" 
d="M41 0l118 666h109l198 -404q29 -57 44 -106h1q6 61 15 108l72 402h100l-118 -666h-100l-207 421q-22 43 -41 99h-2q-6 -55 -14 -100l-75 -420h-100z" />
    <glyph glyph-name="O" unicode="O" horiz-adv-x="744" 
d="M344 -12q-134 0 -211.5 84t-77.5 205q0 102 45.5 193t133.5 149.5t198 58.5q138 0 212.5 -82.5t74.5 -206.5q0 -103 -44.5 -193.5t-132 -149t-198.5 -58.5zM351 80q114 0 182.5 92.5t68.5 215.5q0 86 -45.5 142t-132.5 56q-115 0 -183.5 -91.5t-68.5 -215.5
q0 -86 48 -142.5t131 -56.5z" />
    <glyph glyph-name="P" unicode="P" horiz-adv-x="557" 
d="M43 0l118 666h186q98 0 156.5 -45.5t58.5 -127.5q0 -116 -79 -179t-211 -63h-74l-44 -251h-111zM215 340h69q82 0 123 37.5t41 103.5q0 96 -120 96h-71z" />
    <glyph glyph-name="Q" unicode="Q" horiz-adv-x="744" 
d="M500 -169q-82 0 -145 40t-116 133q-87 29 -135.5 104t-48.5 169q0 102 45.5 193t133.5 149.5t198 58.5q138 0 212.5 -82.5t74.5 -206.5q0 -150 -94 -268t-246 -130q47 -74 133 -74q57 0 107 31l32 -77q-61 -40 -151 -40zM350 79q115 0 183.5 93t68.5 216q0 86 -45.5 142
t-132.5 56q-115 0 -183.5 -91.5t-68.5 -215.5q0 -86 47.5 -143t130.5 -57z" />
    <glyph glyph-name="R" unicode="R" horiz-adv-x="595" 
d="M44 0l118 666h196q96 0 149 -42t53 -117q0 -89 -54 -140.5t-147 -62.5v-2q30 -24 66 -95l107 -207h-121l-95 191q-32 63 -49.5 80.5t-48.5 17.5h-11l-52 -289h-111zM220 373h90q68 0 102.5 33.5t34.5 89.5q0 81 -107 81h-82z" />
    <glyph glyph-name="S" unicode="S" horiz-adv-x="474" 
d="M197 -12q-124 0 -206 76l63 76q67 -59 148 -59q56 0 83 25.5t27 65.5q0 35 -18.5 58t-72.5 67q-8 7 -13 11q-30 26 -46.5 42t-37 41t-29.5 53t-9 60q0 83 58 128.5t150 45.5q99 0 172 -54l-55 -81q-57 45 -121 45q-47 0 -71 -21.5t-24 -59.5q0 -23 13.5 -44.5t28 -35
t54.5 -45.5q35 -29 50 -42.5t39 -41t33.5 -56t9.5 -63.5q0 -82 -58 -136.5t-168 -54.5z" />
    <glyph glyph-name="T" unicode="T" horiz-adv-x="511" 
d="M159 0l102 572h-185l16 94h476l-16 -94h-180l-102 -572h-111z" />
    <glyph glyph-name="U" unicode="U" horiz-adv-x="689" 
d="M316 -12q-118 0 -178 54.5t-60 150.5q0 31 6 65l72 408h111l-71 -401q-6 -34 -6 -62q0 -62 33 -91.5t102 -29.5q80 0 122.5 43t59.5 135l72 406h103l-75 -417q-23 -130 -92.5 -195.5t-198.5 -65.5z" />
    <glyph glyph-name="V" unicode="V" horiz-adv-x="623" 
d="M225 0l-136 666h114l78 -426q8 -41 17 -116h2q32 75 53 116l215 426h114l-353 -666h-104z" />
    <glyph glyph-name="W" unicode="W" horiz-adv-x="877" 
d="M153 0l-61 666h111l29 -373q7 -96 7 -137h2q12 34 56 138l160 372h110l37 -383q7 -81 9 -127h3q15 46 48 127l157 383h112l-292 -666h-104l-37 390q-3 34 -6.5 84.5t-4.5 59.5h-2q-26 -69 -60 -144l-173 -390h-101z" />
    <glyph glyph-name="X" unicode="X" horiz-adv-x="583" 
d="M-19 0l268 346l-140 320h118l98 -239l171 239h119l-248 -323l150 -343h-118l-108 262l-190 -262h-120z" />
    <glyph glyph-name="Y" unicode="Y" horiz-adv-x="571" 
d="M191 0l45 251l-147 415h115l105 -312h1l203 312h115l-281 -416l-45 -250h-111z" />
    <glyph glyph-name="Z" unicode="Z" horiz-adv-x="531" 
d="M-12 0l14 75l405 500h-302l17 91h443l-14 -72l-409 -503h331l-17 -91h-468z" />
    <glyph glyph-name="bracketleft" unicode="[" horiz-adv-x="320" 
d="M1 -161l153 881h224l-14 -80h-124l-126 -721h124l-14 -80h-223z" />
    <glyph glyph-name="backslash" unicode="\" horiz-adv-x="402" 
d="M240 -161l-161 881h95l161 -881h-95z" />
    <glyph glyph-name="bracketright" unicode="]" horiz-adv-x="319" 
d="M-46 -161l14 80h124l126 721h-124l14 80h224l-154 -881h-224z" />
    <glyph glyph-name="asciicircum" unicode="^" horiz-adv-x="594" 
d="M66 288l266 378h72l132 -378h-93l-89 272l-189 -272h-99z" />
    <glyph glyph-name="underscore" unicode="_" horiz-adv-x="407" 
d="M-75 -173l15 84h410l-15 -84h-410z" />
    <glyph glyph-name="grave" unicode="`" horiz-adv-x="500" 
d="M266 541l-109 131h134l64 -131h-89z" />
    <glyph glyph-name="a" unicode="a" horiz-adv-x="504" 
d="M150 -12q-57 0 -89.5 41.5t-32.5 112.5q0 150 82 252.5t215 102.5q96 0 154 -25l-44 -240q-30 -167 -30 -232h-102q7 76 20 132h-2q-35 -68 -74.5 -106t-96.5 -38zM187 79q51 0 100.5 84.5t70.5 207.5l5 36q-23 7 -56 7q-74 0 -123 -74.5t-49 -180.5q0 -80 52 -80z" />
    <glyph glyph-name="b" unicode="b" horiz-adv-x="510" 
d="M187 -12q-95 0 -165 22l128 710h104l-44 -238q-12 -66 -29 -125h2q38 66 78.5 103t98.5 37q59 0 91 -44.5t32 -116.5q0 -150 -81.5 -249t-214.5 -99zM197 70q78 0 127 71.5t49 179.5q0 84 -50 84q-55 0 -104 -84t-74 -208l-7 -36q31 -7 59 -7z" />
    <glyph glyph-name="c" unicode="c" horiz-adv-x="418" 
d="M202 -12q-84 0 -131 51t-47 140q0 137 83 227.5t195 90.5q77 0 122 -33l-46 -79q-33 23 -82 23q-66 0 -116 -60.5t-50 -156.5q0 -115 85 -115q55 0 106 48l48 -69q-72 -67 -167 -67z" />
    <glyph glyph-name="d" unicode="d" horiz-adv-x="507" 
d="M152 -12q-60 0 -92 44t-32 116q0 150 81.5 249.5t208.5 99.5q33 0 68 -8l42 231h104l-89 -488q-31 -173 -31 -232h-102q10 90 20 132h-2q-78 -144 -176 -144zM185 79q55 0 106 83.5t74 208.5l6 37q-27 8 -63 8q-75 0 -124 -72.5t-49 -178.5q0 -86 50 -86z" />
    <glyph glyph-name="e" unicode="e" horiz-adv-x="446" 
d="M199 -12q-85 0 -129.5 51.5t-44.5 133.5q0 136 79 230t191 94q64 0 101.5 -31t37.5 -88q0 -154 -304 -192q0 -111 84 -111q65 0 125 54l47 -69q-81 -72 -187 -72zM278 412q-48 0 -86 -44t-54 -110q88 10 140.5 37.5t52.5 70.5q0 46 -53 46z" />
    <glyph glyph-name="f" unicode="f" horiz-adv-x="340" 
d="M-44 -230q-44 0 -84 17l30 82q27 -12 60 -12q69 0 89 107l81 440h-89l14 80h89l12 65q17 92 64.5 137t132.5 45q72 0 122 -31l-43 -80q-37 23 -81 23q-42 0 -63 -25t-29 -72l-11 -62h114l-14 -80h-115l-80 -436q-18 -103 -62 -150.5t-137 -47.5z" />
    <glyph glyph-name="g" unicode="g" horiz-adv-x="503" 
d="M154 -229q-90 0 -166 53l50 80q58 -44 120 -44t95 35t46 106l6 33q12 60 23 94h-2q-36 -64 -76.5 -101t-97.5 -37q-60 0 -92 44t-32 114q0 152 81.5 250.5t213.5 98.5q91 0 165 -21l-87 -471q-23 -125 -80 -179.5t-167 -54.5zM185 79q56 0 106.5 83t73.5 209l6 37
q-27 8 -63 8q-75 0 -124 -72.5t-49 -178.5q0 -86 50 -86z" />
    <glyph glyph-name="h" unicode="h" horiz-adv-x="522" 
d="M23 0l132 720h103l-43 -235q-8 -43 -27 -127h2q15 26 29 45.5t37 43.5t53.5 37t65.5 13q51 0 77.5 -31.5t26.5 -89.5q0 -30 -5 -55l-59 -321h-103l55 314q4 20 4 38q0 52 -42 52q-55 0 -108 -86.5t-86 -270.5l-8 -47h-104z" />
    <glyph glyph-name="i" unicode="i" horiz-adv-x="249" 
d="M190 562q-28 0 -47.5 20t-19.5 47t19.5 46.5t47.5 19.5q29 0 48 -19.5t19 -46.5q0 -28 -19 -47.5t-48 -19.5zM28 0l88 484h104l-88 -484h-104z" />
    <glyph glyph-name="j" unicode="j" horiz-adv-x="245" 
d="M-69 -230q-40 0 -82 15l34 84q17 -10 47 -10q41 0 61.5 28t31.5 89l91 508h104l-91 -516q-17 -94 -61.5 -146t-134.5 -52zM189 562q-28 0 -47.5 20t-19.5 47t19.5 46.5t47.5 19.5t47.5 -19.5t19.5 -46.5t-19.5 -47t-47.5 -20z" />
    <glyph glyph-name="k" unicode="k" horiz-adv-x="469" 
d="M20 0l126 720h104l-77 -444l203 208h122l-220 -218l139 -266h-111l-136 263l-45 -263h-105z" />
    <glyph glyph-name="l" unicode="l" horiz-adv-x="249" 
d="M28 0l130 720h104l-130 -720h-104z" />
    <glyph glyph-name="m" unicode="m" horiz-adv-x="797" 
d="M23 0l88 484h100q-5 -50 -26 -130h2q76 143 181 143q100 0 100 -115q0 -15 -1 -22h2q37 63 80 100t103 37q50 0 76.5 -32t26.5 -90q0 -27 -6 -58l-57 -317h-103l55 305q5 27 5 45q0 54 -41 54q-55 0 -106 -87.5t-84 -269.5l-9 -47h-103l55 305q4 19 4 42q0 57 -42 57
q-53 0 -104 -87.5t-84 -269.5l-8 -47h-104z" />
    <glyph glyph-name="n" unicode="n" horiz-adv-x="522" 
d="M23 0l88 484h100q-8 -60 -26 -132h2q16 28 30.5 48.5t37.5 45t54 38t66 13.5q51 0 77.5 -31.5t26.5 -89.5q0 -30 -5 -55l-59 -321h-103l55 314q4 20 4 38q0 52 -42 52q-55 0 -108 -86.5t-86 -270.5l-8 -47h-104z" />
    <glyph glyph-name="o" unicode="o" horiz-adv-x="498" 
d="M210 -12q-89 0 -136.5 58.5t-47.5 142.5q0 123 75.5 215.5t186.5 92.5q88 0 136 -57t48 -144q0 -128 -75 -218t-187 -90zM218 70q65 0 107 70t42 150q0 124 -87 124q-64 0 -107 -70.5t-43 -151.5q0 -56 22.5 -89t65.5 -33z" />
    <glyph glyph-name="p" unicode="p" horiz-adv-x="509" 
d="M-20 -218l128 702h101q-9 -52 -28 -128h2q37 67 77.5 104t99.5 37q58 0 89.5 -44.5t31.5 -116.5q0 -149 -80 -248.5t-207 -99.5q-39 0 -71 7l-39 -213h-104zM197 68q78 0 127 72t49 181q0 84 -50 84q-55 0 -104.5 -84.5t-73.5 -207.5l-7 -38q31 -7 59 -7z" />
    <glyph glyph-name="q" unicode="q" horiz-adv-x="503" 
d="M257 -218l42 220q14 77 29 126h-2q-37 -65 -77.5 -102.5t-96.5 -37.5q-60 0 -92 44t-32 116q0 153 81 251t214 98q91 0 165 -21l-128 -694h-103zM185 79q55 0 105.5 84t74.5 208l6 36q-22 9 -63 9q-76 0 -124.5 -72t-48.5 -179q0 -86 50 -86z" />
    <glyph glyph-name="r" unicode="r" horiz-adv-x="371" 
d="M23 0l88 484h100q-6 -48 -28 -139h2q29 62 72.5 107t93.5 45q31 0 53 -10l-38 -100q-21 7 -36 7q-60 0 -111.5 -84t-83.5 -263l-8 -47h-104z" />
    <glyph glyph-name="s" unicode="s" horiz-adv-x="367" 
d="M138 -12q-93 0 -153 50l48 72q51 -40 106 -40q33 0 51 15t18 40q0 7 -1.5 13.5t-5.5 14t-8 13t-12 15t-13 15t-17 17t-18 18.5q-36 38 -53 66.5t-17 66.5q0 60 44 96.5t119 36.5q80 0 130 -40l-48 -70q-38 28 -84 28q-28 0 -44.5 -12.5t-16.5 -36.5q0 -5 1.5 -10.5
t3 -9.5t5.5 -10t7 -10t9.5 -11.5t10.5 -11.5t13 -13.5t14 -14.5q34 -35 47 -50.5t26 -42.5t13 -57q0 -62 -45.5 -99.5t-129.5 -37.5z" />
    <glyph glyph-name="t" unicode="t" horiz-adv-x="353" 
d="M165 -12q-103 0 -103 100q0 24 6 54l49 262h-81l14 80h82l24 129l110 29l-29 -158h120l-13 -80h-122l-46 -249q-6 -38 -6 -46q0 -32 26 -32q29 0 80 39l40 -71q-69 -57 -151 -57z" />
    <glyph glyph-name="u" unicode="u" horiz-adv-x="522" 
d="M146 -13q-51 0 -77.5 31.5t-26.5 89.5q0 30 5 55l59 321h104l-56 -314q-4 -20 -4 -38q0 -52 42 -52q53 0 106.5 83.5t84.5 258.5l12 62h103l-45 -252q-28 -158 -32 -232h-102q10 90 22 140h-2q-17 -30 -32 -52t-39.5 -47.5t-55.5 -39.5t-66 -14z" />
    <glyph glyph-name="v" unicode="v" horiz-adv-x="450" 
d="M117 0l-71 484h108l30 -270q3 -32 6 -86h2l185 356h110l-275 -484h-95z" />
    <glyph glyph-name="w" unicode="w" horiz-adv-x="705" 
d="M101 0l-51 484h107l19 -253q1 -22 2 -57t1 -42h2l168 352h94l17 -248q4 -57 4 -99h2l167 347h107l-248 -484h-94l-25 356h-2l-178 -356h-92z" />
    <glyph glyph-name="x" unicode="x" horiz-adv-x="457" 
d="M-37 0l208 250l-114 234h115l68 -154l118 154h114l-192 -233l119 -251h-115l-74 170l-134 -170h-113z" />
    <glyph glyph-name="y" unicode="y" horiz-adv-x="471" 
d="M-2 -223q-59 0 -89 18l38 83q25 -11 57 -11q43 0 74.5 26.5t71.5 98.5l-97 492h109l52 -311q2 -15 4.5 -40t3.5 -30h2l25 70l142 311h109l-211 -420q-79 -161 -138.5 -224t-152.5 -63z" />
    <glyph glyph-name="z" unicode="z" horiz-adv-x="432" 
d="M-9 0l10 61l283 341h-214l15 82h345l-11 -64l-281 -338h230l-14 -82h-363z" />
    <glyph glyph-name="braceleft" unicode="{" horiz-adv-x="375" 
d="M188 -161q-45 0 -74.5 27t-29.5 73q0 17 2 26l32 175q3 15 3 28q0 75 -95 78l14 81q58 0 88.5 25t39.5 78l30 174q21 116 135 116h100l-14 -80h-63q-29 0 -43.5 -17.5t-20.5 -55.5l-28 -159q-17 -102 -114 -125v-2q73 -23 73 -92q0 -13 -3 -30l-29 -169q-4 -26 -4 -33
q0 -20 10 -29t34 -9h63l-14 -80h-92z" />
    <glyph glyph-name="bar" unicode="|" horiz-adv-x="255" 
d="M-6 -250l176 1000h88l-176 -1000h-88z" />
    <glyph glyph-name="braceright" unicode="}" horiz-adv-x="375" 
d="M-45 -161l14 80h63q30 0 44 18t21 55l28 168q17 97 115 125v2q-73 22 -73 93q0 14 3 31l27 158q4 26 4 33q0 20 -10 29t-34 9h-63l14 80h98q42 0 70 -25.5t28 -71.5q0 -13 -3 -28l-29 -165q-2 -16 -2 -23q0 -79 94 -82l-14 -81q-110 -2 -128 -104l-32 -185
q-21 -116 -132 -116h-103z" />
    <glyph glyph-name="asciitilde" unicode="~" horiz-adv-x="586" 
d="M393 171q-54 0 -113.5 31.5t-94.5 31.5q-47 0 -89 -40l-49 63q66 66 144 66q45 0 104 -31.5t104 -31.5q47 0 92 41l48 -63q-65 -67 -146 -67z" />
    <glyph glyph-name="uni00A0" unicode="&#xa0;" horiz-adv-x="220" 
 />
    <glyph glyph-name="exclamdown" unicode="&#xa1;" horiz-adv-x="268" 
d="M161 355q-30 0 -50.5 20.5t-20.5 48.5q0 29 20.5 50t50.5 21q31 0 52 -20.5t21 -50.5q0 -28 -21 -48.5t-52 -20.5zM0 -180l102 453h81l-59 -453h-124z" />
    <glyph glyph-name="cent" unicode="&#xa2;" horiz-adv-x="412" 
d="M130 -123l20 117q-60 14 -93 62.5t-33 122.5q0 116 61.5 201t152.5 108l19 108h92l-18 -101q54 -5 93 -31l-46 -79q-33 23 -82 23q-66 0 -116 -60.5t-50 -156.5q0 -115 85 -115q55 0 106 48l48 -69q-53 -50 -126 -63l-20 -115h-93z" />
    <glyph glyph-name="sterling" unicode="&#xa3;" horiz-adv-x="466" 
d="M56 282l14 79h86q2 87 10 129q32 188 215 188q77 0 129 -34l-47 -80q-40 26 -87 26q-42 0 -67.5 -26.5t-35.5 -83.5q-8 -38 -12 -119h146l-14 -79h-135q-16 -135 -102 -196h242l-15 -86h-377l12 69q58 30 93 86t43 127h-98z" />
    <glyph glyph-name="currency" unicode="&#xa4;" horiz-adv-x="555" 
d="M71 -9l-66 58l96 100q-23 38 -23 86q0 92 70 162l-62 101l87 57l59 -104q42 16 85 16q42 0 73 -13l96 102l65 -58l-93 -95q30 -39 30 -95q0 -99 -72 -166l56 -92l-87 -58l-54 96q-44 -14 -82 -14q-49 0 -85 18zM264 163q53 0 88.5 39t35.5 94q0 37 -23.5 60t-62.5 23
q-52 0 -88.5 -39t-36.5 -91q0 -39 24 -62.5t63 -23.5z" />
    <glyph glyph-name="yen" unicode="&#xa5;" horiz-adv-x="567" 
d="M191 0l17 90h-163l15 77h162l11 65h-163l14 76h132l-126 358h111l105 -319h1l205 319h113l-241 -358h133l-15 -76h-161l-11 -65h162l-14 -77h-162l-16 -90h-109z" />
    <glyph glyph-name="brokenbar" unicode="&#xa6;" horiz-adv-x="167" 
d="M-47 -250l67 378h91l-67 -378h-91zM64 382l65 368h91l-65 -368h-91z" />
    <glyph glyph-name="section" unicode="&#xa7;" horiz-adv-x="423" 
d="M116 -152q-78 0 -125 37l49 75q32 -25 78 -25q41 0 64 22.5t23 59.5q0 28 -24.5 67t-54 72.5t-54 82.5t-24.5 96q0 87 99 141q-20 42 -20 80q0 83 55.5 129.5t133.5 46.5q76 0 124 -32l-47 -75q-30 23 -78 23q-39 0 -60.5 -23t-21.5 -61q0 -24 16 -52t38.5 -56
t45.5 -58.5t39 -68.5t16 -76q0 -86 -97 -150q20 -40 20 -77q0 -87 -54.5 -132.5t-140.5 -45.5zM247 168q39 29 39 74q0 44 -69 134q-20 26 -29 39q-38 -24 -38 -72q0 -41 49 -109q41 -55 48 -66z" />
    <glyph glyph-name="dieresis" unicode="&#xa8;" horiz-adv-x="500" 
d="M214 543q-26 0 -43.5 17.5t-17.5 43.5t17.5 43.5t43.5 17.5q27 0 45 -17.5t18 -43.5t-18 -43.5t-45 -17.5zM411 543q-26 0 -43.5 17.5t-17.5 43.5t17.5 43.5t43.5 17.5q27 0 45 -17.5t18 -43.5t-18 -43.5t-45 -17.5z" />
    <glyph glyph-name="copyright" unicode="&#xa9;" horiz-adv-x="816" 
d="M435 132q-96 0 -159.5 65.5t-63.5 161.5q0 97 64.5 162t159.5 65q82 0 144 -52l-46 -63q-44 37 -97 37q-62 0 -97.5 -43.5t-35.5 -103.5q0 -65 39.5 -108.5t97.5 -43.5q55 0 107 44l41 -63q-67 -58 -154 -58zM428 -14q-153 0 -261.5 109.5t-108.5 263.5t108.5 263.5
t261.5 109.5t261.5 -109.5t108.5 -263.5t-108.5 -263.5t-261.5 -109.5zM428 52q131 0 215.5 85.5t84.5 221.5q0 135 -85 221t-215 86q-131 0 -216 -86t-85 -221q0 -136 85 -221.5t216 -85.5z" />
    <glyph glyph-name="ordfeminine" unicode="&#xaa;" horiz-adv-x="362" 
d="M150 314q-40 0 -65 29.5t-25 77.5q0 107 61.5 182t157.5 75q65 0 113 -19l-31 -172q-20 -115 -20 -164h-79q9 72 14 95h-1q-49 -104 -125 -104zM179 386q36 0 70 57.5t51 144.5l4 20q-17 5 -37 5q-52 0 -87 -52t-35 -129q0 -46 34 -46z" />
    <glyph glyph-name="guillemotleft" unicode="&#xab;" horiz-adv-x="491" 
d="M119 54l-91 190l158 193h113l-162 -198l87 -185h-105zM320 54l-91 190l158 193h113l-162 -198l87 -185h-105z" />
    <glyph glyph-name="logicalnot" unicode="&#xac;" horiz-adv-x="594" 
d="M428 31l34 193h-430l15 86h519l-49 -279h-89z" />
    <glyph glyph-name="uni00AD" unicode="&#xad;" horiz-adv-x="315" 
d="M49 240l16 88h214l-15 -88h-215z" />
    <glyph glyph-name="registered" unicode="&#xae;" horiz-adv-x="816" 
d="M289 147v433h147q68 0 106 -35t38 -90q0 -47 -28.5 -76t-77.5 -37q23 -18 50 -61l89 -134h-92l-92 144q-15 24 -27 32.5t-33 8.5v-185h-80zM428 -14q-153 0 -261.5 109.5t-108.5 263.5t108.5 263.5t261.5 109.5t261.5 -109.5t108.5 -263.5t-108.5 -263.5t-261.5 -109.5z
M428 52q131 0 215.5 85.5t84.5 221.5q0 135 -85 221t-215 86q-131 0 -216 -86t-85 -221q0 -136 85 -221.5t216 -85.5zM369 390h41q87 0 87 63t-73 63h-55v-126z" />
    <glyph glyph-name="macron" unicode="&#xaf;" horiz-adv-x="500" 
d="M169 567l14 80h275l-14 -80h-275z" />
    <glyph glyph-name="degree" unicode="&#xb0;" horiz-adv-x="339" 
d="M215 406q-55 0 -94.5 40t-39.5 96t39.5 96t94.5 40q56 0 95.5 -40t39.5 -96t-39.5 -96t-95.5 -40zM215 470q30 0 48.5 20.5t18.5 51.5t-18.5 51.5t-48.5 20.5q-29 0 -47.5 -21t-18.5 -51t18.5 -51t47.5 -21z" />
    <glyph glyph-name="plusminus" unicode="&#xb1;" horiz-adv-x="574" 
d="M191 38l32 185h-172l15 84h172l31 177h91l-30 -177h173l-15 -84h-173l-33 -185h-91zM-14 -135l15 85h440l-15 -85h-440z" />
    <glyph glyph-name="twosuperior" unicode="&#xb2;" horiz-adv-x="331" 
d="M45 337l8 45q119 83 147 109q51 46 51 81q0 16 -12.5 24.5t-30.5 8.5q-40 0 -81 -31l-36 53q55 45 132 45q58 0 89 -22t31 -60q0 -48 -41.5 -90.5t-122.5 -97.5q1 0 9.5 0.5t20 1t20.5 0.5h97l-13 -67h-268z" />
    <glyph glyph-name="threesuperior" unicode="&#xb3;" horiz-adv-x="305" 
d="M122 331q-45 0 -71 11l22 65q24 -10 57 -10q36 0 59.5 12t23.5 34q0 38 -94 36l10 54q46 2 74 16t28 34q0 24 -38 24q-35 0 -71 -18l-28 53q50 30 118 30q52 0 80 -18.5t28 -49.5q0 -63 -87 -85v-1q28 -4 49.5 -22.5t21.5 -46.5q0 -54 -46 -86t-136 -32z" />
    <glyph glyph-name="acute" unicode="&#xb4;" horiz-adv-x="500" 
d="M156 541l108 131h143l-156 -131h-95z" />
    <glyph glyph-name="uni00B5" unicode="&#xb5;" horiz-adv-x="560" 
d="M-20 -210l127 694h104l-55 -314q-4 -20 -4 -39q0 -51 41 -51q53 0 106.5 83.5t85.5 258.5l11 62h104l-46 -252q-31 -173 -31 -232h-102q10 87 21 140h-2q-79 -149 -176 -149q-28 0 -45 18q0 -17 -11 -81l-25 -138h-103z" />
    <glyph glyph-name="paragraph" unicode="&#xb6;" horiz-adv-x="625" 
d="M164 -177l77 439q-71 2 -118 51t-47 125q0 100 67.5 164t166.5 64h351l-15 -86h-76l-133 -757h-92l133 757h-88l-133 -757h-93z" />
    <glyph glyph-name="periodcentered" unicode="&#xb7;" horiz-adv-x="259" 
d="M132 219q-30 0 -51.5 21t-21.5 51q0 29 21.5 50t51.5 21t51.5 -21t21.5 -50q0 -30 -21.5 -51t-51.5 -21z" />
    <glyph glyph-name="cedilla" unicode="&#xb8;" horiz-adv-x="500" 
d="M171 -225q-44 0 -75 13l18 51q20 -10 49 -10q48 0 48 37q0 43 -71 39l36 97h66l-24 -62q32 -5 51.5 -25.5t19.5 -51.5q0 -40 -33 -64t-85 -24z" />
    <glyph glyph-name="onesuperior" unicode="&#xb9;" horiz-adv-x="264" 
d="M128 337l49 258l-82 -21l-18 63l128 29h69l-62 -329h-84z" />
    <glyph glyph-name="ordmasculine" unicode="&#xba;" horiz-adv-x="367" 
d="M199 315q-63 0 -98.5 40.5t-35.5 104.5q0 88 55.5 153t136.5 65q64 0 99.5 -40t35.5 -104q0 -96 -54 -157.5t-139 -61.5zM208 380q46 0 73.5 45t27.5 104q0 84 -60 84q-45 0 -73 -47t-28 -104q0 -82 60 -82z" />
    <glyph glyph-name="guillemotright" unicode="&#xbb;" horiz-adv-x="491" 
d="M-6 54l160 197l-87 186h104l91 -191l-155 -192h-113zM195 54l160 197l-87 186h104l91 -191l-155 -192h-113z" />
    <glyph glyph-name="onequarter" unicode="&#xbc;" horiz-adv-x="737" 
d="M170 337l49 258l-82 -21l-18 63l128 29h69l-62 -329h-84zM83 0l522 666h90l-523 -666h-89zM540 0l12 64h-173l10 53l219 212h79l-39 -201h53l-12 -64h-52l-13 -64h-84zM480 126q10 2 36 2h50l20 102h-1z" />
    <glyph glyph-name="onehalf" unicode="&#xbd;" horiz-adv-x="765" 
d="M170 337l49 258l-82 -21l-18 63l128 29h69l-62 -329h-84zM83 0l522 666h90l-523 -666h-89zM418 0l8 45q10 7 33.5 23t33.5 23.5t29.5 21.5t29 22t23.5 20t21 21t14.5 19.5t10.5 20t3 19.5q0 32 -43 32q-42 0 -81 -30l-36 53q55 45 132 45q58 0 89 -22t31 -60
q0 -49 -41 -91t-123 -98q12 3 49 3h98l-13 -67h-268z" />
    <glyph glyph-name="threequarters" unicode="&#xbe;" horiz-adv-x="737" 
d="M122 331q-45 0 -71 11l22 65q24 -10 57 -10q36 0 59.5 12t23.5 34q0 38 -94 36l10 54q46 2 74 16t28 34q0 24 -38 24q-35 0 -71 -18l-28 53q50 30 118 30q52 0 80 -18.5t28 -49.5q0 -63 -87 -85v-1q28 -4 49.5 -22.5t21.5 -46.5q0 -54 -46 -86t-136 -32zM82 0l522 666h90
l-522 -666h-90zM539 0l12 64h-173l10 53l219 212h79l-39 -201h53l-12 -64h-52l-13 -64h-84zM479 126q10 2 36 2h51l19 102h-1z" />
    <glyph glyph-name="questiondown" unicode="&#xbf;" horiz-adv-x="430" 
d="M186 -192q-87 0 -134.5 43t-47.5 105q0 37 12 67t37 53.5t45.5 37.5t53.5 33q32 17 46.5 35t19.5 48l9 47h93l-10 -58q-8 -48 -26 -73t-63 -51q-31 -18 -43.5 -26.5t-30 -24t-24 -33t-6.5 -40.5q0 -34 23 -53.5t66 -19.5q44 0 84 20l33 -80q-62 -30 -137 -30zM299 355
q-30 0 -50.5 20.5t-20.5 48.5q0 29 20.5 50t50.5 21q31 0 52 -20.5t21 -50.5q0 -28 -21 -48.5t-52 -20.5z" />
    <glyph glyph-name="Agrave" unicode="&#xc0;" horiz-adv-x="636" 
d="M213 235h209l-30 189l-16 121h-2q-26 -61 -58 -121zM-25 0l371 666h107l122 -666h-116l-23 143h-270l-77 -143h-114zM353 722l-109 131h134l64 -131h-89z" />
    <glyph glyph-name="Aacute" unicode="&#xc1;" horiz-adv-x="636" 
d="M213 235h209l-30 189l-16 121h-2q-26 -61 -58 -121zM-25 0l371 666h107l122 -666h-116l-23 143h-270l-77 -143h-114zM354 722l108 131h143l-156 -131h-95z" />
    <glyph glyph-name="Acircumflex" unicode="&#xc2;" horiz-adv-x="636" 
d="M213 235h209l-30 189l-16 121h-2q-26 -61 -58 -121zM-25 0l371 666h107l122 -666h-116l-23 143h-270l-77 -143h-114zM240 723l150 156h77l94 -156h-86l-57 77l-84 -77h-94z" />
    <glyph glyph-name="Atilde" unicode="&#xc3;" horiz-adv-x="636" 
d="M213 235h209l-30 189l-16 121h-2q-26 -61 -58 -121zM-25 0l371 666h107l122 -666h-116l-23 143h-270l-77 -143h-114zM456 726q-28 0 -58.5 18.5t-48.5 18.5q-23 0 -56 -30l-39 45q48 67 108 67q28 0 58.5 -18.5t48.5 -18.5q32 0 57 30l41 -44q-53 -68 -111 -68z" />
    <glyph glyph-name="Adieresis" unicode="&#xc4;" horiz-adv-x="636" 
d="M213 235h209l-30 189l-16 121h-2q-26 -61 -58 -121zM-25 0l371 666h107l122 -666h-116l-23 143h-270l-77 -143h-114zM310 724q-26 0 -43.5 17.5t-17.5 43.5t17.5 43.5t43.5 17.5q27 0 45 -17.5t18 -43.5t-18 -43.5t-45 -17.5zM507 724q-26 0 -43.5 17.5t-17.5 43.5
t17.5 43.5t43.5 17.5q27 0 45 -17.5t18 -43.5t-18 -43.5t-45 -17.5z" />
    <glyph glyph-name="Aring" unicode="&#xc5;" horiz-adv-x="636" 
d="M213 235h209l-30 189l-16 121h-2q-26 -61 -58 -121zM-25 0l371 666h107l122 -666h-116l-23 143h-270l-77 -143h-114zM410 723q-42 0 -72 28.5t-30 71.5q0 44 30 73t72 29t72 -28.5t30 -72.5q0 -43 -30.5 -72t-71.5 -29zM410 772q22 0 34.5 15t12.5 37q0 23 -12.5 38
t-34.5 15t-34.5 -15t-12.5 -38q0 -22 12.5 -37t34.5 -15z" />
    <glyph glyph-name="AE" unicode="&#xc6;" horiz-adv-x="830" 
d="M-64 0l497 666h408l-17 -94h-248l-33 -178h219l-16 -90h-218l-37 -210h255l-17 -94h-365l26 147h-227l-109 -147h-118zM228 238h178l57 320z" />
    <glyph glyph-name="Ccedilla" unicode="&#xc7;" horiz-adv-x="610" 
d="M274 -225q-44 0 -75 13l18 51q20 -10 49 -10q48 0 48 37q0 43 -71 39l32 87q-109 16 -165.5 91.5t-56.5 185.5q0 169 111 289t278 120q123 0 189 -48l-57 -83q-53 37 -139 37q-115 0 -189.5 -89.5t-74.5 -219.5q0 -88 42.5 -140.5t128.5 -52.5q83 0 159 59l46 -80
q-31 -29 -87.5 -50.5t-120.5 -22.5l-18 -48q32 -5 51.5 -25.5t19.5 -51.5q0 -40 -33 -64t-85 -24z" />
    <glyph glyph-name="Egrave" unicode="&#xc8;" horiz-adv-x="510" 
d="M43 0l118 666h359l-17 -94h-248l-32 -178h219l-17 -90h-218l-37 -210h255l-17 -94h-365zM290 722l-109 131h134l64 -131h-89z" />
    <glyph glyph-name="Eacute" unicode="&#xc9;" horiz-adv-x="510" 
d="M290 722l108 131h143l-156 -131h-95zM43 0l118 666h359l-17 -94h-248l-32 -178h219l-17 -90h-218l-37 -210h255l-17 -94h-365z" />
    <glyph glyph-name="Ecircumflex" unicode="&#xca;" horiz-adv-x="510" 
d="M177 723l150 156h77l94 -156h-86l-57 77l-84 -77h-94zM43 0l118 666h359l-17 -94h-248l-32 -178h219l-17 -90h-218l-37 -210h255l-17 -94h-365z" />
    <glyph glyph-name="Edieresis" unicode="&#xcb;" horiz-adv-x="510" 
d="M246 724q-26 0 -43.5 17.5t-17.5 43.5t17.5 43.5t43.5 17.5q27 0 45 -17.5t18 -43.5t-18 -43.5t-45 -17.5zM443 724q-26 0 -43.5 17.5t-17.5 43.5t17.5 43.5t43.5 17.5q27 0 45 -17.5t18 -43.5t-18 -43.5t-45 -17.5zM43 0l118 666h359l-17 -94h-248l-32 -178h219l-17 -90
h-218l-37 -210h255l-17 -94h-365z" />
    <glyph glyph-name="Igrave" unicode="&#xcc;" horiz-adv-x="296" 
d="M48 0l119 666h112l-119 -666h-112zM183 722l-109 131h134l64 -131h-89z" />
    <glyph glyph-name="Iacute" unicode="&#xcd;" horiz-adv-x="296" 
d="M48 0l119 666h112l-119 -666h-112zM182 722l108 131h143l-156 -131h-95z" />
    <glyph glyph-name="Icircumflex" unicode="&#xce;" horiz-adv-x="296" 
d="M48 0l119 666h112l-119 -666h-112zM69 723l150 156h77l94 -156h-86l-57 77l-84 -77h-94z" />
    <glyph glyph-name="Idieresis" unicode="&#xcf;" horiz-adv-x="296" 
d="M48 0l119 666h112l-119 -666h-112zM139 724q-26 0 -43.5 17.5t-17.5 43.5t17.5 43.5t43.5 17.5q27 0 45 -17.5t18 -43.5t-18 -43.5t-45 -17.5zM336 724q-26 0 -43.5 17.5t-17.5 43.5t17.5 43.5t43.5 17.5q27 0 45 -17.5t18 -43.5t-18 -43.5t-45 -17.5z" />
    <glyph glyph-name="Eth" unicode="&#xd0;" horiz-adv-x="686" 
d="M51 0l54 300h-67l15 81h66l51 285h174q160 0 240 -69.5t80 -192.5q0 -81 -26 -153t-76.5 -128.5t-131.5 -89.5t-183 -33h-196zM179 91h87q134 0 207.5 86t73.5 223q0 90 -51.5 132.5t-160.5 42.5h-70l-35 -194h108l-15 -81h-107z" />
    <glyph glyph-name="Ntilde" unicode="&#xd1;" horiz-adv-x="708" 
d="M41 0l118 666h109l198 -404q29 -57 44 -106h1q6 61 15 108l72 402h100l-118 -666h-100l-207 421q-22 43 -41 99h-2q-6 -55 -14 -100l-75 -420h-100zM490 726q-28 0 -58.5 18.5t-48.5 18.5q-23 0 -56 -30l-39 45q48 67 108 67q28 0 58.5 -18.5t48.5 -18.5q32 0 57 30
l41 -44q-53 -68 -111 -68z" />
    <glyph glyph-name="Ograve" unicode="&#xd2;" horiz-adv-x="744" 
d="M344 -12q-134 0 -211.5 84t-77.5 205q0 102 45.5 193t133.5 149.5t198 58.5q138 0 212.5 -82.5t74.5 -206.5q0 -103 -44.5 -193.5t-132 -149t-198.5 -58.5zM351 80q114 0 182.5 92.5t68.5 215.5q0 86 -45.5 142t-132.5 56q-115 0 -183.5 -91.5t-68.5 -215.5
q0 -86 48 -142.5t131 -56.5zM396 722l-109 131h134l64 -131h-89z" />
    <glyph glyph-name="Oacute" unicode="&#xd3;" horiz-adv-x="744" 
d="M396 722l108 131h143l-156 -131h-95zM344 -12q-134 0 -211.5 84t-77.5 205q0 102 45.5 193t133.5 149.5t198 58.5q138 0 212.5 -82.5t74.5 -206.5q0 -103 -44.5 -193.5t-132 -149t-198.5 -58.5zM351 80q114 0 182.5 92.5t68.5 215.5q0 86 -45.5 142t-132.5 56
q-115 0 -183.5 -91.5t-68.5 -215.5q0 -86 48 -142.5t131 -56.5z" />
    <glyph glyph-name="Ocircumflex" unicode="&#xd4;" horiz-adv-x="744" 
d="M282 723l150 156h77l94 -156h-86l-57 77l-84 -77h-94zM344 -12q-134 0 -211.5 84t-77.5 205q0 102 45.5 193t133.5 149.5t198 58.5q138 0 212.5 -82.5t74.5 -206.5q0 -103 -44.5 -193.5t-132 -149t-198.5 -58.5zM351 80q114 0 182.5 92.5t68.5 215.5q0 86 -45.5 142
t-132.5 56q-115 0 -183.5 -91.5t-68.5 -215.5q0 -86 48 -142.5t131 -56.5z" />
    <glyph glyph-name="Otilde" unicode="&#xd5;" horiz-adv-x="744" 
d="M344 -12q-134 0 -211.5 84t-77.5 205q0 102 45.5 193t133.5 149.5t198 58.5q138 0 212.5 -82.5t74.5 -206.5q0 -103 -44.5 -193.5t-132 -149t-198.5 -58.5zM351 80q114 0 182.5 92.5t68.5 215.5q0 86 -45.5 142t-132.5 56q-115 0 -183.5 -91.5t-68.5 -215.5
q0 -86 48 -142.5t131 -56.5zM499 726q-28 0 -58.5 18.5t-48.5 18.5q-24 0 -56 -30l-39 45q48 67 108 67q28 0 58.5 -18.5t48.5 -18.5q32 0 57 30l41 -44q-53 -68 -111 -68z" />
    <glyph glyph-name="Odieresis" unicode="&#xd6;" horiz-adv-x="744" 
d="M352 724q-26 0 -43.5 17.5t-17.5 43.5t17.5 43.5t43.5 17.5q27 0 45 -17.5t18 -43.5t-18 -43.5t-45 -17.5zM549 724q-26 0 -43.5 17.5t-17.5 43.5t17.5 43.5t43.5 17.5q27 0 45 -17.5t18 -43.5t-18 -43.5t-45 -17.5zM344 -12q-134 0 -211.5 84t-77.5 205q0 102 45.5 193
t133.5 149.5t198 58.5q138 0 212.5 -82.5t74.5 -206.5q0 -103 -44.5 -193.5t-132 -149t-198.5 -58.5zM351 80q114 0 182.5 92.5t68.5 215.5q0 86 -45.5 142t-132.5 56q-115 0 -183.5 -91.5t-68.5 -215.5q0 -86 48 -142.5t131 -56.5z" />
    <glyph glyph-name="multiply" unicode="&#xd7;" horiz-adv-x="438" 
d="M309 71l-107 129l-146 -123l-51 62l145 124l-102 125l76 65l103 -125l146 124l51 -63l-145 -123l107 -130z" />
    <glyph glyph-name="Oslash" unicode="&#xd8;" horiz-adv-x="744" 
d="M85 -73l-58 50l95 108q-65 79 -65 192q0 101 45.5 192t133 150t196.5 59q98 0 167 -44l83 95l58 -49l-85 -97q65 -79 65 -194q0 -76 -26.5 -148t-74 -128.5t-119.5 -90.5t-156 -34q-96 0 -166 46zM351 79q115 0 184 92.5t69 216.5q0 63 -26 112l-335 -387q43 -34 108 -34
zM173 279q0 -64 25 -111l334 386q-44 33 -108 33q-114 0 -182.5 -92t-68.5 -216z" />
    <glyph glyph-name="Ugrave" unicode="&#xd9;" horiz-adv-x="689" 
d="M316 -12q-118 0 -178 54.5t-60 150.5q0 31 6 65l72 408h111l-71 -401q-6 -34 -6 -62q0 -62 33 -91.5t102 -29.5q80 0 122.5 43t59.5 135l72 406h103l-75 -417q-23 -130 -92.5 -195.5t-198.5 -65.5zM372 722l-109 131h134l64 -131h-89z" />
    <glyph glyph-name="Uacute" unicode="&#xda;" horiz-adv-x="689" 
d="M373 722l108 131h143l-156 -131h-95zM316 -12q-118 0 -178 54.5t-60 150.5q0 31 6 65l72 408h111l-71 -401q-6 -34 -6 -62q0 -62 33 -91.5t102 -29.5q80 0 122.5 43t59.5 135l72 406h103l-75 -417q-23 -130 -92.5 -195.5t-198.5 -65.5z" />
    <glyph glyph-name="Ucircumflex" unicode="&#xdb;" horiz-adv-x="689" 
d="M259 723l150 156h77l94 -156h-86l-57 77l-84 -77h-94zM316 -12q-118 0 -178 54.5t-60 150.5q0 31 6 65l72 408h111l-71 -401q-6 -34 -6 -62q0 -62 33 -91.5t102 -29.5q80 0 122.5 43t59.5 135l72 406h103l-75 -417q-23 -130 -92.5 -195.5t-198.5 -65.5z" />
    <glyph glyph-name="Udieresis" unicode="&#xdc;" horiz-adv-x="689" 
d="M328 724q-26 0 -43.5 17.5t-17.5 43.5t17.5 43.5t43.5 17.5q27 0 45 -17.5t18 -43.5t-18 -43.5t-45 -17.5zM525 724q-26 0 -43.5 17.5t-17.5 43.5t17.5 43.5t43.5 17.5q27 0 45 -17.5t18 -43.5t-18 -43.5t-45 -17.5zM316 -12q-118 0 -178 54.5t-60 150.5q0 31 6 65
l72 408h111l-71 -401q-6 -34 -6 -62q0 -62 33 -91.5t102 -29.5q80 0 122.5 43t59.5 135l72 406h103l-75 -417q-23 -130 -92.5 -195.5t-198.5 -65.5z" />
    <glyph glyph-name="Yacute" unicode="&#xdd;" horiz-adv-x="571" 
d="M191 0l45 251l-147 415h115l105 -312h1l203 312h115l-281 -416l-45 -250h-111zM315 722l108 131h143l-156 -131h-95z" />
    <glyph glyph-name="Thorn" unicode="&#xde;" horiz-adv-x="559" 
d="M43 0l118 666h111l-19 -112h78q98 0 156.5 -45t58.5 -127q0 -116 -79.5 -179.5t-211.5 -63.5h-76l-25 -139h-111zM195 228h72q82 0 123 37.5t41 103.5q0 96 -119 96h-75z" />
    <glyph glyph-name="germandbls" unicode="&#xdf;" horiz-adv-x="529" 
d="M-84 -230q-43 0 -85 17l30 82q29 -12 60 -12q71 0 89 107l101 551q40 217 250 217q77 0 121 -41t44 -104q0 -44 -18.5 -78.5t-44.5 -56t-52 -39.5t-44.5 -36.5t-18.5 -38.5q0 -14 14.5 -29t35 -30.5t41.5 -33.5t35.5 -45.5t14.5 -58.5q0 -71 -47 -112t-133 -41
q-76 0 -129 32l39 76q39 -27 88 -27q39 0 61 18.5t22 50.5q0 22 -22 44.5t-48.5 39.5t-48.5 45t-22 60q0 31 18 57t43.5 45.5l51 39t43.5 46t18 58.5q0 36 -19 56t-56 20q-108 0 -134 -135l-100 -546q-18 -103 -62 -150.5t-136 -47.5z" />
    <glyph glyph-name="agrave" unicode="&#xe0;" horiz-adv-x="504" 
d="M150 -12q-57 0 -89.5 41.5t-32.5 112.5q0 150 82 252.5t215 102.5q96 0 154 -25l-44 -240q-30 -167 -30 -232h-102q7 76 20 132h-2q-35 -68 -74.5 -106t-96.5 -38zM187 79q51 0 100.5 84.5t70.5 207.5l5 36q-23 7 -56 7q-74 0 -123 -74.5t-49 -180.5q0 -80 52 -80z
M276 541l-109 131h134l64 -131h-89z" />
    <glyph glyph-name="aacute" unicode="&#xe1;" horiz-adv-x="504" 
d="M150 -12q-57 0 -89.5 41.5t-32.5 112.5q0 150 82 252.5t215 102.5q96 0 154 -25l-44 -240q-30 -167 -30 -232h-102q7 76 20 132h-2q-35 -68 -74.5 -106t-96.5 -38zM187 79q51 0 100.5 84.5t70.5 207.5l5 36q-23 7 -56 7q-74 0 -123 -74.5t-49 -180.5q0 -80 52 -80z
M277 541l108 131h143l-156 -131h-95z" />
    <glyph glyph-name="acircumflex" unicode="&#xe2;" horiz-adv-x="504" 
d="M150 -12q-57 0 -89.5 41.5t-32.5 112.5q0 150 82 252.5t215 102.5q96 0 154 -25l-44 -240q-30 -167 -30 -232h-102q7 76 20 132h-2q-35 -68 -74.5 -106t-96.5 -38zM187 79q51 0 100.5 84.5t70.5 207.5l5 36q-23 7 -56 7q-74 0 -123 -74.5t-49 -180.5q0 -80 52 -80z
M163 542l150 156h77l94 -156h-86l-57 77l-84 -77h-94z" />
    <glyph glyph-name="atilde" unicode="&#xe3;" horiz-adv-x="504" 
d="M150 -12q-57 0 -89.5 41.5t-32.5 112.5q0 150 82 252.5t215 102.5q96 0 154 -25l-44 -240q-30 -167 -30 -232h-102q7 76 20 132h-2q-35 -68 -74.5 -106t-96.5 -38zM187 79q51 0 100.5 84.5t70.5 207.5l5 36q-23 7 -56 7q-74 0 -123 -74.5t-49 -180.5q0 -80 52 -80z
M379 545q-28 0 -58.5 18.5t-48.5 18.5q-24 0 -56 -30l-39 45q48 67 108 67q28 0 58.5 -18.5t48.5 -18.5q32 0 57 30l41 -44q-53 -68 -111 -68z" />
    <glyph glyph-name="adieresis" unicode="&#xe4;" horiz-adv-x="504" 
d="M150 -12q-57 0 -89.5 41.5t-32.5 112.5q0 150 82 252.5t215 102.5q96 0 154 -25l-44 -240q-30 -167 -30 -232h-102q7 76 20 132h-2q-35 -68 -74.5 -106t-96.5 -38zM187 79q51 0 100.5 84.5t70.5 207.5l5 36q-23 7 -56 7q-74 0 -123 -74.5t-49 -180.5q0 -80 52 -80z
M233 543q-26 0 -43.5 17.5t-17.5 43.5t17.5 43.5t43.5 17.5q27 0 45 -17.5t18 -43.5t-18 -43.5t-45 -17.5zM430 543q-26 0 -43.5 17.5t-17.5 43.5t17.5 43.5t43.5 17.5q27 0 45 -17.5t18 -43.5t-18 -43.5t-45 -17.5z" />
    <glyph glyph-name="aring" unicode="&#xe5;" horiz-adv-x="504" 
d="M150 -12q-57 0 -89.5 41.5t-32.5 112.5q0 150 82 252.5t215 102.5q96 0 154 -25l-44 -240q-30 -167 -30 -232h-102q7 76 20 132h-2q-35 -68 -74.5 -106t-96.5 -38zM187 79q51 0 100.5 84.5t70.5 207.5l5 36q-23 7 -56 7q-74 0 -123 -74.5t-49 -180.5q0 -80 52 -80z
M333 542q-42 0 -72 28.5t-30 71.5q0 44 30 73t72 29t72 -28.5t30 -72.5q0 -43 -30.5 -72t-71.5 -29zM333 591q22 0 34.5 15t12.5 37q0 23 -12.5 38t-34.5 15t-34.5 -15t-12.5 -38q0 -22 12.5 -37t34.5 -15z" />
    <glyph glyph-name="ae" unicode="&#xe6;" horiz-adv-x="712" 
d="M145 -12q-62 0 -101 34.5t-39 88.5q0 103 109 144q67 25 175 25h16q15 45 15 74q0 55 -72 55q-69 0 -132 -47l-44 69q84 66 189 66q101 0 138 -64q72 64 160 64q64 0 101.5 -31t37.5 -88q0 -85 -82.5 -127t-219.5 -47q-2 -22 -1 -34q3 -95 83 -95q65 0 125 54l46 -69
q-79 -72 -187 -72q-102 0 -145 77q-75 -77 -172 -77zM170 70q70 0 123 58q-2 13 -4 35q0 32 3 48h-12q-75 0 -115 -16q-53 -21 -53 -74q0 -51 58 -51zM406 274q88 2 138.5 25.5t50.5 66.5q0 46 -53 46q-42 0 -80.5 -37t-55.5 -101z" />
    <glyph glyph-name="ccedilla" unicode="&#xe7;" horiz-adv-x="418" 
d="M149 -225q-44 0 -75 13l18 51q20 -10 49 -10q48 0 48 37q0 43 -71 39l33 89q-61 14 -94 62.5t-33 122.5q0 137 83 227.5t195 90.5q77 0 122 -33l-46 -79q-33 23 -82 23q-66 0 -116 -60.5t-50 -156.5q0 -115 85 -115q55 0 106 48l48 -69q-66 -61 -155 -66l-18 -49
q32 -5 51.5 -25.5t19.5 -51.5q0 -40 -33 -64t-85 -24z" />
    <glyph glyph-name="egrave" unicode="&#xe8;" horiz-adv-x="446" 
d="M199 -12q-85 0 -129.5 51.5t-44.5 133.5q0 136 79 230t191 94q64 0 101.5 -31t37.5 -88q0 -154 -304 -192q0 -111 84 -111q65 0 125 54l47 -69q-81 -72 -187 -72zM278 412q-48 0 -86 -44t-54 -110q88 10 140.5 37.5t52.5 70.5q0 46 -53 46zM241 541l-109 131h134l64 -131
h-89z" />
    <glyph glyph-name="eacute" unicode="&#xe9;" horiz-adv-x="446" 
d="M240 541l108 131h143l-156 -131h-95zM199 -12q-85 0 -129.5 51.5t-44.5 133.5q0 136 79 230t191 94q64 0 101.5 -31t37.5 -88q0 -154 -304 -192q0 -111 84 -111q65 0 125 54l47 -69q-81 -72 -187 -72zM278 412q-48 0 -86 -44t-54 -110q88 10 140.5 37.5t52.5 70.5
q0 46 -53 46z" />
    <glyph glyph-name="ecircumflex" unicode="&#xea;" horiz-adv-x="446" 
d="M128 542l150 156h77l94 -156h-86l-57 77l-84 -77h-94zM199 -12q-85 0 -129.5 51.5t-44.5 133.5q0 136 79 230t191 94q64 0 101.5 -31t37.5 -88q0 -154 -304 -192q0 -111 84 -111q65 0 125 54l47 -69q-81 -72 -187 -72zM278 412q-48 0 -86 -44t-54 -110q88 10 140.5 37.5
t52.5 70.5q0 46 -53 46z" />
    <glyph glyph-name="edieresis" unicode="&#xeb;" horiz-adv-x="446" 
d="M197 543q-26 0 -43.5 17.5t-17.5 43.5t17.5 43.5t43.5 17.5q27 0 45 -17.5t18 -43.5t-18 -43.5t-45 -17.5zM394 543q-26 0 -43.5 17.5t-17.5 43.5t17.5 43.5t43.5 17.5q27 0 45 -17.5t18 -43.5t-18 -43.5t-45 -17.5zM199 -12q-85 0 -129.5 51.5t-44.5 133.5q0 136 79 230
t191 94q64 0 101.5 -31t37.5 -88q0 -154 -304 -192q0 -111 84 -111q65 0 125 54l47 -69q-81 -72 -187 -72zM278 412q-48 0 -86 -44t-54 -110q88 10 140.5 37.5t52.5 70.5q0 46 -53 46z" />
    <glyph glyph-name="igrave" unicode="&#xec;" horiz-adv-x="262" 
d="M35 0l88 484h104l-88 -484h-104zM135 541l-109 131h134l64 -131h-89z" />
    <glyph glyph-name="iacute" unicode="&#xed;" horiz-adv-x="262" 
d="M135 541l108 131h143l-156 -131h-95zM35 0l88 484h104l-88 -484h-104z" />
    <glyph glyph-name="icircumflex" unicode="&#xee;" horiz-adv-x="262" 
d="M22 542l150 156h77l94 -156h-86l-57 77l-84 -77h-94zM35 0l88 484h104l-88 -484h-104z" />
    <glyph glyph-name="idieresis" unicode="&#xef;" horiz-adv-x="262" 
d="M91 543q-26 0 -43.5 17.5t-17.5 43.5t17.5 43.5t43.5 17.5q27 0 45 -17.5t18 -43.5t-18 -43.5t-45 -17.5zM288 543q-26 0 -43.5 17.5t-17.5 43.5t17.5 43.5t43.5 17.5q27 0 45 -17.5t18 -43.5t-18 -43.5t-45 -17.5zM35 0l88 484h104l-88 -484h-104z" />
    <glyph glyph-name="eth" unicode="&#xf0;" horiz-adv-x="494" 
d="M213 -12q-82 0 -134.5 53.5t-52.5 144.5q0 132 75.5 216.5t176.5 84.5q54 0 90 -32q-12 89 -57 132l-75 -59l-39 47l59 48q-54 25 -135 25l31 84q108 0 182 -45l84 68l40 -48l-73 -58q94 -89 94 -265q0 -77 -15.5 -145.5t-46.5 -126t-83.5 -91t-120.5 -33.5zM222 70
q69 0 108.5 86.5t42.5 208.5q-33 41 -94 41q-62 0 -104 -60.5t-42 -155.5q0 -120 89 -120z" />
    <glyph glyph-name="ntilde" unicode="&#xf1;" horiz-adv-x="522" 
d="M23 0l88 484h100q-8 -60 -26 -132h2q16 28 30.5 48.5t37.5 45t54 38t66 13.5q51 0 77.5 -31.5t26.5 -89.5q0 -30 -5 -55l-59 -321h-103l55 314q4 20 4 38q0 52 -42 52q-55 0 -108 -86.5t-86 -270.5l-8 -47h-104zM364 545q-28 0 -58.5 18.5t-48.5 18.5q-23 0 -56 -30
l-39 45q48 67 108 67q28 0 58.5 -18.5t48.5 -18.5q32 0 57 30l41 -44q-53 -68 -111 -68z" />
    <glyph glyph-name="ograve" unicode="&#xf2;" horiz-adv-x="498" 
d="M210 -12q-89 0 -136.5 58.5t-47.5 142.5q0 123 75.5 215.5t186.5 92.5q88 0 136 -57t48 -144q0 -128 -75 -218t-187 -90zM218 70q65 0 107 70t42 150q0 124 -87 124q-64 0 -107 -70.5t-43 -151.5q0 -56 22.5 -89t65.5 -33zM245 541l-109 131h134l64 -131h-89z" />
    <glyph glyph-name="oacute" unicode="&#xf3;" horiz-adv-x="498" 
d="M244 541l108 131h143l-156 -131h-95zM210 -12q-89 0 -136.5 58.5t-47.5 142.5q0 123 75.5 215.5t186.5 92.5q88 0 136 -57t48 -144q0 -128 -75 -218t-187 -90zM218 70q65 0 107 70t42 150q0 124 -87 124q-64 0 -107 -70.5t-43 -151.5q0 -56 22.5 -89t65.5 -33z" />
    <glyph glyph-name="ocircumflex" unicode="&#xf4;" horiz-adv-x="498" 
d="M131 542l150 156h77l94 -156h-86l-57 77l-84 -77h-94zM210 -12q-89 0 -136.5 58.5t-47.5 142.5q0 123 75.5 215.5t186.5 92.5q88 0 136 -57t48 -144q0 -128 -75 -218t-187 -90zM218 70q65 0 107 70t42 150q0 124 -87 124q-64 0 -107 -70.5t-43 -151.5q0 -56 22.5 -89
t65.5 -33z" />
    <glyph glyph-name="otilde" unicode="&#xf5;" horiz-adv-x="498" 
d="M210 -12q-89 0 -136.5 58.5t-47.5 142.5q0 123 75.5 215.5t186.5 92.5q88 0 136 -57t48 -144q0 -128 -75 -218t-187 -90zM218 70q65 0 107 70t42 150q0 124 -87 124q-64 0 -107 -70.5t-43 -151.5q0 -56 22.5 -89t65.5 -33zM348 545q-28 0 -58.5 18.5t-48.5 18.5
q-23 0 -56 -30l-39 45q48 67 108 67q28 0 58.5 -18.5t48.5 -18.5q32 0 57 30l41 -44q-53 -68 -111 -68z" />
    <glyph glyph-name="odieresis" unicode="&#xf6;" horiz-adv-x="498" 
d="M201 543q-26 0 -43.5 17.5t-17.5 43.5t17.5 43.5t43.5 17.5q27 0 45 -17.5t18 -43.5t-18 -43.5t-45 -17.5zM398 543q-26 0 -43.5 17.5t-17.5 43.5t17.5 43.5t43.5 17.5q27 0 45 -17.5t18 -43.5t-18 -43.5t-45 -17.5zM210 -12q-89 0 -136.5 58.5t-47.5 142.5
q0 123 75.5 215.5t186.5 92.5q88 0 136 -57t48 -144q0 -128 -75 -218t-187 -90zM218 70q65 0 107 70t42 150q0 124 -87 124q-64 0 -107 -70.5t-43 -151.5q0 -56 22.5 -89t65.5 -33z" />
    <glyph glyph-name="divide" unicode="&#xf7;" horiz-adv-x="572" 
d="M265 5q-28 0 -47 19t-19 46q0 26 19 45t47 19q26 0 45 -19t19 -45q0 -27 -19 -46t-45 -19zM327 349q-27 0 -46 19t-19 46q0 26 19 45t46 19t46 -19t19 -45q0 -27 -19 -46t-46 -19zM50 201l14 82h495l-14 -82h-495z" />
    <glyph glyph-name="oslash" unicode="&#xf8;" horiz-adv-x="498" 
d="M36 -65l-53 43l75 89q-32 51 -32 122q0 123 75.5 215.5t186.5 92.5q63 0 108 -32l81 95l53 -42l-88 -104q30 -49 30 -118q0 -128 -75 -218t-187 -90q-60 0 -104 29zM129 192q0 -27 4 -44l206 243q-23 24 -59 24q-64 0 -107.5 -71t-43.5 -152zM218 69q65 0 107.5 70.5
t42.5 150.5q0 21 -3 39l-203 -239q21 -21 56 -21z" />
    <glyph glyph-name="ugrave" unicode="&#xf9;" horiz-adv-x="522" 
d="M146 -13q-51 0 -77.5 31.5t-26.5 89.5q0 30 5 55l59 321h104l-56 -314q-4 -20 -4 -38q0 -52 42 -52q53 0 106.5 83.5t84.5 258.5l12 62h103l-45 -252q-28 -158 -32 -232h-102q10 90 22 140h-2q-17 -30 -32 -52t-39.5 -47.5t-55.5 -39.5t-66 -14zM259 541l-109 131h134
l64 -131h-89z" />
    <glyph glyph-name="uacute" unicode="&#xfa;" horiz-adv-x="522" 
d="M259 541l108 131h143l-156 -131h-95zM146 -13q-51 0 -77.5 31.5t-26.5 89.5q0 30 5 55l59 321h104l-56 -314q-4 -20 -4 -38q0 -52 42 -52q53 0 106.5 83.5t84.5 258.5l12 62h103l-45 -252q-28 -158 -32 -232h-102q10 90 22 140h-2q-17 -30 -32 -52t-39.5 -47.5
t-55.5 -39.5t-66 -14z" />
    <glyph glyph-name="ucircumflex" unicode="&#xfb;" horiz-adv-x="522" 
d="M145 542l150 156h77l94 -156h-86l-57 77l-84 -77h-94zM146 -13q-51 0 -77.5 31.5t-26.5 89.5q0 30 5 55l59 321h104l-56 -314q-4 -20 -4 -38q0 -52 42 -52q53 0 106.5 83.5t84.5 258.5l12 62h103l-45 -252q-28 -158 -32 -232h-102q10 90 22 140h-2q-17 -30 -32 -52
t-39.5 -47.5t-55.5 -39.5t-66 -14z" />
    <glyph glyph-name="udieresis" unicode="&#xfc;" horiz-adv-x="522" 
d="M214 543q-26 0 -43.5 17.5t-17.5 43.5t17.5 43.5t43.5 17.5q27 0 45 -17.5t18 -43.5t-18 -43.5t-45 -17.5zM411 543q-26 0 -43.5 17.5t-17.5 43.5t17.5 43.5t43.5 17.5q27 0 45 -17.5t18 -43.5t-18 -43.5t-45 -17.5zM146 -13q-51 0 -77.5 31.5t-26.5 89.5q0 30 5 55
l59 321h104l-56 -314q-4 -20 -4 -38q0 -52 42 -52q53 0 106.5 83.5t84.5 258.5l12 62h103l-45 -252q-28 -158 -32 -232h-102q10 90 22 140h-2q-17 -30 -32 -52t-39.5 -47.5t-55.5 -39.5t-66 -14z" />
    <glyph glyph-name="yacute" unicode="&#xfd;" horiz-adv-x="471" 
d="M-2 -223q-59 0 -89 18l38 83q25 -11 57 -11q43 0 74.5 26.5t71.5 98.5l-97 492h109l52 -311q2 -15 4.5 -40t3.5 -30h2l25 70l142 311h109l-211 -420q-79 -161 -138.5 -224t-152.5 -63zM228 541l108 131h143l-156 -131h-95z" />
    <glyph glyph-name="thorn" unicode="&#xfe;" horiz-adv-x="507" 
d="M-20 -218l170 938h104l-44 -238q-12 -62 -29 -126h2q37 67 77.5 104t99.5 37q58 0 89.5 -44.5t31.5 -116.5q0 -149 -80 -248.5t-207 -99.5q-39 0 -71 7l-39 -213h-104zM197 68q78 0 127 72t49 181q0 84 -50 84q-55 0 -104.5 -84.5t-73.5 -207.5l-7 -38q31 -7 59 -7z" />
    <glyph glyph-name="ydieresis" unicode="&#xff;" horiz-adv-x="471" 
d="M-2 -223q-59 0 -89 18l38 83q25 -11 57 -11q43 0 74.5 26.5t71.5 98.5l-97 492h109l52 -311q2 -15 4.5 -40t3.5 -30h2l25 70l142 311h109l-211 -420q-79 -161 -138.5 -224t-152.5 -63zM185 543q-26 0 -43.5 17.5t-17.5 43.5t17.5 43.5t43.5 17.5q27 0 45 -17.5t18 -43.5
t-18 -43.5t-45 -17.5zM382 543q-26 0 -43.5 17.5t-17.5 43.5t17.5 43.5t43.5 17.5q27 0 45 -17.5t18 -43.5t-18 -43.5t-45 -17.5z" />
    <glyph glyph-name="dotlessi" unicode="&#x131;" horiz-adv-x="262" 
d="M35 0l88 484h104l-88 -484h-104z" />
    <glyph glyph-name="Lslash" unicode="&#x141;" horiz-adv-x="500" 
d="M61 0l46 258l-73 -49l-31 58l120 80l57 319h111l-42 -240l113 75l33 -59l-162 -106l-43 -244h248l-16 -92h-361z" />
    <glyph glyph-name="lslash" unicode="&#x142;" horiz-adv-x="273" 
d="M70 0l46 262l-75 -50l15 86l76 50l66 372h104l-53 -298l91 60l-16 -88l-90 -59l-60 -335h-104z" />
    <glyph glyph-name="OE" unicode="&#x152;" horiz-adv-x="893" 
d="M343 -12q-134 0 -210 83t-76 206q0 102 45.5 193t133.5 149.5t197 58.5q68 0 111 -12h359l-17 -94h-247l-33 -178h219l-16 -90h-218l-38 -210h255l-17 -94h-353q-45 -12 -95 -12zM350 80q53 0 94 22l83 463q-38 21 -100 21q-116 0 -185 -91.5t-69 -215.5q0 -88 46 -143.5
t131 -55.5z" />
    <glyph glyph-name="oe" unicode="&#x153;" horiz-adv-x="769" 
d="M210 -12q-89 0 -136.5 58.5t-47.5 142.5q0 123 75.5 215.5t186.5 92.5q106 0 151 -91q79 91 182 91q64 0 101.5 -31t37.5 -88q0 -154 -304 -192q0 -111 85 -111q64 0 124 54l47 -69q-81 -72 -187 -72q-100 0 -143 81q-70 -81 -172 -81zM218 70q65 0 107 70t42 150
q0 124 -87 124q-64 0 -107 -70.5t-43 -151.5q0 -56 22.5 -89t65.5 -33zM604 412q-48 0 -86 -44t-54 -110q88 10 140.5 37.5t52.5 70.5q0 46 -53 46z" />
    <glyph glyph-name="Scaron" unicode="&#x160;" horiz-adv-x="474" 
d="M259 721l-96 156h85l60 -77l88 77h93l-153 -156h-77zM197 -12q-124 0 -206 76l63 76q67 -59 148 -59q56 0 83 25.5t27 65.5q0 35 -18.5 58t-72.5 67q-8 7 -13 11q-30 26 -46.5 42t-37 41t-29.5 53t-9 60q0 83 58 128.5t150 45.5q99 0 172 -54l-55 -81q-57 45 -121 45
q-47 0 -71 -21.5t-24 -59.5q0 -23 13.5 -44.5t28 -35t54.5 -45.5q35 -29 50 -42.5t39 -41t33.5 -56t9.5 -63.5q0 -82 -58 -136.5t-168 -54.5z" />
    <glyph glyph-name="scaron" unicode="&#x161;" horiz-adv-x="367" 
d="M192 540l-96 156h85l60 -77l88 77h93l-153 -156h-77zM138 -12q-93 0 -153 50l48 72q51 -40 106 -40q33 0 51 15t18 40q0 7 -1.5 13.5t-5.5 14t-8 13t-12 15t-13 15t-17 17t-18 18.5q-36 38 -53 66.5t-17 66.5q0 60 44 96.5t119 36.5q80 0 130 -40l-48 -70q-38 28 -84 28
q-28 0 -44.5 -12.5t-16.5 -36.5q0 -5 1.5 -10.5t3 -9.5t5.5 -10t7 -10t9.5 -11.5t10.5 -11.5t13 -13.5t14 -14.5q34 -35 47 -50.5t26 -42.5t13 -57q0 -62 -45.5 -99.5t-129.5 -37.5z" />
    <glyph glyph-name="Ydieresis" unicode="&#x178;" horiz-adv-x="571" 
d="M191 0l45 251l-147 415h115l105 -312h1l203 312h115l-281 -416l-45 -250h-111zM271 724q-26 0 -43.5 17.5t-17.5 43.5t17.5 43.5t43.5 17.5q27 0 45 -17.5t18 -43.5t-18 -43.5t-45 -17.5zM468 724q-26 0 -43.5 17.5t-17.5 43.5t17.5 43.5t43.5 17.5q27 0 45 -17.5
t18 -43.5t-18 -43.5t-45 -17.5z" />
    <glyph glyph-name="Zcaron" unicode="&#x17d;" horiz-adv-x="531" 
d="M306 721l-96 156h85l60 -77l88 77h93l-153 -156h-77zM-12 0l14 75l405 500h-302l17 91h443l-14 -72l-409 -503h331l-17 -91h-468z" />
    <glyph glyph-name="zcaron" unicode="&#x17e;" horiz-adv-x="432" 
d="M226 540l-96 156h85l60 -77l88 77h93l-153 -156h-77zM-9 0l10 61l283 341h-214l15 82h345l-11 -64l-281 -338h230l-14 -82h-363z" />
    <glyph glyph-name="florin" unicode="&#x192;" horiz-adv-x="444" 
d="M2 -188q-60 0 -96 21l40 79q25 -14 55 -14q89 0 120 113l86 338h-100l17 81h102l30 117q46 185 227 185q69 0 115 -31l-48 -76q-29 22 -79 22q-48 0 -75.5 -28.5t-42.5 -86.5l-26 -102h113l-20 -81h-111l-88 -344q-47 -193 -219 -193z" />
    <glyph glyph-name="dotlessj" unicode="&#x237;" horiz-adv-x="245" 
d="M-69 -230q-40 0 -82 15l34 84q17 -10 47 -10q41 0 61.5 28t31.5 89l91 508h104l-91 -516q-17 -94 -61.5 -146t-134.5 -52z" />
    <glyph glyph-name="circumflex" unicode="&#x2c6;" horiz-adv-x="500" 
d="M140 542l150 156h77l94 -156h-86l-57 77l-84 -77h-94z" />
    <glyph glyph-name="caron" unicode="&#x2c7;" horiz-adv-x="500" 
d="M261 540l-96 156h85l60 -77l88 77h93l-153 -156h-77z" />
    <glyph glyph-name="breve" unicode="&#x2d8;" horiz-adv-x="500" 
d="M309 533q-61 0 -99.5 33.5t-38.5 96.5l1 17h85l-1 -12q0 -62 57 -62q28 0 49 19.5t28 54.5h89q-17 -74 -64.5 -110.5t-105.5 -36.5z" />
    <glyph glyph-name="dotaccent" unicode="&#x2d9;" horiz-adv-x="500" 
d="M316 558q-28 0 -46.5 19.5t-18.5 46.5t18.5 46t46.5 19t47 -19t19 -46t-19 -46.5t-47 -19.5z" />
    <glyph glyph-name="ring" unicode="&#x2da;" horiz-adv-x="497" 
d="M319 542q-42 0 -72 28.5t-30 71.5q0 44 30 73t72 29t72 -28.5t30 -72.5q0 -43 -30.5 -72t-71.5 -29zM319 591q22 0 34.5 15t12.5 37q0 23 -12.5 38t-34.5 15t-34.5 -15t-12.5 -38q0 -22 12.5 -37t34.5 -15z" />
    <glyph glyph-name="ogonek" unicode="&#x2db;" horiz-adv-x="500" 
d="M181 -225q-46 0 -72 22t-26 58q0 73 91 145h65q-75 -75 -75 -127q0 -37 42 -37q20 0 43 7l8 -51q-32 -17 -76 -17z" />
    <glyph glyph-name="tilde" unicode="&#x2dc;" horiz-adv-x="500" 
d="M358 545q-28 0 -58.5 18.5t-48.5 18.5q-23 0 -56 -30l-39 45q48 67 108 67q28 0 58.5 -18.5t48.5 -18.5q32 0 57 30l41 -44q-53 -68 -111 -68z" />
    <glyph glyph-name="hungarumlaut" unicode="&#x2dd;" horiz-adv-x="500" 
d="M69 541l109 131h131l-152 -131h-88zM249 541l109 131h131l-152 -131h-88z" />
    <glyph glyph-name="Delta" unicode="&#x394;" horiz-adv-x="631" 
d="M133 94h310l-66 332q-8 41 -17 116h-2q-32 -75 -53 -116zM-6 0l11 63l324 603h105l127 -603l-12 -63h-555z" />
    <glyph glyph-name="Omega" unicode="&#x3a9;" horiz-adv-x="747" 
d="M7 0l17 90h128q-91 79 -91 202q0 164 109.5 275t257.5 111q120 0 201.5 -75t81.5 -193q0 -102 -48 -185.5t-128 -134.5h139l-17 -90h-267l15 86q84 41 138.5 122.5t54.5 186.5q0 80 -49.5 135.5t-129.5 55.5q-109 0 -177.5 -89t-68.5 -209q0 -125 97 -202l-15 -86h-248z
" />
    <glyph glyph-name="mu" unicode="&#x3bc;" horiz-adv-x="540" 
d="M-3 -218l127 702h103l-57 -320q-3 -15 -3 -28q0 -57 60 -57q59 0 122 73l60 332h104l-66 -363q-14 -74 -9 -121h-103q-6 33 2 68q-61 -76 -147 -76q-36 0 -54 18h-1q-1 -36 -14 -112l-20 -116h-104z" />
    <glyph glyph-name="pi" unicode="&#x3c0;" horiz-adv-x="614" 
d="M436 -12q-107 0 -107 97q0 23 4 43l50 276h-136q-41 -232 -95 -404h-103q60 187 98 404h-99l14 80h556l-14 -80h-117l-49 -268q-3 -17 -3 -29q0 -31 27 -31q16 0 36 12l27 -72q-40 -28 -89 -28z" />
    <glyph glyph-name="endash" unicode="&#x2013;" horiz-adv-x="560" 
d="M46 229l15 84h462l-14 -84h-463z" />
    <glyph glyph-name="emdash" unicode="&#x2014;" horiz-adv-x="872" 
d="M46 229l15 84h775l-15 -84h-775z" />
    <glyph glyph-name="quoteleft" unicode="&#x2018;" horiz-adv-x="215" 
d="M151 409q-32 0 -52.5 21.5t-20.5 57.5q0 53 37.5 107t87.5 95l38 -34q-54 -56 -54 -94q0 -17 15.5 -42t15.5 -47q0 -27 -19.5 -45.5t-47.5 -18.5z" />
    <glyph glyph-name="quoteright" unicode="&#x2019;" horiz-adv-x="215" 
d="M115 396l-39 35q55 55 55 94q0 17 -15.5 41.5t-15.5 46.5q0 28 19.5 46.5t47.5 18.5q31 0 51.5 -21.5t20.5 -58.5q0 -52 -37 -106t-87 -96z" />
    <glyph glyph-name="quotesinglbase" unicode="&#x201a;" horiz-adv-x="215" 
d="M22 -149l-38 34q54 56 54 94q0 17 -15.5 42t-15.5 47q0 27 19.5 45.5t47.5 18.5q32 0 52.5 -21.5t20.5 -57.5q0 -53 -37.5 -107t-87.5 -95z" />
    <glyph glyph-name="quotedblleft" unicode="&#x201c;" horiz-adv-x="407" 
d="M151 409q-32 0 -52.5 21.5t-20.5 57.5q0 53 37.5 107t87.5 95l38 -34q-54 -56 -54 -94q0 -17 15.5 -42t15.5 -47q0 -27 -19.5 -45.5t-47.5 -18.5zM343 409q-32 0 -52.5 21.5t-20.5 57.5q0 53 37.5 107t87.5 95l39 -34q-55 -55 -55 -94q0 -17 15.5 -42t15.5 -47
q0 -27 -19.5 -45.5t-47.5 -18.5z" />
    <glyph glyph-name="quotedblright" unicode="&#x201d;" horiz-adv-x="407" 
d="M115 396l-39 35q55 55 55 94q0 17 -15.5 41.5t-15.5 46.5q0 28 19.5 46.5t47.5 18.5q31 0 51.5 -21.5t20.5 -58.5q0 -52 -37 -106t-87 -96zM307 396l-39 35q55 55 55 94q0 17 -15.5 41.5t-15.5 46.5q0 28 19.5 46.5t47.5 18.5q32 0 52.5 -21.5t20.5 -58.5q0 -52 -37 -106
t-88 -96z" />
    <glyph glyph-name="quotedblbase" unicode="&#x201e;" horiz-adv-x="407" 
d="M22 -149l-38 34q54 56 54 94q0 17 -15.5 42t-15.5 47q0 27 19.5 45.5t47.5 18.5q32 0 52.5 -21.5t20.5 -57.5q0 -53 -37.5 -107t-87.5 -95zM214 -149l-38 34q54 56 54 94q0 17 -15.5 42t-15.5 47q0 27 19.5 45.5t47.5 18.5q32 0 52.5 -21.5t20.5 -57.5q0 -53 -37.5 -107
t-87.5 -95z" />
    <glyph glyph-name="dagger" unicode="&#x2020;" horiz-adv-x="537" 
d="M162 -170l50 434l41 133l-76 -9h-109l17 96h108l73 -9l6 108l24 137h113l-24 -137l-33 -108l78 9h107l-17 -96h-107l-74 9l-7 -133l-103 -434h-67z" />
    <glyph glyph-name="daggerdbl" unicode="&#x2021;" horiz-adv-x="545" 
d="M140 -169l23 127l34 108l-78 -9h-110l18 96h109l75 -9l6 127l40 126l-77 -9h-110l17 96h110l74 -9l6 108l25 137h114l-24 -137l-34 -108l78 9h109l-17 -96h-109l-75 9l-7 -126l-40 -127l78 9h110l-18 -96h-109l-74 9l-7 -108l-23 -127h-114z" />
    <glyph glyph-name="bullet" unicode="&#x2022;" horiz-adv-x="396" 
d="M198 134q-62 0 -106.5 44.5t-44.5 107.5q0 64 44.5 109t106.5 45q63 0 107 -45t44 -109q0 -63 -44 -107.5t-107 -44.5z" />
    <glyph glyph-name="ellipsis" unicode="&#x2026;" horiz-adv-x="686" 
d="M94 -10q-31 0 -52.5 21.5t-21.5 51.5t21.5 51t52.5 21q30 0 52 -21t22 -51t-22 -51.5t-52 -21.5zM314 -10q-31 0 -52 21.5t-21 51.5t21 51t52 21t52.5 -21t21.5 -51t-21.5 -51.5t-52.5 -21.5zM535 -10q-31 0 -52.5 21.5t-21.5 51.5t21.5 51t52.5 21t52.5 -21t21.5 -51
t-21.5 -51.5t-52.5 -21.5z" />
    <glyph glyph-name="perthousand" unicode="&#x2030;" horiz-adv-x="1132" 
d="M174 199q-62 0 -97.5 36.5t-35.5 90.5q0 69 48 119.5t124 50.5q65 0 99.5 -34.5t34.5 -90.5q0 -70 -48.5 -121t-124.5 -51zM182 265q35 0 56 29t21 73q0 63 -53 63q-35 0 -56 -28t-21 -71q0 -66 53 -66zM571 -12q-62 0 -97.5 36.5t-35.5 90.5q0 69 48.5 119.5t123.5 50.5
q65 0 99.5 -34.5t34.5 -90.5q0 -71 -48.5 -121.5t-124.5 -50.5zM579 54q35 0 56 29t21 73q0 63 -53 63q-35 0 -56 -28t-21 -71q0 -66 53 -66zM918 -12q-62 0 -98 36.5t-36 90.5q0 69 48.5 119.5t124.5 50.5q65 0 99.5 -34.5t34.5 -90.5q0 -70 -48.5 -121t-124.5 -51zM925 54
q35 0 56 29t21 73q0 63 -52 63q-35 0 -56 -28t-21 -71q0 -66 52 -66zM164 0l372 484h87l-372 -484h-87z" />
    <glyph glyph-name="guilsinglleft" unicode="&#x2039;" horiz-adv-x="288" 
d="M118 54l-91 190l158 193h113l-163 -198l87 -185h-104z" />
    <glyph glyph-name="guilsinglright" unicode="&#x203a;" horiz-adv-x="290" 
d="M-6 54l160 197l-87 186h104l91 -191l-155 -192h-113z" />
    <glyph glyph-name="fraction" unicode="&#x2044;" horiz-adv-x="125" 
d="M-224 0l523 666h89l-522 -666h-90z" />
    <glyph glyph-name="uni2070" unicode="&#x2070;" horiz-adv-x="384" 
d="M211 331q-63 0 -94.5 36t-31.5 94q0 85 49 148t137 63q63 0 95 -35.5t32 -91.5q0 -88 -49.5 -151t-137.5 -63zM221 398q41 0 65.5 43t24.5 102q0 63 -49 63q-42 0 -66.5 -43t-24.5 -101q0 -64 50 -64z" />
    <glyph glyph-name="uni2074" unicode="&#x2074;" horiz-adv-x="334" 
d="M197 337l12 65h-172l9 53l219 211h80l-39 -201h52l-12 -63h-52l-13 -65h-84zM137 463q12 2 36 2h51l20 102h-1z" />
    <glyph glyph-name="uni2075" unicode="&#x2075;" horiz-adv-x="298" 
d="M118 331q-40 0 -68 10l20 65q19 -8 54 -8q38 0 62 13.5t24 38.5q0 20 -22 30.5t-56 10.5q-30 0 -44 -3l38 178h196l-11 -66h-124l-11 -51q53 -3 88.5 -26.5t35.5 -64.5q0 -60 -47.5 -93.5t-134.5 -33.5z" />
    <glyph glyph-name="uni2076" unicode="&#x2076;" horiz-adv-x="336" 
d="M199 331q-65 0 -95.5 33.5t-30.5 84.5q1 101 77 162t192 61l10 -60q-131 -3 -183 -90q29 20 79 20q44 0 70 -22t26 -63q0 -57 -42 -91.5t-103 -34.5zM202 392q25 0 42 16.5t17 39.5q0 17 -13 26.5t-32 9.5q-38 0 -60 -17q-1 -8 -1 -23q0 -24 13 -38t34 -14z" />
    <glyph glyph-name="uni2077" unicode="&#x2077;" horiz-adv-x="300" 
d="M153 323l-68 30l150 243h-148l12 70h246l-8 -42z" />
    <glyph glyph-name="uni2078" unicode="&#x2078;" horiz-adv-x="330" 
d="M188 331q-58 0 -92 21.5t-34 57.5q0 59 87 95q-45 29 -45 70q0 43 40.5 70t95.5 27q53 0 85.5 -19.5t32.5 -56.5q0 -49 -79 -86q56 -33 56 -75q0 -44 -39.5 -74t-107.5 -30zM192 388q24 0 42 11t18 28q0 20 -49 45q-60 -25 -60 -53q0 -13 14 -22t35 -9zM222 541
q18 8 27.5 13.5t18.5 14.5t9 19q0 11 -11.5 19t-29.5 8q-21 0 -36 -10t-15 -25q0 -11 9 -19.5t28 -19.5z" />
    <glyph glyph-name="uni2079" unicode="&#x2079;" horiz-adv-x="338" 
d="M91 329l-12 61q63 2 111.5 24.5t70.5 66.5q-32 -20 -78 -20q-43 0 -69.5 22t-26.5 64q0 57 43.5 91t102.5 34q65 0 94.5 -33t29.5 -84q0 -102 -72 -164t-194 -62zM216 520q37 0 59 16q2 7 2 24q0 24 -13.5 37.5t-34.5 13.5q-25 0 -42.5 -16.5t-17.5 -38.5
q0 -17 13.5 -26.5t33.5 -9.5z" />
    <glyph glyph-name="uni207A" unicode="&#x207a;" horiz-adv-x="328" 
d="M156 389l17 82h-95l12 63h94l16 82h68l-16 -82h93l-12 -63h-93l-17 -82h-67z" />
    <glyph glyph-name="uni207B" unicode="&#x207b;" horiz-adv-x="304" 
d="M89 472l13 62h208l-13 -62h-208z" />
    <glyph glyph-name="uni207D" unicode="&#x207d;" horiz-adv-x="218" 
d="M137 277q-63 70 -63 166q0 93 47 163t99 106h85q-31 -24 -59.5 -55t-57 -91t-28.5 -123q0 -100 57 -166h-80z" />
    <glyph glyph-name="uni207E" unicode="&#x207e;" horiz-adv-x="218" 
d="M6 277q22 17 43 39t46 56t40.5 79.5t15.5 94.5q0 99 -56 166h79q64 -69 64 -166q0 -65 -28.5 -125t-58 -91.5t-60.5 -52.5h-85z" />
    <glyph glyph-name="uni2080" unicode="&#x2080;" horiz-adv-x="384" 
d="M150 -206q-63 0 -94.5 36t-31.5 93q0 85 49 148.5t137 63.5q64 0 95.5 -35.5t31.5 -92.5q0 -88 -49.5 -150.5t-137.5 -62.5zM160 -139q41 0 65.5 43t24.5 102q0 62 -49 62q-42 0 -66.5 -43t-24.5 -101q0 -63 50 -63z" />
    <glyph glyph-name="uni2081" unicode="&#x2081;" horiz-adv-x="264" 
d="M67 -200l49 257l-82 -21l-18 64l128 29h69l-63 -329h-83z" />
    <glyph glyph-name="uni2082" unicode="&#x2082;" horiz-adv-x="331" 
d="M-16 -200l8 45q10 7 33.5 23t33.5 23.5t29.5 21.5t29 22t23.5 20t21 21t14.5 19.5t10.5 20t3 19.5q0 32 -43 32q-42 0 -81 -30l-36 53q55 45 132 45q58 0 89 -22t31 -60q0 -49 -41 -91t-123 -98q12 3 50 3h97l-13 -67h-268z" />
    <glyph glyph-name="uni2083" unicode="&#x2083;" horiz-adv-x="305" 
d="M61 -206q-45 0 -71 11l22 65q24 -10 57 -10q37 0 60 11.5t23 34.5q0 38 -94 36l10 54q47 2 74.5 15.5t27.5 33.5q0 25 -38 25q-37 0 -71 -19l-28 53q52 31 118 31q52 0 80 -18.5t28 -49.5q0 -62 -87 -86v-1q28 -3 49.5 -21.5t21.5 -47.5q0 -54 -46 -85.5t-136 -31.5z" />
    <glyph glyph-name="uni2084" unicode="&#x2084;" horiz-adv-x="334" 
d="M136 -200l12 64h-173l10 53l219 212h79l-38 -201h52l-12 -64h-52l-13 -64h-84zM76 -74q12 2 36 2h51l20 102h-1z" />
    <glyph glyph-name="uni2085" unicode="&#x2085;" horiz-adv-x="298" 
d="M57 -206q-43 0 -68 9l20 66q22 -9 54 -9q38 0 62 13.5t24 38.5q0 20 -22 30.5t-56 10.5q-31 0 -44 -3l38 179h196l-12 -67h-123l-11 -50q53 -3 88.5 -26.5t35.5 -64.5q0 -60 -47.5 -93.5t-134.5 -33.5z" />
    <glyph glyph-name="uni2086" unicode="&#x2086;" horiz-adv-x="336" 
d="M138 -206q-65 0 -95.5 33t-30.5 85q1 100 77.5 161.5t191.5 61.5l10 -61q-131 -2 -183 -90q28 21 79 21q44 0 70 -22t26 -63q0 -57 -42 -91.5t-103 -34.5zM140 -145q25 0 42.5 16t17.5 39q0 17 -12.5 26.5t-32.5 9.5q-38 0 -60 -16q-2 -18 -2 -24q0 -23 13 -37t34 -14z
" />
    <glyph glyph-name="uni2087" unicode="&#x2087;" horiz-adv-x="300" 
d="M92 -214l-68 30l150 243h-149l13 70h246l-8 -42z" />
    <glyph glyph-name="uni2088" unicode="&#x2088;" horiz-adv-x="330" 
d="M127 -206q-58 0 -92 21.5t-34 57.5q0 57 87 95q-45 29 -45 69q0 43 40.5 70.5t95.5 27.5q52 0 85 -20t33 -56q0 -51 -79 -86q56 -33 56 -75q0 -44 -39.5 -74t-107.5 -30zM131 -149q24 0 42 11t18 27q0 20 -49 46q-30 -13 -45 -24.5t-15 -28.5q0 -13 14 -22t35 -9zM161 4
q55 24 55 47q0 11 -11.5 19t-29.5 8q-21 0 -36 -10t-15 -25q0 -11 9 -19.5t28 -19.5z" />
    <glyph glyph-name="uni2089" unicode="&#x2089;" horiz-adv-x="338" 
d="M29 -208l-11 61q63 1 111.5 24t70.5 67q-32 -20 -78 -20q-44 0 -70.5 22.5t-26.5 63.5q0 57 44 91t103 34q65 0 94.5 -33t29.5 -84q0 -102 -72 -164t-195 -62zM155 -18q35 0 59 17q2 7 2 23q0 24 -13.5 38t-34.5 14q-25 0 -42.5 -16.5t-17.5 -38.5q0 -17 13.5 -27
t33.5 -10z" />
    <glyph glyph-name="Euro" unicode="&#x20ac;" horiz-adv-x="553" 
d="M331 -12q-109 0 -168 64t-68 165h-76l13 77h62q1 24 9 68h-59l14 77h66q39 109 122 174t195 65q101 0 161 -42l-57 -83q-47 32 -115 32q-65 0 -113.5 -39t-74.5 -107h166l-13 -77h-178q-7 -33 -9 -68h174l-13 -77h-159q15 -135 137 -135q59 0 126 42l35 -85
q-78 -51 -177 -51z" />
    <glyph glyph-name="uni2117" unicode="&#x2117;" horiz-adv-x="816" 
d="M428 -14q-153 0 -261.5 109.5t-108.5 263.5t108.5 263.5t261.5 109.5t261.5 -109.5t108.5 -263.5t-108.5 -263.5t-261.5 -109.5zM428 52q131 0 215.5 85.5t84.5 221.5q0 135 -85 221t-215 86q-131 0 -216 -86t-85 -221q0 -136 85 -221.5t216 -85.5zM301 145v432h148
q70 0 108.5 -39.5t38.5 -95.5q0 -58 -41.5 -96t-126.5 -38h-47v-163h-80zM381 368h45q87 0 87 72t-76 72h-56v-144z" />
    <glyph glyph-name="trademark" unicode="&#x2122;" horiz-adv-x="684" 
d="M305 372l87 294h69l29 -157l7 -64h2l5 10q4 10 11.5 25.5t14.5 28.5l84 157h76l-17 -294h-69l12 145q1 12 2.5 26.5t3.5 23.5l1 9h-2q0 -10 -30 -67l-76 -137h-59l-24 133q-9 59 -9 71h-2q0 -12 -14 -60l-39 -144h-63zM127 372l41 236h-85l10 58h236l-10 -58h-82
l-41 -236h-69z" />
    <glyph glyph-name="uni2126" unicode="&#x2126;" horiz-adv-x="721" 
d="M-1 0l17 86h126q-40 33 -63.5 89t-23.5 122q0 107 55.5 195.5t143.5 137t186 48.5q112 0 187 -73t75 -189q0 -103 -54 -193t-131 -137h126l-17 -86h-244l16 85q93 57 143 140.5t50 176.5q0 79 -47.5 131.5t-121.5 52.5q-107 0 -182.5 -88.5t-75.5 -209.5q0 -127 97 -203
l-17 -85h-245z" />
    <glyph glyph-name="partialdiff" unicode="&#x2202;" horiz-adv-x="631" 
d="M272 -11q-89 0 -147.5 52t-58.5 134q0 108 80.5 180.5t178.5 72.5q52 0 103 -12t77 -30q3 22 3 45q0 67 -38 110t-91.5 59t-120.5 15l46 95h21q137 0 218 -66.5t81 -200.5q0 -110 -42.5 -213t-125 -172t-184.5 -69zM285 81q67 0 121 62t81 155q-24 17 -70 29t-89 12
q-61 0 -103.5 -44t-42.5 -106q0 -47 27.5 -77.5t75.5 -30.5z" />
    <glyph glyph-name="uni2206" unicode="&#x2206;" horiz-adv-x="722" 
d="M-27 0l415 700h99l168 -700h-682zM139 99h385l-111 463z" />
    <glyph glyph-name="product" unicode="&#x220f;" horiz-adv-x="741" 
d="M32 -224l146 831h-109l16 93h730l-15 -93h-109l-147 -831h-107l146 831h-297l-147 -831h-107z" />
    <glyph glyph-name="summation" unicode="&#x2211;" horiz-adv-x="533" 
d="M-89 -146l12 73l348 413l-194 364l12 74h509l-16 -93h-386l186 -341l-333 -397h418l-16 -93h-540z" />
    <glyph glyph-name="minus" unicode="&#x2212;" horiz-adv-x="550" 
d="M127 235l15 84h369l-15 -84h-369z" />
    <glyph glyph-name="uni2219" unicode="&#x2219;" horiz-adv-x="259" 
d="M132 219q-30 0 -51.5 21t-21.5 51q0 29 21.5 50t51.5 21t51.5 -21t21.5 -50q0 -30 -21.5 -51t-51.5 -21z" />
    <glyph glyph-name="radical" unicode="&#x221a;" horiz-adv-x="535" 
d="M156 0l-99 484h107l61 -347h1l280 583h111l-362 -720h-99z" />
    <glyph glyph-name="infinity" unicode="&#x221e;" horiz-adv-x="876" 
d="M194 92q-69 0 -114.5 36.5t-45.5 98.5q0 81 69 140t155 59q51 0 99.5 -26.5t109.5 -81.5q160 108 248 108q67 0 112 -36.5t45 -96.5q0 -83 -67.5 -141.5t-157.5 -58.5t-207 107q-86 -58 -141.5 -83t-104.5 -25zM215 181q49 0 164 76q-90 80 -139 80q-40 0 -73.5 -26.5
t-33.5 -62.5q0 -31 23.5 -49t58.5 -18zM668 181q41 0 74 26.5t33 63.5q0 29 -24 47.5t-60 18.5q-47 0 -162 -77q90 -79 139 -79z" />
    <glyph glyph-name="uni2224" unicode="&#x2224;" horiz-adv-x="259" 
d="M132 219q-30 0 -51.5 21t-21.5 51q0 29 21.5 50t51.5 21t51.5 -21t21.5 -50q0 -30 -21.5 -51t-51.5 -21z" />
    <glyph glyph-name="logicaland" unicode="&#x2227;" horiz-adv-x="259" 
d="M132 219q-30 0 -51.5 21t-21.5 51q0 29 21.5 50t51.5 21t51.5 -21t21.5 -50q0 -30 -21.5 -51t-51.5 -21z" />
    <glyph glyph-name="integral" unicode="&#x222b;" horiz-adv-x="306" 
d="M-114 -235q-47 0 -93 30l51 87q36 -17 70 -17q86 0 109 129l102 579q15 88 78 146.5t159 58.5q48 0 93 -30l-54 -87q-33 18 -66 18q-44 0 -71.5 -35.5t-37.5 -92.5l-103 -581q-16 -89 -78.5 -147t-158.5 -58z" />
    <glyph glyph-name="approxequal" unicode="&#x2248;" horiz-adv-x="586" 
d="M64 113l-30 74q74 67 159 67q49 0 102 -29t86 -29q57 0 115 51l26 -76q-68 -66 -164 -66q-48 0 -102 29t-85 29q-51 0 -107 -50zM91 296l-30 74q72 68 159 68q49 0 101.5 -29t85.5 -29q58 0 116 50l26 -76q-69 -66 -164 -66q-48 0 -102 29t-85 29q-51 0 -107 -50z" />
    <glyph glyph-name="notequal" unicode="&#x2260;" horiz-adv-x="589" 
d="M133 -25l-63 38l92 119h-147l14 80h196l66 84h-247l14 80h296l106 135l64 -40l-77 -95h135l-14 -80h-184l-66 -84h235l-14 -80h-284z" />
    <glyph glyph-name="lessequal" unicode="&#x2264;" horiz-adv-x="502" 
d="M424 11l-408 203l13 74l481 203l-18 -98l-358 -142l308 -143zM-45 -136l15 86h444l-15 -86h-444z" />
    <glyph glyph-name="greaterequal" unicode="&#x2265;" horiz-adv-x="503" 
d="M-9 11l17 97l359 143l-308 142l17 98l408 -203l-13 -74zM-34 -136l14 86h444l-15 -86h-443z" />
    <glyph glyph-name="dotmath" unicode="&#x22c5;" horiz-adv-x="259" 
d="M132 219q-30 0 -51.5 21t-21.5 51q0 29 21.5 50t51.5 21t51.5 -21t21.5 -50q0 -30 -21.5 -51t-51.5 -21z" />
    <glyph glyph-name="lozenge" unicode="&#x25ca;" horiz-adv-x="590" 
d="M210 -3l-197 327l314 350h80l198 -330l-312 -347h-83zM273 102l207 237l-134 224l-208 -236z" />
    <glyph glyph-name="numbersign.case" horiz-adv-x="555" 
d="M74 0l56 200h-115l25 80h114l32 117h-114l24 80h114l53 189h74l-53 -189h107l53 189h74l-53 -189h108l-25 -80h-107l-32 -117h109l-25 -80h-108l-57 -200h-74l57 200h-107l-56 -200h-74zM226 278h110l33 121h-109z" />
    <glyph glyph-name="dollar.case" horiz-adv-x="474" 
d="M210 -118h-83l18 110q-91 12 -154 72l63 76q54 -49 115 -57l39 225q-30 26 -46.5 42t-37 41t-29.5 53t-9 60q0 76 49 120.5t129 51.5l19 108h83l-20 -110q64 -9 120 -50l-55 -81q-47 35 -88 42l-35 -201q2 -2 3 -2q35 -29 50 -42.5t39 -41t33.5 -56t9.5 -63.5
q0 -76 -50 -129t-145 -60zM312 172q0 44 -45 86l-31 -174q76 14 76 88zM195 507q0 -38 35 -73l26 150q-61 -13 -61 -77z" />
    <glyph glyph-name="percent.case" horiz-adv-x="827" 
d="M224 336q-74 0 -115 43t-41 102q0 78 55 137t144 59q73 0 114.5 -42.5t41.5 -101.5q0 -78 -55.5 -137.5t-143.5 -59.5zM230 406q45 0 74.5 36t29.5 87q0 35 -19 56.5t-54 21.5q-46 0 -75 -36t-29 -86q0 -35 19 -57t54 -22zM593 -9q-73 0 -114.5 43.5t-41.5 101.5
q0 79 54.5 137.5t143.5 58.5q73 0 114.5 -42t41.5 -101q0 -79 -55 -138.5t-143 -59.5zM599 62q45 0 74.5 36t29.5 86q0 35 -19 56.5t-54 21.5q-46 0 -75 -35.5t-29 -85.5q0 -36 19 -57.5t54 -21.5zM124 0l520 666h90l-520 -666h-90z" />
    <glyph glyph-name="parenleft.case" horiz-adv-x="315" 
d="M158 -117q-112 150 -112 344q0 101 27.5 194t72.5 162.5t82.5 113t77.5 78.5h103q-41 -37 -78 -82.5t-80 -115t-69 -160.5t-26 -189q0 -191 97 -345h-95z" />
    <glyph glyph-name="parenright.case" horiz-adv-x="318" 
d="M-66 -117q259 252 259 561q0 111 -30.5 195.5t-69.5 135.5h98q43 -51 78 -135.5t35 -195.5q0 -310 -265 -561h-105z" />
    <glyph glyph-name="hyphen.case" horiz-adv-x="315" 
d="M68 304l15 89h215l-15 -89h-215z" />
    <glyph glyph-name="slash.case" horiz-adv-x="428" 
d="M-62 -161l463 881h103l-464 -881h-102z" />
    <glyph glyph-name="less.case" horiz-adv-x="401" 
d="M255 23l-215 225l281 224l51 -66l-209 -164l153 -162z" />
    <glyph glyph-name="equal.case" horiz-adv-x="516" 
d="M42 134l15 85h393l-15 -85h-393zM74 311l14 84h393l-15 -84h-392z" />
    <glyph glyph-name="greater.case" horiz-adv-x="401" 
d="M80 23l-52 66l210 164l-153 161l61 57l215 -224z" />
    <glyph glyph-name="bracketleft.case" horiz-adv-x="320" 
d="M10 -109l154 881h223l-14 -80h-124l-125 -722h124l-14 -79h-224z" />
    <glyph glyph-name="bracketright.case" horiz-adv-x="319" 
d="M-36 -109l14 79h123l127 722h-124l14 80h223l-153 -881h-224z" />
    <glyph glyph-name="braceleft.case" horiz-adv-x="375" 
d="M198 -109q-45 0 -74.5 26.5t-29.5 73.5q0 17 2 26l32 175q2 9 2 27q0 76 -94 79l14 81q58 0 88.5 25t39.5 77l30 175q21 116 134 116h101l-14 -81h-63q-30 0 -44.5 -17.5t-20.5 -55.5l-27 -158q-17 -103 -114 -126v-2q73 -23 73 -91q0 -13 -3 -30l-29 -170q-4 -26 -4 -32
q0 -38 44 -38h63l-14 -80h-92z" />
    <glyph glyph-name="braceright.case" horiz-adv-x="375" 
d="M-35 -109l14 80h63q30 0 43.5 17.5t20.5 55.5l29 168q16 96 115 124v2q-74 24 -74 96q0 14 3 29l28 158q3 18 3 32q0 21 -9.5 29.5t-33.5 8.5h-63l14 81h98q41 0 69 -25.5t28 -72.5q0 -17 -2 -27l-29 -166q-2 -16 -2 -24q0 -78 94 -81l-14 -80q-110 -2 -128 -104
l-32 -185q-21 -116 -132 -116h-103z" />
    <glyph glyph-name="exclamdown.case" horiz-adv-x="268" 
d="M194 535q-30 0 -51 20.5t-21 48.5q0 30 21 50.5t51 20.5q31 0 52 -20.5t21 -50.5q0 -28 -21 -48.5t-52 -20.5zM32 0l103 452h80l-59 -452h-124z" />
    <glyph glyph-name="guillemotleft.case" horiz-adv-x="491" 
d="M138 156l-92 189l159 193h112l-162 -197l87 -185h-104zM338 156l-91 189l158 193h113l-162 -197l87 -185h-105z" />
    <glyph glyph-name="uni00AD.case" horiz-adv-x="315" 
d="M68 304l15 89h215l-15 -89h-215z" />
    <glyph glyph-name="guillemotright.case" horiz-adv-x="491" 
d="M12 156l160 197l-87 185h105l91 -191l-156 -191h-113zM213 156l160 197l-87 185h104l92 -191l-156 -191h-113z" />
    <glyph glyph-name="questiondown.case" horiz-adv-x="430" 
d="M218 -12q-87 0 -134 42.5t-47 105.5q0 37 12 67.5t36.5 53.5t45.5 37t54 32q31 18 45.5 36t20.5 48l8 47h94l-10 -58q-8 -48 -26.5 -73.5t-62.5 -51.5q-39 -23 -56.5 -35t-32.5 -35t-15 -53q0 -35 23 -54.5t66 -19.5q35 0 84 20l32 -79q-58 -30 -137 -30zM332 535
q-30 0 -51 20.5t-21 48.5q0 30 21 50.5t51 20.5q31 0 52 -20.5t21 -50.5q0 -28 -21 -48.5t-52 -20.5z" />
    <glyph glyph-name="endash.case" horiz-adv-x="560" 
d="M60 305l15 84h462l-14 -84h-463z" />
    <glyph glyph-name="emdash.case" horiz-adv-x="872" 
d="M60 305l15 84h774l-14 -84h-775z" />
    <glyph glyph-name="perthousand.case" horiz-adv-x="1225" 
d="M224 336q-74 0 -115 43t-41 102q0 78 55 137t144 59q73 0 114.5 -42.5t41.5 -101.5q0 -78 -55.5 -137.5t-143.5 -59.5zM230 406q45 0 74.5 36t29.5 87q0 35 -19 56.5t-54 21.5q-46 0 -75 -36t-29 -86q0 -35 19 -57t54 -22zM593 -9q-73 0 -114.5 43.5t-41.5 101.5
q0 79 54.5 137.5t143.5 58.5q73 0 114.5 -42t41.5 -101q0 -79 -55 -138.5t-143 -59.5zM599 62q45 0 74.5 36t29.5 86q0 35 -19 56.5t-54 21.5q-46 0 -75 -35.5t-29 -85.5q0 -36 19 -57.5t54 -21.5zM991 -9q-73 0 -114.5 43.5t-41.5 101.5q0 79 55 137.5t144 58.5
q73 0 114.5 -42t41.5 -101q0 -79 -55 -138.5t-144 -59.5zM997 62q45 0 74.5 36t29.5 86q0 35 -19 56.5t-54 21.5q-46 0 -75 -35.5t-29 -85.5q0 -36 19 -57.5t54 -21.5zM124 0l520 666h90l-520 -666h-90z" />
    <glyph glyph-name="guilsinglleft.case" horiz-adv-x="288" 
d="M136 156l-91 189l158 193h113l-162 -197l87 -185h-105z" />
    <glyph glyph-name="guilsinglright.case" horiz-adv-x="290" 
d="M12 156l160 197l-87 185h105l91 -191l-156 -191h-113z" />
    <glyph glyph-name="zero.dnom" horiz-adv-x="384" 
d="M150 -6q-63 0 -94.5 36t-31.5 93q0 85 49 148.5t137 63.5q64 0 95.5 -35.5t31.5 -92.5q0 -88 -49.5 -150.5t-137.5 -62.5zM160 61q41 0 65.5 43t24.5 102q0 62 -49 62q-42 0 -66.5 -43t-24.5 -101q0 -63 50 -63z" />
    <glyph glyph-name="one.dnom" horiz-adv-x="264" 
d="M67 0l49 257l-82 -21l-18 64l128 29h69l-63 -329h-83z" />
    <glyph glyph-name="two.dnom" horiz-adv-x="331" 
d="M-16 0l8 45q10 7 33.5 23t33.5 23.5t29.5 21.5t29 22t23.5 20t21 21t14.5 19.5t10.5 20t3 19.5q0 32 -43 32q-42 0 -81 -30l-36 53q55 45 132 45q58 0 89 -22t31 -60q0 -49 -41 -91t-123 -98q12 3 50 3h97l-13 -67h-268z" />
    <glyph glyph-name="three.dnom" horiz-adv-x="305" 
d="M61 -6q-45 0 -71 11l22 65q24 -10 57 -10q37 0 60 11.5t23 34.5q0 38 -94 36l10 54q47 2 74.5 15.5t27.5 33.5q0 25 -38 25q-37 0 -71 -19l-28 53q52 31 118 31q52 0 80 -18.5t28 -49.5q0 -62 -87 -86v-1q28 -3 49.5 -21.5t21.5 -47.5q0 -54 -46 -85.5t-136 -31.5z" />
    <glyph glyph-name="four.dnom" horiz-adv-x="334" 
d="M136 0l12 64h-173l10 53l219 212h79l-38 -201h52l-12 -64h-52l-13 -64h-84zM76 126q12 2 36 2h51l20 102h-1z" />
    <glyph glyph-name="five.dnom" horiz-adv-x="298" 
d="M57 -6q-43 0 -68 9l20 66q22 -9 54 -9q38 0 62 13.5t24 38.5q0 20 -22 30.5t-56 10.5q-31 0 -44 -3l38 179h196l-12 -67h-123l-11 -50q53 -3 88.5 -26.5t35.5 -64.5q0 -60 -47.5 -93.5t-134.5 -33.5z" />
    <glyph glyph-name="six.dnom" horiz-adv-x="336" 
d="M138 -6q-65 0 -95.5 33t-30.5 85q1 100 77.5 161.5t191.5 61.5l10 -61q-131 -2 -183 -90q28 21 79 21q44 0 70 -22t26 -63q0 -57 -42 -91.5t-103 -34.5zM140 55q25 0 42.5 16t17.5 39q0 17 -12.5 26.5t-32.5 9.5q-38 0 -60 -16q-2 -18 -2 -24q0 -23 13 -37t34 -14z" />
    <glyph glyph-name="seven.dnom" horiz-adv-x="300" 
d="M92 -14l-68 30l150 243h-149l13 70h246l-8 -42z" />
    <glyph glyph-name="eight.dnom" horiz-adv-x="330" 
d="M127 -6q-58 0 -92 21.5t-34 57.5q0 57 87 95q-45 29 -45 69q0 43 40.5 70.5t95.5 27.5q52 0 85 -20t33 -56q0 -51 -79 -86q56 -33 56 -75q0 -44 -39.5 -74t-107.5 -30zM131 51q24 0 42 11t18 27q0 20 -49 46q-30 -13 -45 -24.5t-15 -28.5q0 -13 14 -22t35 -9zM161 204
q55 24 55 47q0 11 -11.5 19t-29.5 8q-21 0 -36 -10t-15 -25q0 -11 9 -19.5t28 -19.5z" />
    <glyph glyph-name="nine.dnom" horiz-adv-x="338" 
d="M29 -8l-11 61q63 1 111.5 24t70.5 67q-32 -20 -78 -20q-44 0 -70.5 22.5t-26.5 63.5q0 57 44 91t103 34q65 0 94.5 -33t29.5 -84q0 -102 -72 -164t-195 -62zM155 182q35 0 59 17q2 7 2 23q0 24 -13.5 38t-34.5 14q-25 0 -42.5 -16.5t-17.5 -38.5q0 -17 13.5 -27t33.5 -10
z" />
    <glyph glyph-name="zero.lf" horiz-adv-x="594" 
d="M261 -12q-110 0 -161 73.5t-51 188.5q0 75 19.5 148.5t57 137t99.5 103t139 39.5q109 0 161.5 -72t52.5 -184q0 -109 -34 -205.5t-108 -162.5t-175 -66zM271 75q59 0 104.5 52.5t68 131.5t22.5 167q0 165 -112 165q-60 0 -106 -54.5t-67.5 -131.5t-21.5 -158
q0 -172 112 -172z" />
    <glyph glyph-name="one.lf" horiz-adv-x="358" 
d="M114 0l99 570l-127 -39l-22 83l186 52h84l-115 -666h-105z" />
    <glyph glyph-name="two.lf" horiz-adv-x="497" 
d="M-2 0l11 59q96 79 150.5 127t111.5 108t82 110.5t25 99.5q0 41 -24.5 63t-64.5 22q-69 0 -143 -58l-51 67q93 80 212 80q89 0 138.5 -43t49.5 -116q0 -46 -20.5 -94.5t-49 -88t-78.5 -88t-89 -81t-101 -81.5h5q5 1 13.5 1.5t18 0.5t20.5 0.5t20 0.5h202l-16 -89h-422z
" />
    <glyph glyph-name="three.lf" horiz-adv-x="468" 
d="M106 -12q-70 0 -103 12l26 87q27 -11 84 -11q88 0 137.5 35t49.5 102q0 54 -45.5 79t-127.5 21l11 75q92 8 145 43t53 92q0 30 -21.5 47.5t-61.5 17.5q-69 0 -128 -36l-38 69q78 57 190 57q85 0 128.5 -37t43.5 -97q0 -68 -48 -113t-120 -66v-1q55 -9 94 -48t39 -97
q0 -109 -84 -170t-224 -61z" />
    <glyph glyph-name="four.lf" horiz-adv-x="549" 
d="M289 0l25 144h-302l12 77l381 445h102l-76 -435h95l-15 -87h-95l-24 -144h-103zM133 228q26 3 77 3h119l49 287h-2z" />
    <glyph glyph-name="five.lf" horiz-adv-x="449" 
d="M92 -12q-55 0 -92 10l24 88q30 -10 77 -10q92 0 144 40.5t52 115.5q0 108 -156 108q-37 0 -63 -4l64 330h313l-15 -89h-216l-29 -151q101 -5 158 -52.5t57 -128.5q0 -123 -84.5 -190t-233.5 -67z" />
    <glyph glyph-name="six.lf" horiz-adv-x="529" 
d="M251 -12q-105 0 -156.5 66.5t-51.5 164.5q0 198 133.5 328.5t331.5 130.5l13 -86q-165 0 -265 -103q-57 -56 -83 -135q57 55 142 55q82 0 130 -46.5t48 -126.5q0 -105 -68.5 -176.5t-173.5 -71.5zM256 72q61 0 94 46.5t33 110.5q0 46 -24.5 71.5t-69.5 25.5
q-76 0 -134 -52q-3 -30 -3 -62q0 -140 104 -140z" />
    <glyph glyph-name="seven.lf" horiz-adv-x="455" 
d="M140 -29l-88 39l302 565h-277l15 91h395l-10 -65z" />
    <glyph glyph-name="eight.lf" horiz-adv-x="500" 
d="M216 -12q-93 0 -144.5 44t-51.5 110q0 124 164 203q-86 66 -86 148q0 81 64 133t154 52q87 0 134.5 -38.5t47.5 -105.5q0 -106 -152 -182q107 -67 107 -161q0 -87 -63.5 -145t-173.5 -58zM223 72q53 0 86 30.5t33 77.5q0 34 -23 62t-72 58q-59 -32 -88.5 -65.5
t-29.5 -81.5q0 -36 24 -58.5t70 -22.5zM280 397q55 28 82.5 58.5t27.5 68.5q0 71 -81 71q-44 0 -73 -27t-29 -69q0 -53 73 -102z" />
    <glyph glyph-name="nine.lf" horiz-adv-x="528" 
d="M54 -18l-14 86q120 0 207 53q105 65 142 191q-60 -55 -145 -55q-81 0 -130 47.5t-49 126.5q0 105 74 176t174 71q104 0 153.5 -65.5t49.5 -161.5q0 -206 -123 -337.5t-339 -131.5zM272 340q74 0 134 52q3 30 3 64q0 65 -26.5 101.5t-77.5 36.5q-57 0 -93 -47.5
t-36 -108.5q0 -98 96 -98z" />
    <glyph glyph-name="exclam.sc" horiz-adv-x="231" 
d="M83 -7q-27 0 -46 18.5t-19 43.5t19 43t46 18q28 0 46 -18t18 -43t-18 -43.5t-46 -18.5zM61 174l45 344h117l-86 -344h-76z" />
    <glyph glyph-name="ampersand.sc" horiz-adv-x="532" 
d="M182 -9q-82 0 -125 36.5t-43 92.5q0 59 35.5 97.5t105.5 68.5q-36 50 -36 99q0 65 48.5 104t119.5 39q63 0 99 -29.5t36 -76.5q0 -83 -139 -151l81 -104q36 47 54 102l82 -14q-30 -84 -89 -151l78 -104h-114l-36 44q-74 -53 -157 -53zM246 320q84 42 84 92q0 20 -13 33.5
t-36 13.5q-29 0 -47.5 -17t-18.5 -45q0 -36 31 -77zM198 68q51 0 97 35l-100 128q-79 -39 -79 -98q0 -29 21 -47t61 -18z" />
    <glyph glyph-name="question.sc" horiz-adv-x="339" 
d="M70 172l8 42q7 36 22.5 57t48.5 39q22 12 32 18t23 17t18 22.5t5 27.5q0 50 -66 50q-31 0 -68 -16l-32 73q50 26 121 26q73 0 113 -33.5t40 -82.5q0 -28 -9.5 -51.5t-29 -41.5t-36 -29t-42.5 -25q-26 -13 -38.5 -26.5t-16.5 -35.5l-6 -31h-87zM92 -7q-27 0 -46 18.5
t-19 43.5t19 43t46 18t45.5 -18t18.5 -43t-18.5 -43.5t-45.5 -18.5z" />
    <glyph glyph-name="a.sc" horiz-adv-x="535" 
d="M182 185h158l-22 131l-13 96h-2q0 -9 -47 -96zM-27 0l303 518h102l100 -518h-107l-18 102h-216l-56 -102h-108z" />
    <glyph glyph-name="b.sc" horiz-adv-x="490" 
d="M31 0l98 518h167q73 0 117 -30t44 -88q0 -53 -30.5 -87t-83.5 -46v-1q42 -8 68.5 -34.5t26.5 -68.5q0 -81 -62 -122t-169 -41h-176zM150 80h66q118 0 118 84q0 67 -89 67h-67zM190 303h65q49 0 74 21t25 58q0 57 -79 57h-59z" />
    <glyph glyph-name="c.sc" horiz-adv-x="502" 
d="M264 -9q-113 0 -171 61.5t-58 158.5q0 131 91 224t230 93q99 0 155 -39l-51 -77q-46 28 -111 28q-89 0 -145.5 -64.5t-56.5 -159.5q0 -63 32 -100t96 -37q67 0 128 44l42 -75q-28 -23 -76 -40t-105 -17z" />
    <glyph glyph-name="d.sc" horiz-adv-x="572" 
d="M31 0l97 518h153q128 0 195 -55.5t67 -151.5q0 -132 -89.5 -221.5t-255.5 -89.5h-167zM152 85h66q103 0 158.5 61.5t55.5 161.5q0 125 -157 125h-57z" />
    <glyph glyph-name="e.sc" horiz-adv-x="463" 
d="M34 0l96 518h320l-16 -85h-215l-23 -124h193l-15 -80h-193l-28 -144h226l-17 -85h-328z" />
    <glyph glyph-name="f.sc" horiz-adv-x="444" 
d="M35 0l97 518h315l-15 -86h-211l-25 -132h188l-15 -83h-188l-40 -217h-106z" />
    <glyph glyph-name="g.sc" horiz-adv-x="566" 
d="M285 -9q-121 0 -185 62.5t-64 160.5q0 131 94.5 222.5t235.5 91.5q112 0 172 -41l-52 -81q-50 33 -129 33q-95 0 -152.5 -62.5t-57.5 -160.5q0 -65 35.5 -102.5t106.5 -37.5q62 0 101 21l20 108h-103l14 81h204l-46 -245q-78 -50 -194 -50z" />
    <glyph glyph-name="h.sc" horiz-adv-x="612" 
d="M31 0l96 518h106l-38 -205h247l39 205h105l-97 -518h-105l43 225h-248l-42 -225h-106z" />
    <glyph glyph-name="i.sc" horiz-adv-x="269" 
d="M36 0l97 518h106l-97 -518h-106z" />
    <glyph glyph-name="j.sc" horiz-adv-x="260" 
d="M-37 -161q-44 0 -74 13l33 85q21 -7 37 -7q32 0 50 18.5t25 60.5l95 509h106l-98 -524q-30 -155 -174 -155z" />
    <glyph glyph-name="k.sc" horiz-adv-x="522" 
d="M31 0l98 518h104l-45 -243l239 243h122l-248 -247l162 -271h-114l-162 273l-50 -273h-106z" />
    <glyph glyph-name="l.sc" horiz-adv-x="421" 
d="M31 0l97 518h106l-81 -432h206l-14 -86h-314z" />
    <glyph glyph-name="m.sc" horiz-adv-x="712" 
d="M7 0l170 518h99l48 -334q2 -16 3.5 -32t2.5 -32t2 -22h2q25 59 40 86l178 334h103l-26 -518h-104l18 277q5 61 9 86h-2q-17 -44 -36 -80l-152 -283h-98l-40 280q-8 59 -8 83h-2q-7 -37 -22 -86l-88 -277h-97z" />
    <glyph glyph-name="n.sc" horiz-adv-x="605" 
d="M30 0l97 518h104l147 -287q28 -54 39 -86h1q5 44 12 85l55 288h95l-96 -518h-94l-158 303q-16 29 -36 80h-1q-4 -35 -12 -79l-58 -304h-95z" />
    <glyph glyph-name="o.sc" horiz-adv-x="616" 
d="M274 -9q-110 0 -174 65t-64 160q0 123 88.5 217.5t223.5 94.5q113 0 175.5 -64.5t62.5 -160.5q0 -125 -87.5 -218.5t-224.5 -93.5zM282 77q87 0 140 67.5t53 156.5q0 61 -34.5 100.5t-99.5 39.5q-88 0 -141 -66t-53 -156q0 -62 35.5 -102t99.5 -40z" />
    <glyph glyph-name="p.sc" horiz-adv-x="484" 
d="M31 0l97 518h164q81 0 130.5 -37t49.5 -102q0 -94 -66.5 -144t-177.5 -50h-56l-35 -185h-106zM187 267h54q124 0 124 101q0 69 -90 69h-56z" />
    <glyph glyph-name="q.sc" horiz-adv-x="616" 
d="M400 -136q-68 0 -120.5 32t-95.5 108q-70 24 -109 82t-39 130q0 123 88.5 217.5t223.5 94.5q113 0 175.5 -64.5t62.5 -160.5q0 -116 -76 -206.5t-197 -102.5q33 -51 100 -51q46 0 83 23l28 -71q-54 -31 -124 -31zM282 75q88 0 140.5 68t52.5 158q0 61 -34.5 100.5
t-99.5 39.5q-88 0 -141 -66t-53 -156q0 -63 35 -103.5t100 -40.5z" />
    <glyph glyph-name="r.sc" horiz-adv-x="506" 
d="M31 0l98 518h169q82 0 126.5 -33.5t44.5 -94.5q0 -69 -42.5 -108.5t-116.5 -50.5v-2q25 -14 54 -73l81 -156h-112l-72 147q-21 42 -35 54.5t-38 12.5h-10l-41 -214h-106zM191 290h68q52 0 78 23.5t26 64.5q0 59 -81 59h-63z" />
    <glyph glyph-name="s.sc" horiz-adv-x="403" 
d="M158 -9q-107 0 -169 56l54 73q53 -43 118 -43q42 0 63 17t21 44q0 14 -8.5 27t-18 22t-33.5 28t-39 32q-42 37 -63 67t-21 72q0 66 49.5 104t126.5 38q88 0 146 -42l-49 -75q-46 32 -98 32q-72 0 -72 -53q0 -5 1 -10t2.5 -9t5 -9t5.5 -8.5t8 -9t9 -8.5t11 -9.5t12 -9.5
t14.5 -10.5t15.5 -11.5q48 -36 75 -70.5t27 -79.5q0 -70 -49.5 -112t-143.5 -42z" />
    <glyph glyph-name="t.sc" horiz-adv-x="446" 
d="M124 0l81 431h-154l16 87h407l-14 -87h-149l-81 -431h-106z" />
    <glyph glyph-name="u.sc" horiz-adv-x="571" 
d="M254 -9q-100 0 -150.5 45.5t-50.5 123.5q0 21 5 51l57 307h105l-57 -303q-4 -21 -4 -44q0 -93 102 -93q62 0 94 33t45 100l58 307h97l-59 -314q-20 -109 -78.5 -161t-163.5 -52z" />
    <glyph glyph-name="v.sc" horiz-adv-x="527" 
d="M173 0l-111 518h108l60 -312q9 -47 12 -91h2q28 63 42 91l167 312h108l-289 -518h-99z" />
    <glyph glyph-name="w.sc" horiz-adv-x="730" 
d="M113 0l-50 518h107l19 -270q4 -53 6 -108h2q7 26 44 111l121 267h103l25 -273q2 -25 3.5 -61t2.5 -44h2q10 31 40 103l119 275h106l-240 -518h-100l-24 287q-2 27 -3.5 66.5t-2.5 48.5h-2q-16 -47 -47 -115l-135 -287h-96z" />
    <glyph glyph-name="x.sc" horiz-adv-x="493" 
d="M-24 0l219 270l-114 248h112l75 -174l130 174h111q-201 -253 -202 -253l122 -265h-112l-81 190l-147 -190h-113z" />
    <glyph glyph-name="y.sc" horiz-adv-x="481" 
d="M144 0l37 195l-119 323h110l79 -228l157 228h108l-228 -324l-39 -194h-105z" />
    <glyph glyph-name="z.sc" horiz-adv-x="455" 
d="M-11 0l13 70l316 362h-237l16 86h369l-13 -69l-318 -364h257l-15 -85h-388z" />
    <glyph glyph-name="exclamdown.sc" horiz-adv-x="231" 
d="M149 402q-27 0 -45.5 18t-18.5 43t18.5 43.5t45.5 18.5q28 0 46.5 -18.5t18.5 -43.5t-18.5 -43t-46.5 -18zM9 0l87 344h75l-45 -344h-117z" />
    <glyph glyph-name="mu.sc" horiz-adv-x="712" 
d="M7 0l170 518h99l48 -334q2 -16 3.5 -32t2.5 -32t2 -22h2q25 59 40 86l178 334h103l-26 -518h-104l18 277q5 61 9 86h-2q-17 -44 -36 -80l-152 -283h-98l-40 280q-8 59 -8 83h-2q-7 -37 -22 -86l-88 -277h-97z" />
    <glyph glyph-name="questiondown.sc" horiz-adv-x="339" 
d="M159 -7q-73 0 -113 34t-40 82q0 37 19.5 67.5t41 46t56.5 33.5q26 13 38.5 26.5t16.5 35.5l6 31h87l-8 -42q-7 -36 -23 -57t-48 -39q-22 -12 -32 -18t-23 -17t-18 -22.5t-5 -27.5q0 -49 66 -49q36 0 68 16l32 -74q-50 -26 -121 -26zM249 405q-27 0 -45.5 18t-18.5 43
q0 26 18.5 44t45.5 18q28 0 46.5 -18t18.5 -44q0 -25 -19 -43t-46 -18z" />
    <glyph glyph-name="germandbls.sc" horiz-adv-x="800" 
d="M157 -9q-105 0 -168 57l55 72q54 -43 116 -43q43 0 64 17.5t21 44.5q0 13 -8.5 26.5t-19 22.5t-33.5 27.5t-38 31.5q-42 36 -63 66.5t-21 72.5q0 67 49.5 104.5t127.5 37.5q89 0 146 -43l-50 -74q-43 32 -98 32q-72 0 -72 -53q0 -5 1 -10t2.5 -9t5 -9t5.5 -8.5t8 -9
t9 -8.5t11 -9.5t12 -9.5t14.5 -10.5t15.5 -11.5q49 -37 75.5 -71t26.5 -80q0 -69 -50 -111t-144 -42zM557 -9q-103 0 -169 57l55 72q57 -43 117 -43q43 0 64 17.5t21 44.5q0 13 -8.5 26.5t-19 22.5t-33.5 27.5t-38 31.5q-42 35 -63 66t-21 73q0 67 49.5 104.5t127.5 37.5
q89 0 146 -43l-50 -74q-43 32 -98 32q-73 0 -73 -53q0 -6 1 -11t4 -10.5t5 -9.5t8 -9.5t9.5 -9t12 -10.5t13 -10.5t15.5 -12t17 -12.5q49 -37 75.5 -71t26.5 -80q0 -69 -50 -111t-144 -42z" />
    <glyph glyph-name="agrave.sc" horiz-adv-x="535" 
d="M182 185h158l-22 131l-13 96h-2q0 -9 -47 -96zM-27 0l303 518h102l100 -518h-107l-18 102h-216l-56 -102h-108zM283 572l-109 131h134l64 -131h-89z" />
    <glyph glyph-name="aacute.sc" horiz-adv-x="535" 
d="M283 572l108 131h143l-156 -131h-95zM182 185h158l-22 131l-13 96h-2q0 -9 -47 -96zM-27 0l303 518h102l100 -518h-107l-18 102h-216l-56 -102h-108z" />
    <glyph glyph-name="acircumflex.sc" horiz-adv-x="535" 
d="M169 573l150 156h77l94 -156h-86l-57 77l-84 -77h-94zM182 185h158l-22 131l-13 96h-2q0 -9 -47 -96zM-27 0l303 518h102l100 -518h-107l-18 102h-216l-56 -102h-108z" />
    <glyph glyph-name="atilde.sc" horiz-adv-x="535" 
d="M182 185h158l-22 131l-13 96h-2q0 -9 -47 -96zM-27 0l303 518h102l100 -518h-107l-18 102h-216l-56 -102h-108zM386 576q-28 0 -58.5 18.5t-48.5 18.5q-23 0 -56 -30l-39 45q48 67 108 67q28 0 58.5 -18.5t48.5 -18.5q32 0 57 30l41 -44q-53 -68 -111 -68z" />
    <glyph glyph-name="adieresis.sc" horiz-adv-x="535" 
d="M239 574q-26 0 -43.5 17.5t-17.5 43.5t17.5 43.5t43.5 17.5q27 0 45 -17.5t18 -43.5t-18 -43.5t-45 -17.5zM436 574q-26 0 -43.5 17.5t-17.5 43.5t17.5 43.5t43.5 17.5q27 0 45 -17.5t18 -43.5t-18 -43.5t-45 -17.5zM182 185h158l-22 131l-13 96h-2q0 -9 -47 -96zM-27 0
l303 518h102l100 -518h-107l-18 102h-216l-56 -102h-108z" />
    <glyph glyph-name="aring.sc" horiz-adv-x="535" 
d="M339 573q-42 0 -72 28.5t-30 71.5q0 44 30 73t72 29t72 -28.5t30 -72.5q0 -43 -30.5 -72t-71.5 -29zM339 622q22 0 34.5 15t12.5 37q0 23 -12.5 38t-34.5 15t-34.5 -15t-12.5 -38q0 -22 12.5 -37t34.5 -15zM182 185h158l-22 131l-13 96h-2q0 -9 -47 -96zM-27 0l303 518
h102l100 -518h-107l-18 102h-216l-56 -102h-108z" />
    <glyph glyph-name="ae.sc" horiz-adv-x="728" 
d="M-45 0l404 518h364l-16 -85h-215l-24 -124h194l-15 -80h-194l-27 -144h226l-17 -85h-329l21 104h-179l-81 -104h-112zM209 186h134l45 234z" />
    <glyph glyph-name="ccedilla.sc" horiz-adv-x="502" 
d="M204 -225q-44 0 -75 13l18 51q20 -10 49 -10q48 0 48 37q0 43 -71 39l33 91q-84 15 -127.5 73.5t-43.5 141.5q0 131 91 224t230 93q99 0 155 -39l-51 -77q-46 28 -111 28q-89 0 -145.5 -64.5t-56.5 -159.5q0 -63 32 -100t96 -37q67 0 128 44l42 -75q-65 -54 -175 -57
l-19 -51q32 -5 51.5 -25.5t19.5 -51.5q0 -40 -33 -64t-85 -24z" />
    <glyph glyph-name="egrave.sc" horiz-adv-x="463" 
d="M248 572l-109 131h134l64 -131h-89zM34 0l96 518h320l-16 -85h-215l-23 -124h193l-15 -80h-193l-28 -144h226l-17 -85h-328z" />
    <glyph glyph-name="eacute.sc" horiz-adv-x="463" 
d="M248 572l108 131h143l-156 -131h-95zM34 0l96 518h320l-16 -85h-215l-23 -124h193l-15 -80h-193l-28 -144h226l-17 -85h-328z" />
    <glyph glyph-name="ecircumflex.sc" horiz-adv-x="463" 
d="M135 573l150 156h77l94 -156h-86l-57 77l-84 -77h-94zM34 0l96 518h320l-16 -85h-215l-23 -124h193l-15 -80h-193l-28 -144h226l-17 -85h-328z" />
    <glyph glyph-name="edieresis.sc" horiz-adv-x="463" 
d="M204 574q-26 0 -43.5 17.5t-17.5 43.5t17.5 43.5t43.5 17.5q27 0 45 -17.5t18 -43.5t-18 -43.5t-45 -17.5zM401 574q-26 0 -43.5 17.5t-17.5 43.5t17.5 43.5t43.5 17.5q27 0 45 -17.5t18 -43.5t-18 -43.5t-45 -17.5zM34 0l96 518h320l-16 -85h-215l-23 -124h193l-15 -80
h-193l-28 -144h226l-17 -85h-328z" />
    <glyph glyph-name="igrave.sc" horiz-adv-x="269" 
d="M36 0l97 518h106l-97 -518h-106zM148 572l-109 131h134l64 -131h-89z" />
    <glyph glyph-name="iacute.sc" horiz-adv-x="269" 
d="M149 572l108 131h143l-156 -131h-95zM36 0l97 518h106l-97 -518h-106z" />
    <glyph glyph-name="icircumflex.sc" horiz-adv-x="269" 
d="M35 573l150 156h77l94 -156h-86l-57 77l-84 -77h-94zM36 0l97 518h106l-97 -518h-106z" />
    <glyph glyph-name="idieresis.sc" horiz-adv-x="269" 
d="M104 574q-26 0 -43.5 17.5t-17.5 43.5t17.5 43.5t43.5 17.5q27 0 45 -17.5t18 -43.5t-18 -43.5t-45 -17.5zM301 574q-26 0 -43.5 17.5t-17.5 43.5t17.5 43.5t43.5 17.5q27 0 45 -17.5t18 -43.5t-18 -43.5t-45 -17.5zM36 0l97 518h106l-97 -518h-106z" />
    <glyph glyph-name="eth.sc" horiz-adv-x="580" 
d="M38 0l41 217h-59l14 79h59l42 222h153q128 0 195 -55.5t67 -151.5q0 -132 -89 -221.5t-255 -89.5h-168zM160 85h65q103 0 158.5 61.5t55.5 161.5q0 125 -157 125h-57l-26 -137h103l-14 -79h-104z" />
    <glyph glyph-name="ntilde.sc" horiz-adv-x="605" 
d="M30 0l97 518h104l147 -287q28 -54 39 -86h1q5 44 12 85l55 288h95l-96 -518h-94l-158 303q-16 29 -36 80h-1q-4 -35 -12 -79l-58 -304h-95zM409 576q-28 0 -58.5 18.5t-48.5 18.5q-24 0 -56 -30l-39 45q48 67 108 67q28 0 58.5 -18.5t48.5 -18.5q32 0 57 30l41 -44
q-53 -68 -111 -68z" />
    <glyph glyph-name="ograve.sc" horiz-adv-x="616" 
d="M274 -9q-110 0 -174 65t-64 160q0 123 88.5 217.5t223.5 94.5q113 0 175.5 -64.5t62.5 -160.5q0 -125 -87.5 -218.5t-224.5 -93.5zM282 77q87 0 140 67.5t53 156.5q0 61 -34.5 100.5t-99.5 39.5q-88 0 -141 -66t-53 -156q0 -62 35.5 -102t99.5 -40zM312 572l-109 131h134
l64 -131h-89z" />
    <glyph glyph-name="oacute.sc" horiz-adv-x="616" 
d="M312 572l108 131h143l-156 -131h-95zM274 -9q-110 0 -174 65t-64 160q0 123 88.5 217.5t223.5 94.5q113 0 175.5 -64.5t62.5 -160.5q0 -125 -87.5 -218.5t-224.5 -93.5zM282 77q87 0 140 67.5t53 156.5q0 61 -34.5 100.5t-99.5 39.5q-88 0 -141 -66t-53 -156
q0 -62 35.5 -102t99.5 -40z" />
    <glyph glyph-name="ocircumflex.sc" horiz-adv-x="616" 
d="M199 573l150 156h77l94 -156h-86l-57 77l-84 -77h-94zM274 -9q-110 0 -174 65t-64 160q0 123 88.5 217.5t223.5 94.5q113 0 175.5 -64.5t62.5 -160.5q0 -125 -87.5 -218.5t-224.5 -93.5zM282 77q87 0 140 67.5t53 156.5q0 61 -34.5 100.5t-99.5 39.5q-88 0 -141 -66
t-53 -156q0 -62 35.5 -102t99.5 -40z" />
    <glyph glyph-name="otilde.sc" horiz-adv-x="616" 
d="M274 -9q-110 0 -174 65t-64 160q0 123 88.5 217.5t223.5 94.5q113 0 175.5 -64.5t62.5 -160.5q0 -125 -87.5 -218.5t-224.5 -93.5zM282 77q87 0 140 67.5t53 156.5q0 61 -34.5 100.5t-99.5 39.5q-88 0 -141 -66t-53 -156q0 -62 35.5 -102t99.5 -40zM415 576
q-28 0 -58.5 18.5t-48.5 18.5q-24 0 -56 -30l-39 45q48 67 108 67q28 0 58.5 -18.5t48.5 -18.5q32 0 57 30l41 -44q-53 -68 -111 -68z" />
    <glyph glyph-name="odieresis.sc" horiz-adv-x="616" 
d="M268 574q-26 0 -43.5 17.5t-17.5 43.5t17.5 43.5t43.5 17.5q27 0 45 -17.5t18 -43.5t-18 -43.5t-45 -17.5zM465 574q-26 0 -43.5 17.5t-17.5 43.5t17.5 43.5t43.5 17.5q27 0 45 -17.5t18 -43.5t-18 -43.5t-45 -17.5zM274 -9q-110 0 -174 65t-64 160q0 123 88.5 217.5
t223.5 94.5q113 0 175.5 -64.5t62.5 -160.5q0 -125 -87.5 -218.5t-224.5 -93.5zM282 77q87 0 140 67.5t53 156.5q0 61 -34.5 100.5t-99.5 39.5q-88 0 -141 -66t-53 -156q0 -62 35.5 -102t99.5 -40z" />
    <glyph glyph-name="oslash.sc" horiz-adv-x="631" 
d="M91 -60l-55 47l75 82q-51 60 -51 147q0 123 88.5 217.5t223.5 94.5q75 0 133 -32l69 75l54 -47l-68 -74q50 -61 50 -147q0 -125 -87.5 -218.5t-224.5 -93.5q-74 0 -132 32zM306 76q87 0 140.5 68t53.5 157q0 37 -16 72l-255 -277q32 -20 77 -20zM170 219q0 -40 15 -73
l255 277q-33 20 -76 20q-87 0 -140.5 -67t-53.5 -157z" />
    <glyph glyph-name="ugrave.sc" horiz-adv-x="571" 
d="M292 572l-109 131h134l64 -131h-89zM254 -9q-100 0 -150.5 45.5t-50.5 123.5q0 21 5 51l57 307h105l-57 -303q-4 -21 -4 -44q0 -93 102 -93q62 0 94 33t45 100l58 307h97l-59 -314q-20 -109 -78.5 -161t-163.5 -52z" />
    <glyph glyph-name="uacute.sc" horiz-adv-x="571" 
d="M293 572l108 131h143l-156 -131h-95zM254 -9q-100 0 -150.5 45.5t-50.5 123.5q0 21 5 51l57 307h105l-57 -303q-4 -21 -4 -44q0 -93 102 -93q62 0 94 33t45 100l58 307h97l-59 -314q-20 -109 -78.5 -161t-163.5 -52z" />
    <glyph glyph-name="ucircumflex.sc" horiz-adv-x="571" 
d="M179 573l150 156h77l94 -156h-86l-57 77l-84 -77h-94zM254 -9q-100 0 -150.5 45.5t-50.5 123.5q0 21 5 51l57 307h105l-57 -303q-4 -21 -4 -44q0 -93 102 -93q62 0 94 33t45 100l58 307h97l-59 -314q-20 -109 -78.5 -161t-163.5 -52z" />
    <glyph glyph-name="udieresis.sc" horiz-adv-x="571" 
d="M248 574q-26 0 -43.5 17.5t-17.5 43.5t17.5 43.5t43.5 17.5q27 0 45 -17.5t18 -43.5t-18 -43.5t-45 -17.5zM445 574q-26 0 -43.5 17.5t-17.5 43.5t17.5 43.5t43.5 17.5q27 0 45 -17.5t18 -43.5t-18 -43.5t-45 -17.5zM254 -9q-100 0 -150.5 45.5t-50.5 123.5q0 21 5 51
l57 307h105l-57 -303q-4 -21 -4 -44q0 -93 102 -93q62 0 94 33t45 100l58 307h97l-59 -314q-20 -109 -78.5 -161t-163.5 -52z" />
    <glyph glyph-name="yacute.sc" horiz-adv-x="481" 
d="M242 572l108 131h143l-156 -131h-95zM144 0l37 195l-119 323h110l79 -228l157 228h108l-228 -324l-39 -194h-105z" />
    <glyph glyph-name="thorn.sc" horiz-adv-x="481" 
d="M31 0l97 518h106l-16 -83h59q80 0 129.5 -37t49.5 -102q0 -94 -66.5 -144t-176.5 -50h-56l-20 -102h-106zM171 183h55q62 0 92.5 27t30.5 75q0 69 -89 69h-57z" />
    <glyph glyph-name="ydieresis.sc" horiz-adv-x="481" 
d="M199 574q-26 0 -43.5 17.5t-17.5 43.5t17.5 43.5t43.5 17.5q27 0 45 -17.5t18 -43.5t-18 -43.5t-45 -17.5zM396 574q-26 0 -43.5 17.5t-17.5 43.5t17.5 43.5t43.5 17.5q27 0 45 -17.5t18 -43.5t-18 -43.5t-45 -17.5zM144 0l37 195l-119 323h110l79 -228l157 228h108
l-228 -324l-39 -194h-105z" />
    <glyph glyph-name="dotlessi.sc" horiz-adv-x="269" 
d="M36 0l97 518h106l-97 -518h-106z" />
    <glyph glyph-name="lslash.sc" horiz-adv-x="432" 
d="M48 0l34 183l-58 -38l-29 58l103 67l47 248h105l-32 -172l81 53l30 -59l-127 -82l-32 -172h205l-14 -86h-313z" />
    <glyph glyph-name="oe.sc" horiz-adv-x="749" 
d="M274 -9q-110 0 -174 65t-64 160q0 123 88.5 217.5t223.5 94.5q41 0 81 -10h330l-16 -85h-215l-24 -124h194l-15 -80h-194l-27 -144h226l-17 -85h-318q-37 -9 -79 -9zM282 77q42 0 79 20l60 323q-29 21 -80 21q-88 0 -141 -66t-53 -156q0 -62 35.5 -102t99.5 -40z" />
    <glyph glyph-name="scaron.sc" horiz-adv-x="403" 
d="M204 571l-96 156h85l60 -77l88 77h93l-153 -156h-77zM158 -9q-107 0 -169 56l54 73q53 -43 118 -43q42 0 63 17t21 44q0 14 -8.5 27t-18 22t-33.5 28t-39 32q-42 37 -63 67t-21 72q0 66 49.5 104t126.5 38q88 0 146 -42l-49 -75q-46 32 -98 32q-72 0 -72 -53q0 -5 1 -10
t2.5 -9t5 -9t5.5 -8.5t8 -9t9 -8.5t11 -9.5t12 -9.5t14.5 -10.5t15.5 -11.5q48 -36 75 -70.5t27 -79.5q0 -70 -49.5 -112t-143.5 -42z" />
    <glyph glyph-name="zcaron.sc" horiz-adv-x="455" 
d="M243 571l-96 156h85l60 -77l88 77h93l-153 -156h-77zM-11 0l13 70l316 362h-237l16 86h369l-13 -69l-318 -364h257l-15 -85h-388z" />
    <glyph glyph-name="pi.sc" horiz-adv-x="610" 
d="M36 0l97 518h447l-97 -518h-106l81 430h-236l-80 -430h-106z" />
    <glyph glyph-name="fi.sc" horiz-adv-x="708" 
d="M35 0l97 518h315l-15 -86h-211l-25 -132h188l-15 -83h-188l-40 -217h-106zM474 0l98 518h106l-97 -518h-107z" />
    <glyph glyph-name="fl.sc" horiz-adv-x="855" 
d="M35 0l97 518h315l-15 -86h-211l-25 -132h188l-15 -83h-188l-40 -217h-106zM470 0l97 518h106l-81 -432h206l-14 -86h-314z" />
    <glyph glyph-name="ampersand.ss01" horiz-adv-x="626" 
d="M225 -12q-98 0 -150.5 47t-52.5 120q0 75 43.5 123t128.5 87q-48 69 -48 133q0 81 58.5 130.5t143.5 49.5q74 0 116 -36.5t42 -94.5q0 -61 -42.5 -107t-130.5 -91l113 -147q46 67 70 138l90 -17q-40 -113 -108 -193l97 -130h-126l-47 61q-92 -73 -197 -73zM292 405
q61 32 87.5 62.5t26.5 67.5q0 29 -17 46.5t-48 17.5q-41 0 -65 -24t-24 -65q0 -46 40 -105zM240 74q68 0 133 54l-135 175q-54 -28 -79.5 -59t-25.5 -76q0 -42 28 -68t79 -26z" />
    <glyph glyph-name="slash.ss01" horiz-adv-x="405" 
d="M-62 -113l486 833h100l-486 -833h-100z" />
    <glyph glyph-name="g.ss01" horiz-adv-x="483" 
d="M157 -238q-96 0 -146.5 34.5t-50.5 92.5q0 78 116 134q-37 25 -37 69q0 50 60 87q-55 42 -55 118q0 87 63.5 143t155.5 56q43 0 76 -12h173l-13 -74h-76q14 -30 14 -67q0 -88 -59.5 -144t-153.5 -56q-41 0 -70 10q-17 -12 -17 -32q0 -14 11 -22t38 -14q123 -28 156 -43
q76 -33 76 -106q0 -81 -71.5 -127.5t-189.5 -46.5zM167 -164q62 0 103.5 22.5t41.5 58.5q0 12 -5.5 21t-12 14.5t-23 11t-26.5 8t-35 7.5q-40 7 -75 18q-72 -40 -72 -93q0 -30 25.5 -49t78.5 -19zM226 217q48 0 79.5 34t31.5 89q0 40 -21 61t-59 21q-47 0 -79 -33.5
t-32 -89.5q0 -40 21 -61t59 -21z" />
    <glyph glyph-name="k.ss01" horiz-adv-x="497" 
d="M24 0l130 720h103l-38 -211q-6 -42 -28 -121h3q72 109 164 109q53 0 85 -32.5t32 -82.5q0 -130 -166 -186l130 -196h-116l-150 226q82 8 140 41t58 91q0 51 -53 51q-51 0 -96.5 -69t-61.5 -165l-31 -175h-105z" />
    <glyph glyph-name="pi.ss01" horiz-adv-x="648" 
d="M63 -128l92 519h-109l17 93h601l-17 -93h-126l-41 -230q-3 -20 -3 -32q0 -43 29 -43q32 0 64 17l22 -78q-50 -37 -120 -37q-106 0 -106 100q0 22 4 43l47 260h-155l-92 -519h-107z" />
    <glyph glyph-name="parenleft.subs" horiz-adv-x="218" 
d="M76 -61q-63 70 -63 167q0 93 47 163t99 106h85q-31 -24 -59.5 -55t-57 -91t-28.5 -123q0 -98 56 -167h-79z" />
    <glyph glyph-name="parenright.subs" horiz-adv-x="218" 
d="M-55 -61q31 24 59.5 55t57 91t28.5 123q0 98 -56 167h79q64 -71 64 -167q0 -50 -15.5 -96t-40.5 -79.5t-47 -56t-44 -37.5h-85z" />
    <glyph glyph-name="plus.subs" horiz-adv-x="328" 
d="M95 52l17 82h-95l12 63h94l16 81h68l-16 -81h93l-12 -63h-93l-17 -82h-67z" />
    <glyph glyph-name="minus.subs" horiz-adv-x="304" 
d="M28 134l13 63h208l-13 -63h-208z" />
    <glyph glyph-name="zero.tf" 
d="M235 -12q-98 0 -145 73.5t-47 188.5q0 74 19 148t54.5 137.5t93.5 103t128 39.5q97 0 145 -72.5t48 -183.5q0 -108 -32.5 -205t-102 -163t-161.5 -66zM245 75q74 0 124 108t50 243q0 77 -23.5 121t-68.5 44q-50 0 -91 -54t-62 -132t-21 -158q0 -82 23.5 -127t68.5 -45z
" />
    <glyph glyph-name="one.tf" 
d="M35 0l15 90h160l83 480l-148 -45l-23 83l209 58h84l-100 -576h157l-15 -90h-422z" />
    <glyph glyph-name="two.tf" 
d="M-1 0l11 59q71 58 104 85.5t87.5 75.5t80 77.5t55 68t41 72t11.5 66.5q0 41 -24.5 63t-64.5 22q-77 0 -151 -60l-50 67q95 82 219 82q90 0 139 -43t49 -116q0 -33 -11.5 -67.5t-27 -64t-46 -65t-54.5 -60t-66.5 -61.5t-68 -57.5t-72.5 -57.5h5q5 1 13.5 1.5t18 0.5
t20.5 0.5t20 0.5h213l-16 -89h-435z" />
    <glyph glyph-name="three.tf" 
d="M152 -12q-86 0 -135 19l29 86q44 -17 113 -17q88 0 139.5 35.5t51.5 101.5q0 52 -54 77t-139 23l12 75q96 8 156 42.5t60 94.5q0 30 -24.5 46.5t-64.5 16.5q-73 0 -147 -47l-42 66q98 71 213 71q86 0 132 -37t46 -96q0 -67 -50.5 -113t-124.5 -67v-1q57 -9 98.5 -48.5
t41.5 -96.5q0 -109 -85.5 -170t-225.5 -61z" />
    <glyph glyph-name="four.tf" 
d="M280 0l25 142h-306l13 77l384 447h101l-75 -437h84l-15 -87h-84l-25 -142h-102zM121 226q25 3 77 3h121l50 289h-2z" />
    <glyph glyph-name="five.tf" 
d="M137 -12q-61 0 -103 14l24 88q37 -14 89 -14q93 0 148.5 40.5t55.5 115.5q0 55 -49 81.5t-126 26.5q-37 0 -61 -4l63 330h337l-15 -89h-240l-29 -151q102 -2 167.5 -51.5t65.5 -129.5q0 -124 -88 -190.5t-239 -66.5z" />
    <glyph glyph-name="six.tf" 
d="M255 -12q-71 0 -119.5 34t-69 84.5t-20.5 112.5q0 198 134.5 328.5t331.5 130.5l13 -86q-164 0 -265 -103q-58 -57 -84 -135q57 55 143 55q83 0 131.5 -47t48.5 -126q0 -105 -69.5 -176.5t-174.5 -71.5zM260 72q62 0 95.5 46.5t33.5 110.5q0 46 -25.5 71.5t-70.5 25.5
q-77 0 -135 -52q-3 -30 -3 -62q0 -68 27 -104t78 -36z" />
    <glyph glyph-name="seven.tf" 
d="M151 -29l-85 40l356 564h-318l15 91h438l-10 -65z" />
    <glyph glyph-name="eight.tf" 
d="M239 -12q-94 0 -148 44t-54 110q0 120 172 203q-94 72 -94 148q0 81 67.5 133t157.5 52q87 0 137.5 -39t50.5 -105q0 -102 -160 -182q115 -72 115 -161q0 -87 -66.5 -145t-177.5 -58zM247 72q53 0 89 31t36 77q0 33 -25.5 60.5t-76.5 59.5q-61 -33 -92.5 -66.5
t-31.5 -80.5q0 -35 27 -58t74 -23zM304 397q57 29 86.5 59t29.5 68q0 32 -23 51.5t-65 19.5q-44 0 -76 -27.5t-32 -68.5q0 -29 20 -52.5t60 -49.5z" />
    <glyph glyph-name="nine.tf" 
d="M62 -18l-13 86q119 0 206 53q106 66 143 191q-58 -55 -145 -55q-82 0 -131.5 47.5t-49.5 126.5q0 105 74.5 176t174.5 71q54 0 95 -19t64 -52t34.5 -72t11.5 -84q0 -206 -124 -337.5t-340 -131.5zM280 340q77 0 135 52q4 27 4 64q0 65 -27.5 101.5t-78.5 36.5
q-57 0 -93.5 -48t-36.5 -108q0 -98 97 -98z" />
    <glyph glyph-name="zero.tosf" 
d="M231 -12q-92 0 -144 62t-52 149q0 122 79 210t196 88q96 0 146.5 -60.5t50.5 -148.5q0 -126 -78 -213t-198 -87zM242 71q71 0 114.5 64.5t43.5 151.5q0 127 -100 127q-68 0 -113.5 -63t-45.5 -148q0 -63 26 -97.5t75 -34.5z" />
    <glyph glyph-name="one.tosf" 
d="M47 0l14 83h149l56 305l-142 -41l-20 84l204 53h80l-73 -401h150l-15 -83h-403z" />
    <glyph glyph-name="two.tosf" 
d="M11 0l7 49q177 116 215 145q119 90 119 156q0 59 -75 59q-76 0 -145 -49l-45 66q89 71 208 71q81 0 124.5 -34.5t43.5 -96.5q0 -35 -20 -71t-43.5 -62t-68.5 -59.5t-67.5 -48t-68.5 -42.5q38 3 68 3h193l-14 -86h-431z" />
    <glyph glyph-name="three.tosf" 
d="M112 -188q-59 0 -118 16l26 82q39 -13 97 -13q85 0 141.5 36t56.5 102q0 37 -29 61.5t-69 34t-88 8.5l12 77q78 1 144 35.5t66 92.5q0 29 -22 46.5t-61 17.5q-77 0 -146 -51l-47 66q89 74 215 74q80 0 125.5 -38.5t45.5 -96.5q0 -67 -55.5 -114t-121.5 -63v-1
q55 -7 99.5 -48t44.5 -97q0 -106 -91 -166.5t-225 -60.5z" />
    <glyph glyph-name="four.tosf" 
d="M240 -177l33 177h-297l10 67l382 417h98l-74 -401h90l-14 -83h-90l-33 -177h-105zM106 83h182l51 263h-2z" />
    <glyph glyph-name="five.tosf" 
d="M111 -188q-67 0 -103 15l27 82q36 -12 81 -12q82 0 139 39.5t57 108.5q0 47 -32 77.5t-73.5 40.5t-92.5 10q-6 0 -11.5 -0.5t-8.5 -0.5h-4l61 312h325l-15 -83h-226l-31 -152q93 -5 157.5 -57.5t64.5 -136.5q0 -115 -91 -179t-224 -64z" />
    <glyph glyph-name="six.tosf" 
d="M254 -12q-98 0 -150 65.5t-52 177.5q0 87 32.5 167t91.5 142.5t150 100t200 37.5l10 -86q-148 0 -249 -77q-80 -63 -110 -166q60 52 142 52q80 0 128 -45.5t48 -123.5q0 -107 -69.5 -175.5t-171.5 -68.5zM260 71q58 0 93.5 43.5t35.5 109.5q0 45 -25.5 70t-73.5 25
q-73 0 -129 -50q-2 -32 -2 -48q0 -72 26 -111t75 -39z" />
    <glyph glyph-name="seven.tosf" 
d="M94 -197l-82 46l380 546h-320l16 89h444l-10 -63z" />
    <glyph glyph-name="eight.tosf" 
d="M239 -12q-94 0 -148 44t-54 110q0 120 172 203q-94 72 -94 148q0 81 67.5 133t157.5 52q87 0 137.5 -39t50.5 -105q0 -102 -160 -182q115 -72 115 -161q0 -87 -66.5 -145t-177.5 -58zM247 72q53 0 89 31t36 77q0 33 -25.5 60.5t-76.5 59.5q-61 -33 -92.5 -66.5
t-31.5 -80.5q0 -35 27 -58t74 -23zM304 397q57 29 86.5 59t29.5 68q0 32 -23 51.5t-65 19.5q-44 0 -76 -27.5t-32 -68.5q0 -29 20 -52.5t60 -49.5z" />
    <glyph glyph-name="nine.tosf" 
d="M6 -184l-10 85q143 0 241 70q81 60 112 157q-61 -43 -127 -43q-83 0 -130 47.5t-47 124.5q0 106 71.5 173t169.5 67q100 0 148 -59.5t48 -158.5q0 -210 -130 -336.5t-346 -126.5zM248 165q61 0 120 43q6 36 6 73q0 133 -96 133q-52 0 -88.5 -40t-36.5 -106q0 -47 24 -75
t71 -28z" />
    <glyph glyph-name="commaaccent" horiz-adv-x="500" 
d="M160 -224q39 37 39 64q0 12 -11.5 28.5t-11.5 29.5q0 24 18 40.5t44 16.5q23 0 38 -14t15 -37q0 -59 -76 -128h-55z" />
    <glyph glyph-name="f_b" horiz-adv-x="830" 
d="M-44 -230q-44 0 -84 17l30 82q27 -12 60 -12q69 0 89 107l81 440h-89l14 80h89l12 65q17 95 71.5 138.5t153.5 43.5q107 0 187 -34l-40 -215q-12 -66 -29 -125h2q38 66 79 103t99 37t90 -44.5t32 -116.5q0 -150 -81.5 -249t-214.5 -99q-95 0 -165 22l112 622
q-38 11 -81 11q-51 0 -77 -22.5t-36 -77.5l-10 -59h106l-14 -80h-107l-80 -436q-18 -103 -62 -150.5t-137 -47.5zM518 70q77 0 126 71.5t49 179.5q0 84 -49 84q-55 0 -104.5 -84t-74.5 -208l-7 -36q31 -7 60 -7z" />
    <glyph glyph-name="f_f_b" horiz-adv-x="1122" 
d="M-43 -233q-44 0 -84 17l30 82q30 -13 59 -13q70 0 90 108l81 443h-90l14 80h91l8 47q18 100 69 146.5t143 46.5q85 0 146 -43q54 50 160 50q107 0 187 -34l-39 -215q-12 -66 -29 -125h2q37 65 78 102.5t99 37.5q59 0 91 -44.5t32 -116.5q0 -150 -81.5 -249t-214.5 -99
q-95 0 -165 22l111 622q-37 11 -81 11q-51 0 -76.5 -22.5t-35.5 -77.5l-11 -59h106l-14 -80h-107l-79 -436q-18 -100 -61.5 -147t-133.5 -47q-41 0 -81 16l30 82q32 -12 56 -12q66 0 85 104l81 440h-187l-80 -439q-18 -103 -62 -150.5t-137 -47.5zM809 70q78 0 127 71.5
t49 179.5q0 84 -50 84q-55 0 -104 -84t-74 -208l-7 -36q32 -7 59 -7zM251 484h186l12 65q5 27 16 56q-38 31 -98 31q-49 0 -73 -24.5t-35 -83.5z" />
    <glyph glyph-name="f_f_h" horiz-adv-x="1129" 
d="M-43 -233q-44 0 -84 17l30 82q30 -13 59 -13q70 0 90 108l81 443h-90l14 80h91l8 47q18 100 69 146.5t143 46.5q85 0 146 -43q54 50 160 50q107 0 187 -34l-39 -212q-12 -65 -27 -127h2q16 27 29.5 45.5t37 43t53.5 37.5t65 13q51 0 78 -31t27 -88q0 -27 -6 -57l-58 -321
h-104l56 314q4 19 4 37q0 53 -42 53q-55 0 -108 -86.5t-86 -270.5l-9 -47h-104l115 632q-37 11 -81 11q-51 0 -76.5 -22.5t-35.5 -77.5l-11 -59h106l-14 -80h-107l-79 -436q-18 -100 -61.5 -147t-133.5 -47q-41 0 -81 16l30 82q32 -12 56 -12q66 0 85 104l81 440h-187
l-80 -439q-18 -103 -62 -150.5t-137 -47.5zM251 484h186l12 65q5 27 16 56q-38 31 -98 31q-49 0 -73 -24.5t-35 -83.5z" />
    <glyph glyph-name="f_f_j" horiz-adv-x="840" 
d="M-43 -233q-44 0 -84 17l30 82q30 -13 59 -13q70 0 90 108l81 443h-90l14 80h91l8 47q18 100 69 146.5t143 46.5q88 0 148 -44q55 51 155 51q89 0 148 -37l-45 -80q-47 29 -103 29q-53 0 -81.5 -24t-38.5 -82l-10 -53h275l-92 -516q-17 -95 -61 -146.5t-134 -51.5
q-44 0 -77 14l34 84q16 -9 42 -9q41 0 61 28t31 89l78 428h-172l-79 -436q-19 -103 -62.5 -150.5t-136.5 -47.5q-43 0 -81 17l30 82q26 -12 57 -12q70 0 88 107l81 440h-187l-80 -439q-18 -103 -62 -150.5t-137 -47.5zM251 484h187l10 57q5 28 18 64q-40 31 -99 31
q-49 0 -73 -24.5t-35 -83.5z" />
    <glyph glyph-name="f_f_k" horiz-adv-x="1080" 
d="M918 0l-135 262l-47 -262h-103l112 632q-37 11 -81 11q-51 0 -76.5 -22.5t-35.5 -77.5l-11 -59h106l-14 -80h-107l-79 -436q-18 -100 -61.5 -147t-133.5 -47q-41 0 -81 16l30 82q32 -12 56 -12q66 0 85 104l81 440h-187l-80 -439q-18 -103 -62 -150.5t-137 -47.5
q-44 0 -84 17l30 82q30 -13 59 -13q70 0 90 108l81 443h-90l14 80h91l8 47q18 100 69 146.5t143 46.5q85 0 146 -43q54 50 160 50q107 0 187 -34l-76 -420l202 207h122l-219 -218l139 -266h-111zM251 484h186l12 65q5 27 16 56q-38 31 -98 31q-49 0 -73 -24.5t-35 -83.5z
" />
    <glyph glyph-name="f_h" horiz-adv-x="838" 
d="M-44 -230q-44 0 -84 17l30 82q27 -12 60 -12q69 0 89 107l81 440h-89l14 80h89l12 65q17 95 71.5 138.5t153.5 43.5q107 0 187 -34l-39 -212q-16 -84 -27 -127h2q15 26 29 45.5t37 43.5t53.5 37t65.5 13q51 0 77.5 -31.5t26.5 -89.5q0 -30 -5 -55l-59 -321h-103l55 314
q4 20 4 38q0 52 -42 52q-54 0 -107.5 -87t-86.5 -270l-8 -47h-104l115 632q-37 11 -81 11q-51 0 -77 -22.5t-36 -77.5l-10 -59h106l-14 -80h-107l-80 -436q-18 -103 -62 -150.5t-137 -47.5z" />
    <glyph glyph-name="f_j" horiz-adv-x="552" 
d="M-42 -230q-43 0 -85 17l31 82q27 -12 59 -12q71 0 89 107l81 440h-89l14 80h89l11 57q35 190 223 190q89 0 148 -37l-45 -80q-47 29 -103 29q-53 0 -81.5 -24t-38.5 -82l-10 -53h277l-91 -516q-17 -94 -61.5 -146t-134.5 -52q-44 0 -77 14l34 84q16 -9 42 -9
q41 0 61.5 28.5t30.5 88.5l77 428h-173l-79 -436q-19 -103 -62.5 -150.5t-136.5 -47.5z" />
    <glyph glyph-name="f_k" horiz-adv-x="789" 
d="M627 0l-135 262l-47 -262h-104l113 632q-38 11 -81 11q-51 0 -77 -22.5t-36 -77.5l-10 -59h106l-14 -80h-107l-80 -436q-18 -103 -62 -150.5t-137 -47.5q-44 0 -84 17l30 82q27 -12 60 -12q69 0 89 107l81 440h-89l14 80h89l12 65q17 95 71.5 138.5t153.5 43.5
q107 0 187 -34l-76 -420l202 207h122l-219 -218l138 -266h-110z" />
    <glyph glyph-name="f_k.ss01" horiz-adv-x="813" 
d="M-44 -230q-44 0 -84 17l30 82q27 -12 60 -12q69 0 89 107l81 440h-89l14 80h89l12 65q17 95 71.5 138.5t153.5 43.5q107 0 187 -34l-35 -188q-6 -42 -28 -121h3q72 109 164 109q52 0 84 -32.5t32 -82.5q0 -130 -165 -186l130 -196h-116l-150 226q82 8 140 41t58 91
q0 51 -53 51q-51 0 -96.5 -69t-62.5 -165l-30 -175h-105l114 632q-38 11 -81 11q-51 0 -77 -22.5t-36 -77.5l-10 -59h106l-14 -80h-107l-80 -436q-18 -103 -62 -150.5t-137 -47.5z" />
    <glyph glyph-name="f_f_k.ss01" horiz-adv-x="1104" 
d="M-43 -233q-44 0 -84 17l30 82q30 -13 59 -13q70 0 90 108l81 443h-90l14 80h91l8 47q18 100 69 146.5t143 46.5q85 0 146 -43q54 50 160 50q107 0 187 -34l-34 -188q-7 -36 -28 -121h2q74 109 165 109q52 0 84 -32.5t32 -82.5q0 -130 -166 -186l131 -196h-117l-149 226
q82 8 139.5 41t57.5 91q0 51 -53 51q-51 0 -96.5 -69t-61.5 -165l-30 -175h-106l114 632q-37 11 -81 11q-51 0 -76.5 -22.5t-35.5 -77.5l-11 -59h106l-14 -80h-107l-79 -436q-18 -100 -61.5 -147t-133.5 -47q-41 0 -81 16l30 82q32 -12 56 -12q66 0 85 104l81 440h-187
l-80 -439q-18 -103 -62 -150.5t-137 -47.5zM251 484h186l12 65q5 27 16 56q-38 31 -98 31q-49 0 -73 -24.5t-35 -83.5z" />
    </font>
</defs>
</svg>
