<?xml version="1.0" standalone="no"?>
<!DOCTYPE svg PUBLIC "-//W3C//DTD SVG 1.1//EN" "http://www.w3.org/Graphics/SVG/1.1/DTD/svg11.dtd" >
<svg>
<metadata>
Created by FontForge 20120731 at Fri Jan 15 01:18:19 2016
 By ,,,
Copyright (c) 2013 by FontFont. All rights reserved.
</metadata>
<defs>
<font id="FFKievitSlab-LightItalic" horiz-adv-x="512" >
  <font-face 
    font-family="FF Kievit Slab"
    font-weight="300"
    font-style="italic"
    font-stretch="normal"
    units-per-em="1000"
    panose-1="2 0 5 3 2 0 0 2 0 4"
    ascent="760"
    descent="-240"
    x-height="477"
    cap-height="666"
    bbox="-322 -250 1005 930"
    underline-thickness="40"
    underline-position="-95"
    slope="-10"
    unicode-range="U+0020-FEFF"
  />
<missing-glyph horiz-adv-x="545" 
d="M59 0v666h427v-666h-427zM103 44h339v578h-339v-578z" />
    <glyph glyph-name=".notdef" horiz-adv-x="545" 
d="M59 0v666h427v-666h-427zM103 44h339v578h-339v-578z" />
    <glyph glyph-name=".null" horiz-adv-x="0" 
 />
    <glyph glyph-name="nonmarkingreturn" horiz-adv-x="333" 
 />
    <glyph glyph-name="space" unicode=" " horiz-adv-x="229" 
 />
    <glyph glyph-name="exclam" unicode="!" horiz-adv-x="245" 
d="M87 -9q-17 0 -29.5 13t-12.5 30q0 18 13 31.5t33 13.5q17 0 29 -12t12 -29q0 -19 -13 -33t-32 -14zM91 181l74 485h62l-97 -485h-39z" />
    <glyph glyph-name="quotedbl" unicode="&#x22;" horiz-adv-x="305" 
d="M116 452l25 214h67l-53 -214h-39zM228 452l25 214h67l-53 -214h-39z" />
    <glyph glyph-name="numbersign" unicode="#" horiz-adv-x="561" 
d="M106 0l58 229h-133l11 42h133l38 146h-133l12 41h132l53 208h42l-53 -208h129l53 208h42l-54 -208h135l-12 -41h-133l-38 -146h133l-12 -42h-132l-58 -229h-42l58 229h-129l-58 -229h-42zM217 271h129l38 146h-129z" />
    <glyph glyph-name="dollar" unicode="$" horiz-adv-x="474" 
d="M149 -120l20 110q-105 7 -159 63l21 121h44q0 -36 -12 -102q49 -39 129 -39q75 0 119 38t44 96q0 35 -19 64.5t-39 45t-58 39.5q-35 21 -52.5 33.5t-41 35.5t-33.5 50t-10 61q0 77 53.5 125.5t131.5 54.5l19 108h43l-20 -107q95 -8 135 -45l-22 -125h-44q0 29 11 102
q-43 24 -107 24q-58 0 -102 -34.5t-44 -91.5q0 -48 30.5 -81t85.5 -67q3 -2 20 -13t21 -14t18.5 -13.5t19 -15t16 -15t15 -17.5t11 -19t10 -22.5t5 -24t2.5 -27.5q0 -78 -54.5 -130t-144.5 -58l-19 -110h-43z" />
    <glyph glyph-name="percent" unicode="%" horiz-adv-x="790" 
d="M225 385q57 0 97 42.5t40 100.5q0 46 -27 76t-74 30q-58 0 -97.5 -42t-39.5 -101q0 -46 27 -76t74 -30zM221 345q-65 0 -104.5 43t-39.5 97q0 77 52 133t136 56q65 0 104.5 -43t39.5 -97q0 -77 -52 -133t-136 -56zM115 0l540 666h53l-541 -666h-52zM562 34
q58 0 97.5 41.5t39.5 101.5q0 46 -27 75.5t-74 29.5q-59 0 -98 -41.5t-39 -100.5q0 -46 27 -76t74 -30zM558 -7q-65 0 -104.5 43.5t-39.5 97.5q0 76 52 132.5t136 56.5q65 0 104.5 -43t39.5 -97q0 -77 -52.5 -133.5t-135.5 -56.5z" />
    <glyph glyph-name="ampersand" unicode="&#x26;" horiz-adv-x="676" 
d="M551 -90q-46 0 -82.5 28t-97.5 96q-88 -45 -169 -45q-76 0 -119 50t-43 126q0 128 74 225.5t177 97.5q48 0 79 -25.5t31 -71.5q0 -52 -48.5 -94t-105.5 -58l133 -150q51 32 91 74q63 63 101 145.5t38 156.5q0 90 -52 138.5t-156 66.5l11 43q118 -18 183 -78.5t65 -166.5
q0 -80 -43.5 -171t-115.5 -163q-40 -42 -94 -77q52 -60 82 -82.5t64 -22.5q30 0 66 22l18 -36q-41 -28 -87 -28zM210 35q69 0 133 34l-147 163l11 33q64 15 104 50t40 72q0 26 -18.5 41.5t-50.5 15.5q-78 0 -134.5 -85t-56.5 -188q0 -65 30.5 -100.5t88.5 -35.5z" />
    <glyph glyph-name="quotesingle" unicode="'" horiz-adv-x="186" 
d="M112 452l25 214h67l-53 -214h-39z" />
    <glyph glyph-name="parenleft" unicode="(" horiz-adv-x="288" 
d="M210 -181h-47q-113 151 -113 339q0 94 24.5 184t65 161t85.5 124.5t93 92.5h50q-107 -88 -186.5 -236.5t-79.5 -324.5q0 -186 108 -340z" />
    <glyph glyph-name="parenright" unicode=")" horiz-adv-x="291" 
d="M-19 -181h-51q113 96 192 246t79 321q0 101 -32 188t-77 146h48q44 -57 78.5 -145t34.5 -188q0 -94 -25.5 -186t-67.5 -164t-87 -126t-92 -92z" />
    <glyph glyph-name="asterisk" unicode="*" horiz-adv-x="429" 
d="M146 345l-33 26l109 117l-131 40l19 41l129 -48l22 145h48l-29 -146l142 49l8 -43l-148 -40l71 -121l-38 -20l-64 122z" />
    <glyph glyph-name="plus" unicode="+" horiz-adv-x="577" 
d="M225 42l36 203h-188l8 44h188l34 193h48l-34 -193h189l-8 -44h-188l-37 -203h-48z" />
    <glyph glyph-name="comma" unicode="," horiz-adv-x="193" 
d="M63 83q19 0 32 -12.5t13 -34.5q0 -46 -31 -91t-65 -71l-22 19q50 52 50 86q0 12 -10 28.5t-10 30.5q0 20 12.5 32.5t30.5 12.5z" />
    <glyph glyph-name="hyphen" unicode="-" horiz-adv-x="299" 
d="M57 266l8 46h192l-8 -46h-192z" />
    <glyph glyph-name="period" unicode="." horiz-adv-x="189" 
d="M59 -9q-18 0 -31 13t-13 31q0 20 13.5 33.5t33.5 13.5q17 0 29.5 -13t12.5 -30q0 -20 -13.5 -34t-31.5 -14z" />
    <glyph glyph-name="slash" unicode="/" horiz-adv-x="385" 
d="M12 0l354 666h49l-354 -666h-49z" />
    <glyph glyph-name="zero" unicode="0" 
d="M220 -11q-59 0 -99 37.5t-56 93t-16 125.5q0 73 16.5 146.5t48.5 139t86.5 106t122.5 40.5q86 0 128.5 -72t42.5 -178q0 -77 -17 -152.5t-49 -140.5t-86 -105t-122 -40zM224 34q66 0 116.5 61t74.5 148t24 180q0 92 -30.5 150.5t-91.5 58.5q-65 0 -115.5 -62t-74.5 -148
t-24 -173q0 -96 30.5 -155.5t90.5 -59.5z" />
    <glyph glyph-name="one" unicode="1" 
d="M51 0l7 39q38 7 161 7l100 570l-166 -54l-11 43l192 61h46l-110 -620q24 0 39 -1l47 -1q52 0 74 -5l-7 -39h-372z" />
    <glyph glyph-name="two" unicode="2" 
d="M2 0l5 30q199 175 255 232q141 143 154 243q1 12 1 23q0 48 -29 75.5t-80 27.5q-86 0 -162 -64l-27 32q85 78 195 78q74 0 117 -38.5t43 -102.5q0 -55 -26 -111t-87 -122t-103.5 -105.5t-132.5 -117.5q-26 -23 -39 -34q14 1 36 1h250q8 54 23 92h43l-25 -139h-411z" />
    <glyph glyph-name="three" unicode="3" 
d="M147 -11q-78 0 -117 16l13 44q45 -14 108 -14q100 0 161 44.5t61 126.5q0 64 -61.5 99t-149.5 33l6 40q58 4 111.5 22.5t93 56.5t39.5 87q0 39 -30.5 62t-79.5 23q-81 0 -159 -56l-24 32q83 72 191 72q72 0 114.5 -36t42.5 -91q0 -49 -32.5 -89.5t-74 -63t-87.5 -34.5v-1
q57 -7 106 -50t49 -103q0 -107 -80 -163.5t-201 -56.5z" />
    <glyph glyph-name="four" unicode="4" 
d="M290 0l29 159h-307l7 43l387 464h52l-82 -459h91l-8 -48h-91l-28 -159h-50zM391 582l-314 -377q2 0 23 1t33 1h193l66 375h-1z" />
    <glyph glyph-name="five" unicode="5" 
d="M122 -11q-48 0 -81 10l12 45q33 -9 77 -9q108 0 178 54t70 150q0 66 -54.5 98.5t-139.5 32.5q-38 0 -60 -2l59 298h304l-8 -47h-256l-39 -203h19q99 0 164.5 -46t65.5 -125q0 -122 -88 -189t-223 -67z" />
    <glyph glyph-name="six" unicode="6" 
d="M235 -11q-63 0 -105 35t-58.5 84.5t-16.5 109.5q0 196 126.5 328t314.5 132l7 -43q-169 0 -276 -112q-80 -80 -105 -193q28 30 71.5 50t90.5 20q81 0 128.5 -46.5t47.5 -120.5q0 -103 -63.5 -173.5t-161.5 -70.5zM239 34q77 0 121.5 57.5t44.5 139.5q0 58 -33.5 91
t-95.5 33q-80 0 -163 -69q-4 -31 -4 -70q0 -80 32 -131t98 -51z" />
    <glyph glyph-name="seven" unicode="7" 
d="M134 -26l-43 21l372 624h-290q-9 -56 -24 -103h-39l26 150h392l-7 -40z" />
    <glyph glyph-name="eight" unicode="8" 
d="M218 -11q-77 0 -124.5 42t-47.5 104q0 69 48.5 118t137.5 96q-107 76 -107 153q0 76 59.5 125.5t142.5 49.5q73 0 116.5 -36t43.5 -94q0 -64 -45 -109.5t-126 -88.5q59 -40 92 -79t33 -86q0 -83 -63 -139t-160 -56zM225 35q66 0 114 42.5t48 100.5q0 40 -29.5 72
t-91.5 74q-84 -46 -125 -86.5t-41 -97.5q0 -46 34.5 -75.5t90.5 -29.5zM322 631q-59 0 -101.5 -36t-42.5 -89q0 -37 26 -66.5t77 -64.5q76 40 114.5 77.5t38.5 87.5q0 41 -29.5 66t-82.5 25z" />
    <glyph glyph-name="nine" unicode="9" 
d="M49 -14l-5 42q138 0 240 77q110 85 141 232q-70 -70 -165 -70q-79 0 -127 46.5t-48 120.5q0 102 65.5 173t161.5 71q91 0 134 -66.5t43 -158.5q0 -204 -121.5 -335.5t-318.5 -131.5zM268 312q83 0 164 69q5 38 5 72q0 78 -32.5 129t-97.5 51q-74 0 -121 -58.5t-47 -138.5
q0 -58 33.5 -91t95.5 -33z" />
    <glyph glyph-name="colon" unicode=":" horiz-adv-x="189" 
d="M59 -9q-18 0 -31 13t-13 31q0 20 13.5 33.5t33.5 13.5q17 0 29.5 -13t12.5 -30q0 -20 -13.5 -34t-31.5 -14zM130 393q-18 0 -31 13t-13 31q0 19 13.5 33t33.5 14q17 0 29.5 -13t12.5 -31q0 -19 -13 -33t-32 -14z" />
    <glyph glyph-name="semicolon" unicode=";" horiz-adv-x="194" 
d="M63 83q19 0 32 -12.5t13 -34.5q0 -46 -31 -91t-65 -71l-22 19q50 52 50 86q0 12 -10 28.5t-10 30.5q0 20 12.5 32.5t30.5 12.5zM131 393q-18 0 -30.5 13t-12.5 31q0 19 13.5 33t33.5 14q17 0 29.5 -13t12.5 -31q0 -19 -13.5 -33t-32.5 -14z" />
    <glyph glyph-name="less" unicode="&#x3c;" horiz-adv-x="370" 
d="M244 30l-207 216l280 215l27 -35l-241 -184l173 -182z" />
    <glyph glyph-name="equal" unicode="=" horiz-adv-x="495" 
d="M40 167l8 45h385l-8 -45h-385zM68 321l8 46h385l-8 -46h-385z" />
    <glyph glyph-name="greater" unicode="&#x3e;" horiz-adv-x="370" 
d="M53 30l-26 35l240 184l-173 182l32 30l207 -216z" />
    <glyph glyph-name="question" unicode="?" horiz-adv-x="385" 
d="M147 177h-41q-1 24 2 60q5 49 31 81t79 63q56 33 85.5 67.5t29.5 89.5q0 45 -29.5 69t-84.5 24q-44 0 -86 -20l-14 42q46 24 108 24q76 0 118.5 -37t42.5 -96q0 -70 -39.5 -116t-105.5 -84q-87 -49 -93 -112q-3 -27 -3 -55zM108 -9q-17 0 -29.5 13t-12.5 30q0 18 13 31.5
t33 13.5q17 0 29 -12t12 -29q0 -19 -13 -33t-32 -14z" />
    <glyph glyph-name="at" unicode="@" horiz-adv-x="730" 
d="M362 -86q-146 0 -233.5 94t-87.5 232q0 153 103.5 263t252.5 110q142 0 227.5 -88.5t85.5 -206.5q0 -91 -48 -162.5t-119 -71.5q-46 0 -71.5 31.5t-25.5 83.5q0 11 2 25h-2q-22 -57 -59.5 -98.5t-87.5 -41.5q-42 0 -65 34t-23 80q0 102 57.5 183t150.5 81q50 0 106 -23
l-26 -125q-13 -65 -13 -105q0 -36 16.5 -59.5t43.5 -23.5q51 0 86 57.5t35 129.5q0 114 -75.5 186.5t-194.5 72.5q-122 0 -215 -97.5t-93 -232.5q0 -124 75.5 -205t204.5 -81q94 0 152 30l17 -37q-72 -35 -176 -35zM310 129q96 0 161 264l4 18q-26 13 -61 13q-63 0 -107 -67
t-44 -152q0 -29 11.5 -52.5t35.5 -23.5z" />
    <glyph glyph-name="A" unicode="A" horiz-adv-x="651" 
d="M-41 0l6 36q18 4 66 6l344 624h54l111 -624q41 0 71 -6l-6 -36h-199l6 36q30 6 73 6l-27 160h-287l-87 -160q44 0 74 -6l-6 -36h-193zM196 247h254l-41 237l-19 120h-1q-10 -19 -33.5 -65t-29.5 -56z" />
    <glyph glyph-name="B" unicode="B" horiz-adv-x="566" 
d="M-3 0l6 36q30 6 83 6l105 582q-49 0 -81 6l7 36h229q90 0 140 -36t50 -102q0 -73 -40 -117.5t-111 -59.5v-1q55 -12 89.5 -48.5t34.5 -89.5q0 -107 -73.5 -159.5t-202.5 -52.5h-236zM141 44h96q217 0 217 165q0 56 -42 88t-121 32h-100zM199 372h94q92 0 139.5 38
t47.5 110q0 102 -144 102h-92z" />
    <glyph glyph-name="C" unicode="C" horiz-adv-x="637" 
d="M335 -11q-131 0 -204 79.5t-73 199.5q0 172 114.5 290.5t279.5 118.5q120 0 179 -42l-23 -130h-43q0 28 11 103q-49 24 -132 24q-144 0 -237 -104.5t-93 -254.5q0 -104 58.5 -171.5t167.5 -67.5q99 0 167 39q12 75 25 106h42l-22 -129q-33 -28 -96.5 -44.5t-120.5 -16.5z
" />
    <glyph glyph-name="D" unicode="D" horiz-adv-x="672" 
d="M-3 0l6 36q30 6 83 6l105 582q-49 0 -81 6l7 36h218q152 0 235.5 -69.5t83.5 -190.5q0 -177 -114 -291.5t-308 -114.5h-235zM141 44h100q160 0 258 99t98 257q0 110 -68.5 166t-200.5 56h-83z" />
    <glyph glyph-name="E" unicode="E" horiz-adv-x="527" 
d="M-3 0l6 36q30 6 83 6l105 582q-49 0 -81 6l7 36h427l-25 -145h-44q0 37 10 101h-241l-46 -257h178q16 62 19 70h38l-33 -186h-38q0 26 7 73h-178l-50 -278h246q10 62 25 97h43l-26 -141h-432z" />
    <glyph glyph-name="F" unicode="F" horiz-adv-x="509" 
d="M-3 0l6 36q30 6 83 6l105 582q-49 0 -81 6l7 36h427l-25 -145h-44q0 37 10 101h-241l-50 -275h179q10 51 18 70h38l-33 -186h-38q0 29 7 73h-178l-47 -262q51 0 81 -6l-6 -36h-218z" />
    <glyph glyph-name="G" unicode="G" horiz-adv-x="705" 
d="M353 -11q-142 0 -218.5 77.5t-76.5 202.5q0 170 113 289t277 119q62 0 117.5 -16t83.5 -37l-23 -129h-43q0 27 11 104q-64 33 -154 33q-141 0 -233.5 -104.5t-92.5 -254.5q0 -110 61 -174.5t181 -64.5q113 0 175 52l30 165q-59 2 -78 7l6 35h204l-6 -36q-18 -4 -73 -6
l-35 -192q-83 -70 -226 -70z" />
    <glyph glyph-name="H" unicode="H" horiz-adv-x="740" 
d="M-3 0l6 36q30 6 83 6l104 582q-50 0 -80 6l6 36h218l-6 -36q-30 -6 -84 -6l-44 -250h389l45 250q-49 0 -81 6l7 36h217l-6 -36q-30 -6 -83 -6l-105 -582q51 0 81 -6l-6 -36h-218l6 36q30 6 83 6l52 288h-389l-52 -288q51 0 81 -6l-6 -36h-218z" />
    <glyph glyph-name="I" unicode="I" horiz-adv-x="298" 
d="M-3 0l6 36q30 6 83 6l105 582q-49 0 -81 6l7 36h218l-7 -36q-30 -6 -83 -6l-105 -582q51 0 81 -6l-6 -36h-218z" />
    <glyph glyph-name="J" unicode="J" horiz-adv-x="273" 
d="M-42 -185q-28 0 -47 8l19 47q10 -6 33 -6q80 0 102 127l113 633q-49 0 -81 6l7 36h218l-7 -36q-30 -6 -83 -6l-116 -643q-29 -166 -158 -166z" />
    <glyph glyph-name="K" unicode="K" horiz-adv-x="607" 
d="M347 0l5 36q30 6 74 6l-218 306l294 276q-54 2 -71 6l6 36h206l-6 -36q-18 -4 -70 -6l-298 -277l222 -305q55 -2 75 -6l-6 -36h-213zM-3 0l6 36q30 6 83 6l105 582q-49 0 -81 6l7 36h218l-7 -36q-30 -6 -83 -6l-105 -582q51 0 81 -6l-6 -36h-218z" />
    <glyph glyph-name="L" unicode="L" horiz-adv-x="480" 
d="M-3 0l6 36q30 6 83 6l105 582q-51 0 -81 6l6 36h219l-7 -36q-30 -6 -84 -6l-103 -580h225q8 57 25 104h41l-25 -148h-410z" />
    <glyph glyph-name="M" unicode="M" horiz-adv-x="876" 
d="M-23 0l6 36q30 6 75 6l180 583q-46 0 -81 7l7 34h140l86 -520l12 -86h1q6 12 23.5 45.5t20.5 40.5l274 520h136l-6 -34q-35 -7 -81 -7l-30 -583q47 0 77 -6l-5 -36h-214l6 36q45 6 85 6l23 436q0 62 7 92h-2q-3 -8 -21 -41.5t-21 -40.5l-258 -488h-55l-95 570h-1
q-4 -26 -28 -97l-130 -431q51 0 81 -6l-6 -36h-206z" />
    <glyph glyph-name="N" unicode="N" horiz-adv-x="710" 
d="M-3 0l6 36q30 6 83 6l105 582q-50 0 -80 6l6 36h131l238 -499q3 -7 19.5 -45t19.5 -45h2q0 9 6.5 49.5t10.5 55.5l78 442q-50 0 -80 6l6 36h211l-6 -36q-30 -6 -84 -6l-111 -624h-47l-241 503q-31 61 -38 88h-1l-16 -97l-82 -452q51 0 81 -6l-6 -36h-211z" />
    <glyph glyph-name="O" unicode="O" horiz-adv-x="713" 
d="M328 -11q-124 0 -197 83t-73 201q0 104 43.5 195.5t127 150t188.5 58.5q127 0 199 -83t72 -202q0 -161 -100.5 -282t-259.5 -121zM333 34q131 0 215 107t84 248q0 102 -58.5 172.5t-161.5 70.5q-131 0 -215 -107t-84 -249q0 -102 59.5 -172t160.5 -70z" />
    <glyph glyph-name="P" unicode="P" horiz-adv-x="528" 
d="M-3 0l6 36q30 6 83 6l105 582q-50 0 -80 6l6 36h220q94 0 146.5 -42.5t52.5 -115.5q0 -104 -72.5 -164t-194.5 -60h-84l-45 -242q51 0 81 -6l-6 -36h-218zM192 328h82q99 0 152.5 47t53.5 125q0 56 -37.5 89t-115.5 33h-82z" />
    <glyph glyph-name="Q" unicode="Q" horiz-adv-x="713" 
d="M492 -157q-152 0 -245 157q-89 26 -139 101.5t-50 171.5q0 104 43.5 195.5t127 150t188.5 58.5q127 0 199 -83t72 -202q0 -161 -100.5 -282t-259.5 -121h-9q66 -101 178 -101q73 0 126 39l19 -41q-63 -43 -150 -43zM333 35q88 0 157.5 51.5t105.5 131.5t36 171
q0 102 -58.5 172t-161.5 70q-132 0 -215.5 -106.5t-83.5 -248.5q0 -101 60 -171t160 -70z" />
    <glyph glyph-name="R" unicode="R" horiz-adv-x="585" 
d="M502 -8q-34 0 -54.5 13.5t-35.5 42.5l-96 182q-31 57 -50.5 75t-51.5 18h-23l-51 -281q51 0 81 -6l-6 -36h-218l6 36q30 6 83 6l105 582q-50 0 -80 6l6 36h229q89 0 139 -38t50 -104q0 -90 -65 -143t-170 -55v-1q31 -11 63 -73l95 -176q12 -23 28 -32.5t42 -9.5
q14 0 23 3l-5 -37q-18 -8 -44 -8zM198 365h95q89 0 138 42t49 112q0 49 -37 76t-108 27h-90z" />
    <glyph glyph-name="S" unicode="S" horiz-adv-x="459" 
d="M190 -11q-120 0 -180 64l23 127h42q0 -38 -11 -108q48 -39 130 -39q73 0 117 39.5t44 94.5q0 47 -28.5 80t-87.5 70q-67 40 -102 79.5t-35 103.5q0 78 61 127.5t145 49.5q49 0 91.5 -13t64.5 -32l-23 -131h-43q0 38 11 108q-46 24 -104 24q-59 0 -104 -33t-45 -88
q0 -48 28.5 -81t88.5 -70q35 -22 53 -35t41 -36t33 -50t10 -62q0 -80 -61 -134.5t-159 -54.5z" />
    <glyph glyph-name="T" unicode="T" horiz-adv-x="557" 
d="M127 0l5 36q32 6 84 6l104 580h-174q-8 -48 -25 -104h-44l26 148h505l-26 -148h-43q0 40 10 104h-175l-104 -580q50 0 80 -6l-5 -36h-218z" />
    <glyph glyph-name="U" unicode="U" horiz-adv-x="703" 
d="M316 -11q-105 0 -156.5 52.5t-51.5 143.5q0 32 6 65l67 374q-49 0 -81 6l7 36h217l-6 -36q-30 -6 -83 -6l-66 -368q-19 -107 16 -164t136 -57q187 0 226 219l66 370q-51 0 -81 6l6 36h211l-6 -36q-30 -6 -83 -6l-68 -378q-23 -126 -88 -191.5t-188 -65.5z" />
    <glyph glyph-name="V" unicode="V" horiz-adv-x="650" 
d="M263 0l-120 624q-49 0 -79 6l6 36h212l-6 -36q-30 -6 -79 -6l86 -458q3 -13 10 -55.5t8 -48.5h1q1 2 21.5 45.5t28.5 57.5l243 459q-50 0 -80 6l6 36h208l-6 -36q-26 -6 -73 -6l-332 -624h-55z" />
    <glyph glyph-name="W" unicode="W" horiz-adv-x="933" 
d="M208 0l-56 624q-48 0 -78 6l6 36h215l-6 -36q-32 -6 -84 -6l35 -410q10 -100 10 -132h1q2 5 58 131l208 453h57l56 -467q1 -9 4.5 -36.5t5.5 -49t2 -30.5h1q6 17 49 118l183 423q-52 0 -82 6l6 36h206l-6 -36q-17 -4 -71 -6l-276 -624h-50l-56 463q-2 14 -5 40.5
t-5.5 54.5t-3.5 37h-1q-35 -86 -58 -132l-215 -463h-50z" />
    <glyph glyph-name="X" unicode="X" horiz-adv-x="612" 
d="M-26 0l6 36q30 6 75 6l237 306l-122 276q-45 0 -75 6l6 36h213l-7 -36q-20 -4 -80 -6l102 -238l179 238q-60 2 -80 6l6 36h212l-6 -36q-30 -6 -73 -6l-216 -280l133 -302q46 0 76 -6l-6 -36h-213l5 36q19 4 81 6l-114 264l-200 -264q59 -2 79 -6l-6 -36h-212z" />
    <glyph glyph-name="Y" unicode="Y" horiz-adv-x="600" 
d="M151 0l6 36q32 6 84 6l38 209l-130 373q-50 0 -80 6l6 36h217l-7 -36q-19 -4 -77 -6l107 -322l220 322q-56 2 -76 6l6 36h213l-7 -36q-30 -6 -78 -6l-260 -373l-38 -209q50 0 80 -6l-6 -36h-218z" />
    <glyph glyph-name="Z" unicode="Z" horiz-adv-x="542" 
d="M-4 0l8 42l473 578h-300q-8 -55 -24 -102h-45l26 148h421l-7 -37l-479 -583h339q10 63 25 103h44l-27 -149h-454z" />
    <glyph glyph-name="bracketleft" unicode="[" horiz-adv-x="292" 
d="M14 -161l156 881h181l-7 -42h-132l-141 -797h132l-8 -42h-181z" />
    <glyph glyph-name="backslash" unicode="\" horiz-adv-x="368" 
d="M256 -161l-160 881h45l161 -881h-46z" />
    <glyph glyph-name="bracketright" unicode="]" horiz-adv-x="292" 
d="M-45 -161l8 42h130l142 797h-132l8 42h181l-156 -881h-181z" />
    <glyph glyph-name="underscore" unicode="_" horiz-adv-x="376" 
d="M-71 -150l8 44h379l-8 -44h-379z" />
    <glyph glyph-name="grave" unicode="`" horiz-adv-x="500" 
d="M281 540l-105 122h72l76 -122h-43z" />
    <glyph glyph-name="a" unicode="a" horiz-adv-x="493" 
d="M145 -11q-53 0 -81 37.5t-28 102.5q0 91 29 170.5t93.5 134t153.5 54.5q72 0 123 -15l-47 -260q-1 -4 -28 -171q51 0 81 -6l-6 -36h-131q23 133 36 183h-2q-81 -194 -193 -194zM156 33q49 0 96 58.5t76 134.5t40 147l10 65q-34 8 -78 8q-66 0 -116 -47t-73.5 -116
t-23.5 -145q0 -105 69 -105z" />
    <glyph glyph-name="b" unicode="b" horiz-adv-x="488" 
d="M179 -11q-62 0 -128 15l121 675q-41 4 -82 4l7 36q46 6 137 6l-13 -58l-35 -191q-19 -102 -39 -182h2q81 194 196 194q53 0 80 -39.5t27 -104.5q0 -66 -18 -128.5t-51 -113.5t-86 -82t-118 -31zM186 32q67 0 117 46.5t74 114.5t24 144q0 107 -67 107q-51 0 -98.5 -60.5
t-74.5 -134.5t-41 -146l-12 -63q34 -8 78 -8z" />
    <glyph glyph-name="c" unicode="c" horiz-adv-x="414" 
d="M183 -11q-71 0 -109.5 50t-38.5 135q0 127 74 220.5t177 93.5q69 0 108 -32l-20 -114h-41q0 30 10 92q-25 12 -63 12q-78 0 -135.5 -80t-57.5 -186q0 -71 25.5 -109.5t76.5 -38.5q70 0 126 61l28 -33q-71 -71 -160 -71z" />
    <glyph glyph-name="d" unicode="d" horiz-adv-x="503" 
d="M145 -11q-54 0 -81.5 39.5t-27.5 104.5q0 91 31.5 170.5t96 132t149.5 52.5q31 0 78 -7l36 198q-41 4 -82 4l6 36q46 6 137 6l-13 -60l-82 -452q-1 -5 -28 -171q51 0 81 -6l-7 -36h-130q15 105 35 182h-2q-15 -35 -32.5 -66t-42.5 -61t-56.5 -48t-65.5 -18zM154 33
q39 0 76.5 34t65 86.5t47 109.5t29.5 110l11 64q-38 9 -82 9q-65 0 -115.5 -47t-74.5 -115t-24 -142q0 -109 67 -109z" />
    <glyph glyph-name="e" unicode="e" horiz-adv-x="422" 
d="M182 -11q-73 0 -110 50.5t-37 127.5q0 129 72.5 225t177.5 96q51 0 83.5 -26.5t32.5 -75.5q0 -146 -314 -188v-24q0 -142 102 -142q72 0 130 62l28 -33q-72 -72 -165 -72zM276 446q-65 0 -116 -61t-67 -148q113 16 184 52t71 93q0 29 -19 46.5t-53 17.5z" />
    <glyph glyph-name="f" unicode="f" horiz-adv-x="294" 
d="M-56 -229q-49 0 -82 19l17 41q34 -16 70 -16q44 0 68 33t36 99l88 488h-91l8 42h90l15 82q32 172 176 172q62 0 112 -31l-23 -42q-40 26 -94 26q-53 0 -81 -33t-41 -100l-13 -74h124l-8 -42h-124l-87 -489q-16 -91 -53 -133t-107 -42z" />
    <glyph glyph-name="g" unicode="g" horiz-adv-x="487" 
d="M123 -229q-78 0 -131 44l27 39q46 -38 111 -38q142 0 174 185q1 4 4.5 26t5.5 26q13 68 28 128h-1q-32 -77 -83 -134.5t-115 -57.5q-53 0 -80 39.5t-27 104.5q0 142 75.5 248.5t201.5 106.5q62 0 127 -13l-87 -478q-21 -115 -75.5 -170.5t-154.5 -55.5zM154 33
q40 0 77.5 34t65 87t46.5 109.5t29 109.5l11 65q-34 8 -82 8q-66 0 -116 -46.5t-73.5 -114.5t-23.5 -143q0 -109 66 -109z" />
    <glyph glyph-name="h" unicode="h" horiz-adv-x="534" 
d="M50 0l124 679q-41 4 -83 4l7 36q46 6 137 6l-15 -66l-32 -182q-17 -94 -39 -193h1q13 33 29 62.5t41.5 64.5t62 56t77.5 21q59 0 82 -41.5t10 -114.5l-53 -290q51 0 81 -6l-7 -36h-132l58 326q21 118 -53 118t-138 -106t-95 -269l-12 -69h-51z" />
    <glyph glyph-name="i" unicode="i" horiz-adv-x="261" 
d="M62 0l79 437q-41 4 -82 4l6 36q38 5 139 5l-17 -70l-67 -370q50 0 80 -6l-6 -36h-132zM196 577q-16 0 -28 11.5t-12 27.5q0 18 13 31t30 13q16 0 27.5 -11.5t11.5 -28.5q0 -18 -12.5 -30.5t-29.5 -12.5z" />
    <glyph glyph-name="j" unicode="j" horiz-adv-x="250" 
d="M-63 -229q-37 0 -69 15l19 41q19 -12 55 -12q49 0 74.5 34t37.5 103l87 485q-41 4 -83 4l7 36q38 5 138 5l-16 -70l-83 -464q-16 -88 -52.5 -132.5t-114.5 -44.5zM196 577q-16 0 -28 11.5t-12 27.5q0 18 13 31t30 13q16 0 27.5 -11.5t11.5 -28.5q0 -18 -12.5 -30.5
t-29.5 -12.5z" />
    <glyph glyph-name="k" unicode="k" horiz-adv-x="458" 
d="M51 0l120 679q-41 4 -82 4l6 36q46 6 138 6l-16 -70l-115 -655h-51zM327 0l-171 269l236 208h67l-245 -211l144 -224q48 0 78 -6l-6 -36h-103z" />
    <glyph glyph-name="l" unicode="l" horiz-adv-x="249" 
d="M50 0l122 679q-41 4 -82 4l7 36q46 6 138 6l-16 -70l-111 -613q51 0 81 -6l-6 -36h-133z" />
    <glyph glyph-name="m" unicode="m" horiz-adv-x="825" 
d="M62 0l78 436q-52 5 -82 5l7 36q38 5 136 5l-15 -68q-4 -22 -7 -34l-8 -36q-12 -60 -13 -62h1q85 206 207 206q48 0 71 -29t23 -77q0 -16 -16 -96h2q12 29 24 52t31.5 52.5t40.5 49.5t50 34t61 14q58 0 80.5 -43t9.5 -114l-53 -289q51 0 81 -6l-6 -36h-133l57 318
q24 126 -50 126q-76 0 -138.5 -107t-91.5 -268l-13 -69h-49l57 318q21 126 -52 126q-74 0 -136.5 -107t-91.5 -268l-13 -69h-49z" />
    <glyph glyph-name="n" unicode="n" horiz-adv-x="545" 
d="M62 0l79 437q-41 4 -82 4l6 36q38 5 137 5l-16 -70q-4 -14 -14.5 -67t-13.5 -63h2q83 206 212 206q58 0 81.5 -41.5t10.5 -114.5l-54 -290q51 0 81 -6l-6 -36h-133l59 326q21 118 -54 118q-74 0 -139 -106.5t-93 -268.5l-13 -69h-50z" />
    <glyph glyph-name="o" unicode="o" horiz-adv-x="469" 
d="M193 -11q-55 0 -92.5 31t-52 73t-14.5 89q0 116 69.5 211t172.5 95q79 0 119.5 -56.5t40.5 -134.5q0 -120 -69.5 -214t-173.5 -94zM200 31q78 0 130.5 81t52.5 175q0 71 -27.5 115t-84.5 44q-80 0 -133 -82t-53 -178q0 -68 28 -111.5t87 -43.5z" />
    <glyph glyph-name="p" unicode="p" horiz-adv-x="501" 
d="M-59 -218l7 36q30 6 82 6l110 612q-52 5 -82 5l7 36q38 5 136 5q-4 -14 -21 -97q-19 -87 -20 -91h2q14 36 30.5 66.5t40.5 61t56 48.5t68 18q53 0 80.5 -39.5t27.5 -104.5q0 -90 -30 -169t-94 -132.5t-150 -53.5q-41 0 -78 7l-32 -172q51 0 81 -6l-6 -36h-215zM198 31
q67 0 117.5 47t74.5 115t24 144q0 49 -17 78t-51 29q-51 0 -98.5 -60t-75.5 -135t-40 -145l-12 -66q37 -7 78 -7z" />
    <glyph glyph-name="q" unicode="q" horiz-adv-x="491" 
d="M183 -218l6 36q30 6 83 6l33 177q20 110 38 180h-2q-32 -77 -82.5 -134.5t-115.5 -57.5q-53 0 -80 39.5t-27 104.5q0 142 75.5 248.5t201.5 106.5q63 0 128 -13l-119 -651q51 0 81 -6l-6 -36h-214zM154 33q39 0 76.5 34t65 86.5t47 109.5t29.5 110l11 65q-34 8 -82 8
q-98 0 -156 -93t-58 -211q0 -109 67 -109z" />
    <glyph glyph-name="r" unicode="r" horiz-adv-x="360" 
d="M62 0l79 437q-41 4 -82 4l6 36q38 5 136 5q-16 -66 -22 -106q-20 -92 -21 -96h1q77 208 190 208q19 0 37 -5l-18 -48q-12 3 -26 3q-72 0 -130.5 -105.5t-86.5 -263.5l-13 -69h-50z" />
    <glyph glyph-name="s" unicode="s" horiz-adv-x="388" 
d="M155 -11q-88 0 -133 39l19 106h41q0 -39 -8 -85q34 -18 86 -18q49 0 79 24.5t30 66.5q0 20 -6.5 36t-22 29.5t-25 20t-31.5 19.5t-33 21t-29 24.5t-26 38.5t-8 49q0 57 42 92.5t109 35.5q78 0 117 -29l-19 -112h-41q0 29 9 87q-33 12 -68 12q-44 0 -71.5 -22.5
t-27.5 -59.5q0 -25 15.5 -47.5t30 -32.5t39.5 -25q29 -16 45.5 -28.5t33.5 -40.5t17 -64q0 -61 -44.5 -99t-119.5 -38z" />
    <glyph glyph-name="t" unicode="t" horiz-adv-x="323" 
d="M154 -11q-98 0 -74 121l59 325h-86l7 42h87l25 135l52 12l-26 -147h118l-8 -42h-118l-57 -317q-10 -39 -4 -62t32 -23q45 0 92 49l26 -35q-58 -58 -125 -58z" />
    <glyph glyph-name="u" unicode="u" horiz-adv-x="545" 
d="M172 -11q-58 0 -80.5 41.5t-9.5 115.5l52 291q-41 4 -81 4l6 36q38 5 134 5l-59 -330q-21 -118 53 -118q73 0 138 103.5t93 258.5l8 41q-41 4 -83 4l6 36q38 5 135 5l-49 -269q-3 -15 -28 -171q51 0 81 -6l-6 -36h-130q17 123 37 198h-2q-88 -209 -215 -209z" />
    <glyph glyph-name="v" unicode="v" horiz-adv-x="456" 
d="M164 0l-66 436q-52 5 -82 5l6 36q38 5 120 5l48 -325q11 -55 11 -93h2l219 413h53l-263 -477h-48z" />
    <glyph glyph-name="w" unicode="w" horiz-adv-x="710" 
d="M149 0l-52 436q-53 5 -81 5l6 36q38 5 121 5l34 -304q9 -54 9 -105h1l202 404h51l30 -293q10 -63 10 -109h1l199 402h53l-247 -477h-44l-42 405h-1l-205 -405h-45z" />
    <glyph glyph-name="x" unicode="x" horiz-adv-x="447" 
d="M-6 0l207 249l-90 186q-18 1 -45 3.5t-33 2.5l6 36l32 1q32 1 50 1h24l88 -191l153 189h58l-191 -231l97 -204q48 0 78 -6l-6 -36h-107l-95 207l-168 -207h-58z" />
    <glyph glyph-name="y" unicode="y" horiz-adv-x="462" 
d="M2 -224q-41 0 -66 14l20 42q20 -9 52 -9q44 0 81 37t87 126l-83 450q-52 5 -82 5l6 36q38 5 119 5l64 -357q12 -76 12 -81h1q4 13 37 80l170 353h55l-211 -417q-36 -71 -56 -107t-47 -77t-48.5 -58.5t-49.5 -29.5t-61 -12z" />
    <glyph glyph-name="z" unicode="z" horiz-adv-x="434" 
d="M8 0l7 37l337 399h-211q-10 -55 -18 -76l-5 -16h-40l23 133h321l-7 -39l-338 -396h236q8 51 23 92h41l-25 -134h-344z" />
    <glyph glyph-name="braceleft" unicode="{" horiz-adv-x="338" 
d="M242 -156h-74q-44 0 -67.5 31t-14.5 81l36 197q9 51 -16 81t-74 31l8 42q49 0 84 29t44 81l35 197q18 106 118 106h75l-7 -42h-67q-59 0 -72 -80l-34 -190q-20 -105 -123 -124v-1q44 -10 66 -41t13 -82l-34 -196q-7 -39 2.5 -58t41.5 -19h67z" />
    <glyph glyph-name="bar" unicode="|" horiz-adv-x="260" 
d="M24 -250l178 1000h38l-178 -1000h-38z" />
    <glyph glyph-name="braceright" unicode="}" horiz-adv-x="338" 
d="M-44 -156l7 42h67q59 0 73 80l33 194q17 102 124 125v2q-42 9 -65 41t-14 82l33 190q7 40 -2.5 58.5t-41.5 18.5h-67l7 43h77q43 0 65.5 -29.5t13.5 -82.5l-34 -191q-9 -50 17 -80.5t72 -31.5l-8 -42q-46 0 -82.5 -29t-45.5 -81l-36 -203q-9 -52 -39.5 -79t-76.5 -27h-77
z" />
    <glyph glyph-name="uni00A0" unicode="&#xa0;" horiz-adv-x="229" 
 />
    <glyph glyph-name="exclamdown" unicode="&#xa1;" horiz-adv-x="245" 
d="M154 400q-17 0 -29 12t-12 29q0 19 13 33t31 14t30.5 -13t12.5 -30q0 -18 -13 -31.5t-33 -13.5zM18 -187l97 485h39l-74 -485h-62z" />
    <glyph glyph-name="sterling" unicode="&#xa3;" horiz-adv-x="478" 
d="M-1 0l7 36q112 63 142 200q6 31 11 73h-96l7 42h90q7 104 14 151q31 175 182 175q93 0 134 -45l-23 -131h-43q0 38 11 108q-32 24 -84 24q-100 0 -124 -133q-8 -46 -15 -149h150l-8 -42h-144q-8 -64 -10 -72q-27 -132 -122 -193h269q8 58 26 104h41l-27 -148h-388z" />
    <glyph glyph-name="yen" unicode="&#xa5;" horiz-adv-x="595" 
d="M148 0l6 36q30 6 83 6l14 76h-159l8 43h159l14 78l-1 4h-158l8 43h141l-117 338q-51 0 -81 6l7 36h216l-6 -36q-19 -4 -78 -6l107 -322h1l220 322q-56 2 -76 6l6 36h212l-6 -36q-30 -6 -79 -6l-236 -338h142l-8 -43h-158l-2 -3l-14 -79h160l-8 -43h-160l-14 -76
q51 0 81 -6l-6 -36h-218z" />
    <glyph glyph-name="section" unicode="&#xa7;" horiz-adv-x="427" 
d="M128 -152q-67 0 -104 35l27 38q29 -27 81 -27q48 0 77.5 32.5t29.5 79.5q0 24 -11.5 52t-23.5 47.5t-37 55.5q-6 9 -9 13q-78 112 -78 182q0 87 88 139q-17 37 -17 72q0 74 48.5 119t113.5 45q67 0 106 -33l-28 -40q-32 28 -83 28q-47 0 -76.5 -34t-29.5 -82
q0 -24 11.5 -52t24 -47.5t38.5 -55.5q30 -45 42 -63.5t27.5 -56t15.5 -69.5q0 -87 -87 -144q15 -38 15 -69q0 -75 -46.5 -120t-114.5 -45zM254 119q57 41 57 102q0 33 -19.5 71.5t-60.5 96.5q-32 46 -45 70q-55 -37 -55 -99q0 -33 15.5 -66t49.5 -84q46 -68 58 -91z" />
    <glyph glyph-name="dieresis" unicode="&#xa8;" horiz-adv-x="500" 
d="M226 545q-16 0 -27 11t-11 28t11 28t27 11q17 0 27.5 -11t10.5 -28t-11 -28t-27 -11zM393 545q-16 0 -27 11t-11 28t11 28t27 11q17 0 27.5 -11t10.5 -28t-11 -28t-27 -11z" />
    <glyph glyph-name="copyright" unicode="&#xa9;" horiz-adv-x="829" 
d="M437 -12q-153 0 -261 108.5t-108 262.5t108 263t261 109q154 0 262 -108.5t108 -263.5q0 -154 -108 -262.5t-262 -108.5zM437 26q139 0 233 95.5t94 237.5t-94 238t-233 96t-233 -96t-94 -238t94 -237.5t233 -95.5zM444 124q-98 0 -162.5 68.5t-64.5 166.5q0 99 65 167.5
t162 68.5q81 0 137 -49v-114h-36q-6 22 -6 92q-42 28 -95 28q-79 0 -127.5 -57.5t-48.5 -133.5q0 -80 51.5 -137t126.5 -57q69 0 126 45l22 -37q-63 -51 -150 -51z" />
    <glyph glyph-name="guillemotleft" unicode="&#xab;" horiz-adv-x="438" 
d="M143 57l-104 188l171 189h58l-175 -193l102 -184h-52zM305 57l-104 188l171 189h58l-175 -193l102 -184h-52z" />
    <glyph glyph-name="uni00AD" unicode="&#xad;" horiz-adv-x="299" 
d="M57 266l8 46h192l-8 -46h-192z" />
    <glyph glyph-name="registered" unicode="&#xae;" horiz-adv-x="829" 
d="M437 -12q-153 0 -261 108.5t-108 262.5t108 263t261 109q154 0 262 -108.5t108 -263.5q0 -154 -108 -262.5t-262 -108.5zM437 26q139 0 233 95.5t94 237.5t-94 238t-233 96t-233 -96t-94 -238t94 -237.5t233 -95.5zM247 129v31q14 4 66 6v391q-48 0 -66 5v31h196
q65 0 102 -36.5t37 -87.5q0 -52 -40 -85.5t-93 -33.5l-3 1v-2q27 -21 48 -54l57 -82q19 -28 33 -38.5t38 -10.5h10q6 0 9 1v-33q-22 -6 -41 -6q-29 0 -45 11t-41 47l-76 113q-20 30 -35 40t-43 10v-181q53 -2 67 -6v-31h-180zM360 385h62q49 0 79 20.5t30 62.5q0 38 -24 61
t-73 23h-74v-167z" />
    <glyph glyph-name="overscore" unicode="&#xaf;" horiz-adv-x="500" 
d="M184 581l8 44h249l-8 -44h-249z" />
    <glyph glyph-name="degree" unicode="&#xb0;" horiz-adv-x="341" 
d="M221 424q-52 0 -87 37.5t-35 88.5q0 52 36 89.5t87 37.5q53 0 88 -37t35 -89t-36 -89.5t-88 -37.5zM222 462q37 0 59.5 25.5t22.5 63.5q0 37 -22.5 62.5t-59.5 25.5t-59.5 -25.5t-22.5 -62.5q0 -38 22.5 -63.5t59.5 -25.5z" />
    <glyph glyph-name="acute" unicode="&#xb4;" horiz-adv-x="500" 
d="M147 540l117 122h79l-148 -122h-48z" />
    <glyph glyph-name="mu" unicode="&#xb5;" horiz-adv-x="519" 
d="M12 -218l126 695h51l-59 -326q-19 -115 78 -115q77 0 157 96l62 345h51l-70 -387q-10 -61 -6 -90h-51q-2 19 -1 35q1 13 5 39q-15 -18 -28 -30q-59 -55 -132 -55q-64 0 -89 46h-1q-7 -69 -15 -109l-26 -144h-52z" />
    <glyph glyph-name="middot" unicode="&#xb7;" horiz-adv-x="199" 
d="M103 246q-18 0 -31 13t-13 31q0 20 13.5 33.5t33.5 13.5q17 0 29.5 -13t12.5 -30q0 -20 -13.5 -34t-31.5 -14z" />
    <glyph glyph-name="cedilla" unicode="&#xb8;" horiz-adv-x="500" 
d="M165 -215q-32 0 -62 11l12 33q20 -10 49 -10q56 0 56 43q0 44 -73 42l38 99h37l-27 -74q31 -4 50.5 -22.5t19.5 -45.5q0 -36 -28 -56t-72 -20z" />
    <glyph glyph-name="guillemotright" unicode="&#xbb;" horiz-adv-x="438" 
d="M9 56l172 193l-102 185h53l104 -190l-169 -188h-58zM171 56l172 193l-102 185h53l104 -190l-169 -188h-58z" />
    <glyph glyph-name="questiondown" unicode="&#xbf;" horiz-adv-x="385" 
d="M271 400q-17 0 -29.5 12t-12.5 29q0 19 13 33t32 14q17 0 29.5 -13t12.5 -30q0 -18 -13 -31.5t-32 -13.5zM235 303h41q1 -24 -2 -60q-5 -49 -31 -81t-79 -63q-56 -33 -85.5 -67.5t-29.5 -89.5q0 -45 29.5 -69t84.5 -24q44 0 86 20l14 -42q-46 -24 -108 -24
q-76 0 -118.5 37t-42.5 96q0 70 39.5 116t105.5 84q87 49 93 112q3 27 3 55z" />
    <glyph glyph-name="Agrave" unicode="&#xc0;" horiz-adv-x="651" 
d="M-41 0l6 36q18 4 66 6l344 624h54l111 -624q41 0 71 -6l-6 -36h-199l6 36q30 6 73 6l-27 160h-287l-87 -160q44 0 74 -6l-6 -36h-193zM196 247h254l-41 237l-19 120h-1q-10 -19 -33.5 -65t-29.5 -56zM384 728l-105 122h72l76 -122h-43z" />
    <glyph glyph-name="Aacute" unicode="&#xc1;" horiz-adv-x="651" 
d="M-41 0l6 36q18 4 66 6l344 624h54l111 -624q41 0 71 -6l-6 -36h-199l6 36q30 6 73 6l-27 160h-287l-87 -160q44 0 74 -6l-6 -36h-193zM196 247h254l-41 237l-19 120h-1q-10 -19 -33.5 -65t-29.5 -56zM386 728l117 122h79l-148 -122h-48z" />
    <glyph glyph-name="Acircumflex" unicode="&#xc2;" horiz-adv-x="651" 
d="M-41 0l6 36q18 4 66 6l344 624h54l111 -624q41 0 71 -6l-6 -36h-199l6 36q30 6 73 6l-27 160h-287l-87 -160q44 0 74 -6l-6 -36h-193zM196 247h254l-41 237l-19 120h-1q-10 -19 -33.5 -65t-29.5 -56zM276 729l144 147h32l92 -147h-44l-71 97l-103 -97h-50z" />
    <glyph glyph-name="Atilde" unicode="&#xc3;" horiz-adv-x="651" 
d="M-41 0l6 36q18 4 66 6l344 624h54l111 -624q41 0 71 -6l-6 -36h-199l6 36q30 6 73 6l-27 160h-287l-87 -160q44 0 74 -6l-6 -36h-193zM196 247h254l-41 237l-19 120h-1q-10 -19 -33.5 -65t-29.5 -56zM460 734q-24 0 -52 21t-45 21q-6 0 -12 -1.5t-9.5 -3t-10 -6
t-8.5 -6.5t-8.5 -7.5t-7.5 -6.5l-22 26q40 50 86 50q23 0 51 -21t46 -21q31 0 58 31l22 -26q-42 -50 -88 -50z" />
    <glyph glyph-name="Adieresis" unicode="&#xc4;" horiz-adv-x="651" 
d="M-41 0l6 36q18 4 66 6l344 624h54l111 -624q41 0 71 -6l-6 -36h-199l6 36q30 6 73 6l-27 160h-287l-87 -160q44 0 74 -6l-6 -36h-193zM196 247h254l-41 237l-19 120h-1q-10 -19 -33.5 -65t-29.5 -56zM334 733q-16 0 -27 11t-11 28t11 28t27 11q17 0 27.5 -11t10.5 -28
t-11 -28t-27 -11zM501 733q-16 0 -27 11t-11 28t11 28t27 11q17 0 27.5 -11t10.5 -28t-11 -28t-27 -11z" />
    <glyph glyph-name="Aring" unicode="&#xc5;" horiz-adv-x="651" 
d="M-41 0l6 36q18 4 66 6l344 624h54l111 -624q41 0 71 -6l-6 -36h-199l6 36q30 6 73 6l-27 160h-287l-87 -160q44 0 74 -6l-6 -36h-193zM196 247h254l-41 237l-19 120h-1q-10 -19 -33.5 -65t-29.5 -56zM427 734q-37 0 -63 26.5t-26 64.5t26 65t64 27q37 0 63 -26.5
t26 -64.5q0 -39 -26 -65.5t-64 -26.5zM428 766q25 0 39.5 17t14.5 42t-15 43t-40 18t-39.5 -17.5t-14.5 -42.5t14.5 -42.5t40.5 -17.5z" />
    <glyph glyph-name="AE" unicode="&#xc6;" horiz-adv-x="853" 
d="M-60 0l6 36q21 4 65 6l449 582q-52 2 -70 6l6 36h474l-25 -145h-43q0 35 10 101h-242l-46 -257h179q16 66 18 70h38l-33 -186h-38q0 19 8 73h-179l-50 -278h246q8 49 25 97h43l-25 -141h-432l5 36q32 6 84 6l28 158h-249l-122 -158q43 0 73 -6l-5 -36h-198zM225 243h223
l68 376h-3z" />
    <glyph glyph-name="Ccedilla" unicode="&#xc7;" horiz-adv-x="637" 
d="M335 -11q-131 0 -204 79.5t-73 199.5q0 172 114.5 290.5t279.5 118.5q120 0 179 -42l-23 -130h-43q0 28 11 103q-49 24 -132 24q-144 0 -237 -104.5t-93 -254.5q0 -104 58.5 -171.5t167.5 -67.5q99 0 167 39q12 75 25 106h42l-22 -129q-33 -28 -96.5 -44.5t-120.5 -16.5z
M290 -215q-32 0 -62 11l12 33q20 -10 49 -10q56 0 56 43q0 44 -73 42l38 99h37l-27 -74q31 -4 50.5 -22.5t19.5 -45.5q0 -36 -28 -56t-72 -20z" />
    <glyph glyph-name="Egrave" unicode="&#xc8;" horiz-adv-x="527" 
d="M-3 0l6 36q30 6 83 6l105 582q-49 0 -81 6l7 36h427l-25 -145h-44q0 37 10 101h-241l-46 -257h178q16 62 19 70h38l-33 -186h-38q0 26 7 73h-178l-50 -278h246q10 62 25 97h43l-26 -141h-432zM329 728l-105 122h72l76 -122h-43z" />
    <glyph glyph-name="Eacute" unicode="&#xc9;" horiz-adv-x="527" 
d="M331 728l117 122h79l-148 -122h-48zM-3 0l6 36q30 6 83 6l105 582q-49 0 -81 6l7 36h427l-25 -145h-44q0 37 10 101h-241l-46 -257h178q16 62 19 70h38l-33 -186h-38q0 26 7 73h-178l-50 -278h246q10 62 25 97h43l-26 -141h-432z" />
    <glyph glyph-name="Ecircumflex" unicode="&#xca;" horiz-adv-x="527" 
d="M221 729l144 147h32l92 -147h-44l-71 97l-103 -97h-50zM-3 0l6 36q30 6 83 6l105 582q-49 0 -81 6l7 36h427l-25 -145h-44q0 37 10 101h-241l-46 -257h178q16 62 19 70h38l-33 -186h-38q0 26 7 73h-178l-50 -278h246q10 62 25 97h43l-26 -141h-432z" />
    <glyph glyph-name="Edieresis" unicode="&#xcb;" horiz-adv-x="527" 
d="M279 733q-16 0 -27 11t-11 28t11 28t27 11q17 0 27.5 -11t10.5 -28t-11 -28t-27 -11zM446 733q-16 0 -27 11t-11 28t11 28t27 11q17 0 27.5 -11t10.5 -28t-11 -28t-27 -11zM-3 0l6 36q30 6 83 6l105 582q-49 0 -81 6l7 36h427l-25 -145h-44q0 37 10 101h-241l-46 -257
h178q16 62 19 70h38l-33 -186h-38q0 26 7 73h-178l-50 -278h246q10 62 25 97h43l-26 -141h-432z" />
    <glyph glyph-name="Igrave" unicode="&#xcc;" horiz-adv-x="298" 
d="M-3 0l6 36q30 6 83 6l105 582q-49 0 -81 6l7 36h218l-7 -36q-30 -6 -83 -6l-105 -582q51 0 81 -6l-6 -36h-218zM210 728l-105 122h72l76 -122h-43z" />
    <glyph glyph-name="Iacute" unicode="&#xcd;" horiz-adv-x="298" 
d="M-3 0l6 36q30 6 83 6l105 582q-49 0 -81 6l7 36h218l-7 -36q-30 -6 -83 -6l-105 -582q51 0 81 -6l-6 -36h-218zM210 728l117 122h79l-148 -122h-48z" />
    <glyph glyph-name="Icircumflex" unicode="&#xce;" horiz-adv-x="298" 
d="M-3 0l6 36q30 6 83 6l105 582q-49 0 -81 6l7 36h218l-7 -36q-30 -6 -83 -6l-105 -582q51 0 81 -6l-6 -36h-218zM102 729l144 147h32l92 -147h-44l-71 97l-103 -97h-50z" />
    <glyph glyph-name="Idieresis" unicode="&#xcf;" horiz-adv-x="298" 
d="M-3 0l6 36q30 6 83 6l105 582q-49 0 -81 6l7 36h218l-7 -36q-30 -6 -83 -6l-105 -582q51 0 81 -6l-6 -36h-218zM160 733q-16 0 -27 11t-11 28t11 28t27 11q17 0 27.5 -11t10.5 -28t-11 -28t-27 -11zM327 733q-16 0 -27 11t-11 28t11 28t27 11q17 0 27.5 -11t10.5 -28
t-11 -28t-27 -11z" />
    <glyph glyph-name="Eth" unicode="&#xd0;" horiz-adv-x="678" 
d="M3 0l6 36q32 6 83 6l51 281h-71l8 43h71l46 258q-50 0 -80 6l6 36h218q152 0 235.5 -69.5t83.5 -190.5q0 -177 -114 -291.5t-307 -114.5h-236zM147 44h100q160 0 258.5 99t98.5 257q0 110 -68.5 166t-201.5 56h-83l-46 -256h118l-9 -43h-117z" />
    <glyph glyph-name="Ntilde" unicode="&#xd1;" horiz-adv-x="710" 
d="M-3 0l6 36q30 6 83 6l105 582q-50 0 -80 6l6 36h131l238 -499q3 -7 19.5 -45t19.5 -45h2q0 9 6.5 49.5t10.5 55.5l78 442q-50 0 -80 6l6 36h211l-6 -36q-30 -6 -84 -6l-111 -624h-47l-241 503q-31 61 -38 88h-1l-16 -97l-82 -452q51 0 81 -6l-6 -36h-211zM494 734
q-24 0 -52 21t-45 21q-6 0 -12 -1.5t-9.5 -3t-10 -6t-8.5 -6.5t-8.5 -7.5t-7.5 -6.5l-22 26q40 50 86 50q23 0 51 -21t46 -21q31 0 58 31l22 -26q-42 -50 -88 -50z" />
    <glyph glyph-name="Ograve" unicode="&#xd2;" horiz-adv-x="713" 
d="M328 -11q-124 0 -197 83t-73 201q0 104 43.5 195.5t127 150t188.5 58.5q127 0 199 -83t72 -202q0 -161 -100.5 -282t-259.5 -121zM333 34q131 0 215 107t84 248q0 102 -58.5 172.5t-161.5 70.5q-131 0 -215 -107t-84 -249q0 -102 59.5 -172t160.5 -70zM406 728l-105 122
h72l76 -122h-43z" />
    <glyph glyph-name="Oacute" unicode="&#xd3;" horiz-adv-x="713" 
d="M408 728l117 122h79l-148 -122h-48zM328 -11q-124 0 -197 83t-73 201q0 104 43.5 195.5t127 150t188.5 58.5q127 0 199 -83t72 -202q0 -161 -100.5 -282t-259.5 -121zM333 34q131 0 215 107t84 248q0 102 -58.5 172.5t-161.5 70.5q-131 0 -215 -107t-84 -249
q0 -102 59.5 -172t160.5 -70z" />
    <glyph glyph-name="Ocircumflex" unicode="&#xd4;" horiz-adv-x="713" 
d="M298 729l144 147h32l92 -147h-44l-71 97l-103 -97h-50zM328 -11q-124 0 -197 83t-73 201q0 104 43.5 195.5t127 150t188.5 58.5q127 0 199 -83t72 -202q0 -161 -100.5 -282t-259.5 -121zM333 34q131 0 215 107t84 248q0 102 -58.5 172.5t-161.5 70.5q-131 0 -215 -107
t-84 -249q0 -102 59.5 -172t160.5 -70z" />
    <glyph glyph-name="Otilde" unicode="&#xd5;" horiz-adv-x="713" 
d="M328 -11q-124 0 -197 83t-73 201q0 104 43.5 195.5t127 150t188.5 58.5q127 0 199 -83t72 -202q0 -161 -100.5 -282t-259.5 -121zM333 34q131 0 215 107t84 248q0 102 -58.5 172.5t-161.5 70.5q-131 0 -215 -107t-84 -249q0 -102 59.5 -172t160.5 -70zM482 734
q-24 0 -52 21t-45 21q-6 0 -12 -1.5t-9.5 -3t-10 -6t-8.5 -6.5t-8.5 -7.5t-7.5 -6.5l-22 26q40 50 86 50q23 0 51 -21t46 -21q31 0 58 31l22 -26q-42 -50 -88 -50z" />
    <glyph glyph-name="Odieresis" unicode="&#xd6;" horiz-adv-x="713" 
d="M356 733q-16 0 -27 11t-11 28t11 28t27 11q17 0 27.5 -11t10.5 -28t-11 -28t-27 -11zM523 733q-16 0 -27 11t-11 28t11 28t27 11q17 0 27.5 -11t10.5 -28t-11 -28t-27 -11zM328 -11q-124 0 -197 83t-73 201q0 104 43.5 195.5t127 150t188.5 58.5q127 0 199 -83t72 -202
q0 -161 -100.5 -282t-259.5 -121zM333 34q131 0 215 107t84 248q0 102 -58.5 172.5t-161.5 70.5q-131 0 -215 -107t-84 -249q0 -102 59.5 -172t160.5 -70z" />
    <glyph glyph-name="multiply" unicode="&#xd7;" horiz-adv-x="445" 
d="M61 99l-28 34l159 136l-110 133l32 27l111 -132l159 135l28 -34l-159 -136l114 -136l-33 -28l-114 136z" />
    <glyph glyph-name="Oslash" unicode="&#xd8;" horiz-adv-x="713" 
d="M68 -62l-28 24l92 110q-74 82 -74 201q0 104 43.5 195.5t127 150t189.5 58.5q101 0 172 -58l84 99l28 -25l-84 -100q71 -80 71 -201q0 -161 -100.5 -282t-259.5 -121q-100 0 -170 57zM333 34q89 0 158.5 52t105.5 132t36 171q0 96 -50 161l-391 -465q56 -51 141 -51z
M166 113l391 466q-58 53 -144 53q-132 0 -215.5 -107t-83.5 -249q0 -99 52 -163z" />
    <glyph glyph-name="Ugrave" unicode="&#xd9;" horiz-adv-x="703" 
d="M316 -11q-105 0 -156.5 52.5t-51.5 143.5q0 32 6 65l67 374q-49 0 -81 6l7 36h217l-6 -36q-30 -6 -83 -6l-66 -368q-19 -107 16 -164t136 -57q187 0 226 219l66 370q-51 0 -81 6l6 36h211l-6 -36q-30 -6 -83 -6l-68 -378q-23 -126 -88 -191.5t-188 -65.5zM409 728
l-105 122h72l76 -122h-43z" />
    <glyph glyph-name="Uacute" unicode="&#xda;" horiz-adv-x="703" 
d="M411 728l117 122h79l-148 -122h-48zM316 -11q-105 0 -156.5 52.5t-51.5 143.5q0 32 6 65l67 374q-49 0 -81 6l7 36h217l-6 -36q-30 -6 -83 -6l-66 -368q-19 -107 16 -164t136 -57q187 0 226 219l66 370q-51 0 -81 6l6 36h211l-6 -36q-30 -6 -83 -6l-68 -378
q-23 -126 -88 -191.5t-188 -65.5z" />
    <glyph glyph-name="Ucircumflex" unicode="&#xdb;" horiz-adv-x="703" 
d="M301 729l144 147h32l92 -147h-44l-71 97l-103 -97h-50zM316 -11q-105 0 -156.5 52.5t-51.5 143.5q0 32 6 65l67 374q-49 0 -81 6l7 36h217l-6 -36q-30 -6 -83 -6l-66 -368q-19 -107 16 -164t136 -57q187 0 226 219l66 370q-51 0 -81 6l6 36h211l-6 -36q-30 -6 -83 -6
l-68 -378q-23 -126 -88 -191.5t-188 -65.5z" />
    <glyph glyph-name="Udieresis" unicode="&#xdc;" horiz-adv-x="703" 
d="M359 733q-16 0 -27 11t-11 28t11 28t27 11q17 0 27.5 -11t10.5 -28t-11 -28t-27 -11zM526 733q-16 0 -27 11t-11 28t11 28t27 11q17 0 27.5 -11t10.5 -28t-11 -28t-27 -11zM316 -11q-105 0 -156.5 52.5t-51.5 143.5q0 32 6 65l67 374q-49 0 -81 6l7 36h217l-6 -36
q-30 -6 -83 -6l-66 -368q-19 -107 16 -164t136 -57q187 0 226 219l66 370q-51 0 -81 6l6 36h211l-6 -36q-30 -6 -83 -6l-68 -378q-23 -126 -88 -191.5t-188 -65.5z" />
    <glyph glyph-name="Yacute" unicode="&#xdd;" horiz-adv-x="600" 
d="M151 0l6 36q32 6 84 6l38 209l-130 373q-50 0 -80 6l6 36h217l-7 -36q-19 -4 -77 -6l107 -322l220 322q-56 2 -76 6l6 36h213l-7 -36q-30 -6 -78 -6l-260 -373l-38 -209q50 0 80 -6l-6 -36h-218zM363 728l117 122h79l-148 -122h-48z" />
    <glyph glyph-name="Thorn" unicode="&#xde;" horiz-adv-x="528" 
d="M-3 0l6 36q30 6 83 6l105 582q-49 0 -81 6l7 36h136l-21 -115h84q96 0 148 -41.5t52 -116.5q0 -103 -72.5 -163t-195.5 -60h-84l-24 -128q51 0 81 -6l-6 -36h-218zM172 213h81q99 0 153 47.5t54 125.5q0 56 -37.5 89t-115.5 33h-83z" />
    <glyph glyph-name="germandbls" unicode="&#xdf;" horiz-adv-x="527" 
d="M-56 -229q-49 0 -82 19l17 41q34 -16 70 -16q82 0 105 134l87 486h-90l8 42h89l9 50q37 204 223 204q65 0 103.5 -35.5t38.5 -93.5t-28.5 -96.5t-80.5 -71.5q-30 -19 -39.5 -25.5t-29.5 -22t-27.5 -28.5t-7.5 -27q0 -15 11.5 -29.5t23 -23t42.5 -29.5q87 -57 87 -126
q0 -60 -43.5 -97t-115.5 -37q-74 0 -121 37l24 38q39 -31 101 -31q47 0 76 23.5t29 64.5q0 28 -18.5 50t-57.5 49q-32 21 -46.5 32.5t-28 31.5t-13.5 43q0 17 5.5 31.5t21 30t24 22.5t35 25.5t32.5 22.5q46 31 70 61.5t24 74.5q0 42 -26 67t-73 25q-136 0 -165 -164
l-103 -577q-16 -87 -53.5 -131t-106.5 -44z" />
    <glyph glyph-name="agrave" unicode="&#xe0;" horiz-adv-x="493" 
d="M145 -11q-53 0 -81 37.5t-28 102.5q0 91 29 170.5t93.5 134t153.5 54.5q72 0 123 -15l-47 -260q-1 -4 -28 -171q51 0 81 -6l-6 -36h-131q23 133 36 183h-2q-81 -194 -193 -194zM156 33q49 0 96 58.5t76 134.5t40 147l10 65q-34 8 -78 8q-66 0 -116 -47t-73.5 -116
t-23.5 -145q0 -105 69 -105zM268 540l-105 122h72l76 -122h-43z" />
    <glyph glyph-name="aacute" unicode="&#xe1;" horiz-adv-x="493" 
d="M145 -11q-53 0 -81 37.5t-28 102.5q0 91 29 170.5t93.5 134t153.5 54.5q72 0 123 -15l-47 -260q-1 -4 -28 -171q51 0 81 -6l-6 -36h-131q23 133 36 183h-2q-81 -194 -193 -194zM156 33q49 0 96 58.5t76 134.5t40 147l10 65q-34 8 -78 8q-66 0 -116 -47t-73.5 -116
t-23.5 -145q0 -105 69 -105zM268 540l117 122h79l-148 -122h-48z" />
    <glyph glyph-name="acircumflex" unicode="&#xe2;" horiz-adv-x="493" 
d="M145 -11q-53 0 -81 37.5t-28 102.5q0 91 29 170.5t93.5 134t153.5 54.5q72 0 123 -15l-47 -260q-1 -4 -28 -171q51 0 81 -6l-6 -36h-131q23 133 36 183h-2q-81 -194 -193 -194zM156 33q49 0 96 58.5t76 134.5t40 147l10 65q-34 8 -78 8q-66 0 -116 -47t-73.5 -116
t-23.5 -145q0 -105 69 -105zM160 541l144 147h32l92 -147h-44l-71 97l-103 -97h-50z" />
    <glyph glyph-name="atilde" unicode="&#xe3;" horiz-adv-x="493" 
d="M145 -11q-53 0 -81 37.5t-28 102.5q0 91 29 170.5t93.5 134t153.5 54.5q72 0 123 -15l-47 -260q-1 -4 -28 -171q51 0 81 -6l-6 -36h-131q23 133 36 183h-2q-81 -194 -193 -194zM156 33q49 0 96 58.5t76 134.5t40 147l10 65q-34 8 -78 8q-66 0 -116 -47t-73.5 -116
t-23.5 -145q0 -105 69 -105zM345 546q-23 0 -51 21t-46 21q-6 0 -12 -1.5t-9.5 -3t-10 -6t-8.5 -6.5t-8.5 -7.5t-7.5 -6.5l-22 26q40 50 86 50q24 0 52 -21t45 -21q31 0 58 31l22 -26q-42 -50 -88 -50z" />
    <glyph glyph-name="adieresis" unicode="&#xe4;" horiz-adv-x="493" 
d="M145 -11q-53 0 -81 37.5t-28 102.5q0 91 29 170.5t93.5 134t153.5 54.5q72 0 123 -15l-47 -260q-1 -4 -28 -171q51 0 81 -6l-6 -36h-131q23 133 36 183h-2q-81 -194 -193 -194zM156 33q49 0 96 58.5t76 134.5t40 147l10 65q-34 8 -78 8q-66 0 -116 -47t-73.5 -116
t-23.5 -145q0 -105 69 -105zM218 545q-16 0 -27 11t-11 28t11 28t27 11q17 0 27.5 -11t10.5 -28t-11 -28t-27 -11zM385 545q-16 0 -27 11t-11 28t11 28t27 11q17 0 27.5 -11t10.5 -28t-11 -28t-27 -11z" />
    <glyph glyph-name="aring" unicode="&#xe5;" horiz-adv-x="493" 
d="M145 -11q-53 0 -81 37.5t-28 102.5q0 91 29 170.5t93.5 134t153.5 54.5q72 0 123 -15l-47 -260q-1 -4 -28 -171q51 0 81 -6l-6 -36h-131q23 133 36 183h-2q-81 -194 -193 -194zM156 33q49 0 96 58.5t76 134.5t40 147l10 65q-34 8 -78 8q-66 0 -116 -47t-73.5 -116
t-23.5 -145q0 -105 69 -105zM311 546q-37 0 -63 26.5t-26 64.5t26 65t64 27q37 0 63 -26.5t26 -64.5q0 -39 -26 -65.5t-64 -26.5zM312 578q25 0 39.5 17t14.5 42t-15 43t-40 18t-39.5 -17.5t-14.5 -42.5t14.5 -42.5t40.5 -17.5z" />
    <glyph glyph-name="ae" unicode="&#xe6;" horiz-adv-x="685" 
d="M131 -11q-53 0 -87.5 32t-34.5 80q0 95 104 137q73 30 175 30h23q27 79 13.5 127.5t-82.5 48.5q-74 0 -137 -52l-24 32q75 64 167 64q118 0 123 -103h2q67 103 174 103q51 0 84 -27t33 -75q0 -52 -41.5 -89t-106.5 -53.5t-145 -16.5h-17q-4 -23 -4 -53q0 -141 102 -141
q72 0 130 62l28 -34q-72 -72 -165 -72q-99 0 -132 92q-79 -92 -182 -92zM139 33q93 0 163 87q-9 54 1 108h-20q-93 0 -151 -27q-68 -32 -68 -98q0 -32 21 -51t54 -19zM363 267h18q100 0 165 30t65 85q0 29 -19 46.5t-53 17.5q-58 0 -106.5 -51t-69.5 -128z" />
    <glyph glyph-name="ccedilla" unicode="&#xe7;" horiz-adv-x="414" 
d="M183 -11q-71 0 -109.5 50t-38.5 135q0 127 74 220.5t177 93.5q69 0 108 -32l-20 -114h-41q0 30 10 92q-25 12 -63 12q-78 0 -135.5 -80t-57.5 -186q0 -71 25.5 -109.5t76.5 -38.5q70 0 126 61l28 -33q-71 -71 -160 -71zM146 -215q-32 0 -62 11l12 33q20 -10 49 -10
q56 0 56 43q0 44 -73 42l38 99h37l-27 -74q31 -4 50.5 -22.5t19.5 -45.5q0 -36 -28 -56t-72 -20z" />
    <glyph glyph-name="egrave" unicode="&#xe8;" horiz-adv-x="422" 
d="M182 -11q-73 0 -110 50.5t-37 127.5q0 129 72.5 225t177.5 96q51 0 83.5 -26.5t32.5 -75.5q0 -146 -314 -188v-24q0 -142 102 -142q72 0 130 62l28 -33q-72 -72 -165 -72zM276 446q-65 0 -116 -61t-67 -148q113 16 184 52t71 93q0 29 -19 46.5t-53 17.5zM250 540
l-105 122h72l76 -122h-43z" />
    <glyph glyph-name="eacute" unicode="&#xe9;" horiz-adv-x="422" 
d="M250 540l117 122h79l-148 -122h-48zM182 -11q-73 0 -110 50.5t-37 127.5q0 129 72.5 225t177.5 96q51 0 83.5 -26.5t32.5 -75.5q0 -146 -314 -188v-24q0 -142 102 -142q72 0 130 62l28 -33q-72 -72 -165 -72zM276 446q-65 0 -116 -61t-67 -148q113 16 184 52t71 93
q0 29 -19 46.5t-53 17.5z" />
    <glyph glyph-name="ecircumflex" unicode="&#xea;" horiz-adv-x="422" 
d="M143 541l144 147h32l92 -147h-44l-71 97l-103 -97h-50zM182 -11q-73 0 -110 50.5t-37 127.5q0 129 72.5 225t177.5 96q51 0 83.5 -26.5t32.5 -75.5q0 -146 -314 -188v-24q0 -142 102 -142q72 0 130 62l28 -33q-72 -72 -165 -72zM276 446q-65 0 -116 -61t-67 -148
q113 16 184 52t71 93q0 29 -19 46.5t-53 17.5z" />
    <glyph glyph-name="edieresis" unicode="&#xeb;" horiz-adv-x="422" 
d="M201 545q-16 0 -27 11t-11 28t11 28t27 11q17 0 27.5 -11t10.5 -28t-11 -28t-27 -11zM368 545q-16 0 -27 11t-11 28t11 28t27 11q17 0 27.5 -11t10.5 -28t-11 -28t-27 -11zM182 -11q-73 0 -110 50.5t-37 127.5q0 129 72.5 225t177.5 96q51 0 83.5 -26.5t32.5 -75.5
q0 -146 -314 -188v-24q0 -142 102 -142q72 0 130 62l28 -33q-72 -72 -165 -72zM276 446q-65 0 -116 -61t-67 -148q113 16 184 52t71 93q0 29 -19 46.5t-53 17.5z" />
    <glyph glyph-name="igrave" unicode="&#xec;" horiz-adv-x="261" 
d="M62 0l79 437q-41 4 -82 4l6 36q38 5 139 5l-17 -70l-67 -370q50 0 80 -6l-6 -36h-132zM157 540l-105 122h72l76 -122h-43z" />
    <glyph glyph-name="iacute" unicode="&#xed;" horiz-adv-x="261" 
d="M158 540l117 122h79l-148 -122h-48zM62 0l79 437q-41 4 -82 4l6 36q38 5 139 5l-17 -70l-67 -370q50 0 80 -6l-6 -36h-132z" />
    <glyph glyph-name="icircumflex" unicode="&#xee;" horiz-adv-x="261" 
d="M50 541l144 147h32l92 -147h-44l-71 97l-103 -97h-50zM62 0l79 437q-41 4 -82 4l6 36q38 5 139 5l-17 -70l-67 -370q50 0 80 -6l-6 -36h-132z" />
    <glyph glyph-name="idieresis" unicode="&#xef;" horiz-adv-x="261" 
d="M108 545q-16 0 -27 11t-11 28t11 28t27 11q17 0 27.5 -11t10.5 -28t-11 -28t-27 -11zM275 545q-16 0 -27 11t-11 28t11 28t27 11q17 0 27.5 -11t10.5 -28t-11 -28t-27 -11zM62 0l79 437q-41 4 -82 4l6 36q38 5 139 5l-17 -70l-67 -370q50 0 80 -6l-6 -36h-132z" />
    <glyph glyph-name="eth" unicode="&#xf0;" horiz-adv-x="463" 
d="M193 -11q-73 0 -116.5 55.5t-43.5 135.5q0 124 69.5 214.5t170.5 90.5q67 0 110 -51q-12 123 -77 186l-87 -68l-24 31l79 62q-63 42 -160 42l17 44q109 0 183 -55l90 71l24 -31l-83 -66q91 -91 91 -270q0 -98 -25.5 -185t-82.5 -146.5t-135 -59.5zM200 33q83 0 134.5 103
t51.5 235v11q-44 59 -118 59q-77 0 -130.5 -76.5t-53.5 -179.5q0 -69 27.5 -110.5t88.5 -41.5z" />
    <glyph glyph-name="ntilde" unicode="&#xf1;" horiz-adv-x="545" 
d="M62 0l79 437q-41 4 -82 4l6 36q38 5 137 5l-16 -70q-4 -14 -14.5 -67t-13.5 -63h2q83 206 212 206q58 0 81.5 -41.5t10.5 -114.5l-54 -290q51 0 81 -6l-6 -36h-133l59 326q21 118 -54 118q-74 0 -139 -106.5t-93 -268.5l-13 -69h-50zM374 546q-24 0 -52 21t-45 21
q-6 0 -12 -1.5t-9.5 -3t-10 -6t-8.5 -6.5t-8.5 -7.5t-7.5 -6.5l-22 26q40 50 86 50q23 0 51 -21t46 -21q31 0 58 31l22 -26q-42 -50 -88 -50z" />
    <glyph glyph-name="ograve" unicode="&#xf2;" horiz-adv-x="469" 
d="M193 -11q-55 0 -92.5 31t-52 73t-14.5 89q0 116 69.5 211t172.5 95q79 0 119.5 -56.5t40.5 -134.5q0 -120 -69.5 -214t-173.5 -94zM200 31q78 0 130.5 81t52.5 175q0 71 -27.5 115t-84.5 44q-80 0 -133 -82t-53 -178q0 -68 28 -111.5t87 -43.5zM259 540l-105 122h72
l76 -122h-43z" />
    <glyph glyph-name="oacute" unicode="&#xf3;" horiz-adv-x="469" 
d="M259 540l117 122h79l-148 -122h-48zM193 -11q-55 0 -92.5 31t-52 73t-14.5 89q0 116 69.5 211t172.5 95q79 0 119.5 -56.5t40.5 -134.5q0 -120 -69.5 -214t-173.5 -94zM200 31q78 0 130.5 81t52.5 175q0 71 -27.5 115t-84.5 44q-80 0 -133 -82t-53 -178q0 -68 28 -111.5
t87 -43.5z" />
    <glyph glyph-name="ocircumflex" unicode="&#xf4;" horiz-adv-x="469" 
d="M151 541l144 147h32l92 -147h-44l-71 97l-103 -97h-50zM193 -11q-55 0 -92.5 31t-52 73t-14.5 89q0 116 69.5 211t172.5 95q79 0 119.5 -56.5t40.5 -134.5q0 -120 -69.5 -214t-173.5 -94zM200 31q78 0 130.5 81t52.5 175q0 71 -27.5 115t-84.5 44q-80 0 -133 -82
t-53 -178q0 -68 28 -111.5t87 -43.5z" />
    <glyph glyph-name="otilde" unicode="&#xf5;" horiz-adv-x="469" 
d="M193 -11q-55 0 -92.5 31t-52 73t-14.5 89q0 116 69.5 211t172.5 95q79 0 119.5 -56.5t40.5 -134.5q0 -120 -69.5 -214t-173.5 -94zM200 31q78 0 130.5 81t52.5 175q0 71 -27.5 115t-84.5 44q-80 0 -133 -82t-53 -178q0 -68 28 -111.5t87 -43.5zM335 546q-23 0 -51 21
t-46 21q-6 0 -12 -1.5t-9.5 -3t-10 -6t-8.5 -6.5t-8.5 -7.5t-7.5 -6.5l-22 26q40 50 86 50q24 0 52 -21t45 -21q31 0 58 31l22 -26q-42 -50 -88 -50z" />
    <glyph glyph-name="odieresis" unicode="&#xf6;" horiz-adv-x="469" 
d="M209 545q-16 0 -27 11t-11 28t11 28t27 11q17 0 27.5 -11t10.5 -28t-11 -28t-27 -11zM376 545q-16 0 -27 11t-11 28t11 28t27 11q17 0 27.5 -11t10.5 -28t-11 -28t-27 -11zM193 -11q-55 0 -92.5 31t-52 73t-14.5 89q0 116 69.5 211t172.5 95q79 0 119.5 -56.5
t40.5 -134.5q0 -120 -69.5 -214t-173.5 -94zM200 31q78 0 130.5 81t52.5 175q0 71 -27.5 115t-84.5 44q-80 0 -133 -82t-53 -178q0 -68 28 -111.5t87 -43.5z" />
    <glyph glyph-name="oslash" unicode="&#xf8;" horiz-adv-x="469" 
d="M13 -53l-28 25l77 92q-28 50 -28 118q0 116 69.5 211t172.5 95q67 0 106 -42l85 100l28 -25l-89 -106q30 -52 30 -118q0 -120 -69.5 -214t-173.5 -94q-65 0 -107 45zM97 105l255 304q-31 38 -81 38q-80 0 -133.5 -82.5t-53.5 -178.5q0 -48 13 -81zM198 31q81 0 134 80.5
t53 175.5q0 50 -16 86l-253 -302q28 -40 82 -40z" />
    <glyph glyph-name="ugrave" unicode="&#xf9;" horiz-adv-x="545" 
d="M172 -11q-58 0 -80.5 41.5t-9.5 115.5l52 291q-41 4 -81 4l6 36q38 5 134 5l-59 -330q-21 -118 53 -118q73 0 138 103.5t93 258.5l8 41q-41 4 -83 4l6 36q38 5 135 5l-49 -269q-3 -15 -28 -171q51 0 81 -6l-6 -36h-130q17 123 37 198h-2q-88 -209 -215 -209zM281 540
l-105 122h72l76 -122h-43z" />
    <glyph glyph-name="uacute" unicode="&#xfa;" horiz-adv-x="545" 
d="M282 540l117 122h79l-148 -122h-48zM172 -11q-58 0 -80.5 41.5t-9.5 115.5l52 291q-41 4 -81 4l6 36q38 5 134 5l-59 -330q-21 -118 53 -118q73 0 138 103.5t93 258.5l8 41q-41 4 -83 4l6 36q38 5 135 5l-49 -269q-3 -15 -28 -171q51 0 81 -6l-6 -36h-130q17 123 37 198
h-2q-88 -209 -215 -209z" />
    <glyph glyph-name="ucircumflex" unicode="&#xfb;" horiz-adv-x="545" 
d="M172 541l144 147h32l92 -147h-44l-71 97l-103 -97h-50zM172 -11q-58 0 -80.5 41.5t-9.5 115.5l52 291q-41 4 -81 4l6 36q38 5 134 5l-59 -330q-21 -118 53 -118q73 0 138 103.5t93 258.5l8 41q-41 4 -83 4l6 36q38 5 135 5l-49 -269q-3 -15 -28 -171q51 0 81 -6l-6 -36
h-130q17 123 37 198h-2q-88 -209 -215 -209z" />
    <glyph glyph-name="udieresis" unicode="&#xfc;" horiz-adv-x="545" 
d="M230 545q-16 0 -27 11t-11 28t11 28t27 11q17 0 27.5 -11t10.5 -28t-11 -28t-27 -11zM397 545q-16 0 -27 11t-11 28t11 28t27 11q17 0 27.5 -11t10.5 -28t-11 -28t-27 -11zM172 -11q-58 0 -80.5 41.5t-9.5 115.5l52 291q-41 4 -81 4l6 36q38 5 134 5l-59 -330
q-21 -118 53 -118q73 0 138 103.5t93 258.5l8 41q-41 4 -83 4l6 36q38 5 135 5l-49 -269q-3 -15 -28 -171q51 0 81 -6l-6 -36h-130q17 123 37 198h-2q-88 -209 -215 -209z" />
    <glyph glyph-name="yacute" unicode="&#xfd;" horiz-adv-x="462" 
d="M2 -224q-41 0 -66 14l20 42q20 -9 52 -9q44 0 81 37t87 126l-83 450q-52 5 -82 5l6 36q38 5 119 5l64 -357q12 -76 12 -81h1q4 13 37 80l170 353h55l-211 -417q-36 -71 -56 -107t-47 -77t-48.5 -58.5t-49.5 -29.5t-61 -12zM260 540l117 122h79l-148 -122h-48z" />
    <glyph glyph-name="thorn" unicode="&#xfe;" horiz-adv-x="489" 
d="M-70 -218l6 36q30 6 83 6l153 855q-41 4 -82 4l7 36q42 6 137 6l-21 -101l-27 -148q-24 -124 -38 -182h1q81 194 196 194q53 0 81 -39.5t28 -104.5q0 -90 -30 -169t-94 -132.5t-150 -53.5q-39 0 -79 7l-31 -172q50 0 80 -6l-6 -36h-214zM187 31q67 0 117.5 47t74 115
t23.5 144q0 107 -67 107q-39 0 -76 -34.5t-64 -88t-46 -109.5t-29 -108l-11 -65q38 -8 78 -8z" />
    <glyph glyph-name="ydieresis" unicode="&#xff;" horiz-adv-x="462" 
d="M2 -224q-41 0 -66 14l20 42q20 -9 52 -9q44 0 81 37t87 126l-83 450q-52 5 -82 5l6 36q38 5 119 5l64 -357q12 -76 12 -81h1q4 13 37 80l170 353h55l-211 -417q-36 -71 -56 -107t-47 -77t-48.5 -58.5t-49.5 -29.5t-61 -12zM210 545q-16 0 -27 11t-11 28t11 28t27 11
q17 0 27.5 -11t10.5 -28t-11 -28t-27 -11zM377 545q-16 0 -27 11t-11 28t11 28t27 11q17 0 27.5 -11t10.5 -28t-11 -28t-27 -11z" />
    <glyph glyph-name="Amacron" unicode="&#x100;" horiz-adv-x="651" 
d="M-41 0l6 36q18 4 66 6l344 624h54l111 -624q41 0 71 -6l-6 -36h-199l6 36q30 6 73 6l-27 160h-287l-87 -160q44 0 74 -6l-6 -36h-193zM196 247h254l-41 237l-19 120h-1q-10 -19 -33.5 -65t-29.5 -56zM290 769l8 44h249l-8 -44h-249z" />
    <glyph glyph-name="amacron" unicode="&#x101;" horiz-adv-x="493" 
d="M145 -11q-53 0 -81 37.5t-28 102.5q0 91 29 170.5t93.5 134t153.5 54.5q72 0 123 -15l-47 -260q-1 -4 -28 -171q51 0 81 -6l-6 -36h-131q23 133 36 183h-2q-81 -194 -193 -194zM156 33q49 0 96 58.5t76 134.5t40 147l10 65q-34 8 -78 8q-66 0 -116 -47t-73.5 -116
t-23.5 -145q0 -105 69 -105zM174 581l8 44h249l-8 -44h-249z" />
    <glyph glyph-name="Abreve" unicode="&#x102;" horiz-adv-x="651" 
d="M-41 0l6 36q18 4 66 6l344 624h54l111 -624q41 0 71 -6l-6 -36h-199l6 36q30 6 73 6l-27 160h-287l-87 -160q44 0 74 -6l-6 -36h-193zM196 247h254l-41 237l-19 120h-1q-10 -19 -33.5 -65t-29.5 -56zM416 726q-55 0 -85.5 39t-26.5 100h44q-4 -39 14.5 -67.5t55.5 -28.5
t65 28t38 68h45q-16 -62 -57.5 -100.5t-92.5 -38.5z" />
    <glyph glyph-name="abreve" unicode="&#x103;" horiz-adv-x="493" 
d="M145 -11q-53 0 -81 37.5t-28 102.5q0 91 29 170.5t93.5 134t153.5 54.5q72 0 123 -15l-47 -260q-1 -4 -28 -171q51 0 81 -6l-6 -36h-131q23 133 36 183h-2q-81 -194 -193 -194zM156 33q49 0 96 58.5t76 134.5t40 147l10 65q-34 8 -78 8q-66 0 -116 -47t-73.5 -116
t-23.5 -145q0 -105 69 -105zM300 538q-55 0 -85.5 39t-26.5 100h44q-4 -39 14.5 -67.5t55.5 -28.5t65 28t38 68h45q-16 -62 -57.5 -100.5t-92.5 -38.5z" />
    <glyph glyph-name="Aogonek" unicode="&#x104;" horiz-adv-x="651" 
d="M-41 0l6 36q18 4 66 6l344 624h54l111 -624q41 0 71 -6l-6 -36h-199l6 36q30 6 73 6l-27 160h-287l-87 -160q44 0 74 -6l-6 -36h-193zM196 247h254l-41 237l-19 120h-1q-10 -19 -33.5 -65t-29.5 -56zM500 -215q-39 0 -61 20t-22 53q0 65 81 142h39q-74 -80 -74 -134
q0 -21 13 -32.5t34 -11.5q26 0 47 10l8 -30q-28 -17 -65 -17z" />
    <glyph glyph-name="aogonek" unicode="&#x105;" horiz-adv-x="493" 
d="M145 -11q-53 0 -81 37.5t-28 102.5q0 91 29 170.5t93.5 134t153.5 54.5q72 0 123 -15l-47 -260q-1 -4 -28 -171q51 0 81 -6l-6 -36h-131q23 133 36 183h-2q-81 -194 -193 -194zM156 33q49 0 96 58.5t76 134.5t40 147l10 65q-34 8 -78 8q-66 0 -116 -47t-73.5 -116
t-23.5 -145q0 -105 69 -105zM349 -215q-39 0 -61 20t-22 53q0 65 81 142h39q-74 -80 -74 -134q0 -21 13 -32.5t34 -11.5q26 0 47 10l8 -30q-28 -17 -65 -17z" />
    <glyph glyph-name="Cacute" unicode="&#x106;" horiz-adv-x="637" 
d="M412 728l117 122h79l-148 -122h-48zM335 -11q-131 0 -204 79.5t-73 199.5q0 172 114.5 290.5t279.5 118.5q120 0 179 -42l-23 -130h-43q0 28 11 103q-49 24 -132 24q-144 0 -237 -104.5t-93 -254.5q0 -104 58.5 -171.5t167.5 -67.5q99 0 167 39q12 75 25 106h42l-22 -129
q-33 -28 -96.5 -44.5t-120.5 -16.5z" />
    <glyph glyph-name="cacute" unicode="&#x107;" horiz-adv-x="414" 
d="M259 540l117 122h79l-148 -122h-48zM183 -11q-71 0 -109.5 50t-38.5 135q0 127 74 220.5t177 93.5q69 0 108 -32l-20 -114h-41q0 30 10 92q-25 12 -63 12q-78 0 -135.5 -80t-57.5 -186q0 -71 25.5 -109.5t76.5 -38.5q70 0 126 61l28 -33q-71 -71 -160 -71z" />
    <glyph glyph-name="Ccircumflex" unicode="&#x108;" horiz-adv-x="637" 
d="M303 729l144 147h32l92 -147h-44l-71 97l-103 -97h-50zM335 -11q-131 0 -204 79.5t-73 199.5q0 172 114.5 290.5t279.5 118.5q120 0 179 -42l-23 -130h-43q0 28 11 103q-49 24 -132 24q-144 0 -237 -104.5t-93 -254.5q0 -104 58.5 -171.5t167.5 -67.5q99 0 167 39
q12 75 25 106h42l-22 -129q-33 -28 -96.5 -44.5t-120.5 -16.5z" />
    <glyph glyph-name="ccircumflex" unicode="&#x109;" horiz-adv-x="414" 
d="M151 541l144 147h32l92 -147h-44l-71 97l-103 -97h-50zM183 -11q-71 0 -109.5 50t-38.5 135q0 127 74 220.5t177 93.5q69 0 108 -32l-20 -114h-41q0 30 10 92q-25 12 -63 12q-78 0 -135.5 -80t-57.5 -186q0 -71 25.5 -109.5t76.5 -38.5q70 0 126 61l28 -33
q-71 -71 -160 -71z" />
    <glyph glyph-name="Cdotaccent" unicode="&#x10a;" horiz-adv-x="637" 
d="M335 -11q-131 0 -204 79.5t-73 199.5q0 172 114.5 290.5t279.5 118.5q120 0 179 -42l-23 -130h-43q0 28 11 103q-49 24 -132 24q-144 0 -237 -104.5t-93 -254.5q0 -104 58.5 -171.5t167.5 -67.5q99 0 167 39q12 75 25 106h42l-22 -129q-33 -28 -96.5 -44.5t-120.5 -16.5z
M450 763q-17 0 -29 12.5t-12 30.5t12 30.5t29 12.5t29 -12.5t12 -30.5t-12 -30.5t-29 -12.5z" />
    <glyph glyph-name="cdotaccent" unicode="&#x10b;" horiz-adv-x="414" 
d="M183 -11q-71 0 -109.5 50t-38.5 135q0 127 74 220.5t177 93.5q69 0 108 -32l-20 -114h-41q0 30 10 92q-25 12 -63 12q-78 0 -135.5 -80t-57.5 -186q0 -71 25.5 -109.5t76.5 -38.5q70 0 126 61l28 -33q-71 -71 -160 -71zM299 575q-17 0 -29 12.5t-12 30.5t12 30.5t29 12.5
t29 -12.5t12 -30.5t-12 -30.5t-29 -12.5z" />
    <glyph glyph-name="Ccaron" unicode="&#x10c;" horiz-adv-x="637" 
d="M423 727l-94 148h44l72 -97l106 97h50l-147 -148h-31zM335 -11q-131 0 -204 79.5t-73 199.5q0 172 114.5 290.5t279.5 118.5q120 0 179 -42l-23 -130h-43q0 28 11 103q-49 24 -132 24q-144 0 -237 -104.5t-93 -254.5q0 -104 58.5 -171.5t167.5 -67.5q99 0 167 39
q12 75 25 106h42l-22 -129q-33 -28 -96.5 -44.5t-120.5 -16.5z" />
    <glyph glyph-name="ccaron" unicode="&#x10d;" horiz-adv-x="414" 
d="M272 539l-94 148h44l72 -97l106 97h50l-147 -148h-31zM183 -11q-71 0 -109.5 50t-38.5 135q0 127 74 220.5t177 93.5q69 0 108 -32l-20 -114h-41q0 30 10 92q-25 12 -63 12q-78 0 -135.5 -80t-57.5 -186q0 -71 25.5 -109.5t76.5 -38.5q70 0 126 61l28 -33
q-71 -71 -160 -71z" />
    <glyph glyph-name="Dcaron" unicode="&#x10e;" horiz-adv-x="672" 
d="M366 727l-94 148h44l72 -97l106 97h50l-147 -148h-31zM-3 0l6 36q30 6 83 6l105 582q-49 0 -81 6l7 36h218q152 0 235.5 -69.5t83.5 -190.5q0 -177 -114 -291.5t-308 -114.5h-235zM141 44h100q160 0 258 99t98 257q0 110 -68.5 166t-200.5 56h-83z" />
    <glyph glyph-name="dcaron" unicode="&#x10f;" horiz-adv-x="503" 
d="M489 557l69 163h66l-97 -163h-38zM145 -11q-54 0 -81.5 39.5t-27.5 104.5q0 91 31.5 170.5t96 132t149.5 52.5q31 0 78 -7l36 198q-41 4 -82 4l6 36q46 6 137 6l-13 -60l-82 -452q-1 -5 -28 -171q51 0 81 -6l-7 -36h-130q15 105 35 182h-2q-15 -35 -32.5 -66t-42.5 -61
t-56.5 -48t-65.5 -18zM154 33q39 0 76.5 34t65 86.5t47 109.5t29.5 110l11 64q-38 9 -82 9q-65 0 -115.5 -47t-74.5 -115t-24 -142q0 -109 67 -109z" />
    <glyph glyph-name="Dcroat" unicode="&#x110;" horiz-adv-x="678" 
d="M3 0l6 36q32 6 83 6l51 281h-71l8 43h71l46 258q-50 0 -80 6l6 36h218q152 0 235.5 -69.5t83.5 -190.5q0 -177 -114 -291.5t-307 -114.5h-236zM147 44h100q160 0 258.5 99t98.5 257q0 110 -68.5 166t-201.5 56h-83l-46 -256h118l-9 -43h-117z" />
    <glyph glyph-name="dslash" unicode="&#x111;" horiz-adv-x="503" 
d="M145 -11q-54 0 -81.5 39.5t-27.5 104.5q0 91 31.5 170.5t96 132t149.5 52.5q31 0 78 -7l15 88h-151l8 40h151l13 70q-41 4 -82 4l6 36q46 6 137 6l-13 -60l-10 -55h45l-8 -42h-45l-64 -355q-1 -5 -28 -171q51 0 81 -6l-7 -36h-130q15 105 35 182h-2q-15 -35 -32.5 -66
t-42.5 -61t-56.5 -48t-65.5 -18zM154 33q39 0 76.5 34t65 86.5t47 109.5t29.5 110l11 64q-38 9 -82 9q-65 0 -115.5 -47t-74.5 -115t-24 -142q0 -109 67 -109z" />
    <glyph glyph-name="Emacron" unicode="&#x112;" horiz-adv-x="527" 
d="M-3 0l6 36q30 6 83 6l105 582q-49 0 -81 6l7 36h427l-25 -145h-44q0 37 10 101h-241l-46 -257h178q16 62 19 70h38l-33 -186h-38q0 26 7 73h-178l-50 -278h246q10 62 25 97h43l-26 -141h-432zM235 769l8 44h249l-8 -44h-249z" />
    <glyph glyph-name="emacron" unicode="&#x113;" horiz-adv-x="422" 
d="M182 -11q-73 0 -110 50.5t-37 127.5q0 129 72.5 225t177.5 96q51 0 83.5 -26.5t32.5 -75.5q0 -146 -314 -188v-24q0 -142 102 -142q72 0 130 62l28 -33q-72 -72 -165 -72zM276 446q-65 0 -116 -61t-67 -148q113 16 184 52t71 93q0 29 -19 46.5t-53 17.5zM156 581l8 44
h249l-8 -44h-249z" />
    <glyph glyph-name="Ebreve" unicode="&#x114;" horiz-adv-x="527" 
d="M-3 0l6 36q30 6 83 6l105 582q-49 0 -81 6l7 36h427l-25 -145h-44q0 37 10 101h-241l-46 -257h178q16 62 19 70h38l-33 -186h-38q0 26 7 73h-178l-50 -278h246q10 62 25 97h43l-26 -141h-432zM361 726q-55 0 -85.5 39t-26.5 100h44q-4 -39 14.5 -67.5t55.5 -28.5t65 28
t38 68h45q-16 -62 -57.5 -100.5t-92.5 -38.5z" />
    <glyph glyph-name="ebreve" unicode="&#x115;" horiz-adv-x="422" 
d="M182 -11q-73 0 -110 50.5t-37 127.5q0 129 72.5 225t177.5 96q51 0 83.5 -26.5t32.5 -75.5q0 -146 -314 -188v-24q0 -142 102 -142q72 0 130 62l28 -33q-72 -72 -165 -72zM276 446q-65 0 -116 -61t-67 -148q113 16 184 52t71 93q0 29 -19 46.5t-53 17.5zM282 538
q-55 0 -85.5 39t-26.5 100h44q-4 -39 14.5 -67.5t55.5 -28.5t65 28t38 68h45q-16 -62 -57.5 -100.5t-92.5 -38.5z" />
    <glyph glyph-name="Edotaccent" unicode="&#x116;" horiz-adv-x="527" 
d="M-3 0l6 36q30 6 83 6l105 582q-49 0 -81 6l7 36h427l-25 -145h-44q0 37 10 101h-241l-46 -257h178q16 62 19 70h38l-33 -186h-38q0 26 7 73h-178l-50 -278h246q10 62 25 97h43l-26 -141h-432zM369 763q-17 0 -29 12.5t-12 30.5t12 30.5t29 12.5t29 -12.5t12 -30.5
t-12 -30.5t-29 -12.5z" />
    <glyph glyph-name="edotaccent" unicode="&#x117;" horiz-adv-x="422" 
d="M182 -11q-73 0 -110 50.5t-37 127.5q0 129 72.5 225t177.5 96q51 0 83.5 -26.5t32.5 -75.5q0 -146 -314 -188v-24q0 -142 102 -142q72 0 130 62l28 -33q-72 -72 -165 -72zM276 446q-65 0 -116 -61t-67 -148q113 16 184 52t71 93q0 29 -19 46.5t-53 17.5zM290 575
q-17 0 -29 12.5t-12 30.5t12 30.5t29 12.5t29 -12.5t12 -30.5t-12 -30.5t-29 -12.5z" />
    <glyph glyph-name="Eogonek" unicode="&#x118;" horiz-adv-x="527" 
d="M337 -215q-39 0 -61 20t-22 53q0 65 81 142h39q-74 -80 -74 -134q0 -21 13 -32.5t34 -11.5q26 0 47 10l8 -30q-28 -17 -65 -17zM-3 0l6 36q30 6 83 6l105 582q-49 0 -81 6l7 36h427l-25 -145h-44q0 37 10 101h-241l-46 -257h178q16 62 19 70h38l-33 -186h-38q0 26 7 73
h-178l-50 -278h246q10 62 25 97h43l-26 -141h-432z" />
    <glyph glyph-name="eogonek" unicode="&#x119;" horiz-adv-x="422" 
d="M225 -215q-42 0 -63 22.5t-21 57.5t20.5 70.5t46.5 54.5q-4 -1 -13 -1h-13q-73 0 -110 50.5t-37 127.5q0 129 72.5 225t177.5 96q51 0 83.5 -26.5t32.5 -75.5q0 -146 -314 -188v-24q0 -142 102 -142q72 0 130 62l28 -33q-31 -28 -76 -55q-36 -22 -60 -59t-24 -75
q0 -21 13 -35t34 -14q29 0 48 10l7 -31q-28 -17 -64 -17zM276 446q-65 0 -116 -61t-67 -148q113 16 184 52t71 93q0 29 -19 46.5t-53 17.5z" />
    <glyph glyph-name="Ecaron" unicode="&#x11a;" horiz-adv-x="527" 
d="M342 727l-94 148h44l72 -97l106 97h50l-147 -148h-31zM-3 0l6 36q30 6 83 6l105 582q-49 0 -81 6l7 36h427l-25 -145h-44q0 37 10 101h-241l-46 -257h178q16 62 19 70h38l-33 -186h-38q0 26 7 73h-178l-50 -278h246q10 62 25 97h43l-26 -141h-432z" />
    <glyph glyph-name="ecaron" unicode="&#x11b;" horiz-adv-x="422" 
d="M263 539l-94 148h44l72 -97l106 97h50l-147 -148h-31zM182 -11q-73 0 -110 50.5t-37 127.5q0 129 72.5 225t177.5 96q51 0 83.5 -26.5t32.5 -75.5q0 -146 -314 -188v-24q0 -142 102 -142q72 0 130 62l28 -33q-72 -72 -165 -72zM276 446q-65 0 -116 -61t-67 -148
q113 16 184 52t71 93q0 29 -19 46.5t-53 17.5z" />
    <glyph glyph-name="Gcircumflex" unicode="&#x11c;" horiz-adv-x="705" 
d="M311 729l144 147h32l92 -147h-44l-71 97l-103 -97h-50zM353 -11q-142 0 -218.5 77.5t-76.5 202.5q0 170 113 289t277 119q62 0 117.5 -16t83.5 -37l-23 -129h-43q0 27 11 104q-64 33 -154 33q-141 0 -233.5 -104.5t-92.5 -254.5q0 -110 61 -174.5t181 -64.5q113 0 175 52
l30 165q-59 2 -78 7l6 35h204l-6 -36q-18 -4 -73 -6l-35 -192q-83 -70 -226 -70z" />
    <glyph glyph-name="gcircumflex" unicode="&#x11d;" horiz-adv-x="487" 
d="M160 541l144 147h32l92 -147h-44l-71 97l-103 -97h-50zM123 -229q-78 0 -131 44l27 39q46 -38 111 -38q142 0 174 185q1 4 4.5 26t5.5 26q13 68 28 128h-1q-32 -77 -83 -134.5t-115 -57.5q-53 0 -80 39.5t-27 104.5q0 142 75.5 248.5t201.5 106.5q62 0 127 -13l-87 -478
q-21 -115 -75.5 -170.5t-154.5 -55.5zM154 33q40 0 77.5 34t65 87t46.5 109.5t29 109.5l11 65q-34 8 -82 8q-66 0 -116 -46.5t-73.5 -114.5t-23.5 -143q0 -109 66 -109z" />
    <glyph glyph-name="Gbreve" unicode="&#x11e;" horiz-adv-x="705" 
d="M353 -11q-142 0 -218.5 77.5t-76.5 202.5q0 170 113 289t277 119q62 0 117.5 -16t83.5 -37l-23 -129h-43q0 27 11 104q-64 33 -154 33q-141 0 -233.5 -104.5t-92.5 -254.5q0 -110 61 -174.5t181 -64.5q113 0 175 52l30 165q-59 2 -78 7l6 35h204l-6 -36q-18 -4 -73 -6
l-35 -192q-83 -70 -226 -70zM450 726q-55 0 -85.5 39t-26.5 100h44q-4 -39 14.5 -67.5t55.5 -28.5t65 28t38 68h45q-16 -62 -57.5 -100.5t-92.5 -38.5z" />
    <glyph glyph-name="gbreve" unicode="&#x11f;" horiz-adv-x="487" 
d="M123 -229q-78 0 -131 44l27 39q46 -38 111 -38q142 0 174 185q1 4 4.5 26t5.5 26q13 68 28 128h-1q-32 -77 -83 -134.5t-115 -57.5q-53 0 -80 39.5t-27 104.5q0 142 75.5 248.5t201.5 106.5q62 0 127 -13l-87 -478q-21 -115 -75.5 -170.5t-154.5 -55.5zM154 33
q40 0 77.5 34t65 87t46.5 109.5t29 109.5l11 65q-34 8 -82 8q-66 0 -116 -46.5t-73.5 -114.5t-23.5 -143q0 -109 66 -109zM300 538q-55 0 -85.5 39t-26.5 100h44q-4 -39 14.5 -67.5t55.5 -28.5t65 28t38 68h45q-16 -62 -57.5 -100.5t-92.5 -38.5z" />
    <glyph glyph-name="Gdotaccent" unicode="&#x120;" horiz-adv-x="705" 
d="M353 -11q-142 0 -218.5 77.5t-76.5 202.5q0 170 113 289t277 119q62 0 117.5 -16t83.5 -37l-23 -129h-43q0 27 11 104q-64 33 -154 33q-141 0 -233.5 -104.5t-92.5 -254.5q0 -110 61 -174.5t181 -64.5q113 0 175 52l30 165q-59 2 -78 7l6 35h204l-6 -36q-18 -4 -73 -6
l-35 -192q-83 -70 -226 -70zM458 763q-17 0 -29 12.5t-12 30.5t12 30.5t29 12.5t29 -12.5t12 -30.5t-12 -30.5t-29 -12.5z" />
    <glyph glyph-name="gdotaccent" unicode="&#x121;" horiz-adv-x="487" 
d="M123 -229q-78 0 -131 44l27 39q46 -38 111 -38q142 0 174 185q1 4 4.5 26t5.5 26q13 68 28 128h-1q-32 -77 -83 -134.5t-115 -57.5q-53 0 -80 39.5t-27 104.5q0 142 75.5 248.5t201.5 106.5q62 0 127 -13l-87 -478q-21 -115 -75.5 -170.5t-154.5 -55.5zM154 33
q40 0 77.5 34t65 87t46.5 109.5t29 109.5l11 65q-34 8 -82 8q-66 0 -116 -46.5t-73.5 -114.5t-23.5 -143q0 -109 66 -109zM308 575q-17 0 -29 12.5t-12 30.5t12 30.5t29 12.5t29 -12.5t12 -30.5t-12 -30.5t-29 -12.5z" />
    <glyph glyph-name="Gcommaaccent" unicode="&#x122;" horiz-adv-x="705" 
d="M325 -59q15 0 25 -9t10 -26q0 -34 -23.5 -67.5t-51.5 -55.5l-19 15q40 37 40 65q0 8 -7.5 21t-7.5 23q0 14 10 24t24 10zM353 -11q-142 0 -218.5 77.5t-76.5 202.5q0 170 113 289t277 119q62 0 117.5 -16t83.5 -37l-23 -129h-43q0 27 11 104q-64 33 -154 33
q-141 0 -233.5 -104.5t-92.5 -254.5q0 -110 61 -174.5t181 -64.5q113 0 175 52l30 165q-59 2 -78 7l6 35h204l-6 -36q-18 -4 -73 -6l-35 -192q-83 -70 -226 -70z" />
    <glyph glyph-name="gcommaaccent" unicode="&#x123;" horiz-adv-x="487" 
d="M298 540q-15 0 -25 9t-10 26q0 34 24 69t51 54l19 -15q-40 -37 -40 -65q0 -9 7.5 -21.5t7.5 -22.5q0 -14 -10 -24t-24 -10zM123 -229q-78 0 -131 44l27 39q46 -38 111 -38q142 0 174 185q1 4 4.5 26t5.5 26q13 68 28 128h-1q-32 -77 -83 -134.5t-115 -57.5
q-53 0 -80 39.5t-27 104.5q0 142 75.5 248.5t201.5 106.5q62 0 127 -13l-87 -478q-21 -115 -75.5 -170.5t-154.5 -55.5zM154 33q40 0 77.5 34t65 87t46.5 109.5t29 109.5l11 65q-34 8 -82 8q-66 0 -116 -46.5t-73.5 -114.5t-23.5 -143q0 -109 66 -109z" />
    <glyph glyph-name="Hcircumflex" unicode="&#x124;" horiz-adv-x="740" 
d="M317 729l144 147h32l92 -147h-44l-71 97l-103 -97h-50zM-3 0l6 36q30 6 83 6l104 582q-50 0 -80 6l6 36h218l-6 -36q-30 -6 -84 -6l-44 -250h389l45 250q-49 0 -81 6l7 36h217l-6 -36q-30 -6 -83 -6l-105 -582q51 0 81 -6l-6 -36h-218l6 36q30 6 83 6l52 288h-389
l-52 -288q51 0 81 -6l-6 -36h-218z" />
    <glyph glyph-name="hcircumflex" unicode="&#x125;" horiz-adv-x="534" 
d="M246 783l144 147h32l92 -147h-44l-71 97l-103 -97h-50zM50 0l124 679q-41 4 -83 4l7 36q46 6 137 6l-15 -66l-32 -182q-17 -94 -39 -193h1q13 33 29 62.5t41.5 64.5t62 56t77.5 21q59 0 82 -41.5t10 -114.5l-53 -290q51 0 81 -6l-7 -36h-132l58 326q21 118 -53 118
t-138 -106t-95 -269l-12 -69h-51z" />
    <glyph glyph-name="Itilde" unicode="&#x128;" horiz-adv-x="298" 
d="M-3 0l6 36q30 6 83 6l105 582q-49 0 -81 6l7 36h218l-7 -36q-30 -6 -83 -6l-105 -582q51 0 81 -6l-6 -36h-218zM286 734q-24 0 -52 21t-45 21q-6 0 -12 -1.5t-9.5 -3t-10 -6t-8.5 -6.5t-8.5 -7.5t-7.5 -6.5l-22 26q40 50 86 50q23 0 51 -21t46 -21q31 0 58 31l22 -26
q-42 -50 -88 -50z" />
    <glyph glyph-name="itilde" unicode="&#x129;" horiz-adv-x="261" 
d="M62 0l79 437q-41 4 -82 4l6 36q38 5 139 5l-17 -70l-67 -370q50 0 80 -6l-6 -36h-132zM234 546q-24 0 -52 21t-45 21q-6 0 -12 -1.5t-9.5 -3t-10 -6t-8.5 -6.5t-8.5 -7.5t-7.5 -6.5l-22 26q40 50 86 50q23 0 51 -21t46 -21q31 0 58 31l22 -26q-42 -50 -88 -50z" />
    <glyph glyph-name="Imacron" unicode="&#x12a;" horiz-adv-x="298" 
d="M-3 0l6 36q30 6 83 6l105 582q-49 0 -81 6l7 36h218l-7 -36q-30 -6 -83 -6l-105 -582q51 0 81 -6l-6 -36h-218zM116 769l8 44h249l-8 -44h-249z" />
    <glyph glyph-name="imacron" unicode="&#x12b;" horiz-adv-x="261" 
d="M62 0l79 437q-41 4 -82 4l6 36q38 5 139 5l-17 -70l-67 -370q50 0 80 -6l-6 -36h-132zM64 581l8 44h249l-8 -44h-249z" />
    <glyph glyph-name="Ibreve" unicode="&#x12c;" horiz-adv-x="298" 
d="M-3 0l6 36q30 6 83 6l105 582q-49 0 -81 6l7 36h218l-7 -36q-30 -6 -83 -6l-105 -582q51 0 81 -6l-6 -36h-218zM242 726q-55 0 -85.5 39t-26.5 100h44q-4 -39 14.5 -67.5t55.5 -28.5t65 28t38 68h45q-16 -62 -57.5 -100.5t-92.5 -38.5z" />
    <glyph glyph-name="ibreve" unicode="&#x12d;" horiz-adv-x="261" 
d="M62 0l79 437q-41 4 -82 4l6 36q38 5 139 5l-17 -70l-67 -370q50 0 80 -6l-6 -36h-132zM189 538q-55 0 -85.5 39t-26.5 100h44q-4 -39 14.5 -67.5t55.5 -28.5t65 28t38 68h45q-16 -62 -57.5 -100.5t-92.5 -38.5z" />
    <glyph glyph-name="Iogonek" unicode="&#x12e;" horiz-adv-x="298" 
d="M-3 0l6 36q30 6 83 6l105 582q-49 0 -81 6l7 36h218l-7 -36q-30 -6 -83 -6l-105 -582q51 0 81 -6l-6 -36h-218zM90 -215q-39 0 -61 20t-22 53q0 65 81 142h39q-74 -80 -74 -134q0 -21 13 -32.5t34 -11.5q26 0 47 10l8 -30q-28 -17 -65 -17z" />
    <glyph glyph-name="iogonek" unicode="&#x12f;" horiz-adv-x="261" 
d="M62 0l79 437q-41 4 -82 4l6 36q38 5 139 5l-17 -70l-67 -370q50 0 80 -6l-6 -36h-132zM196 577q-16 0 -28 11.5t-12 27.5q0 18 13 31t30 13q16 0 27.5 -11.5t11.5 -28.5q0 -18 -12.5 -30.5t-29.5 -12.5zM108 -215q-39 0 -61 20t-22 53q0 65 81 142h39q-74 -80 -74 -134
q0 -21 13 -32.5t34 -11.5q26 0 47 10l8 -30q-28 -17 -65 -17z" />
    <glyph glyph-name="Idot" unicode="&#x130;" horiz-adv-x="298" 
d="M-3 0l6 36q30 6 83 6l105 582q-49 0 -81 6l7 36h218l-7 -36q-30 -6 -83 -6l-105 -582q51 0 81 -6l-6 -36h-218zM249 763q-17 0 -29 12.5t-12 30.5t12 30.5t29 12.5t29 -12.5t12 -30.5t-12 -30.5t-29 -12.5z" />
    <glyph glyph-name="dotlessi" unicode="&#x131;" horiz-adv-x="261" 
d="M62 0l79 437q-41 4 -82 4l6 36q38 5 139 5l-17 -70l-67 -370q50 0 80 -6l-6 -36h-132z" />
    <glyph glyph-name="Kcommaaccent" unicode="&#x136;" horiz-adv-x="607" 
d="M256 -59q15 0 25 -9t10 -26q0 -34 -23.5 -67.5t-51.5 -55.5l-19 15q40 37 40 65q0 8 -7.5 21t-7.5 23q0 14 10 24t24 10zM347 0l5 36q30 6 74 6l-218 306l294 276q-54 2 -71 6l6 36h206l-6 -36q-18 -4 -70 -6l-298 -277l222 -305q55 -2 75 -6l-6 -36h-213zM-3 0l6 36
q30 6 83 6l105 582q-49 0 -81 6l7 36h218l-7 -36q-30 -6 -83 -6l-105 -582q51 0 81 -6l-6 -36h-218z" />
    <glyph glyph-name="kcommaaccent" unicode="&#x137;" horiz-adv-x="458" 
d="M187 -59q15 0 25 -9t10 -26q0 -34 -23.5 -67.5t-51.5 -55.5l-19 15q40 37 40 65q0 8 -7.5 21t-7.5 23q0 14 10 24t24 10zM51 0l120 679q-41 4 -82 4l6 36q46 6 138 6l-16 -70l-115 -655h-51zM327 0l-171 269l236 208h67l-245 -211l144 -224q48 0 78 -6l-6 -36h-103z" />
    <glyph glyph-name="Lacute" unicode="&#x139;" horiz-adv-x="480" 
d="M209 728l117 122h79l-148 -122h-48zM-3 0l6 36q30 6 83 6l105 582q-51 0 -81 6l6 36h219l-7 -36q-30 -6 -84 -6l-103 -580h225q8 57 25 104h41l-25 -148h-410z" />
    <glyph glyph-name="lacute" unicode="&#x13a;" horiz-adv-x="249" 
d="M191 782l117 122h79l-148 -122h-48zM50 0l122 679q-41 4 -82 4l7 36q46 6 138 6l-16 -70l-111 -613q51 0 81 -6l-6 -36h-133z" />
    <glyph glyph-name="Lcommaaccent" unicode="&#x13b;" horiz-adv-x="480" 
d="M223 -59q15 0 25 -9t10 -26q0 -34 -23.5 -67.5t-51.5 -55.5l-19 15q40 37 40 65q0 8 -7.5 21t-7.5 23q0 14 10 24t24 10zM-3 0l6 36q30 6 83 6l105 582q-51 0 -81 6l6 36h219l-7 -36q-30 -6 -84 -6l-103 -580h225q8 57 25 104h41l-25 -148h-410z" />
    <glyph glyph-name="lcommaaccent" unicode="&#x13c;" horiz-adv-x="249" 
d="M62 -59q15 0 25 -9t10 -26q0 -34 -23.5 -67.5t-51.5 -55.5l-19 15q40 37 40 65q0 8 -7.5 21t-7.5 23q0 14 10 24t24 10zM50 0l122 679q-41 4 -82 4l7 36q46 6 138 6l-16 -70l-111 -613q51 0 81 -6l-6 -36h-133z" />
    <glyph glyph-name="Lcaron" unicode="&#x13d;" horiz-adv-x="480" 
d="M331 504l69 163h66l-97 -163h-38zM-3 0l6 36q30 6 83 6l105 582q-51 0 -81 6l6 36h219l-7 -36q-30 -6 -84 -6l-103 -580h225q8 57 25 104h41l-25 -148h-410z" />
    <glyph glyph-name="lcaron" unicode="&#x13e;" horiz-adv-x="249" 
d="M235 557l69 163h66l-97 -163h-38zM50 0l122 679q-41 4 -82 4l7 36q46 6 138 6l-16 -70l-111 -613q51 0 81 -6l-6 -36h-133z" />
    <glyph glyph-name="Ldot" unicode="&#x13f;" horiz-adv-x="480" 
d="M-3 0l6 36q30 6 83 6l105 582q-51 0 -81 6l6 36h219l-7 -36q-30 -6 -84 -6l-103 -580h225q8 57 25 104h41l-25 -148h-410zM338 310q-17 0 -29 12.5t-12 30.5t12 30.5t29 12.5t29 -12.5t12 -30.5t-12 -30.5t-29 -12.5z" />
    <glyph glyph-name="ldot" unicode="&#x140;" horiz-adv-x="271" 
d="M50 0l122 679q-41 4 -82 4l7 36q46 6 138 6l-16 -70l-111 -613q51 0 81 -6l-6 -36h-133zM267 252q-17 0 -29 12.5t-12 30.5t12 30.5t29 12.5t29 -12.5t12 -30.5t-12 -30.5t-29 -12.5z" />
    <glyph glyph-name="Lslash" unicode="&#x141;" horiz-adv-x="488" 
d="M5 0l6 36q30 6 83 6l46 257l-92 -67l-19 31l121 89l49 272q-51 0 -81 6l6 36h219l-7 -36q-30 -6 -84 -6l-40 -228l126 94l22 -33l-158 -115l-53 -298h225q8 57 25 104h41l-25 -148h-410z" />
    <glyph glyph-name="lslash" unicode="&#x142;" horiz-adv-x="265" 
d="M58 0l53 295l-82 -62l10 54l83 63l59 329q-41 4 -84 4l6 36q42 6 139 6l-13 -58l-49 -274l92 71l-10 -55l-93 -70l-53 -297q51 0 81 -6l-6 -36h-133z" />
    <glyph glyph-name="Nacute" unicode="&#x143;" horiz-adv-x="710" 
d="M420 728l117 122h79l-148 -122h-48zM-3 0l6 36q30 6 83 6l105 582q-50 0 -80 6l6 36h131l238 -499q3 -7 19.5 -45t19.5 -45h2q0 9 6.5 49.5t10.5 55.5l78 442q-50 0 -80 6l6 36h211l-6 -36q-30 -6 -84 -6l-111 -624h-47l-241 503q-31 61 -38 88h-1l-16 -97l-82 -452
q51 0 81 -6l-6 -36h-211z" />
    <glyph glyph-name="nacute" unicode="&#x144;" horiz-adv-x="545" 
d="M300 540l117 122h79l-148 -122h-48zM62 0l79 437q-41 4 -82 4l6 36q38 5 137 5l-16 -70q-4 -14 -14.5 -67t-13.5 -63h2q83 206 212 206q58 0 81.5 -41.5t10.5 -114.5l-54 -290q51 0 81 -6l-6 -36h-133l59 326q21 118 -54 118q-74 0 -139 -106.5t-93 -268.5l-13 -69h-50z
" />
    <glyph glyph-name="Ncommaaccent" unicode="&#x145;" horiz-adv-x="710" 
d="M300 -59q15 0 25 -9t10 -26q0 -34 -23.5 -67.5t-51.5 -55.5l-19 15q40 37 40 65q0 8 -7.5 21t-7.5 23q0 14 10 24t24 10zM-3 0l6 36q30 6 83 6l105 582q-50 0 -80 6l6 36h131l238 -499q3 -7 19.5 -45t19.5 -45h2q0 9 6.5 49.5t10.5 55.5l78 442q-50 0 -80 6l6 36h211
l-6 -36q-30 -6 -84 -6l-111 -624h-47l-241 503q-31 61 -38 88h-1l-16 -97l-82 -452q51 0 81 -6l-6 -36h-211z" />
    <glyph glyph-name="ncommaaccent" unicode="&#x146;" horiz-adv-x="545" 
d="M219 -59q15 0 25 -9t10 -26q0 -34 -23.5 -67.5t-51.5 -55.5l-19 15q40 37 40 65q0 8 -7.5 21t-7.5 23q0 14 10 24t24 10zM62 0l79 437q-41 4 -82 4l6 36q38 5 137 5l-16 -70q-4 -14 -14.5 -67t-13.5 -63h2q83 206 212 206q58 0 81.5 -41.5t10.5 -114.5l-54 -290
q51 0 81 -6l-6 -36h-133l59 326q21 118 -54 118q-74 0 -139 -106.5t-93 -268.5l-13 -69h-50z" />
    <glyph glyph-name="Ncaron" unicode="&#x147;" horiz-adv-x="710" 
d="M430 727l-94 148h44l72 -97l106 97h50l-147 -148h-31zM-3 0l6 36q30 6 83 6l105 582q-50 0 -80 6l6 36h131l238 -499q3 -7 19.5 -45t19.5 -45h2q0 9 6.5 49.5t10.5 55.5l78 442q-50 0 -80 6l6 36h211l-6 -36q-30 -6 -84 -6l-111 -624h-47l-241 503q-31 61 -38 88h-1
l-16 -97l-82 -452q51 0 81 -6l-6 -36h-211z" />
    <glyph glyph-name="ncaron" unicode="&#x148;" horiz-adv-x="545" 
d="M311 539l-94 148h44l72 -97l106 97h50l-147 -148h-31zM62 0l79 437q-41 4 -82 4l6 36q38 5 137 5l-16 -70q-4 -14 -14.5 -67t-13.5 -63h2q83 206 212 206q58 0 81.5 -41.5t10.5 -114.5l-54 -290q51 0 81 -6l-6 -36h-133l59 326q21 118 -54 118q-74 0 -139 -106.5
t-93 -268.5l-13 -69h-50z" />
    <glyph glyph-name="napostrophe" unicode="&#x149;" horiz-adv-x="728" 
d="M111 473l-22 18q48 52 48 84q0 12 -9 28t-9 30q0 18 12 30t29 12q18 0 30.5 -13.5t12.5 -35.5q0 -41 -29.5 -84.5t-62.5 -68.5zM245 0l79 437q-41 4 -82 4l6 36q38 5 137 5l-16 -70q-4 -14 -14.5 -67t-13.5 -63h2q83 206 212 206q58 0 81.5 -41.5t10.5 -114.5l-54 -290
q51 0 81 -6l-6 -36h-133l59 326q21 118 -54 118q-74 0 -139 -106.5t-93 -268.5l-13 -69h-50z" />
    <glyph glyph-name="Omacron" unicode="&#x14c;" horiz-adv-x="713" 
d="M312 769l8 44h249l-8 -44h-249zM328 -11q-124 0 -197 83t-73 201q0 104 43.5 195.5t127 150t188.5 58.5q127 0 199 -83t72 -202q0 -161 -100.5 -282t-259.5 -121zM333 34q131 0 215 107t84 248q0 102 -58.5 172.5t-161.5 70.5q-131 0 -215 -107t-84 -249
q0 -102 59.5 -172t160.5 -70z" />
    <glyph glyph-name="omacron" unicode="&#x14d;" horiz-adv-x="469" 
d="M165 581l8 44h249l-8 -44h-249zM193 -11q-55 0 -92.5 31t-52 73t-14.5 89q0 116 69.5 211t172.5 95q79 0 119.5 -56.5t40.5 -134.5q0 -120 -69.5 -214t-173.5 -94zM200 31q78 0 130.5 81t52.5 175q0 71 -27.5 115t-84.5 44q-80 0 -133 -82t-53 -178q0 -68 28 -111.5
t87 -43.5z" />
    <glyph glyph-name="Obreve" unicode="&#x14e;" horiz-adv-x="713" 
d="M328 -11q-124 0 -197 83t-73 201q0 104 43.5 195.5t127 150t188.5 58.5q127 0 199 -83t72 -202q0 -161 -100.5 -282t-259.5 -121zM333 34q131 0 215 107t84 248q0 102 -58.5 172.5t-161.5 70.5q-131 0 -215 -107t-84 -249q0 -102 59.5 -172t160.5 -70zM437 726
q-55 0 -85.5 39t-26.5 100h44q-4 -39 14.5 -67.5t55.5 -28.5t65 28t38 68h45q-16 -62 -57.5 -100.5t-92.5 -38.5z" />
    <glyph glyph-name="obreve" unicode="&#x14f;" horiz-adv-x="469" 
d="M193 -11q-55 0 -92.5 31t-52 73t-14.5 89q0 116 69.5 211t172.5 95q79 0 119.5 -56.5t40.5 -134.5q0 -120 -69.5 -214t-173.5 -94zM200 31q78 0 130.5 81t52.5 175q0 71 -27.5 115t-84.5 44q-80 0 -133 -82t-53 -178q0 -68 28 -111.5t87 -43.5zM291 538q-55 0 -85.5 39
t-26.5 100h44q-4 -39 14.5 -67.5t55.5 -28.5t65 28t38 68h45q-16 -62 -57.5 -100.5t-92.5 -38.5z" />
    <glyph glyph-name="Ohungarumlaut" unicode="&#x150;" horiz-adv-x="713" 
d="M319 728l107 122h77l-139 -122h-45zM464 728l106 122h77l-138 -122h-45zM328 -11q-124 0 -197 83t-73 201q0 104 43.5 195.5t127 150t188.5 58.5q127 0 199 -83t72 -202q0 -161 -100.5 -282t-259.5 -121zM333 34q131 0 215 107t84 248q0 102 -58.5 172.5t-161.5 70.5
q-131 0 -215 -107t-84 -249q0 -102 59.5 -172t160.5 -70z" />
    <glyph glyph-name="ohungarumlaut" unicode="&#x151;" horiz-adv-x="469" 
d="M170 540l107 122h77l-139 -122h-45zM315 540l106 122h77l-138 -122h-45zM193 -11q-55 0 -92.5 31t-52 73t-14.5 89q0 116 69.5 211t172.5 95q79 0 119.5 -56.5t40.5 -134.5q0 -120 -69.5 -214t-173.5 -94zM200 31q78 0 130.5 81t52.5 175q0 71 -27.5 115t-84.5 44
q-80 0 -133 -82t-53 -178q0 -68 28 -111.5t87 -43.5z" />
    <glyph glyph-name="OE" unicode="&#x152;" horiz-adv-x="860" 
d="M329 -11q-124 0 -197 82.5t-73 201.5q0 104 43.5 195.5t128 150t190.5 58.5q68 0 111 -11h346l-26 -145h-43q0 35 10 101h-244l-46 -257h181q16 66 18 70h39l-34 -186h-38q0 19 8 73h-181l-50 -278h249q10 65 24 97h43l-25 -141h-346q-39 -11 -88 -11zM334 35q42 0 84 14
l102 567q-38 15 -105 15q-89 0 -158.5 -51.5t-105.5 -131.5t-36 -172q0 -103 58.5 -172t160.5 -69z" />
    <glyph glyph-name="oe" unicode="&#x153;" horiz-adv-x="758" 
d="M193 -11q-55 0 -92.5 31t-52 73t-14.5 89q0 116 69 211t173 95q61 0 99 -38.5t49 -95.5q33 59 84 96.5t113 37.5q51 0 83.5 -26.5t32.5 -75.5q0 -146 -314 -188q-1 -2 -1 -12v-12q0 -66 25.5 -103.5t77.5 -37.5q73 0 129 62l29 -34q-72 -72 -165 -72q-57 0 -92 35t-46 89
q-29 -55 -78.5 -89.5t-108.5 -34.5zM198 32q53 0 97 40t67 98t23 117q0 71 -28 115t-86 44q-80 0 -134 -82.5t-54 -177.5q0 -67 29 -110.5t86 -43.5zM428 237q113 15 184.5 52t71.5 93q0 29 -19 46.5t-53 17.5q-66 0 -117 -61t-67 -148z" />
    <glyph glyph-name="Racute" unicode="&#x154;" horiz-adv-x="585" 
d="M332 728l117 122h79l-148 -122h-48zM502 -8q-34 0 -54.5 13.5t-35.5 42.5l-96 182q-31 57 -50.5 75t-51.5 18h-23l-51 -281q51 0 81 -6l-6 -36h-218l6 36q30 6 83 6l105 582q-50 0 -80 6l6 36h229q89 0 139 -38t50 -104q0 -90 -65 -143t-170 -55v-1q31 -11 63 -73
l95 -176q12 -23 28 -32.5t42 -9.5q14 0 23 3l-5 -37q-18 -8 -44 -8zM198 365h95q89 0 138 42t49 112q0 49 -37 76t-108 27h-90z" />
    <glyph glyph-name="racute" unicode="&#x155;" horiz-adv-x="360" 
d="M235 540l117 122h79l-148 -122h-48zM62 0l79 437q-41 4 -82 4l6 36q38 5 136 5q-16 -66 -22 -106q-20 -92 -21 -96h1q77 208 190 208q19 0 37 -5l-18 -48q-12 3 -26 3q-72 0 -130.5 -105.5t-86.5 -263.5l-13 -69h-50z" />
    <glyph glyph-name="Rcommaaccent" unicode="&#x156;" horiz-adv-x="585" 
d="M265 -59q15 0 25 -9t10 -26q0 -34 -23.5 -67.5t-51.5 -55.5l-19 15q40 37 40 65q0 8 -7.5 21t-7.5 23q0 14 10 24t24 10zM502 -8q-34 0 -54.5 13.5t-35.5 42.5l-96 182q-31 57 -50.5 75t-51.5 18h-23l-51 -281q51 0 81 -6l-6 -36h-218l6 36q30 6 83 6l105 582
q-50 0 -80 6l6 36h229q89 0 139 -38t50 -104q0 -90 -65 -143t-170 -55v-1q31 -11 63 -73l95 -176q12 -23 28 -32.5t42 -9.5q14 0 23 3l-5 -37q-18 -8 -44 -8zM198 365h95q89 0 138 42t49 112q0 49 -37 76t-108 27h-90z" />
    <glyph glyph-name="rcommaaccent" unicode="&#x157;" horiz-adv-x="360" 
d="M74 -59q15 0 25 -9t10 -26q0 -34 -23.5 -67.5t-51.5 -55.5l-19 15q40 37 40 65q0 8 -7.5 21t-7.5 23q0 14 10 24t24 10zM62 0l79 437q-41 4 -82 4l6 36q38 5 136 5q-16 -66 -22 -106q-20 -92 -21 -96h1q77 208 190 208q19 0 37 -5l-18 -48q-12 3 -26 3
q-72 0 -130.5 -105.5t-86.5 -263.5l-13 -69h-50z" />
    <glyph glyph-name="Rcaron" unicode="&#x158;" horiz-adv-x="585" 
d="M342 727l-94 148h44l72 -97l106 97h50l-147 -148h-31zM502 -8q-34 0 -54.5 13.5t-35.5 42.5l-96 182q-31 57 -50.5 75t-51.5 18h-23l-51 -281q51 0 81 -6l-6 -36h-218l6 36q30 6 83 6l105 582q-50 0 -80 6l6 36h229q89 0 139 -38t50 -104q0 -90 -65 -143t-170 -55v-1
q31 -11 63 -73l95 -176q12 -23 28 -32.5t42 -9.5q14 0 23 3l-5 -37q-18 -8 -44 -8zM198 365h95q89 0 138 42t49 112q0 49 -37 76t-108 27h-90z" />
    <glyph glyph-name="rcaron" unicode="&#x159;" horiz-adv-x="360" 
d="M248 539l-94 148h44l72 -97l106 97h50l-147 -148h-31zM62 0l79 437q-41 4 -82 4l6 36q38 5 136 5q-16 -66 -22 -106q-20 -92 -21 -96h1q77 208 190 208q19 0 37 -5l-18 -48q-12 3 -26 3q-72 0 -130.5 -105.5t-86.5 -263.5l-13 -69h-50z" />
    <glyph glyph-name="Sacute" unicode="&#x15a;" horiz-adv-x="459" 
d="M286 728l117 122h79l-148 -122h-48zM190 -11q-120 0 -180 64l23 127h42q0 -38 -11 -108q48 -39 130 -39q73 0 117 39.5t44 94.5q0 47 -28.5 80t-87.5 70q-67 40 -102 79.5t-35 103.5q0 78 61 127.5t145 49.5q49 0 91.5 -13t64.5 -32l-23 -131h-43q0 38 11 108
q-46 24 -104 24q-59 0 -104 -33t-45 -88q0 -48 28.5 -81t88.5 -70q35 -22 53 -35t41 -36t33 -50t10 -62q0 -80 -61 -134.5t-159 -54.5z" />
    <glyph glyph-name="sacute" unicode="&#x15b;" horiz-adv-x="388" 
d="M224 540l117 122h79l-148 -122h-48zM155 -11q-88 0 -133 39l19 106h41q0 -39 -8 -85q34 -18 86 -18q49 0 79 24.5t30 66.5q0 20 -6.5 36t-22 29.5t-25 20t-31.5 19.5t-33 21t-29 24.5t-26 38.5t-8 49q0 57 42 92.5t109 35.5q78 0 117 -29l-19 -112h-41q0 29 9 87
q-33 12 -68 12q-44 0 -71.5 -22.5t-27.5 -59.5q0 -25 15.5 -47.5t30 -32.5t39.5 -25q29 -16 45.5 -28.5t33.5 -40.5t17 -64q0 -61 -44.5 -99t-119.5 -38z" />
    <glyph glyph-name="Scircumflex" unicode="&#x15c;" horiz-adv-x="459" 
d="M176 729l144 147h32l92 -147h-44l-71 97l-103 -97h-50zM190 -11q-120 0 -180 64l23 127h42q0 -38 -11 -108q48 -39 130 -39q73 0 117 39.5t44 94.5q0 47 -28.5 80t-87.5 70q-67 40 -102 79.5t-35 103.5q0 78 61 127.5t145 49.5q49 0 91.5 -13t64.5 -32l-23 -131h-43
q0 38 11 108q-46 24 -104 24q-59 0 -104 -33t-45 -88q0 -48 28.5 -81t88.5 -70q35 -22 53 -35t41 -36t33 -50t10 -62q0 -80 -61 -134.5t-159 -54.5z" />
    <glyph glyph-name="scircumflex" unicode="&#x15d;" horiz-adv-x="388" 
d="M117 541l144 147h32l92 -147h-44l-71 97l-103 -97h-50zM155 -11q-88 0 -133 39l19 106h41q0 -39 -8 -85q34 -18 86 -18q49 0 79 24.5t30 66.5q0 20 -6.5 36t-22 29.5t-25 20t-31.5 19.5t-33 21t-29 24.5t-26 38.5t-8 49q0 57 42 92.5t109 35.5q78 0 117 -29l-19 -112h-41
q0 29 9 87q-33 12 -68 12q-44 0 -71.5 -22.5t-27.5 -59.5q0 -25 15.5 -47.5t30 -32.5t39.5 -25q29 -16 45.5 -28.5t33.5 -40.5t17 -64q0 -61 -44.5 -99t-119.5 -38z" />
    <glyph glyph-name="Scedilla" unicode="&#x15e;" horiz-adv-x="459" 
d="M190 -11q-120 0 -180 64l23 127h42q0 -38 -11 -108q48 -39 130 -39q73 0 117 39.5t44 94.5q0 47 -28.5 80t-87.5 70q-67 40 -102 79.5t-35 103.5q0 78 61 127.5t145 49.5q49 0 91.5 -13t64.5 -32l-23 -131h-43q0 38 11 108q-46 24 -104 24q-59 0 -104 -33t-45 -88
q0 -48 28.5 -81t88.5 -70q35 -22 53 -35t41 -36t33 -50t10 -62q0 -80 -61 -134.5t-159 -54.5zM157 -215q-32 0 -62 11l12 33q20 -10 49 -10q56 0 56 43q0 44 -73 42l38 99h37l-27 -74q31 -4 50.5 -22.5t19.5 -45.5q0 -36 -28 -56t-72 -20z" />
    <glyph glyph-name="scedilla" unicode="&#x15f;" horiz-adv-x="388" 
d="M155 -11q-88 0 -133 39l19 106h41q0 -39 -8 -85q34 -18 86 -18q49 0 79 24.5t30 66.5q0 20 -6.5 36t-22 29.5t-25 20t-31.5 19.5t-33 21t-29 24.5t-26 38.5t-8 49q0 57 42 92.5t109 35.5q78 0 117 -29l-19 -112h-41q0 29 9 87q-33 12 -68 12q-44 0 -71.5 -22.5
t-27.5 -59.5q0 -25 15.5 -47.5t30 -32.5t39.5 -25q29 -16 45.5 -28.5t33.5 -40.5t17 -64q0 -61 -44.5 -99t-119.5 -38zM125 -215q-32 0 -62 11l12 33q20 -10 49 -10q56 0 56 43q0 44 -73 42l38 99h37l-27 -74q31 -4 50.5 -22.5t19.5 -45.5q0 -36 -28 -56t-72 -20z" />
    <glyph glyph-name="Scaron" unicode="&#x160;" horiz-adv-x="459" 
d="M297 727l-94 148h44l72 -97l106 97h50l-147 -148h-31zM190 -11q-120 0 -180 64l23 127h42q0 -38 -11 -108q48 -39 130 -39q73 0 117 39.5t44 94.5q0 47 -28.5 80t-87.5 70q-67 40 -102 79.5t-35 103.5q0 78 61 127.5t145 49.5q49 0 91.5 -13t64.5 -32l-23 -131h-43
q0 38 11 108q-46 24 -104 24q-59 0 -104 -33t-45 -88q0 -48 28.5 -81t88.5 -70q35 -22 53 -35t41 -36t33 -50t10 -62q0 -80 -61 -134.5t-159 -54.5z" />
    <glyph glyph-name="scaron" unicode="&#x161;" horiz-adv-x="388" 
d="M237 539l-94 148h44l72 -97l106 97h50l-147 -148h-31zM155 -11q-88 0 -133 39l19 106h41q0 -39 -8 -85q34 -18 86 -18q49 0 79 24.5t30 66.5q0 20 -6.5 36t-22 29.5t-25 20t-31.5 19.5t-33 21t-29 24.5t-26 38.5t-8 49q0 57 42 92.5t109 35.5q78 0 117 -29l-19 -112h-41
q0 29 9 87q-33 12 -68 12q-44 0 -71.5 -22.5t-27.5 -59.5q0 -25 15.5 -47.5t30 -32.5t39.5 -25q29 -16 45.5 -28.5t33.5 -40.5t17 -64q0 -61 -44.5 -99t-119.5 -38z" />
    <glyph glyph-name="Tcommaaccent" unicode="&#x162;" horiz-adv-x="557" 
d="M127 0l5 36q32 6 84 6l104 580h-174q-8 -48 -25 -104h-44l26 148h505l-26 -148h-43q0 40 10 104h-175l-104 -580q50 0 80 -6l-5 -36h-218zM197 -215q-32 0 -62 11l12 33q20 -10 49 -10q56 0 56 43q0 44 -73 42l38 99h37l-27 -74q31 -4 50.5 -22.5t19.5 -45.5
q0 -36 -28 -56t-72 -20z" />
    <glyph glyph-name="tcommaaccent" unicode="&#x163;" horiz-adv-x="323" 
d="M152 -11q-98 0 -74 121l59 325h-86l7 42h87l25 135l52 12l-26 -147h118l-8 -42h-118l-57 -317q-10 -39 -4 -62t32 -23q45 0 92 49l26 -35q-58 -58 -125 -58zM118 -215q-32 0 -62 11l12 33q20 -10 49 -10q56 0 56 43q0 44 -73 42l38 99h37l-27 -74q31 -4 50.5 -22.5
t19.5 -45.5q0 -36 -28 -56t-72 -20z" />
    <glyph glyph-name="Tcaron" unicode="&#x164;" horiz-adv-x="557" 
d="M348 727l-94 148h44l72 -97l106 97h50l-147 -148h-31zM127 0l5 36q32 6 84 6l104 580h-174q-8 -48 -25 -104h-44l26 148h505l-26 -148h-43q0 40 10 104h-175l-104 -580q50 0 80 -6l-5 -36h-218z" />
    <glyph glyph-name="tcaron" unicode="&#x165;" horiz-adv-x="323" 
d="M246 557l69 163h66l-97 -163h-38zM154 -11q-98 0 -74 121l59 325h-86l7 42h87l25 135l52 12l-26 -147h118l-8 -42h-118l-57 -317q-10 -39 -4 -62t32 -23q45 0 92 49l26 -35q-58 -58 -125 -58z" />
    <glyph glyph-name="Utilde" unicode="&#x168;" horiz-adv-x="703" 
d="M316 -11q-105 0 -156.5 52.5t-51.5 143.5q0 32 6 65l67 374q-49 0 -81 6l7 36h217l-6 -36q-30 -6 -83 -6l-66 -368q-19 -107 16 -164t136 -57q187 0 226 219l66 370q-51 0 -81 6l6 36h211l-6 -36q-30 -6 -83 -6l-68 -378q-23 -126 -88 -191.5t-188 -65.5zM485 734
q-23 0 -51 21t-46 21q-6 0 -12 -1.5t-9.5 -3t-10 -6t-8.5 -6.5t-8.5 -7.5t-7.5 -6.5l-22 26q40 50 86 50q24 0 52 -21t45 -21q31 0 58 31l22 -26q-42 -50 -88 -50z" />
    <glyph glyph-name="utilde" unicode="&#x169;" horiz-adv-x="545" 
d="M172 -11q-58 0 -80.5 41.5t-9.5 115.5l52 291q-41 4 -81 4l6 36q38 5 134 5l-59 -330q-21 -118 53 -118q73 0 138 103.5t93 258.5l8 41q-41 4 -83 4l6 36q38 5 135 5l-49 -269q-3 -15 -28 -171q51 0 81 -6l-6 -36h-130q17 123 37 198h-2q-88 -209 -215 -209zM356 546
q-24 0 -52 21t-45 21q-6 0 -12 -1.5t-9.5 -3t-10 -6t-8.5 -6.5t-8.5 -7.5t-7.5 -6.5l-22 26q40 50 86 50q23 0 51 -21t46 -21q31 0 58 31l22 -26q-42 -50 -88 -50z" />
    <glyph glyph-name="Umacron" unicode="&#x16a;" horiz-adv-x="703" 
d="M316 -11q-105 0 -156.5 52.5t-51.5 143.5q0 32 6 65l67 374q-49 0 -81 6l7 36h217l-6 -36q-30 -6 -83 -6l-66 -368q-19 -107 16 -164t136 -57q187 0 226 219l66 370q-51 0 -81 6l6 36h211l-6 -36q-30 -6 -83 -6l-68 -378q-23 -126 -88 -191.5t-188 -65.5zM315 769l8 44
h249l-8 -44h-249z" />
    <glyph glyph-name="umacron" unicode="&#x16b;" horiz-adv-x="545" 
d="M172 -11q-58 0 -80.5 41.5t-9.5 115.5l52 291q-41 4 -81 4l6 36q38 5 134 5l-59 -330q-21 -118 53 -118q73 0 138 103.5t93 258.5l8 41q-41 4 -83 4l6 36q38 5 135 5l-49 -269q-3 -15 -28 -171q51 0 81 -6l-6 -36h-130q17 123 37 198h-2q-88 -209 -215 -209zM186 581
l8 44h249l-8 -44h-249z" />
    <glyph glyph-name="Ubreve" unicode="&#x16c;" horiz-adv-x="703" 
d="M316 -11q-105 0 -156.5 52.5t-51.5 143.5q0 32 6 65l67 374q-49 0 -81 6l7 36h217l-6 -36q-30 -6 -83 -6l-66 -368q-19 -107 16 -164t136 -57q187 0 226 219l66 370q-51 0 -81 6l6 36h211l-6 -36q-30 -6 -83 -6l-68 -378q-23 -126 -88 -191.5t-188 -65.5zM441 726
q-55 0 -85.5 39t-26.5 100h44q-4 -39 14.5 -67.5t55.5 -28.5t65 28t38 68h45q-16 -62 -57.5 -100.5t-92.5 -38.5z" />
    <glyph glyph-name="ubreve" unicode="&#x16d;" horiz-adv-x="545" 
d="M172 -11q-58 0 -80.5 41.5t-9.5 115.5l52 291q-41 4 -81 4l6 36q38 5 134 5l-59 -330q-21 -118 53 -118q73 0 138 103.5t93 258.5l8 41q-41 4 -83 4l6 36q38 5 135 5l-49 -269q-3 -15 -28 -171q51 0 81 -6l-6 -36h-130q17 123 37 198h-2q-88 -209 -215 -209zM311 538
q-55 0 -85.5 39t-26.5 100h44q-4 -39 14.5 -67.5t55.5 -28.5t65 28t38 68h45q-16 -62 -57.5 -100.5t-92.5 -38.5z" />
    <glyph glyph-name="Uring" unicode="&#x16e;" horiz-adv-x="703" 
d="M452 734q-37 0 -63 26.5t-26 64.5t26 65t64 27q37 0 63 -26.5t26 -64.5q0 -39 -26 -65.5t-64 -26.5zM453 766q25 0 39.5 17t14.5 42t-15 43t-40 18t-39.5 -17.5t-14.5 -42.5t14.5 -42.5t40.5 -17.5zM316 -11q-105 0 -156.5 52.5t-51.5 143.5q0 32 6 65l67 374
q-49 0 -81 6l7 36h217l-6 -36q-30 -6 -83 -6l-66 -368q-19 -107 16 -164t136 -57q187 0 226 219l66 370q-51 0 -81 6l6 36h211l-6 -36q-30 -6 -83 -6l-68 -378q-23 -126 -88 -191.5t-188 -65.5z" />
    <glyph glyph-name="uring" unicode="&#x16f;" horiz-adv-x="545" 
d="M323 546q-37 0 -63 26.5t-26 64.5t26 65t64 27q37 0 63 -26.5t26 -64.5q0 -39 -26 -65.5t-64 -26.5zM324 578q25 0 39.5 17t14.5 42t-15 43t-40 18t-39.5 -17.5t-14.5 -42.5t14.5 -42.5t40.5 -17.5zM172 -11q-58 0 -80.5 41.5t-9.5 115.5l52 291q-41 4 -81 4l6 36
q38 5 134 5l-59 -330q-21 -118 53 -118q73 0 138 103.5t93 258.5l8 41q-41 4 -83 4l6 36q38 5 135 5l-49 -269q-3 -15 -28 -171q51 0 81 -6l-6 -36h-130q17 123 37 198h-2q-88 -209 -215 -209z" />
    <glyph glyph-name="Uhungarumlaut" unicode="&#x170;" horiz-adv-x="703" 
d="M316 -11q-105 0 -156.5 52.5t-51.5 143.5q0 32 6 65l67 374q-49 0 -81 6l7 36h217l-6 -36q-30 -6 -83 -6l-66 -368q-19 -107 16 -164t136 -57q187 0 226 219l66 370q-51 0 -81 6l6 36h211l-6 -36q-30 -6 -83 -6l-68 -378q-23 -126 -88 -191.5t-188 -65.5zM322 728
l107 122h77l-139 -122h-45zM467 728l106 122h77l-138 -122h-45z" />
    <glyph glyph-name="uhungarumlaut" unicode="&#x171;" horiz-adv-x="545" 
d="M172 -11q-58 0 -80.5 41.5t-9.5 115.5l52 291q-41 4 -81 4l6 36q38 5 134 5l-59 -330q-21 -118 53 -118q73 0 138 103.5t93 258.5l8 41q-41 4 -83 4l6 36q38 5 135 5l-49 -269q-3 -15 -28 -171q51 0 81 -6l-6 -36h-130q17 123 37 198h-2q-88 -209 -215 -209zM193 540
l107 122h77l-139 -122h-45zM338 540l106 122h77l-138 -122h-45z" />
    <glyph glyph-name="Uogonek" unicode="&#x172;" horiz-adv-x="703" 
d="M385 -215q-42 0 -63 22.5t-21 57.5q0 71 72 130q-23 -6 -57 -6q-105 0 -156.5 52.5t-51.5 143.5q0 32 6 65l67 374q-49 0 -81 6l7 36h217l-6 -36q-30 -6 -83 -6l-66 -368q-19 -107 16 -164t136 -57q97 0 152 55t74 164l66 370q-51 0 -81 6l6 36h211l-6 -36q-30 -6 -83 -6
l-68 -378q-16 -84 -47 -137.5t-91 -95.5q-32 -23 -51 -39.5t-37.5 -45t-18.5 -56.5q0 -21 13 -35t34 -14q29 0 48 10l7 -31q-28 -17 -64 -17z" />
    <glyph glyph-name="uogonek" unicode="&#x173;" horiz-adv-x="545" 
d="M399 -215q-39 0 -61 20t-22 53q0 65 81 142h39q-74 -80 -74 -134q0 -21 13 -32.5t34 -11.5q26 0 47 10l8 -30q-28 -17 -65 -17zM172 -11q-58 0 -80.5 41.5t-9.5 115.5l52 291q-41 4 -81 4l6 36q38 5 134 5l-59 -330q-21 -118 53 -118q73 0 138 103.5t93 258.5l8 41
q-41 4 -83 4l6 36q38 5 135 5l-49 -269q-3 -15 -28 -171q51 0 81 -6l-6 -36h-130q17 123 37 198h-2q-88 -209 -215 -209z" />
    <glyph glyph-name="Ydieresis" unicode="&#x178;" horiz-adv-x="600" 
d="M151 0l6 36q32 6 84 6l38 209l-130 373q-50 0 -80 6l6 36h217l-7 -36q-19 -4 -77 -6l107 -322l220 322q-56 2 -76 6l6 36h213l-7 -36q-30 -6 -78 -6l-260 -373l-38 -209q50 0 80 -6l-6 -36h-218zM311 733q-16 0 -27 11t-11 28t11 28t27 11q17 0 27.5 -11t10.5 -28
t-11 -28t-27 -11zM478 733q-16 0 -27 11t-11 28t11 28t27 11q17 0 27.5 -11t10.5 -28t-11 -28t-27 -11z" />
    <glyph glyph-name="Zacute" unicode="&#x179;" horiz-adv-x="542" 
d="M322 728l117 122h79l-148 -122h-48zM-4 0l8 42l473 578h-300q-8 -55 -24 -102h-45l26 148h421l-7 -37l-479 -583h339q10 63 25 103h44l-27 -149h-454z" />
    <glyph glyph-name="zacute" unicode="&#x17a;" horiz-adv-x="434" 
d="M241 540l117 122h79l-148 -122h-48zM8 0l7 37l337 399h-211q-10 -55 -18 -76l-5 -16h-40l23 133h321l-7 -39l-338 -396h236q8 51 23 92h41l-25 -134h-344z" />
    <glyph glyph-name="Zdotaccent" unicode="&#x17b;" horiz-adv-x="542" 
d="M-4 0l8 42l473 578h-300q-8 -55 -24 -102h-45l26 148h421l-7 -37l-479 -583h339q10 63 25 103h44l-27 -149h-454zM360 763q-17 0 -29 12.5t-12 30.5t12 30.5t29 12.5t29 -12.5t12 -30.5t-12 -30.5t-29 -12.5z" />
    <glyph glyph-name="zdotaccent" unicode="&#x17c;" horiz-adv-x="434" 
d="M8 0l7 37l337 399h-211q-10 -55 -18 -76l-5 -16h-40l23 133h321l-7 -39l-338 -396h236q8 51 23 92h41l-25 -134h-344zM281 575q-17 0 -29 12.5t-12 30.5t12 30.5t29 12.5t29 -12.5t12 -30.5t-12 -30.5t-29 -12.5z" />
    <glyph glyph-name="Zcaron" unicode="&#x17d;" horiz-adv-x="542" 
d="M333 727l-94 148h44l72 -97l106 97h50l-147 -148h-31zM-4 0l8 42l473 578h-300q-8 -55 -24 -102h-45l26 148h421l-7 -37l-479 -583h339q10 63 25 103h44l-27 -149h-454z" />
    <glyph glyph-name="zcaron" unicode="&#x17e;" horiz-adv-x="434" 
d="M254 539l-94 148h44l72 -97l106 97h50l-147 -148h-31zM8 0l7 37l337 399h-211q-10 -55 -18 -76l-5 -16h-40l23 133h321l-7 -39l-338 -396h236q8 51 23 92h41l-25 -134h-344z" />
    <glyph glyph-name="Scommaaccent" unicode="&#x218;" horiz-adv-x="459" 
d="M190 -59q15 0 25 -9t10 -26q0 -34 -23.5 -67.5t-51.5 -55.5l-19 15q40 37 40 65q0 8 -7.5 21t-7.5 23q0 14 10 24t24 10zM190 -11q-120 0 -180 64l23 127h42q0 -38 -11 -108q48 -39 130 -39q73 0 117 39.5t44 94.5q0 47 -28.5 80t-87.5 70q-67 40 -102 79.5t-35 103.5
q0 78 61 127.5t145 49.5q49 0 91.5 -13t64.5 -32l-23 -131h-43q0 38 11 108q-46 24 -104 24q-59 0 -104 -33t-45 -88q0 -48 28.5 -81t88.5 -70q35 -22 53 -35t41 -36t33 -50t10 -62q0 -80 -61 -134.5t-159 -54.5z" />
    <glyph glyph-name="scommaaccent" unicode="&#x219;" horiz-adv-x="388" 
d="M148 -59q15 0 25 -9t10 -26q0 -34 -23.5 -67.5t-51.5 -55.5l-19 15q40 37 40 65q0 8 -7.5 21t-7.5 23q0 14 10 24t24 10zM155 -11q-88 0 -133 39l19 106h41q0 -39 -8 -85q34 -18 86 -18q49 0 79 24.5t30 66.5q0 20 -6.5 36t-22 29.5t-25 20t-31.5 19.5t-33 21t-29 24.5
t-26 38.5t-8 49q0 57 42 92.5t109 35.5q78 0 117 -29l-19 -112h-41q0 29 9 87q-33 12 -68 12q-44 0 -71.5 -22.5t-27.5 -59.5q0 -25 15.5 -47.5t30 -32.5t39.5 -25q29 -16 45.5 -28.5t33.5 -40.5t17 -64q0 -61 -44.5 -99t-119.5 -38z" />
    <glyph glyph-name="uni021A" unicode="&#x21a;" horiz-adv-x="557" 
d="M222 -59q15 0 25 -9t10 -26q0 -34 -23.5 -67.5t-51.5 -55.5l-19 15q40 37 40 65q0 8 -7.5 21t-7.5 23q0 14 10 24t24 10zM127 0l5 36q32 6 84 6l104 580h-174q-8 -48 -25 -104h-44l26 148h505l-26 -148h-43q0 40 10 104h-175l-104 -580q50 0 80 -6l-5 -36h-218z" />
    <glyph glyph-name="uni021B" unicode="&#x21b;" horiz-adv-x="323" 
d="M143 -59q15 0 25 -9t10 -26q0 -34 -23.5 -67.5t-51.5 -55.5l-19 15q40 37 40 65q0 8 -7.5 21t-7.5 23q0 14 10 24t24 10zM154 -11q-98 0 -74 121l59 325h-86l7 42h87l25 135l52 12l-26 -147h118l-8 -42h-118l-57 -317q-10 -39 -4 -62t32 -23q45 0 92 49l26 -35
q-58 -58 -125 -58z" />
    <glyph glyph-name="circumflex" unicode="&#x2c6;" horiz-adv-x="500" 
d="M169 541l144 147h32l92 -147h-44l-71 97l-103 -97h-50z" />
    <glyph glyph-name="caron" unicode="&#x2c7;" horiz-adv-x="500" 
d="M287 539l-94 148h44l72 -97l106 97h50l-147 -148h-31z" />
    <glyph glyph-name="breve" unicode="&#x2d8;" horiz-adv-x="500" 
d="M308 538q-55 0 -85.5 39t-26.5 100h44q-4 -39 14.5 -67.5t55.5 -28.5t65 28t38 68h45q-16 -62 -57.5 -100.5t-92.5 -38.5z" />
    <glyph glyph-name="dotaccent" unicode="&#x2d9;" horiz-adv-x="500" 
d="M315 575q-17 0 -29 12.5t-12 30.5t12 30.5t29 12.5t29 -12.5t12 -30.5t-12 -30.5t-29 -12.5z" />
    <glyph glyph-name="ring" unicode="&#x2da;" horiz-adv-x="500" 
d="M320 546q-37 0 -63 26.5t-26 64.5t26 65t64 27q37 0 63 -26.5t26 -64.5q0 -39 -26 -65.5t-64 -26.5zM321 578q25 0 39.5 17t14.5 42t-15 43t-40 18t-39.5 -17.5t-14.5 -42.5t14.5 -42.5t40.5 -17.5z" />
    <glyph glyph-name="ogonek" unicode="&#x2db;" horiz-adv-x="500" 
d="M191 -215q-39 0 -61 20t-22 53q0 65 81 142h39q-74 -80 -74 -134q0 -21 13 -32.5t34 -11.5q26 0 47 10l8 -30q-28 -17 -65 -17z" />
    <glyph glyph-name="tilde" unicode="&#x2dc;" horiz-adv-x="500" 
d="M356 546q-24 0 -52 21t-45 21q-6 0 -12 -1.5t-9.5 -3t-10 -6t-8.5 -6.5t-8.5 -7.5t-7.5 -6.5l-22 26q40 50 86 50q23 0 51 -21t46 -21q31 0 58 31l22 -26q-42 -50 -88 -50z" />
    <glyph glyph-name="hungarumlaut" unicode="&#x2dd;" horiz-adv-x="500" 
d="M83 540l107 122h77l-139 -122h-45zM228 540l106 122h77l-138 -122h-45z" />
    <glyph glyph-name="uni0394" unicode="&#x394;" horiz-adv-x="600" 
d="M-4 0l7 39l341 627h54l129 -627l-7 -39h-524zM63 47h408l-73 354q-3 12 -19.5 104.5t-17.5 98.5h-1q-88 -165 -107 -203z" />
    <glyph glyph-name="uni03A9" unicode="&#x3a9;" horiz-adv-x="729" 
d="M27 0l9 47h145q-47 36 -77.5 98.5t-30.5 137.5q0 165 103.5 279.5t248.5 114.5q111 0 188.5 -80.5t77.5 -196.5q0 -115 -57.5 -210t-148.5 -143h154l-8 -47h-226l8 46q97 44 160 138t63 209q0 96 -62 167t-154 71q-123 0 -207.5 -103t-84.5 -241q0 -158 115 -241l-8 -46
h-208z" />
    <glyph glyph-name="uni03BC" unicode="&#x3bc;" horiz-adv-x="519" 
d="M12 -218l126 695h51l-59 -326q-19 -115 78 -115q77 0 157 96l62 345h51l-70 -387q-10 -61 -6 -90h-51q-2 19 -1 35q1 13 5 39q-15 -18 -28 -30q-59 -55 -132 -55q-64 0 -89 46h-1q-7 -69 -15 -109l-26 -144h-52z" />
    <glyph glyph-name="uni1E9E" unicode="&#x1e9e;" horiz-adv-x="685" 
d="M-12 0l6 36q34 6 86 6l61 349q49 286 318 286q109 0 212 -31l-6 -33l-195 -230l45 -33q56 -41 84.5 -83t28.5 -94q0 -77 -58.5 -130.5t-156.5 -53.5q-101 0 -166 47l23 40q58 -43 144 -43q75 0 117.5 39.5t42.5 98.5q0 77 -99 145l-77 54l207 243q-73 20 -153 20
q-217 0 -258 -249l-60 -342q47 0 75 -7l-6 -35h-215z" />
    <glyph glyph-name="uni2007" unicode="&#x2007;" 
 />
    <glyph glyph-name="uni2008" unicode="&#x2008;" horiz-adv-x="189" 
 />
    <glyph glyph-name="uni200B" unicode="&#x200b;" horiz-adv-x="0" 
 />
    <glyph glyph-name="endash" unicode="&#x2013;" horiz-adv-x="533" 
d="M55 255l9 45h425l-8 -45h-426z" />
    <glyph glyph-name="emdash" unicode="&#x2014;" horiz-adv-x="836" 
d="M55 255l9 45h728l-9 -45h-728z" />
    <glyph glyph-name="quoteleft" unicode="&#x2018;" horiz-adv-x="183" 
d="M137 478q-18 0 -30.5 13.5t-12.5 36.5q0 40 29.5 83.5t62.5 68.5l22 -18q-48 -48 -48 -83q0 -12 9 -28.5t9 -30.5q0 -17 -12 -29.5t-29 -12.5z" />
    <glyph glyph-name="quoteright" unicode="&#x2019;" horiz-adv-x="183" 
d="M111 473l-22 18q48 52 48 84q0 12 -9 28t-9 30q0 18 12 30t29 12q18 0 30.5 -13.5t12.5 -35.5q0 -41 -29.5 -84.5t-62.5 -68.5z" />
    <glyph glyph-name="quotesinglbase" unicode="&#x201a;" horiz-adv-x="183" 
d="M9 -123l-22 18q48 50 48 83q0 12 -9.5 28.5t-9.5 30.5q0 17 12 29.5t29 12.5q18 0 30.5 -13.5t12.5 -36.5q0 -41 -29 -83t-62 -69z" />
    <glyph glyph-name="quotedblleft" unicode="&#x201c;" horiz-adv-x="324" 
d="M137 478q-18 0 -30.5 13.5t-12.5 36.5q0 40 29.5 83.5t62.5 68.5l22 -18q-48 -48 -48 -83q0 -12 9 -28.5t9 -30.5q0 -17 -12 -29.5t-29 -12.5zM278 478q-18 0 -30.5 13.5t-12.5 36.5q0 40 29.5 83.5t62.5 68.5l22 -18q-48 -48 -48 -83q0 -12 9 -28.5t9 -30.5
q0 -17 -12 -29.5t-29 -12.5z" />
    <glyph glyph-name="quotedblright" unicode="&#x201d;" horiz-adv-x="324" 
d="M111 473l-22 18q48 52 48 84q0 12 -9 28t-9 30q0 18 12 30t29 12q18 0 30.5 -13.5t12.5 -35.5q0 -41 -29.5 -84.5t-62.5 -68.5zM252 473l-22 18q48 52 48 84q0 12 -9 28t-9 30q0 18 12 30t29 12q18 0 30.5 -13.5t12.5 -35.5q0 -41 -29.5 -84.5t-62.5 -68.5z" />
    <glyph glyph-name="quotedblbase" unicode="&#x201e;" horiz-adv-x="324" 
d="M9 -123l-22 18q48 50 48 83q0 12 -9.5 28.5t-9.5 30.5q0 17 12 29.5t29 12.5q18 0 30.5 -13.5t12.5 -36.5q0 -41 -29 -83t-62 -69zM150 -123l-22 18q48 50 48 83q0 12 -9.5 28.5t-9.5 30.5q0 17 12 29.5t29 12.5q18 0 30.5 -13.5t12.5 -36.5q0 -41 -29 -83t-62 -69z" />
    <glyph glyph-name="bullet" unicode="&#x2022;" horiz-adv-x="328" 
d="M166 188q-41 0 -69 28t-28 70t28 70t69 28q42 0 70 -28t28 -70t-28 -70t-70 -28z" />
    <glyph glyph-name="ellipsis" unicode="&#x2026;" horiz-adv-x="549" 
d="M59 -9q-18 0 -31 13t-13 31q0 20 13.5 33.5t33.5 13.5q17 0 29.5 -13t12.5 -30q0 -20 -13.5 -34t-31.5 -14zM239 -9q-18 0 -31 13t-13 31q0 20 13.5 33.5t33.5 13.5q17 0 29.5 -13t12.5 -30q0 -20 -13.5 -34t-31.5 -14zM419 -9q-18 0 -31 13t-13 31q0 20 13.5 33.5
t33.5 13.5q17 0 29.5 -13t12.5 -30q0 -20 -13.5 -34t-31.5 -14z" />
    <glyph glyph-name="guilsinglleft" unicode="&#x2039;" horiz-adv-x="276" 
d="M143 57l-104 188l171 189h58l-175 -193l102 -184h-52z" />
    <glyph glyph-name="guilsinglright" unicode="&#x203a;" horiz-adv-x="276" 
d="M9 56l172 193l-102 185h53l104 -190l-169 -188h-58z" />
    <glyph glyph-name="Euro" unicode="&#x20ac;" horiz-adv-x="562" 
d="M329 -11q-105 0 -161.5 72t-60.5 178h-82l8 43h74q1 46 12 93h-69l8 43h73q35 114 117 186.5t193 72.5q88 0 142 -39l-28 -41q-53 34 -120 34q-86 0 -151 -59.5t-97 -153.5h187l-7 -43h-192q-12 -52 -13 -93h188l-8 -43h-180q4 -89 47 -146t126 -57q72 0 133 40l20 -42
q-72 -45 -159 -45z" />
    <glyph glyph-name="trademark" unicode="&#x2122;" horiz-adv-x="727" 
d="M310 377l4 25q7 3 46 5l62 229q-32 0 -43 4l4 26h94l40 -177q9 -44 10 -67h2q19 39 35 68l103 176h94l-4 -26q-8 -3 -44 -5l-18 -228q35 -2 41 -5l-4 -25h-121l4 25q9 4 39 4l14 148l9 67h-2q-12 -33 -37 -74l-100 -170h-36l-37 165q0 2 -12 79h-1q-5 -25 -16 -69
l-38 -146q35 -2 39 -4l-4 -25h-123zM102 377l4 25q15 5 51 5l39 223h-60q-6 -29 -14 -50h-30l15 86h230l-15 -86h-31q0 25 4 50h-57l-40 -223q34 0 49 -5l-5 -25h-140z" />
    <glyph glyph-name="Omega" unicode="&#x2126;" horiz-adv-x="729" 
d="M27 0l9 47h145q-47 36 -77.5 98.5t-30.5 137.5q0 165 103.5 279.5t248.5 114.5q111 0 188.5 -80.5t77.5 -196.5q0 -115 -57.5 -210t-148.5 -143h154l-8 -47h-226l8 46q97 44 160 138t63 209q0 96 -62 167t-154 71q-123 0 -207.5 -103t-84.5 -241q0 -158 115 -241l-8 -46
h-208z" />
    <glyph glyph-name="increment" unicode="&#x2206;" horiz-adv-x="600" 
d="M-4 0l7 39l341 627h54l129 -627l-7 -39h-524zM63 47h408l-73 354q-3 12 -19.5 104.5t-17.5 98.5h-1q-88 -165 -107 -203z" />
    <glyph glyph-name="f.sc" unicode="&#xa730;" horiz-adv-x="459" 
d="M-3 0l6 36q30 6 83 6l78 424q-46 0 -81 7l6 35h391l-23 -124h-40q0 26 7 82h-208l-35 -193h141q10 39 17 58h35l-29 -159h-35q0 14 6 60h-143l-35 -190q55 0 85 -6l-5 -36h-221z" />
    <glyph glyph-name="zero.osf" unicode="&#xeb00;" 
d="M218 -11q-86 0 -131 62t-45 144q0 115 72.5 204t183.5 89q61 0 102 -31.5t57.5 -75.5t16.5 -96q0 -117 -71.5 -206.5t-184.5 -89.5zM224 33q88 0 143.5 75t55.5 173q0 68 -31.5 116t-98.5 48q-86 0 -142.5 -75t-56.5 -171q0 -72 32.5 -119t97.5 -47z" />
    <glyph glyph-name="one.osf" unicode="&#xeb01;" horiz-adv-x="348" 
d="M24 0l6 36q40 6 107 6l70 385l-124 -40l-12 43l152 47h43l-79 -435q63 0 103 -6l-6 -36h-260z" />
    <glyph glyph-name="two.osf" unicode="&#xeb02;" horiz-adv-x="458" 
d="M0 0l4 27q170 120 220 165q103 92 103 172q0 37 -22 58.5t-65 21.5q-66 0 -133 -52l-24 33q77 63 163 63q62 0 98 -32.5t36 -86.5q0 -46 -24.5 -91.5t-71 -88t-83.5 -71t-92 -65.5q-10 -7 -15 -10q62 2 83 2h201l-7 -45h-371z" />
    <glyph glyph-name="three.osf" unicode="&#xeb03;" horiz-adv-x="423" 
d="M59 -188q-42 0 -79 10l12 42q35 -8 72 -8q90 0 151 47.5t61 128.5q0 65 -49 98t-128 33l6 39q75 0 143 44t68 113q0 37 -24.5 61t-67.5 24q-66 0 -128 -48l-24 33q74 59 159 59q66 0 102.5 -35.5t36.5 -88.5q0 -66 -52.5 -114.5t-117.5 -64.5v-1q50 -7 91 -47.5t41 -98.5
q0 -102 -80.5 -164t-192.5 -62z" />
    <glyph glyph-name="four.osf" unicode="&#xeb04;" horiz-adv-x="526" 
d="M266 -177l33 177h-305l5 36l395 441h43l-80 -433h111l-7 -44h-112l-32 -177h-51zM63 44h244l63 343h-1z" />
    <glyph glyph-name="five.osf" unicode="&#xeb05;" horiz-adv-x="411" 
d="M58 -188q-46 0 -75 9l12 41q26 -7 69 -7q93 0 155.5 50.5t62.5 135.5q0 77 -52 116t-137 39h-21l55 281h273l-8 -43h-222l-39 -196q88 0 147 -54.5t59 -135.5q0 -108 -80 -172t-199 -64z" />
    <glyph glyph-name="six.osf" unicode="&#xeb06;" horiz-adv-x="506" 
d="M235 -11q-85 0 -131 66.5t-46 169.5q0 90 31.5 172t88 145t143 100t189.5 36l5 -44q-163 2 -269 -91q-98 -83 -125 -219q69 64 162 64q78 0 126.5 -44.5t48.5 -116.5q0 -102 -63.5 -170t-159.5 -68zM238 33q75 0 122 55t47 136q0 54 -34.5 87t-96.5 33q-85 0 -163 -66
q-3 -25 -3 -53q0 -84 32 -138t96 -54z" />
    <glyph glyph-name="seven.osf" unicode="&#xeb07;" horiz-adv-x="462" 
d="M56 -198l-42 22l387 609h-286q-9 -54 -26 -104h-40l26 148h388l-6 -39z" />
    <glyph glyph-name="eight.osf" unicode="&#xeb08;" horiz-adv-x="493" 
d="M205 -11q-77 0 -120 43t-43 104q0 69 46 118.5t132 93.5q-102 76 -102 154q0 77 55.5 126t136.5 49q72 0 113 -38t41 -93q0 -62 -40 -107.5t-121 -89.5q57 -39 86.5 -78t29.5 -87q0 -83 -63 -139t-151 -56zM209 34q64 0 110.5 43t46.5 103q0 41 -26.5 73.5t-83.5 71.5
q-81 -43 -121 -84t-40 -99q0 -47 30.5 -77.5t83.5 -30.5zM306 634q-57 0 -96 -35.5t-39 -90.5q0 -39 23.5 -69t73.5 -66q71 39 107 76.5t36 88.5q0 41 -27 68.5t-78 27.5z" />
    <glyph glyph-name="nine.osf" unicode="&#xeb09;" horiz-adv-x="494" 
d="M-9 -187l-5 43q156 0 259 83q100 80 130 210q-67 -59 -153 -59q-79 0 -125 46t-46 118q0 100 63 167t155 67q87 0 130 -62.5t43 -155.5q0 -206 -125.5 -331.5t-325.5 -125.5zM229 132q80 0 155 61q6 34 6 73q0 79 -30 129.5t-94 50.5q-70 0 -116.5 -53t-46.5 -136
q0 -56 33 -90.5t93 -34.5z" />
    <glyph glyph-name="zero.lf" unicode="&#xeb0a;" horiz-adv-x="586" 
d="M255 -11q-98 0 -145.5 73t-47.5 183q0 58 11 117t35 116t58 101t84.5 71t110.5 27q98 0 146 -72t48 -178q0 -77 -18.5 -152t-54 -140t-95 -105.5t-132.5 -40.5zM260 34q76 0 132.5 61t82 147.5t25.5 180.5q0 93 -35.5 151t-109.5 58q-57 0 -104 -36t-75.5 -93t-44 -123
t-15.5 -131q0 -97 35 -156t109 -59z" />
    <glyph glyph-name="one.lf" unicode="&#xeb0b;" horiz-adv-x="356" 
d="M13 0l7 39q38 7 121 7l100 570l-136 -44l-11 42l162 52h45l-109 -620q80 0 118 -7l-7 -39h-290z" />
    <glyph glyph-name="two.lf" unicode="&#xeb0c;" horiz-adv-x="493" 
d="M-1 0l5 30q200 178 264 245q137 150 140 253q0 48 -29 75.5t-80 27.5q-84 0 -158 -63l-27 33q83 76 191 76q74 0 116.5 -38.5t42.5 -102.5q0 -56 -26 -113.5t-89.5 -126t-106 -108t-135.5 -120.5q-17 -15 -25 -22q15 1 44 1h242q7 44 24 92h42l-24 -139h-411z" />
    <glyph glyph-name="three.lf" unicode="&#xeb0d;" horiz-adv-x="447" 
d="M99 -11q-46 0 -81 8l11 46q32 -8 74 -8q101 0 164 46.5t63 128.5q0 64 -53.5 97t-140.5 31l6 40q90 7 158.5 51t68.5 114q0 39 -28.5 62.5t-76.5 23.5q-76 0 -144 -45l-23 33q77 60 175 60q71 0 111.5 -37t40.5 -91q0 -71 -54.5 -119.5t-126.5 -66.5v-1q55 -6 98.5 -47
t43.5 -101q0 -108 -81.5 -166.5t-204.5 -58.5z" />
    <glyph glyph-name="four.lf" unicode="&#xeb0e;" horiz-adv-x="507" 
d="M292 0l29 159h-305l7 43l385 464h52l-82 -459h94l-7 -48h-95l-28 -159h-50zM393 582l-311 -377q1 0 25 1t38 1h183l66 375h-1z" />
    <glyph glyph-name="five.lf" unicode="&#xeb0f;" horiz-adv-x="430" 
d="M77 -11q-39 0 -63 6l11 46q22 -6 60 -6q108 0 176.5 53.5t68.5 150.5q0 66 -50.5 98.5t-134.5 32.5q-28 0 -50 -2l59 298h280l-9 -47h-231l-40 -203h5q101 0 163 -45.5t62 -125.5q0 -122 -86.5 -189t-220.5 -67z" />
    <glyph glyph-name="six.lf" unicode="&#xeb10;" horiz-adv-x="499" 
d="M233 -11q-63 0 -104.5 35t-58 84.5t-16.5 109.5q0 197 126 328.5t314 131.5l6 -43q-164 0 -275 -111q-80 -80 -105 -194q29 30 72 50t89 20q80 0 127.5 -46.5t47.5 -120.5q0 -104 -62.5 -174t-160.5 -70zM236 34q77 0 121.5 57.5t44.5 139.5q0 57 -34 90.5t-94 33.5
q-81 0 -162 -69q-5 -38 -5 -70q0 -81 31.5 -131.5t97.5 -50.5z" />
    <glyph glyph-name="seven.lf" unicode="&#xeb11;" horiz-adv-x="451" 
d="M124 -26l-43 21l332 624h-271q-8 -49 -25 -103h-38l26 150h373l-7 -40z" />
    <glyph glyph-name="eight.lf" unicode="&#xeb12;" horiz-adv-x="468" 
d="M196 -11q-77 0 -120.5 41.5t-43.5 104.5q0 70 45.5 119.5t130.5 94.5q-98 72 -98 153q0 77 56.5 126t138.5 49q72 0 112 -35.5t40 -94.5q0 -65 -42.5 -111t-119.5 -87q116 -77 116 -165q0 -83 -59.5 -139t-155.5 -56zM202 35q66 0 110.5 42t44.5 101q0 41 -27.5 74
t-85.5 72q-81 -45 -119.5 -85.5t-38.5 -98.5q0 -47 30.5 -76t85.5 -29zM300 631q-58 0 -97 -35.5t-39 -89.5q0 -39 23 -68t72 -63q73 39 109 77t36 88q0 41 -26.5 66t-77.5 25z" />
    <glyph glyph-name="nine.lf" unicode="&#xeb13;" horiz-adv-x="499" 
d="M36 -14l-5 42q139 0 240 77q109 84 140 232q-70 -70 -164 -70q-80 0 -127 46.5t-47 120.5q0 102 65 173t161 71q62 0 103.5 -35t57 -83.5t15.5 -106.5q0 -204 -120.5 -335.5t-318.5 -131.5zM255 312q82 0 163 69q5 38 5 72q0 78 -32 129t-97 51q-73 0 -120 -58.5
t-47 -138.5q0 -58 33 -91t95 -33z" />
    <glyph glyph-name="zero.tosf" unicode="&#xeb14;" 
d="M216 -11q-85 0 -128.5 61.5t-43.5 144.5q0 116 70 204.5t181 88.5q88 0 130 -60t42 -143q0 -118 -69.5 -207t-181.5 -89zM221 33q86 0 140.5 75t54.5 173q0 68 -31 116t-95 48q-84 0 -139.5 -75.5t-55.5 -170.5q0 -72 32 -119t94 -47z" />
    <glyph glyph-name="one.tosf" unicode="&#xeb15;" 
d="M64 0l6 36q33 7 143 7l70 384l-147 -48l-11 43l175 55h44l-79 -434q104 0 142 -7l-7 -36h-336z" />
    <glyph glyph-name="two.tosf" unicode="&#xeb16;" 
d="M23 0l3 24q21 15 62 45t60 44t52 39.5t49.5 39.5t40 35.5t35 36.5t24 34t17 36t4.5 34q0 74 -86 74q-80 0 -154 -56l-24 33q80 69 183 69q64 0 99 -30.5t35 -84.5q0 -23 -9 -47.5t-20.5 -44.5t-35.5 -45.5t-40.5 -41.5t-50 -42t-49 -37.5t-52.5 -38t-47 -33.5q48 2 84 2
h210l-7 -45h-383z" />
    <glyph glyph-name="three.tosf" unicode="&#xeb17;" 
d="M94 -188q-50 0 -86 12l12 42q26 -10 79 -10q94 0 163 47t69 128q0 64 -58 97.5t-140 33.5l6 41q49 0 101 18.5t91 56t39 83.5q0 36 -26 58.5t-70 22.5q-83 0 -156 -55l-24 33q83 68 188 68q65 0 104 -34.5t39 -86.5q0 -68 -60.5 -118t-127.5 -64v-1q54 -7 102 -48t48 -99
q0 -104 -87.5 -164.5t-205.5 -60.5z" />
    <glyph glyph-name="four.tosf" unicode="&#xeb18;" 
d="M250 -177l32 177h-303l5 36l389 441h48l-79 -433h104l-7 -44h-105l-33 -177h-51zM48 44h243l64 348h-1z" />
    <glyph glyph-name="five.tosf" unicode="&#xeb19;" 
d="M99 -188q-54 0 -83 11l13 42q25 -9 75 -9q94 0 159.5 50.5t65.5 134.5q0 76 -54.5 116t-134.5 40q-10 0 -23.5 -0.5t-15.5 -0.5l55 281h281l-7 -43h-231l-39 -196h10q89 0 152 -54t63 -137q0 -109 -83 -172t-203 -63z" />
    <glyph glyph-name="six.tosf" unicode="&#xeb1a;" 
d="M235 -11q-85 0 -130 66t-45 170q0 90 31 172t87.5 145t142.5 100t189 36l5 -44q-163 2 -269 -91q-95 -82 -124 -219q68 63 161 63q78 0 126 -44t48 -116q0 -102 -63 -170t-159 -68zM238 33q74 0 121 55t47 136q0 54 -34 86.5t-96 32.5q-86 0 -162 -65q-3 -25 -3 -53
q0 -85 31.5 -138.5t95.5 -53.5z" />
    <glyph glyph-name="seven.tosf" unicode="&#xeb1b;" 
d="M65 -198l-43 22l411 607h-298q-2 -11 -6 -26l-7 -30q-6 -30 -12 -46h-41l26 148h404l-7 -39z" />
    <glyph glyph-name="eight.tosf" unicode="&#xeb1c;" 
d="M220 -11q-77 0 -124.5 42t-47.5 104q0 69 48.5 118.5t136.5 95.5q-106 77 -106 153t59.5 125.5t142.5 49.5q72 0 116 -36t44 -94q0 -64 -45 -109.5t-126 -88.5q124 -83 124 -165q0 -83 -63 -139t-159 -56zM226 35q66 0 114 42.5t48 100.5q0 40 -29.5 72t-90.5 74
q-84 -46 -125 -86.5t-41 -97.5q0 -46 34 -75.5t90 -29.5zM324 631q-59 0 -101.5 -36t-42.5 -89q0 -38 25 -66.5t78 -64.5q76 40 114 77.5t38 87.5q0 41 -29.5 66t-81.5 25z" />
    <glyph glyph-name="nine.tosf" unicode="&#xeb1d;" 
d="M-3 -187l-5 43q156 0 260 84q98 77 128 209q-67 -59 -152 -59q-78 0 -124 46t-46 118q0 100 62.5 167t154.5 67q87 0 129.5 -62.5t42.5 -155.5q0 -206 -125 -331.5t-325 -125.5zM235 133q80 0 154 60q6 34 6 73q0 78 -30 128.5t-94 50.5q-69 0 -115 -52.5t-46 -135.5
q0 -56 32.5 -90t92.5 -34z" />
    <glyph glyph-name="numbersign.lf" unicode="&#xeb1e;" horiz-adv-x="561" 
d="M106 0l58 229h-133l11 42h133l38 146h-133l12 41h132l53 208h42l-53 -208h129l53 208h42l-54 -208h135l-12 -41h-133l-38 -146h133l-12 -42h-132l-58 -229h-42l58 229h-129l-58 -229h-42zM217 271h129l38 146h-129z" />
    <glyph glyph-name="dollar.lf" unicode="&#xeb1f;" horiz-adv-x="474" 
d="M149 -120l20 110q-105 7 -159 63l21 121h44q0 -36 -12 -102q49 -39 129 -39q75 0 119 38t44 96q0 35 -19 64.5t-39 45t-58 39.5q-35 21 -52.5 33.5t-41 35.5t-33.5 50t-10 61q0 77 53.5 125.5t131.5 54.5l19 108h43l-20 -107q95 -8 135 -45l-22 -125h-44q0 29 11 102
q-43 24 -107 24q-58 0 -102 -34.5t-44 -91.5q0 -48 30.5 -81t85.5 -67q3 -2 20 -13t21 -14t18.5 -13.5t19 -15t16 -15t15 -17.5t11 -19t10 -22.5t5 -24t2.5 -27.5q0 -78 -54.5 -130t-144.5 -58l-19 -110h-43z" />
    <glyph glyph-name="percent.lf" unicode="&#xeb20;" horiz-adv-x="790" 
d="M225 385q57 0 97 42.5t40 100.5q0 46 -27 76t-74 30q-58 0 -97.5 -42t-39.5 -101q0 -46 27 -76t74 -30zM221 345q-65 0 -104.5 43t-39.5 97q0 77 52 133t136 56q65 0 104.5 -43t39.5 -97q0 -77 -52 -133t-136 -56zM115 0l540 666h53l-541 -666h-52zM562 34
q58 0 97.5 41.5t39.5 101.5q0 46 -27 75.5t-74 29.5q-59 0 -98 -41.5t-39 -100.5q0 -46 27 -76t74 -30zM558 -7q-65 0 -104.5 43.5t-39.5 97.5q0 76 52 132.5t136 56.5q65 0 104.5 -43t39.5 -97q0 -77 -52.5 -133.5t-135.5 -56.5z" />
    <glyph glyph-name="numbersign.osf" unicode="&#xeb21;" horiz-adv-x="496" 
d="M85 112l49 152h-96l13 44h97l40 123h-102l13 44h103l44 135h44l-45 -135h111l44 135h44l-44 -135h99l-13 -44h-100l-40 -123h104l-12 -44h-106l-49 -152h-44l49 152h-110l-50 -152h-43zM192 308h110l41 123h-111z" />
    <glyph glyph-name="dollar.osf" unicode="&#xeb22;" horiz-adv-x="418" 
d="M111 -123l21 113q-80 8 -119 39l18 106h41q0 -34 -8 -84q47 -19 103 -19q60 0 97 23t37 68q0 15 -6.5 28.5t-14 22t-25 19.5t-26 15.5t-29.5 15.5q-59 27 -91 56.5t-32 77.5q0 56 41 90t109 39l19 104h48l-19 -104q74 -5 114 -33l-20 -112h-41q0 46 9 86q-38 18 -88 18
q-55 0 -88 -22t-33 -62q0 -34 27 -57t73 -43q59 -27 91.5 -56.5t32.5 -78.5q0 -62 -47 -97.5t-125 -40.5l-20 -112h-49z" />
    <glyph glyph-name="percent.osf" unicode="&#xeb23;" horiz-adv-x="673" 
d="M161 222q-50 0 -78 32.5t-28 76.5q0 64 41.5 111t103.5 47q52 0 79 -30.5t27 -77.5q0 -65 -42 -112t-103 -47zM165 257q42 0 69.5 35t27.5 86q0 34 -17 55t-49 21q-42 0 -69.5 -34.5t-27.5 -84.5q0 -35 17 -56.5t49 -21.5zM472 -12q-50 0 -78 32.5t-28 76.5
q0 64 41.5 111.5t103.5 47.5q51 0 78.5 -31.5t27.5 -76.5q0 -65 -42 -112.5t-103 -47.5zM476 24q42 0 69.5 35t27.5 85q0 34 -17 55t-49 21q-42 0 -69.5 -34t-27.5 -84q0 -35 17 -56.5t49 -21.5zM131 0l368 477h46l-369 -477h-45z" />
    <glyph glyph-name="fi" unicode="&#xfb01;" horiz-adv-x="526" 
d="M-56 -229q-49 0 -82 19l17 41q34 -16 70 -16q44 0 68 33t36 99l88 488h-91l8 42h90l16 86q30 168 192 168q78 0 135 -40l-24 -42q-49 35 -116 35q-60 0 -93 -30.5t-45 -98.5l-14 -78h268l-15 -65l-67 -370q50 0 80 -6l-6 -36h-132l78 435h-214l-87 -489q-16 -91 -53 -133
t-107 -42z" />
    <glyph glyph-name="fl" unicode="&#xfb02;" horiz-adv-x="531" 
d="M-56 -229q-49 0 -82 19l17 41q34 -16 70 -16q44 0 68 33t36 99l88 488h-91l8 42h90l15 81q31 173 196 173q59 0 100 -10l57 2l-16 -70l-110 -611q51 0 81 -6l-7 -36h-132l121 673q-42 11 -99 11q-62 0 -95.5 -32t-46.5 -101l-13 -74h124l-8 -42h-124l-87 -489
q-16 -91 -53 -133t-107 -42z" />
    <glyph glyph-name="uniFEFF" unicode="&#xfeff;" horiz-adv-x="0" 
 />
    <glyph glyph-name="NULL" horiz-adv-x="0" 
 />
    <glyph glyph-name="CR" horiz-adv-x="229" 
 />
    <glyph glyph-name="uni2007.osf" 
 />
    <glyph glyph-name="uni030C.alt001" horiz-adv-x="1" 
d="M-322 557l69 163h66l-97 -163h-38z" />
    <glyph glyph-name="slash.case" horiz-adv-x="385" 
d="M-52 -109l469 881h48l-468 -881h-49z" />
    <glyph glyph-name="f_f" horiz-adv-x="570" 
d="M-56 -229q-49 0 -82 19l17 41q34 -16 70 -16q44 0 68 33t36 99l88 488h-91l8 42h90l11 56q21 101 66 147.5t131 46.5q80 0 137 -46q45 50 122 50q64 0 112 -31l-23 -42q-40 26 -94 26q-53 0 -81 -33t-40 -100l-14 -74h124l-7 -42h-124l-88 -486q-16 -91 -53 -133
t-107 -42q-50 0 -79 19l17 41q30 -16 67 -16q44 0 68 33t36 99l88 485h-226l-87 -489q-16 -91 -53 -133t-107 -42zM199 477h225l15 82q8 47 27 83q-49 38 -115 38q-65 0 -96.5 -36t-46.5 -118z" />
    <glyph glyph-name="f_f_i" horiz-adv-x="802" 
d="M-56 -229q-49 0 -82 19l17 41q34 -16 70 -16q44 0 68 33t36 99l88 488h-91l8 42h90l12 62q19 97 64.5 142.5t131.5 45.5q81 0 138 -47q50 51 139 51q81 0 134 -40l-24 -42q-47 35 -116 35q-60 0 -92 -30t-45 -99l-15 -78h268l-14 -65l-68 -370q51 0 81 -6l-6 -36h-133
l78 435h-213l-88 -486q-16 -91 -53 -133t-107 -42q-50 0 -79 19l17 41q30 -16 67 -16q44 0 68 33t36 99l88 485h-226l-87 -489q-16 -91 -53 -133t-107 -42zM199 477h225l16 86q9 45 26 78q-49 39 -115 39q-65 0 -96.5 -36t-46.5 -118z" />
    <glyph glyph-name="f_f_l" horiz-adv-x="808" 
d="M-56 -229q-49 0 -82 19l17 41q34 -16 70 -16q44 0 68 33t36 99l88 488h-91l8 42h90l12 63q19 96 64.5 141.5t131.5 45.5q78 0 139 -47q48 51 141 51q58 0 99 -10l58 2l-16 -70l-110 -611q50 0 80 -6l-6 -36h-132l120 673q-42 11 -98 11q-63 0 -95.5 -30.5t-46.5 -102.5
l-14 -74h124l-7 -42h-124l-88 -486q-16 -91 -53 -133t-107 -42q-50 0 -79 19l17 41q30 -16 67 -16q44 0 68 33t36 99l88 485h-226l-87 -489q-16 -91 -53 -133t-107 -42zM199 477h225l15 81q9 51 28 83q-47 39 -116 39q-65 0 -96.5 -36t-46.5 -118z" />
    <glyph glyph-name="f_i" horiz-adv-x="526" 
d="M-56 -229q-49 0 -82 19l17 41q34 -16 70 -16q44 0 68 33t36 99l88 488h-91l8 42h90l16 86q30 168 192 168q78 0 135 -40l-24 -42q-49 35 -116 35q-60 0 -93 -30.5t-45 -98.5l-14 -78h268l-15 -65l-67 -370q50 0 80 -6l-6 -36h-132l78 435h-214l-87 -489q-16 -91 -53 -133
t-107 -42z" />
    <glyph glyph-name="f_l" horiz-adv-x="531" 
d="M-56 -229q-49 0 -82 19l17 41q34 -16 70 -16q44 0 68 33t36 99l88 488h-91l8 42h90l15 81q31 173 196 173q59 0 100 -10l57 2l-16 -70l-110 -611q51 0 81 -6l-7 -36h-132l121 673q-42 11 -99 11q-62 0 -95.5 -32t-46.5 -101l-13 -74h124l-8 -42h-124l-87 -489
q-16 -91 -53 -133t-107 -42z" />
    <glyph glyph-name="uni2007.tosf" 
 />
    </font>
</defs>
</svg>
