<?xml version="1.0" standalone="no"?>
<!DOCTYPE svg PUBLIC "-//W3C//DTD SVG 1.1//EN" "http://www.w3.org/Graphics/SVG/1.1/DTD/svg11.dtd" >
<svg>
<metadata>
Created by FontForge 20120731 at Fri Jan 15 01:18:26 2016
 By ,,,
Copyright (c) 2013 by FontFont. All rights reserved.
</metadata>
<defs>
<font id="FFKievitSlab-MediumItalic" horiz-adv-x="542" >
  <font-face 
    font-family="FF Kievit Slab"
    font-weight="500"
    font-style="italic"
    font-stretch="normal"
    units-per-em="1000"
    panose-1="2 0 6 3 4 0 0 2 0 4"
    ascent="760"
    descent="-240"
    x-height="484"
    cap-height="666"
    bbox="-304 -250 1006 933"
    underline-thickness="60"
    underline-position="-75"
    slope="-10"
    unicode-range="U+0020-FEFF"
  />
<missing-glyph horiz-adv-x="566" 
d="M43 0v666h480v-666h-480zM127 84h312v498h-312v-498z" />
    <glyph glyph-name=".notdef" horiz-adv-x="566" 
d="M43 0v666h480v-666h-480zM127 84h312v498h-312v-498z" />
    <glyph glyph-name=".null" horiz-adv-x="0" 
 />
    <glyph glyph-name="nonmarkingreturn" horiz-adv-x="333" 
 />
    <glyph glyph-name="space" unicode=" " horiz-adv-x="220" 
 />
    <glyph glyph-name="exclam" unicode="!" horiz-adv-x="272" 
d="M107 -9q-32 0 -52.5 20.5t-20.5 50.5q0 28 20.5 48.5t52.5 20.5q30 0 51 -20.5t21 -48.5q0 -30 -20.5 -50.5t-51.5 -20.5zM86 214l59 452h124l-103 -452h-80z" />
    <glyph glyph-name="quotedbl" unicode="&#x22;" horiz-adv-x="379" 
d="M111 432l20 234h114l-62 -234h-72zM264 432l20 234h114l-62 -234h-72z" />
    <glyph glyph-name="numbersign" unicode="#" horiz-adv-x="558" 
d="M74 0l56 200h-115l25 80h114l32 117h-114l24 80h114l53 189h74l-53 -189h107l53 189h74l-53 -189h108l-25 -80h-107l-32 -117h109l-25 -80h-108l-57 -200h-74l57 200h-107l-56 -200h-74zM226 278h110l33 121h-109z" />
    <glyph glyph-name="dollar" unicode="$" horiz-adv-x="502" 
d="M142 -120l19 110q-106 10 -156 56l27 151h85q0 -30 -11 -100q43 -24 105 -24q58 0 94 29.5t36 77.5q0 69 -97 115l-51 25q-100 52 -100 162q0 80 51 131t139 62l19 111h83l-21 -110q96 -10 141 -41l-28 -158h-85q0 34 11 104q-39 13 -80 13q-55 0 -87.5 -25.5
t-32.5 -69.5q0 -39 25 -64t75 -50q71 -36 96 -58q53 -48 53 -128q0 -87 -55 -142.5t-153 -66.5l-19 -110h-83z" />
    <glyph glyph-name="percent" unicode="%" horiz-adv-x="839" 
d="M236 406q45 0 74 36t29 87q0 36 -19 57t-54 21q-46 0 -74.5 -35.5t-28.5 -86.5q0 -35 19 -57t54 -22zM229 336q-73 0 -114.5 43.5t-41.5 101.5q0 79 55 137.5t144 58.5q73 0 114.5 -42.5t41.5 -101.5q0 -79 -55 -138t-144 -59zM129 0l520 666h90l-520 -666h-90zM605 62
q45 0 74 36t29 86q0 36 -19 57t-54 21q-46 0 -74.5 -35.5t-28.5 -85.5q0 -36 18.5 -57.5t54.5 -21.5zM598 -9q-73 0 -114.5 43.5t-41.5 101.5q0 79 55 137.5t144 58.5q73 0 114.5 -42t41.5 -101q0 -79 -55 -138.5t-144 -59.5z" />
    <glyph glyph-name="ampersand" unicode="&#x26;" horiz-adv-x="712" 
d="M564 -91q-52 0 -92.5 26t-93.5 88q-78 -35 -156 -35q-90 0 -138 49.5t-48 130.5q0 137 81 233t191 96q61 0 95.5 -29.5t34.5 -82.5q0 -49 -36.5 -85t-89.5 -57l95 -115q34 23 72 59q54 54 85.5 122t31.5 133q0 81 -49.5 126t-159.5 61l17 87q292 -34 292 -268
q0 -81 -45.5 -169.5t-121.5 -157.5q-36 -35 -72 -58q39 -45 62 -60.5t52 -15.5q35 0 63 18l28 -70q-40 -26 -98 -26zM239 73q47 0 89 19l-115 138l16 49q51 12 81.5 38t30.5 57q0 41 -51 41q-61 0 -106.5 -73t-45.5 -165q0 -104 101 -104z" />
    <glyph glyph-name="quotesingle" unicode="'" horiz-adv-x="218" 
d="M106 432l20 234h114l-62 -234h-72z" />
    <glyph glyph-name="parenleft" unicode="(" horiz-adv-x="321" 
d="M243 -172h-95q-112 153 -112 344q0 81 19.5 159.5t47.5 136t66 110.5t68 84.5t60 57.5h102q-40 -36 -77.5 -82t-80 -115.5t-68.5 -160.5t-26 -189q0 -193 96 -345z" />
    <glyph glyph-name="parenright" unicode=")" horiz-adv-x="324" 
d="M35 -172h-105q259 252 259 560q0 194 -100 332h97q43 -52 78 -135.5t35 -195.5q0 -85 -22 -167t-48.5 -137.5t-70.5 -114.5t-66.5 -83.5t-56.5 -58.5z" />
    <glyph glyph-name="asterisk" unicode="*" horiz-adv-x="454" 
d="M162 305l-65 51l108 109l-126 35l37 77l120 -47l16 136h91l-30 -136l130 47l19 -81l-142 -33l73 -115l-76 -43l-58 120z" />
    <glyph glyph-name="plus" unicode="+" horiz-adv-x="559" 
d="M192 37l33 185h-173l15 84h173l31 178h91l-31 -178h174l-16 -84h-173l-32 -185h-92z" />
    <glyph glyph-name="comma" unicode="," horiz-adv-x="253" 
d="M94 138q33 0 54.5 -22.5t21.5 -60.5q0 -56 -37.5 -112.5t-89.5 -98.5l-42 38q18 18 27.5 29t18.5 29t9 35q0 19 -16 44.5t-16 49.5q0 30 20 49.5t50 19.5z" />
    <glyph glyph-name="hyphen" unicode="-" horiz-adv-x="318" 
d="M49 240l16 88h216l-16 -88h-216z" />
    <glyph glyph-name="period" unicode="." horiz-adv-x="253" 
d="M100 -10q-32 0 -54 21.5t-22 52.5q0 30 22 51.5t54 21.5q30 0 52 -21.5t22 -51.5q0 -31 -22 -52.5t-52 -21.5z" />
    <glyph glyph-name="slash" unicode="/" horiz-adv-x="424" 
d="M4 0l354 666h96l-354 -666h-96z" />
    <glyph glyph-name="zero" unicode="0" 
d="M235 -12q-98 0 -145 73.5t-47 188.5q0 74 19 148t54.5 137.5t93.5 103t128 39.5q97 0 145 -72.5t48 -183.5q0 -80 -19.5 -156.5t-55.5 -139t-93.5 -100.5t-127.5 -38zM245 75q50 0 90.5 52t62 132t21.5 167q0 77 -23 121t-69 44q-50 0 -91 -54t-62 -132t-21 -158
q0 -82 23.5 -127t68.5 -45z" />
    <glyph glyph-name="one" unicode="1" 
d="M37 0l13 76q58 9 161 9l84 485l-149 -45l-22 83l208 58h84l-100 -581q103 0 157 -9l-14 -76h-422z" />
    <glyph glyph-name="two" unicode="2" 
d="M-4 0l10 59l90 73.5t78 66.5t72.5 67t56 60t46 61.5t25.5 57t11 59.5q0 41 -24 63t-64 22q-81 0 -151 -60l-50 67q95 82 219 82q91 0 139.5 -43t48.5 -116q0 -46 -21.5 -94.5t-50.5 -88t-81.5 -89t-91 -81t-101.5 -80.5q23 3 59 3h170q14 60 23 81h84l-30 -170h-467z" />
    <glyph glyph-name="three" unicode="3" 
d="M150 -12q-83 0 -135 19l29 86q44 -17 113 -17q90 0 140.5 35t50.5 102q0 52 -54 77t-139 23l12 75q96 9 156 43t60 94q0 30 -24.5 46.5t-64.5 16.5q-73 0 -147 -47l-42 66q95 71 213 71q86 0 132.5 -37t46.5 -96q0 -67 -51.5 -113.5t-124.5 -66.5v-1q57 -9 98.5 -48.5
t41.5 -96.5q0 -109 -85.5 -170t-225.5 -61z" />
    <glyph glyph-name="four" unicode="4" 
d="M280 0l25 142h-306l13 77l384 447h101l-75 -437h84l-15 -87h-84l-25 -142h-102zM367 518l-246 -292q17 3 77 3h121l50 289h-2z" />
    <glyph glyph-name="five" unicode="5" 
d="M136 -12q-61 0 -103 14l24 88q32 -14 88 -14q94 0 149.5 40.5t55.5 115.5q0 55 -49 81.5t-126 26.5q-45 0 -62 -4l64 330h337l-15 -89h-240l-30 -151q102 -4 168 -52.5t66 -128.5q0 -124 -88 -190.5t-239 -66.5z" />
    <glyph glyph-name="six" unicode="6" 
d="M253 -12q-105 0 -157.5 66.5t-52.5 164.5q0 130 62.5 236t169 164.5t235.5 58.5l12 -86q-160 0 -265 -102q-58 -55 -84 -136q57 55 143 55q84 0 132 -46.5t48 -126.5q0 -106 -69 -177t-174 -71zM257 72q62 0 95.5 46.5t33.5 110.5q0 47 -25 72t-71 25q-76 0 -134 -52
q-4 -27 -4 -62q0 -140 105 -140z" />
    <glyph glyph-name="seven" unicode="7" 
d="M158 -29l-85 40l356 564h-232q-2 -12 -6 -25l-7 -28q-6 -28 -12 -42h-78l33 186h438l-11 -65z" />
    <glyph glyph-name="eight" unicode="8" 
d="M236 -12q-93 0 -147.5 44t-54.5 110q0 119 172 203q-94 72 -94 148q0 81 67.5 133t157.5 52q87 0 137.5 -39t50.5 -105q0 -58 -43 -101.5t-117 -80.5q115 -74 115 -161q0 -86 -67 -144.5t-177 -58.5zM244 72q54 0 90 31.5t36 76.5q0 33 -25 59.5t-77 60.5
q-61 -33 -93 -66.5t-32 -80.5q0 -36 27 -58.5t74 -22.5zM329 595q-45 0 -76.5 -27.5t-31.5 -68.5q0 -30 20 -52.5t60 -49.5q57 29 86.5 59t29.5 68q0 32 -22.5 51.5t-65.5 19.5z" />
    <glyph glyph-name="nine" unicode="9" 
d="M62 -18l-13 86q121 0 206 53q107 67 143 191q-60 -55 -145 -55q-82 0 -131.5 47t-49.5 127q0 105 74 176t175 71q104 0 154.5 -65.5t50.5 -161.5q0 -135 -53.5 -240.5t-160 -167t-250.5 -61.5zM280 340q77 0 135 52q4 27 4 64q0 65 -27.5 101.5t-78.5 36.5
q-57 0 -93.5 -47.5t-36.5 -108.5q0 -98 97 -98z" />
    <glyph glyph-name="colon" unicode=":" horiz-adv-x="253" 
d="M100 -10q-32 0 -54 21.5t-22 52.5q0 30 22 51.5t54 21.5q30 0 52 -21.5t22 -51.5q0 -31 -22 -52.5t-52 -21.5zM160 343q-32 0 -53.5 21t-21.5 52q0 30 21.5 51.5t53.5 21.5q31 0 52.5 -21.5t21.5 -51.5q0 -31 -21.5 -52t-52.5 -21z" />
    <glyph glyph-name="semicolon" unicode=";" horiz-adv-x="253" 
d="M94 138q33 0 54.5 -22.5t21.5 -60.5q0 -56 -37.5 -112.5t-89.5 -98.5l-42 38q18 18 27.5 29t18.5 29t9 35q0 19 -16 44.5t-16 49.5q0 30 20 49.5t50 19.5zM158 343q-32 0 -53.5 21t-21.5 52q0 30 21.5 51.5t53.5 21.5q31 0 52.5 -21.5t21.5 -51.5q0 -31 -21.5 -52
t-52.5 -21z" />
    <glyph glyph-name="less" unicode="&#x3c;" horiz-adv-x="403" 
d="M255 23l-215 225l281 224l51 -66l-209 -164l153 -162z" />
    <glyph glyph-name="equal" unicode="=" horiz-adv-x="519" 
d="M44 134l15 85h393l-15 -85h-393zM75 311l15 84h393l-15 -84h-393z" />
    <glyph glyph-name="greater" unicode="&#x3e;" horiz-adv-x="403" 
d="M83 23l-51 66l210 164l-153 161l61 57l215 -224z" />
    <glyph glyph-name="question" unicode="?" horiz-adv-x="412" 
d="M198 209h-80q-8 24 -8 53q0 45 24.5 73t75.5 58q55 31 79.5 57t24.5 70q0 70 -89 70q-35 0 -84 -20l-32 78q58 30 137 30q88 0 134.5 -41t46.5 -103q0 -70 -40 -114t-107 -80q-57 -33 -72 -52q-13 -18 -13 -39t3 -40zM139 -9q-32 0 -52.5 20.5t-20.5 50.5q0 28 20.5 48.5
t52.5 20.5q30 0 51 -20.5t21 -48.5q0 -30 -20.5 -50.5t-51.5 -20.5z" />
    <glyph glyph-name="at" unicode="@" horiz-adv-x="766" 
d="M378 -95q-155 0 -247.5 95.5t-92.5 240.5q0 152 106.5 268.5t263.5 116.5q156 0 247.5 -93t91.5 -214q0 -101 -53 -169.5t-136 -68.5q-50 0 -77 26t-29 71v1h-2q-51 -97 -135 -97q-45 0 -71.5 34.5t-26.5 83.5q0 108 57.5 187t154.5 79q65 0 133 -24l-26 -155
q-11 -66 -11 -78q0 -24 12.5 -41.5t32.5 -17.5q43 0 73 46.5t30 115.5q0 110 -74 177.5t-191 67.5q-115 0 -200.5 -91t-85.5 -222q0 -123 70 -195.5t196 -72.5q85 0 147 29l27 -66q-84 -34 -184 -34zM345 158q24 0 45 18.5t36 50.5t25.5 66.5t18.5 73.5l5 25q-25 9 -49 9
q-52 0 -84.5 -54t-32.5 -128q0 -61 36 -61z" />
    <glyph glyph-name="A" unicode="A" horiz-adv-x="681" 
d="M-36 0l12 69q4 1 58 8l333 589h106l105 -589q41 -2 64 -8l-12 -69h-242l12 69q26 6 65 8l-17 109h-248l-59 -109q38 -2 62 -8l-11 -69h-228zM242 264h193l-24 156q-3 18 -18 126h-2q-42 -86 -63 -125z" />
    <glyph glyph-name="B" unicode="B" horiz-adv-x="595" 
d="M-13 0l12 69q36 9 79 9l92 510q-43 0 -77 9l12 69h277q90 0 143 -38t53 -111q0 -137 -145 -172v-2q54 -11 88 -45t34 -87q0 -105 -76 -158t-205 -53h-287zM189 82h93q161 0 161 128q0 45 -30 70.5t-89 25.5h-96zM242 383h89q67 0 101 31t34 84q0 86 -105 86h-83z" />
    <glyph glyph-name="C" unicode="C" horiz-adv-x="653" 
d="M337 -12q-138 0 -213 79t-75 201q0 173 117.5 291.5t284.5 118.5q130 0 197 -49l-29 -161h-85q0 32 10 108q-41 16 -103 16q-118 0 -196 -91.5t-78 -226.5q0 -88 47.5 -144t136.5 -56q74 0 131 28q20 97 29 114h85l-28 -160q-30 -28 -96 -48t-135 -20z" />
    <glyph glyph-name="D" unicode="D" horiz-adv-x="694" 
d="M-13 0l12 69q36 9 79 9l92 510q-43 0 -77 9l12 69h254q161 0 243.5 -69.5t82.5 -190.5q0 -82 -27 -154.5t-78.5 -129t-133.5 -89.5t-184 -33h-275zM191 84h91q133 0 209 89t76 226q0 183 -217 183h-70z" />
    <glyph glyph-name="E" unicode="E" horiz-adv-x="584" 
d="M-13 0l12 69q36 9 79 9l92 510q-43 0 -77 9l12 69h505l-32 -176h-85v15q0 29 8 77h-223l-35 -202h125q17 59 19 63h73l-38 -208h-73q-1 4 1 27l4 38h-125l-39 -216h229q8 50 24 92h85l-31 -176h-510z" />
    <glyph glyph-name="F" unicode="F" horiz-adv-x="556" 
d="M-13 0l12 69q36 9 79 9l92 510q-43 0 -77 9l12 69h497l-32 -181h-85v16q0 31 8 81h-214l-39 -220h133q17 60 19 66h73l-38 -212h-73q-2 19 4 66h-132l-37 -204q38 0 83 -9l-12 -69h-273z" />
    <glyph glyph-name="G" unicode="G" horiz-adv-x="730" 
d="M363 -12q-152 0 -233 77.5t-81 204.5q0 176 118.5 292t291.5 116q146 0 219 -55l-29 -160h-85q0 32 10 106q-58 23 -126 23q-123 0 -202 -88.5t-79 -229.5q0 -95 51.5 -147.5t151.5 -52.5q76 0 135 32l22 127q-46 0 -80 9l13 69h260l-13 -69q-29 -9 -70 -9l-33 -181
q-101 -64 -241 -64z" />
    <glyph glyph-name="H" unicode="H" horiz-adv-x="768" 
d="M-13 0l12 69q36 9 79 9l91 510q-43 0 -77 9l12 69h267l-13 -69q-34 -9 -78 -9l-35 -199h331l35 199q-40 0 -74 9l12 69h266l-13 -69q-27 -9 -79 -9l-92 -510q38 0 77 -9l-11 -69h-266l12 69q36 9 77 9l41 227h-330l-41 -227q29 0 74 -9l-11 -69h-266z" />
    <glyph glyph-name="I" unicode="I" horiz-adv-x="326" 
d="M-13 0l12 69q36 9 79 9l92 510q-43 0 -77 9l12 69h268l-12 -69q-36 -9 -80 -9l-91 -510q32 0 77 -9l-12 -69h-268z" />
    <glyph glyph-name="J" unicode="J" horiz-adv-x="302" 
d="M-40 -198q-51 0 -79 15l35 87q19 -8 43 -8q40 0 62 25.5t32 82.5l104 584q-41 0 -75 9l12 69h265l-13 -69q-34 -9 -77 -9l-107 -595q-35 -191 -202 -191z" />
    <glyph glyph-name="K" unicode="K" horiz-adv-x="659" 
d="M352 0l12 69q24 7 56 8l-181 267l258 245q-51 7 -55 8l12 69h245l-13 -69q-4 -1 -66 -8l-262 -242l189 -270q48 -2 72 -8l-12 -69h-255zM-13 0l12 69q36 9 79 9l92 510q-43 0 -77 9l12 69h260l-13 -69q-28 -6 -71 -8l-92 -512q37 0 72 -8l-12 -69h-262z" />
    <glyph glyph-name="L" unicode="L" horiz-adv-x="516" 
d="M-13 0l12 69q36 9 79 9l92 510q-43 0 -77 9l12 69h268l-12 -69q-36 -9 -81 -9l-89 -504h178q18 84 28 107h83l-34 -191h-459z" />
    <glyph glyph-name="M" unicode="M" horiz-adv-x="911" 
d="M-27 0l11 69q33 7 69 8l157 513q-33 0 -73 8l13 68h201l65 -450q3 -18 5.5 -37.5t4 -38.5t2.5 -27h2q33 74 47 103l226 450h200l-13 -68q-27 -6 -74 -8l-25 -513q35 0 70 -8l-12 -69h-254l12 69q32 6 75 8l19 332q5 75 9 99h-2q-20 -49 -39 -85l-213 -423h-110l-60 409
q0 16 -11 85l-2 14h-2q-5 -31 -26 -102l-95 -329q47 -2 72 -8l-12 -69h-237z" />
    <glyph glyph-name="N" unicode="N" horiz-adv-x="735" 
d="M-13 0l12 69q36 9 79 9l92 510q-43 0 -77 9l12 69h182l201 -402q22 -43 46 -107h1q0 1 5.5 42t10.5 67l56 322q-42 0 -76 9l12 69h249l-13 -69q-45 -9 -78 -9l-104 -588h-92l-209 421q-33 67 -46 103h-2q0 -1 -5 -39.5t-10 -64.5l-61 -342q32 0 77 -9l-12 -69h-250z" />
    <glyph glyph-name="O" unicode="O" horiz-adv-x="736" 
d="M338 -12q-134 0 -211.5 83.5t-77.5 205.5q0 103 46 194t134 149t198 58q138 0 213 -82.5t75 -206.5q0 -103 -45 -194t-132.5 -149t-199.5 -58zM348 74q113 0 181.5 93.5t68.5 220.5q0 88 -47.5 146t-133.5 58q-114 0 -182.5 -93.5t-68.5 -219.5q0 -89 49.5 -147
t132.5 -58z" />
    <glyph glyph-name="P" unicode="P" horiz-adv-x="574" 
d="M-13 0l12 69q36 9 79 9l92 510q-43 0 -77 9l12 69h267q98 0 156.5 -45.5t58.5 -127.5q0 -116 -79.5 -178.5t-211.5 -62.5h-75l-32 -174q33 0 78 -9l-12 -69h-268zM236 335h72q81 0 122.5 40t41.5 106q0 47 -29 75t-91 28h-72z" />
    <glyph glyph-name="Q" unicode="Q" horiz-adv-x="736" 
d="M495 -169q-83 0 -146 40.5t-115 132.5q-88 29 -136.5 103.5t-48.5 169.5q0 103 46 194t134 149t198 58q138 0 213 -82.5t75 -206.5q0 -153 -94.5 -269t-247.5 -130q26 -41 57 -58t76 -17q61 0 108 32l32 -76q-64 -40 -151 -40zM348 75q114 0 182 93t68 220
q0 88 -47.5 145.5t-134.5 57.5q-113 0 -181.5 -93t-68.5 -219q0 -89 49 -146.5t133 -57.5z" />
    <glyph glyph-name="R" unicode="R" horiz-adv-x="622" 
d="M516 -8q-47 0 -71.5 15.5t-42.5 55.5l-63 135q-24 52 -45.5 72.5t-54.5 20.5h-12l-38 -214q39 0 71 -8l-11 -69h-262l12 69q36 9 79 9l92 510q-43 0 -77 9l12 69h277q97 0 149.5 -41t52.5 -117q0 -92 -58.5 -142.5t-153.5 -59.5v-2q41 -21 74 -86l50 -102q14 -26 32 -37
t48 -11h6q5 0 6 1l-11 -69q-22 -8 -61 -8zM240 368h93q68 0 103 35.5t35 92.5q0 88 -109 88h-83z" />
    <glyph glyph-name="S" unicode="S" horiz-adv-x="498" 
d="M204 -12q-133 0 -200 58l27 151h85q0 -30 -11 -100q43 -24 109 -24q55 0 90.5 29t35.5 76q0 71 -94 115l-53 26q-100 53 -100 165q0 86 64.5 140t165.5 54q62 0 110 -13t71 -30l-28 -158h-85q0 34 11 104q-36 13 -82 13q-52 0 -85 -25t-33 -66q0 -42 24 -67t75 -50
q22 -11 30.5 -14.5t29 -15.5t29.5 -20t23.5 -23.5t21 -30.5t12 -37t5.5 -47q0 -94 -66.5 -152t-181.5 -58z" />
    <glyph glyph-name="T" unicode="T" horiz-adv-x="627" 
d="M137 0l12 69q38 9 80 9l90 504h-140q-8 -56 -27 -105h-85l34 189h578l-34 -189h-85q0 35 10 105h-140l-90 -504q32 0 77 -9l-12 -69h-268z" />
    <glyph glyph-name="U" unicode="U" horiz-adv-x="722" 
d="M339 -12q-118 0 -179 54.5t-61 151.5q0 31 6 64l58 330q-38 0 -72 9l12 69h260l-12 -69q-34 -9 -77 -9l-57 -323q-17 -96 14 -140.5t116 -44.5q80 0 123 43.5t61 136.5l58 328q-40 0 -74 9l12 69h243l-12 -69q-36 -9 -76 -9l-60 -339q-23 -129 -90 -195t-193 -66z" />
    <glyph glyph-name="V" unicode="V" horiz-adv-x="671" 
d="M254 0l-122 589q-46 2 -71 8l13 69h257l-12 -69q-28 -6 -75 -8l66 -350q5 -27 11 -69t6 -44h2q19 44 53 113l178 350q-48 2 -73 8l13 69h246l-12 -69q-26 -6 -67 -8l-314 -589h-99z" />
    <glyph glyph-name="W" unicode="W" horiz-adv-x="928" 
d="M184 0l-55 589q-43 2 -69 8l13 69h253l-12 -69q-20 -6 -75 -8l24 -296q4 -56 7 -137h2q10 31 55 138l160 372h113l38 -383q7 -82 9 -127h3q15 46 48 127l126 306q-51 2 -74 8l12 69h244l-13 -69q-24 -6 -63 -8l-258 -589h-105l-37 390l-11 144h-2q-18 -51 -60 -144
l-173 -390h-100z" />
    <glyph glyph-name="X" unicode="X" horiz-adv-x="634" 
d="M-27 0l12 69q34 7 67 8l218 270l-115 242q-30 0 -65 8l12 69h247l-13 -69q-15 -4 -61 -6l77 -178l131 178q-45 2 -60 6l12 69h240l-13 -69q-29 -7 -63 -8l-200 -248l123 -264q42 -2 68 -8l-12 -69h-253l12 69q5 1 15 2t23.5 2.5l22.5 2.5l-84 197l-147 -198
q10 -1 32.5 -2.5t28.5 -3.5l-11 -69h-244z" />
    <glyph glyph-name="Y" unicode="Y" horiz-adv-x="610" 
d="M133 0l12 69q38 9 80 9l31 171l-120 340q-32 0 -72 8l12 69h250l-12 -69q-2 0 -7 -1t-10.5 -2t-10.5 -1l-36 -4l81 -243h1l161 243q-58 7 -61 8l13 69h240l-12 -69q-33 -7 -71 -8l-235 -339l-31 -172q32 0 77 -9l-11 -69h-269z" />
    <glyph glyph-name="Z" unicode="Z" horiz-adv-x="560" 
d="M-10 0l14 75l426 504h-230q-18 -81 -27 -103h-85l34 190h464l-14 -72l-430 -507h259q17 74 28 103h86l-35 -190h-490z" />
    <glyph glyph-name="bracketleft" unicode="[" horiz-adv-x="322" 
d="M1 -161l153 881h224l-14 -78h-124l-126 -725h124l-14 -78h-223z" />
    <glyph glyph-name="backslash" unicode="\" horiz-adv-x="402" 
d="M264 -161l-166 881h89l166 -881h-89z" />
    <glyph glyph-name="bracketright" unicode="]" horiz-adv-x="322" 
d="M-44 -161l14 78h123l127 725h-124l13 78h224l-153 -881h-224z" />
    <glyph glyph-name="underscore" unicode="_" horiz-adv-x="410" 
d="M-73 -173l15 84h411l-15 -84h-411z" />
    <glyph glyph-name="grave" unicode="`" horiz-adv-x="500" 
d="M266 541l-109 131h134l64 -131h-89z" />
    <glyph glyph-name="a" unicode="a" horiz-adv-x="525" 
d="M148 -12q-56 0 -88 41.5t-32 112.5q0 151 81.5 253t215.5 102q90 0 154 -25l-44 -240l-15 -88l-9 -66q43 -2 75 -9l-13 -69h-170q10 88 22 135h-2q-76 -147 -175 -147zM186 75q52 0 102.5 86.5t70.5 209.5l6 40q-26 7 -57 7q-74 0 -123.5 -75t-49.5 -185q0 -83 51 -83z
" />
    <glyph glyph-name="b" unicode="b" horiz-adv-x="519" 
d="M197 -12q-94 0 -164 22l115 633q-52 5 -78 5l12 69q72 7 187 7l-19 -80l-30 -162q-10 -53 -29 -128h2q38 67 78.5 105t100.5 38q57 0 88 -44.5t31 -116.5q0 -150 -81 -249t-213 -99zM207 67q78 0 127.5 72.5t49.5 182.5q0 86 -50 86q-54 0 -104 -86t-75 -211l-8 -38
q18 -6 60 -6z" />
    <glyph glyph-name="c" unicode="c" horiz-adv-x="443" 
d="M205 -12q-84 0 -131 51t-47 140q0 137 83 227.5t196 90.5q74 0 123 -32l-25 -145h-77q-2 28 8 89q-15 5 -36 5q-65 0 -115.5 -63t-50.5 -160q0 -59 22.5 -89t63.5 -30q50 0 108 49l45 -66q-72 -67 -167 -67z" />
    <glyph glyph-name="d" unicode="d" horiz-adv-x="532" 
d="M150 -12q-59 0 -90.5 44t-31.5 116q0 149 82 249t208 100q36 0 68 -8l28 154q-52 5 -78 5l13 69q70 7 186 7l-19 -80l-74 -412l-15 -88l-9 -66q42 -2 72 -9l-12 -69h-169q10 90 21 132h-2q-77 -144 -178 -144zM183 75q56 0 108 86t74 211l6 38q-22 8 -63 8
q-75 0 -124.5 -74t-49.5 -180q0 -89 49 -89z" />
    <glyph glyph-name="e" unicode="e" horiz-adv-x="457" 
d="M202 -12q-85 0 -129.5 51.5t-44.5 133.5q0 136 80 230t192 94q64 0 100.5 -31t36.5 -88q0 -156 -304 -191q0 -116 85 -116q68 0 127 55l44 -66q-77 -72 -187 -72zM281 417q-50 0 -88 -47.5t-53 -115.5q87 9 141 38.5t54 73.5q0 51 -54 51z" />
    <glyph glyph-name="f" unicode="f" horiz-adv-x="325" 
d="M-56 -230q-45 0 -85 17l29 79q30 -13 61 -13q69 0 89 107l81 444h-81l14 80h81l12 65q18 92 65 137t132 45q74 0 122 -31l-43 -79q-31 23 -80 23q-42 0 -63 -24.5t-30 -72.5l-12 -63h114l-14 -80h-114l-79 -436q-19 -104 -62.5 -151t-136.5 -47z" />
    <glyph glyph-name="g" unicode="g" horiz-adv-x="519" 
d="M154 -229q-89 0 -165 53l49 77q58 -44 120 -44t95.5 36t46.5 108l6 33q11 57 22 94h-2q-76 -138 -177 -138q-56 0 -88 44t-32 114q0 151 82 250t213 99q104 0 164 -21l-87 -471q-22 -125 -79 -179.5t-168 -54.5zM185 76q56 0 110 88t72 208l6 39q-29 8 -64 8
q-75 0 -124.5 -73.5t-49.5 -180.5q0 -89 50 -89z" />
    <glyph glyph-name="h" unicode="h" horiz-adv-x="554" 
d="M32 0l118 643q-52 5 -78 5l12 69q72 7 187 7l-19 -80l-29 -159q-11 -63 -28 -131h2q17 28 30 46t37 44t54.5 39.5t65.5 13.5q62 0 87.5 -46.5t10.5 -129.5l-45 -243q43 -2 75 -9l-13 -69h-178l55 315q16 93 -38 93t-108 -88.5t-87 -272.5l-9 -47h-102z" />
    <glyph glyph-name="i" unicode="i" horiz-adv-x="281" 
d="M45 0l74 409q-52 5 -76 5l12 69q72 7 186 7l-18 -79l-61 -333q45 -2 74 -9l-12 -69h-179zM207 562q-29 0 -48 19.5t-19 47.5q0 27 19 46.5t48 19.5t47.5 -19t18.5 -47t-18.5 -47.5t-47.5 -19.5z" />
    <glyph glyph-name="j" unicode="j" horiz-adv-x="268" 
d="M-51 -230q-37 0 -82 15l33 81q18 -10 47 -10q42 0 61.5 27t31.5 90l80 436q-52 5 -78 5l12 69q75 7 186 7l-20 -95l-77 -427q-18 -96 -61 -147t-133 -51zM207 562q-29 0 -48 19.5t-19 47.5q0 27 19 46.5t48 19.5t47.5 -19t18.5 -47t-18.5 -47.5t-47.5 -19.5z" />
    <glyph glyph-name="k" unicode="k" horiz-adv-x="501" 
d="M324 0l-140 267l-46 -267h-105l112 643q-52 5 -78 5l13 69q75 7 187 7l-18 -79l-64 -373l207 212h120l-219 -216l102 -190q38 0 80 -9l-13 -69h-138z" />
    <glyph glyph-name="l" unicode="l" horiz-adv-x="266" 
d="M31 0l117 643q-52 5 -78 5l12 69q72 7 187 7l-18 -79l-103 -567q45 -2 74 -9l-12 -69h-179z" />
    <glyph glyph-name="m" unicode="m" horiz-adv-x="842" 
d="M44 0l75 408q-47 6 -77 6l12 69q75 7 181 7l-12 -63q-6 -32 -18 -76h2q15 27 29.5 48t37.5 46t52.5 38.5t62.5 13.5q49 0 74 -28.5t27 -75.5q0 -19 -3 -35h2q36 63 79.5 101t103.5 38q63 0 88 -47.5t9 -132.5l-44 -239q43 -2 75 -9l-13 -69h-178l55 305q21 103 -36 103
q-55 0 -107.5 -90t-84.5 -271l-8 -47h-102l56 305q17 103 -38 103q-53 0 -104.5 -89t-85.5 -272l-8 -47h-102z" />
    <glyph glyph-name="n" unicode="n" horiz-adv-x="566" 
d="M45 0l74 409q-52 5 -76 5l12 69q75 7 181 7l-14 -65q0 -2 -8 -37t-8 -37h2q79 146 189 146q62 0 87.5 -47t10.5 -129l-45 -243q45 -2 74 -9l-12 -69h-179l55 315q16 93 -37 93t-108 -89t-88 -272l-8 -47h-102z" />
    <glyph glyph-name="o" unicode="o" horiz-adv-x="498" 
d="M210 -12q-89 0 -136.5 59t-47.5 142q0 122 76.5 215t185.5 93q88 0 136 -57t48 -144q0 -128 -75 -218t-187 -90zM221 67q63 0 104 70t41 153q0 127 -85 127q-65 0 -107 -70t-42 -155q0 -125 89 -125z" />
    <glyph glyph-name="p" unicode="p" horiz-adv-x="535" 
d="M-71 -218l13 69q34 9 77 9l100 548q-62 6 -77 6l13 69q75 7 181 7q0 -3 -7.5 -35t-7.5 -35q-11 -51 -16 -67h2q37 68 77.5 106t101.5 38q56 0 88 -44.5t32 -116.5q0 -148 -80 -248t-207 -100q-47 0 -71 8l-25 -136q45 -2 74 -9l-12 -69h-256zM222 65q78 0 127.5 73
t49.5 183q0 87 -51 87q-54 0 -104.5 -86.5t-75.5 -210.5l-7 -40q18 -6 61 -6z" />
    <glyph glyph-name="q" unicode="q" horiz-adv-x="519" 
d="M182 -218l12 69q34 9 79 9l27 142q14 77 29 126h-2q-79 -140 -178 -140q-57 0 -88.5 44.5t-31.5 115.5q0 151 82.5 250t213.5 99q103 0 163 -21l-114 -616q46 -2 75 -9l-12 -69h-255zM185 76q56 0 108 86t74 210l6 39q-29 8 -63 8q-75 0 -124.5 -73t-49.5 -181
q0 -89 49 -89z" />
    <glyph glyph-name="r" unicode="r" horiz-adv-x="400" 
d="M45 0l74 409q-52 5 -76 5l12 69q72 7 181 7l-14 -65l-18 -80h2q28 61 72.5 106.5t93.5 45.5q34 0 53 -10l-37 -98q-21 7 -36 7q-60 0 -112 -85t-85 -264l-8 -47h-102z" />
    <glyph glyph-name="s" unicode="s" horiz-adv-x="432" 
d="M179 -12q-53 0 -99 12t-66 28l23 126h77q0 -34 -6 -75q33 -14 74 -14q39 0 62 18t23 47q0 19 -12.5 34.5t-25.5 23.5t-39 21q-27 14 -41.5 22.5t-34.5 26t-29.5 41t-9.5 53.5q0 66 50 105.5t135 39.5q99 0 151 -35l-23 -128h-78q0 37 7 75q-23 10 -56 10q-36 0 -58 -17
t-22 -42q0 -14 5 -25t17.5 -21t22 -15.5t28.5 -15.5q30 -15 42.5 -22.5t34.5 -25.5t31.5 -41.5t9.5 -54.5q0 -69 -51.5 -110t-141.5 -41z" />
    <glyph glyph-name="t" unicode="t" horiz-adv-x="356" 
d="M168 -12q-65 0 -87.5 37.5t-8.5 116.5l48 262h-80l14 80h81l24 129l109 29l-29 -158h120l-13 -80h-122l-46 -250q-8 -38 -4.5 -58.5t25.5 -20.5q9 0 17.5 2t18.5 7.5t14.5 8t17 11.5t13.5 10l38 -69q-67 -57 -150 -57z" />
    <glyph glyph-name="u" unicode="u" horiz-adv-x="565" 
d="M169 -13q-63 0 -88 46t-10 130l44 246q-52 5 -76 5l13 69q72 7 181 7l-57 -320q-16 -94 38 -94q51 0 104 78t84 235l4 20q-52 5 -78 5l13 69q72 7 181 7l-47 -258l-15 -88l-9 -66q43 -2 75 -9l-13 -69h-171q9 76 22 140h-2q-19 -32 -33 -52t-38 -47t-55 -40.5t-67 -13.5z
" />
    <glyph glyph-name="v" unicode="v" horiz-adv-x="492" 
d="M155 0l-59 407q-54 7 -76 7l12 69q91 7 158 7l32 -279q1 -12 5 -85h2l182 358h106l-270 -484h-92z" />
    <glyph glyph-name="w" unicode="w" horiz-adv-x="748" 
d="M140 0l-44 408q-46 6 -76 6l12 69q84 7 162 7l20 -259q2 -38 2 -58v-41h2l170 352h93l17 -252q2 -42 2 -60v-39h2l168 351h103l-249 -484h-89l-25 356h-2l-179 -356h-89z" />
    <glyph glyph-name="x" unicode="x" horiz-adv-x="470" 
d="M-26 0l211 250l-79 157q-39 1 -72 8l13 68q14 3 105 3h29l70 -156l121 154h113l-194 -231l84 -175q39 -1 72 -9l-12 -69h-136l-76 173l-136 -173h-113z" />
    <glyph glyph-name="y" unicode="y" horiz-adv-x="501" 
d="M17 -223q-61 0 -89 18l38 82q18 -11 57 -11q43 0 75.5 27.5t71.5 98.5l-82 415q-54 7 -76 7l12 69q72 7 155 7l54 -312q4 -21 8 -78h2q15 45 30 77l137 307h108l-211 -420q-81 -164 -139.5 -225.5t-150.5 -61.5z" />
    <glyph glyph-name="z" unicode="z" horiz-adv-x="487" 
d="M5 0l10 61l314 345h-158q-9 -50 -20 -76h-81l27 154h384l-11 -64l-312 -342h180q9 46 21 76h81l-28 -154h-407z" />
    <glyph glyph-name="braceleft" unicode="{" horiz-adv-x="378" 
d="M281 -161h-92q-52 0 -81.5 34.5t-20.5 91.5l32 175q19 104 -92 108l14 77q58 1 88.5 26.5t39.5 78.5l30 174q21 116 134 116h101l-13 -79h-63q-31 0 -45.5 -18t-20.5 -56l-27 -159q-9 -55 -38 -84t-76 -41v-2q86 -26 70 -122l-29 -169q-7 -40 1 -56t39 -16h63z" />
    <glyph glyph-name="bar" unicode="|" horiz-adv-x="255" 
d="M-2 -250l176 1000h87l-176 -1000h-87z" />
    <glyph glyph-name="braceright" unicode="}" horiz-adv-x="378" 
d="M-44 -161l13 79h63q30 0 44.5 18t20.5 56l29 168q16 97 115 125v2q-87 25 -71 124l28 158q6 40 -1.5 56t-38.5 16h-63l14 79h98q47 0 75.5 -33t19.5 -92l-29 -165q-8 -49 15 -77t77 -30l-14 -78q-110 0 -128 -105l-32 -185q-21 -116 -132 -116h-103z" />
    <glyph glyph-name="uni00A0" unicode="&#xa0;" horiz-adv-x="220" 
 />
    <glyph glyph-name="exclamdown" unicode="&#xa1;" horiz-adv-x="272" 
d="M163 355q-30 0 -51 20.5t-21 48.5q0 30 20.5 50.5t51.5 20.5q32 0 52.5 -20.5t20.5 -50.5q0 -28 -20.5 -48.5t-52.5 -20.5zM1 -180l103 453h80l-59 -453h-124z" />
    <glyph glyph-name="sterling" unicode="&#xa3;" horiz-adv-x="533" 
d="M-6 0l13 69q108 56 131 179q5 21 6 43h-97l14 77h84q2 83 10 122q32 188 222 188q105 0 164 -44l-28 -163h-80q0 49 11 109q-29 14 -70 14q-92 0 -113 -118q-8 -52 -10 -108h143l-13 -77h-133q-2 -8 -3.5 -21.5t-2.5 -21.5q-22 -107 -99 -164h226q7 49 25 96h80l-31 -180
h-449z" />
    <glyph glyph-name="yen" unicode="&#xa5;" horiz-adv-x="615" 
d="M100 272l12 64h115l-90 253q-33 0 -73 8l12 69h251l-12 -69q-2 0 -65 -8l81 -251h1l164 251l-36 4q-10 1 -26 4l12 69h239l-12 -69q-28 -6 -69 -8l-175 -253h115l-12 -64h-148l-15 -22l-8 -43h160l-12 -63h-159l-12 -66q32 0 77 -9l-11 -69h-269l11 69q36 9 80 9l12 66
h-161l12 63h161l8 42l-8 23h-150z" />
    <glyph glyph-name="section" unicode="&#xa7;" horiz-adv-x="425" 
d="M117 -152q-78 0 -125 37l48 75q38 -28 78 -28q41 0 64.5 23.5t23.5 59.5q0 11 -4 23.5t-8 22t-14 25t-15.5 23t-20 26.5t-19.5 25q-76 99 -76 175q0 88 99 141q-20 42 -20 80q0 83 55.5 129.5t132.5 46.5q78 0 124 -32l-47 -75q-27 25 -78 25q-39 0 -60.5 -23.5
t-21.5 -61.5q0 -9 1.5 -17t6.5 -18.5t8 -17t12 -19t12.5 -17t15.5 -20t15 -19.5q27 -36 41 -57t28.5 -57t14.5 -70q0 -87 -96 -150q20 -40 20 -77q0 -86 -55 -132t-140 -46zM200 234l48 -67q39 30 39 74q0 45 -69 135q-5 6 -30 40q-37 -26 -37 -71q0 -41 49 -111z" />
    <glyph glyph-name="dieresis" unicode="&#xa8;" horiz-adv-x="500" 
d="M214 543q-26 0 -43.5 17.5t-17.5 43.5t17.5 43.5t43.5 17.5q28 0 45.5 -17.5t17.5 -43.5t-18 -43.5t-45 -17.5zM411 543q-26 0 -43.5 17.5t-17.5 43.5t17.5 43.5t43.5 17.5q28 0 45.5 -17.5t17.5 -43.5t-18 -43.5t-45 -17.5z" />
    <glyph glyph-name="copyright" unicode="&#xa9;" horiz-adv-x="821" 
d="M430 -14q-153 0 -262.5 109.5t-109.5 263.5t109.5 263.5t262.5 109.5q154 0 263.5 -109.5t109.5 -263.5t-109.5 -263.5t-263.5 -109.5zM430 49q130 0 216.5 87.5t86.5 222.5t-86.5 222.5t-216.5 87.5t-216 -87.5t-86 -222.5t86 -222.5t216 -87.5zM438 132
q-97 0 -161 65.5t-64 161.5t65.5 161.5t159.5 65.5q85 0 145 -52v-125h-62q-8 35 -8 80q-33 19 -73 19q-63 0 -98.5 -43.5t-35.5 -103.5q0 -65 39.5 -108.5t98.5 -43.5q55 0 107 44l42 -63q-67 -58 -155 -58z" />
    <glyph glyph-name="guillemotleft" unicode="&#xab;" horiz-adv-x="494" 
d="M119 54l-91 190l158 193h113l-162 -198l87 -185h-105zM319 54l-91 190l158 193h113l-162 -198l87 -185h-105z" />
    <glyph glyph-name="uni00AD" unicode="&#xad;" horiz-adv-x="318" 
d="M49 240l16 88h216l-16 -88h-216z" />
    <glyph glyph-name="registered" unicode="&#xae;" horiz-adv-x="821" 
d="M430 -14q-153 0 -262.5 109.5t-109.5 263.5t109.5 263.5t262.5 109.5q154 0 263.5 -109.5t109.5 -263.5t-109.5 -263.5t-263.5 -109.5zM430 49q130 0 216.5 87.5t86.5 222.5t-86.5 222.5t-216.5 87.5t-216 -87.5t-86 -222.5t86 -222.5t216 -87.5zM238 147v50q22 6 55 6
v319q-36 2 -55 7v50h202q70 0 107.5 -34t37.5 -90q0 -52 -33 -80t-73 -33v-2q22 -16 46 -53l28 -43q12 -17 18 -24t18 -13t29 -6q8 0 11 1v-51q-22 -6 -48 -6q-35 0 -52.5 11t-36.5 42l-59 93q-15 25 -27 33t-33 8v-129q37 -2 52 -6v-50h-187zM373 387h42q87 0 87 65
q0 66 -74 66h-55v-131z" />
    <glyph glyph-name="overscore" unicode="&#xaf;" horiz-adv-x="500" 
d="M169 567l14 80h275l-14 -80h-275z" />
    <glyph glyph-name="degree" unicode="&#xb0;" horiz-adv-x="343" 
d="M218 406q-56 0 -95.5 39.5t-39.5 96.5t39.5 96.5t95.5 39.5t95.5 -39.5t39.5 -96.5t-39.5 -96.5t-95.5 -39.5zM218 470q29 0 48 21t19 51t-19 51t-48 21t-47.5 -21t-18.5 -51t18.5 -51t47.5 -21z" />
    <glyph glyph-name="acute" unicode="&#xb4;" horiz-adv-x="500" 
d="M156 541l108 131h143l-156 -131h-95z" />
    <glyph glyph-name="mu" unicode="&#xb5;" horiz-adv-x="540" 
d="M-3 -218l127 702h103l-57 -320q-17 -85 57 -85q59 0 122 73l60 332h104l-66 -363q-14 -74 -9 -121h-103q-6 32 2 68q-61 -76 -147 -76q-36 0 -54 18h-1q-2 -49 -14 -112l-20 -116h-104z" />
    <glyph glyph-name="middot" unicode="&#xb7;" horiz-adv-x="266" 
d="M141 218q-32 0 -54 21.5t-22 52.5q0 30 22 51.5t54 21.5q30 0 52 -21.5t22 -51.5q0 -31 -22 -52.5t-52 -21.5z" />
    <glyph glyph-name="cedilla" unicode="&#xb8;" horiz-adv-x="500" 
d="M171 -225q-44 0 -75 13l18 51q20 -10 49 -10q48 0 48 37q0 45 -71 39l36 97h66l-24 -62q32 -5 51.5 -25.5t19.5 -51.5q0 -41 -32.5 -64.5t-85.5 -23.5z" />
    <glyph glyph-name="guillemotright" unicode="&#xbb;" horiz-adv-x="494" 
d="M-3 54l160 197l-87 186h105l91 -191l-156 -192h-113zM197 54l160 197l-87 186h105l91 -191l-156 -192h-113z" />
    <glyph glyph-name="questiondown" unicode="&#xbf;" horiz-adv-x="412" 
d="M169 -192q-87 0 -134.5 41t-47.5 103q0 37 12 68t37 55t45.5 38.5t53.5 33.5q40 21 62.5 42t22.5 49q0 20 -3 39h80q8 -22 8 -53q0 -45 -24.5 -72.5t-76.5 -58.5q-39 -24 -56 -36t-32 -36t-15 -55q0 -70 89 -70q39 0 84 21l32 -79q-62 -30 -137 -30zM276 355
q-30 0 -51 20.5t-21 48.5q0 30 21 50.5t51 20.5q32 0 52.5 -20.5t20.5 -50.5q0 -28 -20.5 -48.5t-52.5 -20.5z" />
    <glyph glyph-name="Agrave" unicode="&#xc0;" horiz-adv-x="681" 
d="M-36 0l12 69q4 1 58 8l333 589h106l105 -589q41 -2 64 -8l-12 -69h-242l12 69q26 6 65 8l-17 109h-248l-59 -109q38 -2 62 -8l-11 -69h-228zM242 264h193l-24 156q-3 18 -18 126h-2q-42 -86 -63 -125zM374 722l-109 131h134l64 -131h-89z" />
    <glyph glyph-name="Aacute" unicode="&#xc1;" horiz-adv-x="681" 
d="M-36 0l12 69q4 1 58 8l333 589h106l105 -589q41 -2 64 -8l-12 -69h-242l12 69q26 6 65 8l-17 109h-248l-59 -109q38 -2 62 -8l-11 -69h-228zM242 264h193l-24 156q-3 18 -18 126h-2q-42 -86 -63 -125zM374 722l108 131h143l-156 -131h-95z" />
    <glyph glyph-name="Acircumflex" unicode="&#xc2;" horiz-adv-x="681" 
d="M-36 0l12 69q4 1 58 8l333 589h106l105 -589q41 -2 64 -8l-12 -69h-242l12 69q26 6 65 8l-17 109h-248l-59 -109q38 -2 62 -8l-11 -69h-228zM242 264h193l-24 156q-3 18 -18 126h-2q-42 -86 -63 -125zM260 723l150 156h77l94 -156h-86l-57 77l-84 -77h-94z" />
    <glyph glyph-name="Atilde" unicode="&#xc3;" horiz-adv-x="681" 
d="M-36 0l12 69q4 1 58 8l333 589h106l105 -589q41 -2 64 -8l-12 -69h-242l12 69q26 6 65 8l-17 109h-248l-59 -109q38 -2 62 -8l-11 -69h-228zM242 264h193l-24 156q-3 18 -18 126h-2q-42 -86 -63 -125zM476 726q-28 0 -58.5 18.5t-48.5 18.5q-23 0 -56 -30l-39 45
q18 27 47 47t61 20q28 0 58.5 -18.5t48.5 -18.5q29 0 57 30l41 -44q-50 -68 -111 -68z" />
    <glyph glyph-name="Adieresis" unicode="&#xc4;" horiz-adv-x="681" 
d="M-36 0l12 69q4 1 58 8l333 589h106l105 -589q41 -2 64 -8l-12 -69h-242l12 69q26 6 65 8l-17 109h-248l-59 -109q38 -2 62 -8l-11 -69h-228zM242 264h193l-24 156q-3 18 -18 126h-2q-42 -86 -63 -125zM334 724q-26 0 -43.5 17.5t-17.5 43.5t17.5 43.5t43.5 17.5
q28 0 45.5 -17.5t17.5 -43.5t-18 -43.5t-45 -17.5zM531 724q-26 0 -43.5 17.5t-17.5 43.5t17.5 43.5t43.5 17.5q28 0 45.5 -17.5t17.5 -43.5t-18 -43.5t-45 -17.5z" />
    <glyph glyph-name="Aring" unicode="&#xc5;" horiz-adv-x="681" 
d="M-36 0l12 69q4 1 58 8l333 589h106l105 -589q41 -2 64 -8l-12 -69h-242l12 69q26 6 65 8l-17 109h-248l-59 -109q38 -2 62 -8l-11 -69h-228zM242 264h193l-24 156q-3 18 -18 126h-2q-42 -86 -63 -125zM440 723q-41 0 -71.5 28.5t-30.5 71.5q0 44 30.5 73t71.5 29
t71.5 -28.5t30.5 -72.5q0 -43 -30.5 -72t-71.5 -29zM440 772q22 0 34.5 15t12.5 37q0 24 -12 38.5t-35 14.5t-35 -14.5t-12 -38.5q0 -22 12.5 -37t34.5 -15z" />
    <glyph glyph-name="AE" unicode="&#xc6;" horiz-adv-x="911" 
d="M-51 0l12 69q22 6 53 7l383 512q-36 1 -69 9l12 69h596l-31 -176h-85v15q0 35 7 77h-222l-36 -202h126q7 42 19 63h73l-38 -208h-73q-2 22 5 65h-126l-38 -216h229q7 44 24 92h85l-31 -176h-502l12 69q40 8 72 8l21 114h-213l-84 -114q38 -2 62 -8l-11 -69h-232zM273 272
h168l54 304h-2z" />
    <glyph glyph-name="Ccedilla" unicode="&#xc7;" horiz-adv-x="653" 
d="M337 -12q-138 0 -213 79t-75 201q0 173 117.5 291.5t284.5 118.5q130 0 197 -49l-29 -161h-85q0 32 10 108q-41 16 -103 16q-118 0 -196 -91.5t-78 -226.5q0 -88 47.5 -144t136.5 -56q74 0 131 28q20 97 29 114h85l-28 -160q-30 -28 -96 -48t-135 -20zM292 -225
q-44 0 -75 13l18 51q20 -10 49 -10q48 0 48 37q0 45 -71 39l36 97h66l-24 -62q32 -5 51.5 -25.5t19.5 -51.5q0 -41 -32.5 -64.5t-85.5 -23.5z" />
    <glyph glyph-name="Egrave" unicode="&#xc8;" horiz-adv-x="584" 
d="M-13 0l12 69q36 9 79 9l92 510q-43 0 -77 9l12 69h505l-32 -176h-85v15q0 29 8 77h-223l-35 -202h125q17 59 19 63h73l-38 -208h-73q-1 4 1 27l4 38h-125l-39 -216h229q8 50 24 92h85l-31 -176h-510zM319 722l-109 131h134l64 -131h-89z" />
    <glyph glyph-name="Eacute" unicode="&#xc9;" horiz-adv-x="584" 
d="M319 722l108 131h143l-156 -131h-95zM-13 0l12 69q36 9 79 9l92 510q-43 0 -77 9l12 69h505l-32 -176h-85v15q0 29 8 77h-223l-35 -202h125q17 59 19 63h73l-38 -208h-73q-1 4 1 27l4 38h-125l-39 -216h229q8 50 24 92h85l-31 -176h-510z" />
    <glyph glyph-name="Ecircumflex" unicode="&#xca;" horiz-adv-x="584" 
d="M206 723l150 156h77l94 -156h-86l-57 77l-84 -77h-94zM-13 0l12 69q36 9 79 9l92 510q-43 0 -77 9l12 69h505l-32 -176h-85v15q0 29 8 77h-223l-35 -202h125q17 59 19 63h73l-38 -208h-73q-1 4 1 27l4 38h-125l-39 -216h229q8 50 24 92h85l-31 -176h-510z" />
    <glyph glyph-name="Edieresis" unicode="&#xcb;" horiz-adv-x="584" 
d="M279 724q-26 0 -43.5 17.5t-17.5 43.5t17.5 43.5t43.5 17.5q28 0 45.5 -17.5t17.5 -43.5t-18 -43.5t-45 -17.5zM476 724q-26 0 -43.5 17.5t-17.5 43.5t17.5 43.5t43.5 17.5q28 0 45.5 -17.5t17.5 -43.5t-18 -43.5t-45 -17.5zM-13 0l12 69q36 9 79 9l92 510q-43 0 -77 9
l12 69h505l-32 -176h-85v15q0 29 8 77h-223l-35 -202h125q17 59 19 63h73l-38 -208h-73q-1 4 1 27l4 38h-125l-39 -216h229q8 50 24 92h85l-31 -176h-510z" />
    <glyph glyph-name="Igrave" unicode="&#xcc;" horiz-adv-x="326" 
d="M-13 0l12 69q36 9 79 9l92 510q-43 0 -77 9l12 69h268l-12 -69q-36 -9 -80 -9l-91 -510q32 0 77 -9l-12 -69h-268zM199 722l-109 131h134l64 -131h-89z" />
    <glyph glyph-name="Iacute" unicode="&#xcd;" horiz-adv-x="326" 
d="M-13 0l12 69q36 9 79 9l92 510q-43 0 -77 9l12 69h268l-12 -69q-36 -9 -80 -9l-91 -510q32 0 77 -9l-12 -69h-268zM197 722l108 131h143l-156 -131h-95z" />
    <glyph glyph-name="Icircumflex" unicode="&#xce;" horiz-adv-x="326" 
d="M-13 0l12 69q36 9 79 9l92 510q-43 0 -77 9l12 69h268l-12 -69q-36 -9 -80 -9l-91 -510q32 0 77 -9l-12 -69h-268zM86 723l150 156h77l94 -156h-86l-57 77l-84 -77h-94z" />
    <glyph glyph-name="Idieresis" unicode="&#xcf;" horiz-adv-x="326" 
d="M-13 0l12 69q36 9 79 9l92 510q-43 0 -77 9l12 69h268l-12 -69q-36 -9 -80 -9l-91 -510q32 0 77 -9l-12 -69h-268zM159 724q-26 0 -43.5 17.5t-17.5 43.5t17.5 43.5t43.5 17.5q28 0 45.5 -17.5t17.5 -43.5t-18 -43.5t-45 -17.5zM356 724q-26 0 -43.5 17.5t-17.5 43.5
t17.5 43.5t43.5 17.5q28 0 45.5 -17.5t17.5 -43.5t-18 -43.5t-45 -17.5z" />
    <glyph glyph-name="Eth" unicode="&#xd0;" horiz-adv-x="703" 
d="M-5 0l12 69q38 9 80 9l39 222h-65l15 81h65l37 207q-43 0 -77 9l13 69h254q160 0 242.5 -69.5t82.5 -190.5q0 -82 -27 -154.5t-78.5 -129t-133 -89.5t-183.5 -33h-276zM200 84h90q134 0 210 89t76 226q0 183 -218 183h-69l-36 -201h108l-15 -81h-108z" />
    <glyph glyph-name="Ntilde" unicode="&#xd1;" horiz-adv-x="735" 
d="M-13 0l12 69q36 9 79 9l92 510q-43 0 -77 9l12 69h182l201 -402q22 -43 46 -107h1q0 1 5.5 42t10.5 67l56 322q-42 0 -76 9l12 69h249l-13 -69q-45 -9 -78 -9l-104 -588h-92l-209 421q-33 67 -46 103h-2q0 -1 -5 -39.5t-10 -64.5l-61 -342q32 0 77 -9l-12 -69h-250z
M507 726q-28 0 -58.5 18.5t-48.5 18.5q-24 0 -56 -30l-39 45q18 27 47 47t61 20q28 0 58.5 -18.5t48.5 -18.5q30 0 57 30l41 -44q-50 -68 -111 -68z" />
    <glyph glyph-name="Ograve" unicode="&#xd2;" horiz-adv-x="736" 
d="M338 -12q-134 0 -211.5 83.5t-77.5 205.5q0 103 46 194t134 149t198 58q138 0 213 -82.5t75 -206.5q0 -103 -45 -194t-132.5 -149t-199.5 -58zM348 74q113 0 181.5 93.5t68.5 220.5q0 88 -47.5 146t-133.5 58q-114 0 -182.5 -93.5t-68.5 -219.5q0 -89 49.5 -147
t132.5 -58zM399 722l-109 131h134l64 -131h-89z" />
    <glyph glyph-name="Oacute" unicode="&#xd3;" horiz-adv-x="736" 
d="M399 722l108 131h143l-156 -131h-95zM338 -12q-134 0 -211.5 83.5t-77.5 205.5q0 103 46 194t134 149t198 58q138 0 213 -82.5t75 -206.5q0 -103 -45 -194t-132.5 -149t-199.5 -58zM348 74q113 0 181.5 93.5t68.5 220.5q0 88 -47.5 146t-133.5 58q-114 0 -182.5 -93.5
t-68.5 -219.5q0 -89 49.5 -147t132.5 -58z" />
    <glyph glyph-name="Ocircumflex" unicode="&#xd4;" horiz-adv-x="736" 
d="M285 723l150 156h77l94 -156h-86l-57 77l-84 -77h-94zM338 -12q-134 0 -211.5 83.5t-77.5 205.5q0 103 46 194t134 149t198 58q138 0 213 -82.5t75 -206.5q0 -103 -45 -194t-132.5 -149t-199.5 -58zM348 74q113 0 181.5 93.5t68.5 220.5q0 88 -47.5 146t-133.5 58
q-114 0 -182.5 -93.5t-68.5 -219.5q0 -89 49.5 -147t132.5 -58z" />
    <glyph glyph-name="Otilde" unicode="&#xd5;" horiz-adv-x="736" 
d="M338 -12q-134 0 -211.5 83.5t-77.5 205.5q0 103 46 194t134 149t198 58q138 0 213 -82.5t75 -206.5q0 -103 -45 -194t-132.5 -149t-199.5 -58zM348 74q113 0 181.5 93.5t68.5 220.5q0 88 -47.5 146t-133.5 58q-114 0 -182.5 -93.5t-68.5 -219.5q0 -89 49.5 -147
t132.5 -58zM501 726q-28 0 -58.5 18.5t-48.5 18.5q-24 0 -56 -30l-39 45q18 27 47 47t61 20q28 0 58.5 -18.5t48.5 -18.5q30 0 57 30l41 -44q-50 -68 -111 -68z" />
    <glyph glyph-name="Odieresis" unicode="&#xd6;" horiz-adv-x="736" 
d="M359 724q-26 0 -43.5 17.5t-17.5 43.5t17.5 43.5t43.5 17.5q28 0 45.5 -17.5t17.5 -43.5t-18 -43.5t-45 -17.5zM556 724q-26 0 -43.5 17.5t-17.5 43.5t17.5 43.5t43.5 17.5q28 0 45.5 -17.5t17.5 -43.5t-18 -43.5t-45 -17.5zM338 -12q-134 0 -211.5 83.5t-77.5 205.5
q0 103 46 194t134 149t198 58q138 0 213 -82.5t75 -206.5q0 -103 -45 -194t-132.5 -149t-199.5 -58zM348 74q113 0 181.5 93.5t68.5 220.5q0 88 -47.5 146t-133.5 58q-114 0 -182.5 -93.5t-68.5 -219.5q0 -89 49.5 -147t132.5 -58z" />
    <glyph glyph-name="multiply" unicode="&#xd7;" horiz-adv-x="438" 
d="M61 78l-51 64l147 126l-102 124l67 57l103 -123l147 124l52 -64l-147 -124l108 -130l-69 -57l-107 129z" />
    <glyph glyph-name="Oslash" unicode="&#xd8;" horiz-adv-x="736" 
d="M80 -71l-55 48l92 106q-68 79 -68 194q0 103 46 194t134 149t198 58q95 0 166 -45l83 96l56 -49l-83 -95q66 -78 66 -196q0 -103 -45 -194t-132.5 -149t-199.5 -58q-93 0 -166 47zM347 72q77 0 135.5 46t87.5 117.5t29 153.5q0 63 -28 109l-335 -389q45 -37 111 -37z
M165 278q0 -65 28 -111l336 390q-45 37 -112 37q-77 0 -135.5 -46t-87.5 -117t-29 -153z" />
    <glyph glyph-name="Ugrave" unicode="&#xd9;" horiz-adv-x="722" 
d="M339 -12q-118 0 -179 54.5t-61 151.5q0 31 6 64l58 330q-38 0 -72 9l12 69h260l-12 -69q-34 -9 -77 -9l-57 -323q-17 -96 14 -140.5t116 -44.5q80 0 123 43.5t61 136.5l58 328q-40 0 -74 9l12 69h243l-12 -69q-36 -9 -76 -9l-60 -339q-23 -129 -90 -195t-193 -66z
M400 722l-109 131h134l64 -131h-89z" />
    <glyph glyph-name="Uacute" unicode="&#xda;" horiz-adv-x="722" 
d="M400 722l108 131h143l-156 -131h-95zM339 -12q-118 0 -179 54.5t-61 151.5q0 31 6 64l58 330q-38 0 -72 9l12 69h260l-12 -69q-34 -9 -77 -9l-57 -323q-17 -96 14 -140.5t116 -44.5q80 0 123 43.5t61 136.5l58 328q-40 0 -74 9l12 69h243l-12 -69q-36 -9 -76 -9l-60 -339
q-23 -129 -90 -195t-193 -66z" />
    <glyph glyph-name="Ucircumflex" unicode="&#xdb;" horiz-adv-x="722" 
d="M287 723l150 156h77l94 -156h-86l-57 77l-84 -77h-94zM339 -12q-118 0 -179 54.5t-61 151.5q0 31 6 64l58 330q-38 0 -72 9l12 69h260l-12 -69q-34 -9 -77 -9l-57 -323q-17 -96 14 -140.5t116 -44.5q80 0 123 43.5t61 136.5l58 328q-40 0 -74 9l12 69h243l-12 -69
q-36 -9 -76 -9l-60 -339q-23 -129 -90 -195t-193 -66z" />
    <glyph glyph-name="Udieresis" unicode="&#xdc;" horiz-adv-x="722" 
d="M360 724q-26 0 -43.5 17.5t-17.5 43.5t17.5 43.5t43.5 17.5q28 0 45.5 -17.5t17.5 -43.5t-18 -43.5t-45 -17.5zM557 724q-26 0 -43.5 17.5t-17.5 43.5t17.5 43.5t43.5 17.5q28 0 45.5 -17.5t17.5 -43.5t-18 -43.5t-45 -17.5zM339 -12q-118 0 -179 54.5t-61 151.5
q0 31 6 64l58 330q-38 0 -72 9l12 69h260l-12 -69q-34 -9 -77 -9l-57 -323q-17 -96 14 -140.5t116 -44.5q80 0 123 43.5t61 136.5l58 328q-40 0 -74 9l12 69h243l-12 -69q-36 -9 -76 -9l-60 -339q-23 -129 -90 -195t-193 -66z" />
    <glyph glyph-name="Yacute" unicode="&#xdd;" horiz-adv-x="610" 
d="M133 0l12 69q38 9 80 9l31 171l-120 340q-32 0 -72 8l12 69h250l-12 -69q-2 0 -7 -1t-10.5 -2t-10.5 -1l-36 -4l81 -243h1l161 243q-58 7 -61 8l13 69h240l-12 -69q-33 -7 -71 -8l-235 -339l-31 -172q32 0 77 -9l-11 -69h-269zM339 722l108 131h143l-156 -131h-95z" />
    <glyph glyph-name="Thorn" unicode="&#xde;" horiz-adv-x="574" 
d="M-13 0l12 69q36 9 79 9l92 510q-43 0 -77 9l12 69h190l-17 -96h73q99 0 157.5 -44.5t58.5 -131.5q0 -112 -81.5 -170t-207.5 -58h-72l-16 -88q32 0 77 -9l-12 -69h-268zM221 249h68q82 0 124 36t42 100q0 102 -123 102h-69z" />
    <glyph glyph-name="germandbls" unicode="&#xdf;" horiz-adv-x="560" 
d="M-56 -230q-45 0 -85 17l29 79q30 -13 61 -13q70 0 90 111l80 440h-81l14 80h81l6 31q40 216 246 216q83 0 129 -40.5t46 -104.5q0 -54 -25 -89.5t-68 -66.5q-7 -6 -24 -18t-25 -18.5t-18.5 -16t-14.5 -19t-4 -19.5q0 -6 2 -11.5t6 -11t8 -10t11.5 -10.5l12.5 -10
t14.5 -11t14.5 -11q35 -27 55.5 -56.5t20.5 -69.5q0 -70 -49.5 -110t-136.5 -40q-68 0 -125 32l35 76q42 -27 90 -27q42 0 64.5 18t22.5 51q0 15 -11 31t-22.5 25.5t-34.5 25.5q-25 20 -38 31.5t-26 33t-13 44.5q0 10 1.5 18.5t5.5 17.5t7 15t11 14.5t11.5 12.5t14 13
t14 11.5t16 11.5t14.5 11q27 21 40.5 33t26.5 35t13 49q0 37 -20 58.5t-61 21.5q-110 0 -134 -137l-99 -546q-19 -102 -63 -150t-136 -48z" />
    <glyph glyph-name="agrave" unicode="&#xe0;" horiz-adv-x="525" 
d="M148 -12q-56 0 -88 41.5t-32 112.5q0 151 81.5 253t215.5 102q90 0 154 -25l-44 -240l-15 -88l-9 -66q43 -2 75 -9l-13 -69h-170q10 88 22 135h-2q-76 -147 -175 -147zM186 75q52 0 102.5 86.5t70.5 209.5l6 40q-26 7 -57 7q-74 0 -123.5 -75t-49.5 -185q0 -83 51 -83z
M259 541l-109 131h134l64 -131h-89z" />
    <glyph glyph-name="aacute" unicode="&#xe1;" horiz-adv-x="525" 
d="M148 -12q-56 0 -88 41.5t-32 112.5q0 151 81.5 253t215.5 102q90 0 154 -25l-44 -240l-15 -88l-9 -66q43 -2 75 -9l-13 -69h-170q10 88 22 135h-2q-76 -147 -175 -147zM186 75q52 0 102.5 86.5t70.5 209.5l6 40q-26 7 -57 7q-74 0 -123.5 -75t-49.5 -185q0 -83 51 -83z
M257 541l108 131h143l-156 -131h-95z" />
    <glyph glyph-name="acircumflex" unicode="&#xe2;" horiz-adv-x="525" 
d="M148 -12q-56 0 -88 41.5t-32 112.5q0 151 81.5 253t215.5 102q90 0 154 -25l-44 -240l-15 -88l-9 -66q43 -2 75 -9l-13 -69h-170q10 88 22 135h-2q-76 -147 -175 -147zM186 75q52 0 102.5 86.5t70.5 209.5l6 40q-26 7 -57 7q-74 0 -123.5 -75t-49.5 -185q0 -83 51 -83z
M143 542l150 156h77l94 -156h-86l-57 77l-84 -77h-94z" />
    <glyph glyph-name="atilde" unicode="&#xe3;" horiz-adv-x="525" 
d="M148 -12q-56 0 -88 41.5t-32 112.5q0 151 81.5 253t215.5 102q90 0 154 -25l-44 -240l-15 -88l-9 -66q43 -2 75 -9l-13 -69h-170q10 88 22 135h-2q-76 -147 -175 -147zM186 75q52 0 102.5 86.5t70.5 209.5l6 40q-26 7 -57 7q-74 0 -123.5 -75t-49.5 -185q0 -83 51 -83z
M359 545q-28 0 -58.5 18.5t-48.5 18.5q-24 0 -56 -30l-39 45q18 27 47 47t61 20q28 0 58.5 -18.5t48.5 -18.5q30 0 57 30l41 -44q-50 -68 -111 -68z" />
    <glyph glyph-name="adieresis" unicode="&#xe4;" horiz-adv-x="525" 
d="M148 -12q-56 0 -88 41.5t-32 112.5q0 151 81.5 253t215.5 102q90 0 154 -25l-44 -240l-15 -88l-9 -66q43 -2 75 -9l-13 -69h-170q10 88 22 135h-2q-76 -147 -175 -147zM186 75q52 0 102.5 86.5t70.5 209.5l6 40q-26 7 -57 7q-74 0 -123.5 -75t-49.5 -185q0 -83 51 -83z
M217 543q-26 0 -43.5 17.5t-17.5 43.5t17.5 43.5t43.5 17.5q28 0 45.5 -17.5t17.5 -43.5t-18 -43.5t-45 -17.5zM414 543q-26 0 -43.5 17.5t-17.5 43.5t17.5 43.5t43.5 17.5q28 0 45.5 -17.5t17.5 -43.5t-18 -43.5t-45 -17.5z" />
    <glyph glyph-name="aring" unicode="&#xe5;" horiz-adv-x="525" 
d="M148 -12q-56 0 -88 41.5t-32 112.5q0 151 81.5 253t215.5 102q90 0 154 -25l-44 -240l-15 -88l-9 -66q43 -2 75 -9l-13 -69h-170q10 88 22 135h-2q-76 -147 -175 -147zM186 75q52 0 102.5 86.5t70.5 209.5l6 40q-26 7 -57 7q-74 0 -123.5 -75t-49.5 -185q0 -83 51 -83z
M323 542q-41 0 -71.5 28.5t-30.5 71.5q0 44 30.5 73t71.5 29t71.5 -28.5t30.5 -72.5q0 -43 -30.5 -72t-71.5 -29zM323 591q22 0 34.5 15t12.5 37q0 24 -12 38.5t-35 14.5t-35 -14.5t-12 -38.5q0 -22 12.5 -37t34.5 -15z" />
    <glyph glyph-name="ae" unicode="&#xe6;" horiz-adv-x="718" 
d="M145 -12q-63 0 -101.5 34.5t-38.5 88.5q0 102 109 144q67 25 175 25h15q15 40 15 74q0 58 -72 58q-69 0 -133 -46l-43 65q78 66 190 66q100 0 137 -64l1 -1q71 65 159 65q64 0 102 -31t38 -88q0 -58 -42.5 -97.5t-108.5 -56.5t-154 -19v-19q0 -115 85 -115q68 0 127 55
l44 -66q-77 -72 -187 -72q-102 0 -146 77q-77 -77 -171 -77zM170 68q71 0 122 60q-3 17 -3 35v24q0 10 2 24h-12q-78 0 -116 -16q-51 -23 -51 -74q0 -53 58 -53zM542 417q-48 0 -84 -41t-53 -103q88 2 139 25.5t51 67.5q0 51 -53 51z" />
    <glyph glyph-name="ccedilla" unicode="&#xe7;" horiz-adv-x="443" 
d="M205 -12q-84 0 -131 51t-47 140q0 137 83 227.5t196 90.5q74 0 123 -32l-25 -145h-77q-2 28 8 89q-15 5 -36 5q-65 0 -115.5 -63t-50.5 -160q0 -59 22.5 -89t63.5 -30q50 0 108 49l45 -66q-72 -67 -167 -67zM154 -225q-44 0 -75 13l18 51q20 -10 49 -10q48 0 48 37
q0 45 -71 39l36 97h66l-24 -62q32 -5 51.5 -25.5t19.5 -51.5q0 -41 -32.5 -64.5t-85.5 -23.5z" />
    <glyph glyph-name="egrave" unicode="&#xe8;" horiz-adv-x="457" 
d="M202 -12q-85 0 -129.5 51.5t-44.5 133.5q0 136 80 230t192 94q64 0 100.5 -31t36.5 -88q0 -156 -304 -191q0 -116 85 -116q68 0 127 55l44 -66q-77 -72 -187 -72zM281 417q-50 0 -88 -47.5t-53 -115.5q87 9 141 38.5t54 73.5q0 51 -54 51zM241 541l-109 131h134l64 -131
h-89z" />
    <glyph glyph-name="eacute" unicode="&#xe9;" horiz-adv-x="457" 
d="M239 541l108 131h143l-156 -131h-95zM202 -12q-85 0 -129.5 51.5t-44.5 133.5q0 136 80 230t192 94q64 0 100.5 -31t36.5 -88q0 -156 -304 -191q0 -116 85 -116q68 0 127 55l44 -66q-77 -72 -187 -72zM281 417q-50 0 -88 -47.5t-53 -115.5q87 9 141 38.5t54 73.5
q0 51 -54 51z" />
    <glyph glyph-name="ecircumflex" unicode="&#xea;" horiz-adv-x="457" 
d="M127 542l150 156h77l94 -156h-86l-57 77l-84 -77h-94zM202 -12q-85 0 -129.5 51.5t-44.5 133.5q0 136 80 230t192 94q64 0 100.5 -31t36.5 -88q0 -156 -304 -191q0 -116 85 -116q68 0 127 55l44 -66q-77 -72 -187 -72zM281 417q-50 0 -88 -47.5t-53 -115.5q87 9 141 38.5
t54 73.5q0 51 -54 51z" />
    <glyph glyph-name="edieresis" unicode="&#xeb;" horiz-adv-x="457" 
d="M201 543q-26 0 -43.5 17.5t-17.5 43.5t17.5 43.5t43.5 17.5q28 0 45.5 -17.5t17.5 -43.5t-18 -43.5t-45 -17.5zM398 543q-26 0 -43.5 17.5t-17.5 43.5t17.5 43.5t43.5 17.5q28 0 45.5 -17.5t17.5 -43.5t-18 -43.5t-45 -17.5zM202 -12q-85 0 -129.5 51.5t-44.5 133.5
q0 136 80 230t192 94q64 0 100.5 -31t36.5 -88q0 -156 -304 -191q0 -116 85 -116q68 0 127 55l44 -66q-77 -72 -187 -72zM281 417q-50 0 -88 -47.5t-53 -115.5q87 9 141 38.5t54 73.5q0 51 -54 51z" />
    <glyph glyph-name="igrave" unicode="&#xec;" horiz-adv-x="281" 
d="M45 0l74 409q-52 5 -77 5l12 69q75 7 187 7l-18 -79l-61 -333q45 -2 74 -9l-12 -69h-179zM146 541l-109 131h134l64 -131h-89z" />
    <glyph glyph-name="iacute" unicode="&#xed;" horiz-adv-x="281" 
d="M146 541l108 131h143l-156 -131h-95zM45 0l74 409q-52 5 -77 5l12 69q75 7 187 7l-18 -79l-61 -333q45 -2 74 -9l-12 -69h-179z" />
    <glyph glyph-name="icircumflex" unicode="&#xee;" horiz-adv-x="281" 
d="M32 542l150 156h77l94 -156h-86l-57 77l-84 -77h-94zM45 0l74 409q-52 5 -77 5l12 69q75 7 187 7l-18 -79l-61 -333q45 -2 74 -9l-12 -69h-179z" />
    <glyph glyph-name="idieresis" unicode="&#xef;" horiz-adv-x="281" 
d="M106 543q-26 0 -43.5 17.5t-17.5 43.5t17.5 43.5t43.5 17.5q28 0 45.5 -17.5t17.5 -43.5t-18 -43.5t-45 -17.5zM303 543q-26 0 -43.5 17.5t-17.5 43.5t17.5 43.5t43.5 17.5q28 0 45.5 -17.5t17.5 -43.5t-18 -43.5t-45 -17.5zM45 0l74 409q-52 5 -77 5l12 69q75 7 187 7
l-18 -79l-61 -333q45 -2 74 -9l-12 -69h-179z" />
    <glyph glyph-name="eth" unicode="&#xf0;" horiz-adv-x="495" 
d="M212 -12q-82 0 -134.5 53.5t-52.5 144.5q0 131 76 216t176 85q56 0 91 -33q-12 87 -58 133l-74 -59l-40 47l59 48q-51 25 -135 25l31 84q107 0 183 -45l84 68l40 -48l-73 -58q93 -90 93 -265q0 -77 -15.5 -145.5t-46.5 -126t-83.5 -91t-120.5 -33.5zM222 68q46 0 80.5 44
t51 110t18.5 142v2q-30 41 -91 41q-64 0 -106.5 -60t-42.5 -155q0 -124 90 -124z" />
    <glyph glyph-name="ntilde" unicode="&#xf1;" horiz-adv-x="566" 
d="M45 0l74 409q-52 5 -76 5l12 69q75 7 181 7l-14 -65q0 -2 -8 -37t-8 -37h2q79 146 189 146q62 0 87.5 -47t10.5 -129l-45 -243q45 -2 74 -9l-12 -69h-179l55 315q16 93 -37 93t-108 -89t-88 -272l-8 -47h-102zM381 545q-28 0 -58.5 18.5t-48.5 18.5q-24 0 -56 -30l-39 45
q18 27 47 47t61 20q28 0 58.5 -18.5t48.5 -18.5q30 0 57 30l41 -44q-50 -68 -111 -68z" />
    <glyph glyph-name="ograve" unicode="&#xf2;" horiz-adv-x="498" 
d="M210 -12q-89 0 -136.5 59t-47.5 142q0 122 76.5 215t185.5 93q88 0 136 -57t48 -144q0 -128 -75 -218t-187 -90zM221 67q63 0 104 70t41 153q0 127 -85 127q-65 0 -107 -70t-42 -155q0 -125 89 -125zM249 541l-109 131h134l64 -131h-89z" />
    <glyph glyph-name="oacute" unicode="&#xf3;" horiz-adv-x="498" 
d="M248 541l108 131h143l-156 -131h-95zM210 -12q-89 0 -136.5 59t-47.5 142q0 122 76.5 215t185.5 93q88 0 136 -57t48 -144q0 -128 -75 -218t-187 -90zM221 67q63 0 104 70t41 153q0 127 -85 127q-65 0 -107 -70t-42 -155q0 -125 89 -125z" />
    <glyph glyph-name="ocircumflex" unicode="&#xf4;" horiz-adv-x="498" 
d="M136 542l150 156h77l94 -156h-86l-57 77l-84 -77h-94zM210 -12q-89 0 -136.5 59t-47.5 142q0 122 76.5 215t185.5 93q88 0 136 -57t48 -144q0 -128 -75 -218t-187 -90zM221 67q63 0 104 70t41 153q0 127 -85 127q-65 0 -107 -70t-42 -155q0 -125 89 -125z" />
    <glyph glyph-name="otilde" unicode="&#xf5;" horiz-adv-x="498" 
d="M210 -12q-89 0 -136.5 59t-47.5 142q0 122 76.5 215t185.5 93q88 0 136 -57t48 -144q0 -128 -75 -218t-187 -90zM221 67q63 0 104 70t41 153q0 127 -85 127q-65 0 -107 -70t-42 -155q0 -125 89 -125zM352 545q-28 0 -58.5 18.5t-48.5 18.5q-23 0 -56 -30l-39 45
q18 27 47 47t61 20q28 0 58.5 -18.5t48.5 -18.5q29 0 57 30l41 -44q-50 -68 -111 -68z" />
    <glyph glyph-name="odieresis" unicode="&#xf6;" horiz-adv-x="498" 
d="M210 543q-26 0 -43.5 17.5t-17.5 43.5t17.5 43.5t43.5 17.5q28 0 45.5 -17.5t17.5 -43.5t-18 -43.5t-45 -17.5zM407 543q-26 0 -43.5 17.5t-17.5 43.5t17.5 43.5t43.5 17.5q28 0 45.5 -17.5t17.5 -43.5t-18 -43.5t-45 -17.5zM210 -12q-89 0 -136.5 59t-47.5 142
q0 122 76.5 215t185.5 93q88 0 136 -57t48 -144q0 -128 -75 -218t-187 -90zM221 67q63 0 104 70t41 153q0 127 -85 127q-65 0 -107 -70t-42 -155q0 -125 89 -125z" />
    <glyph glyph-name="oslash" unicode="&#xf8;" horiz-adv-x="498" 
d="M36 -65l-53 43l75 89q-32 49 -32 122q0 122 76.5 215t185.5 93q62 0 107 -32l82 95l53 -42l-87 -105q29 -50 29 -117q0 -128 -75 -218t-187 -90q-61 0 -104 30zM127 191q0 -29 4 -46l211 250q-22 25 -59 25q-67 0 -111.5 -71.5t-44.5 -157.5zM220 64q65 0 107.5 71.5
t42.5 155.5q0 23 -3 42l-208 -247q23 -22 61 -22z" />
    <glyph glyph-name="ugrave" unicode="&#xf9;" horiz-adv-x="565" 
d="M169 -13q-63 0 -88 46t-10 130l44 246q-52 5 -76 5l13 69q72 7 181 7l-57 -320q-16 -94 38 -94q51 0 104 78t84 235l4 20q-52 5 -78 5l13 69q72 7 181 7l-47 -258l-15 -88l-9 -66q43 -2 75 -9l-13 -69h-171q9 76 22 140h-2q-19 -32 -33 -52t-38 -47t-55 -40.5t-67 -13.5z
M274 541l-109 131h134l64 -131h-89z" />
    <glyph glyph-name="uacute" unicode="&#xfa;" horiz-adv-x="565" 
d="M275 541l108 131h143l-156 -131h-95zM169 -13q-63 0 -88 46t-10 130l44 246q-52 5 -76 5l13 69q72 7 181 7l-57 -320q-16 -94 38 -94q51 0 104 78t84 235l4 20q-52 5 -78 5l13 69q72 7 181 7l-47 -258l-15 -88l-9 -66q43 -2 75 -9l-13 -69h-171q9 76 22 140h-2
q-19 -32 -33 -52t-38 -47t-55 -40.5t-67 -13.5z" />
    <glyph glyph-name="ucircumflex" unicode="&#xfb;" horiz-adv-x="565" 
d="M161 542l150 156h77l94 -156h-86l-57 77l-84 -77h-94zM169 -13q-63 0 -88 46t-10 130l44 246q-52 5 -76 5l13 69q72 7 181 7l-57 -320q-16 -94 38 -94q51 0 104 78t84 235l4 20q-52 5 -78 5l13 69q72 7 181 7l-47 -258l-15 -88l-9 -66q43 -2 75 -9l-13 -69h-171
q9 76 22 140h-2q-19 -32 -33 -52t-38 -47t-55 -40.5t-67 -13.5z" />
    <glyph glyph-name="udieresis" unicode="&#xfc;" horiz-adv-x="565" 
d="M234 543q-26 0 -43.5 17.5t-17.5 43.5t17.5 43.5t43.5 17.5q28 0 45.5 -17.5t17.5 -43.5t-18 -43.5t-45 -17.5zM431 543q-26 0 -43.5 17.5t-17.5 43.5t17.5 43.5t43.5 17.5q28 0 45.5 -17.5t17.5 -43.5t-18 -43.5t-45 -17.5zM169 -13q-63 0 -88 46t-10 130l44 246
q-52 5 -76 5l13 69q72 7 181 7l-57 -320q-16 -94 38 -94q51 0 104 78t84 235l4 20q-52 5 -78 5l13 69q72 7 181 7l-47 -258l-15 -88l-9 -66q43 -2 75 -9l-13 -69h-171q9 76 22 140h-2q-19 -32 -33 -52t-38 -47t-55 -40.5t-67 -13.5z" />
    <glyph glyph-name="yacute" unicode="&#xfd;" horiz-adv-x="501" 
d="M17 -223q-61 0 -89 18l38 82q18 -11 57 -11q43 0 75.5 27.5t71.5 98.5l-82 415q-54 7 -76 7l12 69q72 7 155 7l54 -312q4 -21 8 -78h2q15 45 30 77l137 307h108l-211 -420q-81 -164 -139.5 -225.5t-150.5 -61.5zM247 541l108 131h143l-156 -131h-95z" />
    <glyph glyph-name="thorn" unicode="&#xfe;" horiz-adv-x="521" 
d="M-84 -218l13 69q34 9 77 9l142 783q-52 5 -78 5l12 69q72 7 187 7l-19 -80l-30 -162q-10 -51 -29 -129h2q37 68 77 106t102 38q57 0 89 -45t32 -116q0 -148 -80 -248t-207 -100q-47 0 -71 8l-25 -136q38 0 74 -9l-12 -69h-256zM208 65q79 0 128.5 73t49.5 183
q0 87 -51 87q-54 0 -104.5 -86.5t-75.5 -210.5l-7 -40q18 -6 60 -6z" />
    <glyph glyph-name="ydieresis" unicode="&#xff;" horiz-adv-x="501" 
d="M17 -223q-61 0 -89 18l38 82q18 -11 57 -11q43 0 75.5 27.5t71.5 98.5l-82 415q-54 7 -76 7l12 69q72 7 155 7l54 -312q4 -21 8 -78h2q15 45 30 77l137 307h108l-211 -420q-81 -164 -139.5 -225.5t-150.5 -61.5zM209 543q-26 0 -43.5 17.5t-17.5 43.5t17.5 43.5
t43.5 17.5q28 0 45.5 -17.5t17.5 -43.5t-18 -43.5t-45 -17.5zM406 543q-26 0 -43.5 17.5t-17.5 43.5t17.5 43.5t43.5 17.5q28 0 45.5 -17.5t17.5 -43.5t-18 -43.5t-45 -17.5z" />
    <glyph glyph-name="Amacron" unicode="&#x100;" horiz-adv-x="681" 
d="M-36 0l12 69q4 1 58 8l333 589h106l105 -589q41 -2 64 -8l-12 -69h-242l12 69q26 6 65 8l-17 109h-248l-59 -109q38 -2 62 -8l-11 -69h-228zM242 264h193l-24 156q-3 18 -18 126h-2q-42 -86 -63 -125zM289 748l14 80h275l-14 -80h-275z" />
    <glyph glyph-name="amacron" unicode="&#x101;" horiz-adv-x="525" 
d="M148 -12q-56 0 -88 41.5t-32 112.5q0 151 81.5 253t215.5 102q90 0 154 -25l-44 -240l-15 -88l-9 -66q43 -2 75 -9l-13 -69h-170q10 88 22 135h-2q-76 -147 -175 -147zM186 75q52 0 102.5 86.5t70.5 209.5l6 40q-26 7 -57 7q-74 0 -123.5 -75t-49.5 -185q0 -83 51 -83z
M172 567l14 80h275l-14 -80h-275z" />
    <glyph glyph-name="Abreve" unicode="&#x102;" horiz-adv-x="681" 
d="M-36 0l12 69q4 1 58 8l333 589h106l105 -589q41 -2 64 -8l-12 -69h-242l12 69q26 6 65 8l-17 109h-248l-59 -109q38 -2 62 -8l-11 -69h-228zM242 264h193l-24 156q-3 18 -18 126h-2q-42 -86 -63 -125zM428 717q-61 0 -99.5 33.5t-38.5 96.5v7q0 6 1 10h84q-5 -74 57 -74
q28 0 48.5 19.5t28.5 54.5h88q-17 -75 -64.5 -111t-104.5 -36z" />
    <glyph glyph-name="abreve" unicode="&#x103;" horiz-adv-x="525" 
d="M148 -12q-56 0 -88 41.5t-32 112.5q0 151 81.5 253t215.5 102q90 0 154 -25l-44 -240l-15 -88l-9 -66q43 -2 75 -9l-13 -69h-170q10 88 22 135h-2q-76 -147 -175 -147zM186 75q52 0 102.5 86.5t70.5 209.5l6 40q-26 7 -57 7q-74 0 -123.5 -75t-49.5 -185q0 -83 51 -83z
M311 536q-61 0 -99.5 33.5t-38.5 96.5v7q0 6 1 10h84q-5 -74 57 -74q28 0 48.5 19.5t28.5 54.5h88q-17 -75 -64.5 -111t-104.5 -36z" />
    <glyph glyph-name="Aogonek" unicode="&#x104;" horiz-adv-x="681" 
d="M-36 0l12 69q4 1 58 8l333 589h106l105 -589q41 -2 64 -8l-12 -69h-242l12 69q26 6 65 8l-17 109h-248l-59 -109q38 -2 62 -8l-11 -69h-228zM242 264h193l-24 156q-3 18 -18 126h-2q-42 -86 -63 -125zM502 -225q-47 0 -72.5 22t-25.5 58q0 72 91 145h65q-75 -75 -75 -127
q0 -37 42 -37q20 0 43 7l8 -51q-32 -17 -76 -17z" />
    <glyph glyph-name="aogonek" unicode="&#x105;" horiz-adv-x="525" 
d="M148 -12q-56 0 -88 41.5t-32 112.5q0 151 81.5 253t215.5 102q90 0 154 -25l-44 -240l-15 -88l-9 -66q43 -2 75 -9l-13 -69h-170q10 88 22 135h-2q-76 -147 -175 -147zM186 75q52 0 102.5 86.5t70.5 209.5l6 40q-26 7 -57 7q-74 0 -123.5 -75t-49.5 -185q0 -83 51 -83z
M365 -225q-47 0 -72.5 22t-25.5 58q0 72 91 145h65q-75 -75 -75 -127q0 -37 42 -37q20 0 43 7l8 -51q-32 -17 -76 -17z" />
    <glyph glyph-name="Cacute" unicode="&#x106;" horiz-adv-x="653" 
d="M394 722l108 131h143l-156 -131h-95zM337 -12q-138 0 -213 79t-75 201q0 173 117.5 291.5t284.5 118.5q130 0 197 -49l-29 -161h-85q0 32 10 108q-41 16 -103 16q-118 0 -196 -91.5t-78 -226.5q0 -88 47.5 -144t136.5 -56q74 0 131 28q20 97 29 114h85l-28 -160
q-30 -28 -96 -48t-135 -20z" />
    <glyph glyph-name="cacute" unicode="&#x107;" horiz-adv-x="443" 
d="M250 541l108 131h143l-156 -131h-95zM205 -12q-84 0 -131 51t-47 140q0 137 83 227.5t196 90.5q74 0 123 -32l-25 -145h-77q-2 28 8 89q-15 5 -36 5q-65 0 -115.5 -63t-50.5 -160q0 -59 22.5 -89t63.5 -30q50 0 108 49l45 -66q-72 -67 -167 -67z" />
    <glyph glyph-name="Ccircumflex" unicode="&#x108;" horiz-adv-x="653" 
d="M281 723l150 156h77l94 -156h-86l-57 77l-84 -77h-94zM337 -12q-138 0 -213 79t-75 201q0 173 117.5 291.5t284.5 118.5q130 0 197 -49l-29 -161h-85q0 32 10 108q-41 16 -103 16q-118 0 -196 -91.5t-78 -226.5q0 -88 47.5 -144t136.5 -56q74 0 131 28q20 97 29 114h85
l-28 -160q-30 -28 -96 -48t-135 -20z" />
    <glyph glyph-name="ccircumflex" unicode="&#x109;" horiz-adv-x="443" 
d="M138 542l150 156h77l94 -156h-86l-57 77l-84 -77h-94zM205 -12q-84 0 -131 51t-47 140q0 137 83 227.5t196 90.5q74 0 123 -32l-25 -145h-77q-2 28 8 89q-15 5 -36 5q-65 0 -115.5 -63t-50.5 -160q0 -59 22.5 -89t63.5 -30q50 0 108 49l45 -66q-72 -67 -167 -67z" />
    <glyph glyph-name="Cdotaccent" unicode="&#x10a;" horiz-adv-x="653" 
d="M337 -12q-138 0 -213 79t-75 201q0 173 117.5 291.5t284.5 118.5q130 0 197 -49l-29 -161h-85q0 32 10 108q-41 16 -103 16q-118 0 -196 -91.5t-78 -226.5q0 -88 47.5 -144t136.5 -56q74 0 131 28q20 97 29 114h85l-28 -160q-30 -28 -96 -48t-135 -20zM456 739
q-29 0 -47 19t-18 47t18 46.5t47 18.5q28 0 47 -19t19 -46t-19 -46.5t-47 -19.5z" />
    <glyph glyph-name="cdotaccent" unicode="&#x10b;" horiz-adv-x="443" 
d="M205 -12q-84 0 -131 51t-47 140q0 137 83 227.5t196 90.5q74 0 123 -32l-25 -145h-77q-2 28 8 89q-15 5 -36 5q-65 0 -115.5 -63t-50.5 -160q0 -59 22.5 -89t63.5 -30q50 0 108 49l45 -66q-72 -67 -167 -67zM313 558q-29 0 -47 19t-18 47t18 46.5t47 18.5q28 0 47 -19
t19 -46t-19 -46.5t-47 -19.5z" />
    <glyph glyph-name="Ccaron" unicode="&#x10c;" horiz-adv-x="653" 
d="M407 721l-96 156h85l60 -77l88 77h93l-153 -156h-77zM337 -12q-138 0 -213 79t-75 201q0 173 117.5 291.5t284.5 118.5q130 0 197 -49l-29 -161h-85q0 32 10 108q-41 16 -103 16q-118 0 -196 -91.5t-78 -226.5q0 -88 47.5 -144t136.5 -56q74 0 131 28q20 97 29 114h85
l-28 -160q-30 -28 -96 -48t-135 -20z" />
    <glyph glyph-name="ccaron" unicode="&#x10d;" horiz-adv-x="443" 
d="M263 540l-96 156h85l60 -77l88 77h93l-153 -156h-77zM205 -12q-84 0 -131 51t-47 140q0 137 83 227.5t196 90.5q74 0 123 -32l-25 -145h-77q-2 28 8 89q-15 5 -36 5q-65 0 -115.5 -63t-50.5 -160q0 -59 22.5 -89t63.5 -30q50 0 108 49l45 -66q-72 -67 -167 -67z" />
    <glyph glyph-name="Dcaron" unicode="&#x10e;" horiz-adv-x="694" 
d="M361 721l-96 156h85l60 -77l88 77h93l-153 -156h-77zM-13 0l12 69q36 9 79 9l92 510q-43 0 -77 9l12 69h254q161 0 243.5 -69.5t82.5 -190.5q0 -82 -27 -154.5t-78.5 -129t-133.5 -89.5t-184 -33h-275zM191 84h91q133 0 209 89t76 226q0 183 -217 183h-70z" />
    <glyph glyph-name="dcaron" unicode="&#x10f;" horiz-adv-x="532" 
d="M529 549l65 171h114l-103 -171h-76zM150 -12q-59 0 -90.5 44t-31.5 116q0 149 82 249t208 100q36 0 68 -8l28 154q-52 5 -78 5l13 69q70 7 186 7l-19 -80l-74 -412l-15 -88l-9 -66q42 -2 72 -9l-12 -69h-169q10 90 21 132h-2q-77 -144 -178 -144zM183 75q56 0 108 86
t74 211l6 38q-22 8 -63 8q-75 0 -124.5 -74t-49.5 -180q0 -89 49 -89z" />
    <glyph glyph-name="Dcroat" unicode="&#x110;" horiz-adv-x="703" 
d="M-5 0l12 69q38 9 80 9l39 222h-65l15 81h65l37 207q-43 0 -77 9l13 69h254q160 0 242.5 -69.5t82.5 -190.5q0 -82 -27 -154.5t-78.5 -129t-133 -89.5t-183.5 -33h-276zM200 84h90q134 0 210 89t76 226q0 183 -218 183h-69l-36 -201h108l-15 -81h-108z" />
    <glyph glyph-name="dslash" unicode="&#x111;" horiz-adv-x="532" 
d="M150 -12q-59 0 -90.5 44t-31.5 116q0 149 82 249t208 100q36 0 68 -8l9 56h-139l12 64h139l9 45q-52 5 -78 5l11 58q70 7 186 7l-19 -80l-5 -30h51l-14 -74h-51l-55 -308l-15 -88l-9 -66q42 -2 72 -9l-12 -69h-169q10 90 21 132h-2q-77 -144 -178 -144zM183 75
q56 0 108 86t74 211l6 38q-22 8 -63 8q-75 0 -124.5 -74t-49.5 -180q0 -89 49 -89z" />
    <glyph glyph-name="Emacron" unicode="&#x112;" horiz-adv-x="584" 
d="M-13 0l12 69q36 9 79 9l92 510q-43 0 -77 9l12 69h505l-32 -176h-85v15q0 29 8 77h-223l-35 -202h125q17 59 19 63h73l-38 -208h-73q-1 4 1 27l4 38h-125l-39 -216h229q8 50 24 92h85l-31 -176h-510zM235 748l14 80h275l-14 -80h-275z" />
    <glyph glyph-name="emacron" unicode="&#x113;" horiz-adv-x="457" 
d="M202 -12q-85 0 -129.5 51.5t-44.5 133.5q0 136 80 230t192 94q64 0 100.5 -31t36.5 -88q0 -156 -304 -191q0 -116 85 -116q68 0 127 55l44 -66q-77 -72 -187 -72zM281 417q-50 0 -88 -47.5t-53 -115.5q87 9 141 38.5t54 73.5q0 51 -54 51zM156 567l14 80h275l-14 -80
h-275z" />
    <glyph glyph-name="Ebreve" unicode="&#x114;" horiz-adv-x="584" 
d="M-13 0l12 69q36 9 79 9l92 510q-43 0 -77 9l12 69h505l-32 -176h-85v15q0 29 8 77h-223l-35 -202h125q17 59 19 63h73l-38 -208h-73q-1 4 1 27l4 38h-125l-39 -216h229q8 50 24 92h85l-31 -176h-510zM374 717q-61 0 -99.5 33.5t-38.5 96.5v7q0 6 1 10h84q-5 -74 57 -74
q28 0 48.5 19.5t28.5 54.5h88q-17 -75 -64.5 -111t-104.5 -36z" />
    <glyph glyph-name="ebreve" unicode="&#x115;" horiz-adv-x="457" 
d="M202 -12q-85 0 -129.5 51.5t-44.5 133.5q0 136 80 230t192 94q64 0 100.5 -31t36.5 -88q0 -156 -304 -191q0 -116 85 -116q68 0 127 55l44 -66q-77 -72 -187 -72zM281 417q-50 0 -88 -47.5t-53 -115.5q87 9 141 38.5t54 73.5q0 51 -54 51zM295 536q-61 0 -99.5 33.5
t-38.5 96.5v7q0 6 1 10h84q-5 -74 57 -74q28 0 48.5 19.5t28.5 54.5h88q-17 -75 -64.5 -111t-104.5 -36z" />
    <glyph glyph-name="Edotaccent" unicode="&#x116;" horiz-adv-x="584" 
d="M-13 0l12 69q36 9 79 9l92 510q-43 0 -77 9l12 69h505l-32 -176h-85v15q0 29 8 77h-223l-35 -202h125q17 59 19 63h73l-38 -208h-73q-1 4 1 27l4 38h-125l-39 -216h229q8 50 24 92h85l-31 -176h-510zM381 739q-29 0 -47 19t-18 47t18 46.5t47 18.5q28 0 47 -19t19 -46
t-19 -46.5t-47 -19.5z" />
    <glyph glyph-name="edotaccent" unicode="&#x117;" horiz-adv-x="457" 
d="M202 -12q-85 0 -129.5 51.5t-44.5 133.5q0 136 80 230t192 94q64 0 100.5 -31t36.5 -88q0 -156 -304 -191q0 -116 85 -116q68 0 127 55l44 -66q-77 -72 -187 -72zM281 417q-50 0 -88 -47.5t-53 -115.5q87 9 141 38.5t54 73.5q0 51 -54 51zM303 558q-29 0 -47 19t-18 47
t18 46.5t47 18.5q28 0 47 -19t19 -46t-19 -46.5t-47 -19.5z" />
    <glyph glyph-name="Eogonek" unicode="&#x118;" horiz-adv-x="584" 
d="M375 -225q-47 0 -72.5 22t-25.5 58q0 72 91 145h65q-75 -75 -75 -127q0 -37 42 -37q20 0 43 7l8 -51q-32 -17 -76 -17zM-13 0l12 69q36 9 79 9l92 510q-43 0 -77 9l12 69h505l-32 -176h-85v15q0 29 8 77h-223l-35 -202h125q17 59 19 63h73l-38 -208h-73q-1 4 1 27l4 38
h-125l-39 -216h229q8 50 24 92h85l-31 -176h-510z" />
    <glyph glyph-name="eogonek" unicode="&#x119;" horiz-adv-x="457" 
d="M254 -225q-47 0 -73 22t-26 58q0 72 81 136q-16 -3 -34 -3q-85 0 -129.5 51.5t-44.5 133.5q0 136 80 230t192 94q64 0 100.5 -31t36.5 -88q0 -156 -304 -191q0 -116 85 -116q68 0 127 55l44 -66q-54 -45 -74 -58q-32 -25 -55.5 -60.5t-23.5 -68.5q0 -37 42 -37q20 0 43 7
l9 -51q-32 -17 -76 -17zM281 417q-50 0 -88 -47.5t-53 -115.5q87 9 141 38.5t54 73.5q0 51 -54 51z" />
    <glyph glyph-name="Ecaron" unicode="&#x11a;" horiz-adv-x="584" 
d="M332 721l-96 156h85l60 -77l88 77h93l-153 -156h-77zM-13 0l12 69q36 9 79 9l92 510q-43 0 -77 9l12 69h505l-32 -176h-85v15q0 29 8 77h-223l-35 -202h125q17 59 19 63h73l-38 -208h-73q-1 4 1 27l4 38h-125l-39 -216h229q8 50 24 92h85l-31 -176h-510z" />
    <glyph glyph-name="ecaron" unicode="&#x11b;" horiz-adv-x="457" 
d="M254 540l-96 156h85l60 -77l88 77h93l-153 -156h-77zM202 -12q-85 0 -129.5 51.5t-44.5 133.5q0 136 80 230t192 94q64 0 100.5 -31t36.5 -88q0 -156 -304 -191q0 -116 85 -116q68 0 127 55l44 -66q-77 -72 -187 -72zM281 417q-50 0 -88 -47.5t-53 -115.5q87 9 141 38.5
t54 73.5q0 51 -54 51z" />
    <glyph glyph-name="Gcircumflex" unicode="&#x11c;" horiz-adv-x="730" 
d="M295 723l150 156h77l94 -156h-86l-57 77l-84 -77h-94zM363 -12q-152 0 -233 77.5t-81 204.5q0 176 118.5 292t291.5 116q146 0 219 -55l-29 -160h-85q0 32 10 106q-58 23 -126 23q-123 0 -202 -88.5t-79 -229.5q0 -95 51.5 -147.5t151.5 -52.5q76 0 135 32l22 127
q-46 0 -80 9l13 69h260l-13 -69q-29 -9 -70 -9l-33 -181q-101 -64 -241 -64z" />
    <glyph glyph-name="gcircumflex" unicode="&#x11d;" horiz-adv-x="519" 
d="M149 542l150 156h77l94 -156h-86l-57 77l-84 -77h-94zM154 -229q-89 0 -165 53l49 77q58 -44 120 -44t95.5 36t46.5 108l6 33q11 57 22 94h-2q-76 -138 -177 -138q-56 0 -88 44t-32 114q0 151 82 250t213 99q104 0 164 -21l-87 -471q-22 -125 -79 -179.5t-168 -54.5z
M185 76q56 0 110 88t72 208l6 39q-29 8 -64 8q-75 0 -124.5 -73.5t-49.5 -180.5q0 -89 50 -89z" />
    <glyph glyph-name="Gbreve" unicode="&#x11e;" horiz-adv-x="730" 
d="M363 -12q-152 0 -233 77.5t-81 204.5q0 176 118.5 292t291.5 116q146 0 219 -55l-29 -160h-85q0 32 10 106q-58 23 -126 23q-123 0 -202 -88.5t-79 -229.5q0 -95 51.5 -147.5t151.5 -52.5q76 0 135 32l22 127q-46 0 -80 9l13 69h260l-13 -69q-29 -9 -70 -9l-33 -181
q-101 -64 -241 -64zM463 717q-61 0 -99.5 33.5t-38.5 96.5v7q0 6 1 10h84q-5 -74 57 -74q28 0 48.5 19.5t28.5 54.5h88q-17 -75 -64.5 -111t-104.5 -36z" />
    <glyph glyph-name="gbreve" unicode="&#x11f;" horiz-adv-x="519" 
d="M154 -229q-89 0 -165 53l49 77q58 -44 120 -44t95.5 36t46.5 108l6 33q11 57 22 94h-2q-76 -138 -177 -138q-56 0 -88 44t-32 114q0 151 82 250t213 99q104 0 164 -21l-87 -471q-22 -125 -79 -179.5t-168 -54.5zM185 76q56 0 110 88t72 208l6 39q-29 8 -64 8
q-75 0 -124.5 -73.5t-49.5 -180.5q0 -89 50 -89zM317 536q-61 0 -99.5 33.5t-38.5 96.5v7q0 6 1 10h84q-5 -74 57 -74q28 0 48.5 19.5t28.5 54.5h88q-17 -75 -64.5 -111t-104.5 -36z" />
    <glyph glyph-name="Gdotaccent" unicode="&#x120;" horiz-adv-x="730" 
d="M363 -12q-152 0 -233 77.5t-81 204.5q0 176 118.5 292t291.5 116q146 0 219 -55l-29 -160h-85q0 32 10 106q-58 23 -126 23q-123 0 -202 -88.5t-79 -229.5q0 -95 51.5 -147.5t151.5 -52.5q76 0 135 32l22 127q-46 0 -80 9l13 69h260l-13 -69q-29 -9 -70 -9l-33 -181
q-101 -64 -241 -64zM470 739q-29 0 -47 19t-18 47t18 46.5t47 18.5q28 0 47 -19t19 -46t-19 -46.5t-47 -19.5z" />
    <glyph glyph-name="gdotaccent" unicode="&#x121;" horiz-adv-x="519" 
d="M154 -229q-89 0 -165 53l49 77q58 -44 120 -44t95.5 36t46.5 108l6 33q11 57 22 94h-2q-76 -138 -177 -138q-56 0 -88 44t-32 114q0 151 82 250t213 99q104 0 164 -21l-87 -471q-22 -125 -79 -179.5t-168 -54.5zM185 76q56 0 110 88t72 208l6 39q-29 8 -64 8
q-75 0 -124.5 -73.5t-49.5 -180.5q0 -89 50 -89zM324 558q-29 0 -47 19t-18 47t18 46.5t47 18.5q28 0 47 -19t19 -46t-19 -46.5t-47 -19.5z" />
    <glyph glyph-name="Gcommaaccent" unicode="&#x122;" horiz-adv-x="730" 
d="M331 -43q26 0 44 -15.5t18 -42.5q0 -39 -28.5 -75t-65.5 -61l-35 25q1 1 6.5 6t6.5 6l6 6t6.5 7.5t4.5 7t4.5 8t2.5 8t1 8.5q0 13 -13 30t-13 35q0 20 16 33.5t39 13.5zM363 -12q-152 0 -233 77.5t-81 204.5q0 176 118.5 292t291.5 116q146 0 219 -55l-29 -160h-85
q0 32 10 106q-58 23 -126 23q-123 0 -202 -88.5t-79 -229.5q0 -95 51.5 -147.5t151.5 -52.5q76 0 135 32l22 127q-46 0 -80 9l13 69h260l-13 -69q-29 -9 -70 -9l-33 -181q-101 -64 -241 -64z" />
    <glyph glyph-name="gcommaaccent" unicode="&#x123;" horiz-adv-x="519" 
d="M319 538q-26 0 -44.5 15.5t-18.5 43.5q0 38 29 74t66 61l35 -25q-38 -34 -38 -57q0 -12 13 -29.5t13 -34.5q0 -21 -16.5 -34.5t-38.5 -13.5zM154 -229q-89 0 -165 53l49 77q58 -44 120 -44t95.5 36t46.5 108l6 33q11 57 22 94h-2q-76 -138 -177 -138q-56 0 -88 44
t-32 114q0 151 82 250t213 99q104 0 164 -21l-87 -471q-22 -125 -79 -179.5t-168 -54.5zM185 76q56 0 110 88t72 208l6 39q-29 8 -64 8q-75 0 -124.5 -73.5t-49.5 -180.5q0 -89 50 -89z" />
    <glyph glyph-name="Hcircumflex" unicode="&#x124;" horiz-adv-x="768" 
d="M302 723l150 156h77l94 -156h-86l-57 77l-84 -77h-94zM-13 0l12 69q36 9 79 9l91 510q-43 0 -77 9l12 69h267l-13 -69q-34 -9 -78 -9l-35 -199h331l35 199q-40 0 -74 9l12 69h266l-13 -69q-27 -9 -79 -9l-92 -510q38 0 77 -9l-11 -69h-266l12 69q36 9 77 9l41 227h-330
l-41 -227q29 0 74 -9l-11 -69h-266z" />
    <glyph glyph-name="hcircumflex" unicode="&#x125;" horiz-adv-x="554" 
d="M224 777l150 156h77l94 -156h-86l-57 77l-84 -77h-94zM32 0l118 643q-52 5 -78 5l12 69q72 7 187 7l-19 -80l-29 -159q-11 -63 -28 -131h2q17 28 30 46t37 44t54.5 39.5t65.5 13.5q62 0 87.5 -46.5t10.5 -129.5l-45 -243q43 -2 75 -9l-13 -69h-178l55 315q16 93 -38 93
t-108 -88.5t-87 -272.5l-9 -47h-102z" />
    <glyph glyph-name="Itilde" unicode="&#x128;" horiz-adv-x="326" 
d="M-13 0l12 69q36 9 79 9l92 510q-43 0 -77 9l12 69h268l-12 -69q-36 -9 -80 -9l-91 -510q32 0 77 -9l-12 -69h-268zM302 726q-28 0 -58.5 18.5t-48.5 18.5q-23 0 -56 -30l-39 45q18 27 47 47t61 20q28 0 58.5 -18.5t48.5 -18.5q29 0 57 30l41 -44q-50 -68 -111 -68z" />
    <glyph glyph-name="itilde" unicode="&#x129;" horiz-adv-x="281" 
d="M45 0l74 409q-52 5 -77 5l12 69q75 7 187 7l-18 -79l-61 -333q45 -2 74 -9l-12 -69h-179zM248 545q-28 0 -58.5 18.5t-48.5 18.5q-23 0 -56 -30l-39 45q18 27 47 47t61 20q28 0 58.5 -18.5t48.5 -18.5q29 0 57 30l41 -44q-50 -68 -111 -68z" />
    <glyph glyph-name="Imacron" unicode="&#x12a;" horiz-adv-x="326" 
d="M-13 0l12 69q36 9 79 9l92 510q-43 0 -77 9l12 69h268l-12 -69q-36 -9 -80 -9l-91 -510q32 0 77 -9l-12 -69h-268zM114 748l14 80h275l-14 -80h-275z" />
    <glyph glyph-name="imacron" unicode="&#x12b;" horiz-adv-x="281" 
d="M45 0l74 409q-52 5 -77 5l12 69q75 7 187 7l-18 -79l-61 -333q45 -2 74 -9l-12 -69h-179zM61 567l14 80h275l-14 -80h-275z" />
    <glyph glyph-name="Ibreve" unicode="&#x12c;" horiz-adv-x="326" 
d="M-13 0l12 69q36 9 79 9l92 510q-43 0 -77 9l12 69h268l-12 -69q-36 -9 -80 -9l-91 -510q32 0 77 -9l-12 -69h-268zM254 717q-61 0 -99.5 33.5t-38.5 96.5v7q0 6 1 10h84q-5 -74 57 -74q28 0 48.5 19.5t28.5 54.5h88q-17 -75 -64.5 -111t-104.5 -36z" />
    <glyph glyph-name="ibreve" unicode="&#x12d;" horiz-adv-x="281" 
d="M45 0l74 409q-52 5 -77 5l12 69q75 7 187 7l-18 -79l-61 -333q45 -2 74 -9l-12 -69h-179zM200 536q-61 0 -99.5 33.5t-38.5 96.5v7q0 6 1 10h84q-5 -74 57 -74q28 0 48.5 19.5t28.5 54.5h88q-17 -75 -64.5 -111t-104.5 -36z" />
    <glyph glyph-name="Iogonek" unicode="&#x12e;" horiz-adv-x="326" 
d="M-13 0l12 69q36 9 79 9l92 510q-43 0 -77 9l12 69h268l-12 -69q-36 -9 -80 -9l-91 -510q32 0 77 -9l-12 -69h-268zM98 -225q-47 0 -72.5 22t-25.5 58q0 72 91 145h65q-75 -75 -75 -127q0 -37 42 -37q20 0 43 7l8 -51q-32 -17 -76 -17z" />
    <glyph glyph-name="iogonek" unicode="&#x12f;" horiz-adv-x="281" 
d="M45 0l74 409q-52 5 -76 5l12 69q72 7 186 7l-18 -79l-61 -333q45 -2 74 -9l-12 -69h-179zM207 562q-29 0 -48 19.5t-19 47.5q0 27 19 46.5t48 19.5t47.5 -19t18.5 -47t-18.5 -47.5t-47.5 -19.5zM112 -225q-47 0 -72.5 22t-25.5 58q0 72 91 145h65q-75 -75 -75 -127
q0 -37 42 -37q20 0 43 7l8 -51q-32 -17 -76 -17z" />
    <glyph glyph-name="Idot" unicode="&#x130;" horiz-adv-x="326" 
d="M-13 0l12 69q36 9 79 9l92 510q-43 0 -77 9l12 69h268l-12 -69q-36 -9 -80 -9l-91 -510q32 0 77 -9l-12 -69h-268zM261 739q-29 0 -47 19t-18 47t18 46.5t47 18.5q28 0 47 -19t19 -46t-19 -46.5t-47 -19.5z" />
    <glyph glyph-name="dotlessi" unicode="&#x131;" horiz-adv-x="281" 
d="M45 0l74 409q-52 5 -77 5l12 69q75 7 187 7l-18 -79l-61 -333q45 -2 74 -9l-12 -69h-179z" />
    <glyph glyph-name="Kcommaaccent" unicode="&#x136;" horiz-adv-x="659" 
d="M279 -43q26 0 44 -15.5t18 -42.5q0 -39 -28.5 -75t-65.5 -61l-35 25q1 1 6.5 6t6.5 6l6 6t6.5 7.5t4.5 7t4.5 8t2.5 8t1 8.5q0 13 -13 30t-13 35q0 20 16 33.5t39 13.5zM352 0l12 69q24 7 56 8l-181 267l258 245q-51 7 -55 8l12 69h245l-13 -69q-4 -1 -66 -8l-262 -242
l189 -270q48 -2 72 -8l-12 -69h-255zM-13 0l12 69q36 9 79 9l92 510q-43 0 -77 9l12 69h260l-13 -69q-28 -6 -71 -8l-92 -512q37 0 72 -8l-12 -69h-262z" />
    <glyph glyph-name="kcommaaccent" unicode="&#x137;" horiz-adv-x="501" 
d="M207 -43q26 0 44 -15.5t18 -42.5q0 -39 -28.5 -75t-65.5 -61l-35 25q1 1 6.5 6t6.5 6l6 6t6.5 7.5t4.5 7t4.5 8t2.5 8t1 8.5q0 13 -13 30t-13 35q0 20 16 33.5t39 13.5zM324 0l-140 267l-46 -267h-105l112 643q-52 5 -78 5l13 69q75 7 187 7l-18 -79l-64 -373l207 212
h120l-219 -216l102 -190q38 0 80 -9l-13 -69h-138z" />
    <glyph glyph-name="Lacute" unicode="&#x139;" horiz-adv-x="516" 
d="M196 722l108 131h143l-156 -131h-95zM-13 0l12 69q36 9 79 9l92 510q-43 0 -77 9l12 69h268l-12 -69q-36 -9 -81 -9l-89 -504h178q18 84 28 107h83l-34 -191h-459z" />
    <glyph glyph-name="lacute" unicode="&#x13a;" horiz-adv-x="266" 
d="M174 776l108 131h143l-156 -131h-95zM31 0l117 643q-52 5 -78 5l12 69q72 7 187 7l-18 -79l-103 -567q45 -2 74 -9l-12 -69h-179z" />
    <glyph glyph-name="Lcommaaccent" unicode="&#x13b;" horiz-adv-x="516" 
d="M237 -43q26 0 44 -15.5t18 -42.5q0 -39 -28.5 -75t-65.5 -61l-35 25q1 1 6.5 6t6.5 6l6 6t6.5 7.5t4.5 7t4.5 8t2.5 8t1 8.5q0 13 -13 30t-13 35q0 20 16 33.5t39 13.5zM-13 0l12 69q36 9 79 9l92 510q-43 0 -77 9l12 69h268l-12 -69q-36 -9 -81 -9l-89 -504h178
q18 84 28 107h83l-34 -191h-459z" />
    <glyph glyph-name="lcommaaccent" unicode="&#x13c;" horiz-adv-x="266" 
d="M70 -43q26 0 44 -15.5t18 -42.5q0 -39 -28.5 -75t-65.5 -61l-35 25q1 1 6.5 6t6.5 6l6 6t6.5 7.5t4.5 7t4.5 8t2.5 8t1 8.5q0 13 -13 30t-13 35q0 20 16 33.5t39 13.5zM31 0l117 643q-52 5 -78 5l12 69q72 7 187 7l-18 -79l-103 -567q45 -2 74 -9l-12 -69h-179z" />
    <glyph glyph-name="Lcaron" unicode="&#x13d;" horiz-adv-x="516" 
d="M374 496l65 171h114l-103 -171h-76zM-13 0l12 69q36 9 79 9l92 510q-43 0 -77 9l12 69h268l-12 -69q-36 -9 -81 -9l-89 -504h178q18 84 28 107h83l-34 -191h-459z" />
    <glyph glyph-name="lcaron" unicode="&#x13e;" horiz-adv-x="266" 
d="M264 549l65 171h114l-103 -171h-76zM31 0l117 643q-52 5 -78 5l12 69q72 7 187 7l-18 -79l-103 -567q45 -2 74 -9l-12 -69h-179z" />
    <glyph glyph-name="Ldot" unicode="&#x13f;" horiz-adv-x="516" 
d="M-13 0l12 69q36 9 79 9l92 510q-43 0 -77 9l12 69h268l-12 -69q-36 -9 -81 -9l-89 -504h178q18 84 28 107h83l-34 -191h-459zM399 311q-29 0 -47 19t-18 47t18 46.5t47 18.5q28 0 47 -19t19 -46t-19 -46.5t-47 -19.5z" />
    <glyph glyph-name="ldot" unicode="&#x140;" horiz-adv-x="331" 
d="M31 0l117 643q-52 5 -78 5l12 69q72 7 187 7l-18 -79l-103 -567q45 -2 74 -9l-12 -69h-179zM305 241q-29 0 -47 19t-18 47t18 46.5t47 18.5q28 0 47 -19t19 -46t-19 -46.5t-47 -19.5z" />
    <glyph glyph-name="Lslash" unicode="&#x141;" horiz-adv-x="525" 
d="M-5 0l12 69q38 9 80 9l31 172l-72 -47l-31 58l119 78l44 249q-43 0 -77 9l13 69h268l-13 -69q-34 -9 -80 -9l-30 -170l115 76l32 -59l-164 -107l-43 -244h179q20 95 28 107h83l-34 -191h-460z" />
    <glyph glyph-name="lslash" unicode="&#x142;" horiz-adv-x="288" 
d="M42 0l48 262l-78 -50l16 86l78 52l53 293q-52 5 -78 5l12 69q72 7 187 7l-18 -79l-41 -224l90 61l-15 -88l-91 -59l-46 -257q45 -2 74 -9l-12 -69h-179z" />
    <glyph glyph-name="Nacute" unicode="&#x143;" horiz-adv-x="735" 
d="M405 722l108 131h143l-156 -131h-95zM-13 0l12 69q36 9 79 9l92 510q-43 0 -77 9l12 69h182l201 -402q22 -43 46 -107h1q0 1 5.5 42t10.5 67l56 322q-42 0 -76 9l12 69h249l-13 -69q-45 -9 -78 -9l-104 -588h-92l-209 421q-33 67 -46 103h-2q0 -1 -5 -39.5t-10 -64.5
l-61 -342q32 0 77 -9l-12 -69h-250z" />
    <glyph glyph-name="nacute" unicode="&#x144;" horiz-adv-x="566" 
d="M279 541l108 131h143l-156 -131h-95zM45 0l74 409q-52 5 -76 5l12 69q75 7 181 7l-14 -65q0 -2 -8 -37t-8 -37h2q79 146 189 146q62 0 87.5 -47t10.5 -129l-45 -243q45 -2 74 -9l-12 -69h-179l55 315q16 93 -37 93t-108 -89t-88 -272l-8 -47h-102z" />
    <glyph glyph-name="Ncommaaccent" unicode="&#x145;" horiz-adv-x="735" 
d="M312 -43q26 0 44 -15.5t18 -42.5q0 -39 -28.5 -75t-65.5 -61l-35 25q1 1 6.5 6t6.5 6l6 6t6.5 7.5t4.5 7t4.5 8t2.5 8t1 8.5q0 13 -13 30t-13 35q0 20 16 33.5t39 13.5zM-13 0l12 69q36 9 79 9l92 510q-43 0 -77 9l12 69h182l201 -402q22 -43 46 -107h1q0 1 5.5 42
t10.5 67l56 322q-42 0 -76 9l12 69h249l-13 -69q-45 -9 -78 -9l-104 -588h-92l-209 421q-33 67 -46 103h-2q0 -1 -5 -39.5t-10 -64.5l-61 -342q32 0 77 -9l-12 -69h-250z" />
    <glyph glyph-name="ncommaaccent" unicode="&#x146;" horiz-adv-x="566" 
d="M228 -43q26 0 44 -15.5t18 -42.5q0 -39 -28.5 -75t-65.5 -61l-35 25q1 1 6.5 6t6.5 6l6 6t6.5 7.5t4.5 7t4.5 8t2.5 8t1 8.5q0 13 -13 30t-13 35q0 20 16 33.5t39 13.5zM45 0l74 409q-52 5 -76 5l12 69q75 7 181 7l-14 -65q0 -2 -8 -37t-8 -37h2q79 146 189 146
q62 0 87.5 -47t10.5 -129l-45 -243q45 -2 74 -9l-12 -69h-179l55 315q16 93 -37 93t-108 -89t-88 -272l-8 -47h-102z" />
    <glyph glyph-name="Ncaron" unicode="&#x147;" horiz-adv-x="735" 
d="M418 721l-96 156h85l60 -77l88 77h93l-153 -156h-77zM-13 0l12 69q36 9 79 9l92 510q-43 0 -77 9l12 69h182l201 -402q22 -43 46 -107h1q0 1 5.5 42t10.5 67l56 322q-42 0 -76 9l12 69h249l-13 -69q-45 -9 -78 -9l-104 -588h-92l-209 421q-33 67 -46 103h-2
q0 -1 -5 -39.5t-10 -64.5l-61 -342q32 0 77 -9l-12 -69h-250z" />
    <glyph glyph-name="ncaron" unicode="&#x148;" horiz-adv-x="566" 
d="M292 540l-96 156h85l60 -77l88 77h93l-153 -156h-77zM45 0l74 409q-52 5 -76 5l12 69q75 7 181 7l-14 -65q0 -2 -8 -37t-8 -37h2q79 146 189 146q62 0 87.5 -47t10.5 -129l-45 -243q45 -2 74 -9l-12 -69h-179l55 315q16 93 -37 93t-108 -89t-88 -272l-8 -47h-102z" />
    <glyph glyph-name="napostrophe" unicode="&#x149;" horiz-adv-x="789" 
d="M123 396l-38 35q54 54 54 94q0 17 -15.5 41t-15.5 47q0 29 19.5 47t47.5 18q32 0 52.5 -21.5t20.5 -58.5q0 -95 -125 -202zM268 0l74 409q-52 5 -76 5l12 69q75 7 181 7l-14 -65q0 -2 -8 -37t-8 -37h2q79 146 189 146q62 0 87.5 -47t10.5 -129l-45 -243q45 -2 74 -9
l-12 -69h-179l55 315q17 93 -37 93q-53 0 -108 -89t-88 -272l-8 -47h-102z" />
    <glyph glyph-name="Omacron" unicode="&#x14c;" horiz-adv-x="736" 
d="M314 748l14 80h275l-14 -80h-275zM338 -12q-134 0 -211.5 83.5t-77.5 205.5q0 103 46 194t134 149t198 58q138 0 213 -82.5t75 -206.5q0 -103 -45 -194t-132.5 -149t-199.5 -58zM348 74q113 0 181.5 93.5t68.5 220.5q0 88 -47.5 146t-133.5 58q-114 0 -182.5 -93.5
t-68.5 -219.5q0 -89 49.5 -147t132.5 -58z" />
    <glyph glyph-name="omacron" unicode="&#x14d;" horiz-adv-x="498" 
d="M165 567l14 80h275l-14 -80h-275zM210 -12q-89 0 -136.5 59t-47.5 142q0 122 76.5 215t185.5 93q88 0 136 -57t48 -144q0 -128 -75 -218t-187 -90zM221 67q63 0 104 70t41 153q0 127 -85 127q-65 0 -107 -70t-42 -155q0 -125 89 -125z" />
    <glyph glyph-name="Obreve" unicode="&#x14e;" horiz-adv-x="736" 
d="M338 -12q-134 0 -211.5 83.5t-77.5 205.5q0 103 46 194t134 149t198 58q138 0 213 -82.5t75 -206.5q0 -103 -45 -194t-132.5 -149t-199.5 -58zM348 74q113 0 181.5 93.5t68.5 220.5q0 88 -47.5 146t-133.5 58q-114 0 -182.5 -93.5t-68.5 -219.5q0 -89 49.5 -147
t132.5 -58zM453 717q-61 0 -99.5 33.5t-38.5 96.5v7q0 6 1 10h84q-5 -74 57 -74q28 0 48.5 19.5t28.5 54.5h88q-17 -75 -64.5 -111t-104.5 -36z" />
    <glyph glyph-name="obreve" unicode="&#x14f;" horiz-adv-x="498" 
d="M210 -12q-89 0 -136.5 59t-47.5 142q0 122 76.5 215t185.5 93q88 0 136 -57t48 -144q0 -128 -75 -218t-187 -90zM221 67q63 0 104 70t41 153q0 127 -85 127q-65 0 -107 -70t-42 -155q0 -125 89 -125zM304 536q-61 0 -99.5 33.5t-38.5 96.5v7q0 6 1 10h84q-5 -74 57 -74
q28 0 48.5 19.5t28.5 54.5h88q-17 -75 -64.5 -111t-104.5 -36z" />
    <glyph glyph-name="Ohungarumlaut" unicode="&#x150;" horiz-adv-x="736" 
d="M295 722l109 131h131l-152 -131h-88zM475 722l109 131h131l-152 -131h-88zM338 -12q-134 0 -211.5 83.5t-77.5 205.5q0 103 46 194t134 149t198 58q138 0 213 -82.5t75 -206.5q0 -103 -45 -194t-132.5 -149t-199.5 -58zM348 74q113 0 181.5 93.5t68.5 220.5
q0 88 -47.5 146t-133.5 58q-114 0 -182.5 -93.5t-68.5 -219.5q0 -89 49.5 -147t132.5 -58z" />
    <glyph glyph-name="ohungarumlaut" unicode="&#x151;" horiz-adv-x="498" 
d="M144 541l109 131h131l-152 -131h-88zM324 541l109 131h131l-152 -131h-88zM210 -12q-89 0 -136.5 59t-47.5 142q0 122 76.5 215t185.5 93q88 0 136 -57t48 -144q0 -128 -75 -218t-187 -90zM221 67q63 0 104 70t41 153q0 127 -85 127q-65 0 -107 -70t-42 -155
q0 -125 89 -125z" />
    <glyph glyph-name="OE" unicode="&#x152;" horiz-adv-x="937" 
d="M335 -12q-134 0 -210 83t-76 206q0 102 45.5 193t133.5 149.5t198 58.5q68 0 111 -12h426l-32 -176h-85v15q0 29 8 77h-223l-35 -202h125q7 42 19 63h73l-38 -208h-73q-1 4 1 27l4 38h-125l-39 -216h229q8 50 24 92h85l-31 -176h-419q-45 -12 -96 -12zM344 77q53 0 93 22
l83 469q-38 21 -98 21q-78 0 -138 -45.5t-89 -115t-29 -149.5q0 -89 47 -145.5t131 -56.5z" />
    <glyph glyph-name="oe" unicode="&#x153;" horiz-adv-x="782" 
d="M210 -12q-88 0 -136 59t-48 142q0 122 76 215t187 93q104 0 151 -90q77 90 185 90q64 0 100.5 -31t36.5 -88q0 -156 -304 -191q0 -116 84 -116q68 0 127 55l44 -66q-77 -72 -187 -72q-101 0 -144 80q-70 -80 -172 -80zM219 67q65 0 107.5 70t42.5 153q0 127 -87 127
q-65 0 -108.5 -71t-43.5 -154q0 -58 22.5 -91.5t66.5 -33.5zM606 417q-51 0 -88 -47.5t-53 -115.5q86 9 140.5 38.5t54.5 73.5q0 51 -54 51z" />
    <glyph glyph-name="Racute" unicode="&#x154;" horiz-adv-x="622" 
d="M323 722l108 131h143l-156 -131h-95zM516 -8q-47 0 -71.5 15.5t-42.5 55.5l-63 135q-24 52 -45.5 72.5t-54.5 20.5h-12l-38 -214q39 0 71 -8l-11 -69h-262l12 69q36 9 79 9l92 510q-43 0 -77 9l12 69h277q97 0 149.5 -41t52.5 -117q0 -92 -58.5 -142.5t-153.5 -59.5v-2
q41 -21 74 -86l50 -102q14 -26 32 -37t48 -11h6q5 0 6 1l-11 -69q-22 -8 -61 -8zM240 368h93q68 0 103 35.5t35 92.5q0 88 -109 88h-83z" />
    <glyph glyph-name="racute" unicode="&#x155;" horiz-adv-x="400" 
d="M231 541l108 131h143l-156 -131h-95zM45 0l74 409q-52 5 -76 5l12 69q72 7 181 7l-14 -65l-18 -80h2q28 61 72.5 106.5t93.5 45.5q34 0 53 -10l-37 -98q-21 7 -36 7q-60 0 -112 -85t-85 -264l-8 -47h-102z" />
    <glyph glyph-name="Rcommaaccent" unicode="&#x156;" horiz-adv-x="622" 
d="M284 -43q26 0 44 -15.5t18 -42.5q0 -39 -28.5 -75t-65.5 -61l-35 25q1 1 6.5 6t6.5 6l6 6t6.5 7.5t4.5 7t4.5 8t2.5 8t1 8.5q0 13 -13 30t-13 35q0 20 16 33.5t39 13.5zM516 -8q-47 0 -71.5 15.5t-42.5 55.5l-63 135q-24 52 -45.5 72.5t-54.5 20.5h-12l-38 -214
q39 0 71 -8l-11 -69h-262l12 69q36 9 79 9l92 510q-43 0 -77 9l12 69h277q97 0 149.5 -41t52.5 -117q0 -92 -58.5 -142.5t-153.5 -59.5v-2q41 -21 74 -86l50 -102q14 -26 32 -37t48 -11h6q5 0 6 1l-11 -69q-22 -8 -61 -8zM240 368h93q68 0 103 35.5t35 92.5q0 88 -109 88
h-83z" />
    <glyph glyph-name="rcommaaccent" unicode="&#x157;" horiz-adv-x="400" 
d="M83 -43q26 0 44 -15.5t18 -42.5q0 -39 -28.5 -75t-65.5 -61l-35 25q1 1 6.5 6t6.5 6l6 6t6.5 7.5t4.5 7t4.5 8t2.5 8t1 8.5q0 13 -13 30t-13 35q0 20 16 33.5t39 13.5zM45 0l74 409q-52 5 -76 5l12 69q72 7 181 7l-14 -65l-18 -80h2q28 61 72.5 106.5t93.5 45.5
q34 0 53 -10l-37 -98q-21 7 -36 7q-60 0 -112 -85t-85 -264l-8 -47h-102z" />
    <glyph glyph-name="Rcaron" unicode="&#x158;" horiz-adv-x="622" 
d="M336 721l-96 156h85l60 -77l88 77h93l-153 -156h-77zM516 -8q-47 0 -71.5 15.5t-42.5 55.5l-63 135q-24 52 -45.5 72.5t-54.5 20.5h-12l-38 -214q39 0 71 -8l-11 -69h-262l12 69q36 9 79 9l92 510q-43 0 -77 9l12 69h277q97 0 149.5 -41t52.5 -117q0 -92 -58.5 -142.5
t-153.5 -59.5v-2q41 -21 74 -86l50 -102q14 -26 32 -37t48 -11h6q5 0 6 1l-11 -69q-22 -8 -61 -8zM240 368h93q68 0 103 35.5t35 92.5q0 88 -109 88h-83z" />
    <glyph glyph-name="rcaron" unicode="&#x159;" horiz-adv-x="400" 
d="M246 540l-96 156h85l60 -77l88 77h93l-153 -156h-77zM45 0l74 409q-52 5 -76 5l12 69q72 7 181 7l-14 -65l-18 -80h2q28 61 72.5 106.5t93.5 45.5q34 0 53 -10l-37 -98q-21 7 -36 7q-60 0 -112 -85t-85 -264l-8 -47h-102z" />
    <glyph glyph-name="Sacute" unicode="&#x15a;" horiz-adv-x="498" 
d="M277 722l108 131h143l-156 -131h-95zM204 -12q-133 0 -200 58l27 151h85q0 -30 -11 -100q43 -24 109 -24q55 0 90.5 29t35.5 76q0 71 -94 115l-53 26q-100 53 -100 165q0 86 64.5 140t165.5 54q62 0 110 -13t71 -30l-28 -158h-85q0 34 11 104q-36 13 -82 13
q-52 0 -85 -25t-33 -66q0 -42 24 -67t75 -50q22 -11 30.5 -14.5t29 -15.5t29.5 -20t23.5 -23.5t21 -30.5t12 -37t5.5 -47q0 -94 -66.5 -152t-181.5 -58z" />
    <glyph glyph-name="sacute" unicode="&#x15b;" horiz-adv-x="432" 
d="M217 541l108 131h143l-156 -131h-95zM179 -12q-53 0 -99 12t-66 28l23 126h77q0 -34 -6 -75q33 -14 74 -14q39 0 62 18t23 47q0 19 -12.5 34.5t-25.5 23.5t-39 21q-27 14 -41.5 22.5t-34.5 26t-29.5 41t-9.5 53.5q0 66 50 105.5t135 39.5q99 0 151 -35l-23 -128h-78
q0 37 7 75q-23 10 -56 10q-36 0 -58 -17t-22 -42q0 -14 5 -25t17.5 -21t22 -15.5t28.5 -15.5q30 -15 42.5 -22.5t34.5 -25.5t31.5 -41.5t9.5 -54.5q0 -69 -51.5 -110t-141.5 -41z" />
    <glyph glyph-name="Scircumflex" unicode="&#x15c;" horiz-adv-x="498" 
d="M163 723l150 156h77l94 -156h-86l-57 77l-84 -77h-94zM204 -12q-133 0 -200 58l27 151h85q0 -30 -11 -100q43 -24 109 -24q55 0 90.5 29t35.5 76q0 71 -94 115l-53 26q-100 53 -100 165q0 86 64.5 140t165.5 54q62 0 110 -13t71 -30l-28 -158h-85q0 34 11 104
q-36 13 -82 13q-52 0 -85 -25t-33 -66q0 -42 24 -67t75 -50q22 -11 30.5 -14.5t29 -15.5t29.5 -20t23.5 -23.5t21 -30.5t12 -37t5.5 -47q0 -94 -66.5 -152t-181.5 -58z" />
    <glyph glyph-name="scircumflex" unicode="&#x15d;" horiz-adv-x="432" 
d="M105 542l150 156h77l94 -156h-86l-57 77l-84 -77h-94zM179 -12q-53 0 -99 12t-66 28l23 126h77q0 -34 -6 -75q33 -14 74 -14q39 0 62 18t23 47q0 19 -12.5 34.5t-25.5 23.5t-39 21q-27 14 -41.5 22.5t-34.5 26t-29.5 41t-9.5 53.5q0 66 50 105.5t135 39.5q99 0 151 -35
l-23 -128h-78q0 37 7 75q-23 10 -56 10q-36 0 -58 -17t-22 -42q0 -14 5 -25t17.5 -21t22 -15.5t28.5 -15.5q30 -15 42.5 -22.5t34.5 -25.5t31.5 -41.5t9.5 -54.5q0 -69 -51.5 -110t-141.5 -41z" />
    <glyph glyph-name="Scedilla" unicode="&#x15e;" horiz-adv-x="498" 
d="M204 -12q-133 0 -200 58l27 151h85q0 -30 -11 -100q43 -24 109 -24q55 0 90.5 29t35.5 76q0 71 -94 115l-53 26q-100 53 -100 165q0 86 64.5 140t165.5 54q62 0 110 -13t71 -30l-28 -158h-85q0 34 11 104q-36 13 -82 13q-52 0 -85 -25t-33 -66q0 -42 24 -67t75 -50
q22 -11 30.5 -14.5t29 -15.5t29.5 -20t23.5 -23.5t21 -30.5t12 -37t5.5 -47q0 -94 -66.5 -152t-181.5 -58zM168 -225q-44 0 -75 13l18 51q20 -10 49 -10q48 0 48 37q0 45 -71 39l36 97h66l-24 -62q32 -5 51.5 -25.5t19.5 -51.5q0 -41 -32.5 -64.5t-85.5 -23.5z" />
    <glyph glyph-name="scedilla" unicode="&#x15f;" horiz-adv-x="432" 
d="M179 -12q-53 0 -99 12t-66 28l23 126h77q0 -34 -6 -75q33 -14 74 -14q39 0 62 18t23 47q0 19 -12.5 34.5t-25.5 23.5t-39 21q-27 14 -41.5 22.5t-34.5 26t-29.5 41t-9.5 53.5q0 66 50 105.5t135 39.5q99 0 151 -35l-23 -128h-78q0 37 7 75q-23 10 -56 10q-36 0 -58 -17
t-22 -42q0 -14 5 -25t17.5 -21t22 -15.5t28.5 -15.5q30 -15 42.5 -22.5t34.5 -25.5t31.5 -41.5t9.5 -54.5q0 -69 -51.5 -110t-141.5 -41zM142 -225q-44 0 -75 13l18 51q20 -10 49 -10q48 0 48 37q0 45 -71 39l36 97h66l-24 -62q32 -5 51.5 -25.5t19.5 -51.5
q0 -41 -32.5 -64.5t-85.5 -23.5z" />
    <glyph glyph-name="Scaron" unicode="&#x160;" horiz-adv-x="498" 
d="M290 721l-96 156h85l60 -77l88 77h93l-153 -156h-77zM204 -12q-133 0 -200 58l27 151h85q0 -30 -11 -100q43 -24 109 -24q55 0 90.5 29t35.5 76q0 71 -94 115l-53 26q-100 53 -100 165q0 86 64.5 140t165.5 54q62 0 110 -13t71 -30l-28 -158h-85q0 34 11 104
q-36 13 -82 13q-52 0 -85 -25t-33 -66q0 -42 24 -67t75 -50q22 -11 30.5 -14.5t29 -15.5t29.5 -20t23.5 -23.5t21 -30.5t12 -37t5.5 -47q0 -94 -66.5 -152t-181.5 -58z" />
    <glyph glyph-name="scaron" unicode="&#x161;" horiz-adv-x="432" 
d="M232 540l-96 156h85l60 -77l88 77h93l-153 -156h-77zM179 -12q-53 0 -99 12t-66 28l23 126h77q0 -34 -6 -75q33 -14 74 -14q39 0 62 18t23 47q0 19 -12.5 34.5t-25.5 23.5t-39 21q-27 14 -41.5 22.5t-34.5 26t-29.5 41t-9.5 53.5q0 66 50 105.5t135 39.5q99 0 151 -35
l-23 -128h-78q0 37 7 75q-23 10 -56 10q-36 0 -58 -17t-22 -42q0 -14 5 -25t17.5 -21t22 -15.5t28.5 -15.5q30 -15 42.5 -22.5t34.5 -25.5t31.5 -41.5t9.5 -54.5q0 -69 -51.5 -110t-141.5 -41z" />
    <glyph glyph-name="Tcommaaccent" unicode="&#x162;" horiz-adv-x="627" 
d="M137 0l12 69q38 9 80 9l90 504h-140q-8 -56 -27 -105h-85l34 189h578l-34 -189h-85q0 35 10 105h-140l-90 -504q32 0 77 -9l-12 -69h-268zM233 -225q-44 0 -75 13l18 51q20 -10 49 -10q48 0 48 37q0 45 -71 39l36 97h66l-24 -62q32 -5 51.5 -25.5t19.5 -51.5
q0 -41 -32.5 -64.5t-85.5 -23.5z" />
    <glyph glyph-name="tcommaaccent" unicode="&#x163;" horiz-adv-x="356" 
d="M168 -12q-65 0 -87.5 37.5t-8.5 116.5l48 262h-80l14 80h81l24 129l109 29l-29 -158h120l-13 -80h-122l-46 -250q-8 -38 -4.5 -58.5t25.5 -20.5q9 0 17.5 2t18.5 7.5t14.5 8t17 11.5t13.5 10l38 -69q-67 -57 -150 -57zM132 -225q-44 0 -75 13l18 51q20 -10 49 -10
q48 0 48 37q0 45 -71 39l36 97h66l-24 -62q32 -5 51.5 -25.5t19.5 -51.5q0 -41 -32.5 -64.5t-85.5 -23.5z" />
    <glyph glyph-name="Tcaron" unicode="&#x164;" horiz-adv-x="627" 
d="M359 721l-96 156h85l60 -77l88 77h93l-153 -156h-77zM137 0l12 69q38 9 80 9l90 504h-140q-8 -56 -27 -105h-85l34 189h578l-34 -189h-85q0 35 10 105h-140l-90 -504q32 0 77 -9l-12 -69h-268z" />
    <glyph glyph-name="tcaron" unicode="&#x165;" horiz-adv-x="356" 
d="M280 549l65 171h114l-103 -171h-76zM168 -12q-65 0 -87.5 37.5t-8.5 116.5l48 262h-80l14 80h81l24 129l109 29l-29 -158h120l-13 -80h-122l-46 -250q-8 -38 -4.5 -58.5t25.5 -20.5q9 0 17.5 2t18.5 7.5t14.5 8t17 11.5t13.5 10l38 -69q-67 -57 -150 -57z" />
    <glyph glyph-name="Utilde" unicode="&#x168;" horiz-adv-x="722" 
d="M339 -12q-118 0 -179 54.5t-61 151.5q0 31 6 64l58 330q-38 0 -72 9l12 69h260l-12 -69q-34 -9 -77 -9l-57 -323q-17 -96 14 -140.5t116 -44.5q80 0 123 43.5t61 136.5l58 328q-40 0 -74 9l12 69h243l-12 -69q-36 -9 -76 -9l-60 -339q-23 -129 -90 -195t-193 -66z
M503 726q-28 0 -58.5 18.5t-48.5 18.5q-24 0 -56 -30l-39 45q18 27 47 47t61 20q28 0 58.5 -18.5t48.5 -18.5q30 0 57 30l41 -44q-50 -68 -111 -68z" />
    <glyph glyph-name="utilde" unicode="&#x169;" horiz-adv-x="565" 
d="M169 -13q-63 0 -88 46t-10 130l44 246q-52 5 -76 5l13 69q72 7 181 7l-57 -320q-16 -94 38 -94q51 0 104 78t84 235l4 20q-52 5 -78 5l13 69q72 7 181 7l-47 -258l-15 -88l-9 -66q43 -2 75 -9l-13 -69h-171q9 76 22 140h-2q-19 -32 -33 -52t-38 -47t-55 -40.5t-67 -13.5z
M377 545q-28 0 -58.5 18.5t-48.5 18.5q-24 0 -56 -30l-39 45q18 27 47 47t61 20q28 0 58.5 -18.5t48.5 -18.5q30 0 57 30l41 -44q-50 -68 -111 -68z" />
    <glyph glyph-name="Umacron" unicode="&#x16a;" horiz-adv-x="722" 
d="M339 -12q-118 0 -179 54.5t-61 151.5q0 31 6 64l58 330q-38 0 -72 9l12 69h260l-12 -69q-34 -9 -77 -9l-57 -323q-17 -96 14 -140.5t116 -44.5q80 0 123 43.5t61 136.5l58 328q-40 0 -74 9l12 69h243l-12 -69q-36 -9 -76 -9l-60 -339q-23 -129 -90 -195t-193 -66z
M315 748l14 80h275l-14 -80h-275z" />
    <glyph glyph-name="umacron" unicode="&#x16b;" horiz-adv-x="565" 
d="M169 -13q-63 0 -88 46t-10 130l44 246q-52 5 -76 5l13 69q72 7 181 7l-57 -320q-16 -94 38 -94q51 0 104 78t84 235l4 20q-52 5 -78 5l13 69q72 7 181 7l-47 -258l-15 -88l-9 -66q43 -2 75 -9l-13 -69h-171q9 76 22 140h-2q-19 -32 -33 -52t-38 -47t-55 -40.5t-67 -13.5z
M190 567l14 80h275l-14 -80h-275z" />
    <glyph glyph-name="Ubreve" unicode="&#x16c;" horiz-adv-x="722" 
d="M339 -12q-118 0 -179 54.5t-61 151.5q0 31 6 64l58 330q-38 0 -72 9l12 69h260l-12 -69q-34 -9 -77 -9l-57 -323q-17 -96 14 -140.5t116 -44.5q80 0 123 43.5t61 136.5l58 328q-40 0 -74 9l12 69h243l-12 -69q-36 -9 -76 -9l-60 -339q-23 -129 -90 -195t-193 -66z
M455 717q-61 0 -99.5 33.5t-38.5 96.5v7q0 6 1 10h84q-5 -74 57 -74q28 0 48.5 19.5t28.5 54.5h88q-17 -75 -64.5 -111t-104.5 -36z" />
    <glyph glyph-name="ubreve" unicode="&#x16d;" horiz-adv-x="565" 
d="M169 -13q-63 0 -88 46t-10 130l44 246q-52 5 -76 5l13 69q72 7 181 7l-57 -320q-16 -94 38 -94q51 0 104 78t84 235l4 20q-52 5 -78 5l13 69q72 7 181 7l-47 -258l-15 -88l-9 -66q43 -2 75 -9l-13 -69h-171q9 76 22 140h-2q-19 -32 -33 -52t-38 -47t-55 -40.5t-67 -13.5z
M329 536q-61 0 -99.5 33.5t-38.5 96.5v7q0 6 1 10h84q-5 -74 57 -74q28 0 48.5 19.5t28.5 54.5h88q-17 -75 -64.5 -111t-104.5 -36z" />
    <glyph glyph-name="Uring" unicode="&#x16e;" horiz-adv-x="722" 
d="M466 723q-41 0 -71.5 28.5t-30.5 71.5q0 44 30.5 73t71.5 29t71.5 -28.5t30.5 -72.5q0 -43 -30.5 -72t-71.5 -29zM466 772q22 0 34.5 15t12.5 37q0 24 -12 38.5t-35 14.5t-35 -14.5t-12 -38.5q0 -22 12.5 -37t34.5 -15zM339 -12q-118 0 -179 54.5t-61 151.5q0 31 6 64
l58 330q-38 0 -72 9l12 69h260l-12 -69q-34 -9 -77 -9l-57 -323q-17 -96 14 -140.5t116 -44.5q80 0 123 43.5t61 136.5l58 328q-40 0 -74 9l12 69h243l-12 -69q-36 -9 -76 -9l-60 -339q-23 -129 -90 -195t-193 -66z" />
    <glyph glyph-name="uring" unicode="&#x16f;" horiz-adv-x="565" 
d="M340 542q-41 0 -71.5 28.5t-30.5 71.5q0 44 30.5 73t71.5 29t71.5 -28.5t30.5 -72.5q0 -43 -30.5 -72t-71.5 -29zM340 591q22 0 34.5 15t12.5 37q0 24 -12 38.5t-35 14.5t-35 -14.5t-12 -38.5q0 -22 12.5 -37t34.5 -15zM169 -13q-63 0 -88 46t-10 130l44 246q-52 5 -76 5
l13 69q72 7 181 7l-57 -320q-16 -94 38 -94q51 0 104 78t84 235l4 20q-52 5 -78 5l13 69q72 7 181 7l-47 -258l-15 -88l-9 -66q43 -2 75 -9l-13 -69h-171q9 76 22 140h-2q-19 -32 -33 -52t-38 -47t-55 -40.5t-67 -13.5z" />
    <glyph glyph-name="Uhungarumlaut" unicode="&#x170;" horiz-adv-x="722" 
d="M339 -12q-118 0 -179 54.5t-61 151.5q0 31 6 64l58 330q-38 0 -72 9l12 69h260l-12 -69q-34 -9 -77 -9l-57 -323q-17 -96 14 -140.5t116 -44.5q80 0 123 43.5t61 136.5l58 328q-40 0 -74 9l12 69h243l-12 -69q-36 -9 -76 -9l-60 -339q-23 -129 -90 -195t-193 -66z
M296 722l109 131h131l-152 -131h-88zM476 722l109 131h131l-152 -131h-88z" />
    <glyph glyph-name="uhungarumlaut" unicode="&#x171;" horiz-adv-x="565" 
d="M169 -13q-63 0 -88 46t-10 130l44 246q-52 5 -76 5l13 69q72 7 181 7l-57 -320q-16 -94 38 -94q51 0 104 78t84 235l4 20q-52 5 -78 5l13 69q72 7 181 7l-47 -258l-15 -88l-9 -66q43 -2 75 -9l-13 -69h-171q9 76 22 140h-2q-19 -32 -33 -52t-38 -47t-55 -40.5t-67 -13.5z
M171 541l109 131h131l-152 -131h-88zM351 541l109 131h131l-152 -131h-88z" />
    <glyph glyph-name="Uogonek" unicode="&#x172;" horiz-adv-x="722" 
d="M352 -225q-47 0 -73 22t-26 58q0 78 81 133q-116 2 -175.5 55.5t-59.5 150.5q0 31 6 64l58 330q-38 0 -72 9l12 69h260l-12 -69q-34 -9 -77 -9l-57 -323q-17 -96 14 -140.5t116 -44.5q80 0 123 43.5t61 136.5l58 328q-40 0 -74 9l12 69h243l-12 -69q-36 -9 -76 -9
l-60 -339q-30 -170 -157 -236q-62 -32 -96 -63.5t-34 -75.5q0 -38 42 -38q19 0 42 7l9 -51q-32 -17 -76 -17z" />
    <glyph glyph-name="uogonek" unicode="&#x173;" horiz-adv-x="565" 
d="M403 -225q-47 0 -72.5 22t-25.5 58q0 72 91 145h65q-75 -75 -75 -127q0 -37 42 -37q20 0 43 7l8 -51q-32 -17 -76 -17zM169 -13q-63 0 -88 46t-10 130l44 246q-52 5 -76 5l13 69q72 7 181 7l-57 -320q-16 -94 38 -94q51 0 104 78t84 235l4 20q-52 5 -78 5l13 69
q72 7 181 7l-47 -258l-15 -88l-9 -66q43 -2 75 -9l-13 -69h-171q9 76 22 140h-2q-19 -32 -33 -52t-38 -47t-55 -40.5t-67 -13.5z" />
    <glyph glyph-name="Ydieresis" unicode="&#x178;" horiz-adv-x="610" 
d="M133 0l12 69q38 9 80 9l31 171l-120 340q-32 0 -72 8l12 69h250l-12 -69q-2 0 -7 -1t-10.5 -2t-10.5 -1l-36 -4l81 -243h1l161 243q-58 7 -61 8l13 69h240l-12 -69q-33 -7 -71 -8l-235 -339l-31 -172q32 0 77 -9l-11 -69h-269zM299 724q-26 0 -43.5 17.5t-17.5 43.5
t17.5 43.5t43.5 17.5q28 0 45.5 -17.5t17.5 -43.5t-18 -43.5t-45 -17.5zM496 724q-26 0 -43.5 17.5t-17.5 43.5t17.5 43.5t43.5 17.5q28 0 45.5 -17.5t17.5 -43.5t-18 -43.5t-45 -17.5z" />
    <glyph glyph-name="Zacute" unicode="&#x179;" horiz-adv-x="560" 
d="M311 722l108 131h143l-156 -131h-95zM-10 0l14 75l426 504h-230q-18 -81 -27 -103h-85l34 190h464l-14 -72l-430 -507h259q17 74 28 103h86l-35 -190h-490z" />
    <glyph glyph-name="zacute" unicode="&#x17a;" horiz-adv-x="487" 
d="M242 541l108 131h143l-156 -131h-95zM5 0l10 61l314 345h-158q-9 -50 -20 -76h-81l27 154h384l-11 -64l-312 -342h180q9 46 21 76h81l-28 -154h-407z" />
    <glyph glyph-name="Zdotaccent" unicode="&#x17b;" horiz-adv-x="560" 
d="M-10 0l14 75l426 504h-230q-18 -81 -27 -103h-85l34 190h464l-14 -72l-430 -507h259q17 74 28 103h86l-35 -190h-490zM373 739q-29 0 -47 19t-18 47t18 46.5t47 18.5q28 0 47 -19t19 -46t-19 -46.5t-47 -19.5z" />
    <glyph glyph-name="zdotaccent" unicode="&#x17c;" horiz-adv-x="487" 
d="M5 0l10 61l314 345h-158q-9 -50 -20 -76h-81l27 154h384l-11 -64l-312 -342h180q9 46 21 76h81l-28 -154h-407zM305 558q-29 0 -47 19t-18 47t18 46.5t47 18.5q28 0 47 -19t19 -46t-19 -46.5t-47 -19.5z" />
    <glyph glyph-name="Zcaron" unicode="&#x17d;" horiz-adv-x="560" 
d="M324 721l-96 156h85l60 -77l88 77h93l-153 -156h-77zM-10 0l14 75l426 504h-230q-18 -81 -27 -103h-85l34 190h464l-14 -72l-430 -507h259q17 74 28 103h86l-35 -190h-490z" />
    <glyph glyph-name="zcaron" unicode="&#x17e;" horiz-adv-x="487" 
d="M254 540l-96 156h85l60 -77l88 77h93l-153 -156h-77zM5 0l10 61l314 345h-158q-9 -50 -20 -76h-81l27 154h384l-11 -64l-312 -342h180q9 46 21 76h81l-28 -154h-407z" />
    <glyph glyph-name="Scommaaccent" unicode="&#x218;" horiz-adv-x="498" 
d="M205 -43q26 0 44 -15.5t18 -42.5q0 -39 -28.5 -75t-65.5 -61l-35 25q1 1 6.5 6t6.5 6l6 6t6.5 7.5t4.5 7t4.5 8t2.5 8t1 8.5q0 13 -13 30t-13 35q0 20 16 33.5t39 13.5zM204 -12q-133 0 -200 58l27 151h85q0 -30 -11 -100q43 -24 109 -24q55 0 90.5 29t35.5 76
q0 71 -94 115l-53 26q-100 53 -100 165q0 86 64.5 140t165.5 54q62 0 110 -13t71 -30l-28 -158h-85q0 34 11 104q-36 13 -82 13q-52 0 -85 -25t-33 -66q0 -42 24 -67t75 -50q22 -11 30.5 -14.5t29 -15.5t29.5 -20t23.5 -23.5t21 -30.5t12 -37t5.5 -47q0 -94 -66.5 -152
t-181.5 -58z" />
    <glyph glyph-name="scommaaccent" unicode="&#x219;" horiz-adv-x="432" 
d="M165 -43q26 0 44 -15.5t18 -42.5q0 -39 -28.5 -75t-65.5 -61l-35 25q1 1 6.5 6t6.5 6l6 6t6.5 7.5t4.5 7t4.5 8t2.5 8t1 8.5q0 13 -13 30t-13 35q0 20 16 33.5t39 13.5zM179 -12q-53 0 -99 12t-66 28l23 126h77q0 -34 -6 -75q33 -14 74 -14q39 0 62 18t23 47
q0 19 -12.5 34.5t-25.5 23.5t-39 21q-27 14 -41.5 22.5t-34.5 26t-29.5 41t-9.5 53.5q0 66 50 105.5t135 39.5q99 0 151 -35l-23 -128h-78q0 37 7 75q-23 10 -56 10q-36 0 -58 -17t-22 -42q0 -14 5 -25t17.5 -21t22 -15.5t28.5 -15.5q30 -15 42.5 -22.5t34.5 -25.5
t31.5 -41.5t9.5 -54.5q0 -69 -51.5 -110t-141.5 -41z" />
    <glyph glyph-name="uni021A" unicode="&#x21a;" horiz-adv-x="627" 
d="M257 -43q26 0 44 -15.5t18 -42.5q0 -39 -28.5 -75t-65.5 -61l-35 25q1 1 6.5 6t6.5 6l6 6t6.5 7.5t4.5 7t4.5 8t2.5 8t1 8.5q0 13 -13 30t-13 35q0 20 16 33.5t39 13.5zM137 0l12 69q38 9 80 9l90 504h-140q-8 -56 -27 -105h-85l34 189h578l-34 -189h-85q0 35 10 105
h-140l-90 -504q32 0 77 -9l-12 -69h-268z" />
    <glyph glyph-name="uni021B" unicode="&#x21b;" horiz-adv-x="356" 
d="M158 -43q26 0 44 -15.5t18 -42.5q0 -39 -28.5 -75t-65.5 -61l-35 25q1 1 6.5 6t6.5 6l6 6t6.5 7.5t4.5 7t4.5 8t2.5 8t1 8.5q0 13 -13 30t-13 35q0 20 16 33.5t39 13.5zM168 -12q-65 0 -87.5 37.5t-8.5 116.5l48 262h-80l14 80h81l24 129l109 29l-29 -158h120l-13 -80
h-122l-46 -250q-8 -38 -4.5 -58.5t25.5 -20.5q9 0 17.5 2t18.5 7.5t14.5 8t17 11.5t13.5 10l38 -69q-67 -57 -150 -57z" />
    <glyph glyph-name="circumflex" unicode="&#x2c6;" horiz-adv-x="500" 
d="M140 542l150 156h77l94 -156h-86l-57 77l-84 -77h-94z" />
    <glyph glyph-name="caron" unicode="&#x2c7;" horiz-adv-x="500" 
d="M261 540l-96 156h85l60 -77l88 77h93l-153 -156h-77z" />
    <glyph glyph-name="breve" unicode="&#x2d8;" horiz-adv-x="500" 
d="M305 536q-61 0 -99.5 33.5t-38.5 96.5v7q0 6 1 10h84q-5 -74 57 -74q28 0 48.5 19.5t28.5 54.5h88q-17 -75 -64.5 -111t-104.5 -36z" />
    <glyph glyph-name="dotaccent" unicode="&#x2d9;" horiz-adv-x="500" 
d="M316 558q-29 0 -47 19t-18 47t18 46.5t47 18.5q28 0 47 -19t19 -46t-19 -46.5t-47 -19.5z" />
    <glyph glyph-name="ring" unicode="&#x2da;" horiz-adv-x="497" 
d="M319 542q-41 0 -71.5 28.5t-30.5 71.5q0 44 30.5 73t71.5 29t71.5 -28.5t30.5 -72.5q0 -43 -30.5 -72t-71.5 -29zM319 591q22 0 34.5 15t12.5 37q0 24 -12 38.5t-35 14.5t-35 -14.5t-12 -38.5q0 -22 12.5 -37t34.5 -15z" />
    <glyph glyph-name="ogonek" unicode="&#x2db;" horiz-adv-x="500" 
d="M181 -225q-47 0 -72.5 22t-25.5 58q0 72 91 145h65q-75 -75 -75 -127q0 -37 42 -37q20 0 43 7l8 -51q-32 -17 -76 -17z" />
    <glyph glyph-name="tilde" unicode="&#x2dc;" horiz-adv-x="500" 
d="M358 545q-28 0 -58.5 18.5t-48.5 18.5q-23 0 -56 -30l-39 45q18 27 47 47t61 20q28 0 58.5 -18.5t48.5 -18.5q29 0 57 30l41 -44q-50 -68 -111 -68z" />
    <glyph glyph-name="hungarumlaut" unicode="&#x2dd;" horiz-adv-x="500" 
d="M69 541l109 131h131l-152 -131h-88zM249 541l109 131h131l-152 -131h-88z" />
    <glyph glyph-name="uni0394" unicode="&#x394;" horiz-adv-x="631" 
d="M-6 0l11 63l324 603h105l127 -603l-12 -63h-555zM133 94h310l-66 332q-4 20 -7.5 44t-6 45t-3.5 27h-2q-25 -62 -53 -116z" />
    <glyph glyph-name="uni03A9" unicode="&#x3a9;" horiz-adv-x="747" 
d="M7 0l17 90h128q-91 79 -91 202q0 164 109.5 275t257.5 111q120 0 201.5 -75t81.5 -193q0 -101 -48 -185.5t-128 -134.5h139l-17 -90h-267l15 86q84 41 138.5 122.5t54.5 186.5q0 80 -49.5 135.5t-129.5 55.5q-108 0 -177 -89t-69 -209q0 -125 97 -202l-15 -86h-248z" />
    <glyph glyph-name="uni03BC" unicode="&#x3bc;" horiz-adv-x="540" 
d="M-3 -218l127 702h103l-57 -320q-17 -85 57 -85q59 0 122 73l60 332h104l-66 -363q-14 -74 -9 -121h-103q-6 32 2 68q-61 -76 -147 -76q-36 0 -54 18h-1q-2 -49 -14 -112l-20 -116h-104z" />
    <glyph glyph-name="uni1E9E" unicode="&#x1e9e;" horiz-adv-x="746" 
d="M-20 0l12 69q43 9 82 9l54 303q52 296 353 296q137 0 257 -32l-11 -58l-167 -207l27 -19q52 -38 81 -79t29 -97q0 -84 -65 -140t-172 -56q-109 0 -176 39l35 81q61 -36 140 -36q61 0 94 28t33 73q0 34 -20.5 61.5t-71.5 60.5l-80 52l188 231q-60 15 -134 15
q-191 0 -229 -215l-53 -301q34 0 72 -10l-12 -68h-266z" />
    <glyph glyph-name="uni2007" unicode="&#x2007;" 
 />
    <glyph glyph-name="uni2008" unicode="&#x2008;" horiz-adv-x="253" 
 />
    <glyph glyph-name="uni200B" unicode="&#x200b;" horiz-adv-x="0" 
 />
    <glyph glyph-name="endash" unicode="&#x2013;" horiz-adv-x="560" 
d="M46 236l14 80h463l-14 -80h-463z" />
    <glyph glyph-name="emdash" unicode="&#x2014;" horiz-adv-x="872" 
d="M46 236l14 80h775l-14 -80h-775z" />
    <glyph glyph-name="quoteleft" unicode="&#x2018;" horiz-adv-x="223" 
d="M158 405q-31 0 -52 22t-21 58q0 95 125 202l38 -35q-54 -54 -54 -93q0 -18 15.5 -42t15.5 -47q0 -28 -19.5 -46.5t-47.5 -18.5z" />
    <glyph glyph-name="quoteright" unicode="&#x2019;" horiz-adv-x="223" 
d="M123 396l-38 35q54 54 54 94q0 17 -15.5 41t-15.5 47q0 29 19.5 47t47.5 18q32 0 52.5 -21.5t20.5 -58.5q0 -95 -125 -202z" />
    <glyph glyph-name="quotesinglbase" unicode="&#x201a;" horiz-adv-x="224" 
d="M24 -149l-39 34q55 55 55 94q0 17 -15.5 42t-15.5 47q0 27 19.5 45.5t47.5 18.5q32 0 52.5 -21.5t20.5 -57.5q0 -52 -38 -107t-87 -95z" />
    <glyph glyph-name="quotedblleft" unicode="&#x201c;" horiz-adv-x="415" 
d="M158 405q-31 0 -52 22t-21 58q0 95 125 202l38 -35q-54 -54 -54 -93q0 -18 15.5 -42t15.5 -47q0 -28 -19.5 -46.5t-47.5 -18.5zM350 405q-31 0 -52 22t-21 58q0 95 125 202l38 -35q-54 -54 -54 -93q0 -18 15.5 -42t15.5 -47q0 -28 -19.5 -46.5t-47.5 -18.5z" />
    <glyph glyph-name="quotedblright" unicode="&#x201d;" horiz-adv-x="415" 
d="M123 396l-38 35q54 54 54 94q0 17 -15.5 41t-15.5 47q0 29 19.5 47t47.5 18q32 0 52.5 -21.5t20.5 -58.5q0 -95 -125 -202zM315 396l-38 35q54 54 54 94q0 17 -15.5 41t-15.5 47q0 29 19.5 47t47.5 18q32 0 52.5 -21.5t20.5 -58.5q0 -95 -125 -202z" />
    <glyph glyph-name="quotedblbase" unicode="&#x201e;" horiz-adv-x="416" 
d="M24 -149l-39 34q55 55 55 94q0 17 -15.5 42t-15.5 47q0 27 19.5 45.5t47.5 18.5q32 0 52.5 -21.5t20.5 -57.5q0 -52 -38 -107t-87 -95zM216 -149l-39 34q55 55 55 94q0 17 -15.5 42t-15.5 47q0 27 19.5 45.5t47.5 18.5q32 0 52.5 -21.5t20.5 -57.5q0 -52 -38 -107
t-87 -95z" />
    <glyph glyph-name="bullet" unicode="&#x2022;" horiz-adv-x="422" 
d="M214 134q-62 0 -106 44.5t-44 107.5q0 64 44 109t106 45q63 0 107 -45t44 -109q0 -63 -44 -107.5t-107 -44.5z" />
    <glyph glyph-name="ellipsis" unicode="&#x2026;" horiz-adv-x="694" 
d="M100 -10q-32 0 -54 21.5t-22 52.5q0 30 22 51.5t54 21.5q30 0 52 -21.5t22 -51.5q0 -31 -22 -52.5t-52 -21.5zM321 -10q-32 0 -54 21.5t-22 52.5q0 30 22 51.5t54 21.5q30 0 52 -21.5t22 -51.5q0 -31 -22 -52.5t-52 -21.5zM541 -10q-32 0 -54 21.5t-22 52.5q0 30 22 51.5
t54 21.5q30 0 52 -21.5t22 -51.5q0 -31 -22 -52.5t-52 -21.5z" />
    <glyph glyph-name="guilsinglleft" unicode="&#x2039;" horiz-adv-x="293" 
d="M119 54l-91 190l158 193h113l-162 -198l87 -185h-105z" />
    <glyph glyph-name="guilsinglright" unicode="&#x203a;" horiz-adv-x="293" 
d="M-3 54l160 197l-87 186h105l91 -191l-156 -192h-113z" />
    <glyph glyph-name="Euro" unicode="&#x20ac;" horiz-adv-x="570" 
d="M334 -12q-109 0 -168.5 64t-68.5 168h-75l12 71h62q1 26 9 74h-58l12 70h65q38 111 122.5 177t196.5 66q104 0 161 -42l-55 -80q-49 32 -115 32q-67 0 -116 -40.5t-76 -112.5h174l-12 -70h-185q-8 -47 -9 -74h181l-13 -71h-166q14 -141 139 -141q58 0 125 42l34 -82
q-72 -51 -176 -51z" />
    <glyph glyph-name="trademark" unicode="&#x2122;" horiz-adv-x="769" 
d="M331 372l7 44q7 3 39 5l58 196q-25 0 -37 5l7 44h117l32 -157q2 -11 4.5 -31t3.5 -27h2q23 50 29 59l86 156h119l-8 -44q-12 -5 -39 -5l-9 -196q27 -2 34 -5l-7 -44h-131l7 44q3 0 12.5 1.5t14.5 1.5l8 98q2 44 5 58h-2q-12 -36 -29 -66l-77 -137h-60l-26 133
q-5 30 -8 70h-2q-1 -4 -6 -24.5t-9 -34.5l-27 -97q6 0 15.5 -1.5t12.5 -1.5l-7 -44h-129zM103 372l8 44q12 4 50 6l32 186h-43q-5 -23 -15 -51h-49l19 109h267l-19 -109h-50q0 32 3 51h-43l-32 -186q34 -2 47 -6l-8 -44h-167z" />
    <glyph glyph-name="Omega" unicode="&#x2126;" horiz-adv-x="747" 
d="M7 0l17 90h128q-91 79 -91 202q0 164 109.5 275t257.5 111q120 0 201.5 -75t81.5 -193q0 -101 -48 -185.5t-128 -134.5h139l-17 -90h-267l15 86q84 41 138.5 122.5t54.5 186.5q0 80 -49.5 135.5t-129.5 55.5q-108 0 -177 -89t-69 -209q0 -125 97 -202l-15 -86h-248z" />
    <glyph glyph-name="increment" unicode="&#x2206;" horiz-adv-x="631" 
d="M-6 0l11 63l324 603h105l127 -603l-12 -63h-555zM133 94h310l-66 332q-4 20 -7.5 44t-6 45t-3.5 27h-2q-25 -62 -53 -116z" />
    <glyph glyph-name="f.sc" unicode="&#xa730;" horiz-adv-x="487" 
d="M-12 0l12 69q34 9 77 9l68 362q-45 0 -74 9l12 69h425l-26 -148h-78q-2 22 5 72h-159l-29 -156h88q7 31 16 52h69l-33 -175h-68q-1 17 3 51h-88l-25 -136q38 0 74 -9l-11 -69h-258z" />
    <glyph glyph-name="zero.osf" unicode="&#xeb00;" horiz-adv-x="545" 
d="M237 -12q-93 0 -145.5 62t-52.5 149q0 122 80 210t196 88q96 0 146 -60.5t50 -148.5q0 -126 -77 -213t-197 -87zM248 70q71 0 114.5 64t43.5 152q0 57 -24 93t-77 36q-68 0 -113 -62.5t-45 -148.5q0 -63 26.5 -98.5t74.5 -35.5z" />
    <glyph glyph-name="one.osf" unicode="&#xeb01;" horiz-adv-x="414" 
d="M21 0l12 69q30 7 122 9l57 314l-119 -36l-19 80l180 48h78l-75 -406q74 0 115 -9l-12 -69h-339z" />
    <glyph glyph-name="two.osf" unicode="&#xeb02;" horiz-adv-x="485" 
d="M-3 0l7 53q83 54 126 84t93 71t71 74.5t21 67.5q0 29 -19.5 45.5t-56.5 16.5q-61 0 -122 -46l-43 67q83 64 182 64q81 0 125.5 -34t44.5 -97q0 -36 -18 -72.5t-41.5 -63.5t-64 -59t-65.5 -49t-67 -43q20 3 65 3h183l-14 -82h-407z" />
    <glyph glyph-name="three.osf" unicode="&#xeb03;" horiz-adv-x="452" 
d="M74 -188q-61 0 -100 13l23 80q33 -9 81 -9q81 0 131.5 37.5t50.5 103.5q0 103 -162 103l12 73q71 0 128.5 36t57.5 95q0 31 -20 49.5t-60 18.5q-59 0 -114 -39l-44 66q77 58 180 58q80 0 124.5 -39t44.5 -96q0 -66 -50 -112.5t-116 -64.5v-1q56 -11 94 -48.5t38 -95.5
q0 -104 -85 -166t-214 -62z" />
    <glyph glyph-name="four.osf" unicode="&#xeb04;" horiz-adv-x="557" 
d="M255 -177l33 177h-302l9 63l393 421h92l-75 -403h105l-14 -81h-105l-32 -177h-104zM116 81h186l51 258h-2z" />
    <glyph glyph-name="five.osf" unicode="&#xeb05;" horiz-adv-x="446" 
d="M80 -188q-52 0 -101 13l24 80q30 -11 82 -11q80 0 130 40t50 111q0 128 -190 128h-10l61 311h311l-14 -81h-213l-31 -154q87 -6 144 -59.5t57 -134.5q0 -115 -84 -179t-216 -64z" />
    <glyph glyph-name="six.osf" unicode="&#xeb06;" horiz-adv-x="538" 
d="M255 -12q-97 0 -150.5 65.5t-53.5 177.5q0 87 32.5 167t91.5 142.5t150.5 100t200.5 37.5l10 -83q-149 0 -251 -78q-80 -65 -110 -168q65 53 144 53q81 0 130 -46t49 -124q0 -106 -70.5 -175t-172.5 -69zM261 68q57 0 94 45.5t37 110.5q0 46 -25.5 71.5t-74.5 25.5
q-75 0 -132 -51q-3 -45 -3 -48q0 -73 27 -113.5t77 -40.5z" />
    <glyph glyph-name="seven.osf" unicode="&#xeb07;" horiz-adv-x="506" 
d="M123 -197l-83 46l350 552h-234q-13 -76 -27 -103h-80l33 186h433l-10 -63z" />
    <glyph glyph-name="eight.osf" unicode="&#xeb08;" horiz-adv-x="516" 
d="M219 -12q-92 0 -142.5 45t-50.5 111q0 69 43.5 116.5t123.5 84.5q-92 69 -92 148q0 82 63.5 133.5t153.5 51.5q86 0 135 -41.5t49 -104.5q0 -57 -38.5 -100t-114.5 -80q111 -72 111 -161q0 -91 -71 -147t-170 -56zM225 68q52 0 88.5 32.5t36.5 81.5q0 60 -95 120
q-60 -29 -91.5 -64t-31.5 -83q0 -39 25.5 -63t67.5 -24zM311 600q-43 0 -72.5 -26.5t-29.5 -70.5q0 -56 77 -109q109 55 109 128q0 33 -22 55.5t-62 22.5z" />
    <glyph glyph-name="nine.osf" unicode="&#xeb09;" horiz-adv-x="523" 
d="M7 -184l-9 81q143 0 240 71q84 58 116 161q-61 -45 -132 -45q-82 0 -129.5 48t-47.5 125q0 106 72.5 173t170.5 67t147 -60t49 -158q0 -208 -130.5 -335.5t-346.5 -127.5zM249 162q63 0 122 45q7 32 7 74q0 137 -97 137q-53 0 -91 -42t-38 -109q0 -48 25 -76.5t72 -28.5z
" />
    <glyph glyph-name="zero.lf" unicode="&#xeb0a;" horiz-adv-x="594" 
d="M261 -12q-110 0 -161 73t-51 189q0 75 19.5 148.5t57 137t99.5 103t139 39.5q110 0 162 -72t52 -184q0 -109 -34 -205.5t-108 -162.5t-175 -66zM271 75q59 0 105 52.5t68 131.5t22 167q0 165 -112 165q-60 0 -106 -54.5t-67.5 -131.5t-21.5 -158q0 -172 112 -172z" />
    <glyph glyph-name="one.lf" unicode="&#xeb0b;" horiz-adv-x="425" 
d="M5 0l13 76q64 10 131 10l84 484l-122 -38l-23 83l183 51h83l-100 -580q20 0 32 -1l37 -2q35 -1 63 -7l-13 -76h-368z" />
    <glyph glyph-name="two.lf" unicode="&#xeb0c;" horiz-adv-x="518" 
d="M-9 0l10 59q96 78 151 126.5t111.5 108t81.5 110t25 100.5q0 41 -24.5 63t-64.5 22q-69 0 -143 -58l-51 67q93 80 212 80q91 0 139.5 -43t48.5 -116q0 -57 -27 -114t-81 -115t-103.5 -101.5t-125.5 -102.5q36 3 76 3h151q16 63 23 83h84l-30 -172h-463z" />
    <glyph glyph-name="three.lf" unicode="&#xeb0d;" horiz-adv-x="468" 
d="M106 -12q-70 0 -103 12l26 87q30 -11 84 -11q89 0 138 35t49 102q0 54 -45.5 79t-127.5 21l11 75q93 8 145.5 42.5t52.5 92.5q0 31 -21 48t-62 17q-72 0 -128 -36l-38 69q75 57 190 57q86 0 129 -37t43 -97q0 -68 -48.5 -113.5t-119.5 -65.5v-1q55 -9 94 -48.5t39 -96.5
q0 -109 -84 -170t-224 -61z" />
    <glyph glyph-name="four.lf" unicode="&#xeb0e;" horiz-adv-x="549" 
d="M289 0l25 144h-302l12 77l381 445h102l-76 -435h95l-15 -87h-95l-24 -144h-103zM376 518l-243 -290q17 3 77 3h119l49 287h-2z" />
    <glyph glyph-name="five.lf" unicode="&#xeb0f;" horiz-adv-x="449" 
d="M92 -12q-55 0 -92 10l24 88q30 -10 77 -10q93 0 144.5 40.5t51.5 115.5q0 108 -156 108q-46 0 -63 -4l64 330h313l-15 -89h-216l-30 -151q98 -4 157 -52t59 -129q0 -123 -84.5 -190t-233.5 -67z" />
    <glyph glyph-name="six.lf" unicode="&#xeb10;" horiz-adv-x="529" 
d="M251 -12q-71 0 -119.5 34t-68.5 84.5t-20 112.5q0 198 134 328.5t331 130.5l13 -86q-163 0 -265 -102q-59 -62 -83 -136q57 55 142 55q83 0 130.5 -46.5t47.5 -126.5q0 -106 -68.5 -177t-173.5 -71zM256 72q60 0 93.5 46.5t33.5 110.5q0 47 -24.5 72t-69.5 25
q-76 0 -134 -52q-3 -30 -3 -62q0 -140 104 -140z" />
    <glyph glyph-name="seven.lf" unicode="&#xeb11;" horiz-adv-x="476" 
d="M164 -29l-88 39l302 565h-209q-2 -12 -6 -25l-7 -28q-6 -28 -12 -42h-78l33 186h412l-10 -65z" />
    <glyph glyph-name="eight.lf" unicode="&#xeb12;" horiz-adv-x="500" 
d="M216 -12q-93 0 -144.5 43.5t-51.5 110.5q0 124 164 203q-86 66 -86 148q0 81 64 133t154 52q87 0 134.5 -38.5t47.5 -105.5q0 -103 -152 -182q107 -66 107 -161q0 -87 -63.5 -145t-173.5 -58zM223 72q53 0 86 30.5t33 77.5q0 34 -23 61.5t-72 58.5q-59 -32 -88.5 -65.5
t-29.5 -81.5q0 -37 24 -59t70 -22zM309 595q-44 0 -73 -27t-29 -69q0 -31 17.5 -54t55.5 -48q110 56 110 127t-81 71z" />
    <glyph glyph-name="nine.lf" unicode="&#xeb13;" horiz-adv-x="528" 
d="M54 -18l-14 86q122 0 207 53q105 67 142 191q-60 -55 -145 -55q-81 0 -130 47.5t-49 126.5q0 105 74 176t174 71q104 0 153.5 -65.5t49.5 -161.5q0 -207 -123 -338t-339 -131zM272 340q73 0 134 52q3 30 3 64q0 65 -26.5 101.5t-77.5 36.5q-57 0 -93 -47.5t-36 -108.5
q0 -98 96 -98z" />
    <glyph glyph-name="zero.tosf" unicode="&#xeb14;" 
d="M231 -12q-93 0 -144.5 62t-51.5 149q0 122 78.5 210t195.5 88q96 0 147 -60.5t51 -148.5q0 -126 -77.5 -213t-198.5 -87zM241 70q71 0 115 64.5t44 152.5q0 57 -23.5 92.5t-76.5 35.5q-67 0 -113 -63.5t-46 -148.5q0 -133 100 -133z" />
    <glyph glyph-name="one.tosf" unicode="&#xeb15;" 
d="M49 0l13 72q59 9 150 9l56 307l-142 -41l-20 84l204 53h80l-73 -403q96 0 148 -9l-13 -72h-403z" />
    <glyph glyph-name="two.tosf" unicode="&#xeb16;" 
d="M15 0l8 49q178 116 224 152q109 85 109 149q0 60 -74 60q-80 0 -146 -49l-45 65q89 71 209 71q81 0 124.5 -34t43.5 -97q0 -35 -20.5 -71.5t-45.5 -63t-69.5 -60t-69.5 -49.5t-69 -42q27 3 77 3h189l-14 -83h-431z" />
    <glyph glyph-name="three.tosf" unicode="&#xeb17;" 
d="M110 -188q-70 0 -118 16l25 81q28 -13 97 -13q85 0 141.5 36t56.5 103q0 55 -54.5 80t-131.5 25l12 75q77 0 144 35.5t67 94.5q0 28 -22.5 46.5t-61.5 18.5q-77 0 -146 -52l-47 65q34 30 91.5 52t123.5 22q81 0 126.5 -38.5t45.5 -96.5q0 -68 -55.5 -114.5t-122.5 -62.5
v-1q55 -6 100 -47.5t45 -97.5q0 -106 -91 -166.5t-225 -60.5z" />
    <glyph glyph-name="four.tosf" unicode="&#xeb18;" 
d="M239 -177l33 177h-297l10 67l382 417h98l-74 -403h90l-14 -81h-91l-32 -177h-105zM102 81h185l51 265h-2z" />
    <glyph glyph-name="five.tosf" unicode="&#xeb19;" 
d="M113 -188q-69 0 -103 15l26 81q36 -12 81 -12q82 0 139 40t57 109q0 36 -18 62.5t-48 40t-62.5 20t-69.5 6.5q-6 0 -14 -0.5t-9 -0.5l60 311h325l-14 -81h-226l-32 -154q93 -4 158 -57.5t65 -136.5q0 -115 -91 -179t-224 -64z" />
    <glyph glyph-name="six.tosf" unicode="&#xeb1a;" 
d="M252 -12q-98 0 -150.5 65t-52.5 178q0 87 32.5 167t91 142.5t149.5 100t200 37.5l10 -83q-148 0 -250 -78q-79 -62 -109 -168q63 52 142 52q81 0 129 -45.5t48 -123.5q0 -107 -69 -175.5t-171 -68.5zM258 69q57 0 92.5 44.5t35.5 110.5q0 46 -25 71t-73 25
q-74 0 -130 -50q-3 -45 -3 -48q0 -73 26.5 -113t76.5 -40z" />
    <glyph glyph-name="seven.tosf" unicode="&#xeb1b;" 
d="M100 -197l-82 46l384 550h-233q-10 -50 -21 -83l-6 -18h-80l33 186h444l-10 -63z" />
    <glyph glyph-name="eight.tosf" unicode="&#xeb1c;" 
d="M239 -12q-94 0 -148 44t-54 110q0 119 172 203q-94 72 -94 148q0 81 67.5 133t157.5 52q87 0 137.5 -39t50.5 -105q0 -58 -43 -101t-117 -81q115 -74 115 -161q0 -86 -67 -144.5t-177 -58.5zM246 70q54 0 90 32t36 78q0 33 -25 60t-77 60q-61 -33 -92.5 -66.5
t-31.5 -80.5q0 -36 26.5 -59.5t73.5 -23.5zM332 597q-45 0 -76.5 -28t-31.5 -70q0 -30 20 -52.5t60 -49.5q57 29 86.5 59t29.5 68q0 32 -22.5 52.5t-65.5 20.5z" />
    <glyph glyph-name="nine.tosf" unicode="&#xeb1d;" 
d="M9 -184l-10 81q144 0 241 71q82 58 114 161q-61 -45 -130 -45q-83 0 -129.5 48t-46.5 125q0 106 71.5 173t169.5 67t146.5 -60t48.5 -158q0 -208 -129.5 -335.5t-345.5 -127.5zM250 163q63 0 121 44q7 32 7 74q0 136 -97 136q-52 0 -89.5 -41.5t-37.5 -108.5
q0 -48 24.5 -76t71.5 -28z" />
    <glyph glyph-name="numbersign.lf" unicode="&#xeb1e;" horiz-adv-x="558" 
d="M74 0l56 200h-115l25 80h114l32 117h-114l24 80h114l53 189h74l-53 -189h107l53 189h74l-53 -189h108l-25 -80h-107l-32 -117h109l-25 -80h-108l-57 -200h-74l57 200h-107l-56 -200h-74zM226 278h110l33 121h-109z" />
    <glyph glyph-name="dollar.lf" unicode="&#xeb1f;" horiz-adv-x="502" 
d="M142 -120l19 110q-106 10 -156 56l27 151h85q0 -30 -11 -100q43 -24 105 -24q58 0 94 29.5t36 77.5q0 69 -97 115l-51 25q-100 52 -100 162q0 80 51 131t139 62l19 111h83l-21 -110q96 -10 141 -41l-28 -158h-85q0 34 11 104q-39 13 -80 13q-55 0 -87.5 -25.5
t-32.5 -69.5q0 -39 25 -64t75 -50q71 -36 96 -58q53 -48 53 -128q0 -87 -55 -142.5t-153 -66.5l-19 -110h-83z" />
    <glyph glyph-name="percent.lf" unicode="&#xeb20;" horiz-adv-x="839" 
d="M236 406q45 0 74 36t29 87q0 36 -19 57t-54 21q-46 0 -74.5 -35.5t-28.5 -86.5q0 -35 19 -57t54 -22zM229 336q-73 0 -114.5 43.5t-41.5 101.5q0 79 55 137.5t144 58.5q73 0 114.5 -42.5t41.5 -101.5q0 -79 -55 -138t-144 -59zM129 0l520 666h90l-520 -666h-90zM605 62
q45 0 74 36t29 86q0 36 -19 57t-54 21q-46 0 -74.5 -35.5t-28.5 -85.5q0 -36 18.5 -57.5t54.5 -21.5zM598 -9q-73 0 -114.5 43.5t-41.5 101.5q0 79 55 137.5t144 58.5q73 0 114.5 -42t41.5 -101q0 -79 -55 -138.5t-144 -59.5z" />
    <glyph glyph-name="numbersign.osf" unicode="&#xeb21;" horiz-adv-x="514" 
d="M81 96l40 134h-85l22 79h86l30 96h-91l21 79h93l38 126h76l-38 -126h88l38 126h76l-38 -126h83l-22 -79h-84l-29 -96h90l-23 -79h-91l-40 -134h-76l40 134h-88l-40 -134h-76zM218 307h91l31 99h-91z" />
    <glyph glyph-name="dollar.osf" unicode="&#xeb22;" horiz-adv-x="453" 
d="M111 -126l20 117q-88 10 -124 37l23 126h77q0 -34 -6 -75q37 -14 87 -14q46 0 73 17.5t27 50.5q0 18 -13.5 33t-29 23t-44.5 20q-29 11 -47.5 20.5t-41 26.5t-33.5 40.5t-11 54.5q0 60 43 98t119 46l19 104h85l-20 -105q79 -8 117 -32l-23 -128h-77q-3 29 6 75
q-23 10 -66 10t-70 -16t-27 -44q0 -26 21 -41.5t63 -32.5q30 -12 48 -21t41.5 -26t35 -41.5t11.5 -55.5q0 -66 -46.5 -105.5t-131.5 -46.5l-20 -115h-85z" />
    <glyph glyph-name="percent.osf" unicode="&#xeb23;" horiz-adv-x="788" 
d="M173 199q-62 0 -98 36.5t-36 90.5q0 69 48 119.5t124 50.5q66 0 100.5 -34.5t34.5 -90.5q0 -70 -49 -121t-124 -51zM180 261q35 0 56 30t21 75q0 68 -52 68q-35 0 -56 -28.5t-21 -74.5q0 -70 52 -70zM573 -12q-62 0 -97.5 36.5t-35.5 90.5q0 69 48 119.5t124 50.5
q65 0 99.5 -34.5t34.5 -90.5q0 -70 -48.5 -121t-124.5 -51zM581 50q35 0 56 30t21 76q0 67 -53 67q-35 0 -56 -28.5t-21 -73.5q0 -71 53 -71zM165 0l371 484h87l-371 -484h-87z" />
    <glyph glyph-name="fi" unicode="&#xfb01;" horiz-adv-x="550" 
d="M-56 -230q-45 0 -85 17l29 79q30 -13 61 -13q69 0 89 109l81 442h-81l14 80h81l11 57q18 99 73.5 144.5t151.5 45.5q86 0 145 -37l-44 -80q-53 30 -106 30q-52 0 -79.5 -24t-38.5 -83l-10 -53h274l-18 -73l-61 -333q43 -2 75 -9l-13 -69h-179l73 404h-165l-79 -436
q-19 -104 -62.5 -151t-136.5 -47z" />
    <glyph glyph-name="fl" unicode="&#xfb02;" horiz-adv-x="563" 
d="M-56 -230q-45 0 -85 17l29 79q30 -13 61 -13q69 0 89 109l81 442h-81l14 80h81l11 57q18 99 74 144.5t152 45.5q60 0 101 -10l95 3l-19 -79l-102 -567q45 -2 74 -9l-12 -69h-179l114 635q-36 9 -78 9q-52 0 -79.5 -24t-38.5 -83l-10 -53h107l-14 -80h-107l-79 -436
q-19 -104 -62.5 -151t-136.5 -47z" />
    <glyph glyph-name="uniFEFF" unicode="&#xfeff;" horiz-adv-x="0" 
 />
    <glyph glyph-name="NULL" horiz-adv-x="0" 
 />
    <glyph glyph-name="CR" horiz-adv-x="220" 
 />
    <glyph glyph-name="uni2007.osf" horiz-adv-x="545" 
 />
    <glyph glyph-name="uni030C.alt001" horiz-adv-x="1" 
d="M-304 549l65 171h114l-103 -171h-76z" />
    <glyph glyph-name="slash.case" horiz-adv-x="424" 
d="M-55 -109l468 881h95l-467 -881h-96z" />
    <glyph glyph-name="f_f" horiz-adv-x="615" 
d="M-56 -230q-45 0 -85 17l29 79q30 -13 61 -13q69 0 89 107l81 444h-82l14 80h82l9 47q19 100 69.5 146.5t142.5 46.5q86 0 143 -41q50 48 136 48q72 0 122 -31l-43 -79q-33 23 -80 23q-42 0 -63 -24.5t-30 -72.5l-12 -63h113l-13 -80h-115l-79 -431q-19 -104 -62.5 -151
t-135.5 -47q-42 0 -78 17l29 78q26 -12 54 -12q68 0 88 107l81 439h-187l-79 -436q-19 -104 -62.5 -151t-136.5 -47zM236 484h187l13 65q6 37 15 58q-37 30 -98 30q-48 0 -72 -24.5t-36 -83.5z" />
    <glyph glyph-name="f_f_i" horiz-adv-x="841" 
d="M-56 -230q-45 0 -85 17l29 79q30 -13 61 -13q69 0 89 107l81 444h-82l14 80h82l10 48q21 101 71 146.5t141 45.5q89 0 148 -44q57 51 158 51q80 0 144 -37l-44 -79q-44 30 -106 30q-52 0 -79.5 -24.5t-38.5 -83.5l-10 -53h274l-18 -73l-61 -333q43 -2 75 -9l-13 -69h-179
l73 404h-166l-79 -431q-19 -104 -62.5 -151t-135.5 -47q-44 0 -78 16l29 79q22 -12 53 -12q69 0 89 107l81 439h-187l-79 -436q-19 -104 -62.5 -151t-136.5 -47zM236 484h187l11 57q6 32 19 67q-42 29 -98 29q-49 0 -73.5 -25t-36.5 -84z" />
    <glyph glyph-name="f_f_l" horiz-adv-x="854" 
d="M-56 -230q-45 0 -85 17l29 79q30 -13 61 -13q69 0 89 107l81 444h-82l14 80h82l10 48q21 101 71 146.5t141 45.5q85 0 148 -43q56 50 158 50q60 0 101 -10l95 3l-19 -79l-102 -567q45 -2 74 -9l-12 -69h-179l114 635q-36 9 -78 9q-52 0 -79.5 -24t-38.5 -83l-10 -53h107
l-15 -80h-107l-79 -431q-19 -104 -62.5 -151t-135.5 -47q-42 0 -78 17l29 78q26 -12 54 -12q68 0 88 107l81 439h-187l-79 -436q-19 -104 -62.5 -151t-136.5 -47zM236 484h187l11 57q6 33 19 67q-42 29 -98 29q-49 0 -73.5 -25t-36.5 -84z" />
    <glyph glyph-name="f_i" horiz-adv-x="550" 
d="M-56 -230q-45 0 -85 17l29 79q30 -13 61 -13q69 0 89 109l81 442h-81l14 80h81l11 57q18 99 73.5 144.5t151.5 45.5q86 0 145 -37l-44 -80q-53 30 -106 30q-52 0 -79.5 -24t-38.5 -83l-10 -53h274l-18 -73l-61 -333q43 -2 75 -9l-13 -69h-179l73 404h-165l-79 -436
q-19 -104 -62.5 -151t-136.5 -47z" />
    <glyph glyph-name="f_l" horiz-adv-x="563" 
d="M-56 -230q-45 0 -85 17l29 79q30 -13 61 -13q69 0 89 109l81 442h-81l14 80h81l11 57q18 99 74 144.5t152 45.5q60 0 101 -10l95 3l-19 -79l-102 -567q45 -2 74 -9l-12 -69h-179l114 635q-36 9 -78 9q-52 0 -79.5 -24t-38.5 -83l-10 -53h107l-14 -80h-107l-79 -436
q-19 -104 -62.5 -151t-136.5 -47z" />
    <glyph glyph-name="uni2007.tosf" 
 />
    </font>
</defs>
</svg>
