<?xml version="1.0" standalone="no"?>
<!DOCTYPE svg PUBLIC "-//W3C//DTD SVG 1.1//EN" "http://www.w3.org/Graphics/SVG/1.1/DTD/svg11.dtd" >
<svg>
<metadata>
Created by FontForge 20120731 at Fri Jan 15 01:18:29 2016
 By ,,,
Copyright (c) 2013 by FontFont. All rights reserved.
</metadata>
<defs>
<font id="FFKievitSlab-BoldItalic" horiz-adv-x="556" >
  <font-face 
    font-family="FF Kievit Slab"
    font-weight="700"
    font-style="italic"
    font-stretch="normal"
    units-per-em="1000"
    panose-1="2 0 8 3 4 0 0 2 0 4"
    ascent="760"
    descent="-240"
    x-height="487"
    cap-height="666"
    bbox="-283 -250 1015 933"
    underline-thickness="60"
    underline-position="-75"
    slope="-10"
    unicode-range="U+0020-FEFF"
  />
<missing-glyph horiz-adv-x="574" 
d="M35 0v666h504v-666h-504zM138 103h298v460h-298v-460z" />
    <glyph glyph-name=".notdef" horiz-adv-x="574" 
d="M35 0v666h504v-666h-504zM138 103h298v460h-298v-460z" />
    <glyph glyph-name=".null" horiz-adv-x="0" 
 />
    <glyph glyph-name="nonmarkingreturn" horiz-adv-x="333" 
 />
    <glyph glyph-name="space" unicode=" " horiz-adv-x="220" 
 />
    <glyph glyph-name="exclam" unicode="!" horiz-adv-x="292" 
d="M117 -9q-36 0 -60 24t-24 58q0 33 24 56.5t60 23.5t60 -23.5t24 -56.5q0 -34 -24 -58t-60 -24zM87 225l54 441h153l-106 -441h-101z" />
    <glyph glyph-name="quotedbl" unicode="&#x22;" horiz-adv-x="396" 
d="M101 422l20 244h133l-68 -244h-85zM271 422l20 244h133l-68 -244h-85z" />
    <glyph glyph-name="numbersign" unicode="#" horiz-adv-x="561" 
d="M60 0l55 186h-107l32 99h105l30 103h-105l31 98h104l53 180h89l-52 -180h96l53 180h89l-53 -180h99l-32 -98h-97l-30 -103h99l-32 -99h-97l-55 -186h-89l54 186h-96l-55 -186h-89zM231 282h102l31 109h-101z" />
    <glyph glyph-name="dollar" unicode="$" horiz-adv-x="524" 
d="M139 -121l20 112q-103 9 -154 53l28 157h103q-3 -47 -10 -88q45 -20 100 -20q49 0 80 23.5t31 66.5q0 61 -87 100q-2 1 -20.5 9.5t-23 10.5t-21.5 11t-22.5 14t-19 15.5t-18.5 19t-14.5 22t-13 27t-6.5 31t-3 36.5q0 81 52 132t139 63l20 113h103l-21 -112
q101 -10 147 -42l-29 -163h-103q3 50 10 94q-36 11 -75 11q-51 0 -79.5 -21t-28.5 -58q0 -34 22 -56t72 -45q74 -35 100 -58q59 -50 59 -135q0 -88 -56.5 -144t-157.5 -67l-20 -112h-103z" />
    <glyph glyph-name="percent" unicode="%" horiz-adv-x="865" 
d="M241 414q38 0 62.5 34t24.5 80q0 30 -15 48t-43 18q-40 0 -63.5 -33t-23.5 -79q0 -31 14.5 -49.5t43.5 -18.5zM234 331q-76 0 -118.5 43.5t-42.5 104.5q0 80 56.5 139t147.5 59q76 0 118.5 -41.5t42.5 -103.5q0 -81 -56.5 -141t-147.5 -60zM137 0l513 666h106l-512 -666
h-107zM626 73q38 0 62.5 34.5t24.5 80.5q0 65 -58 65q-40 0 -63.5 -33t-23.5 -79q0 -31 14.5 -49.5t43.5 -18.5zM618 -10q-76 0 -118 43.5t-42 104.5q0 81 56.5 140t147.5 59q75 0 118 -42.5t43 -102.5q0 -81 -57.5 -141.5t-147.5 -60.5z" />
    <glyph glyph-name="ampersand" unicode="&#x26;" horiz-adv-x="727" 
d="M569 -92q-54 0 -96.5 25t-91.5 83q-69 -28 -149 -28q-99 0 -150 50.5t-51 138.5q0 137 82.5 230t198.5 93q67 0 105 -31.5t38 -88.5q0 -86 -112 -135l79 -99q32 21 60 48q107 102 107 237q0 78 -49.5 120.5t-159.5 57.5l20 108q155 -15 233.5 -85.5t78.5 -193.5
q0 -90 -48 -179.5t-130 -153.5l-25 -21l-26 -20q29 -35 49.5 -48t47.5 -13q34 0 61 17l32 -86q-47 -26 -104 -26zM252 90q39 0 69 13l-101 126l19 57q44 9 70.5 30.5t26.5 48.5q0 38 -47 38q-53 0 -92 -65.5t-39 -150.5q0 -97 94 -97z" />
    <glyph glyph-name="quotesingle" unicode="'" horiz-adv-x="221" 
d="M98 422l20 244h133l-68 -244h-85z" />
    <glyph glyph-name="parenleft" unicode="(" horiz-adv-x="341" 
d="M263 -168h-119q-112 151 -112 343q0 81 19.5 159.5t47.5 135t66.5 110t67.5 83.5t59 57h127q-30 -28 -58.5 -60.5t-64.5 -86t-62.5 -110.5t-44.5 -133t-18 -154q0 -199 92 -344z" />
    <glyph glyph-name="parenright" unicode=")" horiz-adv-x="343" 
d="M61 -168h-131q253 253 253 558q0 192 -95 330h121q42 -47 77.5 -132.5t35.5 -196.5q0 -312 -261 -559z" />
    <glyph glyph-name="asterisk" unicode="*" horiz-adv-x="469" 
d="M170 286l-81 63l108 104l-123 33l47 94l114 -45l13 131h111l-30 -131l125 47l23 -101l-139 -31l74 -109l-94 -55l-55 118z" />
    <glyph glyph-name="plus" unicode="+" horiz-adv-x="555" 
d="M182 34l31 177h-167l18 102h168l29 172h112l-30 -172h167l-19 -102h-167l-31 -177h-111z" />
    <glyph glyph-name="comma" unicode="," horiz-adv-x="282" 
d="M112 159q38 0 62 -26.5t24 -69.5q0 -111 -137 -228l-52 46q19 19 29 31t18.5 29.5t8.5 34.5q0 20 -18 49t-18 55q0 35 23.5 57t59.5 22z" />
    <glyph glyph-name="hyphen" unicode="-" horiz-adv-x="328" 
d="M46 228l19 108h229l-19 -108h-229z" />
    <glyph glyph-name="period" unicode="." horiz-adv-x="282" 
d="M118 -10q-37 0 -62.5 24.5t-25.5 60.5q0 35 25.5 59t62.5 24q35 0 60.5 -24.5t25.5 -58.5q0 -36 -25 -60.5t-61 -24.5z" />
    <glyph glyph-name="slash" unicode="/" horiz-adv-x="441" 
d="M2 0l357 666h119l-357 -666h-119z" />
    <glyph glyph-name="zero" unicode="0" 
d="M242 -12q-101 0 -151 73t-50 187q0 75 19.5 149.5t56 138t96 103t132.5 39.5q101 0 151.5 -72t50.5 -185q0 -81 -20.5 -157.5t-58 -138.5t-96.5 -99.5t-130 -37.5zM254 94q44 0 80 51t55 127t19 157q0 143 -76 143q-45 0 -81.5 -53.5t-54 -128t-17.5 -149.5
q0 -71 19.5 -109t55.5 -38z" />
    <glyph glyph-name="one" unicode="1" 
d="M36 0l16 92q47 10 154 10l77 447l-136 -40l-28 101l213 55h102l-98 -563q106 0 152 -10l-16 -92h-436z" />
    <glyph glyph-name="two" unicode="2" 
d="M-9 0l13 72q67 53 100.5 80t84.5 71t76.5 72.5t53.5 65t39.5 68.5t11.5 64q0 37 -22 57t-58 20q-73 0 -145 -58l-59 82q42 36 102 60t128 24q98 0 148.5 -44.5t50.5 -121.5q0 -43 -19.5 -88.5t-46 -82t-75 -82.5t-86 -77t-98.5 -78q23 3 65 3h134q15 61 21 75h102
l-32 -182h-489z" />
    <glyph glyph-name="three" unicode="3" 
d="M154 -12q-86 0 -144 20l38 105q39 -18 114 -18q80 0 127 30.5t47 88.5q0 88 -182 88l15 91q91 6 146 37t55 81q0 28 -21 43.5t-58 15.5q-69 0 -142 -44l-48 81q93 71 225 71q90 0 138 -37t48 -98q0 -68 -48.5 -112t-120.5 -65v-1q54 -9 94.5 -47t40.5 -96
q0 -109 -86 -171.5t-238 -62.5z" />
    <glyph glyph-name="four" unicode="4" 
d="M274 0l23 135h-303l15 89l386 442h123l-74 -427h82l-17 -104h-83l-23 -135h-129zM358 488l-215 -253q21 4 73 4h100l44 249h-2z" />
    <glyph glyph-name="five" unicode="5" 
d="M147 -12q-77 0 -116 16l31 106q41 -15 95 -15q84 0 132.5 34t48.5 100q0 49 -46 73.5t-116 24.5q-40 0 -66 -6l66 345h353l-18 -107h-234l-25 -129q98 -4 162.5 -53t64.5 -131q0 -125 -88 -191.5t-244 -66.5z" />
    <glyph glyph-name="six" unicode="6" 
d="M260 -12q-111 0 -165.5 67t-54.5 167q0 200 137 328t340 128l16 -108q-148 0 -247 -83q-60 -51 -87 -123q57 50 135 50q82 0 131.5 -46.5t49.5 -128.5q0 -110 -73 -180.5t-182 -70.5zM265 90q53 0 83.5 40t30.5 97q0 41 -22 63.5t-61 22.5q-69 0 -119 -45q-3 -26 -3 -54
q0 -124 91 -124z" />
    <glyph glyph-name="seven" unicode="7" 
d="M172 -29l-106 50l346 534h-203q-12 -56 -22 -82h-98l33 193h461l-11 -73z" />
    <glyph glyph-name="eight" unicode="8" 
d="M244 -12q-100 0 -158.5 44t-58.5 112q0 67 44 113.5t123 84.5q-91 68 -91 144q0 85 71.5 138.5t167.5 53.5q93 0 147.5 -40t54.5 -109q0 -99 -155 -176q112 -72 112 -157q0 -90 -69.5 -149t-187.5 -59zM252 88q48 0 79.5 26.5t31.5 66.5q0 30 -22 53t-70 53
q-54 -29 -82 -58.5t-28 -69.5q0 -31 24.5 -51t66.5 -20zM333 579q-39 0 -66.5 -24t-27.5 -59q0 -43 71 -91q100 55 100 112q0 28 -20.5 45t-56.5 17z" />
    <glyph glyph-name="nine" unicode="9" 
d="M69 -18l-19 108q108 0 193 45q101 54 141 165q-56 -48 -135 -48q-81 0 -131.5 48t-50.5 129q0 110 78 179.5t182 69.5q110 0 163.5 -66.5t53.5 -165.5q0 -203 -126 -333.5t-349 -130.5zM290 353q65 0 117 44q2 18 2 27v28q0 124 -91 124q-50 0 -82 -41t-32 -95
q0 -87 86 -87z" />
    <glyph glyph-name="colon" unicode=":" horiz-adv-x="282" 
d="M118 -10q-37 0 -62.5 24.5t-25.5 60.5q0 35 25.5 59t62.5 24q35 0 60.5 -24.5t25.5 -58.5q0 -36 -25 -60.5t-61 -24.5zM176 324q-37 0 -62.5 24.5t-25.5 60.5q0 35 25.5 59t62.5 24q35 0 60.5 -24.5t25.5 -58.5q0 -36 -25 -60.5t-61 -24.5z" />
    <glyph glyph-name="semicolon" unicode=";" horiz-adv-x="282" 
d="M112 159q38 0 62 -26.5t24 -69.5q0 -111 -137 -228l-52 46q19 19 29 31t18.5 29.5t8.5 34.5q0 20 -18 49t-18 55q0 35 23.5 57t59.5 22zM173 324q-37 0 -62 24.5t-25 60.5q0 35 25 59t62 24q35 0 60.5 -24.5t25.5 -58.5q0 -36 -25 -60.5t-61 -24.5z" />
    <glyph glyph-name="less" unicode="&#x3c;" horiz-adv-x="408" 
d="M255 20l-220 229l283 229l62 -79l-195 -156l145 -152z" />
    <glyph glyph-name="equal" unicode="=" horiz-adv-x="509" 
d="M35 119l18 102h396l-18 -102h-396zM68 306l18 102h396l-18 -102h-396z" />
    <glyph glyph-name="greater" unicode="&#x3e;" horiz-adv-x="408" 
d="M91 20l-62 80l195 157l-145 150l76 70l220 -228z" />
    <glyph glyph-name="question" unicode="?" horiz-adv-x="417" 
d="M220 223h-102q-9 29 -9 52q0 30 15.5 55t31 36.5t49.5 32.5q33 19 50 31.5t30.5 33.5t13.5 47q0 60 -77 60q-34 0 -84 -21l-40 95q63 33 153 33q93 0 141.5 -42t48.5 -105q0 -115 -140 -188q-29 -16 -43 -25t-28 -26t-14 -36q0 -18 4 -33zM144 -9q-38 0 -61.5 23.5
t-23.5 58.5q0 33 24 56.5t61 23.5q35 0 59 -23.5t24 -56.5q0 -34 -23.5 -58t-59.5 -24z" />
    <glyph glyph-name="at" unicode="@" horiz-adv-x="783" 
d="M386 -98q-159 0 -253 94.5t-94 244.5q0 99 47 188t134.5 146t193.5 57q164 0 256.5 -91.5t92.5 -221.5q0 -106 -55.5 -172.5t-145.5 -66.5q-99 0 -107 86h-2q-48 -84 -131 -84q-46 0 -73.5 34.5t-27.5 84.5q0 112 58 189.5t154 77.5q67 0 146 -27l-28 -167l-6 -34
q-3 -17 -3 -31q0 -22 10.5 -36t29.5 -14q37 0 65.5 43.5t28.5 109.5q0 113 -70.5 176t-191.5 63q-113 0 -195.5 -88.5t-82.5 -218.5q0 -123 67 -191.5t193 -68.5q79 0 145 31l31 -79q-79 -34 -186 -34zM362 169q74 0 114 215q-26 7 -44 7q-47 0 -76 -48t-29 -116
q0 -58 35 -58z" />
    <glyph glyph-name="A" unicode="A" horiz-adv-x="703" 
d="M-34 0l15 84q24 7 57 8l327 574h133l106 -574q39 -2 62 -8l-15 -84h-266l14 84q26 6 62 8l-13 85h-231l-46 -85q34 -1 58 -8l-14 -84h-249zM264 267h171l-19 125q-4 21 -9.5 64.5t-8.5 63.5h-2q-44 -89 -63 -125z" />
    <glyph glyph-name="B" unicode="B" horiz-adv-x="615" 
d="M-19 0l15 84q43 9 79 9l85 480q-41 0 -77 9l15 84h302q92 0 146.5 -38t54.5 -114q0 -137 -143 -172v-2q54 -11 87.5 -43t33.5 -87q0 -105 -76.5 -157.5t-207.5 -52.5h-314zM213 100h93q135 0 135 111q0 84 -102 84h-92zM264 388h85q57 0 86 27.5t29 73.5q0 77 -92 77h-77
z" />
    <glyph glyph-name="C" unicode="C" horiz-adv-x="657" 
d="M339 -12q-142 0 -218 79t-76 202q0 170 117.5 289.5t289.5 119.5q133 0 200 -50l-31 -173h-103q0 56 9 107q-35 12 -84 12q-107 0 -178.5 -86t-71.5 -210q0 -84 43 -134.5t124 -50.5q63 0 111 22q12 64 29 113h103l-30 -171q-30 -28 -95 -48.5t-139 -20.5z" />
    <glyph glyph-name="D" unicode="D" horiz-adv-x="706" 
d="M-19 0l15 84q43 9 79 9l85 480q-41 0 -77 9l15 84h275q159 0 242 -70t83 -193q0 -111 -47 -201t-146 -146t-236 -56h-288zM216 104h78q121 0 189 81t68 210q0 167 -189 167h-64z" />
    <glyph glyph-name="E" unicode="E" horiz-adv-x="565" 
d="M-19 0l15 84q43 9 79 9l85 480q-41 0 -77 9l15 84h497l-33 -188h-103q-2 33 6 84h-168l-31 -175h183l-18 -97h-182l-34 -186h176q8 48 23 84h102l-33 -188h-502z" />
    <glyph glyph-name="F" unicode="F" horiz-adv-x="540" 
d="M-19 0l15 84q43 9 79 9l85 480q-41 0 -77 9l15 84h492l-35 -197h-103q0 42 8 93h-163l-35 -194h196l-16 -97h-196l-33 -178q45 0 87 -9l-14 -84h-305z" />
    <glyph glyph-name="G" unicode="G" horiz-adv-x="737" 
d="M367 -12q-156 0 -239 79t-83 205q0 175 120.5 290.5t298.5 115.5q147 0 225 -54l-31 -170h-102q-2 30 8 101q-54 19 -109 19q-115 0 -188.5 -81.5t-73.5 -215.5q0 -88 47.5 -136.5t136.5 -48.5q67 0 115 26l20 113q-50 2 -83 10l15 84h285l-15 -84q-25 -8 -66 -10
l-32 -180q-35 -22 -100 -42.5t-149 -20.5z" />
    <glyph glyph-name="H" unicode="H" horiz-adv-x="783" 
d="M-19 0l15 84q43 9 79 9l85 480q-41 0 -77 9l15 84h292l-16 -84q-36 -9 -75 -9l-31 -176h303l31 176q-38 0 -72 9l15 84h290l-15 -84q-38 -9 -79 -9l-86 -480q43 0 77 -9l-15 -84h-290l15 84q43 9 74 9l36 201h-302l-36 -201q38 0 72 -9l-14 -84h-291z" />
    <glyph glyph-name="I" unicode="I" horiz-adv-x="341" 
d="M-19 0l15 84q43 9 79 9l85 480q-41 0 -77 9l15 84h295l-15 -84q-38 -9 -79 -9l-85 -480q43 0 77 -9l-15 -84h-295z" />
    <glyph glyph-name="J" unicode="J" horiz-adv-x="319" 
d="M-38 -204q-54 0 -94 17l40 105q16 -9 49 -9q40 0 61 23t30 76l100 565q-39 0 -73 9l15 84h288l-15 -84q-38 -9 -75 -9l-103 -575q-36 -202 -223 -202z" />
    <glyph glyph-name="K" unicode="K" horiz-adv-x="686" 
d="M-19 0l15 84q43 9 79 9l85 480q-41 0 -77 9l15 84h280l-15 -84q-28 -7 -64 -8l-41 -231l239 231q-45 6 -50 8l15 84h268l-15 -84q-6 -2 -67 -9l-247 -227l176 -253q49 -2 70 -9l-14 -84h-278l15 84q25 7 49 8l-162 246l-44 -245q37 -1 67 -9l-15 -84h-284z" />
    <glyph glyph-name="L" unicode="L" horiz-adv-x="532" 
d="M-19 0l15 84q43 9 79 9l85 480q-41 0 -77 9l15 84h295l-15 -84q-38 -9 -79 -9l-84 -469h160q19 87 28 103h101l-36 -207h-487z" />
    <glyph glyph-name="M" unicode="M" horiz-adv-x="935" 
d="M-28 0l14 84q6 1 66 9l144 481q-36 0 -70 9l15 83h237l56 -424q11 -86 11 -105h2q2 4 18 42.5t28 62.5l205 424h236l-15 -83q-38 -8 -71 -9l-23 -481q33 -1 66 -9l-15 -84h-271l15 84q6 1 67 9l19 293q5 87 9 100h-2q-21 -51 -37 -83l-195 -403h-138l-52 384q-2 21 -6 47
l-3 29l-2 26h-2l-26 -105l-82 -289q43 -2 66 -8l-14 -84h-250z" />
    <glyph glyph-name="N" unicode="N" horiz-adv-x="753" 
d="M-19 0l15 84q43 9 79 9l85 480q-41 0 -77 9l15 84h210l181 -351q37 -72 52 -116h1q4 46 16 114l46 260q-41 0 -77 9l15 84h270l-15 -84q-34 -9 -76 -9l-102 -573h-113l-192 376l-18 36q-33 66 -35 79h-2q-1 -5 -3.5 -22.5t-6 -43t-6.5 -45.5l-51 -287q43 0 77 -9l-15 -84
h-273z" />
    <glyph glyph-name="O" unicode="O" horiz-adv-x="747" 
d="M342 -12q-138 0 -217.5 83t-79.5 208q0 105 47.5 196t138 147t203.5 56q141 0 217.5 -81t76.5 -207q0 -165 -107.5 -283.5t-278.5 -118.5zM356 92q104 0 165 88t61 208q0 81 -42.5 133.5t-119.5 52.5q-105 0 -166.5 -86.5t-61.5 -206.5q0 -84 44.5 -136.5t119.5 -52.5z
" />
    <glyph glyph-name="P" unicode="P" horiz-adv-x="593" 
d="M-19 0l15 84q43 9 79 9l85 480q-41 0 -77 9l15 84h289q101 0 162 -46.5t61 -131.5q0 -123 -81.5 -187t-220.5 -64h-69l-26 -144q44 0 78 -9l-15 -84h-295zM257 338h66q72 0 108.5 36.5t36.5 98.5q0 93 -105 93h-66z" />
    <glyph glyph-name="Q" unicode="Q" horiz-adv-x="747" 
d="M496 -175q-86 0 -150 41t-116 139q-88 29 -136.5 103.5t-48.5 170.5q0 105 47.5 196t138 147t203.5 56q141 0 217.5 -81t76.5 -207q0 -151 -91.5 -264.5t-240.5 -133.5q38 -66 115 -66q53 0 100 28l36 -89q-67 -40 -151 -40zM356 93q104 0 165 87t61 208q0 81 -43 133
t-120 52q-105 0 -166 -86.5t-61 -205.5q0 -83 44.5 -135.5t119.5 -52.5z" />
    <glyph glyph-name="R" unicode="R" horiz-adv-x="641" 
d="M526 -9q-53 0 -79 17.5t-45 60.5l-57 126q-21 45 -39 63t-47 18h-15l-32 -183q37 -2 67 -9l-15 -84h-283l15 84q43 9 79 9l85 480q-41 0 -77 9l15 84h298q104 0 158.5 -42.5t54.5 -121.5q0 -90 -54.5 -140t-142.5 -63v-2q41 -26 72 -88l36 -75q13 -27 31 -38.5t50 -11.5
h9l-15 -84q-27 -9 -69 -9zM261 369h86q60 0 91 32t31 83q0 82 -97 82h-76z" />
    <glyph glyph-name="S" unicode="S" horiz-adv-x="518" 
d="M215 -12q-73 0 -128.5 16.5t-82.5 39.5l28 157h103q0 -30 -10 -88q45 -20 102 -20q46 0 77.5 24t31.5 64q0 63 -86 101q-74 34 -99 54q-64 51 -64 144q0 90 67.5 144t173.5 54q68 0 122 -14t77 -31l-29 -163h-103q3 50 10 94q-38 11 -76 11q-49 0 -78 -21.5t-29 -55.5
q0 -37 22 -58.5t71 -43.5q28 -13 37.5 -17.5t34 -18.5t35.5 -26.5t26 -32t21 -44.5t6 -55q0 -97 -70 -155.5t-190 -58.5z" />
    <glyph glyph-name="T" unicode="T" horiz-adv-x="648" 
d="M134 0l15 84q43 9 79 9l84 469h-119q-17 -70 -28 -99h-103l37 203h600l-36 -203h-102q0 45 8 99h-118l-84 -469q43 0 77 -9l-15 -84h-295z" />
    <glyph glyph-name="U" unicode="U" horiz-adv-x="727" 
d="M346 -12q-127 0 -190.5 55t-63.5 156q0 31 6 66l54 308q-34 0 -68 9l15 84h281l-15 -84q-38 -9 -74 -9l-54 -303q-16 -88 12.5 -128t106.5 -40q74 0 112.5 39t53.5 124l54 308q-36 0 -72 9l16 84h259l-15 -84q-38 -9 -71 -9l-56 -317q-24 -134 -94 -201t-197 -67z" />
    <glyph glyph-name="V" unicode="V" horiz-adv-x="686" 
d="M247 0l-119 573q-56 6 -66 9l15 84h277l-15 -84q-10 -2 -71 -9l56 -308q3 -19 6.5 -44.5t5.5 -43t3 -21.5h2q10 25 34 76l17 33l157 309q-50 2 -69 8l15 84h262l-15 -84q-8 -2 -63 -9l-312 -573h-120z" />
    <glyph glyph-name="W" unicode="W" horiz-adv-x="944" 
d="M178 0l-52 574q-38 2 -62 8l15 84h267l-15 -84q-17 -6 -68 -8l18 -249l2 -42q3 -62 3 -91h2q6 21 53 137l141 337h138l29 -344q6 -71 6 -130h3q2 5 18 49.5t29 77.5l104 255q-44 2 -67 8l15 84h258l-15 -84q-24 -6 -59 -8l-253 -574h-131l-28 364q-2 28 -3.5 78t-3.5 62
h-2q-17 -49 -57 -140l-159 -364h-126z" />
    <glyph glyph-name="X" unicode="X" horiz-adv-x="661" 
d="M-27 0l15 84q40 8 63 9l214 254l-115 226q-37 2 -61 9l15 84h264l-16 -84q-12 -4 -48 -6l67 -151l114 151q-36 2 -48 6l16 84h250l-15 -84q-10 -3 -58 -9l-198 -233l122 -248q41 -2 64 -8l-14 -84h-274l14 84q5 1 13 2t19 2.5t19 2.5l-73 167l-127 -168q8 -1 27 -2.5
t24 -3.5l-15 -84h-258z" />
    <glyph glyph-name="Y" unicode="Y" horiz-adv-x="622" 
d="M126 0l14 84q43 9 79 9l28 155l-118 325q-38 2 -66 9l15 84h263l-15 -84q-6 -1 -56 -8l70 -208h1l138 208q-52 7 -54 8l15 84h253l-15 -84q-28 -6 -64 -8l-228 -325l-28 -156q43 0 77 -9l-14 -84h-295z" />
    <glyph glyph-name="Z" unicode="Z" horiz-adv-x="574" 
d="M-15 0l17 92l410 468h-205q-19 -75 -27 -98h-103l37 204h491l-17 -90l-412 -470h231q19 75 27 98h104l-37 -204h-516z" />
    <glyph glyph-name="bracketleft" unicode="[" horiz-adv-x="339" 
d="M-6 -161l154 881h245l-17 -96h-121l-121 -689h121l-17 -96h-244z" />
    <glyph glyph-name="backslash" unicode="\" horiz-adv-x="428" 
d="M264 -161l-169 881h110l170 -881h-111z" />
    <glyph glyph-name="bracketright" unicode="]" horiz-adv-x="339" 
d="M-43 -161l17 96h120l121 689h-120l16 96h246l-154 -881h-246z" />
    <glyph glyph-name="underscore" unicode="_" horiz-adv-x="429" 
d="M-73 -184l18 103h427l-18 -103h-427z" />
    <glyph glyph-name="grave" unicode="`" horiz-adv-x="500" 
d="M261 541l-112 135h164l59 -135h-111z" />
    <glyph glyph-name="a" unicode="a" horiz-adv-x="541" 
d="M149 -12q-56 0 -90.5 43.5t-34.5 115.5q0 156 86 254.5t222 98.5q110 0 169 -28l-40 -222q-14 -73 -24 -157q45 0 72 -9l-15 -84h-192q6 74 17 122h-2q-70 -134 -168 -134zM203 96q44 0 86 71.5t66 202.5l5 30q-18 6 -48 6q-63 0 -108 -67t-45 -171q0 -72 44 -72z" />
    <glyph glyph-name="b" unicode="b" horiz-adv-x="532" 
d="M204 -12q-119 0 -180 25l111 613q-48 5 -76 5l15 84q93 8 211 8l-19 -80l-29 -157q-11 -59 -26 -113h2q35 60 74.5 93.5t97.5 33.5q57 0 90 -44.5t33 -120.5q0 -156 -83 -251.5t-221 -95.5zM217 82q68 0 112 63.5t44 169.5q0 76 -43 76q-44 0 -87.5 -72.5t-70.5 -202.5
l-6 -28q16 -6 51 -6z" />
    <glyph glyph-name="c" unicode="c" horiz-adv-x="452" 
d="M216 -12q-92 0 -142.5 52.5t-50.5 142.5q0 140 85 228.5t206 88.5q83 0 131 -30l-27 -155h-93q-2 30 7 80q-21 3 -23 3q-62 0 -107.5 -56t-45.5 -144q0 -107 80 -107q47 0 98 43l49 -84q-67 -62 -167 -62z" />
    <glyph glyph-name="d" unicode="d" horiz-adv-x="547" 
d="M153 -12q-60 0 -94.5 44.5t-34.5 120.5q0 152 84 249.5t211 97.5q40 0 64 -6l24 132q-48 5 -76 5l16 84q91 8 210 8l-19 -80l-71 -393q-14 -73 -24 -157q39 -2 69 -9l-16 -84h-188q6 76 16 119h-2q-74 -131 -169 -131zM201 96q47 0 92 72.5t69 203.5l4 28q-18 6 -53 6
q-65 0 -110 -64.5t-45 -167.5q0 -78 43 -78z" />
    <glyph glyph-name="e" unicode="e" horiz-adv-x="470" 
d="M211 -12q-90 0 -138.5 53t-48.5 142q0 135 82 226t200 91q70 0 109 -33t39 -93q0 -157 -298 -192q5 -93 77 -93q67 0 126 51l48 -82q-87 -70 -196 -70zM283 403q-45 0 -76 -41t-44 -101q77 8 122 34t45 64q0 44 -47 44z" />
    <glyph glyph-name="f" unicode="f" horiz-adv-x="342" 
d="M-55 -229q-45 0 -83 15l34 96q24 -11 54 -11q64 0 83 97l78 422h-79l17 97h79l10 54q18 97 67.5 143t141.5 46q71 0 126 -31l-51 -94q-32 21 -73 21q-67 0 -81 -81l-11 -58h110l-17 -97h-111l-74 -410q-19 -109 -67 -159t-153 -50z" />
    <glyph glyph-name="g" unicode="g" horiz-adv-x="533" 
d="M169 -229q-100 0 -181 56l57 95q59 -45 124 -45q56 0 85.5 30t41.5 95l5 24q11 57 20 88h-2q-68 -122 -167 -122q-57 0 -92 44.5t-35 116.5q0 156 84 251.5t221 95.5q118 0 180 -23l-85 -468q-24 -129 -81 -183.5t-175 -54.5zM203 96q47 0 91.5 71.5t68.5 204.5l5 28
q-26 7 -54 7q-65 0 -110 -64.5t-45 -167.5q0 -79 44 -79z" />
    <glyph glyph-name="h" unicode="h" horiz-adv-x="560" 
d="M22 0l114 626q-47 5 -75 5l15 84q93 8 211 8l-19 -80l-28 -155q-7 -39 -25 -113h2q21 34 40 57t56.5 45.5t80.5 22.5q64 0 90.5 -48t9.5 -137l-41 -222q46 0 73 -9l-15 -84h-203l54 310q14 80 -32 80q-21 0 -42 -17t-44.5 -54.5t-46 -109t-39.5 -169.5l-8 -40h-128z" />
    <glyph glyph-name="i" unicode="i" horiz-adv-x="292" 
d="M37 0l72 397q-47 5 -74 5l15 84q82 7 210 7l-19 -79l-58 -321q45 0 72 -9l-15 -84h-203zM212 555q-35 0 -56.5 22t-21.5 55q0 32 22 54t56 22t56 -22t22 -54q0 -33 -21.5 -55t-56.5 -22z" />
    <glyph glyph-name="j" unicode="j" horiz-adv-x="277" 
d="M-40 -229q-58 0 -92 16l38 99q17 -10 46 -10q36 0 53 24t29 82l76 415q-48 5 -76 5l15 84q79 7 209 7l-21 -108l-73 -407q-17 -99 -65 -153t-139 -54zM212 555q-35 0 -56.5 22t-21.5 55q0 32 22 54t56 22t56 -22t22 -54q0 -33 -21.5 -55t-56.5 -22z" />
    <glyph glyph-name="k" unicode="k" horiz-adv-x="523" 
d="M323 0l-124 256l-44 -256h-131l109 626q-48 5 -76 5l15 84q93 8 213 8l-19 -80l-62 -359l189 203h145l-209 -216l88 -178q52 0 81 -9l-16 -84h-159z" />
    <glyph glyph-name="l" unicode="l" horiz-adv-x="275" 
d="M22 0l113 626q-48 5 -76 5l15 84q93 8 211 8l-19 -80l-99 -550q46 0 73 -9l-16 -84h-202z" />
    <glyph glyph-name="m" unicode="m" horiz-adv-x="847" 
d="M37 0l72 396q-43 6 -74 6l15 84q82 7 203 7l-10 -52q-10 -47 -16 -69h2q73 128 173 128q94 0 105 -99q0 -8 -2 -22h2q35 56 76 88.5t97 32.5q64 0 90.5 -48t9.5 -143l-39 -216q45 0 72 -9l-15 -84h-202l55 302q16 88 -31 88q-46 0 -91 -82t-78 -268l-7 -40h-128l55 302
q17 88 -32 88q-45 0 -89.5 -81.5t-77.5 -268.5l-8 -40h-127z" />
    <glyph glyph-name="n" unicode="n" horiz-adv-x="574" 
d="M37 0l72 397q-47 5 -74 5l15 84q82 7 204 7l-12 -54q0 -4 -6 -33t-8 -33h2q75 127 179 127q64 0 90 -48.5t10 -136.5l-41 -222q47 0 72 -9l-15 -84h-203l55 310q14 80 -33 80q-21 0 -42 -17t-44.5 -54.5t-46 -109t-39.5 -169.5l-7 -40h-128z" />
    <glyph glyph-name="o" unicode="o" horiz-adv-x="513" 
d="M217 -12q-91 0 -143 58.5t-52 144.5q0 126 80 217.5t196 91.5q89 0 141 -58t52 -145q0 -131 -77.5 -220t-196.5 -89zM228 85q61 0 96.5 65.5t35.5 144.5q0 108 -72 108q-59 0 -96 -65.5t-37 -143.5q0 -109 73 -109z" />
    <glyph glyph-name="p" unicode="p" horiz-adv-x="551" 
d="M-77 -218l15 84q34 9 76 9l95 521q-56 6 -74 6l15 84q82 7 204 7l-13 -62q-11 -51 -14 -60h2q36 62 74 95.5t97 33.5q57 0 91 -45t34 -120q0 -154 -81.5 -250.5t-210.5 -96.5q-46 0 -67 7l-23 -120q46 0 73 -9l-15 -84h-278zM233 80q67 0 112.5 64.5t45.5 169.5
q0 77 -45 77t-88.5 -73t-70.5 -203l-5 -29q21 -6 51 -6z" />
    <glyph glyph-name="q" unicode="q" horiz-adv-x="534" 
d="M181 -218l15 84q36 9 77 9l24 128q14 75 26 111h-2q-72 -126 -167 -126q-60 0 -94 44.5t-34 120.5q0 157 85 252t221 95q117 0 179 -23l-110 -602q45 0 72 -9l-15 -84h-277zM204 96q45 0 89.5 73t70.5 203l5 28q-21 7 -53 7q-65 0 -110.5 -63.5t-45.5 -168.5
q0 -79 44 -79z" />
    <glyph glyph-name="r" unicode="r" horiz-adv-x="419" 
d="M37 0l72 397q-47 5 -74 5l15 84q82 7 203 7l-11 -54q-12 -61 -16 -74h2q68 135 160 135q34 0 55 -10l-43 -122q-25 9 -41 9q-127 0 -187 -337l-7 -40h-128z" />
    <glyph glyph-name="s" unicode="s" horiz-adv-x="449" 
d="M190 -13q-54 0 -107 13t-74 29l23 128h94q0 -25 -5 -63q31 -13 69 -13q35 0 56 15t21 38q0 15 -12.5 28.5t-23.5 19.5t-39 19q-28 12 -45.5 21t-39 26.5t-32.5 42.5t-11 58q0 70 54 110.5t147 40.5q113 0 168 -36l-23 -130h-94q0 24 5 64q-21 9 -50 9q-33 0 -54 -13.5
t-21 -34.5q0 -22 16.5 -35t51.5 -29q70 -32 93 -52q43 -38 43 -99q0 -73 -57 -115t-153 -42z" />
    <glyph glyph-name="t" unicode="t" horiz-adv-x="369" 
d="M171 -12q-70 0 -95 41t-8 131l43 230h-78l17 97h79l23 125l136 37l-29 -162h122l-17 -97h-123l-41 -222q-14 -73 19 -73q23 0 74 33l40 -86q-74 -54 -162 -54z" />
    <glyph glyph-name="u" unicode="u" horiz-adv-x="573" 
d="M166 -13q-53 0 -80.5 32.5t-27.5 93.5q0 26 6 59l41 225q-47 5 -73 5l15 84q82 7 204 7l-55 -315q-13 -80 32 -80q43 0 86.5 64.5t74.5 214.5l4 20q-47 5 -74 5l15 84q82 7 203 7l-44 -243q-14 -73 -24 -157q46 0 73 -9l-15 -84h-194q9 82 18 124h-2q-18 -30 -31.5 -48
t-36.5 -41.5t-52 -35.5t-63 -12z" />
    <glyph glyph-name="v" unicode="v" horiz-adv-x="505" 
d="M149 0l-60 396q-62 6 -74 6l15 84q82 7 178 7l26 -255q2 -20 3 -51t1 -34h2l162 334h132l-269 -487h-116z" />
    <glyph glyph-name="w" unicode="w" horiz-adv-x="762" 
d="M132 0l-41 396q-7 0 -36 3t-39 3l15 84q77 7 185 7l14 -238q1 -18 1 -38.5t-0.5 -38.5t-0.5 -21h2l153 330h112l14 -229q1 -16 1 -100h2l148 329h129l-241 -487h-114l-23 335h-2l-167 -335h-112z" />
    <glyph glyph-name="x" unicode="x" horiz-adv-x="488" 
d="M-34 0l212 250l-74 146q-16 1 -42 3.5t-30 2.5l15 84q36 4 114 4h38l63 -139l106 136h139l-195 -231l79 -163q44 0 71 -9l-14 -84h-154l-68 157l-120 -157h-140z" />
    <glyph glyph-name="y" unicode="y" horiz-adv-x="512" 
d="M14 -225q-66 0 -94 18l44 101q19 -11 56 -11q44 0 74.5 26t64.5 92l-78 395q-58 6 -73 6l15 84q61 7 174 7l44 -281q7 -46 7 -77h2q9 34 29 76l123 276h134l-240 -461q-73 -141 -130.5 -196t-151.5 -55z" />
    <glyph glyph-name="z" unicode="z" horiz-adv-x="508" 
d="M-1 0l12 72l302 320h-132q-8 -39 -19 -63h-100l28 158h416l-13 -77l-298 -314h154q10 45 18 63h100l-29 -159h-439z" />
    <glyph glyph-name="braceleft" unicode="{" horiz-adv-x="402" 
d="M303 -161h-103q-58 0 -89.5 36t-20.5 98l29 161q18 102 -93 106l16 95q61 0 91 24t39 77l28 161q22 123 139 123h117l-16 -96h-62q-28 0 -42 -17.5t-20 -53.5l-25 -146q-17 -100 -110 -125v-2q41 -13 58 -40.5t8 -79.5l-27 -155q-6 -38 1.5 -54t36.5 -16h61z" />
    <glyph glyph-name="bar" unicode="|" horiz-adv-x="265" 
d="M-10 -250l176 1000h112l-176 -1000h-112z" />
    <glyph glyph-name="braceright" unicode="}" horiz-adv-x="402" 
d="M-44 -161l17 96h61q29 0 42 17t20 54l27 155q9 52 37 80.5t73 42.5v2q-83 27 -66 124l25 144q6 38 -1 54t-36 16h-62l17 96h110q51 0 82 -35.5t20 -97.5l-27 -151q-17 -100 94 -104l-17 -95q-111 -1 -129 -103l-30 -172q-22 -123 -139 -123h-118z" />
    <glyph glyph-name="uni00A0" unicode="&#xa0;" horiz-adv-x="220" 
 />
    <glyph glyph-name="exclamdown" unicode="&#xa1;" horiz-adv-x="292" 
d="M172 337q-36 0 -59.5 23.5t-23.5 56.5t23.5 57t59.5 24q37 0 60.5 -23.5t23.5 -57.5t-23.5 -57t-60.5 -23zM-4 -177l106 441h100l-53 -441h-153z" />
    <glyph glyph-name="sterling" unicode="&#xa3;" horiz-adv-x="564" 
d="M-4 0l16 85q50 25 84 70t43 103q2 6 4 28h-98l17 93h82q0 57 8 107q17 95 80.5 143.5t163.5 48.5q112 0 176 -45l-30 -173h-94q0 4 1.5 20t1.5 26l3 31q1 6 2.5 16t1.5 12q-30 11 -62 11q-91 0 -112 -111q-8 -44 -9 -86h141l-16 -93h-128q-2 -22 -4 -28
q-18 -101 -91 -154h209q15 70 23 83h97l-33 -187h-477z" />
    <glyph glyph-name="yen" unicode="&#xa5;" horiz-adv-x="639" 
d="M101 284l12 67h104l-80 222q-44 2 -68 9l14 84h266l-15 -84q-3 -1 -59 -8l70 -221h1l143 221q-51 7 -56 8l14 84h251l-14 -84q-28 -7 -63 -8l-157 -223h109l-13 -67h-143l-24 -35l-5 -25h161l-12 -67h-160l-11 -64q44 0 78 -9l-14 -84h-297l14 84q38 9 80 9l11 64h-161
l13 67h160l5 24l-13 36h-141z" />
    <glyph glyph-name="section" unicode="&#xa7;" horiz-adv-x="439" 
d="M116 -152q-86 0 -134 38l58 92q34 -29 77 -29q36 0 58.5 20t22.5 51q0 12 -4 24t-13.5 26.5t-16.5 24t-23 29t-23 28.5q-77 93 -77 171q0 90 105 144q-22 46 -22 84q0 84 58 132.5t144 48.5q82 0 130 -32l-54 -90q-31 25 -74 25q-33 0 -52 -19.5t-19 -51.5q0 -6 1 -12.5
t4 -13.5t5.5 -12.5t7.5 -13.5t8.5 -12.5l10.5 -13.5l10.5 -13.5t12.5 -14.5t12 -14q81 -95 81 -177q0 -91 -101 -154q22 -41 22 -81q0 -90 -59.5 -137t-155.5 -47zM251 189q31 22 31 61t-59 113q-23 31 -26 35q-30 -24 -30 -61q0 -36 45 -97q8 -11 22 -29t17 -22z" />
    <glyph glyph-name="dieresis" unicode="&#xa8;" horiz-adv-x="500" 
d="M211 545q-32 0 -52 19.5t-20 49.5t20 49.5t52 19.5t51.5 -19.5t19.5 -49.5q0 -29 -20 -49t-51 -20zM419 545q-32 0 -51.5 19.5t-19.5 49.5t19.5 49.5t51.5 19.5t52 -19.5t20 -49.5t-20 -49.5t-52 -19.5z" />
    <glyph glyph-name="copyright" unicode="&#xa9;" horiz-adv-x="818" 
d="M429 -14q-153 0 -262.5 109.5t-109.5 263.5t109.5 263.5t262.5 109.5q154 0 263.5 -109.5t109.5 -263.5t-109.5 -263.5t-263.5 -109.5zM429 60q127 0 208.5 83t81.5 216q0 132 -82 215.5t-208 83.5t-208.5 -84t-82.5 -215q0 -133 82 -216t209 -83zM436 135
q-96 0 -158.5 64t-62.5 160t64 160t158 64q89 0 148 -54v-128h-74q-6 27 -8 73q-25 15 -63 15q-52 0 -83.5 -37.5t-31.5 -90.5q0 -58 33.5 -96t84.5 -38q49 0 101 44l50 -72q-64 -64 -158 -64z" />
    <glyph glyph-name="guillemotleft" unicode="&#xab;" horiz-adv-x="529" 
d="M111 53l-84 190l151 195h139l-155 -199l80 -186h-131zM330 53l-84 190l151 195h139l-155 -199l80 -186h-131z" />
    <glyph glyph-name="uni00AD" unicode="&#xad;" horiz-adv-x="328" 
d="M46 228l19 108h229l-19 -108h-229z" />
    <glyph glyph-name="registered" unicode="&#xae;" horiz-adv-x="818" 
d="M429 -14q-153 0 -262.5 109.5t-109.5 263.5t109.5 263.5t262.5 109.5q154 0 263.5 -109.5t109.5 -263.5t-109.5 -263.5t-263.5 -109.5zM429 60q127 0 208.5 83t81.5 216q0 132 -82 215.5t-208 83.5t-208.5 -84t-82.5 -215q0 -133 82 -216t209 -83zM242 155v57q16 5 47 7
v289q-31 2 -47 7v57h195q72 0 111 -32.5t39 -89.5q0 -47 -28.5 -75.5t-67.5 -35.5v-1q17 -10 42 -49l22 -34q13 -21 25.5 -30t34.5 -9h8v-56q-26 -7 -50 -7q-37 0 -54 11t-36 42l-49 81q-14 23 -24.5 31t-27.5 8v-108q31 -2 42 -6v-57h-182zM382 386h38q72 0 72 59t-65 59
h-45v-118z" />
    <glyph glyph-name="overscore" unicode="&#xaf;" horiz-adv-x="500" 
d="M166 562l17 95h279l-17 -95h-279z" />
    <glyph glyph-name="degree" unicode="&#xb0;" horiz-adv-x="346" 
d="M220 397q-58 0 -99 41t-41 99q0 59 41 100t99 41t99 -41t41 -100q0 -58 -41 -99t-99 -41zM220 471q27 0 43.5 19t16.5 47q0 29 -16.5 47.5t-43.5 18.5t-43.5 -18.5t-16.5 -47.5q0 -28 16.5 -47t43.5 -19z" />
    <glyph glyph-name="acute" unicode="&#xb4;" horiz-adv-x="500" 
d="M162 541l105 135h170l-160 -135h-115z" />
    <glyph glyph-name="mu" unicode="&#xb5;" horiz-adv-x="547" 
d="M-15 -218l126 705h129l-56 -314q-14 -74 50 -74q54 0 104 61l60 327h129l-63 -348q-17 -80 -12 -139h-128q-6 31 1 66q-58 -71 -143 -71q-23 0 -35 12h-1q0 -52 -14 -120l-19 -105h-128z" />
    <glyph glyph-name="middot" unicode="&#xb7;" horiz-adv-x="290" 
d="M153 207q-37 0 -62.5 24.5t-25.5 60.5q0 35 25.5 59t62.5 24q35 0 60.5 -24.5t25.5 -58.5q0 -36 -25 -60.5t-61 -24.5z" />
    <glyph glyph-name="cedilla" unicode="&#xb8;" horiz-adv-x="500" 
d="M175 -230q-55 0 -83 15l22 59q23 -10 47 -10q47 0 47 35q0 43 -71 37l36 97h77l-22 -58q72 -15 72 -81q0 -42 -34 -68t-91 -26z" />
    <glyph glyph-name="guillemotright" unicode="&#xbb;" horiz-adv-x="529" 
d="M-4 53l154 199l-80 186h131l84 -191l-149 -194h-140zM215 53l154 199l-80 186h131l84 -191l-149 -194h-140z" />
    <glyph glyph-name="questiondown" unicode="&#xbf;" horiz-adv-x="417" 
d="M172 -189q-93 0 -141.5 42t-48.5 106q0 68 37.5 109.5t102.5 77.5q29 16 43 25t28 26t14 36q0 18 -4 33h102q8 -24 8 -52q0 -24 -6.5 -42t-23 -33.5t-28 -23.5t-37.5 -25q-49 -28 -71.5 -51t-22.5 -61q0 -60 77 -60q34 0 84 21l40 -95q-63 -33 -153 -33zM279 337
q-36 0 -59.5 23.5t-23.5 56.5t24 57t59 24q37 0 61 -23.5t24 -57.5t-23.5 -57t-61.5 -23z" />
    <glyph glyph-name="Agrave" unicode="&#xc0;" horiz-adv-x="703" 
d="M-34 0l15 84q24 7 57 8l327 574h133l106 -574q39 -2 62 -8l-15 -84h-266l14 84q26 6 62 8l-13 85h-231l-46 -85q34 -1 58 -8l-14 -84h-249zM264 267h171l-19 125q-4 21 -9.5 64.5t-8.5 63.5h-2q-44 -89 -63 -125zM375 718l-112 135h164l59 -135h-111z" />
    <glyph glyph-name="Aacute" unicode="&#xc1;" horiz-adv-x="703" 
d="M-34 0l15 84q24 7 57 8l327 574h133l106 -574q39 -2 62 -8l-15 -84h-266l14 84q26 6 62 8l-13 85h-231l-46 -85q34 -1 58 -8l-14 -84h-249zM264 267h171l-19 125q-4 21 -9.5 64.5t-8.5 63.5h-2q-44 -89 -63 -125zM373 718l105 135h170l-160 -135h-115z" />
    <glyph glyph-name="Acircumflex" unicode="&#xc2;" horiz-adv-x="703" 
d="M-34 0l15 84q24 7 57 8l327 574h133l106 -574q39 -2 62 -8l-15 -84h-266l14 84q26 6 62 8l-13 85h-231l-46 -85q34 -1 58 -8l-14 -84h-249zM264 267h171l-19 125q-4 21 -9.5 64.5t-8.5 63.5h-2q-44 -89 -63 -125zM256 719l152 159h99l94 -159h-104l-52 69l-75 -69h-114z
" />
    <glyph glyph-name="Atilde" unicode="&#xc3;" horiz-adv-x="703" 
d="M-34 0l15 84q24 7 57 8l327 574h133l106 -574q39 -2 62 -8l-15 -84h-266l14 84q26 6 62 8l-13 85h-231l-46 -85q34 -1 58 -8l-14 -84h-249zM264 267h171l-19 125q-4 21 -9.5 64.5t-8.5 63.5h-2q-44 -89 -63 -125zM491 723q-31 0 -63 17.5t-50 17.5q-25 0 -57 -29l-48 52
q53 75 119 75q31 0 62.5 -17.5t49.5 -17.5q32 0 59 30l49 -52q-21 -30 -53.5 -53t-67.5 -23z" />
    <glyph glyph-name="Adieresis" unicode="&#xc4;" horiz-adv-x="703" 
d="M-34 0l15 84q24 7 57 8l327 574h133l106 -574q39 -2 62 -8l-15 -84h-266l14 84q26 6 62 8l-13 85h-231l-46 -85q34 -1 58 -8l-14 -84h-249zM264 267h171l-19 125q-4 21 -9.5 64.5t-8.5 63.5h-2q-44 -89 -63 -125zM338 722q-32 0 -52 19.5t-20 49.5t20 49.5t52 19.5
t51.5 -19.5t19.5 -49.5q0 -29 -20 -49t-51 -20zM546 722q-32 0 -51.5 19.5t-19.5 49.5t19.5 49.5t51.5 19.5t52 -19.5t20 -49.5t-20 -49.5t-52 -19.5z" />
    <glyph glyph-name="Aring" unicode="&#xc5;" horiz-adv-x="703" 
d="M-34 0l15 84q24 7 57 8l327 574h133l106 -574q39 -2 62 -8l-15 -84h-266l14 84q26 6 62 8l-13 85h-231l-46 -85q34 -1 58 -8l-14 -84h-249zM264 267h171l-19 125q-4 21 -9.5 64.5t-8.5 63.5h-2q-44 -89 -63 -125zM448 716q-43 0 -75.5 30.5t-32.5 75.5t32.5 76t75.5 31
t75.5 -30.5t32.5 -75.5q0 -46 -32.5 -76.5t-75.5 -30.5zM448 772q21 0 33 15t12 36q0 22 -12 36t-33 14t-33 -14t-12 -36q0 -21 12.5 -36t32.5 -15z" />
    <glyph glyph-name="AE" unicode="&#xc6;" horiz-adv-x="896" 
d="M-45 0l15 84q23 6 48 7l355 482q-46 2 -69 9l15 84h606l-33 -188h-103q-2 25 6 84h-168l-31 -175h183l-17 -97h-183l-33 -186h176q9 52 22 84h103l-34 -188h-486l15 84q30 8 66 8l18 97h-195l-70 -97q34 -1 58 -8l-14 -84h-250zM301 290h142l47 268h-2l-65 -96l-38 -55
l-35 -49z" />
    <glyph glyph-name="Ccedilla" unicode="&#xc7;" horiz-adv-x="657" 
d="M339 -12q-142 0 -218 79t-76 202q0 170 117.5 289.5t289.5 119.5q133 0 200 -50l-31 -173h-103q0 56 9 107q-35 12 -84 12q-107 0 -178.5 -86t-71.5 -210q0 -84 43 -134.5t124 -50.5q63 0 111 22q12 64 29 113h103l-30 -171q-30 -28 -95 -48.5t-139 -20.5zM290 -230
q-55 0 -83 15l22 59q23 -10 47 -10q47 0 47 35q0 43 -71 37l36 97h77l-22 -58q72 -15 72 -81q0 -42 -34 -68t-91 -26z" />
    <glyph glyph-name="Egrave" unicode="&#xc8;" horiz-adv-x="565" 
d="M-19 0l15 84q43 9 79 9l85 480q-41 0 -77 9l15 84h497l-33 -188h-103q-2 33 6 84h-168l-31 -175h183l-18 -97h-182l-34 -186h176q8 48 23 84h102l-33 -188h-502zM300 719l-112 135h164l59 -135h-111z" />
    <glyph glyph-name="Eacute" unicode="&#xc9;" horiz-adv-x="565" 
d="M-19 0l15 84q43 9 79 9l85 480q-41 0 -77 9l15 84h497l-33 -188h-103q-2 33 6 84h-168l-31 -175h183l-18 -97h-182l-34 -186h176q8 48 23 84h102l-33 -188h-502zM299 719l105 135h170l-160 -135h-115z" />
    <glyph glyph-name="Ecircumflex" unicode="&#xca;" horiz-adv-x="565" 
d="M-19 0l15 84q43 9 79 9l85 480q-41 0 -77 9l15 84h497l-33 -188h-103q-2 33 6 84h-168l-31 -175h183l-18 -97h-182l-34 -186h176q8 48 23 84h102l-33 -188h-502zM181 720l152 159h99l94 -159h-104l-52 69l-75 -69h-114z" />
    <glyph glyph-name="Edieresis" unicode="&#xcb;" horiz-adv-x="565" 
d="M-19 0l15 84q43 9 79 9l85 480q-41 0 -77 9l15 84h497l-33 -188h-103q-2 33 6 84h-168l-31 -175h183l-18 -97h-182l-34 -186h176q8 48 23 84h102l-33 -188h-502zM264 723q-32 0 -52 19.5t-20 49.5t20 49.5t52 19.5t51.5 -19.5t19.5 -49.5q0 -29 -20 -49t-51 -20zM472 723
q-32 0 -51.5 19.5t-19.5 49.5t19.5 49.5t51.5 19.5t52 -19.5t20 -49.5t-20 -49.5t-52 -19.5z" />
    <glyph glyph-name="Igrave" unicode="&#xcc;" horiz-adv-x="341" 
d="M-19 0l15 84q43 9 79 9l85 480q-41 0 -77 9l15 84h295l-15 -84q-38 -9 -79 -9l-85 -480q43 0 77 -9l-15 -84h-295zM198 718l-112 135h164l59 -135h-111z" />
    <glyph glyph-name="Iacute" unicode="&#xcd;" horiz-adv-x="341" 
d="M-19 0l15 84q43 9 79 9l85 480q-41 0 -77 9l15 84h295l-15 -84q-38 -9 -79 -9l-85 -480q43 0 77 -9l-15 -84h-295zM194 718l105 135h170l-160 -135h-115z" />
    <glyph glyph-name="Icircumflex" unicode="&#xce;" horiz-adv-x="341" 
d="M-19 0l15 84q43 9 79 9l85 480q-41 0 -77 9l15 84h295l-15 -84q-38 -9 -79 -9l-85 -480q43 0 77 -9l-15 -84h-295zM79 719l152 159h99l94 -159h-104l-52 69l-75 -69h-114z" />
    <glyph glyph-name="Idieresis" unicode="&#xcf;" horiz-adv-x="341" 
d="M-19 0l15 84q43 9 79 9l85 480q-41 0 -77 9l15 84h295l-15 -84q-38 -9 -79 -9l-85 -480q43 0 77 -9l-15 -84h-295zM161 722q-32 0 -52 19.5t-20 49.5t20 49.5t52 19.5t51.5 -19.5t19.5 -49.5q0 -29 -20 -49t-51 -20zM369 722q-32 0 -51.5 19.5t-19.5 49.5t19.5 49.5
t51.5 19.5t52 -19.5t20 -49.5t-20 -49.5t-52 -19.5z" />
    <glyph glyph-name="Eth" unicode="&#xd0;" horiz-adv-x="715" 
d="M-10 0l15 84q43 9 79 9l34 196h-62l18 99h62l33 185q-41 0 -77 9l16 84h274q159 0 242 -70t83 -193q0 -111 -47 -201t-146 -146t-236 -56h-288zM225 104h78q121 0 189 81t68 210q0 167 -189 167h-64l-31 -174h104l-18 -99h-104z" />
    <glyph glyph-name="Ntilde" unicode="&#xd1;" horiz-adv-x="753" 
d="M-19 0l15 84q43 9 79 9l85 480q-41 0 -77 9l15 84h210l181 -351q37 -72 52 -116h1q4 46 16 114l46 260q-41 0 -77 9l15 84h270l-15 -84q-34 -9 -76 -9l-102 -573h-113l-192 376l-18 36q-33 66 -35 79h-2q-1 -5 -3.5 -22.5t-6 -43t-6.5 -45.5l-51 -287q43 0 77 -9l-15 -84
h-273zM518 723q-31 0 -63 17.5t-50 17.5q-25 0 -57 -29l-48 52q53 75 119 75q31 0 62.5 -17.5t49.5 -17.5q31 0 59 30l49 -52q-21 -30 -53.5 -53t-67.5 -23z" />
    <glyph glyph-name="Ograve" unicode="&#xd2;" horiz-adv-x="747" 
d="M342 -12q-138 0 -217.5 83t-79.5 208q0 105 47.5 196t138 147t203.5 56q141 0 217.5 -81t76.5 -207q0 -165 -107.5 -283.5t-278.5 -118.5zM356 92q104 0 165 88t61 208q0 81 -42.5 133.5t-119.5 52.5q-105 0 -166.5 -86.5t-61.5 -206.5q0 -84 44.5 -136.5t119.5 -52.5z
M396 718l-112 135h164l59 -135h-111z" />
    <glyph glyph-name="Oacute" unicode="&#xd3;" horiz-adv-x="747" 
d="M394 718l105 135h170l-160 -135h-115zM342 -12q-138 0 -217.5 83t-79.5 208q0 105 47.5 196t138 147t203.5 56q141 0 217.5 -81t76.5 -207q0 -165 -107.5 -283.5t-278.5 -118.5zM356 92q104 0 165 88t61 208q0 81 -42.5 133.5t-119.5 52.5q-105 0 -166.5 -86.5
t-61.5 -206.5q0 -84 44.5 -136.5t119.5 -52.5z" />
    <glyph glyph-name="Ocircumflex" unicode="&#xd4;" horiz-adv-x="747" 
d="M277 719l152 159h99l94 -159h-104l-52 69l-75 -69h-114zM342 -12q-138 0 -217.5 83t-79.5 208q0 105 47.5 196t138 147t203.5 56q141 0 217.5 -81t76.5 -207q0 -165 -107.5 -283.5t-278.5 -118.5zM356 92q104 0 165 88t61 208q0 81 -42.5 133.5t-119.5 52.5
q-105 0 -166.5 -86.5t-61.5 -206.5q0 -84 44.5 -136.5t119.5 -52.5z" />
    <glyph glyph-name="Otilde" unicode="&#xd5;" horiz-adv-x="747" 
d="M342 -12q-138 0 -217.5 83t-79.5 208q0 105 47.5 196t138 147t203.5 56q141 0 217.5 -81t76.5 -207q0 -165 -107.5 -283.5t-278.5 -118.5zM356 92q104 0 165 88t61 208q0 81 -42.5 133.5t-119.5 52.5q-105 0 -166.5 -86.5t-61.5 -206.5q0 -84 44.5 -136.5t119.5 -52.5z
M512 723q-31 0 -63 17.5t-50 17.5q-25 0 -57 -29l-48 52q53 75 119 75q31 0 62.5 -17.5t49.5 -17.5q31 0 59 30l49 -52q-21 -30 -53.5 -53t-67.5 -23z" />
    <glyph glyph-name="Odieresis" unicode="&#xd6;" horiz-adv-x="747" 
d="M359 722q-32 0 -52 19.5t-20 49.5t20 49.5t52 19.5t51.5 -19.5t19.5 -49.5q0 -29 -20 -49t-51 -20zM567 722q-32 0 -51.5 19.5t-19.5 49.5t19.5 49.5t51.5 19.5t52 -19.5t20 -49.5t-20 -49.5t-52 -19.5zM342 -12q-138 0 -217.5 83t-79.5 208q0 105 47.5 196t138 147
t203.5 56q141 0 217.5 -81t76.5 -207q0 -165 -107.5 -283.5t-278.5 -118.5zM356 92q104 0 165 88t61 208q0 81 -42.5 133.5t-119.5 52.5q-105 0 -166.5 -86.5t-61.5 -206.5q0 -84 44.5 -136.5t119.5 -52.5z" />
    <glyph glyph-name="multiply" unicode="&#xd7;" horiz-adv-x="465" 
d="M78 68l-63 77l141 122l-98 120l86 74l99 -120l142 119l63 -78l-141 -119l103 -124l-87 -74l-103 124z" />
    <glyph glyph-name="Oslash" unicode="&#xd8;" horiz-adv-x="747" 
d="M89 -76l-69 61l89 102q-64 76 -64 192q0 105 47.5 196t138 147t203.5 56q90 0 160 -39l85 96l70 -62l-82 -93q61 -79 61 -190q0 -165 -107.5 -283.5t-278.5 -118.5q-91 0 -161 40zM355 89q106 0 167.5 88.5t61.5 211.5q0 48 -19 82l-306 -352q39 -30 96 -30zM189 280
q0 -49 20 -87l308 353q-38 31 -97 31q-107 0 -169 -88t-62 -209z" />
    <glyph glyph-name="Ugrave" unicode="&#xd9;" horiz-adv-x="727" 
d="M346 -12q-127 0 -190.5 55t-63.5 156q0 31 6 66l54 308q-34 0 -68 9l15 84h281l-15 -84q-38 -9 -74 -9l-54 -303q-16 -88 12.5 -128t106.5 -40q74 0 112.5 39t53.5 124l54 308q-36 0 -72 9l16 84h259l-15 -84q-38 -9 -71 -9l-56 -317q-24 -134 -94 -201t-197 -67z
M398 718l-112 135h164l59 -135h-111z" />
    <glyph glyph-name="Uacute" unicode="&#xda;" horiz-adv-x="727" 
d="M397 718l105 135h170l-160 -135h-115zM346 -12q-127 0 -190.5 55t-63.5 156q0 31 6 66l54 308q-34 0 -68 9l15 84h281l-15 -84q-38 -9 -74 -9l-54 -303q-16 -88 12.5 -128t106.5 -40q74 0 112.5 39t53.5 124l54 308q-36 0 -72 9l16 84h259l-15 -84q-38 -9 -71 -9
l-56 -317q-24 -134 -94 -201t-197 -67z" />
    <glyph glyph-name="Ucircumflex" unicode="&#xdb;" horiz-adv-x="727" 
d="M279 719l152 159h99l94 -159h-104l-52 69l-75 -69h-114zM346 -12q-127 0 -190.5 55t-63.5 156q0 31 6 66l54 308q-34 0 -68 9l15 84h281l-15 -84q-38 -9 -74 -9l-54 -303q-16 -88 12.5 -128t106.5 -40q74 0 112.5 39t53.5 124l54 308q-36 0 -72 9l16 84h259l-15 -84
q-38 -9 -71 -9l-56 -317q-24 -134 -94 -201t-197 -67z" />
    <glyph glyph-name="Udieresis" unicode="&#xdc;" horiz-adv-x="727" 
d="M362 722q-32 0 -52 19.5t-20 49.5t20 49.5t52 19.5t51.5 -19.5t19.5 -49.5q0 -29 -20 -49t-51 -20zM570 722q-32 0 -51.5 19.5t-19.5 49.5t19.5 49.5t51.5 19.5t52 -19.5t20 -49.5t-20 -49.5t-52 -19.5zM346 -12q-127 0 -190.5 55t-63.5 156q0 31 6 66l54 308
q-34 0 -68 9l15 84h281l-15 -84q-38 -9 -74 -9l-54 -303q-16 -88 12.5 -128t106.5 -40q74 0 112.5 39t53.5 124l54 308q-36 0 -72 9l16 84h259l-15 -84q-38 -9 -71 -9l-56 -317q-24 -134 -94 -201t-197 -67z" />
    <glyph glyph-name="Yacute" unicode="&#xdd;" horiz-adv-x="622" 
d="M126 0l14 84q43 9 79 9l28 155l-118 325q-38 2 -66 9l15 84h263l-15 -84q-6 -1 -56 -8l70 -208h1l138 208q-52 7 -54 8l15 84h253l-15 -84q-28 -6 -64 -8l-228 -325l-28 -156q43 0 77 -9l-14 -84h-295zM334 718l105 135h170l-160 -135h-115z" />
    <glyph glyph-name="Thorn" unicode="&#xde;" horiz-adv-x="594" 
d="M-19 0l15 84q43 9 79 9l85 480q-41 0 -77 9l15 84h218l-16 -88h66q103 0 163 -46t60 -138q0 -60 -24 -105t-67 -71t-95 -38.5t-114 -12.5h-61l-14 -74q43 0 77 -9l-15 -84h-295zM246 269h59q73 0 110 30t37 85q0 92 -110 92h-60z" />
    <glyph glyph-name="germandbls" unicode="&#xdf;" horiz-adv-x="584" 
d="M-55 -229q-45 0 -83 15l34 96q24 -11 54 -11q65 0 84 101l77 418h-79l17 97h79l4 22q23 120 86 170.5t168 50.5q93 0 145.5 -42.5t52.5 -109.5q0 -50 -22.5 -83.5t-61.5 -64.5q-6 -5 -22.5 -17t-23 -17.5t-16.5 -15t-13.5 -18t-3.5 -18.5q0 -8 3 -15.5t11 -15.5t14 -13.5
t19 -16t19 -16.5q70 -58 70 -128q0 -73 -54 -112t-143 -39q-74 0 -126 32l38 92q38 -26 86 -26q36 0 56 15t20 41q0 7 -3 14.5t-6.5 13.5t-11.5 13.5t-13 11.5t-15.5 13t-15.5 13q-21 17 -34.5 30t-25 34.5t-11.5 45.5q0 53 54 96l30 24q24 19 36.5 30.5t24.5 33t12 45.5
q0 34 -19 54t-57 20q-96 0 -118 -127l-96 -527q-19 -109 -67 -159t-153 -50z" />
    <glyph glyph-name="agrave" unicode="&#xe0;" horiz-adv-x="541" 
d="M149 -12q-56 0 -90.5 43.5t-34.5 115.5q0 156 86 254.5t222 98.5q110 0 169 -28l-40 -222q-14 -73 -24 -157q45 0 72 -9l-15 -84h-192q6 74 17 122h-2q-70 -134 -168 -134zM203 96q44 0 86 71.5t66 202.5l5 30q-18 6 -48 6q-63 0 -108 -67t-45 -171q0 -72 44 -72z
M260 541l-112 135h164l59 -135h-111z" />
    <glyph glyph-name="aacute" unicode="&#xe1;" horiz-adv-x="541" 
d="M149 -12q-56 0 -90.5 43.5t-34.5 115.5q0 156 86 254.5t222 98.5q110 0 169 -28l-40 -222q-14 -73 -24 -157q45 0 72 -9l-15 -84h-192q6 74 17 122h-2q-70 -134 -168 -134zM203 96q44 0 86 71.5t66 202.5l5 30q-18 6 -48 6q-63 0 -108 -67t-45 -171q0 -72 44 -72z
M256 541l105 135h170l-160 -135h-115z" />
    <glyph glyph-name="acircumflex" unicode="&#xe2;" horiz-adv-x="541" 
d="M149 -12q-56 0 -90.5 43.5t-34.5 115.5q0 156 86 254.5t222 98.5q110 0 169 -28l-40 -222q-14 -73 -24 -157q45 0 72 -9l-15 -84h-192q6 74 17 122h-2q-70 -134 -168 -134zM203 96q44 0 86 71.5t66 202.5l5 30q-18 6 -48 6q-63 0 -108 -67t-45 -171q0 -72 44 -72z
M139 542l152 159h99l94 -159h-104l-52 69l-75 -69h-114z" />
    <glyph glyph-name="atilde" unicode="&#xe3;" horiz-adv-x="541" 
d="M149 -12q-56 0 -90.5 43.5t-34.5 115.5q0 156 86 254.5t222 98.5q110 0 169 -28l-40 -222q-14 -73 -24 -157q45 0 72 -9l-15 -84h-192q6 74 17 122h-2q-70 -134 -168 -134zM203 96q44 0 86 71.5t66 202.5l5 30q-18 6 -48 6q-63 0 -108 -67t-45 -171q0 -72 44 -72z
M374 546q-31 0 -63 17.5t-50 17.5q-25 0 -57 -29l-48 52q53 75 119 75q31 0 62.5 -17.5t49.5 -17.5q31 0 59 30l49 -52q-21 -30 -53.5 -53t-67.5 -23z" />
    <glyph glyph-name="adieresis" unicode="&#xe4;" horiz-adv-x="541" 
d="M149 -12q-56 0 -90.5 43.5t-34.5 115.5q0 156 86 254.5t222 98.5q110 0 169 -28l-40 -222q-14 -73 -24 -157q45 0 72 -9l-15 -84h-192q6 74 17 122h-2q-70 -134 -168 -134zM203 96q44 0 86 71.5t66 202.5l5 30q-18 6 -48 6q-63 0 -108 -67t-45 -171q0 -72 44 -72z
M221 545q-32 0 -52 19.5t-20 49.5t20 49.5t52 19.5t51.5 -19.5t19.5 -49.5q0 -29 -20 -49t-51 -20zM429 545q-32 0 -51.5 19.5t-19.5 49.5t19.5 49.5t51.5 19.5t52 -19.5t20 -49.5t-20 -49.5t-52 -19.5z" />
    <glyph glyph-name="aring" unicode="&#xe5;" horiz-adv-x="541" 
d="M149 -12q-56 0 -90.5 43.5t-34.5 115.5q0 156 86 254.5t222 98.5q110 0 169 -28l-40 -222q-14 -73 -24 -157q45 0 72 -9l-15 -84h-192q6 74 17 122h-2q-70 -134 -168 -134zM203 96q44 0 86 71.5t66 202.5l5 30q-18 6 -48 6q-63 0 -108 -67t-45 -171q0 -72 44 -72z
M331 539q-43 0 -75.5 30.5t-32.5 75.5t32.5 76t75.5 31t75.5 -30.5t32.5 -75.5q0 -46 -32.5 -76.5t-75.5 -30.5zM331 595q21 0 33 15t12 36q0 22 -12 36t-33 14t-33 -14t-12 -36q0 -21 12.5 -36t32.5 -15z" />
    <glyph glyph-name="ae" unicode="&#xe6;" horiz-adv-x="731" 
d="M152 -12q-66 0 -106.5 35.5t-40.5 91.5q0 101 99 143q67 30 185 30h14q11 30 11 59q0 50 -66 50q-71 0 -129 -44l-50 81q86 66 197 66q100 0 140 -56h1q70 56 159 56q70 0 109.5 -33t39.5 -93q0 -85 -84 -130t-214 -47q0 -108 77 -108q68 0 127 51l48 -82
q-87 -70 -196 -70q-101 0 -151 71q-79 -71 -170 -71zM187 83q56 0 104 48q-7 37 -3 77h-12q-63 0 -100 -15q-41 -18 -41 -63q0 -47 52 -47zM545 403q-43 0 -72.5 -35.5t-45.5 -90.5q76 2 120 23.5t44 58.5q0 44 -46 44z" />
    <glyph glyph-name="ccedilla" unicode="&#xe7;" horiz-adv-x="452" 
d="M216 -12q-92 0 -142.5 52.5t-50.5 142.5q0 140 85 228.5t206 88.5q83 0 131 -30l-27 -155h-93q-2 30 7 80q-21 3 -23 3q-62 0 -107.5 -56t-45.5 -144q0 -107 80 -107q47 0 98 43l49 -84q-67 -62 -167 -62zM156 -230q-55 0 -83 15l22 59q23 -10 47 -10q47 0 47 35
q0 43 -71 37l36 97h77l-22 -58q72 -15 72 -81q0 -42 -34 -68t-91 -26z" />
    <glyph glyph-name="egrave" unicode="&#xe8;" horiz-adv-x="470" 
d="M211 -12q-90 0 -138.5 53t-48.5 142q0 135 82 226t200 91q70 0 109 -33t39 -93q0 -157 -298 -192q5 -93 77 -93q67 0 126 51l48 -82q-87 -70 -196 -70zM283 403q-45 0 -76 -41t-44 -101q77 8 122 34t45 64q0 44 -47 44zM241 541l-112 135h164l59 -135h-111z" />
    <glyph glyph-name="eacute" unicode="&#xe9;" horiz-adv-x="470" 
d="M237 541l105 135h170l-160 -135h-115zM211 -12q-90 0 -138.5 53t-48.5 142q0 135 82 226t200 91q70 0 109 -33t39 -93q0 -157 -298 -192q5 -93 77 -93q67 0 126 51l48 -82q-87 -70 -196 -70zM283 403q-45 0 -76 -41t-44 -101q77 8 122 34t45 64q0 44 -47 44z" />
    <glyph glyph-name="ecircumflex" unicode="&#xea;" horiz-adv-x="470" 
d="M122 542l152 159h99l94 -159h-104l-52 69l-75 -69h-114zM211 -12q-90 0 -138.5 53t-48.5 142q0 135 82 226t200 91q70 0 109 -33t39 -93q0 -157 -298 -192q5 -93 77 -93q67 0 126 51l48 -82q-87 -70 -196 -70zM283 403q-45 0 -76 -41t-44 -101q77 8 122 34t45 64
q0 44 -47 44z" />
    <glyph glyph-name="edieresis" unicode="&#xeb;" horiz-adv-x="470" 
d="M204 545q-32 0 -52 19.5t-20 49.5t20 49.5t52 19.5t51.5 -19.5t19.5 -49.5q0 -29 -20 -49t-51 -20zM412 545q-32 0 -51.5 19.5t-19.5 49.5t19.5 49.5t51.5 19.5t52 -19.5t20 -49.5t-20 -49.5t-52 -19.5zM211 -12q-90 0 -138.5 53t-48.5 142q0 135 82 226t200 91
q70 0 109 -33t39 -93q0 -157 -298 -192q5 -93 77 -93q67 0 126 51l48 -82q-87 -70 -196 -70zM283 403q-45 0 -76 -41t-44 -101q77 8 122 34t45 64q0 44 -47 44z" />
    <glyph glyph-name="igrave" unicode="&#xec;" horiz-adv-x="292" 
d="M37 0l72 397q-47 5 -75 5l15 84q82 7 211 7l-19 -79l-58 -321q45 0 72 -9l-15 -84h-203zM143 541l-112 135h164l59 -135h-111z" />
    <glyph glyph-name="iacute" unicode="&#xed;" horiz-adv-x="292" 
d="M141 541l105 135h170l-160 -135h-115zM37 0l72 397q-47 5 -75 5l15 84q82 7 211 7l-19 -79l-58 -321q45 0 72 -9l-15 -84h-203z" />
    <glyph glyph-name="icircumflex" unicode="&#xee;" horiz-adv-x="292" 
d="M24 542l152 159h99l94 -159h-104l-52 69l-75 -69h-114zM37 0l72 397q-47 5 -75 5l15 84q82 7 211 7l-19 -79l-58 -321q45 0 72 -9l-15 -84h-203z" />
    <glyph glyph-name="idieresis" unicode="&#xef;" horiz-adv-x="292" 
d="M106 545q-32 0 -52 19.5t-20 49.5t20 49.5t52 19.5t51.5 -19.5t19.5 -49.5q0 -29 -20 -49t-51 -20zM314 545q-32 0 -51.5 19.5t-19.5 49.5t19.5 49.5t51.5 19.5t52 -19.5t20 -49.5t-20 -49.5t-52 -19.5zM37 0l72 397q-47 5 -75 5l15 84q82 7 211 7l-19 -79l-58 -321
q45 0 72 -9l-15 -84h-203z" />
    <glyph glyph-name="eth" unicode="&#xf0;" horiz-adv-x="517" 
d="M222 -12q-89 0 -144.5 53.5t-55.5 146.5q0 134 78.5 217t180.5 83q48 0 82 -26q-13 75 -51 110l-67 -54l-45 52l49 39q-51 20 -124 20l37 103q105 0 184 -42l82 67l45 -52l-69 -56q98 -90 98 -262q0 -64 -10 -121.5t-32 -108.5t-54 -88.5t-79.5 -59t-104.5 -21.5zM233 85
q60 0 95 81t39 192v1q-26 33 -76 33q-59 0 -96 -57t-37 -140q0 -110 75 -110z" />
    <glyph glyph-name="ntilde" unicode="&#xf1;" horiz-adv-x="574" 
d="M37 0l72 397q-47 5 -74 5l15 84q82 7 204 7l-12 -54q0 -4 -6 -33t-8 -33h2q75 127 179 127q64 0 90 -48.5t10 -136.5l-41 -222q47 0 72 -9l-15 -84h-203l55 310q14 80 -33 80q-21 0 -42 -17t-44.5 -54.5t-46 -109t-39.5 -169.5l-7 -40h-128zM385 546q-31 0 -63 17.5
t-50 17.5q-25 0 -57 -29l-48 52q53 75 119 75q31 0 62.5 -17.5t49.5 -17.5q32 0 59 30l49 -52q-21 -30 -53.5 -53t-67.5 -23z" />
    <glyph glyph-name="ograve" unicode="&#xf2;" horiz-adv-x="513" 
d="M217 -12q-91 0 -143 58.5t-52 144.5q0 126 80 217.5t196 91.5q89 0 141 -58t52 -145q0 -131 -77.5 -220t-196.5 -89zM228 85q61 0 96.5 65.5t35.5 144.5q0 108 -72 108q-59 0 -96 -65.5t-37 -143.5q0 -109 73 -109zM252 541l-112 135h164l59 -135h-111z" />
    <glyph glyph-name="oacute" unicode="&#xf3;" horiz-adv-x="513" 
d="M248 541l105 135h170l-160 -135h-115zM217 -12q-91 0 -143 58.5t-52 144.5q0 126 80 217.5t196 91.5q89 0 141 -58t52 -145q0 -131 -77.5 -220t-196.5 -89zM228 85q61 0 96.5 65.5t35.5 144.5q0 108 -72 108q-59 0 -96 -65.5t-37 -143.5q0 -109 73 -109z" />
    <glyph glyph-name="ocircumflex" unicode="&#xf4;" horiz-adv-x="513" 
d="M131 542l152 159h99l94 -159h-104l-52 69l-75 -69h-114zM217 -12q-91 0 -143 58.5t-52 144.5q0 126 80 217.5t196 91.5q89 0 141 -58t52 -145q0 -131 -77.5 -220t-196.5 -89zM228 85q61 0 96.5 65.5t35.5 144.5q0 108 -72 108q-59 0 -96 -65.5t-37 -143.5q0 -109 73 -109
z" />
    <glyph glyph-name="otilde" unicode="&#xf5;" horiz-adv-x="513" 
d="M217 -12q-91 0 -143 58.5t-52 144.5q0 126 80 217.5t196 91.5q89 0 141 -58t52 -145q0 -131 -77.5 -220t-196.5 -89zM228 85q61 0 96.5 65.5t35.5 144.5q0 108 -72 108q-59 0 -96 -65.5t-37 -143.5q0 -109 73 -109zM365 546q-31 0 -63 17.5t-50 17.5q-25 0 -57 -29
l-48 52q53 75 119 75q31 0 62.5 -17.5t49.5 -17.5q32 0 59 30l49 -52q-21 -30 -53.5 -53t-67.5 -23z" />
    <glyph glyph-name="odieresis" unicode="&#xf6;" horiz-adv-x="513" 
d="M213 545q-32 0 -52 19.5t-20 49.5t20 49.5t52 19.5t51.5 -19.5t19.5 -49.5q0 -29 -20 -49t-51 -20zM421 545q-32 0 -51.5 19.5t-19.5 49.5t19.5 49.5t51.5 19.5t52 -19.5t20 -49.5t-20 -49.5t-52 -19.5zM217 -12q-91 0 -143 58.5t-52 144.5q0 126 80 217.5t196 91.5
q89 0 141 -58t52 -145q0 -131 -77.5 -220t-196.5 -89zM228 85q61 0 96.5 65.5t35.5 144.5q0 108 -72 108q-59 0 -96 -65.5t-37 -143.5q0 -109 73 -109z" />
    <glyph glyph-name="oslash" unicode="&#xf8;" horiz-adv-x="513" 
d="M46 -69l-64 52l73 86q-33 50 -33 122q0 126 80 217.5t196 91.5q57 0 103 -27l79 94l64 -51l-84 -101q31 -50 31 -118q0 -131 -77.5 -220t-196.5 -89q-56 0 -101 24zM149 193v-13q0 -8 1 -12l187 222q-20 17 -47 17q-60 0 -100.5 -68t-40.5 -146zM227 81q62 0 100.5 67.5
t38.5 147.5v9q0 7 -1 10l-185 -218q16 -16 47 -16z" />
    <glyph glyph-name="ugrave" unicode="&#xf9;" horiz-adv-x="573" 
d="M166 -13q-53 0 -80.5 32.5t-27.5 93.5q0 26 6 59l41 225q-47 5 -73 5l15 84q82 7 204 7l-55 -315q-13 -80 32 -80q43 0 86.5 64.5t74.5 214.5l4 20q-47 5 -74 5l15 84q82 7 203 7l-44 -243q-14 -73 -24 -157q46 0 73 -9l-15 -84h-194q9 82 18 124h-2q-18 -30 -31.5 -48
t-36.5 -41.5t-52 -35.5t-63 -12zM273 541l-112 135h164l59 -135h-111z" />
    <glyph glyph-name="uacute" unicode="&#xfa;" horiz-adv-x="573" 
d="M271 541l105 135h170l-160 -135h-115zM166 -13q-53 0 -80.5 32.5t-27.5 93.5q0 26 6 59l41 225q-47 5 -73 5l15 84q82 7 204 7l-55 -315q-13 -80 32 -80q43 0 86.5 64.5t74.5 214.5l4 20q-47 5 -74 5l15 84q82 7 203 7l-44 -243q-14 -73 -24 -157q46 0 73 -9l-15 -84
h-194q9 82 18 124h-2q-18 -30 -31.5 -48t-36.5 -41.5t-52 -35.5t-63 -12z" />
    <glyph glyph-name="ucircumflex" unicode="&#xfb;" horiz-adv-x="573" 
d="M154 542l152 159h99l94 -159h-104l-52 69l-75 -69h-114zM166 -13q-53 0 -80.5 32.5t-27.5 93.5q0 26 6 59l41 225q-47 5 -73 5l15 84q82 7 204 7l-55 -315q-13 -80 32 -80q43 0 86.5 64.5t74.5 214.5l4 20q-47 5 -74 5l15 84q82 7 203 7l-44 -243q-14 -73 -24 -157
q46 0 73 -9l-15 -84h-194q9 82 18 124h-2q-18 -30 -31.5 -48t-36.5 -41.5t-52 -35.5t-63 -12z" />
    <glyph glyph-name="udieresis" unicode="&#xfc;" horiz-adv-x="573" 
d="M236 545q-32 0 -52 19.5t-20 49.5t20 49.5t52 19.5t51.5 -19.5t19.5 -49.5q0 -29 -20 -49t-51 -20zM444 545q-32 0 -51.5 19.5t-19.5 49.5t19.5 49.5t51.5 19.5t52 -19.5t20 -49.5t-20 -49.5t-52 -19.5zM166 -13q-53 0 -80.5 32.5t-27.5 93.5q0 26 6 59l41 225
q-47 5 -73 5l15 84q82 7 204 7l-55 -315q-13 -80 32 -80q43 0 86.5 64.5t74.5 214.5l4 20q-47 5 -74 5l15 84q82 7 203 7l-44 -243q-14 -73 -24 -157q46 0 73 -9l-15 -84h-194q9 82 18 124h-2q-18 -30 -31.5 -48t-36.5 -41.5t-52 -35.5t-63 -12z" />
    <glyph glyph-name="yacute" unicode="&#xfd;" horiz-adv-x="512" 
d="M14 -225q-66 0 -94 18l44 101q19 -11 56 -11q44 0 74.5 26t64.5 92l-78 395q-58 6 -73 6l15 84q61 7 174 7l44 -281q7 -46 7 -77h2q9 34 29 76l123 276h134l-240 -461q-73 -141 -130.5 -196t-151.5 -55zM240 541l105 135h170l-160 -135h-115z" />
    <glyph glyph-name="thorn" unicode="&#xfe;" horiz-adv-x="534" 
d="M-91 -218l15 84q34 9 75 9l136 751q-48 5 -76 5l16 84q70 8 210 8l-19 -80l-28 -157q-10 -54 -27 -115h2q36 62 74.5 95.5t97.5 33.5q57 0 91 -45t34 -120q0 -154 -82 -250.5t-209 -96.5q-42 0 -68 7l-22 -120q44 0 73 -9l-16 -84h-277zM218 80q67 0 112.5 64.5
t45.5 169.5q0 77 -45 77q-44 0 -87.5 -72.5t-71.5 -203.5l-5 -29q16 -6 51 -6z" />
    <glyph glyph-name="ydieresis" unicode="&#xff;" horiz-adv-x="512" 
d="M14 -225q-66 0 -94 18l44 101q19 -11 56 -11q44 0 74.5 26t64.5 92l-78 395q-58 6 -73 6l15 84q61 7 174 7l44 -281q7 -46 7 -77h2q9 34 29 76l123 276h134l-240 -461q-73 -141 -130.5 -196t-151.5 -55zM207 545q-32 0 -52 19.5t-20 49.5t20 49.5t52 19.5t51.5 -19.5
t19.5 -49.5q0 -29 -20 -49t-51 -20zM415 545q-32 0 -51.5 19.5t-19.5 49.5t19.5 49.5t51.5 19.5t52 -19.5t20 -49.5t-20 -49.5t-52 -19.5z" />
    <glyph glyph-name="Amacron" unicode="&#x100;" horiz-adv-x="703" 
d="M-34 0l15 84q24 7 57 8l327 574h133l106 -574q39 -2 62 -8l-15 -84h-266l14 84q26 6 62 8l-13 85h-231l-46 -85q34 -1 58 -8l-14 -84h-249zM264 267h171l-19 125q-4 21 -9.5 64.5t-8.5 63.5h-2q-44 -89 -63 -125zM296 739l17 95h279l-17 -95h-279z" />
    <glyph glyph-name="amacron" unicode="&#x101;" horiz-adv-x="541" 
d="M149 -12q-56 0 -90.5 43.5t-34.5 115.5q0 156 86 254.5t222 98.5q110 0 169 -28l-40 -222q-14 -73 -24 -157q45 0 72 -9l-15 -84h-192q6 74 17 122h-2q-70 -134 -168 -134zM203 96q44 0 86 71.5t66 202.5l5 30q-18 6 -48 6q-63 0 -108 -67t-45 -171q0 -72 44 -72z
M179 562l17 95h279l-17 -95h-279z" />
    <glyph glyph-name="Abreve" unicode="&#x102;" horiz-adv-x="703" 
d="M-34 0l15 84q24 7 57 8l327 574h133l106 -574q39 -2 62 -8l-15 -84h-266l14 84q26 6 62 8l-13 85h-231l-46 -85q34 -1 58 -8l-14 -84h-249zM264 267h171l-19 125q-4 21 -9.5 64.5t-8.5 63.5h-2q-44 -89 -63 -125zM436 712q-70 0 -112 39t-36 113h104q-7 -66 49 -66
q53 0 67 66h109q-19 -79 -68 -115.5t-113 -36.5z" />
    <glyph glyph-name="abreve" unicode="&#x103;" horiz-adv-x="541" 
d="M149 -12q-56 0 -90.5 43.5t-34.5 115.5q0 156 86 254.5t222 98.5q110 0 169 -28l-40 -222q-14 -73 -24 -157q45 0 72 -9l-15 -84h-192q6 74 17 122h-2q-70 -134 -168 -134zM203 96q44 0 86 71.5t66 202.5l5 30q-18 6 -48 6q-63 0 -108 -67t-45 -171q0 -72 44 -72z
M319 535q-70 0 -112 39t-36 113h104q-7 -66 49 -66q53 0 67 66h109q-19 -79 -68 -115.5t-113 -36.5z" />
    <glyph glyph-name="Aogonek" unicode="&#x104;" horiz-adv-x="703" 
d="M-34 0l15 84q24 7 57 8l327 574h133l106 -574q39 -2 62 -8l-15 -84h-266l14 84q26 6 62 8l-13 85h-231l-46 -85q34 -1 58 -8l-14 -84h-249zM264 267h171l-19 125q-4 21 -9.5 64.5t-8.5 63.5h-2q-44 -89 -63 -125zM511 -230q-50 0 -78 22.5t-28 61.5q0 76 95 146h75
q-75 -75 -75 -124q0 -35 41 -35q27 0 42 7l10 -60q-34 -18 -82 -18z" />
    <glyph glyph-name="aogonek" unicode="&#x105;" horiz-adv-x="541" 
d="M149 -12q-56 0 -90.5 43.5t-34.5 115.5q0 156 86 254.5t222 98.5q110 0 169 -28l-40 -222q-14 -73 -24 -157q45 0 72 -9l-15 -84h-192q6 74 17 122h-2q-70 -134 -168 -134zM203 96q44 0 86 71.5t66 202.5l5 30q-18 6 -48 6q-63 0 -108 -67t-45 -171q0 -72 44 -72z
M375 -230q-50 0 -78 22.5t-28 61.5q0 76 95 146h75q-75 -75 -75 -124q0 -35 41 -35q27 0 42 7l10 -60q-34 -18 -82 -18z" />
    <glyph glyph-name="Cacute" unicode="&#x106;" horiz-adv-x="657" 
d="M387 718l105 135h170l-160 -135h-115zM339 -12q-142 0 -218 79t-76 202q0 170 117.5 289.5t289.5 119.5q133 0 200 -50l-31 -173h-103q0 56 9 107q-35 12 -84 12q-107 0 -178.5 -86t-71.5 -210q0 -84 43 -134.5t124 -50.5q63 0 111 22q12 64 29 113h103l-30 -171
q-30 -28 -95 -48.5t-139 -20.5z" />
    <glyph glyph-name="cacute" unicode="&#x107;" horiz-adv-x="452" 
d="M244 541l105 135h170l-160 -135h-115zM216 -12q-92 0 -142.5 52.5t-50.5 142.5q0 140 85 228.5t206 88.5q83 0 131 -30l-27 -155h-93q-2 30 7 80q-21 3 -23 3q-62 0 -107.5 -56t-45.5 -144q0 -107 80 -107q47 0 98 43l49 -84q-67 -62 -167 -62z" />
    <glyph glyph-name="Ccircumflex" unicode="&#x108;" horiz-adv-x="657" 
d="M269 719l152 159h99l94 -159h-104l-52 69l-75 -69h-114zM339 -12q-142 0 -218 79t-76 202q0 170 117.5 289.5t289.5 119.5q133 0 200 -50l-31 -173h-103q0 56 9 107q-35 12 -84 12q-107 0 -178.5 -86t-71.5 -210q0 -84 43 -134.5t124 -50.5q63 0 111 22q12 64 29 113h103
l-30 -171q-30 -28 -95 -48.5t-139 -20.5z" />
    <glyph glyph-name="ccircumflex" unicode="&#x109;" horiz-adv-x="452" 
d="M127 542l152 159h99l94 -159h-104l-52 69l-75 -69h-114zM216 -12q-92 0 -142.5 52.5t-50.5 142.5q0 140 85 228.5t206 88.5q83 0 131 -30l-27 -155h-93q-2 30 7 80q-21 3 -23 3q-62 0 -107.5 -56t-45.5 -144q0 -107 80 -107q47 0 98 43l49 -84q-67 -62 -167 -62z" />
    <glyph glyph-name="Cdotaccent" unicode="&#x10a;" horiz-adv-x="657" 
d="M339 -12q-142 0 -218 79t-76 202q0 170 117.5 289.5t289.5 119.5q133 0 200 -50l-31 -173h-103q0 56 9 107q-35 12 -84 12q-107 0 -178.5 -86t-71.5 -210q0 -84 43 -134.5t124 -50.5q63 0 111 22q12 64 29 113h103l-30 -171q-30 -28 -95 -48.5t-139 -20.5zM458 732
q-32 0 -53 21t-21 51t21 51t53 21t53 -21t21 -51t-21 -51t-53 -21z" />
    <glyph glyph-name="cdotaccent" unicode="&#x10b;" horiz-adv-x="452" 
d="M216 -12q-92 0 -142.5 52.5t-50.5 142.5q0 140 85 228.5t206 88.5q83 0 131 -30l-27 -155h-93q-2 30 7 80q-21 3 -23 3q-62 0 -107.5 -56t-45.5 -144q0 -107 80 -107q47 0 98 43l49 -84q-67 -62 -167 -62zM317 555q-32 0 -53 21t-21 51t21 51t53 21t53 -21t21 -51
t-21 -51t-53 -21z" />
    <glyph glyph-name="Ccaron" unicode="&#x10c;" horiz-adv-x="657" 
d="M400 718l-97 159h105l53 -67l78 67h113l-154 -159h-98zM339 -12q-142 0 -218 79t-76 202q0 170 117.5 289.5t289.5 119.5q133 0 200 -50l-31 -173h-103q0 56 9 107q-35 12 -84 12q-107 0 -178.5 -86t-71.5 -210q0 -84 43 -134.5t124 -50.5q63 0 111 22q12 64 29 113h103
l-30 -171q-30 -28 -95 -48.5t-139 -20.5z" />
    <glyph glyph-name="ccaron" unicode="&#x10d;" horiz-adv-x="452" 
d="M257 541l-97 159h105l53 -67l78 67h113l-154 -159h-98zM216 -12q-92 0 -142.5 52.5t-50.5 142.5q0 140 85 228.5t206 88.5q83 0 131 -30l-27 -155h-93q-2 30 7 80q-21 3 -23 3q-62 0 -107.5 -56t-45.5 -144q0 -107 80 -107q47 0 98 43l49 -84q-67 -62 -167 -62z" />
    <glyph glyph-name="Dcaron" unicode="&#x10e;" horiz-adv-x="706" 
d="M359 718l-97 159h105l53 -67l78 67h113l-154 -159h-98zM-19 0l15 84q43 9 79 9l85 480q-41 0 -77 9l15 84h275q159 0 242 -70t83 -193q0 -111 -47 -201t-146 -146t-236 -56h-288zM216 104h78q121 0 189 81t68 210q0 167 -189 167h-64z" />
    <glyph glyph-name="dcaron" unicode="&#x10f;" horiz-adv-x="547" 
d="M549 545l59 175h134l-101 -175h-92zM153 -12q-60 0 -94.5 44.5t-34.5 120.5q0 152 84 249.5t211 97.5q40 0 64 -6l24 132q-48 5 -76 5l16 84q91 8 210 8l-19 -80l-71 -393q-14 -73 -24 -157q39 -2 69 -9l-16 -84h-188q6 76 16 119h-2q-74 -131 -169 -131zM201 96
q47 0 92 72.5t69 203.5l4 28q-18 6 -53 6q-65 0 -110 -64.5t-45 -167.5q0 -78 43 -78z" />
    <glyph glyph-name="Dcroat" unicode="&#x110;" horiz-adv-x="715" 
d="M-10 0l15 84q43 9 79 9l34 196h-62l18 99h62l33 185q-41 0 -77 9l16 84h274q159 0 242 -70t83 -193q0 -111 -47 -201t-146 -146t-236 -56h-288zM225 104h78q121 0 189 81t68 210q0 167 -189 167h-64l-31 -174h104l-18 -99h-104z" />
    <glyph glyph-name="dslash" unicode="&#x111;" horiz-adv-x="547" 
d="M153 -12q-60 0 -94.5 44.5t-34.5 120.5q0 152 84 249.5t211 97.5q40 0 64 -6l8 45h-137l14 73h136l7 35q-48 5 -76 5l12 63q91 8 210 8l-19 -80l-4 -25h54l-16 -85h-54l-51 -283q-17 -101 -24 -157q39 -2 69 -9l-16 -84h-188q6 76 16 119h-2q-74 -131 -169 -131zM201 96
q47 0 92 72.5t69 203.5l4 28q-18 6 -53 6q-65 0 -110 -64.5t-45 -167.5q0 -78 43 -78z" />
    <glyph glyph-name="Emacron" unicode="&#x112;" horiz-adv-x="565" 
d="M-19 0l15 84q43 9 79 9l85 480q-41 0 -77 9l15 84h497l-33 -188h-103q-2 33 6 84h-168l-31 -175h183l-18 -97h-182l-34 -186h176q8 48 23 84h102l-33 -188h-502zM222 740l17 95h279l-17 -95h-279z" />
    <glyph glyph-name="emacron" unicode="&#x113;" horiz-adv-x="470" 
d="M211 -12q-90 0 -138.5 53t-48.5 142q0 135 82 226t200 91q70 0 109 -33t39 -93q0 -157 -298 -192q5 -93 77 -93q67 0 126 51l48 -82q-87 -70 -196 -70zM283 403q-45 0 -76 -41t-44 -101q77 8 122 34t45 64q0 44 -47 44zM162 562l17 95h279l-17 -95h-279z" />
    <glyph glyph-name="Ebreve" unicode="&#x114;" horiz-adv-x="565" 
d="M-19 0l15 84q43 9 79 9l85 480q-41 0 -77 9l15 84h497l-33 -188h-103q-2 33 6 84h-168l-31 -175h183l-18 -97h-182l-34 -186h176q8 48 23 84h102l-33 -188h-502zM361 713q-70 0 -112 39t-36 113h104q-7 -66 49 -66q53 0 67 66h109q-19 -79 -68 -115.5t-113 -36.5z" />
    <glyph glyph-name="ebreve" unicode="&#x115;" horiz-adv-x="470" 
d="M211 -12q-90 0 -138.5 53t-48.5 142q0 135 82 226t200 91q70 0 109 -33t39 -93q0 -157 -298 -192q5 -93 77 -93q67 0 126 51l48 -82q-87 -70 -196 -70zM283 403q-45 0 -76 -41t-44 -101q77 8 122 34t45 64q0 44 -47 44zM300 535q-70 0 -112 39t-36 113h104q-7 -66 49 -66
q53 0 67 66h109q-19 -79 -68 -115.5t-113 -36.5z" />
    <glyph glyph-name="Edotaccent" unicode="&#x116;" horiz-adv-x="565" 
d="M-19 0l15 84q43 9 79 9l85 480q-41 0 -77 9l15 84h497l-33 -188h-103q-2 33 6 84h-168l-31 -175h183l-18 -97h-182l-34 -186h176q8 48 23 84h102l-33 -188h-502zM370 733q-32 0 -53 21t-21 51t21 51t53 21t53 -21t21 -51t-21 -51t-53 -21z" />
    <glyph glyph-name="edotaccent" unicode="&#x117;" horiz-adv-x="470" 
d="M211 -12q-90 0 -138.5 53t-48.5 142q0 135 82 226t200 91q70 0 109 -33t39 -93q0 -157 -298 -192q5 -93 77 -93q67 0 126 51l48 -82q-87 -70 -196 -70zM283 403q-45 0 -76 -41t-44 -101q77 8 122 34t45 64q0 44 -47 44zM310 555q-32 0 -53 21t-21 51t21 51t53 21t53 -21
t21 -51t-21 -51t-53 -21z" />
    <glyph glyph-name="Eogonek" unicode="&#x118;" horiz-adv-x="565" 
d="M-19 0l15 84q43 9 79 9l85 480q-41 0 -77 9l15 84h497l-33 -188h-103q-2 33 6 84h-168l-31 -175h183l-18 -97h-182l-34 -186h176q8 48 23 84h102l-33 -188h-502zM355 -230q-50 0 -78 22.5t-28 61.5q0 76 95 146h75q-75 -75 -75 -124q0 -35 41 -35q27 0 42 7l10 -60
q-34 -18 -82 -18z" />
    <glyph glyph-name="eogonek" unicode="&#x119;" horiz-adv-x="470" 
d="M273 -230q-50 0 -78 22.5t-28 61.5q0 40 26 78t60 60q-20 -4 -42 -4q-90 0 -138.5 53t-48.5 142q0 135 82 226t200 91q70 0 109 -33t39 -93q0 -157 -298 -192q5 -93 77 -93q67 0 126 51l48 -82q-30 -30 -67 -57q-78 -67 -78 -125q0 -35 41 -35q25 0 42 7l10 -60
q-34 -18 -82 -18zM283 403q-45 0 -76 -41t-44 -101q77 8 122 34t45 64q0 44 -47 44z" />
    <glyph glyph-name="Ecaron" unicode="&#x11a;" horiz-adv-x="565" 
d="M-19 0l15 84q43 9 79 9l85 480q-41 0 -77 9l15 84h497l-33 -188h-103q-2 33 6 84h-168l-31 -175h183l-18 -97h-182l-34 -186h176q8 48 23 84h102l-33 -188h-502zM312 719l-97 159h105l53 -67l78 67h113l-154 -159h-98z" />
    <glyph glyph-name="ecaron" unicode="&#x11b;" horiz-adv-x="470" 
d="M251 541l-97 159h105l53 -67l78 67h113l-154 -159h-98zM211 -12q-90 0 -138.5 53t-48.5 142q0 135 82 226t200 91q70 0 109 -33t39 -93q0 -157 -298 -192q5 -93 77 -93q67 0 126 51l48 -82q-87 -70 -196 -70zM283 403q-45 0 -76 -41t-44 -101q77 8 122 34t45 64
q0 44 -47 44z" />
    <glyph glyph-name="Gcircumflex" unicode="&#x11c;" horiz-adv-x="737" 
d="M287 719l152 159h99l94 -159h-104l-52 69l-75 -69h-114zM367 -12q-156 0 -239 79t-83 205q0 175 120.5 290.5t298.5 115.5q147 0 225 -54l-31 -170h-102q-2 30 8 101q-54 19 -109 19q-115 0 -188.5 -81.5t-73.5 -215.5q0 -88 47.5 -136.5t136.5 -48.5q67 0 115 26l20 113
q-50 2 -83 10l15 84h285l-15 -84q-25 -8 -66 -10l-32 -180q-35 -22 -100 -42.5t-149 -20.5z" />
    <glyph glyph-name="gcircumflex" unicode="&#x11d;" horiz-adv-x="533" 
d="M149 542l152 159h99l94 -159h-104l-52 69l-75 -69h-114zM169 -229q-100 0 -181 56l57 95q59 -45 124 -45q56 0 85.5 30t41.5 95l5 24q11 57 20 88h-2q-68 -122 -167 -122q-57 0 -92 44.5t-35 116.5q0 156 84 251.5t221 95.5q118 0 180 -23l-85 -468q-24 -129 -81 -183.5
t-175 -54.5zM203 96q47 0 91.5 71.5t68.5 204.5l5 28q-26 7 -54 7q-65 0 -110 -64.5t-45 -167.5q0 -79 44 -79z" />
    <glyph glyph-name="Gbreve" unicode="&#x11e;" horiz-adv-x="737" 
d="M367 -12q-156 0 -239 79t-83 205q0 175 120.5 290.5t298.5 115.5q147 0 225 -54l-31 -170h-102q-2 30 8 101q-54 19 -109 19q-115 0 -188.5 -81.5t-73.5 -215.5q0 -88 47.5 -136.5t136.5 -48.5q67 0 115 26l20 113q-50 2 -83 10l15 84h285l-15 -84q-25 -8 -66 -10
l-32 -180q-35 -22 -100 -42.5t-149 -20.5zM467 712q-70 0 -112 39t-36 113h104q-7 -66 49 -66q53 0 67 66h109q-19 -79 -68 -115.5t-113 -36.5z" />
    <glyph glyph-name="gbreve" unicode="&#x11f;" horiz-adv-x="533" 
d="M169 -229q-100 0 -181 56l57 95q59 -45 124 -45q56 0 85.5 30t41.5 95l5 24q11 57 20 88h-2q-68 -122 -167 -122q-57 0 -92 44.5t-35 116.5q0 156 84 251.5t221 95.5q118 0 180 -23l-85 -468q-24 -129 -81 -183.5t-175 -54.5zM203 96q47 0 91.5 71.5t68.5 204.5l5 28
q-26 7 -54 7q-65 0 -110 -64.5t-45 -167.5q0 -79 44 -79zM329 535q-70 0 -112 39t-36 113h104q-7 -66 49 -66q53 0 67 66h109q-19 -79 -68 -115.5t-113 -36.5z" />
    <glyph glyph-name="Gdotaccent" unicode="&#x120;" horiz-adv-x="737" 
d="M367 -12q-156 0 -239 79t-83 205q0 175 120.5 290.5t298.5 115.5q147 0 225 -54l-31 -170h-102q-2 30 8 101q-54 19 -109 19q-115 0 -188.5 -81.5t-73.5 -215.5q0 -88 47.5 -136.5t136.5 -48.5q67 0 115 26l20 113q-50 2 -83 10l15 84h285l-15 -84q-25 -8 -66 -10
l-32 -180q-35 -22 -100 -42.5t-149 -20.5zM475 732q-32 0 -53 21t-21 51t21 51t53 21t53 -21t21 -51t-21 -51t-53 -21z" />
    <glyph glyph-name="gdotaccent" unicode="&#x121;" horiz-adv-x="533" 
d="M169 -229q-100 0 -181 56l57 95q59 -45 124 -45q56 0 85.5 30t41.5 95l5 24q11 57 20 88h-2q-68 -122 -167 -122q-57 0 -92 44.5t-35 116.5q0 156 84 251.5t221 95.5q118 0 180 -23l-85 -468q-24 -129 -81 -183.5t-175 -54.5zM203 96q47 0 91.5 71.5t68.5 204.5l5 28
q-26 7 -54 7q-65 0 -110 -64.5t-45 -167.5q0 -79 44 -79zM337 555q-32 0 -53 21t-21 51t21 51t53 21t53 -21t21 -51t-21 -51t-53 -21z" />
    <glyph glyph-name="Gcommaaccent" unicode="&#x122;" horiz-adv-x="737" 
d="M345 -37q31 0 52 -18.5t21 -49.5q0 -74 -99 -138l-44 30q34 27 34 52q0 13 -14.5 31t-14.5 39q0 23 19 38.5t46 15.5zM367 -12q-156 0 -239 79t-83 205q0 175 120.5 290.5t298.5 115.5q147 0 225 -54l-31 -170h-102q-2 30 8 101q-54 19 -109 19q-115 0 -188.5 -81.5
t-73.5 -215.5q0 -88 47.5 -136.5t136.5 -48.5q67 0 115 26l20 113q-50 2 -83 10l15 84h285l-15 -84q-25 -8 -66 -10l-32 -180q-35 -22 -100 -42.5t-149 -20.5z" />
    <glyph glyph-name="gcommaaccent" unicode="&#x123;" horiz-adv-x="533" 
d="M330 537q-31 0 -52 18.5t-21 49.5q0 73 99 138l44 -30q-34 -27 -34 -52q0 -13 14.5 -31t14.5 -39q0 -23 -19 -38.5t-46 -15.5zM169 -229q-100 0 -181 56l57 95q59 -45 124 -45q56 0 85.5 30t41.5 95l5 24q11 57 20 88h-2q-68 -122 -167 -122q-57 0 -92 44.5t-35 116.5
q0 156 84 251.5t221 95.5q118 0 180 -23l-85 -468q-24 -129 -81 -183.5t-175 -54.5zM203 96q47 0 91.5 71.5t68.5 204.5l5 28q-26 7 -54 7q-65 0 -110 -64.5t-45 -167.5q0 -79 44 -79z" />
    <glyph glyph-name="Hcircumflex" unicode="&#x124;" horiz-adv-x="783" 
d="M296 719l152 159h99l94 -159h-104l-52 69l-75 -69h-114zM-19 0l15 84q43 9 79 9l85 480q-41 0 -77 9l15 84h292l-16 -84q-36 -9 -75 -9l-31 -176h303l31 176q-38 0 -72 9l15 84h290l-15 -84q-38 -9 -79 -9l-86 -480q43 0 77 -9l-15 -84h-290l15 84q43 9 74 9l36 201h-302
l-36 -201q38 0 72 -9l-14 -84h-291z" />
    <glyph glyph-name="hcircumflex" unicode="&#x125;" horiz-adv-x="560" 
d="M214 774l152 159h99l94 -159h-104l-52 69l-75 -69h-114zM22 0l114 626q-47 5 -75 5l15 84q93 8 211 8l-19 -80l-28 -155q-7 -39 -25 -113h2q21 34 40 57t56.5 45.5t80.5 22.5q64 0 90.5 -48t9.5 -137l-41 -222q46 0 73 -9l-15 -84h-203l54 310q14 80 -32 80
q-21 0 -42 -17t-44.5 -54.5t-46 -109t-39.5 -169.5l-8 -40h-128z" />
    <glyph glyph-name="Itilde" unicode="&#x128;" horiz-adv-x="341" 
d="M-19 0l15 84q43 9 79 9l85 480q-41 0 -77 9l15 84h295l-15 -84q-38 -9 -79 -9l-85 -480q43 0 77 -9l-15 -84h-295zM314 723q-31 0 -63 17.5t-50 17.5q-25 0 -57 -29l-48 52q53 75 119 75q31 0 62.5 -17.5t49.5 -17.5q31 0 59 30l49 -52q-21 -30 -53.5 -53t-67.5 -23z" />
    <glyph glyph-name="itilde" unicode="&#x129;" horiz-adv-x="292" 
d="M37 0l72 397q-47 5 -75 5l15 84q82 7 211 7l-19 -79l-58 -321q45 0 72 -9l-15 -84h-203zM259 546q-31 0 -63 17.5t-50 17.5q-25 0 -57 -29l-48 52q53 75 119 75q31 0 62.5 -17.5t49.5 -17.5q32 0 59 30l49 -52q-21 -30 -53.5 -53t-67.5 -23z" />
    <glyph glyph-name="Imacron" unicode="&#x12a;" horiz-adv-x="341" 
d="M-19 0l15 84q43 9 79 9l85 480q-41 0 -77 9l15 84h295l-15 -84q-38 -9 -79 -9l-85 -480q43 0 77 -9l-15 -84h-295zM119 739l17 95h279l-17 -95h-279z" />
    <glyph glyph-name="imacron" unicode="&#x12b;" horiz-adv-x="292" 
d="M37 0l72 397q-47 5 -75 5l15 84q82 7 211 7l-19 -79l-58 -321q45 0 72 -9l-15 -84h-203zM64 562l17 95h279l-17 -95h-279z" />
    <glyph glyph-name="Ibreve" unicode="&#x12c;" horiz-adv-x="341" 
d="M-19 0l15 84q43 9 79 9l85 480q-41 0 -77 9l15 84h295l-15 -84q-38 -9 -79 -9l-85 -480q43 0 77 -9l-15 -84h-295zM259 712q-70 0 -112 39t-36 113h104q-7 -66 49 -66q53 0 67 66h109q-19 -79 -68 -115.5t-113 -36.5z" />
    <glyph glyph-name="ibreve" unicode="&#x12d;" horiz-adv-x="292" 
d="M37 0l72 397q-47 5 -75 5l15 84q82 7 211 7l-19 -79l-58 -321q45 0 72 -9l-15 -84h-203zM204 535q-70 0 -112 39t-36 113h104q-7 -66 49 -66q53 0 67 66h109q-19 -79 -68 -115.5t-113 -36.5z" />
    <glyph glyph-name="Iogonek" unicode="&#x12e;" horiz-adv-x="341" 
d="M-19 0l15 84q43 9 79 9l85 480q-41 0 -77 9l15 84h295l-15 -84q-38 -9 -79 -9l-85 -480q43 0 77 -9l-15 -84h-295zM104 -230q-50 0 -78 22.5t-28 61.5q0 76 95 146h75q-75 -75 -75 -124q0 -35 41 -35q27 0 42 7l10 -60q-34 -18 -82 -18z" />
    <glyph glyph-name="iogonek" unicode="&#x12f;" horiz-adv-x="292" 
d="M37 0l72 397q-47 5 -74 5l15 84q82 7 210 7l-19 -79l-58 -321q45 0 72 -9l-15 -84h-203zM212 555q-35 0 -56.5 22t-21.5 55q0 32 22 54t56 22t56 -22t22 -54q0 -33 -21.5 -55t-56.5 -22zM116 -230q-50 0 -78 22.5t-28 61.5q0 76 95 146h75q-75 -75 -75 -124q0 -35 41 -35
q27 0 42 7l10 -60q-34 -18 -82 -18z" />
    <glyph glyph-name="Idot" unicode="&#x130;" horiz-adv-x="341" 
d="M-19 0l15 84q43 9 79 9l85 480q-41 0 -77 9l15 84h295l-15 -84q-38 -9 -79 -9l-85 -480q43 0 77 -9l-15 -84h-295zM267 732q-32 0 -53 21t-21 51t21 51t53 21t53 -21t21 -51t-21 -51t-53 -21z" />
    <glyph glyph-name="dotlessi" unicode="&#x131;" horiz-adv-x="292" 
d="M37 0l72 397q-47 5 -75 5l15 84q82 7 211 7l-19 -79l-58 -321q45 0 72 -9l-15 -84h-203z" />
    <glyph glyph-name="Kcommaaccent" unicode="&#x136;" horiz-adv-x="686" 
d="M295 -37q31 0 52 -18.5t21 -49.5q0 -74 -99 -138l-44 30q34 27 34 52q0 13 -14.5 31t-14.5 39q0 23 19 38.5t46 15.5zM-19 0l15 84q43 9 79 9l85 480q-41 0 -77 9l15 84h280l-15 -84q-28 -7 -64 -8l-41 -231l239 231q-45 6 -50 8l15 84h268l-15 -84q-6 -2 -67 -9
l-247 -227l176 -253q49 -2 70 -9l-14 -84h-278l15 84q25 7 49 8l-162 246l-44 -245q37 -1 67 -9l-15 -84h-284z" />
    <glyph glyph-name="kcommaaccent" unicode="&#x137;" horiz-adv-x="523" 
d="M220 -37q31 0 52 -18.5t21 -49.5q0 -74 -99 -138l-44 30q34 27 34 52q0 13 -14.5 31t-14.5 39q0 23 19 38.5t46 15.5zM323 0l-124 256l-44 -256h-131l109 626q-48 5 -76 5l15 84q93 8 213 8l-19 -80l-62 -359l189 203h145l-209 -216l88 -178q52 0 81 -9l-16 -84h-159z
" />
    <glyph glyph-name="Lacute" unicode="&#x139;" horiz-adv-x="532" 
d="M194 718l105 135h170l-160 -135h-115zM-19 0l15 84q43 9 79 9l85 480q-41 0 -77 9l15 84h295l-15 -84q-38 -9 -79 -9l-84 -469h160q19 87 28 103h101l-36 -207h-487z" />
    <glyph glyph-name="lacute" unicode="&#x13a;" horiz-adv-x="275" 
d="M167 773l105 135h170l-160 -135h-115zM22 0l113 626q-48 5 -76 5l15 84q93 8 211 8l-19 -80l-99 -550q46 0 73 -9l-16 -84h-202z" />
    <glyph glyph-name="Lcommaaccent" unicode="&#x13b;" horiz-adv-x="532" 
d="M243 -37q31 0 52 -18.5t21 -49.5q0 -74 -99 -138l-44 30q34 27 34 52q0 13 -14.5 31t-14.5 39q0 23 19 38.5t46 15.5zM-19 0l15 84q43 9 79 9l85 480q-41 0 -77 9l15 84h295l-15 -84q-38 -9 -79 -9l-84 -469h160q19 87 28 103h101l-36 -207h-487z" />
    <glyph glyph-name="lcommaaccent" unicode="&#x13c;" horiz-adv-x="275" 
d="M77 -37q31 0 52 -18.5t21 -49.5q0 -74 -99 -138l-44 30q34 27 34 52q0 13 -14.5 31t-14.5 39q0 23 19 38.5t46 15.5zM22 0l113 626q-48 5 -76 5l15 84q93 8 211 8l-19 -80l-99 -550q46 0 73 -9l-16 -84h-202z" />
    <glyph glyph-name="Lcaron" unicode="&#x13d;" horiz-adv-x="532" 
d="M393 492l59 175h134l-101 -175h-92zM-19 0l15 84q43 9 79 9l85 480q-41 0 -77 9l15 84h295l-15 -84q-38 -9 -79 -9l-84 -469h160q19 87 28 103h101l-36 -207h-487z" />
    <glyph glyph-name="lcaron" unicode="&#x13e;" horiz-adv-x="275" 
d="M277 545l59 175h134l-101 -175h-92zM22 0l113 626q-48 5 -76 5l15 84q93 8 211 8l-19 -80l-99 -550q46 0 73 -9l-16 -84h-202z" />
    <glyph glyph-name="Ldot" unicode="&#x13f;" horiz-adv-x="532" 
d="M-19 0l15 84q43 9 79 9l85 480q-41 0 -77 9l15 84h295l-15 -84q-38 -9 -79 -9l-84 -469h160q19 87 28 103h101l-36 -207h-487zM430 320q-32 0 -53 21t-21 51t21 51t53 21t53 -21t21 -51t-21 -51t-53 -21z" />
    <glyph glyph-name="ldot" unicode="&#x140;" horiz-adv-x="360" 
d="M22 0l113 626q-48 5 -76 5l15 84q93 8 211 8l-19 -80l-99 -550q46 0 73 -9l-16 -84h-202zM322 242q-32 0 -53 21t-21 51t21 51t53 21t53 -21t21 -51t-21 -51t-53 -21z" />
    <glyph glyph-name="Lslash" unicode="&#x141;" horiz-adv-x="542" 
d="M-10 0l15 84q43 9 79 9l23 133l-62 -40l-36 72l117 73l43 242q-41 0 -77 9l16 84h294l-15 -84q-36 -9 -79 -9l-26 -148l110 70l37 -73l-167 -103l-37 -215h160q20 90 27 103h101l-36 -207h-487z" />
    <glyph glyph-name="lslash" unicode="&#x142;" horiz-adv-x="302" 
d="M35 0l45 249l-76 -47l18 101l77 48l50 275q-48 5 -76 5l15 84q93 8 210 8l-18 -80l-38 -209l88 55l-18 -102l-89 -54l-42 -240q45 0 72 -9l-15 -84h-203z" />
    <glyph glyph-name="Nacute" unicode="&#x143;" horiz-adv-x="753" 
d="M401 718l105 135h170l-160 -135h-115zM-19 0l15 84q43 9 79 9l85 480q-41 0 -77 9l15 84h210l181 -351q37 -72 52 -116h1q4 46 16 114l46 260q-41 0 -77 9l15 84h270l-15 -84q-34 -9 -76 -9l-102 -573h-113l-192 376l-18 36q-33 66 -35 79h-2q-1 -5 -3.5 -22.5t-6 -43
t-6.5 -45.5l-51 -287q43 0 77 -9l-15 -84h-273z" />
    <glyph glyph-name="nacute" unicode="&#x144;" horiz-adv-x="574" 
d="M268 541l105 135h170l-160 -135h-115zM37 0l72 397q-47 5 -74 5l15 84q82 7 204 7l-12 -54q0 -4 -6 -33t-8 -33h2q75 127 179 127q64 0 90 -48.5t10 -136.5l-41 -222q47 0 72 -9l-15 -84h-203l55 310q14 80 -33 80q-21 0 -42 -17t-44.5 -54.5t-46 -109t-39.5 -169.5
l-7 -40h-128z" />
    <glyph glyph-name="Ncommaaccent" unicode="&#x145;" horiz-adv-x="753" 
d="M319 -37q31 0 52 -18.5t21 -49.5q0 -74 -99 -138l-44 30q34 27 34 52q0 13 -14.5 31t-14.5 39q0 23 19 38.5t46 15.5zM-19 0l15 84q43 9 79 9l85 480q-41 0 -77 9l15 84h210l181 -351q37 -72 52 -116h1q4 46 16 114l46 260q-41 0 -77 9l15 84h270l-15 -84q-34 -9 -76 -9
l-102 -573h-113l-192 376l-18 36q-33 66 -35 79h-2q-1 -5 -3.5 -22.5t-6 -43t-6.5 -45.5l-51 -287q43 0 77 -9l-15 -84h-273z" />
    <glyph glyph-name="ncommaaccent" unicode="&#x146;" horiz-adv-x="574" 
d="M236 -37q31 0 52 -18.5t21 -49.5q0 -74 -99 -138l-44 30q34 27 34 52q0 13 -14.5 31t-14.5 39q0 23 19 38.5t46 15.5zM37 0l72 397q-47 5 -74 5l15 84q82 7 204 7l-12 -54q0 -4 -6 -33t-8 -33h2q75 127 179 127q64 0 90 -48.5t10 -136.5l-41 -222q47 0 72 -9l-15 -84
h-203l55 310q14 80 -33 80q-21 0 -42 -17t-44.5 -54.5t-46 -109t-39.5 -169.5l-7 -40h-128z" />
    <glyph glyph-name="Ncaron" unicode="&#x147;" horiz-adv-x="753" 
d="M414 718l-97 159h105l53 -67l78 67h113l-154 -159h-98zM-19 0l15 84q43 9 79 9l85 480q-41 0 -77 9l15 84h210l181 -351q37 -72 52 -116h1q4 46 16 114l46 260q-41 0 -77 9l15 84h270l-15 -84q-34 -9 -76 -9l-102 -573h-113l-192 376l-18 36q-33 66 -35 79h-2
q-1 -5 -3.5 -22.5t-6 -43t-6.5 -45.5l-51 -287q43 0 77 -9l-15 -84h-273z" />
    <glyph glyph-name="ncaron" unicode="&#x148;" horiz-adv-x="574" 
d="M282 541l-97 159h105l53 -67l78 67h113l-154 -159h-98zM37 0l72 397q-47 5 -74 5l15 84q82 7 204 7l-12 -54q0 -4 -6 -33t-8 -33h2q75 127 179 127q64 0 90 -48.5t10 -136.5l-41 -222q47 0 72 -9l-15 -84h-203l55 310q14 80 -33 80q-21 0 -42 -17t-44.5 -54.5t-46 -109
t-39.5 -169.5l-7 -40h-128z" />
    <glyph glyph-name="napostrophe" unicode="&#x149;" horiz-adv-x="808" 
d="M128 371l-46 42q54 54 54 95q0 18 -17 45t-17 52q0 32 22 52.5t55 20.5q37 0 59.5 -24.5t22.5 -66.5q0 -99 -133 -216zM271 0l72 397q-47 5 -74 5l15 84q82 7 204 7l-12 -54q0 -4 -6 -33t-8 -33h2q75 127 179 127q64 0 90 -48.5t10 -136.5l-41 -222q47 0 72 -9l-15 -84
h-203l55 310q14 80 -33 80q-21 0 -42 -17t-44.5 -54.5t-46 -109t-39.5 -169.5l-7 -40h-128z" />
    <glyph glyph-name="Omacron" unicode="&#x14c;" horiz-adv-x="747" 
d="M318 739l17 95h279l-17 -95h-279zM342 -12q-138 0 -217.5 83t-79.5 208q0 105 47.5 196t138 147t203.5 56q141 0 217.5 -81t76.5 -207q0 -165 -107.5 -283.5t-278.5 -118.5zM356 92q104 0 165 88t61 208q0 81 -42.5 133.5t-119.5 52.5q-105 0 -166.5 -86.5t-61.5 -206.5
q0 -84 44.5 -136.5t119.5 -52.5z" />
    <glyph glyph-name="omacron" unicode="&#x14d;" horiz-adv-x="513" 
d="M171 562l17 95h279l-17 -95h-279zM217 -12q-91 0 -143 58.5t-52 144.5q0 126 80 217.5t196 91.5q89 0 141 -58t52 -145q0 -131 -77.5 -220t-196.5 -89zM228 85q61 0 96.5 65.5t35.5 144.5q0 108 -72 108q-59 0 -96 -65.5t-37 -143.5q0 -109 73 -109z" />
    <glyph glyph-name="Obreve" unicode="&#x14e;" horiz-adv-x="747" 
d="M342 -12q-138 0 -217.5 83t-79.5 208q0 105 47.5 196t138 147t203.5 56q141 0 217.5 -81t76.5 -207q0 -165 -107.5 -283.5t-278.5 -118.5zM356 92q104 0 165 88t61 208q0 81 -42.5 133.5t-119.5 52.5q-105 0 -166.5 -86.5t-61.5 -206.5q0 -84 44.5 -136.5t119.5 -52.5z
M457 712q-70 0 -112 39t-36 113h104q-7 -66 49 -66q53 0 67 66h109q-19 -79 -68 -115.5t-113 -36.5z" />
    <glyph glyph-name="obreve" unicode="&#x14f;" horiz-adv-x="513" 
d="M217 -12q-91 0 -143 58.5t-52 144.5q0 126 80 217.5t196 91.5q89 0 141 -58t52 -145q0 -131 -77.5 -220t-196.5 -89zM228 85q61 0 96.5 65.5t35.5 144.5q0 108 -72 108q-59 0 -96 -65.5t-37 -143.5q0 -109 73 -109zM311 535q-70 0 -112 39t-36 113h104q-7 -66 49 -66
q53 0 67 66h109q-19 -79 -68 -115.5t-113 -36.5z" />
    <glyph glyph-name="Ohungarumlaut" unicode="&#x150;" horiz-adv-x="747" 
d="M283 718l108 135h151l-153 -135h-106zM480 718l108 135h152l-154 -135h-106zM342 -12q-138 0 -217.5 83t-79.5 208q0 105 47.5 196t138 147t203.5 56q141 0 217.5 -81t76.5 -207q0 -165 -107.5 -283.5t-278.5 -118.5zM356 92q104 0 165 88t61 208q0 81 -42.5 133.5
t-119.5 52.5q-105 0 -166.5 -86.5t-61.5 -206.5q0 -84 44.5 -136.5t119.5 -52.5z" />
    <glyph glyph-name="ohungarumlaut" unicode="&#x151;" horiz-adv-x="513" 
d="M136 541l108 135h151l-153 -135h-106zM333 541l108 135h152l-154 -135h-106zM217 -12q-91 0 -143 58.5t-52 144.5q0 126 80 217.5t196 91.5q89 0 141 -58t52 -145q0 -131 -77.5 -220t-196.5 -89zM228 85q61 0 96.5 65.5t35.5 144.5q0 108 -72 108q-59 0 -96 -65.5
t-37 -143.5q0 -109 73 -109z" />
    <glyph glyph-name="OE" unicode="&#x152;" horiz-adv-x="928" 
d="M338 -12q-138 0 -215.5 83t-77.5 208q0 159 108.5 279t275.5 120q68 0 109 -12h420l-33 -188h-103q-2 33 6 84h-168l-31 -175h183l-18 -97h-182l-33 -186h175q8 48 23 84h102l-33 -188h-410q-45 -12 -98 -12zM351 96q50 0 96 27l75 423q-38 24 -95 24q-106 0 -170.5 -86
t-64.5 -203q0 -82 41 -133.5t118 -51.5z" />
    <glyph glyph-name="oe" unicode="&#x153;" horiz-adv-x="790" 
d="M217 -12q-91 0 -143 58.5t-52 144.5q0 126 79.5 217.5t195.5 91.5q97 0 149 -75q77 75 180 75q70 0 109 -33t39 -93q0 -157 -298 -192q5 -93 77 -93q67 0 126 51l48 -82q-87 -70 -196 -70q-98 0 -144 68q-70 -68 -170 -68zM228 85q60 0 96.5 66t36.5 144q0 108 -73 108
q-59 0 -97 -66.5t-38 -142.5q0 -50 19 -79.5t56 -29.5zM603 403q-45 0 -76 -41t-44 -101q77 8 122 34t45 64q0 44 -47 44z" />
    <glyph glyph-name="Racute" unicode="&#x154;" horiz-adv-x="641" 
d="M320 718l105 135h170l-160 -135h-115zM526 -9q-53 0 -79 17.5t-45 60.5l-57 126q-21 45 -39 63t-47 18h-15l-32 -183q37 -2 67 -9l-15 -84h-283l15 84q43 9 79 9l85 480q-41 0 -77 9l15 84h298q104 0 158.5 -42.5t54.5 -121.5q0 -90 -54.5 -140t-142.5 -63v-2
q41 -26 72 -88l36 -75q13 -27 31 -38.5t50 -11.5h9l-15 -84q-27 -9 -69 -9zM261 369h86q60 0 91 32t31 83q0 82 -97 82h-76z" />
    <glyph glyph-name="racute" unicode="&#x155;" horiz-adv-x="419" 
d="M228 541l105 135h170l-160 -135h-115zM37 0l72 397q-47 5 -74 5l15 84q82 7 203 7l-11 -54q-12 -61 -16 -74h2q68 135 160 135q34 0 55 -10l-43 -122q-25 9 -41 9q-127 0 -187 -337l-7 -40h-128z" />
    <glyph glyph-name="Rcommaaccent" unicode="&#x156;" horiz-adv-x="641" 
d="M296 -37q31 0 52 -18.5t21 -49.5q0 -74 -99 -138l-44 30q34 27 34 52q0 13 -14.5 31t-14.5 39q0 23 19 38.5t46 15.5zM526 -9q-53 0 -79 17.5t-45 60.5l-57 126q-21 45 -39 63t-47 18h-15l-32 -183q37 -2 67 -9l-15 -84h-283l15 84q43 9 79 9l85 480q-41 0 -77 9l15 84
h298q104 0 158.5 -42.5t54.5 -121.5q0 -90 -54.5 -140t-142.5 -63v-2q41 -26 72 -88l36 -75q13 -27 31 -38.5t50 -11.5h9l-15 -84q-27 -9 -69 -9zM261 369h86q60 0 91 32t31 83q0 82 -97 82h-76z" />
    <glyph glyph-name="rcommaaccent" unicode="&#x157;" horiz-adv-x="419" 
d="M92 -37q31 0 52 -18.5t21 -49.5q0 -74 -99 -138l-44 30q34 27 34 52q0 13 -14.5 31t-14.5 39q0 23 19 38.5t46 15.5zM37 0l72 397q-47 5 -74 5l15 84q82 7 203 7l-11 -54q-12 -61 -16 -74h2q68 135 160 135q34 0 55 -10l-43 -122q-25 9 -41 9q-127 0 -187 -337l-7 -40
h-128z" />
    <glyph glyph-name="Rcaron" unicode="&#x158;" horiz-adv-x="641" 
d="M334 718l-97 159h105l53 -67l78 67h113l-154 -159h-98zM526 -9q-53 0 -79 17.5t-45 60.5l-57 126q-21 45 -39 63t-47 18h-15l-32 -183q37 -2 67 -9l-15 -84h-283l15 84q43 9 79 9l85 480q-41 0 -77 9l15 84h298q104 0 158.5 -42.5t54.5 -121.5q0 -90 -54.5 -140
t-142.5 -63v-2q41 -26 72 -88l36 -75q13 -27 31 -38.5t50 -11.5h9l-15 -84q-27 -9 -69 -9zM261 369h86q60 0 91 32t31 83q0 82 -97 82h-76z" />
    <glyph glyph-name="rcaron" unicode="&#x159;" horiz-adv-x="419" 
d="M244 541l-97 159h105l53 -67l78 67h113l-154 -159h-98zM37 0l72 397q-47 5 -74 5l15 84q82 7 203 7l-11 -54q-12 -61 -16 -74h2q68 135 160 135q34 0 55 -10l-43 -122q-25 9 -41 9q-127 0 -187 -337l-7 -40h-128z" />
    <glyph glyph-name="Sacute" unicode="&#x15a;" horiz-adv-x="518" 
d="M277 718l105 135h170l-160 -135h-115zM215 -12q-73 0 -128.5 16.5t-82.5 39.5l28 157h103q0 -30 -10 -88q45 -20 102 -20q46 0 77.5 24t31.5 64q0 63 -86 101q-74 34 -99 54q-64 51 -64 144q0 90 67.5 144t173.5 54q68 0 122 -14t77 -31l-29 -163h-103q3 50 10 94
q-38 11 -76 11q-49 0 -78 -21.5t-29 -55.5q0 -37 22 -58.5t71 -43.5q28 -13 37.5 -17.5t34 -18.5t35.5 -26.5t26 -32t21 -44.5t6 -55q0 -97 -70 -155.5t-190 -58.5z" />
    <glyph glyph-name="sacute" unicode="&#x15b;" horiz-adv-x="449" 
d="M210 541l105 135h170l-160 -135h-115zM190 -13q-54 0 -107 13t-74 29l23 128h94q0 -25 -5 -63q31 -13 69 -13q35 0 56 15t21 38q0 15 -12.5 28.5t-23.5 19.5t-39 19q-28 12 -45.5 21t-39 26.5t-32.5 42.5t-11 58q0 70 54 110.5t147 40.5q113 0 168 -36l-23 -130h-94
q0 24 5 64q-21 9 -50 9q-33 0 -54 -13.5t-21 -34.5q0 -22 16.5 -35t51.5 -29q70 -32 93 -52q43 -38 43 -99q0 -73 -57 -115t-153 -42z" />
    <glyph glyph-name="Scircumflex" unicode="&#x15c;" horiz-adv-x="518" 
d="M159 719l152 159h99l94 -159h-104l-52 69l-75 -69h-114zM215 -12q-73 0 -128.5 16.5t-82.5 39.5l28 157h103q0 -30 -10 -88q45 -20 102 -20q46 0 77.5 24t31.5 64q0 63 -86 101q-74 34 -99 54q-64 51 -64 144q0 90 67.5 144t173.5 54q68 0 122 -14t77 -31l-29 -163h-103
q3 50 10 94q-38 11 -76 11q-49 0 -78 -21.5t-29 -55.5q0 -37 22 -58.5t71 -43.5q28 -13 37.5 -17.5t34 -18.5t35.5 -26.5t26 -32t21 -44.5t6 -55q0 -97 -70 -155.5t-190 -58.5z" />
    <glyph glyph-name="scircumflex" unicode="&#x15d;" horiz-adv-x="449" 
d="M95 542l152 159h99l94 -159h-104l-52 69l-75 -69h-114zM190 -13q-54 0 -107 13t-74 29l23 128h94q0 -25 -5 -63q31 -13 69 -13q35 0 56 15t21 38q0 15 -12.5 28.5t-23.5 19.5t-39 19q-28 12 -45.5 21t-39 26.5t-32.5 42.5t-11 58q0 70 54 110.5t147 40.5q113 0 168 -36
l-23 -130h-94q0 24 5 64q-21 9 -50 9q-33 0 -54 -13.5t-21 -34.5q0 -22 16.5 -35t51.5 -29q70 -32 93 -52q43 -38 43 -99q0 -73 -57 -115t-153 -42z" />
    <glyph glyph-name="Scedilla" unicode="&#x15e;" horiz-adv-x="518" 
d="M215 -12q-73 0 -128.5 16.5t-82.5 39.5l28 157h103q0 -30 -10 -88q45 -20 102 -20q46 0 77.5 24t31.5 64q0 63 -86 101q-74 34 -99 54q-64 51 -64 144q0 90 67.5 144t173.5 54q68 0 122 -14t77 -31l-29 -163h-103q3 50 10 94q-38 11 -76 11q-49 0 -78 -21.5t-29 -55.5
q0 -37 22 -58.5t71 -43.5q28 -13 37.5 -17.5t34 -18.5t35.5 -26.5t26 -32t21 -44.5t6 -55q0 -97 -70 -155.5t-190 -58.5zM177 -230q-55 0 -83 15l22 59q22 -10 47 -10q47 0 47 35q0 43 -71 37l36 97h77l-22 -58q72 -15 72 -81q0 -42 -34 -68t-91 -26z" />
    <glyph glyph-name="scedilla" unicode="&#x15f;" horiz-adv-x="449" 
d="M190 -13q-54 0 -107 13t-74 29l23 128h94q0 -25 -5 -63q31 -13 69 -13q35 0 56 15t21 38q0 15 -12.5 28.5t-23.5 19.5t-39 19q-28 12 -45.5 21t-39 26.5t-32.5 42.5t-11 58q0 70 54 110.5t147 40.5q113 0 168 -36l-23 -130h-94q0 24 5 64q-21 9 -50 9q-33 0 -54 -13.5
t-21 -34.5q0 -22 16.5 -35t51.5 -29q70 -32 93 -52q43 -38 43 -99q0 -73 -57 -115t-153 -42zM149 -230q-55 0 -83 15l22 59q23 -10 47 -10q47 0 47 35q0 43 -71 37l36 97h77l-22 -58q72 -15 72 -81q0 -42 -34 -68t-91 -26z" />
    <glyph glyph-name="Scaron" unicode="&#x160;" horiz-adv-x="518" 
d="M290 718l-97 159h105l53 -67l78 67h113l-154 -159h-98zM215 -12q-73 0 -128.5 16.5t-82.5 39.5l28 157h103q0 -30 -10 -88q45 -20 102 -20q46 0 77.5 24t31.5 64q0 63 -86 101q-74 34 -99 54q-64 51 -64 144q0 90 67.5 144t173.5 54q68 0 122 -14t77 -31l-29 -163h-103
q3 50 10 94q-38 11 -76 11q-49 0 -78 -21.5t-29 -55.5q0 -37 22 -58.5t71 -43.5q28 -13 37.5 -17.5t34 -18.5t35.5 -26.5t26 -32t21 -44.5t6 -55q0 -97 -70 -155.5t-190 -58.5z" />
    <glyph glyph-name="scaron" unicode="&#x161;" horiz-adv-x="449" 
d="M226 541l-97 159h105l53 -67l78 67h113l-154 -159h-98zM190 -13q-54 0 -107 13t-74 29l23 128h94q0 -25 -5 -63q31 -13 69 -13q35 0 56 15t21 38q0 15 -12.5 28.5t-23.5 19.5t-39 19q-28 12 -45.5 21t-39 26.5t-32.5 42.5t-11 58q0 70 54 110.5t147 40.5q113 0 168 -36
l-23 -130h-94q0 24 5 64q-21 9 -50 9q-33 0 -54 -13.5t-21 -34.5q0 -22 16.5 -35t51.5 -29q70 -32 93 -52q43 -38 43 -99q0 -73 -57 -115t-153 -42z" />
    <glyph glyph-name="Tcommaaccent" unicode="&#x162;" horiz-adv-x="648" 
d="M134 0l15 84q43 9 79 9l84 469h-119q-17 -70 -28 -99h-103l37 203h600l-36 -203h-102q0 45 8 99h-118l-84 -469q43 0 77 -9l-15 -84h-295zM246 -230q-55 0 -83 15l22 59q23 -10 47 -10q47 0 47 35q0 43 -71 37l36 97h77l-22 -58q72 -15 72 -81q0 -42 -34 -68t-91 -26z
" />
    <glyph glyph-name="tcommaaccent" unicode="&#x163;" horiz-adv-x="369" 
d="M171 -12q-70 0 -95 41t-8 131l43 230h-78l17 97h79l23 125l136 37l-29 -162h122l-17 -97h-123l-41 -222q-14 -73 19 -73q23 0 74 33l40 -86q-74 -54 -162 -54zM139 -230q-55 0 -83 15l22 59q23 -10 47 -10q47 0 47 35q0 43 -71 37l36 97h77l-22 -58q72 -15 72 -81
q0 -42 -34 -68t-91 -26z" />
    <glyph glyph-name="Tcaron" unicode="&#x164;" horiz-adv-x="648" 
d="M360 718l-97 159h105l53 -67l78 67h113l-154 -159h-98zM134 0l15 84q43 9 79 9l84 469h-119q-17 -70 -28 -99h-103l37 203h600l-36 -203h-102q0 45 8 99h-118l-84 -469q43 0 77 -9l-15 -84h-295z" />
    <glyph glyph-name="tcaron" unicode="&#x165;" horiz-adv-x="369" 
d="M297 545l59 175h134l-101 -175h-92zM171 -12q-70 0 -95 41t-8 131l43 230h-78l17 97h79l23 125l136 37l-29 -162h122l-17 -97h-123l-41 -222q-14 -73 19 -73q23 0 74 33l40 -86q-74 -54 -162 -54z" />
    <glyph glyph-name="Utilde" unicode="&#x168;" horiz-adv-x="727" 
d="M346 -12q-127 0 -190.5 55t-63.5 156q0 31 6 66l54 308q-34 0 -68 9l15 84h281l-15 -84q-38 -9 -74 -9l-54 -303q-16 -88 12.5 -128t106.5 -40q74 0 112.5 39t53.5 124l54 308q-36 0 -72 9l16 84h259l-15 -84q-38 -9 -71 -9l-56 -317q-24 -134 -94 -201t-197 -67z
M514 723q-31 0 -63 17.5t-50 17.5q-25 0 -57 -29l-48 52q53 75 119 75q31 0 62.5 -17.5t49.5 -17.5q31 0 59 30l49 -52q-21 -30 -53.5 -53t-67.5 -23z" />
    <glyph glyph-name="utilde" unicode="&#x169;" horiz-adv-x="573" 
d="M166 -13q-53 0 -80.5 32.5t-27.5 93.5q0 26 6 59l41 225q-47 5 -73 5l15 84q82 7 204 7l-55 -315q-13 -80 32 -80q43 0 86.5 64.5t74.5 214.5l4 20q-47 5 -74 5l15 84q82 7 203 7l-44 -243q-14 -73 -24 -157q46 0 73 -9l-15 -84h-194q9 82 18 124h-2q-18 -30 -31.5 -48
t-36.5 -41.5t-52 -35.5t-63 -12zM389 546q-31 0 -63 17.5t-50 17.5q-25 0 -57 -29l-48 52q53 75 119 75q31 0 62.5 -17.5t49.5 -17.5q32 0 59 30l49 -52q-21 -30 -53.5 -53t-67.5 -23z" />
    <glyph glyph-name="Umacron" unicode="&#x16a;" horiz-adv-x="727" 
d="M346 -12q-127 0 -190.5 55t-63.5 156q0 31 6 66l54 308q-34 0 -68 9l15 84h281l-15 -84q-38 -9 -74 -9l-54 -303q-16 -88 12.5 -128t106.5 -40q74 0 112.5 39t53.5 124l54 308q-36 0 -72 9l16 84h259l-15 -84q-38 -9 -71 -9l-56 -317q-24 -134 -94 -201t-197 -67z
M320 739l17 95h279l-17 -95h-279z" />
    <glyph glyph-name="umacron" unicode="&#x16b;" horiz-adv-x="573" 
d="M166 -13q-53 0 -80.5 32.5t-27.5 93.5q0 26 6 59l41 225q-47 5 -73 5l15 84q82 7 204 7l-55 -315q-13 -80 32 -80q43 0 86.5 64.5t74.5 214.5l4 20q-47 5 -74 5l15 84q82 7 203 7l-44 -243q-14 -73 -24 -157q46 0 73 -9l-15 -84h-194q9 82 18 124h-2q-18 -30 -31.5 -48
t-36.5 -41.5t-52 -35.5t-63 -12zM194 562l17 95h279l-17 -95h-279z" />
    <glyph glyph-name="Ubreve" unicode="&#x16c;" horiz-adv-x="727" 
d="M346 -12q-127 0 -190.5 55t-63.5 156q0 31 6 66l54 308q-34 0 -68 9l15 84h281l-15 -84q-38 -9 -74 -9l-54 -303q-16 -88 12.5 -128t106.5 -40q74 0 112.5 39t53.5 124l54 308q-36 0 -72 9l16 84h259l-15 -84q-38 -9 -71 -9l-56 -317q-24 -134 -94 -201t-197 -67z
M459 712q-70 0 -112 39t-36 113h104q-7 -66 49 -66q53 0 67 66h109q-19 -79 -68 -115.5t-113 -36.5z" />
    <glyph glyph-name="ubreve" unicode="&#x16d;" horiz-adv-x="573" 
d="M166 -13q-53 0 -80.5 32.5t-27.5 93.5q0 26 6 59l41 225q-47 5 -73 5l15 84q82 7 204 7l-55 -315q-13 -80 32 -80q43 0 86.5 64.5t74.5 214.5l4 20q-47 5 -74 5l15 84q82 7 203 7l-44 -243q-14 -73 -24 -157q46 0 73 -9l-15 -84h-194q9 82 18 124h-2q-18 -30 -31.5 -48
t-36.5 -41.5t-52 -35.5t-63 -12zM334 535q-70 0 -112 39t-36 113h104q-7 -66 49 -66q53 0 67 66h109q-19 -79 -68 -115.5t-113 -36.5z" />
    <glyph glyph-name="Uring" unicode="&#x16e;" horiz-adv-x="727" 
d="M471 716q-43 0 -75.5 30.5t-32.5 75.5t32.5 76t75.5 31t75.5 -30.5t32.5 -75.5q0 -46 -32.5 -76.5t-75.5 -30.5zM471 772q21 0 33 15t12 36q0 22 -12 36t-33 14t-33 -14t-12 -36q0 -21 12.5 -36t32.5 -15zM346 -12q-127 0 -190.5 55t-63.5 156q0 31 6 66l54 308
q-34 0 -68 9l15 84h281l-15 -84q-38 -9 -74 -9l-54 -303q-16 -88 12.5 -128t106.5 -40q74 0 112.5 39t53.5 124l54 308q-36 0 -72 9l16 84h259l-15 -84q-38 -9 -71 -9l-56 -317q-24 -134 -94 -201t-197 -67z" />
    <glyph glyph-name="uring" unicode="&#x16f;" horiz-adv-x="573" 
d="M346 539q-43 0 -75.5 30.5t-32.5 75.5t32.5 76t75.5 31t75.5 -30.5t32.5 -75.5q0 -46 -32.5 -76.5t-75.5 -30.5zM346 595q21 0 33 15t12 36q0 22 -12 36t-33 14t-33 -14t-12 -36q0 -21 12.5 -36t32.5 -15zM166 -13q-53 0 -80.5 32.5t-27.5 93.5q0 26 6 59l41 225
q-47 5 -73 5l15 84q82 7 204 7l-55 -315q-13 -80 32 -80q43 0 86.5 64.5t74.5 214.5l4 20q-47 5 -74 5l15 84q82 7 203 7l-44 -243q-14 -73 -24 -157q46 0 73 -9l-15 -84h-194q9 82 18 124h-2q-18 -30 -31.5 -48t-36.5 -41.5t-52 -35.5t-63 -12z" />
    <glyph glyph-name="Uhungarumlaut" unicode="&#x170;" horiz-adv-x="727" 
d="M346 -12q-127 0 -190.5 55t-63.5 156q0 31 6 66l54 308q-34 0 -68 9l15 84h281l-15 -84q-38 -9 -74 -9l-54 -303q-16 -88 12.5 -128t106.5 -40q74 0 112.5 39t53.5 124l54 308q-36 0 -72 9l16 84h259l-15 -84q-38 -9 -71 -9l-56 -317q-24 -134 -94 -201t-197 -67z
M285 718l108 135h151l-153 -135h-106zM482 718l108 135h152l-154 -135h-106z" />
    <glyph glyph-name="uhungarumlaut" unicode="&#x171;" horiz-adv-x="573" 
d="M166 -13q-53 0 -80.5 32.5t-27.5 93.5q0 26 6 59l41 225q-47 5 -73 5l15 84q82 7 204 7l-55 -315q-13 -80 32 -80q43 0 86.5 64.5t74.5 214.5l4 20q-47 5 -74 5l15 84q82 7 203 7l-44 -243q-14 -73 -24 -157q46 0 73 -9l-15 -84h-194q9 82 18 124h-2q-18 -30 -31.5 -48
t-36.5 -41.5t-52 -35.5t-63 -12zM160 541l108 135h151l-153 -135h-106zM357 541l108 135h152l-154 -135h-106z" />
    <glyph glyph-name="Uogonek" unicode="&#x172;" horiz-adv-x="727" 
d="M362 -230q-50 0 -78 22.5t-28 61.5q0 75 83 134q-123 2 -185 56t-62 154q0 31 6 67l54 308q-34 0 -68 9l15 84h281l-15 -84q-38 -9 -74 -9l-54 -303q-16 -88 12.5 -128t106.5 -40q74 0 112.5 39t53.5 124l54 308q-36 0 -72 9l16 84h259l-15 -84q-38 -9 -71 -9l-56 -317
q-31 -178 -175 -248q-50 -24 -80 -58t-30 -72q0 -37 40 -37q27 0 42 7l10 -60q-34 -18 -82 -18z" />
    <glyph glyph-name="uogonek" unicode="&#x173;" horiz-adv-x="573" 
d="M403 -230q-50 0 -78 22.5t-28 61.5q0 76 95 146h75q-75 -75 -75 -124q0 -35 41 -35q27 0 42 7l10 -60q-34 -18 -82 -18zM166 -13q-53 0 -80.5 32.5t-27.5 93.5q0 26 6 59l41 225q-47 5 -73 5l15 84q82 7 204 7l-55 -315q-13 -80 32 -80q43 0 86.5 64.5t74.5 214.5l4 20
q-47 5 -74 5l15 84q82 7 203 7l-44 -243q-14 -73 -24 -157q46 0 73 -9l-15 -84h-194q9 82 18 124h-2q-18 -30 -31.5 -48t-36.5 -41.5t-52 -35.5t-63 -12z" />
    <glyph glyph-name="Ydieresis" unicode="&#x178;" horiz-adv-x="622" 
d="M126 0l14 84q43 9 79 9l28 155l-118 325q-38 2 -66 9l15 84h263l-15 -84q-6 -1 -56 -8l70 -208h1l138 208q-52 7 -54 8l15 84h253l-15 -84q-28 -6 -64 -8l-228 -325l-28 -156q43 0 77 -9l-14 -84h-295zM299 722q-32 0 -52 19.5t-20 49.5t20 49.5t52 19.5t51.5 -19.5
t19.5 -49.5q0 -29 -20 -49t-51 -20zM507 722q-32 0 -51.5 19.5t-19.5 49.5t19.5 49.5t51.5 19.5t52 -19.5t20 -49.5t-20 -49.5t-52 -19.5z" />
    <glyph glyph-name="Zacute" unicode="&#x179;" horiz-adv-x="574" 
d="M309 718l105 135h170l-160 -135h-115zM-15 0l17 92l410 468h-205q-19 -75 -27 -98h-103l37 204h491l-17 -90l-412 -470h231q19 75 27 98h104l-37 -204h-516z" />
    <glyph glyph-name="zacute" unicode="&#x17a;" horiz-adv-x="508" 
d="M241 541l105 135h170l-160 -135h-115zM-1 0l12 72l302 320h-132q-8 -39 -19 -63h-100l28 158h416l-13 -77l-298 -314h154q10 45 18 63h100l-29 -159h-439z" />
    <glyph glyph-name="Zdotaccent" unicode="&#x17b;" horiz-adv-x="574" 
d="M-15 0l17 92l410 468h-205q-19 -75 -27 -98h-103l37 204h491l-17 -90l-412 -470h231q19 75 27 98h104l-37 -204h-516zM380 732q-32 0 -53 21t-21 51t21 51t53 21t53 -21t21 -51t-21 -51t-53 -21z" />
    <glyph glyph-name="zdotaccent" unicode="&#x17c;" horiz-adv-x="508" 
d="M-1 0l12 72l302 320h-132q-8 -39 -19 -63h-100l28 158h416l-13 -77l-298 -314h154q10 45 18 63h100l-29 -159h-439zM314 555q-32 0 -53 21t-21 51t21 51t53 21t53 -21t21 -51t-21 -51t-53 -21z" />
    <glyph glyph-name="Zcaron" unicode="&#x17d;" horiz-adv-x="574" 
d="M323 718l-97 159h105l53 -67l78 67h113l-154 -159h-98zM-15 0l17 92l410 468h-205q-19 -75 -27 -98h-103l37 204h491l-17 -90l-412 -470h231q19 75 27 98h104l-37 -204h-516z" />
    <glyph glyph-name="zcaron" unicode="&#x17e;" horiz-adv-x="508" 
d="M250 541l-97 159h105l53 -67l78 67h113l-154 -159h-98zM-1 0l12 72l302 320h-132q-8 -39 -19 -63h-100l28 158h416l-13 -77l-298 -314h154q10 45 18 63h100l-29 -159h-439z" />
    <glyph glyph-name="Scommaaccent" unicode="&#x218;" horiz-adv-x="518" 
d="M212 -37q31 0 52 -18.5t21 -49.5q0 -74 -99 -138l-44 30q34 27 34 52q0 13 -14.5 31t-14.5 39q0 23 19 38.5t46 15.5zM215 -12q-73 0 -128.5 16.5t-82.5 39.5l28 157h103q0 -30 -10 -88q45 -20 102 -20q46 0 77.5 24t31.5 64q0 63 -86 101q-74 34 -99 54q-64 51 -64 144
q0 90 67.5 144t173.5 54q68 0 122 -14t77 -31l-29 -163h-103q3 50 10 94q-38 11 -76 11q-49 0 -78 -21.5t-29 -55.5q0 -37 22 -58.5t71 -43.5q28 -13 37.5 -17.5t34 -18.5t35.5 -26.5t26 -32t21 -44.5t6 -55q0 -97 -70 -155.5t-190 -58.5z" />
    <glyph glyph-name="scommaaccent" unicode="&#x219;" horiz-adv-x="449" 
d="M174 -37q31 0 52 -18.5t21 -49.5q0 -74 -99 -138l-44 30q34 27 34 52q0 13 -14.5 31t-14.5 39q0 23 19 38.5t46 15.5zM190 -13q-54 0 -107 13t-74 29l23 128h94q0 -25 -5 -63q31 -13 69 -13q35 0 56 15t21 38q0 15 -12.5 28.5t-23.5 19.5t-39 19q-28 12 -45.5 21
t-39 26.5t-32.5 42.5t-11 58q0 70 54 110.5t147 40.5q113 0 168 -36l-23 -130h-94q0 24 5 64q-21 9 -50 9q-33 0 -54 -13.5t-21 -34.5q0 -22 16.5 -35t51.5 -29q70 -32 93 -52q43 -38 43 -99q0 -73 -57 -115t-153 -42z" />
    <glyph glyph-name="uni021A" unicode="&#x21a;" horiz-adv-x="648" 
d="M271 -37q31 0 52 -18.5t21 -49.5q0 -74 -99 -138l-44 30q34 27 34 52q0 13 -14.5 31t-14.5 39q0 23 19 38.5t46 15.5zM134 0l15 84q43 9 79 9l84 469h-119q-17 -70 -28 -99h-103l37 203h600l-36 -203h-102q0 45 8 99h-118l-84 -469q43 0 77 -9l-15 -84h-295z" />
    <glyph glyph-name="uni021B" unicode="&#x21b;" horiz-adv-x="369" 
d="M165 -37q31 0 52 -18.5t21 -49.5q0 -74 -99 -138l-44 30q34 27 34 52q0 13 -14.5 31t-14.5 39q0 23 19 38.5t46 15.5zM171 -12q-70 0 -95 41t-8 131l43 230h-78l17 97h79l23 125l136 37l-29 -162h122l-17 -97h-123l-41 -222q-14 -73 19 -73q23 0 74 33l40 -86
q-74 -54 -162 -54z" />
    <glyph glyph-name="circumflex" unicode="&#x2c6;" horiz-adv-x="500" 
d="M127 542l152 159h99l94 -159h-104l-52 69l-75 -69h-114z" />
    <glyph glyph-name="caron" unicode="&#x2c7;" horiz-adv-x="500" 
d="M250 541l-97 159h105l53 -67l78 67h113l-154 -159h-98z" />
    <glyph glyph-name="breve" unicode="&#x2d8;" horiz-adv-x="500" 
d="M300 535q-70 0 -112 39t-36 113h104q-7 -66 49 -66q53 0 67 66h109q-19 -79 -68 -115.5t-113 -36.5z" />
    <glyph glyph-name="dotaccent" unicode="&#x2d9;" horiz-adv-x="500" 
d="M317 555q-32 0 -53 21t-21 51t21 51t53 21t53 -21t21 -51t-21 -51t-53 -21z" />
    <glyph glyph-name="ring" unicode="&#x2da;" horiz-adv-x="494" 
d="M318 539q-43 0 -75.5 30.5t-32.5 75.5t32.5 76t75.5 31t75.5 -30.5t32.5 -75.5q0 -46 -32.5 -76.5t-75.5 -30.5zM318 595q21 0 33 15t12 36q0 22 -12 36t-33 14t-33 -14t-12 -36q0 -21 12.5 -36t32.5 -15z" />
    <glyph glyph-name="ogonek" unicode="&#x2db;" horiz-adv-x="500" 
d="M174 -230q-50 0 -78 22.5t-28 61.5q0 76 95 146h75q-75 -75 -75 -124q0 -35 41 -35q27 0 42 7l10 -60q-34 -18 -82 -18z" />
    <glyph glyph-name="tilde" unicode="&#x2dc;" horiz-adv-x="500" 
d="M361 546q-31 0 -63 17.5t-50 17.5q-25 0 -57 -29l-48 52q53 75 119 75q31 0 62.5 -17.5t49.5 -17.5q32 0 59 30l49 -52q-21 -30 -53.5 -53t-67.5 -23z" />
    <glyph glyph-name="hungarumlaut" unicode="&#x2dd;" horiz-adv-x="500" 
d="M64 541l108 135h151l-153 -135h-106zM261 541l108 135h152l-154 -135h-106z" />
    <glyph glyph-name="uni0394" unicode="&#x394;" horiz-adv-x="653" 
d="M-4 0l13 72l319 594h131l124 -594l-13 -72h-574zM170 116h265l-53 283q-14 80 -14 115h-2q-25 -66 -51 -115z" />
    <glyph glyph-name="uni03A9" unicode="&#x3a9;" horiz-adv-x="756" 
d="M-1 0l20 109h121q-82 73 -82 189q0 162 111 271t262 109q124 0 207 -73.5t83 -189.5q0 -98 -45 -178.5t-117 -127.5h135l-20 -109h-294l19 103q79 33 130.5 112t51.5 179q0 72 -44 121t-116 49q-101 0 -163.5 -82.5t-62.5 -192.5q0 -116 93 -186l-19 -103h-270z" />
    <glyph glyph-name="uni03BC" unicode="&#x3bc;" horiz-adv-x="547" 
d="M-15 -218l126 705h129l-56 -314q-14 -74 50 -74q54 0 104 61l60 327h129l-63 -348q-17 -80 -12 -139h-128q-6 31 1 66q-58 -71 -143 -71q-23 0 -35 12h-1q0 -52 -14 -120l-19 -105h-128z" />
    <glyph glyph-name="uni1E9E" unicode="&#x1e9e;" horiz-adv-x="772" 
d="M-26 0l15 84q34 9 80 9l51 283q27 155 123 228.5t247 73.5t278 -33l-12 -71l-154 -195l21 -14q106 -70 106 -172q0 -89 -68 -147t-180 -58q-108 0 -182 36l42 101q66 -32 138 -32q55 0 83.5 22.5t28.5 60.5q0 29 -19.5 53t-70.5 57l-81 51l179 226q-57 12 -125 12
q-89 0 -143 -47.5t-72 -151.5l-50 -283q35 0 71 -9l-15 -84h-291z" />
    <glyph glyph-name="uni2007" unicode="&#x2007;" 
 />
    <glyph glyph-name="uni2008" unicode="&#x2008;" horiz-adv-x="282" 
 />
    <glyph glyph-name="uni200B" unicode="&#x200b;" horiz-adv-x="0" 
 />
    <glyph glyph-name="endash" unicode="&#x2013;" horiz-adv-x="559" 
d="M43 229l17 95h466l-16 -95h-467z" />
    <glyph glyph-name="emdash" unicode="&#x2014;" horiz-adv-x="876" 
d="M43 229l17 95h782l-16 -95h-783z" />
    <glyph glyph-name="quoteleft" unicode="&#x2018;" horiz-adv-x="234" 
d="M160 382q-37 0 -59.5 25t-22.5 66q0 100 133 217l46 -42q-54 -56 -54 -95q0 -18 17 -45t17 -52q0 -32 -22 -53t-55 -21z" />
    <glyph glyph-name="quoteright" unicode="&#x2019;" horiz-adv-x="234" 
d="M128 371l-46 42q54 54 54 95q0 18 -17 45t-17 52q0 32 22 52.5t55 20.5q37 0 59.5 -24.5t22.5 -66.5q0 -99 -133 -216z" />
    <glyph glyph-name="quotesinglbase" unicode="&#x201a;" horiz-adv-x="236" 
d="M31 -156l-46 42q54 54 54 95q0 18 -17 45t-17 52q0 32 22 52.5t55 20.5q37 0 59.5 -24.5t22.5 -66.5q0 -99 -133 -216z" />
    <glyph glyph-name="quotedblleft" unicode="&#x201c;" horiz-adv-x="445" 
d="M160 382q-37 0 -59.5 25t-22.5 66q0 100 133 217l46 -42q-54 -56 -54 -95q0 -18 17 -45t17 -52q0 -32 -22 -53t-55 -21zM371 382q-37 0 -59.5 25t-22.5 66q0 100 133 217l46 -42q-54 -56 -54 -95q0 -18 17 -45t17 -52q0 -32 -22 -53t-55 -21z" />
    <glyph glyph-name="quotedblright" unicode="&#x201d;" horiz-adv-x="445" 
d="M128 371l-46 42q54 54 54 95q0 18 -17 45t-17 52q0 32 22 52.5t55 20.5q37 0 59.5 -24.5t22.5 -66.5q0 -99 -133 -216zM339 371l-46 42q54 54 54 95q0 18 -17 45t-17 52q0 32 22 52.5t55 20.5q37 0 59.5 -24.5t22.5 -66.5q0 -99 -133 -216z" />
    <glyph glyph-name="quotedblbase" unicode="&#x201e;" horiz-adv-x="447" 
d="M31 -156l-46 42q54 54 54 95q0 18 -17 45t-17 52q0 32 22 52.5t55 20.5q37 0 59.5 -24.5t22.5 -66.5q0 -99 -133 -216zM242 -156l-46 42q54 54 54 95q0 18 -17 45t-17 52q0 32 22 52.5t55 20.5q37 0 59.5 -24.5t22.5 -66.5q0 -99 -133 -216z" />
    <glyph glyph-name="bullet" unicode="&#x2022;" horiz-adv-x="477" 
d="M241 111q-72 0 -123 52t-51 124q0 73 51 125t123 52q73 0 123.5 -51.5t50.5 -125.5q0 -72 -51 -124t-123 -52z" />
    <glyph glyph-name="ellipsis" unicode="&#x2026;" horiz-adv-x="756" 
d="M118 -10q-37 0 -62.5 24.5t-25.5 60.5q0 35 25.5 59t62.5 24q35 0 60.5 -24.5t25.5 -58.5q0 -36 -25 -60.5t-61 -24.5zM355 -10q-37 0 -62.5 24.5t-25.5 60.5q0 35 25.5 59t62.5 24q35 0 60.5 -24.5t25.5 -58.5q0 -36 -25 -60.5t-61 -24.5zM592 -10q-37 0 -62.5 24.5
t-25.5 60.5q0 35 25.5 59t62.5 24q35 0 60.5 -24.5t25.5 -58.5q0 -36 -25 -60.5t-61 -24.5z" />
    <glyph glyph-name="guilsinglleft" unicode="&#x2039;" horiz-adv-x="310" 
d="M111 53l-84 190l151 195h139l-155 -199l80 -186h-131z" />
    <glyph glyph-name="guilsinglright" unicode="&#x203a;" horiz-adv-x="310" 
d="M-4 53l154 199l-80 186h131l84 -191l-149 -194h-140z" />
    <glyph glyph-name="Euro" unicode="&#x20ac;" horiz-adv-x="582" 
d="M339 -12q-112 0 -173 61.5t-71 165.5h-72l14 81h56q3 35 9 68h-53l14 81h62q39 107 124 170t199 63q108 0 169 -43l-66 -97q-46 30 -112 30q-113 0 -167 -123h171l-14 -81h-184q-7 -33 -9 -68h181l-14 -81h-164q18 -116 125 -116q57 0 122 44l39 -100q-79 -55 -186 -55z
" />
    <glyph glyph-name="trademark" unicode="&#x2122;" horiz-adv-x="787" 
d="M338 370l10 52q10 4 36 6l56 180q-24 2 -34 6l9 52h127l27 -145q4 -24 7 -60h2q22 48 29 60l77 145h129l-9 -52q-12 -4 -36 -6l-6 -180q23 -2 33 -6l-9 -52h-139l9 51q2 0 10 1.5t12 1.5l5 75q3 45 5 54h-2q-15 -42 -27 -63l-65 -120h-72l-20 119q-6 41 -6 64h-2l-15 -55
l-21 -74q6 -1 13.5 -2t9.5 -1l-9 -51h-134zM102 370l10 52q14 5 48 7l30 169h-37q-9 -32 -17 -51h-57l21 119h286l-21 -119h-57q-3 28 1 51h-36l-30 -169q26 -2 46 -7l-10 -52h-177z" />
    <glyph glyph-name="Omega" unicode="&#x2126;" horiz-adv-x="756" 
d="M-1 0l20 109h121q-82 73 -82 189q0 162 111 271t262 109q124 0 207 -73.5t83 -189.5q0 -98 -45 -178.5t-117 -127.5h135l-20 -109h-294l19 103q79 33 130.5 112t51.5 179q0 72 -44 121t-116 49q-101 0 -163.5 -82.5t-62.5 -192.5q0 -116 93 -186l-19 -103h-270z" />
    <glyph glyph-name="increment" unicode="&#x2206;" horiz-adv-x="653" 
d="M-4 0l13 72l319 594h131l124 -594l-13 -72h-574zM170 116h265l-53 283q-14 80 -14 115h-2q-25 -66 -51 -115z" />
    <glyph glyph-name="f.sc" unicode="&#xa730;" horiz-adv-x="485" 
d="M-15 0l14 84q34 9 74 9l63 336q-43 0 -72 9l15 85h430l-27 -160h-94q-2 24 3 69h-124l-26 -137h154l-16 -86h-153l-22 -116q45 0 74 -9l-15 -84h-278z" />
    <glyph glyph-name="zero.osf" unicode="&#xeb00;" horiz-adv-x="557" 
d="M241 -12q-95 0 -151 60.5t-56 150.5q0 126 83 213.5t205 87.5q98 0 151.5 -59.5t53.5 -151.5q0 -130 -80 -215.5t-206 -85.5zM255 87q65 0 102.5 59.5t37.5 141.5q0 50 -21 81.5t-65 31.5q-61 0 -100.5 -58t-39.5 -138q0 -55 22.5 -86.5t63.5 -31.5z" />
    <glyph glyph-name="one.osf" unicode="&#xeb01;" horiz-adv-x="437" 
d="M22 0l14 84q38 9 121 9l52 284l-117 -36l-22 97l191 49h96l-71 -394q75 0 111 -9l-14 -84h-361z" />
    <glyph glyph-name="two.osf" unicode="&#xeb02;" horiz-adv-x="501" 
d="M-6 0l10 64q73 46 116 75t91.5 67t71 71t22.5 63q0 57 -71 57q-56 0 -116 -42l-51 82q87 63 194 63q90 0 137.5 -34.5t47.5 -100.5q0 -34 -15.5 -67t-38 -59.5t-57.5 -54.5t-64 -46.5t-68 -41.5q34 2 64 2l176 1l-17 -99h-432z" />
    <glyph glyph-name="three.osf" unicode="&#xeb03;" horiz-adv-x="462" 
d="M76 -188q-60 0 -109 13l29 99q28 -10 83 -10q77 0 123.5 33t46.5 92q0 95 -156 90l16 90q70 3 123 33t53 83q0 29 -19.5 45.5t-57.5 16.5q-57 0 -107 -35l-52 82q78 56 192 56q85 0 132.5 -39.5t47.5 -99.5q0 -68 -50.5 -113.5t-114.5 -61.5v-1q56 -11 95 -48t39 -96
q0 -106 -87.5 -167.5t-226.5 -61.5z" />
    <glyph glyph-name="four.osf" unicode="&#xeb04;" horiz-adv-x="581" 
d="M256 -177l32 177h-304l12 76l396 411h114l-71 -390h102l-17 -97h-102l-32 -177h-130zM142 97h163l45 223h-2z" />
    <glyph glyph-name="five.osf" unicode="&#xeb05;" horiz-adv-x="459" 
d="M80 -188q-60 0 -112 14l30 99q33 -12 86 -12q73 0 119.5 35t46.5 100q0 114 -180 114q-13 0 -16 -1l65 326h329l-18 -99h-209l-28 -134q86 -6 143 -59t57 -135q0 -121 -87.5 -184.5t-225.5 -63.5z" />
    <glyph glyph-name="six.osf" unicode="&#xeb06;" horiz-adv-x="548" 
d="M259 -12q-107 0 -162 65.5t-55 179.5q0 90 34.5 171t96.5 142t154.5 96.5t201.5 35.5l12 -101q-65 0 -129.5 -18.5t-109.5 -50.5q-73 -52 -105 -148q58 47 137 47q80 0 129.5 -46.5t49.5 -126.5q0 -110 -75 -178t-179 -68zM266 84q49 0 81 39.5t32 99.5q0 87 -86 87
q-66 0 -115 -43q-3 -45 -3 -49q0 -64 23.5 -99t67.5 -35z" />
    <glyph glyph-name="seven.osf" unicode="&#xeb07;" horiz-adv-x="520" 
d="M149 -195l-102 58l332 524h-209q-2 -13 -6 -26l-7 -28q-6 -28 -13 -42h-99l34 196h456l-12 -72z" />
    <glyph glyph-name="eight.osf" unicode="&#xeb08;" horiz-adv-x="533" 
d="M227 -12q-98 0 -153 45t-55 113q0 123 164 196q-88 66 -88 146q0 84 68.5 137t164.5 53q90 0 143 -42.5t53 -107.5q0 -109 -151 -175q110 -70 110 -158q0 -97 -74 -152t-182 -55zM235 82q48 0 79 28t31 71q0 31 -21 55.5t-66 52.5q-106 -54 -106 -130q0 -34 22.5 -55.5
t60.5 -21.5zM318 585q-39 0 -64 -23.5t-25 -62.5q0 -50 68 -96q93 51 93 114q0 29 -19 48.5t-53 19.5z" />
    <glyph glyph-name="nine.osf" unicode="&#xeb09;" horiz-adv-x="538" 
d="M14 -183l-12 99q140 0 234 63q80 55 110 145q-61 -41 -127 -41q-84 0 -132 47t-48 126q0 112 76.5 178t179.5 66q106 0 158 -62t52 -163q0 -206 -132.5 -332t-358.5 -126zM259 177q55 0 107 39q6 31 6 66q0 58 -22 90.5t-64 32.5q-46 0 -79.5 -37.5t-33.5 -95.5
q0 -44 22.5 -69.5t63.5 -25.5z" />
    <glyph glyph-name="zero.lf" unicode="&#xeb0a;" horiz-adv-x="601" 
d="M264 -12q-113 0 -166.5 72.5t-53.5 187.5q0 76 20 150t58 137.5t102 103t144 39.5q114 0 167.5 -71.5t53.5 -185.5q0 -82 -20.5 -158t-59.5 -138t-102.5 -99.5t-142.5 -37.5zM277 94q53 0 94 51.5t60.5 126.5t19.5 157q0 143 -96 143q-42 0 -76.5 -31t-55 -80.5
t-31.5 -106.5t-11 -113q0 -147 96 -147z" />
    <glyph glyph-name="one.lf" unicode="&#xeb0b;" horiz-adv-x="464" 
d="M16 0l16 93q52 10 127 10l77 446l-114 -34l-28 101l191 50h102l-97 -563q83 0 131 -10l-16 -93h-389z" />
    <glyph glyph-name="two.lf" unicode="&#xeb0c;" horiz-adv-x="532" 
d="M-15 0l12 72q92 72 145 118t107.5 102.5t79 105t24.5 95.5q0 37 -22 57t-58 20q-66 0 -137 -57l-60 82q96 83 223 83q98 0 149 -44.5t51 -121.5q0 -54 -24.5 -107.5t-74.5 -107t-97.5 -95t-120.5 -98.5q28 3 76 3h118q16 60 22 78h102l-32 -185h-483z" />
    <glyph glyph-name="three.lf" unicode="&#xeb0d;" horiz-adv-x="478" 
d="M109 -12q-77 0 -113 14l36 105q33 -12 86 -12q80 0 124 30t44 89q0 94 -163 88l15 91q88 7 135 37t47 80q0 28 -19 44t-55 16q-67 0 -119 -32l-43 84q82 56 196 56q89 0 135 -37.5t46 -98.5q0 -68 -46.5 -112t-117.5 -64v-1q54 -9 92.5 -47t38.5 -96q0 -110 -83.5 -172
t-235.5 -62z" />
    <glyph glyph-name="four.lf" unicode="&#xeb0e;" horiz-adv-x="576" 
d="M285 0l24 138h-301l15 90l384 438h123l-74 -424h96l-18 -104h-96l-23 -138h-130zM369 488l-212 -249q24 3 73 3h98l43 246h-2z" />
    <glyph glyph-name="five.lf" unicode="&#xeb0f;" horiz-adv-x="461" 
d="M97 -12q-56 0 -104 13l31 107q24 -13 83 -13q82 0 127.5 34.5t45.5 99.5q0 98 -142 98q-38 0 -68 -6l67 345h328l-18 -107h-210l-25 -129q95 -4 152.5 -53t57.5 -131q0 -125 -84.5 -191.5t-240.5 -66.5z" />
    <glyph glyph-name="six.lf" unicode="&#xeb10;" horiz-adv-x="547" 
d="M262 -12q-112 0 -166 66.5t-54 167.5q0 200 137 328t340 128l15 -108q-148 0 -247 -83q-59 -53 -86 -123q57 50 134 50q82 0 131 -46.5t49 -128.5q0 -110 -72.5 -180.5t-180.5 -70.5zM266 90q52 0 82.5 40t30.5 97q0 42 -21.5 64t-60.5 22q-68 0 -118 -45q-3 -26 -3 -54
q0 -124 90 -124z" />
    <glyph glyph-name="seven.lf" unicode="&#xeb11;" horiz-adv-x="489" 
d="M183 -29l-109 47l288 537h-176q-11 -56 -22 -82h-97l33 193h429l-12 -73z" />
    <glyph glyph-name="eight.lf" unicode="&#xeb12;" horiz-adv-x="517" 
d="M227 -12q-100 0 -155.5 44t-55.5 112q0 67 41.5 114t118.5 84q-83 62 -83 144q0 85 68 138.5t163 53.5q92 0 143.5 -39.5t51.5 -109.5q0 -102 -147 -176q104 -68 104 -157q0 -91 -66 -149.5t-183 -58.5zM234 88q47 0 75.5 26t28.5 67q0 31 -20 54.5t-65 51.5
q-52 -28 -77 -57.5t-25 -70.5q0 -32 21 -51.5t62 -19.5zM315 579q-38 0 -62 -23.5t-24 -59.5q0 -48 63 -91q93 51 93 112q0 62 -70 62z" />
    <glyph glyph-name="nine.lf" unicode="&#xeb13;" horiz-adv-x="546" 
d="M64 -18l-19 108q108 0 193 45q101 56 140 165q-56 -48 -134 -48q-81 0 -131.5 48t-50.5 129q0 110 78 179.5t182 69.5q110 0 163 -66.5t53 -165.5q0 -204 -125.5 -334t-348.5 -130zM285 353q64 0 116 44q2 18 2 27v28q0 124 -90 124q-50 0 -81.5 -41t-31.5 -95
q0 -87 85 -87z" />
    <glyph glyph-name="zero.tosf" unicode="&#xeb14;" 
d="M236 -12q-95 0 -149.5 60.5t-54.5 150.5q0 126 81.5 213.5t203.5 87.5q98 0 152.5 -59.5t54.5 -151.5q0 -130 -80.5 -215.5t-207.5 -85.5zM249 87q64 0 102.5 61.5t38.5 141.5q0 111 -85 111q-61 0 -100.5 -60t-39.5 -138q0 -116 84 -116z" />
    <glyph glyph-name="one.tosf" unicode="&#xeb15;" 
d="M48 0l16 90q42 9 145 9l49 271l-133 -36l-22 102l209 51h97l-70 -388q101 0 144 -9l-17 -90h-418z" />
    <glyph glyph-name="two.tosf" unicode="&#xeb16;" 
d="M12 0l10 62q173 108 218 143q105 79 105 136q0 55 -68 55q-75 0 -142 -48l-54 81q93 71 223 71q182 0 182 -135q0 -40 -23 -78.5t-68.5 -75t-79.5 -59t-89 -55.5q48 3 86 3h172l-17 -100h-455z" />
    <glyph glyph-name="three.tosf" unicode="&#xeb17;" 
d="M123 -188q-73 0 -134 18l31 99q41 -15 106 -15q78 0 128.5 32.5t50.5 91.5q0 33 -28 54.5t-66.5 29.5t-85.5 8l15 90q76 3 138 33.5t62 83.5q0 27 -20.5 42.5t-56.5 15.5q-70 0 -141 -49l-55 80q37 30 96.5 52t130.5 22q85 0 133.5 -39.5t48.5 -99.5q0 -69 -53.5 -113.5
t-119.5 -61.5v-1q56 -9 99 -48t43 -97q0 -107 -90 -167.5t-232 -60.5z" />
    <glyph glyph-name="four.tosf" unicode="&#xeb18;" 
d="M238 -177l32 177h-297l13 83l384 404h118l-71 -390h86l-16 -97h-87l-32 -177h-130zM124 97h163l45 227h-2z" />
    <glyph glyph-name="five.tosf" unicode="&#xeb19;" 
d="M117 -188q-76 0 -115 16l33 101q36 -14 87 -14q74 0 126 35t52 98q0 43 -32.5 70t-72.5 35.5t-87 8.5h-15q-7 0 -10 -1l64 326h347l-17 -99h-228l-27 -134q95 -6 158 -58.5t63 -135.5q0 -81 -46 -138.5t-118.5 -83.5t-161.5 -26z" />
    <glyph glyph-name="six.tosf" unicode="&#xeb1a;" 
d="M260 -12q-107 0 -161 65.5t-54 179.5q0 90 34 171t95.5 142t153.5 96.5t202 35.5l12 -101q-65 0 -129.5 -18.5t-109.5 -50.5q-72 -51 -104 -148q57 46 136 46q80 0 128.5 -45.5t48.5 -126.5q0 -110 -74 -178t-178 -68zM267 85q49 0 80 39t31 99q0 86 -85 86
q-65 0 -113 -42q-3 -45 -3 -49q0 -64 23.5 -98.5t66.5 -34.5z" />
    <glyph glyph-name="seven.tosf" unicode="&#xeb1b;" 
d="M114 -195l-100 58l371 523h-204q-5 -30 -25 -95h-99l35 196h465l-12 -72z" />
    <glyph glyph-name="eight.tosf" unicode="&#xeb1c;" 
d="M246 -12q-100 0 -158.5 44t-58.5 112q0 67 44 113.5t123 84.5q-91 68 -91 144q0 85 71.5 138.5t166.5 53.5q93 0 148 -40t55 -109q0 -99 -155 -176q112 -72 112 -157q0 -90 -69.5 -149t-187.5 -59zM253 84q48 0 80 28.5t32 68.5q0 30 -22.5 53t-70.5 53
q-54 -29 -81.5 -58.5t-27.5 -69.5q0 -31 24.5 -53t65.5 -22zM335 583q-38 0 -66 -25.5t-28 -61.5q0 -25 17.5 -46t52.5 -45q101 55 101 112q0 28 -20 47t-57 19z" />
    <glyph glyph-name="nine.tosf" unicode="&#xeb1d;" 
d="M15 -183l-12 99q142 0 234 63q78 52 109 145q-61 -41 -126 -41q-84 0 -131.5 46.5t-47.5 126.5q0 112 76 178t179 66q106 0 157.5 -61.5t51.5 -163.5q0 -206 -132 -332t-358 -126zM260 178q55 0 106 38q6 31 6 66q0 122 -86 122q-46 0 -78.5 -37t-32.5 -95q0 -44 22 -69
t63 -25z" />
    <glyph glyph-name="numbersign.lf" unicode="&#xeb1e;" horiz-adv-x="561" 
d="M60 0l55 186h-107l32 99h105l30 103h-105l31 98h104l53 180h89l-52 -180h96l53 180h89l-53 -180h99l-32 -98h-97l-30 -103h99l-32 -99h-97l-55 -186h-89l54 186h-96l-55 -186h-89zM231 282h102l31 109h-101z" />
    <glyph glyph-name="dollar.lf" unicode="&#xeb1f;" horiz-adv-x="524" 
d="M139 -121l20 112q-103 9 -154 53l28 157h103q-3 -47 -10 -88q45 -20 100 -20q49 0 80 23.5t31 66.5q0 61 -87 100q-2 1 -20.5 9.5t-23 10.5t-21.5 11t-22.5 14t-19 15.5t-18.5 19t-14.5 22t-13 27t-6.5 31t-3 36.5q0 81 52 132t139 63l20 113h103l-21 -112
q101 -10 147 -42l-29 -163h-103q3 50 10 94q-36 11 -75 11q-51 0 -79.5 -21t-28.5 -58q0 -34 22 -56t72 -45q74 -35 100 -58q59 -50 59 -135q0 -88 -56.5 -144t-157.5 -67l-20 -112h-103z" />
    <glyph glyph-name="percent.lf" unicode="&#xeb20;" horiz-adv-x="865" 
d="M241 414q38 0 62.5 34t24.5 80q0 30 -15 48t-43 18q-40 0 -63.5 -33t-23.5 -79q0 -31 14.5 -49.5t43.5 -18.5zM234 331q-76 0 -118.5 43.5t-42.5 104.5q0 80 56.5 139t147.5 59q76 0 118.5 -41.5t42.5 -103.5q0 -81 -56.5 -141t-147.5 -60zM137 0l513 666h106l-512 -666
h-107zM626 73q38 0 62.5 34.5t24.5 80.5q0 65 -58 65q-40 0 -63.5 -33t-23.5 -79q0 -31 14.5 -49.5t43.5 -18.5zM618 -10q-76 0 -118 43.5t-42 104.5q0 81 56.5 140t147.5 59q75 0 118 -42.5t43 -102.5q0 -81 -57.5 -141.5t-147.5 -60.5z" />
    <glyph glyph-name="numbersign.osf" unicode="&#xeb21;" horiz-adv-x="514" 
d="M75 88l36 125h-84l27 96h83l25 84h-87l26 96h87l36 121h90l-35 -121h78l35 121h91l-35 -121h77l-25 -96h-78l-25 -84h83l-27 -96h-82l-36 -125h-90l35 125h-78l-36 -125h-91zM224 306h84l26 89h-83z" />
    <glyph glyph-name="dollar.osf" unicode="&#xeb22;" horiz-adv-x="467" 
d="M112 -128l21 120q-92 11 -127 37l23 128h94q0 -25 -5 -63q30 -13 77 -13q39 0 63 14.5t24 40.5q0 22 -20 35.5t-62 29.5q-33 13 -49.5 21t-41.5 25.5t-36.5 42.5t-11.5 58q0 64 45 103t124 47l19 106h100l-20 -107q83 -12 118 -33l-23 -130h-93q0 34 5 64q-19 9 -58 9
q-37 0 -60.5 -13t-23.5 -36q0 -15 11.5 -26.5t24 -18t38.5 -17.5q33 -13 51 -21.5t45 -26.5t39.5 -43.5t12.5 -58.5q0 -68 -48.5 -108.5t-135.5 -48.5l-21 -117h-99z" />
    <glyph glyph-name="percent.osf" unicode="&#xeb23;" horiz-adv-x="852" 
d="M180 187q-69 0 -107.5 38t-38.5 95q0 73 51.5 126t135.5 53q72 0 110 -36t38 -95q0 -75 -52.5 -128t-136.5 -53zM190 262q32 0 50 28.5t18 72.5q0 62 -45 62q-32 0 -50 -28t-18 -71q0 -64 45 -64zM626 -12q-69 0 -108 38t-39 95q0 73 52 126t136 53q72 0 109.5 -36
t37.5 -95q0 -75 -52 -128t-136 -53zM636 63q31 0 49 28.5t18 71.5q0 62 -45 62q-31 0 -49.5 -27.5t-18.5 -70.5q0 -64 46 -64zM184 0l374 488h108l-374 -488h-108z" />
    <glyph glyph-name="fi" unicode="&#xfb01;" horiz-adv-x="566" 
d="M-55 -229q-45 0 -83 15l34 96q24 -11 54 -11q66 0 84 99l77 420h-79l17 97h79l8 38q21 108 79.5 156.5t161.5 48.5q91 0 151 -37l-54 -94q-47 28 -102 28q-46 0 -72.5 -22t-35.5 -78l-7 -40h276l-17 -73l-59 -321q46 0 73 -9l-15 -84h-204l71 390h-143l-74 -410
q-19 -109 -67 -159t-153 -50z" />
    <glyph glyph-name="fl" unicode="&#xfb02;" horiz-adv-x="582" 
d="M-55 -229q-45 0 -83 15l34 96q24 -11 54 -11q66 0 84 99l77 420h-79l17 97h79l8 38q21 107 80 156t163 49q60 0 107 -10l105 3l-18 -80l-100 -550q46 0 73 -9l-15 -84h-203l111 619q-38 8 -67 8q-46 0 -72.5 -22t-35.5 -78l-7 -40h98l-18 -97h-98l-74 -410
q-19 -109 -67 -159t-153 -50z" />
    <glyph glyph-name="uniFEFF" unicode="&#xfeff;" horiz-adv-x="0" 
 />
    <glyph glyph-name="NULL" horiz-adv-x="0" 
 />
    <glyph glyph-name="CR" horiz-adv-x="220" 
 />
    <glyph glyph-name="uni2007.osf" horiz-adv-x="557" 
 />
    <glyph glyph-name="uni030C.alt001" horiz-adv-x="1" 
d="M-283 545l59 175h134l-101 -175h-92z" />
    <glyph glyph-name="slash.case" horiz-adv-x="441" 
d="M-58 -109l472 881h119l-472 -881h-119z" />
    <glyph glyph-name="f_f" horiz-adv-x="636" 
d="M-55 -229q-45 0 -83 15l34 96q24 -11 54 -11q64 0 83 97l78 422h-80l17 97h80l8 41q19 103 70.5 149.5t147.5 46.5q87 0 146 -40q49 46 140 46q72 0 127 -31l-52 -94q-31 21 -72 21q-67 0 -81 -81l-11 -58h110l-17 -97h-111l-74 -405q-19 -109 -66.5 -159t-152.5 -50
q-43 0 -76 14l35 96q24 -10 46 -10q64 0 83 97l76 417h-165l-74 -410q-19 -109 -67 -159t-153 -50zM257 487h165l10 54q8 39 14 52q-34 27 -90 27q-39 0 -60.5 -20t-30.5 -68z" />
    <glyph glyph-name="f_f_i" horiz-adv-x="861" 
d="M-55 -229q-45 0 -83 15l34 96q24 -11 54 -11q64 0 83 97l78 422h-80l17 97h80l11 52q21 95 72 140t143 45q97 0 155 -43q57 49 164 49q74 0 149 -35l-54 -96q-38 28 -101 28q-45 0 -70.5 -20.5t-36.5 -74.5l-9 -45h276l-17 -73l-58 -321q45 0 72 -9l-15 -84h-203l70 390
h-143l-74 -406q-19 -109 -67 -159t-152 -50q-44 0 -76 14l35 97q22 -10 45 -10q65 0 84 96l76 418h-165l-74 -410q-19 -109 -67 -159t-153 -50zM257 487h165l7 38q8 41 20 70q-38 25 -89 25q-42 0 -64 -21t-31 -69z" />
    <glyph glyph-name="f_f_l" horiz-adv-x="876" 
d="M-55 -229q-45 0 -83 15l34 96q24 -11 54 -11q64 0 83 97l78 422h-80l17 97h80l11 53q20 95 71.5 139.5t143.5 44.5q97 0 155 -43q56 49 164 49q60 0 107 -10l105 3l-18 -80l-99 -550q45 0 72 -9l-15 -84h-203l112 619q-38 8 -68 8q-45 0 -70.5 -21.5t-36.5 -78.5l-8 -40
h98l-18 -97h-98l-74 -405q-19 -109 -66.5 -159t-152.5 -50q-43 0 -76 14l35 96q24 -10 46 -10q64 0 83 97l76 417h-165l-74 -410q-19 -109 -67 -159t-153 -50zM257 487h165l7 38q8 41 20 70q-38 25 -89 25q-42 0 -64 -21t-31 -69z" />
    <glyph glyph-name="f_i" horiz-adv-x="566" 
d="M-55 -229q-45 0 -83 15l34 96q24 -11 54 -11q66 0 84 99l77 420h-79l17 97h79l8 38q21 108 79.5 156.5t161.5 48.5q91 0 151 -37l-54 -94q-47 28 -102 28q-46 0 -72.5 -22t-35.5 -78l-7 -40h276l-17 -73l-59 -321q46 0 73 -9l-15 -84h-204l71 390h-143l-74 -410
q-19 -109 -67 -159t-153 -50z" />
    <glyph glyph-name="f_l" horiz-adv-x="582" 
d="M-55 -229q-45 0 -83 15l34 96q24 -11 54 -11q66 0 84 99l77 420h-79l17 97h79l8 38q21 107 80 156t163 49q60 0 107 -10l105 3l-18 -80l-100 -550q46 0 73 -9l-15 -84h-203l111 619q-38 8 -67 8q-46 0 -72.5 -22t-35.5 -78l-7 -40h98l-18 -97h-98l-74 -410
q-19 -109 -67 -159t-153 -50z" />
    <glyph glyph-name="uni2007.tosf" 
 />
    </font>
</defs>
</svg>
