<?xml version="1.0" standalone="no"?>
<!DOCTYPE svg PUBLIC "-//W3C//DTD SVG 1.1//EN" "http://www.w3.org/Graphics/SVG/1.1/DTD/svg11.dtd" >
<svg>
<metadata>
Created by FontForge 20120731 at Fri Jan 15 01:18:19 2016
 By ,,,
Copyright (c) 2013 by FontFont. All rights reserved.
</metadata>
<defs>
<font id="FFKievitSlab-ExtraLight" horiz-adv-x="501" >
  <font-face 
    font-family="FF Kievit Slab"
    font-weight="250"
    font-stretch="normal"
    units-per-em="1000"
    panose-1="2 0 4 3 2 0 0 2 0 4"
    ascent="760"
    descent="-240"
    x-height="475"
    cap-height="666"
    bbox="-294 -250 959 927"
    underline-thickness="30"
    underline-position="-105"
    unicode-range="U+0020-FEFF"
  />
<missing-glyph horiz-adv-x="565" 
d="M39 0v666h487v-666h-487zM71 32h423v602h-423v-602z" />
    <glyph glyph-name=".notdef" horiz-adv-x="565" 
d="M39 0v666h487v-666h-487zM71 32h423v602h-423v-602z" />
    <glyph glyph-name=".null" horiz-adv-x="0" 
 />
    <glyph glyph-name="nonmarkingreturn" horiz-adv-x="333" 
 />
    <glyph glyph-name="space" unicode=" " horiz-adv-x="237" 
 />
    <glyph glyph-name="exclam" unicode="!" horiz-adv-x="249" 
d="M124 -8q-12 0 -21.5 10t-9.5 24t9.5 24t21.5 10q13 0 22.5 -10t9.5 -24t-9.5 -24t-22.5 -10zM111 167l-8 499h43l-8 -499h-27z" />
    <glyph glyph-name="quotedbl" unicode="&#x22;" horiz-adv-x="262" 
d="M65 458l-11 208h48l-11 -208h-26zM170 458l-11 208h48l-11 -208h-26z" />
    <glyph glyph-name="numbersign" unicode="#" horiz-adv-x="569" 
d="M133 0l36 238h-142l4 30h142l24 154h-143l4 31h144l32 213h33l-33 -213h137l32 213h33l-33 -213h139l-4 -31h-140l-23 -154h140l-4 -30h-140l-36 -238h-33l36 238h-136l-36 -238h-33zM229 422l-23 -154h137l23 154h-137z" />
    <glyph glyph-name="dollar" unicode="$" horiz-adv-x="500" 
d="M235 -122v112q-115 0 -180 57v134h30q6 -32 6 -119q55 -40 152 -40q72 0 116.5 39.5t44.5 99.5q0 26 -10 49t-23 38.5t-38.5 33.5t-42.5 27.5t-50 26.5q-40 21 -61.5 34t-48 36t-38.5 51t-12 65q0 68 45 108.5t117 44.5v109h32v-108q93 -4 148 -44v-134h-30q-5 25 -5 116
q-55 30 -130 30q-62 0 -101 -32t-39 -87q0 -24 7.5 -43.5t15.5 -32t29.5 -28.5t33.5 -22.5t43 -23.5q7 -4 11 -6t25 -13.5t26.5 -15t24.5 -14.5t25.5 -16.5t21.5 -17.5t21 -20.5t15.5 -22t13.5 -26t7.5 -28t3.5 -32.5q0 -72 -46.5 -118t-127.5 -54v-113h-32z" />
    <glyph glyph-name="percent" unicode="%" horiz-adv-x="803" 
d="M203 347q-72 0 -115.5 48.5t-43.5 113.5q0 66 44 115t116 49t115.5 -48.5t43.5 -113.5q0 -66 -44.5 -115t-115.5 -49zM204 376q55 0 90 39t35 95t-35 95t-91 39q-55 0 -90 -39t-35 -95t35 -95t91 -39zM600 -6q-72 0 -115.5 48.5t-43.5 113.5q0 66 44 115t116 49
t115 -48.5t43 -113.5q0 -66 -44 -115t-115 -49zM600 23q55 0 90 39.5t35 94.5t-35 94.5t-90 39.5t-90 -39.5t-35 -94.5t35 -94.5t90 -39.5zM166 0l432 666h36l-433 -666h-35z" />
    <glyph glyph-name="ampersand" unicode="&#x26;" horiz-adv-x="699" 
d="M257 -10q-98 0 -155 50t-57 129q0 66 41.5 107t122.5 83q-51 48 -75.5 88t-24.5 83q0 67 48 106.5t119 39.5q64 0 106.5 -36t42.5 -95q0 -60 -44 -105.5t-118 -85.5l219 -210q66 84 85 188q-60 0 -87 5v26h201v-26q-27 -5 -80 -5q-21 -115 -96 -209l96 -92q54 0 82 -5
v-26h-98l-103 97q-99 -107 -225 -107zM273 646q-54 0 -90.5 -32t-36.5 -82q0 -38 19.5 -70t70.5 -83l6 -5q147 77 147 169q0 44 -32.5 73.5t-83.5 29.5zM262 21q110 0 198 97l-229 219q-36 -18 -56 -30t-45 -32.5t-36.5 -46t-11.5 -56.5q0 -67 47 -109t133 -42z" />
    <glyph glyph-name="quotesingle" unicode="'" horiz-adv-x="156" 
d="M65 458l-11 208h48l-11 -208h-26z" />
    <glyph glyph-name="parenleft" unicode="(" horiz-adv-x="285" 
d="M281 -184h-34q-183 195 -183 457q0 255 183 447h34q-181 -198 -181 -447q0 -255 181 -457z" />
    <glyph glyph-name="parenright" unicode=")" horiz-adv-x="286" 
d="M39 -184h-34q181 198 181 447q0 255 -181 457h34q183 -196 183 -457q0 -255 -183 -447z" />
    <glyph glyph-name="asterisk" unicode="*" horiz-adv-x="429" 
d="M130 357l-27 18l89 117l-141 44l10 30l139 -48l-3 148h34l-2 -148l138 49l11 -31l-142 -44l89 -117l-26 -18l-85 119z" />
    <glyph glyph-name="plus" unicode="+" horiz-adv-x="590" 
d="M278 14v236h-231v32h231v224h35v-224h230v-32h-230v-236h-35z" />
    <glyph glyph-name="comma" unicode="," horiz-adv-x="175" 
d="M50 -112l-15 18q41 29 41 66q0 15 -9.5 30t-9.5 28q0 14 8.5 22.5t20.5 8.5q15 0 24.5 -11t9.5 -29q0 -78 -70 -133z" />
    <glyph glyph-name="hyphen" unicode="-" horiz-adv-x="296" 
d="M56 275v32h184v-32h-184z" />
    <glyph glyph-name="period" unicode="." horiz-adv-x="175" 
d="M88 -8q-14 0 -23.5 10.5t-9.5 24.5t9.5 24t23.5 10q13 0 22.5 -10t9.5 -24t-9.5 -24.5t-22.5 -10.5z" />
    <glyph glyph-name="slash" unicode="/" horiz-adv-x="366" 
d="M45 0l241 666h34l-239 -666h-36z" />
    <glyph glyph-name="zero" unicode="0" 
d="M249 -10q-56 0 -97 30.5t-62.5 82t-31.5 108.5t-10 121q0 66 9.5 123t31.5 109t63.5 82t98.5 30q56 0 97.5 -30.5t63 -82t31.5 -108.5t10 -121q0 -66 -10 -123t-32 -109t-63.5 -82t-98.5 -30zM251 22q45 0 78.5 27.5t51.5 73.5t26.5 98.5t8.5 110.5q0 59 -9 111.5
t-27.5 99t-52 74t-78.5 27.5t-78 -27.5t-51 -73.5t-26.5 -98t-8.5 -111t8.5 -111.5t27 -99t52 -74t78.5 -27.5z" />
    <glyph glyph-name="one" unicode="1" 
d="M76 0v26q64 6 169 6v598l-160 -56l-8 32l170 61h35v-635q114 0 168 -6v-26h-374z" />
    <glyph glyph-name="two" unicode="2" 
d="M45 0v20q11 12 44.5 49t47 52t43.5 49.5t44.5 52.5t39 49.5t37 51t29 47.5t24 48.5t13.5 43.5t6 43q0 64 -36 101t-99 37q-88 0 -155 -67l-19 22q71 77 176 77q79 0 125 -44.5t46 -121.5q0 -24 -5 -48.5t-18.5 -53t-24.5 -50.5t-35.5 -55.5t-38 -52t-46.5 -56t-46 -52.5
t-50.5 -56.5t-47.5 -52.5v-1q9 1 34 1h269q0 16 2.5 56.5t2.5 44.5h30v-134h-392z" />
    <glyph glyph-name="three" unicode="3" 
d="M178 -10q-66 0 -115 15l6 31q46 -14 111 -14q84 0 141.5 48t57.5 122q0 81 -69 119.5t-175 38.5v30q85 0 154.5 45t69.5 111q0 51 -35 79t-98 28q-83 0 -152 -63l-19 23q73 73 172 73q81 0 125 -36.5t44 -102.5q0 -57 -48.5 -103.5t-112.5 -63.5v-1q74 -11 127.5 -56
t53.5 -120q0 -91 -69 -147t-169 -56z" />
    <glyph glyph-name="four" unicode="4" 
d="M335 0v163h-312v29l313 474h35v-470h92v-33h-92v-163h-36zM334 603l-267 -407h268v407h-1z" />
    <glyph glyph-name="five" unicode="5" 
d="M159 -10q-65 0 -96 11l7 31q34 -10 91 -10q94 0 157.5 49.5t63.5 136.5t-62 129.5t-156 42.5q-42 0 -75 -3l19 289h295v-33h-262l-15 -221h38q112 0 183.5 -51t71.5 -151q0 -105 -73 -162.5t-187 -57.5z" />
    <glyph glyph-name="six" unicode="6" 
d="M252 -10q-70 0 -118 42.5t-67 101.5t-19 128q0 188 98 302t274 114l6 -31q-147 0 -233 -82t-104 -231q67 61 163 61q91 0 143 -57.5t52 -147.5q0 -83 -52.5 -141.5t-142.5 -58.5zM253 22q76 0 116.5 49t40.5 118q0 78 -41 126t-118 48q-99 0 -165 -63q-1 -5 -1 -18v-19
q0 -63 15.5 -115.5t55 -89t97.5 -36.5z" />
    <glyph glyph-name="seven" unicode="7" 
d="M162 -22l-33 13l262 642h-307q0 -15 -2.5 -60t-2.5 -48h-28v141h378v-30z" />
    <glyph glyph-name="eight" unicode="8" 
d="M250 -10q-83 0 -136.5 47t-53.5 120q0 59 40.5 101t120.5 92q-39 25 -58 38.5t-43 36t-34 46t-10 52.5q0 67 50.5 110t126.5 43q74 0 123.5 -42.5t49.5 -108.5q0 -53 -37 -91t-110 -82q41 -26 63 -42t48.5 -40.5t38.5 -51t12 -58.5q0 -76 -54 -123t-137 -47zM252 22
q66 0 108.5 39t42.5 97q0 50 -39.5 89.5t-115.5 85.5q-75 -46 -113 -84.5t-38 -89.5q0 -58 43.5 -97.5t111.5 -39.5zM251 370q5 3 14 9q34 22 50 33.5t36.5 30t29 38t8.5 42.5q0 52 -38.5 86.5t-99.5 34.5q-60 0 -99 -34t-39 -86q0 -25 9 -45t34 -41.5t39.5 -31.5t55.5 -36z
" />
    <glyph glyph-name="nine" unicode="9" 
d="M89 -20l-7 31q143 0 225 85t98 234q-65 -58 -159 -58q-89 0 -141 57.5t-52 146.5q0 83 51.5 141.5t140.5 58.5q69 0 116 -42t66 -101t19 -129q0 -191 -91.5 -307.5t-265.5 -116.5zM248 304q94 0 159 60q2 22 2 39q0 47 -9 88t-27.5 76.5t-51.5 56t-77 20.5
q-74 0 -114 -49.5t-40 -117.5q0 -78 41 -125.5t117 -47.5z" />
    <glyph glyph-name="colon" unicode=":" horiz-adv-x="175" 
d="M88 -8q-14 0 -23.5 10.5t-9.5 24.5t9.5 24.5t23.5 10.5q13 0 22.5 -10.5t9.5 -24.5t-9.5 -24.5t-22.5 -10.5zM88 413q-14 0 -23.5 10.5t-9.5 24.5t9.5 24.5t23.5 10.5q13 0 22.5 -10.5t9.5 -24.5t-9.5 -24.5t-22.5 -10.5z" />
    <glyph glyph-name="semicolon" unicode=";" horiz-adv-x="175" 
d="M88 413q-14 0 -23.5 10.5t-9.5 24.5t9.5 24.5t23.5 10.5q13 0 22.5 -10.5t9.5 -24.5t-9.5 -24.5t-22.5 -10.5zM50 -112l-15 18q41 29 41 66q0 15 -9.5 30t-9.5 28q0 14 8.5 22.5t20.5 8.5q15 0 24.5 -11t9.5 -29q0 -78 -70 -133z" />
    <glyph glyph-name="less" unicode="&#x3c;" horiz-adv-x="341" 
d="M282 47l-245 213l245 214l22 -24l-217 -189l217 -190z" />
    <glyph glyph-name="equal" unicode="=" horiz-adv-x="453" 
d="M36 177v32h382v-32h-382zM36 325v33h382v-33h-382z" />
    <glyph glyph-name="greater" unicode="&#x3e;" horiz-adv-x="341" 
d="M59 47l-22 24l217 189l-217 190l22 24l245 -213z" />
    <glyph glyph-name="question" unicode="?" horiz-adv-x="378" 
d="M154 676q178 0 178 -157q0 -103 -100 -168q-42 -28 -60 -56t-18 -67q0 -36 4 -63h-28q-7 47 -7 69q0 47 20.5 80t65.5 63q41 28 64 60t23 81q0 126 -144 126q-49 0 -82 -20l-14 29q41 23 98 23zM146 -8q-13 0 -22.5 10t-9.5 24t9.5 24t22.5 10t22.5 -10t9.5 -24t-9.5 -24
t-22.5 -10z" />
    <glyph glyph-name="at" unicode="@" horiz-adv-x="768" 
d="M372 -82q-143 0 -228.5 92.5t-85.5 228.5q0 153 103.5 261.5t247.5 108.5q137 0 220 -84t83 -208q0 -85 -47.5 -158.5t-114.5 -73.5q-44 0 -67.5 32.5t-23.5 86.5q0 31 3 42h-2q-24 -68 -64 -114.5t-89 -46.5q-39 0 -61 34t-22 78q0 100 59 182t145 82q43 0 98 -24
l-26 -116q-13 -48 -13 -112q0 -39 18 -66.5t47 -27.5q53 0 90.5 64t37.5 135q0 118 -74 191t-199 73q-127 0 -221 -98.5t-94 -238.5q0 -124 77.5 -208.5t206.5 -84.5q90 0 154 33l13 -28q-68 -35 -171 -35zM313 117q99 0 173 283l4 16q-8 5 -29.5 10.5t-35.5 5.5
q-67 0 -116 -71t-49 -160q0 -31 13 -57.5t40 -26.5z" />
    <glyph glyph-name="A" unicode="A" horiz-adv-x="675" 
d="M10 0v25q13 5 66 5l241 636h41l240 -636q45 0 67 -5v-25h-182v25q14 3 76 5l-68 180h-310l-69 -180q63 -2 77 -5v-25h-179zM192 241h288l-120 318q-18 50 -23 66h-2q-11 -35 -24 -67z" />
    <glyph glyph-name="B" unicode="B" horiz-adv-x="560" 
d="M43 0v25q28 5 85 5v606q-57 0 -85 5v25h220q108 0 161.5 -38t53.5 -124q0 -58 -34 -97.5t-90 -51.5v-1q68 -13 111 -56t43 -113q0 -185 -243 -185h-222zM165 338v-307h98q208 0 208 153q0 75 -53 114.5t-154 39.5h-99zM165 635v-267h95q181 0 181 134q0 69 -43 101
t-138 32h-95z" />
    <glyph glyph-name="C" unicode="C" horiz-adv-x="633" 
d="M377 -10q-145 0 -237 95.5t-92 242.5q0 148 93.5 248t238.5 100q112 0 183 -47v-133h-29q-6 32 -6 113q-60 36 -150 36q-127 0 -210 -90.5t-83 -221.5q0 -133 83.5 -222.5t211.5 -89.5q104 0 166 42q0 88 6 118h29v-132q-67 -59 -204 -59z" />
    <glyph glyph-name="D" unicode="D" horiz-adv-x="677" 
d="M43 0v25q28 5 85 5v606q-57 0 -85 5v25h221q172 0 268.5 -84.5t96.5 -241.5q0 -160 -97 -250t-270 -90h-219zM165 635v-604h100q154 0 240.5 79t86.5 225t-87 223t-243 77h-97z" />
    <glyph glyph-name="E" unicode="E" horiz-adv-x="531" 
d="M43 0v25q28 5 85 5v606q-57 0 -85 5v25h434v-144h-29q-5 22 -5 113h-278v-276h206q0 52 6 82h27v-194h-27q-6 28 -6 82h-206v-298h285q0 89 5 114h29v-145h-441z" />
    <glyph glyph-name="F" unicode="F" horiz-adv-x="506" 
d="M43 0v25q28 5 85 5v606q-57 0 -85 5v25h426v-144h-29q-5 22 -5 113h-270v-294h198q0 54 5 81h28v-194h-28q-5 27 -5 82h-198v-280q59 0 86 -5v-25h-208z" />
    <glyph glyph-name="G" unicode="G" horiz-adv-x="720" 
d="M370 -10q-144 0 -233 97.5t-89 242.5t93.5 245.5t240.5 100.5q138 0 214 -55v-133h-29q-5 25 -5 114q-77 43 -183 43q-130 0 -212 -90t-82 -221q0 -132 81 -222.5t210 -90.5q126 0 195 55v181q-53 0 -85 6v24h204v-24q-32 -6 -83 -6v-199q-85 -68 -237 -68z" />
    <glyph glyph-name="H" unicode="H" horiz-adv-x="739" 
d="M43 0v25q28 5 85 5v606q-57 0 -85 5v25h206v-25q-27 -5 -84 -5v-268h409v268q-57 0 -84 5v25h206v-25q-28 -5 -85 -5v-606q57 0 85 -5v-25h-206v25q27 5 84 5v307h-409v-307q57 0 84 -5v-25h-206z" />
    <glyph glyph-name="I" unicode="I" horiz-adv-x="293" 
d="M43 0v25q28 5 85 5v606q-57 0 -85 5v25h206v-25q-27 -5 -84 -5v-606q57 0 84 -5v-25h-206z" />
    <glyph glyph-name="J" unicode="J" horiz-adv-x="269" 
d="M34 -181q-23 0 -37 6l6 31q12 -5 32 -5q81 0 81 134v651q-57 0 -85 5v25h206v-25q-27 -5 -84 -5v-658q0 -159 -119 -159z" />
    <glyph glyph-name="K" unicode="K" horiz-adv-x="605" 
d="M43 0v25q28 5 85 5v606q-57 0 -85 5v25h206v-25q-27 -5 -84 -5v-606q57 0 84 -5v-25h-206zM387 0v25q14 3 85 5l-295 315l272 291q-55 0 -80 5v25h202v-25q-25 -5 -77 -5l-272 -288l299 -318q54 0 81 -5v-25h-215z" />
    <glyph glyph-name="L" unicode="L" horiz-adv-x="477" 
d="M43 0v25q28 5 85 5v606q-57 0 -85 5v25h206v-25q-27 -5 -84 -5v-605h242v28q0 62 5 78h29v-137h-398z" />
    <glyph glyph-name="M" unicode="M" horiz-adv-x="891" 
d="M23 0v25q14 3 72 5l80 606q-49 0 -81 6v24h123l228 -623h2l41 114l187 509h122v-24q-30 -6 -80 -6l79 -606q60 -2 72 -5v-25h-191v25q25 5 83 5l-74 569h-2l-37 -104l-181 -495h-42l-221 599h-1l-73 -569q57 0 84 -5v-25h-190z" />
    <glyph glyph-name="N" unicode="N" horiz-adv-x="729" 
d="M43 0v25q28 5 85 5v606q-57 0 -85 5v25h122l349 -513q12 -17 32.5 -48t29.5 -44h1q-1 13 -1 40v535q-57 0 -84 5v25h204v-25q-28 -5 -85 -5v-636h-36l-360 530q-10 14 -27.5 40.5t-24.5 36.5h-1q1 -11 1 -35v-542q57 0 84 -5v-25h-204z" />
    <glyph glyph-name="O" unicode="O" horiz-adv-x="728" 
d="M363 -10q-141 0 -228 99.5t-87 242.5q0 144 87 244t229 100t229 -99.5t87 -242.5q0 -144 -87.5 -244t-229.5 -100zM364 21q125 0 201.5 90.5t76.5 220.5t-77.5 221.5t-201.5 91.5q-125 0 -201.5 -90.5t-76.5 -220.5t77.5 -221.5t201.5 -91.5z" />
    <glyph glyph-name="P" unicode="P" horiz-adv-x="519" 
d="M43 0v25q28 5 85 5v606q-57 0 -85 5v25h212q108 0 166.5 -49t58.5 -135q0 -87 -58 -137.5t-169 -50.5h-88v-264q59 0 86 -5v-25h-208zM165 635v-310h87q96 0 143.5 42t47.5 113q0 70 -47.5 112.5t-142.5 42.5h-88z" />
    <glyph glyph-name="Q" unicode="Q" horiz-adv-x="728" 
d="M599 -153q-68 0 -122 34t-116 109q-140 0 -226.5 99.5t-86.5 242.5q0 144 87 244t229 100t229 -99.5t87 -242.5q0 -133 -75 -230t-200 -111q50 -59 92.5 -87t102.5 -28q56 0 80 24l17 -25q-30 -30 -98 -30zM364 21q125 0 201.5 90.5t76.5 220.5t-77.5 221.5t-201.5 91.5
q-125 0 -201.5 -90.5t-76.5 -220.5t77.5 -221.5t201.5 -91.5z" />
    <glyph glyph-name="R" unicode="R" horiz-adv-x="565" 
d="M43 0v25q28 5 85 5v606q-57 0 -85 5v25h223q214 0 214 -164q0 -80 -55.5 -123.5t-152.5 -43.5h-9v-1q20 -8 62 -66l134 -188q20 -30 35.5 -41.5t40.5 -11.5h12q7 0 11 1v-25q-15 -6 -41 -6q-27 0 -44 12.5t-44 49.5l-135 191q-39 56 -57.5 69.5t-46.5 13.5h-25v-303
q57 0 84 -5v-25h-206zM165 364h100q178 0 178 136q0 135 -179 135h-99v-271z" />
    <glyph glyph-name="S" unicode="S" horiz-adv-x="485" 
d="M235 -10q-124 0 -187 57v134h29q6 -32 6 -119q57 -41 154 -41q72 0 117 40t45 100q0 32 -12.5 58t-41.5 48.5t-50 35t-62 33.5q-32 16 -49 26t-42.5 28t-38 35t-22.5 42.5t-10 54.5q0 73 53 113.5t133 40.5q110 0 166 -43v-134h-29q-6 30 -6 117q-51 29 -133 29
q-63 0 -105 -32t-42 -88q0 -29 8.5 -51t31 -41t38 -28.5t53.5 -29.5q7 -4 11 -6q90 -49 118 -72q68 -56 68 -134q0 -76 -55.5 -124.5t-145.5 -48.5z" />
    <glyph glyph-name="T" unicode="T" horiz-adv-x="599" 
d="M196 0v25q27 5 84 5v605h-210q0 -84 -6 -116h-29v147h529v-147h-29q-6 32 -6 116h-212v-605q58 0 85 -5v-25h-206z" />
    <glyph glyph-name="U" unicode="U" horiz-adv-x="695" 
d="M348 -10q-236 0 -236 257v389q-58 0 -85 5v25h206v-25q-27 -5 -84 -5v-387q0 -113 48 -170.5t153 -57.5q199 0 199 225v390q-57 0 -84 5v25h203v-25q-27 -5 -85 -5v-388q0 -127 -56 -192.5t-179 -65.5z" />
    <glyph glyph-name="V" unicode="V" horiz-adv-x="662" 
d="M311 0l-223 636q-53 0 -78 5v25h204v-25q-27 -5 -87 -5l187 -539q12 -33 18 -55h1q2 5 8 25t10 31l186 538q-60 0 -87 5v25h203v-25q-27 -5 -78 -5l-224 -636h-40z" />
    <glyph glyph-name="W" unicode="W" horiz-adv-x="974" 
d="M268 0l-174 636q-53 0 -78 5v25h206v-25q-27 -5 -90 -5l140 -518q1 -3 15 -64h2l7 28l10 37l162 547h38l165 -545l10 -38l7 -28h1q1 3 6 26.5t9 37.5l140 517q-52 0 -89 5v25h204v-25q-27 -5 -79 -5l-175 -636h-34l-169 557q-4 13 -9 33.5t-6 24.5h-1q-1 -4 -6.5 -25
t-9.5 -33l-166 -557h-36z" />
    <glyph glyph-name="X" unicode="X" horiz-adv-x="619" 
d="M12 0v26q14 3 77 5l198 314l-185 290q-51 0 -76 5v26h199v-26q-27 -5 -81 -5l165 -258l161 258q-56 0 -81 5v26h199v-26q-25 -5 -76 -5l-184 -290l202 -314q63 -2 77 -5v-26h-201v26q27 5 81 5l-180 282l-176 -282q54 0 81 -5v-26h-200z" />
    <glyph glyph-name="Y" unicode="Y" horiz-adv-x="594" 
d="M194 0v25q34 6 85 6v219l-202 386q-48 0 -73 5v25h197v-25q-27 -5 -80 -5l177 -348h1l178 348q-54 0 -81 5v25h194v-25q-25 -5 -74 -5l-200 -384v-221q52 0 84 -6v-25h-206z" />
    <glyph glyph-name="Z" unicode="Z" horiz-adv-x="563" 
d="M50 0v28l402 607h-344q0 -84 -6 -116h-29v147h424v-27l-405 -608h384q0 94 6 124h29v-155h-461z" />
    <glyph glyph-name="bracketleft" unicode="[" horiz-adv-x="287" 
d="M89 -161v881h171v-30h-135v-821h135v-30h-171z" />
    <glyph glyph-name="backslash" unicode="\" horiz-adv-x="366" 
d="M330 -123l-303 843h35l303 -843h-35z" />
    <glyph glyph-name="bracketright" unicode="]" horiz-adv-x="287" 
d="M27 -161v30h135v821h-135v30h171v-881h-171z" />
    <glyph glyph-name="underscore" unicode="_" horiz-adv-x="370" 
d="M-1 -143v32h372v-32h-372z" />
    <glyph glyph-name="grave" unicode="`" horiz-adv-x="500" 
d="M297 539l-126 121h55l101 -121h-30z" />
    <glyph glyph-name="a" unicode="a" horiz-adv-x="465" 
d="M177 -10q-59 0 -94.5 32t-35.5 86q0 46 23 79t61.5 49.5t79 24t85.5 7.5h24v63q0 124 -112 124q-70 0 -125 -51l-19 24q61 58 147 58q70 0 107.5 -37.5t37.5 -109.5v-253q0 -23 2 -57q29 -3 82 -3v-26q-25 -4 -112 -4q-6 32 -6 65h-1q-54 -71 -144 -71zM181 22
q80 0 139 71v146h-24q-92 0 -152 -31t-60 -98q0 -40 28 -64t69 -24z" />
    <glyph glyph-name="b" unicode="b" horiz-adv-x="505" 
d="M229 -10q-80 0 -132 34v663q-29 3 -84 3v26q33 5 123 5l-3 -65v-228h2q48 58 127 58q99 0 148.5 -68.5t49.5 -175.5q0 -101 -62.5 -176.5t-168.5 -75.5zM230 20q92 0 142.5 66t50.5 151q0 42 -9 79t-27.5 69t-51.5 50.5t-78 18.5q-32 0 -66.5 -16.5t-57.5 -43.5v-353
q42 -21 97 -21z" />
    <glyph glyph-name="c" unicode="c" horiz-adv-x="435" 
d="M248 -10q-97 0 -150 71.5t-53 172.5q0 108 57.5 180t151.5 72q86 0 136 -45v-108h-28q-5 25 -5 93q-39 29 -105 29q-80 0 -125 -62.5t-45 -154.5q0 -87 45.5 -152t123.5 -65q82 0 127 45l17 -27q-54 -49 -147 -49z" />
    <glyph glyph-name="d" unicode="d" horiz-adv-x="524" 
d="M240 -10q-99 0 -147 68.5t-48 176.5q0 102 57 176.5t157 74.5q71 0 113 -42h1v243q-29 3 -84 3v26q32 5 123 5l-3 -65v-573q0 -30 3 -54q28 -3 82 -3v-26q-27 -4 -113 -4q-5 25 -5 59h-2q-23 -29 -59.5 -47t-74.5 -18zM246 21q33 0 68.5 17.5t58.5 46.5v325
q-41 44 -115 44q-85 0 -130.5 -65t-45.5 -151q0 -91 39.5 -154t124.5 -63z" />
    <glyph glyph-name="e" unicode="e" horiz-adv-x="466" 
d="M255 -10q-101 0 -155.5 70.5t-54.5 176.5q0 108 55.5 178.5t149.5 70.5q80 0 125 -54t45 -140v-13q0 -10 -1 -15h-337v-20q0 -97 46.5 -160t130.5 -63q85 0 138 46l17 -28q-65 -49 -159 -49zM85 294h298q0 68 -35 114.5t-104 46.5q-64 0 -106.5 -46t-52.5 -115z" />
    <glyph glyph-name="f" unicode="f" horiz-adv-x="310" 
d="M43 0v25q28 5 85 5v415h-85v30h85v87q0 82 38 125t112 43q44 0 69 -13l-10 -32q-26 14 -61 14q-58 0 -85 -35t-27 -106v-83h125v-30h-125v-415q59 0 86 -5v-25h-207z" />
    <glyph glyph-name="g" unicode="g" horiz-adv-x="476" 
d="M218 -230q-79 0 -127.5 35t-48.5 95q0 47 28.5 84t65.5 55v1q-49 19 -49 69q0 46 53 76v1q-36 19 -58 56t-22 82q0 72 46 117t121 45q30 0 63 -11h146v-30h-98q55 -49 55 -119q0 -72 -47 -116t-121 -44q-26 0 -55 8q-47 -22 -47 -57q0 -32 25.5 -44.5t96.5 -14.5
q43 -1 72 -5.5t60.5 -16.5t48 -38t16.5 -65q0 -72 -65 -117.5t-159 -45.5zM222 -200q77 0 130 35.5t53 91.5q0 25 -9.5 43.5t-22.5 28.5t-35.5 15.5t-40 7.5t-44.5 3q-62 2 -86 7q-89 -44 -89 -127q0 -46 38.5 -75.5t105.5 -29.5zM227 196q58 0 93.5 36t35.5 92q0 58 -36 95
t-95 37t-94 -36.5t-35 -93.5q0 -58 35.5 -94t95.5 -36z" />
    <glyph glyph-name="h" unicode="h" horiz-adv-x="557" 
d="M30 0v25q28 5 85 5v657q-31 3 -85 3v26q33 5 124 5l-3 -65v-261h1q23 37 65.5 64t92.5 27q70 0 103.5 -41t33.5 -111v-304q57 0 84 -5v-25h-204v25q27 5 84 5v297q0 127 -107 127q-45 0 -87.5 -30.5t-65.5 -68.5v-325q57 0 84 -5v-25h-205z" />
    <glyph glyph-name="i" unicode="i" horiz-adv-x="275" 
d="M39 0v25q28 5 85 5v416q-31 3 -85 3v26q33 5 124 5l-3 -65v-385q57 0 84 -5v-25h-205zM139 581q-12 0 -21 9t-9 23t9 23t21 9t21.5 -9t9.5 -23t-9.5 -23t-21.5 -9z" />
    <glyph glyph-name="j" unicode="j" horiz-adv-x="249" 
d="M38 -228q-26 0 -38 7l7 29q14 -6 32 -6q76 0 76 126v518q-31 3 -85 3v26q33 5 124 5l-3 -65v-494q0 -149 -113 -149zM130 581q-12 0 -21 9t-9 23t9 23t21 9t21 -9t9 -23t-9 -23t-21 -9z" />
    <glyph glyph-name="k" unicode="k" horiz-adv-x="510" 
d="M30 0v25q28 5 85 5v657q-31 3 -85 3v26q33 5 124 5l-3 -65v-626q51 0 79 -5v-25h-200zM310 0v25q14 3 74 5l-226 226l195 189q-52 0 -76 6v24h198v-24q-30 -6 -77 -6l-195 -187l229 -228q58 -2 73 -5v-25h-195z" />
    <glyph glyph-name="l" unicode="l" horiz-adv-x="266" 
d="M30 0v25q28 5 85 5v657q-31 3 -85 3v26q33 5 124 5l-3 -65v-626q57 0 84 -5v-25h-205z" />
    <glyph glyph-name="m" unicode="m" horiz-adv-x="826" 
d="M39 0v25q28 5 85 5v416q-31 3 -85 3v26q33 5 124 5l-4 -86h2q57 92 150 92q53 0 83.5 -26t37.5 -71h1q23 39 64 68t92 29q127 0 127 -152v-304q58 0 85 -5v-25h-204v25q27 5 84 5v297q0 127 -99 127q-45 0 -83 -29.5t-61 -67.5v-327q56 0 84 -5v-25h-204v25q28 5 84 5
v297q0 63 -22 95t-76 32q-46 0 -83.5 -30.5t-60.5 -68.5v-325q56 0 83 -5v-25h-204z" />
    <glyph glyph-name="n" unicode="n" horiz-adv-x="565" 
d="M39 0v25q28 5 85 5v416q-31 3 -85 3v26q33 5 124 5l-4 -86h2q27 38 67.5 65t90.5 27q69 0 103 -41t34 -111v-304q57 0 84 -5v-25h-205v25q28 5 85 5v297q0 127 -107 127q-46 0 -87.5 -30.5t-65.5 -68.5v-325q57 0 84 -5v-25h-205z" />
    <glyph glyph-name="o" unicode="o" horiz-adv-x="510" 
d="M253 -10q-100 0 -154 71.5t-54 174.5q0 102 55 176t155 74t155 -72t55 -175q0 -102 -56 -175.5t-156 -73.5zM255 20q82 0 127.5 64t45.5 153q0 90 -46.5 154t-128.5 64t-126.5 -63t-44.5 -153t45.5 -154.5t127.5 -64.5z" />
    <glyph glyph-name="p" unicode="p" horiz-adv-x="519" 
d="M26 -219v24q32 6 84 6v635q-31 3 -85 3v26q33 5 124 5l-3 -56h1q50 62 131 62q97 0 146.5 -70t49.5 -177q0 -101 -57.5 -175t-156.5 -74q-68 0 -113 40h-1v-219q51 0 85 -6v-24h-205zM261 21q85 0 131 65t46 151q0 92 -40 154.5t-126 62.5q-33 0 -67.5 -17.5t-58.5 -46.5
v-326q43 -43 115 -43z" />
    <glyph glyph-name="q" unicode="q" horiz-adv-x="505" 
d="M287 -219v25q28 5 85 5v237h-1q-48 -58 -127 -58q-99 0 -149 69t-50 176q0 101 62 176t169 75q79 0 132 -35v-640q57 0 84 -5v-25h-205zM248 21q32 0 66.5 16.5t57.5 43.5v353q-42 21 -97 21q-92 0 -142.5 -65.5t-50.5 -151.5q0 -91 40 -154t126 -63z" />
    <glyph glyph-name="r" unicode="r" horiz-adv-x="342" 
d="M39 0v25q28 5 85 5v416q-31 3 -85 3v26q33 5 124 5l-4 -96h1q16 37 49.5 69.5t78.5 32.5q24 0 42 -8l-9 -33q-16 7 -36 7q-69 0 -125 -110v-312q59 0 86 -5v-25h-207z" />
    <glyph glyph-name="s" unicode="s" horiz-adv-x="410" 
d="M199 -10q-105 0 -146 37v106h28q3 -14 5 -90q42 -23 113 -23q55 0 88 24.5t33 68.5q0 22 -8.5 39t-30 31.5t-34 21t-44.5 21.5q-33 14 -51.5 23.5t-42 26.5t-34 39t-10.5 50q0 56 40 88.5t107 32.5q86 0 132 -34v-107h-28q-5 25 -5 90q-40 20 -99 20q-53 0 -82 -23
t-29 -64q0 -22 9 -39.5t30.5 -31t34.5 -20t45 -19.5q65 -27 101 -58t36 -83q0 -59 -44 -93t-114 -34z" />
    <glyph glyph-name="t" unicode="t" horiz-adv-x="312" 
d="M203 -10q-93 0 -93 111v343h-80v31h80v136h36v-136h125v-31h-125v-344q0 -79 61 -79q32 0 67 22l15 -25q-35 -28 -86 -28z" />
    <glyph glyph-name="u" unicode="u" horiz-adv-x="553" 
d="M242 -10q-70 0 -103 40.5t-33 110.5v305q-44 3 -74 3v26q32 5 113 5l-3 -65v-267q0 -127 107 -127q45 0 88 31t65 69v325q-29 3 -82 3v26q33 5 121 5l-3 -65v-332q0 -31 3 -54q28 -3 82 -3v-26q-27 -4 -113 -4q-7 28 -7 87h-2q-60 -93 -159 -93z" />
    <glyph glyph-name="v" unicode="v" horiz-adv-x="494" 
d="M231 0l-168 445q-31 0 -57 6v24h171v-24q-30 -6 -76 -6l132 -358q14 -35 14 -41h1l2 4q1 4 2.5 8.5t1.5 6.5l8 22l132 358q-46 0 -76 6v24h170v-24q-30 -6 -59 -6l-166 -445h-32z" />
    <glyph glyph-name="w" unicode="w" horiz-adv-x="747" 
d="M206 0l-136 445q-32 0 -58 6v24h170v-24q-30 -6 -76 -6l103 -343l15 -52h1l6 24l8 29l119 372h33l118 -372q2 -6 8 -25t8 -28h1q6 28 13 53l104 342q-46 0 -76 6v24h168v-24q-30 -6 -59 -6l-137 -445h-30l-124 387q-3 8 -6.5 22l-4.5 18h-1l-12 -40l-124 -387h-31z" />
    <glyph glyph-name="x" unicode="x" horiz-adv-x="490" 
d="M13 0v25q12 2 61 5l151 213l-139 202q-31 0 -61 6v24h170v-24q-17 -4 -69 -6l121 -173l121 173q-51 2 -68 6v24h166v-24q-30 -6 -61 -6l-141 -198l152 -217q49 -3 61 -5v-25h-170v25q55 5 68 5l-132 189l-132 -189q14 0 68 -5v-25h-166z" />
    <glyph glyph-name="y" unicode="y" horiz-adv-x="495" 
d="M75 -229q-24 0 -33 4l4 29q14 -2 31 -2q48 0 76.5 31t51.5 98l26 72l-167 442q-32 0 -58 6v24h172v-24q-30 -6 -76 -6l132 -357l14 -42h1q3 10 14 41l132 358q-46 0 -76 6v24h170v-24q-30 -6 -59 -6l-193 -517q-28 -77 -63.5 -117t-98.5 -40z" />
    <glyph glyph-name="z" unicode="z" horiz-adv-x="442" 
d="M47 0v27l302 418h-252q0 -71 -5 -99h-28v129h327v-27l-302 -418h273q0 67 6 99h28v-129h-349z" />
    <glyph glyph-name="braceleft" unicode="{" horiz-adv-x="331" 
d="M304 -161h-70q-45 0 -70 29t-25 78v211q0 49 -33.5 81t-75.5 32v31q42 0 75.5 31.5t33.5 80.5v200q0 49 25 78t69 29h71v-31h-69q-61 0 -61 -80v-201q0 -49 -31.5 -82.5t-73.5 -39.5v-1q42 -6 73.5 -40t31.5 -83v-213q0 -79 61 -79h69v-31z" />
    <glyph glyph-name="bar" unicode="|" horiz-adv-x="281" 
d="M128 -250v1000h25v-1000h-25z" />
    <glyph glyph-name="braceright" unicode="}" horiz-adv-x="331" 
d="M27 -161v31h69q61 0 61 80v213q0 49 31 82t74 39v2q-42 6 -73.5 40t-31.5 83v201q0 79 -61 79h-69v31h71q44 0 69 -29t25 -78v-200q0 -49 33.5 -80.5t76.5 -31.5v-31q-43 0 -76.5 -31.5t-33.5 -81.5v-211q0 -49 -25 -78t-69 -29h-71z" />
    <glyph glyph-name="uni00A0" unicode="&#xa0;" horiz-adv-x="237" 
 />
    <glyph glyph-name="exclamdown" unicode="&#xa1;" horiz-adv-x="249" 
d="M124 418q-12 0 -21.5 10t-9.5 24t9.5 24t21.5 10q13 0 22.5 -10t9.5 -24t-9.5 -24t-22.5 -10zM103 -188l8 499h27l8 -499h-43z" />
    <glyph glyph-name="sterling" unicode="&#xa3;" horiz-adv-x="472" 
d="M49 0v27q106 67 106 212q0 45 -4 78h-94v31h89q-2 13 -7.5 47t-8.5 60t-3 53q0 75 41 121.5t115 46.5q36 0 72 -10.5t51 -23.5v-132h-30q-5 27 -5 114q-42 20 -92 20q-56 0 -86.5 -37t-30.5 -98q0 -25 3.5 -52t9.5 -59.5t8 -49.5h155v-31h-152q4 -31 4 -75
q0 -71 -27 -129t-61 -81h278q0 88 6 122h29v-154h-366z" />
    <glyph glyph-name="yen" unicode="&#xa5;" horiz-adv-x="621" 
d="M135 231v31h151l-196 374q-47 0 -72 5v25h197v-25q-27 -5 -81 -5l178 -348h1l177 348q-55 0 -80 5v25h193v-25q-25 -5 -74 -5l-195 -374h155v-31h-160v-77h160v-31h-160v-92q51 0 85 -6v-25h-206v25q32 6 85 6v92h-158v31h158v77h-158z" />
    <glyph glyph-name="section" unicode="&#xa7;" horiz-adv-x="452" 
d="M210 -153q-66 0 -102 36l17 26q38 -30 87 -30q43 0 68.5 31t25.5 75q0 33 -23.5 73t-57 78.5t-67 78t-57 83t-23.5 82.5q0 66 60 118q-29 53 -29 92q0 61 37 100.5t94 39.5q64 0 103 -35l-19 -27q-33 31 -86 31q-43 0 -68.5 -31.5t-25.5 -74.5q0 -33 23.5 -73t57 -78.5
t67.5 -78t57.5 -83t23.5 -82.5q0 -67 -61 -120q29 -44 29 -91q0 -63 -37 -101.5t-94 -38.5zM295 105q42 38 42 91q0 38 -29.5 84t-81 104.5t-70.5 87.5q-43 -36 -43 -91q0 -38 30 -84t81.5 -104.5t70.5 -87.5z" />
    <glyph glyph-name="dieresis" unicode="&#xa8;" horiz-adv-x="500" 
d="M172 547q-12 0 -20.5 8.5t-8.5 22.5q0 13 8.5 22t20.5 9t20.5 -9t8.5 -22q0 -14 -8.5 -22.5t-20.5 -8.5zM328 547q-12 0 -20.5 8.5t-8.5 22.5q0 13 8.5 22t20.5 9t21 -9t9 -22q0 -14 -9 -22.5t-21 -8.5z" />
    <glyph glyph-name="copyright" unicode="&#xa9;" horiz-adv-x="855" 
d="M427 -11q-153 0 -260 108t-107 262t107 262.5t260 108.5t260.5 -108.5t107.5 -262.5t-107 -262t-261 -108zM427 19q141 0 238 98t97 242t-97 243t-238 99t-238 -99t-97 -243t97 -242t238 -98zM434 121q-98 0 -162 69.5t-64 169.5t64 169t162 69q81 0 133 -48v-108h-27
q-5 18 -5 94q-41 31 -102 31q-82 0 -135.5 -61.5t-53.5 -145.5q0 -86 54 -146.5t137 -60.5q39 0 75 14t57 32l16 -26q-58 -52 -149 -52z" />
    <glyph glyph-name="guillemotleft" unicode="&#xab;" horiz-adv-x="436" 
d="M193 58l-141 188l141 187h40l-141 -187l141 -188h-40zM344 58l-141 188l141 187h40l-141 -187l141 -188h-40z" />
    <glyph glyph-name="uni00AD" unicode="&#xad;" horiz-adv-x="296" 
d="M56 275v32h184v-32h-184z" />
    <glyph glyph-name="registered" unicode="&#xae;" horiz-adv-x="855" 
d="M427 -11q-153 0 -260 108t-107 262t107 262.5t260 108.5t260.5 -108.5t107.5 -262.5t-107 -262t-261 -108zM427 19q141 0 238 98t97 242t-97 243t-238 99t-238 -99t-97 -243t97 -242t238 -98zM243 123v23q11 4 68 6v417q-53 0 -68 5v23h185q64 0 101.5 -36.5t37.5 -86.5
q0 -49 -38 -84.5t-101 -35.5h-8v-1q23 -17 45 -50l73 -103q21 -30 34.5 -40.5t36.5 -10.5h12q8 0 11 1v-23q-14 -6 -39 -6q-27 0 -43.5 12t-40.5 48l-81 118q-23 34 -37.5 44t-45.5 10v-201q57 -2 70 -6v-23h-172zM345 382h74q51 0 82 26t31 66q0 38 -29 65t-80 27h-78v-184
z" />
    <glyph glyph-name="overscore" unicode="&#xaf;" horiz-adv-x="500" 
d="M117 586v32h265v-32h-265z" />
    <glyph glyph-name="degree" unicode="&#xb0;" horiz-adv-x="344" 
d="M171 429q-52 0 -85 36.5t-33 86.5q0 52 33.5 88t86.5 36q52 0 85 -36t33 -86q0 -51 -34 -88t-86 -37zM172 458q40 0 64 27t24 68q0 40 -24 67.5t-64 27.5t-64 -27.5t-24 -67.5q0 -41 24 -68t64 -27z" />
    <glyph glyph-name="acute" unicode="&#xb4;" horiz-adv-x="500" 
d="M154 539l100 121h56l-126 -121h-30z" />
    <glyph glyph-name="mu" unicode="&#xb5;" horiz-adv-x="553" 
d="M106 -218v664q-44 3 -74 3v26q32 5 113 5l-3 -65v-276q0 -56 26.5 -86.5t77.5 -30.5q47 0 91 31t65 68v325q-29 3 -82 3v26q33 5 121 5l-3 -65v-332q0 -31 3 -54q28 -3 82 -3v-26q-27 -4 -113 -4q-7 28 -7 87h-2q-22 -36 -63.5 -64.5t-95.5 -28.5q-36 0 -63.5 15.5
t-39.5 38.5h-1q4 -47 4 -127v-135h-36z" />
    <glyph glyph-name="middot" unicode="&#xb7;" horiz-adv-x="175" 
d="M88 255q-14 0 -23.5 10.5t-9.5 24.5t9.5 24t23.5 10q13 0 22.5 -10t9.5 -24t-9.5 -24.5t-22.5 -10.5z" />
    <glyph glyph-name="cedilla" unicode="&#xb8;" horiz-adv-x="500" 
d="M201 -212q-40 0 -59 12l9 26q24 -11 50 -11q60 0 60 46q0 42 -71 42h-4l39 102h28l-30 -80q32 -2 51 -19.5t19 -43.5q0 -35 -26 -54.5t-66 -19.5z" />
    <glyph glyph-name="guillemotright" unicode="&#xbb;" horiz-adv-x="436" 
d="M52 58l141 188l-141 188h40l141 -188l-141 -188h-40zM203 58l141 188l-141 188h40l141 -188l-141 -188h-40z" />
    <glyph glyph-name="questiondown" unicode="&#xbf;" horiz-adv-x="378" 
d="M232 418q-13 0 -22.5 10t-9.5 24t9.5 24t22.5 10t22.5 -10t9.5 -24t-9.5 -24t-22.5 -10zM225 -199q-178 0 -178 158q0 100 99 167q42 28 60.5 56.5t18.5 67.5q0 30 -5 62h28q7 -35 7 -68q0 -48 -20.5 -81t-66.5 -63q-86 -55 -86 -140q0 -126 144 -126q49 0 82 20l14 -29
q-38 -24 -97 -24z" />
    <glyph glyph-name="Agrave" unicode="&#xc0;" horiz-adv-x="675" 
d="M10 0v25q13 5 66 5l241 636h41l240 -636q45 0 67 -5v-25h-182v25q14 3 76 5l-68 180h-310l-69 -180q63 -2 77 -5v-25h-179zM192 241h288l-120 318q-18 50 -23 66h-2q-11 -35 -24 -67zM323 707l-126 121h55l101 -121h-30z" />
    <glyph glyph-name="Aacute" unicode="&#xc1;" horiz-adv-x="675" 
d="M10 0v25q13 5 66 5l241 636h41l240 -636q45 0 67 -5v-25h-182v25q14 3 76 5l-68 180h-310l-69 -180q63 -2 77 -5v-25h-179zM192 241h288l-120 318q-18 50 -23 66h-2q-11 -35 -24 -67zM319 707l100 121h56l-126 -121h-30z" />
    <glyph glyph-name="Acircumflex" unicode="&#xc2;" horiz-adv-x="675" 
d="M10 0v25q13 5 66 5l241 636h41l240 -636q45 0 67 -5v-25h-182v25q14 3 76 5l-68 180h-310l-69 -180q63 -2 77 -5v-25h-179zM192 241h288l-120 318q-18 50 -23 66h-2q-11 -35 -24 -67zM210 708l118 143h17l118 -143h-34l-93 103l-92 -103h-34z" />
    <glyph glyph-name="Atilde" unicode="&#xc3;" horiz-adv-x="675" 
d="M10 0v25q13 5 66 5l241 636h41l240 -636q45 0 67 -5v-25h-182v25q14 3 76 5l-68 180h-310l-69 -180q63 -2 77 -5v-25h-179zM192 241h288l-120 318q-18 50 -23 66h-2q-11 -35 -24 -67zM382 715q-22 0 -49.5 21t-44.5 21q-28 0 -57 -34l-19 20q37 47 79 47q22 0 49.5 -21.5
t44.5 -21.5q29 0 57 35l19 -22q-36 -45 -79 -45z" />
    <glyph glyph-name="Adieresis" unicode="&#xc4;" horiz-adv-x="675" 
d="M10 0v25q13 5 66 5l241 636h41l240 -636q45 0 67 -5v-25h-182v25q14 3 76 5l-68 180h-310l-69 -180q63 -2 77 -5v-25h-179zM192 241h288l-120 318q-18 50 -23 66h-2q-11 -35 -24 -67zM258 715q-12 0 -20.5 8.5t-8.5 22.5q0 13 8.5 22t20.5 9t20.5 -9t8.5 -22
q0 -14 -8.5 -22.5t-20.5 -8.5zM414 715q-12 0 -20.5 8.5t-8.5 22.5q0 13 8.5 22t20.5 9t21 -9t9 -22q0 -14 -9 -22.5t-21 -8.5z" />
    <glyph glyph-name="Aring" unicode="&#xc5;" horiz-adv-x="675" 
d="M10 0v25q13 5 66 5l241 636h41l240 -636q45 0 67 -5v-25h-182v25q14 3 76 5l-68 180h-310l-69 -180q63 -2 77 -5v-25h-179zM192 241h288l-120 318q-18 50 -23 66h-2q-11 -35 -24 -67zM335 706q-36 0 -60.5 26t-24.5 61q0 37 25 63.5t62 26.5q36 0 60.5 -26.5t24.5 -61.5
q0 -36 -25 -62.5t-62 -26.5zM337 731q26 0 42 18.5t16 43.5t-16 45t-44 20q-26 0 -42 -19t-16 -44t16 -44.5t44 -19.5z" />
    <glyph glyph-name="AE" unicode="&#xc6;" horiz-adv-x="856" 
d="M2 0v25q47 4 64 5l351 606q-55 0 -82 5v25h467v-144h-29q-6 26 -6 113h-275v-276h204q0 52 6 82h27v-194h-27q-6 28 -6 82h-204v-298h282q0 84 6 114h29v-145h-438v25q27 5 84 5v172h-250l-100 -172q40 -2 67 -5v-25h-170zM224 235h231v401h-1q-37 -68 -136 -237z" />
    <glyph glyph-name="Ccedilla" unicode="&#xc7;" horiz-adv-x="633" 
d="M377 -10q-145 0 -237 95.5t-92 242.5q0 148 93.5 248t238.5 100q112 0 183 -47v-133h-29q-6 32 -6 113q-60 36 -150 36q-127 0 -210 -90.5t-83 -221.5q0 -133 83.5 -222.5t211.5 -89.5q104 0 166 42q0 88 6 118h29v-132q-67 -59 -204 -59zM336 -212q-40 0 -59 12l9 26
q24 -11 50 -11q60 0 60 46q0 42 -71 42h-4l39 102h28l-30 -80q32 -2 51 -19.5t19 -43.5q0 -35 -26 -54.5t-66 -19.5z" />
    <glyph glyph-name="Egrave" unicode="&#xc8;" horiz-adv-x="531" 
d="M43 0v25q28 5 85 5v606q-57 0 -85 5v25h434v-144h-29q-5 22 -5 113h-278v-276h206q0 52 6 82h27v-194h-27q-6 28 -6 82h-206v-298h285q0 89 5 114h29v-145h-441zM277 707l-126 121h55l101 -121h-30z" />
    <glyph glyph-name="Eacute" unicode="&#xc9;" horiz-adv-x="531" 
d="M271 707l100 121h56l-126 -121h-30zM43 0v25q28 5 85 5v606q-57 0 -85 5v25h434v-144h-29q-5 22 -5 113h-278v-276h206q0 52 6 82h27v-194h-27q-6 28 -6 82h-206v-298h285q0 89 5 114h29v-145h-441z" />
    <glyph glyph-name="Ecircumflex" unicode="&#xca;" horiz-adv-x="531" 
d="M162 708l118 143h17l118 -143h-34l-93 103l-92 -103h-34zM43 0v25q28 5 85 5v606q-57 0 -85 5v25h434v-144h-29q-5 22 -5 113h-278v-276h206q0 52 6 82h27v-194h-27q-6 28 -6 82h-206v-298h285q0 89 5 114h29v-145h-441z" />
    <glyph glyph-name="Edieresis" unicode="&#xcb;" horiz-adv-x="531" 
d="M210 715q-12 0 -20.5 8.5t-8.5 22.5q0 13 8.5 22t20.5 9t20.5 -9t8.5 -22q0 -14 -8.5 -22.5t-20.5 -8.5zM366 715q-12 0 -20.5 8.5t-8.5 22.5q0 13 8.5 22t20.5 9t21 -9t9 -22q0 -14 -9 -22.5t-21 -8.5zM43 0v25q28 5 85 5v606q-57 0 -85 5v25h434v-144h-29q-5 22 -5 113
h-278v-276h206q0 52 6 82h27v-194h-27q-6 28 -6 82h-206v-298h285q0 89 5 114h29v-145h-441z" />
    <glyph glyph-name="Igrave" unicode="&#xcc;" horiz-adv-x="293" 
d="M43 0v25q28 5 85 5v606q-57 0 -85 5v25h206v-25q-27 -5 -84 -5v-606q57 0 84 -5v-25h-206zM135 707l-126 121h55l101 -121h-30z" />
    <glyph glyph-name="Iacute" unicode="&#xcd;" horiz-adv-x="293" 
d="M43 0v25q28 5 85 5v606q-57 0 -85 5v25h206v-25q-27 -5 -84 -5v-606q57 0 84 -5v-25h-206zM131 707l100 121h56l-126 -121h-30z" />
    <glyph glyph-name="Icircumflex" unicode="&#xce;" horiz-adv-x="293" 
d="M43 0v25q28 5 85 5v606q-57 0 -85 5v25h206v-25q-27 -5 -84 -5v-606q57 0 84 -5v-25h-206zM22 708l118 143h17l118 -143h-34l-93 103l-92 -103h-34z" />
    <glyph glyph-name="Idieresis" unicode="&#xcf;" horiz-adv-x="293" 
d="M43 0v25q28 5 85 5v606q-57 0 -85 5v25h206v-25q-27 -5 -84 -5v-606q57 0 84 -5v-25h-206zM70 715q-12 0 -20.5 8.5t-8.5 22.5q0 13 8.5 22t20.5 9t20.5 -9t8.5 -22q0 -14 -8.5 -22.5t-20.5 -8.5zM226 715q-12 0 -20.5 8.5t-8.5 22.5q0 13 8.5 22t20.5 9t21 -9t9 -22
q0 -14 -9 -22.5t-21 -8.5z" />
    <glyph glyph-name="Eth" unicode="&#xd0;" horiz-adv-x="685" 
d="M57 330v31h79v275q-57 0 -85 5v25h221q172 0 268.5 -84.5t96.5 -241.5q0 -160 -97 -250t-270 -90h-219v25q28 5 85 5v300h-79zM173 635v-274h110v-31h-110v-299h100q154 0 240.5 79t86.5 225t-87 223t-243 77h-97z" />
    <glyph glyph-name="Ntilde" unicode="&#xd1;" horiz-adv-x="729" 
d="M43 0v25q28 5 85 5v606q-57 0 -85 5v25h122l349 -513q12 -17 32.5 -48t29.5 -44h1q-1 13 -1 40v535q-57 0 -84 5v25h204v-25q-28 -5 -85 -5v-636h-36l-360 530q-10 14 -27.5 40.5t-24.5 36.5h-1q1 -11 1 -35v-542q57 0 84 -5v-25h-204zM415 715q-22 0 -49.5 21t-44.5 21
q-28 0 -57 -34l-19 20q37 47 79 47q22 0 49.5 -21.5t44.5 -21.5q29 0 57 35l19 -22q-36 -45 -79 -45z" />
    <glyph glyph-name="Ograve" unicode="&#xd2;" horiz-adv-x="728" 
d="M363 -10q-141 0 -228 99.5t-87 242.5q0 144 87 244t229 100t229 -99.5t87 -242.5q0 -144 -87.5 -244t-229.5 -100zM364 21q125 0 201.5 90.5t76.5 220.5t-77.5 221.5t-201.5 91.5q-125 0 -201.5 -90.5t-76.5 -220.5t77.5 -221.5t201.5 -91.5zM350 707l-126 121h55
l101 -121h-30z" />
    <glyph glyph-name="Oacute" unicode="&#xd3;" horiz-adv-x="728" 
d="M346 707l100 121h56l-126 -121h-30zM363 -10q-141 0 -228 99.5t-87 242.5q0 144 87 244t229 100t229 -99.5t87 -242.5q0 -144 -87.5 -244t-229.5 -100zM364 21q125 0 201.5 90.5t76.5 220.5t-77.5 221.5t-201.5 91.5q-125 0 -201.5 -90.5t-76.5 -220.5t77.5 -221.5
t201.5 -91.5z" />
    <glyph glyph-name="Ocircumflex" unicode="&#xd4;" horiz-adv-x="728" 
d="M237 708l118 143h17l118 -143h-34l-93 103l-92 -103h-34zM363 -10q-141 0 -228 99.5t-87 242.5q0 144 87 244t229 100t229 -99.5t87 -242.5q0 -144 -87.5 -244t-229.5 -100zM364 21q125 0 201.5 90.5t76.5 220.5t-77.5 221.5t-201.5 91.5q-125 0 -201.5 -90.5
t-76.5 -220.5t77.5 -221.5t201.5 -91.5z" />
    <glyph glyph-name="Otilde" unicode="&#xd5;" horiz-adv-x="728" 
d="M363 -10q-141 0 -228 99.5t-87 242.5q0 144 87 244t229 100t229 -99.5t87 -242.5q0 -144 -87.5 -244t-229.5 -100zM364 21q125 0 201.5 90.5t76.5 220.5t-77.5 221.5t-201.5 91.5q-125 0 -201.5 -90.5t-76.5 -220.5t77.5 -221.5t201.5 -91.5zM409 715q-22 0 -49.5 21
t-44.5 21q-28 0 -57 -34l-19 20q37 47 79 47q22 0 49.5 -21.5t44.5 -21.5q29 0 57 35l19 -22q-36 -45 -79 -45z" />
    <glyph glyph-name="Odieresis" unicode="&#xd6;" horiz-adv-x="728" 
d="M285 715q-12 0 -20.5 8.5t-8.5 22.5q0 13 8.5 22t20.5 9t20.5 -9t8.5 -22q0 -14 -8.5 -22.5t-20.5 -8.5zM441 715q-12 0 -20.5 8.5t-8.5 22.5q0 13 8.5 22t20.5 9t21 -9t9 -22q0 -14 -9 -22.5t-21 -8.5zM363 -10q-141 0 -228 99.5t-87 242.5q0 144 87 244t229 100
t229 -99.5t87 -242.5q0 -144 -87.5 -244t-229.5 -100zM364 21q125 0 201.5 90.5t76.5 220.5t-77.5 221.5t-201.5 91.5q-125 0 -201.5 -90.5t-76.5 -220.5t77.5 -221.5t201.5 -91.5z" />
    <glyph glyph-name="multiply" unicode="&#xd7;" horiz-adv-x="497" 
d="M387 105l-140 138l-138 -138l-23 23l138 138l-138 138l24 24l138 -138l138 139l23 -23l-138 -139l140 -138z" />
    <glyph glyph-name="Oslash" unicode="&#xd8;" horiz-adv-x="728" 
d="M147 -59l-24 16l58 90q-64 47 -98.5 121.5t-34.5 163.5q0 144 87 244t229 100q107 0 187 -61l64 99l25 -17l-66 -101q106 -100 106 -262q0 -144 -87.5 -244t-229.5 -100q-90 0 -158 41zM85 334q0 -78 30.5 -146t85.5 -111l331 508q-72 59 -169 59q-125 0 -201.5 -90
t-76.5 -220zM364 22q125 0 201.5 90t76.5 220q0 141 -89 233l-329 -505q62 -38 140 -38z" />
    <glyph glyph-name="Ugrave" unicode="&#xd9;" horiz-adv-x="695" 
d="M348 -10q-236 0 -236 257v389q-58 0 -85 5v25h206v-25q-27 -5 -84 -5v-387q0 -113 48 -170.5t153 -57.5q199 0 199 225v390q-57 0 -84 5v25h203v-25q-27 -5 -85 -5v-388q0 -127 -56 -192.5t-179 -65.5zM336 707l-126 121h55l101 -121h-30z" />
    <glyph glyph-name="Uacute" unicode="&#xda;" horiz-adv-x="695" 
d="M331 707l100 121h56l-126 -121h-30zM348 -10q-236 0 -236 257v389q-58 0 -85 5v25h206v-25q-27 -5 -84 -5v-387q0 -113 48 -170.5t153 -57.5q199 0 199 225v390q-57 0 -84 5v25h203v-25q-27 -5 -85 -5v-388q0 -127 -56 -192.5t-179 -65.5z" />
    <glyph glyph-name="Ucircumflex" unicode="&#xdb;" horiz-adv-x="695" 
d="M222 708l118 143h17l118 -143h-34l-93 103l-92 -103h-34zM348 -10q-236 0 -236 257v389q-58 0 -85 5v25h206v-25q-27 -5 -84 -5v-387q0 -113 48 -170.5t153 -57.5q199 0 199 225v390q-57 0 -84 5v25h203v-25q-27 -5 -85 -5v-388q0 -127 -56 -192.5t-179 -65.5z" />
    <glyph glyph-name="Udieresis" unicode="&#xdc;" horiz-adv-x="695" 
d="M271 715q-12 0 -20.5 8.5t-8.5 22.5q0 13 8.5 22t20.5 9t20.5 -9t8.5 -22q0 -14 -8.5 -22.5t-20.5 -8.5zM427 715q-12 0 -20.5 8.5t-8.5 22.5q0 13 8.5 22t20.5 9t21 -9t9 -22q0 -14 -9 -22.5t-21 -8.5zM348 -10q-236 0 -236 257v389q-58 0 -85 5v25h206v-25
q-27 -5 -84 -5v-387q0 -113 48 -170.5t153 -57.5q199 0 199 225v390q-57 0 -84 5v25h203v-25q-27 -5 -85 -5v-388q0 -127 -56 -192.5t-179 -65.5z" />
    <glyph glyph-name="Yacute" unicode="&#xdd;" horiz-adv-x="594" 
d="M194 0v25q34 6 85 6v219l-202 386q-48 0 -73 5v25h197v-25q-27 -5 -80 -5l177 -348h1l178 348q-54 0 -81 5v25h194v-25q-25 -5 -74 -5l-200 -384v-221q52 0 84 -6v-25h-206zM280 710l100 121h56l-126 -121h-30z" />
    <glyph glyph-name="Thorn" unicode="&#xde;" horiz-adv-x="520" 
d="M43 0v25q28 5 85 5v606q-57 0 -85 5v25h122v-122h90q108 0 166.5 -49t58.5 -135t-59 -137t-168 -51h-88v-142q59 0 86 -5v-25h-208zM165 513v-309h87q96 0 143.5 42t47.5 113q0 70 -47.5 112t-142.5 42h-88z" />
    <glyph glyph-name="germandbls" unicode="&#xdf;" horiz-adv-x="528" 
d="M351 -11q-79 0 -117 36l19 27q41 -32 98 -32q48 0 82 25.5t34 67.5q0 35 -24.5 57t-84.5 54q-24 12 -40.5 22t-34 25.5t-26.5 34.5t-9 42q0 45 24 73t71 52q47 25 66 50.5t19 68.5q0 46 -32 77t-87 31q-63 0 -104 -51.5t-41 -150.5v-498h-121v25q28 5 85 5v415h-85v30h85
v19q0 114 51.5 175t131.5 61q70 0 111.5 -39.5t41.5 -95.5q0 -54 -25 -86.5t-71 -55.5q-48 -24 -67 -45.5t-19 -55.5q0 -33 25 -54.5t82 -50.5q28 -15 42.5 -23.5t34.5 -25t28.5 -36.5t8.5 -45q0 -59 -43.5 -93.5t-108.5 -34.5z" />
    <glyph glyph-name="agrave" unicode="&#xe0;" horiz-adv-x="465" 
d="M177 -10q-59 0 -94.5 32t-35.5 86q0 46 23 79t61.5 49.5t79 24t85.5 7.5h24v63q0 124 -112 124q-70 0 -125 -51l-19 24q61 58 147 58q70 0 107.5 -37.5t37.5 -109.5v-253q0 -23 2 -57q29 -3 82 -3v-26q-25 -4 -112 -4q-6 32 -6 65h-1q-54 -71 -144 -71zM181 22
q80 0 139 71v146h-24q-92 0 -152 -31t-60 -98q0 -40 28 -64t69 -24zM198 539l-126 121h55l101 -121h-30z" />
    <glyph glyph-name="aacute" unicode="&#xe1;" horiz-adv-x="465" 
d="M177 -10q-59 0 -94.5 32t-35.5 86q0 46 23 79t61.5 49.5t79 24t85.5 7.5h24v63q0 124 -112 124q-70 0 -125 -51l-19 24q61 58 147 58q70 0 107.5 -37.5t37.5 -109.5v-253q0 -23 2 -57q29 -3 82 -3v-26q-25 -4 -112 -4q-6 32 -6 65h-1q-54 -71 -144 -71zM181 22
q80 0 139 71v146h-24q-92 0 -152 -31t-60 -98q0 -40 28 -64t69 -24zM192 539l100 121h56l-126 -121h-30z" />
    <glyph glyph-name="acircumflex" unicode="&#xe2;" horiz-adv-x="465" 
d="M177 -10q-59 0 -94.5 32t-35.5 86q0 46 23 79t61.5 49.5t79 24t85.5 7.5h24v63q0 124 -112 124q-70 0 -125 -51l-19 24q61 58 147 58q70 0 107.5 -37.5t37.5 -109.5v-253q0 -23 2 -57q29 -3 82 -3v-26q-25 -4 -112 -4q-6 32 -6 65h-1q-54 -71 -144 -71zM181 22
q80 0 139 71v146h-24q-92 0 -152 -31t-60 -98q0 -40 28 -64t69 -24zM85 540l118 143h17l118 -143h-34l-93 103l-92 -103h-34z" />
    <glyph glyph-name="atilde" unicode="&#xe3;" horiz-adv-x="465" 
d="M177 -10q-59 0 -94.5 32t-35.5 86q0 46 23 79t61.5 49.5t79 24t85.5 7.5h24v63q0 124 -112 124q-70 0 -125 -51l-19 24q61 58 147 58q70 0 107.5 -37.5t37.5 -109.5v-253q0 -23 2 -57q29 -3 82 -3v-26q-25 -4 -112 -4q-6 32 -6 65h-1q-54 -71 -144 -71zM181 22
q80 0 139 71v146h-24q-92 0 -152 -31t-60 -98q0 -40 28 -64t69 -24zM257 547q-22 0 -49.5 21t-44.5 21q-28 0 -57 -34l-19 20q37 47 79 47q22 0 49.5 -21.5t44.5 -21.5q29 0 57 35l19 -22q-36 -45 -79 -45z" />
    <glyph glyph-name="adieresis" unicode="&#xe4;" horiz-adv-x="465" 
d="M177 -10q-59 0 -94.5 32t-35.5 86q0 46 23 79t61.5 49.5t79 24t85.5 7.5h24v63q0 124 -112 124q-70 0 -125 -51l-19 24q61 58 147 58q70 0 107.5 -37.5t37.5 -109.5v-253q0 -23 2 -57q29 -3 82 -3v-26q-25 -4 -112 -4q-6 32 -6 65h-1q-54 -71 -144 -71zM181 22
q80 0 139 71v146h-24q-92 0 -152 -31t-60 -98q0 -40 28 -64t69 -24zM133 547q-12 0 -20.5 8.5t-8.5 22.5q0 13 8.5 22t20.5 9t20.5 -9t8.5 -22q0 -14 -8.5 -22.5t-20.5 -8.5zM289 547q-12 0 -20.5 8.5t-8.5 22.5q0 13 8.5 22t20.5 9t21 -9t9 -22q0 -14 -9 -22.5t-21 -8.5z
" />
    <glyph glyph-name="aring" unicode="&#xe5;" horiz-adv-x="465" 
d="M177 -10q-59 0 -94.5 32t-35.5 86q0 46 23 79t61.5 49.5t79 24t85.5 7.5h24v63q0 124 -112 124q-70 0 -125 -51l-19 24q61 58 147 58q70 0 107.5 -37.5t37.5 -109.5v-253q0 -23 2 -57q29 -3 82 -3v-26q-25 -4 -112 -4q-6 32 -6 65h-1q-54 -71 -144 -71zM181 22
q80 0 139 71v146h-24q-92 0 -152 -31t-60 -98q0 -40 28 -64t69 -24zM210 538q-36 0 -60.5 26t-24.5 61q0 37 25 63.5t62 26.5q36 0 60.5 -26.5t24.5 -61.5q0 -36 -25 -62.5t-62 -26.5zM212 563q26 0 42 18.5t16 43.5t-16 45t-44 20q-26 0 -42 -19t-16 -44t16 -44.5t44 -19.5
z" />
    <glyph glyph-name="ae" unicode="&#xe6;" horiz-adv-x="740" 
d="M177 -10q-59 0 -94.5 32t-35.5 86q0 37 16 65.5t41 46t59 29t66.5 15.5t67.5 4h23v63q0 63 -27 93.5t-85 30.5q-71 0 -124 -51l-20 24q62 58 148 58q59 0 95.5 -29.5t41.5 -85.5q22 53 67.5 84t106.5 31q80 0 125 -54t45 -140v-13q0 -10 -1 -15h-336q-1 -4 -1 -11v-9
q0 -97 46.5 -160t131.5 -63t138 46l16 -28q-65 -49 -159 -49q-123 0 -178 101q-27 -46 -72.5 -73.5t-100.5 -27.5zM181 22q46 0 89 25t70 69q-20 50 -22 123h-21q-92 0 -152.5 -31t-60.5 -98q0 -40 28 -64t69 -24zM517 455q-64 0 -106.5 -46t-52.5 -115h298q0 68 -35 114.5
t-104 46.5z" />
    <glyph glyph-name="ccedilla" unicode="&#xe7;" horiz-adv-x="435" 
d="M248 -10q-97 0 -150 71.5t-53 172.5q0 108 57.5 180t151.5 72q86 0 136 -45v-108h-28q-5 25 -5 93q-39 29 -105 29q-80 0 -125 -62.5t-45 -154.5q0 -87 45.5 -152t123.5 -65q82 0 127 45l17 -27q-54 -49 -147 -49zM223 -212q-40 0 -59 12l9 26q24 -11 50 -11q60 0 60 46
q0 42 -71 42h-4l39 102h28l-30 -80q32 -2 51 -19.5t19 -43.5q0 -35 -26 -54.5t-66 -19.5z" />
    <glyph glyph-name="egrave" unicode="&#xe8;" horiz-adv-x="466" 
d="M255 -10q-101 0 -155.5 70.5t-54.5 176.5q0 108 55.5 178.5t149.5 70.5q80 0 125 -54t45 -140v-13q0 -10 -1 -15h-337v-20q0 -97 46.5 -160t130.5 -63q85 0 138 46l17 -28q-65 -49 -159 -49zM85 294h298q0 68 -35 114.5t-104 46.5q-64 0 -106.5 -46t-52.5 -115zM227 539
l-126 121h55l101 -121h-30z" />
    <glyph glyph-name="eacute" unicode="&#xe9;" horiz-adv-x="466" 
d="M221 539l100 121h56l-126 -121h-30zM255 -10q-101 0 -155.5 70.5t-54.5 176.5q0 108 55.5 178.5t149.5 70.5q80 0 125 -54t45 -140v-13q0 -10 -1 -15h-337v-20q0 -97 46.5 -160t130.5 -63q85 0 138 46l17 -28q-65 -49 -159 -49zM85 294h298q0 68 -35 114.5t-104 46.5
q-64 0 -106.5 -46t-52.5 -115z" />
    <glyph glyph-name="ecircumflex" unicode="&#xea;" horiz-adv-x="466" 
d="M113 540l118 143h17l118 -143h-34l-93 103l-92 -103h-34zM255 -10q-101 0 -155.5 70.5t-54.5 176.5q0 108 55.5 178.5t149.5 70.5q80 0 125 -54t45 -140v-13q0 -10 -1 -15h-337v-20q0 -97 46.5 -160t130.5 -63q85 0 138 46l17 -28q-65 -49 -159 -49zM85 294h298
q0 68 -35 114.5t-104 46.5q-64 0 -106.5 -46t-52.5 -115z" />
    <glyph glyph-name="edieresis" unicode="&#xeb;" horiz-adv-x="466" 
d="M162 547q-12 0 -20.5 8.5t-8.5 22.5q0 13 8.5 22t20.5 9t20.5 -9t8.5 -22q0 -14 -8.5 -22.5t-20.5 -8.5zM318 547q-12 0 -20.5 8.5t-8.5 22.5q0 13 8.5 22t20.5 9t21 -9t9 -22q0 -14 -9 -22.5t-21 -8.5zM255 -10q-101 0 -155.5 70.5t-54.5 176.5q0 108 55.5 178.5
t149.5 70.5q80 0 125 -54t45 -140v-13q0 -10 -1 -15h-337v-20q0 -97 46.5 -160t130.5 -63q85 0 138 46l17 -28q-65 -49 -159 -49zM85 294h298q0 68 -35 114.5t-104 46.5q-64 0 -106.5 -46t-52.5 -115z" />
    <glyph glyph-name="igrave" unicode="&#xec;" horiz-adv-x="275" 
d="M39 0v25q28 5 85 5v416q-31 3 -85 3v26q33 5 124 5l-3 -65v-385q57 0 84 -5v-25h-205zM131 539l-126 121h55l101 -121h-30z" />
    <glyph glyph-name="iacute" unicode="&#xed;" horiz-adv-x="275" 
d="M126 539l100 121h56l-126 -121h-30zM39 0v25q28 5 85 5v416q-31 3 -85 3v26q33 5 124 5l-3 -65v-385q57 0 84 -5v-25h-205z" />
    <glyph glyph-name="icircumflex" unicode="&#xee;" horiz-adv-x="275" 
d="M17 540l118 143h17l118 -143h-34l-93 103l-92 -103h-34zM39 0v25q28 5 85 5v416q-31 3 -85 3v26q33 5 124 5l-3 -65v-385q57 0 84 -5v-25h-205z" />
    <glyph glyph-name="idieresis" unicode="&#xef;" horiz-adv-x="275" 
d="M65 547q-12 0 -20.5 8.5t-8.5 22.5q0 13 8.5 22t20.5 9t20.5 -9t8.5 -22q0 -14 -8.5 -22.5t-20.5 -8.5zM221 547q-12 0 -20.5 8.5t-8.5 22.5q0 13 8.5 22t20.5 9t21 -9t9 -22q0 -14 -9 -22.5t-21 -8.5zM39 0v25q28 5 85 5v416q-31 3 -85 3v26q33 5 124 5l-3 -65v-385
q57 0 84 -5v-25h-205z" />
    <glyph glyph-name="eth" unicode="&#xf0;" horiz-adv-x="529" 
d="M258 -10q-98 0 -155 74t-57 172q0 105 56 176.5t157 71.5q58 0 106.5 -27t75.5 -65q-20 169 -133 248l-92 -75l-20 24l84 68q-76 42 -183 42l7 31q117 0 204 -50l70 57l20 -24l-63 -51q148 -106 148 -338q0 -63 -12.5 -120.5t-38 -106.5t-70.5 -78t-104 -29zM260 21
q49 0 86 26t58 70t31.5 96t10.5 111v13q0 10 -1 13q-32 45 -81 74t-108 29q-83 0 -128 -62.5t-45 -152.5q0 -84 46.5 -150.5t130.5 -66.5z" />
    <glyph glyph-name="ntilde" unicode="&#xf1;" horiz-adv-x="565" 
d="M39 0v25q28 5 85 5v416q-31 3 -85 3v26q33 5 124 5l-4 -86h2q27 38 67.5 65t90.5 27q69 0 103 -41t34 -111v-304q57 0 84 -5v-25h-205v25q28 5 85 5v297q0 127 -107 127q-46 0 -87.5 -30.5t-65.5 -68.5v-325q57 0 84 -5v-25h-205zM333 547q-22 0 -49.5 21t-44.5 21
q-28 0 -57 -34l-19 20q37 47 79 47q22 0 49.5 -21.5t44.5 -21.5q29 0 57 35l19 -22q-36 -45 -79 -45z" />
    <glyph glyph-name="ograve" unicode="&#xf2;" horiz-adv-x="510" 
d="M253 -10q-100 0 -154 71.5t-54 174.5q0 102 55 176t155 74t155 -72t55 -175q0 -102 -56 -175.5t-156 -73.5zM255 20q82 0 127.5 64t45.5 153q0 90 -46.5 154t-128.5 64t-126.5 -63t-44.5 -153t45.5 -154.5t127.5 -64.5zM243 539l-126 121h55l101 -121h-30z" />
    <glyph glyph-name="oacute" unicode="&#xf3;" horiz-adv-x="510" 
d="M236 539l100 121h56l-126 -121h-30zM253 -10q-100 0 -154 71.5t-54 174.5q0 102 55 176t155 74t155 -72t55 -175q0 -102 -56 -175.5t-156 -73.5zM255 20q82 0 127.5 64t45.5 153q0 90 -46.5 154t-128.5 64t-126.5 -63t-44.5 -153t45.5 -154.5t127.5 -64.5z" />
    <glyph glyph-name="ocircumflex" unicode="&#xf4;" horiz-adv-x="510" 
d="M127 540l118 143h17l118 -143h-34l-93 103l-92 -103h-34zM253 -10q-100 0 -154 71.5t-54 174.5q0 102 55 176t155 74t155 -72t55 -175q0 -102 -56 -175.5t-156 -73.5zM255 20q82 0 127.5 64t45.5 153q0 90 -46.5 154t-128.5 64t-126.5 -63t-44.5 -153t45.5 -154.5
t127.5 -64.5z" />
    <glyph glyph-name="otilde" unicode="&#xf5;" horiz-adv-x="510" 
d="M253 -10q-100 0 -154 71.5t-54 174.5q0 102 55 176t155 74t155 -72t55 -175q0 -102 -56 -175.5t-156 -73.5zM255 20q82 0 127.5 64t45.5 153q0 90 -46.5 154t-128.5 64t-126.5 -63t-44.5 -153t45.5 -154.5t127.5 -64.5zM299 547q-22 0 -49.5 21t-44.5 21q-28 0 -57 -34
l-19 20q37 47 79 47q22 0 49.5 -21.5t44.5 -21.5q29 0 57 35l19 -22q-36 -45 -79 -45z" />
    <glyph glyph-name="odieresis" unicode="&#xf6;" horiz-adv-x="510" 
d="M175 547q-12 0 -20.5 8.5t-8.5 22.5q0 13 8.5 22t20.5 9t20.5 -9t8.5 -22q0 -14 -8.5 -22.5t-20.5 -8.5zM331 547q-12 0 -20.5 8.5t-8.5 22.5q0 13 8.5 22t20.5 9t21 -9t9 -22q0 -14 -9 -22.5t-21 -8.5zM253 -10q-100 0 -154 71.5t-54 174.5q0 102 55 176t155 74t155 -72
t55 -175q0 -102 -56 -175.5t-156 -73.5zM255 20q82 0 127.5 64t45.5 153q0 90 -46.5 154t-128.5 64t-126.5 -63t-44.5 -153t45.5 -154.5t127.5 -64.5z" />
    <glyph glyph-name="oslash" unicode="&#xf8;" horiz-adv-x="512" 
d="M79 -47l-24 15l53 82q-63 69 -63 186q0 102 55.5 176t155.5 74q68 0 115 -35l59 90l25 -16l-61 -93q73 -71 73 -193q0 -102 -56.5 -175.5t-156.5 -73.5q-74 0 -124 41zM256 21q82 0 128 63t46 153q0 101 -57 164l-223 -341q44 -39 106 -39zM82 239q0 -93 48 -157l222 339
q-44 34 -98 34q-82 0 -127 -63t-45 -153z" />
    <glyph glyph-name="ugrave" unicode="&#xf9;" horiz-adv-x="553" 
d="M242 -10q-70 0 -103 40.5t-33 110.5v305q-44 3 -74 3v26q32 5 113 5l-3 -65v-267q0 -127 107 -127q45 0 88 31t65 69v325q-29 3 -82 3v26q33 5 121 5l-3 -65v-332q0 -31 3 -54q28 -3 82 -3v-26q-27 -4 -113 -4q-7 28 -7 87h-2q-60 -93 -159 -93zM261 539l-126 121h55
l101 -121h-30z" />
    <glyph glyph-name="uacute" unicode="&#xfa;" horiz-adv-x="553" 
d="M255 539l100 121h56l-126 -121h-30zM242 -10q-70 0 -103 40.5t-33 110.5v305q-44 3 -74 3v26q32 5 113 5l-3 -65v-267q0 -127 107 -127q45 0 88 31t65 69v325q-29 3 -82 3v26q33 5 121 5l-3 -65v-332q0 -31 3 -54q28 -3 82 -3v-26q-27 -4 -113 -4q-7 28 -7 87h-2
q-60 -93 -159 -93z" />
    <glyph glyph-name="ucircumflex" unicode="&#xfb;" horiz-adv-x="553" 
d="M146 540l118 143h17l118 -143h-34l-93 103l-92 -103h-34zM242 -10q-70 0 -103 40.5t-33 110.5v305q-44 3 -74 3v26q32 5 113 5l-3 -65v-267q0 -127 107 -127q45 0 88 31t65 69v325q-29 3 -82 3v26q33 5 121 5l-3 -65v-332q0 -31 3 -54q28 -3 82 -3v-26q-27 -4 -113 -4
q-7 28 -7 87h-2q-60 -93 -159 -93z" />
    <glyph glyph-name="udieresis" unicode="&#xfc;" horiz-adv-x="553" 
d="M194 547q-12 0 -20.5 8.5t-8.5 22.5q0 13 8.5 22t20.5 9t20.5 -9t8.5 -22q0 -14 -8.5 -22.5t-20.5 -8.5zM350 547q-12 0 -20.5 8.5t-8.5 22.5q0 13 8.5 22t20.5 9t21 -9t9 -22q0 -14 -9 -22.5t-21 -8.5zM242 -10q-70 0 -103 40.5t-33 110.5v305q-44 3 -74 3v26
q32 5 113 5l-3 -65v-267q0 -127 107 -127q45 0 88 31t65 69v325q-29 3 -82 3v26q33 5 121 5l-3 -65v-332q0 -31 3 -54q28 -3 82 -3v-26q-27 -4 -113 -4q-7 28 -7 87h-2q-60 -93 -159 -93z" />
    <glyph glyph-name="yacute" unicode="&#xfd;" horiz-adv-x="495" 
d="M75 -229q-24 0 -33 4l4 29q14 -2 31 -2q48 0 76.5 31t51.5 98l26 72l-167 442q-32 0 -58 6v24h172v-24q-30 -6 -76 -6l132 -357l14 -42h1q3 10 14 41l132 358q-46 0 -76 6v24h170v-24q-30 -6 -59 -6l-193 -517q-28 -77 -63.5 -117t-98.5 -40zM231 539l100 121h56
l-126 -121h-30z" />
    <glyph glyph-name="thorn" unicode="&#xfe;" horiz-adv-x="506" 
d="M22 -219v24q22 6 75 6v876q-29 3 -84 3v26q33 5 123 5l-3 -65v-231h2q53 61 131 61q97 0 146.5 -69t49.5 -177q0 -102 -57.5 -176t-156.5 -74q-71 0 -114 40h-1v-219q58 0 78 -6v-24h-189zM248 22q85 0 131 64.5t46 150.5q0 92 -40 154.5t-126 62.5q-33 0 -67.5 -17.5
t-58.5 -46.5v-325q42 -43 115 -43z" />
    <glyph glyph-name="ydieresis" unicode="&#xff;" horiz-adv-x="495" 
d="M75 -229q-24 0 -33 4l4 29q14 -2 31 -2q48 0 76.5 31t51.5 98l26 72l-167 442q-32 0 -58 6v24h172v-24q-30 -6 -76 -6l132 -357l14 -42h1q3 10 14 41l132 358q-46 0 -76 6v24h170v-24q-30 -6 -59 -6l-193 -517q-28 -77 -63.5 -117t-98.5 -40zM172 547q-12 0 -20.5 8.5
t-8.5 22.5q0 13 8.5 22t20.5 9t20.5 -9t8.5 -22q0 -14 -8.5 -22.5t-20.5 -8.5zM328 547q-12 0 -20.5 8.5t-8.5 22.5q0 13 8.5 22t20.5 9t21 -9t9 -22q0 -14 -9 -22.5t-21 -8.5z" />
    <glyph glyph-name="Amacron" unicode="&#x100;" horiz-adv-x="675" 
d="M10 0v25q13 5 66 5l241 636h41l240 -636q45 0 67 -5v-25h-182v25q14 3 76 5l-68 180h-310l-69 -180q63 -2 77 -5v-25h-179zM192 241h288l-120 318q-18 50 -23 66h-2q-11 -35 -24 -67zM204 754v32h265v-32h-265z" />
    <glyph glyph-name="amacron" unicode="&#x101;" horiz-adv-x="465" 
d="M177 -10q-59 0 -94.5 32t-35.5 86q0 46 23 79t61.5 49.5t79 24t85.5 7.5h24v63q0 124 -112 124q-70 0 -125 -51l-19 24q61 58 147 58q70 0 107.5 -37.5t37.5 -109.5v-253q0 -23 2 -57q29 -3 82 -3v-26q-25 -4 -112 -4q-6 32 -6 65h-1q-54 -71 -144 -71zM181 22
q80 0 139 71v146h-24q-92 0 -152 -31t-60 -98q0 -40 28 -64t69 -24zM79 586v32h265v-32h-265z" />
    <glyph glyph-name="Abreve" unicode="&#x102;" horiz-adv-x="675" 
d="M10 0v25q13 5 66 5l241 636h41l240 -636q45 0 67 -5v-25h-182v25q14 3 76 5l-68 180h-310l-69 -180q63 -2 77 -5v-25h-179zM192 241h288l-120 318q-18 50 -23 66h-2q-11 -35 -24 -67zM335 708q-52 0 -85.5 40t-39.5 96h32q4 -41 29.5 -73t65.5 -32q41 0 65 31.5t28 73.5
h32q-7 -56 -40 -96t-87 -40z" />
    <glyph glyph-name="abreve" unicode="&#x103;" horiz-adv-x="465" 
d="M177 -10q-59 0 -94.5 32t-35.5 86q0 46 23 79t61.5 49.5t79 24t85.5 7.5h24v63q0 124 -112 124q-70 0 -125 -51l-19 24q61 58 147 58q70 0 107.5 -37.5t37.5 -109.5v-253q0 -23 2 -57q29 -3 82 -3v-26q-25 -4 -112 -4q-6 32 -6 65h-1q-54 -71 -144 -71zM181 22
q80 0 139 71v146h-24q-92 0 -152 -31t-60 -98q0 -40 28 -64t69 -24zM211 540q-52 0 -85.5 40t-39.5 96h32q4 -41 29.5 -73t65.5 -32q41 0 65 31.5t28 73.5h32q-7 -56 -40 -96t-87 -40z" />
    <glyph glyph-name="Aogonek" unicode="&#x104;" horiz-adv-x="675" 
d="M10 0v25q13 5 66 5l241 636h41l240 -636q45 0 67 -5v-25h-182v25q14 3 76 5l-68 180h-310l-69 -180q63 -2 77 -5v-25h-179zM192 241h288l-120 318q-18 50 -23 66h-2q-11 -35 -24 -67zM604 -212q-41 0 -61.5 25t-20.5 62q0 57 58 125h32q0 -1 -11 -15t-14 -19t-11.5 -19
t-11.5 -23t-6.5 -22.5t-3.5 -25.5q0 -25 14.5 -42t38.5 -17t50 12l8 -24q-28 -17 -61 -17z" />
    <glyph glyph-name="aogonek" unicode="&#x105;" horiz-adv-x="465" 
d="M177 -10q-59 0 -94.5 32t-35.5 86q0 46 23 79t61.5 49.5t79 24t85.5 7.5h24v63q0 124 -112 124q-70 0 -125 -51l-19 24q61 58 147 58q70 0 107.5 -37.5t37.5 -109.5v-253q0 -23 2 -57q29 -3 82 -3v-26q-25 -4 -112 -4q-6 32 -6 65h-1q-54 -71 -144 -71zM181 22
q80 0 139 71v146h-24q-92 0 -152 -31t-60 -98q0 -40 28 -64t69 -24zM382 -212q-41 0 -61.5 25t-20.5 62q0 57 58 125h32q0 -1 -11 -15t-14 -19t-11.5 -19t-11.5 -23t-6.5 -22.5t-3.5 -25.5q0 -25 14.5 -42t38.5 -17t50 12l8 -24q-28 -17 -61 -17z" />
    <glyph glyph-name="Cacute" unicode="&#x106;" horiz-adv-x="633" 
d="M335 707l100 121h56l-126 -121h-30zM377 -10q-145 0 -237 95.5t-92 242.5q0 148 93.5 248t238.5 100q112 0 183 -47v-133h-29q-6 32 -6 113q-60 36 -150 36q-127 0 -210 -90.5t-83 -221.5q0 -133 83.5 -222.5t211.5 -89.5q104 0 166 42q0 88 6 118h29v-132
q-67 -59 -204 -59z" />
    <glyph glyph-name="cacute" unicode="&#x107;" horiz-adv-x="435" 
d="M222 539l100 121h56l-126 -121h-30zM248 -10q-97 0 -150 71.5t-53 172.5q0 108 57.5 180t151.5 72q86 0 136 -45v-108h-28q-5 25 -5 93q-39 29 -105 29q-80 0 -125 -62.5t-45 -154.5q0 -87 45.5 -152t123.5 -65q82 0 127 45l17 -27q-54 -49 -147 -49z" />
    <glyph glyph-name="Ccircumflex" unicode="&#x108;" horiz-adv-x="633" 
d="M226 708l118 143h17l118 -143h-34l-93 103l-92 -103h-34zM377 -10q-145 0 -237 95.5t-92 242.5q0 148 93.5 248t238.5 100q112 0 183 -47v-133h-29q-6 32 -6 113q-60 36 -150 36q-127 0 -210 -90.5t-83 -221.5q0 -133 83.5 -222.5t211.5 -89.5q104 0 166 42q0 88 6 118
h29v-132q-67 -59 -204 -59z" />
    <glyph glyph-name="ccircumflex" unicode="&#x109;" horiz-adv-x="435" 
d="M115 540l118 143h17l118 -143h-34l-93 103l-92 -103h-34zM248 -10q-97 0 -150 71.5t-53 172.5q0 108 57.5 180t151.5 72q86 0 136 -45v-108h-28q-5 25 -5 93q-39 29 -105 29q-80 0 -125 -62.5t-45 -154.5q0 -87 45.5 -152t123.5 -65q82 0 127 45l17 -27q-54 -49 -147 -49
z" />
    <glyph glyph-name="Cdotaccent" unicode="&#x10a;" horiz-adv-x="633" 
d="M377 -10q-145 0 -237 95.5t-92 242.5q0 148 93.5 248t238.5 100q112 0 183 -47v-133h-29q-6 32 -6 113q-60 36 -150 36q-127 0 -210 -90.5t-83 -221.5q0 -133 83.5 -222.5t211.5 -89.5q104 0 166 42q0 88 6 118h29v-132q-67 -59 -204 -59zM352 754q-12 0 -21 9t-9 22
t9 22t21 9t21 -9t9 -22t-9 -22t-21 -9z" />
    <glyph glyph-name="cdotaccent" unicode="&#x10b;" horiz-adv-x="435" 
d="M248 -10q-97 0 -150 71.5t-53 172.5q0 108 57.5 180t151.5 72q86 0 136 -45v-108h-28q-5 25 -5 93q-39 29 -105 29q-80 0 -125 -62.5t-45 -154.5q0 -87 45.5 -152t123.5 -65q82 0 127 45l17 -27q-54 -49 -147 -49zM241 586q-12 0 -21 9t-9 22t9 22t21 9t21 -9t9 -22
t-9 -22t-21 -9z" />
    <glyph glyph-name="Ccaron" unicode="&#x10c;" horiz-adv-x="633" 
d="M344 706l-118 143h34l93 -102l92 102h34l-117 -143h-18zM377 -10q-145 0 -237 95.5t-92 242.5q0 148 93.5 248t238.5 100q112 0 183 -47v-133h-29q-6 32 -6 113q-60 36 -150 36q-127 0 -210 -90.5t-83 -221.5q0 -133 83.5 -222.5t211.5 -89.5q104 0 166 42q0 88 6 118h29
v-132q-67 -59 -204 -59z" />
    <glyph glyph-name="ccaron" unicode="&#x10d;" horiz-adv-x="435" 
d="M233 538l-118 143h34l93 -102l92 102h34l-117 -143h-18zM248 -10q-97 0 -150 71.5t-53 172.5q0 108 57.5 180t151.5 72q86 0 136 -45v-108h-28q-5 25 -5 93q-39 29 -105 29q-80 0 -125 -62.5t-45 -154.5q0 -87 45.5 -152t123.5 -65q82 0 127 45l17 -27q-54 -49 -147 -49z
" />
    <glyph glyph-name="Dcaron" unicode="&#x10e;" horiz-adv-x="677" 
d="M318 706l-118 143h34l93 -102l92 102h34l-117 -143h-18zM43 0v25q28 5 85 5v606q-57 0 -85 5v25h221q172 0 268.5 -84.5t96.5 -241.5q0 -160 -97 -250t-270 -90h-219zM165 635v-604h100q154 0 240.5 79t86.5 225t-87 223t-243 77h-97z" />
    <glyph glyph-name="dcaron" unicode="&#x10f;" horiz-adv-x="524" 
d="M447 560l40 160h47l-63 -160h-24zM240 -10q-99 0 -147 68.5t-48 176.5q0 102 57 176.5t157 74.5q71 0 113 -42h1v243q-29 3 -84 3v26q32 5 123 5l-3 -65v-573q0 -30 3 -54q28 -3 82 -3v-26q-27 -4 -113 -4q-5 25 -5 59h-2q-23 -29 -59.5 -47t-74.5 -18zM246 21
q33 0 68.5 17.5t58.5 46.5v325q-41 44 -115 44q-85 0 -130.5 -65t-45.5 -151q0 -91 39.5 -154t124.5 -63z" />
    <glyph glyph-name="Dcroat" unicode="&#x110;" horiz-adv-x="685" 
d="M57 330v31h79v275q-57 0 -85 5v25h221q172 0 268.5 -84.5t96.5 -241.5q0 -160 -97 -250t-270 -90h-219v25q28 5 85 5v300h-79zM173 635v-274h110v-31h-110v-299h100q154 0 240.5 79t86.5 225t-87 223t-243 77h-97z" />
    <glyph glyph-name="dslash" unicode="&#x111;" horiz-adv-x="524" 
d="M240 -10q-99 0 -147 68.5t-48 176.5q0 102 57 176.5t157 74.5q71 0 113 -42h1v127h-153v29h153v87q-29 3 -84 3v26q32 5 123 5l-3 -65v-55h55v-30h-55v-488q0 -30 3 -54q28 -3 82 -3v-26q-27 -4 -113 -4q-5 25 -5 59h-2q-23 -29 -59.5 -47t-74.5 -18zM246 21
q33 0 68.5 17.5t58.5 46.5v325q-41 44 -115 44q-85 0 -130.5 -65t-45.5 -151q0 -91 39.5 -154t124.5 -63z" />
    <glyph glyph-name="Emacron" unicode="&#x112;" horiz-adv-x="531" 
d="M43 0v25q28 5 85 5v606q-57 0 -85 5v25h434v-144h-29q-5 22 -5 113h-278v-276h206q0 52 6 82h27v-194h-27q-6 28 -6 82h-206v-298h285q0 89 5 114h29v-145h-441zM156 754v32h265v-32h-265z" />
    <glyph glyph-name="emacron" unicode="&#x113;" horiz-adv-x="466" 
d="M255 -10q-101 0 -155.5 70.5t-54.5 176.5q0 108 55.5 178.5t149.5 70.5q80 0 125 -54t45 -140v-13q0 -10 -1 -15h-337v-20q0 -97 46.5 -160t130.5 -63q85 0 138 46l17 -28q-65 -49 -159 -49zM85 294h298q0 68 -35 114.5t-104 46.5q-64 0 -106.5 -46t-52.5 -115zM108 586
v32h265v-32h-265z" />
    <glyph glyph-name="Ebreve" unicode="&#x114;" horiz-adv-x="531" 
d="M43 0v25q28 5 85 5v606q-57 0 -85 5v25h434v-144h-29q-5 22 -5 113h-278v-276h206q0 52 6 82h27v-194h-27q-6 28 -6 82h-206v-298h285q0 89 5 114h29v-145h-441zM287 708q-52 0 -85.5 40t-39.5 96h32q4 -41 29.5 -73t65.5 -32q41 0 65 31.5t28 73.5h32q-7 -56 -40 -96
t-87 -40z" />
    <glyph glyph-name="ebreve" unicode="&#x115;" horiz-adv-x="466" 
d="M255 -10q-101 0 -155.5 70.5t-54.5 176.5q0 108 55.5 178.5t149.5 70.5q80 0 125 -54t45 -140v-13q0 -10 -1 -15h-337v-20q0 -97 46.5 -160t130.5 -63q85 0 138 46l17 -28q-65 -49 -159 -49zM85 294h298q0 68 -35 114.5t-104 46.5q-64 0 -106.5 -46t-52.5 -115zM239 540
q-52 0 -85.5 40t-39.5 96h32q4 -41 29.5 -73t65.5 -32q41 0 65 31.5t28 73.5h32q-7 -56 -40 -96t-87 -40z" />
    <glyph glyph-name="Edotaccent" unicode="&#x116;" horiz-adv-x="531" 
d="M43 0v25q28 5 85 5v606q-57 0 -85 5v25h434v-144h-29q-5 22 -5 113h-278v-276h206q0 52 6 82h27v-194h-27q-6 28 -6 82h-206v-298h285q0 89 5 114h29v-145h-441zM288 754q-12 0 -21 9t-9 22t9 22t21 9t21 -9t9 -22t-9 -22t-21 -9z" />
    <glyph glyph-name="edotaccent" unicode="&#x117;" horiz-adv-x="466" 
d="M255 -10q-101 0 -155.5 70.5t-54.5 176.5q0 108 55.5 178.5t149.5 70.5q80 0 125 -54t45 -140v-13q0 -10 -1 -15h-337v-20q0 -97 46.5 -160t130.5 -63q85 0 138 46l17 -28q-65 -49 -159 -49zM85 294h298q0 68 -35 114.5t-104 46.5q-64 0 -106.5 -46t-52.5 -115zM240 586
q-12 0 -21 9t-9 22t9 22t21 9t21 -9t9 -22t-9 -22t-21 -9z" />
    <glyph glyph-name="Eogonek" unicode="&#x118;" horiz-adv-x="531" 
d="M423 -212q-41 0 -61.5 25t-20.5 62q0 57 58 125h32q0 -1 -11 -15t-14 -19t-11.5 -19t-11.5 -23t-6.5 -22.5t-3.5 -25.5q0 -25 14.5 -42t38.5 -17t50 12l8 -24q-28 -17 -61 -17zM43 0v25q28 5 85 5v606q-57 0 -85 5v25h434v-144h-29q-5 22 -5 113h-278v-276h206q0 52 6 82
h27v-194h-27q-6 28 -6 82h-206v-298h285q0 89 5 114h29v-145h-441z" />
    <glyph glyph-name="eogonek" unicode="&#x119;" horiz-adv-x="466" 
d="M342 -212q-41 0 -61 25t-20 62q0 63 57 122q-27 -7 -63 -7q-101 0 -155.5 70.5t-54.5 176.5q0 108 55.5 178.5t149.5 70.5q80 0 125 -54t45 -140v-13q0 -10 -1 -15h-337v-20q0 -97 46.5 -160t130.5 -63q85 0 138 46l17 -28q-121 -78 -121 -163q0 -25 14 -42t38 -17t50 12
l9 -24q-28 -17 -62 -17zM85 294h298q0 68 -35 114.5t-104 46.5q-64 0 -106.5 -46t-52.5 -115z" />
    <glyph glyph-name="Ecaron" unicode="&#x11a;" horiz-adv-x="531" 
d="M280 706l-118 143h34l93 -102l92 102h34l-117 -143h-18zM43 0v25q28 5 85 5v606q-57 0 -85 5v25h434v-144h-29q-5 22 -5 113h-278v-276h206q0 52 6 82h27v-194h-27q-6 28 -6 82h-206v-298h285q0 89 5 114h29v-145h-441z" />
    <glyph glyph-name="ecaron" unicode="&#x11b;" horiz-adv-x="466" 
d="M231 538l-118 143h34l93 -102l92 102h34l-117 -143h-18zM255 -10q-101 0 -155.5 70.5t-54.5 176.5q0 108 55.5 178.5t149.5 70.5q80 0 125 -54t45 -140v-13q0 -10 -1 -15h-337v-20q0 -97 46.5 -160t130.5 -63q85 0 138 46l17 -28q-65 -49 -159 -49zM85 294h298
q0 68 -35 114.5t-104 46.5q-64 0 -106.5 -46t-52.5 -115z" />
    <glyph glyph-name="Gcircumflex" unicode="&#x11c;" horiz-adv-x="720" 
d="M239 708l118 143h17l118 -143h-34l-93 103l-92 -103h-34zM370 -10q-144 0 -233 97.5t-89 242.5t93.5 245.5t240.5 100.5q138 0 214 -55v-133h-29q-5 25 -5 114q-77 43 -183 43q-130 0 -212 -90t-82 -221q0 -132 81 -222.5t210 -90.5q126 0 195 55v181q-53 0 -85 6v24h204
v-24q-32 -6 -83 -6v-199q-85 -68 -237 -68z" />
    <glyph glyph-name="gcircumflex" unicode="&#x11d;" horiz-adv-x="476" 
d="M102 540l118 143h17l118 -143h-34l-93 103l-92 -103h-34zM218 -230q-79 0 -127.5 35t-48.5 95q0 47 28.5 84t65.5 55v1q-49 19 -49 69q0 46 53 76v1q-36 19 -58 56t-22 82q0 72 46 117t121 45q30 0 63 -11h146v-30h-98q55 -49 55 -119q0 -72 -47 -116t-121 -44
q-26 0 -55 8q-47 -22 -47 -57q0 -32 25.5 -44.5t96.5 -14.5q43 -1 72 -5.5t60.5 -16.5t48 -38t16.5 -65q0 -72 -65 -117.5t-159 -45.5zM222 -200q77 0 130 35.5t53 91.5q0 25 -9.5 43.5t-22.5 28.5t-35.5 15.5t-40 7.5t-44.5 3q-62 2 -86 7q-89 -44 -89 -127
q0 -46 38.5 -75.5t105.5 -29.5zM227 196q58 0 93.5 36t35.5 92q0 58 -36 95t-95 37t-94 -36.5t-35 -93.5q0 -58 35.5 -94t95.5 -36z" />
    <glyph glyph-name="Gbreve" unicode="&#x11e;" horiz-adv-x="720" 
d="M370 -10q-144 0 -233 97.5t-89 242.5t93.5 245.5t240.5 100.5q138 0 214 -55v-133h-29q-5 25 -5 114q-77 43 -183 43q-130 0 -212 -90t-82 -221q0 -132 81 -222.5t210 -90.5q126 0 195 55v181q-53 0 -85 6v24h204v-24q-32 -6 -83 -6v-199q-85 -68 -237 -68zM365 708
q-52 0 -85.5 40t-39.5 96h32q4 -41 29.5 -73t65.5 -32q41 0 65 31.5t28 73.5h32q-7 -56 -40 -96t-87 -40z" />
    <glyph glyph-name="gbreve" unicode="&#x11f;" horiz-adv-x="476" 
d="M218 -230q-79 0 -127.5 35t-48.5 95q0 47 28.5 84t65.5 55v1q-49 19 -49 69q0 46 53 76v1q-36 19 -58 56t-22 82q0 72 46 117t121 45q30 0 63 -11h146v-30h-98q55 -49 55 -119q0 -72 -47 -116t-121 -44q-26 0 -55 8q-47 -22 -47 -57q0 -32 25.5 -44.5t96.5 -14.5
q43 -1 72 -5.5t60.5 -16.5t48 -38t16.5 -65q0 -72 -65 -117.5t-159 -45.5zM222 -200q77 0 130 35.5t53 91.5q0 25 -9.5 43.5t-22.5 28.5t-35.5 15.5t-40 7.5t-44.5 3q-62 2 -86 7q-89 -44 -89 -127q0 -46 38.5 -75.5t105.5 -29.5zM227 196q58 0 93.5 36t35.5 92q0 58 -36 95
t-95 37t-94 -36.5t-35 -93.5q0 -58 35.5 -94t95.5 -36zM227 540q-52 0 -85.5 40t-39.5 96h32q4 -41 29.5 -73t65.5 -32q41 0 65 31.5t28 73.5h32q-7 -56 -40 -96t-87 -40z" />
    <glyph glyph-name="Gdotaccent" unicode="&#x120;" horiz-adv-x="720" 
d="M370 -10q-144 0 -233 97.5t-89 242.5t93.5 245.5t240.5 100.5q138 0 214 -55v-133h-29q-5 25 -5 114q-77 43 -183 43q-130 0 -212 -90t-82 -221q0 -132 81 -222.5t210 -90.5q126 0 195 55v181q-53 0 -85 6v24h204v-24q-32 -6 -83 -6v-199q-85 -68 -237 -68zM365 754
q-12 0 -21 9t-9 22t9 22t21 9t21 -9t9 -22t-9 -22t-21 -9z" />
    <glyph glyph-name="gdotaccent" unicode="&#x121;" horiz-adv-x="476" 
d="M218 -230q-79 0 -127.5 35t-48.5 95q0 47 28.5 84t65.5 55v1q-49 19 -49 69q0 46 53 76v1q-36 19 -58 56t-22 82q0 72 46 117t121 45q30 0 63 -11h146v-30h-98q55 -49 55 -119q0 -72 -47 -116t-121 -44q-26 0 -55 8q-47 -22 -47 -57q0 -32 25.5 -44.5t96.5 -14.5
q43 -1 72 -5.5t60.5 -16.5t48 -38t16.5 -65q0 -72 -65 -117.5t-159 -45.5zM222 -200q77 0 130 35.5t53 91.5q0 25 -9.5 43.5t-22.5 28.5t-35.5 15.5t-40 7.5t-44.5 3q-62 2 -86 7q-89 -44 -89 -127q0 -46 38.5 -75.5t105.5 -29.5zM227 196q58 0 93.5 36t35.5 92q0 58 -36 95
t-95 37t-94 -36.5t-35 -93.5q0 -58 35.5 -94t95.5 -36zM228 586q-12 0 -21 9t-9 22t9 22t21 9t21 -9t9 -22t-9 -22t-21 -9z" />
    <glyph glyph-name="Gcommaaccent" unicode="&#x122;" horiz-adv-x="720" 
d="M367 -65q31 0 31 -39q0 -64 -59 -111l-15 14q36 25 36 55q0 14 -10 28t-10 25q0 12 8 20t19 8zM370 -10q-144 0 -233 97.5t-89 242.5t93.5 245.5t240.5 100.5q138 0 214 -55v-133h-29q-5 25 -5 114q-77 43 -183 43q-130 0 -212 -90t-82 -221q0 -132 81 -222.5t210 -90.5
q126 0 195 55v181q-53 0 -85 6v24h204v-24q-32 -6 -83 -6v-199q-85 -68 -237 -68z" />
    <glyph glyph-name="gcommaaccent" unicode="&#x123;" horiz-adv-x="476" 
d="M225 538q-31 0 -31 39q0 64 59 111l15 -14q-36 -25 -36 -55q0 -15 10 -28.5t10 -24.5q0 -12 -8 -20t-19 -8zM218 -230q-79 0 -127.5 35t-48.5 95q0 47 28.5 84t65.5 55v1q-49 19 -49 69q0 46 53 76v1q-36 19 -58 56t-22 82q0 72 46 117t121 45q30 0 63 -11h146v-30h-98
q55 -49 55 -119q0 -72 -47 -116t-121 -44q-26 0 -55 8q-47 -22 -47 -57q0 -32 25.5 -44.5t96.5 -14.5q43 -1 72 -5.5t60.5 -16.5t48 -38t16.5 -65q0 -72 -65 -117.5t-159 -45.5zM222 -200q77 0 130 35.5t53 91.5q0 25 -9.5 43.5t-22.5 28.5t-35.5 15.5t-40 7.5t-44.5 3
q-62 2 -86 7q-89 -44 -89 -127q0 -46 38.5 -75.5t105.5 -29.5zM227 196q58 0 93.5 36t35.5 92q0 58 -36 95t-95 37t-94 -36.5t-35 -93.5q0 -58 35.5 -94t95.5 -36z" />
    <glyph glyph-name="Hcircumflex" unicode="&#x124;" horiz-adv-x="739" 
d="M243 708l118 143h17l118 -143h-34l-93 103l-92 -103h-34zM43 0v25q28 5 85 5v606q-57 0 -85 5v25h206v-25q-27 -5 -84 -5v-268h409v268q-57 0 -84 5v25h206v-25q-28 -5 -85 -5v-606q57 0 85 -5v-25h-206v25q27 5 84 5v307h-409v-307q57 0 84 -5v-25h-206z" />
    <glyph glyph-name="hcircumflex" unicode="&#x125;" horiz-adv-x="557" 
d="M154 784l118 143h17l118 -143h-34l-93 103l-92 -103h-34zM30 0v25q28 5 85 5v657q-31 3 -85 3v26q33 5 124 5l-3 -65v-261h1q23 37 65.5 64t92.5 27q70 0 103.5 -41t33.5 -111v-304q57 0 84 -5v-25h-204v25q27 5 84 5v297q0 127 -107 127q-45 0 -87.5 -30.5t-65.5 -68.5
v-325q57 0 84 -5v-25h-205z" />
    <glyph glyph-name="Itilde" unicode="&#x128;" horiz-adv-x="293" 
d="M43 0v25q28 5 85 5v606q-57 0 -85 5v25h206v-25q-27 -5 -84 -5v-606q57 0 84 -5v-25h-206zM194 715q-22 0 -49.5 21t-44.5 21q-28 0 -57 -34l-19 20q37 47 79 47q22 0 49.5 -21.5t44.5 -21.5q29 0 57 35l19 -22q-36 -45 -79 -45z" />
    <glyph glyph-name="itilde" unicode="&#x129;" horiz-adv-x="275" 
d="M39 0v25q28 5 85 5v416q-31 3 -85 3v26q33 5 124 5l-3 -65v-385q57 0 84 -5v-25h-205zM189 547q-22 0 -49.5 21t-44.5 21q-28 0 -57 -34l-19 20q37 47 79 47q22 0 49.5 -21.5t44.5 -21.5q29 0 57 35l19 -22q-36 -45 -79 -45z" />
    <glyph glyph-name="Imacron" unicode="&#x12a;" horiz-adv-x="293" 
d="M43 0v25q28 5 85 5v606q-57 0 -85 5v25h206v-25q-27 -5 -84 -5v-606q57 0 84 -5v-25h-206zM16 754v32h265v-32h-265z" />
    <glyph glyph-name="imacron" unicode="&#x12b;" horiz-adv-x="275" 
d="M39 0v25q28 5 85 5v416q-31 3 -85 3v26q33 5 124 5l-3 -65v-385q57 0 84 -5v-25h-205zM11 586v32h265v-32h-265z" />
    <glyph glyph-name="Ibreve" unicode="&#x12c;" horiz-adv-x="293" 
d="M43 0v25q28 5 85 5v606q-57 0 -85 5v25h206v-25q-27 -5 -84 -5v-606q57 0 84 -5v-25h-206zM147 708q-52 0 -85.5 40t-39.5 96h32q4 -41 29.5 -73t65.5 -32q41 0 65 31.5t28 73.5h32q-7 -56 -40 -96t-87 -40z" />
    <glyph glyph-name="ibreve" unicode="&#x12d;" horiz-adv-x="275" 
d="M39 0v25q28 5 85 5v416q-31 3 -85 3v26q33 5 124 5l-3 -65v-385q57 0 84 -5v-25h-205zM143 540q-52 0 -85.5 40t-39.5 96h32q4 -41 29.5 -73t65.5 -32q41 0 65 31.5t28 73.5h32q-7 -56 -40 -96t-87 -40z" />
    <glyph glyph-name="Iogonek" unicode="&#x12e;" horiz-adv-x="293" 
d="M43 0v25q28 5 85 5v606q-57 0 -85 5v25h206v-25q-27 -5 -84 -5v-606q57 0 84 -5v-25h-206zM158 -212q-41 0 -61.5 25t-20.5 62q0 57 58 125h32q0 -1 -11 -15t-14 -19t-11.5 -19t-11.5 -23t-6.5 -22.5t-3.5 -25.5q0 -25 14.5 -42t38.5 -17t50 12l8 -24q-28 -17 -61 -17z
" />
    <glyph glyph-name="iogonek" unicode="&#x12f;" horiz-adv-x="275" 
d="M39 0v25q28 5 85 5v416q-31 3 -85 3v26q33 5 124 5l-3 -65v-385q57 0 84 -5v-25h-205zM139 581q-12 0 -21 9t-9 23t9 23t21 9t21.5 -9t9.5 -23t-9.5 -23t-21.5 -9zM154 -212q-41 0 -61.5 25t-20.5 62q0 57 58 125h32q0 -1 -11 -15t-14 -19t-11.5 -19t-11.5 -23
t-6.5 -22.5t-3.5 -25.5q0 -25 14.5 -42t38.5 -17t50 12l8 -24q-28 -17 -61 -17z" />
    <glyph glyph-name="Idot" unicode="&#x130;" horiz-adv-x="293" 
d="M43 0v25q28 5 85 5v606q-57 0 -85 5v25h206v-25q-27 -5 -84 -5v-606q57 0 84 -5v-25h-206zM148 754q-12 0 -21 9t-9 22t9 22t21 9t21 -9t9 -22t-9 -22t-21 -9z" />
    <glyph glyph-name="dotlessi" unicode="&#x131;" horiz-adv-x="275" 
d="M39 0v25q28 5 85 5v416q-31 3 -85 3v26q33 5 124 5l-3 -65v-385q57 0 84 -5v-25h-205z" />
    <glyph glyph-name="Kcommaaccent" unicode="&#x136;" horiz-adv-x="605" 
d="M311 -65q31 0 31 -39q0 -64 -59 -111l-15 14q36 25 36 55q0 14 -10 28t-10 25q0 12 8 20t19 8zM43 0v25q28 5 85 5v606q-57 0 -85 5v25h206v-25q-27 -5 -84 -5v-606q57 0 84 -5v-25h-206zM387 0v25q14 3 85 5l-295 315l272 291q-55 0 -80 5v25h202v-25q-25 -5 -77 -5
l-272 -288l299 -318q54 0 81 -5v-25h-215z" />
    <glyph glyph-name="kcommaaccent" unicode="&#x137;" horiz-adv-x="510" 
d="M263 -65q31 0 31 -39q0 -64 -59 -111l-15 14q36 25 36 55q0 14 -10 28t-10 25q0 12 8 20t19 8zM30 0v25q28 5 85 5v657q-31 3 -85 3v26q33 5 124 5l-3 -65v-626q51 0 79 -5v-25h-200zM310 0v25q14 3 74 5l-226 226l195 189q-52 0 -76 6v24h198v-24q-30 -6 -77 -6
l-195 -187l229 -228q58 -2 73 -5v-25h-195z" />
    <glyph glyph-name="Lacute" unicode="&#x139;" horiz-adv-x="477" 
d="M131 707l100 121h56l-126 -121h-30zM43 0v25q28 5 85 5v606q-57 0 -85 5v25h206v-25q-27 -5 -84 -5v-605h242v28q0 62 5 78h29v-137h-398z" />
    <glyph glyph-name="lacute" unicode="&#x13a;" horiz-adv-x="266" 
d="M117 783l100 121h56l-126 -121h-30zM30 0v25q28 5 85 5v657q-31 3 -85 3v26q33 5 124 5l-3 -65v-626q57 0 84 -5v-25h-205z" />
    <glyph glyph-name="Lcommaaccent" unicode="&#x13b;" horiz-adv-x="477" 
d="M283 -65q31 0 31 -39q0 -64 -59 -111l-15 14q36 25 36 55q0 14 -10 28t-10 25q0 12 8 20t19 8zM43 0v25q28 5 85 5v606q-57 0 -85 5v25h206v-25q-27 -5 -84 -5v-605h242v28q0 62 5 78h29v-137h-398z" />
    <glyph glyph-name="lcommaaccent" unicode="&#x13c;" horiz-adv-x="266" 
d="M135 -65q31 0 31 -39q0 -64 -59 -111l-15 14q36 25 36 55q0 14 -10 28t-10 25q0 12 8 20t19 8zM30 0v25q28 5 85 5v657q-31 3 -85 3v26q33 5 124 5l-3 -65v-626q57 0 84 -5v-25h-205z" />
    <glyph glyph-name="Lcaron" unicode="&#x13d;" horiz-adv-x="477" 
d="M289 507l40 160h47l-63 -160h-24zM43 0v25q28 5 85 5v606q-57 0 -85 5v25h206v-25q-27 -5 -84 -5v-605h242v28q0 62 5 78h29v-137h-398z" />
    <glyph glyph-name="lcaron" unicode="&#x13e;" horiz-adv-x="266" 
d="M190 560l40 160h47l-63 -160h-24zM30 0v25q28 5 85 5v657q-31 3 -85 3v26q33 5 124 5l-3 -65v-626q57 0 84 -5v-25h-205z" />
    <glyph glyph-name="Ldot" unicode="&#x13f;" horiz-adv-x="477" 
d="M43 0v25q28 5 85 5v606q-57 0 -85 5v25h206v-25q-27 -5 -84 -5v-605h242v28q0 62 5 78h29v-137h-398zM308 318q-12 0 -21 9t-9 22t9 22t21 9t21 -9t9 -22t-9 -22t-21 -9z" />
    <glyph glyph-name="ldot" unicode="&#x140;" horiz-adv-x="272" 
d="M30 0v25q28 5 85 5v657q-31 3 -85 3v26q33 5 124 5l-3 -65v-626q57 0 84 -5v-25h-205zM269 263q-12 0 -21 9t-9 22t9 22t21 9t21 -9t9 -22t-9 -22t-21 -9z" />
    <glyph glyph-name="Lslash" unicode="&#x141;" horiz-adv-x="486" 
d="M46 243l-21 23l111 93v277q-57 0 -85 5v25h206v-25q-27 -5 -84 -5v-246l108 90l21 -23l-129 -108v-318h242v28q0 62 5 78h29v-137h-398v25q28 5 85 5v288z" />
    <glyph glyph-name="lslash" unicode="&#x142;" horiz-adv-x="282" 
d="M50 238v45l73 69v335q-31 3 -85 3v26q33 5 124 5l-3 -65v-270l73 69v-44l-73 -70v-311q57 0 84 -5v-25h-205v25q28 5 85 5v277z" />
    <glyph glyph-name="Nacute" unicode="&#x143;" horiz-adv-x="729" 
d="M352 707l100 121h56l-126 -121h-30zM43 0v25q28 5 85 5v606q-57 0 -85 5v25h122l349 -513q12 -17 32.5 -48t29.5 -44h1q-1 13 -1 40v535q-57 0 -84 5v25h204v-25q-28 -5 -85 -5v-636h-36l-360 530q-10 14 -27.5 40.5t-24.5 36.5h-1q1 -11 1 -35v-542q57 0 84 -5v-25h-204
z" />
    <glyph glyph-name="nacute" unicode="&#x144;" horiz-adv-x="565" 
d="M270 539l100 121h56l-126 -121h-30zM39 0v25q28 5 85 5v416q-31 3 -85 3v26q33 5 124 5l-4 -86h2q27 38 67.5 65t90.5 27q69 0 103 -41t34 -111v-304q57 0 84 -5v-25h-205v25q28 5 85 5v297q0 127 -107 127q-46 0 -87.5 -30.5t-65.5 -68.5v-325q57 0 84 -5v-25h-205z" />
    <glyph glyph-name="Ncommaaccent" unicode="&#x145;" horiz-adv-x="729" 
d="M371 -65q31 0 31 -39q0 -64 -59 -111l-15 14q36 25 36 55q0 14 -10 28t-10 25q0 12 8 20t19 8zM43 0v25q28 5 85 5v606q-57 0 -85 5v25h122l349 -513q12 -17 32.5 -48t29.5 -44h1q-1 13 -1 40v535q-57 0 -84 5v25h204v-25q-28 -5 -85 -5v-636h-36l-360 530
q-10 14 -27.5 40.5t-24.5 36.5h-1q1 -11 1 -35v-542q57 0 84 -5v-25h-204z" />
    <glyph glyph-name="ncommaaccent" unicode="&#x146;" horiz-adv-x="565" 
d="M291 -65q31 0 31 -39q0 -64 -59 -111l-15 14q36 25 36 55q0 14 -10 28t-10 25q0 12 8 20t19 8zM39 0v25q28 5 85 5v416q-31 3 -85 3v26q33 5 124 5l-4 -86h2q27 38 67.5 65t90.5 27q69 0 103 -41t34 -111v-304q57 0 84 -5v-25h-205v25q28 5 85 5v297q0 127 -107 127
q-46 0 -87.5 -30.5t-65.5 -68.5v-325q57 0 84 -5v-25h-205z" />
    <glyph glyph-name="Ncaron" unicode="&#x147;" horiz-adv-x="729" 
d="M361 706l-118 143h34l93 -102l92 102h34l-117 -143h-18zM43 0v25q28 5 85 5v606q-57 0 -85 5v25h122l349 -513q12 -17 32.5 -48t29.5 -44h1q-1 13 -1 40v535q-57 0 -84 5v25h204v-25q-28 -5 -85 -5v-636h-36l-360 530q-10 14 -27.5 40.5t-24.5 36.5h-1q1 -11 1 -35v-542
q57 0 84 -5v-25h-204z" />
    <glyph glyph-name="ncaron" unicode="&#x148;" horiz-adv-x="565" 
d="M279 538l-118 143h34l93 -102l92 102h34l-117 -143h-18zM39 0v25q28 5 85 5v416q-31 3 -85 3v26q33 5 124 5l-4 -86h2q27 38 67.5 65t90.5 27q69 0 103 -41t34 -111v-304q57 0 84 -5v-25h-205v25q28 5 85 5v297q0 127 -107 127q-46 0 -87.5 -30.5t-65.5 -68.5v-325
q57 0 84 -5v-25h-205z" />
    <glyph glyph-name="napostrophe" unicode="&#x149;" horiz-adv-x="739" 
d="M90 674q33 0 33 -41q0 -74 -71 -130l-14 17q43 31 43 68q0 15 -9.5 29.5t-9.5 26.5q0 13 7.5 21.5t20.5 8.5zM213 0v25q28 5 85 5v416q-31 3 -85 3v26q33 5 124 5l-4 -86h2q27 38 67.5 65t90.5 27q69 0 103 -41t34 -111v-304q57 0 84 -5v-25h-205v25q28 5 85 5v297
q0 127 -107 127q-46 0 -87.5 -30.5t-65.5 -68.5v-325q57 0 84 -5v-25h-205z" />
    <glyph glyph-name="Omacron" unicode="&#x14c;" horiz-adv-x="728" 
d="M231 754v32h265v-32h-265zM363 -10q-141 0 -228 99.5t-87 242.5q0 144 87 244t229 100t229 -99.5t87 -242.5q0 -144 -87.5 -244t-229.5 -100zM364 21q125 0 201.5 90.5t76.5 220.5t-77.5 221.5t-201.5 91.5q-125 0 -201.5 -90.5t-76.5 -220.5t77.5 -221.5t201.5 -91.5z
" />
    <glyph glyph-name="omacron" unicode="&#x14d;" horiz-adv-x="510" 
d="M121 586v32h265v-32h-265zM253 -10q-100 0 -154 71.5t-54 174.5q0 102 55 176t155 74t155 -72t55 -175q0 -102 -56 -175.5t-156 -73.5zM255 20q82 0 127.5 64t45.5 153q0 90 -46.5 154t-128.5 64t-126.5 -63t-44.5 -153t45.5 -154.5t127.5 -64.5z" />
    <glyph glyph-name="Obreve" unicode="&#x14e;" horiz-adv-x="728" 
d="M363 -10q-141 0 -228 99.5t-87 242.5q0 144 87 244t229 100t229 -99.5t87 -242.5q0 -144 -87.5 -244t-229.5 -100zM364 21q125 0 201.5 90.5t76.5 220.5t-77.5 221.5t-201.5 91.5q-125 0 -201.5 -90.5t-76.5 -220.5t77.5 -221.5t201.5 -91.5zM362 708q-52 0 -85.5 40
t-39.5 96h32q4 -41 29.5 -73t65.5 -32q41 0 65 31.5t28 73.5h32q-7 -56 -40 -96t-87 -40z" />
    <glyph glyph-name="obreve" unicode="&#x14f;" horiz-adv-x="510" 
d="M253 -10q-100 0 -154 71.5t-54 174.5q0 102 55 176t155 74t155 -72t55 -175q0 -102 -56 -175.5t-156 -73.5zM255 20q82 0 127.5 64t45.5 153q0 90 -46.5 154t-128.5 64t-126.5 -63t-44.5 -153t45.5 -154.5t127.5 -64.5zM253 540q-52 0 -85.5 40t-39.5 96h32
q4 -41 29.5 -73t65.5 -32q41 0 65 31.5t28 73.5h32q-7 -56 -40 -96t-87 -40z" />
    <glyph glyph-name="Ohungarumlaut" unicode="&#x150;" horiz-adv-x="728" 
d="M264 707l101 121h54l-125 -121h-30zM405 707l101 121h54l-125 -121h-30zM363 -10q-141 0 -228 99.5t-87 242.5q0 144 87 244t229 100t229 -99.5t87 -242.5q0 -144 -87.5 -244t-229.5 -100zM364 21q125 0 201.5 90.5t76.5 220.5t-77.5 221.5t-201.5 91.5
q-125 0 -201.5 -90.5t-76.5 -220.5t77.5 -221.5t201.5 -91.5z" />
    <glyph glyph-name="ohungarumlaut" unicode="&#x151;" horiz-adv-x="510" 
d="M155 539l101 121h54l-125 -121h-30zM296 539l101 121h54l-125 -121h-30zM253 -10q-100 0 -154 71.5t-54 174.5q0 102 55 176t155 74t155 -72t55 -175q0 -102 -56 -175.5t-156 -73.5zM255 20q82 0 127.5 64t45.5 153q0 90 -46.5 154t-128.5 64t-126.5 -63t-44.5 -153
t45.5 -154.5t127.5 -64.5z" />
    <glyph glyph-name="OE" unicode="&#x152;" horiz-adv-x="864" 
d="M365 -10q-143 0 -230 99t-87 243t87 244t229 100q67 0 100 -10h346v-144h-29q-5 22 -5 113h-275v-276h204q0 57 5 82h28v-194h-28q-5 23 -5 82h-204v-298h282q0 89 5 114h29v-145h-353q-33 -10 -99 -10zM363 22q60 0 101 13v595q-44 14 -101 14q-126 0 -202 -90t-76 -220
t76 -221t202 -91z" />
    <glyph glyph-name="oe" unicode="&#x153;" horiz-adv-x="849" 
d="M253 -10q-100 0 -154 71.5t-54 174.5q0 102 55 176t155 74q72 0 122 -41.5t69 -110.5q16 68 67 110t119 42q80 0 125.5 -54t45.5 -140q0 -10 -2 -28h-336q-1 -4 -1 -11v-9q0 -96 47 -159.5t131 -63.5q85 0 138 46l17 -28q-65 -49 -159 -49q-75 0 -126 42.5t-67 111.5
q-19 -68 -70 -111t-122 -43zM255 20q82 0 127.5 64t45.5 153q0 90 -46.5 154t-128.5 64t-126.5 -63t-44.5 -153t45.5 -154.5t127.5 -64.5zM627 455q-64 0 -106.5 -46t-52.5 -115h298q0 68 -35 114.5t-104 46.5z" />
    <glyph glyph-name="Racute" unicode="&#x154;" horiz-adv-x="565" 
d="M276 707l100 121h56l-126 -121h-30zM43 0v25q28 5 85 5v606q-57 0 -85 5v25h223q214 0 214 -164q0 -80 -55.5 -123.5t-152.5 -43.5h-9v-1q20 -8 62 -66l134 -188q20 -30 35.5 -41.5t40.5 -11.5h12q7 0 11 1v-25q-15 -6 -41 -6q-27 0 -44 12.5t-44 49.5l-135 191
q-39 56 -57.5 69.5t-46.5 13.5h-25v-303q57 0 84 -5v-25h-206zM165 364h100q178 0 178 136q0 135 -179 135h-99v-271z" />
    <glyph glyph-name="racute" unicode="&#x155;" horiz-adv-x="342" 
d="M199 539l100 121h56l-126 -121h-30zM39 0v25q28 5 85 5v416q-31 3 -85 3v26q33 5 124 5l-4 -96h1q16 37 49.5 69.5t78.5 32.5q24 0 42 -8l-9 -33q-16 7 -36 7q-69 0 -125 -110v-312q59 0 86 -5v-25h-207z" />
    <glyph glyph-name="Rcommaaccent" unicode="&#x156;" horiz-adv-x="565" 
d="M304 -65q31 0 31 -39q0 -64 -59 -111l-15 14q36 25 36 55q0 14 -10 28t-10 25q0 12 8 20t19 8zM43 0v25q28 5 85 5v606q-57 0 -85 5v25h223q214 0 214 -164q0 -80 -55.5 -123.5t-152.5 -43.5h-9v-1q20 -8 62 -66l134 -188q20 -30 35.5 -41.5t40.5 -11.5h12q7 0 11 1v-25
q-15 -6 -41 -6q-27 0 -44 12.5t-44 49.5l-135 191q-39 56 -57.5 69.5t-46.5 13.5h-25v-303q57 0 84 -5v-25h-206zM165 364h100q178 0 178 136q0 135 -179 135h-99v-271z" />
    <glyph glyph-name="rcommaaccent" unicode="&#x157;" horiz-adv-x="342" 
d="M144 -65q31 0 31 -39q0 -64 -59 -111l-15 14q36 25 36 55q0 14 -10 28t-10 25q0 12 8 20t19 8zM39 0v25q28 5 85 5v416q-31 3 -85 3v26q33 5 124 5l-4 -96h1q16 37 49.5 69.5t78.5 32.5q24 0 42 -8l-9 -33q-16 7 -36 7q-69 0 -125 -110v-312q59 0 86 -5v-25h-207z" />
    <glyph glyph-name="Rcaron" unicode="&#x158;" horiz-adv-x="565" 
d="M284 706l-118 143h34l93 -102l92 102h34l-117 -143h-18zM43 0v25q28 5 85 5v606q-57 0 -85 5v25h223q214 0 214 -164q0 -80 -55.5 -123.5t-152.5 -43.5h-9v-1q20 -8 62 -66l134 -188q20 -30 35.5 -41.5t40.5 -11.5h12q7 0 11 1v-25q-15 -6 -41 -6q-27 0 -44 12.5
t-44 49.5l-135 191q-39 56 -57.5 69.5t-46.5 13.5h-25v-303q57 0 84 -5v-25h-206zM165 364h100q178 0 178 136q0 135 -179 135h-99v-271z" />
    <glyph glyph-name="rcaron" unicode="&#x159;" horiz-adv-x="342" 
d="M210 538l-118 143h34l93 -102l92 102h34l-117 -143h-18zM39 0v25q28 5 85 5v416q-31 3 -85 3v26q33 5 124 5l-4 -96h1q16 37 49.5 69.5t78.5 32.5q24 0 42 -8l-9 -33q-16 7 -36 7q-69 0 -125 -110v-312q59 0 86 -5v-25h-207z" />
    <glyph glyph-name="Sacute" unicode="&#x15a;" horiz-adv-x="485" 
d="M232 707l100 121h56l-126 -121h-30zM235 -10q-124 0 -187 57v134h29q6 -32 6 -119q57 -41 154 -41q72 0 117 40t45 100q0 32 -12.5 58t-41.5 48.5t-50 35t-62 33.5q-32 16 -49 26t-42.5 28t-38 35t-22.5 42.5t-10 54.5q0 73 53 113.5t133 40.5q110 0 166 -43v-134h-29
q-6 30 -6 117q-51 29 -133 29q-63 0 -105 -32t-42 -88q0 -29 8.5 -51t31 -41t38 -28.5t53.5 -29.5q7 -4 11 -6q90 -49 118 -72q68 -56 68 -134q0 -76 -55.5 -124.5t-145.5 -48.5z" />
    <glyph glyph-name="sacute" unicode="&#x15b;" horiz-adv-x="410" 
d="M188 539l100 121h56l-126 -121h-30zM199 -10q-105 0 -146 37v106h28q3 -14 5 -90q42 -23 113 -23q55 0 88 24.5t33 68.5q0 22 -8.5 39t-30 31.5t-34 21t-44.5 21.5q-33 14 -51.5 23.5t-42 26.5t-34 39t-10.5 50q0 56 40 88.5t107 32.5q86 0 132 -34v-107h-28q-5 25 -5 90
q-40 20 -99 20q-53 0 -82 -23t-29 -64q0 -22 9 -39.5t30.5 -31t34.5 -20t45 -19.5q65 -27 101 -58t36 -83q0 -59 -44 -93t-114 -34z" />
    <glyph glyph-name="Scircumflex" unicode="&#x15c;" horiz-adv-x="485" 
d="M123 708l118 143h17l118 -143h-34l-93 103l-92 -103h-34zM235 -10q-124 0 -187 57v134h29q6 -32 6 -119q57 -41 154 -41q72 0 117 40t45 100q0 32 -12.5 58t-41.5 48.5t-50 35t-62 33.5q-32 16 -49 26t-42.5 28t-38 35t-22.5 42.5t-10 54.5q0 73 53 113.5t133 40.5
q110 0 166 -43v-134h-29q-6 30 -6 117q-51 29 -133 29q-63 0 -105 -32t-42 -88q0 -29 8.5 -51t31 -41t38 -28.5t53.5 -29.5q7 -4 11 -6q90 -49 118 -72q68 -56 68 -134q0 -76 -55.5 -124.5t-145.5 -48.5z" />
    <glyph glyph-name="scircumflex" unicode="&#x15d;" horiz-adv-x="410" 
d="M80 540l118 143h17l118 -143h-34l-93 103l-92 -103h-34zM199 -10q-105 0 -146 37v106h28q3 -14 5 -90q42 -23 113 -23q55 0 88 24.5t33 68.5q0 22 -8.5 39t-30 31.5t-34 21t-44.5 21.5q-33 14 -51.5 23.5t-42 26.5t-34 39t-10.5 50q0 56 40 88.5t107 32.5q86 0 132 -34
v-107h-28q-5 25 -5 90q-40 20 -99 20q-53 0 -82 -23t-29 -64q0 -22 9 -39.5t30.5 -31t34.5 -20t45 -19.5q65 -27 101 -58t36 -83q0 -59 -44 -93t-114 -34z" />
    <glyph glyph-name="Scedilla" unicode="&#x15e;" horiz-adv-x="485" 
d="M235 -10q-124 0 -187 57v134h29q6 -32 6 -119q57 -41 154 -41q72 0 117 40t45 100q0 32 -12.5 58t-41.5 48.5t-50 35t-62 33.5q-32 16 -49 26t-42.5 28t-38 35t-22.5 42.5t-10 54.5q0 73 53 113.5t133 40.5q110 0 166 -43v-134h-29q-6 30 -6 117q-51 29 -133 29
q-63 0 -105 -32t-42 -88q0 -29 8.5 -51t31 -41t38 -28.5t53.5 -29.5q7 -4 11 -6q90 -49 118 -72q68 -56 68 -134q0 -76 -55.5 -124.5t-145.5 -48.5zM221 -212q-40 0 -59 12l9 26q24 -11 50 -11q60 0 60 46q0 42 -71 42h-4l39 102h28l-30 -80q32 -2 51 -19.5t19 -43.5
q0 -35 -26 -54.5t-66 -19.5z" />
    <glyph glyph-name="scedilla" unicode="&#x15f;" horiz-adv-x="410" 
d="M199 -10q-105 0 -146 37v106h28q3 -14 5 -90q42 -23 113 -23q55 0 88 24.5t33 68.5q0 22 -8.5 39t-30 31.5t-34 21t-44.5 21.5q-33 14 -51.5 23.5t-42 26.5t-34 39t-10.5 50q0 56 40 88.5t107 32.5q86 0 132 -34v-107h-28q-5 25 -5 90q-40 20 -99 20q-53 0 -82 -23
t-29 -64q0 -22 9 -39.5t30.5 -31t34.5 -20t45 -19.5q65 -27 101 -58t36 -83q0 -59 -44 -93t-114 -34zM190 -212q-40 0 -59 12l9 26q24 -11 50 -11q60 0 60 46q0 42 -71 42h-4l39 102h28l-30 -80q32 -2 51 -19.5t19 -43.5q0 -35 -26 -54.5t-66 -19.5z" />
    <glyph glyph-name="Scaron" unicode="&#x160;" horiz-adv-x="485" 
d="M241 706l-118 143h34l93 -102l92 102h34l-117 -143h-18zM235 -10q-124 0 -187 57v134h29q6 -32 6 -119q57 -41 154 -41q72 0 117 40t45 100q0 32 -12.5 58t-41.5 48.5t-50 35t-62 33.5q-32 16 -49 26t-42.5 28t-38 35t-22.5 42.5t-10 54.5q0 73 53 113.5t133 40.5
q110 0 166 -43v-134h-29q-6 30 -6 117q-51 29 -133 29q-63 0 -105 -32t-42 -88q0 -29 8.5 -51t31 -41t38 -28.5t53.5 -29.5q7 -4 11 -6q90 -49 118 -72q68 -56 68 -134q0 -76 -55.5 -124.5t-145.5 -48.5z" />
    <glyph glyph-name="scaron" unicode="&#x161;" horiz-adv-x="410" 
d="M198 538l-118 143h34l93 -102l92 102h34l-117 -143h-18zM199 -10q-105 0 -146 37v106h28q3 -14 5 -90q42 -23 113 -23q55 0 88 24.5t33 68.5q0 22 -8.5 39t-30 31.5t-34 21t-44.5 21.5q-33 14 -51.5 23.5t-42 26.5t-34 39t-10.5 50q0 56 40 88.5t107 32.5q86 0 132 -34
v-107h-28q-5 25 -5 90q-40 20 -99 20q-53 0 -82 -23t-29 -64q0 -22 9 -39.5t30.5 -31t34.5 -20t45 -19.5q65 -27 101 -58t36 -83q0 -59 -44 -93t-114 -34z" />
    <glyph glyph-name="Tcommaaccent" unicode="&#x162;" horiz-adv-x="599" 
d="M256 -212q-40 0 -59 12l9 26q24 -11 50 -11q60 0 60 46q0 42 -71 42h-4l39 102h28l-30 -80q32 -2 51 -19.5t19 -43.5q0 -35 -26 -54.5t-66 -19.5zM196 0v25q27 5 84 5v605h-210q0 -84 -6 -116h-29v147h529v-147h-29q-6 32 -6 116h-212v-605q58 0 85 -5v-25h-206z" />
    <glyph glyph-name="tcommaaccent" unicode="&#x163;" horiz-adv-x="312" 
d="M158 -212q-40 0 -59 12l9 26q24 -11 50 -11q60 0 60 46q0 42 -71 42h-4l39 102h28l-30 -80q32 -2 51 -19.5t19 -43.5q0 -35 -26 -54.5t-66 -19.5zM203 -10q-93 0 -93 111v343h-80v31h80v136h36v-136h125v-31h-125v-344q0 -79 61 -79q32 0 67 22l15 -25q-35 -28 -86 -28z
" />
    <glyph glyph-name="Tcaron" unicode="&#x164;" horiz-adv-x="599" 
d="M290 706l-118 143h34l93 -102l92 102h34l-117 -143h-18zM196 0v25q27 5 84 5v605h-210q0 -84 -6 -116h-29v147h529v-147h-29q-6 32 -6 116h-212v-605q58 0 85 -5v-25h-206z" />
    <glyph glyph-name="tcaron" unicode="&#x165;" horiz-adv-x="312" 
d="M186 560l40 160h47l-63 -160h-24zM203 -10q-93 0 -93 111v343h-80v31h80v136h36v-136h125v-31h-125v-344q0 -79 61 -79q32 0 67 22l15 -25q-35 -28 -86 -28z" />
    <glyph glyph-name="Utilde" unicode="&#x168;" horiz-adv-x="695" 
d="M348 -10q-236 0 -236 257v389q-58 0 -85 5v25h206v-25q-27 -5 -84 -5v-387q0 -113 48 -170.5t153 -57.5q199 0 199 225v390q-57 0 -84 5v25h203v-25q-27 -5 -85 -5v-388q0 -127 -56 -192.5t-179 -65.5zM395 715q-22 0 -49.5 21t-44.5 21q-28 0 -57 -34l-19 20
q37 47 79 47q22 0 49.5 -21.5t44.5 -21.5q29 0 57 35l19 -22q-36 -45 -79 -45z" />
    <glyph glyph-name="utilde" unicode="&#x169;" horiz-adv-x="553" 
d="M242 -10q-70 0 -103 40.5t-33 110.5v305q-44 3 -74 3v26q32 5 113 5l-3 -65v-267q0 -127 107 -127q45 0 88 31t65 69v325q-29 3 -82 3v26q33 5 121 5l-3 -65v-332q0 -31 3 -54q28 -3 82 -3v-26q-27 -4 -113 -4q-7 28 -7 87h-2q-60 -93 -159 -93zM318 547q-22 0 -49.5 21
t-44.5 21q-28 0 -57 -34l-19 20q37 47 79 47q22 0 49.5 -21.5t44.5 -21.5q29 0 57 35l19 -22q-36 -45 -79 -45z" />
    <glyph glyph-name="Umacron" unicode="&#x16a;" horiz-adv-x="695" 
d="M348 -10q-236 0 -236 257v389q-58 0 -85 5v25h206v-25q-27 -5 -84 -5v-387q0 -113 48 -170.5t153 -57.5q199 0 199 225v390q-57 0 -84 5v25h203v-25q-27 -5 -85 -5v-388q0 -127 -56 -192.5t-179 -65.5zM217 754v32h265v-32h-265z" />
    <glyph glyph-name="umacron" unicode="&#x16b;" horiz-adv-x="553" 
d="M242 -10q-70 0 -103 40.5t-33 110.5v305q-44 3 -74 3v26q32 5 113 5l-3 -65v-267q0 -127 107 -127q45 0 88 31t65 69v325q-29 3 -82 3v26q33 5 121 5l-3 -65v-332q0 -31 3 -54q28 -3 82 -3v-26q-27 -4 -113 -4q-7 28 -7 87h-2q-60 -93 -159 -93zM140 586v32h265v-32h-265
z" />
    <glyph glyph-name="Ubreve" unicode="&#x16c;" horiz-adv-x="695" 
d="M348 -10q-236 0 -236 257v389q-58 0 -85 5v25h206v-25q-27 -5 -84 -5v-387q0 -113 48 -170.5t153 -57.5q199 0 199 225v390q-57 0 -84 5v25h203v-25q-27 -5 -85 -5v-388q0 -127 -56 -192.5t-179 -65.5zM348 708q-52 0 -85.5 40t-39.5 96h32q4 -41 29.5 -73t65.5 -32
q41 0 65 31.5t28 73.5h32q-7 -56 -40 -96t-87 -40z" />
    <glyph glyph-name="ubreve" unicode="&#x16d;" horiz-adv-x="553" 
d="M242 -10q-70 0 -103 40.5t-33 110.5v305q-44 3 -74 3v26q32 5 113 5l-3 -65v-267q0 -127 107 -127q45 0 88 31t65 69v325q-29 3 -82 3v26q33 5 121 5l-3 -65v-332q0 -31 3 -54q28 -3 82 -3v-26q-27 -4 -113 -4q-7 28 -7 87h-2q-60 -93 -159 -93zM271 540q-52 0 -85.5 40
t-39.5 96h32q4 -41 29.5 -73t65.5 -32q41 0 65 31.5t28 73.5h32q-7 -56 -40 -96t-87 -40z" />
    <glyph glyph-name="Uring" unicode="&#x16e;" horiz-adv-x="695" 
d="M348 706q-36 0 -60.5 26t-24.5 61q0 37 25 63.5t62 26.5q36 0 60.5 -26.5t24.5 -61.5q0 -36 -25 -62.5t-62 -26.5zM350 731q26 0 42 18.5t16 43.5t-16 45t-44 20q-26 0 -42 -19t-16 -44t16 -44.5t44 -19.5zM348 -10q-236 0 -236 257v389q-58 0 -85 5v25h206v-25
q-27 -5 -84 -5v-387q0 -113 48 -170.5t153 -57.5q199 0 199 225v390q-57 0 -84 5v25h203v-25q-27 -5 -85 -5v-388q0 -127 -56 -192.5t-179 -65.5z" />
    <glyph glyph-name="uring" unicode="&#x16f;" horiz-adv-x="553" 
d="M271 538q-36 0 -60.5 26t-24.5 61q0 37 25 63.5t62 26.5q36 0 60.5 -26.5t24.5 -61.5q0 -36 -25 -62.5t-62 -26.5zM273 563q26 0 42 18.5t16 43.5t-16 45t-44 20q-26 0 -42 -19t-16 -44t16 -44.5t44 -19.5zM242 -10q-70 0 -103 40.5t-33 110.5v305q-44 3 -74 3v26
q32 5 113 5l-3 -65v-267q0 -127 107 -127q45 0 88 31t65 69v325q-29 3 -82 3v26q33 5 121 5l-3 -65v-332q0 -31 3 -54q28 -3 82 -3v-26q-27 -4 -113 -4q-7 28 -7 87h-2q-60 -93 -159 -93z" />
    <glyph glyph-name="Uhungarumlaut" unicode="&#x170;" horiz-adv-x="695" 
d="M348 -10q-236 0 -236 257v389q-58 0 -85 5v25h206v-25q-27 -5 -84 -5v-387q0 -113 48 -170.5t153 -57.5q199 0 199 225v390q-57 0 -84 5v25h203v-25q-27 -5 -85 -5v-388q0 -127 -56 -192.5t-179 -65.5zM250 707l101 121h54l-125 -121h-30zM391 707l101 121h54l-125 -121
h-30z" />
    <glyph glyph-name="uhungarumlaut" unicode="&#x171;" horiz-adv-x="553" 
d="M242 -10q-70 0 -103 40.5t-33 110.5v305q-44 3 -74 3v26q32 5 113 5l-3 -65v-267q0 -127 107 -127q45 0 88 31t65 69v325q-29 3 -82 3v26q33 5 121 5l-3 -65v-332q0 -31 3 -54q28 -3 82 -3v-26q-27 -4 -113 -4q-7 28 -7 87h-2q-60 -93 -159 -93zM173 539l101 121h54
l-125 -121h-30zM314 539l101 121h54l-125 -121h-30z" />
    <glyph glyph-name="Uogonek" unicode="&#x172;" horiz-adv-x="695" 
d="M388 -212q-41 0 -61.5 25t-20.5 62q0 67 63 116q-3 -1 -11 -1h-10q-236 0 -236 257v389q-58 0 -85 5v25h206v-25q-27 -5 -84 -5v-387q0 -113 48 -170.5t153 -57.5q199 0 199 225v390q-57 0 -84 5v25h203v-25q-27 -5 -85 -5v-388q0 -198 -143 -246q-49 -17 -75.5 -51.5
t-26.5 -74.5q0 -25 14.5 -42t38.5 -17t50 12l8 -24q-28 -17 -61 -17z" />
    <glyph glyph-name="uogonek" unicode="&#x173;" horiz-adv-x="553" 
d="M465 -212q-41 0 -61.5 25t-20.5 62q0 57 58 125h32q0 -1 -11 -15t-14 -19t-11.5 -19t-11.5 -23t-6.5 -22.5t-3.5 -25.5q0 -25 14.5 -42t38.5 -17t50 12l8 -24q-28 -17 -61 -17zM242 -10q-70 0 -103 40.5t-33 110.5v305q-44 3 -74 3v26q32 5 113 5l-3 -65v-267
q0 -127 107 -127q45 0 88 31t65 69v325q-29 3 -82 3v26q33 5 121 5l-3 -65v-332q0 -31 3 -54q28 -3 82 -3v-26q-27 -4 -113 -4q-7 28 -7 87h-2q-60 -93 -159 -93z" />
    <glyph glyph-name="Ydieresis" unicode="&#x178;" horiz-adv-x="594" 
d="M194 0v25q34 6 85 6v219l-202 386q-48 0 -73 5v25h197v-25q-27 -5 -80 -5l177 -348h1l178 348q-54 0 -81 5v25h194v-25q-25 -5 -74 -5l-200 -384v-221q52 0 84 -6v-25h-206zM219 718q-12 0 -20.5 8.5t-8.5 22.5q0 13 8.5 22t20.5 9t20.5 -9t8.5 -22q0 -14 -8.5 -22.5
t-20.5 -8.5zM375 718q-12 0 -20.5 8.5t-8.5 22.5q0 13 8.5 22t20.5 9t21 -9t9 -22q0 -14 -9 -22.5t-21 -8.5z" />
    <glyph glyph-name="Zacute" unicode="&#x179;" horiz-adv-x="563" 
d="M265 707l100 121h56l-126 -121h-30zM50 0v28l402 607h-344q0 -84 -6 -116h-29v147h424v-27l-405 -608h384q0 94 6 124h29v-155h-461z" />
    <glyph glyph-name="zacute" unicode="&#x17a;" horiz-adv-x="442" 
d="M201 539l100 121h56l-126 -121h-30zM47 0v27l302 418h-252q0 -71 -5 -99h-28v129h327v-27l-302 -418h273q0 67 6 99h28v-129h-349z" />
    <glyph glyph-name="Zdotaccent" unicode="&#x17b;" horiz-adv-x="563" 
d="M50 0v28l402 607h-344q0 -84 -6 -116h-29v147h424v-27l-405 -608h384q0 94 6 124h29v-155h-461zM282 754q-12 0 -21 9t-9 22t9 22t21 9t21 -9t9 -22t-9 -22t-21 -9z" />
    <glyph glyph-name="zdotaccent" unicode="&#x17c;" horiz-adv-x="442" 
d="M47 0v27l302 418h-252q0 -71 -5 -99h-28v129h327v-27l-302 -418h273q0 67 6 99h28v-129h-349zM220 586q-12 0 -21 9t-9 22t9 22t21 9t21 -9t9 -22t-9 -22t-21 -9z" />
    <glyph glyph-name="Zcaron" unicode="&#x17d;" horiz-adv-x="563" 
d="M274 706l-118 143h34l93 -102l92 102h34l-117 -143h-18zM50 0v28l402 607h-344q0 -84 -6 -116h-29v147h424v-27l-405 -608h384q0 94 6 124h29v-155h-461z" />
    <glyph glyph-name="zcaron" unicode="&#x17e;" horiz-adv-x="442" 
d="M212 538l-118 143h34l93 -102l92 102h34l-117 -143h-18zM47 0v27l302 418h-252q0 -71 -5 -99h-28v129h327v-27l-302 -418h273q0 67 6 99h28v-129h-349z" />
    <glyph glyph-name="Scommaaccent" unicode="&#x218;" horiz-adv-x="485" 
d="M240 -65q31 0 31 -39q0 -64 -59 -111l-15 14q36 25 36 55q0 14 -10 28t-10 25q0 12 8 20t19 8zM235 -10q-124 0 -187 57v134h29q6 -32 6 -119q57 -41 154 -41q72 0 117 40t45 100q0 32 -12.5 58t-41.5 48.5t-50 35t-62 33.5q-32 16 -49 26t-42.5 28t-38 35t-22.5 42.5
t-10 54.5q0 73 53 113.5t133 40.5q110 0 166 -43v-134h-29q-6 30 -6 117q-51 29 -133 29q-63 0 -105 -32t-42 -88q0 -29 8.5 -51t31 -41t38 -28.5t53.5 -29.5q7 -4 11 -6q90 -49 118 -72q68 -56 68 -134q0 -76 -55.5 -124.5t-145.5 -48.5z" />
    <glyph glyph-name="scommaaccent" unicode="&#x219;" horiz-adv-x="410" 
d="M207 -65q31 0 31 -39q0 -64 -59 -111l-15 14q36 25 36 55q0 14 -10 28t-10 25q0 12 8 20t19 8zM199 -10q-105 0 -146 37v106h28q3 -14 5 -90q42 -23 113 -23q55 0 88 24.5t33 68.5q0 22 -8.5 39t-30 31.5t-34 21t-44.5 21.5q-33 14 -51.5 23.5t-42 26.5t-34 39t-10.5 50
q0 56 40 88.5t107 32.5q86 0 132 -34v-107h-28q-5 25 -5 90q-40 20 -99 20q-53 0 -82 -23t-29 -64q0 -22 9 -39.5t30.5 -31t34.5 -20t45 -19.5q65 -27 101 -58t36 -83q0 -59 -44 -93t-114 -34z" />
    <glyph glyph-name="uni021A" unicode="&#x21a;" horiz-adv-x="599" 
d="M300 -65q31 0 31 -39q0 -64 -59 -111l-15 14q36 25 36 55q0 14 -10 28t-10 25q0 12 8 20t19 8zM196 0v25q27 5 84 5v605h-210q0 -84 -6 -116h-29v147h529v-147h-29q-6 32 -6 116h-212v-605q58 0 85 -5v-25h-206z" />
    <glyph glyph-name="uni021B" unicode="&#x21b;" horiz-adv-x="312" 
d="M200 -65q31 0 31 -39q0 -64 -59 -111l-15 14q36 25 36 55q0 14 -10 28t-10 25q0 12 8 20t19 8zM203 -10q-93 0 -93 111v343h-80v31h80v136h36v-136h125v-31h-125v-344q0 -79 61 -79q32 0 67 22l15 -25q-35 -28 -86 -28z" />
    <glyph glyph-name="circumflex" unicode="&#x2c6;" horiz-adv-x="500" 
d="M123 540l118 143h17l118 -143h-34l-93 103l-92 -103h-34z" />
    <glyph glyph-name="caron" unicode="&#x2c7;" horiz-adv-x="500" 
d="M241 538l-118 143h34l93 -102l92 102h34l-117 -143h-18z" />
    <glyph glyph-name="breve" unicode="&#x2d8;" horiz-adv-x="500" 
d="M249 540q-52 0 -85.5 40t-39.5 96h32q4 -41 29.5 -73t65.5 -32q41 0 65 31.5t28 73.5h32q-7 -56 -40 -96t-87 -40z" />
    <glyph glyph-name="dotaccent" unicode="&#x2d9;" horiz-adv-x="500" 
d="M250 586q-12 0 -21 9t-9 22t9 22t21 9t21 -9t9 -22t-9 -22t-21 -9z" />
    <glyph glyph-name="ring" unicode="&#x2da;" horiz-adv-x="500" 
d="M249 538q-36 0 -60.5 26t-24.5 61q0 37 25 63.5t62 26.5q36 0 60.5 -26.5t24.5 -61.5q0 -36 -25 -62.5t-62 -26.5zM251 563q26 0 42 18.5t16 43.5t-16 45t-44 20q-26 0 -42 -19t-16 -44t16 -44.5t44 -19.5z" />
    <glyph glyph-name="ogonek" unicode="&#x2db;" horiz-adv-x="500" 
d="M268 -212q-41 0 -61.5 25t-20.5 62q0 57 58 125h32q0 -1 -11 -15t-14 -19t-11.5 -19t-11.5 -23t-6.5 -22.5t-3.5 -25.5q0 -25 14.5 -42t38.5 -17t50 12l8 -24q-28 -17 -61 -17z" />
    <glyph glyph-name="tilde" unicode="&#x2dc;" horiz-adv-x="500" 
d="M296 547q-22 0 -49.5 21t-44.5 21q-28 0 -57 -34l-19 20q37 47 79 47q22 0 49.5 -21.5t44.5 -21.5q29 0 57 35l19 -22q-36 -45 -79 -45z" />
    <glyph glyph-name="hungarumlaut" unicode="&#x2dd;" horiz-adv-x="500" 
d="M114 539l101 121h54l-125 -121h-30zM255 539l101 121h54l-125 -121h-30z" />
    <glyph glyph-name="uni0394" unicode="&#x394;" horiz-adv-x="607" 
d="M254 526l-192 -493h481l-192 493q-9 24 -19 49.5t-18.5 48.5t-10.5 28h-1q-14 -40 -48 -126zM23 0v30l260 664h40l261 -664v-30h-561z" />
    <glyph glyph-name="uni03A9" unicode="&#x3a9;" horiz-adv-x="719" 
d="M63 0v33h157q-64 37 -111.5 122.5t-47.5 190.5q0 138 86 234t212 96t212 -96t86 -234q0 -106 -47 -190.5t-111 -122.5h157v-33h-208v32q77 44 124.5 126t47.5 188q0 120 -76 209t-185 89t-184.5 -89t-75.5 -209q0 -107 47 -188.5t125 -125.5v-32h-208z" />
    <glyph glyph-name="uni03BC" unicode="&#x3bc;" horiz-adv-x="553" 
d="M106 -218v664q-44 3 -74 3v26q32 5 113 5l-3 -65v-276q0 -56 26.5 -86.5t77.5 -30.5q47 0 91 31t65 68v325q-29 3 -82 3v26q33 5 121 5l-3 -65v-332q0 -31 3 -54q28 -3 82 -3v-26q-27 -4 -113 -4q-7 28 -7 87h-2q-22 -36 -63.5 -64.5t-95.5 -28.5q-36 0 -63.5 15.5
t-39.5 38.5h-1q4 -47 4 -127v-135h-36z" />
    <glyph glyph-name="uni1E9E" unicode="&#x1e9e;" horiz-adv-x="687" 
d="M32 0v25q28 5 86 5v356q0 143 63.5 216.5t187.5 73.5q126 0 210 -29v-24l-161 -235l41 -22q41 -22 63.5 -36.5t52 -40t43.5 -56.5t14 -69q0 -77 -53.5 -125.5t-142.5 -48.5q-112 0 -172 50l18 25q61 -44 154 -44q73 0 116 39t43 101q0 57 -38.5 95t-114.5 80l-72 39
l169 248q-65 23 -170 23q-104 0 -159 -65t-55 -192v-359q49 0 77 -5v-25h-200z" />
    <glyph glyph-name="uni2007" unicode="&#x2007;" 
 />
    <glyph glyph-name="uni2008" unicode="&#x2008;" horiz-adv-x="175" 
 />
    <glyph glyph-name="uni200B" unicode="&#x200b;" horiz-adv-x="0" 
 />
    <glyph glyph-name="endash" unicode="&#x2013;" horiz-adv-x="504" 
d="M56 275v32h393v-32h-393z" />
    <glyph glyph-name="emdash" unicode="&#x2014;" horiz-adv-x="804" 
d="M56 275v32h692v-32h-692z" />
    <glyph glyph-name="quoteleft" unicode="&#x2018;" horiz-adv-x="174" 
d="M84 506q-33 0 -33 41q0 74 70 130l14 -17q-42 -30 -42 -68q0 -15 9.5 -29.5t9.5 -26.5q0 -13 -7.5 -21.5t-20.5 -8.5z" />
    <glyph glyph-name="quoteright" unicode="&#x2019;" horiz-adv-x="174" 
d="M90 674q33 0 33 -41q0 -74 -71 -130l-14 17q43 31 43 68q0 15 -9.5 29.5t-9.5 26.5q0 13 7.5 21.5t20.5 8.5z" />
    <glyph glyph-name="quotesinglbase" unicode="&#x201a;" horiz-adv-x="174" 
d="M90 58q33 0 33 -41q0 -74 -71 -130l-14 17q43 31 43 68q0 15 -9.5 29.5t-9.5 26.5q0 13 7.5 21.5t20.5 8.5z" />
    <glyph glyph-name="quotedblleft" unicode="&#x201c;" horiz-adv-x="297" 
d="M84 506q-33 0 -33 41q0 74 70 130l14 -17q-42 -30 -42 -68q0 -15 9.5 -29.5t9.5 -26.5q0 -13 -7.5 -21.5t-20.5 -8.5zM207 506q-33 0 -33 41q0 74 70 130l14 -17q-42 -30 -42 -68q0 -15 9.5 -29.5t9.5 -26.5q0 -13 -7.5 -21.5t-20.5 -8.5z" />
    <glyph glyph-name="quotedblright" unicode="&#x201d;" horiz-adv-x="298" 
d="M90 674q33 0 33 -41q0 -74 -71 -130l-14 17q43 31 43 68q0 15 -9.5 29.5t-9.5 26.5q0 13 7.5 21.5t20.5 8.5zM214 674q33 0 33 -41q0 -74 -71 -130l-14 17q43 31 43 68q0 15 -9.5 29.5t-9.5 26.5q0 13 7.5 21.5t20.5 8.5z" />
    <glyph glyph-name="quotedblbase" unicode="&#x201e;" horiz-adv-x="298" 
d="M90 58q33 0 33 -41q0 -74 -71 -130l-14 17q43 31 43 68q0 15 -9.5 29.5t-9.5 26.5q0 13 7.5 21.5t20.5 8.5zM214 58q33 0 33 -41q0 -74 -71 -130l-14 17q43 31 43 68q0 15 -9.5 29.5t-9.5 26.5q0 13 7.5 21.5t20.5 8.5z" />
    <glyph glyph-name="bullet" unicode="&#x2022;" horiz-adv-x="297" 
d="M149 207q-34 0 -56.5 22.5t-22.5 55.5q0 34 22.5 56.5t56.5 22.5q33 0 55.5 -23t22.5 -56t-23 -55.5t-55 -22.5z" />
    <glyph glyph-name="ellipsis" unicode="&#x2026;" horiz-adv-x="534" 
d="M88 -8q-14 0 -23.5 10.5t-9.5 24.5t9.5 24t23.5 10q13 0 22.5 -10t9.5 -24t-9.5 -24.5t-22.5 -10.5zM267 -8q-14 0 -23.5 10.5t-9.5 24.5t9.5 24t23.5 10q13 0 22.5 -10t9.5 -24t-9.5 -24.5t-22.5 -10.5zM446 -8q-14 0 -23.5 10.5t-9.5 24.5t9.5 24t23.5 10
q13 0 22.5 -10t9.5 -24t-9.5 -24.5t-22.5 -10.5z" />
    <glyph glyph-name="guilsinglleft" unicode="&#x2039;" horiz-adv-x="285" 
d="M193 58l-141 188l141 187h40l-141 -187l141 -188h-40z" />
    <glyph glyph-name="guilsinglright" unicode="&#x203a;" horiz-adv-x="285" 
d="M52 58l141 188l-141 188h40l141 -188l-141 -188h-40z" />
    <glyph glyph-name="Euro" unicode="&#x20ac;" horiz-adv-x="588" 
d="M40 382v31h82q19 113 89 188t178 75q79 0 141 -40l-17 -29q-53 37 -125 37q-91 0 -150 -66t-79 -165h191v-31h-195q-3 -26 -3 -48q0 -27 3 -54h195v-30h-190q19 -98 79 -163t150 -65q80 0 131 40l19 -27q-61 -45 -150 -45q-106 0 -176 72.5t-91 187.5h-82v30h78
q-3 26 -3 53q0 17 2 49h-77z" />
    <glyph glyph-name="trademark" unicode="&#x2122;" horiz-adv-x="721" 
d="M270 378v19q11 3 46 5l21 240q-28 0 -46 5v19h87l74 -181q21 -51 26 -76h1q9 34 26 76l75 181h87v-19q-18 -5 -47 -5l21 -240q35 -2 46 -5v-19h-131v19q15 5 53 5l-12 162q-3 31 -3 71h-1q-5 -24 -27 -78l-73 -179h-30l-72 177q-19 42 -27 80h-1q-4 -67 -4 -72l-12 -161
q39 0 54 -5v-19h-131zM73 378v19q8 3 55 5v236h-68q-2 -45 -4 -59h-22v87h220v-87h-23q-2 14 -4 59h-67v-236q47 -2 54 -5v-19h-141z" />
    <glyph glyph-name="Omega" unicode="&#x2126;" horiz-adv-x="719" 
d="M63 0v33h157q-64 37 -111.5 122.5t-47.5 190.5q0 138 86 234t212 96t212 -96t86 -234q0 -106 -47 -190.5t-111 -122.5h157v-33h-208v32q77 44 124.5 126t47.5 188q0 120 -76 209t-185 89t-184.5 -89t-75.5 -209q0 -107 47 -188.5t125 -125.5v-32h-208z" />
    <glyph glyph-name="increment" unicode="&#x2206;" horiz-adv-x="607" 
d="M254 526l-192 -493h481l-192 493q-9 24 -19 49.5t-18.5 48.5t-10.5 28h-1q-14 -40 -48 -126zM23 0v30l260 664h40l261 -664v-30h-561z" />
    <glyph glyph-name="f.sc" unicode="&#xa730;" horiz-adv-x="448" 
d="M43 0v25q28 5 85 5v445q-51 0 -85 6v25h368v-120h-28q-5 25 -5 89h-214v-213h151q0 43 6 65h26v-160h-26q-6 18 -6 65h-151v-202q59 0 87 -5v-25h-208z" />
    <glyph glyph-name="zero.osf" unicode="&#xeb00;" horiz-adv-x="553" 
d="M276 -10q-108 0 -170 74.5t-62 172.5q0 99 63 174t171 75t169.5 -74.5t61.5 -172.5q0 -100 -62.5 -174.5t-170.5 -74.5zM278 20q91 0 143 64.5t52 152.5q0 87 -52.5 152.5t-144.5 65.5q-91 0 -143 -64.5t-52 -151.5q0 -88 52.5 -153.5t144.5 -65.5z" />
    <glyph glyph-name="one.osf" unicode="&#xeb01;" horiz-adv-x="381" 
d="M71 0v25q45 5 89 5h31v413l-123 -48l-7 31l132 49h34v-445q83 0 118 -5v-25h-274z" />
    <glyph glyph-name="two.osf" unicode="&#xeb02;" horiz-adv-x="466" 
d="M42 0v21q136 117 188 174q94 103 94 165q0 43 -28.5 68.5t-78.5 25.5q-73 0 -131 -54l-19 22q64 64 153 64q63 0 102 -32.5t39 -90.5q0 -23 -8.5 -48t-28.5 -52.5t-36.5 -49t-48 -52.5t-47.5 -46t-50 -45.5t-41 -36.5v-2q6 1 22 1h290v-32h-371z" />
    <glyph glyph-name="three.osf" unicode="&#xeb03;" horiz-adv-x="414" 
d="M123 -188q-48 0 -64 4l6 32q15 -5 58 -5q81 0 140 46t59 119q0 80 -55.5 120.5t-151.5 40.5v29q65 0 125.5 43.5t60.5 111.5q0 43 -29.5 72t-79.5 29q-71 0 -123 -52l-19 21q63 63 144 63q66 0 104.5 -37t38.5 -93q0 -59 -42 -106t-96 -60v-1q61 -7 110.5 -53.5
t49.5 -123.5q0 -90 -69.5 -145t-166.5 -55z" />
    <glyph glyph-name="four.osf" unicode="&#xeb04;" horiz-adv-x="533" 
d="M346 -177v177h-313v25l324 450h25v-444h115v-31h-115v-177h-36zM345 405l-270 -374h271v374h-1z" />
    <glyph glyph-name="five.osf" unicode="&#xeb05;" horiz-adv-x="402" 
d="M113 -188q-44 0 -59 4l6 32q13 -5 56 -5q81 0 141 54.5t60 135.5q0 88 -52 129t-142 41h-26q-11 0 -21 -2l19 274h249v-30h-217l-15 -211h15q106 0 166 -51t60 -148q0 -95 -70 -159t-170 -64z" />
    <glyph glyph-name="six.osf" unicode="&#xeb06;" horiz-adv-x="499" 
d="M254 -10q-52 0 -91.5 24t-61.5 64.5t-32.5 86.5t-10.5 97q0 187 97 301.5t273 114.5l6 -31q-150 0 -239 -89q-81 -81 -98 -234q62 58 162 58q89 0 138 -52t49 -141q0 -82 -51.5 -140.5t-140.5 -58.5zM255 20q73 0 113.5 49.5t40.5 117.5q0 77 -38 121t-114 44
q-94 0 -161 -60q-3 -49 3 -94.5t22.5 -87t50.5 -66t83 -24.5z" />
    <glyph glyph-name="seven.osf" unicode="&#xeb07;" horiz-adv-x="462" 
d="M123 -196l-30 14l294 626h-309q0 -79 -6 -113h-28v144h379v-28z" />
    <glyph glyph-name="eight.osf" unicode="&#xeb08;" horiz-adv-x="495" 
d="M246 -10q-81 0 -130.5 48t-49.5 119q0 56 38.5 102t113.5 91q-70 42 -103 81.5t-33 90.5q0 67 47 110.5t119 43.5q74 0 119.5 -43t45.5 -108q0 -51 -34 -90t-104 -82q77 -48 115 -92.5t38 -100.5q0 -75 -51 -122.5t-131 -47.5zM249 20q64 0 103.5 40.5t39.5 98.5
q0 88 -148 175q-71 -45 -106 -85.5t-35 -88.5q0 -57 41 -98.5t105 -41.5zM249 370q66 42 97 76t31 76q0 52 -35.5 88t-94.5 36q-58 0 -93.5 -35.5t-35.5 -86.5q0 -43 31.5 -78t99.5 -76z" />
    <glyph glyph-name="nine.osf" unicode="&#xeb09;" horiz-adv-x="499" 
d="M61 -188l-6 31q160 0 251 91q80 80 95 216q-61 -57 -162 -57q-89 0 -137.5 52t-48.5 141q0 82 51 141t140 59q69 0 115 -42.5t64 -101.5t18 -129q0 -184 -101 -292.5t-279 -108.5zM241 124q96 0 162 59q2 45 -3 87t-19.5 86t-50 71t-87.5 27q-73 0 -113.5 -49t-40.5 -117
q0 -77 38 -120.5t114 -43.5z" />
    <glyph glyph-name="zero.lf" unicode="&#xeb0a;" horiz-adv-x="589" 
d="M293 -10q-62 0 -109.5 30.5t-74 81.5t-39.5 109t-13 121q0 64 13 122.5t39.5 109.5t74.5 81.5t111 30.5t110.5 -30.5t74 -81.5t39.5 -109t13 -121q0 -64 -13 -122.5t-39.5 -109.5t-75 -81.5t-111.5 -30.5zM295 22q69 0 115.5 48t65 115t18.5 147q0 79 -19 147t-66 116.5
t-116 48.5t-115 -48t-64.5 -115t-18.5 -147q0 -79 19 -147t66 -116.5t115 -48.5z" />
    <glyph glyph-name="one.lf" unicode="&#xeb0b;" horiz-adv-x="373" 
d="M47 0v26q5 0 17 1.5t23.5 2t22.5 0.5l36 1q12 1 32 1v598l-133 -46l-9 32l144 51h34v-635q75 0 131 -6v-26h-298z" />
    <glyph glyph-name="two.lf" unicode="&#xeb0c;" horiz-adv-x="493" 
d="M43 0v20q11 12 44.5 49t47 52t43.5 49.5t44.5 52.5t39 49.5t37 51t29 47.5t24 48.5t13.5 43.5t6 43q0 64 -36 101t-99 37q-88 0 -155 -67l-19 22q71 77 176 77q79 0 125 -44.5t46 -121.5q0 -24 -5 -48.5t-18.5 -53t-24.5 -50.5t-35.5 -55.5t-38 -52t-46.5 -56t-46 -52.5
t-50.5 -56.5t-47.5 -52.5v-1q9 1 34 1h269q0 16 2.5 56.5t2.5 44.5h30v-134h-392z" />
    <glyph glyph-name="three.lf" unicode="&#xeb0d;" horiz-adv-x="443" 
d="M135 -10q-52 0 -86 6l5 33q40 -7 82 -7q89 0 148.5 42.5t59.5 122.5q0 78 -66 120.5t-165 42.5v30q71 0 140.5 44.5t69.5 109.5q0 48 -32.5 78.5t-88.5 30.5q-84 0 -150 -60l-18 22q65 71 171 71q73 0 114 -39.5t41 -99.5q0 -62 -50 -107.5t-109 -59.5v-1q61 -5 121 -54
t60 -126q0 -96 -70.5 -147.5t-176.5 -51.5z" />
    <glyph glyph-name="four.lf" unicode="&#xeb0e;" horiz-adv-x="503" 
d="M341 0v165h-312v29l313 472h34v-468h94v-33h-94v-165h-35zM339 603l-268 -406q9 1 33 1h236v405h-1z" />
    <glyph glyph-name="five.lf" unicode="&#xeb0f;" horiz-adv-x="428" 
d="M100 -10q-37 0 -52 4l5 32q44 -4 49 -4q99 0 168.5 48.5t69.5 137.5q0 87 -62.5 129.5t-157.5 42.5q-25 0 -47 -2l19 288h269v-33h-236l-15 -221h15q109 0 180.5 -52t71.5 -150q0 -106 -79.5 -163t-197.5 -57z" />
    <glyph glyph-name="six.lf" unicode="&#xeb10;" horiz-adv-x="496" 
d="M257 -10q-52 0 -92.5 24t-63 64.5t-34 87t-11.5 96.5q0 188 97 302t273 114l6 -31q-150 0 -236 -86q-83 -83 -99 -227q27 26 70 43.5t91 17.5q89 0 140.5 -58t51.5 -147q0 -83 -51.5 -141.5t-141.5 -58.5zM259 22q74 0 114 49.5t40 117.5q0 78 -40.5 126t-116.5 48
q-94 0 -163 -63v-37q0 -47 9 -88t27.5 -76.5t51.5 -56t78 -20.5z" />
    <glyph glyph-name="seven.lf" unicode="&#xeb11;" horiz-adv-x="437" 
d="M138 -22l-32 13l241 642h-287q0 -15 -2 -60t-2 -48h-28v141h356v-30z" />
    <glyph glyph-name="eight.lf" unicode="&#xeb12;" horiz-adv-x="463" 
d="M230 -10q-81 0 -130.5 48t-49.5 119q0 59 38.5 102.5t112.5 90.5q-69 44 -102 82t-33 91q0 67 47 110t120 43q74 0 119.5 -42.5t45.5 -108.5q0 -53 -36 -93t-103 -80q74 -46 114 -90.5t40 -101.5q0 -75 -51 -122.5t-132 -47.5zM232 22q64 0 103.5 39.5t39.5 97.5
q0 48 -38 89.5t-109 84.5q-68 -43 -104.5 -84t-36.5 -89q0 -58 39.5 -98t105.5 -40zM232 370q66 43 97.5 75.5t31.5 76.5q0 51 -35.5 86.5t-93.5 35.5q-60 0 -95 -34.5t-35 -85.5q0 -44 32.5 -79t97.5 -75z" />
    <glyph glyph-name="nine.lf" unicode="&#xeb13;" horiz-adv-x="496" 
d="M81 -20l-6 31q146 0 230 90q77 81 94 229q-62 -58 -159 -58q-90 0 -142 57.5t-52 146.5q0 83 51.5 141.5t141.5 58.5q101 0 151 -80.5t50 -191.5q0 -190 -92.5 -307t-266.5 -117zM241 304q95 0 161 60q1 5 1 18v21q0 47 -9 88t-27.5 76.5t-51.5 56t-77 20.5
q-74 0 -114.5 -49t-40.5 -118q0 -78 41 -125.5t117 -47.5z" />
    <glyph glyph-name="zero.tosf" unicode="&#xeb14;" 
d="M250 -10q-98 0 -148.5 73t-50.5 174q0 64 20 119t67 92.5t114 37.5q97 0 148 -73t51 -174q0 -102 -51 -175.5t-150 -73.5zM252 22q77 0 119.5 63.5t42.5 151.5t-43 152t-121 64q-77 0 -119.5 -63.5t-42.5 -150.5q0 -89 43 -153t121 -64z" />
    <glyph glyph-name="one.tosf" unicode="&#xeb15;" 
d="M97 0v25q62 6 150 6v409l-136 -51l-7 32l145 54h34v-444q110 0 166 -6v-25h-352z" />
    <glyph glyph-name="two.tosf" unicode="&#xeb16;" 
d="M59 0v21q136 117 188 174q94 103 94 165q0 43 -28.5 68.5t-78.5 25.5q-73 0 -131 -54l-19 22q64 64 153 64q63 0 102 -32.5t39 -90.5q0 -23 -8.5 -48t-28.5 -52.5t-36.5 -49t-48 -52.5t-47.5 -46t-50 -45.5t-41 -36.5v-2q6 1 22 1h290v-32h-371z" />
    <glyph glyph-name="three.tosf" unicode="&#xeb17;" 
d="M159 -188q-51 0 -79 7l6 32q28 -7 75 -7q82 0 145.5 46t63.5 119q0 77 -64.5 118.5t-163.5 41.5v29q71 0 139 44t68 111q0 44 -33 72t-84 28q-83 0 -148 -58l-19 22q73 69 170 69q68 0 109.5 -35.5t41.5 -94.5q0 -63 -47 -107.5t-106 -58.5v-1q40 -4 77.5 -23t67 -60
t29.5 -94q0 -92 -74.5 -146t-173.5 -54z" />
    <glyph glyph-name="four.tosf" unicode="&#xeb18;" 
d="M329 -177v177h-309v26l320 449h25v-443h112v-32h-112v-177h-36zM328 405l-265 -373h266v373h-1z" />
    <glyph glyph-name="five.tosf" unicode="&#xeb19;" 
d="M150 -188q-49 0 -77 7l5 31q24 -6 75 -6q82 0 145 53.5t63 135.5q0 87 -57.5 128.5t-148.5 41.5q-36 0 -58 -2l20 274h272v-32h-240l-15 -208h24q108 0 174 -50.5t66 -149.5q0 -96 -73 -159.5t-175 -63.5z" />
    <glyph glyph-name="six.tosf" unicode="&#xeb1a;" 
d="M258 -10q-70 0 -117.5 42.5t-66.5 101.5t-19 128q0 187 98.5 301.5t273.5 114.5l6 -31q-146 0 -233.5 -84t-103.5 -229q27 25 70.5 42t92.5 17q90 0 141.5 -57t51.5 -147q0 -82 -52 -140.5t-142 -58.5zM259 22q73 0 114.5 49t41.5 116q0 78 -41 126t-117 48
q-96 0 -164 -61q-1 -5 -1 -20v-19q0 -63 15 -114t54 -88t98 -37z" />
    <glyph glyph-name="seven.tosf" unicode="&#xeb1b;" 
d="M128 -196l-30 14l309 625h-323q0 -80 -6 -112h-27v144h393v-28z" />
    <glyph glyph-name="eight.tosf" unicode="&#xeb1c;" 
d="M250 -10q-82 0 -134.5 47.5t-52.5 119.5q0 56 40.5 101t117.5 92q-74 46 -108.5 83.5t-34.5 88.5q0 67 50 110.5t123 43.5q75 0 123.5 -43.5t48.5 -107.5q0 -52 -35.5 -90.5t-108.5 -82.5q81 -51 120 -93t39 -99q0 -76 -53.5 -123t-134.5 -47zM252 22q66 0 108 39.5
t42 97.5q0 47 -38.5 87.5t-115.5 86.5q-75 -47 -112 -86.5t-37 -86.5q0 -58 43.5 -98t109.5 -40zM252 370q70 43 102.5 76t32.5 76q0 52 -38.5 87t-97.5 35t-97.5 -34.5t-38.5 -85.5q0 -44 32.5 -77t104.5 -77z" />
    <glyph glyph-name="nine.tosf" unicode="&#xeb1d;" 
d="M61 -188l-6 31q148 0 239.5 81.5t107.5 225.5q-64 -57 -163 -57q-90 0 -139 52.5t-49 141.5q0 82 52.5 140.5t141.5 58.5q53 0 93 -24t61.5 -64.5t32 -87t10.5 -97.5q0 -184 -101.5 -292.5t-279.5 -108.5zM241 125q97 0 164 58v31q0 46 -8 86.5t-26 76t-50.5 56
t-76.5 20.5q-72 0 -114 -48.5t-42 -117.5q0 -76 38.5 -119t114.5 -43z" />
    <glyph glyph-name="numbersign.lf" unicode="&#xeb1e;" horiz-adv-x="569" 
d="M133 0l36 238h-142l4 30h142l24 154h-143l4 31h144l32 213h33l-33 -213h137l32 213h33l-33 -213h139l-4 -31h-140l-23 -154h140l-4 -30h-140l-36 -238h-33l36 238h-136l-36 -238h-33zM229 422l-23 -154h137l23 154h-137z" />
    <glyph glyph-name="dollar.lf" unicode="&#xeb1f;" horiz-adv-x="500" 
d="M235 -122v112q-115 0 -180 57v134h30q6 -32 6 -119q55 -40 152 -40q72 0 116.5 39.5t44.5 99.5q0 26 -10 49t-23 38.5t-38.5 33.5t-42.5 27.5t-50 26.5q-40 21 -61.5 34t-48 36t-38.5 51t-12 65q0 68 45 108.5t117 44.5v109h32v-108q93 -4 148 -44v-134h-30q-5 25 -5 116
q-55 30 -130 30q-62 0 -101 -32t-39 -87q0 -24 7.5 -43.5t15.5 -32t29.5 -28.5t33.5 -22.5t43 -23.5q7 -4 11 -6t25 -13.5t26.5 -15t24.5 -14.5t25.5 -16.5t21.5 -17.5t21 -20.5t15.5 -22t13.5 -26t7.5 -28t3.5 -32.5q0 -72 -46.5 -118t-127.5 -54v-113h-32z" />
    <glyph glyph-name="percent.lf" unicode="&#xeb20;" horiz-adv-x="803" 
d="M203 347q-72 0 -115.5 48.5t-43.5 113.5q0 66 44 115t116 49t115.5 -48.5t43.5 -113.5q0 -66 -44.5 -115t-115.5 -49zM204 376q55 0 90 39t35 95t-35 95t-91 39q-55 0 -90 -39t-35 -95t35 -95t91 -39zM600 -6q-72 0 -115.5 48.5t-43.5 113.5q0 66 44 115t116 49
t115 -48.5t43 -113.5q0 -66 -44 -115t-115 -49zM600 23q55 0 90 39.5t35 94.5t-35 94.5t-90 39.5t-90 -39.5t-35 -94.5t35 -94.5t90 -39.5zM166 0l432 666h36l-433 -666h-35z" />
    <glyph glyph-name="numbersign.osf" unicode="&#xeb21;" horiz-adv-x="477" 
d="M108 117l22 158h-105l5 32h106l19 133h-106l4 31h106l21 139h33l-21 -139h119l21 139h33l-21 -139h108l-4 -31h-108l-19 -133h107l-4 -32h-108l-23 -158h-33l23 158h-120l-22 -158h-33zM188 440l-20 -133h120l19 133h-119z" />
    <glyph glyph-name="dollar.osf" unicode="&#xeb22;" horiz-adv-x="432" 
d="M192 -123v114q-95 5 -135 43v92h29q4 -39 5 -76q47 -29 117 -29q56 0 92.5 24.5t36.5 67.5q0 9 -2.5 17.5t-5 15.5t-9 14t-11 12t-14.5 11.5t-14.5 9.5t-17.5 9.5t-17.5 8.5t-19 8.5t-17.5 7.5q-36 15 -53 23.5t-42.5 26t-36.5 39.5t-11 50q0 50 34 81.5t92 36.5v106h36
v-105q86 -5 123 -46v-100h-28q-5 18 -5 85q-44 31 -107 31q-51 0 -80.5 -23.5t-29.5 -63.5q0 -17 8.5 -32.5t17.5 -25t31.5 -21.5t31.5 -16t36 -15q36 -16 54 -25t44 -26.5t37.5 -39.5t11.5 -50q0 -54 -40 -87t-105 -39v-114h-36z" />
    <glyph glyph-name="percent.osf" unicode="&#xeb23;" horiz-adv-x="680" 
d="M168 228q-57 0 -90.5 38.5t-33.5 90.5q0 53 34.5 91.5t91.5 38.5t91 -38.5t34 -89.5q0 -53 -35 -92t-92 -39zM170 256q44 0 68 28.5t24 73.5q0 44 -25 73t-68 29t-67.5 -29t-24.5 -73t24.5 -73t68.5 -29zM510 -10q-57 0 -91 38.5t-34 89.5q0 53 35 92t92 39t90.5 -38.5
t33.5 -90.5q0 -53 -34.5 -91.5t-91.5 -38.5zM511 17q43 0 67.5 29t24.5 73t-24.5 73t-68.5 29q-43 0 -67.5 -28.5t-24.5 -72.5t24.5 -73.5t68.5 -29.5zM186 0l283 475h33l-283 -475h-33z" />
    <glyph glyph-name="fi" unicode="&#xfb01;" horiz-adv-x="563" 
d="M43 0v25q28 5 85 5v414h-85v31h85v86q0 80 46.5 124.5t125.5 44.5q90 0 146 -45l-18 -26q-20 17 -57 28.5t-73 11.5q-64 0 -99 -36t-35 -106v-82h181l106 5l-3 -65v-385q57 0 85 -5v-25h-206v25q28 5 85 5v414h-248v-414q59 0 86 -5v-25h-207z" />
    <glyph glyph-name="fl" unicode="&#xfb02;" horiz-adv-x="563" 
d="M43 0v25q28 5 85 5v414h-85v31h85v87q0 81 46.5 124.5t130.5 43.5q48 0 97 -11l50 2l-4 -65v-626q57 0 85 -5v-25h-205v25q27 5 84 5v654q-47 15 -110 15q-138 0 -138 -142v-82h125v-31h-125v-414q59 0 86 -5v-25h-207z" />
    <glyph glyph-name="uniFEFF" unicode="&#xfeff;" horiz-adv-x="0" 
 />
    <glyph glyph-name="NULL" horiz-adv-x="0" 
 />
    <glyph glyph-name="CR" horiz-adv-x="237" 
 />
    <glyph glyph-name="uni2007.osf" horiz-adv-x="553" 
 />
    <glyph glyph-name="uni030C.alt001" horiz-adv-x="1" 
d="M-294 560l40 160h47l-63 -160h-24z" />
    <glyph glyph-name="slash.case" horiz-adv-x="366" 
d="M4 -109l317 881h34l-316 -881h-35z" />
    <glyph glyph-name="f_f" horiz-adv-x="593" 
d="M43 0v25q28 5 85 5v414h-85v31h85v87q0 82 38 125t112 43q44 0 69 -13l-10 -32q-26 14 -61 14q-58 0 -85 -35t-27 -106v-83h247v87q0 82 38.5 125t112.5 43q42 0 69 -13l-11 -32q-26 14 -60 14q-59 0 -86 -35t-27 -106v-83h125v-31h-125v-414q59 0 87 -5v-25h-207v25
q27 5 84 5v414h-247v-414q59 0 86 -5v-25h-207z" />
    <glyph glyph-name="f_f_i" horiz-adv-x="846" 
d="M43 0v25q28 5 85 5v414h-85v31h85v87q0 82 38 125t112 43q44 0 69 -13l-10 -32q-26 14 -61 14q-58 0 -85 -35t-27 -106v-83h247v86q0 80 46.5 124.5t126.5 44.5q89 0 145 -45l-17 -26q-21 17 -58 28.5t-73 11.5q-64 0 -99 -36t-35 -106v-82h181l106 5l-3 -65v-385
q57 0 85 -5v-25h-205v25q27 5 84 5v414h-248v-414q59 0 87 -5v-25h-207v25q27 5 84 5v414h-247v-414q59 0 86 -5v-25h-207z" />
    <glyph glyph-name="f_f_l" horiz-adv-x="846" 
d="M43 0v25q28 5 85 5v414h-85v31h85v87q0 82 38 125t112 43q44 0 69 -13l-10 -32q-26 14 -61 14q-58 0 -85 -35t-27 -106v-83h247v87q0 80 47 124t130 44q48 0 97 -11l50 2l-4 -65v-626q58 0 85 -5v-25h-205v25q27 5 85 5v654q-51 15 -111 15q-138 0 -138 -142v-82h125v-31
h-125v-414q59 0 87 -5v-25h-207v25q27 5 84 5v414h-247v-414q59 0 86 -5v-25h-207z" />
    <glyph glyph-name="f_i" horiz-adv-x="563" 
d="M43 0v25q28 5 85 5v414h-85v31h85v86q0 80 46.5 124.5t125.5 44.5q90 0 146 -45l-18 -26q-20 17 -57 28.5t-73 11.5q-64 0 -99 -36t-35 -106v-82h181l106 5l-3 -65v-385q57 0 85 -5v-25h-206v25q28 5 85 5v414h-248v-414q59 0 86 -5v-25h-207z" />
    <glyph glyph-name="f_l" horiz-adv-x="563" 
d="M43 0v25q28 5 85 5v414h-85v31h85v87q0 81 46.5 124.5t130.5 43.5q48 0 97 -11l50 2l-4 -65v-626q57 0 85 -5v-25h-205v25q27 5 84 5v654q-47 15 -110 15q-138 0 -138 -142v-82h125v-31h-125v-414q59 0 86 -5v-25h-207z" />
    <glyph glyph-name="uni2007.tosf" 
 />
    </font>
</defs>
</svg>
