<?xml version="1.0" standalone="no"?>
<!DOCTYPE svg PUBLIC "-//W3C//DTD SVG 1.1//EN" "http://www.w3.org/Graphics/SVG/1.1/DTD/svg11.dtd" >
<svg>
<metadata>
Created by FontForge 20120731 at Sat Feb  6 17:04:01 2016
 By ,,,
2005 Erik Spiekermann published by FSI FontShop International GmbH
</metadata>
<defs>
<font id="FFMetaPro-NormalItalic" horiz-adv-x="541" >
  <font-face 
    font-family="FF Meta Pro Normal"
    font-weight="400"
    font-style="italic"
    font-stretch="normal"
    units-per-em="1000"
    panose-1="0 0 0 0 0 0 0 0 0 0"
    ascent="754"
    descent="-246"
    x-height="498"
    cap-height="686"
    bbox="-392 -281 1404 1102"
    underline-thickness="98"
    underline-position="-21"
    unicode-range="U+000D-FB06"
  />
<missing-glyph horiz-adv-x="556" 
d="M45 0v686h466v-686h-466zM95 50h366v586h-366v-586z" />
    <glyph glyph-name=".notdef" horiz-adv-x="556" 
d="M45 0v686h466v-686h-466zM95 50h366v586h-366v-586z" />
    <glyph glyph-name=".null" horiz-adv-x="0" 
 />
    <glyph glyph-name=".null" horiz-adv-x="0" 
 />
    <glyph glyph-name="nonmarkingreturn" horiz-adv-x="333" 
 />
    <glyph glyph-name="CR" unicode="&#xd;" horiz-adv-x="225" 
 />
    <glyph glyph-name="space" unicode=" " horiz-adv-x="225" 
 />
    <glyph glyph-name="exclam" unicode="!" horiz-adv-x="294" 
d="M284 699l-126 -501h-60l85 488zM170 56q0 -26 -18 -44.5t-43 -18.5t-43 18t-18 44q0 25 18 43t43 18t43 -17.5t18 -42.5z" />
    <glyph glyph-name="quotedbl" unicode="&#x22;" horiz-adv-x="409" 
d="M415 708l-51 -240h-72l51 240h72zM268 708l-51 -240h-72l51 240h72z" />
    <glyph glyph-name="numbersign" unicode="#" horiz-adv-x="581" 
d="M588 431h-114l-53 -152h90v-66h-115l-75 -213h-67l75 213h-126l-75 -213h-67l75 213h-91v66h116l52 152h-91v66h115l75 211h67l-75 -211h126l75 211h67l-75 -211h91v-66zM407 431h-126l-53 -152h126z" />
    <glyph glyph-name="dollar" unicode="$" horiz-adv-x="542" 
d="M553 642l-43 -61q-63 47 -128 52l-52 -243l33 -14q61 -26 87 -67.5t26 -104.5q0 -83 -62 -142.5t-170 -71.5l-20 -97h-59l20 94q-101 1 -180 54l40 65q72 -49 154 -52l59 276l-25 10q-61 24 -89 62.5t-28 99.5q0 80 62 135t159 63l18 83h59l-18 -83q91 -8 157 -58z
M390 192q0 41 -17 67t-61 47l-53 -248q60 12 95.5 48.5t35.5 85.5zM323 631q-54 -8 -87.5 -38.5t-33.5 -73.5q0 -39 16 -62t58 -43z" />
    <glyph glyph-name="percent" unicode="%" horiz-adv-x="860" 
d="M804 212q0 -101 -57 -161.5t-146 -60.5q-60 0 -94.5 31t-34.5 93q0 93 57 155.5t144 62.5q64 0 97.5 -33.5t33.5 -86.5zM434 573q0 -101 -57 -161.5t-146 -60.5q-60 0 -94.5 31t-34.5 93q0 93 57 155.5t144 62.5q64 0 97.5 -33.5t33.5 -86.5zM730 686l-481 -686h-66
l481 686h66zM366 564q0 74 -76 74q-59 0 -89 -44t-30 -117q0 -71 75 -71q57 0 88.5 44.5t31.5 113.5zM736 203q0 74 -76 74q-59 0 -89 -44t-30 -117q0 -71 75 -71q57 0 88.5 44.5t31.5 113.5z" />
    <glyph glyph-name="ampersand" unicode="&#x26;" horiz-adv-x="685" 
d="M615 0h-103l-53 65q-38 -37 -94.5 -58.5t-116.5 -21.5q-93 0 -146 40t-53 111q0 63 38.5 114.5t140.5 93.5q-62 67 -62 131q0 72 59 126.5t153 54.5q69 0 111.5 -34.5t42.5 -87.5q0 -103 -117 -164l-66 -34l126 -158q27 32 53 155h69q-26 -132 -83 -209zM426 110
l-158 192q-70 -30 -101 -65t-31 -88q0 -44 33 -73.5t92 -29.5q48 0 93 18.5t72 45.5zM448 527q0 33 -22.5 52t-58.5 19q-40 0 -77.5 -27t-37.5 -68q0 -38 10 -58.5t49 -63.5q84 36 113 76q24 34 24 70z" />
    <glyph glyph-name="quotesingle" unicode="'" horiz-adv-x="262" 
d="M267 708l-51 -240h-72l51 240h72z" />
    <glyph glyph-name="parenleft" unicode="(" horiz-adv-x="332" 
d="M457 725q-119 -61 -164 -130q-62 -93 -99 -268q-26 -120 -26 -205q0 -165 106 -235l-29 -42q-72 36 -113 108t-41 171q0 92 22 197q47 227 166 344q75 73 163 105z" />
    <glyph glyph-name="parenright" unicode=")" horiz-adv-x="332" 
d="M272 493q0 -93 -22 -197q-47 -227 -166 -344q-75 -73 -163 -105l-15 49q119 61 164 130q62 93 99 268q26 120 26 205q0 165 -106 235l29 38q72 -36 113 -108t41 -171z" />
    <glyph glyph-name="asterisk" unicode="*" horiz-adv-x="468" 
d="M493 549l-141 -48l89 -119l-49 -38l-90 123l-87 -123l-50 38l87 119l-141 48l19 58l142 -48v149h60v-149l142 48z" />
    <glyph glyph-name="plus" unicode="+" horiz-adv-x="539" 
d="M495 286l-16 -72h-175l-38 -178h-76l38 178h-177l16 72h176l38 178h76l-38 -178h176z" />
    <glyph glyph-name="comma" unicode="," horiz-adv-x="290" 
d="M173 50q0 -68 -59 -129q-37 -38 -95 -64l-26 44q65 29 86 89q-22 0 -37 18.5t-15 43.5q1 33 22 53t53 20q30 0 50.5 -21t20.5 -54z" />
    <glyph glyph-name="hyphen" unicode="-" horiz-adv-x="341" 
d="M281 305l-16 -76h-191l16 76h191z" />
    <glyph glyph-name="period" unicode="." horiz-adv-x="286" 
d="M172 56q0 -28 -20 -48.5t-47 -20.5q-28 0 -47.5 20t-19.5 49q0 28 19 47t47 19q29 0 48.5 -19t19.5 -47z" />
    <glyph glyph-name="slash" unicode="/" horiz-adv-x="413" 
d="M481 757l-451 -905h-66l451 905h66z" />
    <glyph glyph-name="zero" unicode="0" horiz-adv-x="596" 
d="M533 328q0 -75 -31 -154.5t-79 -123.5q-75 -67 -180 -67q-87 0 -131.5 45.5t-44.5 130.5q0 71 27.5 148.5t70.5 122.5q76 79 189 79q87 0 133 -47.5t46 -133.5zM450 331q0 59 -26.5 86t-83.5 27q-70 0 -114 -44q-34 -34 -55.5 -106t-21.5 -132q0 -59 27 -86.5t83 -27.5
q66 0 110 40q37 35 59 102t22 141z" />
    <glyph glyph-name="one" unicode="1" horiz-adv-x="433" 
d="M344 507l-94 -444h92l-14 -63h-263l14 63h92l74 349q-87 -50 -147 -72l-11 51l196 116h61z" />
    <glyph glyph-name="two" unicode="2" horiz-adv-x="549" 
d="M485 394q0 -34 -21 -73.5t-60 -72.5q-72 -63 -169 -123l-104 -65q48 4 104 4h204l-30 -64h-382l14 63q258 172 306 224q41 44 41 85t-21.5 59.5t-67.5 18.5q-67 0 -169 -71l-26 46q126 93 229 93q68 0 110 -34.5t42 -89.5z" />
    <glyph glyph-name="three" unicode="3" horiz-adv-x="530" 
d="M471 383q0 -61 -43.5 -111.5t-111.5 -67.5q51 -10 80.5 -47.5t29.5 -83.5q0 -106 -105.5 -180.5t-287.5 -74.5q-30 0 -49 3l-7 57q19 -3 51 -3q155 0 229 57q36 27 59 66.5t23 74.5t-17 61.5t-46 35.5q-30 10 -119 10h-10l12 56h32q82 0 112 11q39 15 60 50.5t21 71.5
q0 39 -26.5 60t-72.5 21q-72 0 -171 -62l-27 44q120 83 226 83q70 0 114 -37.5t44 -94.5z" />
    <glyph glyph-name="four" unicode="4" horiz-adv-x="545" 
d="M465 67l-14 -63h-55q-6 0 -16 0.5t-11 0.5q0 -9 -5 -29l-31 -148l-82 -23l34 160l9 40q-2 0 -17.5 -0.5t-22.5 -0.5h-258l13 62l326 450h87l-270 -374q-5 -8 -61 -79q12 3 39 3h177l7 29q19 76 23 90l40 140l66 19l-43 -201q-4 -20 -8.5 -38.5t-7 -28.5t-2.5 -11
q1 0 13.5 1t20.5 1h49z" />
    <glyph glyph-name="five" unicode="5" horiz-adv-x="490" 
d="M445 498l-26 -66h-216l-59 -194q44 5 72 5q76 0 124.5 -43.5t48.5 -113.5q0 -18 -5 -43q-23 -108 -120 -168t-220 -60q-37 0 -71 10l-2 60q28 -14 72 -14q92 0 165.5 48.5t89.5 123.5q4 17 4 36q0 49 -33 76.5t-92 27.5q-78 0 -132 -22l104 337h296z" />
    <glyph glyph-name="six" unicode="6" horiz-adv-x="577" 
d="M537 637q-85 -25 -157.5 -69.5t-116.5 -96.5t-75 -123q67 52 157 52q66 0 113.5 -45.5t47.5 -118.5q0 -111 -76 -181t-184 -70q-83 0 -133.5 56t-50.5 145q0 88 39.5 176t116.5 160q130 122 309 172zM416 230q0 56 -27 83t-73 27q-68 0 -146 -53q-21 -59 -21 -109
q0 -59 30 -95.5t80 -36.5q70 0 113.5 50t43.5 134z" />
    <glyph glyph-name="seven" unicode="7" horiz-adv-x="490" 
d="M511 495l-11 -76q-159 -185 -233 -294q-108 -156 -157 -285l-101 -25q26 79 71.5 156t123.5 187q128 183 229 273q-4 0 -39.5 -1t-53.5 -1h-264l29 66h406z" />
    <glyph glyph-name="eight" unicode="8" horiz-adv-x="581" 
d="M554 539q0 -117 -173 -188l47 -24q35 -18 56 -52t21 -72q0 -88 -73.5 -154t-186.5 -66q-92 0 -144 43.5t-52 114.5q0 142 182 206q-88 45 -88 124q0 85 67.5 139.5t178.5 54.5q76 0 120.5 -36.5t44.5 -89.5zM424 187q0 40 -24 63.5t-119 70.5q-68 -24 -109.5 -70
t-41.5 -107q0 -47 32.5 -74.5t90.5 -27.5q82 0 126.5 42t44.5 103zM476 533q0 34 -29 54.5t-78 20.5q-66 0 -106.5 -31.5t-40.5 -88.5q0 -36 23 -59t86 -53q83 36 114 74.5t31 82.5z" />
    <glyph glyph-name="nine" unicode="9" horiz-adv-x="571" 
d="M513 312q0 -90 -38 -180.5t-114 -161.5q-151 -142 -351 -176l-31 50q137 26 249 106.5t153 181.5q-67 -52 -157 -52q-64 0 -110 51.5t-46 125.5q0 111 77 183.5t184 72.5q83 0 133.5 -56t50.5 -145zM426 320q0 59 -30 95.5t-80 36.5q-69 0 -113.5 -52.5t-44.5 -136.5
q0 -58 25.5 -90.5t69.5 -32.5q68 0 146 53q27 75 27 127z" />
    <glyph glyph-name="colon" unicode=":" horiz-adv-x="305" 
d="M248 372q0 -28 -20 -48.5t-47 -20.5q-28 0 -47.5 20t-19.5 49q0 28 19 47t47 19q29 0 48.5 -19t19.5 -47zM181 56q0 -28 -20 -48.5t-47 -20.5q-28 0 -47.5 20t-19.5 49q0 28 19 47t47 19q29 0 48.5 -19t19.5 -47z" />
    <glyph glyph-name="semicolon" unicode=";" horiz-adv-x="321" 
d="M193 50q0 -70 -59 -129q-42 -40 -95 -64l-26 44q65 29 86 89q-22 0 -37 18.5t-15 43.5q1 33 22 53t53 20q30 0 50.5 -21t20.5 -54zM248 372q0 -28 -20 -48.5t-47 -20.5q-28 0 -47.5 20t-19.5 49q0 28 19 47t47 19q29 0 48.5 -19t19.5 -47z" />
    <glyph glyph-name="less" unicode="&#x3c;" horiz-adv-x="330" 
d="M345 512l-210 -216l110 -213l-70 -40l-136 257l245 257z" />
    <glyph glyph-name="equal" unicode="=" horiz-adv-x="633" 
d="M616 414l-14 -66h-522l14 66h522zM583 258l-14 -66h-522l14 66h522z" />
    <glyph glyph-name="greater" unicode="&#x3e;" horiz-adv-x="330" 
d="M320 300l-245 -257l-61 45l210 221l-110 208l70 40z" />
    <glyph glyph-name="question" unicode="?" horiz-adv-x="444" 
d="M458 571q0 -90 -125 -173q-55 -37 -76.5 -77t-21.5 -99h-67q-2 70 23.5 124.5t91.5 94.5q93 57 93 111q0 37 -21.5 56t-59.5 19q-64 0 -139 -46l-26 53q91 61 181 61q73 0 110 -33t37 -91zM234 54q0 -26 -18 -44.5t-43 -18.5t-43 18t-18 44q0 25 18 43t43 18t43 -17.5
t18 -42.5z" />
    <glyph glyph-name="at" unicode="@" horiz-adv-x="916" 
d="M850 277q0 -129 -64 -210t-153 -81q-55 0 -80.5 27.5t-25.5 67.5q0 8 2 22q-24 -43 -68.5 -74t-92.5 -31q-45 0 -78 37.5t-33 105.5q0 128 70.5 220t193.5 92q64 0 123 -32q-14 -50 -23 -92l-38 -181q-7 -37 -7 -52q0 -30 14.5 -43.5t45.5 -13.5q60 0 101.5 69.5
t41.5 168.5q0 126 -88 210t-228 84q-145 0 -233.5 -109t-88.5 -258q0 -139 86 -226.5t218 -87.5q80 0 137 19l13 -54q-60 -20 -150 -20q-162 0 -269 98.5t-107 270.5q0 179 110.5 300t283.5 121q166 0 276.5 -96t110.5 -252zM565 387q-23 14 -51 14q-63 0 -107.5 -43.5
t-62 -101t-17.5 -119.5q0 -43 15 -61.5t47 -18.5q40 0 81 37.5t55 103.5z" />
    <glyph glyph-name="A" unicode="A" horiz-adv-x="573" 
d="M518 0h-89l-20 211h-256l-111 -211h-87l375 686h107zM402 278l-35 338q-35 -70 -43 -85l-135 -253h213z" />
    <glyph glyph-name="B" unicode="B" horiz-adv-x="595" 
d="M578 536q0 -132 -156 -173q117 -21 117 -146q0 -90 -88 -162q-40 -32 -87.5 -43.5t-141.5 -11.5h-177l146 686h177q116 0 163 -40t47 -110zM449 216q-1 53 -30 80t-105 27h-121l-55 -256h135q80 0 124 36q52 43 52 113zM486 522q0 95 -124 95h-107l-48 -226h124
q69 0 109 30q46 37 46 101z" />
    <glyph glyph-name="C" unicode="C" horiz-adv-x="561" 
d="M603 638l-46 -51q-49 42 -121 42q-121 0 -196 -118q-37 -57 -59 -133.5t-22 -144.5q0 -83 41.5 -129t120.5 -46q71 0 143 44l32 -57q-98 -56 -203 -56q-102 0 -160.5 67.5t-58.5 180.5q0 90 32.5 182.5t91.5 158.5q49 55 115 86t132 31q96 0 158 -57z" />
    <glyph glyph-name="D" unicode="D" horiz-adv-x="624" 
d="M604 433q0 -89 -43 -193.5t-101 -156.5q-49 -44 -104 -63.5t-132 -19.5h-179l146 686h147q77 0 119.5 -11t78.5 -42q68 -58 68 -200zM515 423q0 92 -27 134q-23 38 -55.5 50t-91.5 12h-82l-117 -551h73q140 0 198 71q48 59 75 140t27 144z" />
    <glyph glyph-name="E" unicode="E" horiz-adv-x="512" 
d="M566 686l-26 -68h-281l-47 -225h235l-16 -71h-235l-53 -251h302l-15 -71h-385l146 686h375z" />
    <glyph glyph-name="F" unicode="F" horiz-adv-x="441" 
d="M552 686l-28 -68h-265l-47 -225h220l-15 -67h-220l-69 -326h-83l146 686h361z" />
    <glyph glyph-name="G" unicode="G" horiz-adv-x="641" 
d="M619 628l-41 -51q-61 49 -142 49q-106 0 -170 -79q-46 -57 -74.5 -147t-28.5 -169q0 -84 46 -130t122 -46q65 0 115 27l44 209h-138v68h230l-68 -320q-91 -52 -205 -52q-108 0 -171.5 69t-63.5 176q0 102 37 200t104 165q95 95 233 95q106 0 171 -64z" />
    <glyph glyph-name="H" unicode="H" horiz-adv-x="641" 
d="M642 686l-146 -686h-82l71 332h-289l-71 -332h-80l146 686h80l-61 -287h289l61 287h82z" />
    <glyph glyph-name="I" unicode="I" horiz-adv-x="270" 
d="M271 686l-146 -686h-80l146 686h80z" />
    <glyph glyph-name="J" unicode="J" horiz-adv-x="272" 
d="M273 686l-121 -569q-24 -113 -58 -157q-48 -61 -135 -88l-29 51q64 24 96 67q24 30 44 125l121 571h82z" />
    <glyph glyph-name="K" unicode="K" horiz-adv-x="561" 
d="M627 663l-324 -306l198 -345l-86 -27l-206 378l356 345zM274 686l-146 -686h-83l146 686h83z" />
    <glyph glyph-name="L" unicode="L" horiz-adv-x="463" 
d="M413 69l-26 -69h-342l146 686h82l-131 -617h271z" />
    <glyph glyph-name="M" unicode="M" horiz-adv-x="816" 
d="M778 686l-87 -686h-82l67 503q6 47 20 117q-23 -56 -50 -108l-256 -512h-70l-32 487q-6 104 -6 131l-36 -130l-142 -488h-79l206 686h120l30 -448q4 -65 1 -120q34 81 49 112l226 456h121z" />
    <glyph glyph-name="N" unicode="N" horiz-adv-x="646" 
d="M647 686l-146 -686h-86l-131 420q-36 113 -43 164l-4 -28q-4 -28 -11 -74t-15 -84l-81 -398h-85l146 686h95l135 -438q13 -43 33 -143q0 1 2 14t5.5 34t7.5 46t9.5 56t11.5 58l76 373h81z" />
    <glyph glyph-name="O" unicode="O" horiz-adv-x="686" 
d="M654 466q0 -128 -43 -242t-122 -175q-44 -34 -90 -48t-108 -14q-105 0 -159.5 64.5t-54.5 178.5q0 109 38 213.5t97 164.5q46 47 99.5 68.5t127.5 21.5q102 0 158.5 -60.5t56.5 -171.5zM565 474q0 158 -140 158q-105 0 -164 -80q-43 -58 -68.5 -148t-25.5 -193
q0 -161 142 -161q79 0 140 59q49 49 82.5 159t33.5 206z" />
    <glyph glyph-name="P" unicode="P" horiz-adv-x="557" 
d="M578 527q0 -128 -96 -204q-62 -50 -179 -50h-120l-58 -273h-80l146 686h178q110 0 159.5 -44.5t49.5 -114.5zM489 508q0 56 -33.5 82.5t-112.5 26.5h-87l-59 -277h115q75 0 115 37q62 56 62 131z" />
    <glyph glyph-name="Q" unicode="Q" horiz-adv-x="687" 
d="M655 466q0 -128 -43 -242t-122 -175q-34 -26 -76 -44q33 -11 81 -42q43 -28 100 -28q27 0 42 5l-24 -54q-22 -10 -61 -10q-49 0 -135 52q-79 49 -130 59q-102 1 -155.5 65.5t-53.5 177.5q0 111 36.5 212.5t98.5 165.5q46 47 99.5 68.5t127.5 21.5q102 0 158.5 -60.5
t56.5 -171.5zM566 474q0 158 -140 158q-105 0 -164 -80q-41 -54 -67.5 -155t-26.5 -186q0 -161 142 -161q79 0 140 59q49 49 82.5 159t33.5 206z" />
    <glyph glyph-name="R" unicode="R" horiz-adv-x="544" 
d="M556 526q0 -95 -66 -156t-160 -61h-10q54 -54 106 -159q38 -76 57 -138l-72 -24q-15 37 -57 128t-86 152q-18 25 -33 32.5t-42 8.5l-66 -309h-82l146 686h150q112 0 163.5 -38.5t51.5 -121.5zM469 511q0 56 -31 81t-100 25h-79l-54 -257h73q91 0 132 35q59 49 59 116z
" />
    <glyph glyph-name="S" unicode="S" horiz-adv-x="561" 
d="M563 642l-43 -61q-73 53 -151 53q-68 0 -111.5 -32.5t-43.5 -82.5q0 -42 18 -65.5t69 -45.5l72 -31q61 -26 87 -67.5t26 -105.5q0 -93 -76.5 -155t-205.5 -62q-107 0 -189 54l40 65q74 -52 164 -52q81 0 130 39t49 99q0 45 -19.5 71.5t-73.5 48.5l-62 26q-61 26 -89 64.5
t-28 99.5q0 87 72 143t181 56q107 0 184 -59z" />
    <glyph glyph-name="T" unicode="T" horiz-adv-x="464" 
d="M575 686l-20 -69h-186l-131 -617h-79l131 617h-184l15 69h454z" />
    <glyph glyph-name="U" unicode="U" horiz-adv-x="635" 
d="M641 686l-101 -477q-16 -76 -33 -110t-53 -61q-69 -50 -183 -50q-88 0 -140 36.5t-52 110.5q0 47 9 91l98 460h81l-93 -439q-15 -71 -15 -105q0 -40 31.5 -62t89.5 -22q89 0 130 43q20 21 30 44.5t21 72.5l99 468h81z" />
    <glyph glyph-name="V" unicode="V" horiz-adv-x="577" 
d="M658 686l-381 -686h-81l-85 686h85l52 -440q10 -88 7 -153q34 73 72 143l243 450h88z" />
    <glyph glyph-name="W" unicode="W" horiz-adv-x="802" 
d="M883 686l-303 -686h-107l-4 381q-1 104 6 195q-28 -75 -76 -189l-166 -387h-106l-16 686h84l2 -401q0 -75 -8 -209q34 88 82 199l178 411h93l4 -398q2 -158 -4 -212q32 88 85 212l170 398h86z" />
    <glyph glyph-name="X" unicode="X" horiz-adv-x="491" 
d="M572 686l-249 -328l144 -358h-94l-111 295l-218 -295h-100l288 368l-121 318h91l89 -249l181 249h100z" />
    <glyph glyph-name="Y" unicode="Y" horiz-adv-x="539" 
d="M630 686l-312 -419l-57 -267h-85l58 272l-133 414h97l74 -262q15 -53 19 -77q21 32 53 77l188 262h98z" />
    <glyph glyph-name="Z" unicode="Z" horiz-adv-x="523" 
d="M561 621l-392 -486q-16 -20 -56 -66q24 1 59 1h272l-26 -70h-409v63l401 489q48 56 58 66q-19 -1 -71 -1h-256l28 69h392v-65z" />
    <glyph glyph-name="bracketleft" unicode="[" horiz-adv-x="285" 
d="M366 732l-13 -60h-93l-163 -768h93l-13 -60h-165l189 888h165z" />
    <glyph glyph-name="backslash" unicode="\" horiz-adv-x="416" 
d="M335 -23l-70 -16l-138 770l70 14z" />
    <glyph glyph-name="bracketright" unicode="]" horiz-adv-x="285" 
d="M296 732l-189 -888h-165l13 60h93l163 768h-93l13 60h165z" />
    <glyph glyph-name="asciicircum" unicode="^" horiz-adv-x="638" 
d="M581 275h-74l-105 349l-253 -349h-74l315 433h60z" />
    <glyph glyph-name="underscore" unicode="_" horiz-adv-x="508" 
d="M439 -72l-12 -59h-500l12 59h500z" />
    <glyph glyph-name="grave" unicode="`" horiz-adv-x="329" 
d="M373 612l-26 -47l-223 100l43 77z" />
    <glyph glyph-name="a" unicode="a" 
d="M500 471q-14 -50 -26 -104l-43 -206q-9 -44 -9 -68q0 -35 26 -64l-62 -48q-38 39 -38 91q0 12 1 18q-26 -46 -71 -72.5t-102 -26.5q-50 0 -84.5 40t-34.5 118q0 76 28 153t76 126q82 84 199 84q82 0 140 -41zM413 435q-23 14 -60 14q-85 0 -145 -72q-35 -42 -52.5 -105
t-17.5 -124q0 -48 18 -69t54 -21q39 0 80.5 33.5t68.5 86.5z" />
    <glyph glyph-name="b" unicode="b" horiz-adv-x="572" 
d="M522 345q0 -87 -31.5 -164.5t-84.5 -127.5q-68 -65 -161 -65q-120 0 -192 61q11 36 19 75l91 429q10 47 10 96q0 35 -6 56l83 32q7 -26 7 -57q0 -49 -14 -116l-14 -67q-4 -18 -24 -92q32 45 82.5 74.5t99.5 29.5q67 0 101 -42.5t34 -121.5zM436 344q0 94 -81 94
q-77 0 -164 -112l-51 -242q35 -30 105 -30q27 0 58.5 15t49.5 35q38 43 60.5 111.5t22.5 128.5z" />
    <glyph glyph-name="c" unicode="c" horiz-adv-x="450" 
d="M455 469l-37 -61q-42 35 -101 35q-63 0 -106 -56q-27 -36 -48.5 -104t-21.5 -124q0 -108 94 -108q62 0 119 54l32 -50q-79 -66 -166 -66q-163 0 -163 169q0 83 38 168.5t90 127.5q69 57 149 57q73 0 121 -42z" />
    <glyph glyph-name="d" unicode="d" horiz-adv-x="570" 
d="M578 717l-119 -556q-9 -44 -9 -68q0 -33 25 -64l-67 -50q-41 41 -38 90l1 17q-71 -93 -175 -93q-139 0 -139 167q0 76 29 149t82 127q34 35 82 53.5t91 18.5q73 0 110 -19l51 241zM435 422q-41 21 -96 21q-30 0 -63.5 -15.5t-56.5 -39.5q-33 -36 -56 -105.5t-23 -126.5
q0 -97 73 -97q102 0 171 119z" />
    <glyph glyph-name="e" unicode="e" horiz-adv-x="505" 
d="M473 383q0 -61 -46 -104q-61 -57 -215 -57q-18 0 -62 2q-7 -32 -7 -63q0 -50 28.5 -78.5t70.5 -28.5q46 0 78.5 12.5t67.5 44.5l33 -48q-39 -40 -84 -57t-118 -17q-71 0 -117 48.5t-46 131.5q0 75 28.5 150t81.5 123q74 70 164 70q69 0 106 -34.5t37 -94.5zM394 381
q0 31 -18.5 50t-57.5 19q-49 0 -92.5 -45.5t-62.5 -121.5q14 -1 51 -1q117 0 155 38q25 25 25 61z" />
    <glyph glyph-name="f" unicode="f" horiz-adv-x="286" 
d="M428 699l-29 -59q-34 23 -74 23q-33 0 -56 -23t-30 -65l-14 -77h138l-35 -59h-114l-90 -453q-25 -128 -77 -194l-64 35q45 62 65 166l87 446h-51l11 59h51l13 67q19 97 76 134q38 25 95 25q61 0 98 -25z" />
    <glyph glyph-name="g" unicode="g" horiz-adv-x="570" 
d="M531 469q-15 -39 -29 -107l-47 -225q-5 -21 -14.5 -73t-13.5 -67q-27 -109 -87 -155t-171 -46q-86 0 -175 45l29 63q73 -42 153 -42q78 0 116 26.5t55 97.5l21 91q-37 -48 -77.5 -67t-97.5 -19q-63 0 -99.5 44t-36.5 124q0 79 33 156.5t83 122.5q83 75 192 75
q55 0 91.5 -10t74.5 -34zM441 429q-31 15 -83 15q-75 0 -129 -51q-35 -32 -61.5 -104t-26.5 -128q0 -103 81 -103q95 0 166 120z" />
    <glyph glyph-name="h" unicode="h" horiz-adv-x="567" 
d="M506 416q0 -22 -8 -59l-76 -357h-77l71 336q8 38 8 51q0 26 -14.5 40t-39.5 14q-37 0 -86.5 -31.5t-91.5 -83.5l-69 -326h-78l117 550q21 99 5 155l83 32q18 -61 -10 -188l-11 -52q-8 -37 -25 -93q41 53 94.5 79t102.5 26q47 0 76 -27t29 -66z" />
    <glyph glyph-name="i" unicode="i" horiz-adv-x="273" 
d="M236 509l-108 -509h-83l106 496zM287 652q0 -26 -17.5 -43.5t-43.5 -17.5q-25 0 -43 17.5t-18 42.5q0 26 18 44t43 18q26 0 43.5 -17.5t17.5 -43.5z" />
    <glyph glyph-name="j" unicode="j" horiz-adv-x="269" 
d="M233 510l-106 -497q-20 -92 -56 -138.5t-105 -72.5l-28 52q51 22 72.5 54t38.5 109l101 477zM285 661q-1 -26 -18.5 -44t-42.5 -18q-26 0 -44 17.5t-18 42.5q1 26 19 44.5t43 18.5t43 -18t18 -43z" />
    <glyph glyph-name="k" unicode="k" horiz-adv-x="471" 
d="M250 737q7 -25 7 -59q0 -50 -12 -107l-122 -571h-78l118 554q11 50 11 96q0 35 -7 55zM499 474l-222 -193l169 -265l-77 -31l-181 303l256 231z" />
    <glyph glyph-name="l" unicode="l" horiz-adv-x="269" 
d="M250 737q7 -21 7 -57q0 -54 -15 -125l-95 -445q-5 -23 -5 -36q0 -24 21 -24q14 0 19 2l5 -51q-26 -11 -61 -11q-66 0 -66 59q0 16 5 43l98 463q11 50 11 93q0 31 -7 57z" />
    <glyph glyph-name="m" unicode="m" horiz-adv-x="812" 
d="M751 414q0 -18 -8 -58l-76 -356h-80l74 348q6 25 6 48q0 44 -49 44q-29 0 -73 -32t-84 -81l-70 -327h-79l72 340q10 44 10 58q0 42 -40 42q-30 0 -76.5 -31t-88.5 -84l-69 -325h-75l76 357q11 55 11 76q0 22 -7 46l73 34q12 -27 12 -58q0 -22 -7 -52q91 106 184 106
q85 0 85 -105q93 107 187 107q43 0 67.5 -29t24.5 -68z" />
    <glyph glyph-name="n" unicode="n" horiz-adv-x="556" 
d="M495 410q0 -16 -3 -32l-81 -378h-79l72 337q8 35 8 54q0 50 -48 50q-34 0 -80.5 -28.5t-93.5 -87.5l-69 -325h-76l76 356q11 55 11 76q0 23 -7 47l73 34q12 -34 12 -60q0 -22 -7 -50q39 52 91 79t102 27q46 0 72.5 -26.5t26.5 -72.5z" />
    <glyph glyph-name="o" unicode="o" 
d="M497 332q0 -147 -78 -246t-199 -99q-81 0 -125 47.5t-44 132.5q0 148 79 247t198 99q84 0 126.5 -48.5t42.5 -132.5zM411 341q0 56 -27 82t-70 26q-82 0 -129.5 -81t-47.5 -206q0 -110 98 -110q83 0 129.5 84t46.5 205z" />
    <glyph glyph-name="p" unicode="p" horiz-adv-x="563" 
d="M514 348q0 -68 -24 -145.5t-63 -124.5q-35 -43 -84.5 -66.5t-99.5 -23.5q-71 0 -118 25l-44 -206l-81 -15l121 565q11 55 11 76q0 20 -8 46l73 34q13 -29 13 -60q0 -16 -5 -46q38 50 87 75.5t94 25.5q63 0 95.5 -42.5t32.5 -117.5zM429 343q0 51 -17.5 73t-55.5 22
t-82 -29t-83 -81l-52 -245q36 -30 103 -30q34 0 69 19t54 47q27 41 45.5 105.5t18.5 118.5z" />
    <glyph glyph-name="q" unicode="q" horiz-adv-x="565" 
d="M527 469q-15 -39 -29 -107l-117 -549l-78 -16l61 280q-37 -48 -77.5 -67t-97.5 -19q-63 0 -97.5 44t-34.5 124t31.5 157t80.5 122q82 75 192 75q55 0 91.5 -10t74.5 -34zM437 432q-31 15 -83 15q-72 0 -129 -54q-34 -32 -59 -103.5t-25 -128.5q0 -54 19 -78.5t58 -24.5
q95 0 166 120z" />
    <glyph glyph-name="r" unicode="r" horiz-adv-x="363" 
d="M398 506l-34 -85q-12 4 -31 4q-71 0 -146 -113l-66 -312h-76l72 338q13 61 13 93q0 26 -7 48l73 34q12 -30 12 -56q0 -20 -8 -63q35 53 80 85t81 32q20 0 37 -5z" />
    <glyph glyph-name="s" unicode="s" horiz-adv-x="467" 
d="M432 480l-32 -60q-67 36 -117 36t-81.5 -20t-31.5 -54q0 -26 11.5 -41.5t42.5 -28.5l63 -27q57 -24 81 -54t24 -72q0 -80 -60.5 -126.5t-156.5 -46.5q-104 0 -172 48l32 60q68 -47 148 -47q53 0 87 23t34 61q0 31 -13.5 49.5t-49.5 34.5l-59 26q-52 23 -74.5 51t-22.5 71
q0 68 56.5 111.5t146.5 43.5q85 0 144 -38z" />
    <glyph glyph-name="t" unicode="t" horiz-adv-x="306" 
d="M353 498l-31 -59h-108l-62 -292q-7 -31 -7 -54q0 -27 11.5 -38t38.5 -11q29 0 52 10v-50q-43 -20 -92 -20q-88 0 -88 81q0 31 8 73l63 301h-65l11 59h66q18 73 35 126l85 18q-27 -76 -41 -144h124z" />
    <glyph glyph-name="u" unicode="u" horiz-adv-x="557" 
d="M520 506l-75 -353q-10 -50 -10 -66q0 -27 23 -58l-61 -50q-38 36 -38 90q0 13 1 20q-89 -106 -190 -106q-105 0 -105 100q0 35 8 73l72 338l80 15l-70 -335q-9 -47 -9 -65q0 -33 11 -46t38 -13q40 0 90 33t88 94l67 316z" />
    <glyph glyph-name="v" unicode="v" horiz-adv-x="461" 
d="M513 498l-294 -503h-77l-73 499l79 17l43 -343q6 -48 6 -85h2q16 38 42 84l184 331h88z" />
    <glyph glyph-name="w" unicode="w" horiz-adv-x="684" 
d="M726 498l-248 -502h-74l-30 405h-2q-9 -27 -21 -51l-176 -354h-73l-32 498l79 17l10 -329v-36.5v-32.5v-14h3q18 42 33 72l159 327h84l17 -331q0 -12 1 -30t2 -30t1 -13h2q2 3 7.5 16t12.5 29.5t10 23.5l150 335h85z" />
    <glyph glyph-name="x" unicode="x" horiz-adv-x="411" 
d="M453 498l-196 -223l132 -275h-92l-90 215l-179 -215h-95l245 276l-107 222h94l64 -166l131 166h93z" />
    <glyph glyph-name="y" unicode="y" horiz-adv-x="461" 
d="M502 498l-230 -422q-9 -16 -32.5 -60.5t-33 -60.5t-27 -44t-31.5 -44.5t-30 -28.5q-40 -32 -97 -43l-18 53q42 4 88 46q34 31 64 106l-32 -4q2 63 -12 179l-41 317l82 17l34 -319q6 -66 3 -124h2l54 105l167 327h90z" />
    <glyph glyph-name="z" unicode="z" horiz-adv-x="412" 
d="M419 436l-348 -376h276l-36 -60h-337v60l348 376h-234v62h331v-62z" />
    <glyph glyph-name="braceleft" unicode="{" horiz-adv-x="331" 
d="M412 732l-13 -60h-54q-50 0 -66 -79l-37 -176q-9 -41 -33 -71.5t-43.5 -41.5t-36.5 -15l-1 -2q22 -3 43 -24t21 -65q0 -15 -5 -40l-37 -175q-5 -22 -5 -37q0 -42 37 -42h54l-13 -60h-70q-34 0 -58 24.5t-24 67.5q0 21 41 208q4 16 4 32q0 38 -19 60t-47 22l13 60
q33 0 66 31.5t44 81.5l37 176q12 57 52.5 91t79.5 34h70z" />
    <glyph glyph-name="bar" unicode="|" horiz-adv-x="256" 
d="M272 756l-205 -964h-66l205 964h66z" />
    <glyph glyph-name="braceright" unicode="}" horiz-adv-x="331" 
d="M304 318l-13 -60q-34 0 -66.5 -31.5t-43.5 -82.5l-37 -175q-12 -57 -51.5 -91t-80.5 -34h-70l13 60h54q50 0 66 79l37 175q14 64 49.5 94.5t63.5 34.5l1 2q-22 6 -42.5 28.5t-20.5 64.5q0 18 4 35l37 176q5 22 5 38q0 41 -37 41h-54l13 60h70q32 0 56.5 -25t24.5 -68
q0 -15 -3 -32l-38 -179q-3 -15 -3 -28q0 -37 19.5 -59.5t46.5 -22.5z" />
    <glyph glyph-name="asciitilde" unicode="~" horiz-adv-x="609" 
d="M544 324q-28 -29 -43 -43.5t-44 -29.5t-58 -15q-35 0 -95 30q-6 3 -24.5 12.5t-27 13.5t-24.5 8t-31 4q-53 0 -99 -70l-23 48q26 28 42 43t44.5 30t57.5 15q37 0 95 -30q6 -3 24.5 -12.5t27 -13.5t24.5 -8t31 -4q52 0 100 70z" />
    <glyph glyph-name="uni00A0" unicode="&#xa0;" horiz-adv-x="225" 
 />
    <glyph glyph-name="exclamdown" unicode="&#xa1;" horiz-adv-x="295" 
d="M192 295l-85 -488l-101 -13l126 501h60zM252 438q0 -26 -18 -43.5t-43 -17.5t-43 17.5t-18 42.5q0 26 18 44.5t43 18.5t43 -18t18 -44z" />
    <glyph glyph-name="cent" unicode="&#xa2;" horiz-adv-x="454" 
d="M458 457l-54 -54q-32 32 -58 37l-82 -386q48 10 90 51l32 -50q-67 -57 -136 -64l-16 -76h-55l16 75q-86 8 -118 74q-21 44 -21 96q0 31 10 81q30 141 121 215q54 45 118 53l17 77h55l-17 -77q53 -7 98 -52zM291 440q-49 -13 -80 -53q-39 -53 -62 -163q-8 -40 -8 -68
q0 -88 67 -103z" />
    <glyph glyph-name="sterling" unicode="&#xa3;" horiz-adv-x="551" 
d="M628 658l-61 -57q-39 47 -104 47q-70 0 -108 -44.5t-57 -129.5l-17 -78h162l-14 -66h-162l-53 -252h246l-17 -78h-438l17 78h108l53 252h-96l14 66h96l17 80q26 124 97.5 184t168.5 60q99 0 148 -62z" />
    <glyph glyph-name="currency" unicode="&#xa4;" horiz-adv-x="457" 
d="M434 455l-55 -63q20 -18 20 -71q0 -47 -17.5 -96.5t-50.5 -75.5l31 -64l-67 -38l-28 63q-26 -11 -66 -11q-41 0 -66 11l-53 -66l-59 46l59 64q-16 22 -16 65q0 49 20.5 100t53.5 78l-31 61l71 38l25 -63q27 7 61 7q37 0 58 -8l50 65zM324 261q7 35 7 53q0 72 -76 72
q-47 0 -75 -29.5t-39 -77.5q-6 -29 -6 -51q0 -74 76 -74q91 0 113 107z" />
    <glyph glyph-name="yen" unicode="&#xa5;" horiz-adv-x="539" 
d="M630 686l-232 -312h149l-13 -59h-180l-36 -48l-10 -48h206l-13 -59h-206l-34 -160h-85l34 160h-194l13 59h194l11 53l-14 43h-171l13 59h139l-100 312h93l74 -262q14 -48 19 -77q21 32 53 77l188 262h102z" />
    <glyph glyph-name="brokenbar" unicode="&#xa6;" horiz-adv-x="255" 
d="M271 756l-87 -410h-66l87 410h66zM154 202l-87 -410h-66l87 410h66z" />
    <glyph glyph-name="section" unicode="&#xa7;" horiz-adv-x="527" 
d="M539 632l-77 -38q-16 61 -101 61q-51 0 -87.5 -28.5t-36.5 -70.5t42 -66l79 -45q57 -33 86.5 -63.5t29.5 -76.5q0 -50 -32 -91t-83 -67q48 -36 48 -93q0 -80 -63.5 -139t-179.5 -59q-68 0 -114 31t-57 92l75 33q10 -84 117 -84q63 0 97 30t34 77q0 9 -2.5 17.5t-8 16
t-10.5 13t-14.5 12t-14 9.5t-16 10t-14.5 8l-105 62q-54 32 -54 98q0 107 134 167q-57 37 -57 92q0 81 66 134t154 53q61 0 107 -24t58 -71zM395 285q0 49 -79 93l-52 29q-107 -34 -107 -105q0 -14 5 -25t16 -21t19.5 -15.5t25.5 -14.5l80 -45q36 14 64 42.5t28 61.5z" />
    <glyph glyph-name="dieresis" unicode="&#xa8;" horiz-adv-x="422" 
d="M448 621q0 -22 -15 -37.5t-36 -15.5q-22 0 -37.5 15.5t-15.5 37.5q0 21 15 36t37 15q21 0 36.5 -15t15.5 -36zM241 621q0 -22 -14.5 -37.5t-36.5 -15.5t-37 15.5t-15 37.5q0 21 15 36t36 15q22 0 37 -15t15 -36z" />
    <glyph glyph-name="copyright" unicode="&#xa9;" horiz-adv-x="890" 
d="M843 354q0 -157 -109.5 -264.5t-262.5 -107.5q-154 0 -263 107.5t-109 264.5t109 264.5t263 107.5q153 0 262.5 -107.5t109.5 -264.5zM777 354q0 134 -89 226t-217 92q-129 0 -217.5 -91.5t-88.5 -226.5t88.5 -226.5t217.5 -91.5q128 0 217 92t89 226zM597 173
q-49 -35 -111 -35q-80 0 -129 62q-45 59 -45 148q0 69 27 123q23 45 62 70t87 25q62 0 101 -33l-28 -38q-32 24 -73 24q-62 0 -92 -59q-20 -40 -20 -111q0 -61 15 -97q29 -67 102 -67q44 0 76 25z" />
    <glyph glyph-name="ordfeminine" unicode="&#xaa;" horiz-adv-x="438" 
d="M457 732q-13 -44 -20 -81l-33 -158q-6 -29 -6 -45q0 -26 22 -50l-52 -40q-32 32 -32 70v4q-45 -66 -126 -66q-38 0 -66 31t-28 91q0 58 21 116.5t58 95.5q62 64 153 64q65 0 109 -32zM384 701q-13 8 -41 8q-64 0 -108 -52q-51 -62 -51 -169q0 -64 52 -64q29 0 59 25
t50 64zM395 294l-12 -54h-313l12 54h313z" />
    <glyph glyph-name="guillemotleft" unicode="&#xab;" horiz-adv-x="521" 
d="M506 414l-173 -181l88 -174l-60 -33l-108 218l199 210zM320 414l-173 -181l88 -174l-60 -33l-108 218l199 210z" />
    <glyph glyph-name="logicalnot" unicode="&#xac;" horiz-adv-x="499" 
d="M455 288l-45 -211h-71l30 140h-318l15 71h389z" />
    <glyph glyph-name="uni00AD" unicode="&#xad;" horiz-adv-x="341" 
d="M286 305l-16 -76h-191l16 76h191z" />
    <glyph glyph-name="registered" unicode="&#xae;" horiz-adv-x="890" 
d="M843 354q0 -157 -109.5 -264.5t-262.5 -107.5q-154 0 -263 107.5t-109 264.5t109 264.5t263 107.5q153 0 262.5 -107.5t109.5 -264.5zM777 354q0 134 -89 226t-217 92q-129 0 -217.5 -91.5t-88.5 -226.5t88.5 -226.5t217.5 -91.5q128 0 217 92t89 226zM627 150h-70
q-9 17 -34 61q-43 71 -72 103q-16 18 -37 19v-183h-58v413h116q66 0 98 -30q37 -33 37 -85q0 -50 -30.5 -82.5t-80.5 -31.5q21 -17 36 -38q11 -14 35 -51zM546 447q0 45 -38 61q-19 8 -51 8h-43v-144h40q50 0 72 19q20 20 20 56z" />
    <glyph glyph-name="macron" unicode="&#xaf;" horiz-adv-x="324" 
d="M406 737l-12 -54h-274l12 54h274z" />
    <glyph glyph-name="degree" unicode="&#xb0;" horiz-adv-x="412" 
d="M366 515q-14 -73 -64 -119.5t-130 -46.5q-63 0 -97.5 33.5t-34.5 92.5q0 19 5 46q15 79 66.5 124.5t126.5 45.5q64 0 98.5 -32.5t34.5 -93.5q0 -23 -5 -50zM298 511q12 62 -3.5 93.5t-68.5 31.5q-91 0 -112 -107q-5 -23 -5 -49q0 -40 18.5 -58t58.5 -18q91 0 112 107z
" />
    <glyph glyph-name="plusminus" unicode="&#xb1;" horiz-adv-x="478" 
d="M452 365l-16 -71h-150l-29 -140h-71l29 140h-150l16 71h150l28 133h71l-28 -133h150zM395 107l-15 -71h-367l15 71h367z" />
    <glyph glyph-name="twosuperior" unicode="&#xb2;" horiz-adv-x="346" 
d="M371 568q0 -36 -24.5 -75t-48 -62t-60.5 -54q-30 -25 -79 -62q3 0 12 0.5t12 0.5h140l-26 -56h-247l8 40q51 30 111 83q32 28 52.5 47.5t46 56.5t25.5 65q0 22 -13.5 35.5t-36.5 13.5q-13 0 -28 -4.5t-22.5 -7.5t-28.5 -14.5t-23 -12.5l-26 35q89 62 156 62
q44 0 72 -25.5t28 -65.5z" />
    <glyph glyph-name="threesuperior" unicode="&#xb3;" horiz-adv-x="356" 
d="M381 577q0 -35 -20.5 -62.5t-53.5 -42.5q47 -23 47 -70q0 -46 -38 -84.5t-87 -57.5q-53 -20 -122 -20q-19 0 -36 3l-6 51q30 -4 44 -4q81 0 131 36q42 30 42 75q0 33 -32 42q-19 5 -69 5h-16l11 51h16q61 0 77 6t27.5 22.5t11.5 33.5q0 18 -14.5 29.5t-38.5 11.5
q-44 0 -104 -37l-26 37q77 57 152 57q47 0 75.5 -22.5t28.5 -59.5z" />
    <glyph glyph-name="acute" unicode="&#xb4;" horiz-adv-x="350" 
d="M387 665l-225 -100l-26 47l208 130z" />
    <glyph glyph-name="mu" unicode="&#xb5;" horiz-adv-x="559" 
d="M522 506l-75 -353q-11 -53 -11 -73q0 -26 19 -48l-61 -53q-37 36 -37 80q-73 -76 -174 -76q-45 0 -63 19q-1 -6 -6 -28.5t-11 -50t-11.5 -54.5t-9.5 -45l-4 -17l-81 -15l148 702l83 16l-77 -359q-6 -29 -6 -45q0 -26 18 -39q22 -17 58 -17q37 0 77.5 25t68.5 65l75 353z
" />
    <glyph glyph-name="paragraph" unicode="&#xb6;" horiz-adv-x="603" 
d="M609 708l-178 -834h-72l164 768h-118l-164 -768h-72l94 442q-79 0 -126 41.5t-47 107.5q0 108 79 175.5t197 67.5h243z" />
    <glyph glyph-name="periodcentered" unicode="&#xb7;" horiz-adv-x="304" 
d="M226 279q0 -27 -19.5 -46.5t-46.5 -19.5t-46 19.5t-19 48.5q0 27 19 45.5t46 18.5t46 -19t20 -47z" />
    <glyph glyph-name="cedilla" unicode="&#xb8;" horiz-adv-x="250" 
d="M144 -92q0 -43 -36 -74t-82 -31q-39 0 -78 24l31 47q32 -16 58 -16q15 0 29 10t14 26q0 23 -32 23q-21 0 -39 -2l47 97l57 -7l-22 -47q53 -8 53 -50z" />
    <glyph glyph-name="onesuperior" unicode="&#xb9;" horiz-adv-x="324" 
d="M309 652l-72 -337h60l-12 -55h-190l12 55h62l54 256q-30 -17 -99 -43l-8 41l142 83h51z" />
    <glyph glyph-name="ordmasculine" unicode="&#xba;" horiz-adv-x="441" 
d="M461 625q0 -111 -59.5 -186.5t-151.5 -75.5q-62 0 -96 37t-34 102q0 113 60 187.5t151 74.5q65 0 97.5 -37t32.5 -102zM390 632q0 39 -20 58t-50 19q-60 0 -94.5 -59.5t-34.5 -150.5q0 -81 70 -81q60 0 94.5 62t34.5 152zM391 294l-12 -54h-313l12 54h313z" />
    <glyph glyph-name="guillemotright" unicode="&#xbb;" horiz-adv-x="522" 
d="M459 236l-199 -210l-54 40l173 181l-88 174l60 33zM273 236l-199 -210l-54 40l173 181l-88 174l60 33z" />
    <glyph glyph-name="onequarter" unicode="&#xbc;" horiz-adv-x="1016" 
d="M309 652l-72 -337h60l-12 -55h-190l12 55h62l54 256q-30 -17 -99 -43l-8 41l142 83h51zM936 763l-722 -917h-66l722 917h66zM988 125l-12 -54h-49q-1 -2 -1 -6v-6l-13 -60l-71 -18l16 77l4 13h-179l10 47l205 275h75q-163 -221 -203 -269l8 1h96v6q0 3 9 32l31 108l60 17
l-35 -163h49z" />
    <glyph glyph-name="onehalf" unicode="&#xbd;" horiz-adv-x="991" 
d="M309 652l-72 -337h60l-12 -55h-190l12 55h62l54 256q-30 -17 -99 -43l-8 41l142 83h51zM906 763l-722 -917h-66l722 917h66zM995 308q0 -36 -24 -75.5t-47.5 -62t-60.5 -53.5q-69 -57 -76 -62q3 0 10 0.5t11 0.5h140l-27 -56h-247l9 40q48 29 110 83q124 108 124 169
q0 22 -13.5 35.5t-36.5 13.5q-13 0 -28 -4.5t-22.5 -7.5t-28.5 -14.5t-23 -12.5l-25 35q89 62 156 62q44 0 71.5 -25.5t27.5 -65.5z" />
    <glyph glyph-name="threequarters" unicode="&#xbe;" horiz-adv-x="1048" 
d="M381 577q0 -35 -20.5 -62.5t-53.5 -42.5q47 -23 47 -70q0 -46 -38 -84.5t-87 -57.5q-53 -20 -122 -20q-19 0 -36 3l-6 51q30 -4 44 -4q81 0 131 36q42 30 42 75q0 33 -32 42q-19 5 -69 5h-16l11 51h16q61 0 77 6t27.5 22.5t11.5 33.5q0 18 -14.5 29.5t-38.5 11.5
q-44 0 -104 -37l-26 37q77 57 152 57q47 0 75.5 -22.5t28.5 -59.5zM948 763l-722 -917h-66l722 917h66zM1020 125l-12 -54h-49q-1 -2 -1 -6v-6l-13 -60l-71 -18l16 77l4 13h-179l10 47l205 275h75q-163 -221 -203 -269l8 1h96v6q0 3 9 32l31 108l60 17l-35 -163h49z" />
    <glyph glyph-name="questiondown" unicode="&#xbf;" horiz-adv-x="443" 
d="M318 -143q-91 -61 -181 -61q-73 0 -110 33t-37 91q0 90 125 173q55 37 76.5 77t21.5 99h67q2 -70 -23.5 -124.5t-91.5 -94.5q-93 -57 -93 -111q0 -37 21.5 -56t59.5 -19q64 0 139 46zM336 438q0 -26 -18 -43.5t-43 -17.5t-43 17.5t-18 42.5q0 26 18 44.5t43 18.5t43 -18
t18 -44z" />
    <glyph glyph-name="Agrave" unicode="&#xc0;" horiz-adv-x="573" 
d="M518 0h-89l-20 211h-256l-111 -211h-87l375 686h107zM402 278l-35 338q-35 -70 -43 -85l-135 -253h213zM461 772l-26 -47l-223 100l43 77z" />
    <glyph glyph-name="Aacute" unicode="&#xc1;" horiz-adv-x="573" 
d="M518 0h-89l-20 211h-256l-111 -211h-87l375 686h107zM402 278l-35 338q-35 -70 -43 -85l-135 -253h213zM553 825l-225 -100l-26 47l208 130z" />
    <glyph glyph-name="Acircumflex" unicode="&#xc2;" horiz-adv-x="573" 
d="M518 0h-89l-20 211h-256l-111 -211h-87l375 686h107zM402 278l-35 338q-35 -70 -43 -85l-135 -253h213zM552 765l-36 -44l-120 85l-154 -85l-31 44l197 135z" />
    <glyph glyph-name="Atilde" unicode="&#xc3;" horiz-adv-x="573" 
d="M518 0h-89l-20 211h-256l-111 -211h-87l375 686h107zM402 278l-35 338q-35 -70 -43 -85l-135 -253h213zM557 816q-34 -33 -63.5 -48t-71.5 -15q-31 0 -60.5 18.5t-58.5 18.5q-20 0 -35 -8t-42 -31l-19 45q34 33 63 48t71 15q31 0 60.5 -18.5t58.5 -18.5q34 0 78 39z" />
    <glyph glyph-name="Adieresis" unicode="&#xc4;" horiz-adv-x="573" 
d="M518 0h-89l-20 211h-256l-111 -211h-87l375 686h107zM402 278l-35 338q-35 -70 -43 -85l-135 -253h213zM337 781q0 -22 -14.5 -37.5t-36.5 -15.5t-37 15.5t-15 37.5q0 21 15 36t36 15q22 0 37 -15t15 -36zM544 781q0 -22 -14.5 -37.5t-36.5 -15.5t-37 15.5t-15 37.5
q0 21 15 36t36 15q22 0 37 -15t15 -36z" />
    <glyph glyph-name="Aring" unicode="&#xc5;" horiz-adv-x="573" 
d="M518 0h-89l-20 211h-256l-111 -211h-87l375 686h107zM402 278l-35 338q-35 -70 -43 -85l-135 -253h213zM501 819q0 -44 -31 -75t-74 -31t-74 31.5t-31 74.5t31.5 74.5t74.5 31.5t73.5 -31t30.5 -75zM455 819q0 24 -17 42t-40 18q-25 0 -43.5 -18t-18.5 -42t18.5 -42
t41.5 -18q24 0 41.5 18t17.5 42z" />
    <glyph glyph-name="AE" unicode="&#xc6;" horiz-adv-x="821" 
d="M875 686l-25 -68h-276l-47 -225h235l-15 -71h-235l-54 -251h302l-15 -71h-385l45 211h-226l-175 -211h-99l569 686h401zM486 598l-252 -320h185z" />
    <glyph glyph-name="Ccedilla" unicode="&#xc7;" horiz-adv-x="561" 
d="M603 638l-46 -51q-49 42 -121 42q-121 0 -196 -118q-37 -57 -59 -133.5t-22 -144.5q0 -83 41.5 -129t120.5 -46q71 0 143 44l32 -57q-108 -62 -203 -56l-17 1l-15 -32q53 -8 53 -50q0 -10 -3 -22q-7 -31 -39 -57t-77 -26q-38 0 -77 24l31 47q32 -16 58 -16q15 0 29 10
t14 26q0 23 -32 23q-19 0 -39 -2l41 85q-70 22 -108 84t-38 153q0 90 32.5 182.5t91.5 158.5q49 55 115 86t132 31q96 0 158 -57z" />
    <glyph glyph-name="Egrave" unicode="&#xc8;" horiz-adv-x="512" 
d="M566 686l-26 -68h-281l-47 -225h235l-16 -71h-235l-53 -251h302l-15 -71h-385l146 686h375zM485 772l-26 -47l-223 100l43 77z" />
    <glyph glyph-name="Eacute" unicode="&#xc9;" horiz-adv-x="512" 
d="M566 686l-26 -68h-281l-47 -225h235l-16 -71h-235l-53 -251h302l-15 -71h-385l146 686h375zM535 825l-225 -100l-26 47l208 130z" />
    <glyph glyph-name="Ecircumflex" unicode="&#xca;" horiz-adv-x="512" 
d="M566 686l-26 -68h-281l-47 -225h235l-16 -71h-235l-53 -251h302l-15 -71h-385l146 686h375zM553 765l-36 -44l-120 85l-154 -85l-31 44l197 135z" />
    <glyph glyph-name="Edieresis" unicode="&#xcb;" horiz-adv-x="512" 
d="M566 686l-26 -68h-281l-47 -225h235l-16 -71h-235l-53 -251h302l-15 -71h-385l146 686h375zM336 781q0 -22 -14.5 -37.5t-36.5 -15.5t-37 15.5t-15 37.5q0 21 15 36t36 15q22 0 37 -15t15 -36zM543 781q0 -22 -14.5 -37.5t-36.5 -15.5t-37 15.5t-15 37.5q0 21 15 36
t36 15q22 0 37 -15t15 -36z" />
    <glyph glyph-name="Igrave" unicode="&#xcc;" horiz-adv-x="270" 
d="M271 686l-146 -686h-80l146 686h80zM300 772l-26 -47l-223 100l43 77z" />
    <glyph glyph-name="Iacute" unicode="&#xcd;" horiz-adv-x="270" 
d="M271 686l-146 -686h-80l146 686h80zM419 825l-225 -100l-26 47l208 130z" />
    <glyph glyph-name="Icircumflex" unicode="&#xce;" horiz-adv-x="270" 
d="M271 686l-146 -686h-80l146 686h80zM404 765l-36 -44l-120 85l-154 -85l-31 44l197 135z" />
    <glyph glyph-name="Idieresis" unicode="&#xcf;" horiz-adv-x="270" 
d="M271 686l-146 -686h-80l146 686h80zM181 781q0 -22 -14.5 -37.5t-36.5 -15.5t-37 15.5t-15 37.5q0 21 15 36t36 15q22 0 37 -15t15 -36zM388 781q0 -22 -14.5 -37.5t-36.5 -15.5t-37 15.5t-15 37.5q0 21 15 36t36 15q22 0 37 -15t15 -36z" />
    <glyph glyph-name="Eth" unicode="&#xd0;" horiz-adv-x="624" 
d="M604 433q0 -89 -43 -193.5t-101 -156.5q-49 -44 -104 -63.5t-132 -19.5h-179l68 321h-84l23 59h74l65 306h147q77 0 119.5 -11t78.5 -42q68 -58 68 -200zM515 423q0 92 -27 134q-23 38 -55.5 50t-91.5 12h-82l-51 -239h159l-23 -59h-148l-54 -253h73q140 0 198 71
q48 59 75 140t27 144z" />
    <glyph glyph-name="Ntilde" unicode="&#xd1;" horiz-adv-x="646" 
d="M647 686l-146 -686h-86l-131 420q-36 113 -43 164l-4 -28q-4 -28 -11 -74t-15 -84l-81 -398h-85l146 686h95l135 -438q13 -43 33 -143q0 1 2 14t5.5 34t7.5 46t9.5 56t11.5 58l76 373h81zM605 819q-34 -33 -63.5 -48t-71.5 -15q-31 0 -60.5 18.5t-58.5 18.5q-20 0 -35 -8
t-42 -31l-19 45q34 33 63 48t71 15q31 0 60.5 -18.5t58.5 -18.5q34 0 78 39z" />
    <glyph glyph-name="Ograve" unicode="&#xd2;" horiz-adv-x="686" 
d="M654 466q0 -128 -43 -242t-122 -175q-44 -34 -90 -48t-108 -14q-105 0 -159.5 64.5t-54.5 178.5q0 109 38 213.5t97 164.5q46 47 99.5 68.5t127.5 21.5q102 0 158.5 -60.5t56.5 -171.5zM565 474q0 158 -140 158q-105 0 -164 -80q-43 -58 -68.5 -148t-25.5 -193
q0 -161 142 -161q79 0 140 59q49 49 82.5 159t33.5 206zM527 772l-26 -47l-223 100l43 77z" />
    <glyph glyph-name="Oacute" unicode="&#xd3;" horiz-adv-x="686" 
d="M654 466q0 -128 -43 -242t-122 -175q-44 -34 -90 -48t-108 -14q-105 0 -159.5 64.5t-54.5 178.5q0 109 38 213.5t97 164.5q46 47 99.5 68.5t127.5 21.5q102 0 158.5 -60.5t56.5 -171.5zM565 474q0 158 -140 158q-105 0 -164 -80q-43 -58 -68.5 -148t-25.5 -193
q0 -161 142 -161q79 0 140 59q49 49 82.5 159t33.5 206zM599 825l-225 -100l-26 47l208 130z" />
    <glyph glyph-name="Ocircumflex" unicode="&#xd4;" horiz-adv-x="686" 
d="M654 466q0 -128 -43 -242t-122 -175q-44 -34 -90 -48t-108 -14q-105 0 -159.5 64.5t-54.5 178.5q0 109 38 213.5t97 164.5q46 47 99.5 68.5t127.5 21.5q102 0 158.5 -60.5t56.5 -171.5zM565 474q0 158 -140 158q-105 0 -164 -80q-43 -58 -68.5 -148t-25.5 -193
q0 -161 142 -161q79 0 140 59q49 49 82.5 159t33.5 206zM604 765l-36 -44l-120 85l-154 -85l-31 44l197 135z" />
    <glyph glyph-name="Otilde" unicode="&#xd5;" horiz-adv-x="686" 
d="M654 466q0 -128 -43 -242t-122 -175q-44 -34 -90 -48t-108 -14q-105 0 -159.5 64.5t-54.5 178.5q0 109 38 213.5t97 164.5q46 47 99.5 68.5t127.5 21.5q102 0 158.5 -60.5t56.5 -171.5zM565 474q0 158 -140 158q-105 0 -164 -80q-43 -58 -68.5 -148t-25.5 -193
q0 -161 142 -161q79 0 140 59q49 49 82.5 159t33.5 206zM622 816q-34 -33 -63.5 -48t-71.5 -15q-31 0 -60.5 18.5t-58.5 18.5q-20 0 -35 -8t-42 -31l-19 45q34 33 63 48t71 15q31 0 60.5 -18.5t58.5 -18.5q34 0 78 39z" />
    <glyph glyph-name="Odieresis" unicode="&#xd6;" horiz-adv-x="686" 
d="M654 466q0 -128 -43 -242t-122 -175q-44 -34 -90 -48t-108 -14q-105 0 -159.5 64.5t-54.5 178.5q0 109 38 213.5t97 164.5q46 47 99.5 68.5t127.5 21.5q102 0 158.5 -60.5t56.5 -171.5zM565 474q0 158 -140 158q-105 0 -164 -80q-43 -58 -68.5 -148t-25.5 -193
q0 -161 142 -161q79 0 140 59q49 49 82.5 159t33.5 206zM400 784q0 -22 -14.5 -37.5t-36.5 -15.5t-37 15.5t-15 37.5q0 21 15 36t36 15q22 0 37 -15t15 -36zM607 784q0 -22 -14.5 -37.5t-36.5 -15.5t-37 15.5t-15 37.5q0 21 15 36t36 15q22 0 37 -15t15 -36z" />
    <glyph glyph-name="multiply" unicode="&#xd7;" horiz-adv-x="503" 
d="M458 376l-153 -126l99 -126l-62 -51l-99 126l-153 -126l-40 51l153 126l-99 126l62 51l99 -126l153 126z" />
    <glyph glyph-name="Oslash" unicode="&#xd8;" horiz-adv-x="686" 
d="M717 726l-97 -119q34 -57 34 -141q0 -128 -43 -242t-122 -175q-44 -34 -90 -48t-108 -14q-85 0 -139 45l-92 -113l-45 32l100 123q-38 61 -38 156q0 109 38 213.5t97 164.5q46 47 99.5 68.5t127.5 21.5q89 0 144 -47l87 107zM533 589q-36 44 -108 44q-104 0 -164 -81
q-43 -58 -69 -148t-26 -193q0 -32 7 -65zM566 474q0 32 -6 58l-360 -440q37 -43 109 -43q78 0 140 60q49 49 83 159.5t34 205.5z" />
    <glyph glyph-name="Ugrave" unicode="&#xd9;" horiz-adv-x="635" 
d="M641 686l-101 -477q-16 -76 -33 -110t-53 -61q-69 -50 -183 -50q-88 0 -140 36.5t-52 110.5q0 47 9 91l98 460h81l-93 -439q-15 -71 -15 -105q0 -40 31.5 -62t89.5 -22q89 0 130 43q20 21 30 44.5t21 72.5l99 468h81zM507 772l-26 -47l-223 100l43 77z" />
    <glyph glyph-name="Uacute" unicode="&#xda;" horiz-adv-x="635" 
d="M641 686l-101 -477q-16 -76 -33 -110t-53 -61q-69 -50 -183 -50q-88 0 -140 36.5t-52 110.5q0 47 9 91l98 460h81l-93 -439q-15 -71 -15 -105q0 -40 31.5 -62t89.5 -22q89 0 130 43q20 21 30 44.5t21 72.5l99 468h81zM583 825l-225 -100l-26 47l208 130z" />
    <glyph glyph-name="Ucircumflex" unicode="&#xdb;" horiz-adv-x="635" 
d="M641 686l-101 -477q-16 -76 -33 -110t-53 -61q-69 -50 -183 -50q-88 0 -140 36.5t-52 110.5q0 47 9 91l98 460h81l-93 -439q-15 -71 -15 -105q0 -40 31.5 -62t89.5 -22q89 0 130 43q20 21 30 44.5t21 72.5l99 468h81zM589 765l-36 -44l-120 85l-154 -85l-31 44l197 135z
" />
    <glyph glyph-name="Udieresis" unicode="&#xdc;" horiz-adv-x="635" 
d="M641 686l-101 -477q-16 -76 -33 -110t-53 -61q-69 -50 -183 -50q-88 0 -140 36.5t-52 110.5q0 47 9 91l98 460h81l-93 -439q-15 -71 -15 -105q0 -40 31.5 -62t89.5 -22q89 0 130 43q20 21 30 44.5t21 72.5l99 468h81zM376 781q0 -22 -14.5 -37.5t-36.5 -15.5t-37 15.5
t-15 37.5q0 21 15 36t36 15q22 0 37 -15t15 -36zM583 781q0 -22 -14.5 -37.5t-36.5 -15.5t-37 15.5t-15 37.5q0 21 15 36t36 15q22 0 37 -15t15 -36z" />
    <glyph glyph-name="Yacute" unicode="&#xdd;" horiz-adv-x="539" 
d="M630 686l-312 -419l-57 -267h-85l58 272l-133 414h97l74 -262q15 -53 19 -77q21 32 53 77l188 262h98zM520 825l-225 -100l-26 47l208 130z" />
    <glyph glyph-name="Thorn" unicode="&#xde;" horiz-adv-x="557" 
d="M555 417q0 -128 -96 -204q-62 -50 -179 -50h-120l-35 -163h-80l146 686h80l-23 -110h98q110 0 159.5 -44.5t49.5 -114.5zM466 398q0 56 -33.5 82.5t-112.5 26.5h-87l-59 -277h115q75 0 115 37q62 56 62 131z" />
    <glyph glyph-name="germandbls" unicode="&#xdf;" horiz-adv-x="576" 
d="M528 580q0 -51 -29.5 -86.5t-65.5 -49t-65.5 -26t-29.5 -21.5t12.5 -18t31.5 -16.5t41.5 -21.5t41.5 -31t31.5 -45.5t12.5 -64.5q0 -85 -64.5 -148.5t-170.5 -63.5q-51 0 -88 17l24 55q33 -15 65 -15q65 0 109.5 36.5t44.5 98.5q0 38 -17 64t-40.5 40t-47.5 26t-41 30.5
t-17 44.5q0 25 18.5 42.5t45 29t52.5 25t44.5 37.5t18.5 59q0 32 -23 51.5t-62 19.5q-107 0 -137 -152l-102 -511q-25 -130 -76 -194l-65 35q41 58 64 166l91 446h-74l13 59h72l4 17q24 103 80.5 148t147.5 45q68 0 109 -36t41 -92z" />
    <glyph glyph-name="agrave" unicode="&#xe0;" 
d="M500 471q-14 -50 -26 -104l-43 -206q-9 -44 -9 -68q0 -35 26 -64l-62 -48q-38 39 -38 91q0 12 1 18q-26 -46 -71 -72.5t-102 -26.5q-50 0 -84.5 40t-34.5 118q0 76 28 153t76 126q82 84 199 84q82 0 140 -41zM413 435q-23 14 -60 14q-85 0 -145 -72q-35 -42 -52.5 -105
t-17.5 -124q0 -48 18 -69t54 -21q39 0 80.5 33.5t68.5 86.5zM468 612l-26 -47l-223 100l43 77z" />
    <glyph glyph-name="aacute" unicode="&#xe1;" 
d="M500 471q-14 -50 -26 -104l-43 -206q-9 -44 -9 -68q0 -35 26 -64l-62 -48q-38 39 -38 91q0 12 1 18q-26 -46 -71 -72.5t-102 -26.5q-50 0 -84.5 40t-34.5 118q0 76 28 153t76 126q82 84 199 84q82 0 140 -41zM413 435q-23 14 -60 14q-85 0 -145 -72q-35 -42 -52.5 -105
t-17.5 -124q0 -48 18 -69t54 -21q39 0 80.5 33.5t68.5 86.5zM539 665l-225 -100l-26 47l208 130z" />
    <glyph glyph-name="acircumflex" unicode="&#xe2;" 
d="M500 471q-14 -50 -26 -104l-43 -206q-9 -44 -9 -68q0 -35 26 -64l-62 -48q-38 39 -38 91q0 12 1 18q-26 -46 -71 -72.5t-102 -26.5q-50 0 -84.5 40t-34.5 118q0 76 28 153t76 126q82 84 199 84q82 0 140 -41zM413 435q-23 14 -60 14q-85 0 -145 -72q-35 -42 -52.5 -105
t-17.5 -124q0 -48 18 -69t54 -21q39 0 80.5 33.5t68.5 86.5zM543 605l-36 -44l-120 85l-154 -85l-31 44l197 135z" />
    <glyph glyph-name="atilde" unicode="&#xe3;" 
d="M500 471q-14 -50 -26 -104l-43 -206q-9 -44 -9 -68q0 -35 26 -64l-62 -48q-38 39 -38 91q0 12 1 18q-26 -46 -71 -72.5t-102 -26.5q-50 0 -84.5 40t-34.5 118q0 76 28 153t76 126q82 84 199 84q82 0 140 -41zM413 435q-23 14 -60 14q-85 0 -145 -72q-35 -42 -52.5 -105
t-17.5 -124q0 -48 18 -69t54 -21q39 0 80.5 33.5t68.5 86.5zM548 656q-34 -33 -63.5 -48t-71.5 -15q-31 0 -60.5 18.5t-58.5 18.5q-33 0 -77 -39l-19 45q34 33 63 48t71 15q31 0 60.5 -18.5t58.5 -18.5q34 0 78 39z" />
    <glyph glyph-name="adieresis" unicode="&#xe4;" 
d="M500 471q-14 -50 -26 -104l-43 -206q-9 -44 -9 -68q0 -35 26 -64l-62 -48q-38 39 -38 91q0 12 1 18q-26 -46 -71 -72.5t-102 -26.5q-50 0 -84.5 40t-34.5 118q0 76 28 153t76 126q82 84 199 84q82 0 140 -41zM413 435q-23 14 -60 14q-85 0 -145 -72q-35 -42 -52.5 -105
t-17.5 -124q0 -48 18 -69t54 -21q39 0 80.5 33.5t68.5 86.5zM315 621q0 -22 -14.5 -37.5t-36.5 -15.5t-37 15.5t-15 37.5q0 21 15 36t36 15q22 0 37 -15t15 -36zM522 621q0 -22 -14.5 -37.5t-36.5 -15.5t-37 15.5t-15 37.5q0 21 15 36t36 15q22 0 37 -15t15 -36z" />
    <glyph glyph-name="aring" unicode="&#xe5;" 
d="M500 471q-14 -50 -26 -104l-43 -206q-9 -44 -9 -68q0 -35 26 -64l-62 -48q-38 39 -38 91q0 12 1 18q-26 -46 -71 -72.5t-102 -26.5q-50 0 -84.5 40t-34.5 118q0 76 28 153t76 126q82 84 199 84q82 0 140 -41zM413 435q-23 14 -60 14q-85 0 -145 -72q-35 -42 -52.5 -105
t-17.5 -124q0 -48 18 -69t54 -21q39 0 80.5 33.5t68.5 86.5zM464 659q0 -44 -31 -75t-74 -31t-74 31.5t-31 74.5t31.5 74.5t74.5 31.5t73.5 -31t30.5 -75zM418 659q0 24 -17 42t-40 18q-25 0 -43.5 -18t-18.5 -42t18.5 -42t41.5 -18q24 0 41.5 18t17.5 42z" />
    <glyph glyph-name="ae" unicode="&#xe6;" horiz-adv-x="782" 
d="M750 386q0 -61 -47 -105q-64 -59 -215 -59q-18 0 -62 2q-7 -32 -7 -63q0 -50 28.5 -78.5t70.5 -28.5q47 0 80 12t68 43l31 -47q-36 -38 -82.5 -55.5t-119.5 -17.5q-87 0 -137 81q-69 -83 -171 -83q-71 0 -106 35.5t-35 90.5q0 87 85 140q62 38 184 38q42 0 54 -2l13 53
q7 27 7 53q0 24 -18.5 38t-50.5 14q-84 0 -170 -59l-27 56q114 67 222 67q87 0 109 -71q69 72 160 72q66 0 101 -33.5t35 -92.5zM357 234q-1 0 -21 1t-36 1q-77 0 -110 -19q-63 -35 -63 -90q0 -38 21 -60t55 -22q60 0 104 52q27 32 50 137zM670 381q0 31 -18.5 50t-57.5 19
q-49 0 -92.5 -45.5t-62.5 -121.5q14 -1 51 -1q117 0 155 38q25 25 25 61z" />
    <glyph glyph-name="ccedilla" unicode="&#xe7;" horiz-adv-x="450" 
d="M455 469l-37 -61q-42 35 -101 35q-63 0 -106 -56q-27 -36 -48.5 -104t-21.5 -124q0 -108 94 -108q62 0 119 54l32 -50q-79 -66 -166 -66h-3l-15 -31q53 -8 53 -50q0 -10 -3 -22q-7 -31 -39 -57t-77 -26q-38 0 -77 24l31 47q32 -16 58 -16q15 0 29 10t14 26q0 23 -32 23
q-17 0 -39 -2l39 81q-102 28 -102 162q0 83 38 168.5t90 127.5q69 57 149 57q73 0 121 -42z" />
    <glyph glyph-name="egrave" unicode="&#xe8;" horiz-adv-x="505" 
d="M473 383q0 -61 -46 -104q-61 -57 -215 -57q-18 0 -62 2q-7 -32 -7 -63q0 -50 28.5 -78.5t70.5 -28.5q46 0 78.5 12.5t67.5 44.5l33 -48q-39 -40 -84 -57t-118 -17q-71 0 -117 48.5t-46 131.5q0 75 28.5 150t81.5 123q74 70 164 70q69 0 106 -34.5t37 -94.5zM394 381
q0 31 -18.5 50t-57.5 19q-49 0 -92.5 -45.5t-62.5 -121.5q14 -1 51 -1q117 0 155 38q25 25 25 61zM434 612l-26 -47l-223 100l43 77z" />
    <glyph glyph-name="eacute" unicode="&#xe9;" horiz-adv-x="505" 
d="M473 383q0 -61 -46 -104q-61 -57 -215 -57q-18 0 -62 2q-7 -32 -7 -63q0 -50 28.5 -78.5t70.5 -28.5q46 0 78.5 12.5t67.5 44.5l33 -48q-39 -40 -84 -57t-118 -17q-71 0 -117 48.5t-46 131.5q0 75 28.5 150t81.5 123q74 70 164 70q69 0 106 -34.5t37 -94.5zM394 381
q0 31 -18.5 50t-57.5 19q-49 0 -92.5 -45.5t-62.5 -121.5q14 -1 51 -1q117 0 155 38q25 25 25 61zM531 665l-225 -100l-26 47l208 130z" />
    <glyph glyph-name="ecircumflex" unicode="&#xea;" horiz-adv-x="505" 
d="M473 383q0 -61 -46 -104q-61 -57 -215 -57q-18 0 -62 2q-7 -32 -7 -63q0 -50 28.5 -78.5t70.5 -28.5q46 0 78.5 12.5t67.5 44.5l33 -48q-39 -40 -84 -57t-118 -17q-71 0 -117 48.5t-46 131.5q0 75 28.5 150t81.5 123q74 70 164 70q69 0 106 -34.5t37 -94.5zM394 381
q0 31 -18.5 50t-57.5 19q-49 0 -92.5 -45.5t-62.5 -121.5q14 -1 51 -1q117 0 155 38q25 25 25 61zM507 605l-36 -44l-120 85l-154 -85l-31 44l197 135z" />
    <glyph glyph-name="edieresis" unicode="&#xeb;" horiz-adv-x="505" 
d="M473 383q0 -61 -46 -104q-61 -57 -215 -57q-18 0 -62 2q-7 -32 -7 -63q0 -50 28.5 -78.5t70.5 -28.5q46 0 78.5 12.5t67.5 44.5l33 -48q-39 -40 -84 -57t-118 -17q-71 0 -117 48.5t-46 131.5q0 75 28.5 150t81.5 123q74 70 164 70q69 0 106 -34.5t37 -94.5zM394 381
q0 31 -18.5 50t-57.5 19q-49 0 -92.5 -45.5t-62.5 -121.5q14 -1 51 -1q117 0 155 38q25 25 25 61zM294 621q0 -22 -14.5 -37.5t-36.5 -15.5t-37 15.5t-15 37.5q0 21 15 36t36 15q22 0 37 -15t15 -36zM501 621q0 -22 -14.5 -37.5t-36.5 -15.5t-37 15.5t-15 37.5q0 21 15 36
t36 15q22 0 37 -15t15 -36z" />
    <glyph glyph-name="igrave" unicode="&#xec;" horiz-adv-x="273" 
d="M236 509l-108 -509h-83l106 496zM276 612l-26 -47l-223 100l43 77z" />
    <glyph glyph-name="iacute" unicode="&#xed;" horiz-adv-x="273" 
d="M236 509l-108 -509h-83l106 496zM387 665l-225 -100l-26 47l208 130z" />
    <glyph glyph-name="icircumflex" unicode="&#xee;" horiz-adv-x="273" 
d="M236 509l-108 -509h-83l106 496zM376 605l-36 -44l-120 85l-154 -85l-31 44l197 135z" />
    <glyph glyph-name="idieresis" unicode="&#xef;" horiz-adv-x="273" 
d="M236 509l-108 -509h-83l106 496zM153 621q0 -22 -14.5 -37.5t-36.5 -15.5t-37 15.5t-15 37.5q0 21 15 36t36 15q22 0 37 -15t15 -36zM360 621q0 -22 -14.5 -37.5t-36.5 -15.5t-37 15.5t-15 37.5q0 21 15 36t36 15q22 0 37 -15t15 -36z" />
    <glyph glyph-name="eth" unicode="&#xf0;" horiz-adv-x="532" 
d="M401 374q-42 30 -117 30q-74 0 -120 -64.5t-46 -152.5q0 -57 27 -96.5t73 -39.5q63 0 107 52.5t64 147.5q12 60 12 123zM447 668l-47 -44q39 -39 65 -105t26 -148q0 -68 -16.5 -133.5t-48.5 -123t-88.5 -93t-129.5 -35.5q-85 0 -131 57.5t-46 141.5q0 115 77 197.5
t185 82.5q63 0 107 -22q-10 75 -59 128l-63 -59l-43 36l60 55q-47 28 -115 48l51 48q69 -18 119 -45l54 50z" />
    <glyph glyph-name="ntilde" unicode="&#xf1;" horiz-adv-x="556" 
d="M495 410q0 -16 -3 -32l-81 -378h-79l72 337q8 35 8 54q0 50 -48 50q-34 0 -80.5 -28.5t-93.5 -87.5l-69 -325h-76l76 356q11 55 11 76q0 23 -7 47l73 34q12 -34 12 -60q0 -22 -7 -50q39 52 91 79t102 27q46 0 72.5 -26.5t26.5 -72.5zM518 656q-34 -33 -63.5 -48
t-71.5 -15q-31 0 -60.5 18.5t-58.5 18.5q-33 0 -77 -39l-19 45q34 33 63 48t71 15q31 0 60.5 -18.5t58.5 -18.5q34 0 78 39z" />
    <glyph glyph-name="ograve" unicode="&#xf2;" 
d="M497 332q0 -147 -78 -246t-199 -99q-81 0 -125 47.5t-44 132.5q0 148 79 247t198 99q84 0 126.5 -48.5t42.5 -132.5zM411 341q0 56 -27 82t-70 26q-82 0 -129.5 -81t-47.5 -206q0 -110 98 -110q83 0 129.5 84t46.5 205zM434 612l-26 -47l-223 100l43 77z" />
    <glyph glyph-name="oacute" unicode="&#xf3;" 
d="M497 332q0 -147 -78 -246t-199 -99q-81 0 -125 47.5t-44 132.5q0 148 79 247t198 99q84 0 126.5 -48.5t42.5 -132.5zM411 341q0 56 -27 82t-70 26q-82 0 -129.5 -81t-47.5 -206q0 -110 98 -110q83 0 129.5 84t46.5 205zM522 665l-225 -100l-26 47l208 130z" />
    <glyph glyph-name="ocircumflex" unicode="&#xf4;" 
d="M497 332q0 -147 -78 -246t-199 -99q-81 0 -125 47.5t-44 132.5q0 148 79 247t198 99q84 0 126.5 -48.5t42.5 -132.5zM411 341q0 56 -27 82t-70 26q-82 0 -129.5 -81t-47.5 -206q0 -110 98 -110q83 0 129.5 84t46.5 205zM509 605l-36 -44l-120 85l-154 -85l-31 44l197 135
z" />
    <glyph glyph-name="otilde" unicode="&#xf5;" 
d="M497 332q0 -147 -78 -246t-199 -99q-81 0 -125 47.5t-44 132.5q0 148 79 247t198 99q84 0 126.5 -48.5t42.5 -132.5zM411 341q0 56 -27 82t-70 26q-82 0 -129.5 -81t-47.5 -206q0 -110 98 -110q83 0 129.5 84t46.5 205zM527 656q-34 -33 -63.5 -48t-71.5 -15
q-31 0 -60.5 18.5t-58.5 18.5q-33 0 -77 -39l-19 45q34 33 63 48t71 15q31 0 60.5 -18.5t58.5 -18.5q34 0 78 39z" />
    <glyph glyph-name="odieresis" unicode="&#xf6;" 
d="M497 332q0 -147 -78 -246t-199 -99q-81 0 -125 47.5t-44 132.5q0 148 79 247t198 99q84 0 126.5 -48.5t42.5 -132.5zM411 341q0 56 -27 82t-70 26q-82 0 -129.5 -81t-47.5 -206q0 -110 98 -110q83 0 129.5 84t46.5 205zM292 621q0 -22 -14.5 -37.5t-36.5 -15.5t-37 15.5
t-15 37.5q0 21 15 36t36 15q22 0 37 -15t15 -36zM499 621q0 -22 -14.5 -37.5t-36.5 -15.5t-37 15.5t-15 37.5q0 21 15 36t36 15q22 0 37 -15t15 -36z" />
    <glyph glyph-name="divide" unicode="&#xf7;" horiz-adv-x="610" 
d="M569 300l-14 -65h-500l14 65h500zM340 56q0 -28 -20 -48t-48 -20t-47 19.5t-19 47.5q0 29 20 48.5t48 19.5q27 0 46.5 -19.5t19.5 -47.5zM420 472q0 -28 -19.5 -48t-47.5 -20t-47.5 19t-19.5 47q0 29 20 49t48 20q27 0 46.5 -19.5t19.5 -47.5z" />
    <glyph glyph-name="oslash" unicode="&#xf8;" horiz-adv-x="544" 
d="M541 535l-73 -90q30 -45 30 -117q0 -147 -78 -246t-199 -99q-65 0 -105 30l-65 -79l-41 30l70 86q-28 47 -28 113q0 148 79 247t198 99q61 0 102 -27l67 83zM413 337q0 23 -4 36l-245 -301q24 -25 72 -25q83 0 130 84.5t47 205.5zM382 422q-25 24 -67 24
q-82 0 -130 -81.5t-48 -206.5q0 -19 3 -34z" />
    <glyph glyph-name="ugrave" unicode="&#xf9;" horiz-adv-x="557" 
d="M520 506l-75 -353q-10 -50 -10 -66q0 -27 23 -58l-61 -50q-38 36 -38 90q0 13 1 20q-89 -106 -190 -106q-105 0 -105 100q0 35 8 73l72 338l80 15l-70 -335q-9 -47 -9 -65q0 -33 11 -46t38 -13q40 0 90 33t88 94l67 316zM449 612l-26 -47l-223 100l43 77z" />
    <glyph glyph-name="uacute" unicode="&#xfa;" horiz-adv-x="557" 
d="M520 506l-75 -353q-10 -50 -10 -66q0 -27 23 -58l-61 -50q-38 36 -38 90q0 13 1 20q-89 -106 -190 -106q-105 0 -105 100q0 35 8 73l72 338l80 15l-70 -335q-9 -47 -9 -65q0 -33 11 -46t38 -13q40 0 90 33t88 94l67 316zM535 665l-225 -100l-26 47l208 130z" />
    <glyph glyph-name="ucircumflex" unicode="&#xfb;" horiz-adv-x="557" 
d="M520 506l-75 -353q-10 -50 -10 -66q0 -27 23 -58l-61 -50q-38 36 -38 90q0 13 1 20q-89 -106 -190 -106q-105 0 -105 100q0 35 8 73l72 338l80 15l-70 -335q-9 -47 -9 -65q0 -33 11 -46t38 -13q40 0 90 33t88 94l67 316zM519 605l-36 -44l-120 85l-154 -85l-31 44
l197 135z" />
    <glyph glyph-name="udieresis" unicode="&#xfc;" horiz-adv-x="557" 
d="M520 506l-75 -353q-10 -50 -10 -66q0 -27 23 -58l-61 -50q-38 36 -38 90q0 13 1 20q-89 -106 -190 -106q-105 0 -105 100q0 35 8 73l72 338l80 15l-70 -335q-9 -47 -9 -65q0 -33 11 -46t38 -13q40 0 90 33t88 94l67 316zM303 621q0 -22 -14.5 -37.5t-36.5 -15.5t-37 15.5
t-15 37.5q0 21 15 36t36 15q22 0 37 -15t15 -36zM510 621q0 -22 -14.5 -37.5t-36.5 -15.5t-37 15.5t-15 37.5q0 21 15 36t36 15q22 0 37 -15t15 -36z" />
    <glyph glyph-name="yacute" unicode="&#xfd;" horiz-adv-x="461" 
d="M502 498l-230 -422q-9 -16 -32.5 -60.5t-33 -60.5t-27 -44t-31.5 -44.5t-30 -28.5q-40 -32 -97 -43l-18 53q42 4 88 46q34 31 64 106l-32 -4q2 63 -12 179l-41 317l82 17l34 -319q6 -66 3 -124h2l54 105l167 327h90zM451 665l-225 -100l-26 47l208 130z" />
    <glyph glyph-name="thorn" unicode="&#xfe;" horiz-adv-x="572" 
d="M522 345q0 -87 -31.5 -164.5t-84.5 -127.5q-68 -65 -161 -65q-64 0 -121 20l-43 -201l-81 -15l163 761q11 52 11 94q0 32 -7 58l83 32q7 -26 7 -57q0 -49 -14 -116l-14 -67q-4 -18 -24 -92q32 45 82.5 74.5t99.5 29.5q67 0 101 -42.5t34 -121.5zM436 344q0 94 -81 94
q-77 0 -164 -112l-51 -242q35 -30 105 -30q27 0 58.5 15t49.5 35q38 43 60.5 111.5t22.5 128.5z" />
    <glyph glyph-name="ydieresis" unicode="&#xff;" horiz-adv-x="461" 
d="M502 498l-230 -422q-9 -16 -32.5 -60.5t-33 -60.5t-27 -44t-31.5 -44.5t-30 -28.5q-40 -32 -97 -43l-18 53q42 4 88 46q34 31 64 106l-32 -4q2 63 -12 179l-41 317l82 17l34 -319q6 -66 3 -124h2l54 105l167 327h90zM246 621q0 -22 -14.5 -37.5t-36.5 -15.5t-37 15.5
t-15 37.5q0 21 15 36t36 15q22 0 37 -15t15 -36zM453 621q0 -22 -14.5 -37.5t-36.5 -15.5t-37 15.5t-15 37.5q0 21 15 36t36 15q22 0 37 -15t15 -36z" />
    <glyph glyph-name="Amacron" unicode="&#x100;" horiz-adv-x="573" 
d="M518 0h-89l-20 211h-256l-111 -211h-87l375 686h107zM402 278l-35 338q-35 -70 -43 -85l-135 -253h213zM523 790l-13 -59h-274l13 59h274z" />
    <glyph glyph-name="amacron" unicode="&#x101;" 
d="M500 471q-14 -50 -26 -104l-43 -206q-9 -44 -9 -68q0 -35 26 -64l-62 -48q-38 39 -38 91q0 12 1 18q-26 -46 -71 -72.5t-102 -26.5q-50 0 -84.5 40t-34.5 118q0 76 28 153t76 126q82 84 199 84q82 0 140 -41zM413 435q-23 14 -60 14q-85 0 -145 -72q-35 -42 -52.5 -105
t-17.5 -124q0 -48 18 -69t54 -21q39 0 80.5 33.5t68.5 86.5zM511 646l-12 -54h-274l12 54h274z" />
    <glyph glyph-name="Abreve" unicode="&#x102;" horiz-adv-x="573" 
d="M518 0h-89l-20 211h-256l-111 -211h-87l375 686h107zM402 278l-35 338q-35 -70 -43 -85l-135 -253h213zM579 828q-18 -16 -42.5 -34.5t-71 -42t-81.5 -23.5t-70 23t-51.5 43t-24.5 34l45 38q17 -19 50.5 -37.5t74.5 -18.5q52 0 149 56z" />
    <glyph glyph-name="abreve" unicode="&#x103;" 
d="M500 471q-14 -50 -26 -104l-43 -206q-9 -44 -9 -68q0 -35 26 -64l-62 -48q-38 39 -38 91q0 12 1 18q-26 -46 -71 -72.5t-102 -26.5q-50 0 -84.5 40t-34.5 118q0 76 28 153t76 126q82 84 199 84q82 0 140 -41zM413 435q-23 14 -60 14q-85 0 -145 -72q-35 -42 -52.5 -105
t-17.5 -124q0 -48 18 -69t54 -21q39 0 80.5 33.5t68.5 86.5zM554 670q-18 -16 -42.5 -34.5t-71 -42t-81.5 -23.5t-70 23t-51.5 43t-24.5 34l45 38q17 -19 50.5 -37.5t74.5 -18.5q52 0 149 56z" />
    <glyph glyph-name="Aogonek" unicode="&#x104;" horiz-adv-x="573" 
d="M528 -171q-48 -24 -87 -24q-40 0 -60.5 19t-20.5 49q0 5 2 19q13 60 67 108l-20 211h-256l-111 -211h-87l375 686h107l81 -686q-28 -5 -61 -44t-33 -67q0 -27 29 -27q31 0 64 14zM402 278l-35 338q-35 -70 -43 -85l-135 -253h213z" />
    <glyph glyph-name="aogonek" unicode="&#x105;" 
d="M500 471q-14 -50 -26 -104l-43 -206q-9 -44 -9 -68q0 -35 26 -64q-57 -44 -89.5 -77.5t-32.5 -61.5t29 -28q31 0 64 14l11 -47q-48 -24 -87 -24q-40 0 -60.5 19t-20.5 49q0 5 2 19q15 70 96 123q-12 24 -12 56q0 12 1 19q-26 -46 -71 -72.5t-102 -26.5q-50 0 -84.5 40
t-34.5 118q0 76 28 153t76 126q82 84 199 84q82 0 140 -41zM413 435q-23 14 -60 14q-85 0 -145 -72q-35 -42 -52.5 -105t-17.5 -124q0 -48 18 -69t54 -21q39 0 80.5 33.5t68.5 86.5z" />
    <glyph glyph-name="Cacute" unicode="&#x106;" horiz-adv-x="561" 
d="M603 638l-46 -51q-49 42 -121 42q-121 0 -196 -118q-37 -57 -59 -133.5t-22 -144.5q0 -83 41.5 -129t120.5 -46q71 0 143 44l32 -57q-98 -56 -203 -56q-102 0 -160.5 67.5t-58.5 180.5q0 90 32.5 182.5t91.5 158.5q49 55 115 86t132 31q96 0 158 -57zM606 825l-225 -100
l-26 47l208 130z" />
    <glyph glyph-name="cacute" unicode="&#x107;" horiz-adv-x="450" 
d="M455 469l-37 -61q-42 35 -101 35q-63 0 -106 -56q-27 -36 -48.5 -104t-21.5 -124q0 -108 94 -108q62 0 119 54l32 -50q-79 -66 -166 -66q-163 0 -163 169q0 83 38 168.5t90 127.5q69 57 149 57q73 0 121 -42zM515 665l-225 -100l-26 47l208 130z" />
    <glyph glyph-name="Ccircumflex" unicode="&#x108;" horiz-adv-x="561" 
d="M603 638l-46 -51q-49 42 -121 42q-121 0 -196 -118q-37 -57 -59 -133.5t-22 -144.5q0 -83 41.5 -129t120.5 -46q71 0 143 44l32 -57q-98 -56 -203 -56q-102 0 -160.5 67.5t-58.5 180.5q0 90 32.5 182.5t91.5 158.5q49 55 115 86t132 31q96 0 158 -57zM624 765l-36 -44
l-120 85l-154 -85l-31 44l197 135z" />
    <glyph glyph-name="ccircumflex" unicode="&#x109;" horiz-adv-x="450" 
d="M455 469l-37 -61q-42 35 -101 35q-63 0 -106 -56q-27 -36 -48.5 -104t-21.5 -124q0 -108 94 -108q62 0 119 54l32 -50q-79 -66 -166 -66q-163 0 -163 169q0 83 38 168.5t90 127.5q69 57 149 57q73 0 121 -42zM507 605l-36 -44l-120 85l-154 -85l-31 44l197 135z" />
    <glyph glyph-name="Cdotaccent" unicode="&#x10a;" horiz-adv-x="561" 
d="M603 638l-46 -51q-49 42 -121 42q-121 0 -196 -118q-37 -57 -59 -133.5t-22 -144.5q0 -83 41.5 -129t120.5 -46q71 0 143 44l32 -57q-98 -56 -203 -56q-102 0 -160.5 67.5t-58.5 180.5q0 90 32.5 182.5t91.5 158.5q49 55 115 86t132 31q96 0 158 -57zM530 792
q0 -26 -18 -43.5t-43 -17.5t-43 17.5t-18 42.5q0 26 18 44t43 18t43 -17.5t18 -43.5z" />
    <glyph glyph-name="cdotaccent" unicode="&#x10b;" horiz-adv-x="450" 
d="M455 469l-37 -61q-42 35 -101 35q-63 0 -106 -56q-27 -36 -48.5 -104t-21.5 -124q0 -108 94 -108q62 0 119 54l32 -50q-79 -66 -166 -66q-163 0 -163 169q0 83 38 168.5t90 127.5q69 57 149 57q73 0 121 -42zM407 652q0 -26 -17.5 -43.5t-43.5 -17.5q-25 0 -43 17.5
t-18 42.5q0 26 18 44t43 18q26 0 43.5 -17.5t17.5 -43.5z" />
    <glyph glyph-name="Ccaron" unicode="&#x10c;" horiz-adv-x="561" 
d="M603 638l-46 -51q-49 42 -121 42q-121 0 -196 -118q-37 -57 -59 -133.5t-22 -144.5q0 -83 41.5 -129t120.5 -46q71 0 143 44l32 -57q-98 -56 -203 -56q-102 0 -160.5 67.5t-58.5 180.5q0 90 32.5 182.5t91.5 158.5q49 55 115 86t132 31q96 0 158 -57zM636 860l-197 -135
l-144 135l36 44l120 -85l154 85z" />
    <glyph glyph-name="ccaron" unicode="&#x10d;" horiz-adv-x="450" 
d="M455 469l-37 -61q-42 35 -101 35q-63 0 -106 -56q-27 -36 -48.5 -104t-21.5 -124q0 -108 94 -108q62 0 119 54l32 -50q-79 -66 -166 -66q-163 0 -163 169q0 83 38 168.5t90 127.5q69 57 149 57q73 0 121 -42zM533 700l-197 -135l-144 135l36 44l120 -85l154 85z" />
    <glyph glyph-name="Dcaron" unicode="&#x10e;" horiz-adv-x="624" 
d="M604 433q0 -89 -43 -193.5t-101 -156.5q-49 -44 -104 -63.5t-132 -19.5h-179l146 686h147q77 0 119.5 -11t78.5 -42q68 -58 68 -200zM515 423q0 92 -27 134q-23 38 -55.5 50t-91.5 12h-82l-117 -551h73q140 0 198 71q48 59 75 140t27 144zM582 860l-197 -135l-144 135
l36 44l120 -85l154 85z" />
    <glyph glyph-name="dcaron" unicode="&#x10f;" horiz-adv-x="565" 
d="M578 717l-119 -556q-9 -44 -9 -68q0 -33 25 -64l-67 -50q-41 41 -38 90l1 17q-71 -93 -175 -93q-139 0 -139 167q0 76 29 149t82 127q34 35 82 53.5t91 18.5q73 0 110 -19l51 241zM435 422q-41 21 -96 21q-30 0 -63.5 -15.5t-56.5 -39.5q-33 -36 -56 -105.5t-23 -126.5
q0 -97 73 -97q102 0 171 119zM731 671q0 -51 -45 -98q-32 -32 -72 -49l-20 33q49 21 65 68q-17 0 -28 14t-11 33q0 25 16 40.5t41 15.5q23 0 38.5 -16t15.5 -41z" />
    <glyph glyph-name="Dcroat" unicode="&#x110;" horiz-adv-x="624" 
d="M604 433q0 -89 -43 -193.5t-101 -156.5q-49 -44 -104 -63.5t-132 -19.5h-179l68 321h-84l23 59h74l65 306h147q77 0 119.5 -11t78.5 -42q68 -58 68 -200zM515 423q0 92 -27 134q-23 38 -55.5 50t-91.5 12h-82l-51 -239h159l-23 -59h-148l-54 -253h73q140 0 198 71
q48 59 75 140t27 144z" />
    <glyph glyph-name="dcroat" unicode="&#x111;" horiz-adv-x="570" 
d="M631 630l-12 -54h-71l-89 -415q-9 -44 -9 -68q0 -33 25 -64l-67 -50q-38 38 -38 90q0 2 0.5 8t0.5 9q-71 -93 -175 -93q-139 0 -139 167q0 76 29 149t82 127q34 35 82 53.5t91 18.5q73 0 110 -19l18 87h-124l12 54h124l21 100l76 -13l-19 -87h72zM435 422q-41 21 -96 21
q-30 0 -63.5 -15.5t-56.5 -39.5q-33 -36 -56 -105.5t-23 -126.5q0 -97 73 -97q102 0 171 119z" />
    <glyph glyph-name="Emacron" unicode="&#x112;" horiz-adv-x="512" 
d="M566 686l-26 -68h-281l-47 -225h235l-16 -71h-235l-53 -251h302l-15 -71h-385l146 686h375zM537 811l-13 -59h-274l13 59h274z" />
    <glyph glyph-name="emacron" unicode="&#x113;" horiz-adv-x="505" 
d="M473 383q0 -61 -46 -104q-61 -57 -215 -57q-18 0 -62 2q-7 -32 -7 -63q0 -50 28.5 -78.5t70.5 -28.5q46 0 78.5 12.5t67.5 44.5l33 -48q-39 -40 -84 -57t-118 -17q-71 0 -117 48.5t-46 131.5q0 75 28.5 150t81.5 123q74 70 164 70q69 0 106 -34.5t37 -94.5zM394 381
q0 31 -18.5 50t-57.5 19q-49 0 -92.5 -45.5t-62.5 -121.5q14 -1 51 -1q117 0 155 38q25 25 25 61zM488 646l-12 -54h-274l12 54h274z" />
    <glyph glyph-name="Ebreve" unicode="&#x114;" horiz-adv-x="512" 
d="M566 686l-26 -68h-281l-47 -225h235l-16 -71h-235l-53 -251h302l-15 -71h-385l146 686h375zM580 828q-18 -16 -42.5 -34.5t-71 -42t-81.5 -23.5t-70 23t-51.5 43t-24.5 34l45 38q17 -19 50.5 -37.5t74.5 -18.5q52 0 149 56z" />
    <glyph glyph-name="ebreve" unicode="&#x115;" horiz-adv-x="505" 
d="M473 383q0 -61 -46 -104q-61 -57 -215 -57q-18 0 -62 2q-7 -32 -7 -63q0 -50 28.5 -78.5t70.5 -28.5q46 0 78.5 12.5t67.5 44.5l33 -48q-39 -40 -84 -57t-118 -17q-71 0 -117 48.5t-46 131.5q0 75 28.5 150t81.5 123q74 70 164 70q69 0 106 -34.5t37 -94.5zM394 381
q0 31 -18.5 50t-57.5 19q-49 0 -92.5 -45.5t-62.5 -121.5q14 -1 51 -1q117 0 155 38q25 25 25 61zM529 678q-18 -16 -42.5 -34.5t-71 -42t-81.5 -23.5t-70 23t-51.5 43t-24.5 34l45 38q17 -19 50.5 -37.5t74.5 -18.5q52 0 149 56z" />
    <glyph glyph-name="Edotaccent" unicode="&#x116;" horiz-adv-x="512" 
d="M566 686l-26 -68h-281l-47 -225h235l-16 -71h-235l-53 -251h302l-15 -71h-385l146 686h375zM447 789q0 -25 -17.5 -43t-43.5 -18q-25 0 -43 17.5t-18 42.5q0 26 18 44t43 18q26 0 43.5 -18t17.5 -43z" />
    <glyph glyph-name="edotaccent" unicode="&#x117;" horiz-adv-x="505" 
d="M473 383q0 -61 -46 -104q-61 -57 -215 -57q-18 0 -62 2q-7 -32 -7 -63q0 -50 28.5 -78.5t70.5 -28.5q46 0 78.5 12.5t67.5 44.5l33 -48q-39 -40 -84 -57t-118 -17q-71 0 -117 48.5t-46 131.5q0 75 28.5 150t81.5 123q74 70 164 70q69 0 106 -34.5t37 -94.5zM394 381
q0 31 -18.5 50t-57.5 19q-49 0 -92.5 -45.5t-62.5 -121.5q14 -1 51 -1q117 0 155 38q25 25 25 61zM408 652q0 -26 -18 -43.5t-43 -17.5t-43 17.5t-18 42.5q0 26 18 44t43 18t43 -17.5t18 -43.5z" />
    <glyph glyph-name="Eogonek" unicode="&#x118;" horiz-adv-x="512" 
d="M566 686l-26 -68h-281l-47 -225h235l-16 -71h-235l-53 -251h302l-15 -71q-30 -8 -62 -44.5t-32 -66.5q0 -27 29 -27q31 0 64 14l11 -47q-48 -24 -87 -24q-40 0 -60.5 19t-20.5 49q0 31 20 66t49 61h-296l146 686h375z" />
    <glyph glyph-name="eogonek" unicode="&#x119;" horiz-adv-x="505" 
d="M473 383q0 -61 -46 -104q-61 -57 -215 -57q-18 0 -62 2q-7 -32 -7 -63q0 -50 28.5 -78.5t70.5 -28.5q46 0 78.5 12.5t67.5 44.5l33 -48q-15 -16 -46 -38q-119 -82 -119 -136q0 -27 29 -27q31 0 64 14l11 -47q-48 -24 -87 -24t-60 18.5t-21 47.5q0 61 66 119
q-12 -1 -39 -1q-71 0 -117 48.5t-46 131.5q0 75 28.5 150t81.5 123q74 70 164 70q69 0 106 -34.5t37 -94.5zM394 381q0 31 -18.5 50t-57.5 19q-49 0 -92.5 -45.5t-62.5 -121.5q14 -1 51 -1q117 0 155 38q25 25 25 61z" />
    <glyph glyph-name="Ecaron" unicode="&#x11a;" horiz-adv-x="512" 
d="M566 686l-26 -68h-281l-47 -225h235l-16 -71h-235l-53 -251h302l-15 -71h-385l146 686h375zM575 860l-197 -135l-144 135l36 44l120 -85l154 85z" />
    <glyph glyph-name="ecaron" unicode="&#x11b;" horiz-adv-x="505" 
d="M473 383q0 -61 -46 -104q-61 -57 -215 -57q-18 0 -62 2q-7 -32 -7 -63q0 -50 28.5 -78.5t70.5 -28.5q46 0 78.5 12.5t67.5 44.5l33 -48q-39 -40 -84 -57t-118 -17q-71 0 -117 48.5t-46 131.5q0 75 28.5 150t81.5 123q74 70 164 70q69 0 106 -34.5t37 -94.5zM394 381
q0 31 -18.5 50t-57.5 19q-49 0 -92.5 -45.5t-62.5 -121.5q14 -1 51 -1q117 0 155 38q25 25 25 61zM531 700l-197 -135l-144 135l36 44l120 -85l154 85z" />
    <glyph glyph-name="Gcircumflex" unicode="&#x11c;" horiz-adv-x="641" 
d="M619 628l-41 -51q-61 49 -142 49q-106 0 -170 -79q-46 -57 -74.5 -147t-28.5 -169q0 -84 46 -130t122 -46q65 0 115 27l44 209h-138v68h230l-68 -320q-91 -52 -205 -52q-108 0 -171.5 69t-63.5 176q0 102 37 200t104 165q95 95 233 95q106 0 171 -64zM619 765l-36 -44
l-120 85l-154 -85l-31 44l197 135z" />
    <glyph glyph-name="gcircumflex" unicode="&#x11d;" horiz-adv-x="570" 
d="M531 469q-15 -39 -29 -107l-47 -225q-5 -21 -14.5 -73t-13.5 -67q-27 -109 -87 -155t-171 -46q-86 0 -175 45l29 63q73 -42 153 -42q78 0 116 26.5t55 97.5l21 91q-37 -48 -77.5 -67t-97.5 -19q-63 0 -99.5 44t-36.5 124q0 79 33 156.5t83 122.5q83 75 192 75
q55 0 91.5 -10t74.5 -34zM441 429q-31 15 -83 15q-75 0 -129 -51q-35 -32 -61.5 -104t-26.5 -128q0 -103 81 -103q95 0 166 120zM546 605l-36 -44l-120 85l-154 -85l-31 44l197 135z" />
    <glyph glyph-name="Gbreve" unicode="&#x11e;" horiz-adv-x="641" 
d="M619 628l-41 -51q-61 49 -142 49q-106 0 -170 -79q-46 -57 -74.5 -147t-28.5 -169q0 -84 46 -130t122 -46q65 0 115 27l44 209h-138v68h230l-68 -320q-91 -52 -205 -52q-108 0 -171.5 69t-63.5 176q0 102 37 200t104 165q95 95 233 95q106 0 171 -64zM641 828
q-18 -16 -42.5 -34.5t-71 -42t-81.5 -23.5t-70 23t-51.5 43t-24.5 34l45 38q17 -19 50.5 -37.5t74.5 -18.5q52 0 149 56z" />
    <glyph glyph-name="gbreve" unicode="&#x11f;" horiz-adv-x="570" 
d="M531 469q-15 -39 -29 -107l-47 -225q-5 -21 -14.5 -73t-13.5 -67q-27 -109 -87 -155t-171 -46q-86 0 -175 45l29 63q73 -42 153 -42q78 0 116 26.5t55 97.5l21 91q-37 -48 -77.5 -67t-97.5 -19q-63 0 -99.5 44t-36.5 124q0 79 33 156.5t83 122.5q83 75 192 75
q55 0 91.5 -10t74.5 -34zM441 429q-31 15 -83 15q-75 0 -129 -51q-35 -32 -61.5 -104t-26.5 -128q0 -103 81 -103q95 0 166 120zM572 671q-18 -16 -42.5 -34.5t-71 -42t-81.5 -23.5t-70 23t-51.5 43t-24.5 34l45 38q17 -19 50.5 -37.5t74.5 -18.5q52 0 149 56z" />
    <glyph glyph-name="Gdotaccent" unicode="&#x120;" horiz-adv-x="641" 
d="M619 628l-41 -51q-61 49 -142 49q-106 0 -170 -79q-46 -57 -74.5 -147t-28.5 -169q0 -84 46 -130t122 -46q65 0 115 27l44 209h-138v68h230l-68 -320q-91 -52 -205 -52q-108 0 -171.5 69t-63.5 176q0 102 37 200t104 165q95 95 233 95q106 0 171 -64zM519 789
q0 -25 -17.5 -43t-43.5 -18q-25 0 -43 17.5t-18 42.5q0 26 18 44t43 18q26 0 43.5 -18t17.5 -43z" />
    <glyph glyph-name="gdotaccent" unicode="&#x121;" horiz-adv-x="570" 
d="M531 469q-15 -39 -29 -107l-47 -225q-5 -21 -14.5 -73t-13.5 -67q-27 -109 -87 -155t-171 -46q-86 0 -175 45l29 63q73 -42 153 -42q78 0 116 26.5t55 97.5l21 91q-37 -48 -77.5 -67t-97.5 -19q-63 0 -99.5 44t-36.5 124q0 79 33 156.5t83 122.5q83 75 192 75
q55 0 91.5 -10t74.5 -34zM441 429q-31 15 -83 15q-75 0 -129 -51q-35 -32 -61.5 -104t-26.5 -128q0 -103 81 -103q95 0 166 120zM445 652q0 -26 -17.5 -43.5t-43.5 -17.5q-25 0 -43 17.5t-18 42.5q0 26 18 44t43 18q26 0 43.5 -17.5t17.5 -43.5z" />
    <glyph glyph-name="Gcommaaccent" unicode="&#x122;" horiz-adv-x="641" 
d="M619 628l-41 -51q-61 49 -142 49q-106 0 -170 -79q-46 -57 -74.5 -147t-28.5 -169q0 -84 46 -130t122 -46q65 0 115 27l44 209h-138v68h230l-68 -320q-91 -52 -205 -52q-108 0 -171.5 69t-63.5 176q0 102 37 200t104 165q95 95 233 95q106 0 171 -64zM338 -119
q0 -53 -48 -103q-31 -31 -75 -51l-21 35q52 23 69 71q-18 0 -30 15t-12 35q0 26 17 42t43 16q24 0 40.5 -16.5t16.5 -43.5z" />
    <glyph glyph-name="gcommaaccent" unicode="&#x123;" horiz-adv-x="570" 
d="M531 469q-15 -39 -29 -107l-47 -225q-5 -21 -14.5 -73t-13.5 -67q-27 -109 -87 -155t-171 -46q-86 0 -175 45l29 63q73 -42 153 -42q78 0 116 26.5t55 97.5l21 91q-37 -48 -77.5 -67t-97.5 -19q-63 0 -99.5 44t-36.5 124q0 79 33 156.5t83 122.5q83 75 192 75
q55 0 91.5 -10t74.5 -34zM441 429q-31 15 -83 15q-75 0 -129 -51q-35 -32 -61.5 -104t-26.5 -128q0 -103 81 -103q95 0 166 120zM323 629q0 53 48 103q31 31 75 51l21 -35q-52 -23 -69 -71q18 0 30 -15t12 -35q0 -26 -17 -42t-43 -16q-24 0 -40.5 16.5t-16.5 43.5z" />
    <glyph glyph-name="Hcircumflex" unicode="&#x124;" horiz-adv-x="641" 
d="M642 686l-146 -686h-82l71 332h-289l-71 -332h-80l146 686h80l-61 -287h289l61 287h82zM597 765l-36 -44l-120 85l-154 -85l-31 44l197 135z" />
    <glyph glyph-name="hcircumflex" unicode="&#x125;" horiz-adv-x="567" 
d="M506 416q0 -22 -8 -59l-76 -357h-77l71 336q8 38 8 51q0 26 -14.5 40t-39.5 14q-37 0 -86.5 -31.5t-91.5 -83.5l-69 -326h-78l117 550q21 99 5 155l83 32q18 -61 -10 -188l-11 -52q-8 -37 -25 -93q41 53 94.5 79t102.5 26q47 0 76 -27t29 -66zM415 777l-36 -44l-120 85
l-154 -85l-31 44l197 135z" />
    <glyph glyph-name="Hbar" unicode="&#x126;" horiz-adv-x="641" 
d="M642 686l-25 -115h90l-14 -66h-90l-107 -505h-82l71 332h-289l-71 -332h-80l107 505h-89l14 66h89l25 115h80l-25 -115h289l25 115h82zM210 399h289l22 106h-289z" />
    <glyph glyph-name="hbar" unicode="&#x127;" horiz-adv-x="567" 
d="M506 416q0 -22 -8 -59l-76 -357h-77l71 336q8 38 8 51q0 26 -14.5 40t-39.5 14q-37 0 -86.5 -31.5t-91.5 -83.5l-69 -326h-78l117 550l5 26h-65l12 54h59q1 45 -6 75l83 32q10 -40 4 -107h195l-12 -54h-192q-1 -9 -5 -27l-11 -52q-8 -37 -25 -93q41 53 94.5 79t102.5 26
q47 0 76 -27t29 -66z" />
    <glyph glyph-name="Itilde" unicode="&#x128;" horiz-adv-x="270" 
d="M271 686l-146 -686h-80l146 686h80zM419 816q-34 -33 -63.5 -48t-71.5 -15q-31 0 -60.5 18.5t-58.5 18.5q-20 0 -35 -8t-42 -31l-19 45q34 33 63 48t71 15q31 0 60.5 -18.5t58.5 -18.5q34 0 78 39z" />
    <glyph glyph-name="itilde" unicode="&#x129;" horiz-adv-x="273" 
d="M236 509l-108 -509h-83l106 496zM391 656q-34 -33 -63.5 -48t-71.5 -15q-31 0 -60.5 18.5t-58.5 18.5q-33 0 -77 -39l-19 45q34 33 63 48t71 15q31 0 60.5 -18.5t58.5 -18.5q34 0 78 39z" />
    <glyph glyph-name="Imacron" unicode="&#x12a;" horiz-adv-x="270" 
d="M271 686l-146 -686h-80l146 686h80zM389 811l-13 -59h-274l13 59h274z" />
    <glyph glyph-name="imacron" unicode="&#x12b;" horiz-adv-x="273" 
d="M236 509l-108 -509h-83l106 496zM358 646l-12 -54h-274l12 54h274z" />
    <glyph glyph-name="Ibreve" unicode="&#x12c;" horiz-adv-x="270" 
d="M271 686l-146 -686h-80l146 686h80zM432 828q-18 -16 -42.5 -34.5t-71 -42t-81.5 -23.5t-70 23t-51.5 43t-24.5 34l45 38q17 -19 50.5 -37.5t74.5 -18.5q52 0 149 56z" />
    <glyph glyph-name="ibreve" unicode="&#x12d;" horiz-adv-x="273" 
d="M236 509l-108 -509h-83l106 496zM406 678q-18 -16 -42.5 -34.5t-71 -42t-81.5 -23.5t-70 23t-51.5 43t-24.5 34l45 38q17 -19 50.5 -37.5t74.5 -18.5q52 0 149 56z" />
    <glyph glyph-name="Iogonek" unicode="&#x12e;" horiz-adv-x="270" 
d="M271 686l-146 -686q-26 -14 -55.5 -49.5t-29.5 -61.5q0 -27 29 -27q31 0 64 14l11 -47q-48 -24 -87 -24q-40 0 -60.5 19t-20.5 49q0 5 2 19q13 60 67 108l146 686h80z" />
    <glyph glyph-name="iogonek" unicode="&#x12f;" horiz-adv-x="273" 
d="M236 509l-108 -509q-33 -18 -64.5 -49.5t-31.5 -61.5q0 -27 29 -27q31 0 64 14l11 -47q-48 -24 -87 -24t-60 18.5t-21 47.5q0 66 77 129l106 496zM287 652q0 -26 -17.5 -43.5t-43.5 -17.5q-25 0 -43 17.5t-18 42.5q0 26 18 44t43 18q26 0 43.5 -17.5t17.5 -43.5z" />
    <glyph glyph-name="Idotaccent" unicode="&#x130;" horiz-adv-x="270" 
d="M271 686l-146 -686h-80l146 686h80zM302 789q0 -25 -18 -43t-43 -18t-43 17.5t-18 42.5q0 26 18 44t43 18t43 -18t18 -43z" />
    <glyph glyph-name="dotlessi" unicode="&#x131;" horiz-adv-x="273" 
d="M236 509l-108 -509h-83l106 496z" />
    <glyph glyph-name="IJ" unicode="&#x132;" horiz-adv-x="542" 
d="M271 686l-146 -686h-80l146 686h80zM543 686l-121 -569q-24 -113 -58 -157q-48 -61 -135 -88l-29 51q64 24 96 67q24 30 44 125l121 571h82z" />
    <glyph glyph-name="ij" unicode="&#x133;" horiz-adv-x="542" 
d="M236 509l-108 -509h-83l106 496zM287 652q0 -26 -17.5 -43.5t-43.5 -17.5q-25 0 -43 17.5t-18 42.5q0 26 18 44t43 18q26 0 43.5 -17.5t17.5 -43.5zM506 510l-106 -497q-20 -92 -56 -138.5t-105 -72.5l-28 52q51 22 72.5 54t38.5 109l101 477zM558 661q-1 -26 -18.5 -44
t-42.5 -18q-26 0 -44 17.5t-18 42.5q1 26 19 44.5t43 18.5t43 -18t18 -43z" />
    <glyph glyph-name="Jcircumflex" unicode="&#x134;" horiz-adv-x="272" 
d="M273 686l-121 -569q-24 -113 -58 -157q-48 -61 -135 -88l-29 51q64 24 96 67q24 30 44 125l121 571h82zM413 765l-36 -44l-120 85l-154 -85l-31 44l197 135z" />
    <glyph glyph-name="jcircumflex" unicode="&#x135;" horiz-adv-x="269" 
d="M233 510l-106 -497q-20 -92 -56 -138.5t-105 -72.5l-28 52q51 22 72.5 54t38.5 109l101 477zM377 605l-36 -44l-120 85l-154 -85l-31 44l197 135z" />
    <glyph glyph-name="Kcommaaccent" unicode="&#x136;" horiz-adv-x="561" 
d="M627 663l-324 -306l198 -345l-86 -27l-206 378l356 345zM274 686l-146 -686h-83l146 686h83zM303 -119q0 -53 -48 -103q-31 -31 -75 -51l-21 35q52 23 69 71q-18 0 -30 15t-12 35q0 26 17 42t43 16q24 0 40.5 -16.5t16.5 -43.5z" />
    <glyph glyph-name="kcommaaccent" unicode="&#x137;" horiz-adv-x="471" 
d="M250 737q7 -25 7 -59q0 -50 -12 -107l-122 -571h-78l118 554q11 50 11 96q0 35 -7 55zM499 474l-222 -193l169 -265l-77 -31l-181 303l256 231zM282 -119q0 -53 -48 -103q-31 -31 -75 -51l-21 35q52 23 69 71q-18 0 -30 15t-12 35q0 26 17 42t43 16q24 0 40.5 -16.5
t16.5 -43.5z" />
    <glyph glyph-name="kgreenlandic" unicode="&#x138;" horiz-adv-x="471" 
d="M210 551q7 -24 7 -59q0 -50 -12 -107l-82 -385h-78l78 368q11 50 11 96q0 35 -7 55zM499 474l-222 -193l169 -265l-77 -31l-181 303l256 231z" />
    <glyph glyph-name="Lacute" unicode="&#x139;" horiz-adv-x="463" 
d="M413 69l-26 -69h-342l146 686h82l-131 -617h271zM419 825l-225 -100l-26 47l208 130z" />
    <glyph glyph-name="lacute" unicode="&#x13a;" horiz-adv-x="269" 
d="M250 737q7 -21 7 -57q0 -54 -15 -125l-95 -445q-5 -23 -5 -36q0 -24 21 -24q14 0 19 2l5 -51q-26 -11 -61 -11q-66 0 -66 59q0 16 5 43l98 463q11 50 11 93q0 31 -7 57zM374 847l-225 -100l-26 47l208 130z" />
    <glyph glyph-name="Lcommaaccent" unicode="&#x13b;" horiz-adv-x="463" 
d="M413 69l-26 -69h-342l146 686h82l-131 -617h271zM267 -119q0 -53 -48 -103q-31 -31 -75 -51l-21 35q52 23 69 71q-18 0 -30 15t-12 35q0 26 17 42t43 16q24 0 40.5 -16.5t16.5 -43.5z" />
    <glyph glyph-name="lcommaaccent" unicode="&#x13c;" horiz-adv-x="269" 
d="M250 737q7 -21 7 -57q0 -54 -15 -125l-95 -445q-5 -23 -5 -36q0 -24 21 -24q14 0 19 2l5 -51q-26 -11 -61 -11q-66 0 -66 59q0 16 5 43l98 463q11 50 11 93q0 31 -7 57zM156 -119q0 -53 -48 -103q-31 -31 -75 -51l-21 35q52 23 69 71q-18 0 -30 15t-12 35q0 26 17 42
t43 16q24 0 40.5 -16.5t16.5 -43.5z" />
    <glyph glyph-name="Lcaron" unicode="&#x13d;" horiz-adv-x="463" 
d="M413 69l-26 -69h-342l146 686h82l-131 -617h271zM494 629q0 -51 -45 -98q-32 -32 -72 -49l-20 33q49 21 65 68q-17 0 -28 14t-11 33q0 25 16 40.5t41 15.5q23 0 38.5 -16t15.5 -41z" />
    <glyph glyph-name="lcaron" unicode="&#x13e;" horiz-adv-x="269" 
d="M250 737q7 -21 7 -57q0 -54 -15 -125l-95 -445q-5 -23 -5 -36q0 -24 21 -24q14 0 19 2l5 -51q-26 -11 -61 -11q-66 0 -66 59q0 16 5 43l98 463q11 50 11 93q0 31 -7 57zM425 671q0 -51 -45 -98q-32 -32 -72 -49l-20 33q49 21 65 68q-17 0 -28 14t-11 33q0 25 16 40.5
t41 15.5q23 0 38.5 -16t15.5 -41z" />
    <glyph glyph-name="Ldot" unicode="&#x13f;" horiz-adv-x="463" 
d="M413 69l-26 -69h-342l146 686h82l-131 -617h271zM443 343q0 -25 -17.5 -43t-43.5 -18q-25 0 -43 17.5t-18 42.5q0 26 18 44t43 18q26 0 43.5 -18t17.5 -43z" />
    <glyph glyph-name="ldot" unicode="&#x140;" horiz-adv-x="304" 
d="M250 737q7 -21 7 -57q0 -54 -15 -125l-95 -445q-5 -23 -5 -36q0 -24 21 -24q14 0 19 2l5 -51q-26 -11 -61 -11q-66 0 -66 59q0 16 5 43l98 463q11 50 11 93q0 31 -7 57zM371 358q0 -26 -17.5 -43.5t-43.5 -17.5q-25 0 -43 17.5t-18 42.5q0 26 18 44t43 18
q26 0 43.5 -17.5t17.5 -43.5z" />
    <glyph glyph-name="Lslash" unicode="&#x141;" horiz-adv-x="463" 
d="M413 69l-26 -69h-342l65 308l-71 -22l15 72l72 22l65 306h82l-59 -280l190 57l-16 -72l-190 -57l-56 -265h271z" />
    <glyph glyph-name="lslash" unicode="&#x142;" horiz-adv-x="269" 
d="M288 430l-15 -72l-78 -25l-48 -223q-5 -23 -5 -36q0 -24 21 -24q14 0 19 2l5 -51q-26 -11 -61 -11q-66 0 -66 59q0 16 5 43l45 214l-63 -20l15 72l64 20l37 177q11 50 11 93q0 31 -7 57l83 32q7 -21 7 -57q0 -54 -15 -125l-32 -150z" />
    <glyph glyph-name="Nacute" unicode="&#x143;" horiz-adv-x="646" 
d="M647 686l-146 -686h-86l-131 420q-36 113 -43 164l-4 -28q-4 -28 -11 -74t-15 -84l-81 -398h-85l146 686h95l135 -438q13 -43 33 -143q0 1 2 14t5.5 34t7.5 46t9.5 56t11.5 58l76 373h81zM573 825l-225 -100l-26 47l208 130z" />
    <glyph glyph-name="nacute" unicode="&#x144;" horiz-adv-x="556" 
d="M495 410q0 -16 -3 -32l-81 -378h-79l72 337q8 35 8 54q0 50 -48 50q-34 0 -80.5 -28.5t-93.5 -87.5l-69 -325h-76l76 356q11 55 11 76q0 23 -7 47l73 34q12 -34 12 -60q0 -22 -7 -50q39 52 91 79t102 27q46 0 72.5 -26.5t26.5 -72.5zM477 665l-225 -100l-26 47l208 130z
" />
    <glyph glyph-name="Ncommaaccent" unicode="&#x145;" horiz-adv-x="646" 
d="M647 686l-146 -686h-86l-131 420q-36 113 -43 164l-4 -28q-4 -28 -11 -74t-15 -84l-81 -398h-85l146 686h95l135 -438q13 -43 33 -143q0 1 2 14t5.5 34t7.5 46t9.5 56t11.5 58l76 373h81zM325 -119q0 -53 -48 -103q-31 -31 -75 -51l-21 35q52 23 69 71q-18 0 -30 15
t-12 35q0 26 17 42t43 16q24 0 40.5 -16.5t16.5 -43.5z" />
    <glyph glyph-name="ncommaaccent" unicode="&#x146;" horiz-adv-x="556" 
d="M495 410q0 -16 -3 -32l-81 -378h-79l72 337q8 35 8 54q0 50 -48 50q-34 0 -80.5 -28.5t-93.5 -87.5l-69 -325h-76l76 356q11 55 11 76q0 23 -7 47l73 34q12 -34 12 -60q0 -22 -7 -50q39 52 91 79t102 27q46 0 72.5 -26.5t26.5 -72.5zM277 -119q0 -53 -48 -103
q-31 -31 -75 -51l-21 35q52 23 69 71q-18 0 -30 15t-12 35q0 26 17 42t43 16q24 0 40.5 -16.5t16.5 -43.5z" />
    <glyph glyph-name="Ncaron" unicode="&#x147;" horiz-adv-x="646" 
d="M647 686l-146 -686h-86l-131 420q-36 113 -43 164l-4 -28q-4 -28 -11 -74t-15 -84l-81 -398h-85l146 686h95l135 -438q13 -43 33 -143q0 1 2 14t5.5 34t7.5 46t9.5 56t11.5 58l76 373h81zM619 860l-197 -135l-144 135l36 44l120 -85l154 85z" />
    <glyph glyph-name="ncaron" unicode="&#x148;" horiz-adv-x="556" 
d="M495 410q0 -16 -3 -32l-81 -378h-79l72 337q8 35 8 54q0 50 -48 50q-34 0 -80.5 -28.5t-93.5 -87.5l-69 -325h-76l76 356q11 55 11 76q0 23 -7 47l73 34q12 -34 12 -60q0 -22 -7 -50q39 52 91 79t102 27q46 0 72.5 -26.5t26.5 -72.5zM517 700l-197 -135l-144 135l36 44
l120 -85l154 85z" />
    <glyph glyph-name="napostrophe" unicode="&#x149;" horiz-adv-x="556" 
d="M495 410q0 -16 -3 -32l-81 -378h-79l72 337q8 35 8 54q0 50 -48 50q-34 0 -80.5 -28.5t-93.5 -87.5l-69 -325h-76l76 356q11 55 11 76q0 23 -7 47l73 34q12 -34 12 -60q0 -22 -7 -50q39 52 91 79t102 27q46 0 72.5 -26.5t26.5 -72.5zM119 669q0 -51 -45 -98
q-32 -32 -72 -49l-20 33q49 21 65 68q-17 0 -28 14t-11 33q0 25 16 40.5t41 15.5q23 0 38.5 -16t15.5 -41z" />
    <glyph glyph-name="Eng" unicode="&#x14a;" horiz-adv-x="646" 
d="M647 686l-142 -668q-20 -92 -56 -138.5t-105 -72.5l-28 52q51 21 70.5 51.5t28.5 89.5l-131 420q-29 93 -43 163q-1 -2 -4.5 -29.5t-11 -73t-14.5 -82.5l-81 -398h-85l146 686h95l135 -438q13 -43 33 -143q0 1 2 14t5.5 34t7.5 46t9.5 56t11.5 58l76 373h81z" />
    <glyph glyph-name="eng" unicode="&#x14b;" horiz-adv-x="556" 
d="M495 410q0 -16 -3 -32l-77 -360q-20 -92 -56 -138.5t-105 -72.5l-28 52q47 20 70 50.5t36 90.5l72 337q8 35 8 54q0 50 -48 50q-34 0 -80.5 -28.5t-93.5 -87.5l-69 -325h-76l76 356q11 55 11 76q0 23 -7 47l73 34q12 -34 12 -60q0 -22 -7 -50q39 52 91 79t102 27
q46 0 72.5 -26.5t26.5 -72.5z" />
    <glyph glyph-name="Omacron" unicode="&#x14c;" horiz-adv-x="686" 
d="M654 466q0 -128 -43 -242t-122 -175q-44 -34 -90 -48t-108 -14q-105 0 -159.5 64.5t-54.5 178.5q0 109 38 213.5t97 164.5q46 47 99.5 68.5t127.5 21.5q102 0 158.5 -60.5t56.5 -171.5zM565 474q0 158 -140 158q-105 0 -164 -80q-43 -58 -68.5 -148t-25.5 -193
q0 -161 142 -161q79 0 140 59q49 49 82.5 159t33.5 206zM581 811l-13 -59h-274l13 59h274z" />
    <glyph glyph-name="omacron" unicode="&#x14d;" 
d="M497 332q0 -147 -78 -246t-199 -99q-81 0 -125 47.5t-44 132.5q0 148 79 247t198 99q84 0 126.5 -48.5t42.5 -132.5zM411 341q0 56 -27 82t-70 26q-82 0 -129.5 -81t-47.5 -206q0 -110 98 -110q83 0 129.5 84t46.5 205zM487 646l-12 -54h-274l12 54h274z" />
    <glyph glyph-name="Obreve" unicode="&#x14e;" horiz-adv-x="686" 
d="M654 466q0 -128 -43 -242t-122 -175q-44 -34 -90 -48t-108 -14q-105 0 -159.5 64.5t-54.5 178.5q0 109 38 213.5t97 164.5q46 47 99.5 68.5t127.5 21.5q102 0 158.5 -60.5t56.5 -171.5zM565 474q0 158 -140 158q-105 0 -164 -80q-43 -58 -68.5 -148t-25.5 -193
q0 -161 142 -161q79 0 140 59q49 49 82.5 159t33.5 206zM637 828q-18 -16 -42.5 -34.5t-71 -42t-81.5 -23.5t-70 23t-51.5 43t-24.5 34l45 38q17 -19 50.5 -37.5t74.5 -18.5q52 0 149 56z" />
    <glyph glyph-name="obreve" unicode="&#x14f;" 
d="M497 332q0 -147 -78 -246t-199 -99q-81 0 -125 47.5t-44 132.5q0 148 79 247t198 99q84 0 126.5 -48.5t42.5 -132.5zM411 341q0 56 -27 82t-70 26q-82 0 -129.5 -81t-47.5 -206q0 -110 98 -110q83 0 129.5 84t46.5 205zM530 678q-18 -16 -42.5 -34.5t-71 -42t-81.5 -23.5
t-70 23t-51.5 43t-24.5 34l45 38q17 -19 50.5 -37.5t74.5 -18.5q52 0 149 56z" />
    <glyph glyph-name="Ohungarumlaut" unicode="&#x150;" horiz-adv-x="686" 
d="M654 466q0 -128 -43 -242t-122 -175q-44 -34 -90 -48t-108 -14q-105 0 -159.5 64.5t-54.5 178.5q0 109 38 213.5t97 164.5q46 47 99.5 68.5t127.5 21.5q102 0 158.5 -60.5t56.5 -171.5zM565 474q0 158 -140 158q-105 0 -164 -80q-43 -58 -68.5 -148t-25.5 -193
q0 -161 142 -161q79 0 140 59q49 49 82.5 159t33.5 206zM781 872l-216 -140l-33 36l193 161zM568 895l-188 -171l-42 28l162 187z" />
    <glyph glyph-name="ohungarumlaut" unicode="&#x151;" 
d="M497 332q0 -147 -78 -246t-199 -99q-81 0 -125 47.5t-44 132.5q0 148 79 247t198 99q84 0 126.5 -48.5t42.5 -132.5zM411 341q0 56 -27 82t-70 26q-82 0 -129.5 -81t-47.5 -206q0 -110 98 -110q83 0 129.5 84t46.5 205zM648 744l-191 -173l-38 31l165 189zM461 763
l-159 -198l-46 21l131 210z" />
    <glyph glyph-name="OE" unicode="&#x152;" horiz-adv-x="875" 
d="M929 685l-25 -68h-281l-48 -224h235l-15 -71h-235l-53 -251h302l-16 -71h-440q-86 0 -127.5 9t-81.5 43q-68 58 -68 175q0 54 13 113q37 171 133 258q56 50 107 68.5t128 18.5h472zM538 608q-54 7 -87 7q-125 0 -183 -71q-63 -80 -87 -194q-16 -75 -16 -121
q0 -60 27 -101q39 -62 116 -62q74 0 116 6z" />
    <glyph glyph-name="oe" unicode="&#x153;" horiz-adv-x="839" 
d="M807 383q0 -61 -46 -104q-61 -57 -215 -57q-18 0 -62 2q-7 -32 -7 -63q0 -50 28.5 -78.5t70.5 -28.5q46 0 78.5 12.5t67.5 44.5l33 -48q-39 -40 -84 -57t-118 -17q-98 0 -141 82q-77 -88 -191 -88q-81 0 -125 47.5t-44 132.5q0 148 79 247t198 99q112 0 151 -87
q85 90 184 90q69 0 106 -34.5t37 -94.5zM412 337q0 56 -27 82t-70 26q-82 0 -129.5 -81t-47.5 -206q0 -110 98 -110q83 0 129.5 84t46.5 205zM728 381q0 31 -18.5 50t-57.5 19q-49 0 -92.5 -45.5t-62.5 -121.5q14 -1 51 -1q117 0 155 38q25 25 25 61z" />
    <glyph glyph-name="Racute" unicode="&#x154;" horiz-adv-x="544" 
d="M556 526q0 -95 -66 -156t-160 -61h-10q54 -54 106 -159q38 -76 57 -138l-72 -24q-15 37 -57 128t-86 152q-18 25 -33 32.5t-42 8.5l-66 -309h-82l146 686h150q112 0 163.5 -38.5t51.5 -121.5zM469 511q0 56 -31 81t-100 25h-79l-54 -257h73q91 0 132 35q59 49 59 116z
M535 825l-225 -100l-26 47l208 130z" />
    <glyph glyph-name="racute" unicode="&#x155;" horiz-adv-x="363" 
d="M398 506l-34 -85q-12 4 -31 4q-71 0 -146 -113l-66 -312h-76l72 338q13 61 13 93q0 26 -7 48l73 34q12 -30 12 -56q0 -20 -8 -63q35 53 80 85t81 32q20 0 37 -5zM407 665l-225 -100l-26 47l208 130z" />
    <glyph glyph-name="Rcommaaccent" unicode="&#x156;" horiz-adv-x="544" 
d="M556 526q0 -95 -66 -156t-160 -61h-10q54 -54 106 -159q38 -76 57 -138l-72 -24q-15 37 -57 128t-86 152q-18 25 -33 32.5t-42 8.5l-66 -309h-82l146 686h150q112 0 163.5 -38.5t51.5 -121.5zM469 511q0 56 -31 81t-100 25h-79l-54 -257h73q91 0 132 35q59 49 59 116z
M314 -119q0 -53 -48 -103q-31 -31 -75 -51l-21 35q52 23 69 71q-18 0 -30 15t-12 35q0 26 17 42t43 16q24 0 40.5 -16.5t16.5 -43.5z" />
    <glyph glyph-name="rcommaaccent" unicode="&#x157;" horiz-adv-x="363" 
d="M398 506l-34 -85q-12 4 -31 4q-71 0 -146 -113l-66 -312h-76l72 338q13 61 13 93q0 26 -7 48l73 34q12 -30 12 -56q0 -20 -8 -63q35 53 80 85t81 32q20 0 37 -5zM127 -119q0 -53 -48 -103q-31 -31 -75 -51l-21 35q52 23 69 71q-18 0 -30 15t-12 35q0 26 17 42t43 16
q24 0 40.5 -16.5t16.5 -43.5z" />
    <glyph glyph-name="Rcaron" unicode="&#x158;" horiz-adv-x="544" 
d="M556 526q0 -95 -66 -156t-160 -61h-10q54 -54 106 -159q38 -76 57 -138l-72 -24q-15 37 -57 128t-86 152q-18 25 -33 32.5t-42 8.5l-66 -309h-82l146 686h150q112 0 163.5 -38.5t51.5 -121.5zM469 511q0 56 -31 81t-100 25h-79l-54 -257h73q91 0 132 35q59 49 59 116z
M564 860l-197 -135l-144 135l36 44l120 -85l154 85z" />
    <glyph glyph-name="rcaron" unicode="&#x159;" horiz-adv-x="363" 
d="M398 506l-34 -85q-12 4 -31 4q-71 0 -146 -113l-66 -312h-76l72 338q13 61 13 93q0 26 -7 48l73 34q12 -30 12 -56q0 -20 -8 -63q35 53 80 85t81 32q20 0 37 -5zM456 700l-197 -135l-144 135l36 44l120 -85l154 85z" />
    <glyph glyph-name="Sacute" unicode="&#x15a;" horiz-adv-x="561" 
d="M563 642l-43 -61q-73 53 -151 53q-68 0 -111.5 -32.5t-43.5 -82.5q0 -42 18 -65.5t69 -45.5l72 -31q61 -26 87 -67.5t26 -105.5q0 -93 -76.5 -155t-205.5 -62q-107 0 -189 54l40 65q74 -52 164 -52q81 0 130 39t49 99q0 45 -19.5 71.5t-73.5 48.5l-62 26q-61 26 -89 64.5
t-28 99.5q0 87 72 143t181 56q107 0 184 -59zM538 825l-225 -100l-26 47l208 130z" />
    <glyph glyph-name="sacute" unicode="&#x15b;" horiz-adv-x="467" 
d="M432 480l-32 -60q-67 36 -117 36t-81.5 -20t-31.5 -54q0 -26 11.5 -41.5t42.5 -28.5l63 -27q57 -24 81 -54t24 -72q0 -80 -60.5 -126.5t-156.5 -46.5q-104 0 -172 48l32 60q68 -47 148 -47q53 0 87 23t34 61q0 31 -13.5 49.5t-49.5 34.5l-59 26q-52 23 -74.5 51t-22.5 71
q0 68 56.5 111.5t146.5 43.5q85 0 144 -38zM465 665l-225 -100l-26 47l208 130z" />
    <glyph glyph-name="Scircumflex" unicode="&#x15c;" horiz-adv-x="561" 
d="M563 642l-43 -61q-73 53 -151 53q-68 0 -111.5 -32.5t-43.5 -82.5q0 -42 18 -65.5t69 -45.5l72 -31q61 -26 87 -67.5t26 -105.5q0 -93 -76.5 -155t-205.5 -62q-107 0 -189 54l40 65q74 -52 164 -52q81 0 130 39t49 99q0 45 -19.5 71.5t-73.5 48.5l-62 26q-61 26 -89 64.5
t-28 99.5q0 87 72 143t181 56q107 0 184 -59zM559 765l-36 -44l-120 85l-154 -85l-31 44l197 135z" />
    <glyph glyph-name="scircumflex" unicode="&#x15d;" horiz-adv-x="467" 
d="M432 480l-32 -60q-67 36 -117 36t-81.5 -20t-31.5 -54q0 -26 11.5 -41.5t42.5 -28.5l63 -27q57 -24 81 -54t24 -72q0 -80 -60.5 -126.5t-156.5 -46.5q-104 0 -172 48l32 60q68 -47 148 -47q53 0 87 23t34 61q0 31 -13.5 49.5t-49.5 34.5l-59 26q-52 23 -74.5 51t-22.5 71
q0 68 56.5 111.5t146.5 43.5q85 0 144 -38zM469 605l-36 -44l-120 85l-154 -85l-31 44l197 135z" />
    <glyph glyph-name="Scedilla" unicode="&#x15e;" horiz-adv-x="561" 
d="M563 642l-43 -61q-73 53 -151 53q-68 0 -111.5 -32.5t-43.5 -82.5q0 -42 18 -65.5t69 -45.5l72 -31q61 -26 87 -67.5t26 -105.5q0 -87 -67.5 -147.5t-183.5 -68.5l-14 -30q53 -8 53 -50q0 -10 -3 -22q-7 -31 -39 -57t-77 -26q-38 0 -77 24l31 47q32 -16 58 -16
q15 0 29 10t14 26q0 23 -32 23q-25 0 -39 -2l36 73q-87 6 -160 53l40 65q74 -52 164 -52q81 0 130 39t49 99q0 45 -19.5 71.5t-73.5 48.5l-62 26q-61 26 -89 64.5t-28 99.5q0 87 72 143t181 56q107 0 184 -59z" />
    <glyph glyph-name="scedilla" unicode="&#x15f;" horiz-adv-x="467" 
d="M432 480l-32 -60q-67 36 -117 36t-81.5 -20t-31.5 -54q0 -26 11.5 -41.5t42.5 -28.5l63 -27q57 -24 81 -54t24 -72q0 -76 -56 -122.5t-145 -50.5l-13 -28q53 -8 53 -50q0 -10 -3 -22q-7 -31 -39 -57t-77 -26q-38 0 -77 24l31 47q32 -16 58 -16q15 0 29 10t14 26
q0 23 -32 23q-27 0 -39 -2l36 74q-79 10 -129 45l32 60q68 -47 148 -47q53 0 87 23t34 61q0 31 -13.5 49.5t-49.5 34.5l-59 26q-52 23 -74.5 51t-22.5 71q0 68 56.5 111.5t146.5 43.5q85 0 144 -38z" />
    <glyph glyph-name="Scaron" unicode="&#x160;" horiz-adv-x="561" 
d="M563 642l-43 -61q-73 53 -151 53q-68 0 -111.5 -32.5t-43.5 -82.5q0 -42 18 -65.5t69 -45.5l72 -31q61 -26 87 -67.5t26 -105.5q0 -93 -76.5 -155t-205.5 -62q-107 0 -189 54l40 65q74 -52 164 -52q81 0 130 39t49 99q0 45 -19.5 71.5t-73.5 48.5l-62 26q-61 26 -89 64.5
t-28 99.5q0 87 72 143t181 56q107 0 184 -59zM558 863l-197 -135l-144 135l36 44l120 -85l154 85z" />
    <glyph glyph-name="scaron" unicode="&#x161;" horiz-adv-x="467" 
d="M432 480l-32 -60q-67 36 -117 36t-81.5 -20t-31.5 -54q0 -26 11.5 -41.5t42.5 -28.5l63 -27q57 -24 81 -54t24 -72q0 -80 -60.5 -126.5t-156.5 -46.5q-104 0 -172 48l32 60q68 -47 148 -47q53 0 87 23t34 61q0 31 -13.5 49.5t-49.5 34.5l-59 26q-52 23 -74.5 51t-22.5 71
q0 68 56.5 111.5t146.5 43.5q85 0 144 -38zM479 693l-197 -135l-144 135l36 44l120 -85l154 85z" />
    <glyph glyph-name="Tcommaaccent" unicode="&#x162;" horiz-adv-x="464" 
d="M260 -114q-7 -31 -39 -57t-77 -26q-38 0 -77 24l31 47q32 -16 58 -16q15 0 29 10t14 26q0 23 -32 23q-21 0 -39 -2l41 85h-10l131 617h-184l15 69h454l-20 -69h-186l-131 -617h-9l-19 -42q53 -8 53 -50q0 -10 -3 -22z" />
    <glyph glyph-name="tcommaaccent" unicode="&#x163;" horiz-adv-x="306" 
d="M228 -92q0 -43 -36 -74t-82 -31q-39 0 -78 24l31 47q32 -16 58 -16q15 0 29 10t14 26q0 23 -32 23q-21 0 -39 -2l34 72q-60 12 -60 78q0 31 8 73l63 301h-65l11 59h66q18 73 35 126l85 18q-27 -76 -41 -144h124l-31 -59h-108l-62 -292q-7 -31 -7 -54q0 -27 11.5 -38
t38.5 -11q29 0 52 10v-50q-34 -14 -59 -18l-13 -28q53 -8 53 -50z" />
    <glyph glyph-name="Tcaron" unicode="&#x164;" horiz-adv-x="464" 
d="M575 686l-20 -69h-186l-131 -617h-79l131 617h-184l15 69h454zM542 860l-197 -135l-144 135l36 44l120 -85l154 85z" />
    <glyph glyph-name="tcaron" unicode="&#x165;" horiz-adv-x="306" 
d="M353 498l-31 -59h-108l-62 -292q-7 -31 -7 -54q0 -27 11.5 -38t38.5 -11q29 0 52 10v-50q-43 -20 -92 -20q-88 0 -88 81q0 31 8 73l63 301h-65l11 59h66q18 73 35 126l85 18q-27 -76 -41 -144h124zM437 691q0 -51 -45 -98q-32 -32 -72 -49l-20 33q49 21 65 68
q-17 0 -28 14t-11 33q0 25 16 40.5t41 15.5q23 0 38.5 -16t15.5 -41z" />
    <glyph glyph-name="Tbar" unicode="&#x166;" horiz-adv-x="464" 
d="M575 686l-20 -69h-186l-44 -208h102l-15 -68h-102l-72 -341h-79l72 341h-102l15 68h102l44 208h-184l15 69h454z" />
    <glyph glyph-name="tbar" unicode="&#x167;" horiz-adv-x="306" 
d="M28 229l11 59h67l32 151h-65l11 59h66q18 73 35 126l85 18q-27 -76 -41 -144h124l-31 -59h-108l-32 -151h126l-31 -59h-108l-17 -82q-7 -31 -7 -54q0 -27 11.5 -38t38.5 -11q29 0 52 10v-50q-43 -20 -92 -20q-88 0 -88 81q0 31 8 73l19 91h-66z" />
    <glyph glyph-name="Utilde" unicode="&#x168;" horiz-adv-x="635" 
d="M641 686l-101 -477q-16 -76 -33 -110t-53 -61q-69 -50 -183 -50q-88 0 -140 36.5t-52 110.5q0 47 9 91l98 460h81l-93 -439q-15 -71 -15 -105q0 -40 31.5 -62t89.5 -22q89 0 130 43q20 21 30 44.5t21 72.5l99 468h81zM603 816q-34 -33 -63.5 -48t-71.5 -15
q-31 0 -60.5 18.5t-58.5 18.5q-20 0 -35 -8t-42 -31l-19 45q34 33 63 48t71 15q31 0 60.5 -18.5t58.5 -18.5q34 0 78 39z" />
    <glyph glyph-name="utilde" unicode="&#x169;" horiz-adv-x="557" 
d="M520 506l-75 -353q-10 -50 -10 -66q0 -27 23 -58l-61 -50q-38 36 -38 90q0 13 1 20q-89 -106 -190 -106q-105 0 -105 100q0 35 8 73l72 338l80 15l-70 -335q-9 -47 -9 -65q0 -33 11 -46t38 -13q40 0 90 33t88 94l67 316zM535 656q-34 -33 -63.5 -48t-71.5 -15
q-31 0 -60.5 18.5t-58.5 18.5q-33 0 -77 -39l-19 45q34 33 63 48t71 15q31 0 60.5 -18.5t58.5 -18.5q34 0 78 39z" />
    <glyph glyph-name="Umacron" unicode="&#x16a;" horiz-adv-x="635" 
d="M641 686l-101 -477q-16 -76 -33 -110t-53 -61q-69 -50 -183 -50q-88 0 -140 36.5t-52 110.5q0 47 9 91l98 460h81l-93 -439q-15 -71 -15 -105q0 -40 31.5 -62t89.5 -22q89 0 130 43q20 21 30 44.5t21 72.5l99 468h81zM566 811l-13 -59h-274l13 59h274z" />
    <glyph glyph-name="umacron" unicode="&#x16b;" horiz-adv-x="557" 
d="M520 506l-75 -353q-10 -50 -10 -66q0 -27 23 -58l-61 -50q-38 36 -38 90q0 13 1 20q-89 -106 -190 -106q-105 0 -105 100q0 35 8 73l72 338l80 15l-70 -335q-9 -47 -9 -65q0 -33 11 -46t38 -13q40 0 90 33t88 94l67 316zM502 646l-12 -54h-274l12 54h274z" />
    <glyph glyph-name="Ubreve" unicode="&#x16c;" horiz-adv-x="635" 
d="M641 686l-101 -477q-16 -76 -33 -110t-53 -61q-69 -50 -183 -50q-88 0 -140 36.5t-52 110.5q0 47 9 91l98 460h81l-93 -439q-15 -71 -15 -105q0 -40 31.5 -62t89.5 -22q89 0 130 43q20 21 30 44.5t21 72.5l99 468h81zM609 828q-18 -16 -42.5 -34.5t-71 -42t-81.5 -23.5
t-70 23t-51.5 43t-24.5 34l45 38q17 -19 50.5 -37.5t74.5 -18.5q52 0 149 56z" />
    <glyph glyph-name="ubreve" unicode="&#x16d;" horiz-adv-x="557" 
d="M520 506l-75 -353q-10 -50 -10 -66q0 -27 23 -58l-61 -50q-38 36 -38 90q0 13 1 20q-89 -106 -190 -106q-105 0 -105 100q0 35 8 73l72 338l80 15l-70 -335q-9 -47 -9 -65q0 -33 11 -46t38 -13q40 0 90 33t88 94l67 316zM537 678q-18 -16 -42.5 -34.5t-71 -42
t-81.5 -23.5t-70 23t-51.5 43t-24.5 34l45 38q17 -19 50.5 -37.5t74.5 -18.5q52 0 149 56z" />
    <glyph glyph-name="Uring" unicode="&#x16e;" horiz-adv-x="635" 
d="M641 686l-101 -477q-16 -76 -33 -110t-53 -61q-69 -50 -183 -50q-88 0 -140 36.5t-52 110.5q0 47 9 91l98 460h81l-93 -439q-15 -71 -15 -105q0 -40 31.5 -62t89.5 -22q89 0 130 43q20 21 30 44.5t21 72.5l99 468h81zM523 819q0 -44 -31 -75t-74 -31t-74 31.5t-31 74.5
t31.5 74.5t74.5 31.5t73.5 -31t30.5 -75zM477 819q0 24 -17 42t-40 18q-25 0 -43.5 -18t-18.5 -42t18.5 -42t41.5 -18q24 0 41.5 18t17.5 42z" />
    <glyph glyph-name="uring" unicode="&#x16f;" horiz-adv-x="557" 
d="M520 506l-75 -353q-10 -50 -10 -66q0 -27 23 -58l-61 -50q-38 36 -38 90q0 13 1 20q-89 -106 -190 -106q-105 0 -105 100q0 35 8 73l72 338l80 15l-70 -335q-9 -47 -9 -65q0 -33 11 -46t38 -13q40 0 90 33t88 94l67 316zM460 659q0 -44 -31 -75t-74 -31t-74 31.5
t-31 74.5t31.5 74.5t74.5 31.5t73.5 -31t30.5 -75zM414 659q0 24 -17 42t-40 18q-25 0 -43.5 -18t-18.5 -42t18.5 -42t41.5 -18q24 0 41.5 18t17.5 42z" />
    <glyph glyph-name="Uhungarumlaut" unicode="&#x170;" horiz-adv-x="635" 
d="M641 686l-101 -477q-16 -76 -33 -110t-53 -61q-69 -50 -183 -50q-88 0 -140 36.5t-52 110.5q0 47 9 91l98 460h81l-93 -439q-15 -71 -15 -105q0 -40 31.5 -62t89.5 -22q89 0 130 43q20 21 30 44.5t21 72.5l99 468h81zM726 872l-216 -140l-33 36l193 161zM513 895
l-188 -171l-42 28l162 187z" />
    <glyph glyph-name="uhungarumlaut" unicode="&#x171;" horiz-adv-x="557" 
d="M520 506l-75 -353q-10 -50 -10 -66q0 -27 23 -58l-61 -50q-38 36 -38 90q0 13 1 20q-89 -106 -190 -106q-105 0 -105 100q0 35 8 73l72 338l80 15l-70 -335q-9 -47 -9 -65q0 -33 11 -46t38 -13q40 0 90 33t88 94l67 316zM619 744l-191 -173l-38 31l165 189zM432 763
l-159 -198l-46 21l131 210z" />
    <glyph glyph-name="Uogonek" unicode="&#x172;" horiz-adv-x="635" 
d="M641 686l-101 -477q-16 -76 -33 -110t-53 -61q-49 -36 -104 -44q-35 -6 -68.5 -38t-33.5 -67q0 -27 29 -27q31 0 64 14l11 -47q-48 -24 -87 -24q-40 0 -60.5 19t-20.5 49q0 5 2 19q11 53 55 97q-75 5 -118.5 41.5t-43.5 104.5q0 47 9 91l98 460h81l-93 -439
q-15 -71 -15 -105q0 -40 31.5 -62t89.5 -22q89 0 130 43q20 21 30 44.5t21 72.5l99 468h81z" />
    <glyph glyph-name="uogonek" unicode="&#x173;" horiz-adv-x="557" 
d="M520 506l-75 -353q-10 -50 -10 -66q0 -27 23 -58q-42 -27 -83.5 -67.5t-41.5 -72.5q0 -27 29 -27q31 0 64 14l11 -47q-48 -24 -87 -24t-60 18.5t-21 47.5q0 75 100 146q-11 29 -10 55l1 17q-89 -106 -190 -106q-105 0 -105 100q0 35 8 73l72 338l80 15l-70 -335
q-9 -47 -9 -65q0 -33 11 -46t38 -13q40 0 90 33t88 94l67 316z" />
    <glyph glyph-name="Wcircumflex" unicode="&#x174;" horiz-adv-x="802" 
d="M883 686l-303 -686h-107l-4 381q-1 104 6 195q-28 -75 -76 -189l-166 -387h-106l-16 686h84l2 -401q0 -75 -8 -209q34 88 82 199l178 411h93l4 -398q2 -158 -4 -212q32 88 85 212l170 398h86zM682 765l-36 -44l-120 85l-154 -85l-31 44l197 135z" />
    <glyph glyph-name="wcircumflex" unicode="&#x175;" horiz-adv-x="684" 
d="M726 498l-248 -502h-74l-30 405h-2q-9 -27 -21 -51l-176 -354h-73l-32 498l79 17l10 -329v-36.5v-32.5v-14h3q18 42 33 72l159 327h84l17 -331q0 -12 1 -30t2 -30t1 -13h2q2 3 7.5 16t12.5 29.5t10 23.5l150 335h85zM581 605l-36 -44l-120 85l-154 -85l-31 44l197 135z
" />
    <glyph glyph-name="Ycircumflex" unicode="&#x176;" horiz-adv-x="539" 
d="M630 686l-312 -419l-57 -267h-85l58 272l-133 414h97l74 -262q15 -53 19 -77q21 32 53 77l188 262h98zM527 765l-36 -44l-120 85l-154 -85l-31 44l197 135z" />
    <glyph glyph-name="ycircumflex" unicode="&#x177;" horiz-adv-x="461" 
d="M502 498l-230 -422q-9 -16 -32.5 -60.5t-33 -60.5t-27 -44t-31.5 -44.5t-30 -28.5q-40 -32 -97 -43l-18 53q42 4 88 46q34 31 64 106l-32 -4q2 63 -12 179l-41 317l82 17l34 -319q6 -66 3 -124h2l54 105l167 327h90zM464 605l-36 -44l-120 85l-154 -85l-31 44l197 135z
" />
    <glyph glyph-name="Ydieresis" unicode="&#x178;" horiz-adv-x="539" 
d="M630 686l-312 -419l-57 -267h-85l58 272l-133 414h97l74 -262q15 -53 19 -77q21 32 53 77l188 262h98zM323 781q0 -22 -14.5 -37.5t-36.5 -15.5t-37 15.5t-15 37.5q0 21 15 36t36 15q22 0 37 -15t15 -36zM530 781q0 -22 -14.5 -37.5t-36.5 -15.5t-37 15.5t-15 37.5
q0 21 15 36t36 15q22 0 37 -15t15 -36z" />
    <glyph glyph-name="Zacute" unicode="&#x179;" horiz-adv-x="523" 
d="M561 621l-392 -486q-16 -20 -56 -66q24 1 59 1h272l-26 -70h-409v63l401 489q48 56 58 66q-19 -1 -71 -1h-256l28 69h392v-65zM517 825l-225 -100l-26 47l208 130z" />
    <glyph glyph-name="zacute" unicode="&#x17a;" horiz-adv-x="412" 
d="M419 436l-348 -376h276l-36 -60h-337v60l348 376h-234v62h331v-62zM409 665l-225 -100l-26 47l208 130z" />
    <glyph glyph-name="Zdotaccent" unicode="&#x17b;" horiz-adv-x="523" 
d="M561 621l-392 -486q-16 -20 -56 -66q24 1 59 1h272l-26 -70h-409v63l401 489q48 56 58 66q-19 -1 -71 -1h-256l28 69h392v-65zM425 789q0 -25 -17.5 -43t-43.5 -18q-25 0 -43 17.5t-18 42.5q0 26 18 44t43 18q26 0 43.5 -18t17.5 -43z" />
    <glyph glyph-name="zdotaccent" unicode="&#x17c;" horiz-adv-x="412" 
d="M419 436l-348 -376h276l-36 -60h-337v60l348 376h-234v62h331v-62zM332 652q0 -26 -18 -43.5t-43 -17.5t-43 17.5t-18 42.5q0 26 18 44t43 18t43 -17.5t18 -43.5z" />
    <glyph glyph-name="Zcaron" unicode="&#x17d;" horiz-adv-x="523" 
d="M561 621l-392 -486q-16 -20 -56 -66q24 1 59 1h272l-26 -70h-409v63l401 489q48 56 58 66q-19 -1 -71 -1h-256l28 69h392v-65zM553 863l-197 -135l-144 135l36 44l120 -85l154 85z" />
    <glyph glyph-name="zcaron" unicode="&#x17e;" horiz-adv-x="412" 
d="M419 436l-348 -376h276l-36 -60h-337v60l348 376h-234v62h331v-62zM465 693l-197 -135l-144 135l36 44l120 -85l154 85z" />
    <glyph glyph-name="longs" unicode="&#x17f;" horiz-adv-x="326" 
d="M382 724q60 0 105 -33l-44 -51q-43 24 -79 24q-102 0 -139 -181q-101 -481 -104 -497q-25 -130 -76 -194l-65 35q41 58 64 166l91 446h-74l13 59h74l4 17q27 114 82.5 161.5t147.5 47.5z" />
    <glyph glyph-name="uni018F" unicode="&#x18f;" horiz-adv-x="599" 
d="M363 374q18 0 108 -3q6 45 6 93q-1 81 -40.5 124.5t-103.5 43.5q-57 0 -101.5 -18.5t-89.5 -61.5l-38 54q51 50 107.5 71t138.5 21q104 0 162 -65.5t58 -179.5q0 -104 -35.5 -207t-101.5 -168q-92 -91 -212 -91q-87 0 -134 46t-47 122q0 52 20.5 91.5t52.5 63t76 38.5
t86 20.5t88 5.5zM233 50q77 0 137.5 71.5t88.5 185.5q-26 1 -86 1q-249 0 -249 -151q0 -46 28.5 -76.5t80.5 -30.5z" />
    <glyph glyph-name="florin" unicode="&#x192;" horiz-adv-x="290" 
d="M463 695l-38 -55q-30 23 -69 23q-66 0 -86 -88l-17 -77h134l-37 -59h-110l-91 -396q-24 -108 -50.5 -151t-115.5 -90l-28 56q18 10 32.5 20.5t24.5 18.5t18 21.5t12.5 20t10 24t7 24t6.5 29.5t7 32l89 391h-46l9 59h50l18 78q17 75 63.5 111.5t107.5 36.5t99 -29z" />
    <glyph glyph-name="uni01B5" unicode="&#x1b5;" horiz-adv-x="523" 
d="M561 621l-194 -240h100l-14 -62h-136l-148 -184q-16 -20 -56 -66q24 1 59 1h272l-26 -70h-409v63l210 256h-101l14 62h138l140 171q48 56 58 66q-19 -1 -71 -1h-256l28 69h392v-65z" />
    <glyph glyph-name="uni01B6" unicode="&#x1b6;" horiz-adv-x="412" 
d="M351 284l-12 -54h-111l-157 -170h276l-36 -60h-337v60l157 170h-74l12 54h112l141 152h-234v62h331v-62l-141 -152h73z" />
    <glyph glyph-name="uni01C4" unicode="&#x1c4;" horiz-adv-x="1158" 
d="M604 433q0 -89 -43 -193.5t-101 -156.5q-49 -44 -104 -63.5t-132 -19.5h-179l146 686h147q77 0 119.5 -11t78.5 -42q68 -58 68 -200zM515 423q0 92 -27 134q-23 38 -55.5 50t-91.5 12h-82l-117 -551h73q140 0 198 71q48 59 75 140t27 144zM1196 621l-392 -486
q-16 -20 -56 -66q24 1 59 1h272l-26 -70h-409v63l401 489q48 56 58 66q-19 -1 -71 -1h-256l28 69h392v-65zM1188 863l-197 -135l-144 135l36 44l120 -85l154 85z" />
    <glyph glyph-name="uni01C5" unicode="&#x1c5;" horiz-adv-x="1047" 
d="M604 433q0 -89 -43 -193.5t-101 -156.5q-49 -44 -104 -63.5t-132 -19.5h-179l146 686h147q77 0 119.5 -11t78.5 -42q68 -58 68 -200zM515 423q0 92 -27 134q-23 38 -55.5 50t-91.5 12h-82l-117 -551h73q140 0 198 71q48 59 75 140t27 144zM1054 436l-348 -376h276
l-36 -60h-337v60l348 376h-234v62h331v-62zM1100 693l-197 -135l-144 135l36 44l120 -85l154 85z" />
    <glyph glyph-name="uni01C6" unicode="&#x1c6;" horiz-adv-x="982" 
d="M578 717l-119 -556q-9 -44 -9 -68q0 -33 25 -64l-67 -50q-41 41 -38 90l1 17q-71 -93 -175 -93q-139 0 -139 167q0 76 29 149t82 127q34 35 82 53.5t91 18.5q73 0 110 -19l51 241zM435 422q-41 21 -96 21q-30 0 -63.5 -15.5t-56.5 -39.5q-33 -36 -56 -105.5t-23 -126.5
q0 -97 73 -97q102 0 171 119zM989 436l-348 -376h276l-36 -60h-337v60l348 376h-234v62h331v-62zM1035 693l-197 -135l-144 135l36 44l120 -85l154 85z" />
    <glyph glyph-name="uni01C7" unicode="&#x1c7;" horiz-adv-x="735" 
d="M413 69l-26 -69h-342l146 686h82l-131 -617h271zM736 686l-121 -569q-24 -113 -58 -157q-48 -61 -135 -88l-29 51q64 24 96 67q24 30 44 125l121 571h82z" />
    <glyph glyph-name="uni01C8" unicode="&#x1c8;" horiz-adv-x="732" 
d="M413 69l-26 -69h-342l146 686h82l-131 -617h271zM696 510l-106 -497q-20 -92 -56 -138.5t-105 -72.5l-28 52q51 22 72.5 54t38.5 109l101 477zM748 661q-1 -26 -18.5 -44t-42.5 -18q-26 0 -44 17.5t-18 42.5q1 26 19 44.5t43 18.5t43 -18t18 -43z" />
    <glyph glyph-name="uni01C9" unicode="&#x1c9;" horiz-adv-x="538" 
d="M250 737q7 -21 7 -57q0 -54 -15 -125l-95 -445q-5 -23 -5 -36q0 -24 21 -24q14 0 19 2l5 -51q-26 -11 -61 -11q-66 0 -66 59q0 16 5 43l98 463q11 50 11 93q0 31 -7 57zM502 510l-106 -497q-20 -92 -56 -138.5t-105 -72.5l-28 52q51 22 72.5 54t38.5 109l101 477z
M554 661q-1 -26 -18.5 -44t-42.5 -18q-26 0 -44 17.5t-18 42.5q1 26 19 44.5t43 18.5t43 -18t18 -43z" />
    <glyph glyph-name="uni01CA" unicode="&#x1ca;" horiz-adv-x="918" 
d="M647 686l-146 -686h-86l-131 420q-36 113 -43 164l-4 -28q-4 -28 -11 -74t-15 -84l-81 -398h-85l146 686h95l135 -438q13 -43 33 -143q0 1 2 14t5.5 34t7.5 46t9.5 56t11.5 58l76 373h81zM919 686l-121 -569q-24 -113 -58 -157q-48 -61 -135 -88l-29 51q64 24 96 67
q24 30 44 125l121 571h82z" />
    <glyph glyph-name="uni01CB" unicode="&#x1cb;" horiz-adv-x="915" 
d="M647 686l-146 -686h-86l-131 420q-36 113 -43 164l-4 -28q-4 -28 -11 -74t-15 -84l-81 -398h-85l146 686h95l135 -438q13 -43 33 -143q0 1 2 14t5.5 34t7.5 46t9.5 56t11.5 58l76 373h81zM879 510l-106 -497q-20 -92 -56 -138.5t-105 -72.5l-28 52q51 22 72.5 54
t38.5 109l101 477zM931 661q-1 -26 -18.5 -44t-42.5 -18q-26 0 -44 17.5t-18 42.5q1 26 19 44.5t43 18.5t43 -18t18 -43z" />
    <glyph glyph-name="uni01CC" unicode="&#x1cc;" horiz-adv-x="825" 
d="M495 410q0 -16 -3 -32l-81 -378h-79l72 337q8 35 8 54q0 50 -48 50q-34 0 -80.5 -28.5t-93.5 -87.5l-69 -325h-76l76 356q11 55 11 76q0 23 -7 47l73 34q12 -34 12 -60q0 -22 -7 -50q39 52 91 79t102 27q46 0 72.5 -26.5t26.5 -72.5zM789 510l-106 -497
q-20 -92 -56 -138.5t-105 -72.5l-28 52q51 22 72.5 54t38.5 109l101 477zM841 661q-1 -26 -18.5 -44t-42.5 -18q-26 0 -44 17.5t-18 42.5q1 26 19 44.5t43 18.5t43 -18t18 -43z" />
    <glyph glyph-name="uni01F1" unicode="&#x1f1;" horiz-adv-x="1158" 
d="M604 433q0 -89 -43 -193.5t-101 -156.5q-49 -44 -104 -63.5t-132 -19.5h-179l146 686h147q77 0 119.5 -11t78.5 -42q68 -58 68 -200zM515 423q0 92 -27 134q-23 38 -55.5 50t-91.5 12h-82l-117 -551h73q140 0 198 71q48 59 75 140t27 144zM1196 621l-392 -486
q-16 -20 -56 -66q24 1 59 1h272l-26 -70h-409v63l401 489q48 56 58 66q-19 -1 -71 -1h-256l28 69h392v-65z" />
    <glyph glyph-name="uni01F2" unicode="&#x1f2;" horiz-adv-x="1047" 
d="M604 433q0 -89 -43 -193.5t-101 -156.5q-49 -44 -104 -63.5t-132 -19.5h-179l146 686h147q77 0 119.5 -11t78.5 -42q68 -58 68 -200zM515 423q0 92 -27 134q-23 38 -55.5 50t-91.5 12h-82l-117 -551h73q140 0 198 71q48 59 75 140t27 144zM1054 436l-348 -376h276
l-36 -60h-337v60l348 376h-234v62h331v-62z" />
    <glyph glyph-name="uni01F3" unicode="&#x1f3;" horiz-adv-x="982" 
d="M578 717l-119 -556q-9 -44 -9 -68q0 -33 25 -64l-67 -50q-41 41 -38 90l1 17q-71 -93 -175 -93q-139 0 -139 167q0 76 29 149t82 127q34 35 82 53.5t91 18.5q73 0 110 -19l51 241zM435 422q-41 21 -96 21q-30 0 -63.5 -15.5t-56.5 -39.5q-33 -36 -56 -105.5t-23 -126.5
q0 -97 73 -97q102 0 171 119zM989 436l-348 -376h276l-36 -60h-337v60l348 376h-234v62h331v-62z" />
    <glyph glyph-name="Aringacute" unicode="&#x1fa;" horiz-adv-x="573" 
d="M518 0h-89l-20 211h-256l-111 -211h-87l375 686h107zM402 278l-35 338q-35 -70 -43 -85l-135 -253h213zM501 819q0 -44 -31 -75t-74 -31t-74 31.5t-31 74.5t31.5 74.5t74.5 31.5t73.5 -31t30.5 -75zM455 819q0 24 -17 42t-40 18q-25 0 -43.5 -18t-18.5 -42t18.5 -42
t41.5 -18q24 0 41.5 18t17.5 42zM553 1025l-225 -100l-26 47l208 130z" />
    <glyph glyph-name="aringacute" unicode="&#x1fb;" 
d="M500 471q-14 -50 -26 -104l-43 -206q-9 -44 -9 -68q0 -35 26 -64l-62 -48q-38 39 -38 91q0 12 1 18q-26 -46 -71 -72.5t-102 -26.5q-50 0 -84.5 40t-34.5 118q0 76 28 153t76 126q82 84 199 84q82 0 140 -41zM413 435q-23 14 -60 14q-85 0 -145 -72q-35 -42 -52.5 -105
t-17.5 -124q0 -48 18 -69t54 -21q39 0 80.5 33.5t68.5 86.5zM464 659q0 -44 -31 -75t-74 -31t-74 31.5t-31 74.5t31.5 74.5t74.5 31.5t73.5 -31t30.5 -75zM418 659q0 24 -17 42t-40 18q-25 0 -43.5 -18t-18.5 -42t18.5 -42t41.5 -18q24 0 41.5 18t17.5 42zM539 865
l-225 -100l-26 47l208 130z" />
    <glyph glyph-name="AEacute" unicode="&#x1fc;" horiz-adv-x="821" 
d="M875 686l-25 -68h-276l-47 -225h235l-15 -71h-235l-54 -251h302l-15 -71h-385l45 211h-226l-175 -211h-99l569 686h401zM486 598l-252 -320h185zM779 825l-225 -100l-26 47l208 130z" />
    <glyph glyph-name="aeacute" unicode="&#x1fd;" horiz-adv-x="782" 
d="M750 386q0 -61 -47 -105q-64 -59 -215 -59q-18 0 -62 2q-7 -32 -7 -63q0 -50 28.5 -78.5t70.5 -28.5q47 0 80 12t68 43l31 -47q-36 -38 -82.5 -55.5t-119.5 -17.5q-87 0 -137 81q-69 -83 -171 -83q-71 0 -106 35.5t-35 90.5q0 87 85 140q62 38 184 38q42 0 54 -2l13 53
q7 27 7 53q0 24 -18.5 38t-50.5 14q-84 0 -170 -59l-27 56q114 67 222 67q87 0 109 -71q69 72 160 72q66 0 101 -33.5t35 -92.5zM357 234q-1 0 -21 1t-36 1q-77 0 -110 -19q-63 -35 -63 -90q0 -38 21 -60t55 -22q60 0 104 52q27 32 50 137zM670 381q0 31 -18.5 50t-57.5 19
q-49 0 -92.5 -45.5t-62.5 -121.5q14 -1 51 -1q117 0 155 38q25 25 25 61zM596 665l-225 -100l-26 47l208 130z" />
    <glyph glyph-name="Oslashacute" unicode="&#x1fe;" horiz-adv-x="686" 
d="M717 726l-97 -119q34 -57 34 -141q0 -128 -43 -242t-122 -175q-44 -34 -90 -48t-108 -14q-85 0 -139 45l-92 -113l-45 32l100 123q-38 61 -38 156q0 109 38 213.5t97 164.5q46 47 99.5 68.5t127.5 21.5q89 0 144 -47l87 107zM533 589q-36 44 -108 44q-104 0 -164 -81
q-43 -58 -69 -148t-26 -193q0 -32 7 -65zM566 474q0 32 -6 58l-360 -440q37 -43 109 -43q78 0 140 60q49 49 83 159.5t34 205.5zM659 825l-225 -100l-26 47l208 130z" />
    <glyph glyph-name="oslashacute" unicode="&#x1ff;" horiz-adv-x="544" 
d="M541 535l-73 -90q30 -45 30 -117q0 -147 -78 -246t-199 -99q-65 0 -105 30l-65 -79l-41 30l70 86q-28 47 -28 113q0 148 79 247t198 99q61 0 102 -27l67 83zM413 337q0 23 -4 36l-245 -301q24 -25 72 -25q83 0 130 84.5t47 205.5zM382 422q-25 24 -67 24
q-82 0 -130 -81.5t-48 -206.5q0 -19 3 -34zM528 665l-225 -100l-26 47l208 130z" />
    <glyph glyph-name="Scommaaccent" unicode="&#x218;" horiz-adv-x="561" 
d="M563 642l-43 -61q-73 53 -151 53q-68 0 -111.5 -32.5t-43.5 -82.5q0 -42 18 -65.5t69 -45.5l72 -31q61 -26 87 -67.5t26 -105.5q0 -93 -76.5 -155t-205.5 -62q-107 0 -189 54l40 65q74 -52 164 -52q81 0 130 39t49 99q0 45 -19.5 71.5t-73.5 48.5l-62 26q-61 26 -89 64.5
t-28 99.5q0 87 72 143t181 56q107 0 184 -59zM269 -119q0 -53 -48 -103q-31 -31 -75 -51l-21 35q52 23 69 71q-18 0 -30 15t-12 35q0 26 17 42t43 16q24 0 40.5 -16.5t16.5 -43.5z" />
    <glyph glyph-name="scommaaccent" unicode="&#x219;" horiz-adv-x="467" 
d="M432 480l-32 -60q-67 36 -117 36t-81.5 -20t-31.5 -54q0 -26 11.5 -41.5t42.5 -28.5l63 -27q57 -24 81 -54t24 -72q0 -80 -60.5 -126.5t-156.5 -46.5q-104 0 -172 48l32 60q68 -47 148 -47q53 0 87 23t34 61q0 31 -13.5 49.5t-49.5 34.5l-59 26q-52 23 -74.5 51t-22.5 71
q0 68 56.5 111.5t146.5 43.5q85 0 144 -38zM234 -119q0 -53 -48 -103q-31 -31 -75 -51l-21 35q52 23 69 71q-18 0 -30 15t-12 35q0 26 17 42t43 16q24 0 40.5 -16.5t16.5 -43.5z" />
    <glyph glyph-name="uni021A" unicode="&#x21a;" horiz-adv-x="464" 
d="M575 686l-20 -69h-186l-131 -617h-79l131 617h-184l15 69h454zM243 -119q0 -53 -48 -103q-31 -31 -75 -51l-21 35q52 23 69 71q-18 0 -30 15t-12 35q0 26 17 42t43 16q24 0 40.5 -16.5t16.5 -43.5z" />
    <glyph glyph-name="uni021B" unicode="&#x21b;" horiz-adv-x="306" 
d="M353 498l-31 -59h-108l-62 -292q-7 -31 -7 -54q0 -27 11.5 -38t38.5 -11q29 0 52 10v-50q-43 -20 -92 -20q-88 0 -88 81q0 31 8 73l63 301h-65l11 59h66q18 73 35 126l85 18q-27 -76 -41 -144h124zM184 -119q0 -53 -48 -103q-31 -31 -75 -51l-21 35q52 23 69 71
q-18 0 -30 15t-12 35q0 26 17 42t43 16q24 0 40.5 -16.5t16.5 -43.5z" />
    <glyph glyph-name="uni0237" unicode="&#x237;" horiz-adv-x="269" 
d="M233 510l-106 -497q-20 -92 -56 -138.5t-105 -72.5l-28 52q51 22 72.5 54t38.5 109l101 477z" />
    <glyph glyph-name="uni0259" unicode="&#x259;" horiz-adv-x="495" 
d="M31 118q0 61 46 104q61 57 215 57q40 0 62 -2q7 32 7 63q0 50 -28.5 78.5t-70.5 28.5q-46 0 -78.5 -12.5t-67.5 -44.5l-33 48q39 40 84 57t118 17q71 0 117 -48.5t46 -131.5q0 -75 -28.5 -150t-81.5 -123q-74 -70 -164 -70q-69 0 -106 34.5t-37 94.5zM110 120
q0 -31 18.5 -50t57.5 -19q49 0 92.5 45.5t62.5 121.5q-14 1 -51 1q-117 0 -155 -38q-25 -25 -25 -61z" />
    <glyph glyph-name="uni02BB" unicode="&#x2bb;" horiz-adv-x="271" 
d="M308 667q-65 -29 -86 -89q22 0 37 -18.5t15 -43.5q-1 -33 -22 -53t-53 -20q-30 0 -50.5 21t-20.5 54q0 70 59 129q42 40 95 64z" />
    <glyph glyph-name="afii57929" unicode="&#x2bc;" horiz-adv-x="271" 
d="M285 623q0 -70 -59 -129q-42 -40 -95 -64l-26 44q65 29 86 89q-22 0 -37 18.5t-15 43.5q1 33 22 53t53 20q30 0 50.5 -21t20.5 -54z" />
    <glyph glyph-name="circumflex" unicode="&#x2c6;" horiz-adv-x="391" 
d="M445 605l-36 -44l-120 85l-154 -85l-31 44l197 135z" />
    <glyph glyph-name="caron" unicode="&#x2c7;" horiz-adv-x="391" 
d="M464 693l-197 -135l-144 135l36 44l120 -85l154 85z" />
    <glyph glyph-name="breve" unicode="&#x2d8;" horiz-adv-x="390" 
d="M462 693q-16 -17 -41.5 -39.5t-72 -49t-81.5 -26.5q-50 0 -90.5 42t-55.5 73l45 44q10 -12 24.5 -25t43 -26.5t57.5 -13.5q54 0 149 65z" />
    <glyph glyph-name="dotaccent" unicode="&#x2d9;" horiz-adv-x="174" 
d="M237 652q0 -26 -17.5 -43.5t-43.5 -17.5q-25 0 -43 17.5t-18 42.5q0 26 18 44t43 18q26 0 43.5 -17.5t17.5 -43.5z" />
    <glyph glyph-name="ring" unicode="&#x2da;" horiz-adv-x="264" 
d="M327 659q0 -44 -31 -75t-74 -31t-74 31.5t-31 74.5t31.5 74.5t74.5 31.5t73.5 -31t30.5 -75zM281 659q0 24 -17 42t-40 18q-25 0 -43.5 -18t-18.5 -42t18.5 -42t41.5 -18q24 0 41.5 18t17.5 42z" />
    <glyph glyph-name="ogonek" unicode="&#x2db;" horiz-adv-x="250" 
d="M127 -173q-48 -24 -87 -24q-40 0 -60.5 19t-20.5 49q0 5 2 19q9 41 37 75t55 52l45 -29q-28 -20 -51.5 -48t-23.5 -53q0 -27 29 -27q31 0 64 14z" />
    <glyph glyph-name="tilde" unicode="&#x2dc;" horiz-adv-x="396" 
d="M461 656q-34 -33 -63.5 -48t-71.5 -15q-31 0 -60.5 18.5t-58.5 18.5q-34 0 -77 -39l-19 45q34 33 63 48t71 15q31 0 60.5 -18.5t58.5 -18.5q34 0 78 39z" />
    <glyph glyph-name="hungarumlaut" unicode="&#x2dd;" horiz-adv-x="409" 
d="M481 703l-191 -173l-38 31l165 189zM294 722l-159 -198l-46 21l131 210z" />
    <glyph glyph-name="gravecomb" unicode="&#x300;" horiz-adv-x="1" 
d="M0 612l-26 -47l-223 100l43 77z" />
    <glyph glyph-name="acutecomb" unicode="&#x301;" horiz-adv-x="1" 
d="M-18 665l-225 -100l-26 47l208 130z" />
    <glyph glyph-name="uni0302" unicode="&#x302;" horiz-adv-x="1" 
d="M0 605l-36 -44l-120 85l-154 -85l-31 44l197 135z" />
    <glyph glyph-name="tildecomb" unicode="&#x303;" horiz-adv-x="1" 
d="M0 656q-34 -33 -63.5 -48t-71.5 -15q-31 0 -60.5 18.5t-58.5 18.5q-33 0 -77 -39l-19 45q34 33 63 48t71 15q31 0 60.5 -18.5t58.5 -18.5q34 0 78 39z" />
    <glyph glyph-name="uni0304" unicode="&#x304;" horiz-adv-x="1" 
d="M0 622l-12 -54h-274l12 54h274z" />
    <glyph glyph-name="uni0306" unicode="&#x306;" horiz-adv-x="1" 
d="M73 673q-16 -17 -41.5 -39.5t-72 -49t-81.5 -26.5q-50 0 -90.5 42t-55.5 73l45 44q10 -12 24.5 -25t43 -26.5t57.5 -13.5q54 0 149 65z" />
    <glyph glyph-name="uni0307" unicode="&#x307;" horiz-adv-x="1" 
d="M0 652q0 -26 -18 -43.5t-43 -17.5t-43 17.5t-18 42.5q0 26 18 44t43 18t43 -17.5t18 -43.5z" />
    <glyph glyph-name="uni0308" unicode="&#x308;" horiz-adv-x="1" 
d="M27 621q0 -22 -15 -37.5t-36 -15.5q-22 0 -37.5 15.5t-15.5 37.5q0 21 15 36t37 15q21 0 36.5 -15t15.5 -36zM-180 621q0 -22 -14.5 -37.5t-36.5 -15.5t-37 15.5t-15 37.5q0 21 15 36t36 15q22 0 37 -15t15 -36z" />
    <glyph glyph-name="uni030A" unicode="&#x30a;" horiz-adv-x="1" 
d="M0 659q0 -44 -31 -75t-74 -31t-74 31.5t-31 74.5t31.5 74.5t74.5 31.5t73.5 -31t30.5 -75zM-46 659q0 24 -17 42t-40 18q-25 0 -43.5 -18t-18.5 -42t18.5 -42t41.5 -18q24 0 41.5 18t17.5 42z" />
    <glyph glyph-name="uni030B" unicode="&#x30b;" horiz-adv-x="1" 
d="M0 744l-191 -173l-38 31l165 189zM-187 763l-159 -198l-46 21l131 210z" />
    <glyph glyph-name="uni030C" unicode="&#x30c;" horiz-adv-x="1" 
d="M0 693l-197 -135l-144 135l36 44l120 -85l154 85z" />
    <glyph glyph-name="uni0312" unicode="&#x312;" horiz-adv-x="1" 
d="M-144 652q0 53 48 103q31 31 75 51l21 -35q-52 -23 -69 -71q18 0 30 -15t12 -35q0 -26 -17 -42t-43 -16q-24 0 -40.5 16.5t-16.5 43.5z" />
    <glyph glyph-name="uni0313" unicode="&#x313;" horiz-adv-x="1" 
d="M-11 629q0 -51 -45 -98q-32 -32 -72 -49l-20 33q49 21 65 68q-17 0 -28 14t-11 33q0 25 16 40.5t41 15.5q23 0 38.5 -16t15.5 -41z" />
    <glyph glyph-name="uni0326" unicode="&#x326;" horiz-adv-x="1" 
d="M0 -119q0 -53 -48 -103q-31 -31 -75 -51l-21 35q52 23 69 71q-18 0 -30 15t-12 35q0 26 17 42t43 16q24 0 40.5 -16.5t16.5 -43.5z" />
    <glyph glyph-name="uni0327" unicode="&#x327;" horiz-adv-x="1" 
d="M0 -92q0 -43 -36 -74t-82 -31q-39 0 -78 24l31 47q32 -16 58 -16q15 0 29 10t14 26q0 23 -32 23q-21 0 -39 -2l47 97l57 -7l-22 -47q53 -8 53 -50z" />
    <glyph glyph-name="uni0328" unicode="&#x328;" horiz-adv-x="1" 
d="M0 -173q-48 -24 -87 -24q-40 0 -60.5 19t-20.5 49q0 5 2 19q9 41 37 75t55 52l45 -29q-28 -20 -51.5 -48t-23.5 -53q0 -27 29 -27q31 0 64 14z" />
    <glyph glyph-name="uni037E" unicode="&#x37e;" horiz-adv-x="321" 
d="M198 50q0 -70 -59 -129q-42 -40 -95 -64l-26 44q65 29 86 89q-22 0 -37 18.5t-15 43.5q1 33 22 53t53 20q30 0 50.5 -21t20.5 -54zM253 372q0 -28 -20 -48.5t-47 -20.5q-28 0 -47.5 20t-19.5 49q0 28 19 47t47 19q29 0 48.5 -19t19.5 -47z" />
    <glyph glyph-name="tonos" unicode="&#x384;" horiz-adv-x="310" 
d="M278 721l-156 -157l-31 26l129 180z" />
    <glyph glyph-name="dieresistonos" unicode="&#x385;" horiz-adv-x="422" 
d="M448 621q0 -22 -15 -37.5t-36 -15.5q-22 0 -37.5 15.5t-15.5 37.5q0 21 15 36t37 15q21 0 36.5 -15t15.5 -36zM408 751l-156 -157l-31 26l129 180zM191 621q0 -22 -14.5 -37.5t-36.5 -15.5t-37 15.5t-15 37.5q0 21 15 36t36 15q22 0 37 -15t15 -36z" />
    <glyph glyph-name="Alphatonos" unicode="&#x386;" horiz-adv-x="573" 
d="M518 0h-89l-20 211h-256l-111 -211h-87l375 686h107zM402 278l-35 338q-35 -70 -43 -85l-135 -253h213zM153 649l-156 -157l-31 26l129 180z" />
    <glyph glyph-name="anoteleia" unicode="&#x387;" horiz-adv-x="304" 
d="M226 279q0 -27 -19.5 -46.5t-46.5 -19.5t-46 19.5t-19 48.5q0 27 19 45.5t46 18.5t46 -19t20 -47z" />
    <glyph glyph-name="Epsilontonos" unicode="&#x388;" horiz-adv-x="512" 
d="M566 686l-26 -68h-281l-47 -225h235l-16 -71h-235l-53 -251h302l-15 -71h-385l146 686h375zM73 649l-156 -157l-31 26l129 180z" />
    <glyph glyph-name="Etatonos" unicode="&#x389;" horiz-adv-x="641" 
d="M642 686l-146 -686h-82l71 332h-289l-71 -332h-80l146 686h80l-61 -287h289l61 287h82zM73 649l-156 -157l-31 26l129 180z" />
    <glyph glyph-name="Iotatonos" unicode="&#x38a;" horiz-adv-x="270" 
d="M271 686l-146 -686h-80l146 686h80zM83 649l-156 -157l-31 26l129 180z" />
    <glyph glyph-name="Omicrontonos" unicode="&#x38c;" horiz-adv-x="686" 
d="M654 466q0 -128 -43 -242t-122 -175q-44 -34 -90 -48t-108 -14q-105 0 -159.5 64.5t-54.5 178.5q0 109 38 213.5t97 164.5q46 47 99.5 68.5t127.5 21.5q102 0 158.5 -60.5t56.5 -171.5zM565 474q0 158 -140 158q-105 0 -164 -80q-43 -58 -68.5 -148t-25.5 -193
q0 -161 142 -161q79 0 140 59q49 49 82.5 159t33.5 206zM103 649l-156 -157l-31 26l129 180z" />
    <glyph glyph-name="Upsilontonos" unicode="&#x38e;" horiz-adv-x="539" 
d="M630 686l-312 -419l-57 -267h-85l58 272l-133 414h97l74 -262q15 -53 19 -77q21 32 53 77l188 262h98zM73 649l-156 -157l-31 26l129 180z" />
    <glyph glyph-name="Omegatonos" unicode="&#x38f;" horiz-adv-x="715" 
d="M678 455q0 -111 -54.5 -225t-138.5 -159h117l-28 -71h-197v71q103 58 156 158t53 224q0 179 -146 179q-48 0 -94 -22t-73 -58q-95 -128 -95 -303q0 -119 76 -178l-15 -71h-186v71h110q-74 68 -74 200q0 90 32 177t90 148q97 102 243 102q109 0 166.5 -67.5t57.5 -175.5z
M113 649l-156 -157l-31 26l129 180z" />
    <glyph glyph-name="iotadieresistonos" unicode="&#x390;" horiz-adv-x="279" 
d="M221 439q0 -53 -10 -100l-50 -229q-5 -20 -5 -36q0 -24 21 -24q13 0 19 2l5 -51q-24 -11 -65 -11q-66 0 -66 59q0 20 5 43l51 238q11 55 11 92q0 31 -7 58l77 33q14 -34 14 -74zM136 621q0 -22 -14.5 -37.5t-36.5 -15.5t-37 15.5t-15 37.5q0 21 15 36t36 15q22 0 37 -15
t15 -36zM373 621q0 -22 -14.5 -37.5t-36.5 -15.5t-37 15.5t-15 37.5q0 21 15 36t36 15q22 0 37 -15t15 -36zM343 751l-156 -157l-31 26l129 180z" />
    <glyph glyph-name="Alpha" unicode="&#x391;" horiz-adv-x="573" 
d="M518 0h-89l-20 211h-256l-111 -211h-87l375 686h107zM402 278l-35 338q-35 -70 -43 -85l-135 -253h213z" />
    <glyph glyph-name="Beta" unicode="&#x392;" horiz-adv-x="595" 
d="M578 536q0 -132 -156 -173q117 -21 117 -146q0 -90 -88 -162q-40 -32 -87.5 -43.5t-141.5 -11.5h-177l146 686h177q116 0 163 -40t47 -110zM449 216q-1 53 -30 80t-105 27h-121l-55 -256h135q80 0 124 36q52 43 52 113zM486 522q0 95 -124 95h-107l-48 -226h124
q69 0 109 30q46 37 46 101z" />
    <glyph glyph-name="Gamma" unicode="&#x393;" horiz-adv-x="416" 
d="M537 686l-28 -68h-250l-131 -618h-83l146 686h346z" />
    <glyph glyph-name="uni0394" unicode="&#x394;" horiz-adv-x="593" 
d="M545 70l-18 -70h-550v58l368 628h103zM455 70l-74 544l-311 -544h385z" />
    <glyph glyph-name="Epsilon" unicode="&#x395;" horiz-adv-x="512" 
d="M566 686l-26 -68h-281l-47 -225h235l-16 -71h-235l-53 -251h302l-15 -71h-385l146 686h375z" />
    <glyph glyph-name="Zeta" unicode="&#x396;" horiz-adv-x="523" 
d="M561 621l-392 -486q-16 -20 -56 -66q24 1 59 1h272l-26 -70h-409v63l401 489q48 56 58 66q-19 -1 -71 -1h-256l28 69h392v-65z" />
    <glyph glyph-name="Eta" unicode="&#x397;" horiz-adv-x="641" 
d="M642 686l-146 -686h-82l71 332h-289l-71 -332h-80l146 686h80l-61 -287h289l61 287h82z" />
    <glyph glyph-name="Theta" unicode="&#x398;" horiz-adv-x="687" 
d="M659 466q0 -126 -44.5 -240.5t-124.5 -175.5q-45 -34 -90 -48.5t-107 -14.5q-105 0 -161 64.5t-56 178.5q0 109 38.5 212t98.5 164q90 92 228 92q102 0 160 -61t58 -171zM570 474q0 74 -35.5 116t-107.5 42q-105 0 -165 -82q-46 -62 -72 -157h374q6 42 6 81zM550 322
h-375q-9 -52 -9 -111q0 -161 145 -161q77 0 139 60q63 62 100 212z" />
    <glyph glyph-name="Iota" unicode="&#x399;" horiz-adv-x="270" 
d="M271 686l-146 -686h-80l146 686h80z" />
    <glyph glyph-name="Kappa" unicode="&#x39a;" horiz-adv-x="561" 
d="M627 663l-324 -306l198 -345l-86 -27l-206 378l356 345zM274 686l-146 -686h-83l146 686h83z" />
    <glyph glyph-name="Lambda" unicode="&#x39b;" horiz-adv-x="549" 
d="M494 0h-90l-48 614l-316 -614h-85l363 686h107z" />
    <glyph glyph-name="Mu" unicode="&#x39c;" horiz-adv-x="816" 
d="M778 686l-87 -686h-82l67 503q6 47 20 117q-23 -56 -50 -108l-256 -512h-70l-32 487q-6 104 -6 131l-36 -130l-142 -488h-79l206 686h120l30 -448q4 -65 1 -120q34 81 49 112l226 456h121z" />
    <glyph glyph-name="Nu" unicode="&#x39d;" horiz-adv-x="646" 
d="M647 686l-146 -686h-86l-131 420q-36 113 -43 164l-4 -28q-4 -28 -11 -74t-15 -84l-81 -398h-85l146 686h95l135 -438q13 -43 33 -143q0 1 2 14t5.5 34t7.5 46t9.5 56t11.5 58l76 373h81z" />
    <glyph glyph-name="Xi" unicode="&#x39e;" horiz-adv-x="512" 
d="M551 686l-18 -74h-404v74h422zM479 397l-19 -75h-365l19 75h365zM449 0h-434l19 75h415v-75z" />
    <glyph glyph-name="Omicron" unicode="&#x39f;" horiz-adv-x="686" 
d="M654 466q0 -128 -43 -242t-122 -175q-44 -34 -90 -48t-108 -14q-105 0 -159.5 64.5t-54.5 178.5q0 109 38 213.5t97 164.5q46 47 99.5 68.5t127.5 21.5q102 0 158.5 -60.5t56.5 -171.5zM565 474q0 158 -140 158q-105 0 -164 -80q-43 -58 -68.5 -148t-25.5 -193
q0 -161 142 -161q79 0 140 59q49 49 82.5 159t33.5 206z" />
    <glyph glyph-name="Pi" unicode="&#x3a0;" horiz-adv-x="631" 
d="M632 686l-146 -686h-82l132 619h-279l-132 -619h-80l146 686h441z" />
    <glyph glyph-name="Rho" unicode="&#x3a1;" horiz-adv-x="557" 
d="M578 527q0 -128 -96 -204q-62 -50 -179 -50h-120l-58 -273h-80l146 686h178q110 0 159.5 -44.5t49.5 -114.5zM489 508q0 56 -33.5 82.5t-112.5 26.5h-87l-59 -277h115q75 0 115 37q62 56 62 131z" />
    <glyph glyph-name="Sigma" unicode="&#x3a3;" horiz-adv-x="498" 
d="M552 686l-25 -68h-296l146 -244l-267 -303h319l-26 -71h-394v63l273 313l-146 241l26 69h390z" />
    <glyph glyph-name="Tau" unicode="&#x3a4;" horiz-adv-x="464" 
d="M575 686l-20 -69h-186l-131 -617h-79l131 617h-184l15 69h454z" />
    <glyph glyph-name="Upsilon" unicode="&#x3a5;" horiz-adv-x="539" 
d="M630 686l-312 -419l-57 -267h-85l58 272l-133 414h97l74 -262q15 -53 19 -77q21 32 53 77l188 262h98z" />
    <glyph glyph-name="Phi" unicode="&#x3a6;" horiz-adv-x="733" 
d="M710 429q0 -155 -93 -251t-245 -96l-18 -82h-80l18 82q-102 0 -165.5 48.5t-63.5 145.5q0 153 95.5 245t245.5 92l16 73h80l-16 -73q96 0 161 -46.5t65 -137.5zM619 426q0 60 -42 87t-108 27l-82 -387q116 5 174 80t58 193zM389 540q-116 -2 -175 -72t-59 -188
q0 -69 38.5 -98t113.5 -29z" />
    <glyph glyph-name="Chi" unicode="&#x3a7;" horiz-adv-x="491" 
d="M572 686l-249 -328l144 -358h-94l-111 295l-218 -295h-100l288 368l-121 318h91l89 -249l181 249h100z" />
    <glyph glyph-name="Psi" unicode="&#x3a8;" horiz-adv-x="739" 
d="M767 686l-59 -275q-55 -254 -319 -257l-33 -154h-80l33 154q-216 2 -216 192q0 41 11 92l53 248h80l-51 -241q-12 -62 -12 -96q0 -121 150 -124l98 461h80l-98 -461q87 2 146 47.5t77 132.5l60 281h80z" />
    <glyph glyph-name="uni03A9" unicode="&#x3a9;" horiz-adv-x="715" 
d="M678 455q0 -111 -54.5 -225t-138.5 -159h117l-28 -71h-197v71q103 58 156 158t53 224q0 179 -146 179q-48 0 -94 -22t-73 -58q-95 -128 -95 -303q0 -119 76 -178l-15 -71h-186v71h110q-74 68 -74 200q0 90 32 177t90 148q97 102 243 102q109 0 166.5 -67.5t57.5 -175.5z
" />
    <glyph glyph-name="Iotadieresis" unicode="&#x3aa;" horiz-adv-x="270" 
d="M271 686l-146 -686h-80l146 686h80zM389 781q0 -22 -15 -37.5t-36 -15.5q-22 0 -37.5 15.5t-15.5 37.5q0 21 15 36t37 15q21 0 36.5 -15t15.5 -36zM182 781q0 -22 -14.5 -37.5t-36.5 -15.5t-37 15.5t-15 37.5q0 21 15 36t36 15q22 0 37 -15t15 -36z" />
    <glyph glyph-name="Upsilondieresis" unicode="&#x3ab;" horiz-adv-x="539" 
d="M630 686l-312 -419l-57 -267h-85l58 272l-133 414h97l74 -262q15 -53 19 -77q21 32 53 77l188 262h98zM536 782q0 -22 -15 -37.5t-36 -15.5q-22 0 -37.5 15.5t-15.5 37.5q0 21 15 36t37 15q21 0 36.5 -15t15.5 -36zM329 782q0 -22 -14.5 -37.5t-36.5 -15.5t-37 15.5
t-15 37.5q0 21 15 36t36 15q22 0 37 -15t15 -36z" />
    <glyph glyph-name="alphatonos" unicode="&#x3ac;" 
d="M500 471q-14 -50 -26 -104l-43 -206q-9 -44 -9 -68q0 -35 26 -64l-62 -48q-38 39 -38 91q0 12 1 18q-26 -46 -71 -72.5t-102 -26.5q-50 0 -84.5 40t-34.5 118q0 76 28 153t76 126q82 84 199 84q82 0 140 -41zM413 435q-23 14 -60 14q-85 0 -145 -72q-35 -42 -52.5 -105
t-17.5 -124q0 -48 18 -69t54 -21q39 0 80.5 33.5t68.5 86.5zM526 721l-156 -157l-31 26l129 180z" />
    <glyph glyph-name="epsilontonos" unicode="&#x3ad;" horiz-adv-x="489" 
d="M494 445l-43 -45q-58 52 -140 52q-47 0 -83.5 -25t-36.5 -70q0 -35 25 -50.5t63 -15.5h63l-13 -57h-61q-59 0 -100.5 -28t-41.5 -85q0 -69 114 -69q95 0 183 47l23 -50q-97 -62 -234 -62q-43 0 -80 10t-66 39.5t-29 73.5q0 64 43.5 105.5t106.5 51.5q-79 22 -79 84
q0 73 64.5 118t139.5 45q121 0 182 -69zM495 721l-156 -157l-31 26l129 180z" />
    <glyph glyph-name="etatonos" unicode="&#x3ae;" horiz-adv-x="556" 
d="M495 410q0 -16 -3 -32l-58 -268q-5 -23 -5 -36q0 -24 21 -24q14 0 19 2l5 -51q-26 -11 -61 -11q-66 0 -66 59q0 16 5 43l52 245q8 35 8 54q0 50 -48 50q-34 0 -80.5 -28.5t-93.5 -87.5l-69 -325h-76l76 356q11 55 11 76q0 23 -7 47l73 34q12 -34 12 -60q0 -22 -7 -50
q39 52 91 79t102 27q46 0 72.5 -26.5t26.5 -72.5zM515 721l-156 -157l-31 26l129 180z" />
    <glyph glyph-name="iotatonos" unicode="&#x3af;" horiz-adv-x="279" 
d="M221 439q0 -53 -10 -100l-50 -229q-5 -20 -5 -36q0 -24 21 -24q13 0 19 2l5 -51q-24 -11 -65 -11q-66 0 -66 59q0 20 5 43l51 238q11 55 11 92q0 31 -7 58l77 33q14 -34 14 -74zM355 721l-156 -157l-31 26l129 180z" />
    <glyph glyph-name="upsilondieresistonos" unicode="&#x3b0;" horiz-adv-x="548" 
d="M519 506l-74 -348q-17 -82 -75.5 -128t-147.5 -46q-68 0 -112.5 27.5t-44.5 89.5q0 19 5 44l75 349l80 15l-74 -348q-6 -27 -6 -47q0 -70 87 -70q55 0 90.5 33.5t46.5 84.5l70 331zM271 621q0 -22 -14.5 -37.5t-36.5 -15.5t-37 15.5t-15 37.5q0 21 15 36t36 15
q22 0 37 -15t15 -36zM508 621q0 -22 -14.5 -37.5t-36.5 -15.5t-37 15.5t-15 37.5q0 21 15 36t36 15q22 0 37 -15t15 -36zM478 751l-156 -157l-31 26l129 180z" />
    <glyph glyph-name="alpha" unicode="&#x3b1;" 
d="M500 471q-14 -50 -26 -104l-43 -206q-9 -44 -9 -68q0 -35 26 -64l-62 -48q-38 39 -38 91q0 12 1 18q-26 -46 -71 -72.5t-102 -26.5q-50 0 -84.5 40t-34.5 118q0 76 28 153t76 126q82 84 199 84q82 0 140 -41zM413 435q-23 14 -60 14q-85 0 -145 -72q-35 -42 -52.5 -105
t-17.5 -124q0 -48 18 -69t54 -21q39 0 80.5 33.5t68.5 86.5z" />
    <glyph glyph-name="beta" unicode="&#x3b2;" horiz-adv-x="594" 
d="M549 570q0 -68 -41.5 -118.5t-106.5 -64.5q56 -13 84.5 -56.5t28.5 -98.5q0 -103 -80 -174t-187 -71q-72 0 -119 26l-43 -206l-81 -15l149 717q21 103 77.5 151t161.5 48q72 0 114.5 -38.5t42.5 -99.5zM471 565q0 36 -26 60t-71 24q-51 0 -89 -31.5t-53 -101.5l-89 -433
q36 -31 111 -31q73 0 124.5 54.5t51.5 125.5q0 56 -34 89t-102 33h-14l11 55q77 0 128.5 45.5t51.5 110.5z" />
    <glyph glyph-name="gamma" unicode="&#x3b3;" horiz-adv-x="471" 
d="M517 498l-281 -498l-41 -193l-82 -15l44 208l-44 399q-4 41 -22 41q-14 0 -27 -7l-16 52q39 22 69 22q64 0 71 -69l24 -266q5 -47 4 -74h2q29 62 35 74l177 326h87z" />
    <glyph glyph-name="delta" unicode="&#x3b4;" 
d="M534 686l-20 -67h-203q69 -56 123 -137q61 -91 61 -166q0 -80 -31.5 -154t-95.5 -124.5t-146 -50.5q-83 0 -127 47t-44 130q0 88 34.5 169t97.5 125q56 40 140 40q-71 78 -129 118l21 70h319zM409 327q0 107 -98 107q-49 0 -85 -26.5t-54.5 -69t-26.5 -86.5t-8 -90
q0 -53 22.5 -81.5t76.5 -28.5q46 0 81 27.5t54 71t28.5 88.5t9.5 88z" />
    <glyph glyph-name="epsilon" unicode="&#x3b5;" horiz-adv-x="489" 
d="M494 445l-43 -45q-58 52 -140 52q-47 0 -83.5 -25t-36.5 -70q0 -35 25 -50.5t63 -15.5h63l-13 -57h-61q-59 0 -100.5 -28t-41.5 -85q0 -69 114 -69q95 0 183 47l23 -50q-97 -62 -234 -62q-43 0 -80 10t-66 39.5t-29 73.5q0 64 43.5 105.5t106.5 51.5q-79 22 -79 84
q0 73 64.5 118t139.5 45q121 0 182 -69z" />
    <glyph glyph-name="zeta" unicode="&#x3b6;" horiz-adv-x="443" 
d="M519 686l-13 -66q-59 -35 -118.5 -83.5t-115 -109t-90.5 -132t-35 -137.5q0 -81 126 -81h27q46 0 73.5 -27.5t27.5 -74.5q0 -39 -17.5 -74.5t-34 -54t-54.5 -54.5l-42 33q23 25 33.5 38.5t22 38.5t11.5 49q0 49 -50 49h-32q-181 0 -181 145q0 70 32 142t84.5 133
t110 110.5t119.5 88.5h-238l13 67h341z" />
    <glyph glyph-name="eta" unicode="&#x3b7;" horiz-adv-x="556" 
d="M495 410q0 -16 -3 -32l-58 -268q-5 -23 -5 -36q0 -24 21 -24q14 0 19 2l5 -51q-26 -11 -61 -11q-66 0 -66 59q0 16 5 43l52 245q8 35 8 54q0 50 -48 50q-34 0 -80.5 -28.5t-93.5 -87.5l-69 -325h-76l76 356q11 55 11 76q0 23 -7 47l73 34q12 -34 12 -60q0 -22 -7 -50
q39 52 91 79t102 27q46 0 72.5 -26.5t26.5 -72.5z" />
    <glyph glyph-name="theta" unicode="&#x3b8;" horiz-adv-x="560" 
d="M502 488q0 -57 -8 -119.5t-28 -132t-50.5 -123.5t-80.5 -90t-112 -36q-85 0 -125.5 61.5t-40.5 148.5q0 54 8 115t28.5 131t51.5 125.5t81 92.5t112 37q85 0 124.5 -61t39.5 -149zM421 498q0 136 -91 136q-120 0 -166 -241h248q9 63 9 105zM403 331h-250
q-14 -92 -14 -140q0 -140 90 -140q30 0 55 13.5t43 40.5t30 51t22 63t14 58.5t10 53.5z" />
    <glyph glyph-name="iota" unicode="&#x3b9;" horiz-adv-x="279" 
d="M216 439q0 -53 -10 -100l-50 -229q-5 -20 -5 -36q0 -24 21 -24q13 0 19 2l5 -51q-24 -11 -65 -11q-66 0 -66 59q0 20 5 43l51 238q11 55 11 92q0 31 -7 58l77 33q14 -34 14 -74z" />
    <glyph glyph-name="kappa" unicode="&#x3ba;" horiz-adv-x="480" 
d="M508 474l-234 -205l162 -253l-77 -31l-174 291l268 243zM206 439q0 -53 -10 -100l-73 -339h-78l70 330q11 55 11 92q0 31 -7 58l73 33q14 -34 14 -74z" />
    <glyph glyph-name="lambda" unicode="&#x3bb;" horiz-adv-x="513" 
d="M455 1q-29 -13 -65 -13q-59 0 -64 60l-26 261q-2 24 -5 66t-4 57h-3q-31 -76 -56 -124l-170 -320l-75 17l176 318q61 110 89 179l30 -5q-1 5 -2.5 26t-3 32t-5 30.5t-9.5 31t-14.5 23.5t-21.5 18t-30 6q-29 0 -53 -10v50q40 20 86 20q30 0 51.5 -12.5t33 -27t20.5 -45.5
t11.5 -47.5t6.5 -52.5l57 -473q3 -18 22 -18q7 0 19 4z" />
    <glyph glyph-name="uni03BC" unicode="&#x3bc;" horiz-adv-x="559" 
d="M522 506l-75 -353q-11 -53 -11 -73q0 -26 19 -48l-61 -53q-37 36 -37 80q-73 -76 -174 -76q-45 0 -63 19q-1 -6 -6 -28.5t-11 -50t-11.5 -54.5t-9.5 -45l-4 -17l-81 -15l148 702l83 16l-77 -359q-6 -29 -6 -45q0 -26 18 -39q22 -17 58 -17q37 0 77.5 25t68.5 65l75 353z
" />
    <glyph glyph-name="nu" unicode="&#x3bd;" horiz-adv-x="461" 
d="M513 498l-294 -503h-77l-73 499l79 17l43 -343q6 -48 6 -85h2q16 38 42 84l184 331h88z" />
    <glyph glyph-name="xi" unicode="&#x3be;" horiz-adv-x="471" 
d="M547 686l-23 -67h-137q-62 0 -105.5 -44t-43.5 -99q0 -41 29.5 -64t72.5 -23h99l-19 -58h-81q-77 0 -134 -44t-57 -119q0 -47 29.5 -70t78.5 -23h51q110 0 110 -101q0 -51 -24.5 -89t-80.5 -93l-42 33q36 41 51.5 67t15.5 59q0 49 -45 49h-62q-72 0 -122.5 44.5
t-50.5 113.5q0 71 52 132t123 76q-38 10 -59 39.5t-21 69.5q0 44 29 83.5t71 60.5h-98l14 67h379z" />
    <glyph glyph-name="omicron" unicode="&#x3bf;" 
d="M497 332q0 -147 -78 -246t-199 -99q-81 0 -125 47.5t-44 132.5q0 148 79 247t198 99q84 0 126.5 -48.5t42.5 -132.5zM411 341q0 56 -27 82t-70 26q-82 0 -129.5 -81t-47.5 -206q0 -110 98 -110q83 0 129.5 84t46.5 205z" />
    <glyph glyph-name="pi" unicode="&#x3c0;" horiz-adv-x="532" 
d="M576 498l-34 -62h-50l-70 -326q-5 -20 -5 -36q0 -24 21 -24q13 0 19 2l5 -51q-24 -11 -64 -11q-62 0 -62 59q0 20 5 43l73 344h-193l-92 -436h-76l92 436h-66l14 62h483z" />
    <glyph glyph-name="rho" unicode="&#x3c1;" horiz-adv-x="559" 
d="M515 333q0 -57 -17 -116.5t-48 -111.5t-82.5 -85t-113.5 -33q-38 0 -71.5 18t-52.5 49l-51 -247l-81 -15l100 470q27 128 84 188.5t164 60.5q80 0 124.5 -49t44.5 -129zM430 333q0 117 -99 117q-59 0 -97 -46t-52 -111l-38 -179q47 -62 109 -62q47 0 83 28t55.5 72.5
t29 90.5t9.5 90z" />
    <glyph glyph-name="sigma1" unicode="&#x3c2;" horiz-adv-x="445" 
d="M450 469l-37 -61q-42 35 -101 35q-60 0 -106 -56q-65 -80 -65 -191q0 -25 7.5 -43.5t23.5 -30.5t29 -18t37 -14q53 -18 83 -42t30 -67q0 -31 -7 -56t-25 -51t-29.5 -39t-40.5 -43l-41 33q24 26 36 41t23.5 39.5t11.5 48.5q0 23 -22 38t-52 21q-68 14 -110 60t-42 112
q0 78 33 149t94 120q69 57 149 57q73 0 121 -42z" />
    <glyph glyph-name="sigma" unicode="&#x3c3;" horiz-adv-x="554" 
d="M582 498l-30 -62h-103q47 -37 47 -115q0 -82 -30.5 -157t-95 -126t-148.5 -51q-85 0 -128 48t-43 132t28 157.5t90.5 123.5t147.5 50h265zM411 331q0 105 -101 105q-40 0 -71.5 -18t-50 -46t-30.5 -65.5t-16.5 -72.5t-4.5 -72q0 -53 22 -81.5t76 -28.5q46 0 82 28
t55.5 72t29 90t9.5 89z" />
    <glyph glyph-name="tau" unicode="&#x3c4;" horiz-adv-x="379" 
d="M424 498l-34 -63h-126l-61 -288q-7 -31 -7 -54q0 -27 11.5 -38t38.5 -11q29 0 52 10v-50q-43 -20 -92 -20q-88 0 -88 81q0 31 8 73l63 297h-131l13 63h353z" />
    <glyph glyph-name="upsilon" unicode="&#x3c5;" horiz-adv-x="548" 
d="M514 506l-74 -348q-17 -82 -75.5 -128t-147.5 -46q-68 0 -112.5 27.5t-44.5 89.5q0 19 5 44l75 349l80 15l-74 -348q-6 -27 -6 -47q0 -70 87 -70q55 0 90.5 33.5t46.5 84.5l70 331z" />
    <glyph glyph-name="phi" unicode="&#x3c6;" horiz-adv-x="686" 
d="M642 328q0 -143 -81.5 -239t-228.5 -102l-38 -180l-81 -14l42 194q-97 4 -150.5 51t-53.5 139q0 120 65.5 213.5t179.5 115.5l-14 -66q-75 -24 -110.5 -95.5t-35.5 -158.5q0 -64 32 -96t101 -38l51 239q26 121 69 171.5t113 50.5q61 0 100.5 -51t39.5 -134zM556 328
q0 122 -71 122q-32 0 -52 -40.5t-36 -116.5l-51 -241q105 9 157.5 88t52.5 188z" />
    <glyph glyph-name="chi" unicode="&#x3c7;" horiz-adv-x="411" 
d="M453 498l-196 -223l132 -275h-92l-90 215l-179 -215h-95l245 276l-107 222h94l64 -166l131 166h93z" />
    <glyph glyph-name="psi" unicode="&#x3c8;" horiz-adv-x="672" 
d="M637 506l-64 -303q-21 -102 -93 -156.5t-169 -60.5l-38 -179l-81 -14l42 194q-79 6 -126.5 45.5t-47.5 111.5q0 28 7 59l62 291l80 15l-66 -312q-5 -24 -5 -47q0 -43 30.5 -70t79.5 -30l106 503q10 47 10 96q0 35 -6 56l83 32q7 -26 7 -57q0 -49 -14 -116l-110 -514
q56 3 107.5 49t62.5 98l63 296z" />
    <glyph glyph-name="omega" unicode="&#x3c9;" horiz-adv-x="686" 
d="M642 310q0 -55 -12 -109t-36 -103.5t-68 -80t-101 -30.5q-40 0 -67 28.5t-32 69.5q-23 -40 -60 -69t-78 -29q-64 0 -100.5 40.5t-36.5 106.5q0 102 59 206.5t145 175.5l36 -24q-64 -73 -108 -168.5t-44 -182.5q0 -86 62 -86q38 0 63.5 37.5t35.5 82.5l42 196h79l-42 -196
q-5 -25 -5 -45q0 -31 14 -53t44 -22q36 0 63.5 28.5t41.5 71.5t20.5 83t6.5 73q0 97 -34 176l42 32q70 -93 70 -209z" />
    <glyph glyph-name="iotadieresis" unicode="&#x3ca;" horiz-adv-x="279" 
d="M221 439q0 -53 -10 -100l-50 -229q-5 -20 -5 -36q0 -24 21 -24q13 0 19 2l5 -51q-24 -11 -65 -11q-66 0 -66 59q0 20 5 43l51 238q11 55 11 92q0 31 -7 58l77 33q14 -34 14 -74zM171 621q0 -22 -14.5 -37.5t-36.5 -15.5t-37 15.5t-15 37.5q0 21 15 36t36 15q22 0 37 -15
t15 -36zM348 621q0 -22 -14.5 -37.5t-36.5 -15.5t-37 15.5t-15 37.5q0 21 15 36t36 15q22 0 37 -15t15 -36z" />
    <glyph glyph-name="upsilondieresis" unicode="&#x3cb;" horiz-adv-x="548" 
d="M519 506l-74 -348q-17 -82 -75.5 -128t-147.5 -46q-68 0 -112.5 27.5t-44.5 89.5q0 19 5 44l75 349l80 15l-74 -348q-6 -27 -6 -47q0 -70 87 -70q55 0 90.5 33.5t46.5 84.5l70 331zM316 621q0 -22 -14.5 -37.5t-36.5 -15.5t-37 15.5t-15 37.5q0 21 15 36t36 15
q22 0 37 -15t15 -36zM492 621q0 -22 -14.5 -37.5t-36.5 -15.5t-37 15.5t-15 37.5q0 21 15 36t36 15q22 0 37 -15t15 -36z" />
    <glyph glyph-name="omicrontonos" unicode="&#x3cc;" 
d="M497 332q0 -147 -78 -246t-199 -99q-81 0 -125 47.5t-44 132.5q0 148 79 247t198 99q84 0 126.5 -48.5t42.5 -132.5zM411 341q0 56 -27 82t-70 26q-82 0 -129.5 -81t-47.5 -206q0 -110 98 -110q83 0 129.5 84t46.5 205zM495 721l-156 -157l-31 26l129 180z" />
    <glyph glyph-name="upsilontonos" unicode="&#x3cd;" horiz-adv-x="548" 
d="M519 506l-74 -348q-17 -82 -75.5 -128t-147.5 -46q-68 0 -112.5 27.5t-44.5 89.5q0 19 5 44l75 349l80 15l-74 -348q-6 -27 -6 -47q0 -70 87 -70q55 0 90.5 33.5t46.5 84.5l70 331zM490 721l-156 -157l-31 26l129 180z" />
    <glyph glyph-name="omegatonos" unicode="&#x3ce;" horiz-adv-x="686" 
d="M647 310q0 -55 -12 -109t-36 -103.5t-68 -80t-101 -30.5q-40 0 -67 28.5t-32 69.5q-23 -40 -60 -69t-78 -29q-64 0 -100.5 40.5t-36.5 106.5q0 102 59 206.5t145 175.5l36 -24q-64 -73 -108 -168.5t-44 -182.5q0 -86 62 -86q38 0 63.5 37.5t35.5 82.5l42 196h79l-42 -196
q-5 -25 -5 -45q0 -31 14 -53t44 -22q36 0 63.5 28.5t41.5 71.5t20.5 83t6.5 73q0 97 -34 176l42 32q70 -93 70 -209zM582 721l-156 -157l-31 26l129 180z" />
    <glyph glyph-name="uni03D0" unicode="&#x3d0;" horiz-adv-x="594" 
d="M549 570q0 -68 -41.5 -118.5t-106.5 -64.5q54 -13 83.5 -55.5t29.5 -99.5q0 -103 -80 -174t-187 -71q-121 0 -194 62q11 36 19 75l81 385q21 102 77.5 150.5t161.5 48.5q72 0 114.5 -38.5t42.5 -99.5zM471 565q0 36 -26 60t-71 24q-51 0 -89 -31.5t-53 -101.5l-90 -432
q35 -30 105 -30q74 0 128.5 54t54.5 124q0 60 -36.5 91t-99.5 31h-14l11 55q77 0 128.5 45.5t51.5 110.5z" />
    <glyph glyph-name="theta1" unicode="&#x3d1;" horiz-adv-x="533" 
d="M109 177q10 48 10 91v11l77 14v-5q0 -50 -12 -112q-5 -23 -5 -39q0 -41 23.5 -63t67.5 -22q72 0 114.5 59.5t65.5 184.5q-47 7 -85 16t-76.5 26t-64 39.5t-42 57.5t-16.5 78q0 87 59 141t152 54q97 0 142.5 -62t45.5 -158q0 -52 -16 -130q-42 -198 -108 -284.5
t-185 -86.5q-76 0 -114.5 37.5t-38.5 100.5q0 25 6 52zM364 650q-48 0 -80.5 -39t-32.5 -97q0 -76 51.5 -110.5t158.5 -51.5q18 80 18 143q0 42 -9 74.5t-36 56.5t-70 24z" />
    <glyph glyph-name="Upsilon1" unicode="&#x3d2;" horiz-adv-x="522" 
d="M312 237l-50 -237h-85l50 237q13 65 13 119q0 189 -134 284l60 59q133 -90 144 -282q88 190 264 282l38 -67q-121 -66 -197.5 -170t-102.5 -225z" />
    <glyph glyph-name="uni03D3" unicode="&#x3d3;" horiz-adv-x="522" 
d="M312 237l-50 -237h-85l50 237q13 65 13 119q0 189 -134 284l60 59q133 -90 144 -282q88 190 264 282l38 -67q-121 -66 -197.5 -170t-102.5 -225zM42 649l-156 -157l-31 26l129 180z" />
    <glyph glyph-name="uni03D4" unicode="&#x3d4;" horiz-adv-x="522" 
d="M312 237l-50 -237h-85l50 237q13 65 13 119q0 189 -134 284l60 59q133 -90 144 -282q88 190 264 282l38 -67q-121 -66 -197.5 -170t-102.5 -225zM532 809q0 -22 -15 -37.5t-36 -15.5q-22 0 -37.5 15.5t-15.5 37.5q0 21 15 36t37 15q21 0 36.5 -15t15.5 -36zM325 809
q0 -22 -14.5 -37.5t-36.5 -15.5t-37 15.5t-15 37.5q0 21 15 36t36 15q22 0 37 -15t15 -36z" />
    <glyph glyph-name="phi1" unicode="&#x3d5;" horiz-adv-x="669" 
d="M625 325q0 -138 -83.5 -235t-221.5 -103l-38 -180l-82 -15l41 196q-89 5 -139.5 52.5t-50.5 135.5q0 137 82.5 234.5t219.5 101.5q1 3 9.5 43t12.5 58.5t7 49t1 49.5l81 15q6 -45 -32 -214q87 -3 140 -53t53 -135zM538 328q0 56 -31.5 86.5t-88.5 34.5l-84 -397
q54 2 95 27t64 65t34 86.5t11 97.5zM339 448q-106 -13 -153.5 -85.5t-47.5 -182.5q0 -63 27 -92t90 -35z" />
    <glyph glyph-name="uni0400" unicode="&#x400;" horiz-adv-x="512" 
d="M566 686l-26 -68h-281l-47 -225h235l-16 -71h-235l-53 -251h302l-15 -71h-385l146 686h375zM485 772l-26 -47l-223 100l43 77z" />
    <glyph glyph-name="afii10023" unicode="&#x401;" horiz-adv-x="512" 
d="M566 686l-26 -68h-281l-47 -225h235l-16 -71h-235l-53 -251h302l-15 -71h-385l146 686h375zM336 781q0 -22 -14.5 -37.5t-36.5 -15.5t-37 15.5t-15 37.5q0 21 15 36t36 15q22 0 37 -15t15 -36zM543 781q0 -22 -14.5 -37.5t-36.5 -15.5t-37 15.5t-15 37.5q0 21 15 36
t36 15q22 0 37 -15t15 -36z" />
    <glyph glyph-name="afii10051" unicode="&#x402;" horiz-adv-x="653" 
d="M556 686l-19 -69h-195l-47 -220q92 36 149 36q71 0 110 -38t39 -108q0 -62 -25.5 -136t-75.5 -116q-56 -47 -131 -47q-48 0 -90 25l32 63l12 -8q26 -16 58 -16q49 0 79 38q23 28 39.5 90.5t16.5 106.5q0 81 -94 81q-64 0 -132 -33l-71 -335h-82l131 617h-175l15 69h456z
" />
    <glyph glyph-name="afii10052" unicode="&#x403;" horiz-adv-x="416" 
d="M537 686l-28 -68h-250l-131 -618h-83l146 686h346zM461 825l-225 -100l-26 47l208 130z" />
    <glyph glyph-name="afii10053" unicode="&#x404;" horiz-adv-x="579" 
d="M449 389l-14 -64h-257l-3 -16q-14 -79 -14 -102q0 -62 29 -101q42 -54 129 -54q83 0 170 59l22 -62q-31 -20 -70 -35q-69 -26 -132 -26q-117 0 -180 74q-54 64 -54 178q0 119 46 222t122 165q88 71 207 71q108 0 174 -62l-44 -54q-61 52 -144 52q-91 0 -149 -54
q-65 -61 -91 -173l-4 -18h257z" />
    <glyph glyph-name="afii10054" unicode="&#x405;" horiz-adv-x="561" 
d="M563 642l-43 -61q-73 53 -151 53q-68 0 -111.5 -32.5t-43.5 -82.5q0 -42 18 -65.5t69 -45.5l72 -31q61 -26 87 -67.5t26 -105.5q0 -93 -76.5 -155t-205.5 -62q-107 0 -189 54l40 65q74 -52 164 -52q81 0 130 39t49 99q0 45 -19.5 71.5t-73.5 48.5l-62 26q-61 26 -89 64.5
t-28 99.5q0 87 72 143t181 56q107 0 184 -59z" />
    <glyph glyph-name="afii10055" unicode="&#x406;" horiz-adv-x="270" 
d="M271 686l-146 -686h-80l146 686h80z" />
    <glyph glyph-name="afii10056" unicode="&#x407;" horiz-adv-x="270" 
d="M271 686l-146 -686h-80l146 686h80zM181 781q0 -22 -14.5 -37.5t-36.5 -15.5t-37 15.5t-15 37.5q0 21 15 36t36 15q22 0 37 -15t15 -36zM388 781q0 -22 -14.5 -37.5t-36.5 -15.5t-37 15.5t-15 37.5q0 21 15 36t36 15q22 0 37 -15t15 -36z" />
    <glyph glyph-name="afii10057" unicode="&#x408;" horiz-adv-x="272" 
d="M273 686l-121 -569q-24 -113 -58 -157q-48 -61 -135 -88l-29 51q64 24 96 67q24 30 44 125l121 571h82z" />
    <glyph glyph-name="afii10058" unicode="&#x409;" horiz-adv-x="875" 
d="M368 0l132 622h-171l-52 -196q-17 -64 -28 -103.5t-33 -104t-47 -109.5t-52 -69q-41 -36 -110 -43l-34 -4l-3 57l21 6q17 5 43 16q33 16 56.5 48t58 127.5t81.5 274.5l43 164h323l-59 -278h77q75 0 117 -12.5t73 -43.5q47 -47 47 -123q0 -47 -22 -92t-55 -73
q-42 -36 -93 -50t-125 -14h-188zM523 340l-59 -273h119q81 0 124 36q25 21 39.5 54t14.5 66q0 60 -31 89q-31 28 -102 28h-105z" />
    <glyph glyph-name="afii10059" unicode="&#x40a;" horiz-adv-x="909" 
d="M630 686l-60 -283h77q75 0 117 -12.5t73 -43.5q48 -48 48 -118q0 -47 -22 -92t-55 -73q-42 -36 -93 -50t-125 -14h-188l71 335h-275l-71 -335h-82l146 686h82l-60 -283h275l60 283h82zM556 335l-58 -268h119q81 0 124 36q25 21 39.5 54t14.5 66q0 54 -32 84
q-31 28 -102 28h-105z" />
    <glyph glyph-name="afii10060" unicode="&#x40b;" horiz-adv-x="656" 
d="M548 686l-19 -68h-187l-47 -222q80 37 153 37q83 0 119 -37q30 -30 30 -80q0 -24 -5 -46l-57 -270h-82l57 270q3 12 3 25q0 73 -89 73q-56 0 -142 -33l-71 -335h-79l131 618h-184l15 68h454z" />
    <glyph glyph-name="afii10061" unicode="&#x40c;" horiz-adv-x="604" 
d="M639 694l3 -57l-34 -8q-24 -6 -35 -14q-18 -12 -35 -45l-48 -98q-22 -46 -44 -69q-27 -27 -61 -38q28 -15 40 -34q17 -24 19 -71l9 -138q2 -24 5.5 -33.5t15.5 -16.5q13 -9 37 -16l19 -6l-27 -57l-53 6q-56 6 -74 37q-9 14 -10.5 28.5t-1.5 58.5v111q0 53 -16 73
q-20 24 -63 24h-88l-70 -331h-82l146 686h82l-61 -288h93q41 0 70 22q27 20 47 70l41 99q23 53 47 72q28 23 80 28zM532 825l-225 -100l-26 47l208 130z" />
    <glyph glyph-name="uni040D" unicode="&#x40d;" horiz-adv-x="667" 
d="M522 0h-82l101 476q17 77 33 131q-32 -59 -42 -72l-402 -535h-85l146 686h82l-103 -485q-9 -40 -31 -109q33 60 60 95l371 499h98zM563 772l-26 -47l-223 100l43 77z" />
    <glyph glyph-name="afii10062" unicode="&#x40e;" horiz-adv-x="505" 
d="M192 686l64 -345q17 -95 17 -99l24 45q24 45 31 58l186 341h80l-283 -507q-28 -50 -52 -91q-25 -43 -55 -65q-40 -29 -108 -38l-32 -4l-3 58l21 5q27 7 47 16q30 13 50 36q21 23 44 66l21 38l-42 -9l-95 495h85zM462 862l43 -23q-18 -50 -64 -81q-43 -29 -93 -29
q-64 0 -97 33q-29 29 -32 77l53 23q3 -32 24 -50q22 -17 57 -17q33 0 63 17q27 16 46 50z" />
    <glyph glyph-name="afii10145" unicode="&#x40f;" horiz-adv-x="618" 
d="M619 686l-146 -686h-173l-39 -182h-82l39 182h-173l146 686h82l-132 -622h264l132 622h82z" />
    <glyph glyph-name="afii10017" unicode="&#x410;" horiz-adv-x="573" 
d="M518 0h-89l-20 211h-256l-111 -211h-87l375 686h107zM402 278l-35 338q-35 -70 -43 -85l-135 -253h213z" />
    <glyph glyph-name="afii10018" unicode="&#x411;" horiz-adv-x="606" 
d="M258 618l-47 -222h90q75 0 117 -12.5t73 -43.5q48 -48 48 -118q0 -46 -21 -88t-54 -70q-42 -36 -93 -50t-125 -14h-201l146 686h380l-28 -68h-285zM141 67h132q81 0 124 36q52 43 52 113q0 54 -32 84q-31 28 -102 28h-118z" />
    <glyph glyph-name="afii10019" unicode="&#x412;" horiz-adv-x="595" 
d="M578 536q0 -132 -156 -173q117 -21 117 -146q0 -90 -88 -162q-40 -32 -87.5 -43.5t-141.5 -11.5h-177l146 686h177q116 0 163 -40t47 -110zM449 216q-1 53 -30 80t-105 27h-121l-55 -256h135q80 0 124 36q52 43 52 113zM486 522q0 95 -124 95h-107l-48 -226h124
q69 0 109 30q46 37 46 101z" />
    <glyph glyph-name="afii10020" unicode="&#x413;" horiz-adv-x="416" 
d="M537 686l-28 -68h-250l-131 -618h-83l146 686h346z" />
    <glyph glyph-name="afii10021" unicode="&#x414;" horiz-adv-x="631" 
d="M616 686l-132 -622h70l-53 -246h-82l39 182h-402l-39 -182h-82l53 246h43q83 119 129 222q57 123 103 296l27 104h326zM346 622l-27 -93q-50 -175 -100 -276q-43 -85 -111 -189h294l118 558h-174z" />
    <glyph glyph-name="afii10022" unicode="&#x415;" horiz-adv-x="512" 
d="M566 686l-26 -68h-281l-47 -225h235l-16 -71h-235l-53 -251h302l-15 -71h-385l146 686h375z" />
    <glyph glyph-name="afii10024" unicode="&#x416;" horiz-adv-x="878" 
d="M510 398h73q41 0 70 22q26 20 47 70l41 99q23 53 47 72q28 23 80 28l49 5l3 -57l-34 -8q-24 -6 -35 -14q-18 -12 -35 -45l-48 -98q-22 -46 -44 -69q-27 -27 -61 -38q28 -15 40 -34q17 -24 19 -71l9 -138q1 -26 5.5 -35t18.5 -17q10 -7 34 -14l19 -6l-27 -57l-53 6
q-56 6 -74 37q-8 14 -10 29t-2 58v111q0 53 -16 73q-20 24 -63 24h-68l-70 -331h-82l70 331h-66q-42 0 -73 -24q-26 -20 -48 -73l-46 -111q-28 -67 -48 -87q-30 -30 -90 -37l-54 -6l-3 57l21 6q18 5 40 16q15 7 23 16t20 34l65 138q19 41 53 71q28 24 56 34q-32 16 -47 41
q-14 24 -16 66l-4 98q-1 31 -15 45q-4 4 -29 14l-32 12l27 53l40 -5q49 -5 68 -28q15 -17 17 -72l3 -99q0 -50 17 -70q18 -22 62 -22h74l61 288h82z" />
    <glyph glyph-name="afii10025" unicode="&#x417;" horiz-adv-x="534" 
d="M274 323h-94l13 64h53q68 0 112 29q67 44 67 122q0 39 -18 63q-24 33 -82 33q-95 0 -173 -57l-25 55q47 30 89 45q57 21 120 21q80 0 128 -38q50 -40 50 -113q0 -81 -66 -138q-42 -36 -95 -49q59 -8 91 -43q30 -34 30 -84q0 -53 -26.5 -105.5t-80.5 -88.5
q-77 -51 -181 -51q-124 0 -196 62l48 60q67 -58 157 -58q86 0 137 50q53 51 53 126q0 44 -30 70q-28 25 -81 25z" />
    <glyph glyph-name="afii10026" unicode="&#x418;" horiz-adv-x="667" 
d="M522 0h-82l101 476q17 77 33 131q-32 -59 -42 -72l-402 -535h-85l146 686h82l-103 -485q-9 -40 -31 -109q33 60 60 95l371 499h98z" />
    <glyph glyph-name="afii10027" unicode="&#x419;" horiz-adv-x="667" 
d="M522 0h-82l101 476q17 77 33 131q-32 -59 -42 -72l-402 -535h-85l146 686h82l-103 -485q-9 -40 -31 -109q33 60 60 95l371 499h98zM544 862l43 -23q-18 -50 -64 -81q-43 -29 -93 -29q-64 0 -97 33q-29 29 -32 77l53 23q3 -32 24 -50q22 -17 57 -17q33 0 63 17
q27 16 46 50z" />
    <glyph glyph-name="afii10028" unicode="&#x41a;" horiz-adv-x="604" 
d="M639 694l3 -57l-34 -8q-24 -6 -35 -14q-18 -12 -35 -45l-48 -98q-22 -46 -44 -69q-27 -27 -61 -38q28 -15 40 -34q17 -24 19 -71l9 -138q2 -24 5.5 -33.5t15.5 -16.5q13 -9 37 -16l19 -6l-27 -57l-53 6q-56 6 -74 37q-9 14 -10.5 28.5t-1.5 58.5v111q0 53 -16 73
q-20 24 -63 24h-88l-70 -331h-82l146 686h82l-61 -288h93q41 0 70 22q27 20 47 70l41 99q23 53 47 72q28 23 80 28z" />
    <glyph glyph-name="afii10029" unicode="&#x41b;" horiz-adv-x="600" 
d="M329 622l-52 -197q-17 -67 -28.5 -106t-33.5 -103.5t-46.5 -108t-51.5 -67.5q-39 -34 -110 -43l-34 -4l-3 57l21 6q17 5 43 16q33 16 56.5 48t58 127.5t81.5 274.5l43 164h328l-146 -686h-82l132 622h-176z" />
    <glyph glyph-name="afii10030" unicode="&#x41c;" horiz-adv-x="816" 
d="M778 686l-87 -686h-82l67 503q6 47 20 117q-23 -56 -50 -108l-256 -512h-70l-32 487q-6 104 -6 131l-36 -130l-142 -488h-79l206 686h120l30 -448q4 -65 1 -120q34 81 49 112l226 456h121z" />
    <glyph glyph-name="afii10031" unicode="&#x41d;" horiz-adv-x="641" 
d="M642 686l-146 -686h-82l71 332h-289l-71 -332h-80l146 686h80l-61 -287h289l61 287h82z" />
    <glyph glyph-name="afii10032" unicode="&#x41e;" horiz-adv-x="686" 
d="M654 466q0 -128 -43 -242t-122 -175q-44 -34 -90 -48t-108 -14q-105 0 -159.5 64.5t-54.5 178.5q0 109 38 213.5t97 164.5q46 47 99.5 68.5t127.5 21.5q102 0 158.5 -60.5t56.5 -171.5zM565 474q0 158 -140 158q-105 0 -164 -80q-43 -58 -68.5 -148t-25.5 -193
q0 -161 142 -161q79 0 140 59q49 49 82.5 159t33.5 206z" />
    <glyph glyph-name="afii10033" unicode="&#x41f;" horiz-adv-x="631" 
d="M632 686l-146 -686h-82l132 619h-277l-132 -619h-82l146 686h441z" />
    <glyph glyph-name="afii10034" unicode="&#x420;" horiz-adv-x="557" 
d="M578 527q0 -128 -96 -204q-62 -50 -179 -50h-120l-58 -273h-80l146 686h178q110 0 159.5 -44.5t49.5 -114.5zM489 508q0 56 -33.5 82.5t-112.5 26.5h-87l-59 -277h115q75 0 115 37q62 56 62 131z" />
    <glyph glyph-name="afii10035" unicode="&#x421;" horiz-adv-x="561" 
d="M603 638l-46 -51q-49 42 -121 42q-121 0 -196 -118q-37 -57 -59 -133.5t-22 -144.5q0 -83 41.5 -129t120.5 -46q71 0 143 44l32 -57q-98 -56 -203 -56q-102 0 -160.5 67.5t-58.5 180.5q0 90 32.5 182.5t91.5 158.5q49 55 115 86t132 31q96 0 158 -57z" />
    <glyph glyph-name="afii10036" unicode="&#x422;" horiz-adv-x="464" 
d="M575 686l-20 -69h-186l-131 -617h-79l131 617h-184l15 69h454z" />
    <glyph glyph-name="afii10037" unicode="&#x423;" horiz-adv-x="505" 
d="M192 686l64 -345q17 -95 17 -99l24 45q24 45 31 58l186 341h80l-283 -507q-28 -50 -52 -91q-25 -43 -55 -65q-40 -29 -108 -38l-32 -4l-3 58l21 5q27 7 47 16q30 13 50 36q21 23 44 66l21 38l-42 -9l-95 495h85z" />
    <glyph glyph-name="afii10038" unicode="&#x424;" horiz-adv-x="720" 
d="M345 0h-82l24 111h-16q-101 0 -151 52q-43 44 -43 127q0 86 36.5 164.5t92.5 118.5q71 52 174 52h16l21 101h82l-21 -101h16q97 0 148 -48q46 -44 46 -129q0 -77 -32.5 -156.5t-91.5 -124.5q-74 -56 -179 -56h-16zM464 568l-85 -400h16q75 0 120 35t68.5 110.5
t23.5 141.5q0 53 -23 78q-31 35 -104 35h-16zM386 568h-16q-74 0 -120 -37q-45 -35 -69 -108t-24 -138q0 -52 24 -80q32 -37 104 -37h16z" />
    <glyph glyph-name="afii10039" unicode="&#x425;" horiz-adv-x="491" 
d="M572 686l-249 -328l144 -358h-94l-111 295l-218 -295h-100l288 368l-121 318h91l89 -249l181 249h100z" />
    <glyph glyph-name="afii10040" unicode="&#x426;" horiz-adv-x="645" 
d="M538 64l-53 -246h-82l39 182h-397l146 686h82l-132 -622h272l132 622h82l-132 -622h43z" />
    <glyph glyph-name="afii10041" unicode="&#x427;" horiz-adv-x="584" 
d="M439 0h-82l65 308q-79 -33 -163 -33q-94 0 -132 48q-24 29 -24 75q0 16 5 43l52 245h82l-50 -235q-5 -23 -5 -37q0 -32 19 -51q24 -24 81 -24q65 0 148 30l68 317h82z" />
    <glyph glyph-name="afii10042" unicode="&#x428;" horiz-adv-x="848" 
d="M191 686h80l-132 -622h209l132 622h80l-132 -622h209l132 622h80l-146 -686h-658z" />
    <glyph glyph-name="afii10043" unicode="&#x429;" horiz-adv-x="871" 
d="M191 686h80l-132 -622h209l132 622h80l-132 -622h209l132 622h80l-133 -622h42l-53 -246h-82l39 182h-617z" />
    <glyph glyph-name="afii10044" unicode="&#x42a;" horiz-adv-x="641" 
d="M350 686l-59 -278h99q101 0 158 -42q58 -43 58 -119q0 -131 -107 -201q-72 -46 -186 -46h-191l131 618h-178l15 68h260zM218 65h121q66 0 108 29q71 49 71 141q0 59 -40 87q-30 22 -97 22h-104z" />
    <glyph glyph-name="afii10045" unicode="&#x42b;" horiz-adv-x="811" 
d="M273 686l-59 -278h99q101 0 158 -42q58 -43 58 -119q0 -131 -107 -201q-72 -46 -186 -46h-191l146 686h82zM141 64h121q65 0 108 30q71 49 71 141q0 59 -40 87q-30 22 -97 22h-104zM812 686l-146 -686h-80l146 686h80z" />
    <glyph glyph-name="afii10046" unicode="&#x42c;" horiz-adv-x="564" 
d="M273 686l-59 -278h99q101 0 158 -42q58 -43 58 -119q0 -131 -107 -201q-72 -46 -186 -46h-191l146 686h82zM141 64h121q65 0 108 30q71 49 71 141q0 59 -40 87q-30 22 -97 22h-104z" />
    <glyph glyph-name="afii10047" unicode="&#x42d;" horiz-adv-x="574" 
d="M197 388h257l4 19q8 40 8 76q0 61 -25 97q-38 53 -126 53q-86 0 -166 -51l-22 54q93 62 200 62q122 0 181 -82q44 -62 44 -157q0 -110 -39 -213q-43 -117 -128 -184q-94 -74 -219 -74q-52 0 -105 22q-39 17 -66 40l47 60q60 -57 142 -57q91 0 158 58q65 57 86 156l13 58
h-257z" />
    <glyph glyph-name="afii10048" unicode="&#x42e;" horiz-adv-x="895" 
d="M212 399h129q36 124 118 207q91 92 208 92t173 -88q33 -53 33 -154q0 -107 -38.5 -209t-106.5 -169q-90 -90 -212 -90q-105 0 -162 80q-40 56 -40 158q0 49 11 106h-127l-71 -332h-82l146 686h82zM654 634q-96 0 -157 -81q-43 -56 -71 -170t-28 -187q0 -63 28 -99
q35 -45 104 -45q84 0 144 65q48 52 80.5 168.5t32.5 192.5q0 75 -30 113q-34 43 -103 43z" />
    <glyph glyph-name="afii10049" unicode="&#x42f;" horiz-adv-x="616" 
d="M471 0h-82l66 310h-107q-42 0 -73 -24q-28 -22 -49 -73l-37 -90q-26 -65 -48 -87q-27 -29 -90 -37l-49 -6l-7 57l17 6q2 1 16.5 6t26.5 10q13 6 22 15.5t21 33.5l54 112q24 49 50 73q29 27 70 36v2q-51 9 -80 41q-32 35 -32 88q0 48 27.5 94t67.5 74q67 45 204 45h158z
M520 622h-92q-51 0 -92 -17q-49 -21 -70 -59.5t-21 -75.5q0 -44 30 -70q31 -26 106 -26h86z" />
    <glyph glyph-name="afii10065" unicode="&#x430;" 
d="M500 471q-14 -50 -26 -104l-43 -206q-9 -44 -9 -68q0 -35 26 -64l-62 -48q-38 39 -38 91q0 12 1 18q-26 -46 -71 -72.5t-102 -26.5q-50 0 -84.5 40t-34.5 118q0 76 28 153t76 126q82 84 199 84q82 0 140 -41zM413 435q-23 14 -60 14q-85 0 -145 -72q-35 -42 -52.5 -105
t-17.5 -124q0 -48 18 -69t54 -21q39 0 80.5 33.5t68.5 86.5z" />
    <glyph glyph-name="afii10066" unicode="&#x431;" horiz-adv-x="545" 
d="M524 766l26 -70q-33 -18 -115 -51l-106 -44q-57 -23 -96 -62q-36 -34 -53 -79l-21 -55q29 41 77 67q49 26 109 26q73 0 114 -48q38 -45 38 -125q0 -70 -25 -145.5t-79 -124.5q-72 -67 -173 -67q-84 0 -130 55q-39 46 -39 118q0 80 32 197q27 100 63 164q35 64 81 100
t112 63l70 28q80 31 115 53zM315 434q-75 0 -121 -66q-23 -33 -41 -98t-18 -104q0 -48 19 -75q26 -39 80 -39q90 0 136 93q18 36 30.5 88t12.5 94q0 54 -27 81q-26 26 -71 26z" />
    <glyph glyph-name="afii10067" unicode="&#x432;" horiz-adv-x="499" 
d="M29 26l64 300q21 103 96 150q54 34 124 34q66 0 106 -34q37 -32 37 -82q0 -54 -40 -96q-27 -27 -64 -39q76 -26 76 -103q0 -75 -58 -124q-53 -44 -149 -44q-102 0 -176 31zM149 227l-35 -162q15 -5 43 -11q31 -6 71 -6q62 0 92 29q31 29 31 78q0 44 -33 62q-18 10 -53 10
h-116zM160 285h106q46 0 75 21q40 29 40 76q0 34 -21.5 51t-56.5 17q-49 0 -82 -26q-36 -28 -48 -82z" />
    <glyph glyph-name="afii10068" unicode="&#x433;" horiz-adv-x="458" 
d="M132 410l-18 61q87 39 167 39q59 0 96 -24q52 -35 52 -99q0 -52 -40 -87q-8 -7 -18.5 -14t-19 -12t-23.5 -11.5t-22.5 -9.5l-27.5 -11t-27 -11q-86 -34 -113 -58q-28 -25 -28 -59q0 -27 17 -42q20 -20 64 -20q58 0 119 26l39 17l20 -61l-12 -6q-80 -40 -180 -40
q-72 0 -112 30q-42 31 -42 91q0 57 42 97q29 28 139 70q89 34 115 58q25 22 25 49q0 33 -24 50q-19 13 -52 13q-55 0 -112 -25z" />
    <glyph glyph-name="afii10069" unicode="&#x434;" horiz-adv-x="550" 
d="M198 663l24 61q31 8 68 8q42 0 81 -11q75 -20 107 -77q32 -56 32 -159q0 -57 -11 -133t-27 -129q-33 -109 -90 -166q-69 -69 -173 -69q-75 0 -118 52q-40 47 -40 132q0 73 25.5 141.5t73.5 116.5q70 70 155 70q43 0 81 -14q25 -9 46 -23q2 13 2 32v20q0 67 -22 101
q-21 31 -65 46q-30 10 -76 10q-35 0 -73 -9zM135 166q0 -58 24 -87q23 -27 61 -27q76 0 126 73q61 91 78 272q-60 39 -115 39q-71 0 -118 -62q-56 -75 -56 -208z" />
    <glyph glyph-name="afii10070" unicode="&#x435;" horiz-adv-x="505" 
d="M473 383q0 -61 -46 -104q-61 -57 -215 -57q-18 0 -62 2q-7 -32 -7 -63q0 -50 28.5 -78.5t70.5 -28.5q46 0 78.5 12.5t67.5 44.5l33 -48q-39 -40 -84 -57t-118 -17q-71 0 -117 48.5t-46 131.5q0 75 28.5 150t81.5 123q74 70 164 70q69 0 106 -34.5t37 -94.5zM394 381
q0 31 -18.5 50t-57.5 19q-49 0 -92.5 -45.5t-62.5 -121.5q14 -1 51 -1q117 0 155 38q25 25 25 61z" />
    <glyph glyph-name="afii10072" unicode="&#x436;" horiz-adv-x="803" 
d="M76 410l-28 48q42 52 113 52q58 0 93 -39q37 -41 37 -126q0 -30 -4 -50h85l42 199l81 15l-45 -214h88q26 88 86 151q61 64 134 64q49 0 84 -36l-41 -51q-23 27 -57 27q-47 0 -87 -64q-69 -109 -69 -247q0 -48 18 -70q18 -21 45 -21q41 0 76 40l28 -48q-42 -52 -113 -52
q-58 0 -93 39q-37 41 -37 126q0 41 9 82h-84l-50 -235h-78l50 235h-84q-35 -119 -96 -183t-134 -64q-49 0 -84 36l41 51q23 -27 57 -27q47 0 87 64q69 109 69 247q0 48 -18 70q-18 21 -45 21q-41 0 -76 -40z" />
    <glyph glyph-name="afii10073" unicode="&#x437;" horiz-adv-x="425" 
d="M141 293h34q60 0 95 29q31 25 31 62q0 27 -18 45q-21 20 -67 20q-36 0 -75 -13q-36 -14 -53 -24l-20 55q41 20 73 29q45 14 95 14q72 0 111 -34q34 -31 34 -78q0 -53 -40 -92q-30 -28 -68 -39q38 -8 62 -38q21 -27 21 -69q0 -90 -82 -139q-57 -33 -134 -33q-92 0 -163 54
l37 58q53 -50 129 -50q56 0 88 26q39 31 39 87q0 41 -30 58q-22 13 -66 13h-45z" />
    <glyph glyph-name="afii10074" unicode="&#x438;" horiz-adv-x="557" 
d="M520 506l-75 -353q-10 -50 -10 -66q0 -27 23 -58l-61 -50q-38 36 -38 90q0 13 1 20q-89 -106 -190 -106q-105 0 -105 100q0 35 8 73l72 338l80 15l-70 -335q-9 -47 -9 -65q0 -33 11 -46t38 -13q40 0 90 33t88 94l67 316z" />
    <glyph glyph-name="afii10075" unicode="&#x439;" horiz-adv-x="557" 
d="M520 506l-75 -353q-10 -50 -10 -66q0 -27 23 -58l-61 -50q-38 36 -38 90q0 13 1 20q-89 -106 -190 -106q-105 0 -105 100q0 35 8 73l72 338l80 15l-70 -335q-9 -47 -9 -65q0 -33 11 -46t38 -13q40 0 90 33t88 94l67 316zM464 718l44 -25q-20 -52 -66 -85q-42 -30 -96 -30
q-64 0 -99 35q-33 33 -33 80l55 25q3 -35 24 -53q20 -18 59 -18q37 0 65 18q30 20 47 53z" />
    <glyph glyph-name="afii10076" unicode="&#x43a;" horiz-adv-x="508" 
d="M144 495l78 14l-47 -218l-24 -86h3q22 52 51 96q29 45 63 84q45 51 104 84q50 27 108 40l21 -58l-15 -4q-141 -37 -226 -173l22 -2q56 -5 76 -34q12 -16 16 -54l8 -94q2 -24 15 -33q18 -9 27 -11l16 -4l-21 -52l-40 5q-52 7 -66 30q-11 19 -11 64l-1 75q0 35 -15 48
t-59 13q-65 -96 -113 -225h-75z" />
    <glyph glyph-name="afii10077" unicode="&#x43b;" horiz-adv-x="503" 
d="M466 498l-106 -498h-78l92 434h-118l-29 -93q-33 -107 -60 -178q-25 -63 -39 -89q-19 -35 -45 -53q-33 -23 -82 -27l-33 -3l-4 56l20 4q22 5 40 16q15 10 28 26q20 27 33 57q23 53 41 104q33 99 40 124l35 120h265z" />
    <glyph glyph-name="afii10078" unicode="&#x43c;" horiz-adv-x="618" 
d="M154 498h95l24 -291q4 -67 3 -113q28 70 48 110l151 294h95l-62 -498h-76l48 344l15 84h-2l-15 -34l-191 -394h-65l-23 355q-3 41 -3 73h-2l-15 -63l-102 -365h-72z" />
    <glyph glyph-name="afii10079" unicode="&#x43d;" horiz-adv-x="551" 
d="M514 509l-108 -509h-83l50 233h-202l-49 -233h-83l106 496l85 13l-45 -211h202l42 198z" />
    <glyph glyph-name="afii10080" unicode="&#x43e;" 
d="M497 332q0 -147 -78 -246t-199 -99q-81 0 -125 47.5t-44 132.5q0 148 79 247t198 99q84 0 126.5 -48.5t42.5 -132.5zM411 341q0 56 -27 82t-70 26q-82 0 -129.5 -81t-47.5 -206q0 -110 98 -110q83 0 129.5 84t46.5 205z" />
    <glyph glyph-name="afii10081" unicode="&#x43f;" horiz-adv-x="556" 
d="M495 410q0 -16 -3 -32l-81 -378h-79l72 337q8 35 8 54q0 50 -48 50q-34 0 -80.5 -28.5t-93.5 -87.5l-69 -325h-76l76 356q11 55 11 76q0 23 -7 47l73 34q12 -34 12 -60q0 -22 -7 -50q39 52 91 79t102 27q46 0 72.5 -26.5t26.5 -72.5z" />
    <glyph glyph-name="afii10082" unicode="&#x440;" horiz-adv-x="563" 
d="M514 348q0 -68 -24 -145.5t-63 -124.5q-35 -43 -84.5 -66.5t-99.5 -23.5q-71 0 -118 25l-44 -206l-81 -15l121 565q11 55 11 76q0 20 -8 46l73 34q13 -29 13 -60q0 -16 -5 -46q38 50 87 75.5t94 25.5q63 0 95.5 -42.5t32.5 -117.5zM429 343q0 51 -17.5 73t-55.5 22
t-82 -29t-83 -81l-52 -245q36 -30 103 -30q34 0 69 19t54 47q27 41 45.5 105.5t18.5 118.5z" />
    <glyph glyph-name="afii10083" unicode="&#x441;" horiz-adv-x="450" 
d="M455 469l-37 -61q-42 35 -101 35q-63 0 -106 -56q-27 -36 -48.5 -104t-21.5 -124q0 -108 94 -108q62 0 119 54l32 -50q-79 -66 -166 -66q-163 0 -163 169q0 83 38 168.5t90 127.5q69 57 149 57q73 0 121 -42z" />
    <glyph glyph-name="afii10084" unicode="&#x442;" horiz-adv-x="812" 
d="M751 414q0 -18 -8 -58l-76 -356h-80l74 348q6 25 6 48q0 44 -49 44q-29 0 -73 -32t-84 -81l-70 -327h-79l72 340q10 44 10 58q0 42 -40 42q-30 0 -76.5 -31t-88.5 -84l-69 -325h-75l76 357q11 55 11 76q0 22 -7 46l73 34q12 -27 12 -58q0 -22 -7 -52q91 106 184 106
q85 0 85 -105q93 107 187 107q43 0 67.5 -29t24.5 -68z" />
    <glyph glyph-name="afii10085" unicode="&#x443;" horiz-adv-x="461" 
d="M502 498l-230 -422q-9 -16 -32.5 -60.5t-33 -60.5t-27 -44t-31.5 -44.5t-30 -28.5q-40 -32 -97 -43l-18 53q42 4 88 46q34 31 64 106l-32 -4q2 63 -12 179l-41 317l82 17l34 -319q6 -66 3 -124h2l54 105l167 327h90z" />
    <glyph glyph-name="afii10086" unicode="&#x444;" horiz-adv-x="749" 
d="M515 732l-58 -273q55 51 111 51q53 0 90 -38q39 -41 39 -118q0 -141 -64 -246q-37 -61 -87.5 -90.5t-98.5 -29.5q-54 0 -82 40l-47 -221l-81 -14l50 235q-43 -40 -105 -40q-50 0 -87 37q-45 45 -45 128q0 59 16.5 123t42.5 109q37 65 85.5 95t93.5 30q48 0 91 -51l54 258
zM444 400l-66 -311q37 -37 76 -37q61 0 106 74q26 44 40.5 107t14.5 113q0 52 -18 75q-19 24 -56 24q-48 0 -97 -45zM300 89l66 311q-34 45 -73 45q-74 0 -118 -94q-43 -93 -43 -180q0 -67 20 -93q19 -26 55 -26q40 0 93 37z" />
    <glyph glyph-name="afii10087" unicode="&#x445;" horiz-adv-x="411" 
d="M453 498l-196 -223l132 -275h-92l-90 215l-179 -215h-95l245 276l-107 222h94l64 -166l131 166h93z" />
    <glyph glyph-name="afii10088" unicode="&#x446;" horiz-adv-x="557" 
d="M520 506l-75 -353q-10 -50 -10 -66q0 -13 3 -23h28l-51 -239h-77l37 175q-16 32 -16 69q0 13 1 20q-89 -106 -190 -106q-105 0 -105 100q0 35 8 73l72 338l80 15l-70 -335q-9 -47 -9 -65q0 -33 11 -46t38 -13q40 0 90 33t88 94l67 316z" />
    <glyph glyph-name="afii10089" unicode="&#x447;" horiz-adv-x="484" 
d="M177 509l-40 -187q-2 -10 -2 -18q0 -27 18 -41q19 -15 66 -15q46 0 99 20l48 226l81 15l-108 -509h-78l45 210q-51 -25 -114 -25q-88 0 -121 46q-16 23 -16 54q0 17 6 45l35 164z" />
    <glyph glyph-name="afii10090" unicode="&#x448;" horiz-adv-x="791" 
d="M672 18l-75 -34q-13 29 -13 59q0 23 8 51q-37 -46 -80 -72q-55 -34 -104 -34q-52 0 -72 39q-13 26 -13 66q-38 -46 -89 -75.5t-93 -29.5q-46 0 -74 33q-20 26 -20 67q0 27 7 55l75 351l81 15l-76 -360q-6 -33 -6 -50q0 -25 18 -35q11 -7 31 -7q23 0 57 21q54 34 100 92
l69 324l81 15l-74 -352q-10 -50 -10 -62q0 -18 10 -28q9 -10 27 -10q28 0 62 19q49 27 107 96l67 322l81 15l-78 -369q-11 -55 -11 -75q0 -23 7 -47z" />
    <glyph glyph-name="afii10091" unicode="&#x449;" horiz-adv-x="791" 
d="M665 65v-1h17l-51 -239h-77l37 174q-7 21 -7 44t8 51q-37 -46 -80 -72q-55 -34 -104 -34q-52 0 -72 39q-13 26 -13 66q-38 -46 -89 -75.5t-93 -29.5q-46 0 -74 33q-20 26 -20 67q0 27 7 55l75 351l81 15l-76 -360q-6 -33 -6 -50q0 -25 18 -35q11 -7 31 -7q23 0 57 21
q54 34 100 92l69 324l81 15l-74 -352q-10 -50 -10 -62q0 -18 10 -28q9 -10 27 -10q28 0 62 19q49 27 107 96l67 322l81 15l-78 -369q-11 -55 -11 -75z" />
    <glyph glyph-name="afii10092" unicode="&#x44a;" horiz-adv-x="543" 
d="M99 27l87 409h-146l24 62h218l-43 -200q42 15 94 15q71 0 113 -36q47 -39 47 -104q0 -79 -57 -133q-58 -52 -154 -52q-86 0 -163 31zM226 237l-36 -172q49 -15 86 -15q67 0 100 32q33 33 33 85q0 38 -24 61t-76 23q-42 0 -83 -14z" />
    <glyph glyph-name="afii10093" unicode="&#x44b;" horiz-adv-x="703" 
d="M35 27l100 469l85 13l-45 -211q42 15 94 15q71 0 113 -36q47 -39 47 -104q0 -79 -57 -133q-58 -52 -154 -52q-86 0 -163 31zM162 237l-36 -172q49 -15 86 -15q67 0 100 32q33 33 33 85q0 38 -24 61t-76 23q-42 0 -83 -14zM666 509l-108 -509h-83l106 496z" />
    <glyph glyph-name="afii10094" unicode="&#x44c;" horiz-adv-x="479" 
d="M35 27l100 469l85 13l-45 -211q42 15 94 15q71 0 113 -36q47 -39 47 -104q0 -79 -57 -133q-58 -52 -154 -52q-86 0 -163 31zM162 237l-36 -172q49 -15 86 -15q67 0 100 32q33 33 33 85q0 38 -24 61t-76 23q-42 0 -83 -14z" />
    <glyph glyph-name="afii10095" unicode="&#x44d;" horiz-adv-x="447" 
d="M-20 53l49 47q15 -22 37 -35q28 -17 67 -17q74 0 121 67q34 48 45 114h-170l12 60h168q5 28 5 52q0 44 -17 71q-23 38 -76 38q-60 0 -111 -40l-32 45q72 55 154 55q90 0 129 -53q35 -46 35 -127q0 -69 -26 -144t-66 -120q-70 -78 -180 -78q-50 0 -92 23q-31 17 -52 42z
" />
    <glyph glyph-name="afii10096" unicode="&#x44e;" horiz-adv-x="721" 
d="M230 509l-45 -212h80q26 80 70 132q70 83 179 83q78 0 120 -47q43 -48 43 -136q0 -82 -29.5 -155.5t-77.5 -119.5q-70 -66 -168 -66q-75 0 -117 51q-40 46 -40 135q0 35 5 59h-79l-49 -233h-83l106 496zM500 448q-72 0 -117 -65q-56 -81 -56 -224q0 -54 23 -80
q24 -27 68 -27q58 0 98 43q36 37 56.5 104.5t20.5 132.5q0 60 -27 89q-25 27 -66 27z" />
    <glyph glyph-name="afii10097" unicode="&#x44f;" horiz-adv-x="517" 
d="M339 214h-59q-31 0 -53 -14q-24 -16 -40 -49l-30 -60q-26 -54 -48 -72q-25 -21 -74 -25l-31 -3l-13 55l17 3q15 2 28 10q16 10 33 39l39 66q20 34 39 50q25 21 59 27q-46 9 -74 35q-30 28 -30 71q0 83 75 129q56 34 154 34q34 0 120 -9l27 -3l-106 -498h-78zM352 274
l36 167q-38 9 -67 9q-71 0 -107 -27q-35 -27 -35 -72q0 -31 20 -51q27 -26 91 -26h62z" />
    <glyph glyph-name="uni0450" unicode="&#x450;" horiz-adv-x="505" 
d="M473 383q0 -61 -46 -104q-61 -57 -215 -57q-18 0 -62 2q-7 -32 -7 -63q0 -50 28.5 -78.5t70.5 -28.5q46 0 78.5 12.5t67.5 44.5l33 -48q-39 -40 -84 -57t-118 -17q-71 0 -117 48.5t-46 131.5q0 75 28.5 150t81.5 123q74 70 164 70q69 0 106 -34.5t37 -94.5zM394 381
q0 31 -18.5 50t-57.5 19q-49 0 -92.5 -45.5t-62.5 -121.5q14 -1 51 -1q117 0 155 38q25 25 25 61zM434 612l-26 -47l-223 100l43 77z" />
    <glyph glyph-name="afii10071" unicode="&#x451;" horiz-adv-x="505" 
d="M473 383q0 -61 -46 -104q-61 -57 -215 -57q-18 0 -62 2q-7 -32 -7 -63q0 -50 28.5 -78.5t70.5 -28.5q46 0 78.5 12.5t67.5 44.5l33 -48q-39 -40 -84 -57t-118 -17q-71 0 -117 48.5t-46 131.5q0 75 28.5 150t81.5 123q74 70 164 70q69 0 106 -34.5t37 -94.5zM394 381
q0 31 -18.5 50t-57.5 19q-49 0 -92.5 -45.5t-62.5 -121.5q14 -1 51 -1q117 0 155 38q25 25 25 61zM294 621q0 -22 -14.5 -37.5t-36.5 -15.5t-37 15.5t-15 37.5q0 21 15 36t36 15q22 0 37 -15t15 -36zM501 621q0 -22 -14.5 -37.5t-36.5 -15.5t-37 15.5t-15 37.5q0 21 15 36
t36 15q22 0 37 -15t15 -36z" />
    <glyph glyph-name="afii10099" unicode="&#x452;" horiz-adv-x="566" 
d="M506 416q0 -22 -8 -59l-58 -272q-33 -154 -67 -200q-45 -60 -113 -83l-28 52q19 7 35 18t26.5 20t20.5 29.5t15.5 31t13 41.5t10 43t11.5 53l52 246q8 38 8 51q0 26 -14.5 40t-39.5 14q-37 0 -86.5 -31.5t-91.5 -83.5l-69 -326h-78l117 550l4 22h-59l12 58h54q1 45 -6 75
l83 32q10 -40 4 -107h169l-35 -58h-143l-5 -23l-11 -52q-8 -37 -25 -93q41 53 94.5 79t102.5 26q47 0 76 -27t29 -66z" />
    <glyph glyph-name="afii10100" unicode="&#x453;" horiz-adv-x="458" 
d="M132 410l-18 61q87 39 167 39q59 0 96 -24q52 -35 52 -99q0 -52 -40 -87q-8 -7 -18.5 -14t-19 -12t-23.5 -11.5t-22.5 -9.5l-27.5 -11t-27 -11q-86 -34 -113 -58q-28 -25 -28 -59q0 -27 17 -42q20 -20 64 -20q58 0 119 26l39 17l20 -61l-12 -6q-80 -40 -180 -40
q-72 0 -112 30q-42 31 -42 91q0 57 42 97q29 28 139 70q89 34 115 58q25 22 25 49q0 33 -24 50q-19 13 -52 13q-55 0 -112 -25zM441 665l-225 -100l-26 47l208 130z" />
    <glyph glyph-name="afii10101" unicode="&#x454;" horiz-adv-x="461" 
d="M362 101l31 -47q-74 -66 -173 -66q-95 0 -136 65q-27 43 -27 113q0 77 29 157q31 80 91 131q66 56 150 56q90 0 139 -54l-52 -46q-38 42 -95 42q-51 0 -87 -28q-42 -35 -60 -94l-11 -36h169l-12 -60h-169l-8 -35q-5 -20 -5 -53q0 -45 16 -67q24 -33 77 -33q76 0 133 55z
" />
    <glyph glyph-name="afii10102" unicode="&#x455;" horiz-adv-x="467" 
d="M432 480l-32 -60q-67 36 -117 36t-81.5 -20t-31.5 -54q0 -26 11.5 -41.5t42.5 -28.5l63 -27q57 -24 81 -54t24 -72q0 -80 -60.5 -126.5t-156.5 -46.5q-104 0 -172 48l32 60q68 -47 148 -47q53 0 87 23t34 61q0 31 -13.5 49.5t-49.5 34.5l-59 26q-52 23 -74.5 51t-22.5 71
q0 68 56.5 111.5t146.5 43.5q85 0 144 -38z" />
    <glyph glyph-name="afii10103" unicode="&#x456;" horiz-adv-x="273" 
d="M236 509l-108 -509h-83l106 496zM287 652q0 -26 -17.5 -43.5t-43.5 -17.5q-25 0 -43 17.5t-18 42.5q0 26 18 44t43 18q26 0 43.5 -17.5t17.5 -43.5z" />
    <glyph glyph-name="afii10104" unicode="&#x457;" horiz-adv-x="273" 
d="M236 509l-108 -509h-83l106 496zM153 621q0 -22 -14.5 -37.5t-36.5 -15.5t-37 15.5t-15 37.5q0 21 15 36t36 15q22 0 37 -15t15 -36zM360 621q0 -22 -14.5 -37.5t-36.5 -15.5t-37 15.5t-15 37.5q0 21 15 36t36 15q22 0 37 -15t15 -36z" />
    <glyph glyph-name="afii10105" unicode="&#x458;" horiz-adv-x="269" 
d="M233 510l-106 -497q-20 -92 -56 -138.5t-105 -72.5l-28 52q51 22 72.5 54t38.5 109l101 477zM285 661q-1 -26 -18.5 -44t-42.5 -18q-26 0 -44 17.5t-18 42.5q1 26 19 44.5t43 18.5t43 -18t18 -43z" />
    <glyph glyph-name="afii10106" unicode="&#x459;" horiz-adv-x="727" 
d="M287 25l87 409h-118l-29 -93q-33 -107 -60 -178q-25 -63 -39 -89q-19 -35 -45 -53q-33 -23 -82 -27l-33 -3l-4 56l20 4q22 5 40 16q15 10 28 26q20 27 33 57q23 53 41 104q33 99 40 124l35 120h265l-42 -199q46 14 93 14q71 0 113 -36q47 -39 47 -104q0 -79 -57 -133
q-58 -52 -154 -52q-82 0 -163 31zM493 251q-42 0 -83 -14l-36 -172q49 -15 86 -15q67 0 100 32q33 33 33 85q0 38 -24 61t-76 23z" />
    <glyph glyph-name="afii10107" unicode="&#x45a;" horiz-adv-x="766" 
d="M329 27l44 206h-202l-49 -233h-83l106 496l85 13l-45 -211h202l42 198l85 13l-45 -211q42 15 94 15q71 0 113 -36q47 -39 47 -104q0 -79 -57 -133q-58 -52 -154 -52q-86 0 -163 31zM456 237l-36 -172q49 -15 86 -15q67 0 100 32q33 33 33 85q0 38 -24 61t-76 23
q-42 0 -83 -14z" />
    <glyph glyph-name="afii10108" unicode="&#x45b;" horiz-adv-x="566" 
d="M506 416q0 -22 -8 -59l-76 -357h-77l71 336q8 38 8 51q0 26 -14.5 40t-39.5 14q-37 0 -86.5 -31.5t-91.5 -83.5l-69 -326h-78l117 550l4 22h-59l12 58h54q1 45 -6 75l83 32q10 -40 4 -107h169l-35 -58h-143l-5 -23l-11 -52q-8 -37 -25 -93q41 53 94.5 79t102.5 26
q47 0 76 -27t29 -66z" />
    <glyph glyph-name="afii10109" unicode="&#x45c;" horiz-adv-x="508" 
d="M144 495l78 14l-47 -218l-24 -86h3q22 52 51 96q29 45 63 84q45 51 104 84q50 27 108 40l21 -58l-15 -4q-141 -37 -226 -173l22 -2q56 -5 76 -34q12 -16 16 -54l8 -94q2 -24 15 -33q18 -9 27 -11l16 -4l-21 -52l-40 5q-52 7 -66 30q-11 19 -11 64l-1 75q0 35 -15 48
t-59 13q-65 -96 -113 -225h-75zM489 665l-225 -100l-26 47l208 130z" />
    <glyph glyph-name="uni045D" unicode="&#x45d;" horiz-adv-x="557" 
d="M520 506l-75 -353q-10 -50 -10 -66q0 -27 23 -58l-61 -50q-38 36 -38 90q0 13 1 20q-89 -106 -190 -106q-105 0 -105 100q0 35 8 73l72 338l80 15l-70 -335q-9 -47 -9 -65q0 -33 11 -46t38 -13q40 0 90 33t88 94l67 316zM447 612l-26 -47l-223 100l43 77z" />
    <glyph glyph-name="afii10110" unicode="&#x45e;" horiz-adv-x="461" 
d="M502 498l-230 -422q-9 -16 -32.5 -60.5t-33 -60.5t-27 -44t-31.5 -44.5t-30 -28.5q-40 -32 -97 -43l-18 53q42 4 88 46q34 31 64 106l-32 -4q2 63 -12 179l-41 317l82 17l34 -319q6 -66 3 -124h2l54 105l167 327h90zM413 718l44 -25q-20 -52 -66 -85q-42 -30 -96 -30
q-64 0 -99 35q-33 33 -33 80l55 25q3 -35 24 -53q20 -18 59 -18q37 0 65 18q30 20 47 53z" />
    <glyph glyph-name="afii10193" unicode="&#x45f;" horiz-adv-x="557" 
d="M195 -175l27 132l85 31l-36 -163h-76zM520 506l-75 -353q-10 -50 -10 -66q0 -27 23 -58l-61 -50q-38 36 -38 90q0 13 1 20q-89 -106 -190 -106q-105 0 -105 100q0 35 8 73l72 338l80 15l-70 -335q-9 -47 -9 -65q0 -33 11 -46t38 -13q40 0 90 33t88 94l67 316z" />
    <glyph glyph-name="afii10146" unicode="&#x462;" horiz-adv-x="564" 
d="M273 686l-21 -96h137l-11 -54h-137l-27 -128h99q101 0 158 -42q58 -43 58 -119q0 -131 -107 -201q-72 -46 -186 -46h-191l114 536h-50l11 54h50l21 96h82zM141 64h121q65 0 108 30q71 49 71 141q0 59 -40 87q-30 22 -97 22h-104z" />
    <glyph glyph-name="afii10194" unicode="&#x463;" horiz-adv-x="479" 
d="M62 388l11 54h50l12 54l85 13l-15 -67h129l-11 -54h-129l-19 -90q42 15 94 15q71 0 113 -36q47 -39 47 -104q0 -79 -57 -133q-58 -52 -154 -52q-86 0 -163 31l-20 8l77 361h-50zM162 237l-36 -172q49 -15 86 -15q67 0 100 32q33 33 33 85q0 38 -24 61t-76 23
q-42 0 -83 -14z" />
    <glyph glyph-name="afii10147" unicode="&#x472;" horiz-adv-x="687" 
d="M659 466q0 -126 -44.5 -240.5t-124.5 -175.5q-45 -34 -90 -48.5t-107 -14.5q-105 0 -161 64.5t-56 178.5q0 109 38.5 212t98.5 164q90 92 228 92q102 0 160 -61t58 -171zM570 474q0 74 -35.5 116t-107.5 42q-105 0 -165 -82q-46 -62 -72 -157h374q6 42 6 81zM550 322
h-375q-9 -52 -9 -111q0 -161 145 -161q77 0 139 60q63 62 100 212z" />
    <glyph glyph-name="afii10195" unicode="&#x473;" 
d="M497 332q0 -147 -78 -246t-199 -99q-81 0 -125 47.5t-44 132.5q0 148 79 247t198 99q84 0 126.5 -48.5t42.5 -132.5zM235 52q60 0 101.5 46.5t60.5 123.5h-257q-3 -28 -3 -60q0 -110 98 -110zM411 341q0 56 -27 82t-70 26q-60 0 -102.5 -45t-61.5 -122h258q3 28 3 59z
" />
    <glyph glyph-name="afii10148" unicode="&#x474;" horiz-adv-x="577" 
d="M327 236l173 322q35 65 70.5 97.5t100.5 42.5l16 -69q-44 -9 -68 -33t-61 -90l-281 -506h-81l-85 686h85l52 -440q10 -88 7 -153q34 73 72 143z" />
    <glyph glyph-name="afii10196" unicode="&#x475;" horiz-adv-x="461" 
d="M241 167l126 228q51 92 153 118l21 -57q-39 -13 -62.5 -34.5t-44.5 -57.5l-215 -369h-77l-73 499l79 17l43 -343q6 -48 6 -85h2q12 28 42 84z" />
    <glyph glyph-name="afii10050" unicode="&#x490;" horiz-adv-x="416" 
d="M484 792h76l-37 -174h-265l-130 -618h-83l146 686h271z" />
    <glyph glyph-name="afii10098" unicode="&#x491;" horiz-adv-x="398" 
d="M212 428l-91 -428h-82l106 498h215l18 85l85 14l-36 -169h-215z" />
    <glyph glyph-name="uni0492" unicode="&#x492;" horiz-adv-x="416" 
d="M537 686l-28 -68h-250l-44 -209h123l-15 -68h-123l-72 -341h-83l72 341h-86l15 68h86l59 277h346z" />
    <glyph glyph-name="uni0493" unicode="&#x493;" horiz-adv-x="458" 
d="M132 410l-18 61q87 39 167 39q71 0 109.5 -32.5t38.5 -75.5q0 -39 -28.5 -70.5t-68.5 -48.5h87l-22 -50h-161q-66 -27 -96 -51.5t-30 -63.5q0 -66 81 -66q58 0 119 26l39 17l20 -61l-12 -6q-80 -40 -180 -40q-41 0 -73 9t-56.5 36.5t-24.5 71.5q0 38 32 74t83 54h-86
l10 50h174q58 24 83 46t25 54q0 63 -76 63q-55 0 -112 -25z" />
    <glyph glyph-name="uni0496" unicode="&#x496;" horiz-adv-x="878" 
d="M510 398h73q41 0 70 22q26 20 47 70l41 99q23 53 47 72q28 23 80 28l49 5l3 -57l-34 -8q-24 -6 -35 -14q-18 -12 -35 -45l-48 -98q-22 -46 -44 -69q-27 -27 -61 -38q28 -15 40 -34q17 -24 19 -71l9 -138q1 -26 5.5 -35t18.5 -17q3 -3 12 -6h44l-53 -246h-82l39 182
q-44 8 -61 36q-8 14 -10 29t-2 58v111q0 53 -16 73q-20 24 -63 24h-68l-70 -331h-82l70 331h-66q-42 0 -73 -24q-26 -20 -48 -73l-46 -111q-28 -67 -48 -87q-30 -30 -90 -37l-54 -6l-3 57l21 6q18 5 40 16q15 7 23 16t20 34l65 138q19 41 53 71q28 24 56 34q-32 16 -47 41
q-14 24 -16 66l-4 98q-1 31 -15 45q-4 4 -29 14l-32 12l27 53l40 -5q49 -5 68 -28q15 -17 17 -72l3 -99q0 -50 17 -70q18 -22 62 -22h74l61 288h82z" />
    <glyph glyph-name="uni0497" unicode="&#x497;" horiz-adv-x="803" 
d="M700 64h60l-51 -239h-77l35 165q-16 -2 -25 -2q-58 0 -93 39q-37 41 -37 126q0 41 9 82h-84l-50 -235h-78l50 235h-84q-35 -119 -96 -183t-134 -64q-49 0 -84 36l41 51q23 -27 57 -27q47 0 87 64q69 109 69 247q0 48 -18 70q-18 21 -45 21q-41 0 -76 -40l-28 48
q42 52 113 52q58 0 93 -39q37 -41 37 -126q0 -30 -4 -50h85l42 199l81 15l-45 -214h88q26 88 86 151q61 64 134 64q49 0 84 -36l-41 -51q-23 27 -57 27q-47 0 -87 -64q-69 -109 -69 -247q0 -48 18 -70q18 -21 45 -21q26 0 49 16z" />
    <glyph glyph-name="uni049A" unicode="&#x49a;" horiz-adv-x="604" 
d="M533 64l-53 -246h-82l39 182q-44 8 -61 36q-9 14 -10.5 28.5t-1.5 58.5v111q0 53 -16 73q-20 24 -63 24h-88l-70 -331h-82l146 686h82l-61 -288h93q41 0 70 22q27 20 47 70l41 99q23 53 47 72q28 23 80 28l49 5l3 -57l-34 -8q-24 -6 -35 -14q-18 -12 -35 -45l-48 -98
q-22 -46 -44 -69q-27 -27 -61 -38q28 -15 40 -34q17 -24 19 -71l9 -138q2 -24 5.5 -33.5t15.5 -16.5q5 -3 16 -8h43z" />
    <glyph glyph-name="uni049B" unicode="&#x49b;" horiz-adv-x="508" 
d="M144 495l78 14l-47 -218l-24 -86h3q22 52 51 96q29 45 63 84q45 51 104 84q50 27 108 40l21 -58l-15 -4q-141 -37 -226 -173l22 -2q56 -5 76 -34q12 -16 16 -54l8 -94q1 -18 8 -26h55l-51 -239h-77l37 174q-29 5 -41 26q-11 19 -11 64l-1 75q0 35 -15 48t-59 13
q-65 -96 -113 -225h-75z" />
    <glyph glyph-name="uni049C" unicode="&#x49c;" horiz-adv-x="604" 
d="M639 694l3 -57l-34 -8q-24 -6 -35 -14q-18 -12 -35 -45l-48 -98q-22 -46 -44 -69q-27 -27 -61 -38q28 -15 40 -34q17 -24 19 -71l9 -138q2 -24 5.5 -33.5t15.5 -16.5q13 -9 37 -16l19 -6l-27 -57l-53 6q-56 6 -74 37q-9 14 -10.5 28.5t-1.5 58.5v111q0 53 -16 73
q-12 13 -32 20l-28 -134h-70l29 138h-50l-70 -331h-82l146 686h82l-61 -288h50l27 128h70l-27 -125q25 5 43 19q27 20 47 70l41 99q23 53 47 72q28 23 80 28z" />
    <glyph glyph-name="uni049D" unicode="&#x49d;" horiz-adv-x="527" 
d="M243 403h61l-24 -114q18 1 36 15q17 13 32 47l35 76q18 38 34 52q22 20 65 24l45 4l3 -50l-31 -7q-16 -4 -24 -11q-15 -12 -21 -28l-37 -75q-18 -37 -34 -50q-16 -15 -42 -24l-1 -3q15 -6 26 -23q13 -19 15 -54l6 -92q2 -23 16 -33q9 -6 27 -11l17 -4l-21 -51l-55 7
q-40 5 -54 30q-10 18 -10 61v75q0 36 -12 50q-11 12 -28 14l-25 -117h-61l25 118h-43l-49 -229h-75l105 495l79 14l-47 -220h43z" />
    <glyph glyph-name="uni04A2" unicode="&#x4a2;" horiz-adv-x="641" 
d="M551 64l-53 -246h-82l39 182h-41l71 332h-289l-71 -332h-80l146 686h80l-61 -287h289l61 287h82l-133 -622h42z" />
    <glyph glyph-name="uni04A3" unicode="&#x4a3;" horiz-adv-x="551" 
d="M514 509l-95 -445h39l-51 -239h-77l37 175h-44l50 233h-202l-49 -233h-83l106 496l85 13l-45 -211h202l42 198z" />
    <glyph glyph-name="uni04AE" unicode="&#x4ae;" horiz-adv-x="539" 
d="M630 686l-312 -419l-57 -267h-85l58 272l-133 414h97l74 -262q15 -53 19 -77q21 32 53 77l188 262h98z" />
    <glyph glyph-name="uni04AF" unicode="&#x4af;" horiz-adv-x="446" 
d="M149 509l34 -337q5 -47 4 -74h2q29 62 35 74l177 326h87l-281 -498l-41 -193l-82 -15l44 208l-58 493z" />
    <glyph glyph-name="uni04B0" unicode="&#x4b0;" horiz-adv-x="539" 
d="M630 686l-279 -374h137l-15 -68h-160l-52 -244h-85l52 244h-147l15 68h125l-120 374h97l74 -262q15 -53 19 -77q21 32 53 77l188 262h98z" />
    <glyph glyph-name="uni04B1" unicode="&#x4b1;" horiz-adv-x="446" 
d="M334 0h-127l-41 -193l-82 -15l44 208h-125l11 59h107l-51 434l79 16l34 -337q5 -47 4 -74h2q29 62 35 74l177 326h87l-248 -439h125z" />
    <glyph glyph-name="uni04B2" unicode="&#x4b2;" horiz-adv-x="558" 
d="M572 686l-249 -328l118 -294h40l-53 -246h-82l39 182h-12l-111 295l-218 -295h-100l288 368l-121 318h91l89 -249l181 249h100z" />
    <glyph glyph-name="uni04B3" unicode="&#x4b3;" horiz-adv-x="411" 
d="M453 498l-196 -223l101 -211h45l-51 -239h-77l37 175h-15l-90 215l-179 -215h-95l245 276l-107 222h94l64 -166l131 166h93z" />
    <glyph glyph-name="uni04B6" unicode="&#x4b6;" horiz-adv-x="584" 
d="M494 64l-53 -246h-82l39 182h-41l65 308q-79 -33 -163 -33q-94 0 -132 48q-24 29 -24 75q0 16 5 43l52 245h82l-50 -235q-5 -23 -5 -37q0 -32 19 -51q24 -24 81 -24q65 0 148 30l68 317h82l-133 -622h42z" />
    <glyph glyph-name="uni04B7" unicode="&#x4b7;" horiz-adv-x="495" 
d="M177 509l-40 -187q-2 -10 -2 -18q0 -27 18 -41q19 -15 66 -15q46 0 99 20l48 226l81 15l-95 -445h39l-51 -239h-77l37 175h-39l45 210q-51 -25 -114 -25q-88 0 -121 46q-16 23 -16 54q0 17 6 45l35 164z" />
    <glyph glyph-name="uni04B8" unicode="&#x4b8;" horiz-adv-x="584" 
d="M439 0h-82l65 308q-51 -21 -104 -29l-29 -135h-70l28 131q-84 3 -120 48q-24 29 -24 75q0 16 5 43l52 245h82l-50 -235q-5 -23 -5 -37q0 -32 19 -51q18 -18 55 -23l29 137h70l-29 -135q50 7 104 27l68 317h82z" />
    <glyph glyph-name="uni04B9" unicode="&#x4b9;" horiz-adv-x="484" 
d="M177 509l-40 -187q-2 -10 -2 -18q0 -27 18 -41q13 -10 36 -14l25 118h59l-26 -118q32 4 71 19l48 226l81 15l-108 -509h-78l45 210q-30 -15 -72 -22l-24 -113h-59l24 110q-74 4 -104 46q-16 23 -16 54q0 17 6 45l35 164z" />
    <glyph glyph-name="uni04BA" unicode="&#x4ba;" horiz-adv-x="594" 
d="M191 686h82l-65 -308q79 33 163 33q94 0 132 -48q24 -29 24 -75q0 -16 -5 -43l-52 -245h-82l50 235q5 23 5 37q0 32 -19 51q-24 24 -81 24q-65 0 -148 -30l-68 -317h-82z" />
    <glyph glyph-name="uni04BB" unicode="&#x4bb;" horiz-adv-x="567" 
d="M506 416q0 -22 -8 -59l-76 -357h-77l71 336q8 38 8 51q0 26 -14.5 40t-39.5 14q-37 0 -86.5 -31.5t-91.5 -83.5l-69 -326h-78l117 550q21 99 5 155l83 32q18 -61 -10 -188l-11 -52q-8 -37 -25 -93q41 53 94.5 79t102.5 26q47 0 76 -27t29 -66z" />
    <glyph glyph-name="uni04C0" unicode="&#x4c0;" horiz-adv-x="272" 
d="M271 686l-146 -686h-80l146 686h80z" />
    <glyph glyph-name="uni04CF" unicode="&#x4cf;" horiz-adv-x="268" 
d="M250 737q7 -21 7 -57q0 -54 -15 -125l-118 -555h-78l117 555q11 50 11 93q0 31 -7 57z" />
    <glyph glyph-name="uni04D8" unicode="&#x4d8;" horiz-adv-x="599" 
d="M363 374q18 0 108 -3q6 45 6 93q-1 81 -40.5 124.5t-103.5 43.5q-57 0 -101.5 -18.5t-89.5 -61.5l-38 54q51 50 107.5 71t138.5 21q104 0 162 -65.5t58 -179.5q0 -104 -35.5 -207t-101.5 -168q-92 -91 -212 -91q-87 0 -134 46t-47 122q0 52 20.5 91.5t52.5 63t76 38.5
t86 20.5t88 5.5zM233 50q77 0 137.5 71.5t88.5 185.5q-26 1 -86 1q-249 0 -249 -151q0 -46 28.5 -76.5t80.5 -30.5z" />
    <glyph glyph-name="afii10846" unicode="&#x4d9;" horiz-adv-x="495" 
d="M31 118q0 61 46 104q61 57 215 57q40 0 62 -2q7 32 7 63q0 50 -28.5 78.5t-70.5 28.5q-46 0 -78.5 -12.5t-67.5 -44.5l-33 48q39 40 84 57t118 17q71 0 117 -48.5t46 -131.5q0 -75 -28.5 -150t-81.5 -123q-74 -70 -164 -70q-69 0 -106 34.5t-37 94.5zM110 120
q0 -31 18.5 -50t57.5 -19q49 0 92.5 45.5t62.5 121.5q-14 1 -51 1q-117 0 -155 -38q-25 -25 -25 -61z" />
    <glyph glyph-name="uni04E2" unicode="&#x4e2;" horiz-adv-x="667" 
d="M522 0h-82l101 476q17 77 33 131q-32 -59 -42 -72l-402 -535h-85l146 686h82l-103 -485q-9 -40 -31 -109q33 60 60 95l371 499h98zM588 811l-13 -59h-274l13 59h274z" />
    <glyph glyph-name="uni04E3" unicode="&#x4e3;" horiz-adv-x="557" 
d="M520 506l-75 -353q-10 -50 -10 -66q0 -27 23 -58l-61 -50q-38 36 -38 90q0 13 1 20q-89 -106 -190 -106q-105 0 -105 100q0 35 8 73l72 338l80 15l-70 -335q-9 -47 -9 -65q0 -33 11 -46t38 -13q40 0 90 33t88 94l67 316zM493 646l-12 -54h-274l12 54h274z" />
    <glyph glyph-name="uni04E8" unicode="&#x4e8;" horiz-adv-x="687" 
d="M659 466q0 -126 -44.5 -240.5t-124.5 -175.5q-45 -34 -90 -48.5t-107 -14.5q-105 0 -161 64.5t-56 178.5q0 109 38.5 212t98.5 164q90 92 228 92q102 0 160 -61t58 -171zM570 474q0 74 -35.5 116t-107.5 42q-105 0 -165 -82q-46 -62 -72 -157h374q6 42 6 81zM550 322
h-375q-9 -52 -9 -111q0 -161 145 -161q77 0 139 60q63 62 100 212z" />
    <glyph glyph-name="uni04E9" unicode="&#x4e9;" 
d="M497 332q0 -147 -78 -246t-199 -99q-81 0 -125 47.5t-44 132.5q0 148 79 247t198 99q84 0 126.5 -48.5t42.5 -132.5zM235 52q60 0 101.5 46.5t60.5 123.5h-257q-3 -28 -3 -60q0 -110 98 -110zM411 341q0 56 -27 82t-70 26q-60 0 -102.5 -45t-61.5 -122h258q3 28 3 59z
" />
    <glyph glyph-name="uni04EE" unicode="&#x4ee;" horiz-adv-x="505" 
d="M192 686l64 -345q17 -95 17 -99l24 45q24 45 31 58l186 341h80l-283 -507q-28 -50 -52 -91q-25 -43 -55 -65q-40 -29 -108 -38l-32 -4l-3 58l21 5q27 7 47 16q30 13 50 36q21 23 44 66l21 38l-42 -9l-95 495h85zM511 811l-13 -59h-274l13 59h274z" />
    <glyph glyph-name="uni04EF" unicode="&#x4ef;" horiz-adv-x="461" 
d="M502 498l-230 -422q-9 -16 -32.5 -60.5t-33 -60.5t-27 -44t-31.5 -44.5t-30 -28.5q-40 -32 -97 -43l-18 53q42 4 88 46q34 31 64 106l-32 -4q2 63 -12 179l-41 317l82 17l34 -319q6 -66 3 -124h2l54 105l167 327h90zM444 646l-12 -54h-274l12 54h274z" />
    <glyph glyph-name="Wgrave" unicode="&#x1e80;" horiz-adv-x="802" 
d="M883 686l-303 -686h-107l-4 381q-1 104 6 195q-28 -75 -76 -189l-166 -387h-106l-16 686h84l2 -401q0 -75 -8 -209q34 88 82 199l178 411h93l4 -398q2 -158 -4 -212q32 88 85 212l170 398h86zM649 772l-26 -47l-223 100l43 77z" />
    <glyph glyph-name="wgrave" unicode="&#x1e81;" horiz-adv-x="684" 
d="M726 498l-248 -502h-74l-30 405h-2q-9 -27 -21 -51l-176 -354h-73l-32 498l79 17l10 -329v-36.5v-32.5v-14h3q18 42 33 72l159 327h84l17 -331q0 -12 1 -30t2 -30t1 -13h2q2 3 7.5 16t12.5 29.5t10 23.5l150 335h85zM541 612l-26 -47l-223 100l43 77z" />
    <glyph glyph-name="Wacute" unicode="&#x1e82;" horiz-adv-x="802" 
d="M883 686l-303 -686h-107l-4 381q-1 104 6 195q-28 -75 -76 -189l-166 -387h-106l-16 686h84l2 -401q0 -75 -8 -209q34 88 82 199l178 411h93l4 -398q2 -158 -4 -212q32 88 85 212l170 398h86zM641 825l-225 -100l-26 47l208 130z" />
    <glyph glyph-name="wacute" unicode="&#x1e83;" horiz-adv-x="684" 
d="M726 498l-248 -502h-74l-30 405h-2q-9 -27 -21 -51l-176 -354h-73l-32 498l79 17l10 -329v-36.5v-32.5v-14h3q18 42 33 72l159 327h84l17 -331q0 -12 1 -30t2 -30t1 -13h2q2 3 7.5 16t12.5 29.5t10 23.5l150 335h85zM543 665l-225 -100l-26 47l208 130z" />
    <glyph glyph-name="Wdieresis" unicode="&#x1e84;" horiz-adv-x="802" 
d="M883 686l-303 -686h-107l-4 381q-1 104 6 195q-28 -75 -76 -189l-166 -387h-106l-16 686h84l2 -401q0 -75 -8 -209q34 88 82 199l178 411h93l4 -398q2 -158 -4 -212q32 88 85 212l170 398h86zM662 784q0 -22 -15 -37.5t-36 -15.5q-22 0 -37.5 15.5t-15.5 37.5q0 21 15 36
t37 15q21 0 36.5 -15t15.5 -36zM455 784q0 -22 -14.5 -37.5t-36.5 -15.5t-37 15.5t-15 37.5q0 21 15 36t36 15q22 0 37 -15t15 -36z" />
    <glyph glyph-name="wdieresis" unicode="&#x1e85;" horiz-adv-x="684" 
d="M726 498l-248 -502h-74l-30 405h-2q-9 -27 -21 -51l-176 -354h-73l-32 498l79 17l10 -329v-36.5v-32.5v-14h3q18 42 33 72l159 327h84l17 -331q0 -12 1 -30t2 -30t1 -13h2q2 3 7.5 16t12.5 29.5t10 23.5l150 335h85zM563 621q0 -22 -15 -37.5t-36 -15.5q-22 0 -37.5 15.5
t-15.5 37.5q0 21 15 36t37 15q21 0 36.5 -15t15.5 -36zM356 621q0 -22 -14.5 -37.5t-36.5 -15.5t-37 15.5t-15 37.5q0 21 15 36t36 15q22 0 37 -15t15 -36z" />
    <glyph glyph-name="uni1E8A" unicode="&#x1e8a;" horiz-adv-x="491" 
d="M572 686l-249 -328l144 -358h-94l-111 295l-218 -295h-100l288 368l-121 318h91l89 -249l181 249h100zM413 792q0 -26 -17.5 -43.5t-43.5 -17.5q-25 0 -43 17.5t-18 42.5q0 26 18 44t43 18q26 0 43.5 -17.5t17.5 -43.5z" />
    <glyph glyph-name="uni1E8B" unicode="&#x1e8b;" horiz-adv-x="411" 
d="M453 498l-196 -223l132 -275h-92l-90 215l-179 -215h-95l245 276l-107 222h94l64 -166l131 166h93zM343 652q0 -26 -17.5 -43.5t-43.5 -17.5q-25 0 -43 17.5t-18 42.5q0 26 18 44t43 18q26 0 43.5 -17.5t17.5 -43.5z" />
    <glyph glyph-name="Ygrave" unicode="&#x1ef2;" horiz-adv-x="539" 
d="M630 686l-312 -419l-57 -267h-85l58 272l-133 414h97l74 -262q15 -53 19 -77q21 32 53 77l188 262h98zM467 772l-26 -47l-223 100l43 77z" />
    <glyph glyph-name="ygrave" unicode="&#x1ef3;" horiz-adv-x="461" 
d="M502 498l-230 -422q-9 -16 -32.5 -60.5t-33 -60.5t-27 -44t-31.5 -44.5t-30 -28.5q-40 -32 -97 -43l-18 53q42 4 88 46q34 31 64 106l-32 -4q2 63 -12 179l-41 317l82 17l34 -319q6 -66 3 -124h2l54 105l167 327h90zM382 612l-26 -47l-223 100l43 77z" />
    <glyph glyph-name="uni2007" unicode="&#x2007;" horiz-adv-x="596" 
 />
    <glyph glyph-name="uni2008" unicode="&#x2008;" horiz-adv-x="286" 
 />
    <glyph glyph-name="uni200B" unicode="&#x200b;" horiz-adv-x="0" 
 />
    <glyph glyph-name="endash" unicode="&#x2013;" horiz-adv-x="595" 
d="M556 309l-13 -59h-485l13 59h485z" />
    <glyph glyph-name="emdash" unicode="&#x2014;" horiz-adv-x="822" 
d="M783 309l-13 -59h-712l13 59h712z" />
    <glyph glyph-name="afii00208" unicode="&#x2015;" horiz-adv-x="822" 
d="M783 309l-13 -59h-712l13 59h712z" />
    <glyph glyph-name="quoteleft" unicode="&#x2018;" horiz-adv-x="271" 
d="M308 667q-65 -29 -86 -89q22 0 37 -18.5t15 -43.5q-1 -33 -22 -53t-53 -20q-30 0 -50.5 21t-20.5 54q0 70 59 129q42 40 95 64z" />
    <glyph glyph-name="quoteright" unicode="&#x2019;" horiz-adv-x="271" 
d="M285 623q0 -70 -59 -129q-42 -40 -95 -64l-26 44q65 29 86 89q-22 0 -37 18.5t-15 43.5q1 33 22 53t53 20q30 0 50.5 -21t20.5 -54z" />
    <glyph glyph-name="quotesinglbase" unicode="&#x201a;" horiz-adv-x="270" 
d="M162 50q0 -70 -59 -129q-42 -40 -95 -64l-26 44q65 29 86 89q-22 0 -37 18.5t-15 43.5q1 33 22 53t53 20q30 0 50.5 -21t20.5 -54z" />
    <glyph glyph-name="quotedblleft" unicode="&#x201c;" horiz-adv-x="468" 
d="M506 667q-65 -29 -86 -89q22 0 37 -18.5t15 -43.5q-1 -33 -22 -53t-53 -20q-30 0 -50.5 21t-20.5 54q0 64 59 129q33 37 95 64zM308 667q-65 -29 -86 -89q22 0 37 -18.5t15 -43.5q-1 -33 -22 -53t-53 -20q-30 0 -50.5 21t-20.5 54q0 64 59 129q33 37 95 64z" />
    <glyph glyph-name="quotedblright" unicode="&#x201d;" horiz-adv-x="469" 
d="M484 623q0 -70 -59 -129q-42 -40 -95 -64l-26 44q65 29 86 89q-22 0 -37 18.5t-15 43.5q1 33 22 53t53 20q30 0 50.5 -21t20.5 -54zM286 623q0 -70 -59 -129q-42 -40 -95 -64l-26 44q65 29 86 89q-22 0 -37 18.5t-15 43.5q1 33 22 53t53 20q30 0 50.5 -21t20.5 -54z" />
    <glyph glyph-name="quotedblbase" unicode="&#x201e;" horiz-adv-x="468" 
d="M361 50q0 -70 -59 -129q-42 -40 -95 -64l-26 44q65 29 86 89q-22 0 -37 18.5t-15 43.5q1 33 22 53t53 20q30 0 50.5 -21t20.5 -54zM163 50q0 -70 -59 -129q-42 -40 -95 -64l-26 44q65 29 86 89q-22 0 -37 18.5t-15 43.5q1 33 22 53t53 20q30 0 50.5 -21t20.5 -54z" />
    <glyph glyph-name="dagger" unicode="&#x2020;" horiz-adv-x="476" 
d="M503 524l-25 -69h-150l-97 -455h-79l97 455h-157l15 69h157l34 162h79l-34 -162h160z" />
    <glyph glyph-name="daggerdbl" unicode="&#x2021;" horiz-adv-x="489" 
d="M506 524l-25 -69h-150l-48 -224h161l-25 -69h-151l-34 -162h-79l34 162h-156l15 69h156l48 224h-157l15 69h157l34 162h79l-34 -162h160z" />
    <glyph glyph-name="bullet" unicode="&#x2022;" horiz-adv-x="531" 
d="M467 354q0 -74 -51.5 -125.5t-124.5 -51.5q-74 0 -126 52t-52 125q0 74 51.5 125.5t125.5 51.5t125.5 -51.5t51.5 -125.5z" />
    <glyph glyph-name="ellipsis" unicode="&#x2026;" horiz-adv-x="777" 
d="M642 56q0 -28 -20 -48.5t-47 -20.5q-28 0 -47.5 20t-19.5 49q0 28 19 47t47 19q29 0 48.5 -19t19.5 -47zM412 56q0 -28 -20 -48.5t-47 -20.5q-28 0 -47.5 20t-19.5 49q0 28 19 47t47 19q29 0 48.5 -19t19.5 -47zM182 56q0 -28 -20 -48.5t-47 -20.5q-28 0 -47.5 20
t-19.5 49q0 28 19 47t47 19q29 0 48.5 -19t19.5 -47z" />
    <glyph glyph-name="perthousand" unicode="&#x2030;" horiz-adv-x="1239" 
d="M1173 212q0 -101 -57 -161.5t-146 -60.5q-60 0 -94.5 31t-34.5 93q0 93 57 155.5t144 62.5q64 0 97.5 -33.5t33.5 -86.5zM433 571q0 -101 -57 -161.5t-146 -60.5q-60 0 -94.5 31t-34.5 93q0 93 57 155.5t144 62.5q64 0 97.5 -33.5t33.5 -86.5zM803 212q0 -101 -57 -161.5
t-146 -60.5q-60 0 -94.5 31t-34.5 93q0 93 57 155.5t144 62.5q64 0 97.5 -33.5t33.5 -86.5zM729 686l-481 -686h-66l481 686h66zM1105 203q0 74 -76 74q-59 0 -89 -44t-30 -117q0 -71 75 -71q57 0 88.5 44.5t31.5 113.5zM735 203q0 74 -76 74q-59 0 -89 -44t-30 -117
q0 -71 75 -71q57 0 88.5 44.5t31.5 113.5zM365 562q0 74 -76 74q-59 0 -89 -44t-30 -117q0 -71 75 -71q57 0 88.5 44.5t31.5 113.5z" />
    <glyph glyph-name="guilsinglleft" unicode="&#x2039;" horiz-adv-x="337" 
d="M321 414l-173 -181l88 -174l-60 -33l-108 218l199 210z" />
    <glyph glyph-name="guilsinglright" unicode="&#x203a;" horiz-adv-x="337" 
d="M269 236l-199 -210l-54 40l173 181l-88 174l60 33z" />
    <glyph glyph-name="fraction" unicode="&#x2044;" horiz-adv-x="349" 
d="M562 763l-722 -917h-66l722 917h66z" />
    <glyph glyph-name="uni2070" unicode="&#x2070;" horiz-adv-x="345" 
d="M394 519q0 -28 -7 -63q-19 -90 -72.5 -148t-121.5 -58q-57 0 -82 41.5t-25 102.5q0 32 7 67q17 80 72 139.5t116 59.5q59 0 86 -40.5t27 -100.5zM323 524q0 80 -53 80q-30 0 -63 -43q-26 -35 -41 -102q-10 -50 -10 -76q0 -29 12.5 -54t38.5 -25q36 0 70 50q23 34 37 102
q9 44 9 68z" />
    <glyph glyph-name="uni2074" unicode="&#x2074;" horiz-adv-x="343" 
d="M370 385l-12 -54h-49q-1 -2 -1 -6v-6l-13 -60l-71 -18l20 90h-179l10 47l205 275h75q-172 -233 -202 -269l7 1h96v6q0 3 9 32l31 108l60 17l-32 -155l-3 -8h49z" />
    <glyph glyph-name="uni2075" unicode="&#x2075;" horiz-adv-x="300" 
d="M365 648l-23 -57h-127l-28 -91q24 2 30 2q50 0 81.5 -22t31.5 -69q0 -46 -32 -87.5t-77 -61.5q-51 -23 -108 -23q-24 0 -52 7l-1 58q31 -14 55 -14q49 0 95.5 30t46.5 76q0 53 -68 53q-45 0 -92 -19l69 218h199z" />
    <glyph glyph-name="uni2076" unicode="&#x2076;" horiz-adv-x="337" 
d="M383 631q-43 -12 -77 -30q-84 -45 -123 -115q40 21 78 21q43 0 74.5 -25.5t31.5 -67.5q0 -67 -53 -115.5t-121 -48.5q-55 0 -85 31.5t-30 86.5q0 114 99 204q82 74 198 105zM292 405q0 23 -15 35.5t-38 12.5q-35 0 -76 -26q-11 -35 -11 -63q0 -60 53 -60q39 0 63 30.5
t24 70.5z" />
    <glyph glyph-name="uni2077" unicode="&#x2077;" horiz-adv-x="337" 
d="M420 648l-27 -60q-103 -110 -144 -165q-70 -94 -96 -156l-5 -12l-84 -19q25 58 50 96q109 167 212 260q-5 0 -16 -0.5t-17 -0.5h-172l29 57h270z" />
    <glyph glyph-name="uni2078" unicode="&#x2078;" horiz-adv-x="339" 
d="M393 582q0 -72 -92 -113q32 -16 48 -33t16 -44q0 -61 -55 -101.5t-118 -40.5q-54 0 -88 26t-34 68q0 41 27.5 73t68.5 50q-41 28 -41 70q0 59 50 90.5t111 31.5q48 0 77.5 -20.5t29.5 -56.5zM293 373q0 13 -7 23q-12 15 -72 45q-35 -17 -54.5 -36.5t-19.5 -50.5
q0 -24 17 -37.5t49 -13.5q34 0 60.5 19t26.5 51zM325 569q0 38 -56 38q-29 0 -52.5 -14.5t-23.5 -42.5q0 -30 58 -55q74 33 74 74z" />
    <glyph glyph-name="uni2079" unicode="&#x2079;" horiz-adv-x="357" 
d="M415 551q0 -61 -37.5 -124t-90.5 -107q-49 -42 -120 -69q-39 -15 -85 -20l-28 45q48 6 76 16q99 38 158 111q-26 -10 -55 -10q-48 0 -77 27t-29 72q0 68 53.5 118t122.5 50q49 0 80.5 -30t31.5 -79zM342 543q0 30 -14 46.5t-38 16.5q-40 0 -65 -34t-25 -75q0 -51 50 -51
q34 0 72 21q20 47 20 76z" />
    <glyph glyph-name="uni2080" unicode="&#x2080;" horiz-adv-x="345" 
d="M332 -54q-19 -91 -71 -148.5t-123 -57.5q-57 0 -82 41.5t-25 102.5q0 32 7 67q17 82 70 140.5t118 58.5q59 0 86 -41t27 -101q0 -29 -7 -62zM266 38q-7 56 -51 56q-30 0 -63 -43q-27 -37 -42 -102q-9 -44 -9 -75q0 -14 1 -20q4 -28 17.5 -44t31.5 -16q37 0 71 50
q23 34 37 102q9 42 9 66q0 8 -2 26z" />
    <glyph glyph-name="uni2081" unicode="&#x2081;" horiz-adv-x="285" 
d="M253 142l-71 -337h60l-12 -55h-190l12 55h62l54 256q-30 -17 -99 -43l-8 41l141 83h51z" />
    <glyph glyph-name="uni2082" unicode="&#x2082;" horiz-adv-x="318" 
d="M322 58q0 -36 -24 -75.5t-47.5 -62t-60.5 -53.5q-69 -57 -76 -62q4 0 11 0.5t10 0.5h140l-27 -56h-247l9 40q48 29 110 83q124 108 124 169q0 22 -13.5 35.5t-36.5 13.5q-13 0 -28 -4.5t-22.5 -7.5t-28.5 -14.5t-23 -12.5l-25 35q89 62 156 62q44 0 71.5 -25.5
t27.5 -65.5z" />
    <glyph glyph-name="uni2083" unicode="&#x2083;" horiz-adv-x="323" 
d="M323 67q0 -34 -20.5 -62t-53.5 -43q47 -23 47 -70q0 -46 -38 -84.5t-87 -57.5q-53 -20 -121 -20q-20 0 -37 3l-6 51q23 -4 44 -4q81 0 131 36q43 30 43 75q0 33 -33 42q-19 5 -69 5h-16l11 51h16q61 0 77 6q17 7 28 22.5t11 33.5t-14 29.5t-38 11.5q-45 0 -105 -37
l-25 37q77 57 151 57q47 0 75.5 -22.5t28.5 -59.5z" />
    <glyph glyph-name="uni2084" unicode="&#x2084;" horiz-adv-x="343" 
d="M315 -125l-12 -54h-49q0 -8 -1 -12l-13 -60l-71 -18l16 77l4 13h-179l10 47l205 275h75q-163 -221 -203 -269l8 1h96v6q0 2 9 32l31 108l60 17l-35 -163h49z" />
    <glyph glyph-name="uni2085" unicode="&#x2085;" horiz-adv-x="300" 
d="M309 138l-23 -57h-127l-27 -91q24 2 29 2q50 0 81.5 -22t31.5 -69q0 -46 -32 -87.5t-77 -61.5q-51 -23 -107 -23q-28 0 -52 6l-2 58q30 -13 55 -13q49 0 96 30t47 76q0 53 -68 53q-44 0 -92 -19l68 218h199z" />
    <glyph glyph-name="uni2086" unicode="&#x2086;" horiz-adv-x="337" 
d="M328 121q-45 -13 -78 -30q-83 -44 -122 -115q40 21 78 21q43 0 74.5 -25.5t31.5 -67.5q0 -67 -53 -115.5t-121 -48.5q-55 0 -85 31.5t-30 86.5q0 114 98 204q81 74 199 105zM237 -105q0 23 -15 35.5t-38 12.5q-36 0 -77 -26q-10 -32 -10 -63q0 -60 52 -60q39 0 63.5 30.5
t24.5 70.5z" />
    <glyph glyph-name="uni2087" unicode="&#x2087;" horiz-adv-x="337" 
d="M364 138l-26 -60q-107 -115 -144 -165q-80 -106 -97 -156l-4 -12l-84 -19q27 64 49 96q111 167 213 260q-5 0 -16.5 -0.5t-17.5 -0.5h-172l29 57h270z" />
    <glyph glyph-name="uni2088" unicode="&#x2088;" horiz-adv-x="339" 
d="M338 72q0 -71 -93 -113q32 -16 48.5 -33t16.5 -44q0 -61 -55 -101.5t-118 -40.5q-54 0 -88 26t-34 68q0 41 27.5 73t68.5 50q-41 28 -41 70q0 59 50 90.5t111 31.5q48 0 77.5 -20.5t29.5 -56.5zM238 -137q0 13 -7 23q-11 15 -73 45q-35 -17 -54.5 -36.5t-19.5 -50.5
q0 -24 17.5 -37.5t49.5 -13.5q34 0 60.5 19t26.5 51zM270 59q0 38 -56 38q-29 0 -52.5 -14.5t-23.5 -42.5q0 -30 58 -55q74 33 74 74z" />
    <glyph glyph-name="uni2089" unicode="&#x2089;" horiz-adv-x="357" 
d="M360 41q0 -61 -37.5 -124t-90.5 -107q-49 -42 -120 -69q-39 -15 -85 -20l-29 45q50 6 77 16q97 37 157 111q-26 -10 -55 -10q-48 0 -77 27t-29 72q0 68 54 118t123 50q49 0 80.5 -30t31.5 -79zM287 33q0 30 -14 46.5t-38 16.5q-40 0 -65 -34t-25 -75q0 -51 50 -51
q35 0 72 21q20 47 20 76z" />
    <glyph glyph-name="Euro" unicode="&#x20ac;" horiz-adv-x="641" 
d="M672 648l-28 -69q-31 26 -57 38t-71 12q-58 0 -101.5 -29t-82.5 -89q-23 -35 -39 -79h269l-12 -59h-277q-9 -31 -17 -80h277l-13 -59h-269q-2 -81 36.5 -129.5t124.5 -48.5q64 0 144 44l-2 -73q-78 -38 -169 -38q-103 0 -161 69t-57 176h-112l13 59h104q7 46 16 80h-103
l12 59h111q46 124 128 193.5t195 69.5q91 0 141 -47z" />
    <glyph glyph-name="uni20B4" unicode="&#x20b4;" horiz-adv-x="542" 
d="M514 234h-359q-34 -37 -34 -81q0 -45 33 -72t87 -27q97 0 192 52l21 -65q-106 -54 -219 -54q-83 0 -135 41.5t-52 107.5q0 54 30 98h-61l13 59h106q44 32 143 80h-232l12 59h333q81 52 81 117q0 37 -24.5 61t-74.5 24q-86 0 -185 -64l-27 65q112 66 221 66
q76 0 118.5 -40t42.5 -95q0 -75 -62 -134h74l-12 -59h-147q-28 -15 -82.5 -41.5t-77.5 -38.5h290z" />
    <glyph glyph-name="afii61352" unicode="&#x2116;" horiz-adv-x="949" 
d="M191 686h86l147 -492q9 -29 20 -90q14 102 36 209l79 373h78l-146 -686h-86l-143 477q-13 46 -24 97q-15 -109 -30 -176l-85 -398h-78zM840 642q-34 0 -57.5 -27t-32.5 -60.5t-9 -69.5q0 -70 55 -70q34 0 57.5 26.5t32.5 60.5t9 70q0 70 -55 70zM875 203h-251l11 52h251z
M851 686q102 0 102 -103q0 -82 -44 -147t-124 -65q-102 0 -102 103q0 80 44.5 146t123.5 66z" />
    <glyph glyph-name="uni2117" unicode="&#x2117;" horiz-adv-x="874" 
d="M809 354q0 -157 -109.5 -264.5t-262.5 -107.5q-154 0 -263 107.5t-109 264.5t109 264.5t263 107.5q153 0 262.5 -107.5t109.5 -264.5zM743 354q0 134 -89 226t-217 92q-129 0 -217.5 -91.5t-88.5 -226.5t88.5 -226.5t217.5 -91.5q128 0 217 92t89 226zM596 444
q0 -64 -39 -99q-38 -34 -100 -34h-63v-161h-58v413h116q61 0 89 -18q55 -36 55 -101zM531 434q0 43 -21 61t-72 18h-44v-153h60q41 0 59 21t18 53z" />
    <glyph glyph-name="trademark" unicode="&#x2122;" horiz-adv-x="944" 
d="M904 686l-50 -428h-69l39 311q0 1 0.5 4t0.5 4l-163 -319h-58l-25 299q-3 25 -3 27q-1 -10 -6 -27l-87 -299h-68l129 428h90l23 -276q2 -26 2 -33l14 31l140 278h91zM435 686l-17 -58h-116l-77 -370h-67l76 370h-115l11 58h305z" />
    <glyph glyph-name="Omega" unicode="&#x2126;" horiz-adv-x="715" 
d="M678 455q0 -111 -54.5 -225t-138.5 -159h117l-28 -71h-197v71q103 58 156 158t53 224q0 179 -146 179q-48 0 -94 -22t-73 -58q-95 -128 -95 -303q0 -119 76 -178l-15 -71h-186v71h110q-74 68 -74 200q0 90 32 177t90 148q97 102 243 102q109 0 166.5 -67.5t57.5 -175.5z
" />
    <glyph glyph-name="uni2150" unicode="&#x2150;" horiz-adv-x="1010" 
d="M309 652l-72 -337h60l-12 -55h-190l12 55h62l54 256q-30 -17 -99 -43l-8 41l142 83h51zM906 763l-722 -917h-66l722 917h66zM1037 388l-26 -60q-103 -111 -144 -165q-82 -112 -97 -156l-4 -12l-84 -19q24 58 49 96q108 164 213 260q-5 0 -16.5 -0.5t-17.5 -0.5h-172
l29 57h270z" />
    <glyph glyph-name="uni2151" unicode="&#x2151;" horiz-adv-x="1030" 
d="M309 652l-72 -337h60l-12 -55h-190l12 55h62l54 256q-30 -17 -99 -43l-8 41l142 83h51zM916 763l-722 -917h-66l722 917h66zM1033 291q0 -61 -37.5 -124t-90.5 -107q-49 -42 -120 -69q-39 -15 -85 -20l-29 45q50 6 77 16q97 37 157 111q-26 -10 -55 -10q-48 0 -77 27
t-29 72q0 68 54 118t123 50q49 0 80.5 -30t31.5 -79zM960 283q0 30 -14 46.5t-38 16.5q-40 0 -65 -34t-25 -75q0 -51 50 -51q35 0 72 21q20 47 20 76z" />
    <glyph glyph-name="uni2152" unicode="&#x2152;" horiz-adv-x="1303" 
d="M309 652l-72 -337h60l-12 -55h-190l12 55h62l54 256q-30 -17 -99 -43l-8 41l142 83h51zM926 763l-722 -917h-66l722 917h66zM926 392l-71 -337h60l-12 -55h-190l12 55h62l54 256q-27 -16 -99 -43l-8 41l141 83h51zM1290 196q-19 -91 -71 -148.5t-123 -57.5
q-57 0 -82 41.5t-25 102.5q0 32 7 67q17 82 70 140.5t118 58.5q59 0 86 -41t27 -101q0 -29 -7 -62zM1226 262q0 82 -53 82q-30 0 -63 -43q-27 -37 -42 -102q-9 -44 -9 -75q0 -38 15 -59t35 -21q37 0 71 50q23 34 37 102q9 42 9 66z" />
    <glyph glyph-name="onethird" unicode="&#x2153;" horiz-adv-x="996" 
d="M309 652l-72 -337h60l-12 -55h-190l12 55h62l54 256q-30 -17 -99 -43l-8 41l142 83h51zM906 763l-722 -917h-66l722 917h66zM996 317q0 -34 -20.5 -62t-53.5 -43q47 -23 47 -70q0 -46 -38 -84.5t-87 -57.5q-53 -20 -121 -20q-20 0 -37 3l-6 51q23 -4 44 -4q81 0 131 36
q43 30 43 75q0 33 -33 42q-19 5 -69 5h-16l11 51h16q61 0 77 6q17 7 28 22.5t11 33.5t-14 29.5t-38 11.5q-45 0 -105 -37l-25 37q77 57 151 57q47 0 75.5 -22.5t28.5 -59.5z" />
    <glyph glyph-name="twothirds" unicode="&#x2154;" horiz-adv-x="1018" 
d="M371 568q0 -36 -24.5 -75t-48 -62t-60.5 -54q-30 -25 -79 -62q3 0 12 0.5t12 0.5h140l-26 -56h-247l8 40q51 30 111 83q32 28 52.5 47.5t46 56.5t25.5 65q0 22 -13.5 35.5t-36.5 13.5q-13 0 -28 -4.5t-22.5 -7.5t-28.5 -14.5t-23 -12.5l-26 35q89 62 156 62
q44 0 72 -25.5t28 -65.5zM928 763l-722 -917h-66l722 917h66zM1018 317q0 -34 -20.5 -62t-53.5 -43q47 -23 47 -70q0 -46 -38 -84.5t-87 -57.5q-53 -20 -121 -20q-20 0 -37 3l-6 51q23 -4 44 -4q81 0 131 36q43 30 43 75q0 33 -33 42q-19 5 -69 5h-16l11 51h16q61 0 77 6
q17 7 28 22.5t11 33.5t-14 29.5t-38 11.5q-45 0 -105 -37l-25 37q77 57 151 57q47 0 75.5 -22.5t28.5 -59.5z" />
    <glyph glyph-name="uni2155" unicode="&#x2155;" horiz-adv-x="973" 
d="M309 652l-72 -337h60l-12 -55h-190l12 55h62l54 256q-30 -17 -99 -43l-8 41l142 83h51zM906 763l-722 -917h-66l722 917h66zM982 388l-23 -57h-127l-27 -91q24 2 29 2q50 0 81.5 -22t31.5 -69q0 -46 -32 -87.5t-77 -61.5q-51 -23 -107 -23q-28 0 -52 6l-2 58
q30 -13 55 -13q49 0 96 30t47 76q0 53 -68 53q-45 0 -92 -19l68 218h199z" />
    <glyph glyph-name="uni2156" unicode="&#x2156;" horiz-adv-x="995" 
d="M371 568q0 -36 -24.5 -75t-48 -62t-60.5 -54q-30 -25 -79 -62q3 0 12 0.5t12 0.5h140l-26 -56h-247l8 40q51 30 111 83q32 28 52.5 47.5t46 56.5t25.5 65q0 22 -13.5 35.5t-36.5 13.5q-13 0 -28 -4.5t-22.5 -7.5t-28.5 -14.5t-23 -12.5l-26 35q89 62 156 62
q44 0 72 -25.5t28 -65.5zM938 763l-722 -917h-66l722 917h66zM1004 388l-23 -57h-127l-27 -91q24 2 29 2q50 0 81.5 -22t31.5 -69q0 -46 -32 -87.5t-77 -61.5q-51 -23 -107 -23q-28 0 -52 6l-2 58q30 -13 55 -13q49 0 96 30t47 76q0 53 -68 53q-44 0 -92 -19l68 218h199z
" />
    <glyph glyph-name="uni2157" unicode="&#x2157;" horiz-adv-x="1005" 
d="M381 577q0 -35 -20.5 -62.5t-53.5 -42.5q47 -23 47 -70q0 -46 -38 -84.5t-87 -57.5q-53 -20 -122 -20q-19 0 -36 3l-6 51q30 -4 44 -4q81 0 131 36q42 30 42 75q0 33 -32 42q-19 5 -69 5h-16l11 51h16q61 0 77 6t27.5 22.5t11.5 33.5q0 18 -14.5 29.5t-38.5 11.5
q-44 0 -104 -37l-26 37q77 57 152 57q47 0 75.5 -22.5t28.5 -59.5zM928 763l-722 -917h-66l722 917h66zM1014 388l-23 -57h-127l-27 -91q24 2 29 2q50 0 81.5 -22t31.5 -69q0 -46 -32 -87.5t-77 -61.5q-51 -23 -107 -23q-28 0 -52 6l-2 58q30 -13 55 -13q49 0 96 30t47 76
q0 53 -68 53q-44 0 -92 -19l68 218h199z" />
    </font>
</defs>
</svg>
