<?xml version="1.0" standalone="no"?>
<!DOCTYPE svg PUBLIC "-//W3C//DTD SVG 1.1//EN" "http://www.w3.org/Graphics/SVG/1.1/DTD/svg11.dtd" >
<svg>
<metadata>
Created by FontForge 20120731 at Sat Feb  6 17:04:13 2016
 By ,,,
2005 Erik Spiekermann published by FSI FontShop International GmbH
</metadata>
<defs>
<font id="FFMetaPro-MediumItalic" horiz-adv-x="1" >
  <font-face 
    font-family="FF Meta Pro Med"
    font-weight="500"
    font-style="italic"
    font-stretch="normal"
    units-per-em="1000"
    panose-1="0 0 0 0 0 0 0 0 0 0"
    ascent="754"
    descent="-246"
    x-height="506"
    cap-height="691"
    bbox="-351 -301 1434 1119"
    underline-thickness="81"
    underline-position="-22"
    unicode-range="U+000D-FB06"
  />
<missing-glyph horiz-adv-x="555" 
d="M35 0v701h485v-701h-485zM89 54h377v593h-377v-593z" />
    <glyph glyph-name=".notdef" horiz-adv-x="555" 
d="M35 0v701h485v-701h-485zM89 54h377v593h-377v-593z" />
    <glyph glyph-name=".null" horiz-adv-x="0" 
 />
    <glyph glyph-name=".null" horiz-adv-x="0" 
 />
    <glyph glyph-name="nonmarkingreturn" horiz-adv-x="333" 
 />
    <glyph glyph-name="CR" unicode="&#xd;" horiz-adv-x="225" 
 />
    <glyph glyph-name="space" unicode=" " horiz-adv-x="225" 
 />
    <glyph glyph-name="exclam" unicode="!" horiz-adv-x="311" 
d="M311 705l-129 -494h-84l76 476zM184 64q0 -31 -21.5 -52.5t-52.5 -21.5q-30 0 -51 21.5t-21 51.5q0 31 21 52.5t52 21.5q30 0 51.5 -21.5t21.5 -51.5z" />
    <glyph glyph-name="quotedbl" unicode="&#x22;" horiz-adv-x="472" 
d="M293 708l-56 -264h-103l56 264h103zM488 708l-56 -264h-102l55 264h103z" />
    <glyph glyph-name="numbersign" unicode="#" horiz-adv-x="555" 
d="M572 423h-107l-44 -137h84v-80h-108l-65 -206h-84l65 206h-111l-65 -206h-84l65 206h-83v80h108l43 137h-84v80h108l64 205h84l-64 -205h110l65 205h83l-64 -205h84v-80zM381 423h-111l-43 -137h110z" />
    <glyph glyph-name="dollar" unicode="$" horiz-adv-x="573" 
d="M594 644l-66 -81q-68 51 -153 51q-56 0 -94.5 -29t-38.5 -71q0 -31 16.5 -51t57.5 -35l77 -28q126 -46 126 -164q0 -97 -71.5 -166.5t-193.5 -81.5l-19 -87h-72l18 86q-103 4 -186 58l59 89q83 -53 173 -53q73 0 116.5 35t43.5 90q0 33 -18.5 55t-63.5 39l-69 26
q-62 23 -92 58.5t-30 94.5q0 89 68 153t171 75l17 78h72l-16 -78q102 -8 168 -63z" />
    <glyph glyph-name="percent" unicode="%" horiz-adv-x="846" 
d="M800 209q0 -94 -57 -156t-152 -62q-62 0 -98 32t-36 90q0 98 58.5 160t148.5 62q65 0 100.5 -34.5t35.5 -91.5zM435 574q0 -94 -57 -156t-152 -62q-63 0 -98.5 31.5t-35.5 90.5q0 97 59 159.5t148 62.5q65 0 100.5 -34.5t35.5 -91.5zM742 691l-499 -691h-89l498 691h90z
M344 575q0 59 -58 59q-51 0 -77 -43.5t-26 -114.5q0 -54 60 -54q48 0 74.5 44t26.5 109zM709 210q0 59 -58 59q-51 0 -77 -43.5t-26 -114.5q0 -54 60 -54q47 0 74 44t27 109z" />
    <glyph glyph-name="ampersand" unicode="&#x26;" horiz-adv-x="702" 
d="M642 0h-145l-42 53q-84 -67 -208 -67q-98 0 -153 42.5t-55 113.5q0 134 172 205q-56 56 -56 122q0 79 64.5 136t162.5 57q73 0 117.5 -34.5t44.5 -88.5q0 -57 -31.5 -100t-106.5 -81l-36 -18l106 -131q15 19 28.5 65.5t14.5 62.5h93q-23 -124 -79 -202zM403 116l-142 171
q-102 -48 -102 -133q0 -39 28.5 -63t79.5 -24q85 0 136 49zM430 525q0 27 -17.5 43t-46.5 16q-36 0 -66 -25.5t-30 -62.5q0 -26 9.5 -45.5t39.5 -52.5q68 28 92 68q19 31 19 59z" />
    <glyph glyph-name="quotesingle" unicode="'" horiz-adv-x="277" 
d="M292 708l-56 -264h-102l55 264h103z" />
    <glyph glyph-name="parenleft" unicode="(" horiz-adv-x="340" 
d="M465 710q-66 -39 -101 -70.5t-64 -77.5q-44 -72 -82 -237q-29 -125 -29 -215q0 -78 22.5 -127.5t77.5 -85.5l-40 -60q-79 34 -123.5 106t-44.5 175q0 95 24 204q50 235 177 351q74 68 165 103z" />
    <glyph glyph-name="parenright" unicode=")" horiz-adv-x="339" 
d="M289 497q0 -95 -23 -203q-49 -231 -178 -352q-75 -71 -166 -103l-16 69q68 39 103 70t62 76q49 82 83 238q27 126 27 215q0 76 -21.5 127t-75.5 85l39 59q79 -35 122.5 -106t43.5 -175z" />
    <glyph glyph-name="asterisk" unicode="*" horiz-adv-x="473" 
d="M508 531l-135 -44l85 -116l-68 -51l-87 118l-83 -115l-68 51l85 113l-136 47l26 79l136 -48v143h84v-143l136 45z" />
    <glyph glyph-name="plus" unicode="+" horiz-adv-x="592" 
d="M558 331l-22 -102h-192l-42 -197h-111l42 197h-192l22 102h192l42 197h110l-42 -197h193z" />
    <glyph glyph-name="comma" unicode="," horiz-adv-x="292" 
d="M185 49q0 -71 -65 -133q-46 -44 -104 -61l-33 51q34 13 58 33.5t24 36.5q0 10 -16 20q-32 19 -32 64q0 36 24 59.5t59 23.5q38 0 61.5 -25t23.5 -69z" />
    <glyph glyph-name="hyphen" unicode="-" horiz-adv-x="354" 
d="M304 319l-21 -96h-219l21 96h219z" />
    <glyph glyph-name="period" unicode="." horiz-adv-x="290" 
d="M186 66q0 -34 -23.5 -57.5t-55.5 -23.5q-33 0 -56 23.5t-23 57.5q0 32 23 55t55 23q33 0 56.5 -23t23.5 -55z" />
    <glyph glyph-name="slash" unicode="/" horiz-adv-x="416" 
d="M494 761l-458 -912h-82l457 912h83z" />
    <glyph glyph-name="zero" unicode="0" horiz-adv-x="591" 
d="M538 325q0 -75 -31.5 -151t-85.5 -122q-77 -66 -181 -66q-89 0 -136 48.5t-47 140.5q0 71 28.5 145.5t77.5 120.5q80 75 190 75q90 0 137.5 -48.5t47.5 -142.5zM420 339q0 51 -21.5 72.5t-63.5 21.5q-57 0 -97 -50q-29 -37 -46.5 -101.5t-17.5 -116.5q0 -51 21.5 -73.5
t63.5 -22.5q53 0 94 47q32 38 49.5 101t17.5 122z" />
    <glyph glyph-name="one" unicode="1" horiz-adv-x="452" 
d="M373 515l-91 -426h89l-19 -89h-297l19 89h101l63 298q-80 -44 -138 -65l-16 66l211 127h78z" />
    <glyph glyph-name="two" unicode="2" horiz-adv-x="556" 
d="M502 395q0 -94 -105 -173q-61 -46 -149 -95l-72 -40q46 4 108 4h178l-43 -91h-402l21 96q205 113 269.5 166t64.5 103q0 62 -77 62q-61 0 -157 -68l-47 68q128 97 253 97q72 0 115 -36t43 -93z" />
    <glyph glyph-name="three" unicode="3" horiz-adv-x="539" 
d="M490 383q0 -60 -38 -109t-106 -71q46 -9 72.5 -44.5t26.5 -79.5q0 -110 -111 -186t-289 -76q-38 0 -68 4l-10 80q25 -5 64 -5q139 0 213 55q34 25 54.5 59.5t20.5 69.5q0 58 -53 74q-25 8 -94 8h-34l19 88q21 -3 42 -3q75 0 107 16q30 14 46 41.5t16 57.5q0 31 -22 48.5
t-61 17.5q-75 0 -166 -59l-41 67q124 84 241 84q77 0 124 -38.5t47 -98.5z" />
    <glyph glyph-name="four" unicode="4" horiz-adv-x="553" 
d="M483 92l-20 -92h-50h-18l-10 1q0 -16 -4 -33l-31 -144l-109 -19l35 165l8 32q-1 0 -14 -1t-22 -1h-262l17 78l302 437h116l-238 -346q-38 -57 -61 -80q15 3 29 3h120q2 0 16.5 -0.5t17.5 -0.5l5 23q9 44 26 100l38 127l91 21l-40 -187q-6 -28 -20 -84q1 0 13.5 0.5
t19.5 0.5h45z" />
    <glyph glyph-name="five" unicode="5" horiz-adv-x="495" 
d="M460 506l-36 -93h-205l-50 -163q34 5 58 5q78 0 125 -43.5t47 -113.5q0 -112 -99 -197t-261 -85q-41 0 -73 8l-5 84q42 -14 82 -14q101 0 167.5 57.5t66.5 128.5q0 41 -30 65t-80 24q-79 0 -136 -19l108 356h321z" />
    <glyph glyph-name="six" unicode="6" horiz-adv-x="575" 
d="M545 627q-164 -50 -253 -146q-42 -45 -74 -108q57 41 133 41q73 0 120.5 -46t47.5 -118q0 -112 -80.5 -188t-194.5 -76q-91 0 -141.5 54.5t-50.5 150.5q0 199 185 360q61 53 142.5 94.5t156.5 62.5zM400 237q0 44 -22.5 67t-62.5 23q-55 0 -126 -42q-21 -55 -21 -108
q0 -49 24.5 -78t67.5 -29q59 0 99.5 48.5t40.5 118.5z" />
    <glyph glyph-name="seven" unicode="7" horiz-adv-x="485" 
d="M516 505l-25 -100q-36 -40 -95.5 -115.5t-144.5 -211.5t-118 -240l-134 -32q53 143 167.5 321t220.5 284q-10 -3 -63 -3h-258l39 97h411z" />
    <glyph glyph-name="eight" unicode="8" horiz-adv-x="590" 
d="M573 537q0 -59 -45 -109t-119 -75q28 -13 45 -23q33 -19 53.5 -51t20.5 -69q0 -97 -78.5 -163t-213.5 -66q-94 0 -145.5 43t-51.5 114q0 70 47 125t121 82q-37 17 -57 48.5t-20 69.5q0 91 74 150t189 59q83 0 131.5 -38t48.5 -97zM407 188q0 35 -26.5 57.5t-104.5 56.5
q-118 -50 -118 -151q0 -41 28 -64.5t78 -23.5q65 0 104 36.5t39 88.5zM457 528q0 30 -23.5 47t-66.5 17q-55 0 -90 -28.5t-35 -75.5q0 -29 20.5 -48.5t72.5 -44.5q122 54 122 133z" />
    <glyph glyph-name="nine" unicode="9" horiz-adv-x="554" 
d="M506 328q0 -107 -52.5 -207t-149.5 -180q-63 -52 -140.5 -90.5t-150.5 -55.5l-44 69q109 23 210.5 94.5t138.5 150.5q-56 -34 -116 -34q-72 0 -117.5 49.5t-45.5 125.5q0 115 82 193.5t197 78.5q89 0 138.5 -50.5t49.5 -143.5zM388 331q0 49 -24 77.5t-66 28.5
q-59 0 -99 -51t-40 -126q0 -45 23 -71t63 -26q54 0 113 44q30 69 30 124z" />
    <glyph glyph-name="colon" unicode=":" horiz-adv-x="306" 
d="M194 64q0 -33 -23 -56t-55 -23q-33 0 -56 23t-23 56q0 32 23 55t55 23q33 0 56 -23t23 -55zM259 370q0 -33 -23 -56t-55 -23q-33 0 -55.5 23t-22.5 56q0 32 22.5 55t55.5 23q32 0 55 -23t23 -55z" />
    <glyph glyph-name="semicolon" unicode=";" horiz-adv-x="326" 
d="M205 49q0 -71 -65 -133q-47 -44 -104 -61l-33 51q36 14 60 33.5t24 38.5q0 7 -18 18q-32 19 -32 64q0 36 24 59.5t59 23.5q38 0 61.5 -25t23.5 -69zM263 370q0 -33 -23 -56t-55 -23q-33 0 -55.5 23t-22.5 56q0 32 22.5 55t54.5 23q33 0 56 -23t23 -55z" />
    <glyph glyph-name="less" unicode="&#x3c;" horiz-adv-x="358" 
d="M383 516l-211 -217l119 -218l-103 -69l-159 287l281 288z" />
    <glyph glyph-name="equal" unicode="=" horiz-adv-x="641" 
d="M634 445l-21 -100h-537l21 100h537zM594 261l-20 -100h-537l21 100h536z" />
    <glyph glyph-name="greater" unicode="&#x3e;" horiz-adv-x="357" 
d="M357 299l-280 -287l-73 69l210 218l-118 217l103 71z" />
    <glyph glyph-name="question" unicode="?" horiz-adv-x="452" 
d="M476 566q0 -102 -126 -179q-102 -61 -107 -171h-94v13q0 135 125 211q89 54 89 104q0 31 -19.5 47t-53.5 16q-54 0 -129 -49l-35 73q94 70 196 70q72 0 113 -37t41 -98zM248 63q0 -31 -21.5 -52.5t-52.5 -21.5q-30 0 -51 21.5t-21 52.5q0 30 21.5 51.5t52.5 21.5
q30 0 51 -21.5t21 -51.5z" />
    <glyph glyph-name="at" unicode="@" horiz-adv-x="916" 
d="M860 276q0 -129 -66 -209.5t-161 -80.5q-55 0 -83.5 24.5t-31.5 62.5q-28 -33 -67.5 -54t-82.5 -21q-50 0 -86.5 37.5t-36.5 107.5q0 127 73.5 218.5t202.5 91.5q70 0 137 -36q-20 -67 -63 -269q-7 -31 -7 -52q0 -24 11.5 -33.5t36.5 -9.5q54 0 92.5 64t38.5 159
q0 119 -84.5 200.5t-219.5 81.5q-94 0 -166 -52t-108 -133t-36 -173q0 -132 82.5 -214t209.5 -82q78 0 144 22l18 -68q-70 -23 -162 -23q-166 0 -276 96.5t-110 268.5q0 179 113.5 302t290.5 123q171 0 284 -96.5t113 -252.5zM555 380q-15 7 -41 7q-59 0 -101 -40t-59 -94
t-17 -114q0 -38 12.5 -53t39.5 -15q36 0 75 34.5t52 95.5z" />
    <glyph glyph-name="A" unicode="A" horiz-adv-x="583" 
d="M533 0h-121l-16 185h-227l-96 -185h-123l376 692h132zM387 280l-13 160q-9 96 -9 134q-1 -1 -9.5 -19.5t-21.5 -46t-22 -45.5l-94 -183h169z" />
    <glyph glyph-name="B" unicode="B" horiz-adv-x="600" 
d="M593 541q0 -59 -38 -106.5t-113 -68.5q53 -10 81.5 -48t28.5 -91q0 -40 -19.5 -83.5t-55.5 -77.5q-40 -36 -88.5 -51t-133.5 -15h-220l148 691h216q96 0 145 -39.5t49 -110.5zM426 228q0 43 -24.5 63t-84.5 20h-102l-46 -217h110q55 0 94 27q23 16 38 45.5t15 61.5z
M467 518q0 39 -22 57.5t-75 18.5h-96l-39 -188h100q59 0 89 24q43 34 43 88z" />
    <glyph glyph-name="C" unicode="C" horiz-adv-x="566" 
d="M618 648l-66 -75q-43 39 -112 39q-91 0 -158 -86q-40 -52 -65 -139.5t-25 -156.5q0 -74 36 -112.5t104 -38.5q62 0 135 47l41 -76q-94 -62 -207 -62q-110 0 -172 65.5t-62 180.5q0 85 30.5 176t82.5 156q52 66 125.5 101.5t151.5 35.5q106 0 161 -55z" />
    <glyph glyph-name="D" unicode="D" horiz-adv-x="635" 
d="M613 447q0 -90 -37 -191.5t-97 -160.5q-53 -52 -113 -73.5t-157 -21.5h-174l148 691h154q87 0 135.5 -12.5t81.5 -48.5q59 -64 59 -183zM489 444q0 71 -22 106q-32 50 -116 50h-72l-107 -506h71q107 0 159 72q43 61 65 143t22 135z" />
    <glyph glyph-name="E" unicode="E" horiz-adv-x="505" 
d="M569 691l-35 -94h-256l-39 -189h213l-20 -95h-213l-45 -214h279l-21 -99h-397l148 691h386z" />
    <glyph glyph-name="F" unicode="F" horiz-adv-x="441" 
d="M553 691l-35 -93h-239l-40 -188h195l-20 -94h-195l-67 -316h-117l148 691h370z" />
    <glyph glyph-name="G" unicode="G" horiz-adv-x="659" 
d="M647 627l-69 -70q-55 50 -138 50q-78 0 -136 -55q-50 -48 -81 -147t-31 -177q0 -74 38 -111.5t106 -37.5q57 0 96 21l39 180h-119v94h254l-70 -329q-103 -55 -227 -55q-114 0 -178 66.5t-64 175.5q0 110 42 212.5t111 163.5q103 92 237 92q120 0 190 -73z" />
    <glyph glyph-name="H" unicode="H" horiz-adv-x="640" 
d="M651 691l-148 -691h-115l68 320h-239l-68 -320h-114l148 691h113l-59 -277h238l60 277h116z" />
    <glyph glyph-name="I" unicode="I" horiz-adv-x="288" 
d="M299 691l-147 -691h-117l148 691h116z" />
    <glyph glyph-name="J" unicode="J" horiz-adv-x="290" 
d="M300 691l-120 -564q-8 -37 -13.5 -57.5t-16.5 -51t-25.5 -50.5t-36.5 -43t-54 -41t-74 -34l-40 65q69 36 95 74t46 129l121 573h118z" />
    <glyph glyph-name="K" unicode="K" horiz-adv-x="587" 
d="M231 367l307 334l126 -20l-307 -318l181 -358l-138 -12zM299 691l-147 -691h-117l147 691h117z" />
    <glyph glyph-name="L" unicode="L" horiz-adv-x="471" 
d="M431 96l-39 -96h-357l148 691h116l-126 -595h258z" />
    <glyph glyph-name="M" unicode="M" horiz-adv-x="825" 
d="M797 691l-86 -691h-112l59 428q11 78 19 114q-28 -63 -49 -105l-219 -437h-98l-25 418q-5 73 -4 128q-7 -32 -34 -129l-119 -417h-114l210 691h152l23 -391q4 -59 1 -115q25 63 49 113l193 393h154z" />
    <glyph glyph-name="N" unicode="N" horiz-adv-x="644" 
d="M654 691l-147 -691h-119l-92 333q-42 157 -46 202q-9 -73 -33 -194l-68 -341h-114l148 691h127l101 -348q25 -86 35 -175q8 83 32 200l65 323h111z" />
    <glyph glyph-name="O" unicode="O" horiz-adv-x="694" 
d="M672 459q0 -131 -55.5 -251.5t-146.5 -173.5q-79 -46 -175 -46q-115 0 -171.5 66t-56.5 181q0 124 47 229t117 163q88 74 214 74q108 0 167.5 -64t59.5 -178zM544 479q0 133 -120 133q-86 0 -139 -70q-41 -54 -67 -147.5t-26 -180.5q0 -138 123 -138q73 0 124 55
q45 50 75 156t30 192z" />
    <glyph glyph-name="P" unicode="P" horiz-adv-x="571" 
d="M596 532q0 -149 -115 -222q-76 -47 -180 -47h-94l-56 -263h-116l148 691h180q117 0 170 -36q63 -43 63 -123zM472 509q0 88 -107 88h-87l-51 -240h90q74 0 107 35q48 50 48 117z" />
    <glyph glyph-name="Q" unicode="Q" horiz-adv-x="694" 
d="M672 459q0 -117 -42.5 -225.5t-118.5 -172.5q-32 -28 -70 -45q16 -6 64 -37q45 -29 93 -29q43 0 53 5l-36 -73q-18 -9 -61 -9q-57 0 -132 50q-77 52 -129 65q-113 1 -169 66.5t-56 180.5q0 124 46 227.5t116 163.5q87 75 215 75q108 0 167.5 -64t59.5 -178zM545 479
q0 133 -120 133q-88 0 -140 -70q-40 -53 -66.5 -151t-26.5 -177q0 -138 123 -138q76 0 125 55q45 50 75 156t30 192z" />
    <glyph glyph-name="R" unicode="R" horiz-adv-x="569" 
d="M581 536q0 -96 -59.5 -159t-146.5 -72l-10 -1q32 -29 63 -89q16 -32 47 -111t37 -99l-125 -10l-45 119q-42 110 -86 164q-16 20 -42 20l-64 -298h-115l147 691h212q92 0 139.5 -39.5t47.5 -115.5zM458 513q0 45 -26 65t-81 20h-73l-46 -218h56q83 0 119 29
q22 17 36.5 46.5t14.5 57.5z" />
    <glyph glyph-name="S" unicode="S" horiz-adv-x="592" 
d="M604 644l-66 -81q-68 51 -153 51q-56 0 -94.5 -29t-38.5 -71q0 -31 16.5 -51t57.5 -35l77 -28q126 -46 126 -164q0 -107 -85.5 -178.5t-227.5 -71.5q-120 0 -211 59l59 89q83 -53 173 -53q73 0 116.5 35t43.5 90q0 33 -18.5 55t-63.5 39l-69 26q-62 23 -92 58.5t-30 94.5
q0 97 80.5 163.5t197.5 66.5q124 0 202 -65z" />
    <glyph glyph-name="T" unicode="T" horiz-adv-x="486" 
d="M597 691l-36 -95h-174l-126 -596h-116l127 596h-176l20 95h481z" />
    <glyph glyph-name="U" unicode="U" horiz-adv-x="643" 
d="M659 691l-100 -472q-16 -75 -33 -111t-55 -63q-79 -58 -198 -58q-94 0 -149 39t-55 110q0 38 9 82l101 473h116l-96 -449q-11 -50 -11 -79q0 -77 102 -77q88 0 128 64q17 28 29 86l97 455h115z" />
    <glyph glyph-name="V" unicode="V" horiz-adv-x="590" 
d="M681 691l-386 -694h-107l-87 694h122l41 -406q7 -80 6 -135q21 47 71 141l217 400h123z" />
    <glyph glyph-name="W" unicode="W" horiz-adv-x="816" 
d="M907 691l-311 -693h-133l-3 324q-1 75 10 212q-71 -188 -79 -208l-139 -328h-134l-17 693h119l1 -329q0 -78 -10 -223q48 135 83 215l147 337h126v-349q0 -151 -7 -198q34 101 87 225l138 322h122z" />
    <glyph glyph-name="X" unicode="X" horiz-adv-x="525" 
d="M611 691l-250 -328l139 -363h-134l-90 264l-192 -264h-145l295 372l-122 319h132l73 -218l156 218h138z" />
    <glyph glyph-name="Y" unicode="Y" horiz-adv-x="550" 
d="M651 691l-310 -413l-60 -278h-119l60 280l-131 411h134l59 -221q13 -50 17 -84q5 7 15 22.5l20 31t20 29.5l156 222h139z" />
    <glyph glyph-name="Z" unicode="Z" horiz-adv-x="531" 
d="M579 691l-9 -86l-365 -456q-4 -5 -49 -55q22 2 63 2h248l-39 -96h-429l12 83l368 451q37 45 56 64q-18 -2 -71 -2h-228l37 95h406z" />
    <glyph glyph-name="bracketleft" unicode="[" horiz-adv-x="351" 
d="M381 732l-17 -77h-91l-156 -734h92l-17 -77h-190l189 888h190z" />
    <glyph glyph-name="backslash" unicode="\" horiz-adv-x="424" 
d="M353 -23l-99 -22l-137 775l101 21z" />
    <glyph glyph-name="bracketright" unicode="]" horiz-adv-x="351" 
d="M347 732l-189 -888h-191l17 77h91l156 734h-92l17 77h191z" />
    <glyph glyph-name="asciicircum" unicode="^" horiz-adv-x="618" 
d="M571 313h-111l-81 287l-201 -287h-113l283 395h108z" />
    <glyph glyph-name="underscore" unicode="_" horiz-adv-x="491" 
d="M434 -62l-19 -81h-500l18 81h501z" />
    <glyph glyph-name="grave" unicode="`" horiz-adv-x="316" 
d="M370 622l-37 -62l-219 100l56 94z" />
    <glyph glyph-name="a" unicode="a" horiz-adv-x="542" 
d="M511 480q-19 -59 -30 -116l-41 -200q-7 -37 -7 -52q0 -34 25 -62l-90 -67q-38 31 -38 83q-57 -78 -152 -78q-61 0 -96.5 41t-35.5 120q0 83 29 159.5t78 127.5q81 82 201 82q99 0 157 -38zM388 421q-17 10 -47 10q-36 0 -62 -11.5t-54 -44.5q-32 -38 -49 -101.5
t-17 -121.5q0 -41 13.5 -58.5t41.5 -17.5q33 0 67.5 28.5t52.5 68.5z" />
    <glyph glyph-name="b" unicode="b" horiz-adv-x="570" 
d="M530 346q0 -91 -36.5 -171.5t-98.5 -132.5q-67 -55 -153 -55q-127 0 -199 55q10 29 20 74l93 441q13 65 13 103q0 24 -5 44l114 38q6 -21 6 -52q0 -40 -12 -100l-16 -75q-10 -48 -21 -79q27 36 70 59t89 23q136 0 136 -172zM410 347q0 79 -58 79q-68 0 -134 -94l-50 -234
q28 -26 84 -26q39 0 70.5 29t50 73t28 89.5t9.5 83.5z" />
    <glyph glyph-name="c" unicode="c" horiz-adv-x="450" 
d="M465 467l-60 -74q-37 37 -87 37q-47 0 -82 -41q-27 -33 -48.5 -101.5t-21.5 -126.5q0 -90 75 -90q56 0 115 53l40 -69q-83 -67 -179 -67q-84 0 -127 45t-43 128q0 88 37.5 171.5t91.5 128.5q70 59 160 59q77 0 129 -53z" />
    <glyph glyph-name="d" unicode="d" horiz-adv-x="560" 
d="M578 718l-115 -542q-16 -79 -16 -114q0 -30 11 -49l-94 -22q-19 22 -19 63v10q-60 -74 -149 -74q-149 0 -149 174q0 77 29.5 152t81.5 127q73 71 169 71q67 0 97 -16q0 13 13 68l36 170zM402 405q-30 20 -79 20q-55 0 -92 -46q-30 -36 -49.5 -99.5t-19.5 -117.5
q0 -84 61 -84q32 0 68.5 25.5t59.5 64.5z" />
    <glyph glyph-name="e" unicode="e" horiz-adv-x="513" 
d="M491 383q0 -62 -45 -105q-66 -64 -215 -64q-16 0 -37.5 2t-23.5 2q-6 -30 -6 -53q0 -46 24.5 -69.5t67.5 -23.5q73 0 143 55l34 -68q-90 -72 -206 -72q-83 0 -131.5 48.5t-48.5 136.5q0 76 30.5 151.5t82.5 125.5q72 69 171 69q75 0 117.5 -34.5t42.5 -100.5zM380 376
q0 60 -63 60q-44 0 -78.5 -35.5t-50.5 -104.5q2 0 18 -1.5t26 -1.5q94 0 127 33q21 21 21 50z" />
    <glyph glyph-name="f" unicode="f" horiz-adv-x="299" 
d="M451 705l-46 -72q-32 19 -62 19t-50.5 -19t-26.5 -52l-14 -75h133l-46 -78h-101l-85 -434q-24 -128 -106 -211l-74 57q54 65 72 157l85 431h-50l16 78h48l12 69q17 92 87 135q40 24 101 24q63 0 107 -29z" />
    <glyph glyph-name="g" unicode="g" horiz-adv-x="565" 
d="M536 480q-13 -38 -23 -85l-53 -247q-9 -42 -19 -98.5t-14 -73.5q-42 -188 -266 -188q-97 0 -177 45l38 78q63 -38 148 -38q63 0 98 24.5t49 78.5q1 4 8.5 36.5t9.5 37.5q-55 -61 -139 -61q-149 0 -149 172q0 80 30.5 159t82.5 125q82 74 189 74q110 0 187 -39zM408 415
q-22 14 -68 14q-63 0 -104 -47q-31 -35 -52 -100t-21 -118q0 -88 66 -88q34 0 68 24.5t57 65.5z" />
    <glyph glyph-name="h" unicode="h" horiz-adv-x="573" 
d="M523 420q0 -26 -8 -62l-76 -358h-108l72 341q6 32 6 42q-1 43 -47 43q-31 0 -73.5 -27.5t-74.5 -68.5l-70 -330h-109l118 556q14 68 14 104q0 22 -5 44l112 38q6 -18 6 -49q0 -54 -14 -116l-15 -70q-11 -48 -20 -76q35 42 83.5 65t95.5 23q54 0 83.5 -27t29.5 -72z" />
    <glyph glyph-name="i" unicode="i" horiz-adv-x="279" 
d="M256 517l-109 -517h-112l106 500zM303 653q0 -31 -21 -52.5t-52 -21.5q-30 0 -51.5 21.5t-21.5 51.5q0 31 21.5 52.5t52.5 21.5q30 0 51 -21.5t21 -51.5z" />
    <glyph glyph-name="j" unicode="j" horiz-adv-x="271" 
d="M249 518l-107 -504q-23 -105 -66 -152q-40 -44 -112 -72l-36 66q42 18 67 54q24 34 38 103l103 486zM297 658q0 -31 -21.5 -53t-52.5 -22q-30 0 -51.5 20.5t-21.5 51.5t22 53t53 22q29 0 50.5 -21t21.5 -51z" />
    <glyph glyph-name="k" unicode="k" horiz-adv-x="499" 
d="M276 742q5 -14 5 -48q0 -61 -16 -133l-120 -561h-110l119 559q13 63 13 101q0 24 -5 44zM537 495l-215 -209l152 -279l-123 -14l-141 296l209 226z" />
    <glyph glyph-name="l" unicode="l" horiz-adv-x="279" 
d="M273 742q4 -15 4 -46q0 -64 -13 -123l-87 -408q-12 -53 -12 -71q0 -27 24 -27q12 0 17 2l6 -67q-33 -13 -74 -13q-43 0 -65.5 21t-22.5 57q0 24 10 71l89 417q14 65 14 105q0 26 -6 44z" />
    <glyph glyph-name="m" unicode="m" horiz-adv-x="807" 
d="M757 416q0 -21 -8 -63l-75 -353h-108l73 342q6 27 6 46q0 36 -40 36q-28 0 -63 -25.5t-65 -67.5l-71 -331h-106l71 336q9 40 9 54q0 34 -36 34q-28 0 -63.5 -25t-69.5 -69l-70 -330h-106l75 353q8 35 8 71q0 28 -7 56l102 42q11 -25 11 -62q0 -17 -3 -32q83 89 173 89
q85 0 90 -89q84 90 175 90q44 0 71 -27.5t27 -74.5z" />
    <glyph glyph-name="n" unicode="n" horiz-adv-x="555" 
d="M505 417q0 -34 -5 -55l-77 -362h-109l71 335q7 31 7 49q0 40 -40 40q-67 0 -139 -94l-70 -330h-108l74 350q10 44 10 77q0 26 -8 53l102 42q12 -27 12 -63q0 -15 -3 -32q74 90 182 90q47 0 74 -27t27 -73z" />
    <glyph glyph-name="o" unicode="o" horiz-adv-x="551" 
d="M507 340q0 -146 -78 -249t-212 -103q-84 0 -130 47t-46 134q0 148 81 248.5t206 100.5q86 0 132.5 -47t46.5 -131zM388 344q0 90 -77 90q-47 0 -83 -45.5t-52.5 -107t-16.5 -122.5q0 -88 78 -88q46 0 82 43.5t52.5 104.5t16.5 125z" />
    <glyph glyph-name="p" unicode="p" horiz-adv-x="566" 
d="M527 351q0 -70 -27 -151.5t-69 -128.5q-74 -82 -178 -82q-72 0 -110 22q0 -7 -8 -44l-33 -156l-112 -26l121 570q9 43 9 70q0 24 -9 55l102 42q13 -24 13 -66q0 -8 -2 -24v-2q33 40 79 63t91 23q64 0 98.5 -44t34.5 -121zM408 347q0 40 -13.5 58t-44.5 18
q-32 0 -68.5 -24t-68.5 -70l-49 -230q26 -26 83 -26q63 0 100 54q27 40 44 104.5t17 115.5z" />
    <glyph glyph-name="q" unicode="q" horiz-adv-x="564" 
d="M536 479q-17 -50 -31 -117l-117 -550l-110 -26l40 190q14 65 20 80q-61 -67 -148 -67q-143 0 -143 168q0 80 30 158t79 125q82 79 203 79q116 0 177 -40zM411 420q-20 10 -73 10q-48 0 -94 -39q-36 -30 -58 -97.5t-22 -129.5q0 -88 66 -88q71 0 127 94z" />
    <glyph glyph-name="r" unicode="r" horiz-adv-x="368" 
d="M413 510l-48 -104q-13 8 -35 8q-55 0 -118 -89l-69 -325h-109l72 338q11 51 11 88q0 32 -7 54l102 42q11 -27 11 -63q0 -18 -3 -36q75 95 151 95q22 0 42 -8z" />
    <glyph glyph-name="s" unicode="s" horiz-adv-x="479" 
d="M454 480l-44 -77q-61 35 -121 35q-42 0 -67 -16t-25 -46q0 -39 54 -59l60 -23q103 -40 103 -120q0 -81 -63 -135t-171 -54q-103 0 -187 53l44 81q72 -50 158 -50q41 0 69 21t28 52q0 24 -14.5 38t-49.5 28l-58 22q-95 36 -95 121q0 71 58 121.5t163 50.5q89 0 158 -43z
" />
    <glyph glyph-name="t" unicode="t" horiz-adv-x="314" 
d="M371 506l-41 -78h-97l-57 -272q-6 -29 -6 -49q0 -23 11 -32.5t36 -9.5q28 0 51 10v-68q-52 -21 -105 -21q-50 0 -78 23t-28 62q0 34 7 69l61 288h-57l16 78h57q16 73 33 123l117 27q-27 -83 -41 -150h121z" />
    <glyph glyph-name="u" unicode="u" horiz-adv-x="554" 
d="M527 516l-80 -374q-6 -28 -6 -50q0 -36 18 -63l-92 -48q-30 35 -30 83v4q-77 -83 -166 -83q-55 0 -85.5 26.5t-30.5 76.5q0 34 9 77l70 332l113 21l-70 -332q-10 -43 -10 -67q0 -48 40 -48q33 0 73.5 28.5t65.5 70.5l70 325z" />
    <glyph glyph-name="v" unicode="v" horiz-adv-x="465" 
d="M526 505l-295 -507h-96l-76 502l112 17l33 -280q6 -49 6 -107q31 70 52 110l145 266z" />
    <glyph glyph-name="w" unicode="w" horiz-adv-x="699" 
d="M746 506l-252 -508h-101l-12 188q-9 135 -4 189h-2q-7 -21 -16 -40l-56 -123l-103 -214h-103l-32 501l110 16l4 -254q1 -63 -3 -128h1q16 48 57 133l118 240h107l11 -240q1 -22 1 -134h1q35 93 49 125l109 249h116z" />
    <glyph glyph-name="x" unicode="x" horiz-adv-x="450" 
d="M497 506l-204 -237l130 -269h-130q-5 15 -23.5 60.5t-33.5 83.5t-16 46q-15 -27 -151 -190h-141l249 276l-101 217l119 21q44 -109 58 -159q5 8 112 151h132z" />
    <glyph glyph-name="y" unicode="y" horiz-adv-x="493" 
d="M544 506l-267 -477q-50 -89 -80 -132.5t-63 -66.5q-50 -35 -118 -46l-23 74q45 8 89 38q24 17 40.5 39.5t37.5 64.5l-35 -2q0 67 -12 159l-44 342l114 16l28 -307q4 -51 4 -114h1q16 42 62 132l146 280h120z" />
    <glyph glyph-name="z" unicode="z" horiz-adv-x="419" 
d="M436 506l-3 -78l-318 -349h247l-39 -79h-360l5 73l328 353h-223l8 80h355z" />
    <glyph glyph-name="braceleft" unicode="{" horiz-adv-x="370" 
d="M451 732l-20 -91h-51q-36 0 -51 -19t-22 -51l-35 -168q-21 -100 -118 -114v-2q72 -8 72 -77q0 -18 -4 -37l-35 -168q-4 -20 -4 -29q0 -41 47 -41h51l-19 -91h-90q-41 0 -67.5 24.5t-26.5 71.5q0 16 5 41l36 173q2 14 2 19q0 35 -26.5 52.5t-54.5 17.5l19 90q32 0 70 22.5
t47 65.5l37 175q14 67 56 101.5t92 34.5h90z" />
    <glyph glyph-name="bar" unicode="|" horiz-adv-x="309" 
d="M335 757l-204 -964h-100l204 964h100z" />
    <glyph glyph-name="braceright" unicode="}" horiz-adv-x="370" 
d="M363 333l-19 -90q-20 0 -43 -7.5t-46 -29t-29 -52.5l-36 -174q-14 -67 -55 -101.5t-93 -34.5h-90l20 91h51q58 0 73 70l35 167q22 104 118 115l1 2q-74 8 -74 79q0 18 4 35l36 168q4 20 4 29q0 41 -47 41h-51l19 91h92q40 0 66 -24.5t26 -71.5q0 -16 -5 -41l-37 -174
q-2 -14 -2 -19q0 -34 26.5 -51.5t55.5 -17.5z" />
    <glyph glyph-name="asciitilde" unicode="~" horiz-adv-x="590" 
d="M535 305q-43 -52 -77 -69t-70 -17q-41 0 -105 35q-4 2 -13.5 7.5t-13 7t-11 5.5t-11.5 5t-10.5 3t-12.5 2.5t-13 0.5q-33 0 -57.5 -16.5t-49.5 -47.5l-26 77q71 89 146 89q39 0 104 -34q5 -3 14.5 -7.5t13.5 -7t11.5 -6t12 -5t11 -4t11.5 -3.5t11.5 -1.5t12.5 -0.5
q27 0 48.5 15t49.5 50z" />
    <glyph glyph-name="uni00A0" unicode="&#xa0;" horiz-adv-x="225" 
 />
    <glyph glyph-name="exclamdown" unicode="&#xa1;" horiz-adv-x="311" 
d="M216 279l-76 -476l-137 -19l130 495h83zM278 426q0 -31 -21.5 -52t-51.5 -21q-31 0 -52 21t-21 52t21.5 52.5t52.5 21.5q30 0 51 -21.5t21 -52.5z" />
    <glyph glyph-name="cent" unicode="&#xa2;" horiz-adv-x="454" 
d="M468 465l-64 -71q-31 38 -86 38q-51 0 -88 -52t-56 -139q-9 -42 -9 -75q0 -95 75 -95q65 0 117 52l38 -67q-67 -55 -137 -64l-20 -94h-75l20 94q-86 11 -117 76q-20 42 -20 99q0 39 9 82q25 118 93.5 186t145.5 82l19 88h76l-19 -87q56 -7 98 -53z" />
    <glyph glyph-name="sterling" unicode="&#xa3;" horiz-adv-x="584" 
d="M671 652l-90 -79q-34 41 -95 41q-121 0 -152 -146l-13 -62h158l-18 -86h-159l-47 -222h250l-21 -98h-472l21 98h101l47 222h-96l18 86h96l16 75q24 113 98.5 176t185.5 63q113 0 172 -68z" />
    <glyph glyph-name="currency" unicode="&#xa4;" horiz-adv-x="457" 
d="M447 448l-57 -66q15 -22 15 -61q0 -42 -16.5 -88.5t-48.5 -73.5l32 -68l-97 -52l-27 66q-21 -6 -49 -6q-31 0 -50 6l-52 -68l-82 59l59 66q-14 22 -14 58q0 43 19 91t48 74l-32 66l99 52l25 -66q15 4 48 4q32 0 48 -5l50 69zM306 266q7 33 7 50q0 60 -60 60
q-74 0 -94 -99q-7 -35 -7 -54q0 -59 60 -59q71 0 94 102z" />
    <glyph glyph-name="yen" unicode="&#xa5;" horiz-adv-x="543" 
d="M644 691l-221 -294h123l-18 -84h-167l-27 -35l-10 -49h186l-18 -84h-186l-31 -145h-120l31 145h-180l18 84h180l11 51l-11 33h-162l18 84h118l-94 294h133l59 -221q15 -57 18 -84q33 54 54 83l156 222h140z" />
    <glyph glyph-name="brokenbar" unicode="&#xa6;" horiz-adv-x="270" 
d="M296 757l-83 -394h-100l83 394h100zM175 187l-83 -394h-100l83 394h100z" />
    <glyph glyph-name="section" unicode="&#xa7;" horiz-adv-x="542" 
d="M564 625l-109 -57q-12 59 -91 59q-38 0 -68 -22t-30 -55q0 -34 50 -61l81 -43q55 -29 86.5 -62t31.5 -80q0 -52 -32 -92.5t-83 -64.5q40 -34 40 -87q0 -92 -75.5 -150t-193.5 -58q-161 0 -188 125l108 49q3 -38 32.5 -56.5t73.5 -18.5q45 0 77 22.5t32 59.5q0 8 -2.5 15
t-8 13t-10 11t-14.5 11t-15.5 9.5t-18 10t-17.5 9.5l-85 48q-73 41 -73 119q0 101 127 165q-48 34 -48 91q0 85 72 138t167 53q67 0 117.5 -24t66.5 -77zM398 273q0 41 -64 76l-78 43q-77 -30 -77 -88q0 -25 17.5 -41t48.5 -32l84 -44q27 12 48 37t21 49z" />
    <glyph glyph-name="dieresis" unicode="&#xa8;" horiz-adv-x="436" 
d="M472 629q0 -28 -19.5 -48t-47.5 -20q-29 0 -48.5 19.5t-19.5 48.5q0 28 20 47.5t48 19.5t47.5 -19.5t19.5 -47.5zM263 629q0 -29 -19.5 -48.5t-48.5 -19.5q-28 0 -47.5 20t-19.5 48t20 47.5t48 19.5t47.5 -19.5t19.5 -47.5z" />
    <glyph glyph-name="copyright" unicode="&#xa9;" horiz-adv-x="866" 
d="M829 355q0 -155 -108.5 -263.5t-261.5 -108.5t-261.5 108.5t-108.5 263.5t108.5 263.5t261.5 108.5t261.5 -108.5t108.5 -263.5zM745 355q0 124 -83.5 211t-202.5 87t-202 -87t-83 -211q0 -125 83.5 -212.5t201.5 -87.5q119 0 202.5 88t83.5 212zM585 179
q-48 -39 -116 -39q-85 0 -136 58q-50 58 -50 149q0 77 28 130q24 46 66.5 71.5t93.5 25.5q65 0 105 -33l-38 -57q-32 23 -66 23q-46 0 -71 -36q-23 -35 -23 -107q0 -82 17 -112q26 -47 80 -47q38 0 72 27z" />
    <glyph glyph-name="ordfeminine" unicode="&#xaa;" horiz-adv-x="440" 
d="M469 737q-15 -46 -23 -89l-31 -148q-4 -17 -4 -32q0 -22 21 -46l-73 -54q-29 22 -32 53q-42 -48 -106 -48q-45 0 -73 31.5t-28 90.5q0 60 21.5 117.5t57.5 93.5q61 61 149 61q71 0 121 -30zM366 688q-12 5 -27 5q-47 0 -81 -39q-46 -54 -46 -157q0 -49 35 -49
q23 0 46 19.5t36 47.5zM417 307l-15 -68h-342l15 68h342z" />
    <glyph glyph-name="guillemotleft" unicode="&#xab;" horiz-adv-x="553" 
d="M331 417l-163 -177l82 -173l-84 -47l-109 227l205 223zM548 417l-163 -177l82 -173l-83 -47l-109 227l205 223z" />
    <glyph glyph-name="logicalnot" unicode="&#xac;" horiz-adv-x="513" 
d="M479 299l-50 -233h-100l30 140h-318l20 93h418z" />
    <glyph glyph-name="uni00AD" unicode="&#xad;" horiz-adv-x="354" 
d="M304 319l-21 -96h-219l21 96h219z" />
    <glyph glyph-name="registered" unicode="&#xae;" horiz-adv-x="866" 
d="M829 355q0 -155 -108.5 -263.5t-261.5 -108.5t-261.5 108.5t-108.5 263.5t108.5 263.5t261.5 108.5t261.5 -108.5t108.5 -263.5zM745 355q0 124 -83.5 211t-202.5 87t-202 -87t-83 -211q0 -125 83.5 -212.5t201.5 -87.5q119 0 202.5 88t83.5 212zM631 149h-99
q-33 58 -39 69q-32 58 -45 78t-24 24q-6 3 -13 3v-174h-82v417h155q55 0 89 -33.5t34 -88.5q0 -47 -27.5 -80.5t-65.5 -34.5q11 -10 17 -18q25 -33 100 -162zM518 442q0 39 -30 51q-18 6 -47 6h-30v-113h28q48 0 63 14q16 16 16 42z" />
    <glyph glyph-name="macron" unicode="&#xaf;" horiz-adv-x="329" 
d="M421 741l-14 -68h-297l14 68h297z" />
    <glyph glyph-name="degree" unicode="&#xb0;" horiz-adv-x="403" 
d="M368 528q-15 -79 -69 -124.5t-131 -45.5q-65 0 -101 33.5t-36 92.5q0 95 59 155.5t144 60.5q67 0 103 -33t36 -93q0 -19 -5 -46zM277 527q5 28 5 45q0 64 -61 64q-52 0 -76 -44.5t-24 -108.5q0 -61 61 -61q39 0 61.5 25.5t33.5 79.5z" />
    <glyph glyph-name="plusminus" unicode="&#xb1;" horiz-adv-x="496" 
d="M480 383l-21 -95h-150l-29 -142h-101l30 142h-150l20 95h150l29 135h100l-28 -135h150zM420 110l-20 -94h-397l21 94h396z" />
    <glyph glyph-name="twosuperior" unicode="&#xb2;" horiz-adv-x="338" 
d="M373 562q0 -29 -14 -58.5t-41.5 -58.5t-48 -46.5t-52.5 -42.5q-13 -10 -29.5 -22t-19.5 -14q5 0 17 0.5t16 0.5h136l-34 -71h-263l12 56q60 41 119 92q104 89 104 144q0 37 -41 37q-34 0 -98 -41l-36 51q90 64 170 64q47 0 75 -25t28 -66z" />
    <glyph glyph-name="threesuperior" unicode="&#xb3;" horiz-adv-x="354" 
d="M389 567q0 -63 -71 -105q44 -25 44 -69q0 -48 -39.5 -86t-89.5 -56q-57 -20 -122 -20q-15 0 -47 4l-9 64q31 -6 52 -6q73 0 120 32q39 28 39 66q0 25 -22 33q-16 6 -58 6h-30l14 66h27q27 0 44 2t35 14.5t18 36.5q0 32 -42 32q-38 0 -101 -37l-35 53q83 56 161 56
q50 0 81 -24t31 -62z" />
    <glyph glyph-name="acute" unicode="&#xb4;" horiz-adv-x="346" 
d="M393 660l-233 -101l-34 63l221 131z" />
    <glyph glyph-name="mu" unicode="&#xb5;" horiz-adv-x="555" 
d="M527 516l-79 -374q-7 -37 -7 -51q0 -31 17 -54l-87 -54q-29 26 -32 63q-67 -61 -157 -61q-32 0 -47 15q0 -6 -5 -29l-35 -160l-112 -26l151 712l114 21l-73 -342q-7 -32 -7 -53q0 -20 8 -31q16 -21 49 -21q30 0 63.5 19.5t52.5 47.5l77 357z" />
    <glyph glyph-name="paragraph" unicode="&#xb6;" horiz-adv-x="597" 
d="M613 708l-177 -834h-83l163 765h-111l-163 -765h-82l96 454q-82 0 -129 40.5t-47 106.5q0 105 76 169t199 64h258z" />
    <glyph glyph-name="periodcentered" unicode="&#xb7;" horiz-adv-x="311" 
d="M243 277q0 -33 -23 -56t-56 -23t-56 23t-23 56t23 56t56 23t56 -23t23 -56z" />
    <glyph glyph-name="cedilla" unicode="&#xb8;" horiz-adv-x="236" 
d="M140 -95v-7q0 -38 -34.5 -67t-87.5 -29q-43 0 -80 24l36 55q32 -15 54 -15q14 0 25 8t11 21q0 19 -26 19q-8 0 -28 -4l-8 15l43 87l64 -6l-22 -42q53 -8 53 -59z" />
    <glyph glyph-name="onesuperior" unicode="&#xb9;" horiz-adv-x="322" 
d="M317 647l-69 -327h56l-15 -70h-204l15 70h64l48 229q-51 -26 -90 -38l-13 49l148 87h60z" />
    <glyph glyph-name="ordmasculine" unicode="&#xba;" horiz-adv-x="441" 
d="M471 632q0 -108 -57.5 -184t-156.5 -76q-63 0 -98 36.5t-35 101.5q0 109 60.5 182.5t152.5 73.5q65 0 99.5 -35.5t34.5 -98.5zM375 635q0 59 -51 59q-48 0 -76 -61.5t-28 -130.5q0 -59 51 -59q48 0 76 59.5t28 132.5zM413 307l-15 -68h-342l15 68h342z" />
    <glyph glyph-name="guillemotright" unicode="&#xbb;" horiz-adv-x="554" 
d="M501 243l-205 -223l-68 53l162 177l-81 173l83 47zM283 243l-204 -223l-69 53l163 177l-82 173l84 47z" />
    <glyph glyph-name="onequarter" unicode="&#xbc;" horiz-adv-x="947" 
d="M909 764l-719 -917h-88l719 917h88zM899 142l-15 -71h-39q-1 0 -3.5 0.5t-3.5 0.5q0 -8 -1 -12l-15 -68l-86 -14l21 94q-1 0 -5 -0.5t-6 -0.5h-167l12 56l168 271h92q-4 -5 -33.5 -56t-66.5 -109t-63 -91h80l4 -1l1 4q13 50 42 146l75 17l-35 -161l-2 -6q1 0 3.5 0.5
t3.5 0.5h39zM320 647l-70 -327h56l-15 -70h-204l15 70h64l49 229q-51 -26 -90 -38l-14 49l149 87h60z" />
    <glyph glyph-name="onehalf" unicode="&#xbd;" horiz-adv-x="947" 
d="M885 764l-719 -917h-88l719 917h88zM925 312q0 -29 -14 -58.5t-41.5 -58.5t-48 -46.5t-52.5 -42.5q-13 -10 -29.5 -22t-19.5 -14q5 0 17 0.5t16 0.5h136l-34 -71h-263l12 56q60 41 119 92q104 89 104 144q0 37 -41 37q-34 0 -98 -41l-36 51q90 64 170 64q47 0 75 -25
t28 -66zM336 647l-70 -327h56l-15 -70h-204l15 70h64l49 229q-51 -26 -90 -38l-14 49l149 87h60z" />
    <glyph glyph-name="threequarters" unicode="&#xbe;" horiz-adv-x="990" 
d="M931 764l-719 -917h-88l719 917h88zM941 142l-15 -71h-39q-1 0 -3.5 0.5t-3.5 0.5q0 -8 -1 -12l-15 -68l-86 -14l21 94q-1 0 -5 -0.5t-6 -0.5h-167l12 56l168 271h92q-4 -5 -33.5 -56t-66.5 -109t-63 -91h80l4 -1l1 4q13 50 42 146l75 17l-35 -161l-2 -6q1 0 3.5 0.5
t3.5 0.5h39zM388 567q0 -63 -71 -105q44 -25 44 -69q0 -48 -39.5 -86t-89.5 -56q-57 -20 -122 -20q-15 0 -47 4l-9 64q31 -6 52 -6q73 0 120 32q39 28 39 66q0 25 -22 33q-16 6 -58 6h-30l14 66h27q27 0 44 2t35 14.5t18 36.5q0 32 -42 32q-38 0 -101 -37l-35 53
q83 56 161 56q50 0 81 -24t31 -62z" />
    <glyph glyph-name="questiondown" unicode="&#xbf;" horiz-adv-x="451" 
d="M332 -141q-98 -71 -199 -71q-70 0 -111.5 35.5t-41.5 95.5q0 104 125 180q58 35 80.5 75.5t25.5 92.5h93v-11q0 -133 -122 -209q-51 -32 -69.5 -53t-18.5 -49q0 -62 74 -62q64 0 127 45zM354 426q0 -31 -21.5 -52t-52.5 -21q-30 0 -51.5 21t-21.5 52t21.5 52.5t52.5 21.5
q30 0 51.5 -21.5t21.5 -52.5z" />
    <glyph glyph-name="Agrave" unicode="&#xc0;" horiz-adv-x="583" 
d="M533 0h-121l-16 185h-227l-96 -185h-123l376 692h132zM387 280l-13 160q-9 96 -9 134q-1 -1 -9.5 -19.5t-21.5 -46t-22 -45.5l-94 -183h169zM494 784l-37 -62l-219 100l56 94z" />
    <glyph glyph-name="Aacute" unicode="&#xc1;" horiz-adv-x="583" 
d="M533 0h-121l-16 185h-227l-96 -185h-123l376 692h132zM387 280l-13 160q-9 96 -9 134q-1 -1 -9.5 -19.5t-21.5 -46t-22 -45.5l-94 -183h169zM563 822l-233 -101l-34 63l221 131z" />
    <glyph glyph-name="Acircumflex" unicode="&#xc2;" horiz-adv-x="583" 
d="M533 0h-121l-16 185h-227l-96 -185h-123l376 692h132zM387 280l-13 160q-9 96 -9 134q-1 -1 -9.5 -19.5t-21.5 -46t-22 -45.5l-94 -183h169zM566 778l-47 -60l-121 81l-153 -81l-33 60l203 135z" />
    <glyph glyph-name="Atilde" unicode="&#xc3;" horiz-adv-x="583" 
d="M533 0h-121l-16 185h-227l-96 -185h-123l376 692h132zM387 280l-13 160q-9 96 -9 134q-1 -1 -9.5 -19.5t-21.5 -46t-22 -45.5l-94 -183h169zM568 810q-34 -34 -64.5 -49.5t-72.5 -15.5q-28 0 -61 19t-60 19q-15 0 -29 -6t-22 -11.5t-25 -20.5l-26 62q35 34 63.5 49.5
t67.5 15.5q29 0 63 -19.5t63 -19.5q15 0 29 5.5t22.5 11.5t24.5 20z" />
    <glyph glyph-name="Adieresis" unicode="&#xc4;" horiz-adv-x="583" 
d="M533 0h-121l-16 185h-227l-96 -185h-123l376 692h132zM387 280l-13 160q-9 96 -9 134q-1 -1 -9.5 -19.5t-21.5 -46t-22 -45.5l-94 -183h169zM356 792q0 -28 -20 -48t-48 -20t-47.5 20t-19.5 48t20 47.5t48 19.5t47.5 -19.5t19.5 -47.5zM566 792q0 -28 -20 -48t-48 -20
t-47.5 20t-19.5 48t20 47.5t48 19.5t47.5 -19.5t19.5 -47.5z" />
    <glyph glyph-name="Aring" unicode="&#xc5;" horiz-adv-x="583" 
d="M533 0h-121l-16 185h-227l-96 -185h-123l376 692h132zM387 280l-13 160q-9 96 -9 134q-1 -1 -9.5 -19.5t-21.5 -46t-22 -45.5l-94 -183h169zM499 819q0 -44 -31 -75t-75 -31t-75 31t-31 75t31 75t75 31t75 -31t31 -75zM443 819q0 21 -14.5 35.5t-35.5 14.5t-35.5 -14.5
t-14.5 -35.5t14.5 -35.5t35.5 -14.5t35.5 14.5t14.5 35.5z" />
    <glyph glyph-name="AE" unicode="&#xc6;" horiz-adv-x="806" 
d="M870 691l-35 -94h-251l-40 -189h215l-21 -95h-213l-46 -214h283l-22 -99h-398l39 185h-203l-148 -185h-135l565 691h410zM459 548l-206 -268h148z" />
    <glyph glyph-name="Ccedilla" unicode="&#xc7;" horiz-adv-x="566" 
d="M618 648l-66 -75q-43 39 -112 39q-91 0 -158 -86q-40 -52 -65 -139.5t-25 -156.5q0 -74 36 -112.5t104 -38.5q62 0 135 47l41 -76q-93 -62 -205 -62h-9l-13 -24q54 -7 54 -57q0 -44 -34.5 -74.5t-88.5 -30.5q-41 0 -80 24l37 53q25 -15 54 -15q14 0 25 8.5t11 22.5
q0 19 -27 19q-17 0 -29 -4l-3 22l32 64q-79 19 -122 81t-43 157q0 85 30.5 176t82.5 156q52 66 125.5 101.5t151.5 35.5q106 0 161 -55z" />
    <glyph glyph-name="Egrave" unicode="&#xc8;" horiz-adv-x="505" 
d="M569 691l-35 -94h-256l-39 -189h213l-20 -95h-213l-45 -214h279l-21 -99h-397l148 691h386zM469 784l-37 -62l-219 100l56 94z" />
    <glyph glyph-name="Eacute" unicode="&#xc9;" horiz-adv-x="505" 
d="M569 691l-35 -94h-256l-39 -189h213l-20 -95h-213l-45 -214h279l-21 -99h-397l148 691h386zM537 822l-233 -101l-34 63l221 131z" />
    <glyph glyph-name="Ecircumflex" unicode="&#xca;" horiz-adv-x="505" 
d="M569 691l-35 -94h-256l-39 -189h213l-20 -95h-213l-45 -214h279l-21 -99h-397l148 691h386zM562 778l-47 -60l-121 81l-153 -81l-33 60l203 135z" />
    <glyph glyph-name="Edieresis" unicode="&#xcb;" horiz-adv-x="505" 
d="M569 691l-35 -94h-256l-39 -189h213l-20 -95h-213l-45 -214h279l-21 -99h-397l148 691h386zM336 792q0 -28 -20 -48t-48 -20t-47.5 20t-19.5 48t20 47.5t48 19.5t47.5 -19.5t19.5 -47.5zM546 792q0 -28 -20 -48t-48 -20t-47.5 20t-19.5 48t20 47.5t48 19.5t47.5 -19.5
t19.5 -47.5z" />
    <glyph glyph-name="Igrave" unicode="&#xcc;" horiz-adv-x="288" 
d="M299 691l-147 -691h-117l148 691h116zM341 784l-37 -62l-219 100l56 94z" />
    <glyph glyph-name="Iacute" unicode="&#xcd;" horiz-adv-x="288" 
d="M299 691l-147 -691h-117l148 691h116zM416 822l-233 -101l-34 63l221 131z" />
    <glyph glyph-name="Icircumflex" unicode="&#xce;" horiz-adv-x="288" 
d="M299 691l-147 -691h-117l148 691h116zM428 778l-47 -60l-121 81l-153 -81l-33 60l203 135z" />
    <glyph glyph-name="Idieresis" unicode="&#xcf;" horiz-adv-x="288" 
d="M299 691l-147 -691h-117l148 691h116zM213 792q0 -28 -19.5 -48t-48.5 -20q-28 0 -47.5 20t-19.5 48t20 47.5t48 19.5t47.5 -19.5t19.5 -47.5zM423 792q0 -28 -19.5 -48t-48.5 -20q-28 0 -47.5 20t-19.5 48t20 47.5t48 19.5t47.5 -19.5t19.5 -47.5z" />
    <glyph glyph-name="Eth" unicode="&#xd0;" horiz-adv-x="635" 
d="M613 447q0 -90 -37 -191.5t-97 -160.5q-53 -52 -113 -73.5t-157 -21.5h-174l67 311h-80l17 79h80l64 301h154q87 0 135.5 -12.5t81.5 -48.5q59 -64 59 -183zM489 444q0 71 -22 106q-32 50 -116 50h-72l-44 -210h129l-26 -79h-120l-46 -217h71q107 0 159 72q43 61 65 143
t22 135z" />
    <glyph glyph-name="Ntilde" unicode="&#xd1;" horiz-adv-x="644" 
d="M654 691l-147 -691h-119l-92 333q-42 157 -46 202q-9 -73 -33 -194l-68 -341h-114l148 691h127l101 -348q25 -86 35 -175q8 83 32 200l65 323h111zM603 811q-34 -34 -64.5 -49.5t-72.5 -15.5q-28 0 -61 19t-60 19q-15 0 -29 -6t-22 -11.5t-25 -20.5l-26 62
q35 34 63.5 49.5t67.5 15.5q29 0 63 -19.5t63 -19.5q15 0 29 5.5t22.5 11.5t24.5 20z" />
    <glyph glyph-name="Ograve" unicode="&#xd2;" horiz-adv-x="694" 
d="M672 459q0 -131 -55.5 -251.5t-146.5 -173.5q-79 -46 -175 -46q-115 0 -171.5 66t-56.5 181q0 124 47 229t117 163q88 74 214 74q108 0 167.5 -64t59.5 -178zM544 479q0 133 -120 133q-86 0 -139 -70q-41 -54 -67 -147.5t-26 -180.5q0 -138 123 -138q73 0 124 55
q45 50 75 156t30 192zM543 784l-37 -62l-219 100l56 94z" />
    <glyph glyph-name="Oacute" unicode="&#xd3;" horiz-adv-x="694" 
d="M672 459q0 -131 -55.5 -251.5t-146.5 -173.5q-79 -46 -175 -46q-115 0 -171.5 66t-56.5 181q0 124 47 229t117 163q88 74 214 74q108 0 167.5 -64t59.5 -178zM544 479q0 133 -120 133q-86 0 -139 -70q-41 -54 -67 -147.5t-26 -180.5q0 -138 123 -138q73 0 124 55
q45 50 75 156t30 192zM609 822l-233 -101l-34 63l221 131z" />
    <glyph glyph-name="Ocircumflex" unicode="&#xd4;" horiz-adv-x="694" 
d="M672 459q0 -131 -55.5 -251.5t-146.5 -173.5q-79 -46 -175 -46q-115 0 -171.5 66t-56.5 181q0 124 47 229t117 163q88 74 214 74q108 0 167.5 -64t59.5 -178zM544 479q0 133 -120 133q-86 0 -139 -70q-41 -54 -67 -147.5t-26 -180.5q0 -138 123 -138q73 0 124 55
q45 50 75 156t30 192zM625 778l-47 -60l-121 81l-153 -81l-33 60l203 135z" />
    <glyph glyph-name="Otilde" unicode="&#xd5;" horiz-adv-x="694" 
d="M672 459q0 -131 -55.5 -251.5t-146.5 -173.5q-79 -46 -175 -46q-115 0 -171.5 66t-56.5 181q0 124 47 229t117 163q88 74 214 74q108 0 167.5 -64t59.5 -178zM544 479q0 133 -120 133q-86 0 -139 -70q-41 -54 -67 -147.5t-26 -180.5q0 -138 123 -138q73 0 124 55
q45 50 75 156t30 192zM623 810q-34 -34 -64.5 -49.5t-72.5 -15.5q-28 0 -61 19t-60 19q-15 0 -29 -6t-22 -11.5t-25 -20.5l-26 62q35 34 63.5 49.5t67.5 15.5q29 0 63 -19.5t63 -19.5q15 0 29 5.5t22.5 11.5t24.5 20z" />
    <glyph glyph-name="Odieresis" unicode="&#xd6;" horiz-adv-x="694" 
d="M672 459q0 -131 -55.5 -251.5t-146.5 -173.5q-79 -46 -175 -46q-115 0 -171.5 66t-56.5 181q0 124 47 229t117 163q88 74 214 74q108 0 167.5 -64t59.5 -178zM544 479q0 133 -120 133q-86 0 -139 -70q-41 -54 -67 -147.5t-26 -180.5q0 -138 123 -138q73 0 124 55
q45 50 75 156t30 192zM414 793q0 -29 -20 -48.5t-48 -19.5t-47.5 20t-19.5 48t20 47.5t48 19.5t47.5 -19.5t19.5 -47.5zM624 793q0 -29 -20 -48.5t-48 -19.5t-47.5 20t-19.5 48t20 47.5t48 19.5t47.5 -19.5t19.5 -47.5z" />
    <glyph glyph-name="multiply" unicode="&#xd7;" horiz-adv-x="563" 
d="M528 424l-171 -141l111 -141l-87 -72l-112 141l-170 -141l-59 74l171 141l-111 141l87 72l112 -141l170 141z" />
    <glyph glyph-name="Oslash" unicode="&#xd8;" horiz-adv-x="693" 
d="M724 725l-93 -113q40 -62 40 -153q0 -130 -55 -249t-147 -177q-71 -45 -175 -45q-86 0 -141 39l-94 -114l-52 41l99 122q-39 59 -39 159q0 123 47 227.5t115 164.5q84 74 215 74q87 0 140 -40l86 105zM515 577q-32 35 -92 35q-86 0 -139 -70q-41 -54 -67.5 -147.5
t-26.5 -180.5q0 -4 3 -31zM544 476q0 18 -2 26l-322 -392q31 -34 94 -34q73 0 124 55q45 50 75 154t31 191z" />
    <glyph glyph-name="Ugrave" unicode="&#xd9;" horiz-adv-x="643" 
d="M659 691l-100 -472q-16 -75 -33 -111t-55 -63q-79 -58 -198 -58q-94 0 -149 39t-55 110q0 38 9 82l101 473h116l-96 -449q-11 -50 -11 -79q0 -77 102 -77q88 0 128 64q17 28 29 86l97 455h115zM512 784l-37 -62l-219 100l56 94z" />
    <glyph glyph-name="Uacute" unicode="&#xda;" horiz-adv-x="643" 
d="M659 691l-100 -472q-16 -75 -33 -111t-55 -63q-79 -58 -198 -58q-94 0 -149 39t-55 110q0 38 9 82l101 473h116l-96 -449q-11 -50 -11 -79q0 -77 102 -77q88 0 128 64q17 28 29 86l97 455h115zM579 822l-233 -101l-34 63l221 131z" />
    <glyph glyph-name="Ucircumflex" unicode="&#xdb;" horiz-adv-x="643" 
d="M659 691l-100 -472q-16 -75 -33 -111t-55 -63q-79 -58 -198 -58q-94 0 -149 39t-55 110q0 38 9 82l101 473h116l-96 -449q-11 -50 -11 -79q0 -77 102 -77q88 0 128 64q17 28 29 86l97 455h115zM604 778l-47 -60l-121 81l-153 -81l-33 60l203 135z" />
    <glyph glyph-name="Udieresis" unicode="&#xdc;" horiz-adv-x="643" 
d="M659 691l-100 -472q-16 -75 -33 -111t-55 -63q-79 -58 -198 -58q-94 0 -149 39t-55 110q0 38 9 82l101 473h116l-96 -449q-11 -50 -11 -79q0 -77 102 -77q88 0 128 64q17 28 29 86l97 455h115zM402 792q0 -28 -20 -48t-48 -20t-47.5 20t-19.5 48t20 47.5t48 19.5
t47.5 -19.5t19.5 -47.5zM612 792q0 -28 -20 -48t-48 -20t-47.5 20t-19.5 48t20 47.5t48 19.5t47.5 -19.5t19.5 -47.5z" />
    <glyph glyph-name="Yacute" unicode="&#xdd;" horiz-adv-x="550" 
d="M651 691l-310 -413l-60 -278h-119l60 280l-131 411h134l59 -221q13 -50 17 -84q5 7 15 22.5l20 31t20 29.5l156 222h139zM523 822l-233 -101l-34 63l221 131z" />
    <glyph glyph-name="Thorn" unicode="&#xde;" horiz-adv-x="564" 
d="M572 422q0 -149 -115 -222q-76 -47 -180 -47h-94l-32 -153h-116l148 691h115l-23 -110h64q117 0 170 -36q63 -43 63 -123zM448 399q0 88 -107 88h-87l-51 -240h90q74 0 107 35q48 50 48 117z" />
    <glyph glyph-name="germandbls" unicode="&#xdf;" horiz-adv-x="597" 
d="M559 582q0 -42 -17.5 -73t-42 -47.5t-49 -28t-42 -20.5t-17.5 -18q0 -12 23.5 -26t51 -27.5t51 -46t23.5 -77.5q0 -95 -74 -163t-184 -68q-49 0 -79 15l38 76q23 -10 45 -10q58 0 97 36t39 94q0 36 -21 60.5t-45.5 35.5t-45.5 32.5t-21 51.5q0 28 15 47t37 31t44 25
t37 36t15 56q0 28 -17 44t-48 16q-47 0 -75 -31t-43 -107l-103 -501q-26 -128 -107 -211l-74 57q54 65 72 157l89 431h-77l16 78h76l4 16q26 102 83 149t158 47q78 0 123 -38t45 -98z" />
    <glyph glyph-name="agrave" unicode="&#xe0;" horiz-adv-x="542" 
d="M511 480q-19 -59 -30 -116l-41 -200q-7 -37 -7 -52q0 -34 25 -62l-90 -67q-38 31 -38 83q-57 -78 -152 -78q-61 0 -96.5 41t-35.5 120q0 83 29 159.5t78 127.5q81 82 201 82q99 0 157 -38zM388 421q-17 10 -47 10q-36 0 -62 -11.5t-54 -44.5q-32 -38 -49 -101.5
t-17 -121.5q0 -41 13.5 -58.5t41.5 -17.5q33 0 67.5 28.5t52.5 68.5zM465 622l-37 -62l-219 100l56 94z" />
    <glyph glyph-name="aacute" unicode="&#xe1;" horiz-adv-x="542" 
d="M511 480q-19 -59 -30 -116l-41 -200q-7 -37 -7 -52q0 -34 25 -62l-90 -67q-38 31 -38 83q-57 -78 -152 -78q-61 0 -96.5 41t-35.5 120q0 83 29 159.5t78 127.5q81 82 201 82q99 0 157 -38zM388 421q-17 10 -47 10q-36 0 -62 -11.5t-54 -44.5q-32 -38 -49 -101.5
t-17 -121.5q0 -41 13.5 -58.5t41.5 -17.5q33 0 67.5 28.5t52.5 68.5zM534 660l-233 -101l-34 63l221 131z" />
    <glyph glyph-name="acircumflex" unicode="&#xe2;" horiz-adv-x="542" 
d="M511 480q-19 -59 -30 -116l-41 -200q-7 -37 -7 -52q0 -34 25 -62l-90 -67q-38 31 -38 83q-57 -78 -152 -78q-61 0 -96.5 41t-35.5 120q0 83 29 159.5t78 127.5q81 82 201 82q99 0 157 -38zM388 421q-17 10 -47 10q-36 0 -62 -11.5t-54 -44.5q-32 -38 -49 -101.5
t-17 -121.5q0 -41 13.5 -58.5t41.5 -17.5q33 0 67.5 28.5t52.5 68.5zM534 616l-47 -60l-121 81l-153 -81l-33 60l203 135z" />
    <glyph glyph-name="atilde" unicode="&#xe3;" horiz-adv-x="542" 
d="M511 480q-19 -59 -30 -116l-41 -200q-7 -37 -7 -52q0 -34 25 -62l-90 -67q-38 31 -38 83q-57 -78 -152 -78q-61 0 -96.5 41t-35.5 120q0 83 29 159.5t78 127.5q81 82 201 82q99 0 157 -38zM388 421q-17 10 -47 10q-36 0 -62 -11.5t-54 -44.5q-32 -38 -49 -101.5
t-17 -121.5q0 -41 13.5 -58.5t41.5 -17.5q33 0 67.5 28.5t52.5 68.5zM531 650q-34 -34 -64.5 -49.5t-72.5 -15.5q-28 0 -61 19t-60 19q-15 0 -29 -6t-22 -11.5t-25 -20.5l-26 62q35 34 63.5 49.5t67.5 15.5q29 0 63 -19.5t63 -19.5q15 0 29 5.5t22.5 11.5t24.5 20z" />
    <glyph glyph-name="adieresis" unicode="&#xe4;" horiz-adv-x="542" 
d="M511 480q-19 -59 -30 -116l-41 -200q-7 -37 -7 -52q0 -34 25 -62l-90 -67q-38 31 -38 83q-57 -78 -152 -78q-61 0 -96.5 41t-35.5 120q0 83 29 159.5t78 127.5q81 82 201 82q99 0 157 -38zM388 421q-17 10 -47 10q-36 0 -62 -11.5t-54 -44.5q-32 -38 -49 -101.5
t-17 -121.5q0 -41 13.5 -58.5t41.5 -17.5q33 0 67.5 28.5t52.5 68.5zM323 629q0 -29 -19.5 -48.5t-48.5 -19.5q-28 0 -47.5 20t-19.5 48t20 47.5t48 19.5t47.5 -19.5t19.5 -47.5zM533 629q0 -29 -19.5 -48.5t-48.5 -19.5q-28 0 -47.5 20t-19.5 48t20 47.5t48 19.5
t47.5 -19.5t19.5 -47.5z" />
    <glyph glyph-name="aring" unicode="&#xe5;" horiz-adv-x="542" 
d="M511 480q-19 -59 -30 -116l-41 -200q-7 -37 -7 -52q0 -34 25 -62l-90 -67q-38 31 -38 83q-57 -78 -152 -78q-61 0 -96.5 41t-35.5 120q0 83 29 159.5t78 127.5q81 82 201 82q99 0 157 -38zM388 421q-17 10 -47 10q-36 0 -62 -11.5t-54 -44.5q-32 -38 -49 -101.5
t-17 -121.5q0 -41 13.5 -58.5t41.5 -17.5q33 0 67.5 28.5t52.5 68.5zM464 659q0 -44 -31 -75t-75 -31t-75 31t-31 75t31 75t75 31t75 -31t31 -75zM408 659q0 21 -14.5 35.5t-35.5 14.5t-35.5 -14.5t-14.5 -35.5t14.5 -35.5t35.5 -14.5t35.5 14.5t14.5 35.5z" />
    <glyph glyph-name="ae" unicode="&#xe6;" horiz-adv-x="786" 
d="M764 382q0 -60 -53 -110q-63 -58 -207 -58q-32 0 -62 3q-6 -30 -6 -52q0 -46 24.5 -69.5t67.5 -23.5q76 0 145 55l32 -68q-87 -72 -205 -72q-98 0 -148 73q-67 -76 -171 -76q-70 0 -107.5 36t-37.5 91q0 86 76 140t207 54q24 0 37 -1l9 35q6 22 6 46q0 43 -58 43
q-74 0 -164 -57l-34 77q123 70 232 70q78 0 114 -56q65 56 146 56q72 0 114.5 -34t42.5 -102zM339 228q-11 1 -32 1q-152 0 -152 -103q0 -28 16 -45t43 -17q52 0 86 42q18 22 39 122zM653 376q0 60 -64 60q-44 0 -78.5 -36t-50.5 -106q2 0 18 -0.5t26 -0.5q91 0 127 33
q22 20 22 50z" />
    <glyph glyph-name="ccedilla" unicode="&#xe7;" horiz-adv-x="450" 
d="M465 467l-60 -74q-37 37 -87 37q-47 0 -82 -41q-27 -33 -48.5 -101.5t-21.5 -126.5q0 -90 75 -90q56 0 115 53l40 -69q-82 -66 -171 -67l-13 -24q53 -8 53 -58q0 -43 -34.5 -73.5t-87.5 -30.5q-43 0 -80 24l35 54q32 -15 54 -15q14 0 25.5 8.5t11.5 21.5q0 19 -26 19
q-16 0 -28 -6l-4 24l30 62q-114 28 -114 167q0 88 37.5 171.5t91.5 128.5q70 59 160 59q77 0 129 -53z" />
    <glyph glyph-name="egrave" unicode="&#xe8;" horiz-adv-x="513" 
d="M491 383q0 -62 -45 -105q-66 -64 -215 -64q-16 0 -37.5 2t-23.5 2q-6 -30 -6 -53q0 -46 24.5 -69.5t67.5 -23.5q73 0 143 55l34 -68q-90 -72 -206 -72q-83 0 -131.5 48.5t-48.5 136.5q0 76 30.5 151.5t82.5 125.5q72 69 171 69q75 0 117.5 -34.5t42.5 -100.5zM380 376
q0 60 -63 60q-44 0 -78.5 -35.5t-50.5 -104.5q2 0 18 -1.5t26 -1.5q94 0 127 33q21 21 21 50zM432 622l-37 -62l-219 100l56 94z" />
    <glyph glyph-name="eacute" unicode="&#xe9;" horiz-adv-x="513" 
d="M491 383q0 -62 -45 -105q-66 -64 -215 -64q-16 0 -37.5 2t-23.5 2q-6 -30 -6 -53q0 -46 24.5 -69.5t67.5 -23.5q73 0 143 55l34 -68q-90 -72 -206 -72q-83 0 -131.5 48.5t-48.5 136.5q0 76 30.5 151.5t82.5 125.5q72 69 171 69q75 0 117.5 -34.5t42.5 -100.5zM380 376
q0 60 -63 60q-44 0 -78.5 -35.5t-50.5 -104.5q2 0 18 -1.5t26 -1.5q94 0 127 33q21 21 21 50zM507 660l-233 -101l-34 63l221 131z" />
    <glyph glyph-name="ecircumflex" unicode="&#xea;" horiz-adv-x="513" 
d="M491 383q0 -62 -45 -105q-66 -64 -215 -64q-16 0 -37.5 2t-23.5 2q-6 -30 -6 -53q0 -46 24.5 -69.5t67.5 -23.5q73 0 143 55l34 -68q-90 -72 -206 -72q-83 0 -131.5 48.5t-48.5 136.5q0 76 30.5 151.5t82.5 125.5q72 69 171 69q75 0 117.5 -34.5t42.5 -100.5zM380 376
q0 60 -63 60q-44 0 -78.5 -35.5t-50.5 -104.5q2 0 18 -1.5t26 -1.5q94 0 127 33q21 21 21 50zM514 616l-47 -60l-121 81l-153 -81l-33 60l203 135z" />
    <glyph glyph-name="edieresis" unicode="&#xeb;" horiz-adv-x="513" 
d="M491 383q0 -62 -45 -105q-66 -64 -215 -64q-16 0 -37.5 2t-23.5 2q-6 -30 -6 -53q0 -46 24.5 -69.5t67.5 -23.5q73 0 143 55l34 -68q-90 -72 -206 -72q-83 0 -131.5 48.5t-48.5 136.5q0 76 30.5 151.5t82.5 125.5q72 69 171 69q75 0 117.5 -34.5t42.5 -100.5zM380 376
q0 60 -63 60q-44 0 -78.5 -35.5t-50.5 -104.5q2 0 18 -1.5t26 -1.5q94 0 127 33q21 21 21 50zM306 629q0 -29 -20 -48.5t-48 -19.5t-47.5 20t-19.5 48t20 47.5t48 19.5t47.5 -19.5t19.5 -47.5zM516 629q0 -29 -20 -48.5t-48 -19.5t-47.5 20t-19.5 48t20 47.5t48 19.5
t47.5 -19.5t19.5 -47.5z" />
    <glyph glyph-name="igrave" unicode="&#xec;" horiz-adv-x="279" 
d="M261 517l-109 -517h-112l106 500zM311 622l-37 -62l-219 100l56 94z" />
    <glyph glyph-name="iacute" unicode="&#xed;" horiz-adv-x="279" 
d="M261 517l-109 -517h-112l106 500zM392 660l-233 -101l-34 63l221 131z" />
    <glyph glyph-name="icircumflex" unicode="&#xee;" horiz-adv-x="279" 
d="M261 517l-109 -517h-112l106 500zM394 616l-47 -60l-121 81l-153 -81l-33 60l203 135z" />
    <glyph glyph-name="idieresis" unicode="&#xef;" horiz-adv-x="279" 
d="M261 517l-109 -517h-112l106 500zM192 629q0 -29 -20 -48.5t-48 -19.5t-47.5 20t-19.5 48t20 47.5t48 19.5t47.5 -19.5t19.5 -47.5zM402 629q0 -29 -20 -48.5t-48 -19.5t-47.5 20t-19.5 48t20 47.5t48 19.5t47.5 -19.5t19.5 -47.5z" />
    <glyph glyph-name="eth" unicode="&#xf0;" horiz-adv-x="520" 
d="M420 647l-45 -41q55 -50 84.5 -124.5t29.5 -154.5q0 -87 -29.5 -162.5t-94.5 -127t-155 -51.5q-89 0 -139 47t-50 136q0 112 72.5 186.5t183.5 74.5q48 0 83 -13q-15 52 -72 109l-37 -35l-64 36l44 40q-61 35 -138 44l84 81q74 -9 140 -46l40 37zM364 318q-43 18 -93 18
q-62 0 -94.5 -45.5t-32.5 -115.5q0 -42 21.5 -65.5t61.5 -23.5q39 0 67.5 23t42.5 60.5t20.5 74t6.5 74.5z" />
    <glyph glyph-name="ntilde" unicode="&#xf1;" horiz-adv-x="555" 
d="M505 417q0 -34 -5 -55l-77 -362h-109l71 335q7 31 7 49q0 40 -40 40q-67 0 -139 -94l-70 -330h-108l74 350q10 44 10 77q0 26 -8 53l102 42q12 -27 12 -63q0 -15 -3 -32q74 90 182 90q47 0 74 -27t27 -73zM526 650q-34 -34 -64.5 -49.5t-72.5 -15.5q-28 0 -61 19t-60 19
q-15 0 -29 -6t-22 -11.5t-25 -20.5l-26 62q35 34 63.5 49.5t67.5 15.5q29 0 63 -19.5t63 -19.5q15 0 29 5.5t22.5 11.5t24.5 20z" />
    <glyph glyph-name="ograve" unicode="&#xf2;" horiz-adv-x="551" 
d="M507 340q0 -146 -78 -249t-212 -103q-84 0 -130 47t-46 134q0 148 81 248.5t206 100.5q86 0 132.5 -47t46.5 -131zM388 344q0 90 -77 90q-47 0 -83 -45.5t-52.5 -107t-16.5 -122.5q0 -88 78 -88q46 0 82 43.5t52.5 104.5t16.5 125zM429 622l-37 -62l-219 100l56 94z" />
    <glyph glyph-name="oacute" unicode="&#xf3;" horiz-adv-x="551" 
d="M507 340q0 -146 -78 -249t-212 -103q-84 0 -130 47t-46 134q0 148 81 248.5t206 100.5q86 0 132.5 -47t46.5 -131zM388 344q0 90 -77 90q-47 0 -83 -45.5t-52.5 -107t-16.5 -122.5q0 -88 78 -88q46 0 82 43.5t52.5 104.5t16.5 125zM506 660l-233 -101l-34 63l221 131z
" />
    <glyph glyph-name="ocircumflex" unicode="&#xf4;" horiz-adv-x="551" 
d="M507 340q0 -146 -78 -249t-212 -103q-84 0 -130 47t-46 134q0 148 81 248.5t206 100.5q86 0 132.5 -47t46.5 -131zM388 344q0 90 -77 90q-47 0 -83 -45.5t-52.5 -107t-16.5 -122.5q0 -88 78 -88q46 0 82 43.5t52.5 104.5t16.5 125zM516 616l-47 -60l-121 81l-153 -81
l-33 60l203 135z" />
    <glyph glyph-name="otilde" unicode="&#xf5;" horiz-adv-x="551" 
d="M507 340q0 -146 -78 -249t-212 -103q-84 0 -130 47t-46 134q0 148 81 248.5t206 100.5q86 0 132.5 -47t46.5 -131zM388 344q0 90 -77 90q-47 0 -83 -45.5t-52.5 -107t-16.5 -122.5q0 -88 78 -88q46 0 82 43.5t52.5 104.5t16.5 125zM520 650q-34 -34 -64.5 -49.5
t-72.5 -15.5q-28 0 -61 19t-60 19q-15 0 -29 -6t-22 -11.5t-25 -20.5l-26 62q35 34 63.5 49.5t67.5 15.5q29 0 63 -19.5t63 -19.5q15 0 29 5.5t22.5 11.5t24.5 20z" />
    <glyph glyph-name="odieresis" unicode="&#xf6;" horiz-adv-x="551" 
d="M507 340q0 -146 -78 -249t-212 -103q-84 0 -130 47t-46 134q0 148 81 248.5t206 100.5q86 0 132.5 -47t46.5 -131zM388 344q0 90 -77 90q-47 0 -83 -45.5t-52.5 -107t-16.5 -122.5q0 -88 78 -88q46 0 82 43.5t52.5 104.5t16.5 125zM309 629q0 -29 -19.5 -48.5
t-48.5 -19.5q-28 0 -47.5 20t-19.5 48t20 47.5t48 19.5t47.5 -19.5t19.5 -47.5zM519 629q0 -29 -19.5 -48.5t-48.5 -19.5q-28 0 -47.5 20t-19.5 48t20 47.5t48 19.5t47.5 -19.5t19.5 -47.5z" />
    <glyph glyph-name="divide" unicode="&#xf7;" horiz-adv-x="601" 
d="M570 313l-20 -93h-505l20 93h505zM338 63q0 -32 -23 -54.5t-55 -22.5t-54 22.5t-22 54.5q0 33 22.5 56.5t55.5 23.5q31 0 53.5 -23.5t22.5 -56.5zM426 472q0 -33 -23 -55.5t-55 -22.5t-54 22t-22 54q0 33 22.5 56t54.5 24q32 0 54.5 -23t22.5 -55z" />
    <glyph glyph-name="oslash" unicode="&#xf8;" horiz-adv-x="551" 
d="M554 547l-78 -96q31 -45 31 -112q0 -147 -78 -250t-212 -103q-60 0 -101 26l-73 -90l-46 37l76 92q-32 48 -32 118q0 148 81 247.5t206 99.5q62 0 104 -25l75 93zM367 412q-20 21 -56 21q-47 0 -83 -43.5t-52 -99t-16 -108.5v-26zM388 326q0 11 -1 16q-19 -24 -113 -138
t-95 -114q20 -21 58 -21q66 0 106.5 78t44.5 179z" />
    <glyph glyph-name="ugrave" unicode="&#xf9;" horiz-adv-x="554" 
d="M527 516l-80 -374q-6 -28 -6 -50q0 -36 18 -63l-92 -48q-30 35 -30 83v4q-77 -83 -166 -83q-55 0 -85.5 26.5t-30.5 76.5q0 34 9 77l70 332l113 21l-70 -332q-10 -43 -10 -67q0 -48 40 -48q33 0 73.5 28.5t65.5 70.5l70 325zM461 622l-37 -62l-219 100l56 94z" />
    <glyph glyph-name="uacute" unicode="&#xfa;" horiz-adv-x="554" 
d="M527 516l-80 -374q-6 -28 -6 -50q0 -36 18 -63l-92 -48q-30 35 -30 83v4q-77 -83 -166 -83q-55 0 -85.5 26.5t-30.5 76.5q0 34 9 77l70 332l113 21l-70 -332q-10 -43 -10 -67q0 -48 40 -48q33 0 73.5 28.5t65.5 70.5l70 325zM505 660l-233 -101l-34 63l221 131z" />
    <glyph glyph-name="ucircumflex" unicode="&#xfb;" horiz-adv-x="554" 
d="M527 516l-80 -374q-6 -28 -6 -50q0 -36 18 -63l-92 -48q-30 35 -30 83v4q-77 -83 -166 -83q-55 0 -85.5 26.5t-30.5 76.5q0 34 9 77l70 332l113 21l-70 -332q-10 -43 -10 -67q0 -48 40 -48q33 0 73.5 28.5t65.5 70.5l70 325zM519 616l-47 -60l-121 81l-153 -81l-33 60
l203 135z" />
    <glyph glyph-name="udieresis" unicode="&#xfc;" horiz-adv-x="554" 
d="M527 516l-80 -374q-6 -28 -6 -50q0 -36 18 -63l-92 -48q-30 35 -30 83v4q-77 -83 -166 -83q-55 0 -85.5 26.5t-30.5 76.5q0 34 9 77l70 332l113 21l-70 -332q-10 -43 -10 -67q0 -48 40 -48q33 0 73.5 28.5t65.5 70.5l70 325zM316 629q0 -29 -20 -48.5t-48 -19.5t-47.5 20
t-19.5 48t20 47.5t48 19.5t47.5 -19.5t19.5 -47.5zM526 629q0 -29 -20 -48.5t-48 -19.5t-47.5 20t-19.5 48t20 47.5t48 19.5t47.5 -19.5t19.5 -47.5z" />
    <glyph glyph-name="yacute" unicode="&#xfd;" horiz-adv-x="493" 
d="M544 506l-267 -477q-50 -89 -80 -132.5t-63 -66.5q-50 -35 -118 -46l-23 74q45 8 89 38q24 17 40.5 39.5t37.5 64.5l-35 -2q0 67 -12 159l-44 342l114 16l28 -307q4 -51 4 -114h1q16 42 62 132l146 280h120zM448 660l-233 -101l-34 63l221 131z" />
    <glyph glyph-name="thorn" unicode="&#xfe;" horiz-adv-x="567" 
d="M527 346q0 -91 -36.5 -171.5t-98.5 -132.5q-67 -55 -153 -55q-44 0 -97 12l-40 -188l-112 -26l163 772q13 65 13 103q0 24 -5 44l114 38q6 -21 6 -52q0 -40 -12 -100l-16 -75q-10 -48 -21 -79q27 36 70 59t89 23q136 0 136 -172zM407 347q0 79 -58 79q-68 0 -134 -94
l-50 -234q28 -26 84 -26q39 0 70.5 29t50 73t28 89.5t9.5 83.5z" />
    <glyph glyph-name="ydieresis" unicode="&#xff;" horiz-adv-x="493" 
d="M544 506l-267 -477q-50 -89 -80 -132.5t-63 -66.5q-50 -35 -118 -46l-23 74q45 8 89 38q24 17 40.5 39.5t37.5 64.5l-35 -2q0 67 -12 159l-44 342l114 16l28 -307q4 -51 4 -114h1q16 42 62 132l146 280h120zM271 629q0 -29 -19.5 -48.5t-48.5 -19.5q-28 0 -47.5 20
t-19.5 48t20 47.5t48 19.5t47.5 -19.5t19.5 -47.5zM481 629q0 -29 -19.5 -48.5t-48.5 -19.5q-28 0 -47.5 20t-19.5 48t20 47.5t48 19.5t47.5 -19.5t19.5 -47.5z" />
    <glyph glyph-name="Amacron" unicode="&#x100;" horiz-adv-x="583" 
d="M533 0h-121l-16 185h-227l-96 -185h-123l376 692h132zM387 280l-13 160q-9 96 -9 134q-1 -1 -9.5 -19.5t-21.5 -46t-22 -45.5l-94 -183h169zM552 828l-16 -76h-297l16 76h297z" />
    <glyph glyph-name="amacron" unicode="&#x101;" horiz-adv-x="542" 
d="M511 480q-19 -59 -30 -116l-41 -200q-7 -37 -7 -52q0 -34 25 -62l-90 -67q-38 31 -38 83q-57 -78 -152 -78q-61 0 -96.5 41t-35.5 120q0 83 29 159.5t78 127.5q81 82 201 82q99 0 157 -38zM388 421q-17 10 -47 10q-36 0 -62 -11.5t-54 -44.5q-32 -38 -49 -101.5
t-17 -121.5q0 -41 13.5 -58.5t41.5 -17.5q33 0 67.5 28.5t52.5 68.5zM513 666l-16 -76h-297l16 76h297z" />
    <glyph glyph-name="Abreve" unicode="&#x102;" horiz-adv-x="583" 
d="M533 0h-121l-16 185h-227l-96 -185h-123l376 692h132zM387 280l-13 160q-9 96 -9 134q-1 -1 -9.5 -19.5t-21.5 -46t-22 -45.5l-94 -183h169zM589 815q-15 -16 -41.5 -40t-73.5 -51t-83 -27q-28 0 -55.5 15t-47 37.5t-31 38.5t-17.5 27l47 45q10 -13 25 -26t44 -27t59 -14
q55 0 153 67z" />
    <glyph glyph-name="abreve" unicode="&#x103;" horiz-adv-x="542" 
d="M511 480q-19 -59 -30 -116l-41 -200q-7 -37 -7 -52q0 -34 25 -62l-90 -67q-38 31 -38 83q-57 -78 -152 -78q-61 0 -96.5 41t-35.5 120q0 83 29 159.5t78 127.5q81 82 201 82q99 0 157 -38zM388 421q-17 10 -47 10q-36 0 -62 -11.5t-54 -44.5q-32 -38 -49 -101.5
t-17 -121.5q0 -41 13.5 -58.5t41.5 -17.5q33 0 67.5 28.5t52.5 68.5zM555 649q-28 -32 -88 -75t-111 -43q-28 0 -55.5 15t-47 37.5t-31 38.5t-17.5 27l48 45q10 -13 25 -26t44 -27t59 -14q54 0 152 67z" />
    <glyph glyph-name="Aogonek" unicode="&#x104;" horiz-adv-x="583" 
d="M533 0h-2q-30 0 -67.5 -34t-37.5 -68q0 -26 26 -26q27 0 60 15l13 -59q-62 -26 -105 -26q-40 0 -61.5 19.5t-21.5 50.5q0 8 1 12q8 64 74 116l-16 185h-227l-96 -185h-123l376 692h132zM387 280l-13 160q-9 96 -9 134q-1 -1 -9.5 -19.5t-21.5 -46t-22 -45.5l-94 -183h169
z" />
    <glyph glyph-name="aogonek" unicode="&#x105;" horiz-adv-x="542" 
d="M511 480q-19 -59 -30 -116l-44 -215q-6 -29 -6 -49q0 -38 24 -65l-15 -9q-37 -23 -74.5 -60t-37.5 -68q0 -26 27 -26q26 0 59 15l13 -59q-62 -26 -105 -26q-40 0 -61.5 18.5t-21.5 49.5q0 78 101 147q-10 21 -10 49q-57 -78 -152 -78q-61 0 -96.5 41t-35.5 120
q0 83 29 159.5t78 127.5q81 82 201 82q99 0 157 -38zM388 421q-17 10 -47 10q-36 0 -62 -11.5t-54 -44.5q-32 -38 -49 -101.5t-17 -121.5q0 -41 13.5 -58.5t41.5 -17.5q33 0 67.5 28.5t52.5 68.5z" />
    <glyph glyph-name="Cacute" unicode="&#x106;" horiz-adv-x="566" 
d="M618 648l-66 -75q-43 39 -112 39q-91 0 -158 -86q-40 -52 -65 -139.5t-25 -156.5q0 -74 36 -112.5t104 -38.5q62 0 135 47l41 -76q-94 -62 -207 -62q-110 0 -172 65.5t-62 180.5q0 85 30.5 176t82.5 156q52 66 125.5 101.5t151.5 35.5q106 0 161 -55zM624 825l-233 -101
l-34 63l221 131z" />
    <glyph glyph-name="cacute" unicode="&#x107;" horiz-adv-x="450" 
d="M465 467l-60 -74q-37 37 -87 37q-47 0 -82 -41q-27 -33 -48.5 -101.5t-21.5 -126.5q0 -90 75 -90q56 0 115 53l40 -69q-83 -67 -179 -67q-84 0 -127 45t-43 128q0 88 37.5 171.5t91.5 128.5q70 59 160 59q77 0 129 -53zM512 660l-233 -101l-34 63l221 131z" />
    <glyph glyph-name="Ccircumflex" unicode="&#x108;" horiz-adv-x="566" 
d="M618 648l-66 -75q-43 39 -112 39q-91 0 -158 -86q-40 -52 -65 -139.5t-25 -156.5q0 -74 36 -112.5t104 -38.5q62 0 135 47l41 -76q-94 -62 -207 -62q-110 0 -172 65.5t-62 180.5q0 85 30.5 176t82.5 156q52 66 125.5 101.5t151.5 35.5q106 0 161 -55zM647 778l-47 -60
l-121 81l-153 -81l-33 60l203 135z" />
    <glyph glyph-name="ccircumflex" unicode="&#x109;" horiz-adv-x="450" 
d="M465 467l-60 -74q-37 37 -87 37q-47 0 -82 -41q-27 -33 -48.5 -101.5t-21.5 -126.5q0 -90 75 -90q56 0 115 53l40 -69q-83 -67 -179 -67q-84 0 -127 45t-43 128q0 88 37.5 171.5t91.5 128.5q70 59 160 59q77 0 129 -53zM524 616l-47 -60l-121 81l-153 -81l-33 60l203 135
z" />
    <glyph glyph-name="Cdotaccent" unicode="&#x10a;" horiz-adv-x="566" 
d="M618 648l-66 -75q-43 39 -112 39q-91 0 -158 -86q-40 -52 -65 -139.5t-25 -156.5q0 -74 36 -112.5t104 -38.5q62 0 135 47l41 -76q-94 -62 -207 -62q-110 0 -172 65.5t-62 180.5q0 85 30.5 176t82.5 156q52 66 125.5 101.5t151.5 35.5q106 0 161 -55zM553 799
q0 -31 -21 -52.5t-52 -21.5q-30 0 -51.5 21.5t-21.5 51.5q0 31 21.5 52.5t52.5 21.5q30 0 51 -21.5t21 -51.5z" />
    <glyph glyph-name="cdotaccent" unicode="&#x10b;" horiz-adv-x="450" 
d="M465 467l-60 -74q-37 37 -87 37q-47 0 -82 -41q-27 -33 -48.5 -101.5t-21.5 -126.5q0 -90 75 -90q56 0 115 53l40 -69q-83 -67 -179 -67q-84 0 -127 45t-43 128q0 88 37.5 171.5t91.5 128.5q70 59 160 59q77 0 129 -53zM444 653q0 -31 -21 -52.5t-52 -21.5
q-30 0 -51.5 21.5t-21.5 51.5q0 31 21.5 52.5t52.5 21.5q30 0 51 -21.5t21 -51.5z" />
    <glyph glyph-name="Ccaron" unicode="&#x10c;" horiz-adv-x="566" 
d="M618 648l-66 -75q-43 39 -112 39q-91 0 -158 -86q-40 -52 -65 -139.5t-25 -156.5q0 -74 36 -112.5t104 -38.5q62 0 135 47l41 -76q-94 -62 -207 -62q-110 0 -172 65.5t-62 180.5q0 85 30.5 176t82.5 156q52 66 125.5 101.5t151.5 35.5q106 0 161 -55zM668 859l-203 -135
l-151 135l47 60l121 -80l153 80z" />
    <glyph glyph-name="ccaron" unicode="&#x10d;" horiz-adv-x="450" 
d="M465 467l-60 -74q-37 37 -87 37q-47 0 -82 -41q-27 -33 -48.5 -101.5t-21.5 -126.5q0 -90 75 -90q56 0 115 53l40 -69q-83 -67 -179 -67q-84 0 -127 45t-43 128q0 88 37.5 171.5t91.5 128.5q70 59 160 59q77 0 129 -53zM534 695l-203 -135l-151 135l47 60l121 -80l153 80
z" />
    <glyph glyph-name="Dcaron" unicode="&#x10e;" horiz-adv-x="635" 
d="M613 447q0 -90 -37 -191.5t-97 -160.5q-53 -52 -113 -73.5t-157 -21.5h-174l148 691h154q87 0 135.5 -12.5t81.5 -48.5q59 -64 59 -183zM489 444q0 71 -22 106q-32 50 -116 50h-72l-107 -506h71q107 0 159 72q43 61 65 143t22 135zM584 859l-203 -135l-151 135l47 60
l121 -80l153 80z" />
    <glyph glyph-name="dcaron" unicode="&#x10f;" horiz-adv-x="560" 
d="M578 718l-115 -542q-16 -79 -16 -114q0 -30 11 -49l-94 -22q-19 22 -19 63v10q-60 -74 -149 -74q-149 0 -149 174q0 77 29.5 152t81.5 127q73 71 169 71q67 0 97 -16q0 13 13 68l36 170zM402 405q-30 20 -79 20q-55 0 -92 -46q-30 -36 -49.5 -99.5t-19.5 -117.5
q0 -84 61 -84q32 0 68.5 25.5t59.5 64.5zM758 666q0 -59 -57 -109q-38 -32 -87 -48l-26 41q59 23 68 61l-3 2q-1 1 -4.5 3t-5 3t-4.5 3.5t-4.5 4l-4.5 4.5t-4 5.5t-3 6t-3 7.5t-1.5 8.5t-0.5 9.5q0 29 20 48.5t53 19.5q30 0 48.5 -20t18.5 -50z" />
    <glyph glyph-name="Dcroat" unicode="&#x110;" horiz-adv-x="635" 
d="M613 447q0 -90 -37 -191.5t-97 -160.5q-53 -52 -113 -73.5t-157 -21.5h-174l67 311h-80l17 79h80l64 301h154q87 0 135.5 -12.5t81.5 -48.5q59 -64 59 -183zM489 444q0 71 -22 106q-32 50 -116 50h-72l-44 -210h129l-26 -79h-120l-46 -217h71q107 0 159 72q43 61 65 143
t22 135z" />
    <glyph glyph-name="dcroat" unicode="&#x111;" horiz-adv-x="560" 
d="M630 649l-14 -68h-67l-86 -405q-16 -79 -16 -114q0 -30 11 -49l-94 -22q-19 22 -19 63v10q-60 -74 -149 -74q-149 0 -149 174q0 77 29.5 152t81.5 127q73 71 169 71q67 0 97 -16q0 2 2.5 15t6 30t4.5 23l3 15h-121l14 68h121l19 87l105 -18l-15 -69h67zM402 405
q-30 20 -79 20q-55 0 -92 -46q-30 -36 -49.5 -99.5t-19.5 -117.5q0 -84 61 -84q32 0 68.5 25.5t59.5 64.5z" />
    <glyph glyph-name="Emacron" unicode="&#x112;" horiz-adv-x="505" 
d="M569 691l-35 -94h-256l-39 -189h213l-20 -95h-213l-45 -214h279l-21 -99h-397l148 691h386zM547 828l-16 -76h-297l16 76h297z" />
    <glyph glyph-name="emacron" unicode="&#x113;" horiz-adv-x="513" 
d="M491 383q0 -62 -45 -105q-66 -64 -215 -64q-16 0 -37.5 2t-23.5 2q-6 -30 -6 -53q0 -46 24.5 -69.5t67.5 -23.5q73 0 143 55l34 -68q-90 -72 -206 -72q-83 0 -131.5 48.5t-48.5 136.5q0 76 30.5 151.5t82.5 125.5q72 69 171 69q75 0 117.5 -34.5t42.5 -100.5zM380 376
q0 60 -63 60q-44 0 -78.5 -35.5t-50.5 -104.5q2 0 18 -1.5t26 -1.5q94 0 127 33q21 21 21 50zM498 666l-16 -76h-297l16 76h297z" />
    <glyph glyph-name="Ebreve" unicode="&#x114;" horiz-adv-x="505" 
d="M569 691l-35 -94h-256l-39 -189h213l-20 -95h-213l-45 -214h279l-21 -99h-397l148 691h386zM547 866q-15 -16 -41.5 -40t-73.5 -51t-83 -27q-28 0 -55.5 15t-47 37.5t-31 38.5t-17.5 27l47 45q10 -13 25 -26t44 -27t59 -14q55 0 153 67z" />
    <glyph glyph-name="ebreve" unicode="&#x115;" horiz-adv-x="513" 
d="M491 383q0 -62 -45 -105q-66 -64 -215 -64q-16 0 -37.5 2t-23.5 2q-6 -30 -6 -53q0 -46 24.5 -69.5t67.5 -23.5q73 0 143 55l34 -68q-90 -72 -206 -72q-83 0 -131.5 48.5t-48.5 136.5q0 76 30.5 151.5t82.5 125.5q72 69 171 69q75 0 117.5 -34.5t42.5 -100.5zM380 376
q0 60 -63 60q-44 0 -78.5 -35.5t-50.5 -104.5q2 0 18 -1.5t26 -1.5q94 0 127 33q21 21 21 50zM493 671q-28 -32 -88 -75t-111 -43q-28 0 -55.5 15t-47 37.5t-31 38.5t-17.5 27l48 45q10 -13 25 -26t44 -27t59 -14q54 0 152 67z" />
    <glyph glyph-name="Edotaccent" unicode="&#x116;" horiz-adv-x="505" 
d="M569 691l-35 -94h-256l-39 -189h213l-20 -95h-213l-45 -214h279l-21 -99h-397l148 691h386zM453 805q0 -31 -21 -52.5t-52 -21.5q-30 0 -51.5 21.5t-21.5 51.5q0 31 21.5 52.5t52.5 21.5q30 0 51 -21.5t21 -51.5z" />
    <glyph glyph-name="edotaccent" unicode="&#x117;" horiz-adv-x="513" 
d="M491 383q0 -62 -45 -105q-66 -64 -215 -64q-16 0 -37.5 2t-23.5 2q-6 -30 -6 -53q0 -46 24.5 -69.5t67.5 -23.5q73 0 143 55l34 -68q-90 -72 -206 -72q-83 0 -131.5 48.5t-48.5 136.5q0 76 30.5 151.5t82.5 125.5q72 69 171 69q75 0 117.5 -34.5t42.5 -100.5zM380 376
q0 60 -63 60q-44 0 -78.5 -35.5t-50.5 -104.5q2 0 18 -1.5t26 -1.5q94 0 127 33q21 21 21 50zM421 653q0 -31 -21 -52.5t-52 -21.5q-30 0 -51.5 21.5t-21.5 51.5q0 31 21.5 52.5t52.5 21.5q30 0 51 -21.5t21 -51.5z" />
    <glyph glyph-name="Eogonek" unicode="&#x118;" horiz-adv-x="505" 
d="M569 691l-35 -94h-256l-39 -189h213l-20 -95h-213l-45 -214h279l-21 -99q-30 0 -67.5 -34.5t-37.5 -66.5q0 -27 26 -27q27 0 60 15l13 -59q-62 -26 -105 -26q-40 0 -61.5 19.5t-21.5 50.5q0 67 75 128h-278l148 691h386z" />
    <glyph glyph-name="eogonek" unicode="&#x119;" horiz-adv-x="513" 
d="M491 383q0 -62 -45 -105q-66 -64 -215 -64q-16 0 -37.5 2t-23.5 2q-6 -30 -6 -53q0 -46 24.5 -69.5t67.5 -23.5q73 0 143 55l34 -69l-17 -11q-30 -19 -48 -32t-44 -34.5t-39 -43t-13 -41.5q0 -24 26 -24q27 0 60 15l13 -59q-62 -26 -105 -26q-40 0 -61.5 18.5t-21.5 49.5
q0 61 63 117h-19q-83 0 -131.5 48.5t-48.5 136.5q0 76 30.5 151.5t82.5 125.5q72 69 171 69q75 0 117.5 -34.5t42.5 -100.5zM380 376q0 60 -63 60q-44 0 -78.5 -35.5t-50.5 -104.5q2 0 18 -1.5t26 -1.5q94 0 127 33q21 21 21 50z" />
    <glyph glyph-name="Ecaron" unicode="&#x11a;" horiz-adv-x="505" 
d="M569 691l-35 -94h-256l-39 -189h213l-20 -95h-213l-45 -214h279l-21 -99h-397l148 691h386zM579 859l-203 -135l-151 135l47 60l121 -80l153 80z" />
    <glyph glyph-name="ecaron" unicode="&#x11b;" horiz-adv-x="513" 
d="M491 383q0 -62 -45 -105q-66 -64 -215 -64q-16 0 -37.5 2t-23.5 2q-6 -30 -6 -53q0 -46 24.5 -69.5t67.5 -23.5q73 0 143 55l34 -68q-90 -72 -206 -72q-83 0 -131.5 48.5t-48.5 136.5q0 76 30.5 151.5t82.5 125.5q72 69 171 69q75 0 117.5 -34.5t42.5 -100.5zM380 376
q0 60 -63 60q-44 0 -78.5 -35.5t-50.5 -104.5q2 0 18 -1.5t26 -1.5q94 0 127 33q21 21 21 50zM533 695l-203 -135l-151 135l47 60l121 -80l153 80z" />
    <glyph glyph-name="Gcircumflex" unicode="&#x11c;" horiz-adv-x="659" 
d="M647 627l-69 -70q-55 50 -138 50q-78 0 -136 -55q-50 -48 -81 -147t-31 -177q0 -74 38 -111.5t106 -37.5q57 0 96 21l39 180h-119v94h254l-70 -329q-103 -55 -227 -55q-114 0 -178 66.5t-64 175.5q0 110 42 212.5t111 163.5q103 92 237 92q120 0 190 -73zM653 778
l-47 -60l-121 81l-153 -81l-33 60l203 135z" />
    <glyph glyph-name="gcircumflex" unicode="&#x11d;" horiz-adv-x="565" 
d="M536 480q-13 -38 -23 -85l-53 -247q-9 -42 -19 -98.5t-14 -73.5q-42 -188 -266 -188q-97 0 -177 45l38 78q63 -38 148 -38q63 0 98 24.5t49 78.5q1 4 8.5 36.5t9.5 37.5q-55 -61 -139 -61q-149 0 -149 172q0 80 30.5 159t82.5 125q82 74 189 74q110 0 187 -39zM408 415
q-22 14 -68 14q-63 0 -104 -47q-31 -35 -52 -100t-21 -118q0 -88 66 -88q34 0 68 24.5t57 65.5zM553 616l-47 -60l-121 81l-153 -81l-33 60l203 135z" />
    <glyph glyph-name="Gbreve" unicode="&#x11e;" horiz-adv-x="659" 
d="M647 627l-69 -70q-55 50 -138 50q-78 0 -136 -55q-50 -48 -81 -147t-31 -177q0 -74 38 -111.5t106 -37.5q57 0 96 21l39 180h-119v94h254l-70 -329q-103 -55 -227 -55q-114 0 -178 66.5t-64 175.5q0 110 42 212.5t111 163.5q103 92 237 92q120 0 190 -73zM653 866
q-15 -16 -41.5 -40t-73.5 -51t-83 -27q-28 0 -55.5 15t-47 37.5t-31 38.5t-17.5 27l47 45q10 -13 25 -26t44 -27t59 -14q55 0 153 67z" />
    <glyph glyph-name="gbreve" unicode="&#x11f;" horiz-adv-x="565" 
d="M536 480q-13 -38 -23 -85l-53 -247q-9 -42 -19 -98.5t-14 -73.5q-42 -188 -266 -188q-97 0 -177 45l38 78q63 -38 148 -38q63 0 98 24.5t49 78.5q1 4 8.5 36.5t9.5 37.5q-55 -61 -139 -61q-149 0 -149 172q0 80 30.5 159t82.5 125q82 74 189 74q110 0 187 -39zM408 415
q-22 14 -68 14q-63 0 -104 -47q-31 -35 -52 -100t-21 -118q0 -88 66 -88q34 0 68 24.5t57 65.5zM564 671q-28 -32 -88 -75t-111 -43q-28 0 -55.5 15t-47 37.5t-31 38.5t-17.5 27l48 45q10 -13 25 -26t44 -27t59 -14q54 0 152 67z" />
    <glyph glyph-name="Gdotaccent" unicode="&#x120;" horiz-adv-x="659" 
d="M647 627l-69 -70q-55 50 -138 50q-78 0 -136 -55q-50 -48 -81 -147t-31 -177q0 -74 38 -111.5t106 -37.5q57 0 96 21l39 180h-119v94h254l-70 -329q-103 -55 -227 -55q-114 0 -178 66.5t-64 175.5q0 110 42 212.5t111 163.5q103 92 237 92q120 0 190 -73zM551 799
q0 -31 -21 -52.5t-52 -21.5q-30 0 -51.5 21.5t-21.5 51.5q0 31 21.5 52.5t52.5 21.5q30 0 51 -21.5t21 -51.5z" />
    <glyph glyph-name="gdotaccent" unicode="&#x121;" horiz-adv-x="565" 
d="M536 480q-13 -38 -23 -85l-53 -247q-9 -42 -19 -98.5t-14 -73.5q-42 -188 -266 -188q-97 0 -177 45l38 78q63 -38 148 -38q63 0 98 24.5t49 78.5q1 4 8.5 36.5t9.5 37.5q-55 -61 -139 -61q-149 0 -149 172q0 80 30.5 159t82.5 125q82 74 189 74q110 0 187 -39zM408 415
q-22 14 -68 14q-63 0 -104 -47q-31 -35 -52 -100t-21 -118q0 -88 66 -88q34 0 68 24.5t57 65.5zM475 653q0 -31 -21 -52.5t-52 -21.5q-30 0 -51.5 21.5t-21.5 51.5q0 31 21.5 52.5t52.5 21.5q30 0 51 -21.5t21 -51.5z" />
    <glyph glyph-name="Gcommaaccent" unicode="&#x122;" horiz-adv-x="659" 
d="M647 627l-69 -70q-55 50 -138 50q-78 0 -136 -55q-50 -48 -81 -147t-31 -177q0 -74 38 -111.5t106 -37.5q57 0 96 21l39 180h-119v94h254l-70 -329q-103 -55 -227 -55q-114 0 -178 66.5t-64 175.5q0 110 42 212.5t111 163.5q103 92 237 92q120 0 190 -73zM369 -120
q0 -59 -56 -109q-37 -32 -88 -48l-26 41q59 23 68 61q-20 12 -29 23.5t-9 33.5q0 29 20 48t54 19q30 0 48 -19.5t18 -49.5z" />
    <glyph glyph-name="gcommaaccent" unicode="&#x123;" horiz-adv-x="565" 
d="M536 480q-13 -38 -23 -85l-53 -247q-9 -42 -19 -98.5t-14 -73.5q-42 -188 -266 -188q-97 0 -177 45l38 78q63 -38 148 -38q63 0 98 24.5t49 78.5q1 4 8.5 36.5t9.5 37.5q-55 -61 -139 -61q-149 0 -149 172q0 80 30.5 159t82.5 125q82 74 189 74q110 0 187 -39zM408 415
q-22 14 -68 14q-63 0 -104 -47q-31 -35 -52 -100t-21 -118q0 -88 66 -88q34 0 68 24.5t57 65.5zM300 637q0 59 56 109q37 32 88 48l26 -41q-59 -23 -68 -61q20 -12 29 -23.5t9 -33.5q0 -29 -20 -48t-54 -19q-30 0 -48 19.5t-18 49.5z" />
    <glyph glyph-name="Hcircumflex" unicode="&#x124;" horiz-adv-x="640" 
d="M651 691l-148 -691h-115l68 320h-239l-68 -320h-114l148 691h113l-59 -277h238l60 277h116zM597 778l-47 -60l-121 81l-153 -81l-33 60l203 135z" />
    <glyph glyph-name="hcircumflex" unicode="&#x125;" horiz-adv-x="573" 
d="M523 420q0 -26 -8 -62l-76 -358h-108l72 341q6 32 6 42q-1 43 -47 43q-31 0 -73.5 -27.5t-74.5 -68.5l-70 -330h-109l118 556q14 68 14 104q0 22 -5 44l112 38q6 -18 6 -49q0 -54 -14 -116l-15 -70q-11 -48 -20 -76q35 42 83.5 65t95.5 23q54 0 83.5 -27t29.5 -72z
M439 800l-47 -60l-121 81l-153 -81l-33 60l203 135z" />
    <glyph glyph-name="Hbar" unicode="&#x126;" horiz-adv-x="640" 
d="M651 691l-23 -107h77l-14 -90h-82l-106 -494h-115l68 320h-239l-68 -320h-114l106 494h-81l14 90h86l23 107h113l-23 -107h239l23 107h116zM237 414h238l17 80h-238z" />
    <glyph glyph-name="hbar" unicode="&#x127;" horiz-adv-x="574" 
d="M523 420q0 -26 -8 -62l-76 -358h-108l72 341q6 32 6 42q-1 43 -47 43q-31 0 -73.5 -27.5t-74.5 -68.5l-70 -330h-109l118 556l5 25h-53l14 68h48v11q0 22 -5 44l112 38q6 -18 6 -49q0 -21 -3 -44h176l-14 -68h-172q-1 -2 -1 -4l-15 -70q-11 -48 -20 -76q35 42 83.5 65
t95.5 23q54 0 83.5 -27t29.5 -72z" />
    <glyph glyph-name="Itilde" unicode="&#x128;" horiz-adv-x="288" 
d="M299 691l-147 -691h-117l148 691h116zM441 810q-34 -34 -64.5 -49.5t-72.5 -15.5q-28 0 -61 19t-60 19q-15 0 -29 -6t-22 -11.5t-25 -20.5l-26 62q35 34 63.5 49.5t67.5 15.5q29 0 63 -19.5t63 -19.5q15 0 29 5.5t22.5 11.5t24.5 20z" />
    <glyph glyph-name="itilde" unicode="&#x129;" horiz-adv-x="279" 
d="M256 517l-109 -517h-112l106 500zM396 650q-34 -34 -64.5 -49.5t-72.5 -15.5q-28 0 -61 19t-60 19q-15 0 -29 -6t-22 -11.5t-25 -20.5l-26 62q35 34 63.5 49.5t67.5 15.5q29 0 63 -19.5t63 -19.5q15 0 29 5.5t22.5 11.5t24.5 20z" />
    <glyph glyph-name="Imacron" unicode="&#x12a;" horiz-adv-x="288" 
d="M299 691l-147 -691h-117l148 691h116zM412 828l-16 -76h-297l16 76h297z" />
    <glyph glyph-name="imacron" unicode="&#x12b;" horiz-adv-x="279" 
d="M371 666l-16 -76h-277l16 76h277zM256 517l-109 -517h-112l106 500z" />
    <glyph glyph-name="Ibreve" unicode="&#x12c;" horiz-adv-x="288" 
d="M299 691l-147 -691h-117l148 691h116zM442 866q-15 -16 -41.5 -40t-73.5 -51t-83 -27q-28 0 -55.5 15t-47 37.5t-31 38.5t-17.5 27l47 45q10 -13 25 -26t44 -27t59 -14q55 0 153 67z" />
    <glyph glyph-name="ibreve" unicode="&#x12d;" horiz-adv-x="279" 
d="M256 517l-109 -517h-112l106 500zM417 671q-28 -32 -88 -75t-111 -43q-28 0 -55.5 15t-47 37.5t-31 38.5t-17.5 27l48 45q10 -13 25 -26t44 -27t59 -14q54 0 152 67z" />
    <glyph glyph-name="Iogonek" unicode="&#x12e;" horiz-adv-x="288" 
d="M299 691l-147 -691h-5q-25 0 -61.5 -35t-36.5 -67q0 -26 26 -26q27 0 60 15l13 -59q-62 -26 -105 -26q-40 0 -61.5 19.5t-21.5 50.5q0 69 75 128l148 691h116z" />
    <glyph glyph-name="iogonek" unicode="&#x12f;" horiz-adv-x="279" 
d="M256 517l-109 -517q-24 0 -61 -34.5t-37 -67.5q0 -26 26 -26q27 0 60 15l13 -59q-62 -26 -105 -26q-40 0 -61.5 19.5t-21.5 50.5q0 67 75 128l106 500zM303 653q0 -31 -21 -52.5t-52 -21.5q-30 0 -51.5 21.5t-21.5 51.5q0 31 21.5 52.5t52.5 21.5q30 0 51 -21.5t21 -51.5
z" />
    <glyph glyph-name="Idotaccent" unicode="&#x130;" horiz-adv-x="288" 
d="M299 691l-147 -691h-117l148 691h116zM332 805q0 -31 -21 -52.5t-52 -21.5q-30 0 -51.5 21.5t-21.5 51.5q0 31 21.5 52.5t52.5 21.5q30 0 51 -21.5t21 -51.5z" />
    <glyph glyph-name="dotlessi" unicode="&#x131;" horiz-adv-x="279" 
d="M256 517l-109 -517h-112l106 500z" />
    <glyph glyph-name="IJ" unicode="&#x132;" horiz-adv-x="578" 
d="M299 691l-147 -691h-117l148 691h116zM588 691l-120 -564q-8 -37 -13.5 -57.5t-16.5 -51t-25.5 -50.5t-36.5 -43t-54 -41t-74 -34l-40 65q69 36 95 74t46 129l121 573h118z" />
    <glyph glyph-name="ij" unicode="&#x133;" horiz-adv-x="550" 
d="M256 517l-109 -517h-112l106 500zM303 653q0 -31 -21 -52.5t-52 -21.5q-30 0 -51.5 21.5t-21.5 51.5q0 31 21.5 52.5t52.5 21.5q30 0 51 -21.5t21 -51.5zM528 518l-107 -504q-23 -105 -66 -152q-40 -44 -112 -72l-36 66q42 18 67 54q24 34 38 103l103 486zM576 658
q0 -31 -21.5 -53t-52.5 -22q-30 0 -51.5 20.5t-21.5 51.5t22 53t53 22q29 0 50.5 -21t21.5 -51z" />
    <glyph glyph-name="Jcircumflex" unicode="&#x134;" horiz-adv-x="290" 
d="M300 691l-120 -564q-8 -37 -13.5 -57.5t-16.5 -51t-25.5 -50.5t-36.5 -43t-54 -41t-74 -34l-40 65q69 36 95 74t46 129l121 573h118zM421 778l-47 -60l-121 81l-153 -81l-33 60l203 135z" />
    <glyph glyph-name="jcircumflex" unicode="&#x135;" horiz-adv-x="271" 
d="M249 518l-107 -504q-23 -105 -66 -152q-40 -44 -112 -72l-36 66q42 18 67 54q24 34 38 103l103 486zM393 616l-47 -60l-121 81l-153 -81l-33 60l203 135z" />
    <glyph glyph-name="Kcommaaccent" unicode="&#x136;" horiz-adv-x="587" 
d="M231 367l307 334l126 -20l-307 -318l181 -358l-138 -12zM299 691l-147 -691h-117l147 691h117zM323 -120q0 -59 -56 -109q-37 -32 -88 -48l-26 41q59 23 68 61q-20 12 -29 23.5t-9 33.5q0 29 20 48t54 19q30 0 48 -19.5t18 -49.5z" />
    <glyph glyph-name="kcommaaccent" unicode="&#x137;" horiz-adv-x="499" 
d="M276 742q5 -14 5 -48q0 -61 -16 -133l-120 -561h-110l119 559q13 63 13 101q0 24 -5 44zM537 495l-215 -209l152 -279l-123 -14l-141 296l209 226zM296 -120q0 -59 -56 -109q-37 -32 -88 -48l-26 41q59 23 68 61q-20 12 -29 23.5t-9 33.5q0 29 20 48t54 19q30 0 48 -19.5
t18 -49.5z" />
    <glyph glyph-name="kgreenlandic" unicode="&#x138;" horiz-adv-x="499" 
d="M235 552q5 -14 5 -48q0 -61 -16 -133l-79 -371h-110l78 369q13 63 13 101q0 24 -5 44zM537 495l-215 -209l152 -279l-123 -14l-141 296l209 226z" />
    <glyph glyph-name="Lacute" unicode="&#x139;" horiz-adv-x="471" 
d="M431 96l-39 -96h-357l148 691h116l-126 -595h258zM417 825l-233 -101l-34 63l221 131z" />
    <glyph glyph-name="lacute" unicode="&#x13a;" horiz-adv-x="279" 
d="M273 742q4 -15 4 -46q0 -64 -13 -123l-87 -408q-12 -53 -12 -71q0 -27 24 -27q12 0 17 2l6 -67q-33 -13 -74 -13q-43 0 -65.5 21t-22.5 57q0 24 10 71l89 417q14 65 14 105q0 26 -6 44zM374 842l-233 -101l-34 63l221 131z" />
    <glyph glyph-name="Lcommaaccent" unicode="&#x13b;" horiz-adv-x="471" 
d="M431 96l-39 -96h-357l148 691h116l-126 -595h258zM274 -120q0 -59 -56 -109q-37 -32 -88 -48l-26 41q59 23 68 61q-20 12 -29 23.5t-9 33.5q0 29 20 48t54 19q30 0 48 -19.5t18 -49.5z" />
    <glyph glyph-name="lcommaaccent" unicode="&#x13c;" horiz-adv-x="279" 
d="M273 742q4 -15 4 -46q0 -64 -13 -123l-87 -408q-12 -53 -12 -71q0 -27 24 -27q12 0 17 2l6 -67q-33 -13 -74 -13q-43 0 -65.5 21t-22.5 57q0 24 10 71l89 417q14 65 14 105q0 26 -6 44zM170 -120q0 -59 -56 -109q-37 -32 -88 -48l-26 41q59 23 68 61q-20 12 -29 23.5
t-9 33.5q0 29 20 48t54 19q30 0 48 -19.5t18 -49.5z" />
    <glyph glyph-name="Lcaron" unicode="&#x13d;" horiz-adv-x="471" 
d="M431 96l-39 -96h-357l148 691h116l-126 -595h258zM515 621q0 -59 -56 -109q-37 -32 -88 -48l-26 41q59 23 68 61q-20 12 -29 23.5t-9 33.5q0 29 20 48t54 19q30 0 48 -19.5t18 -49.5z" />
    <glyph glyph-name="lcaron" unicode="&#x13e;" horiz-adv-x="279" 
d="M273 742q4 -15 4 -46q0 -64 -13 -123l-87 -408q-12 -53 -12 -71q0 -27 24 -27q12 0 17 2l6 -67q-33 -13 -74 -13q-43 0 -65.5 21t-22.5 57q0 24 10 71l89 417q14 65 14 105q0 26 -6 44zM470 667q0 -59 -56 -109q-37 -32 -88 -48l-26 41q59 23 68 61q-20 12 -29 23.5
t-9 33.5q0 29 20 48t54 19q30 0 48 -19.5t18 -49.5z" />
    <glyph glyph-name="Ldot" unicode="&#x13f;" horiz-adv-x="471" 
d="M431 96l-39 -96h-357l148 691h116l-126 -595h258zM479 369q0 -31 -21 -52.5t-52 -21.5q-30 0 -51.5 21.5t-21.5 51.5q0 31 21.5 52.5t52.5 21.5q30 0 51 -21.5t21 -51.5z" />
    <glyph glyph-name="ldot" unicode="&#x140;" horiz-adv-x="340" 
d="M273 742q4 -15 4 -46q0 -64 -13 -123l-87 -408q-12 -53 -12 -71q0 -27 24 -27q12 0 17 2l6 -67q-33 -13 -74 -13q-43 0 -65.5 21t-22.5 57q0 24 10 71l89 417q14 65 14 105q0 26 -6 44zM409 374q0 -31 -21 -52.5t-52 -21.5q-30 0 -51.5 21.5t-21.5 51.5q0 31 21.5 52.5
t52.5 21.5q30 0 51 -21.5t21 -51.5z" />
    <glyph glyph-name="Lslash" unicode="&#x141;" horiz-adv-x="471" 
d="M431 96l-39 -96h-357l63 294l-60 -18l20 92l60 18l65 305h116l-57 -267l186 56l-19 -92l-186 -56l-50 -236h258z" />
    <glyph glyph-name="lslash" unicode="&#x142;" horiz-adv-x="279" 
d="M293 440l-19 -92l-62 -20l-35 -163q-12 -53 -12 -71q0 -27 24 -27q12 0 17 2l6 -67q-33 -13 -74 -13q-43 0 -65.5 21t-22.5 57q0 24 10 71l32 152l-44 -14l19 92l45 14l37 173q22 104 8 149l116 38q15 -59 -9 -169l-33 -153z" />
    <glyph glyph-name="Nacute" unicode="&#x143;" horiz-adv-x="644" 
d="M654 691l-147 -691h-119l-92 333q-42 157 -46 202q-9 -73 -33 -194l-68 -341h-114l148 691h127l101 -348q25 -86 35 -175q8 83 32 200l65 323h111zM570 825l-233 -101l-34 63l221 131z" />
    <glyph glyph-name="nacute" unicode="&#x144;" horiz-adv-x="555" 
d="M505 417q0 -34 -5 -55l-77 -362h-109l71 335q7 31 7 49q0 40 -40 40q-67 0 -139 -94l-70 -330h-108l74 350q10 44 10 77q0 26 -8 53l102 42q12 -27 12 -63q0 -15 -3 -32q74 90 182 90q47 0 74 -27t27 -73zM473 660l-233 -101l-34 63l221 131z" />
    <glyph glyph-name="Ncommaaccent" unicode="&#x145;" horiz-adv-x="644" 
d="M654 691l-147 -691h-119l-92 333q-42 157 -46 202q-9 -73 -33 -194l-68 -341h-114l148 691h127l101 -348q25 -86 35 -175q8 83 32 200l65 323h111zM336 -120q0 -59 -56 -109q-37 -32 -88 -48l-26 41q59 23 68 61q-20 12 -29 23.5t-9 33.5q0 29 20 48t54 19q30 0 48 -19.5
t18 -49.5z" />
    <glyph glyph-name="ncommaaccent" unicode="&#x146;" horiz-adv-x="555" 
d="M505 417q0 -34 -5 -55l-77 -362h-109l71 335q7 31 7 49q0 40 -40 40q-67 0 -139 -94l-70 -330h-108l74 350q10 44 10 77q0 26 -8 53l102 42q12 -27 12 -63q0 -15 -3 -32q74 90 182 90q47 0 74 -27t27 -73zM285 -119q0 -59 -56 -109q-37 -32 -88 -48l-26 41q59 23 68 61
q-20 12 -29 23.5t-9 33.5q0 29 20 48t54 19q30 0 48 -19.5t18 -49.5z" />
    <glyph glyph-name="Ncaron" unicode="&#x147;" horiz-adv-x="644" 
d="M654 691l-147 -691h-119l-92 333q-42 157 -46 202q-9 -73 -33 -194l-68 -341h-114l148 691h127l101 -348q25 -86 35 -175q8 83 32 200l65 323h111zM615 859l-203 -135l-151 135l47 60l121 -80l153 80z" />
    <glyph glyph-name="ncaron" unicode="&#x148;" horiz-adv-x="555" 
d="M505 417q0 -34 -5 -55l-77 -362h-109l71 335q7 31 7 49q0 40 -40 40q-67 0 -139 -94l-70 -330h-108l74 350q10 44 10 77q0 26 -8 53l102 42q12 -27 12 -63q0 -15 -3 -32q74 90 182 90q47 0 74 -27t27 -73zM528 695l-203 -135l-151 135l47 60l121 -80l153 80z" />
    <glyph glyph-name="napostrophe" unicode="&#x149;" horiz-adv-x="555" 
d="M505 417q0 -34 -5 -55l-77 -362h-109l71 335q7 31 7 49q0 40 -40 40q-67 0 -139 -94l-70 -330h-108l74 350q10 44 10 77q0 26 -8 53l102 42q12 -27 12 -63q0 -15 -3 -32q74 90 182 90q47 0 74 -27t27 -73zM129 683q0 -59 -56 -109q-37 -32 -88 -48l-26 41q59 23 68 61
q-20 12 -29 23.5t-9 33.5q0 29 20 48t54 19q30 0 48 -19.5t18 -49.5z" />
    <glyph glyph-name="Eng" unicode="&#x14a;" horiz-adv-x="644" 
d="M654 691l-140 -663q-23 -105 -66 -152q-40 -44 -112 -72l-36 66q42 18 67 54q23 35 23 62q0 6 -2 14l-92 333q-42 157 -46 202q-9 -73 -33 -194l-68 -341h-114l148 691h127l101 -348q21 -73 35 -173q7 78 32 198l65 323h111z" />
    <glyph glyph-name="eng" unicode="&#x14b;" horiz-adv-x="555" 
d="M505 417q0 -34 -5 -55l-71 -334q-23 -105 -66 -152q-40 -44 -112 -72l-36 66q42 18 67 54q24 34 38 103l65 308q7 31 7 49q0 40 -40 40q-67 0 -139 -94l-70 -330h-108l74 350q10 44 10 77q0 26 -8 53l102 42q12 -27 12 -63q0 -15 -3 -32q74 90 182 90q47 0 74 -27t27 -73
z" />
    <glyph glyph-name="Omacron" unicode="&#x14c;" horiz-adv-x="694" 
d="M672 459q0 -131 -55.5 -251.5t-146.5 -173.5q-79 -46 -175 -46q-115 0 -171.5 66t-56.5 181q0 124 47 229t117 163q88 74 214 74q108 0 167.5 -64t59.5 -178zM544 479q0 133 -120 133q-86 0 -139 -70q-41 -54 -67 -147.5t-26 -180.5q0 -138 123 -138q73 0 124 55
q45 50 75 156t30 192zM611 828l-16 -76h-297l16 76h297z" />
    <glyph glyph-name="omacron" unicode="&#x14d;" horiz-adv-x="551" 
d="M507 340q0 -146 -78 -249t-212 -103q-84 0 -130 47t-46 134q0 148 81 248.5t206 100.5q86 0 132.5 -47t46.5 -131zM388 344q0 90 -77 90q-47 0 -83 -45.5t-52.5 -107t-16.5 -122.5q0 -88 78 -88q46 0 82 43.5t52.5 104.5t16.5 125zM503 666l-16 -76h-297l16 76h297z" />
    <glyph glyph-name="Obreve" unicode="&#x14e;" horiz-adv-x="694" 
d="M672 459q0 -131 -55.5 -251.5t-146.5 -173.5q-79 -46 -175 -46q-115 0 -171.5 66t-56.5 181q0 124 47 229t117 163q88 74 214 74q108 0 167.5 -64t59.5 -178zM544 479q0 133 -120 133q-86 0 -139 -70q-41 -54 -67 -147.5t-26 -180.5q0 -138 123 -138q73 0 124 55
q45 50 75 156t30 192zM642 866q-15 -16 -41.5 -40t-73.5 -51t-83 -27q-28 0 -55.5 15t-47 37.5t-31 38.5t-17.5 27l47 45q10 -13 25 -26t44 -27t59 -14q55 0 153 67z" />
    <glyph glyph-name="obreve" unicode="&#x14f;" horiz-adv-x="551" 
d="M507 340q0 -146 -78 -249t-212 -103q-84 0 -130 47t-46 134q0 148 81 248.5t206 100.5q86 0 132.5 -47t46.5 -131zM388 344q0 90 -77 90q-47 0 -83 -45.5t-52.5 -107t-16.5 -122.5q0 -88 78 -88q46 0 82 43.5t52.5 104.5t16.5 125zM537 671q-28 -32 -88 -75t-111 -43
q-28 0 -55.5 15t-47 37.5t-31 38.5t-17.5 27l48 45q10 -13 25 -26t44 -27t59 -14q54 0 152 67z" />
    <glyph glyph-name="Ohungarumlaut" unicode="&#x150;" horiz-adv-x="694" 
d="M672 459q0 -131 -55.5 -251.5t-146.5 -173.5q-79 -46 -175 -46q-115 0 -171.5 66t-56.5 181q0 124 47 229t117 163q88 74 214 74q108 0 167.5 -64t59.5 -178zM544 479q0 133 -120 133q-86 0 -139 -70q-41 -54 -67 -147.5t-26 -180.5q0 -138 123 -138q73 0 124 55
q45 50 75 156t30 192zM558 904l-193 -181l-54 37l164 198zM781 881l-217 -154l-44 47l192 174z" />
    <glyph glyph-name="ohungarumlaut" unicode="&#x151;" horiz-adv-x="551" 
d="M507 340q0 -146 -78 -249t-212 -103q-84 0 -130 47t-46 134q0 148 81 248.5t206 100.5q86 0 132.5 -47t46.5 -131zM388 344q0 90 -77 90q-47 0 -83 -45.5t-52.5 -107t-16.5 -122.5q0 -88 78 -88q46 0 82 43.5t52.5 104.5t16.5 125zM439 769l-162 -209l-59 28l131 221z
M646 750l-190 -186l-51 40l163 202z" />
    <glyph glyph-name="OE" unicode="&#x152;" horiz-adv-x="855" 
d="M919 691l-35 -94h-256l-40 -189h214l-20 -95h-214l-46 -214h283l-21 -99h-422q-105 0 -154.5 12t-84.5 49q-56 59 -56 164q0 52 14 120q31 151 126 246q74 74 168 91q50 9 114 9h430zM514 584q-59 9 -79 9q-136 0 -193 -147q-35 -90 -45 -201q-1 -7 -1 -20q0 -66 33 -99
q33 -36 94 -36q43 0 88 9z" />
    <glyph glyph-name="oe" unicode="&#x153;" horiz-adv-x="827" 
d="M805 381q0 -61 -52 -110q-61 -57 -208 -57q-16 0 -37.5 2t-23.5 2q-6 -30 -6 -53q0 -46 24.5 -69.5t67.5 -23.5q73 0 143 55l34 -68q-85 -72 -205 -72q-100 0 -148 71q-74 -72 -177 -72q-74 0 -125 41.5t-51 141.5q0 148 81 247.5t206 99.5q102 0 146 -69q77 71 171 71
q75 0 117.5 -33.5t42.5 -103.5zM388 343q0 90 -78 90q-47 0 -83 -46t-52.5 -107.5t-16.5 -122.5q0 -88 78 -88q47 0 83 43.5t52.5 105t16.5 125.5zM695 376q0 60 -64 60q-44 0 -78 -35.5t-51 -104.5q2 0 18 -1.5t26 -1.5q149 0 149 83z" />
    <glyph glyph-name="Racute" unicode="&#x154;" horiz-adv-x="569" 
d="M581 536q0 -96 -59.5 -159t-146.5 -72l-10 -1q32 -29 63 -89q16 -32 47 -111t37 -99l-125 -10l-45 119q-42 110 -86 164q-16 20 -42 20l-64 -298h-115l147 691h212q92 0 139.5 -39.5t47.5 -115.5zM458 513q0 45 -26 65t-81 20h-73l-46 -218h56q83 0 119 29
q22 17 36.5 46.5t14.5 57.5zM537 825l-233 -101l-34 63l221 131z" />
    <glyph glyph-name="racute" unicode="&#x155;" horiz-adv-x="368" 
d="M413 510l-48 -104q-13 8 -35 8q-55 0 -118 -89l-69 -325h-109l72 338q11 51 11 88q0 32 -7 54l102 42q11 -27 11 -63q0 -18 -3 -36q75 95 151 95q22 0 42 -8zM409 660l-233 -101l-34 63l221 131z" />
    <glyph glyph-name="Rcommaaccent" unicode="&#x156;" horiz-adv-x="569" 
d="M581 536q0 -96 -59.5 -159t-146.5 -72l-10 -1q32 -29 63 -89q16 -32 47 -111t37 -99l-125 -10l-45 119q-42 110 -86 164q-16 20 -42 20l-64 -298h-115l147 691h212q92 0 139.5 -39.5t47.5 -115.5zM458 513q0 45 -26 65t-81 20h-73l-46 -218h56q83 0 119 29
q22 17 36.5 46.5t14.5 57.5zM317 -120q0 -59 -56 -109q-37 -32 -88 -48l-26 41q59 23 68 61q-20 12 -29 23.5t-9 33.5q0 29 20 48t54 19q30 0 48 -19.5t18 -49.5z" />
    <glyph glyph-name="rcommaaccent" unicode="&#x157;" horiz-adv-x="368" 
d="M413 510l-48 -104q-13 8 -35 8q-55 0 -118 -89l-69 -325h-109l72 338q11 51 11 88q0 32 -7 54l102 42q11 -27 11 -63q0 -18 -3 -36q75 95 151 95q22 0 42 -8zM145 -120q0 -59 -56 -109q-37 -32 -88 -48l-26 41q59 23 68 61q-20 12 -29 23.5t-9 33.5q0 29 20 48t54 19
q30 0 48 -19.5t18 -49.5z" />
    <glyph glyph-name="Rcaron" unicode="&#x158;" horiz-adv-x="569" 
d="M581 536q0 -96 -59.5 -159t-146.5 -72l-10 -1q32 -29 63 -89q16 -32 47 -111t37 -99l-125 -10l-45 119q-42 110 -86 164q-16 20 -42 20l-64 -298h-115l147 691h212q92 0 139.5 -39.5t47.5 -115.5zM458 513q0 45 -26 65t-81 20h-73l-46 -218h56q83 0 119 29
q22 17 36.5 46.5t14.5 57.5zM570 859l-203 -135l-151 135l47 60l121 -80l153 80z" />
    <glyph glyph-name="rcaron" unicode="&#x159;" horiz-adv-x="368" 
d="M413 510l-48 -104q-13 8 -35 8q-55 0 -118 -89l-69 -325h-109l72 338q11 51 11 88q0 32 -7 54l102 42q11 -27 11 -63q0 -18 -3 -36q75 95 151 95q22 0 42 -8zM460 695l-203 -135l-151 135l47 60l121 -80l153 80z" />
    <glyph glyph-name="Sacute" unicode="&#x15a;" horiz-adv-x="592" 
d="M604 644l-66 -81q-68 51 -153 51q-56 0 -94.5 -29t-38.5 -71q0 -31 16.5 -51t57.5 -35l77 -28q126 -46 126 -164q0 -107 -85.5 -178.5t-227.5 -71.5q-120 0 -211 59l59 89q83 -53 173 -53q73 0 116.5 35t43.5 90q0 33 -18.5 55t-63.5 39l-69 26q-62 23 -92 58.5t-30 94.5
q0 97 80.5 163.5t197.5 66.5q124 0 202 -65zM559 825l-233 -101l-34 63l221 131z" />
    <glyph glyph-name="sacute" unicode="&#x15b;" horiz-adv-x="479" 
d="M454 480l-44 -77q-61 35 -121 35q-42 0 -67 -16t-25 -46q0 -39 54 -59l60 -23q103 -40 103 -120q0 -81 -63 -135t-171 -54q-103 0 -187 53l44 81q72 -50 158 -50q41 0 69 21t28 52q0 24 -14.5 38t-49.5 28l-58 22q-95 36 -95 121q0 71 58 121.5t163 50.5q89 0 158 -43z
M470 660l-233 -101l-34 63l221 131z" />
    <glyph glyph-name="Scircumflex" unicode="&#x15c;" horiz-adv-x="592" 
d="M604 644l-66 -81q-68 51 -153 51q-56 0 -94.5 -29t-38.5 -71q0 -31 16.5 -51t57.5 -35l77 -28q126 -46 126 -164q0 -107 -85.5 -178.5t-227.5 -71.5q-120 0 -211 59l59 89q83 -53 173 -53q73 0 116.5 35t43.5 90q0 33 -18.5 55t-63.5 39l-69 26q-62 23 -92 58.5t-30 94.5
q0 97 80.5 163.5t197.5 66.5q124 0 202 -65zM594 778l-47 -60l-121 81l-153 -81l-33 60l203 135z" />
    <glyph glyph-name="scircumflex" unicode="&#x15d;" horiz-adv-x="479" 
d="M454 480l-44 -77q-61 35 -121 35q-42 0 -67 -16t-25 -46q0 -39 54 -59l60 -23q103 -40 103 -120q0 -81 -63 -135t-171 -54q-103 0 -187 53l44 81q72 -50 158 -50q41 0 69 21t28 52q0 24 -14.5 38t-49.5 28l-58 22q-95 36 -95 121q0 71 58 121.5t163 50.5q89 0 158 -43z
M488 616l-47 -60l-121 81l-153 -81l-33 60l203 135z" />
    <glyph glyph-name="Scedilla" unicode="&#x15e;" horiz-adv-x="592" 
d="M604 644l-66 -81q-68 51 -153 51q-56 0 -94.5 -29t-38.5 -71q0 -31 16.5 -51t57.5 -35l77 -28q126 -46 126 -164q0 -97 -72 -166.5t-195 -81.5l-13 -24q53 -8 53 -59q0 -42 -34.5 -72.5t-87.5 -30.5q-43 0 -80 24l36 55q32 -15 54 -15q14 0 25 8t11 21q0 19 -26 19
q-8 0 -28 -4l-8 15l31 61q-106 4 -190 59l59 89q83 -53 173 -53q73 0 116.5 35t43.5 90q0 33 -18.5 55t-63.5 39l-69 26q-62 23 -92 58.5t-30 94.5q0 97 80.5 163.5t197.5 66.5q124 0 202 -65z" />
    <glyph glyph-name="scedilla" unicode="&#x15f;" horiz-adv-x="479" 
d="M454 480l-44 -77q-61 35 -121 35q-42 0 -67 -16t-25 -46q0 -39 54 -59l60 -23q103 -40 103 -120q0 -75 -55 -128t-151 -60l-12 -22q53 -8 53 -59q0 -42 -34.5 -72.5t-87.5 -30.5q-43 0 -80 24l36 55q32 -15 54 -15q14 0 25 8t11 21q0 19 -26 19q-8 0 -28 -4l-8 15l31 62
q-84 9 -149 51l44 81q72 -50 158 -50q41 0 69 21t28 52q0 24 -14.5 38t-49.5 28l-58 22q-95 36 -95 121q0 71 58 121.5t163 50.5q89 0 158 -43z" />
    <glyph glyph-name="Scaron" unicode="&#x160;" horiz-adv-x="592" 
d="M604 644l-66 -81q-68 51 -153 51q-56 0 -94.5 -29t-38.5 -71q0 -31 16.5 -51t57.5 -35l77 -28q126 -46 126 -164q0 -107 -85.5 -178.5t-227.5 -71.5q-120 0 -211 59l59 89q83 -53 173 -53q73 0 116.5 35t43.5 90q0 33 -18.5 55t-63.5 39l-69 26q-62 23 -92 58.5t-30 94.5
q0 97 80.5 163.5t197.5 66.5q124 0 202 -65zM593 881l-203 -135l-151 135l47 60l121 -80l153 80z" />
    <glyph glyph-name="scaron" unicode="&#x161;" horiz-adv-x="479" 
d="M454 480l-44 -77q-61 35 -121 35q-42 0 -67 -16t-25 -46q0 -39 54 -59l60 -23q103 -40 103 -120q0 -81 -63 -135t-171 -54q-103 0 -187 53l44 81q72 -50 158 -50q41 0 69 21t28 52q0 24 -14.5 38t-49.5 28l-58 22q-95 36 -95 121q0 71 58 121.5t163 50.5q89 0 158 -43z
M485 691l-203 -135l-151 135l47 60l121 -80l153 80z" />
    <glyph glyph-name="Tcommaaccent" unicode="&#x162;" horiz-adv-x="486" 
d="M273 -95q0 -42 -34.5 -72.5t-87.5 -30.5q-43 0 -80 24l36 55q32 -15 54 -15q14 0 25 8t11 21q0 19 -26 19q-8 0 -28 -4l-8 15l37 75h-27l127 596h-176l20 95h481l-36 -95h-174l-126 -596h-22l-19 -36q53 -8 53 -59z" />
    <glyph glyph-name="tcommaaccent" unicode="&#x163;" horiz-adv-x="314" 
d="M240 -95q0 -42 -34.5 -72.5t-87.5 -30.5q-43 0 -80 24l36 55q32 -15 54 -15q14 0 25 8t11 21q0 19 -26 19q-8 0 -28 -4l-8 15l31 64q-36 6 -56 27.5t-20 54.5q0 34 7 69l61 288h-57l16 78h57q16 73 33 123l117 27q-27 -83 -41 -150h121l-41 -78h-97l-57 -272
q-6 -29 -6 -49q0 -23 11 -32.5t36 -9.5q28 0 51 10v-68q-34 -13 -68 -18l-13 -25q53 -8 53 -59z" />
    <glyph glyph-name="Tcaron" unicode="&#x164;" horiz-adv-x="486" 
d="M597 691l-36 -95h-174l-126 -596h-116l127 596h-176l20 95h481zM555 859l-203 -135l-151 135l47 60l121 -80l153 80z" />
    <glyph glyph-name="tcaron" unicode="&#x165;" horiz-adv-x="314" 
d="M371 506l-41 -78h-97l-57 -272q-6 -29 -6 -49q0 -23 11 -32.5t36 -9.5q28 0 51 10v-68q-52 -21 -105 -21q-50 0 -78 23t-28 62q0 34 7 69l61 288h-57l16 78h57q16 73 33 123l117 27q-27 -83 -41 -150h121zM487 707q0 -59 -56 -109q-37 -32 -88 -48l-26 41q59 23 68 61
q-20 12 -29 23.5t-9 33.5q0 29 20 48t54 19q30 0 48 -19.5t18 -49.5z" />
    <glyph glyph-name="Tbar" unicode="&#x166;" horiz-adv-x="486" 
d="M597 691l-36 -95h-174l-38 -180h101l-17 -83h-102l-70 -333h-116l71 333h-101l17 83h101l39 180h-176l20 95h481z" />
    <glyph glyph-name="tbar" unicode="&#x167;" horiz-adv-x="314" 
d="M371 506l-41 -78h-97l-26 -125h121l-41 -78h-97l-14 -69q-6 -29 -6 -49q0 -23 11 -32.5t36 -9.5q28 0 51 10v-68q-52 -21 -105 -21q-50 0 -78 23t-28 62q0 34 7 69l18 85h-57l16 78h57l27 125h-57l16 78h57q16 73 33 123l117 27q-27 -83 -41 -150h121z" />
    <glyph glyph-name="Utilde" unicode="&#x168;" horiz-adv-x="643" 
d="M659 691l-100 -472q-16 -75 -33 -111t-55 -63q-79 -58 -198 -58q-94 0 -149 39t-55 110q0 38 9 82l101 473h116l-96 -449q-11 -50 -11 -79q0 -77 102 -77q88 0 128 64q17 28 29 86l97 455h115zM604 810q-34 -34 -64.5 -49.5t-72.5 -15.5q-28 0 -61 19t-60 19
q-15 0 -29 -6t-22 -11.5t-25 -20.5l-26 62q35 34 63.5 49.5t67.5 15.5q29 0 63 -19.5t63 -19.5q15 0 29 5.5t22.5 11.5t24.5 20z" />
    <glyph glyph-name="utilde" unicode="&#x169;" horiz-adv-x="554" 
d="M527 516l-80 -374q-6 -28 -6 -50q0 -36 18 -63l-92 -48q-30 35 -30 83v4q-77 -83 -166 -83q-55 0 -85.5 26.5t-30.5 76.5q0 34 9 77l70 332l113 21l-70 -332q-10 -43 -10 -67q0 -48 40 -48q33 0 73.5 28.5t65.5 70.5l70 325zM525 650q-34 -34 -64.5 -49.5t-72.5 -15.5
q-28 0 -61 19t-60 19q-15 0 -29 -6t-22 -11.5t-25 -20.5l-26 62q35 34 63.5 49.5t67.5 15.5q29 0 63 -19.5t63 -19.5q15 0 29 5.5t22.5 11.5t24.5 20z" />
    <glyph glyph-name="Umacron" unicode="&#x16a;" horiz-adv-x="643" 
d="M659 691l-100 -472q-16 -75 -33 -111t-55 -63q-79 -58 -198 -58q-94 0 -149 39t-55 110q0 38 9 82l101 473h116l-96 -449q-11 -50 -11 -79q0 -77 102 -77q88 0 128 64q17 28 29 86l97 455h115zM591 828l-16 -76h-297l16 76h297z" />
    <glyph glyph-name="umacron" unicode="&#x16b;" horiz-adv-x="554" 
d="M527 516l-80 -374q-6 -28 -6 -50q0 -36 18 -63l-92 -48q-30 35 -30 83v4q-77 -83 -166 -83q-55 0 -85.5 26.5t-30.5 76.5q0 34 9 77l70 332l113 21l-70 -332q-10 -43 -10 -67q0 -48 40 -48q33 0 73.5 28.5t65.5 70.5l70 325zM504 666l-16 -76h-297l16 76h297z" />
    <glyph glyph-name="Ubreve" unicode="&#x16c;" horiz-adv-x="643" 
d="M659 691l-100 -472q-16 -75 -33 -111t-55 -63q-79 -58 -198 -58q-94 0 -149 39t-55 110q0 38 9 82l101 473h116l-96 -449q-11 -50 -11 -79q0 -77 102 -77q88 0 128 64q17 28 29 86l97 455h115zM638 866q-15 -16 -41.5 -40t-73.5 -51t-83 -27q-28 0 -55.5 15t-47 37.5
t-31 38.5t-17.5 27l47 45q10 -13 25 -26t44 -27t59 -14q55 0 153 67z" />
    <glyph glyph-name="ubreve" unicode="&#x16d;" horiz-adv-x="554" 
d="M527 516l-80 -374q-6 -28 -6 -50q0 -36 18 -63l-92 -48q-30 35 -30 83v4q-77 -83 -166 -83q-55 0 -85.5 26.5t-30.5 76.5q0 34 9 77l70 332l113 21l-70 -332q-10 -43 -10 -67q0 -48 40 -48q33 0 73.5 28.5t65.5 70.5l70 325zM546 671q-28 -32 -88 -75t-111 -43
q-28 0 -55.5 15t-47 37.5t-31 38.5t-17.5 27l48 45q10 -13 25 -26t44 -27t59 -14q54 0 152 67z" />
    <glyph glyph-name="Uring" unicode="&#x16e;" horiz-adv-x="643" 
d="M659 691l-100 -472q-16 -75 -33 -111t-55 -63q-79 -58 -198 -58q-94 0 -149 39t-55 110q0 38 9 82l101 473h116l-96 -449q-11 -50 -11 -79q0 -77 102 -77q88 0 128 64q17 28 29 86l97 455h115zM528 819q0 -44 -31 -75t-75 -31t-75 31t-31 75t31 75t75 31t75 -31t31 -75z
M472 819q0 21 -14.5 35.5t-35.5 14.5t-35.5 -14.5t-14.5 -35.5t14.5 -35.5t35.5 -14.5t35.5 14.5t14.5 35.5z" />
    <glyph glyph-name="uring" unicode="&#x16f;" horiz-adv-x="554" 
d="M527 516l-80 -374q-6 -28 -6 -50q0 -36 18 -63l-92 -48q-30 35 -30 83v4q-77 -83 -166 -83q-55 0 -85.5 26.5t-30.5 76.5q0 34 9 77l70 332l113 21l-70 -332q-10 -43 -10 -67q0 -48 40 -48q33 0 73.5 28.5t65.5 70.5l70 325zM457 659q0 -44 -31 -75t-75 -31t-75 31
t-31 75t31 75t75 31t75 -31t31 -75zM401 659q0 21 -14.5 35.5t-35.5 14.5t-35.5 -14.5t-14.5 -35.5t14.5 -35.5t35.5 -14.5t35.5 14.5t14.5 35.5z" />
    <glyph glyph-name="Uhungarumlaut" unicode="&#x170;" horiz-adv-x="643" 
d="M659 691l-100 -472q-16 -75 -33 -111t-55 -63q-79 -58 -198 -58q-94 0 -149 39t-55 110q0 38 9 82l101 473h116l-96 -449q-11 -50 -11 -79q0 -77 102 -77q88 0 128 64q17 28 29 86l97 455h115zM543 904l-193 -181l-54 37l164 198zM766 881l-217 -154l-44 47l192 174z" />
    <glyph glyph-name="uhungarumlaut" unicode="&#x171;" horiz-adv-x="554" 
d="M527 516l-80 -374q-6 -28 -6 -50q0 -36 18 -63l-92 -48q-30 35 -30 83v4q-77 -83 -166 -83q-55 0 -85.5 26.5t-30.5 76.5q0 34 9 77l70 332l113 21l-70 -332q-10 -43 -10 -67q0 -48 40 -48q33 0 73.5 28.5t65.5 70.5l70 325zM440 769l-162 -209l-59 28l131 221zM647 750
l-190 -186l-51 40l163 202z" />
    <glyph glyph-name="Uogonek" unicode="&#x172;" horiz-adv-x="643" 
d="M659 691l-100 -472q-16 -75 -33 -111t-55 -63q-47 -34 -111 -50q-26 -7 -56.5 -36t-30.5 -61q0 -26 27 -26q26 0 59 15l13 -59q-62 -26 -105 -26q-40 0 -61.5 19.5t-21.5 50.5q0 60 61 116q-82 5 -129 43.5t-47 104.5q0 38 9 82l101 473h116l-96 -449q-11 -50 -11 -79
q0 -77 102 -77q88 0 128 64q17 28 29 86l97 455h115z" />
    <glyph glyph-name="uogonek" unicode="&#x173;" horiz-adv-x="554" 
d="M527 516l-80 -374q-6 -28 -6 -50q0 -36 18 -63q-53 -22 -91.5 -62t-38.5 -69q0 -26 27 -26q26 0 59 15l13 -59q-62 -26 -105 -26q-40 0 -61.5 18.5t-21.5 49.5q0 79 104 149q-7 20 -7 49q-77 -83 -166 -83q-55 0 -85.5 26.5t-30.5 76.5q0 34 9 77l70 332l113 21l-70 -332
q-10 -52 -10 -67q0 -48 40 -48q33 0 73.5 28.5t65.5 70.5l70 325z" />
    <glyph glyph-name="Wcircumflex" unicode="&#x174;" horiz-adv-x="816" 
d="M907 691l-311 -693h-133l-3 324q-1 75 10 212q-71 -188 -79 -208l-139 -328h-134l-17 693h119l1 -329q0 -78 -10 -223q48 135 83 215l147 337h126v-349q0 -151 -7 -198q34 101 87 225l138 322h122zM692 778l-47 -60l-121 81l-153 -81l-33 60l203 135z" />
    <glyph glyph-name="wcircumflex" unicode="&#x175;" horiz-adv-x="699" 
d="M746 506l-252 -508h-101l-12 188q-9 135 -4 189h-2q-7 -21 -16 -40l-56 -123l-103 -214h-103l-32 501l110 16l4 -254q1 -63 -3 -128h1q16 48 57 133l118 240h107l11 -240q1 -22 1 -134h1q35 93 49 125l109 249h116zM599 616l-47 -60l-121 81l-153 -81l-33 60l203 135z
" />
    <glyph glyph-name="Ycircumflex" unicode="&#x176;" horiz-adv-x="550" 
d="M651 691l-310 -413l-60 -278h-119l60 280l-131 411h134l59 -221q13 -50 17 -84q5 7 15 22.5l20 31t20 29.5l156 222h139zM551 778l-47 -60l-121 81l-153 -81l-33 60l203 135z" />
    <glyph glyph-name="ycircumflex" unicode="&#x177;" horiz-adv-x="493" 
d="M544 506l-267 -477q-50 -89 -80 -132.5t-63 -66.5q-50 -35 -118 -46l-23 74q45 8 89 38q24 17 40.5 39.5t37.5 64.5l-35 -2q0 67 -12 159l-44 342l114 16l28 -307q4 -51 4 -114h1q16 42 62 132l146 280h120zM479 616l-47 -60l-121 81l-153 -81l-33 60l203 135z" />
    <glyph glyph-name="Ydieresis" unicode="&#x178;" horiz-adv-x="550" 
d="M651 691l-310 -413l-60 -278h-119l60 280l-131 411h134l59 -221q13 -50 17 -84q5 7 15 22.5l20 31t20 29.5l156 222h139zM335 792q0 -28 -19.5 -48t-48.5 -20q-28 0 -47.5 20t-19.5 48t20 47.5t48 19.5t47.5 -19.5t19.5 -47.5zM545 792q0 -28 -19.5 -48t-48.5 -20
q-28 0 -47.5 20t-19.5 48t20 47.5t48 19.5t47.5 -19.5t19.5 -47.5z" />
    <glyph glyph-name="Zacute" unicode="&#x179;" horiz-adv-x="531" 
d="M579 691l-9 -86l-365 -456q-4 -5 -49 -55q22 2 63 2h248l-39 -96h-429l12 83l368 451q37 45 56 64q-18 -2 -71 -2h-228l37 95h406zM524 825l-233 -101l-34 63l221 131z" />
    <glyph glyph-name="zacute" unicode="&#x17a;" horiz-adv-x="419" 
d="M436 506l-3 -78l-318 -349h247l-39 -79h-360l5 73l328 353h-223l8 80h355zM415 660l-233 -101l-34 63l221 131z" />
    <glyph glyph-name="Zdotaccent" unicode="&#x17b;" horiz-adv-x="531" 
d="M579 691l-9 -86l-365 -456q-4 -5 -49 -55q22 2 63 2h248l-39 -96h-429l12 83l368 451q37 45 56 64q-18 -2 -71 -2h-228l37 95h406zM445 805q0 -31 -21 -52.5t-52 -21.5q-30 0 -51.5 21.5t-21.5 51.5q0 31 21.5 52.5t52.5 21.5q30 0 51 -21.5t21 -51.5z" />
    <glyph glyph-name="zdotaccent" unicode="&#x17c;" horiz-adv-x="419" 
d="M436 506l-3 -78l-318 -349h247l-39 -79h-360l5 73l328 353h-223l8 80h355zM338 653q0 -31 -21 -52.5t-52 -21.5q-30 0 -51.5 21.5t-21.5 51.5q0 31 21.5 52.5t52.5 21.5q30 0 51 -21.5t21 -51.5z" />
    <glyph glyph-name="Zcaron" unicode="&#x17d;" horiz-adv-x="531" 
d="M579 691l-9 -86l-365 -456q-4 -5 -49 -55q22 2 63 2h248l-39 -96h-429l12 83l368 451q37 45 56 64q-18 -2 -71 -2h-228l37 95h406zM585 881l-203 -135l-151 135l47 60l121 -80l153 80z" />
    <glyph glyph-name="zcaron" unicode="&#x17e;" horiz-adv-x="419" 
d="M436 506l-3 -78l-318 -349h247l-39 -79h-360l5 73l328 353h-223l8 80h355zM471 691l-203 -135l-151 135l47 60l121 -80l153 80z" />
    <glyph glyph-name="longs" unicode="&#x17f;" horiz-adv-x="430" 
d="M392 735q70 0 119 -34l-66 -72q-31 21 -66 21q-47 0 -74.5 -31t-43.5 -107l-110 -518q-28 -130 -107 -211l-74 57q54 65 72 157l89 431h-77l16 78h78l10 37q28 102 83 147t151 45z" />
    <glyph glyph-name="uni018F" unicode="&#x18f;" horiz-adv-x="625" 
d="M240 -12q-96 0 -150.5 44.5t-55.5 129.5q-1 108 92.5 168t238.5 60q54 0 98 -7q8 40 8 86q-1 70 -35.5 106.5t-94.5 36.5q-87 0 -191 -77l-39 78q113 88 247 88q118 0 181.5 -63t63.5 -179q0 -103 -39.5 -208.5t-107.5 -172.5q-93 -90 -216 -90zM251 77q69 0 118.5 54.5
t74.5 163.5q-24 4 -74 4q-37 0 -71 -6t-66 -19.5t-51 -39.5t-19 -62q0 -42 22 -68.5t66 -26.5z" />
    <glyph glyph-name="florin" unicode="&#x192;" horiz-adv-x="401" 
d="M484 703l-48 -70q-26 19 -58 19q-27 0 -48 -19t-29 -52l-19 -75h125l-46 -79h-96l-98 -384q-30 -117 -62.5 -162.5t-122.5 -90.5l-37 75q57 30 78 62t38 100l101 400h-47l15 79h51l18 73q39 155 185 155q57 0 100 -31z" />
    <glyph glyph-name="uni01B5" unicode="&#x1b5;" horiz-adv-x="531" 
d="M470 396l-19 -92h-122l-124 -155q-4 -5 -49 -55q22 2 63 2h248l-39 -96h-429l12 83l180 221h-67l19 92h123l113 138q37 45 56 64q-18 -2 -71 -2h-228l37 95h406l-9 -86l-168 -209h68z" />
    <glyph glyph-name="uni01B6" unicode="&#x1b6;" horiz-adv-x="419" 
d="M436 506l-3 -78l-122 -134h54l-17 -81h-111l-122 -134h247l-39 -79h-360l5 73l130 140h-55l17 81h113l123 132h-223l8 80h355z" />
    <glyph glyph-name="uni01C4" unicode="&#x1c4;" horiz-adv-x="1165" 
d="M613 447q0 -90 -37 -191.5t-97 -160.5q-53 -52 -113 -73.5t-157 -21.5h-174l148 691h154q87 0 135.5 -12.5t81.5 -48.5q59 -64 59 -183zM489 444q0 71 -22 106q-32 50 -116 50h-72l-107 -506h71q107 0 159 72q43 61 65 143t22 135zM1213 691l-9 -86l-365 -456
q-4 -5 -49 -55q22 2 63 2h248l-39 -96h-429l12 83l368 451q37 45 56 64q-18 -2 -71 -2h-228l37 95h406zM1219 881l-203 -135l-151 135l47 60l121 -80l153 80z" />
    <glyph glyph-name="uni01C5" unicode="&#x1c5;" horiz-adv-x="1053" 
d="M613 447q0 -90 -37 -191.5t-97 -160.5q-53 -52 -113 -73.5t-157 -21.5h-174l148 691h154q87 0 135.5 -12.5t81.5 -48.5q59 -64 59 -183zM489 444q0 71 -22 106q-32 50 -116 50h-72l-107 -506h71q107 0 159 72q43 61 65 143t22 135zM1070 506l-3 -78l-318 -349h247
l-39 -79h-360l5 73l328 353h-223l8 80h355zM1105 691l-203 -135l-151 135l47 60l121 -80l153 80z" />
    <glyph glyph-name="uni01C6" unicode="&#x1c6;" horiz-adv-x="979" 
d="M578 718l-115 -542q-16 -79 -16 -114q0 -30 11 -49l-94 -22q-19 22 -19 63v10q-60 -74 -149 -74q-149 0 -149 174q0 77 29.5 152t81.5 127q73 71 169 71q67 0 97 -16q0 13 13 68l36 170zM402 405q-30 20 -79 20q-55 0 -92 -46q-30 -36 -49.5 -99.5t-19.5 -117.5
q0 -84 61 -84q32 0 68.5 25.5t59.5 64.5zM996 506l-3 -78l-318 -349h247l-39 -79h-360l5 73l328 353h-223l8 80h355zM1031 691l-203 -135l-151 135l47 60l121 -80l153 80z" />
    <glyph glyph-name="uni01C7" unicode="&#x1c7;" horiz-adv-x="761" 
d="M431 96l-39 -96h-357l148 691h116l-126 -595h258zM771 691l-120 -564q-8 -37 -13.5 -57.5t-16.5 -51t-25.5 -50.5t-36.5 -43t-54 -41t-74 -34l-40 65q69 36 95 74t46 129l121 573h118z" />
    <glyph glyph-name="uni01C8" unicode="&#x1c8;" horiz-adv-x="742" 
d="M431 96l-39 -96h-357l148 691h116l-126 -595h258zM720 518l-107 -504q-23 -105 -66 -152q-40 -44 -112 -72l-36 66q42 18 67 54q24 34 38 103l103 486zM768 658q0 -31 -21.5 -53t-52.5 -22q-30 0 -51.5 20.5t-21.5 51.5t22 53t53 22q29 0 50.5 -21t21.5 -51z" />
    <glyph glyph-name="uni01C9" unicode="&#x1c9;" horiz-adv-x="550" 
d="M273 742q4 -15 4 -46q0 -64 -13 -123l-87 -408q-12 -53 -12 -71q0 -27 24 -27q12 0 17 2l6 -67q-33 -13 -74 -13q-43 0 -65.5 21t-22.5 57q0 24 10 71l89 417q14 65 14 105q0 26 -6 44zM528 518l-107 -504q-23 -105 -66 -152q-40 -44 -112 -72l-36 66q42 18 67 54
q24 34 38 103l103 486zM576 658q0 -31 -21.5 -53t-52.5 -22q-30 0 -51.5 20.5t-21.5 51.5t22 53t53 22q29 0 50.5 -21t21.5 -51z" />
    <glyph glyph-name="uni01CA" unicode="&#x1ca;" horiz-adv-x="933" 
d="M654 691l-147 -691h-119l-92 333q-42 157 -46 202q-9 -73 -33 -194l-68 -341h-114l148 691h127l101 -348q25 -86 35 -175q8 83 32 200l65 323h111zM943 691l-120 -564q-8 -37 -13.5 -57.5t-16.5 -51t-25.5 -50.5t-36.5 -43t-54 -41t-74 -34l-40 65q69 36 95 74t46 129
l121 573h118z" />
    <glyph glyph-name="uni01CB" unicode="&#x1cb;" horiz-adv-x="914" 
d="M654 691l-147 -691h-119l-92 333q-42 157 -46 202q-9 -73 -33 -194l-68 -341h-114l148 691h127l101 -348q25 -86 35 -175q8 83 32 200l65 323h111zM892 518l-107 -504q-23 -105 -66 -152q-40 -44 -112 -72l-36 66q42 18 67 54q24 34 38 103l103 486zM940 658
q0 -31 -21.5 -53t-52.5 -22q-30 0 -51.5 20.5t-21.5 51.5t22 53t53 22q29 0 50.5 -21t21.5 -51z" />
    <glyph glyph-name="uni01CC" unicode="&#x1cc;" horiz-adv-x="826" 
d="M505 417q0 -34 -5 -55l-77 -362h-109l71 335q7 31 7 49q0 40 -40 40q-67 0 -139 -94l-70 -330h-108l74 350q10 44 10 77q0 26 -8 53l102 42q12 -27 12 -63q0 -15 -3 -32q74 90 182 90q47 0 74 -27t27 -73zM804 518l-107 -504q-23 -105 -66 -152q-40 -44 -112 -72l-36 66
q42 18 67 54q24 34 38 103l103 486zM852 658q0 -31 -21.5 -53t-52.5 -22q-30 0 -51.5 20.5t-21.5 51.5t22 53t53 22q29 0 50.5 -21t21.5 -51z" />
    <glyph glyph-name="uni01F1" unicode="&#x1f1;" horiz-adv-x="1165" 
d="M613 447q0 -90 -37 -191.5t-97 -160.5q-53 -52 -113 -73.5t-157 -21.5h-174l148 691h154q87 0 135.5 -12.5t81.5 -48.5q59 -64 59 -183zM489 444q0 71 -22 106q-32 50 -116 50h-72l-107 -506h71q107 0 159 72q43 61 65 143t22 135zM1213 691l-9 -86l-365 -456
q-4 -5 -49 -55q22 2 63 2h248l-39 -96h-429l12 83l368 451q37 45 56 64q-18 -2 -71 -2h-228l37 95h406z" />
    <glyph glyph-name="uni01F2" unicode="&#x1f2;" horiz-adv-x="1053" 
d="M613 447q0 -90 -37 -191.5t-97 -160.5q-53 -52 -113 -73.5t-157 -21.5h-174l148 691h154q87 0 135.5 -12.5t81.5 -48.5q59 -64 59 -183zM489 444q0 71 -22 106q-32 50 -116 50h-72l-107 -506h71q107 0 159 72q43 61 65 143t22 135zM1070 506l-3 -78l-318 -349h247
l-39 -79h-360l5 73l328 353h-223l8 80h355z" />
    <glyph glyph-name="uni01F3" unicode="&#x1f3;" horiz-adv-x="979" 
d="M578 718l-115 -542q-16 -79 -16 -114q0 -30 11 -49l-94 -22q-19 22 -19 63v10q-60 -74 -149 -74q-149 0 -149 174q0 77 29.5 152t81.5 127q73 71 169 71q67 0 97 -16q0 13 13 68l36 170zM402 405q-30 20 -79 20q-55 0 -92 -46q-30 -36 -49.5 -99.5t-19.5 -117.5
q0 -84 61 -84q32 0 68.5 25.5t59.5 64.5zM996 506l-3 -78l-318 -349h247l-39 -79h-360l5 73l328 353h-223l8 80h355z" />
    <glyph glyph-name="Aringacute" unicode="&#x1fa;" horiz-adv-x="583" 
d="M533 0h-121l-16 185h-227l-96 -185h-123l376 692h132zM387 280l-13 160q-9 96 -9 134q-1 -1 -9.5 -19.5t-21.5 -46t-22 -45.5l-94 -183h169zM499 819q0 -44 -31 -75t-75 -31t-75 31t-31 75t31 75t75 31t75 -31t31 -75zM443 819q0 21 -14.5 35.5t-35.5 14.5t-35.5 -14.5
t-14.5 -35.5t14.5 -35.5t35.5 -14.5t35.5 14.5t14.5 35.5zM563 1026l-233 -101l-34 63l221 131z" />
    <glyph glyph-name="aringacute" unicode="&#x1fb;" horiz-adv-x="542" 
d="M511 480q-19 -59 -30 -116l-41 -200q-7 -37 -7 -52q0 -34 25 -62l-90 -67q-38 31 -38 83q-57 -78 -152 -78q-61 0 -96.5 41t-35.5 120q0 83 29 159.5t78 127.5q81 82 201 82q99 0 157 -38zM388 421q-17 10 -47 10q-36 0 -62 -11.5t-54 -44.5q-32 -38 -49 -101.5
t-17 -121.5q0 -41 13.5 -58.5t41.5 -17.5q33 0 67.5 28.5t52.5 68.5zM464 659q0 -44 -31 -75t-75 -31t-75 31t-31 75t31 75t75 31t75 -31t31 -75zM408 659q0 21 -14.5 35.5t-35.5 14.5t-35.5 -14.5t-14.5 -35.5t14.5 -35.5t35.5 -14.5t35.5 14.5t14.5 35.5zM534 866
l-233 -101l-34 63l221 131z" />
    <glyph glyph-name="AEacute" unicode="&#x1fc;" horiz-adv-x="806" 
d="M870 691l-35 -94h-251l-40 -189h215l-21 -95h-213l-46 -214h283l-22 -99h-398l39 185h-203l-148 -185h-135l565 691h410zM459 548l-206 -268h148zM785 822l-233 -101l-34 63l221 131z" />
    <glyph glyph-name="aeacute" unicode="&#x1fd;" horiz-adv-x="786" 
d="M764 382q0 -60 -53 -110q-63 -58 -207 -58q-32 0 -62 3q-6 -30 -6 -52q0 -46 24.5 -69.5t67.5 -23.5q76 0 145 55l32 -68q-87 -72 -205 -72q-98 0 -148 73q-67 -76 -171 -76q-70 0 -107.5 36t-37.5 91q0 86 76 140t207 54q24 0 37 -1l9 35q6 22 6 46q0 43 -58 43
q-74 0 -164 -57l-34 77q123 70 232 70q78 0 114 -56q65 56 146 56q72 0 114.5 -34t42.5 -102zM339 228q-11 1 -32 1q-152 0 -152 -103q0 -28 16 -45t43 -17q52 0 86 42q18 22 39 122zM653 376q0 60 -64 60q-44 0 -78.5 -36t-50.5 -106q2 0 18 -0.5t26 -0.5q91 0 127 33
q22 20 22 50zM601 660l-233 -101l-34 63l221 131z" />
    <glyph glyph-name="Oslashacute" unicode="&#x1fe;" horiz-adv-x="693" 
d="M724 725l-93 -113q40 -62 40 -153q0 -130 -55 -249t-147 -177q-71 -45 -175 -45q-86 0 -141 39l-94 -114l-52 41l99 122q-39 59 -39 159q0 123 47 227.5t115 164.5q84 74 215 74q87 0 140 -40l86 105zM515 577q-32 35 -92 35q-86 0 -139 -70q-41 -54 -67.5 -147.5
t-26.5 -180.5q0 -4 3 -31zM544 476q0 18 -2 26l-322 -392q31 -34 94 -34q73 0 124 55q45 50 75 154t31 191zM671 822l-233 -101l-34 63l221 131z" />
    <glyph glyph-name="oslashacute" unicode="&#x1ff;" horiz-adv-x="551" 
d="M554 547l-78 -96q31 -45 31 -112q0 -147 -78 -250t-212 -103q-60 0 -101 26l-73 -90l-46 37l76 92q-32 48 -32 118q0 148 81 247.5t206 99.5q62 0 104 -25l75 93zM367 412q-20 21 -56 21q-47 0 -83 -43.5t-52 -99t-16 -108.5v-26zM388 326q0 11 -1 16q-19 -24 -113 -138
t-95 -114q20 -21 58 -21q66 0 106.5 78t44.5 179zM509 660l-233 -101l-34 63l221 131z" />
    <glyph glyph-name="Scommaaccent" unicode="&#x218;" horiz-adv-x="592" 
d="M604 644l-66 -81q-68 51 -153 51q-56 0 -94.5 -29t-38.5 -71q0 -31 16.5 -51t57.5 -35l77 -28q126 -46 126 -164q0 -107 -85.5 -178.5t-227.5 -71.5q-120 0 -211 59l59 89q83 -53 173 -53q73 0 116.5 35t43.5 90q0 33 -18.5 55t-63.5 39l-69 26q-62 23 -92 58.5t-30 94.5
q0 97 80.5 163.5t197.5 66.5q124 0 202 -65zM295 -120q0 -59 -56 -109q-37 -32 -88 -48l-26 41q59 23 68 61q-20 12 -29 23.5t-9 33.5q0 29 20 48t54 19q30 0 48 -19.5t18 -49.5z" />
    <glyph glyph-name="scommaaccent" unicode="&#x219;" horiz-adv-x="479" 
d="M454 480l-44 -77q-61 35 -121 35q-42 0 -67 -16t-25 -46q0 -39 54 -59l60 -23q103 -40 103 -120q0 -81 -63 -135t-171 -54q-103 0 -187 53l44 81q72 -50 158 -50q41 0 69 21t28 52q0 24 -14.5 38t-49.5 28l-58 22q-95 36 -95 121q0 71 58 121.5t163 50.5q89 0 158 -43z
M246 -120q0 -59 -56 -109q-37 -32 -88 -48l-26 41q59 23 68 61q-20 12 -29 23.5t-9 33.5q0 29 20 48t54 19q30 0 48 -19.5t18 -49.5z" />
    <glyph glyph-name="uni021A" unicode="&#x21a;" horiz-adv-x="486" 
d="M597 691l-36 -95h-174l-126 -596h-116l127 596h-176l20 95h481zM246 -119q0 -59 -56 -109q-37 -32 -88 -48l-26 41q59 23 68 61q-20 12 -29 23.5t-9 33.5q0 29 20 48t54 19q30 0 48 -19.5t18 -49.5z" />
    <glyph glyph-name="uni021B" unicode="&#x21b;" horiz-adv-x="314" 
d="M371 506l-41 -78h-97l-57 -272q-6 -29 -6 -49q0 -23 11 -32.5t36 -9.5q28 0 51 10v-68q-52 -21 -105 -21q-50 0 -78 23t-28 62q0 34 7 69l61 288h-57l16 78h57q16 73 33 123l117 27q-27 -83 -41 -150h121zM200 -119q0 -59 -56 -109q-37 -32 -88 -48l-26 41q59 23 68 61
q-20 12 -29 23.5t-9 33.5q0 29 20 48t54 19q30 0 48 -19.5t18 -49.5z" />
    <glyph glyph-name="uni0237" unicode="&#x237;" horiz-adv-x="271" 
d="M249 518l-107 -504q-23 -105 -66 -152q-40 -44 -112 -72l-36 66q42 18 67 54q24 34 38 103l103 486z" />
    <glyph glyph-name="uni0259" unicode="&#x259;" horiz-adv-x="509" 
d="M13 122q0 62 45 105q66 64 215 64q16 0 37.5 -2t23.5 -2q6 30 6 53q0 46 -24.5 69.5t-67.5 23.5q-73 0 -143 -55l-34 68q90 72 206 72q83 0 131.5 -48.5t48.5 -136.5q0 -76 -30.5 -151.5t-82.5 -125.5q-72 -69 -171 -69q-75 0 -117.5 34.5t-42.5 100.5zM124 129
q0 -60 63 -60q44 0 78.5 35.5t50.5 104.5q-2 0 -18 1.5t-26 1.5q-94 0 -127 -33q-21 -21 -21 -50z" />
    <glyph glyph-name="uni02BB" unicode="&#x2bb;" horiz-adv-x="273" 
d="M320 663q-34 -13 -58 -33.5t-24 -36.5q0 -10 16 -20q32 -19 32 -64q0 -36 -24 -59.5t-59 -23.5q-38 0 -61.5 25t-23.5 69q0 71 65 133q46 44 104 61z" />
    <glyph glyph-name="afii57929" unicode="&#x2bc;" horiz-adv-x="273" 
d="M297 611q0 -71 -65 -133q-46 -44 -104 -61l-33 51q34 13 58 33.5t24 36.5q0 10 -16 20q-32 19 -32 64q0 36 24 59.5t59 23.5q38 0 61.5 -25t23.5 -69z" />
    <glyph glyph-name="circumflex" unicode="&#x2c6;" horiz-adv-x="384" 
d="M448 616l-47 -60l-121 81l-153 -81l-33 60l203 135z" />
    <glyph glyph-name="caron" unicode="&#x2c7;" horiz-adv-x="384" 
d="M467 691l-203 -135l-151 135l47 60l121 -80l153 80z" />
    <glyph glyph-name="breve" unicode="&#x2d8;" horiz-adv-x="370" 
d="M452 693q-14 -16 -40.5 -39t-72.5 -49.5t-81 -26.5q-27 0 -53.5 14.5t-46 36.5t-30.5 37.5t-17 26.5l46 44q10 -12 24.5 -25t43 -26.5t57.5 -13.5q54 0 149 65z" />
    <glyph glyph-name="dotaccent" unicode="&#x2d9;" horiz-adv-x="178" 
d="M251 653q0 -31 -21 -52.5t-52 -21.5q-30 0 -51.5 21.5t-21.5 51.5q0 31 21.5 52.5t52.5 21.5q30 0 51 -21.5t21 -51.5z" />
    <glyph glyph-name="ring" unicode="&#x2da;" horiz-adv-x="246" 
d="M319 659q0 -44 -31 -75t-75 -31t-75 31t-31 75t31 75t75 31t75 -31t31 -75zM263 659q0 21 -14.5 35.5t-35.5 14.5t-35.5 -14.5t-14.5 -35.5t14.5 -35.5t35.5 -14.5t35.5 14.5t14.5 35.5z" />
    <glyph glyph-name="ogonek" unicode="&#x2db;" horiz-adv-x="239" 
d="M126 -174q-48 -24 -90 -24t-64.5 19t-22.5 50q0 6 2 18q9 44 40 79.5t58 53.5l54 -35q-73 -57 -73 -97q0 -23 23 -23q22 0 59 15z" />
    <glyph glyph-name="tilde" unicode="&#x2dc;" horiz-adv-x="386" 
d="M461 650q-34 -34 -64.5 -49.5t-72.5 -15.5q-28 0 -61 19t-60 19q-15 0 -29 -6t-22 -11.5t-25 -20.5l-26 62q35 34 63.5 49.5t67.5 15.5q29 0 63 -19.5t63 -19.5q15 0 29 5.5t22.5 11.5t24.5 20z" />
    <glyph glyph-name="hungarumlaut" unicode="&#x2dd;" horiz-adv-x="425" 
d="M300 733l-162 -209l-59 28l131 221zM507 714l-190 -186l-51 40l163 202z" />
    <glyph glyph-name="gravecomb" unicode="&#x300;" 
d="M370 622l-37 -62l-219 100l56 94z" />
    <glyph glyph-name="acutecomb" unicode="&#x301;" 
d="M393 660l-233 -101l-34 63l221 131z" />
    <glyph glyph-name="uni0302" unicode="&#x302;" 
d="M448 616l-47 -60l-121 81l-153 -81l-33 60l203 135z" />
    <glyph glyph-name="tildecomb" unicode="&#x303;" 
d="M461 650q-34 -34 -64.5 -49.5t-72.5 -15.5q-28 0 -61 19t-60 19q-15 0 -29 -6t-22 -11.5t-25 -20.5l-26 62q35 34 63.5 49.5t67.5 15.5q29 0 63 -19.5t63 -19.5q15 0 29 5.5t22.5 11.5t24.5 20z" />
    <glyph glyph-name="uni0304" unicode="&#x304;" 
d="M421 741l-14 -68h-297l14 68h297z" />
    <glyph glyph-name="uni0306" unicode="&#x306;" 
d="M83 671q-14 -16 -40.5 -39t-72.5 -49.5t-81 -26.5q-27 0 -53.5 14.5t-46 36.5t-30.5 37.5t-17 26.5l46 44q10 -12 24.5 -25t43 -26.5t57.5 -13.5q54 0 149 65z" />
    <glyph glyph-name="uni0307" unicode="&#x307;" 
d="M251 653q0 -31 -21 -52.5t-52 -21.5q-30 0 -51.5 21.5t-21.5 51.5q0 31 21.5 52.5t52.5 21.5q30 0 51 -21.5t21 -51.5z" />
    <glyph glyph-name="uni0308" unicode="&#x308;" 
d="M37 629q0 -28 -19.5 -48t-47.5 -20t-48 19.5t-20 48.5q0 28 20 47.5t48 19.5t47.5 -19.5t19.5 -47.5zM-172 629q0 -29 -20 -48.5t-48 -19.5t-47.5 20t-19.5 48t20 47.5t48 19.5t47.5 -19.5t19.5 -47.5z" />
    <glyph glyph-name="uni030A" unicode="&#x30a;" 
d="M319 659q0 -44 -31 -75t-75 -31t-75 31t-31 75t31 75t75 31t75 -31t31 -75zM263 659q0 21 -14.5 35.5t-35.5 14.5t-35.5 -14.5t-14.5 -35.5t14.5 -35.5t35.5 -14.5t35.5 14.5t14.5 35.5z" />
    <glyph glyph-name="uni030B" unicode="&#x30b;" 
d="M300 733l-162 -209l-59 28l131 221zM507 714l-190 -186l-51 40l163 202z" />
    <glyph glyph-name="uni030C" unicode="&#x30c;" 
d="M467 691l-203 -135l-151 135l47 60l121 -80l153 80z" />
    <glyph glyph-name="uni0312" unicode="&#x312;" 
d="M3 648q0 59 56 109q37 32 88 48l26 -41q-59 -23 -68 -61q20 -12 29 -23.5t9 -33.5q0 -29 -20 -48t-54 -19q-30 0 -48 19.5t-18 49.5z" />
    <glyph glyph-name="uni0313" unicode="&#x313;" 
d="M-9 621q0 -59 -56 -109q-37 -32 -88 -48l-26 41q59 23 68 61q-20 12 -29 23.5t-9 33.5q0 29 20 48t54 19q30 0 48 -19.5t18 -49.5z" />
    <glyph glyph-name="uni0326" unicode="&#x326;" 
d="M168 -100q0 -59 -56 -109q-37 -32 -88 -48l-26 41q59 23 68 61q-20 12 -29 23.5t-9 33.5q0 29 20 48t54 19q30 0 48 -19.5t18 -49.5z" />
    <glyph glyph-name="uni0327" unicode="&#x327;" 
d="M140 -95v-7q0 -38 -34.5 -67t-87.5 -29q-43 0 -80 24l36 55q32 -15 54 -15q14 0 25 8t11 21q0 19 -26 19q-8 0 -28 -4l-8 15l43 87l64 -6l-22 -42q53 -8 53 -59z" />
    <glyph glyph-name="uni0328" unicode="&#x328;" 
d="M126 -174q-48 -24 -90 -24t-64.5 19t-22.5 50q0 6 2 18q9 44 40 79.5t58 53.5l54 -35q-73 -57 -73 -97q0 -23 23 -23q22 0 59 15z" />
    <glyph glyph-name="uni037E" unicode="&#x37e;" horiz-adv-x="326" 
d="M205 49q0 -71 -65 -133q-47 -44 -104 -61l-33 51q36 14 60 33.5t24 38.5q0 8 -18 18q-32 19 -32 64q0 36 24 59.5t59 23.5q38 0 61.5 -25t23.5 -69zM263 370q0 -33 -23 -56t-55 -23q-33 0 -55.5 23t-22.5 56q0 32 22.5 55t54.5 23q33 0 56 -23t23 -55z" />
    <glyph glyph-name="tonos" unicode="&#x384;" horiz-adv-x="339" 
d="M314 704l-156 -145l-46 41l129 166z" />
    <glyph glyph-name="dieresistonos" unicode="&#x385;" horiz-adv-x="536" 
d="M479 744l-156 -145l-46 41l129 166zM542 629q0 -28 -19.5 -48t-47.5 -20q-29 0 -48.5 19.5t-19.5 48.5q0 28 20 47.5t48 19.5t47.5 -19.5t19.5 -47.5zM263 629q0 -29 -19.5 -48.5t-48.5 -19.5q-28 0 -47.5 20t-19.5 48t20 47.5t48 19.5t47.5 -19.5t19.5 -47.5z" />
    <glyph glyph-name="Alphatonos" unicode="&#x386;" horiz-adv-x="583" 
d="M157 647l-156 -145l-46 41l129 166zM533 0h-121l-16 185h-227l-96 -185h-123l376 692h132zM387 280l-13 160q-9 96 -9 134q-1 -1 -9.5 -19.5t-21.5 -46t-22 -45.5l-94 -183h169z" />
    <glyph glyph-name="anoteleia" unicode="&#x387;" horiz-adv-x="311" 
d="M243 277q0 -33 -23 -56t-56 -23t-56 23t-23 56t23 56t56 23t56 -23t23 -56z" />
    <glyph glyph-name="Epsilontonos" unicode="&#x388;" horiz-adv-x="505" 
d="M569 691l-35 -94h-256l-39 -189h213l-20 -95h-213l-45 -214h279l-21 -99h-397l148 691h386zM87 647l-156 -145l-46 41l129 166z" />
    <glyph glyph-name="Etatonos" unicode="&#x389;" horiz-adv-x="640" 
d="M651 691l-148 -691h-115l68 320h-239l-68 -320h-114l148 691h113l-59 -277h238l60 277h116zM87 648l-156 -145l-46 41l129 166z" />
    <glyph glyph-name="Iotatonos" unicode="&#x38a;" horiz-adv-x="289" 
d="M299 691l-147 -691h-117l148 691h116zM87 647l-156 -145l-46 41l129 166z" />
    <glyph glyph-name="Omicrontonos" unicode="&#x38c;" horiz-adv-x="694" 
d="M672 459q0 -131 -55.5 -251.5t-146.5 -173.5q-79 -46 -175 -46q-115 0 -171.5 66t-56.5 181q0 124 47 229t117 163q88 74 214 74q108 0 167.5 -64t59.5 -178zM544 479q0 133 -120 133q-86 0 -139 -70q-41 -54 -67 -147.5t-26 -180.5q0 -138 123 -138q73 0 124 55
q45 50 75 156t30 192zM117 647l-156 -145l-46 41l129 166z" />
    <glyph glyph-name="Upsilontonos" unicode="&#x38e;" horiz-adv-x="550" 
d="M651 691l-310 -413l-60 -278h-119l60 280l-131 411h134l59 -221q13 -50 17 -84q5 7 15 22.5l20 31t20 29.5l156 222h139zM67 647l-156 -145l-46 41l129 166z" />
    <glyph glyph-name="Omegatonos" unicode="&#x38f;" horiz-adv-x="711" 
d="M687 465q0 -107 -57 -209t-144 -160h127l-39 -96h-232l9 84q86 53 147 165t61 218q0 144 -129 144q-88 0 -150 -74q-39 -47 -60 -114.5t-21 -132.5q0 -62 21.5 -117.5t61.5 -87.5l-27 -85h-221l11 96h109q-81 75 -81 200q0 93 39 178.5t108 143.5q102 84 228 84
q113 0 176 -63.5t63 -173.5zM117 647l-156 -145l-46 41l129 166z" />
    <glyph glyph-name="iotadieresistonos" unicode="&#x390;" horiz-adv-x="277" 
d="M232 436q0 -37 -11 -92l-28 -130q-20 -91 -20 -114q0 -33 22 -33q12 0 17 2l6 -68q-31 -12 -73 -12q-40 0 -64.5 19.5t-24.5 58.5q0 24 11 72l43 198q11 51 11 86q0 32 -8 57l104 42q15 -32 15 -86zM354 744l-156 -145l-46 41l129 166zM417 629q0 -28 -19.5 -48
t-47.5 -20t-48 19.5t-20 48.5q0 28 20 47.5t48 19.5t47.5 -19.5t19.5 -47.5zM138 629q0 -29 -20 -48.5t-48 -19.5t-47.5 20t-19.5 48t20 47.5t48 19.5t47.5 -19.5t19.5 -47.5z" />
    <glyph glyph-name="Alpha" unicode="&#x391;" horiz-adv-x="583" 
d="M533 0h-121l-16 185h-227l-96 -185h-123l376 692h132zM387 280l-13 160q-9 96 -9 134q-1 -1 -9.5 -19.5t-21.5 -46t-22 -45.5l-94 -183h169z" />
    <glyph glyph-name="Beta" unicode="&#x392;" horiz-adv-x="600" 
d="M593 541q0 -59 -38 -106.5t-113 -68.5q53 -10 81.5 -48t28.5 -91q0 -40 -19.5 -83.5t-55.5 -77.5q-40 -36 -88.5 -51t-133.5 -15h-220l148 691h216q96 0 145 -39.5t49 -110.5zM426 228q0 43 -24.5 63t-84.5 20h-102l-46 -217h110q55 0 94 27q23 16 38 45.5t15 61.5z
M467 518q0 39 -22 57.5t-75 18.5h-96l-39 -188h100q59 0 89 24q43 34 43 88z" />
    <glyph glyph-name="Gamma" unicode="&#x393;" horiz-adv-x="422" 
d="M545 691l-36 -96h-229l-126 -595h-118l146 691h363z" />
    <glyph glyph-name="uni0394" unicode="&#x394;" horiz-adv-x="598" 
d="M549 91l-23 -91h-538v81l354 611h119zM428 95l-43 321q-3 23 -8.5 78.5t-4.5 63.5q-6 -18 -59 -114l-194 -349h309z" />
    <glyph glyph-name="Epsilon" unicode="&#x395;" horiz-adv-x="505" 
d="M569 691l-35 -94h-256l-39 -189h213l-20 -95h-213l-45 -214h279l-21 -99h-397l148 691h386z" />
    <glyph glyph-name="Zeta" unicode="&#x396;" horiz-adv-x="531" 
d="M579 691l-9 -86l-365 -456q-4 -5 -49 -55q22 2 63 2h248l-39 -96h-429l12 83l368 451q37 45 56 64q-18 -2 -71 -2h-228l37 95h406z" />
    <glyph glyph-name="Eta" unicode="&#x397;" horiz-adv-x="640" 
d="M651 691l-148 -691h-115l68 320h-239l-68 -320h-114l148 691h113l-59 -277h238l60 277h116z" />
    <glyph glyph-name="Theta" unicode="&#x398;" horiz-adv-x="702" 
d="M680 459q0 -131 -56 -251t-150 -175q-75 -45 -175 -45q-116 0 -174 66.5t-58 180.5q0 124 48.5 228.5t118.5 163.5q87 75 215 75q109 0 170 -64.5t61 -178.5zM528 313h-327q-9 -51 -9 -98q0 -138 127 -138q77 0 125 54q52 57 84 182zM552 479q0 62 -30.5 97t-92.5 35
q-87 0 -140 -69q-39 -53 -65 -134h323q5 42 5 71z" />
    <glyph glyph-name="Iota" unicode="&#x399;" horiz-adv-x="288" 
d="M299 691l-147 -691h-117l148 691h116z" />
    <glyph glyph-name="Kappa" unicode="&#x39a;" horiz-adv-x="587" 
d="M231 367l307 334l126 -20l-307 -318l181 -358l-138 -12zM299 691l-147 -691h-117l147 691h117z" />
    <glyph glyph-name="Lambda" unicode="&#x39b;" horiz-adv-x="554" 
d="M500 0h-122l-29 378q-10 118 -8 192q-52 -124 -72 -164l-203 -406h-122l361 692h132z" />
    <glyph glyph-name="Mu" unicode="&#x39c;" horiz-adv-x="825" 
d="M797 691l-86 -691h-112l59 428q11 78 19 114q-28 -63 -49 -105l-219 -437h-98l-25 418q-5 73 -4 128q-7 -32 -34 -129l-119 -417h-114l210 691h152l23 -391q4 -59 1 -115q25 63 49 113l193 393h154z" />
    <glyph glyph-name="Nu" unicode="&#x39d;" horiz-adv-x="644" 
d="M654 691l-147 -691h-119l-92 333q-42 157 -46 202q-9 -73 -33 -194l-68 -341h-114l148 691h127l101 -348q25 -86 35 -175q8 83 32 200l65 323h111z" />
    <glyph glyph-name="Xi" unicode="&#x39e;" horiz-adv-x="531" 
d="M485 0h-451l27 107h424v-107zM590 691l-26 -101h-417v101h443zM520 413l-26 -101h-381l25 101h382z" />
    <glyph glyph-name="Omicron" unicode="&#x39f;" horiz-adv-x="694" 
d="M672 459q0 -131 -55.5 -251.5t-146.5 -173.5q-79 -46 -175 -46q-115 0 -171.5 66t-56.5 181q0 124 47 229t117 163q88 74 214 74q108 0 167.5 -64t59.5 -178zM544 479q0 133 -120 133q-86 0 -139 -70q-41 -54 -67 -147.5t-26 -180.5q0 -138 123 -138q73 0 124 55
q45 50 75 156t30 192z" />
    <glyph glyph-name="Pi" unicode="&#x3a0;" horiz-adv-x="631" 
d="M641 691l-146 -691h-117l127 595h-229l-127 -595h-113l146 691h459z" />
    <glyph glyph-name="Rho" unicode="&#x3a1;" horiz-adv-x="571" 
d="M596 532q0 -149 -115 -222q-76 -47 -180 -47h-94l-56 -263h-116l148 691h180q117 0 170 -36q63 -43 63 -123zM472 509q0 88 -107 88h-87l-51 -240h90q74 0 107 35q48 50 48 117z" />
    <glyph glyph-name="Sigma" unicode="&#x3a3;" horiz-adv-x="518" 
d="M581 691l-39 -96h-205q-54 0 -66 3q10 -10 37 -58l94 -168l-203 -235q-8 -9 -42 -43q36 3 60 3h243l-40 -97h-418l8 80l259 291l-132 236l34 84h410z" />
    <glyph glyph-name="Tau" unicode="&#x3a4;" horiz-adv-x="486" 
d="M597 691l-36 -95h-174l-126 -596h-116l127 596h-176l20 95h481z" />
    <glyph glyph-name="Upsilon" unicode="&#x3a5;" horiz-adv-x="550" 
d="M651 691l-310 -413l-60 -278h-119l60 280l-131 411h134l59 -221q13 -50 17 -84q5 7 15 22.5l20 31t20 29.5l156 222h139z" />
    <glyph glyph-name="Phi" unicode="&#x3a6;" horiz-adv-x="779" 
d="M756 407q0 -97 -50 -171t-128 -113t-173 -47l-17 -76h-115l16 76q-120 10 -177.5 68t-57.5 145q0 144 102.5 234.5t249.5 99.5l14 68h116l-15 -68q122 -9 178.5 -69t56.5 -147zM386 532q-96 -15 -151 -77t-55 -156q0 -113 128 -133zM626 402q0 109 -125 128l-77 -364
q96 14 149 77t53 159z" />
    <glyph glyph-name="Chi" unicode="&#x3a7;" horiz-adv-x="525" 
d="M611 691l-250 -328l139 -363h-134l-90 264l-192 -264h-145l295 372l-122 319h132l73 -218l156 218h138z" />
    <glyph glyph-name="Psi" unicode="&#x3a8;" horiz-adv-x="746" 
d="M787 691l-58 -271q-26 -122 -89 -184q-79 -77 -228 -82l-33 -154h-114l33 156q-99 3 -156 55.5t-57 133.5q0 39 8 75l58 271h114l-55 -262q-10 -48 -10 -72q0 -98 117 -113l95 447h114l-95 -447q105 16 151 89q22 37 35 96l56 262h114z" />
    <glyph glyph-name="uni03A9" unicode="&#x3a9;" horiz-adv-x="711" 
d="M687 465q0 -107 -57 -209t-144 -160h127l-39 -96h-232l9 84q86 53 147 165t61 218q0 144 -129 144q-88 0 -150 -74q-39 -47 -60 -114.5t-21 -132.5q0 -62 21.5 -117.5t61.5 -87.5l-27 -85h-221l11 96h109q-81 75 -81 200q0 93 39 178.5t108 143.5q102 84 228 84
q113 0 176 -63.5t63 -173.5z" />
    <glyph glyph-name="Iotadieresis" unicode="&#x3aa;" horiz-adv-x="288" 
d="M299 691l-147 -691h-117l148 691h116zM424 793q0 -28 -19.5 -48t-47.5 -20q-29 0 -48.5 19.5t-19.5 48.5q0 28 20 47.5t48 19.5t47.5 -19.5t19.5 -47.5zM215 793q0 -29 -19.5 -48.5t-48.5 -19.5q-28 0 -47.5 20t-19.5 48t20 47.5t48 19.5t47.5 -19.5t19.5 -47.5z" />
    <glyph glyph-name="Upsilondieresis" unicode="&#x3ab;" horiz-adv-x="550" 
d="M651 691l-310 -413l-60 -278h-119l60 280l-131 411h134l59 -221q13 -50 17 -84q5 7 15 22.5l20 31t20 29.5l156 222h139zM550 793q0 -28 -19.5 -48t-47.5 -20q-29 0 -48.5 19.5t-19.5 48.5q0 28 20 47.5t48 19.5t47.5 -19.5t19.5 -47.5zM341 793q0 -29 -19.5 -48.5
t-48.5 -19.5q-28 0 -47.5 20t-19.5 48t20 47.5t48 19.5t47.5 -19.5t19.5 -47.5z" />
    <glyph glyph-name="alphatonos" unicode="&#x3ac;" horiz-adv-x="542" 
d="M511 480q-19 -59 -30 -116l-41 -200q-7 -37 -7 -52q0 -34 25 -62l-90 -67q-38 31 -38 83q-57 -78 -152 -78q-61 0 -96.5 41t-35.5 120q0 83 29 159.5t78 127.5q81 82 201 82q99 0 157 -38zM388 421q-17 10 -47 10q-36 0 -62 -11.5t-54 -44.5q-32 -38 -49 -101.5
t-17 -121.5q0 -41 13.5 -58.5t41.5 -17.5q33 0 67.5 28.5t52.5 68.5zM515 704l-156 -145l-46 41l129 166z" />
    <glyph glyph-name="epsilontonos" unicode="&#x3ad;" horiz-adv-x="490" 
d="M503 455l-54 -68q-58 49 -135 49q-38 0 -67.5 -21t-29.5 -58q0 -47 79 -47h67l-17 -79h-63q-51 0 -88 -24.5t-37 -72.5q0 -28 24.5 -42.5t63.5 -14.5q87 0 169 52l33 -74q-108 -71 -242 -71q-76 0 -126 28.5t-50 91.5q0 60 38.5 106.5t98.5 61.5q-67 18 -67 78
q0 80 69 126.5t154 46.5q101 0 180 -68zM505 704l-156 -145l-46 41l129 166z" />
    <glyph glyph-name="etatonos" unicode="&#x3ae;" horiz-adv-x="555" 
d="M506 419q0 -29 -6 -54l-52 -241q-3 -14 -3 -21q0 -36 22 -36q13 0 18 2l5 -68q-31 -12 -72 -12q-43 0 -65.5 20.5t-22.5 56.5q0 22 11 73l43 197q7 29 7 49q0 39 -40 39q-65 0 -138 -94l-70 -330h-108l74 350q16 79 2 129l102 43q20 -45 10 -94q75 89 181 89
q47 0 74.5 -26t27.5 -72zM506 704l-156 -145l-46 41l129 166z" />
    <glyph glyph-name="iotatonos" unicode="&#x3af;" horiz-adv-x="277" 
d="M232 436q0 -37 -11 -92l-28 -130q-20 -91 -20 -114q0 -33 22 -33q12 0 17 2l6 -68q-31 -12 -73 -12q-40 0 -64.5 19.5t-24.5 58.5q0 24 11 72l43 198q11 51 11 86q0 32 -8 57l104 42q15 -32 15 -86zM360 704l-156 -145l-46 41l129 166z" />
    <glyph glyph-name="upsilondieresistonos" unicode="&#x3b0;" horiz-adv-x="544" 
d="M526 517l-76 -357q-18 -82 -77 -128t-156 -46q-80 0 -121 34t-41 93q0 19 5 44l73 341l113 20l-74 -345q-6 -28 -6 -42q0 -61 72 -61q44 0 71.5 29t37.5 75l69 321zM484 744l-156 -145l-46 41l129 166zM547 629q0 -28 -19.5 -48t-47.5 -20t-48 19.5t-20 48.5
q0 28 20 47.5t48 19.5t47.5 -19.5t19.5 -47.5zM268 629q0 -29 -20 -48.5t-48 -19.5t-47.5 20t-19.5 48t20 47.5t48 19.5t47.5 -19.5t19.5 -47.5z" />
    <glyph glyph-name="alpha" unicode="&#x3b1;" horiz-adv-x="542" 
d="M511 480q-19 -59 -30 -116l-41 -200q-7 -37 -7 -52q0 -34 25 -62l-90 -67q-38 31 -38 83q-57 -78 -152 -78q-61 0 -96.5 41t-35.5 120q0 83 29 159.5t78 127.5q81 82 201 82q99 0 157 -38zM388 421q-17 10 -47 10q-36 0 -62 -11.5t-54 -44.5q-32 -38 -49 -101.5
t-17 -121.5q0 -41 13.5 -58.5t41.5 -17.5q33 0 67.5 28.5t52.5 68.5z" />
    <glyph glyph-name="beta" unicode="&#x3b2;" horiz-adv-x="597" 
d="M562 574q0 -66 -38 -116.5t-100 -68.5q53 -13 80.5 -57.5t27.5 -97.5q0 -109 -82 -177.5t-195 -68.5q-59 0 -110 30l-42 -207l-114 -26l144 691q25 119 88.5 178t176.5 59q75 0 119.5 -39.5t44.5 -99.5zM451 561q0 71 -75 71q-103 0 -133 -144l-78 -377q36 -40 98 -40
q69 0 109.5 48.5t40.5 115.5q0 102 -129 102h-12l17 80h25q62 0 99.5 41t37.5 103z" />
    <glyph glyph-name="gamma" unicode="&#x3b3;" horiz-adv-x="468" 
d="M517 506l-287 -505q-16 -110 -40 -190l-110 -25q53 214 53 326q0 213 -26 295q-6 21 -33 21q-17 0 -30 -5l-7 70q50 25 91 25q56 0 77 -60q28 -79 28 -224q0 -12 -0.5 -34t-0.5 -32q28 63 35 77l132 261h118z" />
    <glyph glyph-name="delta" unicode="&#x3b4;" horiz-adv-x="543" 
d="M555 691l-37 -89h-172q157 -124 157 -270q0 -150 -78.5 -247t-208.5 -97q-84 0 -130 47t-46 133q0 83 27.5 155t88.5 122.5t145 54.5q-67 68 -123 101l36 90h341zM384 333q0 85 -76 85q-39 0 -69.5 -27t-47.5 -68.5t-25 -83.5t-8 -80q0 -87 78 -87q48 0 83 43.5t50 101
t15 116.5z" />
    <glyph glyph-name="epsilon" unicode="&#x3b5;" horiz-adv-x="490" 
d="M503 455l-54 -68q-58 49 -135 49q-38 0 -67.5 -21t-29.5 -58q0 -47 79 -47h67l-17 -79h-63q-51 0 -88 -24.5t-37 -72.5q0 -28 24.5 -42.5t63.5 -14.5q87 0 169 52l33 -74q-108 -71 -242 -71q-76 0 -126 28.5t-50 91.5q0 60 38.5 106.5t98.5 61.5q-67 18 -67 78
q0 80 69 126.5t154 46.5q101 0 180 -68z" />
    <glyph glyph-name="zeta" unicode="&#x3b6;" horiz-adv-x="466" 
d="M543 691l-24 -89q-53 -31 -110.5 -76.5t-113 -102t-91.5 -122t-36 -123.5q0 -69 80 -69h58q56 0 83 -24.5t27 -77.5q0 -41 -20 -83.5t-40.5 -67.5t-57.5 -64l-57 41q63 70 63 123q0 44 -51 44h-46q-74 0 -119.5 39t-45.5 105q0 64 32.5 133.5t84.5 128.5t107.5 106.5
t112.5 83.5h-236l30 95h370z" />
    <glyph glyph-name="eta" unicode="&#x3b7;" horiz-adv-x="555" 
d="M506 419q0 -29 -6 -54l-52 -241q-3 -14 -3 -21q0 -36 22 -36q13 0 18 2l5 -68q-31 -12 -72 -12q-43 0 -65.5 20.5t-22.5 56.5q0 22 11 73l43 197q7 29 7 49q0 39 -40 39q-65 0 -138 -94l-70 -330h-108l74 350q16 79 2 129l102 43q20 -45 10 -94q75 89 181 89
q47 0 74.5 -26t27.5 -72z" />
    <glyph glyph-name="theta" unicode="&#x3b8;" horiz-adv-x="563" 
d="M540 499q0 -60 -10.5 -126t-34.5 -135.5t-59.5 -124.5t-90.5 -90t-121 -35q-87 0 -127 56.5t-40 146.5q0 60 10.5 125.5t35 135t59.5 124.5t89.5 90.5t120.5 35.5q89 0 128.5 -56t39.5 -147zM396 318h-206q-21 -95 -21 -143q0 -107 71 -107q101 0 156 250zM429 519
q0 103 -72 103q-98 0 -150 -224h206q16 76 16 121z" />
    <glyph glyph-name="iota" unicode="&#x3b9;" horiz-adv-x="277" 
d="M227 436q0 -37 -11 -92l-28 -130q-20 -91 -20 -114q0 -33 22 -33q12 0 17 2l6 -68q-31 -12 -73 -12q-40 0 -64.5 19.5t-24.5 58.5q0 24 11 72l43 198q11 51 11 86q0 32 -8 57l104 42q15 -32 15 -86z" />
    <glyph glyph-name="kappa" unicode="&#x3ba;" horiz-adv-x="507" 
d="M545 495l-223 -215l145 -274l-124 -13l-134 287l218 234zM145 0h-110l71 337q19 91 4 143l104 42q15 -33 15 -86q0 -39 -11 -92z" />
    <glyph glyph-name="lambda" unicode="&#x3bb;" horiz-adv-x="520" 
d="M466 2q-46 -16 -71 -16q-79 0 -82 76l-11 233q-1 18 -1 110q-5 0 -5 -2q-22 -51 -50 -106l-161 -308l-108 19l192 342q51 90 84 157l38 -2l-6 71q-4 41 -16.5 61.5t-47.5 20.5q-24 0 -49 -9l-3 64q50 21 93 21q67 0 92 -41t31 -120l38 -483q1 -13 5 -18t16 -5q2 0 17 3z
" />
    <glyph glyph-name="uni03BC" unicode="&#x3bc;" horiz-adv-x="555" 
d="M527 516l-79 -374q-7 -37 -7 -51q0 -31 17 -54l-87 -54q-29 26 -32 63q-67 -61 -157 -61q-32 0 -47 15q0 -6 -5 -29l-35 -160l-112 -26l151 712l114 21l-73 -342q-7 -32 -7 -53q0 -20 8 -31q16 -21 49 -21q30 0 63.5 19.5t52.5 47.5l77 357z" />
    <glyph glyph-name="nu" unicode="&#x3bd;" horiz-adv-x="465" 
d="M526 505l-295 -507h-96l-76 502l112 17l33 -280q6 -49 6 -107q31 70 52 110l145 266z" />
    <glyph glyph-name="xi" unicode="&#x3be;" horiz-adv-x="485" 
d="M547 691l-27 -94h-145q-45 0 -82.5 -36.5t-37.5 -81.5q0 -33 23.5 -52t62.5 -19h102l-18 -87h-89q-68 0 -117.5 -39.5t-49.5 -103.5q0 -69 85 -69h65q111 0 111 -102q0 -41 -20 -83.5t-40.5 -67.5t-57.5 -64l-58 41q64 71 64 123q0 44 -52 44h-58q-75 0 -120.5 39.5
t-45.5 107.5q0 71 52.5 137.5t121.5 80.5q-80 31 -80 104q0 37 26.5 77t60.5 51h-89l29 94h384z" />
    <glyph glyph-name="omicron" unicode="&#x3bf;" horiz-adv-x="551" 
d="M507 340q0 -146 -78 -249t-212 -103q-84 0 -130 47t-46 134q0 148 81 248.5t206 100.5q86 0 132.5 -47t46.5 -131zM388 344q0 90 -77 90q-47 0 -83 -45.5t-52.5 -107t-16.5 -122.5q0 -88 78 -88q46 0 82 43.5t52.5 104.5t16.5 125z" />
    <glyph glyph-name="pi" unicode="&#x3c0;" horiz-adv-x="546" 
d="M592 506l-42 -80h-48l-56 -260q-13 -59 -13 -72q0 -27 25 -27q12 0 17 2l5 -68q-31 -12 -72 -12q-43 0 -65.5 20.5t-22.5 56.5q0 22 11 73l62 287h-151l-91 -426h-109l91 426h-62l17 80h504z" />
    <glyph glyph-name="rho" unicode="&#x3c1;" horiz-adv-x="551" 
d="M514 338q0 -82 -28 -159t-90.5 -133t-146.5 -56q-72 0 -113 40q0 -7 -8 -45l-37 -173l-115 -27l104 489q25 117 87 180.5t175 63.5q83 0 127.5 -48.5t44.5 -131.5zM395 346q0 38 -18.5 63.5t-54.5 25.5q-55 0 -86 -43t-44 -105l-31 -153q23 -48 96 -48q38 0 66.5 28.5
t43 72t21.5 84t7 75.5z" />
    <glyph glyph-name="sigma1" unicode="&#x3c2;" horiz-adv-x="445" 
d="M462 467l-61 -74q-37 37 -87 37q-52 0 -88 -51q-23 -33 -39.5 -86.5t-16.5 -91.5q0 -68 77 -94q26 -9 40 -14t33.5 -15.5t29 -20.5t17 -26t7.5 -35q0 -35 -21 -75.5t-43 -66.5t-56 -62l-57 41q65 72 65 117q0 10 -3.5 17.5t-14.5 14t-17.5 9.5t-25.5 9.5t-26 8.5
q-57 22 -92.5 58.5t-35.5 107.5q0 82 38 166t101 130q66 49 146 49q78 0 130 -53z" />
    <glyph glyph-name="sigma" unicode="&#x3c3;" horiz-adv-x="559" 
d="M600 506l-42 -79h-81q30 -39 30 -92q0 -145 -80 -246t-210 -101q-84 0 -130 47.5t-46 133.5q0 142 76.5 239.5t202.5 97.5h280zM387 345q0 47 -19.5 64.5t-56.5 17.5q-47 0 -83 -44.5t-52.5 -104t-16.5 -119.5q0 -87 77 -87q47 0 82.5 43.5t52 104.5t16.5 125z" />
    <glyph glyph-name="tau" unicode="&#x3c4;" horiz-adv-x="394" 
d="M444 506l-43 -80h-117l-58 -270q-6 -29 -6 -49q0 -23 11 -32.5t36 -9.5q24 0 51 10v-67q-53 -22 -104 -22t-79 23t-28 62t7 69l61 286h-127l16 80h380z" />
    <glyph glyph-name="upsilon" unicode="&#x3c5;" horiz-adv-x="544" 
d="M521 517l-76 -357q-18 -82 -77 -128t-156 -46q-80 0 -121 34t-41 93q0 19 5 44l73 341l113 20l-74 -345q-6 -28 -6 -42q0 -61 72 -61q44 0 71.5 29t37.5 75l69 321z" />
    <glyph glyph-name="phi" unicode="&#x3c6;" horiz-adv-x="682" 
d="M645 325q0 -134 -86 -230.5t-219 -106.5l-37 -176l-114 -27l43 203q-92 9 -142 61t-50 138q0 114 76.5 210t189.5 118l-17 -81q-58 -25 -93 -98t-35 -144q0 -52 21 -81t68 -39l47 219q25 119 71 171.5t123 52.5q70 0 112 -52.5t42 -137.5zM525 323q0 106 -52 106
q-25 0 -38.5 -32.5t-29.5 -107.5l-47 -217q79 18 123 91.5t44 159.5z" />
    <glyph glyph-name="chi" unicode="&#x3c7;" horiz-adv-x="450" 
d="M497 506l-204 -237l130 -269h-130q-5 15 -23.5 60.5t-33.5 83.5t-16 46q-15 -27 -151 -190h-141l249 276l-101 217l119 21q44 -109 58 -159q5 8 112 151h132z" />
    <glyph glyph-name="psi" unicode="&#x3c8;" horiz-adv-x="683" 
d="M664 517l-62 -291q-24 -111 -92.5 -170.5t-173.5 -64.5l-38 -179l-115 -27l44 206q-81 4 -128 44.5t-47 121.5q0 31 10 74l57 267l112 20l-63 -298q-8 -34 -8 -58q0 -76 85 -86l101 481q21 100 8 147l115 38q15 -56 -7 -159l-108 -506q52 8 89 45t48 91l60 282z" />
    <glyph glyph-name="omega" unicode="&#x3c9;" horiz-adv-x="691" 
d="M654 299q0 -55 -13 -107.5t-39 -99.5t-71.5 -75.5t-104.5 -28.5q-85 0 -109 80q-55 -80 -139 -80q-68 0 -103 41t-35 107q0 111 59 214t147 170l58 -36q-64 -69 -105 -155t-41 -170q0 -76 49 -76q22 0 45.5 26t33.5 72l42 197h109l-42 -197q-6 -30 -6 -45q0 -22 1.5 -31
t10.5 -15.5t28 -6.5q29 0 52.5 28.5t35.5 70.5t18 81t6 69q0 84 -33 150l68 39q78 -96 78 -222z" />
    <glyph glyph-name="iotadieresis" unicode="&#x3ca;" horiz-adv-x="277" 
d="M232 436q0 -37 -11 -92l-28 -130q-20 -91 -20 -114q0 -33 22 -33q12 0 17 2l6 -68q-31 -12 -73 -12q-40 0 -64.5 19.5t-24.5 58.5q0 24 11 72l43 198q11 51 11 86q0 32 -8 57l104 42q15 -32 15 -86zM392 629q0 -28 -19.5 -48t-47.5 -20q-29 0 -48.5 19.5t-19.5 48.5
q0 28 20 47.5t48 19.5t47.5 -19.5t19.5 -47.5zM183 629q0 -29 -19.5 -48.5t-48.5 -19.5q-28 0 -47.5 20t-19.5 48t20 47.5t48 19.5t47.5 -19.5t19.5 -47.5z" />
    <glyph glyph-name="upsilondieresis" unicode="&#x3cb;" horiz-adv-x="544" 
d="M526 517l-76 -357q-18 -82 -77 -128t-156 -46q-80 0 -121 34t-41 93q0 19 5 44l73 341l113 20l-74 -345q-6 -28 -6 -42q0 -61 72 -61q44 0 71.5 29t37.5 75l69 321zM512 629q0 -28 -19.5 -48t-47.5 -20q-29 0 -48.5 19.5t-19.5 48.5q0 28 20 47.5t48 19.5t47.5 -19.5
t19.5 -47.5zM303 629q0 -29 -19.5 -48.5t-48.5 -19.5q-28 0 -47.5 20t-19.5 48t20 47.5t48 19.5t47.5 -19.5t19.5 -47.5z" />
    <glyph glyph-name="omicrontonos" unicode="&#x3cc;" horiz-adv-x="551" 
d="M507 340q0 -146 -78 -249t-212 -103q-84 0 -130 47t-46 134q0 148 81 248.5t206 100.5q86 0 132.5 -47t46.5 -131zM388 344q0 90 -77 90q-47 0 -83 -45.5t-52.5 -107t-16.5 -122.5q0 -88 78 -88q46 0 82 43.5t52.5 104.5t16.5 125zM496 704l-156 -145l-46 41l129 166z
" />
    <glyph glyph-name="upsilontonos" unicode="&#x3cd;" horiz-adv-x="544" 
d="M526 517l-76 -357q-18 -82 -77 -128t-156 -46q-80 0 -121 34t-41 93q0 19 5 44l73 341l113 20l-74 -345q-6 -28 -6 -42q0 -61 72 -61q44 0 71.5 29t37.5 75l69 321zM491 704l-156 -145l-46 41l129 166z" />
    <glyph glyph-name="omegatonos" unicode="&#x3ce;" horiz-adv-x="691" 
d="M659 299q0 -55 -13 -107.5t-39 -99.5t-71.5 -75.5t-104.5 -28.5q-85 0 -109 80q-55 -80 -139 -80q-68 0 -103 41t-35 107q0 111 59 214t147 170l58 -36q-64 -69 -105 -155t-41 -170q0 -76 49 -76q22 0 45.5 26t33.5 72l42 197h109l-42 -197q-6 -30 -6 -45q0 -22 1.5 -31
t10.5 -15.5t28 -6.5q29 0 52.5 28.5t35.5 70.5t18 81t6 69q0 84 -33 150l68 39q78 -96 78 -222zM580 704l-156 -145l-46 41l129 166z" />
    <glyph glyph-name="uni03D0" unicode="&#x3d0;" horiz-adv-x="585" 
d="M550 574q0 -66 -37.5 -117.5t-98.5 -69.5q53 -15 81 -55t28 -91q0 -110 -79.5 -182.5t-190.5 -72.5q-57 0 -118.5 15.5t-95.5 40.5q11 36 19 73l77 361q26 122 87.5 179.5t171.5 57.5q72 0 114 -39.5t42 -99.5zM439 561q0 71 -68 71q-50 0 -79.5 -35t-45.5 -109l-82 -388
q31 -29 98 -29q68 0 105 50.5t37 120.5q0 49 -25.5 72t-92.5 23h-9l17 80h22q58 0 90.5 39.5t32.5 104.5z" />
    <glyph glyph-name="theta1" unicode="&#x3d1;" horiz-adv-x="573" 
d="M106 187q8 39 8 79v13l105 15q1 -4 1 -14q0 -43 -11 -94q-4 -19 -4 -38q0 -77 77 -77q124 0 182 225q-49 7 -87 16.5t-78.5 27.5t-66.5 41.5t-43 61.5t-17 86q0 82 62.5 134t162.5 52q110 0 162 -68t52 -177q0 -55 -12 -112q-41 -191 -123.5 -281t-208.5 -90
q-76 0 -121.5 37t-45.5 108q0 25 6 55zM279 521q0 -73 45 -100.5t155 -44.5q12 62 12 108q0 148 -101 148q-52 0 -81.5 -28.5t-29.5 -82.5z" />
    <glyph glyph-name="Upsilon1" unicode="&#x3d2;" horiz-adv-x="525" 
d="M336 237l-50 -237h-119l50 237q12 57 12 108q0 167 -138 264l83 90q124 -92 146 -252q80 157 262 252l44 -95q-240 -130 -290 -367z" />
    <glyph glyph-name="uni03D3" unicode="&#x3d3;" horiz-adv-x="525" 
d="M336 237l-50 -237h-119l50 237q12 57 12 108q0 167 -138 264l83 90q124 -92 146 -252q80 157 262 252l44 -95q-240 -130 -290 -367zM31 647l-156 -145l-46 41l129 166z" />
    <glyph glyph-name="uni03D4" unicode="&#x3d4;" horiz-adv-x="525" 
d="M336 237l-50 -237h-119l50 237q12 57 12 108q0 167 -138 264l83 90q124 -92 146 -252q80 157 262 252l44 -95q-240 -130 -290 -367zM550 814q0 -28 -19.5 -48t-47.5 -20q-29 0 -48.5 20t-19.5 48t20 47.5t48 19.5t47.5 -19.5t19.5 -47.5zM341 814q0 -28 -19.5 -48
t-48.5 -20q-28 0 -47.5 20t-19.5 48t20 47.5t48 19.5t47.5 -19.5t19.5 -47.5z" />
    <glyph glyph-name="phi1" unicode="&#x3d5;" horiz-adv-x="665" 
d="M628 329q0 -136 -84 -233t-211 -106l-39 -182l-114 -25l43 207q-84 8 -133.5 57.5t-49.5 131.5q0 136 85 231t209 106l9 41q21 95 7 147l116 38q15 -56 -7 -159l-14 -67q83 -8 133 -57.5t50 -129.5zM316 430q-70 -12 -114 -86.5t-44 -165.5q0 -85 83 -101zM509 331
q0 82 -83 99l-75 -353q68 11 113 87.5t45 166.5z" />
    <glyph glyph-name="uni0400" unicode="&#x400;" horiz-adv-x="505" 
d="M569 691l-35 -94h-256l-39 -189h213l-20 -95h-213l-45 -214h279l-21 -99h-397l148 691h386zM469 784l-37 -62l-219 100l56 94z" />
    <glyph glyph-name="afii10023" unicode="&#x401;" horiz-adv-x="505" 
d="M569 691l-35 -94h-256l-39 -189h213l-20 -95h-213l-45 -214h279l-21 -99h-397l148 691h386zM336 792q0 -28 -20 -48t-48 -20t-47.5 20t-19.5 48t20 47.5t48 19.5t47.5 -19.5t19.5 -47.5zM546 792q0 -28 -20 -48t-48 -20t-47.5 20t-19.5 48t20 47.5t48 19.5t47.5 -19.5
t19.5 -47.5z" />
    <glyph glyph-name="afii10051" unicode="&#x402;" horiz-adv-x="664" 
d="M586 691l-35 -94h-186l-41 -193q79 33 142 33q77 0 117 -40t40 -108q0 -64 -24.5 -132t-65.5 -109q-60 -60 -149 -60q-43 0 -90 22l38 83l11 -6q21 -12 47 -12q32 0 53 20q25 25 40.5 77.5t15.5 99.5q0 36 -18 54q-20 21 -62 21q-48 0 -113 -27l-67 -320h-116l126 597
h-164l20 94h481z" />
    <glyph glyph-name="afii10052" unicode="&#x403;" horiz-adv-x="422" 
d="M545 691l-36 -96h-229l-126 -595h-118l146 691h363zM508 808l-233 -101l-34 63l221 131z" />
    <glyph glyph-name="afii10053" unicode="&#x404;" horiz-adv-x="566" 
d="M446 403l-19 -90h-226q-8 -51 -8 -82q0 -83 36 -119q33 -34 101 -34q67 0 137 47l41 -75q-33 -22 -74 -38q-65 -24 -135 -24q-110 0 -170 65q-62 67 -62 183q0 93 35 194t106 172q101 101 243 101q96 0 167 -55l-66 -74q-47 39 -113 39q-79 0 -131 -49
q-27 -25 -50.5 -70.5t-35.5 -90.5h224z" />
    <glyph glyph-name="afii10054" unicode="&#x405;" horiz-adv-x="592" 
d="M604 644l-66 -81q-68 51 -153 51q-56 0 -94.5 -29t-38.5 -71q0 -31 16.5 -51t57.5 -35l77 -28q126 -46 126 -164q0 -107 -85.5 -178.5t-227.5 -71.5q-120 0 -211 59l59 89q83 -53 173 -53q73 0 116.5 35t43.5 90q0 33 -18.5 55t-63.5 39l-69 26q-62 23 -92 58.5t-30 94.5
q0 97 80.5 163.5t197.5 66.5q124 0 202 -65z" />
    <glyph glyph-name="afii10055" unicode="&#x406;" horiz-adv-x="288" 
d="M299 691l-147 -691h-117l148 691h116z" />
    <glyph glyph-name="afii10056" unicode="&#x407;" horiz-adv-x="288" 
d="M299 691l-147 -691h-117l148 691h116zM213 792q0 -28 -19.5 -48t-48.5 -20q-28 0 -47.5 20t-19.5 48t20 47.5t48 19.5t47.5 -19.5t19.5 -47.5zM423 792q0 -28 -19.5 -48t-48.5 -20q-28 0 -47.5 20t-19.5 48t20 47.5t48 19.5t47.5 -19.5t19.5 -47.5z" />
    <glyph glyph-name="afii10057" unicode="&#x408;" horiz-adv-x="290" 
d="M300 691l-120 -564q-8 -37 -13.5 -57.5t-16.5 -51t-25.5 -50.5t-36.5 -43t-54 -41t-74 -34l-40 65q69 36 95 74t46 129l121 573h118z" />
    <glyph glyph-name="afii10058" unicode="&#x409;" horiz-adv-x="903" 
d="M626 691l-58 -276h66q41 0 67 -2t64 -13.5t62 -34.5q46 -44 46 -121q0 -97 -67 -164q-80 -80 -248 -80h-194l126 597h-148l-32 -128q-40 -159 -79 -271q-38 -110 -88 -152q-46 -39 -128 -50l-41 -5l-4 85l19 4q48 9 81 41q26 24 42 60.5t37 100.5q39 123 76 272l34 137
h367zM500 94h59q35 0 55.5 1.5t48.5 12t47 30.5q37 39 37 93q0 44 -26 66q-27 24 -99 24h-74z" />
    <glyph glyph-name="afii10059" unicode="&#x40a;" horiz-adv-x="928" 
d="M651 691l-58 -276h66q41 0 67 -2t64 -13.5t62 -34.5q46 -44 46 -121q0 -97 -67 -164q-80 -80 -248 -80h-194l68 321h-237l-69 -321h-116l147 691h116l-58 -276h237l58 276h116zM525 94h59q35 0 55.5 1.5t48.5 12t47 30.5q37 39 37 93q0 44 -26 66q-27 24 -99 24h-74z" />
    <glyph glyph-name="afii10060" unicode="&#x40b;" horiz-adv-x="668" 
d="M586 691l-35 -94h-186l-41 -194q72 34 153 34q77 0 116 -39q30 -30 30 -80q0 -25 -5 -46l-58 -272h-116l52 249q3 12 3 29q0 33 -15 49q-18 20 -61 20q-52 0 -117 -27l-68 -320h-116l127 597h-164l20 94h481z" />
    <glyph glyph-name="afii10061" unicode="&#x40c;" horiz-adv-x="615" 
d="M659 702l6 -79l-34 -8q-31 -7 -47 -23q-10 -10 -23 -36l-39 -80q-25 -52 -47 -74q-29 -29 -66 -36q22 -10 36 -24q25 -26 29 -80l9 -113q2 -36 16 -50q6 -6 43 -21l20 -6l-39 -81l-52 6q-52 5 -74 27q-17 17 -22.5 38t-6.5 59l-2 107q0 48 -19 69q-20 22 -74 22h-54
l-68 -319h-116l148 691h116l-60 -278h55q71 0 101 30q6 6 11.5 14t8.5 14t7 16.5t6 13.5l41 93q18 42 38 62q30 30 89 38zM577 808l-233 -101l-34 63l221 131z" />
    <glyph glyph-name="uni040D" unicode="&#x40d;" horiz-adv-x="658" 
d="M522 0h-116l84 397q14 66 36 140q-34 -64 -61 -101l-310 -436h-119l146 691h116l-85 -400q-12 -59 -35 -132q30 56 69 111l297 421h124zM533 784l-37 -62l-219 100l56 94z" />
    <glyph glyph-name="afii10062" unicode="&#x40e;" horiz-adv-x="532" 
d="M214 691l55 -293q14 -79 17 -124q15 36 72 143l148 274h121l-308 -551q-44 -77 -68 -101q-49 -50 -148 -61l-34 -4l-4 84l25 5q58 12 91 47q20 20 45 67l17 32l-54 -10l-95 492h120zM466 875l54 -27q-15 -34 -39 -58q-52 -53 -135 -53q-63 0 -97 32q-33 31 -34 79l66 27
q3 -24 21 -40q20 -18 57 -18q38 0 66 17q24 14 41 41z" />
    <glyph glyph-name="afii10145" unicode="&#x40f;" horiz-adv-x="629" 
d="M172 -174l37 174h-173l146 691h116l-126 -597h225l126 597h116l-146 -691h-172l-37 -174h-112z" />
    <glyph glyph-name="afii10017" unicode="&#x410;" horiz-adv-x="583" 
d="M533 0h-121l-16 185h-227l-96 -185h-123l376 692h132zM387 280l-13 160q-9 96 -9 134q-1 -1 -9.5 -19.5t-21.5 -46t-22 -45.5l-94 -183h169z" />
    <glyph glyph-name="afii10018" unicode="&#x411;" horiz-adv-x="601" 
d="M182 691h412l-35 -94h-282l-39 -184h97q122 0 172 -52q44 -44 44 -122q0 -93 -67 -160q-80 -79 -244 -79h-205zM171 94h78q29 0 46 1.5t44 10.5t46 27q40 37 40 102q0 38 -23 60q-26 24 -92 24h-92z" />
    <glyph glyph-name="afii10019" unicode="&#x412;" horiz-adv-x="600" 
d="M593 541q0 -59 -38 -106.5t-113 -68.5q53 -10 81.5 -48t28.5 -91q0 -40 -19.5 -83.5t-55.5 -77.5q-40 -36 -88.5 -51t-133.5 -15h-220l148 691h216q96 0 145 -39.5t49 -110.5zM426 228q0 43 -24.5 63t-84.5 20h-102l-46 -217h110q55 0 94 27q23 16 38 45.5t15 61.5z
M467 518q0 39 -22 57.5t-75 18.5h-96l-39 -188h100q59 0 89 24q43 34 43 88z" />
    <glyph glyph-name="afii10020" unicode="&#x413;" horiz-adv-x="422" 
d="M545 691l-36 -96h-229l-126 -595h-118l146 691h363z" />
    <glyph glyph-name="afii10021" unicode="&#x414;" horiz-adv-x="655" 
d="M640 691l-126 -598h71l-57 -267h-112l37 174h-379l-37 -174h-112l56 267h44q76 108 140 244q47 98 78 225l31 129h366zM351 599l-13 -59q-32 -143 -97 -273q-41 -82 -107 -174h264l107 506h-154z" />
    <glyph glyph-name="afii10022" unicode="&#x415;" horiz-adv-x="505" 
d="M569 691l-35 -94h-256l-39 -189h213l-20 -95h-213l-45 -214h279l-21 -99h-397l148 691h386z" />
    <glyph glyph-name="afii10024" unicode="&#x416;" horiz-adv-x="900" 
d="M546 413h43q61 0 91 30q17 17 36 61l38 90q18 42 36 60q32 33 104 42l50 6l6 -79l-28 -6q-37 -8 -52 -22q-10 -10 -24 -38l-39 -81q-23 -48 -44 -71q-27 -28 -69 -39q20 -8 33 -21q30 -30 33 -83l8 -114q2 -35 15 -49q12 -14 49 -23l15 -4l-39 -81l-43 5q-65 7 -89 32
q-23 24 -23 75l-3 135q0 42 -22 63q-19 18 -57 18h-46l-67 -319h-116l68 319h-50q-45 0 -77 -30q-17 -16 -37 -61l-45 -104q-27 -64 -50 -87q-32 -31 -102 -39l-59 -7l-5 81l25 7q36 10 55 27q12 11 32 51l50 105q16 34 37 55q31 33 82 49q-28 8 -46 31q-17 22 -21 79l-6 80
q-2 31 -15 45q-12 13 -46 20l-16 4l38 77l46 -7q48 -8 67 -26q24 -24 26 -75l4 -93q2 -50 16 -66q18 -22 75 -22h42l59 278h116z" />
    <glyph glyph-name="afii10025" unicode="&#x417;" horiz-adv-x="552" 
d="M251 312h-76l19 90h59q79 0 119 38q35 33 35 83q0 41 -24 65q-25 25 -77 25q-38 0 -74 -13q-33 -12 -63 -33l-37 76q44 27 87 41q57 19 119 19q100 0 150 -47q44 -42 44 -111q0 -75 -51 -124q-46 -43 -105 -57q46 -9 77 -39q37 -35 37 -95q0 -90 -67 -158
q-83 -84 -237 -84q-74 0 -131 23q-35 15 -65 41l70 78q25 -25 53 -36q40 -16 85 -16q79 0 125 46q41 41 41 101q0 43 -27 65q-28 22 -86 22z" />
    <glyph glyph-name="afii10026" unicode="&#x418;" horiz-adv-x="658" 
d="M522 0h-116l84 397q14 66 36 140q-34 -64 -61 -101l-310 -436h-119l146 691h116l-85 -400q-12 -59 -35 -132q30 56 69 111l297 421h124z" />
    <glyph glyph-name="afii10027" unicode="&#x419;" horiz-adv-x="658" 
d="M522 0h-116l84 397q14 66 36 140q-34 -64 -61 -101l-310 -436h-119l146 691h116l-85 -400q-12 -59 -35 -132q30 56 69 111l297 421h124zM555 861l54 -27q-15 -34 -39 -58q-52 -53 -135 -53q-63 0 -97 32q-33 31 -34 79l66 27q3 -24 21 -40q20 -18 57 -18q38 0 66 17
q24 14 41 41z" />
    <glyph glyph-name="afii10028" unicode="&#x41a;" horiz-adv-x="615" 
d="M659 702l6 -79l-34 -8q-31 -7 -47 -23q-10 -10 -23 -36l-39 -80q-25 -52 -47 -74q-29 -29 -66 -36q22 -10 36 -24q25 -26 29 -80l9 -113q2 -36 16 -50q6 -6 43 -21l20 -6l-39 -81l-52 6q-52 5 -74 27q-17 17 -22.5 38t-6.5 59l-2 107q0 48 -19 69q-20 22 -74 22h-54
l-68 -319h-116l148 691h116l-60 -278h55q71 0 101 30q6 6 11.5 14t8.5 14t7 16.5t6 13.5l41 93q18 42 38 62q30 30 89 38z" />
    <glyph glyph-name="afii10029" unicode="&#x41b;" horiz-adv-x="616" 
d="M342 597l-32 -128q-40 -159 -79 -271q-38 -110 -88 -152q-46 -39 -128 -50l-41 -5l-4 85l19 4q48 9 81 41q26 24 42 60.5t37 100.5q39 123 76 272l34 137h367l-146 -691h-116l126 597h-148z" />
    <glyph glyph-name="afii10030" unicode="&#x41c;" horiz-adv-x="825" 
d="M797 691l-86 -691h-112l59 428q11 78 19 114q-28 -63 -49 -105l-219 -437h-98l-25 418q-5 73 -4 128q-7 -32 -34 -129l-119 -417h-114l210 691h152l23 -391q4 -59 1 -115q25 63 49 113l193 393h154z" />
    <glyph glyph-name="afii10031" unicode="&#x41d;" horiz-adv-x="640" 
d="M651 691l-148 -691h-115l68 320h-239l-68 -320h-114l148 691h113l-59 -277h238l60 277h116z" />
    <glyph glyph-name="afii10032" unicode="&#x41e;" horiz-adv-x="694" 
d="M672 459q0 -131 -55.5 -251.5t-146.5 -173.5q-79 -46 -175 -46q-115 0 -171.5 66t-56.5 181q0 124 47 229t117 163q88 74 214 74q108 0 167.5 -64t59.5 -178zM544 479q0 133 -120 133q-86 0 -139 -70q-41 -54 -67 -147.5t-26 -180.5q0 -138 123 -138q73 0 124 55
q45 50 75 156t30 192z" />
    <glyph glyph-name="afii10033" unicode="&#x41f;" horiz-adv-x="632" 
d="M643 691l-148 -691h-116l127 597h-228l-127 -597h-116l147 691h461z" />
    <glyph glyph-name="afii10034" unicode="&#x420;" horiz-adv-x="571" 
d="M596 532q0 -149 -115 -222q-76 -47 -180 -47h-94l-56 -263h-116l148 691h180q117 0 170 -36q63 -43 63 -123zM472 509q0 88 -107 88h-87l-51 -240h90q74 0 107 35q48 50 48 117z" />
    <glyph glyph-name="afii10035" unicode="&#x421;" horiz-adv-x="566" 
d="M618 648l-66 -75q-43 39 -112 39q-91 0 -158 -86q-40 -52 -65 -139.5t-25 -156.5q0 -74 36 -112.5t104 -38.5q62 0 135 47l41 -76q-94 -62 -207 -62q-110 0 -172 65.5t-62 180.5q0 85 30.5 176t82.5 156q52 66 125.5 101.5t151.5 35.5q106 0 161 -55z" />
    <glyph glyph-name="afii10036" unicode="&#x422;" horiz-adv-x="486" 
d="M597 691l-36 -95h-174l-126 -596h-116l127 596h-176l20 95h481z" />
    <glyph glyph-name="afii10037" unicode="&#x423;" horiz-adv-x="532" 
d="M214 691l55 -293q14 -79 17 -124q15 36 72 143l148 274h121l-308 -551q-44 -77 -68 -101q-49 -50 -148 -61l-34 -4l-4 84l25 5q58 12 91 47q20 20 45 67l17 32l-54 -10l-95 492h120z" />
    <glyph glyph-name="afii10038" unicode="&#x424;" horiz-adv-x="761" 
d="M384 0h-116l22 106h-8q-113 0 -165 51q-50 49 -50 136q0 74 28 142.5t75 114.5q82 80 220 80h11l21 98h116l-21 -98h13q108 0 160 -52q49 -48 49 -140q0 -78 -26.5 -142.5t-67.5 -105.5q-84 -84 -221 -84h-18zM495 550l-77 -364h15q68 0 113 43q36 35 54.5 97t18.5 116
q0 55 -26 81q-27 27 -89 27h-9zM389 550h-12q-71 0 -115 -43q-34 -33 -54.5 -96t-20.5 -117q0 -53 29 -81q28 -27 88 -27h8z" />
    <glyph glyph-name="afii10039" unicode="&#x425;" horiz-adv-x="525" 
d="M611 691l-250 -328l139 -363h-134l-90 264l-192 -264h-145l295 372l-122 319h132l73 -218l156 218h138z" />
    <glyph glyph-name="afii10040" unicode="&#x426;" horiz-adv-x="644" 
d="M182 691h116l-126 -597h220l126 597h116l-126 -597h76l-58 -268h-112l38 174h-417z" />
    <glyph glyph-name="afii10041" unicode="&#x427;" horiz-adv-x="594" 
d="M458 0h-116l62 294q-76 -29 -152 -29q-84 0 -123 41q-29 30 -29 85q0 30 12 83l46 217h116l-48 -224q-6 -28 -6 -47q0 -31 19 -47q22 -18 63 -18q55 0 120 24l67 312h116z" />
    <glyph glyph-name="afii10042" unicode="&#x428;" horiz-adv-x="892" 
d="M298 691l-127 -597h185l128 597h116l-127 -597h185l128 597h116l-147 -691h-720l147 691h116z" />
    <glyph glyph-name="afii10043" unicode="&#x429;" horiz-adv-x="892" 
d="M663 -174l37 174h-665l147 691h116l-127 -597h185l128 597h116l-127 -597h185l128 597h116l-127 -597h58l-58 -268h-112z" />
    <glyph glyph-name="afii10044" unicode="&#x42a;" horiz-adv-x="663" 
d="M386 691l-58 -276h66q41 0 67 -2t64 -13.5t62 -34.5q46 -44 46 -121q0 -97 -67 -164q-80 -80 -248 -80h-194l128 600h-175l19 91h290zM260 94h59q35 0 55.5 1.5t48.5 12t47 30.5q37 39 37 93q0 44 -26 66q-27 24 -99 24h-74z" />
    <glyph glyph-name="afii10045" unicode="&#x42b;" horiz-adv-x="833" 
d="M298 691l-58 -276h66q41 0 67 -2t64 -13.5t62 -34.5q46 -44 46 -121q0 -97 -67 -164q-80 -80 -248 -80h-194l146 691h116zM172 94h59q35 0 55.5 1.5t48.5 12t47 30.5q37 39 37 93q0 44 -26 66q-27 24 -99 24h-74zM844 691l-147 -691h-117l148 691h116z" />
    <glyph glyph-name="afii10046" unicode="&#x42c;" horiz-adv-x="575" 
d="M298 691l-58 -276h66q41 0 67 -2t64 -13.5t62 -34.5q46 -44 46 -121q0 -97 -67 -164q-80 -80 -248 -80h-194l146 691h116zM172 94h59q35 0 55.5 1.5t48.5 12t47 30.5q37 39 37 93q0 44 -26 66q-27 24 -99 24h-74z" />
    <glyph glyph-name="afii10047" unicode="&#x42d;" horiz-adv-x="580" 
d="M156 567l-36 78q86 58 197 58q112 0 177 -67q64 -66 64 -183q0 -95 -33 -200.5t-99 -172.5q-92 -92 -239 -92q-74 0 -132 27q-31 14 -60 39l66 75q56 -51 136 -51q85 0 135 53q54 56 78 185h-224l17 90h222q7 42 7 70q0 73 -34 105q-32 32 -94 32q-78 0 -148 -46z" />
    <glyph glyph-name="afii10048" unicode="&#x42e;" horiz-adv-x="937" 
d="M239 414h117q40 125 116 199q93 90 221 90q99 0 158 -59q64 -64 64 -183q0 -100 -36.5 -207t-107.5 -175q-95 -91 -225 -91q-94 0 -154 55q-66 61 -66 184q0 50 9 93h-116l-68 -320h-116l147 691h116zM683 613q-71 0 -120 -48q-53 -53 -84 -158q-29 -102 -29 -192
q0 -76 34 -109q28 -28 78 -28q72 0 118 49q49 50 81 169q28 101 28 193q0 64 -29 94t-77 30z" />
    <glyph glyph-name="afii10049" unicode="&#x42f;" horiz-adv-x="622" 
d="M486 0h-116l62 293h-66q-21 0 -33 -1t-28 -8t-30 -21q-19 -19 -38 -61l-34 -78q-28 -64 -48 -84q-33 -34 -94 -41l-70 -8l-6 81l24 6q41 11 59 29q13 13 24 37l45 93q21 43 44 64q34 32 81 40v3q-51 11 -79 39q-38 38 -38 95q0 81 57 138q75 75 226 75h204zM496 597h-67
q-86 0 -128 -39q-36 -32 -36 -87q0 -34 23 -57q28 -27 90 -27h73z" />
    <glyph glyph-name="afii10065" unicode="&#x430;" horiz-adv-x="542" 
d="M511 480q-19 -59 -30 -116l-41 -200q-7 -37 -7 -52q0 -34 25 -62l-90 -67q-38 31 -38 83q-57 -78 -152 -78q-61 0 -96.5 41t-35.5 120q0 83 29 159.5t78 127.5q81 82 201 82q99 0 157 -38zM388 421q-17 10 -47 10q-36 0 -62 -11.5t-54 -44.5q-32 -38 -49 -101.5
t-17 -121.5q0 -41 13.5 -58.5t41.5 -17.5q33 0 67.5 28.5t52.5 68.5z" />
    <glyph glyph-name="afii10066" unicode="&#x431;" horiz-adv-x="542" 
d="M548 765l24 -91q-32 -17 -142 -55q-10 -4 -35.5 -12.5t-36.5 -12.5t-31.5 -12.5t-32.5 -15t-27 -16.5t-26 -21q-46 -44 -61 -110q32 39 70 60q46 27 105 27q71 0 111 -40q45 -45 45 -128q0 -74 -25.5 -149.5t-78.5 -126.5q-76 -74 -184 -74q-88 0 -136 52q-42 46 -42 131
q0 78 34 202q41 155 121 233q59 57 150 87l65 22q79 27 133 50zM316 422q-47 0 -79 -34q-31 -31 -52.5 -102.5t-21.5 -124.5q0 -46 22 -69q18 -20 58 -20t73 33q36 36 56.5 104t20.5 126q0 46 -23 68q-20 19 -54 19z" />
    <glyph glyph-name="afii10067" unicode="&#x432;" horiz-adv-x="531" 
d="M37 22l66 308q19 86 61 128q60 60 171 60q87 0 129 -42q32 -32 32 -82q0 -54 -37 -91q-23 -23 -66 -37q33 -6 55 -30q25 -26 25 -69q0 -80 -65 -131q-62 -48 -181 -48q-99 0 -171 27zM189 226l-31 -146q31 -12 87 -12q60 0 88 31q22 25 22 63q0 36 -26 52q-20 12 -69 12
h-71zM204 296h67q61 0 89 27q25 24 25 58q0 26 -15 41q-16 16 -49 16q-45 0 -73 -28q-26 -26 -35 -72z" />
    <glyph glyph-name="afii10068" unicode="&#x433;" horiz-adv-x="452" 
d="M128 394l-34 74q39 22 80 35q48 15 101 15q82 0 124 -42q33 -33 33 -90q0 -54 -32 -87q-20 -20 -47 -34.5t-88 -36.5q-64 -24 -89 -36t-38 -28q-15 -16 -15 -40q0 -21 13 -34q19 -18 58 -18q40 0 85 15q38 13 68 34l27 -79l-10 -6q-28 -17 -74 -32q-49 -16 -109 -16
q-80 0 -122 33q-44 34 -44 99q0 57 41 97q34 33 137 68q89 30 114 56q17 17 17 39q0 29 -21 43q-17 11 -47 11q-34 0 -70 -13q-21 -7 -58 -27z" />
    <glyph glyph-name="afii10069" unicode="&#x434;" horiz-adv-x="553" 
d="M194 647l36 86q33 6 69 6q112 0 170 -55q59 -57 59 -186q0 -124 -31 -241q-34 -130 -96 -194q-71 -75 -186 -75q-82 0 -126 48q-44 49 -44 134q0 67 23 138.5t79 125.5q69 66 158 66q30 0 65 -12q24 -8 48 -25q3 24 3 46q0 80 -36 114q-35 34 -108 34q-46 0 -83 -10z
M163 162q0 -47 19 -68q20 -22 54 -22q41 0 74 35q41 43 68 146q14 58 25 128q-43 35 -91 35q-44 0 -75 -31q-35 -35 -54.5 -100.5t-19.5 -122.5z" />
    <glyph glyph-name="afii10070" unicode="&#x435;" horiz-adv-x="513" 
d="M491 383q0 -62 -45 -105q-66 -64 -215 -64q-16 0 -37.5 2t-23.5 2q-6 -30 -6 -53q0 -46 24.5 -69.5t67.5 -23.5q73 0 143 55l34 -68q-90 -72 -206 -72q-83 0 -131.5 48.5t-48.5 136.5q0 76 30.5 151.5t82.5 125.5q72 69 171 69q75 0 117.5 -34.5t42.5 -100.5zM380 376
q0 60 -63 60q-44 0 -78.5 -35.5t-50.5 -104.5q2 0 18 -1.5t26 -1.5q94 0 127 33q21 21 21 50z" />
    <glyph glyph-name="afii10072" unicode="&#x436;" horiz-adv-x="885" 
d="M339 0l48 229h-70q-25 -112 -95 -182q-59 -59 -143 -59q-61 0 -98 44l56 69q19 -31 51 -31q28 0 53 23q41 39 67 120q23 71 23 144q0 46 -20 65q-16 14 -36 14q-44 0 -72 -42l-37 63q48 61 133 61q58 0 94 -36q43 -43 43 -129q0 -15 -3 -44h72l39 189l114 20l-45 -209h73
q33 97 91 153q59 56 134 56q65 0 103 -45l-56 -68q-18 31 -52 31q-30 0 -55 -25q-38 -35 -65 -125q-22 -71 -22 -135q0 -48 20 -67q16 -14 37 -14q42 0 70 42l37 -64q-48 -60 -128 -60q-63 0 -98 34q-43 42 -43 134q0 38 6 73h-70l-48 -229h-108z" />
    <glyph glyph-name="afii10073" unicode="&#x437;" horiz-adv-x="444" 
d="M152 306h42q60 0 87 27q18 18 18 45q0 25 -16 41q-18 17 -56 17q-37 0 -70 -14q-26 -11 -49 -26l-31 68q37 25 77 38q47 16 99 16q86 0 129 -43q32 -32 32 -83q0 -54 -35 -88q-26 -25 -65 -36q26 -9 45 -28q26 -27 26 -72q0 -65 -48 -115q-65 -65 -180 -65q-64 0 -111 20
q-35 15 -61 44l61 69q21 -21 39 -32q33 -19 74 -19q51 0 79 27q28 26 28 68q0 35 -24 49q-19 12 -69 12h-36z" />
    <glyph glyph-name="afii10074" unicode="&#x438;" horiz-adv-x="554" 
d="M527 516l-80 -374q-6 -28 -6 -50q0 -36 18 -63l-92 -48q-30 35 -30 83v4q-77 -83 -166 -83q-55 0 -85.5 26.5t-30.5 76.5q0 34 9 77l70 332l113 21l-70 -332q-10 -43 -10 -67q0 -48 40 -48q33 0 73.5 28.5t65.5 70.5l70 325z" />
    <glyph glyph-name="afii10075" unicode="&#x439;" horiz-adv-x="554" 
d="M527 516l-80 -374q-6 -28 -6 -50q0 -36 18 -63l-92 -48q-30 35 -30 83v4q-77 -83 -166 -83q-55 0 -85.5 26.5t-30.5 76.5q0 34 9 77l70 332l113 21l-70 -332q-10 -43 -10 -67q0 -48 40 -48q33 0 73.5 28.5t65.5 70.5l70 325zM458 699l54 -25q-16 -40 -42 -67
q-45 -46 -122 -46q-68 0 -105 37q-28 28 -35 76l66 25q6 -25 19 -39q20 -22 59 -22q38 0 63 15q26 15 43 46z" />
    <glyph glyph-name="afii10076" unicode="&#x43a;" horiz-adv-x="533" 
d="M140 498l114 20l-41 -185l-30 -97h3q22 44 43 79q28 48 72 93q44 44 93 70q44 24 116 40l23 -77l-18 -5q-71 -19 -126 -58q-51 -37 -84 -93l17 -2q39 -4 61 -23q26 -26 28 -68l4 -73q2 -26 11 -35q7 -8 34 -15l14 -4l-31 -75l-33 4q-1 0 -11.5 1.5t-14.5 2t-13.5 3t-15 5
t-13 7.5t-12.5 11q-19 22 -19 76l-1 71q0 26 -16 36q-14 9 -37 7q-70 -96 -117 -214h-105z" />
    <glyph glyph-name="afii10077" unicode="&#x43b;" horiz-adv-x="518" 
d="M276 0l90 426h-101l-23 -84q-13 -49 -40 -131q-41 -129 -78 -168q-38 -40 -117 -49l-34 -4l-9 78l25 6q35 8 56 28q23 21 49 91q15 42 33 98q14 46 36 129l23 86h305l-107 -506h-108z" />
    <glyph glyph-name="afii10078" unicode="&#x43c;" horiz-adv-x="675" 
d="M162 506h131l22 -268q3 -48 3 -94q24 58 42 94l140 268h130l-59 -506h-101l41 297q6 45 16 85h-2q-16 -35 -38 -78l-159 -304h-87l-26 299q-4 36 -4 83h-1q-4 -23 -17 -70l-88 -312h-100z" />
    <glyph glyph-name="afii10079" unicode="&#x43d;" horiz-adv-x="555" 
d="M191 228l-48 -228h-108l106 497l112 21l-45 -210h167l40 189l113 21l-110 -518h-108l48 228h-167z" />
    <glyph glyph-name="afii10080" unicode="&#x43e;" horiz-adv-x="551" 
d="M507 340q0 -146 -78 -249t-212 -103q-84 0 -130 47t-46 134q0 148 81 248.5t206 100.5q86 0 132.5 -47t46.5 -131zM388 344q0 90 -77 90q-47 0 -83 -45.5t-52.5 -107t-16.5 -122.5q0 -88 78 -88q46 0 82 43.5t52.5 104.5t16.5 125z" />
    <glyph glyph-name="afii10081" unicode="&#x43f;" horiz-adv-x="555" 
d="M505 417q0 -34 -5 -55l-77 -362h-109l71 335q7 31 7 49q0 40 -40 40q-67 0 -139 -94l-70 -330h-108l74 350q10 44 10 77q0 26 -8 53l102 42q12 -27 12 -63q0 -15 -3 -32q74 90 182 90q47 0 74 -27t27 -73z" />
    <glyph glyph-name="afii10082" unicode="&#x440;" horiz-adv-x="566" 
d="M527 351q0 -70 -27 -151.5t-69 -128.5q-74 -82 -178 -82q-72 0 -110 22q0 -7 -8 -44l-33 -156l-112 -26l121 570q9 43 9 70q0 24 -9 55l102 42q13 -24 13 -66q0 -8 -2 -24v-2q33 40 79 63t91 23q64 0 98.5 -44t34.5 -121zM408 347q0 40 -13.5 58t-44.5 18
q-32 0 -68.5 -24t-68.5 -70l-49 -230q26 -26 83 -26q63 0 100 54q27 40 44 104.5t17 115.5z" />
    <glyph glyph-name="afii10083" unicode="&#x441;" horiz-adv-x="450" 
d="M465 467l-60 -74q-37 37 -87 37q-47 0 -82 -41q-27 -33 -48.5 -101.5t-21.5 -126.5q0 -90 75 -90q56 0 115 53l40 -69q-83 -67 -179 -67q-84 0 -127 45t-43 128q0 88 37.5 171.5t91.5 128.5q70 59 160 59q77 0 129 -53z" />
    <glyph glyph-name="afii10084" unicode="&#x442;" horiz-adv-x="807" 
d="M757 416q0 -21 -8 -63l-75 -353h-108l73 342q6 27 6 46q0 36 -40 36q-28 0 -63 -25.5t-65 -67.5l-71 -331h-106l71 336q9 40 9 54q0 34 -36 34q-28 0 -63.5 -25t-69.5 -69l-70 -330h-106l75 353q8 35 8 71q0 28 -7 56l102 42q11 -25 11 -62q0 -17 -3 -32q83 89 173 89
q85 0 90 -89q84 90 175 90q44 0 71 -27.5t27 -74.5z" />
    <glyph glyph-name="afii10085" unicode="&#x443;" horiz-adv-x="493" 
d="M544 506l-267 -477q-50 -89 -80 -132.5t-63 -66.5q-50 -35 -118 -46l-23 74q45 8 89 38q24 17 40.5 39.5t37.5 64.5l-35 -2q0 67 -12 159l-44 342l114 16l28 -307q4 -51 4 -114h1q16 42 62 132l146 280h120z" />
    <glyph glyph-name="afii10086" unicode="&#x444;" horiz-adv-x="768" 
d="M543 737l-55 -259q46 40 108 40q54 0 89 -35q43 -43 43 -127t-32 -171t-85 -140q-57 -57 -135 -57q-52 0 -85 33l-44 -210l-113 -26l49 236q-42 -33 -94 -33q-58 0 -95 37q-46 46 -46 135q0 73 27 156t84 141q59 61 133 61q57 0 88 -40l49 234zM470 393l-61 -285
q28 -30 65 -30t63 27q35 36 56 111.5t21 128.5q0 36 -13 59q-17 24 -50 24q-42 0 -81 -35zM301 108l61 285q-27 35 -67 35q-32 0 -57 -23q-33 -33 -55 -107q-21 -74 -21 -129q0 -47 13 -66q16 -25 53 -25q39 0 73 30z" />
    <glyph glyph-name="afii10087" unicode="&#x445;" horiz-adv-x="450" 
d="M497 506l-204 -237l130 -269h-130q-5 15 -23.5 60.5t-33.5 83.5t-16 46q-15 -27 -151 -190h-141l249 276l-101 217l119 21q44 -109 58 -159q5 8 112 151h132z" />
    <glyph glyph-name="afii10088" unicode="&#x446;" horiz-adv-x="564" 
d="M325 -169l34 169q-22 15 -22 64v4q-77 -83 -166 -83q-55 0 -85.5 26.5t-30.5 76.5q0 34 9 77l70 332l113 21l-70 -332q-10 -43 -10 -67q0 -48 40 -48q33 0 73.5 28.5t65.5 70.5l70 325l111 21l-80 -374q-6 -28 -6 -50v-10h30l-53 -251h-93z" />
    <glyph glyph-name="afii10089" unicode="&#x447;" horiz-adv-x="512" 
d="M374 497l111 21l-109 -518h-108l44 205q-47 -21 -102 -21q-74 0 -110 36q-25 25 -25 62q0 26 5 46l36 169l112 21l-39 -185q-3 -15 -3 -26q0 -17 10 -29q17 -18 59 -18q37 0 73 17z" />
    <glyph glyph-name="afii10090" unicode="&#x448;" horiz-adv-x="807" 
d="M668 498l112 20l-77 -365q-7 -35 -7 -68q0 -27 7 -59l-105 -43q-17 42 -9 93q-30 -34 -65 -56q-50 -32 -107 -32q-49 0 -72 25q-21 22 -21 63q-32 -35 -65 -56q-50 -32 -102 -32q-49 0 -77 28q-25 27 -25 73q0 30 8 65l73 344l110 20l-74 -351q-7 -35 -7 -54q0 -23 9 -32
t27 -9q25 0 52 16t44 34q13 13 31 41l71 335l113 20l-76 -358q-6 -25 -6 -49q0 -21 9 -30q8 -8 24 -8q46 0 102 55q15 15 32 37z" />
    <glyph glyph-name="afii10091" unicode="&#x449;" horiz-adv-x="807" 
d="M569 -169l35 169q-25 8 -15 76q-30 -34 -65 -56q-50 -32 -107 -32q-49 0 -72 25q-21 22 -21 63q-32 -35 -65 -56q-50 -32 -102 -32q-49 0 -77 28q-25 27 -25 73q0 30 8 65l73 344l110 20l-74 -351q-7 -35 -7 -54q0 -23 9 -32t27 -9q25 0 52 16t44 34q13 13 31 41l71 335
l113 20l-76 -358q-6 -25 -6 -49q0 -21 9 -30q8 -8 24 -8q46 0 102 55q15 15 32 37l71 333l112 20l-77 -365q-7 -35 -7 -68v-3h19l-53 -251h-93z" />
    <glyph glyph-name="afii10092" unicode="&#x44a;" horiz-adv-x="546" 
d="M298 506l-41 -194q40 11 81 11q84 0 128 -44q35 -36 35 -93q0 -79 -53 -133q-65 -65 -188 -65q-85 0 -157 26l-19 7l85 405h-126l30 80h225zM240 232l-32 -150q32 -14 66 -14q54 0 81 28q28 30 28 76q0 32 -19 51q-20 20 -60 20q-33 0 -64 -11z" />
    <glyph glyph-name="afii10093" unicode="&#x44b;" horiz-adv-x="728" 
d="M248 517l-43 -205q40 11 81 11q84 0 128 -44q35 -36 35 -93q0 -79 -53 -133q-65 -65 -188 -65q-85 0 -157 26l-19 7l101 479zM188 232l-32 -150q32 -14 66 -14q54 0 81 28q28 30 28 76q0 32 -19 51q-20 20 -60 20q-33 0 -64 -11zM701 517l-109 -517h-112l106 500z" />
    <glyph glyph-name="afii10094" unicode="&#x44c;" horiz-adv-x="494" 
d="M248 517l-43 -205q40 11 81 11q84 0 128 -44q35 -36 35 -93q0 -79 -53 -133q-65 -65 -188 -65q-85 0 -157 26l-19 7l101 479zM188 232l-32 -150q32 -14 66 -14q54 0 81 28q28 30 28 76q0 32 -19 51q-20 20 -60 20q-33 0 -64 -11z" />
    <glyph glyph-name="afii10095" unicode="&#x44d;" horiz-adv-x="482" 
d="M156 226l16 80h144q4 19 4 45q0 42 -21 63q-19 20 -59 20q-30 0 -57 -12t-49 -29l-39 68q42 29 68 39q43 18 100 18q85 0 129 -46q46 -47 46 -136q0 -74 -24.5 -150.5t-76.5 -129.5q-66 -68 -177 -68q-64 0 -109 24q-33 16 -56 44l67 67q18 -20 32 -30q31 -21 69 -21
q53 0 85 32q36 36 50 106l3 16h-145z" />
    <glyph glyph-name="afii10096" unicode="&#x44e;" horiz-adv-x="769" 
d="M209 308h86q25 79 78 133q76 77 180 77q79 0 126 -47q46 -46 46 -137q0 -75 -26 -148t-78 -124q-76 -74 -179 -74q-80 0 -125 47q-44 46 -44 141q0 24 4 52h-85l-48 -228h-112l106 500l115 17zM534 434q-39 0 -69 -30q-31 -31 -55 -106q-21 -66 -21 -131q0 -53 20 -75
q19 -20 49 -20q40 0 72 31q37 37 59 115q18 64 18 127q0 48 -20 69q-18 20 -53 20z" />
    <glyph glyph-name="afii10097" unicode="&#x44f;" horiz-adv-x="530" 
d="M333 201h-45q-39 0 -60 -20q-13 -13 -27 -43l-28 -60q-16 -32 -32 -48q-15 -15 -33.5 -23t-30.5 -10t-38 -4l-40 -3l-8 78l18 3q26 4 41 18q9 7 20 27l34 57q13 23 26 36q24 24 62 31q-39 7 -64 32q-28 28 -28 76q0 60 44 106q61 64 195 64q74 0 142 -15l22 -5l-105 -498
h-108zM349 281l32 150q-30 7 -57 7q-56 0 -87 -28q-26 -24 -26 -64q0 -28 18 -45q21 -20 68 -20h52z" />
    <glyph glyph-name="uni0450" unicode="&#x450;" horiz-adv-x="513" 
d="M491 383q0 -62 -45 -105q-66 -64 -215 -64q-16 0 -37.5 2t-23.5 2q-6 -30 -6 -53q0 -46 24.5 -69.5t67.5 -23.5q73 0 143 55l34 -68q-90 -72 -206 -72q-83 0 -131.5 48.5t-48.5 136.5q0 76 30.5 151.5t82.5 125.5q72 69 171 69q75 0 117.5 -34.5t42.5 -100.5zM380 376
q0 60 -63 60q-44 0 -78.5 -35.5t-50.5 -104.5q2 0 18 -1.5t26 -1.5q94 0 127 33q21 21 21 50zM432 622l-37 -62l-219 100l56 94z" />
    <glyph glyph-name="afii10071" unicode="&#x451;" horiz-adv-x="513" 
d="M491 383q0 -62 -45 -105q-66 -64 -215 -64q-16 0 -37.5 2t-23.5 2q-6 -30 -6 -53q0 -46 24.5 -69.5t67.5 -23.5q73 0 143 55l34 -68q-90 -72 -206 -72q-83 0 -131.5 48.5t-48.5 136.5q0 76 30.5 151.5t82.5 125.5q72 69 171 69q75 0 117.5 -34.5t42.5 -100.5zM380 376
q0 60 -63 60q-44 0 -78.5 -35.5t-50.5 -104.5q2 0 18 -1.5t26 -1.5q94 0 127 33q21 21 21 50zM306 629q0 -29 -20 -48.5t-48 -19.5t-47.5 20t-19.5 48t20 47.5t48 19.5t47.5 -19.5t19.5 -47.5zM516 629q0 -29 -20 -48.5t-48 -19.5t-47.5 20t-19.5 48t20 47.5t48 19.5
t47.5 -19.5t19.5 -47.5z" />
    <glyph glyph-name="afii10099" unicode="&#x452;" horiz-adv-x="570" 
d="M523 420q0 -26 -8 -62l-61 -290q-14 -70 -34 -118.5t-62 -90.5q-43 -45 -107 -69l-35 64q30 16 54 41q52 57 76 173l57 273q6 32 6 42q-1 43 -47 43q-31 0 -73.5 -27.5t-74.5 -68.5l-70 -330h-109l118 556l5 25h-54l14 68h49v11q0 22 -5 44l112 38q6 -18 6 -49
q0 -21 -3 -44h186l-38 -68h-158q-1 -2 -1 -4l-15 -70q-11 -48 -20 -76q35 42 83.5 65t95.5 23q54 0 83.5 -27t29.5 -72z" />
    <glyph glyph-name="afii10100" unicode="&#x453;" horiz-adv-x="452" 
d="M128 394l-34 74q39 22 80 35q48 15 101 15q82 0 124 -42q33 -33 33 -90q0 -54 -32 -87q-20 -20 -47 -34.5t-88 -36.5q-64 -24 -89 -36t-38 -28q-15 -16 -15 -40q0 -21 13 -34q19 -18 58 -18q40 0 85 15q38 13 68 34l27 -79l-10 -6q-28 -17 -74 -32q-49 -16 -109 -16
q-80 0 -122 33q-44 34 -44 99q0 57 41 97q34 33 137 68q89 30 114 56q17 17 17 39q0 29 -21 43q-17 11 -47 11q-34 0 -70 -13q-21 -7 -58 -27zM413 660l-233 -101l-34 63l221 131z" />
    <glyph glyph-name="afii10101" unicode="&#x454;" horiz-adv-x="465" 
d="M315 220h-145q-10 -33 -10 -67q0 -42 21 -63t60 -21t73 17q21 10 52 35l40 -65q-34 -30 -77 -48q-49 -20 -108 -20q-81 0 -126 41q-48 44 -48 129q0 72 29 152.5t82 133.5q73 74 177 74q47 0 84 -16q28 -12 51 -35l-59 -72q-15 17 -34 27q-26 15 -57 15q-43 0 -76 -30
q-36 -34 -53 -96l-3 -11h144z" />
    <glyph glyph-name="afii10102" unicode="&#x455;" horiz-adv-x="479" 
d="M454 480l-44 -77q-61 35 -121 35q-42 0 -67 -16t-25 -46q0 -39 54 -59l60 -23q103 -40 103 -120q0 -81 -63 -135t-171 -54q-103 0 -187 53l44 81q72 -50 158 -50q41 0 69 21t28 52q0 24 -14.5 38t-49.5 28l-58 22q-95 36 -95 121q0 71 58 121.5t163 50.5q89 0 158 -43z
" />
    <glyph glyph-name="afii10103" unicode="&#x456;" horiz-adv-x="279" 
d="M256 517l-109 -517h-112l106 500zM303 653q0 -31 -21 -52.5t-52 -21.5q-30 0 -51.5 21.5t-21.5 51.5q0 31 21.5 52.5t52.5 21.5q30 0 51 -21.5t21 -51.5z" />
    <glyph glyph-name="afii10104" unicode="&#x457;" horiz-adv-x="279" 
d="M256 517l-109 -517h-112l106 500zM187 629q0 -29 -19.5 -48.5t-48.5 -19.5q-28 0 -47.5 20t-19.5 48t20 47.5t48 19.5t47.5 -19.5t19.5 -47.5zM397 629q0 -29 -19.5 -48.5t-48.5 -19.5q-28 0 -47.5 20t-19.5 48t20 47.5t48 19.5t47.5 -19.5t19.5 -47.5z" />
    <glyph glyph-name="afii10105" unicode="&#x458;" horiz-adv-x="271" 
d="M249 518l-107 -504q-23 -105 -66 -152q-40 -44 -112 -72l-36 66q42 18 67 54q24 34 38 103l103 486zM297 658q0 -31 -21.5 -53t-52.5 -22q-30 0 -51.5 20.5t-21.5 51.5t22 53t53 22q29 0 50.5 -21t21.5 -51z" />
    <glyph glyph-name="afii10106" unicode="&#x459;" horiz-adv-x="739" 
d="M491 506l-41 -194q40 11 81 11q84 0 128 -44q35 -36 35 -93q0 -79 -53 -133q-65 -65 -188 -65q-85 0 -157 26l-19 7l85 405h-97l-23 -84q-13 -49 -40 -131q-41 -129 -78 -168q-38 -40 -117 -49l-34 -4l-9 78l25 6q35 8 56 28q23 21 49 91q15 42 33 98q14 46 36 129l23 86
h305zM433 232l-32 -150q32 -14 66 -14q54 0 81 28q28 30 28 76q0 32 -19 51q-20 20 -60 20q-33 0 -64 -11z" />
    <glyph glyph-name="afii10107" unicode="&#x45a;" horiz-adv-x="773" 
d="M527 517l-43 -205q40 11 81 11q84 0 128 -44q35 -36 35 -93q0 -79 -53 -133q-65 -65 -188 -65q-85 0 -157 26l-19 7l43 207h-163l-48 -228h-108l106 497l112 21l-45 -210h163l41 192zM467 232l-32 -150q32 -14 66 -14q54 0 81 28q28 30 28 76q0 32 -19 51q-20 20 -60 20
q-33 0 -64 -11z" />
    <glyph glyph-name="afii10108" unicode="&#x45b;" horiz-adv-x="573" 
d="M523 420q0 -26 -8 -62l-76 -358h-108l72 341q6 32 6 42q-1 43 -47 43q-31 0 -73.5 -27.5t-74.5 -68.5l-70 -330h-109l118 556l5 25h-54l14 68h49v11q0 22 -5 44l112 38q6 -18 6 -49q0 -21 -3 -44h186l-38 -68h-158l-16 -74q-11 -48 -20 -76q35 42 83.5 65t95.5 23
q54 0 83.5 -27t29.5 -72z" />
    <glyph glyph-name="afii10109" unicode="&#x45c;" horiz-adv-x="533" 
d="M140 498l114 20l-41 -185l-30 -97h3q22 44 43 79q28 48 72 93q44 44 93 70q44 24 116 40l23 -77l-18 -5q-71 -19 -126 -58q-51 -37 -84 -93l17 -2q39 -4 61 -23q26 -26 28 -68l4 -73q2 -26 11 -35q7 -8 34 -15l14 -4l-31 -75l-33 4q-1 0 -11.5 1.5t-14.5 2t-13.5 3t-15 5
t-13 7.5t-12.5 11q-19 22 -19 76l-1 71q0 26 -16 36q-14 9 -37 7q-70 -96 -117 -214h-105zM463 660l-233 -101l-34 63l221 131z" />
    <glyph glyph-name="uni045D" unicode="&#x45d;" horiz-adv-x="554" 
d="M527 516l-80 -374q-6 -28 -6 -50q0 -36 18 -63l-92 -48q-30 35 -30 83v4q-77 -83 -166 -83q-55 0 -85.5 26.5t-30.5 76.5q0 34 9 77l70 332l113 21l-70 -332q-10 -43 -10 -67q0 -48 40 -48q33 0 73.5 28.5t65.5 70.5l70 325zM446 622l-37 -62l-219 100l56 94z" />
    <glyph glyph-name="afii10110" unicode="&#x45e;" horiz-adv-x="493" 
d="M544 506l-267 -477q-50 -89 -80 -132.5t-63 -66.5q-50 -35 -118 -46l-23 74q45 8 89 38q24 17 40.5 39.5t37.5 64.5l-35 -2q0 67 -12 159l-44 342l114 16l28 -307q4 -51 4 -114h1q16 42 62 132l146 280h120zM420 717l54 -25q-16 -40 -42 -67q-45 -46 -122 -46
q-68 0 -105 37q-28 28 -35 76l66 25q6 -25 19 -39q20 -22 59 -22q38 0 63 15q26 15 43 46z" />
    <glyph glyph-name="afii10193" unicode="&#x45f;" horiz-adv-x="554" 
d="M278 -14l-34 -158h-104l27 125zM527 516l-80 -374q-6 -28 -6 -50q0 -36 18 -63l-92 -48q-30 35 -30 83v4q-77 -83 -166 -83q-55 0 -85.5 26.5t-30.5 76.5q0 34 9 77l70 332l113 21l-70 -332q-10 -43 -10 -67q0 -48 40 -48q33 0 73.5 28.5t65.5 70.5l70 325z" />
    <glyph glyph-name="afii10146" unicode="&#x462;" horiz-adv-x="575" 
d="M298 691l-19 -89h137l-19 -65h-132l-25 -122h66q41 0 67 -2t64 -13.5t62 -34.5q46 -44 46 -121q0 -97 -67 -164q-80 -80 -248 -80h-194l113 537h-53l15 65h52l19 89h116zM172 94h59q35 0 55.5 1.5t48.5 12t47 30.5q37 39 37 93q0 44 -26 66q-27 24 -99 24h-74z" />
    <glyph glyph-name="afii10194" unicode="&#x463;" horiz-adv-x="494" 
d="M248 517l-14 -68h126l-13 -64h-127l-15 -73q40 11 81 11q84 0 128 -44q35 -36 35 -93q0 -79 -53 -133q-65 -65 -188 -65q-85 0 -157 26l-19 7l77 364h-49l14 64h48l11 51zM188 232l-32 -150q32 -14 66 -14q54 0 81 28q28 30 28 76q0 32 -19 51q-20 20 -60 20
q-33 0 -64 -11z" />
    <glyph glyph-name="afii10147" unicode="&#x472;" horiz-adv-x="702" 
d="M680 459q0 -131 -56 -251t-150 -175q-75 -45 -175 -45q-116 0 -174 66.5t-58 180.5q0 124 48.5 228.5t118.5 163.5q87 75 215 75q109 0 170 -64.5t61 -178.5zM528 313h-327q-9 -51 -9 -98q0 -138 127 -138q77 0 125 54q52 57 84 182zM552 479q0 62 -30.5 97t-92.5 35
q-87 0 -140 -69q-39 -53 -65 -134h323q5 42 5 71z" />
    <glyph glyph-name="afii10195" unicode="&#x473;" horiz-adv-x="551" 
d="M507 340q0 -146 -78 -249t-212 -103q-84 0 -130 47t-46 134q0 148 81 248.5t206 100.5q86 0 132.5 -47t46.5 -131zM237 71q46 0 79.5 39.5t52.5 103.5h-207q-3 -28 -3 -55q0 -88 78 -88zM388 344q0 90 -77 90q-45 0 -78.5 -39.5t-53.5 -101.5h206q3 25 3 51z" />
    <glyph glyph-name="afii10148" unicode="&#x474;" horiz-adv-x="590" 
d="M557 468l-262 -471h-107l-87 694h122l41 -406q7 -80 6 -135q21 47 71 141l131 241q32 58 55 88t61 51.5t96 30.5l24 -86q-51 -13 -80 -43t-71 -105z" />
    <glyph glyph-name="afii10196" unicode="&#x475;" horiz-adv-x="465" 
d="M425 331l-194 -333h-96l-76 502l112 17l33 -280q6 -49 6 -107q37 84 52 110l75 136q36 64 73 95t99 47l22 -81q-39 -16 -59 -37.5t-47 -68.5z" />
    <glyph glyph-name="afii10050" unicode="&#x490;" horiz-adv-x="422" 
d="M462 792h104l-41 -197h-245l-126 -595h-118l146 691h259z" />
    <glyph glyph-name="afii10098" unicode="&#x491;" horiz-adv-x="439" 
d="M236 426l-90 -426h-111l107 506h186l17 78l115 17l-37 -175h-187z" />
    <glyph glyph-name="uni0492" unicode="&#x492;" horiz-adv-x="422" 
d="M545 691l-36 -96h-229l-38 -179h124l-17 -83h-125l-70 -333h-118l70 333h-86l17 83h87l58 275h363z" />
    <glyph glyph-name="uni0493" unicode="&#x493;" horiz-adv-x="452" 
d="M403 233h-145q-30 -11 -44.5 -17t-35.5 -17t-30.5 -20.5t-17 -23.5t-7.5 -31q0 -25 19.5 -38.5t51.5 -13.5q40 0 85 15q38 13 68 34l27 -79l-10 -6q-28 -17 -74 -32q-49 -16 -109 -16q-75 0 -120.5 30.5t-45.5 90.5q0 82 111 128h-90l11 58h188q42 17 65.5 37t23.5 51
q0 23 -17.5 37t-50.5 14q-34 0 -70 -13q-21 -7 -58 -27l-34 74q39 22 80 35q48 15 101 15q66 0 110 -29.5t44 -91.5q0 -70 -72 -107h76z" />
    <glyph glyph-name="uni0496" unicode="&#x496;" horiz-adv-x="900" 
d="M683 -174l38 177q-30 9 -45 25q-23 24 -23 75l-3 135q0 42 -22 63q-19 18 -57 18h-46l-67 -319h-116l68 319h-50q-45 0 -77 -30q-17 -16 -37 -61l-45 -104q-27 -64 -50 -87q-32 -31 -102 -39l-59 -7l-5 81l25 7q36 10 55 27q12 11 32 51l50 105q16 34 37 55q31 33 82 49
q-28 8 -46 31q-17 22 -21 79l-6 80q-2 31 -15 45q-12 13 -46 20l-16 4l38 77l46 -7q48 -8 67 -26q24 -24 26 -75l4 -93q2 -50 16 -66q18 -22 75 -22h42l59 278h116l-59 -278h43q61 0 91 30q17 17 36 61l38 90q18 42 36 60q32 33 104 42l50 6l6 -79l-28 -6q-37 -8 -52 -22
q-10 -10 -24 -38l-39 -81q-23 -48 -44 -71q-27 -28 -69 -39q20 -8 33 -21q30 -30 33 -83l8 -114q3 -43 20 -54h65l-58 -268h-112z" />
    <glyph glyph-name="uni0497" unicode="&#x497;" horiz-adv-x="885" 
d="M689 -169l32 158q-8 -1 -21 -1q-63 0 -98 34q-43 42 -43 134q0 38 6 73h-70l-48 -229h-108l48 229h-70q-25 -112 -95 -182q-59 -59 -143 -59q-61 0 -98 44l56 69q19 -31 51 -31q28 0 53 23q41 39 67 120q23 71 23 144q0 46 -20 65q-16 14 -36 14q-44 0 -72 -42l-37 63
q48 61 133 61q58 0 94 -36q43 -43 43 -129q0 -15 -3 -44h72l39 189l114 20l-45 -209h73q33 97 91 153q59 56 134 56q65 0 103 -45l-56 -68q-18 31 -52 31q-30 0 -55 -25q-38 -35 -65 -125q-22 -71 -22 -135q0 -48 20 -67q16 -14 37 -14q23 0 39 12h75l-53 -251h-93z" />
    <glyph glyph-name="uni049A" unicode="&#x49a;" horiz-adv-x="615" 
d="M397 -174l38 177q-24 7 -38 21q-17 17 -22.5 38t-6.5 59l-2 107q0 48 -19 69q-20 22 -74 22h-54l-68 -319h-116l148 691h116l-60 -278h55q71 0 101 30q6 6 11.5 14t8.5 14t7 16.5t6 13.5l41 93q18 42 38 62q30 30 89 38l63 8l6 -79l-34 -8q-31 -7 -47 -23
q-10 -10 -23 -36l-39 -80q-25 -52 -47 -74q-29 -29 -66 -36q22 -10 36 -24q25 -26 29 -80l9 -113q3 -48 22 -55h62l-58 -268h-112z" />
    <glyph glyph-name="uni049B" unicode="&#x49b;" horiz-adv-x="533" 
d="M332 -169l35 170q-23 7 -37 23q-19 22 -19 76l-1 71q0 26 -16 36q-14 9 -37 7q-70 -96 -117 -214h-105l105 498l114 20l-41 -185l-30 -97h3q22 44 43 79q28 48 72 93q44 44 93 70q44 24 116 40l23 -77l-18 -5q-71 -19 -126 -58q-51 -37 -84 -93l17 -2q39 -4 61 -23
q26 -26 28 -68l4 -73q1 -25 12 -37h51l-53 -251h-93z" />
    <glyph glyph-name="uni049C" unicode="&#x49c;" horiz-adv-x="625" 
d="M669 702l6 -79l-34 -8q-31 -7 -47 -23q-10 -10 -23 -36l-39 -80q-25 -52 -47 -74q-29 -29 -66 -36q22 -10 36 -24q25 -26 29 -80l9 -113q2 -36 16 -50q6 -6 43 -21l20 -6l-39 -81l-52 6q-52 5 -74 27q-17 17 -22.5 38t-6.5 59l-2 107q0 48 -19 69q-9 9 -18 13l-25 -119
h-78l27 128h-44l-68 -319h-116l148 691h116l-60 -278h44l28 127h78l-26 -121q25 7 42 24q6 6 11.5 14t8.5 14t7 16.5t6 13.5l41 93q18 42 38 62q30 30 89 38z" />
    <glyph glyph-name="uni049D" unicode="&#x49d;" horiz-adv-x="548" 
d="M262 407h72l-21 -98q13 3 25 12q19 15 31 47l23 57q16 38 39 58q29 24 87 29l33 3l8 -72l-26 -5q-19 -3 -30 -12q-14 -10 -26 -34l-25 -54q-12 -26 -35 -46q-18 -18 -43 -23l-1 -2q20 -5 31 -22q10 -14 14 -52l6 -75q2 -22 11 -34q5 -6 37 -16l10 -3l-31 -75l-29 3
q-37 4 -53.5 9.5t-30.5 20.5q-19 21 -19 67l-1 71q0 37 -13 50q-10 7 -11 8l-24 -112h-72l25 117h-32l-47 -224h-109l105 497l114 21l-45 -212h31z" />
    <glyph glyph-name="uni04A2" unicode="&#x4a2;" horiz-adv-x="640" 
d="M410 -174l37 174h-59l68 320h-239l-68 -320h-114l148 691h113l-59 -277h238l60 277h116l-128 -597h57l-58 -268h-112z" />
    <glyph glyph-name="uni04A3" unicode="&#x4a3;" horiz-adv-x="555" 
d="M336 -169l35 169h-61l48 228h-167l-48 -228h-108l106 497l112 21l-45 -210h167l40 189l113 21l-93 -436h47l-53 -251h-93z" />
    <glyph glyph-name="uni04AE" unicode="&#x4ae;" horiz-adv-x="550" 
d="M651 691l-310 -413l-60 -278h-119l60 280l-131 411h134l59 -221q13 -50 17 -84q5 7 15 22.5l20 31t20 29.5l156 222h139z" />
    <glyph glyph-name="uni04AF" unicode="&#x4af;" horiz-adv-x="435" 
d="M92 322l-23 177l114 16l14 -166q5 -63 5 -115q0 -12 -0.5 -34t-0.5 -32q28 63 35 77l132 261h118l-287 -505q-16 -110 -40 -190l-110 -25q53 214 53 326q0 132 -10 210z" />
    <glyph glyph-name="uni04B0" unicode="&#x4b0;" horiz-adv-x="550" 
d="M651 691l-267 -356h138l-17 -83h-170l-54 -252h-119l54 252h-156l17 83h127l-113 356h134l59 -221q13 -50 17 -84q5 7 15 22.5l20 31t20 29.5l156 222h139z" />
    <glyph glyph-name="uni04B1" unicode="&#x4b1;" horiz-adv-x="435" 
d="M317 0h-118q-1 -3 -5.5 -28t-9.5 -52t-12 -58.5t-13 -50.5l-110 -25q35 144 45 214h-106l16 78h97q1 11 1 34q0 132 -10 210l-23 177l114 16l14 -166q5 -63 5 -115q0 -12 -0.5 -34t-0.5 -32q28 63 35 77l132 261h118l-243 -428h115z" />
    <glyph glyph-name="uni04B2" unicode="&#x4b2;" horiz-adv-x="525" 
d="M350 -174l37 174h-21l-90 264l-192 -264h-145l295 372l-122 319h132l73 -218l156 218h138l-250 -328l103 -269h56l-58 -268h-112z" />
    <glyph glyph-name="uni04B3" unicode="&#x4b3;" horiz-adv-x="450" 
d="M294 -169l35 169h-36q-5 15 -23.5 60.5t-33.5 83.5t-16 46q-15 -27 -151 -190h-141l249 276l-101 217l119 21q44 -109 58 -159q5 8 112 151h132l-204 -237l90 -187h57l-53 -251h-93z" />
    <glyph glyph-name="uni04B6" unicode="&#x4b6;" horiz-adv-x="594" 
d="M365 -174l37 174h-60l62 294q-76 -29 -152 -29q-84 0 -123 41q-29 30 -29 85q0 30 12 83l46 217h116l-48 -224q-6 -28 -6 -47q0 -31 19 -47q22 -18 63 -18q55 0 120 24l67 312h116l-127 -597h57l-58 -268h-112z" />
    <glyph glyph-name="uni04B7" unicode="&#x4b7;" horiz-adv-x="512" 
d="M295 -169l35 169h-62l44 205q-47 -21 -102 -21q-74 0 -110 36q-25 25 -25 62q0 26 5 46l36 169l112 21l-39 -185q-3 -15 -3 -26q0 -17 10 -29q17 -18 59 -18q37 0 73 17l46 220l111 21l-92 -436h48l-53 -251h-93z" />
    <glyph glyph-name="uni04B8" unicode="&#x4b8;" horiz-adv-x="595" 
d="M458 0h-116l62 294q-30 -12 -73 -22l-28 -130h-80l26 123q-81 0 -120 41q-29 30 -29 85q0 30 12 83l46 217h116l-48 -224q-6 -28 -6 -47q0 -31 19 -47q11 -10 30 -15l29 133h80l-29 -132q33 5 73 20l67 312h116z" />
    <glyph glyph-name="uni04B9" unicode="&#x4b9;" horiz-adv-x="512" 
d="M374 497l111 21l-109 -518h-108l44 205q-24 -11 -45 -15l-23 -113h-70l22 107q-63 2 -96 36q-25 25 -25 62q0 26 5 46l36 169l112 21l-39 -185q-3 -15 -3 -26q0 -17 10 -29q6 -8 18 -12l23 111h70l-25 -115q20 3 46 15z" />
    <glyph glyph-name="uni04BA" unicode="&#x4ba;" horiz-adv-x="598" 
d="M182 691h116l-62 -294q76 29 152 29q84 0 123 -41q29 -30 29 -85q0 -30 -12 -83l-46 -217h-116l48 224q6 28 6 47q0 31 -19 47q-22 18 -63 18q-55 0 -120 -24l-67 -312h-116z" />
    <glyph glyph-name="uni04BB" unicode="&#x4bb;" horiz-adv-x="573" 
d="M523 420q0 -26 -8 -62l-76 -358h-108l72 341q6 32 6 42q-1 43 -47 43q-31 0 -73.5 -27.5t-74.5 -68.5l-70 -330h-109l118 556q14 68 14 104q0 22 -5 44l112 38q6 -18 6 -49q0 -54 -14 -116l-15 -70q-11 -48 -20 -76q35 42 83.5 65t95.5 23q54 0 83.5 -27t29.5 -72z" />
    <glyph glyph-name="uni04C0" unicode="&#x4c0;" horiz-adv-x="288" 
d="M299 691l-147 -691h-117l148 691h116z" />
    <glyph glyph-name="uni04CF" unicode="&#x4cf;" horiz-adv-x="273" 
d="M272 742q4 -15 4 -46q0 -64 -13 -123l-122 -573h-111l118 555q14 65 14 105q0 26 -6 44z" />
    <glyph glyph-name="uni04D8" unicode="&#x4d8;" horiz-adv-x="625" 
d="M240 -12q-96 0 -150.5 44.5t-55.5 129.5q-1 108 92.5 168t238.5 60q54 0 98 -7q8 40 8 86q-1 70 -35.5 106.5t-94.5 36.5q-87 0 -191 -77l-39 78q113 88 247 88q118 0 181.5 -63t63.5 -179q0 -103 -39.5 -208.5t-107.5 -172.5q-93 -90 -216 -90zM251 77q69 0 118.5 54.5
t74.5 163.5q-24 4 -74 4q-37 0 -71 -6t-66 -19.5t-51 -39.5t-19 -62q0 -42 22 -68.5t66 -26.5z" />
    <glyph glyph-name="afii10846" unicode="&#x4d9;" horiz-adv-x="509" 
d="M13 122q0 62 45 105q66 64 215 64q16 0 37.5 -2t23.5 -2q6 30 6 53q0 46 -24.5 69.5t-67.5 23.5q-73 0 -143 -55l-34 68q90 72 206 72q83 0 131.5 -48.5t48.5 -136.5q0 -76 -30.5 -151.5t-82.5 -125.5q-72 -69 -171 -69q-75 0 -117.5 34.5t-42.5 100.5zM124 129
q0 -60 63 -60q44 0 78.5 35.5t50.5 104.5q-2 0 -18 1.5t-26 1.5q-94 0 -127 -33q-21 -21 -21 -50z" />
    <glyph glyph-name="uni04E2" unicode="&#x4e2;" horiz-adv-x="658" 
d="M522 0h-116l84 397q14 66 36 140q-34 -64 -61 -101l-310 -436h-119l146 691h116l-85 -400q-12 -59 -35 -132q30 56 69 111l297 421h124zM596 828l-16 -76h-297l16 76h297z" />
    <glyph glyph-name="uni04E3" unicode="&#x4e3;" horiz-adv-x="554" 
d="M527 516l-80 -374q-6 -28 -6 -50q0 -36 18 -63l-92 -48q-30 35 -30 83v4q-77 -83 -166 -83q-55 0 -85.5 26.5t-30.5 76.5q0 34 9 77l70 332l113 21l-70 -332q-10 -43 -10 -67q0 -48 40 -48q33 0 73.5 28.5t65.5 70.5l70 325zM507 666l-16 -76h-297l16 76h297z" />
    <glyph glyph-name="uni04E8" unicode="&#x4e8;" horiz-adv-x="702" 
d="M680 459q0 -131 -56 -251t-150 -175q-75 -45 -175 -45q-116 0 -174 66.5t-58 180.5q0 124 48.5 228.5t118.5 163.5q87 75 215 75q109 0 170 -64.5t61 -178.5zM528 313h-327q-9 -51 -9 -98q0 -138 127 -138q77 0 125 54q52 57 84 182zM552 479q0 62 -30.5 97t-92.5 35
q-87 0 -140 -69q-39 -53 -65 -134h323q5 42 5 71z" />
    <glyph glyph-name="uni04E9" unicode="&#x4e9;" horiz-adv-x="551" 
d="M507 340q0 -146 -78 -249t-212 -103q-84 0 -130 47t-46 134q0 148 81 248.5t206 100.5q86 0 132.5 -47t46.5 -131zM237 71q46 0 79.5 39.5t52.5 103.5h-207q-3 -28 -3 -55q0 -88 78 -88zM388 344q0 90 -77 90q-45 0 -78.5 -39.5t-53.5 -101.5h206q3 25 3 51z" />
    <glyph glyph-name="uni04EE" unicode="&#x4ee;" horiz-adv-x="532" 
d="M214 691l55 -293q14 -79 17 -124q15 36 72 143l148 274h121l-308 -551q-44 -77 -68 -101q-49 -50 -148 -61l-34 -4l-4 84l25 5q58 12 91 47q20 20 45 67l17 32l-54 -10l-95 492h120zM530 828l-16 -76h-297l16 76h297z" />
    <glyph glyph-name="uni04EF" unicode="&#x4ef;" horiz-adv-x="493" 
d="M544 506l-267 -477q-50 -89 -80 -132.5t-63 -66.5q-50 -35 -118 -46l-23 74q45 8 89 38q24 17 40.5 39.5t37.5 64.5l-35 -2q0 67 -12 159l-44 342l114 16l28 -307q4 -51 4 -114h1q16 42 62 132l146 280h120zM478 666l-16 -76h-297l16 76h297z" />
    <glyph glyph-name="Wgrave" unicode="&#x1e80;" horiz-adv-x="816" 
d="M907 691l-311 -693h-133l-3 324q-1 75 10 212q-71 -188 -79 -208l-139 -328h-134l-17 693h119l1 -329q0 -78 -10 -223q48 135 83 215l147 337h126v-349q0 -151 -7 -198q34 101 87 225l138 322h122zM645 784l-37 -62l-219 100l56 94z" />
    <glyph glyph-name="wgrave" unicode="&#x1e81;" horiz-adv-x="699" 
d="M746 506l-252 -508h-101l-12 188q-9 135 -4 189h-2q-7 -21 -16 -40l-56 -123l-103 -214h-103l-32 501l110 16l4 -254q1 -63 -3 -128h1q16 48 57 133l118 240h107l11 -240q1 -22 1 -134h1q35 93 49 125l109 249h116zM553 622l-37 -62l-219 100l56 94z" />
    <glyph glyph-name="Wacute" unicode="&#x1e82;" horiz-adv-x="816" 
d="M907 691l-311 -693h-133l-3 324q-1 75 10 212q-71 -188 -79 -208l-139 -328h-134l-17 693h119l1 -329q0 -78 -10 -223q48 135 83 215l147 337h126v-349q0 -151 -7 -198q34 101 87 225l138 322h122zM677 822l-233 -101l-34 63l221 131z" />
    <glyph glyph-name="wacute" unicode="&#x1e83;" horiz-adv-x="699" 
d="M746 506l-252 -508h-101l-12 188q-9 135 -4 189h-2q-7 -21 -16 -40l-56 -123l-103 -214h-103l-32 501l110 16l4 -254q1 -63 -3 -128h1q16 48 57 133l118 240h107l11 -240q1 -22 1 -134h1q35 93 49 125l109 249h116zM569 660l-233 -101l-34 63l221 131z" />
    <glyph glyph-name="Wdieresis" unicode="&#x1e84;" horiz-adv-x="816" 
d="M907 691l-311 -693h-133l-3 324q-1 75 10 212q-71 -188 -79 -208l-139 -328h-134l-17 693h119l1 -329q0 -78 -10 -223q48 135 83 215l147 337h126v-349q0 -151 -7 -198q34 101 87 225l138 322h122zM681 793q0 -28 -19.5 -48t-47.5 -20t-48 19.5t-20 48.5q0 28 20 47.5
t48 19.5t47.5 -19.5t19.5 -47.5zM472 793q0 -29 -20 -48.5t-48 -19.5t-47.5 20t-19.5 48t20 47.5t48 19.5t47.5 -19.5t19.5 -47.5z" />
    <glyph glyph-name="wdieresis" unicode="&#x1e85;" horiz-adv-x="699" 
d="M746 506l-252 -508h-101l-12 188q-9 135 -4 189h-2q-7 -21 -16 -40l-56 -123l-103 -214h-103l-32 501l110 16l4 -254q1 -63 -3 -128h1q16 48 57 133l118 240h107l11 -240q1 -22 1 -134h1q35 93 49 125l109 249h116zM587 629q0 -28 -19.5 -48t-47.5 -20t-48 19.5t-20 48.5
q0 28 20 47.5t48 19.5t47.5 -19.5t19.5 -47.5zM378 629q0 -29 -20 -48.5t-48 -19.5t-47.5 20t-19.5 48t20 47.5t48 19.5t47.5 -19.5t19.5 -47.5z" />
    <glyph glyph-name="uni1E8A" unicode="&#x1e8a;" horiz-adv-x="525" 
d="M611 691l-250 -328l139 -363h-134l-90 264l-192 -264h-145l295 372l-122 319h132l73 -218l156 218h138zM442 799q0 -31 -21 -52.5t-52 -21.5q-30 0 -51.5 21.5t-21.5 51.5q0 31 21.5 52.5t52.5 21.5q30 0 51 -21.5t21 -51.5z" />
    <glyph glyph-name="uni1E8B" unicode="&#x1e8b;" horiz-adv-x="450" 
d="M497 506l-204 -237l130 -269h-130q-5 15 -23.5 60.5t-33.5 83.5t-16 46q-15 -27 -151 -190h-141l249 276l-101 217l119 21q44 -109 58 -159q5 8 112 151h132zM373 653q0 -31 -21 -52.5t-52 -21.5q-30 0 -51.5 21.5t-21.5 51.5q0 31 21.5 52.5t52.5 21.5q30 0 51 -21.5
t21 -51.5z" />
    <glyph glyph-name="Ygrave" unicode="&#x1ef2;" horiz-adv-x="550" 
d="M651 691l-310 -413l-60 -278h-119l60 280l-131 411h134l59 -221q13 -50 17 -84q5 7 15 22.5l20 31t20 29.5l156 222h139zM470 784l-37 -62l-219 100l56 94z" />
    <glyph glyph-name="ygrave" unicode="&#x1ef3;" horiz-adv-x="493" 
d="M544 506l-267 -477q-50 -89 -80 -132.5t-63 -66.5q-50 -35 -118 -46l-23 74q45 8 89 38q24 17 40.5 39.5t37.5 64.5l-35 -2q0 67 -12 159l-44 342l114 16l28 -307q4 -51 4 -114h1q16 42 62 132l146 280h120zM432 622l-37 -62l-219 100l56 94z" />
    <glyph glyph-name="uni2007" unicode="&#x2007;" horiz-adv-x="591" 
 />
    <glyph glyph-name="uni2008" unicode="&#x2008;" horiz-adv-x="290" 
 />
    <glyph glyph-name="uni200B" unicode="&#x200b;" horiz-adv-x="0" 
 />
    <glyph glyph-name="endash" unicode="&#x2013;" horiz-adv-x="581" 
d="M552 319l-18 -84h-486l18 84h486z" />
    <glyph glyph-name="emdash" unicode="&#x2014;" horiz-adv-x="807" 
d="M778 319l-18 -84h-712l18 84h712z" />
    <glyph glyph-name="afii00208" unicode="&#x2015;" horiz-adv-x="807" 
d="M778 319l-18 -84h-712l18 84h712z" />
    <glyph glyph-name="quoteleft" unicode="&#x2018;" horiz-adv-x="273" 
d="M320 663q-34 -13 -58 -33.5t-24 -36.5q0 -10 16 -20q32 -19 32 -64q0 -36 -24 -59.5t-59 -23.5q-38 0 -61.5 25t-23.5 69q0 71 65 133q46 44 104 61z" />
    <glyph glyph-name="quoteright" unicode="&#x2019;" horiz-adv-x="273" 
d="M297 611q0 -71 -65 -133q-46 -44 -104 -61l-33 51q34 13 58 33.5t24 36.5q0 10 -16 20q-32 19 -32 64q0 36 24 59.5t59 23.5q38 0 61.5 -25t23.5 -69z" />
    <glyph glyph-name="quotesinglbase" unicode="&#x201a;" horiz-adv-x="272" 
d="M174 49q0 -71 -65 -133q-46 -44 -104 -61l-33 51q34 13 58 33.5t24 36.5q0 10 -16 20q-32 19 -32 64q0 36 24 59.5t59 23.5q38 0 61.5 -25t23.5 -69z" />
    <glyph glyph-name="quotedblleft" unicode="&#x201c;" horiz-adv-x="486" 
d="M534 663q-34 -13 -58 -33.5t-24 -36.5q0 -10 16 -20q32 -19 32 -64q0 -36 -24 -59.5t-59 -23.5q-38 0 -61.5 25t-23.5 69q0 71 65 133q46 44 104 61zM320 663q-34 -13 -58 -33.5t-24 -36.5q0 -10 16 -20q32 -19 32 -64q0 -36 -24 -59.5t-59 -23.5q-38 0 -61.5 25
t-23.5 69q0 71 65 133q46 44 104 61z" />
    <glyph glyph-name="quotedblright" unicode="&#x201d;" horiz-adv-x="487" 
d="M512 611q0 -71 -65 -133q-46 -44 -104 -61l-33 51q34 13 58 33.5t24 36.5q0 10 -16 20q-32 19 -32 64q0 36 24 59.5t59 23.5q38 0 61.5 -25t23.5 -69zM298 611q0 -71 -65 -133q-46 -44 -104 -61l-33 51q34 13 58 33.5t24 36.5q0 10 -16 20q-32 19 -32 64q0 36 24 59.5
t59 23.5q38 0 61.5 -25t23.5 -69z" />
    <glyph glyph-name="quotedblbase" unicode="&#x201e;" horiz-adv-x="486" 
d="M389 49q0 -71 -65 -133q-46 -44 -104 -61l-33 51q34 13 58 33.5t24 36.5q0 10 -16 20q-32 19 -32 64q0 36 24 59.5t59 23.5q38 0 61.5 -25t23.5 -69zM175 49q0 -71 -65 -133q-46 -44 -104 -61l-33 51q34 13 58 33.5t24 36.5q0 10 -16 20q-32 19 -32 64q0 36 24 59.5
t59 23.5q38 0 61.5 -25t23.5 -69z" />
    <glyph glyph-name="dagger" unicode="&#x2020;" horiz-adv-x="490" 
d="M527 536l-39 -99h-144l-93 -437h-109l94 437h-154l22 99h153l33 155h109l-33 -155h161z" />
    <glyph glyph-name="daggerdbl" unicode="&#x2021;" horiz-adv-x="505" 
d="M26 155l22 99h153l40 183h-154l22 99h153l33 155h109l-33 -155h161l-39 -99h-144l-39 -183h161l-39 -99h-143l-33 -155h-109l33 155h-154z" />
    <glyph glyph-name="bullet" unicode="&#x2022;" horiz-adv-x="511" 
d="M457 354q0 -74 -51.5 -125.5t-125.5 -51.5t-125.5 51.5t-51.5 125.5t51.5 125.5t125.5 51.5t125.5 -51.5t51.5 -125.5z" />
    <glyph glyph-name="ellipsis" unicode="&#x2026;" horiz-adv-x="804" 
d="M679 66q0 -33 -23.5 -57t-55.5 -24q-34 0 -56.5 23.5t-22.5 57.5q0 32 22.5 54.5t55.5 22.5t56.5 -22.5t23.5 -54.5zM437 66q0 -34 -23.5 -57.5t-55.5 -23.5q-33 0 -56 23.5t-23 57.5q0 32 23 54.5t55 22.5q34 0 57 -22.5t23 -54.5zM196 66q0 -34 -23.5 -57.5
t-55.5 -23.5q-33 0 -56 23.5t-23 57.5q0 32 23 54.5t55 22.5q33 0 56.5 -22.5t23.5 -54.5z" />
    <glyph glyph-name="perthousand" unicode="&#x2030;" horiz-adv-x="1223" 
d="M1167 208q0 -94 -57 -156.5t-152 -62.5q-62 0 -98 32t-36 91q0 97 59 159.5t148 62.5q65 0 100.5 -34.5t35.5 -91.5zM799 209q0 -94 -57 -156t-152 -62q-62 0 -98 32t-36 90q0 98 58.5 160t148.5 62q65 0 100.5 -34.5t35.5 -91.5zM434 574q0 -94 -57 -156t-152 -62
q-63 0 -98.5 31.5t-35.5 90.5q0 97 59 159.5t148 62.5q65 0 100.5 -34.5t35.5 -91.5zM741 691l-499 -691h-89l498 691h90zM1076 209q0 59 -58 59q-51 0 -77 -43.5t-26 -114.5q0 -54 60 -54q48 0 74.5 44t26.5 109zM343 575q0 59 -58 59q-51 0 -77 -43.5t-26 -114.5
q0 -54 60 -54q48 0 74.5 44t26.5 109zM708 210q0 59 -58 59q-51 0 -77 -43.5t-26 -114.5q0 -54 60 -54q47 0 74 44t27 109z" />
    <glyph glyph-name="guilsinglleft" unicode="&#x2039;" horiz-adv-x="337" 
d="M331 417l-163 -178l82 -170l-83 -49l-109 227l205 223z" />
    <glyph glyph-name="guilsinglright" unicode="&#x203a;" horiz-adv-x="337" 
d="M279 243l-204 -223l-69 53l163 179l-82 171l84 47z" />
    <glyph glyph-name="fraction" unicode="&#x2044;" horiz-adv-x="353" 
d="M576 764l-722 -918h-90l722 918h90z" />
    <glyph glyph-name="uni2070" unicode="&#x2070;" horiz-adv-x="347" 
d="M397 520q0 -34 -8 -72q-20 -93 -73 -150t-122 -57q-59 0 -86 38t-27 99q0 34 8 72q19 90 73 146.5t120 56.5q60 0 87.5 -36.5t27.5 -96.5zM305 522q0 65 -36 65q-28 0 -53 -42q-18 -30 -33 -95q-11 -59 -11 -81q0 -62 36 -62q32 0 57 47q19 37 31 93q9 41 9 75z" />
    <glyph glyph-name="uni2074" unicode="&#x2074;" horiz-adv-x="351" 
d="M381 392l-15 -71h-39q-1 0 -3.5 0.5t-3.5 0.5q0 -8 -1 -12l-15 -68l-86 -14l19 86q0 4 2 8q-1 0 -5 -0.5t-6 -0.5h-167l12 56l168 271h92q-3 -5 -33.5 -56t-67.5 -109t-63 -91h81l4 -1l1 4q11 45 42 146l75 17l-35 -161l-2 -6q1 0 3.5 0.5t3.5 0.5h39z" />
    <glyph glyph-name="uni2075" unicode="&#x2075;" horiz-adv-x="312" 
d="M380 644l-29 -72h-121l-23 -73q16 2 22 2q50 0 82 -25t32 -68q0 -49 -33.5 -91t-80.5 -63q-52 -23 -113 -23q-23 0 -52 6l-6 69q41 -13 64 -13q46 0 86.5 27t40.5 71q0 42 -56 42q-40 0 -98 -19l71 230h214z" />
    <glyph glyph-name="uni2076" unicode="&#x2076;" horiz-adv-x="346" 
d="M391 615q-136 -44 -185 -123q38 14 61 14q49 0 79 -28.5t30 -72.5q0 -67 -55.5 -115.5t-123.5 -48.5q-57 0 -89.5 34t-32.5 90q0 68 42 132t104 107q67 48 161 72zM284 395q0 19 -11.5 30.5t-30.5 11.5q-36 0 -66 -17q-11 -35 -11 -61q0 -51 44 -51q33 0 54 26.5t21 60.5
z" />
    <glyph glyph-name="uni2077" unicode="&#x2077;" horiz-adv-x="341" 
d="M425 644l-30 -71q-89 -98 -137 -165q-56 -80 -75 -125l-15 -37l-103 -24q31 69 68 129q88 141 170 220q-1 0 -8 -0.5t-9 -0.5h-172l37 74h274z" />
    <glyph glyph-name="uni2078" unicode="&#x2078;" horiz-adv-x="358" 
d="M409 569q0 -70 -86 -108q61 -34 61 -79q0 -63 -58.5 -103t-129.5 -40q-53 0 -91.5 22.5t-38.5 71.5q0 39 25 72t63 50q-35 25 -35 68q0 63 53 96.5t119 33.5q53 0 85.5 -22.5t32.5 -61.5zM288 363q0 14 -10 23q-16 15 -63 36q-56 -29 -56 -74t56 -45q28 0 50.5 16.5
t22.5 43.5zM317 558q0 32 -46 32q-23 0 -43 -13.5t-20 -35.5q0 -25 48 -46q61 27 61 63z" />
    <glyph glyph-name="uni2079" unicode="&#x2079;" horiz-adv-x="348" 
d="M405 540q0 -68 -40 -132t-101 -110q-84 -63 -175 -81l-38 55q40 7 67 18q81 32 137 96q-25 -7 -42 -7q-50 0 -80 28.5t-30 74.5q0 70 56.5 121t127.5 51q54 0 86 -30.5t32 -83.5zM314 535q0 51 -43 51q-32 0 -53 -30t-21 -64q0 -46 44 -46q25 0 53 16q20 42 20 73z" />
    <glyph glyph-name="uni2080" unicode="&#x2080;" horiz-adv-x="347" 
d="M344 20q0 -34 -8 -72q-20 -93 -73 -150t-122 -57q-59 0 -86.5 38t-27.5 99q0 29 9 72q19 90 73 146.5t120 56.5q60 0 87.5 -36.5t27.5 -96.5zM252 22q0 65 -36 65q-28 0 -53 -42q-18 -30 -33 -95q-11 -59 -11 -81q0 -62 36 -62q32 0 57 47q19 37 31 93q9 41 9 75z" />
    <glyph glyph-name="uni2081" unicode="&#x2081;" horiz-adv-x="292" 
d="M267 147l-69 -327h56l-15 -70h-204l15 70h64l49 229q-49 -25 -91 -38l-13 49l148 87h60z" />
    <glyph glyph-name="uni2082" unicode="&#x2082;" horiz-adv-x="340" 
d="M338 62q0 -29 -14 -58.5t-43 -59.5t-50.5 -48.5t-58.5 -47.5q-7 -6 -20 -15.5t-16 -12.5q5 0 15.5 0.5t14.5 0.5h136l-34 -71h-263l12 56q48 33 118 92q105 90 105 144q0 37 -41 37q-34 0 -98 -41l-36 51q90 64 170 64q47 0 75 -25t28 -66z" />
    <glyph glyph-name="uni2083" unicode="&#x2083;" horiz-adv-x="337" 
d="M339 67q0 -64 -70 -105q43 -25 43 -69q0 -48 -38.5 -86t-89.5 -56q-57 -20 -122 -20q-15 0 -47 4l-10 64q31 -6 53 -6q73 0 120 32q39 27 39 66q0 25 -22 33q-16 6 -58 6h-30l14 66h27q27 0 44 2t35 14.5t18 36.5q0 32 -43 32q-38 0 -101 -37l-34 53q83 56 161 56
q50 0 80.5 -24t30.5 -62z" />
    <glyph glyph-name="uni2084" unicode="&#x2084;" horiz-adv-x="351" 
d="M328 -108l-15 -71h-39q-1 0 -3.5 0.5t-3.5 0.5q0 -8 -1 -12l-15 -68l-86 -14l19 86q0 4 2 8q-1 0 -5 -0.5t-6 -0.5h-167l12 56l168 271h92q-3 -5 -33.5 -56t-67.5 -109t-63 -91h81l4 -1l1 4q11 45 42 146l74 17l-34 -161l-2 -6q1 0 3.5 0.5t3.5 0.5h39z" />
    <glyph glyph-name="uni2085" unicode="&#x2085;" horiz-adv-x="312" 
d="M327 144l-30 -72h-121l-22 -73q16 2 22 2q50 0 82 -25t32 -68q0 -49 -33.5 -91t-80.5 -63q-52 -23 -113 -23q-23 0 -52 6l-6 69q41 -13 64 -13q46 0 86 27t40 71q0 42 -55 42q-40 0 -98 -19l71 230h214z" />
    <glyph glyph-name="uni2086" unicode="&#x2086;" horiz-adv-x="346" 
d="M338 115q-137 -44 -186 -123q38 14 61 14q49 0 79.5 -28.5t30.5 -72.5q0 -67 -55.5 -115.5t-123.5 -48.5q-57 0 -89.5 34t-32.5 90q0 68 42 132t104 107q67 48 161 72zM231 -105q0 19 -11.5 30.5t-30.5 11.5q-36 0 -66 -17q-11 -35 -11 -61q0 -51 44 -51q33 0 54 26.5
t21 60.5z" />
    <glyph glyph-name="uni2087" unicode="&#x2087;" horiz-adv-x="341" 
d="M372 144l-30 -71q-89 -98 -137 -165q-56 -80 -75 -125l-15 -37l-103 -24q34 75 67 129q87 138 171 220q-1 0 -8 -0.5t-9 -0.5h-172l37 74h274z" />
    <glyph glyph-name="uni2088" unicode="&#x2088;" horiz-adv-x="358" 
d="M356 69q0 -70 -86 -108q61 -34 61 -79q0 -64 -57 -103.5t-131 -39.5q-53 0 -91.5 22.5t-38.5 71.5q0 39 25 72t63 50q-35 25 -35 68q0 64 51 97t121 33q53 0 85.5 -22.5t32.5 -61.5zM235 -137q0 14 -10 23q-16 15 -63 36q-56 -29 -56 -74t56 -45q28 0 50.5 16.5
t22.5 43.5zM264 58q0 32 -46 32q-23 0 -43 -13.5t-20 -35.5q0 -25 48 -46q61 27 61 63z" />
    <glyph glyph-name="uni2089" unicode="&#x2089;" horiz-adv-x="348" 
d="M352 40q0 -68 -40 -132t-101 -110q-84 -63 -175 -81l-38 55q40 7 67 18q81 32 137 96q-24 -7 -43 -7q-50 0 -80 28.5t-30 74.5q0 70 56.5 121t128.5 51q54 0 86 -30.5t32 -83.5zM261 35q0 51 -44 51q-32 0 -53 -30t-21 -64q0 -46 45 -46q25 0 53 16q20 42 20 73z" />
    <glyph glyph-name="Euro" unicode="&#x20ac;" horiz-adv-x="641" 
d="M682 668l-43 -93q-45 39 -109 39q-133 0 -193 -141h224l-19 -87h-237q-5 -18 -16 -76h237l-18 -87h-224q0 -62 33 -103t106 -41q72 0 133 41l5 -93q-76 -38 -168 -38q-107 0 -169 66.5t-62 167.5h-117l18 87h103q6 36 17 76h-104l19 87h119q40 106 124.5 169t196.5 63
q90 0 144 -37z" />
    <glyph glyph-name="uni20B4" unicode="&#x20b4;" horiz-adv-x="573" 
d="M538 223h-355q-22 -30 -22 -64q0 -36 28 -57.5t72 -21.5q94 0 184 52l21 -91q-106 -54 -219 -54q-83 0 -135 41.5t-52 107.5q0 47 23 87h-62l19 87h127q33 23 130 76h-241l18 87h355q31 33 31 68q0 32 -20 53t-62 21q-80 0 -174 -64l-27 91q112 66 221 66q80 0 122 -39
t42 -96q0 -56 -30 -100h59l-18 -87h-134q-19 -13 -138 -76h256z" />
    <glyph glyph-name="afii61352" unicode="&#x2116;" horiz-adv-x="983" 
d="M655 691l-146 -691h-120l-94 333q-34 118 -46 202q-11 -82 -33 -194l-68 -341h-112l146 691h129l100 -348q22 -74 35 -175q7 76 32 200l65 323h112zM1003 584q0 -20 -3.5 -44t-15.5 -56.5t-31 -58.5t-54 -44t-81 -18q-50 0 -79 28q-30 28 -30 78q0 36 10 72.5t30 71.5
t57 57t85 22q53 0 84 -30q28 -28 28 -78zM923 586q0 48 -45 48q-27 0 -43 -16q-17 -16 -31.5 -65.5t-14.5 -85.5q0 -46 44 -46q34 0 50 23q20 30 30 73.5t10 68.5zM927 202h-281l14 61h281z" />
    <glyph glyph-name="uni2117" unicode="&#x2117;" horiz-adv-x="850" 
d="M795 355q0 -155 -108.5 -263.5t-261.5 -108.5t-261.5 108.5t-108.5 263.5t108.5 263.5t261.5 108.5t261.5 -108.5t108.5 -263.5zM711 355q0 124 -83.5 211t-202.5 87t-202 -87t-83 -211q0 -125 83.5 -212.5t201.5 -87.5q119 0 202.5 88t83.5 212zM590 439
q0 -62 -38.5 -99t-96.5 -37h-59v-154h-81v417h112q72 0 105 -19q58 -34 58 -108zM503 435q0 30 -14 46q-15 17 -50 17h-43v-127h43q34 0 49 15.5t15 48.5z" />
    <glyph glyph-name="trademark" unicode="&#x2122;" horiz-adv-x="956" 
d="M926 698l-50 -430h-87l35 274l-140 -274h-75l-23 276l-77 -276h-90l131 430h110l20 -270l134 270h112zM446 698l-28 -73h-108l-73 -357h-91l74 357h-111l14 73h323z" />
    <glyph glyph-name="Omega" unicode="&#x2126;" horiz-adv-x="711" 
d="M687 465q0 -107 -57 -209t-144 -160h127l-39 -96h-232l9 84q86 53 147 165t61 218q0 144 -129 144q-88 0 -150 -74q-39 -47 -60 -114.5t-21 -132.5q0 -62 21.5 -117.5t61.5 -87.5l-27 -85h-221l11 96h109q-81 75 -81 200q0 93 39 178.5t108 143.5q102 84 228 84
q113 0 176 -63.5t63 -173.5z" />
    <glyph glyph-name="uni2150" unicode="&#x2150;" horiz-adv-x="1016" 
d="M317 647l-69 -327h56l-15 -70h-204l15 70h64l48 229q-51 -26 -90 -38l-13 49l148 87h60zM919 764l-722 -918h-90l722 918h90zM1047 394l-30 -71q-89 -98 -137 -165q-56 -80 -75 -125l-15 -37l-103 -24q34 75 67 129q87 138 171 220q-1 0 -8 -0.5t-9 -0.5h-172l37 74h274z
" />
    <glyph glyph-name="uni2151" unicode="&#x2151;" horiz-adv-x="1023" 
d="M317 647l-69 -327h56l-15 -70h-204l15 70h64l48 229q-51 -26 -90 -38l-13 49l148 87h60zM934 764l-722 -918h-90l722 918h90zM1027 290q0 -68 -40 -132t-101 -110q-84 -63 -175 -81l-38 55q40 7 67 18q81 32 137 96q-25 -7 -43 -7q-50 0 -80 28.5t-30 74.5q0 70 56.5 121
t128.5 51q54 0 86 -30.5t32 -83.5zM936 285q0 51 -44 51q-32 0 -53 -30t-21 -64q0 -46 45 -46q25 0 53 16q20 42 20 73z" />
    <glyph glyph-name="uni2152" unicode="&#x2152;" horiz-adv-x="1314" 
d="M317 647l-69 -327h56l-15 -70h-204l15 70h64l48 229q-51 -26 -90 -38l-13 49l148 87h60zM941 764l-722 -918h-90l722 918h90zM942 397l-69 -327h56l-15 -70h-204l15 70h64l49 229q-49 -25 -91 -38l-13 49l148 87h60zM1311 270q0 -34 -8 -72q-20 -93 -73 -150t-122 -57
q-59 0 -86.5 38t-27.5 99q0 29 9 72q19 90 73 146.5t120 56.5q60 0 87.5 -36.5t27.5 -96.5zM1219 272q0 65 -36 65q-28 0 -53 -42q-18 -30 -33 -95q-11 -59 -11 -81q0 -62 36 -62q32 0 57 47q19 37 31 93q9 41 9 75z" />
    <glyph glyph-name="onethird" unicode="&#x2153;" horiz-adv-x="1012" 
d="M317 647l-69 -327h56l-15 -70h-204l15 70h64l48 229q-51 -26 -90 -38l-13 49l148 87h60zM918 764l-722 -918h-90l722 918h90zM1014 317q0 -64 -70 -105q43 -25 43 -69q0 -48 -38.5 -86t-89.5 -56q-57 -20 -122 -20q-15 0 -47 4l-10 64q31 -6 53 -6q73 0 120 32
q39 27 39 66q0 25 -22 33q-16 6 -58 6h-30l14 66h27q27 0 44 2t35 14.5t18 36.5q0 32 -43 32q-38 0 -101 -37l-34 53q83 56 161 56q50 0 80.5 -24t30.5 -62z" />
    <glyph glyph-name="twothirds" unicode="&#x2154;" horiz-adv-x="1028" 
d="M373 562q0 -29 -14 -58.5t-41.5 -58.5t-48 -46.5t-52.5 -42.5q-13 -10 -29.5 -22t-19.5 -14q5 0 17 0.5t16 0.5h136l-34 -71h-263l12 56q60 41 119 92q104 89 104 144q0 37 -41 37q-34 0 -98 -41l-36 51q90 64 170 64q47 0 75 -25t28 -66zM944 764l-722 -918h-90l722 918
h90zM1030 317q0 -64 -70 -105q43 -25 43 -69q0 -48 -38.5 -86t-89.5 -56q-57 -20 -122 -20q-15 0 -47 4l-10 64q31 -6 53 -6q73 0 120 32q39 27 39 66q0 25 -22 33q-16 6 -58 6h-30l14 66h27q27 0 44 2t35 14.5t18 36.5q0 32 -43 32q-38 0 -101 -37l-34 53q83 56 161 56
q50 0 80.5 -24t30.5 -62z" />
    </font>
</defs>
</svg>
