<?xml version="1.0" standalone="no"?>
<!DOCTYPE svg PUBLIC "-//W3C//DTD SVG 1.1//EN" "http://www.w3.org/Graphics/SVG/1.1/DTD/svg11.dtd" >
<svg>
<metadata>
Created by FontForge 20120731 at Sat Feb  6 17:04:28 2016
 By ,,,
2005 Erik Spiekermann published by FSI FontShop International GmbH
</metadata>
<defs>
<font id="FFMetaPro-BookItalic" horiz-adv-x="1" >
  <font-face 
    font-family="FF Meta Pro Book"
    font-weight="400"
    font-style="italic"
    font-stretch="normal"
    units-per-em="1000"
    panose-1="0 0 0 0 0 0 0 0 0 0"
    ascent="754"
    descent="-246"
    x-height="502"
    cap-height="688"
    bbox="-231 -286 1420 1110"
    underline-thickness="98"
    underline-position="-21"
    unicode-range="U+000D-FB06"
  />
<missing-glyph horiz-adv-x="556" 
d="M40 0v688h476v-688h-476zM92 52h372v584h-372v-584z" />
    <glyph glyph-name=".notdef" horiz-adv-x="556" 
d="M40 0v688h476v-688h-476zM92 52h372v584h-372v-584z" />
    <glyph glyph-name=".null" horiz-adv-x="0" 
 />
    <glyph glyph-name=".null" horiz-adv-x="0" 
 />
    <glyph glyph-name="nonmarkingreturn" horiz-adv-x="333" 
 />
    <glyph glyph-name="CR" unicode="&#xd;" horiz-adv-x="225" 
 />
    <glyph glyph-name="space" unicode=" " horiz-adv-x="225" 
 />
    <glyph glyph-name="exclam" unicode="!" horiz-adv-x="306" 
d="M301 702l-127 -498h-71l81 482zM176 60q0 -29 -19.5 -49t-47.5 -20t-47 20t-19 48t19.5 47t47.5 19q27 0 46.5 -19t19.5 -46z" />
    <glyph glyph-name="quotedbl" unicode="&#x22;" horiz-adv-x="337" 
d="M348 708l-53 -251h-86l53 251h86zM179 708l-53 -251h-86l53 251h86z" />
    <glyph glyph-name="numbersign" unicode="#" horiz-adv-x="569" 
d="M581 427h-111l-49 -145h87v-72h-112l-70 -210h-75l70 210h-119l-70 -210h-75l71 210h-88v72h112l48 145h-87v73h111l71 208h74l-70 -208h119l70 208h75l-70 -208h88v-73zM395 427h-119l-49 -145h119z" />
    <glyph glyph-name="dollar" unicode="$" horiz-adv-x="555" 
d="M571 643l-53 -70q-63 47 -129 51l-48 -223l35 -14q120 -47 120 -169q0 -88 -65.5 -152t-177.5 -77l-19 -91h-62l19 88q-108 3 -191 57l49 75q77 -49 159 -52l54 255l-28 11q-62 24 -90.5 61.5t-28.5 98.5q0 84 64.5 142.5t164.5 68.5l17 81h62l-17 -80q99 -8 165 -61z
M387 198q0 36 -14.5 58.5t-53.5 41.5l-48 -226q54 12 85 45.5t31 80.5zM326 621q-47 -9 -76 -37.5t-29 -66.5q0 -33 13.5 -53.5t49.5 -38.5z" />
    <glyph glyph-name="percent" unicode="%" horiz-adv-x="852" 
d="M801 211q0 -98 -57 -159.5t-149 -61.5q-61 0 -96 31.5t-35 92.5q0 94 58 156.5t146 62.5q64 0 98.5 -33.5t34.5 -88.5zM434 574q0 -98 -57 -159.5t-149 -61.5q-61 0 -96 31.5t-35 92.5q0 95 57.5 157t145.5 62q64 0 99 -34t35 -88zM734 688l-488 -688h-77l489 688h76z
M723 206q0 67 -68 67q-55 0 -83.5 -43.5t-28.5 -115.5q0 -64 68 -64q53 0 82.5 44.5t29.5 111.5zM355 569q0 67 -68 67q-55 0 -83 -44t-28 -116q0 -63 68 -63q52 0 81.5 44.5t29.5 111.5z" />
    <glyph glyph-name="ampersand" unicode="&#x26;" horiz-adv-x="692" 
d="M627 0h-122l-48 60q-82 -75 -209 -75q-95 0 -149.5 41.5t-54.5 112.5q0 133 176 207q-59 62 -59 126q0 76 61.5 131.5t157.5 55.5q70 0 113.5 -34.5t43.5 -88.5q0 -107 -126 -171l-53 -27l118 -146q26 32 48 143h80q-27 -130 -82 -206zM416 113l-151 182
q-62 -27 -90.5 -61t-28.5 -83q0 -41 31 -68t87 -27q93 0 152 57zM440 526q0 30 -20.5 48t-52.5 18q-38 0 -72.5 -26.5t-34.5 -65.5q0 -32 10 -52.5t44 -58.5q77 33 104 72q22 32 22 65z" />
    <glyph glyph-name="quotesingle" unicode="'" horiz-adv-x="268" 
d="M278 708l-53 -251h-86l53 251h86z" />
    <glyph glyph-name="parenleft" unicode="(" horiz-adv-x="330" 
d="M460 718q-63 -34 -100 -65t-64 -73q-53 -81 -92 -254q-27 -122 -27 -209q0 -81 23.5 -134.5t79.5 -90.5l-34 -51q-75 35 -117.5 107.5t-42.5 172.5q0 90 23 200q26 123 67 206t104 142q77 72 164 104z" />
    <glyph glyph-name="parenright" unicode=")" horiz-adv-x="329" 
d="M274 495q0 -92 -22 -200q-49 -230 -171 -348q-75 -72 -165 -104l-15 58q62 34 99.5 65t64.5 73q58 88 92 254q27 130 27 210t-23.5 134t-79.5 90l34 48q75 -35 117 -107t42 -173z" />
    <glyph glyph-name="asterisk" unicode="*" horiz-adv-x="469" 
d="M499 541l-138 -46l87 -118l-57 -44l-89 121l-85 -120l-58 44l86 117l-139 47l22 68l140 -48v146h70v-146l139 47z" />
    <glyph glyph-name="plus" unicode="+" horiz-adv-x="562" 
d="M523 306l-19 -85h-183l-40 -187h-91l40 187h-184l19 85h183l39 187h92l-40 -187h184z" />
    <glyph glyph-name="comma" unicode="," horiz-adv-x="289" 
d="M177 49q0 -75 -82 -147q-26 -23 -79 -47l-28 46q30 13 54 37.5t27 50.5q-20 2 -34 22t-14 45q0 34 22.5 55.5t55.5 21.5q34 0 56 -23t22 -61z" />
    <glyph glyph-name="hyphen" unicode="-" horiz-adv-x="346" 
d="M291 311l-18 -85h-204l19 85h203z" />
    <glyph glyph-name="period" unicode="." horiz-adv-x="287" 
d="M178 60q0 -30 -22 -52t-51 -22q-30 0 -51 22t-21 52t20.5 51t50.5 21q31 0 52.5 -21t21.5 -51z" />
    <glyph glyph-name="slash" unicode="/" horiz-adv-x="414" 
d="M487 759l-454 -909h-74l454 909h74z" />
    <glyph glyph-name="zero" unicode="0" horiz-adv-x="592" 
d="M534 327q0 -76 -31 -154t-82 -122q-76 -67 -180 -67q-88 0 -133.5 47t-45.5 135q0 72 27.5 147.5t73.5 121.5q77 77 190 77q88 0 134.5 -48t46.5 -137zM436 335q0 54 -24.5 79t-74.5 25q-64 0 -106 -47q-32 -36 -52 -104t-20 -124t24.5 -81t74.5 -25q64 0 103 42
q35 37 55 102.5t20 132.5z" />
    <glyph glyph-name="one" unicode="1" horiz-adv-x="441" 
d="M357 511l-93 -436h91l-16 -75h-279l17 75h96l69 326q-82 -47 -143 -69l-13 58l202 121h69z" />
    <glyph glyph-name="two" unicode="2" horiz-adv-x="551" 
d="M492 395q0 -87 -91 -159q-69 -55 -161 -110l-89 -54q48 4 106 4h192l-36 -76h-391l17 78q6 3 49.5 31.5t108 72.5t108.5 77q76 57 76 110q0 71 -84 71q-64 0 -164 -70l-35 56q127 95 240 95q70 0 112 -35.5t42 -90.5z" />
    <glyph glyph-name="three" unicode="3" horiz-adv-x="533" 
d="M479 383q0 -61 -41 -110.5t-109 -69.5q49 -9 77 -45.5t28 -81.5q0 -108 -108 -183.5t-288 -75.5q-33 0 -58 4l-8 67q28 -4 57 -4q146 0 221 56q35 27 57 64t22 72q0 31 -15 54.5t-43 32.5t-108 9h-21l15 70q6 -1 24 -1q94 0 123 13q34 15 53 47t19 65q0 35 -24 54.5
t-68 19.5q-75 0 -169 -61l-33 55q123 83 233 83q73 0 118.5 -38t45.5 -96z" />
    <glyph glyph-name="four" unicode="4" horiz-adv-x="547" 
d="M472 76l-17 -76h-52h-17l-11 1q0 -12 -4 -31l-31 -146l-94 -21l34 162l9 36q-1 0 -16 -0.5t-23 -0.5h-259l14 69l316 445h100l-256 -362q-49 -70 -61 -79q1 0 6 0.5t13 1t15 0.5h167l6 26q10 44 25 95l39 134l77 20l-54 -249l-7 -27q1 0 14 1t20 1h47z" />
    <glyph glyph-name="five" unicode="5" horiz-adv-x="491" 
d="M451 502l-31 -79h-210l-56 -180q43 5 66 5q77 0 125 -43t48 -113q0 -16 -3 -32q-18 -111 -117 -178t-232 -67q-33 0 -72 9l-3 71q34 -14 86 -14q37 0 77.5 13t76.5 37t59.5 63t23.5 85t-31 72t-86 26q-74 0 -134 -21l106 346h307z" />
    <glyph glyph-name="six" unicode="6" horiz-adv-x="575" 
d="M540 632q-172 -50 -264 -156q-43 -49 -75 -117q61 47 147 47q69 0 116.5 -45.5t47.5 -118.5q0 -111 -78 -184t-189 -73q-87 0 -137.5 55.5t-50.5 147.5t43.5 182t126.5 165q129 118 304 165zM409 233q0 50 -25 75.5t-68 25.5q-62 0 -138 -48q-21 -58 -21 -109
q0 -54 28 -87t74 -33q65 0 107.5 49.5t42.5 126.5z" />
    <glyph glyph-name="seven" unicode="7" horiz-adv-x="487" 
d="M513 499l-17 -86q-14 -16 -47 -56t-88 -111.5t-91 -124.5q-104 -156 -150 -282l-116 -28q54 151 183 335.5t225 275.5q-9 -3 -80 -3h-260l33 80h408z" />
    <glyph glyph-name="eight" unicode="8" horiz-adv-x="584" 
d="M562 538q0 -59 -44.5 -107.5t-124.5 -78.5q23 -8 46 -23q35 -18 55.5 -51.5t20.5 -71.5q0 -92 -75.5 -158t-199.5 -66q-93 0 -144.5 43t-51.5 114q0 74 49 126.5t127 80.5q-83 42 -83 121q0 88 70.5 144.5t183.5 56.5q79 0 125 -37t46 -93zM416 188q0 37 -25.5 60.5
t-112.5 64.5q-62 -24 -99 -66.5t-37 -99.5q0 -44 30.5 -70t85.5 -26q74 0 116 40t42 97zM467 531q0 32 -26.5 51t-72.5 19q-61 0 -99 -30.5t-38 -82.5q0 -33 22 -54.5t80 -48.5q134 58 134 146z" />
    <glyph glyph-name="nine" unicode="9" horiz-adv-x="562" 
d="M509 319q0 -95 -44.5 -190t-129.5 -172q-69 -62 -154.5 -104t-169.5 -59l-37 59q124 25 231 101t147 168q-61 -44 -139 -44q-68 0 -113.5 50.5t-45.5 125.5q0 113 79.5 188t189.5 75q86 0 136 -53.5t50 -144.5zM408 325q0 54 -27.5 87t-73.5 33q-65 0 -107 -51.5
t-42 -131.5q0 -53 24 -82.5t67 -29.5q61 0 131 49q28 72 28 126z" />
    <glyph glyph-name="colon" unicode=":" horiz-adv-x="304" 
d="M186 60q0 -31 -21.5 -52.5t-50.5 -21.5q-31 0 -51.5 21.5t-20.5 52.5q0 29 20.5 50t50.5 21q31 0 52 -21t21 -50zM252 371q0 -31 -21 -52t-51 -21q-31 0 -51.5 21t-20.5 52q0 30 20.5 50.5t50.5 20.5q31 0 52 -20.5t21 -50.5z" />
    <glyph glyph-name="semicolon" unicode=";" horiz-adv-x="321" 
d="M197 49q0 -75 -82 -147q-26 -23 -79 -47l-28 46q30 13 54 37.5t27 50.5q-20 2 -34 22t-14 45q0 34 22.5 55.5t55.5 21.5q34 0 56 -23t22 -61zM253 371q0 -31 -21.5 -52t-50.5 -21q-30 0 -51 21t-21 52q0 30 21 50.5t51 20.5t51 -20.5t21 -50.5z" />
    <glyph glyph-name="less" unicode="&#x3c;" horiz-adv-x="339" 
d="M363 511l-213 -219l113 -211l-83 -52l-146 271l261 270z" />
    <glyph glyph-name="equal" unicode="=" horiz-adv-x="635" 
d="M623 428l-17 -81h-529l18 81h528zM587 259l-17 -81h-528l17 81h528z" />
    <glyph glyph-name="greater" unicode="&#x3e;" horiz-adv-x="340" 
d="M334 299l-261 -270l-68 59l213 219l-113 211l83 52z" />
    <glyph glyph-name="question" unicode="?" horiz-adv-x="446" 
d="M465 569q0 -97 -125 -176q-56 -36 -78.5 -77t-23.5 -97h-79v11q0 135 119 210q91 57 91 108q0 34 -20.5 52t-56.5 18q-58 0 -134 -47l-30 62q93 65 187 65q72 0 111 -35t39 -94zM240 58q0 -28 -19.5 -48t-47.5 -20t-47 19.5t-19 47.5t19 47.5t47 19.5t47.5 -19.5
t19.5 -46.5z" />
    <glyph glyph-name="at" unicode="@" horiz-adv-x="926" 
d="M865 276q0 -129 -66 -209.5t-161 -80.5q-55 0 -83.5 24.5t-31.5 62.5q-63 -75 -150 -75q-49 0 -85 37.5t-36 107.5q0 128 72.5 219t201.5 91q68 0 135 -36q-20 -67 -63 -269q-7 -29 -7 -50q0 -25 12 -35t38 -10q54 0 95 64.5t41 158.5q0 119 -86.5 200.5t-222.5 81.5
q-94 0 -167.5 -51t-110.5 -130.5t-37 -171.5q0 -132 85 -216.5t212 -84.5q78 0 144 22l18 -68q-70 -23 -162 -23q-165 0 -275.5 98.5t-110.5 271.5q0 179 113 299.5t291 120.5q171 0 284 -96.5t113 -252.5zM561 380q-15 7 -42 7q-59 0 -101.5 -40t-60 -94t-17.5 -114
q0 -38 13.5 -53t40.5 -15q36 0 75.5 34.5t52.5 95.5z" />
    <glyph glyph-name="A" unicode="A" horiz-adv-x="572" 
d="M522 0h-103l-18 199h-243l-104 -199h-104l376 689h118zM393 279l-17 171q-12 123 -12 147q-1 -1 -8.5 -17t-19.5 -40l-20 -40l-116 -221h193z" />
    <glyph glyph-name="B" unicode="B" horiz-adv-x="596" 
d="M584 538q0 -62 -39 -107.5t-115 -65.5q57 -11 85.5 -49.5t28.5 -94.5q0 -91 -82 -161q-40 -34 -88 -47t-138 -13h-196l146 688h195q203 0 203 -150zM438 218q0 55 -29 77.5t-94 22.5h-113l-51 -239h124q69 0 111 32q22 17 37 46t15 61zM477 520q0 43 -26 65t-86 22h-102
l-44 -209h113q67 0 100 27q45 35 45 95z" />
    <glyph glyph-name="C" unicode="C" horiz-adv-x="564" 
d="M611 642l-55 -61q-46 40 -116 40q-108 0 -180 -103q-38 -55 -61.5 -137t-23.5 -149q0 -79 39 -121.5t114 -42.5q69 0 139 45l36 -66q-96 -58 -205 -58q-106 0 -166 66t-60 181q0 86 32 177.5t88 158.5q51 60 120 93.5t140 33.5q100 0 159 -57z" />
    <glyph glyph-name="D" unicode="D" horiz-adv-x="634" 
d="M607 439q0 -89 -40.5 -192.5t-98.5 -158.5q-51 -48 -108.5 -68t-143.5 -20h-176l146 688h151q81 0 125.5 -12t80.5 -45q64 -58 64 -192zM503 432q0 82 -25 122q-21 33 -50.5 44.5t-82.5 11.5h-78l-112 -530h72q126 0 180 71q46 60 71 141.5t25 139.5z" />
    <glyph glyph-name="E" unicode="E" horiz-adv-x="508" 
d="M567 688l-31 -79h-269l-44 -209h226l-18 -82h-226l-49 -235h292l-18 -83h-390l146 688h381z" />
    <glyph glyph-name="F" unicode="F" horiz-adv-x="436" 
d="M552 688l-32 -79h-253l-44 -208h209l-17 -79h-209l-68 -322h-98l146 688h366z" />
    <glyph glyph-name="G" unicode="G" horiz-adv-x="650" 
d="M633 627l-53 -59q-59 50 -141 50q-91 0 -154 -69q-48 -53 -77.5 -146.5t-29.5 -172.5t42.5 -121.5t114.5 -42.5q59 0 106 24l42 196h-129v80h240l-69 -324q-94 -54 -214 -54q-111 0 -175 68t-64 176q0 105 39.5 205t107.5 165q98 94 235 94q112 0 179 -69z" />
    <glyph glyph-name="H" unicode="H" horiz-adv-x="639" 
d="M645 688l-146 -688h-98l70 326h-266l-70 -326h-95l146 688h95l-60 -282h267l60 282h97z" />
    <glyph glyph-name="I" unicode="I" horiz-adv-x="277" 
d="M283 688l-147 -688h-96l146 688h97z" />
    <glyph glyph-name="J" unicode="J" horiz-adv-x="279" 
d="M285 688l-121 -566q-23 -105 -53 -152q-45 -72 -151 -108l-35 57q61 25 97 72q24 31 44 125l121 572h98z" />
    <glyph glyph-name="K" unicode="K" horiz-adv-x="571" 
d="M642 671l-317 -311l191 -351l-110 -20l-189 376l334 340zM284 688l-146 -688h-98l146 688h98z" />
    <glyph glyph-name="L" unicode="L" horiz-adv-x="465" 
d="M420 81l-32 -81h-348l146 688h98l-129 -607h265z" />
    <glyph glyph-name="M" unicode="M" horiz-adv-x="819" 
d="M786 688l-87 -688h-95l63 469q10 70 20 117q-16 -39 -49 -108l-240 -478h-82l-29 456q-6 92 -5 131q-1 -3 -14.5 -55t-20.5 -76l-132 -456h-95l208 688h135l26 -422q4 -67 1 -118q26 66 49 113l211 427h136z" />
    <glyph glyph-name="N" unicode="N" horiz-adv-x="643" 
d="M649 688l-146 -688h-101l-113 381q-41 138 -45 177q-25 -155 -31 -186l-75 -372h-98l146 688h110l120 -397q28 -95 33 -158q0 2 6 38t13.5 82.5t15.5 84.5l71 350h94z" />
    <glyph glyph-name="O" unicode="O" horiz-adv-x="688" 
d="M661 463q0 -129 -48 -246t-134 -175q-80 -54 -187 -54q-110 0 -165 65t-55 179q0 116 42 220t105 164q46 42 97 63t125 21q104 0 162 -62.5t58 -174.5zM555 476q0 147 -131 147q-98 0 -153 -75q-42 -57 -68 -148.5t-26 -186.5q0 -151 134 -151q79 0 133 57q47 50 79 158
t32 199z" />
    <glyph glyph-name="P" unicode="P" horiz-adv-x="559" 
d="M585 529q0 -138 -112 -217q-61 -43 -172 -43h-108l-57 -269h-96l146 688h180q110 0 161 -38q58 -43 58 -121zM480 508q0 51 -29.5 75.5t-98.5 24.5h-87l-55 -260h103q73 0 112 36q55 52 55 124z" />
    <glyph glyph-name="Q" unicode="Q" horiz-adv-x="689" 
d="M662 463q0 -123 -43.5 -235.5t-119.5 -172.5q-41 -32 -73 -45q27 -10 73 -40q42 -28 97 -28q34 0 47 5l-30 -63q-23 -10 -61 -10q-48 0 -133 52q-81 50 -130 62q-107 1 -161.5 65.5t-54.5 178.5q0 116 41 218.5t106 165.5q87 84 222 84q104 0 162 -62.5t58 -174.5z
M556 476q0 147 -131 147q-98 0 -153 -75q-40 -54 -67 -153.5t-27 -181.5q0 -151 134 -151q79 0 133 57q48 49 79.5 157t31.5 200z" />
    <glyph glyph-name="R" unicode="R" horiz-adv-x="550" 
d="M567 530q0 -98 -67 -160.5t-160 -62.5q43 -41 87 -128q15 -30 38.5 -88.5t30.5 -81.5l-96 -18q-4 9 -15 34.5t-20.5 48.5t-16.5 41q-41 100 -86 158q-14 19 -26 24.5t-34 6.5l-65 -304h-97l147 688h177q104 0 153.5 -39t49.5 -119zM464 512q0 51 -28.5 73.5t-91.5 22.5
h-77l-50 -239h65q87 0 127 32q55 46 55 111z" />
    <glyph glyph-name="S" unicode="S" horiz-adv-x="574" 
d="M581 643l-53 -70q-70 52 -152 52q-63 0 -104 -31t-41 -77q0 -38 17 -59.5t64 -40.5l74 -30q64 -26 92 -66.5t28 -102.5q0 -99 -81 -165.5t-215 -66.5q-112 0 -200 57l49 75q80 -52 168 -52q77 0 123.5 37t46.5 95q0 41 -18.5 65t-69.5 44l-65 25q-62 24 -90.5 61.5
t-28.5 98.5q0 92 76 152.5t188 60.5q116 0 192 -62z" />
    <glyph glyph-name="T" unicode="T" horiz-adv-x="469" 
d="M585 688l-27 -81h-181l-129 -607h-95l129 607h-181l18 81h466z" />
    <glyph glyph-name="U" unicode="U" horiz-adv-x="638" 
d="M649 688l-101 -474q-16 -75 -33 -110.5t-54 -62.5q-73 -53 -189 -53q-91 0 -144.5 37.5t-53.5 110.5q0 46 9 86l99 466h97l-94 -443q-12 -58 -12 -100q0 -35 29.5 -55t81.5 -20q82 0 129 54q26 29 41 102l98 462h97z" />
    <glyph glyph-name="V" unicode="V" horiz-adv-x="581" 
d="M667 688l-383 -689h-93l-85 689h101l48 -420q9 -82 7 -145q26 56 72 142l229 423h104z" />
    <glyph glyph-name="W" unicode="W" horiz-adv-x="808" 
d="M894 688l-307 -689h-119l-3 356q-1 108 8 202q-41 -109 -78 -197l-154 -361h-118l-17 689h100l2 -368q1 -56 -9 -216q40 108 82 206l164 378h108l2 -376q0 -163 -5 -205q28 79 86 217l155 364h103z" />
    <glyph glyph-name="X" unicode="X" horiz-adv-x="501" 
d="M587 688l-250 -328l142 -360h-112l-102 281l-206 -281h-120l291 370l-121 318h109l82 -235l169 235h118z" />
    <glyph glyph-name="Y" unicode="Y" horiz-adv-x="543" 
d="M639 688l-311 -416l-58 -272h-101l59 276l-132 412h114l67 -243q15 -55 18 -80l54 79l174 244h116z" />
    <glyph glyph-name="Z" unicode="Z" horiz-adv-x="523" 
d="M566 621l-384 -480q-11 -14 -29.5 -34t-23.5 -27q36 2 61 2h261l-32 -82h-415v70l389 474q40 48 57 65q-28 -2 -71 -2h-244l33 81h398v-67z" />
    <glyph glyph-name="bracketleft" unicode="[" horiz-adv-x="292" 
d="M373 732l-15 -68h-92l-160 -752h92l-14 -68h-177l189 888h177z" />
    <glyph glyph-name="backslash" unicode="\" horiz-adv-x="418" 
d="M342 -23l-83 -19l-137 773l84 17z" />
    <glyph glyph-name="bracketright" unicode="]" horiz-adv-x="292" 
d="M308 732l-189 -888h-177l15 68h92l160 752h-92l14 68h177z" />
    <glyph glyph-name="asciicircum" unicode="^" horiz-adv-x="628" 
d="M576 292h-91l-94 321l-230 -321h-91l300 416h82z" />
    <glyph glyph-name="underscore" unicode="_" horiz-adv-x="499" 
d="M435 -68l-14 -68h-500l14 68h500z" />
    <glyph glyph-name="grave" unicode="`" horiz-adv-x="323" 
d="M372 616l-32 -53l-221 100l49 84z" />
    <glyph glyph-name="a" unicode="a" horiz-adv-x="542" 
d="M506 475q-17 -56 -28 -110l-43 -202q-8 -40 -8 -60q0 -36 26 -64l-75 -57q-37 36 -37 88v9q-57 -89 -164 -89q-55 0 -89.5 40.5t-34.5 118.5q0 79 28 156.5t77 126.5q83 83 200 83q89 0 148 -40zM402 429q-22 12 -54 12q-41 0 -71.5 -14.5t-60.5 -50.5q-34 -40 -51 -103
t-17 -123q0 -84 64 -84q37 0 75 31.5t61 78.5z" />
    <glyph glyph-name="b" unicode="b" horiz-adv-x="570" 
d="M525 346q0 -90 -33.5 -169t-90.5 -129q-67 -60 -158 -60q-124 0 -195 58q11 34 19 74l92 435q20 96 6 149l97 35q15 -53 -7 -163l-14 -71q-3 -19 -23 -86q30 41 77 67.5t95 26.5q135 0 135 -167zM424 345q0 87 -71 87q-74 0 -150 -103l-51 -239q32 -28 96 -28
q26 0 55.5 16t46.5 37q33 41 53.5 108.5t20.5 121.5z" />
    <glyph glyph-name="c" unicode="c" horiz-adv-x="449" 
d="M459 468l-47 -67q-40 36 -95 36q-59 0 -95 -49q-27 -36 -48.5 -103.5t-21.5 -124.5q0 -100 86 -100q58 0 117 53l35 -58q-82 -67 -171 -67q-167 0 -167 171q0 85 38 169t91 129q68 58 154 58q76 0 124 -47z" />
    <glyph glyph-name="d" unicode="d" horiz-adv-x="565" 
d="M578 718l-118 -550q-12 -58 -12 -86q0 -35 19 -60l-79 -38q-29 32 -29 79v13q-67 -85 -163 -85q-144 0 -144 171q0 77 29 150.5t82 126.5q35 35 81.5 53.5t89.5 18.5q70 0 104 -18q0 1 3 14t7 32.5t6 27.5l34 166zM420 414q-35 21 -89 21q-27 0 -56.5 -14t-50.5 -37
q-31 -36 -53 -103t-22 -122q0 -91 68 -91q40 0 81 27t71 79z" />
    <glyph glyph-name="e" unicode="e" horiz-adv-x="506" 
d="M479 383q0 -62 -46 -105q-63 -60 -214 -60q-12 0 -33.5 1.5t-28.5 1.5q-7 -30 -7 -58q0 -48 27 -74.5t69 -26.5q79 0 145 56l33 -57q-42 -38 -88.5 -55.5t-114.5 -17.5q-77 0 -124 48.5t-47 133.5q0 75 29.5 150t81.5 125q73 70 167 70q72 0 111.5 -34.5t39.5 -97.5z
M386 379q0 65 -71 65q-46 0 -85.5 -41t-57.5 -114q22 -2 48 -2q106 0 142 36q24 24 24 56z" />
    <glyph glyph-name="f" unicode="f" horiz-adv-x="290" 
d="M437 702l-36 -65q-31 21 -69 21q-31 0 -53 -21t-29 -59l-14 -76h136l-40 -68h-108l-88 -444q-25 -129 -90 -202l-68 45q49 64 68 162l86 439h-51l13 68h50l13 67q19 95 81 135q38 24 97 24q64 0 102 -26z" />
    <glyph glyph-name="g" unicode="g" horiz-adv-x="567" 
d="M533 474q-15 -43 -27 -97l-49 -235q-6 -30 -16 -84t-14 -70q-25 -105 -89.5 -150.5t-172.5 -45.5q-90 0 -176 45l33 70q69 -40 151 -40q71 0 108 25.5t52 89.5q17 77 20 83q-61 -75 -159 -75q-68 0 -105 44t-37 126q0 79 32 156.5t83 124.5q81 75 190 75q103 0 176 -42z
M426 423q-28 14 -76 14q-70 0 -118 -49q-33 -34 -57 -102.5t-24 -122.5q0 -97 74 -97q85 0 147 107z" />
    <glyph glyph-name="h" unicode="h" horiz-adv-x="569" 
d="M514 418q0 -16 -9 -61l-76 -357h-90l71 338q7 32 7 47q0 49 -51 49q-33 0 -79.5 -29.5t-84.5 -76.5l-70 -328h-92l118 553q13 63 13 99q0 28 -7 52l97 35q6 -21 6 -53q0 -56 -15 -124l-13 -61q-9 -42 -23 -85q38 48 89.5 72.5t99.5 24.5q51 0 80 -26.5t29 -68.5z" />
    <glyph glyph-name="i" unicode="i" horiz-adv-x="275" 
d="M245 513l-109 -513h-96l106 498zM294 652q0 -28 -19 -47t-47 -19t-47.5 19t-19.5 47t19.5 47.5t47.5 19.5t47 -19.5t19 -47.5z" />
    <glyph glyph-name="j" unicode="j" horiz-adv-x="269" 
d="M240 514l-106 -501q-20 -98 -62 -146q-38 -44 -107 -71l-32 59q49 20 71 54q22 33 38 106l102 481zM290 659q0 -28 -19 -47.5t-47 -19.5t-47.5 19t-19.5 46q0 29 19.5 49t47.5 20q27 0 46.5 -20t19.5 -47z" />
    <glyph glyph-name="k" unicode="k" horiz-adv-x="482" 
d="M261 739q6 -19 6 -55q0 -55 -14 -118l-121 -566h-92l118 556q12 54 12 99q0 29 -6 49zM515 484l-218 -201l161 -271l-98 -23l-163 300l235 228z" />
    <glyph glyph-name="l" unicode="l" horiz-adv-x="273" 
d="M260 739q6 -19 6 -53q0 -55 -14 -123l-92 -428q-8 -35 -8 -52q0 -25 23 -25q13 0 18 2l5 -59q-29 -12 -67 -12q-37 0 -56.5 18t-19.5 50q0 21 8 56l93 442q12 59 12 100q0 29 -6 49z" />
    <glyph glyph-name="m" unicode="m" horiz-adv-x="809" 
d="M753 415q0 -19 -8 -61l-75 -354h-93l73 345q6 27 6 47q0 41 -45 41q-28 0 -67.5 -29t-76.5 -75l-70 -329h-91l72 338q9 40 9 56q0 39 -38 39q-29 0 -70.5 -28.5t-80.5 -77.5l-69 -327h-89l75 355q10 46 10 76q0 26 -7 48l86 38q12 -25 12 -61q0 -19 -5 -42q87 99 179 99
q85 0 87 -98q89 99 181 99q44 0 69.5 -28t25.5 -71z" />
    <glyph glyph-name="n" unicode="n" horiz-adv-x="556" 
d="M500 413q0 -19 -5 -42l-79 -371h-92l71 336q8 38 8 52q0 45 -45 45q-32 0 -73.5 -26t-84.5 -80l-69 -327h-91l76 353q10 47 10 76q0 26 -7 50l86 38q12 -31 12 -62q0 -16 -5 -41q78 99 188 99q46 0 73 -27t27 -73z" />
    <glyph glyph-name="o" unicode="o" horiz-adv-x="540" 
d="M501 336q0 -147 -78 -247.5t-205 -100.5q-82 0 -127 47t-45 133q0 148 80 247.5t202 99.5q85 0 129 -47.5t44 -131.5zM400 343q0 99 -88 99q-51 0 -89.5 -41.5t-57.5 -104.5t-19 -135q0 -100 89 -100q52 0 90.5 42t56.5 105t18 135z" />
    <glyph glyph-name="p" unicode="p" horiz-adv-x="564" 
d="M520 350q0 -70 -25.5 -149.5t-65.5 -125.5q-76 -87 -182 -87q-71 0 -114 24l-43 -203l-95 -20l121 567q9 44 9 73q0 28 -7 50l86 38q13 -30 13 -62q0 -19 -4 -38q36 46 83.5 70.5t92.5 24.5q64 0 97.5 -43.5t33.5 -118.5zM420 345q0 46 -16.5 66t-50.5 20
q-35 0 -75.5 -26.5t-76.5 -75.5l-51 -239q33 -28 94 -28q33 0 64 17.5t49 43.5q27 39 45 104.5t18 117.5z" />
    <glyph glyph-name="q" unicode="q" horiz-adv-x="564" 
d="M531 473q-16 -44 -30 -111l-117 -549l-92 -21l40 187q16 78 21 89q-64 -78 -164 -78q-66 0 -101 43t-35 125q0 80 30.5 157.5t79.5 123.5q83 77 197 77q106 0 171 -43zM425 426q-24 13 -78 13q-62 0 -114 -47q-35 -32 -58.5 -103t-23.5 -126q1 -97 72 -97q85 0 149 108z
" />
    <glyph glyph-name="r" unicode="r" horiz-adv-x="365" 
d="M405 508l-40 -94q-15 6 -34 6q-64 0 -133 -102l-67 -318h-91l72 338q12 60 12 92q0 28 -7 49l86 38q11 -27 11 -62q0 -20 -5 -48q35 49 77.5 78t78.5 29q22 0 40 -6z" />
    <glyph glyph-name="s" unicode="s" horiz-adv-x="472" 
d="M442 480l-37 -68q-64 36 -119 36q-46 0 -75 -18t-29 -51q0 -24 12 -38t42 -27l62 -25q104 -42 104 -123t-62 -131t-163 -50q-103 0 -179 51l38 69q70 -48 152 -48q48 0 79.5 22t31.5 57q0 28 -14 44.5t-50 31.5l-58 24q-50 21 -73.5 49t-23.5 72q0 70 57.5 116.5
t154.5 46.5q89 0 150 -40z" />
    <glyph glyph-name="t" unicode="t" horiz-adv-x="308" 
d="M360 502l-35 -68h-103l-60 -283q-7 -37 -7 -52q0 -25 11.5 -35.5t37.5 -10.5q25 0 52 10v-57q-46 -21 -98 -21q-47 0 -71.5 22t-24.5 61q0 40 7 71l62 295h-61l13 68h62q16 66 34 124l100 22q-27 -74 -41 -146h122z" />
    <glyph glyph-name="u" unicode="u" horiz-adv-x="555" 
d="M523 511l-77 -363q-7 -32 -7 -57q0 -34 19 -62l-75 -49q-34 36 -34 87v12q-83 -95 -179 -95q-110 0 -110 101q0 37 8 75l72 336l94 17l-70 -333q-9 -40 -9 -66q0 -29 10.5 -41.5t34.5 -12.5q37 0 82.5 30.5t78.5 83.5l68 320z" />
    <glyph glyph-name="v" unicode="v" horiz-adv-x="462" 
d="M518 501l-294 -505h-85l-75 501l94 17l39 -315q6 -48 6 -94h1q15 37 46 95l167 302z" />
    <glyph glyph-name="w" unicode="w" horiz-adv-x="686" 
d="M733 502l-250 -505h-87l-13 196q-10 152 -10 201h-1q-15 -45 -45 -106l-143 -291h-87l-32 499l93 17l8 -296q1 -60 -2 -102h2q12 33 44 99l140 288h95l14 -290q3 -68 3 -103h1q9 30 39 96l132 297h99z" />
    <glyph glyph-name="x" unicode="x" horiz-adv-x="423" 
d="M470 502l-200 -230l131 -272h-109q-2 7 -22.5 57t-40 97t-19.5 50q-1 -2 -18 -22.5t-40.5 -49.5t-46.5 -57t-41.5 -50.5t-20.5 -24.5h-115l246 276l-104 220l105 9q57 -142 62 -163q3 6 61.5 81.5t60.5 78.5h111z" />
    <glyph glyph-name="y" unicode="y" horiz-adv-x="474" 
d="M520 502l-247 -447q-8 -15 -24 -43.5t-23 -41.5t-19.5 -34.5t-20.5 -33t-19 -26t-21.5 -24.5t-21.5 -18q-47 -33 -106 -44l-20 63q39 5 88 42q37 29 70 105l-33 -3q0 74 -12 170l-42 328l96 17l32 -314q5 -47 3 -121h1q1 5 58 119l157 306h104z" />
    <glyph glyph-name="z" unicode="z" horiz-adv-x="416" 
d="M428 436l-337 -368h263l-37 -68h-348l2 66l340 365h-229l3 71h343v-66z" />
    <glyph glyph-name="braceleft" unicode="{" horiz-adv-x="348" 
d="M429 732l-16 -74h-53q-32 0 -47 -20.5t-22 -54.5l-36 -172q-7 -32 -21.5 -56.5t-33 -37.5t-33.5 -19.5t-28 -8.5l-1 -2q26 -3 47 -22t21 -62q0 -19 -4 -38l-36 -172q-4 -22 -4 -33q0 -42 41 -42h53l-16 -74h-79q-37 0 -62 24.5t-25 69.5q0 19 4 36l37 175q3 14 3 25
q0 36 -23 56.5t-50 20.5l15 74q33 0 68.5 27.5t45.5 74.5l37 175q13 61 54 95.5t85 34.5h79z" />
    <glyph glyph-name="bar" unicode="|" horiz-adv-x="301" 
d="M322 757l-205 -964h-81l205 964h81z" />
    <glyph glyph-name="braceright" unicode="}" horiz-adv-x="348" 
d="M326 325l-15 -74q-34 0 -69 -27t-45 -75l-37 -175q-13 -62 -53 -96t-86 -34h-79l16 74h53q32 0 46.5 20.5t22.5 54.5l37 171q14 64 48.5 92t66.5 31l1 2q-25 4 -46.5 24.5t-21.5 62.5q0 18 4 35l36 172q4 16 4 34q0 41 -41 41h-53l16 74h80q35 0 60.5 -25t25.5 -70
q0 -18 -4 -35l-37 -175q-3 -13 -3 -24q0 -36 22.5 -57t50.5 -21z" />
    <glyph glyph-name="asciitilde" unicode="~" horiz-adv-x="600" 
d="M540 315q-78 -87 -142 -87q-44 0 -105.5 33.5t-92.5 33.5q-59 0 -105 -65l-25 60q75 88 146 88q38 0 101 -34t99 -34q52 0 100 67z" />
    <glyph glyph-name="uni00A0" unicode="&#xa0;" horiz-adv-x="225" 
 />
    <glyph glyph-name="exclamdown" unicode="&#xa1;" horiz-adv-x="306" 
d="M199 288l-81 -482l-117 -16l128 498h70zM260 433q0 -28 -19.5 -47.5t-47.5 -19.5q-27 0 -46.5 19.5t-19.5 46.5q0 28 19.5 48t47.5 20t47 -19.5t19 -47.5z" />
    <glyph glyph-name="cent" unicode="&#xa2;" horiz-adv-x="452" 
d="M461 466l-55 -64q-18 22 -54 32l-79 -370q19 4 45 20t40 31l35 -59q-70 -56 -136 -65l-17 -86h-62l17 84q-90 9 -123 73q-21 42 -21 99q0 34 8 74q32 155 140 236q45 33 107 43l18 83h63l-18 -85q52 -6 92 -46zM290 435q-48 -16 -74 -55q-37 -55 -55 -140
q-10 -46 -10 -80q0 -79 60 -98z" />
    <glyph glyph-name="sterling" unicode="&#xa3;" horiz-adv-x="557" 
d="M639 655l-74 -67q-36 45 -100 45q-125 0 -159 -162l-15 -70h160l-16 -76h-160l-50 -238h247l-18 -87h-454l19 87h105l50 238h-96l16 76h96l16 77q25 119 98 180.5t177 61.5q105 0 158 -65z" />
    <glyph glyph-name="currency" unicode="&#xa4;" horiz-adv-x="457" 
d="M440 452l-56 -65q18 -20 18 -66q0 -45 -17 -93t-50 -75l31 -65l-80 -45l-28 65q-26 -9 -59 -9q-34 0 -58 9l-52 -67l-70 52l59 65q-15 23 -15 62q0 46 20 95.5t51 76.5l-31 63l83 44l26 -64q22 6 53 6q34 0 54 -7l51 67zM316 263q6 28 6 52q0 67 -68 67q-83 0 -105 -104
q-6 -28 -6 -51q0 -68 69 -68q82 0 104 104z" />
    <glyph glyph-name="yen" unicode="&#xa5;" horiz-adv-x="540" 
d="M636 688l-228 -304h138l-15 -70h-175l-32 -42l-10 -49h198l-16 -70h-197l-33 -153h-100l32 153h-187l15 70h188l11 53l-13 38h-167l15 70h130l-97 304h110l68 -243q15 -55 18 -80q52 76 54 79l173 244h120z" />
    <glyph glyph-name="brokenbar" unicode="&#xa6;" horiz-adv-x="262" 
d="M283 757l-87 -411h-81l87 411h81zM165 204l-87 -411h-81l87 411h81z" />
    <glyph glyph-name="section" unicode="&#xa7;" horiz-adv-x="532" 
d="M549 629l-91 -47q-15 61 -96 61q-45 0 -79 -26t-34 -64q0 -39 46 -64l80 -43q56 -30 86.5 -62t30.5 -78q0 -52 -32 -93t-83 -66q44 -36 44 -90q0 -86 -68.5 -144.5t-185.5 -58.5q-71 0 -119 30.5t-60 93.5l90 40q7 -80 112 -80q54 0 87.5 27t33.5 69q0 9 -2.5 16.5
t-8 14.5t-10.5 12t-15 11.5t-15 9.5t-16.5 9.5t-15.5 8.5l-105 61q-54 32 -54 98q0 110 132 171q-53 35 -53 92q0 83 68.5 136t159.5 53q64 0 112 -24t61 -74zM396 280q0 47 -72 85l-64 35q-94 -31 -94 -97q0 -18 11 -33t22.5 -22.5t32.5 -19.5l82 -44q32 12 57 39t25 57z
" />
    <glyph glyph-name="dieresis" unicode="&#xa8;" horiz-adv-x="427" 
d="M458 625q0 -25 -17 -42.5t-41 -17.5q-25 0 -42.5 17.5t-17.5 42.5q0 24 17 41t42 17q24 0 41.5 -17t17.5 -41zM250 625q0 -25 -17 -42.5t-41 -17.5q-25 0 -42 17.5t-17 42.5q0 24 17 41t41 17q25 0 42 -17t17 -41z" />
    <glyph glyph-name="copyright" unicode="&#xa9;" horiz-adv-x="873" 
d="M831 355q0 -156 -108.5 -264t-260.5 -108t-260 108t-108 264t108 264t260 108t260.5 -108t108.5 -264zM759 355q0 131 -86.5 221t-210.5 90t-210 -90t-86 -221q0 -130 86 -221t210 -91q123 0 210 91t87 221zM580 178q-49 -37 -114 -37q-82 0 -131 60q-47 58 -47 148
q0 75 27 126q23 45 63.5 70.5t89.5 25.5q65 0 103 -33l-31 -45q-33 23 -71 23q-55 0 -83 -50q-22 -39 -22 -109q0 -67 17 -103q27 -59 92 -59q41 0 74 27z" />
    <glyph glyph-name="ordfeminine" unicode="&#xaa;" horiz-adv-x="438" 
d="M462 734q-14 -44 -22 -84l-31 -152q-5 -28 -5 -41q0 -25 21 -48l-62 -47q-31 28 -32 65q-42 -58 -117 -58q-41 0 -69 31t-28 91q0 59 21 117t58 95q62 62 152 62q69 0 114 -31zM375 695q-11 7 -34 7q-57 0 -96 -46q-49 -59 -49 -164q0 -57 44 -57q27 0 53.5 22.5
t43.5 56.5zM404 300l-13 -60h-326l13 60h326z" />
    <glyph glyph-name="guillemotleft" unicode="&#xab;" horiz-adv-x="535" 
d="M325 416l-169 -180l85 -173l-70 -40l-109 222l202 216zM525 416l-169 -180l86 -173l-71 -40l-108 222l201 216z" />
    <glyph glyph-name="logicalnot" unicode="&#xac;" horiz-adv-x="505" 
d="M466 293l-47 -221h-85l30 140h-318l17 81h403z" />
    <glyph glyph-name="uni00AD" unicode="&#xad;" horiz-adv-x="346" 
d="M291 311l-18 -85h-204l19 85h203z" />
    <glyph glyph-name="registered" unicode="&#xae;" horiz-adv-x="873" 
d="M831 355q0 -156 -108.5 -264t-260.5 -108t-260 108t-108 264t108 264t260 108t260.5 -108t108.5 -264zM759 355q0 131 -86.5 221t-210.5 90t-210 -90t-86 -221q0 -130 86 -221t210 -91q123 0 210 91t87 221zM627 148h-82l-36 65q-38 69 -71 102q-12 12 -27 13v-180h-68
v416h127q66 0 100.5 -33.5t34.5 -85.5q0 -49 -28.5 -81.5t-74.5 -32.5q18 -9 64 -83zM533 444q0 64 -84 64h-38v-132h36q49 0 67 18q19 19 19 50z" />
    <glyph glyph-name="macron" unicode="&#xaf;" horiz-adv-x="325" 
d="M412 739l-13 -60h-284l13 60h284z" />
    <glyph glyph-name="degree" unicode="&#xb0;" horiz-adv-x="418" 
d="M373 525q-15 -77 -69.5 -122.5t-127.5 -45.5q-65 0 -100 33t-35 93q0 23 4 44q15 77 68.5 123t126.5 46q66 0 101.5 -33t35.5 -93q0 -24 -4 -45zM295 521q5 24 5 48q0 37 -17.5 53.5t-52.5 16.5q-86 0 -107 -108q-5 -24 -5 -48q0 -69 70 -69q86 0 107 107z" />
    <glyph glyph-name="plusminus" unicode="&#xb1;" horiz-adv-x="485" 
d="M464 373l-18 -82h-150l-30 -141h-84l29 141h-150l18 82h150l29 134h84l-28 -134h150zM405 109l-17 -82h-380l17 82h380z" />
    <glyph glyph-name="twosuperior" unicode="&#xb2;" horiz-adv-x="340" 
d="M370 560q0 -52 -35 -95.5t-111 -106.5q-12 -10 -36.5 -27.5t-27.5 -19.5q4 0 15 0.5t15 0.5h139l-30 -62h-254l10 47q45 27 114 87q115 99 115 158q0 20 -12.5 31.5t-33.5 11.5q-9 0 -18.5 -2t-15.5 -3.5t-18 -7.5l-15 -7.5t-17.5 -10t-15.5 -8.5l-30 42q90 63 162 63
q45 0 72.5 -25.5t27.5 -65.5z" />
    <glyph glyph-name="threesuperior" unicode="&#xb3;" horiz-adv-x="353" 
d="M383 567q0 -34 -20 -62t-52 -43q47 -24 47 -69q0 -46 -39.5 -85.5t-88.5 -57.5q-52 -19 -121 -19q-27 0 -42 2l-7 58q34 -6 48 -6q77 0 125 35q41 29 41 71q0 29 -28 38q-16 5 -64 5h-22l13 59h27q21 0 34.5 1.5t30.5 6.5t26 17.5t9 32.5q0 36 -47 36q-40 0 -102 -38
l-31 45q76 57 155 57q48 0 78 -23t30 -61z" />
    <glyph glyph-name="acute" unicode="&#xb4;" horiz-adv-x="347" 
d="M389 663l-229 -101l-29 54l214 131z" />
    <glyph glyph-name="mu" unicode="&#xb5;" horiz-adv-x="557" 
d="M525 511l-77 -363q-9 -42 -9 -64q0 -28 18 -50l-73 -53q-34 32 -35 72q-71 -69 -166 -69q-39 0 -56 17l-41 -192l-95 -20l149 707l97 18l-75 -352q-6 -30 -6 -48q0 -23 13 -36q20 -18 54 -18t71.5 22.5t61.5 56.5l75 355z" />
    <glyph glyph-name="paragraph" unicode="&#xb6;" horiz-adv-x="599" 
d="M610 708l-177 -834h-77l163 766h-115l-163 -766h-77l95 448q-80 0 -127 41t-47 106q0 107 77.5 173t198.5 66h249z" />
    <glyph glyph-name="periodcentered" unicode="&#xb7;" horiz-adv-x="307" 
d="M234 278q0 -30 -21 -51t-51 -21t-51 21t-21 51t21 51t51 21t51 -21t21 -51z" />
    <glyph glyph-name="cedilla" unicode="&#xb8;" horiz-adv-x="242" 
d="M140 -109q-6 -34 -38.5 -61.5t-80.5 -27.5q-39 0 -78 24l34 51q32 -15 56 -15q15 0 27 8.5t12 23.5q0 10 -8.5 16.5t-20.5 6.5q-19 0 -39 -2l46 97l61 -7l-22 -44q52 -8 52 -54q0 -10 -1 -16z" />
    <glyph glyph-name="onesuperior" unicode="&#xb9;" horiz-adv-x="322" 
d="M312 644l-71 -332h59l-13 -62h-197l13 62h63l52 242q-33 -19 -95 -38l-10 43l145 85h54z" />
    <glyph glyph-name="ordmasculine" unicode="&#xba;" horiz-adv-x="440" 
d="M465 628q0 -110 -59 -185.5t-154 -75.5q-62 0 -96.5 37t-34.5 102q0 111 60 185t152 74q65 0 98.5 -36.5t33.5 -100.5zM382 633q0 69 -61 69q-54 0 -86 -60.5t-32 -141.5q0 -71 61 -71q55 0 86.5 61t31.5 143zM400 300l-13 -60h-326l13 60h326z" />
    <glyph glyph-name="guillemotright" unicode="&#xbb;" horiz-adv-x="535" 
d="M277 239l-201 -216l-61 46l168 180l-85 173l71 39zM477 239l-201 -216l-61 46l169 180l-86 173l71 39z" />
    <glyph glyph-name="onequarter" unicode="&#xbc;" horiz-adv-x="1021" 
d="M312 644l-71 -332h59l-13 -62h-197l13 62h63l52 242q-33 -19 -95 -38l-10 43l145 85h54zM940 763l-722 -917h-77l723 917h76zM994 133l-13 -62h-42l-6 1q-1 -2 -1 -6.5v-6.5l-14 -63l-77 -16l17 80l3 12q-2 0 -6.5 -0.5t-6.5 -0.5h-166l11 51l198 273h82
q-1 -2 -42.5 -60.5t-81 -112.5t-68.5 -90l13 1h74l6 -1q0 6 12 49l30 100l66 16l-30 -144l-7 -21l6 1h43z" />
    <glyph glyph-name="onehalf" unicode="&#xbd;" horiz-adv-x="1002" 
d="M312 644l-71 -332h59l-13 -62h-197l13 62h63l52 242q-33 -19 -95 -38l-10 43l145 85h54zM910 763l-722 -917h-77l723 917h76zM1001 310q0 -29 -13 -58t-40 -58t-43.5 -44t-49.5 -42q-21 -17 -61 -47q4 0 13.5 0.5t13.5 0.5h139l-30 -62h-254l10 47q41 25 113 87
q30 26 49 44t43 53t24 61q0 20 -12.5 31.5t-33.5 11.5q-9 0 -18.5 -2t-15.5 -3.5t-18 -7.5l-15 -7.5t-17.5 -10t-15.5 -8.5l-30 42q90 63 162 63q45 0 72.5 -25.5t27.5 -65.5z" />
    <glyph glyph-name="threequarters" unicode="&#xbe;" horiz-adv-x="1052" 
d="M383 567q0 -34 -20 -62t-52 -43q47 -24 47 -69q0 -46 -39.5 -85.5t-88.5 -57.5q-52 -19 -121 -19q-27 0 -42 2l-7 58q34 -6 48 -6q77 0 125 35q41 29 41 71q0 29 -28 38q-16 5 -64 5h-22l13 59h27q21 0 34.5 1.5t30.5 6.5t26 17.5t9 32.5q0 36 -47 36q-40 0 -102 -38
l-31 45q76 57 155 57q48 0 78 -23t30 -61zM981 763l-722 -917h-77l723 917h76zM1025 133l-13 -62h-42l-6 1v-6.5t-1 -6.5l-14 -63l-77 -16l17 80l3 12q-2 0 -6.5 -0.5t-6.5 -0.5h-166l11 51l198 273h82q-1 -2 -42.5 -60.5t-81 -112.5t-68.5 -90l13 1h74l6 -1q0 6 12 49
l30 100l66 16l-30 -144l-7 -21l6 1h43z" />
    <glyph glyph-name="questiondown" unicode="&#xbf;" horiz-adv-x="446" 
d="M324 -142q-94 -66 -189 -66q-71 0 -110.5 34t-39.5 93q0 98 125 176q57 36 79 76.5t23 96.5h79v-12q0 -135 -118 -208q-50 -31 -70.5 -55.5t-20.5 -51.5q0 -34 21 -51.5t57 -17.5q63 0 133 46zM344 432q0 -28 -19.5 -47t-47.5 -19q-27 0 -46.5 19t-19.5 46q0 29 19.5 49
t47.5 20t47 -20t19 -48z" />
    <glyph glyph-name="Agrave" unicode="&#xc0;" horiz-adv-x="572" 
d="M522 0h-103l-18 199h-243l-104 -199h-104l376 689h118zM393 279l-17 171q-12 123 -12 147q-1 -1 -8.5 -17t-19.5 -40l-20 -40l-116 -221h193zM471 777l-32 -53l-221 100l49 84z" />
    <glyph glyph-name="Aacute" unicode="&#xc1;" horiz-adv-x="572" 
d="M522 0h-103l-18 199h-243l-104 -199h-104l376 689h118zM393 279l-17 171q-12 123 -12 147q-1 -1 -8.5 -17t-19.5 -40l-20 -40l-116 -221h193zM561 824l-229 -101l-29 54l214 131z" />
    <glyph glyph-name="Acircumflex" unicode="&#xc2;" horiz-adv-x="572" 
d="M522 0h-103l-18 199h-243l-104 -199h-104l376 689h118zM393 279l-17 171q-12 123 -12 147q-1 -1 -8.5 -17t-19.5 -40l-20 -40l-116 -221h193zM556 771l-40 -51l-121 83l-153 -83l-33 51l201 135z" />
    <glyph glyph-name="Atilde" unicode="&#xc3;" horiz-adv-x="572" 
d="M522 0h-103l-18 199h-243l-104 -199h-104l376 689h118zM393 279l-17 171q-12 123 -12 147q-1 -1 -8.5 -17t-19.5 -40l-20 -40l-116 -221h193zM564 813q-34 -33 -64 -48.5t-72 -15.5q-30 0 -61 19t-59 19q-21 0 -36 -8.5t-40 -30.5l-23 53q34 34 63.5 49t69.5 15
q30 0 61.5 -19t60.5 -19q34 0 77 38z" />
    <glyph glyph-name="Adieresis" unicode="&#xc4;" horiz-adv-x="572" 
d="M522 0h-103l-18 199h-243l-104 -199h-104l376 689h118zM393 279l-17 171q-12 123 -12 147q-1 -1 -8.5 -17t-19.5 -40l-20 -40l-116 -221h193zM336 786q0 -25 -17 -42.5t-41 -17.5q-25 0 -42 17.5t-17 42.5q0 24 17 41t41 17q25 0 42 -17t17 -41zM544 786q0 -25 -17 -42.5
t-41 -17.5q-25 0 -42 17.5t-17 42.5q0 24 17 41t41 17q25 0 42 -17t17 -41z" />
    <glyph glyph-name="Aring" unicode="&#xc5;" horiz-adv-x="572" 
d="M522 0h-103l-18 199h-243l-104 -199h-104l376 689h118zM393 279l-17 171q-12 123 -12 147q-1 -1 -8.5 -17t-19.5 -40l-20 -40l-116 -221h193zM498 819q0 -44 -31 -75t-75 -31t-75 31t-31 75t31 75t75 31t75 -31t31 -75zM447 819q0 23 -16 39.5t-39 16.5t-39 -16.5
t-16 -39.5t16 -39.5t39 -16.5t39 16.5t16 39.5z" />
    <glyph glyph-name="AE" unicode="&#xc6;" horiz-adv-x="813" 
d="M872 688l-30 -79h-265l-44 -209h226l-17 -82h-225l-50 -235h293l-18 -83h-391l42 199h-215l-163 -199h-115l567 688h405zM473 576l-231 -297h168z" />
    <glyph glyph-name="Ccedilla" unicode="&#xc7;" horiz-adv-x="564" 
d="M611 642l-55 -61q-46 40 -116 40q-108 0 -180 -103q-38 -55 -61.5 -137t-23.5 -149q0 -79 39 -121.5t114 -42.5q69 0 139 45l36 -66q-96 -58 -205 -58l-15 -28q56 -8 56 -54q0 -43 -38 -72t-86 -29q-45 0 -78 20l28 47q33 -15 57 -15q16 0 30 9.5t14 26.5q0 22 -35 22
q-29 0 -35 -3l41 83q-79 17 -122 80t-43 160q0 193 120 336q51 60 120 93.5t140 33.5q100 0 159 -57z" />
    <glyph glyph-name="Egrave" unicode="&#xc8;" horiz-adv-x="508" 
d="M567 688l-31 -79h-269l-44 -209h226l-18 -82h-226l-49 -235h292l-18 -83h-390l146 688h381zM478 777l-32 -53l-221 100l49 84z" />
    <glyph glyph-name="Eacute" unicode="&#xc9;" horiz-adv-x="508" 
d="M567 688l-31 -79h-269l-44 -209h226l-18 -82h-226l-49 -235h292l-18 -83h-390l146 688h381zM531 824l-229 -101l-29 54l214 131z" />
    <glyph glyph-name="Ecircumflex" unicode="&#xca;" horiz-adv-x="508" 
d="M567 688l-31 -79h-269l-44 -209h226l-18 -82h-226l-49 -235h292l-18 -83h-390l146 688h381zM556 771l-40 -51l-121 83l-153 -83l-33 51l201 135z" />
    <glyph glyph-name="Edieresis" unicode="&#xcb;" horiz-adv-x="508" 
d="M567 688l-31 -79h-269l-44 -209h226l-18 -82h-226l-49 -235h292l-18 -83h-390l146 688h381zM337 786q0 -25 -17 -42.5t-41 -17.5q-25 0 -42 17.5t-17 42.5q0 24 17 41t41 17q25 0 42 -17t17 -41zM545 786q0 -25 -17 -42.5t-41 -17.5q-25 0 -42 17.5t-17 42.5q0 24 17 41
t41 17q25 0 42 -17t17 -41z" />
    <glyph glyph-name="Igrave" unicode="&#xcc;" horiz-adv-x="277" 
d="M283 688l-147 -688h-96l146 688h97zM318 777l-32 -53l-221 100l49 84z" />
    <glyph glyph-name="Iacute" unicode="&#xcd;" horiz-adv-x="277" 
d="M283 688l-147 -688h-96l146 688h97zM418 824l-229 -101l-29 54l214 131z" />
    <glyph glyph-name="Icircumflex" unicode="&#xce;" horiz-adv-x="277" 
d="M283 688l-147 -688h-96l146 688h97zM417 771l-40 -51l-121 83l-153 -83l-33 51l201 135z" />
    <glyph glyph-name="Idieresis" unicode="&#xcf;" horiz-adv-x="277" 
d="M283 688l-147 -688h-96l146 688h97zM194 786q0 -25 -17 -42.5t-41 -17.5q-25 0 -42 17.5t-17 42.5q0 24 17 41t41 17q25 0 42 -17t17 -41zM402 786q0 -25 -17 -42.5t-41 -17.5q-25 0 -42 17.5t-17 42.5q0 24 17 41t41 17q25 0 42 -17t17 -41z" />
    <glyph glyph-name="Eth" unicode="&#xd0;" horiz-adv-x="634" 
d="M607 439q0 -89 -40.5 -192.5t-98.5 -158.5q-51 -48 -108.5 -68t-143.5 -20h-176l67 316h-82l15 69h82l64 303h151q81 0 125.5 -12t80.5 -45q64 -58 64 -192zM503 432q0 82 -25 122q-21 33 -50.5 44.5t-82.5 11.5h-78l-48 -225h146l-24 -69h-136l-50 -236h72q126 0 180 71
q46 60 71 141.5t25 139.5z" />
    <glyph glyph-name="Ntilde" unicode="&#xd1;" horiz-adv-x="643" 
d="M649 688l-146 -688h-101l-113 381q-41 138 -45 177q-25 -155 -31 -186l-75 -372h-98l146 688h110l120 -397q28 -95 33 -158q0 2 6 38t13.5 82.5t15.5 84.5l71 350h94zM598 815q-34 -33 -64 -48.5t-72 -15.5q-30 0 -61 19t-59 19q-21 0 -36 -8.5t-40 -30.5l-23 53
q34 34 63.5 49t69.5 15q30 0 61.5 -19t60.5 -19q34 0 77 38z" />
    <glyph glyph-name="Ograve" unicode="&#xd2;" horiz-adv-x="688" 
d="M661 463q0 -129 -48 -246t-134 -175q-80 -54 -187 -54q-110 0 -165 65t-55 179q0 116 42 220t105 164q46 42 97 63t125 21q104 0 162 -62.5t58 -174.5zM555 476q0 147 -131 147q-98 0 -153 -75q-42 -57 -68 -148.5t-26 -186.5q0 -151 134 -151q79 0 133 57q47 50 79 158
t32 199zM529 777l-32 -53l-221 100l49 84z" />
    <glyph glyph-name="Oacute" unicode="&#xd3;" horiz-adv-x="688" 
d="M661 463q0 -129 -48 -246t-134 -175q-80 -54 -187 -54q-110 0 -165 65t-55 179q0 116 42 220t105 164q46 42 97 63t125 21q104 0 162 -62.5t58 -174.5zM555 476q0 147 -131 147q-98 0 -153 -75q-42 -57 -68 -148.5t-26 -186.5q0 -151 134 -151q79 0 133 57q47 50 79 158
t32 199zM597 824l-229 -101l-29 54l214 131z" />
    <glyph glyph-name="Ocircumflex" unicode="&#xd4;" horiz-adv-x="688" 
d="M661 463q0 -129 -48 -246t-134 -175q-80 -54 -187 -54q-110 0 -165 65t-55 179q0 116 42 220t105 164q46 42 97 63t125 21q104 0 162 -62.5t58 -174.5zM555 476q0 147 -131 147q-98 0 -153 -75q-42 -57 -68 -148.5t-26 -186.5q0 -151 134 -151q79 0 133 57q47 50 79 158
t32 199zM614 771l-40 -51l-121 83l-153 -83l-33 51l201 135z" />
    <glyph glyph-name="Otilde" unicode="&#xd5;" horiz-adv-x="688" 
d="M661 463q0 -129 -48 -246t-134 -175q-80 -54 -187 -54q-110 0 -165 65t-55 179q0 116 42 220t105 164q46 42 97 63t125 21q104 0 162 -62.5t58 -174.5zM555 476q0 147 -131 147q-98 0 -153 -75q-42 -57 -68 -148.5t-26 -186.5q0 -151 134 -151q79 0 133 57q47 50 79 158
t32 199zM624 813q-34 -33 -64 -48.5t-72 -15.5q-30 0 -61 19t-59 19q-21 0 -36 -8.5t-40 -30.5l-23 53q34 34 63.5 49t69.5 15q30 0 61.5 -19t60.5 -19q34 0 77 38z" />
    <glyph glyph-name="Odieresis" unicode="&#xd6;" horiz-adv-x="688" 
d="M661 463q0 -129 -48 -246t-134 -175q-80 -54 -187 -54q-110 0 -165 65t-55 179q0 116 42 220t105 164q46 42 97 63t125 21q104 0 162 -62.5t58 -174.5zM555 476q0 147 -131 147q-98 0 -153 -75q-42 -57 -68 -148.5t-26 -186.5q0 -151 134 -151q79 0 133 57q47 50 79 158
t32 199zM401 789q0 -25 -17 -42.5t-41 -17.5q-25 0 -42 17.5t-17 42.5q0 24 17 41t41 17q25 0 42 -17t17 -41zM609 789q0 -25 -17 -42.5t-41 -17.5q-25 0 -42 17.5t-17 42.5q0 24 17 41t41 17q25 0 42 -17t17 -41z" />
    <glyph glyph-name="multiply" unicode="&#xd7;" horiz-adv-x="533" 
d="M493 404l-164 -134l108 -137l-72 -60l-108 137l-163 -135l-49 62l164 134l-108 137l72 60l108 -137l163 135z" />
    <glyph glyph-name="Oslash" unicode="&#xd8;" horiz-adv-x="686" 
d="M719 726l-96 -117q37 -59 37 -146q0 -127 -48.5 -243.5t-133.5 -177.5q-76 -54 -187 -54q-86 0 -140 42l-93 -114l-48 37l99 122q-38 62 -38 157q0 115 42 219t105 165q86 84 222 84q87 0 142 -44l87 106zM523 583q-33 41 -100 41q-97 0 -153 -76q-42 -57 -68.5 -148.5
t-26.5 -186.5q0 -22 6 -50zM554 475q0 27 -4 43l-342 -418q33 -39 102 -39q78 0 133 58q47 49 79 156.5t32 199.5z" />
    <glyph glyph-name="Ugrave" unicode="&#xd9;" horiz-adv-x="638" 
d="M649 688l-101 -474q-16 -75 -33 -110.5t-54 -62.5q-73 -53 -189 -53q-91 0 -144.5 37.5t-53.5 110.5q0 46 9 86l99 466h97l-94 -443q-12 -58 -12 -100q0 -35 29.5 -55t81.5 -20q82 0 129 54q26 29 41 102l98 462h97zM525 777l-32 -53l-221 100l49 84z" />
    <glyph glyph-name="Uacute" unicode="&#xda;" horiz-adv-x="638" 
d="M649 688l-101 -474q-16 -75 -33 -110.5t-54 -62.5q-73 -53 -189 -53q-91 0 -144.5 37.5t-53.5 110.5q0 46 9 86l99 466h97l-94 -443q-12 -58 -12 -100q0 -35 29.5 -55t81.5 -20q82 0 129 54q26 29 41 102l98 462h97zM566 824l-229 -101l-29 54l214 131z" />
    <glyph glyph-name="Ucircumflex" unicode="&#xdb;" horiz-adv-x="638" 
d="M649 688l-101 -474q-16 -75 -33 -110.5t-54 -62.5q-73 -53 -189 -53q-91 0 -144.5 37.5t-53.5 110.5q0 46 9 86l99 466h97l-94 -443q-12 -58 -12 -100q0 -35 29.5 -55t81.5 -20q82 0 129 54q26 29 41 102l98 462h97zM596 771l-40 -51l-121 83l-153 -83l-33 51l201 135z
" />
    <glyph glyph-name="Udieresis" unicode="&#xdc;" horiz-adv-x="638" 
d="M649 688l-101 -474q-16 -75 -33 -110.5t-54 -62.5q-73 -53 -189 -53q-91 0 -144.5 37.5t-53.5 110.5q0 46 9 86l99 466h97l-94 -443q-12 -58 -12 -100q0 -35 29.5 -55t81.5 -20q82 0 129 54q26 29 41 102l98 462h97zM385 786q0 -25 -17 -42.5t-41 -17.5q-25 0 -42 17.5
t-17 42.5q0 24 17 41t41 17q25 0 42 -17t17 -41zM593 786q0 -25 -17 -42.5t-41 -17.5q-25 0 -42 17.5t-17 42.5q0 24 17 41t41 17q25 0 42 -17t17 -41z" />
    <glyph glyph-name="Yacute" unicode="&#xdd;" horiz-adv-x="543" 
d="M639 688l-311 -416l-58 -272h-101l59 276l-132 412h114l67 -243q15 -55 18 -80l54 79l174 244h116zM507 824l-229 -101l-29 54l214 131z" />
    <glyph glyph-name="Thorn" unicode="&#xde;" horiz-adv-x="559" 
d="M562 419q0 -138 -112 -217q-61 -43 -172 -43h-108l-34 -159h-96l146 688h96l-23 -110h84q110 0 161 -38q58 -44 58 -121zM457 398q0 51 -29.5 75.5t-98.5 24.5h-87l-55 -260h103q73 0 112 36q55 52 55 124z" />
    <glyph glyph-name="germandbls" unicode="&#xdf;" horiz-adv-x="582" 
d="M539 581q0 -42 -18.5 -73t-45 -47.5t-53 -27.5t-45 -20t-18.5 -17q0 -9 12 -17.5t30 -16.5t38.5 -21t38.5 -29t30 -43t12 -61q0 -89 -68.5 -154.5t-176.5 -65.5q-51 0 -84 15l31 65q26 -13 55 -13q62 0 104 36.5t42 96.5q0 34 -15.5 58t-37.5 37t-43.5 25t-37 30
t-15.5 44q0 32 26 53.5t56.5 33t56.5 38.5t26 69q0 30 -20.5 48t-55.5 18q-51 0 -81.5 -34.5t-46.5 -111.5l-101 -506q-26 -129 -91 -202l-68 45q47 61 69 168l87 433h-75l14 68h74l3 16q19 102 78 148t156 46q72 0 115 -36.5t43 -94.5z" />
    <glyph glyph-name="agrave" unicode="&#xe0;" horiz-adv-x="542" 
d="M506 475q-17 -56 -28 -110l-43 -202q-8 -40 -8 -60q0 -36 26 -64l-75 -57q-37 36 -37 88v9q-57 -89 -164 -89q-55 0 -89.5 40.5t-34.5 118.5q0 79 28 156.5t77 126.5q83 83 200 83q89 0 148 -40zM402 429q-22 12 -54 12q-41 0 -71.5 -14.5t-60.5 -50.5q-34 -40 -51 -103
t-17 -123q0 -84 64 -84q37 0 75 31.5t61 78.5zM462 616l-32 -53l-221 100l49 84z" />
    <glyph glyph-name="aacute" unicode="&#xe1;" horiz-adv-x="542" 
d="M506 475q-17 -56 -28 -110l-43 -202q-8 -40 -8 -60q0 -36 26 -64l-75 -57q-37 36 -37 88v9q-57 -89 -164 -89q-55 0 -89.5 40.5t-34.5 118.5q0 79 28 156.5t77 126.5q83 83 200 83q89 0 148 -40zM402 429q-22 12 -54 12q-41 0 -71.5 -14.5t-60.5 -50.5q-34 -40 -51 -103
t-17 -123q0 -84 64 -84q37 0 75 31.5t61 78.5zM527 663l-229 -101l-29 54l214 131z" />
    <glyph glyph-name="acircumflex" unicode="&#xe2;" horiz-adv-x="542" 
d="M506 475q-17 -56 -28 -110l-43 -202q-8 -40 -8 -60q0 -36 26 -64l-75 -57q-37 36 -37 88v9q-57 -89 -164 -89q-55 0 -89.5 40.5t-34.5 118.5q0 79 28 156.5t77 126.5q83 83 200 83q89 0 148 -40zM402 429q-22 12 -54 12q-41 0 -71.5 -14.5t-60.5 -50.5q-34 -40 -51 -103
t-17 -123q0 -84 64 -84q37 0 75 31.5t61 78.5zM533 610l-40 -51l-121 83l-153 -83l-33 51l201 135z" />
    <glyph glyph-name="atilde" unicode="&#xe3;" horiz-adv-x="542" 
d="M506 475q-17 -56 -28 -110l-43 -202q-8 -40 -8 -60q0 -36 26 -64l-75 -57q-37 36 -37 88v9q-57 -89 -164 -89q-55 0 -89.5 40.5t-34.5 118.5q0 79 28 156.5t77 126.5q83 83 200 83q89 0 148 -40zM402 429q-22 12 -54 12q-41 0 -71.5 -14.5t-60.5 -50.5q-34 -40 -51 -103
t-17 -123q0 -84 64 -84q37 0 75 31.5t61 78.5zM534 653q-34 -33 -64 -48.5t-72 -15.5q-30 0 -61 19t-59 19q-15 0 -29.5 -6.5t-21.5 -11.5t-25 -21l-23 53q34 34 63.5 49t69.5 15q30 0 61.5 -19t60.5 -19q34 0 77 38z" />
    <glyph glyph-name="adieresis" unicode="&#xe4;" horiz-adv-x="542" 
d="M506 475q-17 -56 -28 -110l-43 -202q-8 -40 -8 -60q0 -36 26 -64l-75 -57q-37 36 -37 88v9q-57 -89 -164 -89q-55 0 -89.5 40.5t-34.5 118.5q0 79 28 156.5t77 126.5q83 83 200 83q89 0 148 -40zM402 429q-22 12 -54 12q-41 0 -71.5 -14.5t-60.5 -50.5q-34 -40 -51 -103
t-17 -123q0 -84 64 -84q37 0 75 31.5t61 78.5zM320 625q0 -25 -17 -42.5t-41 -17.5q-25 0 -42 17.5t-17 42.5q0 24 17 41t41 17q25 0 42 -17t17 -41zM528 625q0 -25 -17 -42.5t-41 -17.5q-25 0 -42 17.5t-17 42.5q0 24 17 41t41 17q25 0 42 -17t17 -41z" />
    <glyph glyph-name="aring" unicode="&#xe5;" horiz-adv-x="542" 
d="M506 475q-17 -56 -28 -110l-43 -202q-8 -40 -8 -60q0 -36 26 -64l-75 -57q-37 36 -37 88v9q-57 -89 -164 -89q-55 0 -89.5 40.5t-34.5 118.5q0 79 28 156.5t77 126.5q83 83 200 83q89 0 148 -40zM402 429q-22 12 -54 12q-41 0 -71.5 -14.5t-60.5 -50.5q-34 -40 -51 -103
t-17 -123q0 -84 64 -84q37 0 75 31.5t61 78.5zM480 659q0 -44 -31 -75t-75 -31t-75 31t-31 75t31 75t75 31t75 -31t31 -75zM429 659q0 23 -16 39.5t-39 16.5t-39 -16.5t-16 -39.5t16 -39.5t39 -16.5t39 16.5t16 39.5z" />
    <glyph glyph-name="ae" unicode="&#xe6;" horiz-adv-x="783" 
d="M756 384q0 -59 -50 -107q-62 -59 -211 -59q-14 0 -62 3q-7 -30 -7 -58q0 -48 27 -74.5t69 -26.5q81 0 147 55l31 -57q-78 -72 -203 -72q-92 0 -142 78q-68 -81 -171 -81q-71 0 -107 36t-36 91q0 82 69 134.5t195 52.5q28 0 58 -3l11 45q6 24 6 49q0 48 -64 48
q-80 0 -167 -58l-30 66q117 68 227 68q83 0 111 -64q67 65 153 65q69 0 107.5 -33.5t38.5 -97.5zM349 231q-16 2 -40 2q-81 0 -125.5 -27.5t-44.5 -78.5q0 -34 19 -53.5t50 -19.5q58 0 95 47q19 24 46 130zM662 379q0 65 -71 65q-46 0 -85.5 -41.5t-57.5 -114.5q11 -1 48 -1
q106 0 142 36q24 24 24 56z" />
    <glyph glyph-name="ccedilla" unicode="&#xe7;" horiz-adv-x="449" 
d="M459 468l-47 -67q-40 36 -95 36q-59 0 -95 -49q-27 -36 -48.5 -103.5t-21.5 -124.5q0 -100 86 -100q58 0 117 53l35 -58q-79 -64 -164 -67l-13 -27q56 -8 56 -54q0 -42 -37.5 -71.5t-86.5 -29.5q-45 0 -78 20l28 47q33 -15 57 -15q16 0 30 9.5t14 26.5q0 22 -35 22
q-29 0 -35 -3l38 81q-112 27 -112 165q0 86 37.5 169t91.5 129q68 58 154 58q76 0 124 -47z" />
    <glyph glyph-name="egrave" unicode="&#xe8;" horiz-adv-x="506" 
d="M479 383q0 -62 -46 -105q-63 -60 -214 -60q-12 0 -33.5 1.5t-28.5 1.5q-7 -30 -7 -58q0 -48 27 -74.5t69 -26.5q79 0 145 56l33 -57q-42 -38 -88.5 -55.5t-114.5 -17.5q-77 0 -124 48.5t-47 133.5q0 75 29.5 150t81.5 125q73 70 167 70q72 0 111.5 -34.5t39.5 -97.5z
M386 379q0 65 -71 65q-46 0 -85.5 -41t-57.5 -114q22 -2 48 -2q106 0 142 36q24 24 24 56zM426 616l-32 -53l-221 100l49 84z" />
    <glyph glyph-name="eacute" unicode="&#xe9;" horiz-adv-x="506" 
d="M479 383q0 -62 -46 -105q-63 -60 -214 -60q-12 0 -33.5 1.5t-28.5 1.5q-7 -30 -7 -58q0 -48 27 -74.5t69 -26.5q79 0 145 56l33 -57q-42 -38 -88.5 -55.5t-114.5 -17.5q-77 0 -124 48.5t-47 133.5q0 75 29.5 150t81.5 125q73 70 167 70q72 0 111.5 -34.5t39.5 -97.5z
M386 379q0 65 -71 65q-46 0 -85.5 -41t-57.5 -114q22 -2 48 -2q106 0 142 36q24 24 24 56zM513 663l-229 -101l-29 54l214 131z" />
    <glyph glyph-name="ecircumflex" unicode="&#xea;" horiz-adv-x="506" 
d="M479 383q0 -62 -46 -105q-63 -60 -214 -60q-12 0 -33.5 1.5t-28.5 1.5q-7 -30 -7 -58q0 -48 27 -74.5t69 -26.5q79 0 145 56l33 -57q-42 -38 -88.5 -55.5t-114.5 -17.5q-77 0 -124 48.5t-47 133.5q0 75 29.5 150t81.5 125q73 70 167 70q72 0 111.5 -34.5t39.5 -97.5z
M386 379q0 65 -71 65q-46 0 -85.5 -41t-57.5 -114q22 -2 48 -2q106 0 142 36q24 24 24 56zM502 610l-40 -51l-121 83l-153 -83l-33 51l201 135z" />
    <glyph glyph-name="edieresis" unicode="&#xeb;" horiz-adv-x="506" 
d="M479 383q0 -62 -46 -105q-63 -60 -214 -60q-12 0 -33.5 1.5t-28.5 1.5q-7 -30 -7 -58q0 -48 27 -74.5t69 -26.5q79 0 145 56l33 -57q-42 -38 -88.5 -55.5t-114.5 -17.5q-77 0 -124 48.5t-47 133.5q0 75 29.5 150t81.5 125q73 70 167 70q72 0 111.5 -34.5t39.5 -97.5z
M386 379q0 65 -71 65q-46 0 -85.5 -41t-57.5 -114q22 -2 48 -2q106 0 142 36q24 24 24 56zM291 625q0 -25 -17 -42.5t-41 -17.5q-25 0 -42 17.5t-17 42.5q0 24 17 41t41 17q25 0 42 -17t17 -41zM499 625q0 -25 -17 -42.5t-41 -17.5q-25 0 -42 17.5t-17 42.5q0 24 17 41
t41 17q25 0 42 -17t17 -41z" />
    <glyph glyph-name="igrave" unicode="&#xec;" horiz-adv-x="275" 
d="M245 513l-109 -513h-96l106 498zM286 616l-32 -53l-221 100l49 84z" />
    <glyph glyph-name="iacute" unicode="&#xed;" horiz-adv-x="275" 
d="M245 513l-109 -513h-96l106 498zM386 663l-229 -101l-29 54l214 131z" />
    <glyph glyph-name="icircumflex" unicode="&#xee;" horiz-adv-x="275" 
d="M245 513l-109 -513h-96l106 498zM380 610l-40 -51l-121 83l-153 -83l-33 51l201 135z" />
    <glyph glyph-name="idieresis" unicode="&#xef;" horiz-adv-x="275" 
d="M245 513l-109 -513h-96l106 498zM174 625q0 -25 -17 -42.5t-41 -17.5q-25 0 -42 17.5t-17 42.5q0 24 17 41t41 17q25 0 42 -17t17 -41zM382 625q0 -25 -17 -42.5t-41 -17.5q-25 0 -42 17.5t-17 42.5q0 24 17 41t41 17q25 0 42 -17t17 -41z" />
    <glyph glyph-name="eth" unicode="&#xf0;" horiz-adv-x="534" 
d="M390 326q-37 26 -109 26q-68 0 -107.5 -55t-39.5 -125q0 -49 24 -76t72 -27q44 0 76.5 26t49.5 67.5t25 82t9 81.5zM431 647l-42 -39q46 -40 77.5 -118t31.5 -160q0 -144 -73.5 -245t-208.5 -101q-84 0 -137 48.5t-53 136.5q0 110 75 186.5t187 76.5q57 0 97 -19
q-7 37 -29.5 73.5t-40.5 53.5l-53 -49l-53 36l56 51q-70 45 -144 52l69 67q71 -8 147 -52l41 38z" />
    <glyph glyph-name="ntilde" unicode="&#xf1;" horiz-adv-x="556" 
d="M500 413q0 -19 -5 -42l-79 -371h-92l71 336q8 38 8 52q0 45 -45 45q-32 0 -73.5 -26t-84.5 -80l-69 -327h-91l76 353q10 47 10 76q0 26 -7 50l86 38q12 -31 12 -62q0 -16 -5 -41q78 99 188 99q46 0 73 -27t27 -73zM524 653q-34 -33 -64 -48.5t-72 -15.5q-30 0 -61 19
t-59 19q-15 0 -29.5 -6.5t-21.5 -11.5t-25 -21l-23 53q34 34 63.5 49t69.5 15q30 0 61.5 -19t60.5 -19q34 0 77 38z" />
    <glyph glyph-name="ograve" unicode="&#xf2;" horiz-adv-x="540" 
d="M501 336q0 -147 -78 -247.5t-205 -100.5q-82 0 -127 47t-45 133q0 148 80 247.5t202 99.5q85 0 129 -47.5t44 -131.5zM400 343q0 99 -88 99q-51 0 -89.5 -41.5t-57.5 -104.5t-19 -135q0 -100 89 -100q52 0 90.5 42t56.5 105t18 135zM426 616l-32 -53l-221 100l49 84z" />
    <glyph glyph-name="oacute" unicode="&#xf3;" horiz-adv-x="540" 
d="M501 336q0 -147 -78 -247.5t-205 -100.5q-82 0 -127 47t-45 133q0 148 80 247.5t202 99.5q85 0 129 -47.5t44 -131.5zM400 343q0 99 -88 99q-51 0 -89.5 -41.5t-57.5 -104.5t-19 -135q0 -100 89 -100q52 0 90.5 42t56.5 105t18 135zM505 663l-229 -101l-29 54l214 131z
" />
    <glyph glyph-name="ocircumflex" unicode="&#xf4;" horiz-adv-x="540" 
d="M501 336q0 -147 -78 -247.5t-205 -100.5q-82 0 -127 47t-45 133q0 148 80 247.5t202 99.5q85 0 129 -47.5t44 -131.5zM400 343q0 99 -88 99q-51 0 -89.5 -41.5t-57.5 -104.5t-19 -135q0 -100 89 -100q52 0 90.5 42t56.5 105t18 135zM509 610l-40 -51l-121 83l-153 -83
l-33 51l201 135z" />
    <glyph glyph-name="otilde" unicode="&#xf5;" horiz-adv-x="540" 
d="M501 336q0 -147 -78 -247.5t-205 -100.5q-82 0 -127 47t-45 133q0 148 80 247.5t202 99.5q85 0 129 -47.5t44 -131.5zM400 343q0 99 -88 99q-51 0 -89.5 -41.5t-57.5 -104.5t-19 -135q0 -100 89 -100q52 0 90.5 42t56.5 105t18 135zM527 653q-34 -33 -64 -48.5t-72 -15.5
q-30 0 -61 19t-59 19q-15 0 -29.5 -6.5t-21.5 -11.5t-25 -21l-23 53q34 34 63.5 49t69.5 15q30 0 61.5 -19t60.5 -19q34 0 77 38z" />
    <glyph glyph-name="odieresis" unicode="&#xf6;" horiz-adv-x="540" 
d="M501 336q0 -147 -78 -247.5t-205 -100.5q-82 0 -127 47t-45 133q0 148 80 247.5t202 99.5q85 0 129 -47.5t44 -131.5zM400 343q0 99 -88 99q-51 0 -89.5 -41.5t-57.5 -104.5t-19 -135q0 -100 89 -100q52 0 90.5 42t56.5 105t18 135zM300 625q0 -25 -17 -42.5t-41 -17.5
q-25 0 -42 17.5t-17 42.5q0 24 17 41t41 17q25 0 42 -17t17 -41zM508 625q0 -25 -17 -42.5t-41 -17.5q-25 0 -42 17.5t-17 42.5q0 24 17 41t41 17q25 0 42 -17t17 -41z" />
    <glyph glyph-name="divide" unicode="&#xf7;" horiz-adv-x="608" 
d="M572 308l-17 -83h-505l17 83h505zM336 59q0 -30 -21 -50.5t-51 -20.5q-29 0 -49 20.5t-20 50.5q0 31 20.5 52.5t50.5 21.5q29 0 49.5 -21.5t20.5 -52.5zM424 475q0 -31 -21 -52t-50 -21t-49.5 20.5t-20.5 50.5t20.5 51.5t50.5 21.5q29 0 49.5 -21t20.5 -50z" />
    <glyph glyph-name="oslash" unicode="&#xf8;" horiz-adv-x="542" 
d="M546 541l-76 -93q31 -46 31 -115q0 -147 -78 -247.5t-205 -100.5q-62 0 -103 27l-69 -83l-43 33l73 89q-30 45 -30 115q0 148 80 247t201 99q62 0 103 -26l71 87zM400 332q0 17 -2 27l-228 -279q20 -23 65 -23q75 0 119 81.5t46 193.5zM374 417q-22 23 -62 23
q-73 0 -118 -78.5t-48 -191.5q0 -22 2 -32z" />
    <glyph glyph-name="ugrave" unicode="&#xf9;" horiz-adv-x="555" 
d="M523 511l-77 -363q-7 -32 -7 -57q0 -34 19 -62l-75 -49q-34 36 -34 87v12q-83 -95 -179 -95q-110 0 -110 101q0 37 8 75l72 336l94 17l-70 -333q-9 -40 -9 -66q0 -29 10.5 -41.5t34.5 -12.5q37 0 82.5 30.5t78.5 83.5l68 320zM449 616l-32 -53l-221 100l49 84z" />
    <glyph glyph-name="uacute" unicode="&#xfa;" horiz-adv-x="555" 
d="M523 511l-77 -363q-7 -32 -7 -57q0 -34 19 -62l-75 -49q-34 36 -34 87v12q-83 -95 -179 -95q-110 0 -110 101q0 37 8 75l72 336l94 17l-70 -333q-9 -40 -9 -66q0 -29 10.5 -41.5t34.5 -12.5q37 0 82.5 30.5t78.5 83.5l68 320zM496 663l-229 -101l-29 54l214 131z" />
    <glyph glyph-name="ucircumflex" unicode="&#xfb;" horiz-adv-x="555" 
d="M523 511l-77 -363q-7 -32 -7 -57q0 -34 19 -62l-75 -49q-34 36 -34 87v12q-83 -95 -179 -95q-110 0 -110 101q0 37 8 75l72 336l94 17l-70 -333q-9 -40 -9 -66q0 -29 10.5 -41.5t34.5 -12.5q37 0 82.5 30.5t78.5 83.5l68 320zM518 610l-40 -51l-121 83l-153 -83l-33 51
l201 135z" />
    <glyph glyph-name="udieresis" unicode="&#xfc;" horiz-adv-x="555" 
d="M523 511l-77 -363q-7 -32 -7 -57q0 -34 19 -62l-75 -49q-34 36 -34 87v12q-83 -95 -179 -95q-110 0 -110 101q0 37 8 75l72 336l94 17l-70 -333q-9 -40 -9 -66q0 -29 10.5 -41.5t34.5 -12.5q37 0 82.5 30.5t78.5 83.5l68 320zM307 625q0 -25 -17 -42.5t-41 -17.5
q-25 0 -42 17.5t-17 42.5q0 24 17 41t41 17q25 0 42 -17t17 -41zM515 625q0 -25 -17 -42.5t-41 -17.5q-25 0 -42 17.5t-17 42.5q0 24 17 41t41 17q25 0 42 -17t17 -41z" />
    <glyph glyph-name="yacute" unicode="&#xfd;" horiz-adv-x="474" 
d="M520 502l-247 -447q-8 -15 -24 -43.5t-23 -41.5t-19.5 -34.5t-20.5 -33t-19 -26t-21.5 -24.5t-21.5 -18q-47 -33 -106 -44l-20 63q39 5 88 42q37 29 70 105l-33 -3q0 74 -12 170l-42 328l96 17l32 -314q5 -47 3 -121h1q1 5 58 119l157 306h104zM448 663l-229 -101l-29 54
l214 131z" />
    <glyph glyph-name="thorn" unicode="&#xfe;" horiz-adv-x="569" 
d="M524 346q0 -90 -33.5 -169t-90.5 -129q-67 -60 -158 -60q-59 0 -111 16l-41 -195l-95 -20l163 766q20 96 6 149l97 35q15 -53 -7 -163l-14 -71q-3 -19 -23 -86q30 41 77 67.5t95 26.5q135 0 135 -167zM423 345q0 87 -71 87q-74 0 -150 -103l-51 -239q32 -28 96 -28
q26 0 55.5 16t46.5 37q33 41 53.5 108.5t20.5 121.5z" />
    <glyph glyph-name="ydieresis" unicode="&#xff;" horiz-adv-x="474" 
d="M520 502l-247 -447q-8 -15 -24 -43.5t-23 -41.5t-19.5 -34.5t-20.5 -33t-19 -26t-21.5 -24.5t-21.5 -18q-47 -33 -106 -44l-20 63q39 5 88 42q37 29 70 105l-33 -3q0 74 -12 170l-42 328l96 17l32 -314q5 -47 3 -121h1q1 5 58 119l157 306h104zM252 625q0 -25 -17 -42.5
t-41 -17.5q-25 0 -42 17.5t-17 42.5q0 24 17 41t41 17q25 0 42 -17t17 -41zM460 625q0 -25 -17 -42.5t-41 -17.5q-25 0 -42 17.5t-17 42.5q0 24 17 41t41 17q25 0 42 -17t17 -41z" />
    <glyph glyph-name="Amacron" unicode="&#x100;" horiz-adv-x="572" 
d="M522 0h-103l-18 199h-243l-104 -199h-104l376 689h118zM393 279l-17 171q-12 123 -12 147q-1 -1 -8.5 -17t-19.5 -40l-20 -40l-116 -221h193zM527 820l-14 -68h-264l14 68h264z" />
    <glyph glyph-name="amacron" unicode="&#x101;" horiz-adv-x="542" 
d="M506 475q-17 -56 -28 -110l-43 -202q-8 -40 -8 -60q0 -36 26 -64l-75 -57q-37 36 -37 88v9q-57 -89 -164 -89q-55 0 -89.5 40.5t-34.5 118.5q0 79 28 156.5t77 126.5q83 83 200 83q89 0 148 -40zM402 429q-22 12 -54 12q-41 0 -71.5 -14.5t-60.5 -50.5q-34 -40 -51 -103
t-17 -123q0 -84 64 -84q37 0 75 31.5t61 78.5zM489 659l-14 -68h-244l14 68h244z" />
    <glyph glyph-name="Abreve" unicode="&#x102;" horiz-adv-x="572" 
d="M522 0h-103l-18 199h-243l-104 -199h-104l376 689h118zM393 279l-17 171q-12 123 -12 147q-1 -1 -8.5 -17t-19.5 -40l-20 -40l-116 -221h193zM572 828q-16 -17 -41.5 -39.5t-72 -49t-81.5 -26.5q-50 0 -90.5 42t-55.5 73l45 44q10 -12 24.5 -25t43 -26.5t57.5 -13.5
q54 0 149 65z" />
    <glyph glyph-name="abreve" unicode="&#x103;" horiz-adv-x="542" 
d="M506 475q-17 -56 -28 -110l-43 -202q-8 -40 -8 -60q0 -36 26 -64l-75 -57q-37 36 -37 88v9q-57 -89 -164 -89q-55 0 -89.5 40.5t-34.5 118.5q0 79 28 156.5t77 126.5q83 83 200 83q89 0 148 -40zM402 429q-22 12 -54 12q-41 0 -71.5 -14.5t-60.5 -50.5q-34 -40 -51 -103
t-17 -123q0 -84 64 -84q37 0 75 31.5t61 78.5zM552 693q-16 -17 -41.5 -39.5t-72 -49t-81.5 -26.5q-50 0 -90.5 42t-55.5 73l45 44q10 -12 24.5 -25t43 -26.5t57.5 -13.5q54 0 149 65z" />
    <glyph glyph-name="Aogonek" unicode="&#x104;" horiz-adv-x="572" 
d="M524 -171q-54 -25 -95 -25q-40 0 -60.5 18.5t-20.5 49.5q0 11 1 16q11 63 70 112l-18 199h-243l-104 -199h-104l376 689h118l78 -689q-32 -3 -66 -40.5t-34 -68.5q0 -25 28 -25q30 0 62 15zM393 279l-17 171q-12 123 -12 147q-1 -1 -8.5 -17t-19.5 -40l-20 -40l-116 -221
h193z" />
    <glyph glyph-name="aogonek" unicode="&#x105;" horiz-adv-x="542" 
d="M506 475q-17 -56 -28 -110l-43 -202q-8 -35 -8 -61q0 -38 29 -67l-36 -24q-34 -23 -64.5 -57.5t-30.5 -62.5q0 -25 28 -25q29 0 62 15l12 -52q-54 -25 -95 -25q-39 0 -60.5 18.5t-21.5 48.5q0 75 102 146q-11 25 -11 55v7q-57 -89 -164 -89q-55 0 -89.5 40.5t-34.5 118.5
q0 79 28 156.5t77 126.5q83 83 200 83q89 0 148 -40zM402 429q-22 12 -54 12q-41 0 -71.5 -14.5t-60.5 -50.5q-34 -40 -51 -103t-17 -123q0 -84 64 -84q37 0 75 31.5t61 78.5z" />
    <glyph glyph-name="Cacute" unicode="&#x106;" horiz-adv-x="564" 
d="M611 642l-55 -61q-46 40 -116 40q-108 0 -180 -103q-38 -55 -61.5 -137t-23.5 -149q0 -79 39 -121.5t114 -42.5q69 0 139 45l36 -66q-96 -58 -205 -58q-106 0 -166 66t-60 181q0 86 32 177.5t88 158.5q51 60 120 93.5t140 33.5q100 0 159 -57zM614 824l-229 -101l-29 54
l214 131z" />
    <glyph glyph-name="cacute" unicode="&#x107;" horiz-adv-x="449" 
d="M459 468l-47 -67q-40 36 -95 36q-59 0 -95 -49q-27 -36 -48.5 -103.5t-21.5 -124.5q0 -100 86 -100q58 0 117 53l35 -58q-82 -67 -171 -67q-167 0 -167 171q0 85 38 169t91 129q68 58 154 58q76 0 124 -47zM514 663l-229 -101l-29 54l214 131z" />
    <glyph glyph-name="Ccircumflex" unicode="&#x108;" horiz-adv-x="564" 
d="M611 642l-55 -61q-46 40 -116 40q-108 0 -180 -103q-38 -55 -61.5 -137t-23.5 -149q0 -79 39 -121.5t114 -42.5q69 0 139 45l36 -66q-96 -58 -205 -58q-106 0 -166 66t-60 181q0 86 32 177.5t88 158.5q51 60 120 93.5t140 33.5q100 0 159 -57zM630 771l-40 -51l-121 83
l-153 -83l-33 51l201 135z" />
    <glyph glyph-name="ccircumflex" unicode="&#x109;" horiz-adv-x="449" 
d="M459 468l-47 -67q-40 36 -95 36q-59 0 -95 -49q-27 -36 -48.5 -103.5t-21.5 -124.5q0 -100 86 -100q58 0 117 53l35 -58q-82 -67 -171 -67q-167 0 -167 171q0 85 38 169t91 129q68 58 154 58q76 0 124 -47zM516 610l-40 -51l-121 83l-153 -83l-33 51l201 135z" />
    <glyph glyph-name="Cdotaccent" unicode="&#x10a;" horiz-adv-x="564" 
d="M611 642l-55 -61q-46 40 -116 40q-108 0 -180 -103q-38 -55 -61.5 -137t-23.5 -149q0 -79 39 -121.5t114 -42.5q69 0 139 45l36 -66q-96 -58 -205 -58q-106 0 -166 66t-60 181q0 86 32 177.5t88 158.5q51 60 120 93.5t140 33.5q100 0 159 -57zM537 795q0 -28 -19.5 -47
t-47.5 -19t-47 19t-19 47t19.5 47.5t47.5 19.5q27 0 46.5 -19.5t19.5 -47.5z" />
    <glyph glyph-name="cdotaccent" unicode="&#x10b;" horiz-adv-x="449" 
d="M459 468l-47 -67q-40 36 -95 36q-59 0 -95 -49q-27 -36 -48.5 -103.5t-21.5 -124.5q0 -100 86 -100q58 0 117 53l35 -58q-82 -67 -171 -67q-167 0 -167 171q0 85 38 169t91 129q68 58 154 58q76 0 124 -47zM414 652q0 -28 -19.5 -47t-47.5 -19t-47 19t-19 47t19.5 47.5
t47.5 19.5q27 0 46.5 -19.5t19.5 -47.5z" />
    <glyph glyph-name="Ccaron" unicode="&#x10c;" horiz-adv-x="564" 
d="M611 642l-55 -61q-46 40 -116 40q-108 0 -180 -103q-38 -55 -61.5 -137t-23.5 -149q0 -79 39 -121.5t114 -42.5q69 0 139 45l36 -66q-96 -58 -205 -58q-106 0 -166 66t-60 181q0 86 32 177.5t88 158.5q51 60 120 93.5t140 33.5q100 0 159 -57zM647 858l-200 -135
l-147 135l41 51l121 -82l153 82z" />
    <glyph glyph-name="ccaron" unicode="&#x10d;" horiz-adv-x="449" 
d="M459 468l-47 -67q-40 36 -95 36q-59 0 -95 -49q-27 -36 -48.5 -103.5t-21.5 -124.5q0 -100 86 -100q58 0 117 53l35 -58q-82 -67 -171 -67q-167 0 -167 171q0 85 38 169t91 129q68 58 154 58q76 0 124 -47zM538 692l-200 -135l-147 135l41 51l121 -82l153 82z" />
    <glyph glyph-name="Dcaron" unicode="&#x10e;" horiz-adv-x="634" 
d="M607 439q0 -89 -40.5 -192.5t-98.5 -158.5q-51 -48 -108.5 -68t-143.5 -20h-176l146 688h151q81 0 125.5 -12t80.5 -45q64 -58 64 -192zM503 432q0 82 -25 122q-21 33 -50.5 44.5t-82.5 11.5h-78l-112 -530h72q126 0 180 71q46 60 71 141.5t25 139.5zM587 858l-200 -135
l-147 135l41 51l121 -82l153 82z" />
    <glyph glyph-name="dcaron" unicode="&#x10f;" horiz-adv-x="560" 
d="M578 718l-118 -550q-12 -58 -12 -86q0 -35 19 -60l-79 -38q-29 32 -29 79v13q-67 -85 -163 -85q-144 0 -144 171q0 77 29 150.5t82 126.5q35 35 81.5 53.5t89.5 18.5q70 0 104 -18q0 1 3 14t7 32.5t6 27.5l34 166zM420 414q-35 21 -89 21q-27 0 -56.5 -14t-50.5 -37
q-31 -36 -53 -103t-22 -122q0 -91 68 -91q40 0 81 27t71 79zM746 674q0 -56 -50 -103q-31 -30 -79 -48l-23 37q55 23 67 64q-16 3 -27.5 17t-11.5 35q0 27 17.5 44t46.5 17q26 0 43 -18t17 -45z" />
    <glyph glyph-name="Dcroat" unicode="&#x110;" horiz-adv-x="634" 
d="M607 439q0 -89 -40.5 -192.5t-98.5 -158.5q-51 -48 -108.5 -68t-143.5 -20h-176l67 316h-82l15 69h82l64 303h151q81 0 125.5 -12t80.5 -45q64 -58 64 -192zM503 432q0 82 -25 122q-21 33 -50.5 44.5t-82.5 11.5h-78l-48 -225h146l-24 -69h-136l-50 -236h72q126 0 180 71
q46 60 71 141.5t25 139.5z" />
    <glyph glyph-name="dcroat" unicode="&#x111;" horiz-adv-x="565" 
d="M638 637l-13 -60h-78l-87 -409q-12 -58 -12 -86q0 -35 19 -60l-79 -38q-29 32 -29 79v13q-67 -85 -163 -85q-144 0 -144 171q0 77 29 150.5t82 126.5q35 35 81.5 53.5t89.5 18.5q70 0 104 -18l18 84h-115l13 60h114l20 96l90 -15l-18 -81h78zM420 414q-35 21 -89 21
q-27 0 -56.5 -14t-50.5 -37q-31 -36 -53 -103t-22 -122q0 -91 68 -91q40 0 81 27t71 79z" />
    <glyph glyph-name="Emacron" unicode="&#x112;" horiz-adv-x="508" 
d="M567 688l-31 -79h-269l-44 -209h226l-18 -82h-226l-49 -235h292l-18 -83h-390l146 688h381zM528 820l-14 -68h-264l14 68h264z" />
    <glyph glyph-name="emacron" unicode="&#x113;" horiz-adv-x="506" 
d="M479 383q0 -62 -46 -105q-63 -60 -214 -60q-12 0 -33.5 1.5t-28.5 1.5q-7 -30 -7 -58q0 -48 27 -74.5t69 -26.5q79 0 145 56l33 -57q-42 -38 -88.5 -55.5t-114.5 -17.5q-77 0 -124 48.5t-47 133.5q0 75 29.5 150t81.5 125q73 70 167 70q72 0 111.5 -34.5t39.5 -97.5z
M386 379q0 65 -71 65q-46 0 -85.5 -41t-57.5 -114q22 -2 48 -2q106 0 142 36q24 24 24 56zM466 659l-14 -68h-244l14 68h244z" />
    <glyph glyph-name="Ebreve" unicode="&#x114;" horiz-adv-x="508" 
d="M567 688l-31 -79h-269l-44 -209h226l-18 -82h-226l-49 -235h292l-18 -83h-390l146 688h381zM537 848q-16 -17 -41.5 -39.5t-72 -49t-81.5 -26.5q-50 0 -90.5 42t-55.5 73l45 44q10 -12 24.5 -25t43 -26.5t57.5 -13.5q54 0 149 65z" />
    <glyph glyph-name="ebreve" unicode="&#x115;" horiz-adv-x="506" 
d="M479 383q0 -62 -46 -105q-63 -60 -214 -60q-12 0 -33.5 1.5t-28.5 1.5q-7 -30 -7 -58q0 -48 27 -74.5t69 -26.5q79 0 145 56l33 -57q-42 -38 -88.5 -55.5t-114.5 -17.5q-77 0 -124 48.5t-47 133.5q0 75 29.5 150t81.5 125q73 70 167 70q72 0 111.5 -34.5t39.5 -97.5z
M386 379q0 65 -71 65q-46 0 -85.5 -41t-57.5 -114q22 -2 48 -2q106 0 142 36q24 24 24 56zM523 699q-16 -17 -41.5 -39.5t-72 -49t-81.5 -26.5q-50 0 -90.5 42t-55.5 73l45 44q10 -12 24.5 -25t43 -26.5t57.5 -13.5q54 0 149 65z" />
    <glyph glyph-name="Edotaccent" unicode="&#x116;" horiz-adv-x="508" 
d="M567 688l-31 -79h-269l-44 -209h226l-18 -82h-226l-49 -235h292l-18 -83h-390l146 688h381zM446 797q0 -28 -19.5 -47t-47.5 -19t-47 19t-19 47t19.5 47.5t47.5 19.5q27 0 46.5 -19.5t19.5 -47.5z" />
    <glyph glyph-name="edotaccent" unicode="&#x117;" horiz-adv-x="506" 
d="M479 383q0 -62 -46 -105q-63 -60 -214 -60q-12 0 -33.5 1.5t-28.5 1.5q-7 -30 -7 -58q0 -48 27 -74.5t69 -26.5q79 0 145 56l33 -57q-42 -38 -88.5 -55.5t-114.5 -17.5q-77 0 -124 48.5t-47 133.5q0 75 29.5 150t81.5 125q73 70 167 70q72 0 111.5 -34.5t39.5 -97.5z
M386 379q0 65 -71 65q-46 0 -85.5 -41t-57.5 -114q22 -2 48 -2q106 0 142 36q24 24 24 56zM419 652q0 -28 -19.5 -47t-47.5 -19t-47 19t-19 47t19.5 47.5t47.5 19.5q27 0 46.5 -19.5t19.5 -47.5z" />
    <glyph glyph-name="Eogonek" unicode="&#x118;" horiz-adv-x="508" 
d="M567 688l-31 -79h-269l-44 -209h226l-18 -82h-226l-49 -235h292l-18 -83q-31 -3 -65 -41t-34 -68q0 -25 28 -25q29 0 62 15l12 -52q-54 -25 -95 -25q-40 0 -60.5 18.5t-20.5 49.5q0 11 1 16q11 63 70 112h-288l146 688h381z" />
    <glyph glyph-name="eogonek" unicode="&#x119;" horiz-adv-x="506" 
d="M479 383q0 -62 -46 -105q-63 -60 -214 -60q-12 0 -33.5 1.5t-28.5 1.5q-7 -30 -7 -58q0 -48 27 -74.5t69 -26.5q79 0 145 56l33 -57q-23 -20 -52 -39q-38 -25 -74.5 -62.5t-36.5 -68.5q0 -25 28 -25q29 0 62 15l12 -52q-54 -25 -95 -25q-39 0 -60.5 18.5t-21.5 48.5
q0 61 64 118q-9 -1 -29 -1q-77 0 -124 48.5t-47 133.5q0 75 29.5 150t81.5 125q73 70 167 70q72 0 111.5 -34.5t39.5 -97.5zM386 379q0 65 -71 65q-46 0 -85.5 -41t-57.5 -114q22 -2 48 -2q106 0 142 36q24 24 24 56z" />
    <glyph glyph-name="Ecaron" unicode="&#x11a;" horiz-adv-x="508" 
d="M567 688l-31 -79h-269l-44 -209h226l-18 -82h-226l-49 -235h292l-18 -83h-390l146 688h381zM581 858l-200 -135l-147 135l41 51l121 -82l153 82z" />
    <glyph glyph-name="ecaron" unicode="&#x11b;" horiz-adv-x="506" 
d="M479 383q0 -62 -46 -105q-63 -60 -214 -60q-12 0 -33.5 1.5t-28.5 1.5q-7 -30 -7 -58q0 -48 27 -74.5t69 -26.5q79 0 145 56l33 -57q-42 -38 -88.5 -55.5t-114.5 -17.5q-77 0 -124 48.5t-47 133.5q0 75 29.5 150t81.5 125q73 70 167 70q72 0 111.5 -34.5t39.5 -97.5z
M386 379q0 65 -71 65q-46 0 -85.5 -41t-57.5 -114q22 -2 48 -2q106 0 142 36q24 24 24 56zM530 692l-200 -135l-147 135l41 51l121 -82l153 82z" />
    <glyph glyph-name="Gcircumflex" unicode="&#x11c;" horiz-adv-x="650" 
d="M633 627l-53 -59q-59 50 -141 50q-91 0 -154 -69q-48 -53 -77.5 -146.5t-29.5 -172.5t42.5 -121.5t114.5 -42.5q59 0 106 24l42 196h-129v80h240l-69 -324q-94 -54 -214 -54q-111 0 -175 68t-64 176q0 105 39.5 205t107.5 165q98 94 235 94q112 0 179 -69zM639 771
l-40 -51l-121 83l-153 -83l-33 51l201 135z" />
    <glyph glyph-name="gcircumflex" unicode="&#x11d;" horiz-adv-x="567" 
d="M533 474q-15 -43 -27 -97l-49 -235q-6 -30 -16 -84t-14 -70q-25 -105 -89.5 -150.5t-172.5 -45.5q-90 0 -176 45l33 70q69 -40 151 -40q71 0 108 25.5t52 89.5q17 77 20 83q-61 -75 -159 -75q-68 0 -105 44t-37 126q0 79 32 156.5t83 124.5q81 75 190 75q103 0 176 -42z
M426 423q-28 14 -76 14q-70 0 -118 -49q-33 -34 -57 -102.5t-24 -122.5q0 -97 74 -97q85 0 147 107zM544 610l-40 -51l-121 83l-153 -83l-33 51l201 135z" />
    <glyph glyph-name="Gbreve" unicode="&#x11e;" horiz-adv-x="650" 
d="M633 627l-53 -59q-59 50 -141 50q-91 0 -154 -69q-48 -53 -77.5 -146.5t-29.5 -172.5t42.5 -121.5t114.5 -42.5q59 0 106 24l42 196h-129v80h240l-69 -324q-94 -54 -214 -54q-111 0 -175 68t-64 176q0 105 39.5 205t107.5 165q98 94 235 94q112 0 179 -69zM646 828
q-16 -17 -41.5 -39.5t-72 -49t-81.5 -26.5q-50 0 -90.5 42t-55.5 73l45 44q10 -12 24.5 -25t43 -26.5t57.5 -13.5q54 0 149 65z" />
    <glyph glyph-name="gbreve" unicode="&#x11f;" horiz-adv-x="567" 
d="M533 474q-15 -43 -27 -97l-49 -235q-6 -30 -16 -84t-14 -70q-25 -105 -89.5 -150.5t-172.5 -45.5q-90 0 -176 45l33 70q69 -40 151 -40q71 0 108 25.5t52 89.5q17 77 20 83q-61 -75 -159 -75q-68 0 -105 44t-37 126q0 79 32 156.5t83 124.5q81 75 190 75q103 0 176 -42z
M426 423q-28 14 -76 14q-70 0 -118 -49q-33 -34 -57 -102.5t-24 -122.5q0 -97 74 -97q85 0 147 107zM566 693q-16 -17 -41.5 -39.5t-72 -49t-81.5 -26.5q-50 0 -90.5 42t-55.5 73l45 44q10 -12 24.5 -25t43 -26.5t57.5 -13.5q54 0 149 65z" />
    <glyph glyph-name="Gdotaccent" unicode="&#x120;" horiz-adv-x="650" 
d="M633 627l-53 -59q-59 50 -141 50q-91 0 -154 -69q-48 -53 -77.5 -146.5t-29.5 -172.5t42.5 -121.5t114.5 -42.5q59 0 106 24l42 196h-129v80h240l-69 -324q-94 -54 -214 -54q-111 0 -175 68t-64 176q0 105 39.5 205t107.5 165q98 94 235 94q112 0 179 -69zM543 795
q0 -28 -19.5 -47t-47.5 -19t-47 19t-19 47t19.5 47.5t47.5 19.5q27 0 46.5 -19.5t19.5 -47.5z" />
    <glyph glyph-name="gdotaccent" unicode="&#x121;" horiz-adv-x="567" 
d="M533 474q-15 -43 -27 -97l-49 -235q-6 -30 -16 -84t-14 -70q-25 -105 -89.5 -150.5t-172.5 -45.5q-90 0 -176 45l33 70q69 -40 151 -40q71 0 108 25.5t52 89.5q17 77 20 83q-61 -75 -159 -75q-68 0 -105 44t-37 126q0 79 32 156.5t83 124.5q81 75 190 75q103 0 176 -42z
M426 423q-28 14 -76 14q-70 0 -118 -49q-33 -34 -57 -102.5t-24 -122.5q0 -97 74 -97q85 0 147 107zM452 652q0 -28 -19.5 -47t-47.5 -19t-47 19t-19 47t19.5 47.5t47.5 19.5q27 0 46.5 -19.5t19.5 -47.5z" />
    <glyph glyph-name="Gcommaaccent" unicode="&#x122;" horiz-adv-x="650" 
d="M633 627l-53 -59q-59 50 -141 50q-91 0 -154 -69q-48 -53 -77.5 -146.5t-29.5 -172.5t42.5 -121.5t114.5 -42.5q59 0 106 24l42 196h-129v80h240l-69 -324q-94 -54 -214 -54q-111 0 -175 68t-64 176q0 105 39.5 205t107.5 165q98 94 235 94q112 0 179 -69zM328 -118
q0 -56 -50 -103q-31 -30 -79 -48l-23 37q55 23 67 64q-16 3 -27.5 17t-11.5 35q0 27 17.5 44t46.5 17q26 0 43 -18t17 -45z" />
    <glyph glyph-name="gcommaaccent" unicode="&#x123;" horiz-adv-x="567" 
d="M533 474q-15 -43 -27 -97l-49 -235q-6 -30 -16 -84t-14 -70q-25 -105 -89.5 -150.5t-172.5 -45.5q-90 0 -176 45l33 70q69 -40 151 -40q71 0 108 25.5t52 89.5q17 77 20 83q-61 -75 -159 -75q-68 0 -105 44t-37 126q0 79 32 156.5t83 124.5q81 75 190 75q103 0 176 -42z
M426 423q-28 14 -76 14q-70 0 -118 -49q-33 -34 -57 -102.5t-24 -122.5q0 -97 74 -97q85 0 147 107zM303 631q0 56 50 103q31 30 79 48l23 -37q-55 -23 -67 -64q16 -3 27.5 -17t11.5 -35q0 -27 -17.5 -44t-46.5 -17q-26 0 -43 18t-17 45z" />
    <glyph glyph-name="Hcircumflex" unicode="&#x124;" horiz-adv-x="639" 
d="M645 688l-146 -688h-98l70 326h-266l-70 -326h-95l146 688h95l-60 -282h267l60 282h97zM600 771l-40 -51l-121 83l-153 -83l-33 51l201 135z" />
    <glyph glyph-name="hcircumflex" unicode="&#x125;" horiz-adv-x="569" 
d="M514 418q0 -16 -9 -61l-76 -357h-90l71 338q7 32 7 47q0 49 -51 49q-33 0 -79.5 -29.5t-84.5 -76.5l-70 -328h-92l118 553q13 63 13 99q0 28 -7 52l97 35q6 -21 6 -53q0 -56 -15 -124l-13 -61q-9 -42 -23 -85q38 48 89.5 72.5t99.5 24.5q51 0 80 -26.5t29 -68.5zM424 795
l-40 -51l-121 83l-153 -83l-33 51l201 135z" />
    <glyph glyph-name="Hbar" unicode="&#x126;" horiz-adv-x="639" 
d="M646 688l-24 -110h86l-16 -77h-86l-106 -501h-98l70 326h-266l-70 -326h-95l106 501h-84l17 77h84l23 110h95l-24 -110h267l24 110h97zM222 406h267l20 95h-267z" />
    <glyph glyph-name="hbar" unicode="&#x127;" horiz-adv-x="569" 
d="M514 418q0 -16 -9 -61l-76 -357h-90l71 338q7 32 7 47q0 49 -51 49q-33 0 -79.5 -29.5t-84.5 -76.5l-70 -328h-92l118 553q1 4 2.5 12t2.5 12h-63l13 60h57q1 5 1 15q0 28 -7 52l97 35q6 -21 6 -53q0 -24 -3 -49h203l-13 -60h-199l-3 -15l-13 -61q-9 -42 -23 -85
q38 48 89.5 72.5t99.5 24.5q51 0 80 -26.5t29 -68.5z" />
    <glyph glyph-name="Itilde" unicode="&#x128;" horiz-adv-x="277" 
d="M283 688l-147 -688h-96l146 688h97zM426 813q-34 -33 -64 -48.5t-72 -15.5q-30 0 -61 19t-59 19q-21 0 -36 -8.5t-40 -30.5l-23 53q34 34 63.5 49t69.5 15q30 0 61.5 -19t60.5 -19q34 0 77 38z" />
    <glyph glyph-name="itilde" unicode="&#x129;" horiz-adv-x="275" 
d="M245 513l-109 -513h-96l106 498zM399 653q-34 -33 -64 -48.5t-72 -15.5q-30 0 -61 19t-59 19q-15 0 -29.5 -6.5t-21.5 -11.5t-25 -21l-23 53q34 34 63.5 49t69.5 15q30 0 61.5 -19t60.5 -19q34 0 77 38z" />
    <glyph glyph-name="Imacron" unicode="&#x12a;" horiz-adv-x="277" 
d="M283 688l-147 -688h-96l146 688h97zM386 820l-14 -68h-264l14 68h264z" />
    <glyph glyph-name="imacron" unicode="&#x12b;" horiz-adv-x="275" 
d="M245 513l-109 -513h-96l106 498zM350 659l-14 -68h-244l14 68h244z" />
    <glyph glyph-name="Ibreve" unicode="&#x12c;" horiz-adv-x="277" 
d="M283 688l-147 -688h-96l146 688h97zM437 848q-16 -17 -41.5 -39.5t-72 -49t-81.5 -26.5q-50 0 -90.5 42t-55.5 73l45 44q10 -12 24.5 -25t43 -26.5t57.5 -13.5q54 0 149 65z" />
    <glyph glyph-name="ibreve" unicode="&#x12d;" horiz-adv-x="275" 
d="M245 513l-109 -513h-96l106 498zM413 699q-16 -17 -41.5 -39.5t-72 -49t-81.5 -26.5q-50 0 -90.5 42t-55.5 73l45 44q10 -12 24.5 -25t43 -26.5t57.5 -13.5q54 0 149 65z" />
    <glyph glyph-name="Iogonek" unicode="&#x12e;" horiz-adv-x="277" 
d="M284 688l-147 -688q-30 -6 -62 -43.5t-32 -65.5q0 -25 28 -25q29 0 62 15l12 -52q-54 -25 -95 -25q-40 0 -60.5 18.5t-20.5 49.5q0 11 1 16q11 63 71 113l146 687h97z" />
    <glyph glyph-name="iogonek" unicode="&#x12f;" horiz-adv-x="275" 
d="M246 513l-109 -513q-30 -7 -62 -44t-32 -65q0 -25 28 -25q29 0 62 15l12 -52q-54 -25 -95 -25q-40 0 -60.5 18.5t-20.5 49.5q0 11 1 16q11 63 71 113l106 497zM295 652q0 -28 -19 -47t-47 -19t-47.5 19t-19.5 47t19.5 47.5t47.5 19.5t47 -19.5t19 -47.5z" />
    <glyph glyph-name="Idotaccent" unicode="&#x130;" horiz-adv-x="277" 
d="M283 688l-147 -688h-96l146 688h97zM319 797q0 -28 -19.5 -47t-47.5 -19t-47 19t-19 47t19.5 47.5t47.5 19.5q27 0 46.5 -19.5t19.5 -47.5z" />
    <glyph glyph-name="dotlessi" unicode="&#x131;" horiz-adv-x="275" 
d="M245 513l-109 -513h-96l106 498z" />
    <glyph glyph-name="IJ" unicode="&#x132;" horiz-adv-x="555" 
d="M283 688l-147 -688h-96l146 688h97zM562 688l-121 -566q-23 -105 -53 -152q-45 -72 -151 -108l-35 57q61 25 97 72q24 31 44 125l121 572h98z" />
    <glyph glyph-name="ij" unicode="&#x133;" horiz-adv-x="544" 
d="M245 513l-109 -513h-96l106 498zM294 652q0 -28 -19 -47t-47 -19t-47.5 19t-19.5 47t19.5 47.5t47.5 19.5t47 -19.5t19 -47.5zM515 514l-106 -501q-20 -98 -62 -146q-38 -44 -107 -71l-32 59q49 20 71 54q22 33 38 106l102 481zM565 659q0 -28 -19 -47.5t-47 -19.5
t-47.5 19t-19.5 46q0 29 19.5 49t47.5 20q27 0 46.5 -20t19.5 -47z" />
    <glyph glyph-name="Jcircumflex" unicode="&#x134;" horiz-adv-x="279" 
d="M285 688l-121 -566q-23 -105 -53 -152q-45 -72 -151 -108l-35 57q61 25 97 72q24 31 44 125l121 572h98zM409 771l-40 -51l-121 83l-153 -83l-33 51l201 135z" />
    <glyph glyph-name="jcircumflex" unicode="&#x135;" horiz-adv-x="269" 
d="M240 514l-106 -501q-20 -98 -62 -146q-38 -44 -107 -71l-32 59q49 20 71 54q22 33 38 106l102 481zM384 610l-40 -51l-121 83l-153 -83l-33 51l201 135z" />
    <glyph glyph-name="Kcommaaccent" unicode="&#x136;" horiz-adv-x="571" 
d="M642 671l-317 -311l191 -351l-110 -20l-189 376l334 340zM284 688l-146 -688h-98l146 688h98zM296 -117q0 -56 -50 -103q-31 -30 -79 -48l-23 37q55 23 67 64q-16 3 -27.5 17t-11.5 35q0 27 17.5 44t46.5 17q26 0 43 -18t17 -45z" />
    <glyph glyph-name="kcommaaccent" unicode="&#x137;" horiz-adv-x="482" 
d="M261 739q6 -19 6 -55q0 -55 -14 -118l-121 -566h-92l118 556q12 54 12 99q0 29 -6 49zM515 484l-218 -201l161 -271l-98 -23l-163 300l235 228zM280 -118q0 -56 -50 -103q-31 -30 -79 -48l-23 37q55 23 67 64q-16 3 -27.5 17t-11.5 35q0 27 17.5 44t46.5 17q26 0 43 -18
t17 -45z" />
    <glyph glyph-name="kgreenlandic" unicode="&#x138;" horiz-adv-x="482" 
d="M221 552q6 -20 6 -55q0 -55 -14 -118l-81 -379h-92l78 369q12 54 12 99q0 30 -6 49zM515 484l-218 -201l161 -271l-98 -23l-163 300l235 228z" />
    <glyph glyph-name="Lacute" unicode="&#x139;" horiz-adv-x="465" 
d="M420 81l-32 -81h-348l146 688h98l-129 -607h265zM418 824l-229 -101l-29 54l214 131z" />
    <glyph glyph-name="lacute" unicode="&#x13a;" horiz-adv-x="273" 
d="M260 739q6 -19 6 -53q0 -55 -14 -123l-92 -428q-8 -35 -8 -52q0 -25 23 -25q13 0 18 2l5 -59q-29 -12 -67 -12q-37 0 -56.5 18t-19.5 50q0 21 8 56l93 442q12 59 12 100q0 29 -6 49zM372 846l-229 -101l-29 54l214 131z" />
    <glyph glyph-name="Lcommaaccent" unicode="&#x13b;" horiz-adv-x="465" 
d="M420 81l-32 -81h-348l146 688h98l-129 -607h265zM257 -118q0 -56 -50 -103q-31 -30 -79 -48l-23 37q55 23 67 64q-16 3 -27.5 17t-11.5 35q0 27 17.5 44t46.5 17q26 0 43 -18t17 -45z" />
    <glyph glyph-name="lcommaaccent" unicode="&#x13c;" horiz-adv-x="273" 
d="M260 739q6 -19 6 -53q0 -55 -14 -123l-92 -428q-8 -35 -8 -52q0 -25 23 -25q13 0 18 2l5 -59q-29 -12 -67 -12q-37 0 -56.5 18t-19.5 50q0 21 8 56l93 442q12 59 12 100q0 29 -6 49zM157 -118q0 -56 -50 -103q-31 -30 -79 -48l-23 37q55 23 67 64q-16 3 -27.5 17
t-11.5 35q0 27 17.5 44t46.5 17q26 0 43 -18t17 -45z" />
    <glyph glyph-name="Lcaron" unicode="&#x13d;" horiz-adv-x="465" 
d="M420 81l-32 -81h-348l146 688h98l-129 -607h265zM483 625q0 -56 -50 -103q-31 -30 -79 -48l-23 37q55 23 67 64q-16 3 -27.5 17t-11.5 35q0 27 17.5 44t46.5 17q26 0 43 -18t17 -45z" />
    <glyph glyph-name="lcaron" unicode="&#x13e;" horiz-adv-x="273" 
d="M260 739q6 -19 6 -53q0 -55 -14 -123l-92 -428q-8 -35 -8 -52q0 -25 23 -25q13 0 18 2l5 -59q-29 -12 -67 -12q-37 0 -56.5 18t-19.5 50q0 21 8 56l93 442q12 59 12 100q0 29 -6 49zM448 673q0 -56 -50 -103q-31 -30 -79 -48l-23 37q55 23 67 64q-16 3 -27.5 17t-11.5 35
q0 27 17.5 44t46.5 17q26 0 43 -18t17 -45z" />
    <glyph glyph-name="Ldot" unicode="&#x13f;" horiz-adv-x="465" 
d="M420 81l-32 -81h-348l146 688h98l-129 -607h265zM455 355q0 -28 -19.5 -47t-47.5 -19t-47 19t-19 47t19.5 47.5t47.5 19.5q27 0 46.5 -19.5t19.5 -47.5z" />
    <glyph glyph-name="ldot" unicode="&#x140;" horiz-adv-x="318" 
d="M260 739q6 -19 6 -53q0 -55 -14 -123l-92 -428q-8 -35 -8 -52q0 -25 23 -25q13 0 18 2l5 -59q-29 -12 -67 -12q-37 0 -56.5 18t-19.5 50q0 21 8 56l93 442q12 59 12 100q0 29 -6 49zM383 353q0 -28 -19.5 -47t-47.5 -19t-47 19t-19 47t19.5 47.5t47.5 19.5
q27 0 46.5 -19.5t19.5 -47.5z" />
    <glyph glyph-name="Lslash" unicode="&#x141;" horiz-adv-x="465" 
d="M421 81l-32 -81h-348l64 302l-69 -21l17 82l69 21l65 304h98l-58 -273l175 53l-17 -82l-175 -53l-54 -252h265z" />
    <glyph glyph-name="lslash" unicode="&#x142;" horiz-adv-x="273" 
d="M290 434l-17 -81l-71 -23l-42 -195q-8 -35 -8 -52q0 -25 23 -25q13 0 18 2l5 -59q-29 -12 -67 -12q-37 0 -56.5 18t-19.5 50q0 21 8 56l39 186l-55 -18l17 82l55 17l37 175q12 59 12 100q0 29 -6 49l98 35q6 -19 6 -53q0 -55 -14 -123l-32 -151z" />
    <glyph glyph-name="Nacute" unicode="&#x143;" horiz-adv-x="643" 
d="M649 688l-146 -688h-101l-113 381q-41 138 -45 177q-25 -155 -31 -186l-75 -372h-98l146 688h110l120 -397q28 -95 33 -158q0 2 6 38t13.5 82.5t15.5 84.5l71 350h94zM574 824l-229 -101l-29 54l214 131z" />
    <glyph glyph-name="nacute" unicode="&#x144;" horiz-adv-x="556" 
d="M500 413q0 -19 -5 -42l-79 -371h-92l71 336q8 38 8 52q0 45 -45 45q-32 0 -73.5 -26t-84.5 -80l-69 -327h-91l76 353q10 47 10 76q0 26 -7 50l86 38q12 -31 12 -62q0 -16 -5 -41q78 99 188 99q46 0 73 -27t27 -73zM484 663l-229 -101l-29 54l214 131z" />
    <glyph glyph-name="Ncommaaccent" unicode="&#x145;" horiz-adv-x="643" 
d="M649 688l-146 -688h-101l-113 381q-41 138 -45 177q-25 -155 -31 -186l-75 -372h-98l146 688h110l120 -397q28 -95 33 -158q0 2 6 38t13.5 82.5t15.5 84.5l71 350h94zM320 -118q0 -56 -50 -103q-31 -30 -79 -48l-23 37q55 23 67 64q-16 3 -27.5 17t-11.5 35q0 27 17.5 44
t46.5 17q26 0 43 -18t17 -45z" />
    <glyph glyph-name="ncommaaccent" unicode="&#x146;" horiz-adv-x="556" 
d="M500 413q0 -19 -5 -42l-79 -371h-92l71 336q8 38 8 52q0 45 -45 45q-32 0 -73.5 -26t-84.5 -80l-69 -327h-91l76 353q10 47 10 76q0 26 -7 50l86 38q12 -31 12 -62q0 -16 -5 -41q78 99 188 99q46 0 73 -27t27 -73zM280 -118q0 -56 -50 -103q-31 -30 -79 -48l-23 37
q55 23 67 64q-16 3 -27.5 17t-11.5 35q0 27 17.5 44t46.5 17q26 0 43 -18t17 -45z" />
    <glyph glyph-name="Ncaron" unicode="&#x147;" horiz-adv-x="643" 
d="M649 688l-146 -688h-101l-113 381q-41 138 -45 177q-25 -155 -31 -186l-75 -372h-98l146 688h110l120 -397q28 -95 33 -158q0 2 6 38t13.5 82.5t15.5 84.5l71 350h94zM620 858l-200 -135l-147 135l41 51l121 -82l153 82z" />
    <glyph glyph-name="ncaron" unicode="&#x148;" horiz-adv-x="556" 
d="M500 413q0 -19 -5 -42l-79 -371h-92l71 336q8 38 8 52q0 45 -45 45q-32 0 -73.5 -26t-84.5 -80l-69 -327h-91l76 353q10 47 10 76q0 26 -7 50l86 38q12 -31 12 -62q0 -16 -5 -41q78 99 188 99q46 0 73 -27t27 -73zM523 692l-200 -135l-147 135l41 51l121 -82l153 82z" />
    <glyph glyph-name="napostrophe" unicode="&#x149;" horiz-adv-x="556" 
d="M500 413q0 -19 -5 -42l-79 -371h-92l71 336q8 38 8 52q0 45 -45 45q-32 0 -73.5 -26t-84.5 -80l-69 -327h-91l76 353q10 47 10 76q0 26 -7 50l86 38q12 -31 12 -62q0 -16 -5 -41q78 99 188 99q46 0 73 -27t27 -73zM175 660q0 -56 -50 -103q-31 -30 -79 -48l-23 37
q55 23 67 64q-16 3 -27.5 17t-11.5 35q0 27 17.5 44t46.5 17q26 0 43 -18t17 -45z" />
    <glyph glyph-name="Eng" unicode="&#x14a;" horiz-adv-x="643" 
d="M649 688l-142 -667q-20 -98 -62 -146q-38 -44 -107 -71l-32 59q49 20 71 54q26 41 26 75q0 5 -1 8l-113 381q-42 143 -45 176q-24 -149 -31 -185l-75 -372h-98l146 688h110l120 -397q27 -92 33 -158q19 126 35 205l71 350h94z" />
    <glyph glyph-name="eng" unicode="&#x14b;" horiz-adv-x="556" 
d="M500 413q0 -19 -5 -42l-74 -350q-20 -98 -62 -146q-38 -44 -107 -71l-32 59q49 20 71 54q22 33 38 106l66 313q8 38 8 52q0 45 -45 45q-32 0 -73.5 -26t-84.5 -80l-69 -327h-91l76 353q10 47 10 76q0 26 -7 50l86 38q12 -31 12 -62q0 -16 -5 -41q78 99 188 99
q46 0 73 -27t27 -73z" />
    <glyph glyph-name="Omacron" unicode="&#x14c;" horiz-adv-x="688" 
d="M661 463q0 -129 -48 -246t-134 -175q-80 -54 -187 -54q-110 0 -165 65t-55 179q0 116 42 220t105 164q46 42 97 63t125 21q104 0 162 -62.5t58 -174.5zM555 476q0 147 -131 147q-98 0 -153 -75q-42 -57 -68 -148.5t-26 -186.5q0 -151 134 -151q79 0 133 57q47 50 79 158
t32 199zM584 821l-14 -68h-264l14 68h264z" />
    <glyph glyph-name="omacron" unicode="&#x14d;" horiz-adv-x="540" 
d="M501 336q0 -147 -78 -247.5t-205 -100.5q-82 0 -127 47t-45 133q0 148 80 247.5t202 99.5q85 0 129 -47.5t44 -131.5zM400 343q0 99 -88 99q-51 0 -89.5 -41.5t-57.5 -104.5t-19 -135q0 -100 89 -100q52 0 90.5 42t56.5 105t18 135zM474 659l-14 -68h-244l14 68h244z" />
    <glyph glyph-name="Obreve" unicode="&#x14e;" horiz-adv-x="688" 
d="M661 463q0 -129 -48 -246t-134 -175q-80 -54 -187 -54q-110 0 -165 65t-55 179q0 116 42 220t105 164q46 42 97 63t125 21q104 0 162 -62.5t58 -174.5zM555 476q0 147 -131 147q-98 0 -153 -75q-42 -57 -68 -148.5t-26 -186.5q0 -151 134 -151q79 0 133 57q47 50 79 158
t32 199zM634 848q-16 -17 -41.5 -39.5t-72 -49t-81.5 -26.5q-50 0 -90.5 42t-55.5 73l45 44q10 -12 24.5 -25t43 -26.5t57.5 -13.5q54 0 149 65z" />
    <glyph glyph-name="obreve" unicode="&#x14f;" horiz-adv-x="540" 
d="M501 336q0 -147 -78 -247.5t-205 -100.5q-82 0 -127 47t-45 133q0 148 80 247.5t202 99.5q85 0 129 -47.5t44 -131.5zM400 343q0 99 -88 99q-51 0 -89.5 -41.5t-57.5 -104.5t-19 -135q0 -100 89 -100q52 0 90.5 42t56.5 105t18 135zM538 699q-16 -17 -41.5 -39.5t-72 -49
t-81.5 -26.5q-50 0 -90.5 42t-55.5 73l45 44q10 -12 24.5 -25t43 -26.5t57.5 -13.5q54 0 149 65z" />
    <glyph glyph-name="Ohungarumlaut" unicode="&#x150;" horiz-adv-x="688" 
d="M661 463q0 -129 -48 -246t-134 -175q-80 -54 -187 -54q-110 0 -165 65t-55 179q0 116 42 220t105 164q46 42 97 63t125 21q104 0 162 -62.5t58 -174.5zM555 476q0 147 -131 147q-98 0 -153 -75q-42 -57 -68 -148.5t-26 -186.5q0 -151 134 -151q79 0 133 57q47 50 79 158
t32 199zM525 926l-160 -203l-53 24l131 215zM721 907l-191 -179l-44 35l164 195z" />
    <glyph glyph-name="ohungarumlaut" unicode="&#x151;" horiz-adv-x="540" 
d="M501 336q0 -147 -78 -247.5t-205 -100.5q-82 0 -127 47t-45 133q0 148 80 247.5t202 99.5q85 0 129 -47.5t44 -131.5zM400 343q0 99 -88 99q-51 0 -89.5 -41.5t-57.5 -104.5t-19 -135q0 -100 89 -100q52 0 90.5 42t56.5 105t18 135zM441 767l-160 -203l-53 24l131 215z
M637 748l-191 -179l-44 35l164 195z" />
    <glyph glyph-name="OE" unicode="&#x152;" horiz-adv-x="865" 
d="M924 688l-29 -80h-270l-45 -208h226l-17 -82h-226l-49 -235h293l-19 -83h-460q-67 0 -110.5 10t-82.5 47q-63 60 -63 171q0 98 38.5 201t104.5 166q72 69 153 84q49 9 103 9h453zM527 597q-61 8 -85 8q-122 0 -188 -107q-31 -51 -52 -127.5t-21 -138.5q0 -63 32 -107
q36 -48 102 -48q57 0 103 7z" />
    <glyph glyph-name="oe" unicode="&#x153;" horiz-adv-x="832" 
d="M805 382q0 -60 -49 -107q-62 -57 -212 -57q-12 0 -33 1.5t-28 1.5q-7 -30 -7 -58q0 -48 27 -74.5t69 -26.5q79 0 145 56l33 -57q-24 -22 -40 -33.5t-61 -25.5t-102 -14q-99 0 -144 77q-75 -80 -185 -80q-90 0 -131 51t-41 130q0 148 80 247t201 99q108 0 149 -79
q82 82 178 82q72 0 111.5 -34t39.5 -99zM400 340q0 99 -88 99q-76 0 -121 -84t-45 -197q0 -100 89 -100q52 0 90.5 42t56.5 105t18 135zM712 379q0 29 -17.5 47t-53.5 18q-46 0 -85.5 -41.5t-57.5 -113.5q20 -2 48 -2q166 0 166 92z" />
    <glyph glyph-name="Racute" unicode="&#x154;" horiz-adv-x="550" 
d="M567 530q0 -98 -67 -160.5t-160 -62.5q43 -41 87 -128q15 -30 38.5 -88.5t30.5 -81.5l-96 -18q-4 9 -15 34.5t-20.5 48.5t-16.5 41q-41 100 -86 158q-14 19 -26 24.5t-34 6.5l-65 -304h-97l147 688h177q104 0 153.5 -39t49.5 -119zM464 512q0 51 -28.5 73.5t-91.5 22.5
h-77l-50 -239h65q87 0 127 32q55 46 55 111zM532 824l-229 -101l-29 54l214 131z" />
    <glyph glyph-name="racute" unicode="&#x155;" horiz-adv-x="365" 
d="M405 508l-40 -94q-15 6 -34 6q-64 0 -133 -102l-67 -318h-91l72 338q12 60 12 92q0 28 -7 49l86 38q11 -27 11 -62q0 -20 -5 -48q35 49 77.5 78t78.5 29q22 0 40 -6zM409 663l-229 -101l-29 54l214 131z" />
    <glyph glyph-name="Rcommaaccent" unicode="&#x156;" horiz-adv-x="550" 
d="M567 530q0 -98 -67 -160.5t-160 -62.5q43 -41 87 -128q15 -30 38.5 -88.5t30.5 -81.5l-96 -18q-4 9 -15 34.5t-20.5 48.5t-16.5 41q-41 100 -86 158q-14 19 -26 24.5t-34 6.5l-65 -304h-97l147 688h177q104 0 153.5 -39t49.5 -119zM464 512q0 51 -28.5 73.5t-91.5 22.5
h-77l-50 -239h65q87 0 127 32q55 46 55 111zM304 -117q0 -56 -50 -103q-31 -30 -79 -48l-23 37q55 23 67 64q-16 3 -27.5 17t-11.5 35q0 27 17.5 44t46.5 17q26 0 43 -18t17 -45z" />
    <glyph glyph-name="rcommaaccent" unicode="&#x157;" horiz-adv-x="365" 
d="M405 508l-40 -94q-15 6 -34 6q-64 0 -133 -102l-67 -318h-91l72 338q12 60 12 92q0 28 -7 49l86 38q11 -27 11 -62q0 -20 -5 -48q35 49 77.5 78t78.5 29q22 0 40 -6zM131 -118q0 -56 -50 -103q-31 -30 -79 -48l-23 37q55 23 67 64q-16 3 -27.5 17t-11.5 35q0 27 17.5 44
t46.5 17q26 0 43 -18t17 -45z" />
    <glyph glyph-name="Rcaron" unicode="&#x158;" horiz-adv-x="550" 
d="M567 530q0 -98 -67 -160.5t-160 -62.5q43 -41 87 -128q15 -30 38.5 -88.5t30.5 -81.5l-96 -18q-4 9 -15 34.5t-20.5 48.5t-16.5 41q-41 100 -86 158q-14 19 -26 24.5t-34 6.5l-65 -304h-97l147 688h177q104 0 153.5 -39t49.5 -119zM464 512q0 51 -28.5 73.5t-91.5 22.5
h-77l-50 -239h65q87 0 127 32q55 46 55 111zM571 858l-200 -135l-147 135l41 51l121 -82l153 82z" />
    <glyph glyph-name="rcaron" unicode="&#x159;" horiz-adv-x="365" 
d="M405 508l-40 -94q-15 6 -34 6q-64 0 -133 -102l-67 -318h-91l72 338q12 60 12 92q0 28 -7 49l86 38q11 -27 11 -62q0 -20 -5 -48q35 49 77.5 78t78.5 29q22 0 40 -6zM464 692l-200 -135l-147 135l41 51l121 -82l153 82z" />
    <glyph glyph-name="Sacute" unicode="&#x15a;" horiz-adv-x="574" 
d="M581 643l-53 -70q-70 52 -152 52q-63 0 -104 -31t-41 -77q0 -38 17 -59.5t64 -40.5l74 -30q64 -26 92 -66.5t28 -102.5q0 -99 -81 -165.5t-215 -66.5q-112 0 -200 57l49 75q80 -52 168 -52q77 0 123.5 37t46.5 95q0 41 -18.5 65t-69.5 44l-65 25q-62 24 -90.5 61.5
t-28.5 98.5q0 92 76 152.5t188 60.5q116 0 192 -62zM541 824l-229 -101l-29 54l214 131z" />
    <glyph glyph-name="sacute" unicode="&#x15b;" horiz-adv-x="472" 
d="M442 480l-37 -68q-64 36 -119 36q-46 0 -75 -18t-29 -51q0 -24 12 -38t42 -27l62 -25q104 -42 104 -123t-62 -131t-163 -50q-103 0 -179 51l38 69q70 -48 152 -48q48 0 79.5 22t31.5 57q0 28 -14 44.5t-50 31.5l-58 24q-50 21 -73.5 49t-23.5 72q0 70 57.5 116.5
t154.5 46.5q89 0 150 -40zM466 663l-229 -101l-29 54l214 131z" />
    <glyph glyph-name="Scircumflex" unicode="&#x15c;" horiz-adv-x="574" 
d="M581 643l-53 -70q-70 52 -152 52q-63 0 -104 -31t-41 -77q0 -38 17 -59.5t64 -40.5l74 -30q64 -26 92 -66.5t28 -102.5q0 -99 -81 -165.5t-215 -66.5q-112 0 -200 57l49 75q80 -52 168 -52q77 0 123.5 37t46.5 95q0 41 -18.5 65t-69.5 44l-65 25q-62 24 -90.5 61.5
t-28.5 98.5q0 92 76 152.5t188 60.5q116 0 192 -62zM562 771l-40 -51l-121 83l-153 -83l-33 51l201 135z" />
    <glyph glyph-name="scircumflex" unicode="&#x15d;" horiz-adv-x="472" 
d="M442 480l-37 -68q-64 36 -119 36q-46 0 -75 -18t-29 -51q0 -24 12 -38t42 -27l62 -25q104 -42 104 -123t-62 -131t-163 -50q-103 0 -179 51l38 69q70 -48 152 -48q48 0 79.5 22t31.5 57q0 28 -14 44.5t-50 31.5l-58 24q-50 21 -73.5 49t-23.5 72q0 70 57.5 116.5
t154.5 46.5q89 0 150 -40zM479 610l-40 -51l-121 83l-153 -83l-33 51l201 135z" />
    <glyph glyph-name="Scedilla" unicode="&#x15e;" horiz-adv-x="574" 
d="M581 643l-53 -70q-70 52 -152 52q-63 0 -104 -31t-41 -77q0 -38 17 -59.5t64 -40.5l74 -30q64 -26 92 -66.5t28 -102.5q0 -90 -67 -154t-182 -76l-14 -27q52 -8 52 -54q0 -10 -1 -16q-6 -34 -38.5 -61.5t-80.5 -27.5q-39 0 -78 24l34 51q31 -15 56 -15q15 0 27 8.5
t12 23.5q0 10 -8.5 16.5t-20.5 6.5q-8 0 -23 -1t-16 -1l34 71q-100 4 -182 57l49 75q80 -52 168 -52q77 0 123.5 37t46.5 95q0 41 -18.5 65t-69.5 44l-65 25q-62 24 -90.5 61.5t-28.5 98.5q0 92 76 152.5t188 60.5q116 0 192 -62z" />
    <glyph glyph-name="scedilla" unicode="&#x15f;" horiz-adv-x="472" 
d="M442 480l-37 -68q-64 36 -119 36q-46 0 -75 -18t-29 -51q0 -24 12 -38t42 -27l62 -25q104 -42 104 -123q0 -74 -51.5 -122.5t-139.5 -56.5l-13 -26q52 -8 52 -54q0 -10 -1 -16q-6 -34 -38.5 -61.5t-80.5 -27.5q-39 0 -78 24l34 51q31 -15 56 -15q15 0 27 8.5t12 23.5
q0 10 -8.5 16.5t-20.5 6.5q-8 0 -23 -1t-16 -1l34 71q-85 8 -149 50l38 69q70 -48 152 -48q48 0 79.5 22t31.5 57q0 28 -14 44.5t-50 31.5l-58 24q-50 21 -73.5 49t-23.5 72q0 70 57.5 116.5t154.5 46.5q89 0 150 -40z" />
    <glyph glyph-name="Scaron" unicode="&#x160;" horiz-adv-x="574" 
d="M581 643l-53 -70q-70 52 -152 52q-63 0 -104 -31t-41 -77q0 -38 17 -59.5t64 -40.5l74 -30q64 -26 92 -66.5t28 -102.5q0 -99 -81 -165.5t-215 -66.5q-112 0 -200 57l49 75q80 -52 168 -52q77 0 123.5 37t46.5 95q0 41 -18.5 65t-69.5 44l-65 25q-62 24 -90.5 61.5
t-28.5 98.5q0 92 76 152.5t188 60.5q116 0 192 -62zM582 859l-200 -135l-147 135l41 51l121 -82l153 82z" />
    <glyph glyph-name="scaron" unicode="&#x161;" horiz-adv-x="472" 
d="M442 480l-37 -68q-64 36 -119 36q-46 0 -75 -18t-29 -51q0 -24 12 -38t42 -27l62 -25q104 -42 104 -123t-62 -131t-163 -50q-103 0 -179 51l38 69q70 -48 152 -48q48 0 79.5 22t31.5 57q0 28 -14 44.5t-50 31.5l-58 24q-50 21 -73.5 49t-23.5 72q0 70 57.5 116.5
t154.5 46.5q89 0 150 -40zM479 692l-200 -135l-147 135l41 51l121 -82l153 82z" />
    <glyph glyph-name="Tcommaaccent" unicode="&#x162;" horiz-adv-x="469" 
d="M265 -109q-6 -34 -38.5 -61.5t-80.5 -27.5q-39 0 -78 24l34 51q32 -15 56 -15q15 0 27 8.5t12 23.5q0 10 -8.5 16.5t-20.5 6.5q-25 0 -39 -2l40 85h-16l129 607h-181l18 81h466l-27 -81h-181l-129 -607h-15l-19 -39q52 -8 52 -54q0 -10 -1 -16z" />
    <glyph glyph-name="tcommaaccent" unicode="&#x163;" horiz-adv-x="308" 
d="M233 -109q-6 -34 -38.5 -61.5t-80.5 -27.5q-39 0 -78 24l34 51q31 -15 56 -15q15 0 27 8.5t12 23.5q0 10 -8.5 16.5t-20.5 6.5q-21 0 -39 -2l34 72q-69 12 -69 81q0 40 7 71l62 295h-61l13 68h62q16 66 34 124l100 22q-27 -74 -41 -146h122l-35 -68h-103l-60 -283
q-7 -37 -7 -52q0 -25 11.5 -35.5t37.5 -10.5q25 0 52 10v-57q-30 -14 -61 -18l-13 -27q52 -8 52 -54q0 -10 -1 -16z" />
    <glyph glyph-name="Tcaron" unicode="&#x164;" horiz-adv-x="469" 
d="M585 688l-27 -81h-181l-129 -607h-95l129 607h-181l18 81h466zM546 858l-200 -135l-147 135l41 51l121 -82l153 82z" />
    <glyph glyph-name="tcaron" unicode="&#x165;" horiz-adv-x="308" 
d="M360 502l-35 -68h-103l-60 -283q-7 -37 -7 -52q0 -25 11.5 -35.5t37.5 -10.5q25 0 52 10v-57q-46 -21 -98 -21q-47 0 -71.5 22t-24.5 61q0 40 7 71l62 295h-61l13 68h62q16 66 34 124l100 22q-27 -74 -41 -146h122zM463 704q0 -56 -50 -103q-31 -30 -79 -48l-23 37
q55 23 67 64q-16 3 -27.5 17t-11.5 35q0 27 17.5 44t46.5 17q26 0 43 -18t17 -45z" />
    <glyph glyph-name="Tbar" unicode="&#x166;" horiz-adv-x="469" 
d="M585 688l-27 -81h-181l-42 -198h91l-16 -73h-91l-71 -336h-95l71 336h-91l16 73h91l42 198h-181l18 81h466z" />
    <glyph glyph-name="tbar" unicode="&#x167;" horiz-adv-x="308" 
d="M25 224l13 68h63l30 142h-61l13 68h62q16 66 34 124l100 22q-27 -74 -41 -146h122l-35 -68h-103l-30 -142h123l-35 -68h-103l-15 -73q-7 -37 -7 -52q0 -25 11.5 -35.5t37.5 -10.5q25 0 52 10v-57q-46 -21 -98 -21q-47 0 -71.5 22t-24.5 61q0 40 7 71l18 85h-62z" />
    <glyph glyph-name="Utilde" unicode="&#x168;" horiz-adv-x="638" 
d="M649 688l-101 -474q-16 -75 -33 -110.5t-54 -62.5q-73 -53 -189 -53q-91 0 -144.5 37.5t-53.5 110.5q0 46 9 86l99 466h97l-94 -443q-12 -58 -12 -100q0 -35 29.5 -55t81.5 -20q82 0 129 54q26 29 41 102l98 462h97zM608 813q-34 -33 -64 -48.5t-72 -15.5q-30 0 -61 19
t-59 19q-21 0 -36 -8.5t-40 -30.5l-23 53q34 34 63.5 49t69.5 15q30 0 61.5 -19t60.5 -19q34 0 77 38z" />
    <glyph glyph-name="utilde" unicode="&#x169;" horiz-adv-x="555" 
d="M523 511l-77 -363q-7 -32 -7 -57q0 -34 19 -62l-75 -49q-34 36 -34 87v12q-83 -95 -179 -95q-110 0 -110 101q0 37 8 75l72 336l94 17l-70 -333q-9 -40 -9 -66q0 -29 10.5 -41.5t34.5 -12.5q37 0 82.5 30.5t78.5 83.5l68 320zM527 653q-34 -33 -64 -48.5t-72 -15.5
q-30 0 -61 19t-59 19q-15 0 -29.5 -6.5t-21.5 -11.5t-25 -21l-23 53q34 34 63.5 49t69.5 15q30 0 61.5 -19t60.5 -19q34 0 77 38z" />
    <glyph glyph-name="Umacron" unicode="&#x16a;" horiz-adv-x="638" 
d="M649 688l-101 -474q-16 -75 -33 -110.5t-54 -62.5q-73 -53 -189 -53q-91 0 -144.5 37.5t-53.5 110.5q0 46 9 86l99 466h97l-94 -443q-12 -58 -12 -100q0 -35 29.5 -55t81.5 -20q82 0 129 54q26 29 41 102l98 462h97zM557 820l-14 -68h-264l14 68h264z" />
    <glyph glyph-name="umacron" unicode="&#x16b;" horiz-adv-x="555" 
d="M523 511l-77 -363q-7 -32 -7 -57q0 -34 19 -62l-75 -49q-34 36 -34 87v12q-83 -95 -179 -95q-110 0 -110 101q0 37 8 75l72 336l94 17l-70 -333q-9 -40 -9 -66q0 -29 10.5 -41.5t34.5 -12.5q37 0 82.5 30.5t78.5 83.5l68 320zM477 659l-14 -68h-244l14 68h244z" />
    <glyph glyph-name="Ubreve" unicode="&#x16c;" horiz-adv-x="638" 
d="M649 688l-101 -474q-16 -75 -33 -110.5t-54 -62.5q-73 -53 -189 -53q-91 0 -144.5 37.5t-53.5 110.5q0 46 9 86l99 466h97l-94 -443q-12 -58 -12 -100q0 -35 29.5 -55t81.5 -20q82 0 129 54q26 29 41 102l98 462h97zM608 872q-16 -17 -41.5 -39.5t-72 -49t-81.5 -26.5
q-50 0 -90.5 42t-55.5 73l45 44q10 -12 24.5 -25t43 -26.5t57.5 -13.5q54 0 149 65z" />
    <glyph glyph-name="ubreve" unicode="&#x16d;" horiz-adv-x="555" 
d="M523 511l-77 -363q-7 -32 -7 -57q0 -34 19 -62l-75 -49q-34 36 -34 87v12q-83 -95 -179 -95q-110 0 -110 101q0 37 8 75l72 336l94 17l-70 -333q-9 -40 -9 -66q0 -29 10.5 -41.5t34.5 -12.5q37 0 82.5 30.5t78.5 83.5l68 320zM533 699q-16 -17 -41.5 -39.5t-72 -49
t-81.5 -26.5q-50 0 -90.5 42t-55.5 73l45 44q10 -12 24.5 -25t43 -26.5t57.5 -13.5q54 0 149 65z" />
    <glyph glyph-name="Uring" unicode="&#x16e;" horiz-adv-x="638" 
d="M649 688l-101 -474q-16 -75 -33 -110.5t-54 -62.5q-73 -53 -189 -53q-91 0 -144.5 37.5t-53.5 110.5q0 46 9 86l99 466h97l-94 -443q-12 -58 -12 -100q0 -35 29.5 -55t81.5 -20q82 0 129 54q26 29 41 102l98 462h97zM529 819q0 -44 -31 -75t-75 -31t-75 31t-31 75t31 75
t75 31t75 -31t31 -75zM478 819q0 23 -16 39.5t-39 16.5t-39 -16.5t-16 -39.5t16 -39.5t39 -16.5t39 16.5t16 39.5z" />
    <glyph glyph-name="uring" unicode="&#x16f;" horiz-adv-x="555" 
d="M523 511l-77 -363q-7 -32 -7 -57q0 -34 19 -62l-75 -49q-34 36 -34 87v12q-83 -95 -179 -95q-110 0 -110 101q0 37 8 75l72 336l94 17l-70 -333q-9 -40 -9 -66q0 -29 10.5 -41.5t34.5 -12.5q37 0 82.5 30.5t78.5 83.5l68 320zM463 659q0 -44 -31 -75t-75 -31t-75 31
t-31 75t31 75t75 31t75 -31t31 -75zM412 659q0 23 -16 39.5t-39 16.5t-39 -16.5t-16 -39.5t16 -39.5t39 -16.5t39 16.5t16 39.5z" />
    <glyph glyph-name="Uhungarumlaut" unicode="&#x170;" horiz-adv-x="638" 
d="M649 688l-101 -474q-16 -75 -33 -110.5t-54 -62.5q-73 -53 -189 -53q-91 0 -144.5 37.5t-53.5 110.5q0 46 9 86l99 466h97l-94 -443q-12 -58 -12 -100q0 -35 29.5 -55t81.5 -20q82 0 129 54q26 29 41 102l98 462h97zM499 926l-160 -203l-53 24l131 215zM695 907
l-191 -179l-44 35l164 195z" />
    <glyph glyph-name="uhungarumlaut" unicode="&#x171;" horiz-adv-x="555" 
d="M523 511l-77 -363q-7 -32 -7 -57q0 -34 19 -62l-75 -49q-34 36 -34 87v12q-83 -95 -179 -95q-110 0 -110 101q0 37 8 75l72 336l94 17l-70 -333q-9 -40 -9 -66q0 -29 10.5 -41.5t34.5 -12.5q37 0 82.5 30.5t78.5 83.5l68 320zM444 767l-160 -203l-53 24l131 215zM640 748
l-191 -179l-44 35l164 195z" />
    <glyph glyph-name="Uogonek" unicode="&#x172;" horiz-adv-x="638" 
d="M649 688l-101 -474q-16 -75 -33 -110.5t-54 -62.5q-51 -36 -111 -47q-27 -5 -57.5 -39.5t-30.5 -63.5q0 -25 28 -25q30 0 62 15l12 -52q-54 -25 -95 -25q-40 0 -60.5 18.5t-20.5 49.5q0 11 1 16q10 54 58 101q-80 5 -126.5 42t-46.5 105q0 46 9 86l99 466h97l-94 -443
q-12 -58 -12 -100q0 -35 29.5 -55t81.5 -20q82 0 129 54q26 29 41 102l98 462h97z" />
    <glyph glyph-name="uogonek" unicode="&#x173;" horiz-adv-x="555" 
d="M523 511l-77 -363q-7 -32 -7 -57q0 -34 19 -62q-40 -20 -75 -49q-57 -50 -57 -89q0 -25 28 -25q30 0 62 15l12 -52q-54 -25 -95 -25q-39 0 -60.5 18.5t-21.5 48.5q0 78 106 149q-11 29 -8 59q-83 -95 -179 -95q-110 0 -110 101q0 37 8 75l72 336l94 17l-70 -333
q-9 -40 -9 -66q0 -29 10.5 -41.5t34.5 -12.5q37 0 82.5 30.5t78.5 83.5l68 320z" />
    <glyph glyph-name="Wcircumflex" unicode="&#x174;" horiz-adv-x="808" 
d="M894 688l-307 -689h-119l-3 356q-1 108 8 202q-41 -109 -78 -197l-154 -361h-118l-17 689h100l2 -368q1 -56 -9 -216q40 108 82 206l164 378h108l2 -376q0 -163 -5 -205q28 79 86 217l155 364h103zM683 771l-40 -51l-121 83l-153 -83l-33 51l201 135z" />
    <glyph glyph-name="wcircumflex" unicode="&#x175;" horiz-adv-x="686" 
d="M733 502l-250 -505h-87l-13 196q-10 152 -10 201h-1q-15 -45 -45 -106l-143 -291h-87l-32 499l93 17l8 -296q1 -60 -2 -102h2q12 33 44 99l140 288h95l14 -290q3 -68 3 -103h1q9 30 39 96l132 297h99zM587 610l-40 -51l-121 83l-153 -83l-33 51l201 135z" />
    <glyph glyph-name="Ycircumflex" unicode="&#x176;" horiz-adv-x="543" 
d="M639 688l-311 -416l-58 -272h-101l59 276l-132 412h114l67 -243q15 -55 18 -80l54 79l174 244h116zM546 771l-40 -51l-121 83l-153 -83l-33 51l201 135z" />
    <glyph glyph-name="ycircumflex" unicode="&#x177;" horiz-adv-x="474" 
d="M520 502l-247 -447q-8 -15 -24 -43.5t-23 -41.5t-19.5 -34.5t-20.5 -33t-19 -26t-21.5 -24.5t-21.5 -18q-47 -33 -106 -44l-20 63q39 5 88 42q37 29 70 105l-33 -3q0 74 -12 170l-42 328l96 17l32 -314q5 -47 3 -121h1q1 5 58 119l157 306h104zM469 610l-40 -51l-121 83
l-153 -83l-33 51l201 135z" />
    <glyph glyph-name="Ydieresis" unicode="&#x178;" horiz-adv-x="543" 
d="M639 688l-311 -416l-58 -272h-101l59 276l-132 412h114l67 -243q15 -55 18 -80l54 79l174 244h116zM323 786q0 -25 -17 -42.5t-41 -17.5q-25 0 -42 17.5t-17 42.5q0 24 17 41t41 17q25 0 42 -17t17 -41zM531 786q0 -25 -17 -42.5t-41 -17.5q-25 0 -42 17.5t-17 42.5
q0 24 17 41t41 17q25 0 42 -17t17 -41z" />
    <glyph glyph-name="Zacute" unicode="&#x179;" horiz-adv-x="523" 
d="M566 621l-384 -480q-11 -14 -29.5 -34t-23.5 -27q36 2 61 2h261l-32 -82h-415v70l389 474q40 48 57 65q-28 -2 -71 -2h-244l33 81h398v-67zM515 824l-229 -101l-29 54l214 131z" />
    <glyph glyph-name="zacute" unicode="&#x17a;" horiz-adv-x="416" 
d="M428 436l-337 -368h263l-37 -68h-348l2 66l340 365h-229l3 71h343v-66zM405 663l-229 -101l-29 54l214 131z" />
    <glyph glyph-name="Zdotaccent" unicode="&#x17b;" horiz-adv-x="523" 
d="M566 621l-384 -480q-11 -14 -29.5 -34t-23.5 -27q36 2 61 2h261l-32 -82h-415v70l389 474q40 48 57 65q-28 -2 -71 -2h-244l33 81h398v-67zM439 797q0 -28 -19.5 -47t-47.5 -19t-47 19t-19 47t19.5 47.5t47.5 19.5q27 0 46.5 -19.5t19.5 -47.5z" />
    <glyph glyph-name="zdotaccent" unicode="&#x17c;" horiz-adv-x="416" 
d="M428 436l-337 -368h263l-37 -68h-348l2 66l340 365h-229l3 71h343v-66zM338 652q0 -28 -19.5 -47t-47.5 -19t-47 19t-19 47t19.5 47.5t47.5 19.5q27 0 46.5 -19.5t19.5 -47.5z" />
    <glyph glyph-name="Zcaron" unicode="&#x17d;" horiz-adv-x="523" 
d="M566 621l-384 -480q-11 -14 -29.5 -34t-23.5 -27q36 2 61 2h261l-32 -82h-415v70l389 474q40 48 57 65q-28 -2 -71 -2h-244l33 81h398v-67zM575 859l-200 -135l-147 135l41 51l121 -82l153 82z" />
    <glyph glyph-name="zcaron" unicode="&#x17e;" horiz-adv-x="416" 
d="M428 436l-337 -368h263l-37 -68h-348l2 66l340 365h-229l3 71h343v-66zM458 692l-200 -135l-147 135l41 51l121 -82l153 82z" />
    <glyph glyph-name="longs" unicode="&#x17f;" horiz-adv-x="373" 
d="M381 730q64 0 115 -37l-52 -58q-37 25 -75 25q-51 0 -81.5 -34.5t-46.5 -111.5l-107 -524q-26 -129 -91 -202l-68 45q47 61 69 168l87 433h-75l14 68h76l7 34q39 194 228 194z" />
    <glyph glyph-name="uni018F" unicode="&#x18f;" horiz-adv-x="599" 
d="M219 -12q-91 0 -141.5 45t-52.5 124q-1 60 26.5 105t75.5 70.5t104.5 37.5t121.5 12q41 0 103 -5q6 42 6 89q0 77 -36.5 117t-97.5 40q-101 0 -194 -80l-39 68q64 49 120.5 69t126.5 20q109 0 169 -65t60 -178q0 -101 -37.5 -208t-100.5 -169q-92 -92 -214 -92zM234 62
q70 0 125 64.5t81 174.5q-33 3 -80 3q-40 0 -76 -6t-73 -20t-58.5 -44t-20.5 -72q1 -44 26.5 -72t75.5 -28z" />
    <glyph glyph-name="florin" unicode="&#x192;" horiz-adv-x="394" 
d="M472 699l-43 -62q-28 21 -64 21q-29 0 -51 -21t-31 -59l-18 -76h130l-41 -68h-104l-92 -384q-28 -117 -57 -162t-119 -91l-32 64q59 33 78 64.5t39 112.5l94 396h-46l12 68h50l18 76q18 76 64.5 113t112.5 37q60 0 100 -29z" />
    <glyph glyph-name="uni01B5" unicode="&#x1b5;" horiz-adv-x="523" 
d="M566 621l-188 -235h80l-15 -72h-123l-138 -173q-11 -14 -29.5 -34t-23.5 -27q36 2 61 2h261l-32 -82h-415v70l200 244h-80l15 72h124l130 158q40 48 57 65q-28 -2 -71 -2h-244l33 81h398v-67z" />
    <glyph glyph-name="uni01B6" unicode="&#x1b6;" horiz-adv-x="416" 
d="M428 436l-139 -151h62l-14 -69h-111l-135 -148h263l-37 -68h-348l2 66l139 150h-61l14 69h112l136 146h-229l3 71h343v-66z" />
    <glyph glyph-name="uni01C4" unicode="&#x1c4;" horiz-adv-x="1156" 
d="M607 439q0 -89 -40.5 -192.5t-98.5 -158.5q-51 -48 -108.5 -68t-143.5 -20h-176l146 688h151q81 0 125.5 -12t80.5 -45q64 -58 64 -192zM503 432q0 82 -25 122q-21 33 -50.5 44.5t-82.5 11.5h-78l-112 -530h72q126 0 180 71q46 60 71 141.5t25 139.5zM1199 621l-384 -480
q-11 -14 -29.5 -34t-23.5 -27q36 2 61 2h261l-32 -82h-415v70l389 474q40 48 57 65q-28 -2 -71 -2h-244l33 81h398v-67zM1208 859l-200 -135l-147 135l41 51l121 -82l153 82z" />
    <glyph glyph-name="uni01C5" unicode="&#x1c5;" horiz-adv-x="1049" 
d="M607 439q0 -89 -40.5 -192.5t-98.5 -158.5q-51 -48 -108.5 -68t-143.5 -20h-176l146 688h151q81 0 125.5 -12t80.5 -45q64 -58 64 -192zM503 432q0 82 -25 122q-21 33 -50.5 44.5t-82.5 11.5h-78l-112 -530h72q126 0 180 71q46 60 71 141.5t25 139.5zM1061 436l-337 -368
h263l-37 -68h-348l2 66l340 365h-229l3 71h343v-66zM1091 692l-200 -135l-147 135l41 51l121 -82l153 82z" />
    <glyph glyph-name="uni01C6" unicode="&#x1c6;" horiz-adv-x="981" 
d="M578 718l-118 -550q-12 -58 -12 -86q0 -35 19 -60l-79 -38q-29 32 -29 79v13q-67 -85 -163 -85q-144 0 -144 171q0 77 29 150.5t82 126.5q35 35 81.5 53.5t89.5 18.5q70 0 104 -18q0 1 3 14t7 32.5t6 27.5l34 166zM420 414q-35 21 -89 21q-27 0 -56.5 -14t-50.5 -37
q-31 -36 -53 -103t-22 -122q0 -91 68 -91q40 0 81 27t71 79zM1023 692l-200 -135l-147 135l41 51l121 -82l153 82zM993 436l-337 -368h263l-37 -68h-348l2 66l340 365h-229l3 71h343v-66z" />
    <glyph glyph-name="uni01C7" unicode="&#x1c7;" horiz-adv-x="743" 
d="M420 81l-32 -81h-348l146 688h98l-129 -607h265zM750 688l-121 -566q-23 -105 -53 -152q-45 -72 -151 -108l-35 57q61 25 97 72q24 31 44 125l121 572h98z" />
    <glyph glyph-name="uni01C8" unicode="&#x1c8;" horiz-adv-x="734" 
d="M420 81l-32 -81h-348l146 688h98l-129 -607h265zM705 514l-106 -501q-20 -98 -62 -146q-38 -44 -107 -71l-32 59q49 20 71 54q22 33 38 106l102 481zM755 659q0 -28 -19 -47.5t-47 -19.5t-47.5 19t-19.5 46q0 29 19.5 49t47.5 20q27 0 46.5 -20t19.5 -47z" />
    <glyph glyph-name="uni01C9" unicode="&#x1c9;" horiz-adv-x="542" 
d="M260 739q6 -19 6 -53q0 -55 -14 -123l-92 -428q-8 -35 -8 -52q0 -25 23 -25q13 0 18 2l5 -59q-29 -12 -67 -12q-37 0 -56.5 18t-19.5 50q0 21 8 56l93 442q12 59 12 100q0 29 -6 49zM513 514l-106 -501q-20 -98 -62 -146q-38 -44 -107 -71l-32 59q49 20 71 54
q22 33 38 106l102 481zM563 659q0 -28 -19 -47.5t-47 -19.5t-47.5 19t-19.5 46q0 29 19.5 49t47.5 20q27 0 46.5 -20t19.5 -47z" />
    <glyph glyph-name="uni01CA" unicode="&#x1ca;" horiz-adv-x="921" 
d="M649 688l-146 -688h-101l-113 381q-41 138 -45 177q-25 -155 -31 -186l-75 -372h-98l146 688h110l120 -397q28 -95 33 -158q0 2 6 38t13.5 82.5t15.5 84.5l71 350h94zM928 688l-121 -566q-23 -105 -53 -152q-45 -72 -151 -108l-35 57q61 25 97 72q24 31 44 125l121 572
h98z" />
    <glyph glyph-name="uni01CB" unicode="&#x1cb;" horiz-adv-x="912" 
d="M649 688l-146 -688h-101l-113 381q-41 138 -45 177q-25 -155 -31 -186l-75 -372h-98l146 688h110l120 -397q28 -95 33 -158q0 2 6 38t13.5 82.5t15.5 84.5l71 350h94zM883 514l-106 -501q-20 -98 -62 -146q-38 -44 -107 -71l-32 59q49 20 71 54q22 33 38 106l102 481z
M933 659q0 -28 -19 -47.5t-47 -19.5t-47.5 19t-19.5 46q0 29 19.5 49t47.5 20q27 0 46.5 -20t19.5 -47z" />
    <glyph glyph-name="uni01CC" unicode="&#x1cc;" horiz-adv-x="825" 
d="M500 413q0 -19 -5 -42l-79 -371h-92l71 336q8 38 8 52q0 45 -45 45q-32 0 -73.5 -26t-84.5 -80l-69 -327h-91l76 353q10 47 10 76q0 26 -7 50l86 38q12 -31 12 -62q0 -16 -5 -41q78 99 188 99q46 0 73 -27t27 -73zM796 514l-106 -501q-20 -98 -62 -146q-38 -44 -107 -71
l-32 59q49 20 71 54q22 33 38 106l102 481zM846 659q0 -28 -19 -47.5t-47 -19.5t-47.5 19t-19.5 46q0 29 19.5 49t47.5 20q27 0 46.5 -20t19.5 -47z" />
    <glyph glyph-name="uni01F1" unicode="&#x1f1;" horiz-adv-x="1156" 
d="M607 439q0 -89 -40.5 -192.5t-98.5 -158.5q-51 -48 -108.5 -68t-143.5 -20h-176l146 688h151q81 0 125.5 -12t80.5 -45q64 -58 64 -192zM503 432q0 82 -25 122q-21 33 -50.5 44.5t-82.5 11.5h-78l-112 -530h72q126 0 180 71q46 60 71 141.5t25 139.5zM1199 621l-384 -480
q-11 -14 -29.5 -34t-23.5 -27q36 2 61 2h261l-32 -82h-415v70l389 474q40 48 57 65q-28 -2 -71 -2h-244l33 81h398v-67z" />
    <glyph glyph-name="uni01F2" unicode="&#x1f2;" horiz-adv-x="1049" 
d="M607 439q0 -89 -40.5 -192.5t-98.5 -158.5q-51 -48 -108.5 -68t-143.5 -20h-176l146 688h151q81 0 125.5 -12t80.5 -45q64 -58 64 -192zM503 432q0 82 -25 122q-21 33 -50.5 44.5t-82.5 11.5h-78l-112 -530h72q126 0 180 71q46 60 71 141.5t25 139.5zM1061 436l-337 -368
h263l-37 -68h-348l2 66l340 365h-229l3 71h343v-66z" />
    <glyph glyph-name="uni01F3" unicode="&#x1f3;" horiz-adv-x="981" 
d="M578 718l-118 -550q-12 -58 -12 -86q0 -35 19 -60l-79 -38q-29 32 -29 79v13q-67 -85 -163 -85q-144 0 -144 171q0 77 29 150.5t82 126.5q35 35 81.5 53.5t89.5 18.5q70 0 104 -18q0 1 3 14t7 32.5t6 27.5l34 166zM420 414q-35 21 -89 21q-27 0 -56.5 -14t-50.5 -37
q-31 -36 -53 -103t-22 -122q0 -91 68 -91q40 0 81 27t71 79zM993 436l-337 -368h263l-37 -68h-348l2 66l340 365h-229l3 71h343v-66z" />
    <glyph glyph-name="Aringacute" unicode="&#x1fa;" horiz-adv-x="572" 
d="M522 0h-103l-18 199h-243l-104 -199h-104l376 689h118zM393 279l-17 171q-12 123 -12 147q-1 -1 -8.5 -17t-19.5 -40l-20 -40l-116 -221h193zM498 819q0 -44 -31 -75t-75 -31t-75 31t-31 75t31 75t75 31t75 -31t31 -75zM447 819q0 23 -16 39.5t-39 16.5t-39 -16.5
t-16 -39.5t16 -39.5t39 -16.5t39 16.5t16 39.5zM561 1026l-229 -101l-29 54l214 131z" />
    <glyph glyph-name="aringacute" unicode="&#x1fb;" horiz-adv-x="542" 
d="M506 475q-17 -56 -28 -110l-43 -202q-8 -40 -8 -60q0 -36 26 -64l-75 -57q-37 36 -37 88v9q-57 -89 -164 -89q-55 0 -89.5 40.5t-34.5 118.5q0 79 28 156.5t77 126.5q83 83 200 83q89 0 148 -40zM402 429q-22 12 -54 12q-41 0 -71.5 -14.5t-60.5 -50.5q-34 -40 -51 -103
t-17 -123q0 -84 64 -84q37 0 75 31.5t61 78.5zM480 659q0 -44 -31 -75t-75 -31t-75 31t-31 75t31 75t75 31t75 -31t31 -75zM429 659q0 23 -16 39.5t-39 16.5t-39 -16.5t-16 -39.5t16 -39.5t39 -16.5t39 16.5t16 39.5zM527 866l-229 -101l-29 54l214 131z" />
    <glyph glyph-name="AEacute" unicode="&#x1fc;" horiz-adv-x="813" 
d="M872 688l-30 -79h-265l-44 -209h226l-17 -82h-225l-50 -235h293l-18 -83h-391l42 199h-215l-163 -199h-115l567 688h405zM473 576l-231 -297h168zM830 824l-229 -101l-29 54l214 131z" />
    <glyph glyph-name="aeacute" unicode="&#x1fd;" horiz-adv-x="783" 
d="M756 384q0 -59 -50 -107q-62 -59 -211 -59q-14 0 -62 3q-7 -30 -7 -58q0 -48 27 -74.5t69 -26.5q81 0 147 55l31 -57q-78 -72 -203 -72q-92 0 -142 78q-68 -81 -171 -81q-71 0 -107 36t-36 91q0 82 69 134.5t195 52.5q28 0 58 -3l11 45q6 24 6 49q0 48 -64 48
q-80 0 -167 -58l-30 66q117 68 227 68q83 0 111 -64q67 65 153 65q69 0 107.5 -33.5t38.5 -97.5zM349 231q-16 2 -40 2q-81 0 -125.5 -27.5t-44.5 -78.5q0 -34 19 -53.5t50 -19.5q58 0 95 47q19 24 46 130zM662 379q0 65 -71 65q-46 0 -85.5 -41.5t-57.5 -114.5q11 -1 48 -1
q106 0 142 36q24 24 24 56zM600 663l-229 -101l-29 54l214 131z" />
    <glyph glyph-name="Oslashacute" unicode="&#x1fe;" horiz-adv-x="686" 
d="M719 726l-96 -117q37 -59 37 -146q0 -127 -48.5 -243.5t-133.5 -177.5q-76 -54 -187 -54q-86 0 -140 42l-93 -114l-48 37l99 122q-38 62 -38 157q0 115 42 219t105 165q86 84 222 84q87 0 142 -44l87 106zM523 583q-33 41 -100 41q-97 0 -153 -76q-42 -57 -68.5 -148.5
t-26.5 -186.5q0 -22 6 -50zM554 475q0 27 -4 43l-342 -418q33 -39 102 -39q78 0 133 58q47 49 79 156.5t32 199.5zM657 824l-229 -101l-29 54l214 131z" />
    <glyph glyph-name="oslashacute" unicode="&#x1ff;" horiz-adv-x="542" 
d="M546 541l-76 -93q31 -46 31 -115q0 -147 -78 -247.5t-205 -100.5q-62 0 -103 27l-69 -83l-43 33l73 89q-30 45 -30 115q0 148 80 247t201 99q62 0 103 -26l71 87zM400 332q0 17 -2 27l-228 -279q20 -23 65 -23q75 0 119 81.5t46 193.5zM374 417q-22 23 -62 23
q-73 0 -118 -78.5t-48 -191.5q0 -22 2 -32zM509 663l-229 -101l-29 54l214 131z" />
    <glyph glyph-name="Scommaaccent" unicode="&#x218;" horiz-adv-x="574" 
d="M581 643l-53 -70q-70 52 -152 52q-63 0 -104 -31t-41 -77q0 -38 17 -59.5t64 -40.5l74 -30q64 -26 92 -66.5t28 -102.5q0 -99 -81 -165.5t-215 -66.5q-112 0 -200 57l49 75q80 -52 168 -52q77 0 123.5 37t46.5 95q0 41 -18.5 65t-69.5 44l-65 25q-62 24 -90.5 61.5
t-28.5 98.5q0 92 76 152.5t188 60.5q116 0 192 -62zM271 -118q0 -56 -50 -103q-31 -30 -79 -48l-23 37q55 23 67 64q-16 3 -27.5 17t-11.5 35q0 27 17.5 44t46.5 17q26 0 43 -18t17 -45z" />
    <glyph glyph-name="scommaaccent" unicode="&#x219;" horiz-adv-x="472" 
d="M442 480l-37 -68q-64 36 -119 36q-46 0 -75 -18t-29 -51q0 -24 12 -38t42 -27l62 -25q104 -42 104 -123t-62 -131t-163 -50q-103 0 -179 51l38 69q70 -48 152 -48q48 0 79.5 22t31.5 57q0 28 -14 44.5t-50 31.5l-58 24q-50 21 -73.5 49t-23.5 72q0 70 57.5 116.5
t154.5 46.5q89 0 150 -40zM228 -118q0 -56 -50 -103q-31 -30 -79 -48l-23 37q55 23 67 64q-16 3 -27.5 17t-11.5 35q0 27 17.5 44t46.5 17q26 0 43 -18t17 -45z" />
    <glyph glyph-name="uni021A" unicode="&#x21a;" horiz-adv-x="469" 
d="M585 688l-27 -81h-181l-129 -607h-95l129 607h-181l18 81h466zM243 -119q0 -56 -50 -103q-31 -30 -79 -48l-23 37q55 23 67 64q-16 3 -27.5 17t-11.5 35q0 27 17.5 44t46.5 17q26 0 43 -18t17 -45z" />
    <glyph glyph-name="uni021B" unicode="&#x21b;" horiz-adv-x="308" 
d="M360 502l-35 -68h-103l-60 -283q-7 -37 -7 -52q0 -25 11.5 -35.5t37.5 -10.5q25 0 52 10v-57q-46 -21 -98 -21q-47 0 -71.5 22t-24.5 61q0 40 7 71l62 295h-61l13 68h62q16 66 34 124l100 22q-27 -74 -41 -146h122zM192 -118q0 -56 -50 -103q-31 -30 -79 -48l-23 37
q55 23 67 64q-16 3 -27.5 17t-11.5 35q0 27 17.5 44t46.5 17q26 0 43 -18t17 -45z" />
    <glyph glyph-name="uni0237" unicode="&#x237;" horiz-adv-x="269" 
d="M240 514l-106 -501q-20 -98 -62 -146q-38 -44 -107 -71l-32 59q49 20 71 54q22 33 38 106l102 481z" />
    <glyph glyph-name="uni0259" unicode="&#x259;" horiz-adv-x="500" 
d="M26 120q0 62 46 105q63 60 214 60q12 0 33.5 -1.5t28.5 -1.5q7 30 7 58q0 48 -27 74.5t-69 26.5q-79 0 -145 -56l-33 57q42 38 88.5 55.5t114.5 17.5q77 0 124 -48.5t47 -133.5q0 -75 -29.5 -150t-81.5 -125q-73 -70 -167 -70q-72 0 -111.5 34.5t-39.5 97.5zM119 124
q0 -65 71 -65q46 0 85.5 41t57.5 114q-22 2 -48 2q-106 0 -142 -36q-24 -24 -24 -56z" />
    <glyph glyph-name="uni02BB" unicode="&#x2bb;" horiz-adv-x="270" 
d="M312 668q-30 -13 -54 -37.5t-27 -50.5q20 -2 34 -22t14 -45q0 -34 -22.5 -55.5t-55.5 -21.5q-34 0 -56 23t-22 61q0 75 82 147q26 23 79 47z" />
    <glyph glyph-name="afii57929" unicode="&#x2bc;" horiz-adv-x="270" 
d="M289 617q0 -75 -82 -147q-26 -23 -79 -47l-28 46q30 13 54 37.5t27 50.5q-20 2 -34 22t-14 45q0 34 22.5 55.5t55.5 21.5q34 0 56 -23t22 -61z" />
    <glyph glyph-name="circumflex" unicode="&#x2c6;" horiz-adv-x="387" 
d="M446 610l-40 -51l-121 83l-153 -83l-33 51l201 135z" />
    <glyph glyph-name="caron" unicode="&#x2c7;" horiz-adv-x="387" 
d="M465 692l-200 -135l-147 135l41 51l121 -82l153 82z" />
    <glyph glyph-name="breve" unicode="&#x2d8;" horiz-adv-x="380" 
d="M457 693q-16 -17 -41.5 -39.5t-72 -49t-81.5 -26.5q-50 0 -90.5 42t-55.5 73l45 44q10 -12 24.5 -25t43 -26.5t57.5 -13.5q54 0 149 65z" />
    <glyph glyph-name="dotaccent" unicode="&#x2d9;" horiz-adv-x="175" 
d="M243 652q0 -28 -19.5 -47t-47.5 -19t-47 19t-19 47t19.5 47.5t47.5 19.5q27 0 46.5 -19.5t19.5 -47.5z" />
    <glyph glyph-name="ring" unicode="&#x2da;" horiz-adv-x="256" 
d="M324 659q0 -44 -31 -75t-75 -31t-75 31t-31 75t31 75t75 31t75 -31t31 -75zM273 659q0 23 -16 39.5t-39 16.5t-39 -16.5t-16 -39.5t16 -39.5t39 -16.5t39 16.5t16 39.5z" />
    <glyph glyph-name="ogonek" unicode="&#x2db;" horiz-adv-x="244" 
d="M126 -174q-48 -24 -88 -24q-41 0 -62.5 19t-21.5 50q0 7 2 19q9 42 38 76.5t56 52.5l50 -32q-26 -15 -50.5 -44.5t-24.5 -53.5q0 -26 27 -26t61 15z" />
    <glyph glyph-name="tilde" unicode="&#x2dc;" horiz-adv-x="391" 
d="M461 653q-34 -33 -64 -48.5t-72 -15.5q-30 0 -61 19t-59 19q-31 0 -76 -39l-23 53q34 34 63.5 49t69.5 15q30 0 61.5 -19t60.5 -19q34 0 77 38z" />
    <glyph glyph-name="hungarumlaut" unicode="&#x2dd;" horiz-adv-x="416" 
d="M297 727l-160 -203l-53 24l131 215zM493 708l-191 -179l-44 35l164 195z" />
    <glyph glyph-name="gravecomb" unicode="&#x300;" 
d="M372 616l-32 -53l-221 100l49 84z" />
    <glyph glyph-name="acutecomb" unicode="&#x301;" 
d="M389 663l-229 -101l-29 54l214 131z" />
    <glyph glyph-name="uni0302" unicode="&#x302;" 
d="M446 610l-40 -51l-121 83l-153 -83l-33 51l201 135z" />
    <glyph glyph-name="tildecomb" unicode="&#x303;" 
d="M461 653q-34 -33 -64 -48.5t-72 -15.5q-30 0 -61 19t-59 19q-31 0 -76 -39l-23 53q34 34 63.5 49t69.5 15q30 0 61.5 -19t60.5 -19q34 0 77 38z" />
    <glyph glyph-name="uni0304" unicode="&#x304;" 
d="M412 739l-13 -60h-284l13 60h284z" />
    <glyph glyph-name="uni0306" unicode="&#x306;" 
d="M457 693q-16 -17 -41.5 -39.5t-72 -49t-81.5 -26.5q-50 0 -90.5 42t-55.5 73l45 44q10 -12 24.5 -25t43 -26.5t57.5 -13.5q54 0 149 65z" />
    <glyph glyph-name="uni0307" unicode="&#x307;" 
d="M243 652q0 -28 -19.5 -47t-47.5 -19t-47 19t-19 47t19.5 47.5t47.5 19.5q27 0 46.5 -19.5t19.5 -47.5z" />
    <glyph glyph-name="uni0308" unicode="&#x308;" 
d="M458 625q0 -25 -17 -42.5t-41 -17.5q-25 0 -42.5 17.5t-17.5 42.5q0 24 17 41t42 17q24 0 41.5 -17t17.5 -41zM250 625q0 -25 -17 -42.5t-41 -17.5q-25 0 -42 17.5t-17 42.5q0 24 17 41t41 17q25 0 42 -17t17 -41z" />
    <glyph glyph-name="uni030A" unicode="&#x30a;" 
d="M324 659q0 -44 -31 -75t-75 -31t-75 31t-31 75t31 75t75 31t75 -31t31 -75zM273 659q0 23 -16 39.5t-39 16.5t-39 -16.5t-16 -39.5t16 -39.5t39 -16.5t39 16.5t16 39.5z" />
    <glyph glyph-name="uni030B" unicode="&#x30b;" 
d="M297 727l-160 -203l-53 24l131 215zM493 708l-191 -179l-44 35l164 195z" />
    <glyph glyph-name="uni030C" unicode="&#x30c;" 
d="M465 692l-200 -135l-147 135l41 51l121 -82l153 82z" />
    <glyph glyph-name="uni0312" unicode="&#x312;" 
d="M2 649q0 56 50 103q31 30 79 48l23 -37q-55 -23 -67 -64q16 -3 27.5 -17t11.5 -35q0 -27 -17.5 -44t-46.5 -17q-26 0 -43 18t-17 45z" />
    <glyph glyph-name="uni0313" unicode="&#x313;" 
d="M-2 625q0 -56 -50 -103q-31 -30 -79 -48l-23 37q55 23 67 64q-16 3 -27.5 17t-11.5 35q0 27 17.5 44t46.5 17q26 0 43 -18t17 -45z" />
    <glyph glyph-name="uni0326" unicode="&#x326;" 
d="M154 -118q0 -56 -50 -103q-31 -30 -79 -48l-23 37q55 23 67 64q-16 3 -27.5 17t-11.5 35q0 27 17.5 44t46.5 17q26 0 43 -18t17 -45z" />
    <glyph glyph-name="uni0327" unicode="&#x327;" 
d="M140 -109q-6 -34 -38.5 -61.5t-80.5 -27.5q-39 0 -78 24l34 51q32 -15 56 -15q15 0 27 8.5t12 23.5q0 10 -8.5 16.5t-20.5 6.5q-19 0 -39 -2l46 97l61 -7l-22 -44q52 -8 52 -54q0 -10 -1 -16z" />
    <glyph glyph-name="uni0328" unicode="&#x328;" 
d="M126 -174q-48 -24 -88 -24q-41 0 -62.5 19t-21.5 50q0 7 2 19q9 42 38 76.5t56 52.5l50 -32q-26 -15 -50.5 -44.5t-24.5 -53.5q0 -26 27 -26t61 15z" />
    <glyph glyph-name="uni037E" unicode="&#x37e;" horiz-adv-x="321" 
d="M197 49q0 -75 -82 -147q-26 -23 -79 -47l-28 46q30 13 54 37.5t27 50.5q-20 2 -34 22t-14 45q0 34 22.5 55.5t55.5 21.5q34 0 56 -23t22 -61zM253 371q0 -31 -21.5 -52t-50.5 -21q-30 0 -51 21t-21 52q0 30 21 50.5t51 20.5t51 -20.5t21 -50.5z" />
    <glyph glyph-name="tonos" unicode="&#x384;" horiz-adv-x="347" 
d="M306 708l-146 -146l-40 31l126 164z" />
    <glyph glyph-name="dieresistonos" unicode="&#x385;" horiz-adv-x="506" 
d="M404 741l-146 -146l-40 31l126 164zM458 625q0 -25 -17 -42.5t-41 -17.5q-25 0 -42.5 17.5t-17.5 42.5q0 24 17 41t42 17q24 0 41.5 -17t17.5 -41zM190 625q0 -25 -17 -42.5t-41 -17.5q-25 0 -42 17.5t-17 42.5q0 24 17 41t41 17q25 0 42 -17t17 -41z" />
    <glyph glyph-name="Alphatonos" unicode="&#x386;" horiz-adv-x="572" 
d="M132 651l-146 -146l-40 31l126 164zM522 0h-103l-18 199h-243l-104 -199h-104l376 689h118zM393 279l-17 171q-12 123 -12 147q-1 -1 -8.5 -17t-19.5 -40l-20 -40l-116 -221h193z" />
    <glyph glyph-name="anoteleia" unicode="&#x387;" horiz-adv-x="307" 
d="M234 278q0 -30 -21 -51t-51 -21t-51 21t-21 51t21 51t51 21t51 -21t21 -51z" />
    <glyph glyph-name="Epsilontonos" unicode="&#x388;" horiz-adv-x="508" 
d="M72 651l-146 -146l-40 31l126 164zM567 688l-31 -79h-269l-44 -209h226l-18 -82h-226l-49 -235h292l-18 -83h-390l146 688h381z" />
    <glyph glyph-name="Etatonos" unicode="&#x389;" horiz-adv-x="639" 
d="M72 651l-146 -146l-40 31l126 164zM645 688l-146 -688h-98l70 326h-266l-70 -326h-95l146 688h95l-60 -282h267l60 282h97z" />
    <glyph glyph-name="Iotatonos" unicode="&#x38a;" horiz-adv-x="277" 
d="M72 651l-146 -146l-40 31l126 164zM283 688l-147 -688h-96l146 688h97z" />
    <glyph glyph-name="Omicrontonos" unicode="&#x38c;" horiz-adv-x="688" 
d="M661 463q0 -129 -48 -246t-134 -175q-80 -54 -187 -54q-110 0 -165 65t-55 179q0 116 42 220t105 164q46 42 97 63t125 21q104 0 162 -62.5t58 -174.5zM555 476q0 147 -131 147q-98 0 -153 -75q-42 -57 -68 -148.5t-26 -186.5q0 -151 134 -151q79 0 133 57q47 50 79 158
t32 199zM102 651l-146 -146l-40 31l126 164z" />
    <glyph glyph-name="Upsilontonos" unicode="&#x38e;" horiz-adv-x="543" 
d="M639 688l-311 -416l-58 -272h-101l59 276l-132 412h114l67 -243q15 -55 18 -80l54 79l174 244h116zM72 651l-146 -146l-40 31l126 164z" />
    <glyph glyph-name="Omegatonos" unicode="&#x38f;" horiz-adv-x="708" 
d="M681 461q0 -109 -60.5 -215.5t-148.5 -163.5h133l-32 -82h-217v73q88 43 153.5 164.5t65.5 231.5q0 153 -139 153q-98 0 -163 -78q-41 -50 -62 -123t-21 -144q0 -66 22.5 -122t65.5 -82l-16 -73h-211v82h119q-87 76 -87 208q0 94 36.5 181t103.5 144q98 85 227 85
q110 0 170.5 -65.5t60.5 -173.5zM102 651l-146 -146l-40 31l126 164z" />
    <glyph glyph-name="iotadieresistonos" unicode="&#x390;" horiz-adv-x="275" 
d="M217 439q0 -39 -13 -100l-44 -204q-8 -35 -8 -52q0 -25 23 -25q13 0 18 2l5 -59q-29 -12 -67 -12q-37 0 -56.5 18t-19.5 50q0 21 8 56l47 218q21 99 6 149l88 37q13 -31 13 -78zM346 741l-146 -146l-40 31l126 164zM400 625q0 -25 -17 -42.5t-41 -17.5q-25 0 -42.5 17.5
t-17.5 42.5q0 24 17 41t42 17q24 0 41.5 -17t17.5 -41zM132 625q0 -25 -17 -42.5t-41 -17.5q-25 0 -42 17.5t-17 42.5q0 24 17 41t41 17q25 0 42 -17t17 -41z" />
    <glyph glyph-name="Alpha" unicode="&#x391;" horiz-adv-x="572" 
d="M522 0h-103l-18 199h-243l-104 -199h-104l376 689h118zM393 279l-17 171q-12 123 -12 147q-1 -1 -8.5 -17t-19.5 -40l-20 -40l-116 -221h193z" />
    <glyph glyph-name="Beta" unicode="&#x392;" horiz-adv-x="596" 
d="M584 538q0 -62 -39 -107.5t-115 -65.5q57 -11 85.5 -49.5t28.5 -94.5q0 -91 -82 -161q-40 -34 -88 -47t-138 -13h-196l146 688h195q203 0 203 -150zM438 218q0 55 -29 77.5t-94 22.5h-113l-51 -239h124q69 0 111 32q22 17 37 46t15 61zM477 520q0 43 -26 65t-86 22h-102
l-44 -209h113q67 0 100 27q45 35 45 95z" />
    <glyph glyph-name="Gamma" unicode="&#x393;" horiz-adv-x="411" 
d="M537 688l-32 -81h-238l-129 -607h-98l146 688h351z" />
    <glyph glyph-name="uni0394" unicode="&#x394;" horiz-adv-x="605" 
d="M553 80l-23 -80h-545v63l364 625h114zM449 80l-48 370q-11 75 -17 144h-1q1 0 -17 -34t-32 -60l-235 -420h350z" />
    <glyph glyph-name="Epsilon" unicode="&#x395;" horiz-adv-x="508" 
d="M567 688l-31 -79h-269l-44 -209h226l-18 -82h-226l-49 -235h292l-18 -83h-390l146 688h381z" />
    <glyph glyph-name="Zeta" unicode="&#x396;" horiz-adv-x="523" 
d="M566 621l-384 -480q-11 -14 -29.5 -34t-23.5 -27q36 2 61 2h261l-32 -82h-415v70l389 474q40 48 57 65q-28 -2 -71 -2h-244l33 81h398v-67z" />
    <glyph glyph-name="Eta" unicode="&#x397;" horiz-adv-x="639" 
d="M645 688l-146 -688h-98l70 326h-266l-70 -326h-95l146 688h95l-60 -282h267l60 282h97z" />
    <glyph glyph-name="Theta" unicode="&#x398;" horiz-adv-x="688" 
d="M661 463q0 -129 -48 -246t-134 -175q-80 -54 -187 -54q-110 0 -165 65t-55 179q0 116 42 220t105 164q46 42 97 63t125 21q104 0 162 -62.5t58 -174.5zM535 319h-350q-8 -56 -8 -106q0 -151 134 -151q79 0 133 57q56 59 91 200zM555 476q0 147 -131 147q-98 0 -153 -75
q-43 -59 -68 -148h347q5 45 5 76z" />
    <glyph glyph-name="Iota" unicode="&#x399;" horiz-adv-x="277" 
d="M283 688l-147 -688h-96l146 688h97z" />
    <glyph glyph-name="Kappa" unicode="&#x39a;" horiz-adv-x="571" 
d="M642 671l-317 -311l191 -351l-110 -20l-189 376l334 340zM284 688l-146 -688h-98l146 688h98z" />
    <glyph glyph-name="Lambda" unicode="&#x39b;" horiz-adv-x="544" 
d="M494 0h-102l-35 451q-10 130 -10 145q-36 -83 -43 -96l-251 -500h-103l361 688h118z" />
    <glyph glyph-name="Mu" unicode="&#x39c;" horiz-adv-x="819" 
d="M786 688l-87 -688h-95l63 469q10 70 20 117q-16 -39 -49 -108l-240 -478h-82l-29 456q-6 92 -5 131q-1 -3 -14.5 -55t-20.5 -76l-132 -456h-95l208 688h135l26 -422q4 -67 1 -118q26 66 49 113l211 427h136z" />
    <glyph glyph-name="Nu" unicode="&#x39d;" horiz-adv-x="643" 
d="M649 688l-146 -688h-101l-113 381q-41 138 -45 177q-25 -155 -31 -186l-75 -372h-98l146 688h110l120 -397q28 -95 33 -158q0 2 6 38t13.5 82.5t15.5 84.5l71 350h94z" />
    <glyph glyph-name="Xi" unicode="&#x39e;" horiz-adv-x="528" 
d="M483 0h-443l23 89h420v-89zM587 688l-21 -84h-415v84h436zM516 404l-22 -85h-373l21 85h374z" />
    <glyph glyph-name="Omicron" unicode="&#x39f;" horiz-adv-x="688" 
d="M661 463q0 -129 -48 -246t-134 -175q-80 -54 -187 -54q-110 0 -165 65t-55 179q0 116 42 220t105 164q46 42 97 63t125 21q104 0 162 -62.5t58 -174.5zM555 476q0 147 -131 147q-98 0 -153 -75q-42 -57 -68 -148.5t-26 -186.5q0 -151 134 -151q79 0 133 57q47 50 79 158
t32 199z" />
    <glyph glyph-name="Pi" unicode="&#x3a0;" horiz-adv-x="627" 
d="M633 688l-146 -688h-98l130 607h-254l-130 -607h-95l146 688h447z" />
    <glyph glyph-name="Rho" unicode="&#x3a1;" horiz-adv-x="559" 
d="M585 529q0 -138 -112 -217q-61 -43 -172 -43h-108l-57 -269h-96l146 688h180q110 0 161 -38q58 -43 58 -121zM480 508q0 51 -29.5 75.5t-98.5 24.5h-87l-55 -260h103q73 0 112 36q55 52 55 124z" />
    <glyph glyph-name="Sigma" unicode="&#x3a3;" horiz-adv-x="513" 
d="M572 688l-33 -81h-236q-47 0 -54 1q13 -16 35 -53l104 -182l-220 -252q-9 -11 -39 -41q42 2 52 2h263l-33 -82h-407v71l269 303l-137 241l29 73h407z" />
    <glyph glyph-name="Tau" unicode="&#x3a4;" horiz-adv-x="469" 
d="M585 688l-27 -81h-181l-129 -607h-95l129 607h-181l18 81h466z" />
    <glyph glyph-name="Upsilon" unicode="&#x3a5;" horiz-adv-x="543" 
d="M639 688l-311 -416l-58 -272h-101l59 276l-132 412h114l67 -243q15 -55 18 -80l54 79l174 244h116z" />
    <glyph glyph-name="Phi" unicode="&#x3a6;" horiz-adv-x="754" 
d="M722 408q0 -143 -98.5 -231.5t-242.5 -98.5l-16 -78h-96l16 79q-113 8 -170.5 63.5t-57.5 143.5q0 144 99.5 234.5t243.5 98.5l15 69h97l-15 -69q116 -9 170.5 -66.5t54.5 -144.5zM385 544q-102 -15 -161 -80t-59 -165q0 -126 136 -144zM613 400q0 122 -133 141l-83 -387
q103 13 159.5 78.5t56.5 167.5z" />
    <glyph glyph-name="Chi" unicode="&#x3a7;" horiz-adv-x="501" 
d="M587 688l-250 -328l142 -360h-112l-102 281l-206 -281h-120l291 370l-121 318h109l82 -235l169 235h118z" />
    <glyph glyph-name="Psi" unicode="&#x3a8;" horiz-adv-x="744" 
d="M775 688l-59 -276q-26 -120 -89 -180q-73 -71 -224 -80l-32 -152h-96l33 155q-90 5 -151 51t-61 125q0 41 8 81l59 276h98l-55 -259q-8 -37 -8 -70q0 -114 126 -128l97 457h96l-97 -457q115 17 163 95q27 43 39 103l55 259h98z" />
    <glyph glyph-name="uni03A9" unicode="&#x3a9;" horiz-adv-x="708" 
d="M681 461q0 -109 -60.5 -215.5t-148.5 -163.5h133l-32 -82h-217v73q88 43 153.5 164.5t65.5 231.5q0 153 -139 153q-98 0 -163 -78q-41 -50 -62 -123t-21 -144q0 -66 22.5 -122t65.5 -82l-16 -73h-211v82h119q-87 76 -87 208q0 94 36.5 181t103.5 144q98 85 227 85
q110 0 170.5 -65.5t60.5 -173.5z" />
    <glyph glyph-name="Iotadieresis" unicode="&#x3aa;" horiz-adv-x="277" 
d="M283 688l-147 -688h-96l146 688h97zM194 786q0 -25 -17 -42.5t-41 -17.5q-25 0 -42 17.5t-17 42.5q0 24 17 41t41 17q25 0 42 -17t17 -41zM402 786q0 -25 -17 -42.5t-41 -17.5q-25 0 -42 17.5t-17 42.5q0 24 17 41t41 17q25 0 42 -17t17 -41z" />
    <glyph glyph-name="Upsilondieresis" unicode="&#x3ab;" horiz-adv-x="543" 
d="M639 688l-311 -416l-58 -272h-101l59 276l-132 412h114l67 -243q15 -55 18 -80l54 79l174 244h116zM323 786q0 -25 -17 -42.5t-41 -17.5q-25 0 -42 17.5t-17 42.5q0 24 17 41t41 17q25 0 42 -17t17 -41zM531 786q0 -25 -17 -42.5t-41 -17.5q-25 0 -42 17.5t-17 42.5
q0 24 17 41t41 17q25 0 42 -17t17 -41z" />
    <glyph glyph-name="alphatonos" unicode="&#x3ac;" horiz-adv-x="542" 
d="M513 708l-146 -146l-40 31l126 164zM506 475q-17 -56 -28 -110l-43 -202q-8 -40 -8 -60q0 -36 26 -64l-75 -57q-37 36 -37 88v9q-57 -89 -164 -89q-55 0 -89.5 40.5t-34.5 118.5q0 79 28 156.5t77 126.5q83 83 200 83q89 0 148 -40zM402 429q-22 12 -54 12
q-41 0 -71.5 -14.5t-60.5 -50.5q-34 -40 -51 -103t-17 -123q0 -84 64 -84q37 0 75 31.5t61 78.5z" />
    <glyph glyph-name="epsilontonos" unicode="&#x3ad;" horiz-adv-x="484" 
d="M494 446l-45 -51q-62 55 -141 55q-38 0 -71.5 -25t-33.5 -64q0 -27 20.5 -41.5t54.5 -14.5h77l-15 -70h-74q-54 0 -92 -29.5t-38 -81.5q0 -33 27.5 -50t67.5 -17q101 0 183 53l29 -56q-65 -43 -116 -56t-127 -13q-65 0 -116.5 29t-51.5 93q0 62 39.5 107.5t102.5 61.5
q-70 17 -70 80q0 78 65.5 121t150.5 43q106 0 174 -74zM476 708l-146 -146l-40 31l126 164z" />
    <glyph glyph-name="etatonos" unicode="&#x3ae;" horiz-adv-x="556" 
d="M501 416q0 -20 -5 -40l-55 -241q-9 -39 -9 -52q0 -25 24 -25q13 0 18 2l5 -59q-29 -12 -66 -12t-57 17.5t-20 49.5q0 17 9 57l49 225q10 46 10 52q0 43 -46 43q-32 0 -73.5 -26t-84.5 -80l-69 -327h-91l76 353q16 77 3 126l86 38q19 -52 7 -103q78 99 188 99q47 0 74 -26
t27 -71zM486 708l-146 -146l-40 31l126 164z" />
    <glyph glyph-name="iotatonos" unicode="&#x3af;" horiz-adv-x="275" 
d="M217 439q0 -39 -13 -100l-44 -204q-8 -35 -8 -52q0 -25 23 -25q13 0 18 2l5 -59q-29 -12 -67 -12q-37 0 -56.5 18t-19.5 50q0 21 8 56l47 218q21 99 6 149l88 37q13 -31 13 -78zM348 708l-146 -146l-40 31l126 164z" />
    <glyph glyph-name="upsilondieresistonos" unicode="&#x3b0;" horiz-adv-x="546" 
d="M517 511l-75 -350q-17 -78 -75.5 -127.5t-151.5 -49.5q-79 0 -119.5 35.5t-40.5 95.5q0 15 6 45l72 336l94 17l-69 -324q-8 -42 -8 -60q0 -72 81 -72q97 0 126 132l66 305zM484 741l-146 -146l-40 31l126 164zM538 625q0 -25 -17 -42.5t-41 -17.5q-25 0 -42.5 17.5
t-17.5 42.5q0 24 17 41t42 17q24 0 41.5 -17t17.5 -41zM270 625q0 -25 -17 -42.5t-41 -17.5q-25 0 -42 17.5t-17 42.5q0 24 17 41t41 17q25 0 42 -17t17 -41z" />
    <glyph glyph-name="alpha" unicode="&#x3b1;" horiz-adv-x="542" 
d="M506 475q-17 -56 -28 -110l-43 -202q-8 -40 -8 -60q0 -36 26 -64l-75 -57q-37 36 -37 88v9q-57 -89 -164 -89q-55 0 -89.5 40.5t-34.5 118.5q0 79 28 156.5t77 126.5q83 83 200 83q89 0 148 -40zM402 429q-22 12 -54 12q-41 0 -71.5 -14.5t-60.5 -50.5q-34 -40 -51 -103
t-17 -123q0 -84 64 -84q37 0 75 31.5t61 78.5z" />
    <glyph glyph-name="beta" unicode="&#x3b2;" horiz-adv-x="594" 
d="M554 573q0 -67 -39.5 -116.5t-101.5 -66.5q54 -13 80 -59t26 -103q0 -102 -82 -171t-190 -69q-67 0 -110 24l-41 -203l-97 -20l148 720q41 204 250 204q71 0 114 -39.5t43 -100.5zM461 565q0 79 -87 79q-108 0 -134 -128l-87 -426q33 -28 101 -28q73 0 119.5 49.5
t46.5 120.5q0 55 -34 86t-102 31h-9l13 65q78 0 125.5 41.5t47.5 109.5z" />
    <glyph glyph-name="gamma" unicode="&#x3b3;" horiz-adv-x="454" 
d="M489 502l-282 -501q-1 -12 -17.5 -81t-30.5 -111l-94 -20q62 196 62 322q0 198 -19 305q-2 8 -11.5 14.5t-22.5 6.5q-15 0 -25 -6l-6 58q46 26 86 26q58 0 67 -71q16 -113 14 -295l183 353h96z" />
    <glyph glyph-name="delta" unicode="&#x3b4;" horiz-adv-x="540" 
d="M547 688l-31 -76h-192q72 -54 122.5 -131.5t50.5 -160.5q0 -143 -76.5 -237.5t-202.5 -94.5q-82 0 -127 46.5t-45 132.5q0 89 27 160.5t89.5 120t155.5 52.5q-72 73 -132 111l31 77h330zM396 329q0 54 -21.5 77t-63.5 23q-43 0 -76.5 -27t-52 -69.5t-27.5 -86.5t-9 -85
q0 -100 89 -100q77 0 119 78t42 190z" />
    <glyph glyph-name="epsilon" unicode="&#x3b5;" horiz-adv-x="484" 
d="M494 446l-45 -51q-62 55 -141 55q-38 0 -71.5 -25t-33.5 -64q0 -27 20.5 -41.5t54.5 -14.5h77l-15 -70h-74q-54 0 -92 -29.5t-38 -81.5q0 -33 27.5 -50t67.5 -17q101 0 183 53l29 -56q-65 -43 -116 -56t-127 -13q-65 0 -116.5 29t-51.5 93q0 62 39.5 107.5t102.5 61.5
q-70 17 -70 80q0 78 65.5 121t150.5 43q106 0 174 -74z" />
    <glyph glyph-name="zeta" unicode="&#x3b6;" horiz-adv-x="453" 
d="M534 688l-25 -72q-45 -31 -87 -64.5t-92 -81.5t-86.5 -94.5t-61.5 -102t-25 -105.5q0 -76 84 -76h51q53 0 81 -25.5t28 -73.5q0 -40 -17.5 -78.5t-36 -61.5t-51.5 -57l-53 34q23 27 35 42t22.5 37.5t10.5 43.5q0 47 -48 47h-51q-74 0 -117 41t-43 103q0 55 23.5 113
t57 104t84 96.5t90 83t89.5 70.5h-245l18 77h365z" />
    <glyph glyph-name="eta" unicode="&#x3b7;" horiz-adv-x="556" 
d="M501 416q0 -20 -5 -40l-55 -241q-9 -39 -9 -52q0 -25 24 -25q13 0 18 2l5 -59q-29 -12 -66 -12t-57 17.5t-20 49.5q0 17 9 57l49 225q10 46 10 52q0 43 -46 43q-32 0 -73.5 -26t-84.5 -80l-69 -327h-91l76 353q16 77 3 126l86 38q19 -52 7 -103q78 99 188 99q47 0 74 -26
t27 -71z" />
    <glyph glyph-name="theta" unicode="&#x3b8;" horiz-adv-x="569" 
d="M534 496q0 -59 -10 -124t-34 -134t-58.5 -124t-88 -90.5t-118.5 -35.5q-58 0 -95 31t-51 75t-14 100q0 74 17.5 157t52 163.5t96.5 133t140 52.5q45 0 78 -17t51 -46.5t26 -64.5t8 -76zM416 327h-241q-20 -80 -20 -138q0 -56 19.5 -94.5t64.5 -38.5q32 0 59.5 21t46 50
t34 70t23 70t14.5 60zM444 505q0 54 -20 90.5t-66 36.5q-35 0 -65.5 -25t-50.5 -66.5t-31.5 -75.5t-19.5 -70h239q14 64 14 110z" />
    <glyph glyph-name="iota" unicode="&#x3b9;" horiz-adv-x="275" 
d="M217 439q0 -39 -13 -100l-44 -204q-8 -35 -8 -52q0 -25 23 -25q13 0 18 2l5 -59q-29 -12 -67 -12q-37 0 -56.5 18t-19.5 50q0 21 8 56l47 218q21 99 6 149l88 37q13 -31 13 -78z" />
    <glyph glyph-name="kappa" unicode="&#x3ba;" horiz-adv-x="489" 
d="M522 482l-223 -206l154 -265l-98 -23l-156 294l240 233zM218 439q0 -39 -13 -100l-72 -339h-92l70 331q21 99 6 149l88 37q13 -31 13 -78z" />
    <glyph glyph-name="lambda" unicode="&#x3bb;" horiz-adv-x="512" 
d="M459 1q-34 -13 -69 -13q-67 0 -72 66l-15 242q-4 60 -4 124h-6q-23 -52 -57 -118l-166 -315l-88 21l184 329q59 104 88 167l35 -5l-8 77q-4 45 -18 65.5t-53 20.5q-29 0 -54 -9v53q48 24 95 24q58 0 83 -43.5t35 -141.5l46 -466q1 -13 5 -17.5t18 -4.5q7 0 16 3z" />
    <glyph glyph-name="uni03BC" unicode="&#x3bc;" horiz-adv-x="557" 
d="M525 511l-77 -363q-9 -42 -9 -64q0 -28 18 -50l-73 -53q-34 32 -35 72q-71 -69 -166 -69q-39 0 -56 17l-41 -192l-95 -20l149 707l97 18l-75 -352q-6 -30 -6 -48q0 -23 13 -36q20 -18 54 -18t71.5 22.5t61.5 56.5l75 355z" />
    <glyph glyph-name="nu" unicode="&#x3bd;" horiz-adv-x="462" 
d="M518 501l-294 -505h-85l-75 501l94 17l39 -315q6 -48 6 -94h1q15 37 46 95l167 302z" />
    <glyph glyph-name="xi" unicode="&#x3be;" horiz-adv-x="475" 
d="M556 688l-27 -76h-151q-50 0 -90 -43t-40 -93q0 -34 24.5 -56.5t68.5 -22.5h93l-15 -69h-77q-77 0 -131 -43t-54 -116q0 -77 94 -77h63q53 0 81 -25.5t28 -73.5q0 -40 -17.5 -78.5t-36 -61.5t-51.5 -57l-53 34q68 74 68 123q0 47 -48 47h-73q-75 0 -117.5 42t-42.5 107
q0 75 54 137t129 78q-41 15 -65 44t-24 65q0 40 30 84t68 55h-91l17 76h386z" />
    <glyph glyph-name="omicron" unicode="&#x3bf;" horiz-adv-x="540" 
d="M501 336q0 -147 -78 -247.5t-205 -100.5q-82 0 -127 47t-45 133q0 148 80 247.5t202 99.5q85 0 129 -47.5t44 -131.5zM400 343q0 99 -88 99q-51 0 -89.5 -41.5t-57.5 -104.5t-19 -135q0 -100 89 -100q52 0 90.5 42t56.5 105t18 135z" />
    <glyph glyph-name="pi" unicode="&#x3c0;" horiz-adv-x="533" 
d="M583 502l-35 -68h-54l-66 -299q-9 -39 -9 -52q0 -25 24 -25q13 0 18 2l5 -59q-29 -12 -66 -12t-57 17.5t-20 49.5q0 17 9 57l70 321h-170l-93 -434h-91l93 434h-66l13 68h495z" />
    <glyph glyph-name="rho" unicode="&#x3c1;" horiz-adv-x="555" 
d="M516 338q0 -86 -28.5 -164t-89.5 -131t-141 -53q-74 0 -120 51l-50 -231l-94 -21l104 488q27 125 88 181.5t162 56.5q84 0 126.5 -48t42.5 -129zM252 66q45 0 78.5 28t51 72.5t25.5 90t8 90.5q0 49 -25 73t-58 24q-56 0 -92.5 -44.5t-56.5 -138.5l-29 -138
q12 -26 39.5 -41.5t58.5 -15.5z" />
    <glyph glyph-name="sigma1" unicode="&#x3c2;" horiz-adv-x="438" 
d="M448 468l-47 -67q-41 36 -95 36q-58 0 -95 -49q-24 -30 -43 -89q-18 -59 -18 -98q0 -80 73 -99q71 -20 95 -37q37 -25 37 -71q0 -58 -33 -110q-21 -34 -72 -87l-53 34q37 43 45 56q23 35 23 67q0 33 -37 44l-42 11q-139 37 -139 167q0 78 33 155q33 78 90 126
q67 58 154 58q74 0 124 -47z" />
    <glyph glyph-name="sigma" unicode="&#x3c3;" horiz-adv-x="553" 
d="M590 502l-35 -68h-84q30 -41 30 -98q0 -147 -78 -247.5t-205 -100.5q-82 0 -127 47t-45 133q0 148 74 241t195 93h275zM400 343q0 51 -23.5 71t-64.5 20q-76 0 -121 -81t-45 -192q0 -100 89 -100q52 0 90.5 42t56.5 105t18 135z" />
    <glyph glyph-name="tau" unicode="&#x3c4;" horiz-adv-x="383" 
d="M433 502l-35 -68h-123l-60 -283q-7 -37 -7 -52q0 -25 11.5 -35.5t37.5 -10.5q25 0 52 10v-57q-47 -21 -98 -21q-47 0 -71.5 22t-24.5 61q0 40 7 71l62 295h-131l13 68h367z" />
    <glyph glyph-name="upsilon" unicode="&#x3c5;" horiz-adv-x="546" 
d="M517 511l-75 -350q-17 -78 -75.5 -127.5t-151.5 -49.5q-79 0 -119.5 35.5t-40.5 95.5q0 15 6 45l72 336l94 17l-69 -324q-8 -42 -8 -60q0 -72 81 -72q97 0 126 132l66 305z" />
    <glyph glyph-name="phi" unicode="&#x3c6;" horiz-adv-x="671" 
d="M632 331q0 -134 -86 -236t-218 -109l-38 -176l-94 -21l42 197q-93 6 -142.5 57.5t-49.5 137.5q0 113 77 213.5t188 121.5l-14 -68q-68 -27 -108 -105t-40 -157q0 -59 23 -88.5t81 -39.5l51 234q27 120 71 171.5t116 51.5q65 0 103 -49.5t38 -134.5zM530 330
q0 65 -15.5 88.5t-42.5 23.5t-43.5 -36t-33.5 -112l-52 -237q91 18 139 96.5t48 176.5z" />
    <glyph glyph-name="chi" unicode="&#x3c7;" horiz-adv-x="423" 
d="M470 502l-200 -230l131 -272h-109q-2 7 -22.5 57t-40 97t-19.5 50q-1 -2 -18 -22.5t-40.5 -49.5t-46.5 -57t-41.5 -50.5t-20.5 -24.5h-115l246 276l-104 220l105 9q57 -142 62 -163q3 6 61.5 81.5t60.5 78.5h111z" />
    <glyph glyph-name="psi" unicode="&#x3c8;" horiz-adv-x="684" 
d="M655 511l-65 -308q-22 -104 -94.5 -159.5t-170.5 -57.5l-38 -176l-95 -21l42 197q-84 2 -131.5 41.5t-47.5 116.5q0 24 7 59l63 293l94 17l-69 -324q-4 -20 -4 -39q0 -85 103 -91l103 496q21 101 6 149l98 35q17 -57 -8 -176l-108 -504q56 3 100 41.5t55 88.5l66 305z
" />
    <glyph glyph-name="omega" unicode="&#x3c9;" horiz-adv-x="675" 
d="M636 306q0 -45 -6.5 -87.5t-23 -85t-41 -74.5t-63.5 -51.5t-88 -19.5q-37 0 -66 22t-38 56q-23 -35 -56.5 -56.5t-69.5 -21.5q-67 0 -102.5 39t-35.5 104q0 107 55.5 208.5t143.5 175.5l43 -29q-63 -70 -103.5 -159.5t-40.5 -175.5q0 -45 12.5 -65.5t44.5 -20.5
q27 0 52.5 31.5t35.5 81.5l42 198h91l-42 -198q-7 -37 -7 -56q0 -57 47 -57q34 0 60 31.5t39.5 79t20 90.5t6.5 77q0 78 -28 139l48 36q70 -92 70 -212z" />
    <glyph glyph-name="iotadieresis" unicode="&#x3ca;" horiz-adv-x="275" 
d="M217 439q0 -39 -13 -100l-44 -204q-8 -35 -8 -52q0 -25 23 -25q13 0 18 2l5 -59q-29 -12 -67 -12q-37 0 -56.5 18t-19.5 50q0 21 8 56l47 218q21 99 6 149l88 37q13 -31 13 -78zM180 625q0 -25 -17 -42.5t-41 -17.5q-25 0 -42 17.5t-17 42.5q0 24 17 41t41 17
q25 0 42 -17t17 -41zM348 625q0 -25 -17 -42.5t-41 -17.5q-25 0 -42 17.5t-17 42.5q0 24 17 41t41 17q25 0 42 -17t17 -41z" />
    <glyph glyph-name="upsilondieresis" unicode="&#x3cb;" horiz-adv-x="546" 
d="M517 511l-75 -350q-17 -78 -75.5 -127.5t-151.5 -49.5q-79 0 -119.5 35.5t-40.5 95.5q0 15 6 45l72 336l94 17l-69 -324q-8 -42 -8 -60q0 -72 81 -72q97 0 126 132l66 305zM513 625q0 -25 -17 -42.5t-41 -17.5q-25 0 -42.5 17.5t-17.5 42.5q0 24 17 41t42 17
q24 0 41.5 -17t17.5 -41zM305 625q0 -25 -17 -42.5t-41 -17.5q-25 0 -42 17.5t-17 42.5q0 24 17 41t41 17q25 0 42 -17t17 -41z" />
    <glyph glyph-name="omicrontonos" unicode="&#x3cc;" horiz-adv-x="540" 
d="M501 336q0 -147 -78 -247.5t-205 -100.5q-82 0 -127 47t-45 133q0 148 80 247.5t202 99.5q85 0 129 -47.5t44 -131.5zM400 343q0 99 -88 99q-51 0 -89.5 -41.5t-57.5 -104.5t-19 -135q0 -100 89 -100q52 0 90.5 42t56.5 105t18 135zM481 708l-146 -146l-40 31l126 164z
" />
    <glyph glyph-name="upsilontonos" unicode="&#x3cd;" horiz-adv-x="546" 
d="M517 511l-75 -350q-17 -78 -75.5 -127.5t-151.5 -49.5q-79 0 -119.5 35.5t-40.5 95.5q0 15 6 45l72 336l94 17l-69 -324q-8 -42 -8 -60q0 -72 81 -72q97 0 126 132l66 305zM476 708l-146 -146l-40 31l126 164z" />
    <glyph glyph-name="omegatonos" unicode="&#x3ce;" horiz-adv-x="675" 
d="M636 306q0 -45 -6.5 -87.5t-23 -85t-41 -74.5t-63.5 -51.5t-88 -19.5q-37 0 -66 22t-38 56q-23 -35 -56.5 -56.5t-69.5 -21.5q-67 0 -102.5 39t-35.5 104q0 107 55.5 208.5t143.5 175.5l43 -29q-63 -70 -103.5 -159.5t-40.5 -175.5q0 -45 12.5 -65.5t44.5 -20.5
q27 0 52.5 31.5t35.5 81.5l42 198h91l-42 -198q-7 -37 -7 -56q0 -57 47 -57q34 0 60 31.5t39.5 79t20 90.5t6.5 77q0 78 -28 139l48 36q70 -92 70 -212zM556 708l-146 -146l-40 31l126 164z" />
    <glyph glyph-name="uni03D0" unicode="&#x3d0;" horiz-adv-x="571" 
d="M531 573q0 -68 -38 -118.5t-99 -67.5q106 -30 106 -147q0 -105 -73.5 -178.5t-178.5 -73.5q-56 0 -113 14.5t-92 43.5q11 34 19 74l83 389q22 105 78.5 154.5t161.5 49.5q66 0 106 -39.5t40 -100.5zM438 565q0 79 -77 79q-47 0 -78 -27.5t-46 -100.5l-90 -426
q34 -29 104 -29q71 0 111 54.5t40 128.5q0 55 -26.5 80t-94.5 25h-6l14 64q69 0 109 40t40 112z" />
    <glyph glyph-name="theta1" unicode="&#x3d1;" horiz-adv-x="550" 
d="M106 187q8 39 8 79v13l89 15v-14q0 -47 -10 -94q-5 -20 -5 -44q0 -80 91 -80q71 0 112 59t68 183q-291 43 -291 210q0 90 66.5 146t157.5 56q100 0 148 -64t48 -167q0 -39 -16 -119q-43 -200 -112 -289.5t-197 -89.5q-79 0 -121 39.5t-42 107.5q0 26 6 53zM385 648
q-52 0 -88.5 -36.5t-36.5 -96.5q0 -30 14.5 -53.5t33.5 -37.5t51.5 -25.5t55.5 -16t58 -10.5q15 81 15 133q0 143 -103 143z" />
    <glyph glyph-name="Upsilon1" unicode="&#x3d2;" horiz-adv-x="511" 
d="M317 237l-50 -237h-100l50 237q13 65 13 116q0 175 -134 270l69 76q118 -88 142 -272q87 178 266 272l34 -89q-238 -129 -290 -373z" />
    <glyph glyph-name="uni03D3" unicode="&#x3d3;" horiz-adv-x="511" 
d="M317 237l-50 -237h-100l50 237q13 65 13 116q0 175 -134 270l69 76q118 -88 142 -272q87 178 266 272l34 -89q-238 -129 -290 -373zM25 651l-146 -146l-40 31l126 164z" />
    <glyph glyph-name="uni03D4" unicode="&#x3d4;" horiz-adv-x="511" 
d="M317 237l-50 -237h-100l50 237q13 65 13 116q0 175 -134 270l69 76q118 -88 142 -272q87 178 266 272l34 -89q-238 -129 -290 -373zM541 811q0 -25 -17 -42.5t-41 -17.5q-25 0 -42.5 17.5t-17.5 42.5q0 24 17 41t42 17q24 0 41.5 -17t17.5 -41zM333 811q0 -25 -17 -42.5
t-41 -17.5q-25 0 -42 17.5t-17 42.5q0 24 17 41t41 17q25 0 42 -17t17 -41z" />
    <glyph glyph-name="phi1" unicode="&#x3d5;" horiz-adv-x="650" 
d="M611 336q0 -141 -83.5 -242t-208.5 -106l-38 -178l-95 -21l41 199q-80 3 -130.5 51t-50.5 129q0 142 85.5 242t206.5 105l8 40q20 104 6 149l98 35q17 -57 -8 -176l-10 -48q81 -5 130 -53t49 -126zM322 442q-74 -7 -125 -91.5t-51 -189.5q0 -47 27.5 -72t69.5 -28z
M510 343q0 46 -27.5 70.5t-66.5 27.5l-81 -380q75 7 125 91.5t50 190.5z" />
    <glyph glyph-name="uni0400" unicode="&#x400;" horiz-adv-x="508" 
d="M567 688l-31 -79h-269l-44 -209h226l-18 -82h-226l-49 -235h292l-18 -83h-390l146 688h381zM478 777l-32 -53l-221 100l49 84z" />
    <glyph glyph-name="afii10023" unicode="&#x401;" horiz-adv-x="508" 
d="M567 688l-31 -79h-269l-44 -209h226l-18 -82h-226l-49 -235h292l-18 -83h-390l146 688h381zM337 786q0 -25 -17 -42.5t-41 -17.5q-25 0 -42 17.5t-17 42.5q0 24 17 41t41 17q25 0 42 -17t17 -41zM545 786q0 -25 -17 -42.5t-41 -17.5q-25 0 -42 17.5t-17 42.5q0 24 17 41
t41 17q25 0 42 -17t17 -41z" />
    <glyph glyph-name="afii10051" unicode="&#x402;" horiz-adv-x="656" 
d="M575 688l-26 -80h-191l-45 -208q66 36 138 36q81 0 122 -41q38 -39 38 -106q0 -63 -24 -132t-63 -109q-59 -60 -149 -60q-52 0 -88 24l34 72q28 -22 65 -22q43 0 69 32q22 26 38 85t16 97q0 42 -22 62t-65 20q-58 0 -124 -30l-69 -328h-96l129 608h-171l18 80h466z" />
    <glyph glyph-name="afii10052" unicode="&#x403;" horiz-adv-x="411" 
d="M537 688l-32 -81h-238l-129 -607h-98l146 688h351zM509 824l-229 -101l-29 54l214 131z" />
    <glyph glyph-name="afii10053" unicode="&#x404;" horiz-adv-x="562" 
d="M447 398l-16 -78h-244q-9 -52 -9 -82q0 -80 34 -123q39 -49 112 -49q78 0 144 47l34 -64q-87 -61 -202 -61q-102 0 -162 60q-66 65 -66 181q0 103 40 205t107 167q103 99 233 99q100 0 157 -58l-53 -60q-42 40 -117 40q-70 0 -132 -53q-68 -59 -101 -171h241z" />
    <glyph glyph-name="afii10054" unicode="&#x405;" horiz-adv-x="574" 
d="M581 643l-53 -70q-70 52 -152 52q-63 0 -104 -31t-41 -77q0 -38 17 -59.5t64 -40.5l74 -30q64 -26 92 -66.5t28 -102.5q0 -99 -81 -165.5t-215 -66.5q-112 0 -200 57l49 75q80 -52 168 -52q77 0 123.5 37t46.5 95q0 41 -18.5 65t-69.5 44l-65 25q-62 24 -90.5 61.5
t-28.5 98.5q0 92 76 152.5t188 60.5q116 0 192 -62z" />
    <glyph glyph-name="afii10055" unicode="&#x406;" horiz-adv-x="277" 
d="M283 688l-147 -688h-96l146 688h97z" />
    <glyph glyph-name="afii10056" unicode="&#x407;" horiz-adv-x="277" 
d="M283 688l-147 -688h-96l146 688h97zM194 786q0 -25 -17 -42.5t-41 -17.5q-25 0 -42 17.5t-17 42.5q0 24 17 41t41 17q25 0 42 -17t17 -41zM402 786q0 -25 -17 -42.5t-41 -17.5q-25 0 -42 17.5t-17 42.5q0 24 17 41t41 17q25 0 42 -17t17 -41z" />
    <glyph glyph-name="afii10057" unicode="&#x408;" horiz-adv-x="279" 
d="M285 688l-121 -566q-23 -105 -53 -152q-45 -72 -151 -108l-35 57q61 25 97 72q24 31 44 125l121 572h98z" />
    <glyph glyph-name="afii10058" unicode="&#x409;" horiz-adv-x="895" 
d="M611 688l-59 -277h98q57 0 98.5 -10t74.5 -44q42 -43 42 -115q0 -98 -69 -164q-81 -78 -225 -78h-202l129 610h-163l-40 -148q-42 -155 -75 -254q-37 -111 -78 -152q-52 -53 -140 -61l-29 -3l-3 69l20 5q51 12 82 43q40 40 76 150q39 116 80 276l39 153h344zM481 78h88
q96 0 144 46q46 44 46 111q0 44 -26 70q-28 28 -93 28h-104z" />
    <glyph glyph-name="afii10059" unicode="&#x40a;" horiz-adv-x="928" 
d="M644 688l-59 -277h98q57 0 98.5 -10t74.5 -44q42 -43 42 -115q0 -98 -69 -164q-81 -78 -225 -78h-201l70 333h-266l-71 -333h-95l145 688h96l-58 -277h266l58 277h96zM514 78h88q96 0 144 46q46 44 46 111q0 44 -26 70q-28 28 -93 28h-104z" />
    <glyph glyph-name="afii10060" unicode="&#x40b;" horiz-adv-x="658" 
d="M576 688l-27 -80h-191l-44 -209q80 36 153 36q80 0 117 -39q29 -29 29 -79q0 -24 -62 -317h-96q58 276 58 290q0 29 -16 45q-23 23 -70 23q-55 0 -128 -30l-70 -328h-96l129 608h-171l17 80h468z" />
    <glyph glyph-name="afii10061" unicode="&#x40c;" horiz-adv-x="608" 
d="M646 697l4 -66l-34 -8q-31 -7 -47 -23q-12 -12 -24 -36l-41 -87q-23 -50 -47 -75q-27 -28 -64 -36q16 -6 29 -18q28 -27 33 -87l8 -127q3 -35 14 -47q8 -9 40 -20l25 -8l-32 -67l-50 6q-50 6 -73 29t-23 76l-1 129q0 50 -17 71q-19 23 -71 23h-70l-69 -326h-96l146 688
h96l-60 -284h83q53 0 81 29q18 18 37 62l41 96q19 45 41 66q28 27 86 34zM554 824l-229 -101l-29 54l214 131z" />
    <glyph glyph-name="uni040D" unicode="&#x40d;" horiz-adv-x="661" 
d="M521 0h-96l94 443q3 16 34 135q-24 -49 -50 -84l-363 -494h-100l147 688h96l-96 -449q-16 -73 -32 -119q26 53 63 102l340 466h110zM555 777l-32 -53l-221 100l49 84z" />
    <glyph glyph-name="afii10062" unicode="&#x40e;" horiz-adv-x="521" 
d="M203 688l60 -323q12 -68 17 -109q36 71 62 119l171 313h97l-314 -562q-33 -59 -58 -85q-50 -53 -136 -60l-34 -3l-3 69l20 4q60 11 92 43q18 18 48 72l21 38l-49 -9l-95 493h101zM465 887l48 -24q-19 -41 -40 -63q-46 -47 -125 -47q-62 0 -96 32q-33 33 -33 78l58 24
q5 -31 24 -46q20 -16 57 -16q36 0 62 16q27 16 45 46z" />
    <glyph glyph-name="afii10145" unicode="&#x40f;" horiz-adv-x="620" 
d="M186 688h96l-130 -608h249l129 608h96l-145 -688h-175l-38 -180h-92l38 180h-174z" />
    <glyph glyph-name="afii10017" unicode="&#x410;" horiz-adv-x="572" 
d="M522 0h-103l-18 199h-243l-104 -199h-104l376 689h118zM393 279l-17 171q-12 123 -12 147q-1 -1 -8.5 -17t-19.5 -40l-20 -40l-116 -221h193z" />
    <glyph glyph-name="afii10018" unicode="&#x411;" horiz-adv-x="592" 
d="M186 688h394l-31 -80h-284l-44 -205h94q128 0 182 -54q47 -47 47 -124q0 -85 -63 -148q-78 -77 -228 -77h-212zM153 80h123q77 0 120 40q42 38 42 105q0 43 -26 69q-30 29 -94 29h-114z" />
    <glyph glyph-name="afii10019" unicode="&#x412;" horiz-adv-x="596" 
d="M584 538q0 -62 -39 -107.5t-115 -65.5q57 -11 85.5 -49.5t28.5 -94.5q0 -91 -82 -161q-40 -34 -88 -47t-138 -13h-196l146 688h195q203 0 203 -150zM438 218q0 55 -29 77.5t-94 22.5h-113l-51 -239h124q69 0 111 32q22 17 37 46t15 61zM477 520q0 43 -26 65t-86 22h-102
l-44 -209h113q67 0 100 27q45 35 45 95z" />
    <glyph glyph-name="afii10020" unicode="&#x413;" horiz-adv-x="411" 
d="M537 688l-32 -81h-238l-129 -607h-98l146 688h351z" />
    <glyph glyph-name="afii10021" unicode="&#x414;" horiz-adv-x="647" 
d="M-18 80h54q81 119 131 227q52 113 95 281l26 100h344l-129 -608h46l-54 -260h-92l37 180h-383l-37 -180h-92zM353 612l-24 -87q-45 -161 -96 -266q-44 -90 -107 -179h281l112 532h-166z" />
    <glyph glyph-name="afii10022" unicode="&#x415;" horiz-adv-x="508" 
d="M567 688l-31 -79h-269l-44 -209h226l-18 -82h-226l-49 -235h292l-18 -83h-390l146 688h381z" />
    <glyph glyph-name="afii10024" unicode="&#x416;" horiz-adv-x="891" 
d="M525 404h61q46 0 74 22q24 18 46 69l41 96q16 40 38 63q28 30 89 37l55 6l4 -66l-34 -8q-33 -9 -48 -25q-10 -10 -22 -34l-45 -90q-25 -51 -46 -72q-26 -26 -62 -36q13 -5 26 -18q32 -32 36 -87l9 -132q3 -31 14 -42q13 -13 44 -22l19 -6l-31 -67l-59 7q-44 5 -65 28
q-22 23 -22 76l-1 129q0 54 -21 75q-19 19 -67 19h-50l-69 -326h-96l69 326h-49q-59 0 -91 -33q-19 -19 -37 -61l-46 -108q-1 -3 -6.5 -16.5t-8.5 -19.5l-8.5 -17t-12 -19t-13.5 -15q-33 -32 -97 -39l-54 -6l-4 67l29 8q35 10 51 25q12 11 25 40l61 129q15 33 42 60
q29 29 72 45q-22 10 -34 22q-29 27 -31 86l-5 85q-3 38 -12 48q-6 7 -36 17l-29 10l32 63l46 -6q46 -6 64 -24q5 -5 9 -11.5t6 -11.5t3.5 -14.5t1.5 -12t0.5 -14t0.5 -12.5l3 -96q0 -2 0.5 -9.5t0.5 -10.5t0.5 -10t2 -11t3 -9.5t4 -10t6.5 -8.5q19 -22 69 -22h59l60 284h96z
" />
    <glyph glyph-name="afii10025" unicode="&#x417;" horiz-adv-x="543" 
d="M249 319h-76l15 74h63q83 0 126 41q40 38 40 98q0 39 -26 65q-30 29 -85 29q-43 0 -83 -17q-37 -17 -64 -36l-31 64q49 31 94 45q51 18 114 18q99 0 148 -51q39 -40 39 -105q0 -71 -50 -121q-43 -43 -110 -60q50 -7 82 -41q38 -38 38 -100q0 -86 -64 -153
q-79 -81 -220 -81q-73 0 -130 20q-48 17 -79 43l57 68q61 -57 151 -57q84 0 132 45q46 43 46 109q0 48 -31 76q-30 27 -96 27z" />
    <glyph glyph-name="afii10026" unicode="&#x418;" horiz-adv-x="661" 
d="M521 0h-96l94 443q3 16 34 135q-24 -49 -50 -84l-363 -494h-100l147 688h96l-96 -449q-16 -73 -32 -119q26 53 63 102l340 466h110z" />
    <glyph glyph-name="afii10027" unicode="&#x419;" horiz-adv-x="661" 
d="M521 0h-96l94 443q3 16 34 135q-24 -49 -50 -84l-363 -494h-100l147 688h96l-96 -449q-16 -73 -32 -119q26 53 63 102l340 466h110zM549 860l48 -24q-19 -41 -40 -63q-46 -47 -125 -47q-62 0 -96 32q-33 33 -33 78l58 24q5 -31 24 -46q20 -16 57 -16q36 0 62 16
q27 16 45 46z" />
    <glyph glyph-name="afii10028" unicode="&#x41a;" horiz-adv-x="608" 
d="M646 697l4 -66l-34 -8q-31 -7 -47 -23q-12 -12 -24 -36l-41 -87q-23 -50 -47 -75q-27 -28 -64 -36q16 -6 29 -18q28 -27 33 -87l8 -127q3 -35 14 -47q8 -9 40 -20l25 -8l-32 -67l-50 6q-50 6 -73 29t-23 76l-1 129q0 50 -17 71q-19 23 -71 23h-70l-69 -326h-96l146 688
h96l-60 -284h83q53 0 81 29q18 18 37 62l41 96q19 45 41 66q28 27 86 34z" />
    <glyph glyph-name="afii10029" unicode="&#x41b;" horiz-adv-x="605" 
d="M335 610l-40 -148q-42 -155 -75 -254q-37 -111 -78 -152q-52 -53 -140 -61l-29 -3l-3 69l20 5q51 12 82 43q40 40 76 150q39 116 80 276l39 153h344l-146 -688h-96l130 610h-164z" />
    <glyph glyph-name="afii10030" unicode="&#x41c;" horiz-adv-x="819" 
d="M786 688l-87 -688h-95l63 469q10 70 20 117q-16 -39 -49 -108l-240 -478h-82l-29 456q-6 92 -5 131q-1 -3 -14.5 -55t-20.5 -76l-132 -456h-95l208 688h135l26 -422q4 -67 1 -118q26 66 49 113l211 427h136z" />
    <glyph glyph-name="afii10031" unicode="&#x41d;" horiz-adv-x="639" 
d="M645 688l-146 -688h-98l70 326h-266l-70 -326h-95l146 688h95l-60 -282h267l60 282h97z" />
    <glyph glyph-name="afii10032" unicode="&#x41e;" horiz-adv-x="688" 
d="M661 463q0 -129 -48 -246t-134 -175q-80 -54 -187 -54q-110 0 -165 65t-55 179q0 116 42 220t105 164q46 42 97 63t125 21q104 0 162 -62.5t58 -174.5zM555 476q0 147 -131 147q-98 0 -153 -75q-42 -57 -68 -148.5t-26 -186.5q0 -151 134 -151q79 0 133 57q47 50 79 158
t32 199z" />
    <glyph glyph-name="afii10033" unicode="&#x41f;" horiz-adv-x="615" 
d="M621 688l-146 -688h-96l130 608h-243l-130 -608h-96l147 688h434z" />
    <glyph glyph-name="afii10034" unicode="&#x420;" horiz-adv-x="559" 
d="M585 529q0 -138 -112 -217q-61 -43 -172 -43h-108l-57 -269h-96l146 688h180q110 0 161 -38q58 -43 58 -121zM480 508q0 51 -29.5 75.5t-98.5 24.5h-87l-55 -260h103q73 0 112 36q55 52 55 124z" />
    <glyph glyph-name="afii10035" unicode="&#x421;" horiz-adv-x="564" 
d="M611 642l-55 -61q-46 40 -116 40q-108 0 -180 -103q-38 -55 -61.5 -137t-23.5 -149q0 -79 39 -121.5t114 -42.5q69 0 139 45l36 -66q-96 -58 -205 -58q-106 0 -166 66t-60 181q0 86 32 177.5t88 158.5q51 60 120 93.5t140 33.5q100 0 159 -57z" />
    <glyph glyph-name="afii10036" unicode="&#x422;" horiz-adv-x="469" 
d="M585 688l-27 -81h-181l-129 -607h-95l129 607h-181l18 81h466z" />
    <glyph glyph-name="afii10037" unicode="&#x423;" horiz-adv-x="521" 
d="M203 688l60 -323q12 -68 17 -109q36 71 62 119l171 313h97l-314 -562q-33 -59 -58 -85q-50 -53 -136 -60l-34 -3l-3 69l20 4q60 11 92 43q18 18 48 72l21 38l-49 -9l-95 493h101z" />
    <glyph glyph-name="afii10038" unicode="&#x424;" horiz-adv-x="734" 
d="M363 0h-96l23 109h-9q-113 0 -164 52q-45 46 -45 130q0 67 26.5 139.5t69.5 115.5q81 81 220 81h12l21 100h96l-21 -100h19q102 0 151 -49q47 -46 47 -131q0 -73 -26 -142.5t-69 -112.5q-82 -83 -219 -83h-13zM478 561l-81 -386h15q79 0 125 45q35 35 55.5 102.5
t20.5 124.5q0 59 -26 85q-28 29 -97 29h-12zM389 561h-9q-84 0 -133 -49q-34 -33 -54.5 -97.5t-20.5 -122.5q0 -57 28 -86q30 -31 98 -31h10z" />
    <glyph glyph-name="afii10039" unicode="&#x425;" horiz-adv-x="501" 
d="M587 688l-250 -328l142 -360h-112l-102 281l-206 -281h-120l291 370l-121 318h109l82 -235l169 235h118z" />
    <glyph glyph-name="afii10040" unicode="&#x426;" horiz-adv-x="639" 
d="M186 688h96l-129 -608h246l129 608h96l-129 -608h45l-54 -260h-92l37 180h-391z" />
    <glyph glyph-name="afii10041" unicode="&#x427;" horiz-adv-x="587" 
d="M447 0h-96l64 302q-76 -31 -154 -31q-85 0 -123 38q-33 33 -33 88q0 16 5 43l53 248h96l-50 -234q-4 -16 -4 -32q0 -36 19 -52q23 -21 69 -21q62 0 138 27l66 312h96z" />
    <glyph glyph-name="afii10042" unicode="&#x428;" horiz-adv-x="865" 
d="M282 688l-129 -608h199l129 608h96l-129 -608h199l128 608h96l-145 -688h-685l145 688h96z" />
    <glyph glyph-name="afii10043" unicode="&#x429;" horiz-adv-x="865" 
d="M282 688l-129 -608h199l129 608h96l-129 -608h199l128 608h96l-128 -608h45l-54 -260h-92l37 180h-638l145 688h96z" />
    <glyph glyph-name="afii10044" unicode="&#x42a;" horiz-adv-x="653" 
d="M369 688l-59 -277h98q57 0 98.5 -10t74.5 -44q42 -43 42 -115q0 -98 -69 -164q-81 -78 -225 -78h-202l129 608h-176l17 80h272zM239 78h88q96 0 144 46q46 44 46 111q0 44 -26 70q-28 28 -93 28h-104z" />
    <glyph glyph-name="afii10045" unicode="&#x42b;" horiz-adv-x="811" 
d="M818 688l-147 -688h-96l146 688h97zM282 688l-59 -277h98q57 0 98.5 -10t74.5 -44q42 -43 42 -115q0 -98 -69 -164q-81 -78 -225 -78h-202l146 688h96zM152 78h88q96 0 144 46q46 44 46 111q0 44 -26 70q-28 28 -93 28h-104z" />
    <glyph glyph-name="afii10046" unicode="&#x42c;" horiz-adv-x="566" 
d="M282 688l-59 -277h98q57 0 98.5 -10t74.5 -44q42 -43 42 -115q0 -98 -69 -164q-81 -78 -225 -78h-202l146 688h96zM152 78h88q96 0 144 46q46 44 46 111q0 44 -26 70q-28 28 -93 28h-104z" />
    <glyph glyph-name="afii10047" unicode="&#x42d;" horiz-adv-x="584" 
d="M152 574l-28 66q39 28 85 43q51 17 108 17q117 0 178 -62q62 -63 62 -179q0 -97 -34 -201t-102 -174q-93 -96 -242 -96q-66 0 -119 22q-37 16 -65 43l55 67q58 -54 145 -54q90 0 148 59q64 65 86 193h-244l14 78h243q7 46 7 83q0 74 -37 110q-35 33 -104 33
q-80 0 -156 -48z" />
    <glyph glyph-name="afii10048" unicode="&#x42e;" horiz-adv-x="912" 
d="M223 406h113q35 124 114 203q89 91 218 91q97 0 155 -58q62 -61 62 -179q0 -114 -37.5 -218t-101.5 -167q-91 -90 -222 -90q-93 0 -150 55q-64 64 -64 188q0 49 8 95h-112l-69 -326h-96l145 688h96zM650 622q-74 0 -128 -55q-53 -54 -82 -157t-29 -194q0 -81 35 -118
q34 -36 95 -36q69 0 121 51q51 50 84 164t33 201q0 76 -39 113q-32 31 -90 31z" />
    <glyph glyph-name="afii10049" unicode="&#x42f;" horiz-adv-x="612" 
d="M472 0h-96l63 299h-74q-70 0 -102 -30q-19 -17 -39 -64l-39 -91q-24 -57 -45 -78q-31 -31 -90 -37l-58 -7l-7 67l19 5q45 12 61 28q11 11 25 39l51 104q22 44 42 65q32 33 79 42v2q-48 10 -80 43q-34 37 -34 93q0 83 60 139q72 69 223 69h187zM504 608h-87
q-88 0 -133 -45q-36 -36 -36 -90q0 -43 30 -69q31 -25 95 -25h83z" />
    <glyph glyph-name="afii10065" unicode="&#x430;" horiz-adv-x="542" 
d="M506 475q-17 -56 -28 -110l-43 -202q-8 -40 -8 -60q0 -36 26 -64l-75 -57q-37 36 -37 88v9q-57 -89 -164 -89q-55 0 -89.5 40.5t-34.5 118.5q0 79 28 156.5t77 126.5q83 83 200 83q89 0 148 -40zM402 429q-22 12 -54 12q-41 0 -71.5 -14.5t-60.5 -50.5q-34 -40 -51 -103
t-17 -123q0 -84 64 -84q37 0 75 31.5t61 78.5z" />
    <glyph glyph-name="afii10066" unicode="&#x431;" horiz-adv-x="549" 
d="M538 766l26 -79q-28 -16 -120 -50q-152 -53 -209 -109q-26 -26 -40 -57q-3 -8 -23 -60q38 47 84 70q41 21 92 21q74 0 116 -42q44 -44 44 -126q0 -77 -27 -153t-78 -124q-74 -69 -175 -69q-79 0 -124 45q-49 49 -49 139q0 78 30 192q44 162 121 239q52 51 142 85l67 26
q14 6 30.5 11.5t36.5 13.5q29 12 56 27zM323 428q-59 0 -99 -42q-29 -30 -51 -100t-22 -122t26 -78q23 -24 62 -24q83 0 129 93q40 78 40 175q0 50 -23 74t-62 24z" />
    <glyph glyph-name="afii10067" unicode="&#x432;" horiz-adv-x="532" 
d="M46 24l63 292q20 90 60 133q61 65 169 65q80 0 118 -40q31 -31 31 -82q0 -54 -37 -91q-27 -27 -67 -39q28 -8 48 -28q29 -29 29 -75q0 -68 -48 -114q-58 -57 -180 -57q-100 0 -174 31zM181 227l-34 -156q22 -6 30 -8q42 -7 70 -7q56 0 88 27q32 26 32 76q0 31 -19 49
q-21 19 -74 19h-93zM193 290h84q67 0 97 31q23 24 23 62q0 30 -18 45q-20 18 -55 18q-51 0 -83 -32q-27 -27 -37 -73z" />
    <glyph glyph-name="afii10068" unicode="&#x433;" horiz-adv-x="463" 
d="M134 403l-24 67q39 20 72 30q45 14 95 14q82 0 123 -41q34 -34 34 -87q0 -51 -34 -83q-29 -29 -139 -73q-42 -17 -58.5 -24t-34 -16.5t-27.5 -19.5q-22 -21 -22 -51q0 -23 17 -38q21 -19 71 -19q57 0 108 24q14 6 37 19l23 -68l-11 -6q-36 -20 -85 -32q-45 -11 -96 -11
q-89 0 -129 41q-31 31 -31 83q0 59 42 99q31 30 131 67l45 17q63 24 81 44q17 17 17 43q0 23 -16 39q-20 19 -62 19q-40 0 -86 -18q-25 -10 -41 -19z" />
    <glyph glyph-name="afii10069" unicode="&#x434;" horiz-adv-x="555" 
d="M198 657l29 71q42 7 76 7q104 0 158 -54q59 -58 59 -188q0 -127 -36 -256q-32 -114 -90 -175q-72 -74 -178 -74q-80 0 -125 52q-41 49 -41 136q0 74 27.5 142.5t73.5 114.5q67 67 160 67q35 0 65 -10q28 -9 52 -27q0 3 1 23.5t1 30.5q0 73 -33 108q-39 41 -116 41
q-36 0 -83 -9zM150 167q0 -57 24 -83q21 -22 53 -22q69 0 114 68q59 89 76 259q-19 13 -39 22q-32 15 -65 15q-48 0 -86 -36q-36 -35 -56.5 -98t-20.5 -125z" />
    <glyph glyph-name="afii10070" unicode="&#x435;" horiz-adv-x="506" 
d="M479 383q0 -62 -46 -105q-63 -60 -214 -60q-12 0 -33.5 1.5t-28.5 1.5q-7 -30 -7 -58q0 -48 27 -74.5t69 -26.5q79 0 145 56l33 -57q-42 -38 -88.5 -55.5t-114.5 -17.5q-77 0 -124 48.5t-47 133.5q0 75 29.5 150t81.5 125q73 70 167 70q72 0 111.5 -34.5t39.5 -97.5z
M386 379q0 65 -71 65q-46 0 -85.5 -41t-57.5 -114q22 -2 48 -2q106 0 142 36q24 24 24 56z" />
    <glyph glyph-name="afii10072" unicode="&#x436;" horiz-adv-x="832" 
d="M317 0l49 231h-78q-34 -122 -98 -185q-59 -58 -133 -58q-53 0 -92 39l47 59q24 -28 53 -28q33 0 61 28q43 43 67 124t24 148q0 50 -21 71q-15 15 -39 15q-43 0 -74 -40l-32 54q53 56 119 56q59 0 96 -37q39 -40 39 -125q0 -27 -2 -51h78l41 195l94 18l-45 -213h82
q31 94 93 155q58 58 129 58q55 0 92 -40l-48 -58q-19 28 -52 28q-31 0 -59 -26q-39 -36 -67 -121q-27 -81 -27 -156q0 -45 15 -63q16 -20 44 -20q40 0 75 40l32 -55q-46 -55 -120 -55q-59 0 -94 36q-40 40 -40 125q0 42 8 82h-78l-49 -231h-90z" />
    <glyph glyph-name="afii10073" unicode="&#x437;" horiz-adv-x="451" 
d="M154 294h38q70 0 100 30q20 20 20 50q0 31 -17 48q-22 22 -63 22q-36 0 -73 -14q-20 -7 -51 -25l-25 61q32 18 72 32q48 16 96 16q83 0 123 -41q32 -32 32 -86t-33 -87q-28 -28 -71 -39q29 -7 49 -27q29 -29 29 -74q0 -68 -45 -113q-60 -59 -177 -59q-50 0 -95 15
q-42 15 -71 43l47 63q29 -25 50 -35q32 -16 73 -16q59 0 91 32q27 27 27 68q0 36 -26 53q-19 13 -67 13h-46z" />
    <glyph glyph-name="afii10074" unicode="&#x438;" horiz-adv-x="555" 
d="M523 511l-77 -363q-7 -32 -7 -57q0 -34 19 -62l-75 -49q-34 36 -34 87v12q-83 -95 -179 -95q-110 0 -110 101q0 37 8 75l72 336l94 17l-70 -333q-9 -40 -9 -66q0 -29 10.5 -41.5t34.5 -12.5q37 0 82.5 30.5t78.5 83.5l68 320z" />
    <glyph glyph-name="afii10075" unicode="&#x439;" horiz-adv-x="555" 
d="M523 511l-77 -363q-7 -32 -7 -57q0 -34 19 -62l-75 -49q-34 36 -34 87v12q-83 -95 -179 -95q-110 0 -110 101q0 37 8 75l72 336l94 17l-70 -333q-9 -40 -9 -66q0 -29 10.5 -41.5t34.5 -12.5q37 0 82.5 30.5t78.5 83.5l68 320zM455 700l47 -25q-16 -37 -43 -64
q-46 -46 -118 -46q-63 0 -95 32t-33 78l58 25q2 -28 19 -45q19 -20 58 -20q38 0 63 17q22 13 44 48z" />
    <glyph glyph-name="afii10076" unicode="&#x43a;" horiz-adv-x="531" 
d="M146 496l95 18l-44 -205l-26 -91h2q26 52 52 94q36 57 79 99q43 41 96 68q50 24 99 34l22 -66l-17 -4q-86 -21 -166 -99q-31 -30 -53 -65l20 -2q48 -6 67 -26q20 -20 24 -70l6 -78q2 -24 11 -33q7 -7 28 -13l19 -5l-25 -62l-43 5q-45 6 -61 23q-19 20 -19 76l-1 73
q0 29 -15 41q-14 13 -50 13q-61 -88 -115 -221h-91z" />
    <glyph glyph-name="afii10077" unicode="&#x43b;" horiz-adv-x="507" 
d="M280 0l91 432h-111l-25 -82q-35 -115 -52 -163q-41 -118 -75 -151q-38 -37 -102 -42l-36 -3l-6 65l22 5q37 9 55 27q43 40 86 182l38 126l30 106h282l-107 -502h-90z" />
    <glyph glyph-name="afii10078" unicode="&#x43c;" horiz-adv-x="644" 
d="M158 502h110l23 -282q4 -65 3 -105q35 82 46 103l146 284h110l-61 -502h-87l45 325q5 36 16 84h-2q-25 -57 -37 -78l-165 -331h-75l-24 332q-3 35 -3 77h-2q-12 -53 -17 -70l-95 -339h-84z" />
    <glyph glyph-name="afii10079" unicode="&#x43d;" horiz-adv-x="551" 
d="M179 232l-49 -232h-90l105 496l94 18l-45 -212h192l41 194l94 18l-109 -514h-90l49 232h-192z" />
    <glyph glyph-name="afii10080" unicode="&#x43e;" horiz-adv-x="540" 
d="M501 336q0 -147 -78 -247.5t-205 -100.5q-82 0 -127 47t-45 133q0 148 80 247.5t202 99.5q85 0 129 -47.5t44 -131.5zM400 343q0 99 -88 99q-51 0 -89.5 -41.5t-57.5 -104.5t-19 -135q0 -100 89 -100q52 0 90.5 42t56.5 105t18 135z" />
    <glyph glyph-name="afii10081" unicode="&#x43f;" horiz-adv-x="556" 
d="M500 413q0 -19 -5 -42l-79 -371h-92l71 336q8 38 8 52q0 45 -45 45q-32 0 -73.5 -26t-84.5 -80l-69 -327h-91l76 353q10 47 10 76q0 26 -7 50l86 38q12 -31 12 -62q0 -16 -5 -41q78 99 188 99q46 0 73 -27t27 -73z" />
    <glyph glyph-name="afii10082" unicode="&#x440;" horiz-adv-x="564" 
d="M520 350q0 -70 -25.5 -149.5t-65.5 -125.5q-76 -87 -182 -87q-71 0 -114 24l-43 -203l-95 -20l121 567q9 44 9 73q0 28 -7 50l86 38q13 -30 13 -62q0 -19 -4 -38q36 46 83.5 70.5t92.5 24.5q64 0 97.5 -43.5t33.5 -118.5zM420 345q0 46 -16.5 66t-50.5 20
q-35 0 -75.5 -26.5t-76.5 -75.5l-51 -239q33 -28 94 -28q33 0 64 17.5t49 43.5q27 39 45 104.5t18 117.5z" />
    <glyph glyph-name="afii10083" unicode="&#x441;" horiz-adv-x="449" 
d="M459 468l-47 -67q-40 36 -95 36q-59 0 -95 -49q-27 -36 -48.5 -103.5t-21.5 -124.5q0 -100 86 -100q58 0 117 53l35 -58q-82 -67 -171 -67q-167 0 -167 171q0 85 38 169t91 129q68 58 154 58q76 0 124 -47z" />
    <glyph glyph-name="afii10084" unicode="&#x442;" horiz-adv-x="809" 
d="M753 415q0 -19 -8 -61l-75 -354h-93l73 345q6 27 6 47q0 41 -45 41q-28 0 -67.5 -29t-76.5 -75l-70 -329h-91l72 338q9 40 9 56q0 39 -38 39q-29 0 -70.5 -28.5t-80.5 -77.5l-69 -327h-89l75 355q10 46 10 76q0 26 -7 48l86 38q12 -25 12 -61q0 -19 -5 -42q87 99 179 99
q85 0 87 -98q89 99 181 99q44 0 69.5 -28t25.5 -71z" />
    <glyph glyph-name="afii10085" unicode="&#x443;" horiz-adv-x="474" 
d="M520 502l-247 -447q-8 -15 -24 -43.5t-23 -41.5t-19.5 -34.5t-20.5 -33t-19 -26t-21.5 -24.5t-21.5 -18q-47 -33 -106 -44l-20 63q39 5 88 42q37 29 70 105l-33 -3q0 74 -12 170l-42 328l96 17l32 -314q5 -47 3 -121h1q1 5 58 119l157 306h104z" />
    <glyph glyph-name="afii10086" unicode="&#x444;" horiz-adv-x="746" 
d="M523 734l-56 -267q49 47 113 47q50 0 83 -33q44 -44 44 -129q0 -79 -26 -161.5t-76 -136.5q-61 -66 -144 -66q-52 0 -87 37l-46 -215l-96 -22l50 237q-46 -37 -107 -37q-52 0 -85 33q-44 46 -44 136q0 81 31 167t81 136q54 54 127 54q62 0 91 -47l53 248zM452 397
l-63 -300q25 -35 70 -35q37 0 69 30q37 35 60 110.5t23 146.5q0 53 -24 75q-18 16 -45 16q-45 0 -90 -43zM298 97l63 300q-25 43 -72 43q-35 0 -64 -29q-37 -38 -60 -115.5t-23 -135.5q0 -56 23 -80q16 -18 45 -18q44 0 88 35z" />
    <glyph glyph-name="afii10087" unicode="&#x445;" horiz-adv-x="423" 
d="M470 502l-200 -230l131 -272h-109q-2 7 -22.5 57t-40 97t-19.5 50q-1 -2 -18 -22.5t-40.5 -49.5t-46.5 -57t-41.5 -50.5t-20.5 -24.5h-115l246 276l-104 220l105 9q57 -142 62 -163q3 6 61.5 81.5t60.5 78.5h111z" />
    <glyph glyph-name="afii10088" unicode="&#x446;" horiz-adv-x="555" 
d="M523 511l-77 -363q-7 -32 -7 -57q0 -13 1 -19h28l-51 -245h-86l36 173q-18 27 -18 67v12q-83 -95 -179 -95q-110 0 -110 101q0 37 8 75l72 336l94 17l-70 -333q-9 -40 -9 -66q0 -29 10.5 -41.5t34.5 -12.5q37 0 82.5 30.5t78.5 83.5l68 320z" />
    <glyph glyph-name="afii10089" unicode="&#x447;" horiz-adv-x="504" 
d="M380 497l94 17l-109 -514h-90l44 209q-51 -24 -109 -24q-70 0 -107 35q-28 27 -28 68q0 19 7 53l33 156l95 17l-37 -175q-4 -16 -4 -29q0 -24 15 -37q19 -18 59 -18q49 0 90 20z" />
    <glyph glyph-name="afii10090" unicode="&#x448;" horiz-adv-x="806" 
d="M680 496l94 18l-77 -369q-10 -52 -10 -76t7 -48l-87 -38q-12 31 -12 67q0 19 5 37q-34 -42 -79 -69q-50 -30 -102 -30q-37 0 -59 21q-26 25 -26 71v6q-35 -44 -76 -69q-48 -29 -100 -29q-47 0 -73 26q-25 26 -25 76q0 25 7 58l74 348l95 18l-77 -365q-6 -29 -6 -45
q0 -21 10 -31q11 -11 31 -11q38 0 82 36q34 28 66 68l70 330l94 18l-76 -358q-9 -38 -9 -55q0 -20 9 -30q8 -9 25 -9q39 0 86 37q38 30 69 68z" />
    <glyph glyph-name="afii10091" unicode="&#x449;" horiz-adv-x="806" 
d="M680 496l94 18l-77 -369q-10 -50 -10 -73h18l-51 -245h-86l35 168q-8 24 -8 55q0 19 5 37q-34 -42 -79 -69q-50 -30 -102 -30q-37 0 -59 21q-26 25 -26 71v6q-35 -44 -76 -69q-48 -29 -100 -29q-47 0 -73 26q-25 26 -25 76q0 25 7 58l74 348l95 18l-77 -365
q-6 -29 -6 -45q0 -21 10 -31q11 -11 31 -11q38 0 82 36q34 28 66 68l70 330l94 18l-76 -358q-9 -38 -9 -55q0 -20 9 -30q8 -9 25 -9q39 0 86 37q38 30 69 68z" />
    <glyph glyph-name="afii10092" unicode="&#x44a;" horiz-adv-x="554" 
d="M107 24l86 408h-143l28 70h219l-41 -197q41 13 86 13q86 0 130 -44q37 -37 37 -96q0 -75 -53 -128q-62 -62 -169 -62q-96 0 -164 29zM241 235l-34 -163q39 -14 81 -14q55 0 88 30q33 31 33 80q0 37 -20 57q-22 23 -72 23q-36 0 -76 -13z" />
    <glyph glyph-name="afii10093" unicode="&#x44b;" horiz-adv-x="725" 
d="M46 24l100 473l93 17l-44 -209q41 13 86 13q86 0 130 -44q37 -37 37 -96q0 -75 -53 -128q-62 -62 -169 -62q-96 0 -164 29zM180 235l-34 -163q38 -14 81 -14q55 0 88 30q33 31 33 80q0 37 -20 57q-22 23 -72 23q-36 0 -76 -13zM695 513l-109 -513h-96l106 498z" />
    <glyph glyph-name="afii10094" unicode="&#x44c;" horiz-adv-x="493" 
d="M46 24l100 473l93 17l-44 -209q41 13 86 13q86 0 130 -44q37 -37 37 -96q0 -75 -53 -128q-62 -62 -169 -62q-96 0 -164 29zM180 235l-34 -163q38 -14 81 -14q55 0 88 30q33 31 33 80q0 37 -20 57q-22 23 -72 23q-36 0 -76 -13z" />
    <glyph glyph-name="afii10095" unicode="&#x44d;" horiz-adv-x="461" 
d="M146 227l14 70h158q4 20 4 47q0 51 -26 77q-23 23 -64 23q-36 0 -64 -14q-19 -9 -42 -27l-35 54q35 27 65 39q42 18 99 18q79 0 123 -46t44 -129q0 -184 -102 -286q-65 -65 -168 -65q-59 0 -104 23q-32 17 -56 44l57 55q17 -22 37 -34q30 -18 66 -18q55 0 93 37
q49 46 62 132h-161z" />
    <glyph glyph-name="afii10096" unicode="&#x44e;" horiz-adv-x="739" 
d="M194 302h86q24 83 81 141q70 72 170 72q79 0 123 -46q46 -48 46 -141q0 -162 -101 -265q-74 -75 -177 -75q-76 0 -117 41q-47 46 -47 140q0 36 5 63h-84l-49 -232h-90l105 497l94 17zM516 441q-46 0 -81 -34q-38 -37 -59.5 -106t-21.5 -139q0 -53 21 -77q20 -23 60 -23
q49 0 86 36q39 38 59 105t20 133q0 57 -24 82q-22 23 -60 23z" />
    <glyph glyph-name="afii10097" unicode="&#x44f;" horiz-adv-x="518" 
d="M337 207h-36q-61 0 -84 -24q-10 -10 -24 -38l-27 -54q-22 -47 -44 -69q-26 -26 -85 -29l-35 -2l-11 64l18 3q22 3 39 18q10 8 28 38l30 52q18 32 28 42q25 25 67 33q-44 6 -72 36q-27 29 -27 71q0 60 45 105q61 60 189 60q51 0 133 -12l19 -3l-105 -498h-90zM351 277
l34 158q-43 8 -67 8q-68 0 -101 -33q-24 -26 -24 -63q0 -30 19 -48q23 -22 81 -22h58z" />
    <glyph glyph-name="uni0450" unicode="&#x450;" horiz-adv-x="506" 
d="M479 383q0 -62 -46 -105q-63 -60 -214 -60q-12 0 -33.5 1.5t-28.5 1.5q-7 -30 -7 -58q0 -48 27 -74.5t69 -26.5q79 0 145 56l33 -57q-42 -38 -88.5 -55.5t-114.5 -17.5q-77 0 -124 48.5t-47 133.5q0 75 29.5 150t81.5 125q73 70 167 70q72 0 111.5 -34.5t39.5 -97.5z
M386 379q0 65 -71 65q-46 0 -85.5 -41t-57.5 -114q22 -2 48 -2q106 0 142 36q24 24 24 56zM426 616l-32 -53l-221 100l49 84z" />
    <glyph glyph-name="afii10071" unicode="&#x451;" horiz-adv-x="506" 
d="M479 383q0 -62 -46 -105q-63 -60 -214 -60q-12 0 -33.5 1.5t-28.5 1.5q-7 -30 -7 -58q0 -48 27 -74.5t69 -26.5q79 0 145 56l33 -57q-42 -38 -88.5 -55.5t-114.5 -17.5q-77 0 -124 48.5t-47 133.5q0 75 29.5 150t81.5 125q73 70 167 70q72 0 111.5 -34.5t39.5 -97.5z
M386 379q0 65 -71 65q-46 0 -85.5 -41t-57.5 -114q22 -2 48 -2q106 0 142 36q24 24 24 56zM291 625q0 -25 -17 -42.5t-41 -17.5q-25 0 -42 17.5t-17 42.5q0 24 17 41t41 17q25 0 42 -17t17 -41zM499 625q0 -25 -17 -42.5t-41 -17.5q-25 0 -42 17.5t-17 42.5q0 24 17 41
t41 17q25 0 42 -17t17 -41z" />
    <glyph glyph-name="afii10099" unicode="&#x452;" horiz-adv-x="566" 
d="M514 418q0 -16 -9 -61l-59 -280q-11 -52 -20 -83.5t-28.5 -71t-46.5 -66.5q-42 -42 -96 -60l-30 57q34 15 55 36q46 44 76 190l54 259q7 32 7 47q0 49 -51 49q-33 0 -79.5 -29.5t-84.5 -76.5l-70 -328h-92l117 551h-58l13 60h56q3 23 3 41q0 28 -7 52l97 35q6 -21 6 -53
q0 -28 -7 -75h172l-35 -60h-148l-10 -50q-9 -42 -23 -85q38 48 89.5 72.5t99.5 24.5q51 0 80 -26.5t29 -68.5z" />
    <glyph glyph-name="afii10100" unicode="&#x453;" horiz-adv-x="463" 
d="M134 403l-24 67q39 20 72 30q45 14 95 14q82 0 123 -41q34 -34 34 -87q0 -51 -34 -83q-29 -29 -139 -73q-42 -17 -58.5 -24t-34 -16.5t-27.5 -19.5q-22 -21 -22 -51q0 -23 17 -38q21 -19 71 -19q57 0 108 24q14 6 37 19l23 -68l-11 -6q-36 -20 -85 -32q-45 -11 -96 -11
q-89 0 -129 41q-31 31 -31 83q0 59 42 99q31 30 131 67l45 17q63 24 81 44q17 17 17 43q0 23 -16 39q-20 19 -62 19q-40 0 -86 -18q-25 -10 -41 -19zM409 663l-229 -101l-29 54l214 131z" />
    <glyph glyph-name="afii10101" unicode="&#x454;" horiz-adv-x="468" 
d="M320 225h-159q-10 -38 -10 -72q0 -46 23 -68q23 -23 66 -23q40 0 73 18q23 12 48 34l35 -59q-33 -32 -74 -49q-41 -18 -97 -18q-82 0 -126 40q-46 42 -46 130q0 73 30.5 155.5t86.5 134.5q70 66 163 66q53 0 79 -13q28 -12 53 -33l-54 -62q-34 35 -87 35t-91 -38
q-40 -40 -57 -108h159z" />
    <glyph glyph-name="afii10102" unicode="&#x455;" horiz-adv-x="472" 
d="M442 480l-37 -68q-64 36 -119 36q-46 0 -75 -18t-29 -51q0 -24 12 -38t42 -27l62 -25q104 -42 104 -123t-62 -131t-163 -50q-103 0 -179 51l38 69q70 -48 152 -48q48 0 79.5 22t31.5 57q0 28 -14 44.5t-50 31.5l-58 24q-50 21 -73.5 49t-23.5 72q0 70 57.5 116.5
t154.5 46.5q89 0 150 -40z" />
    <glyph glyph-name="afii10103" unicode="&#x456;" horiz-adv-x="275" 
d="M245 513l-109 -513h-96l106 498zM294 652q0 -28 -19 -47t-47 -19t-47.5 19t-19.5 47t19.5 47.5t47.5 19.5t47 -19.5t19 -47.5z" />
    <glyph glyph-name="afii10104" unicode="&#x457;" horiz-adv-x="275" 
d="M245 513l-109 -513h-96l106 498zM174 625q0 -25 -17 -42.5t-41 -17.5q-25 0 -42 17.5t-17 42.5q0 24 17 41t41 17q25 0 42 -17t17 -41zM382 625q0 -25 -17 -42.5t-41 -17.5q-25 0 -42 17.5t-17 42.5q0 24 17 41t41 17q25 0 42 -17t17 -41z" />
    <glyph glyph-name="afii10105" unicode="&#x458;" horiz-adv-x="269" 
d="M240 514l-106 -501q-20 -98 -62 -146q-38 -44 -107 -71l-32 59q49 20 71 54q22 33 38 106l102 481zM290 659q0 -28 -19 -47.5t-47 -19.5t-47.5 19t-19.5 46q0 29 19.5 49t47.5 20q27 0 46.5 -20t19.5 -47z" />
    <glyph glyph-name="afii10106" unicode="&#x459;" horiz-adv-x="732" 
d="M284 24l86 408h-110l-25 -82l-52 -163q-36 -113 -75 -151q-38 -37 -102 -42l-36 -3l-6 65l22 5q37 9 55 27q43 39 86 182l38 126l30 106h280l-42 -197q41 13 86 13q86 0 130 -44q37 -37 37 -96q0 -75 -53 -128q-62 -62 -169 -62q-96 0 -164 29zM418 235l-34 -163
q38 -14 81 -14q55 0 88 30q33 31 33 80q0 37 -20 57q-22 23 -72 23q-36 0 -76 -13z" />
    <glyph glyph-name="afii10107" unicode="&#x45a;" horiz-adv-x="774" 
d="M327 24l44 208h-192l-49 -232h-90l105 496l94 18l-45 -212h192l41 195l93 17l-44 -209q41 13 86 13q86 0 130 -44q37 -37 37 -96q0 -75 -53 -128q-62 -62 -169 -62q-96 0 -164 29zM461 235l-34 -163q39 -14 81 -14q55 0 88 30q33 31 33 80q0 37 -20 57q-22 23 -72 23
q-36 0 -76 -13z" />
    <glyph glyph-name="afii10108" unicode="&#x45b;" horiz-adv-x="565" 
d="M514 418q0 -16 -9 -61l-76 -357h-90l71 338q7 32 7 47q0 49 -51 49q-33 0 -79.5 -29.5t-84.5 -76.5l-70 -328h-92l117 551h-58l13 60h56q3 23 3 41q0 28 -7 52l97 35q6 -21 6 -53q0 -28 -7 -75h172l-35 -60h-148l-10 -50q-9 -42 -23 -85q38 48 89.5 72.5t99.5 24.5
q51 0 80 -26.5t29 -68.5z" />
    <glyph glyph-name="afii10109" unicode="&#x45c;" horiz-adv-x="531" 
d="M146 496l95 18l-44 -205l-26 -91h2q26 52 52 94q36 57 79 99q43 41 96 68q50 24 99 34l22 -66l-17 -4q-86 -21 -166 -99q-31 -30 -53 -65l20 -2q48 -6 67 -26q20 -20 24 -70l6 -78q2 -24 11 -33q7 -7 28 -13l19 -5l-25 -62l-43 5q-45 6 -61 23q-19 20 -19 76l-1 73
q0 29 -15 41q-14 13 -50 13q-61 -88 -115 -221h-91zM449 663l-229 -101l-29 54l214 131z" />
    <glyph glyph-name="uni045D" unicode="&#x45d;" horiz-adv-x="555" 
d="M523 511l-77 -363q-7 -32 -7 -57q0 -34 19 -62l-75 -49q-34 36 -34 87v12q-83 -95 -179 -95q-110 0 -110 101q0 37 8 75l72 336l94 17l-70 -333q-9 -40 -9 -66q0 -29 10.5 -41.5t34.5 -12.5q37 0 82.5 30.5t78.5 83.5l68 320zM456 616l-32 -53l-221 100l49 84z" />
    <glyph glyph-name="afii10110" unicode="&#x45e;" horiz-adv-x="474" 
d="M520 502l-247 -447q-8 -15 -24 -43.5t-23 -41.5t-19.5 -34.5t-20.5 -33t-19 -26t-21.5 -24.5t-21.5 -18q-47 -33 -106 -44l-20 63q39 5 88 42q37 29 70 105l-33 -3q0 74 -12 170l-42 328l96 17l32 -314q5 -47 3 -121h1q1 5 58 119l157 306h104zM395 700l47 -25
q-16 -37 -43 -64q-46 -46 -118 -46q-63 0 -95 32t-33 78l58 25q2 -28 19 -45q19 -20 58 -20q38 0 63 17q22 13 44 48z" />
    <glyph glyph-name="afii10193" unicode="&#x45f;" horiz-adv-x="555" 
d="M170 -175l35 132l87 31l-36 -163h-86zM523 511l-77 -363q-7 -32 -7 -57q0 -34 19 -62l-75 -49q-34 36 -34 87v12q-83 -95 -179 -95q-110 0 -110 101q0 37 8 75l72 336l94 17l-70 -333q-9 -40 -9 -66q0 -29 10.5 -41.5t34.5 -12.5q37 0 82.5 30.5t78.5 83.5l68 320z" />
    <glyph glyph-name="afii10146" unicode="&#x462;" horiz-adv-x="566" 
d="M282 688l-20 -94h128l-14 -58h-127l-26 -125h98q57 0 98.5 -10t74.5 -44q42 -43 42 -115q0 -98 -69 -164q-81 -78 -225 -78h-202l113 536h-53l13 58h53l20 94h96zM152 78h88q96 0 144 46q46 44 46 111q0 44 -26 70q-28 28 -93 28h-104z" />
    <glyph glyph-name="afii10194" unicode="&#x463;" horiz-adv-x="493" 
d="M46 24l76 363h-46l13 58h46l11 52l93 17l-15 -69h128l-13 -58h-127l-17 -82q41 13 86 13q86 0 130 -44q37 -37 37 -96q0 -75 -53 -128q-62 -62 -169 -62q-96 0 -164 29zM180 235l-34 -163q38 -14 81 -14q55 0 88 30q33 31 33 80q0 37 -20 57q-22 23 -72 23q-36 0 -76 -13
z" />
    <glyph glyph-name="afii10147" unicode="&#x472;" horiz-adv-x="688" 
d="M661 463q0 -129 -48 -246t-134 -175q-80 -54 -187 -54q-110 0 -165 65t-55 179q0 116 42 220t105 164q46 42 97 63t125 21q104 0 162 -62.5t58 -174.5zM535 319h-350q-8 -56 -8 -106q0 -151 134 -151q79 0 133 57q56 59 91 200zM555 476q0 147 -131 147q-98 0 -153 -75
q-43 -59 -68 -148h347q5 45 5 76z" />
    <glyph glyph-name="afii10195" unicode="&#x473;" horiz-adv-x="540" 
d="M501 336q0 -147 -78 -247.5t-205 -100.5q-82 0 -127 47t-45 133q0 148 80 247.5t202 99.5q85 0 129 -47.5t44 -131.5zM235 61q54 0 92 43t57 114h-235q-3 -28 -3 -57q0 -100 89 -100zM400 343q0 99 -88 99q-52 0 -91 -43t-58 -112h234q3 27 3 56z" />
    <glyph glyph-name="afii10148" unicode="&#x474;" horiz-adv-x="581" 
d="M555 486l-271 -487h-93l-85 689h101l48 -420q9 -82 7 -145q26 56 72 142l146 270q40 75 84 114t121 51l19 -74q-29 -6 -51 -17.5t-40 -33t-28.5 -38t-29.5 -51.5z" />
    <glyph glyph-name="afii10196" unicode="&#x475;" horiz-adv-x="462" 
d="M421 333l-197 -337h-85l-75 501l94 17l39 -315q6 -48 6 -94h1q15 37 46 95l96 173q34 61 70 94t93 48l21 -73q-39 -14 -59.5 -36.5t-49.5 -72.5z" />
    <glyph glyph-name="afii10050" unicode="&#x490;" horiz-adv-x="411" 
d="M471 792h89l-39 -185h-254l-129 -607h-98l146 688h263z" />
    <glyph glyph-name="afii10098" unicode="&#x491;" horiz-adv-x="416" 
d="M471 596l-34 -164h-209l-91 -432h-97l106 502h209l17 79z" />
    <glyph glyph-name="uni0492" unicode="&#x492;" horiz-adv-x="411" 
d="M537 688l-32 -81h-238l-42 -198h116l-16 -73h-116l-71 -336h-98l71 336h-81l16 73h81l59 279h351z" />
    <glyph glyph-name="uni0493" unicode="&#x493;" horiz-adv-x="463" 
d="M134 403l-24 67q39 20 72 30q45 14 95 14q68 0 112.5 -31t44.5 -86q0 -32 -26 -64t-61 -50h79l-26 -56h-169q-35 -14 -55 -24.5t-38.5 -31.5t-18.5 -48q0 -33 26 -47t62 -14q57 0 108 24q14 6 37 19l23 -68l-11 -6q-36 -20 -85 -32q-45 -11 -96 -11q-71 0 -115.5 27.5
t-44.5 89.5q0 37 29.5 70t79.5 57h-84l10 56h193q42 20 65 40t23 48q0 64 -78 64q-40 0 -86 -18q-25 -10 -41 -19z" />
    <glyph glyph-name="uni0496" unicode="&#x496;" horiz-adv-x="891" 
d="M525 404h61q46 0 74 22q24 18 46 69l41 96q16 40 38 63q28 30 89 37l55 6l4 -66l-34 -8q-33 -9 -48 -25q-10 -10 -22 -34l-45 -90q-25 -51 -46 -72q-26 -26 -62 -36q13 -5 26 -18q32 -32 36 -87l9 -132q2 -35 23 -49h59l-54 -260h-92l37 181q-35 7 -51 26q-22 23 -22 76
l-1 129q0 54 -21 75q-19 19 -67 19h-50l-69 -326h-96l69 326h-49q-59 0 -91 -33q-19 -19 -37 -61l-46 -108q-1 -3 -6.5 -16.5t-8.5 -19.5l-8.5 -17t-12 -19t-13.5 -15q-33 -32 -97 -39l-54 -6l-4 67l29 8q35 10 51 25q12 11 25 40l61 129q15 33 42 60q29 29 72 45
q-22 10 -34 22q-29 27 -31 86l-5 85q-3 38 -12 48q-6 7 -36 17l-29 10l32 63l46 -6q46 -6 64 -24q5 -5 9 -11.5t6 -11.5t3.5 -14.5t1.5 -12t0.5 -14t0.5 -12.5l3 -96q0 -2 0.5 -9.5t0.5 -10.5t0.5 -10t2 -11t3 -9.5t4 -10t6.5 -8.5q19 -22 69 -22h59l60 284h96z" />
    <glyph glyph-name="uni0497" unicode="&#x497;" horiz-adv-x="832" 
d="M719 72h67l-51 -245h-86l34 163q-18 -2 -23 -2q-59 0 -94 36q-40 40 -40 125q0 42 8 82h-78l-49 -231h-90l49 231h-78q-34 -122 -98 -185q-59 -58 -133 -58q-53 0 -92 39l47 59q24 -28 53 -28q33 0 61 28q43 43 67 124t24 148q0 50 -21 71q-15 15 -39 15q-43 0 -74 -40
l-32 54q53 56 119 56q59 0 96 -37q39 -40 39 -125q0 -27 -2 -51h78l41 195l94 18l-45 -213h82q31 94 93 155q58 58 129 58q55 0 92 -40l-48 -58q-19 28 -52 28q-31 0 -59 -26q-39 -36 -67 -121q-27 -81 -27 -156q0 -45 15 -63q16 -20 44 -20q26 0 46 14z" />
    <glyph glyph-name="uni049A" unicode="&#x49a;" horiz-adv-x="608" 
d="M646 697l4 -66l-34 -8q-31 -7 -47 -23q-12 -12 -24 -36l-41 -87q-23 -50 -47 -75q-27 -28 -64 -36q16 -6 29 -18q28 -27 33 -87l8 -127q2 -40 21 -54h63l-54 -260h-92l37 181q-34 9 -51 26q-23 23 -23 76l-1 129q0 50 -17 71q-19 23 -71 23h-70l-69 -326h-96l146 688h96
l-60 -284h83q53 0 81 29q18 18 37 62l41 96q19 45 41 66q28 27 86 34z" />
    <glyph glyph-name="uni049B" unicode="&#x49b;" horiz-adv-x="531" 
d="M146 496l95 18l-44 -205l-26 -91h2q26 52 52 94q36 57 79 99q43 41 96 68q50 24 99 34l22 -66l-17 -4q-86 -21 -166 -99q-31 -30 -53 -65l20 -2q48 -6 67 -26q20 -20 24 -70l6 -78q1 -22 9 -31h53l-51 -245h-86l36 173q-22 5 -32 18q-19 20 -19 76l-1 73q0 29 -15 41
q-14 13 -50 13q-61 -88 -115 -221h-91z" />
    <glyph glyph-name="uni049C" unicode="&#x49c;" horiz-adv-x="608" 
d="M646 697l4 -66l-34 -8q-31 -7 -47 -23q-12 -12 -24 -36l-41 -87q-23 -50 -47 -75q-27 -28 -64 -36q16 -6 29 -18q28 -27 33 -87l8 -127q3 -35 14 -47q8 -9 40 -20l25 -8l-32 -67l-50 6q-50 6 -73 29t-23 76l-1 129q0 50 -17 71q-10 11 -23 17l-28 -129h-74l29 135h-45
l-69 -326h-96l146 688h96l-60 -284h45l27 126h74l-27 -123q27 7 45 26q18 18 37 62l41 96q19 45 41 66q28 27 86 34z" />
    <glyph glyph-name="uni049D" unicode="&#x49d;" horiz-adv-x="536" 
d="M259 405h64l-23 -108q16 3 31 14q22 17 35 50l23 57q17 42 37 59q30 24 77 29l36 4l7 -59l-25 -6q-24 -6 -37 -15q-11 -9 -25 -39l-23 -52q-14 -32 -36 -51q-22 -18 -41 -23v-3q19 -4 30 -20q13 -20 16 -54l6 -83q2 -26 10 -34q10 -10 33 -15l15 -4l-25 -62l-33 4
q-3 0 -12.5 1.5t-12.5 2t-10.5 1.5t-11 3t-9 4.5t-10 6t-8.5 8.5q-15 18 -16 70l-1 69q0 36 -14 51q-8 10 -22 13l-24 -115h-64l25 119h-41l-48 -228h-92l105 496l96 17l-46 -217h41z" />
    <glyph glyph-name="uni04A2" unicode="&#x4a2;" horiz-adv-x="639" 
d="M645 688l-129 -608h46l-54 -260h-92l37 180h-52l70 326h-266l-70 -326h-95l146 688h95l-60 -282h267l60 282h97z" />
    <glyph glyph-name="uni04A3" unicode="&#x4a3;" horiz-adv-x="551" 
d="M179 232l-49 -232h-90l105 496l94 18l-45 -212h192l41 194l94 18l-94 -442h43l-51 -245h-86l36 173h-47l49 232h-192z" />
    <glyph glyph-name="uni04AE" unicode="&#x4ae;" horiz-adv-x="543" 
d="M639 688l-311 -416l-58 -272h-101l59 276l-132 412h114l67 -243q15 -55 18 -80l54 79l174 244h116z" />
    <glyph glyph-name="uni04AF" unicode="&#x4af;" horiz-adv-x="416" 
d="M89 340l-20 155l95 17l13 -123q9 -87 7 -240l183 353h96l-282 -501q-1 -12 -17.5 -81t-30.5 -111l-94 -20q62 196 62 322q0 139 -12 229z" />
    <glyph glyph-name="uni04B0" unicode="&#x4b0;" horiz-adv-x="543" 
d="M639 688l-277 -370h142l-16 -73h-166l-52 -245h-101l52 245h-150l16 73h127l-118 370h114l67 -243q15 -55 18 -80l54 79l174 244h116z" />
    <glyph glyph-name="uni04B1" unicode="&#x4b1;" horiz-adv-x="416" 
d="M298 0h-117q-2 -14 -18.5 -81.5t-29.5 -109.5l-94 -20q40 129 52 211h-103l13 68h98q2 28 2 43q0 139 -12 229l-20 155l95 17l13 -123q9 -87 7 -240l183 353h96l-245 -434h115z" />
    <glyph glyph-name="uni04B2" unicode="&#x4b2;" horiz-adv-x="501" 
d="M587 688l-250 -328l110 -280h49l-54 -260h-92l37 180h-20l-102 281l-206 -281h-120l291 370l-121 318h109l82 -235l169 235h118z" />
    <glyph glyph-name="uni04B3" unicode="&#x4b3;" horiz-adv-x="423" 
d="M470 502l-200 -230l96 -200h50l-51 -245h-86l36 173h-23q-2 7 -22.5 57t-40 97t-19.5 50q-1 -2 -18 -22.5t-40.5 -49.5t-46.5 -57t-41.5 -50.5t-20.5 -24.5h-115l246 276l-104 220l105 9q57 -142 62 -163q3 6 61.5 81.5t60.5 78.5h111z" />
    <glyph glyph-name="uni04B6" unicode="&#x4b6;" horiz-adv-x="587" 
d="M593 688l-129 -608h45l-54 -260h-92l37 180h-49l64 302q-76 -31 -154 -31q-85 0 -123 38q-33 33 -33 88q0 16 5 43l53 248h96l-50 -234q-4 -16 -4 -32q0 -36 19 -52q23 -21 69 -21q62 0 138 27l66 312h96z" />
    <glyph glyph-name="uni04B7" unicode="&#x4b7;" horiz-adv-x="504" 
d="M380 497l94 17l-94 -442h43l-51 -245h-86l36 173h-47l44 209q-51 -24 -109 -24q-70 0 -107 35q-28 27 -28 68q0 19 7 53l33 156l95 17l-37 -175q-4 -17 -4 -29q0 -24 15 -37q19 -18 59 -18q49 0 90 20z" />
    <glyph glyph-name="uni04B8" unicode="&#x4b8;" horiz-adv-x="587" 
d="M447 0h-96l64 302q-39 -17 -90 -26l-28 -131h-74l27 126q-77 3 -112 38q-33 33 -33 88q0 16 5 43l53 248h96l-50 -234q-4 -16 -4 -32q0 -36 19 -52q14 -14 43 -20l29 134h74l-28 -131q42 6 89 23l66 312h96z" />
    <glyph glyph-name="uni04B9" unicode="&#x4b9;" horiz-adv-x="504" 
d="M380 497l94 17l-109 -514h-90l44 209q-32 -15 -63 -20l-24 -116h-59l24 112q-63 4 -94 35q-28 27 -28 68q0 19 7 53l33 156l95 17l-37 -175q-4 -16 -4 -29q0 -24 15 -37q9 -9 28 -15l24 111h59l-24 -112q31 3 62 18z" />
    <glyph glyph-name="uni04BA" unicode="&#x4ba;" horiz-adv-x="590" 
d="M186 688h96l-64 -302q76 31 154 31q85 0 123 -38q33 -33 33 -88q0 -16 -5 -43l-53 -248h-96l50 234q4 16 4 32q0 36 -19 52q-23 21 -69 21q-62 0 -138 -27l-66 -312h-96z" />
    <glyph glyph-name="uni04BB" unicode="&#x4bb;" horiz-adv-x="569" 
d="M514 418q0 -16 -9 -61l-76 -357h-90l71 338q7 32 7 47q0 49 -51 49q-33 0 -79.5 -29.5t-84.5 -76.5l-70 -328h-92l118 553q13 63 13 99q0 28 -7 52l97 35q6 -21 6 -53q0 -56 -15 -124l-13 -61q-9 -42 -23 -85q38 48 89.5 72.5t99.5 24.5q51 0 80 -26.5t29 -68.5z" />
    <glyph glyph-name="uni04C0" unicode="&#x4c0;" horiz-adv-x="277" 
d="M283 688l-147 -688h-96l146 688h97z" />
    <glyph glyph-name="uni04CF" unicode="&#x4cf;" horiz-adv-x="271" 
d="M260 739q6 -19 6 -53q0 -55 -14 -123l-121 -563h-92l117 555q12 59 12 100q0 29 -6 49z" />
    <glyph glyph-name="uni04D8" unicode="&#x4d8;" horiz-adv-x="599" 
d="M219 -12q-91 0 -141.5 45t-52.5 124q-1 60 26.5 105t75.5 70.5t104.5 37.5t121.5 12q41 0 103 -5q6 42 6 89q0 77 -36.5 117t-97.5 40q-101 0 -194 -80l-39 68q64 49 120.5 69t126.5 20q109 0 169 -65t60 -178q0 -101 -37.5 -208t-100.5 -169q-92 -92 -214 -92zM234 62
q70 0 125 64.5t81 174.5q-33 3 -80 3q-40 0 -76 -6t-73 -20t-58.5 -44t-20.5 -72q1 -44 26.5 -72t75.5 -28z" />
    <glyph glyph-name="afii10846" unicode="&#x4d9;" horiz-adv-x="500" 
d="M26 120q0 62 46 105q63 60 214 60q12 0 33.5 -1.5t28.5 -1.5q7 30 7 58q0 48 -27 74.5t-69 26.5q-79 0 -145 -56l-33 57q42 38 88.5 55.5t114.5 17.5q77 0 124 -48.5t47 -133.5q0 -75 -29.5 -150t-81.5 -125q-73 -70 -167 -70q-72 0 -111.5 34.5t-39.5 97.5zM119 124
q0 -65 71 -65q46 0 85.5 41t57.5 114q-22 2 -48 2q-106 0 -142 -36q-24 -24 -24 -56z" />
    <glyph glyph-name="uni04E2" unicode="&#x4e2;" horiz-adv-x="661" 
d="M521 0h-96l94 443q3 16 34 135q-24 -49 -50 -84l-363 -494h-100l147 688h96l-96 -449q-16 -73 -32 -119q26 53 63 102l340 466h110zM582 820l-14 -68h-264l14 68h264z" />
    <glyph glyph-name="uni04E3" unicode="&#x4e3;" horiz-adv-x="555" 
d="M480 659l-14 -68h-244l14 68h244zM523 511l-77 -363q-7 -32 -7 -57q0 -34 19 -62l-75 -49q-34 36 -34 87v12q-83 -95 -179 -95q-110 0 -110 101q0 37 8 75l72 336l94 17l-70 -333q-9 -40 -9 -66q0 -29 10.5 -41.5t34.5 -12.5q37 0 82.5 30.5t78.5 83.5l68 320z" />
    <glyph glyph-name="uni04E8" unicode="&#x4e8;" horiz-adv-x="688" 
d="M661 463q0 -129 -48 -246t-134 -175q-80 -54 -187 -54q-110 0 -165 65t-55 179q0 116 42 220t105 164q46 42 97 63t125 21q104 0 162 -62.5t58 -174.5zM535 319h-350q-8 -56 -8 -106q0 -151 134 -151q79 0 133 57q56 59 91 200zM555 476q0 147 -131 147q-98 0 -153 -75
q-43 -59 -68 -148h347q5 45 5 76z" />
    <glyph glyph-name="uni04E9" unicode="&#x4e9;" horiz-adv-x="540" 
d="M501 336q0 -147 -78 -247.5t-205 -100.5q-82 0 -127 47t-45 133q0 148 80 247.5t202 99.5q85 0 129 -47.5t44 -131.5zM235 61q54 0 92 43t57 114h-235q-3 -28 -3 -57q0 -100 89 -100zM400 343q0 99 -88 99q-52 0 -91 -43t-58 -112h234q3 27 3 56z" />
    <glyph glyph-name="uni04EE" unicode="&#x4ee;" horiz-adv-x="521" 
d="M203 688l60 -323q12 -68 17 -109q36 71 62 119l171 313h97l-314 -562q-33 -59 -58 -85q-50 -53 -136 -60l-34 -3l-3 69l20 4q60 11 92 43q18 18 48 72l21 38l-49 -9l-95 493h101zM508 820l-14 -68h-264l14 68h264z" />
    <glyph glyph-name="uni04EF" unicode="&#x4ef;" horiz-adv-x="474" 
d="M438 659l-14 -68h-244l14 68h244zM520 502l-247 -447q-8 -15 -24 -43.5t-23 -41.5t-19.5 -34.5t-20.5 -33t-19 -26t-21.5 -24.5t-21.5 -18q-47 -33 -106 -44l-20 63q39 5 88 42q37 29 70 105l-33 -3q0 74 -12 170l-42 328l96 17l32 -314q5 -47 3 -121h1q1 5 58 119
l157 306h104z" />
    <glyph glyph-name="Wgrave" unicode="&#x1e80;" horiz-adv-x="808" 
d="M894 688l-307 -689h-119l-3 356q-1 108 8 202q-41 -109 -78 -197l-154 -361h-118l-17 689h100l2 -368q1 -56 -9 -216q40 108 82 206l164 378h108l2 -376q0 -163 -5 -205q28 79 86 217l155 364h103zM588 777l-32 -53l-221 100l49 84z" />
    <glyph glyph-name="wgrave" unicode="&#x1e81;" horiz-adv-x="686" 
d="M733 502l-250 -505h-87l-13 196q-10 152 -10 201h-1q-15 -45 -45 -106l-143 -291h-87l-32 499l93 17l8 -296q1 -60 -2 -102h2q12 33 44 99l140 288h95l14 -290q3 -68 3 -103h1q9 30 39 96l132 297h99zM554 616l-32 -53l-221 100l49 84z" />
    <glyph glyph-name="Wacute" unicode="&#x1e82;" horiz-adv-x="808" 
d="M894 688l-307 -689h-119l-3 356q-1 108 8 202q-41 -109 -78 -197l-154 -361h-118l-17 689h100l2 -368q1 -56 -9 -216q40 108 82 206l164 378h108l2 -376q0 -163 -5 -205q28 79 86 217l155 364h103zM666 824l-229 -101l-29 54l214 131z" />
    <glyph glyph-name="wacute" unicode="&#x1e83;" horiz-adv-x="686" 
d="M733 502l-250 -505h-87l-13 196q-10 152 -10 201h-1q-15 -45 -45 -106l-143 -291h-87l-32 499l93 17l8 -296q1 -60 -2 -102h2q12 33 44 99l140 288h95l14 -290q3 -68 3 -103h1q9 30 39 96l132 297h99zM546 663l-229 -101l-29 54l214 131z" />
    <glyph glyph-name="Wdieresis" unicode="&#x1e84;" horiz-adv-x="808" 
d="M894 688l-307 -689h-119l-3 356q-1 108 8 202q-41 -109 -78 -197l-154 -361h-118l-17 689h100l2 -368q1 -56 -9 -216q40 108 82 206l164 378h108l2 -376q0 -163 -5 -205q28 79 86 217l155 364h103zM669 789q0 -25 -17 -42.5t-41 -17.5q-25 0 -42.5 17.5t-17.5 42.5
q0 24 17 41t42 17q24 0 41.5 -17t17.5 -41zM461 789q0 -25 -17 -42.5t-41 -17.5q-25 0 -42 17.5t-17 42.5q0 24 17 41t41 17q25 0 42 -17t17 -41z" />
    <glyph glyph-name="wdieresis" unicode="&#x1e85;" horiz-adv-x="686" 
d="M733 502l-250 -505h-87l-13 196q-10 152 -10 201h-1q-15 -45 -45 -106l-143 -291h-87l-32 499l93 17l8 -296q1 -60 -2 -102h2q12 33 44 99l140 288h95l14 -290q3 -68 3 -103h1q9 30 39 96l132 297h99zM584 625q0 -25 -17 -42.5t-41 -17.5q-25 0 -42.5 17.5t-17.5 42.5
q0 24 17 41t42 17q24 0 41.5 -17t17.5 -41zM376 625q0 -25 -17 -42.5t-41 -17.5q-25 0 -42 17.5t-17 42.5q0 24 17 41t41 17q25 0 42 -17t17 -41z" />
    <glyph glyph-name="uni1E8A" unicode="&#x1e8a;" horiz-adv-x="501" 
d="M587 688l-250 -328l142 -360h-112l-102 281l-206 -281h-120l291 370l-121 318h109l82 -235l169 235h118zM427 795q0 -28 -19.5 -47t-47.5 -19t-47 19t-19 47t19.5 47.5t47.5 19.5q27 0 46.5 -19.5t19.5 -47.5z" />
    <glyph glyph-name="uni1E8B" unicode="&#x1e8b;" horiz-adv-x="423" 
d="M470 502l-200 -230l131 -272h-109q-2 7 -22.5 57t-40 97t-19.5 50q-1 -2 -18 -22.5t-40.5 -49.5t-46.5 -57t-41.5 -50.5t-20.5 -24.5h-115l246 276l-104 220l105 9q57 -142 62 -163q3 6 61.5 81.5t60.5 78.5h111zM355 652q0 -28 -19.5 -47t-47.5 -19t-47 19t-19 47
t19.5 47.5t47.5 19.5q27 0 46.5 -19.5t19.5 -47.5z" />
    <glyph glyph-name="Ygrave" unicode="&#x1ef2;" horiz-adv-x="543" 
d="M639 688l-311 -416l-58 -272h-101l59 276l-132 412h114l67 -243q15 -55 18 -80l54 79l174 244h116zM454 777l-32 -53l-221 100l49 84z" />
    <glyph glyph-name="ygrave" unicode="&#x1ef3;" horiz-adv-x="474" 
d="M520 502l-247 -447q-8 -15 -24 -43.5t-23 -41.5t-19.5 -34.5t-20.5 -33t-19 -26t-21.5 -24.5t-21.5 -18q-47 -33 -106 -44l-20 63q39 5 88 42q37 29 70 105l-33 -3q0 74 -12 170l-42 328l96 17l32 -314q5 -47 3 -121h1q1 5 58 119l157 306h104zM406 616l-32 -53l-221 100
l49 84z" />
    <glyph glyph-name="uni2007" unicode="&#x2007;" horiz-adv-x="592" 
 />
    <glyph glyph-name="uni2008" unicode="&#x2008;" horiz-adv-x="287" 
 />
    <glyph glyph-name="uni200B" unicode="&#x200b;" horiz-adv-x="0" 
 />
    <glyph glyph-name="endash" unicode="&#x2013;" horiz-adv-x="588" 
d="M554 313l-15 -70h-486l16 70h485z" />
    <glyph glyph-name="emdash" unicode="&#x2014;" horiz-adv-x="815" 
d="M781 313l-15 -70h-713l16 70h712z" />
    <glyph glyph-name="afii00208" unicode="&#x2015;" horiz-adv-x="815" 
d="M781 313l-15 -70h-713l16 70h712z" />
    <glyph glyph-name="quoteleft" unicode="&#x2018;" horiz-adv-x="270" 
d="M312 668q-30 -13 -54 -37.5t-27 -50.5q20 -2 34 -22t14 -45q0 -34 -22.5 -55.5t-55.5 -21.5q-34 0 -56 23t-22 61q0 75 82 147q26 23 79 47z" />
    <glyph glyph-name="quoteright" unicode="&#x2019;" horiz-adv-x="270" 
d="M289 617q0 -75 -82 -147q-26 -23 -79 -47l-28 46q30 13 54 37.5t27 50.5q-20 2 -34 22t-14 45q0 34 22.5 55.5t55.5 21.5q34 0 56 -23t22 -61z" />
    <glyph glyph-name="quotesinglbase" unicode="&#x201a;" horiz-adv-x="269" 
d="M166 49q0 -75 -82 -147q-26 -23 -79 -47l-28 46q30 13 54 37.5t27 50.5q-20 2 -34 22t-14 45q0 34 22.5 55.5t55.5 21.5q34 0 56 -23t22 -61z" />
    <glyph glyph-name="quotedblleft" unicode="&#x201c;" horiz-adv-x="477" 
d="M520 668q-30 -13 -54 -37.5t-27 -50.5q20 -2 34 -22t14 -45q0 -34 -22.5 -55.5t-55.5 -21.5q-34 0 -56 23t-22 61q0 75 82 147q26 23 79 47zM312 668q-30 -13 -54 -37.5t-27 -50.5q20 -2 34 -22t14 -45q0 -34 -22.5 -55.5t-55.5 -21.5q-34 0 -56 23t-22 61q0 75 82 147
q26 23 79 47z" />
    <glyph glyph-name="quotedblright" unicode="&#x201d;" horiz-adv-x="474" 
d="M494 617q0 -75 -82 -147q-26 -23 -79 -47l-28 46q30 13 54 37.5t27 50.5q-20 2 -34 22t-14 45q0 34 22.5 55.5t55.5 21.5q34 0 56 -23t22 -61zM290 617q0 -75 -82 -147q-26 -23 -79 -47l-28 46q30 13 54 37.5t27 50.5q-20 2 -34 22t-14 45q0 34 22.5 55.5t55.5 21.5
q34 0 56 -23t22 -61z" />
    <glyph glyph-name="quotedblbase" unicode="&#x201e;" horiz-adv-x="475" 
d="M373 49q0 -75 -82 -147q-26 -23 -79 -47l-28 46q30 13 54 37.5t27 50.5q-20 2 -34 22t-14 45q0 34 22.5 55.5t55.5 21.5q34 0 56 -23t22 -61zM167 49q0 -75 -82 -147q-26 -23 -79 -47l-28 46q30 13 54 37.5t27 50.5q-20 2 -34 22t-14 45q0 34 22.5 55.5t55.5 21.5
q34 0 56 -23t22 -61z" />
    <glyph glyph-name="dagger" unicode="&#x2020;" horiz-adv-x="481" 
d="M513 529l-31 -82h-147l-96 -447h-92l95 447h-155l18 82h155l33 159h93l-34 -159h161z" />
    <glyph glyph-name="daggerdbl" unicode="&#x2021;" horiz-adv-x="495" 
d="M517 529l-31 -82h-147l-45 -206h162l-31 -82h-148l-34 -159h-92l34 159h-155l18 82h154l44 206h-155l18 82h155l33 159h93l-34 -159h161z" />
    <glyph glyph-name="bullet" unicode="&#x2022;" horiz-adv-x="521" 
d="M462 354q0 -74 -52 -125.5t-125 -51.5t-125 51.5t-52 125.5t52 125.5t125 51.5t125 -51.5t52 -125.5z" />
    <glyph glyph-name="ellipsis" unicode="&#x2026;" horiz-adv-x="788" 
d="M658 60q0 -30 -22 -52t-51 -22q-30 0 -51 22t-21 52t20.5 51t50.5 21q31 0 52.5 -21t21.5 -51zM422 60q0 -30 -21.5 -52t-50.5 -22q-30 0 -51 22t-21 52t20.5 51t50.5 21q31 0 52 -21t21 -51zM187 60q0 -30 -21.5 -52t-50.5 -22q-30 0 -51 22t-21 52t20.5 51t50.5 21
q31 0 52 -21t21 -51z" />
    <glyph glyph-name="perthousand" unicode="&#x2030;" horiz-adv-x="1231" 
d="M800 211q0 -98 -57 -159.5t-149 -61.5q-61 0 -96 31.5t-35 92.5q0 94 58 156.5t146 62.5q64 0 98.5 -33.5t34.5 -88.5zM433 574q0 -98 -57 -159.5t-149 -61.5q-61 0 -96 31.5t-35 92.5q0 95 57.5 157t145.5 62q64 0 99 -34t35 -88zM1170 210q0 -98 -57.5 -159t-148.5 -61
q-61 0 -96 31.5t-35 91.5q0 95 57.5 157.5t145.5 62.5q64 0 99 -34t35 -89zM733 688l-488 -688h-77l489 688h76zM722 206q0 67 -68 67q-55 0 -83.5 -43.5t-28.5 -115.5q0 -64 68 -64q53 0 82.5 44.5t29.5 111.5zM1091 206q0 67 -68 67q-55 0 -83 -44t-28 -116q0 -63 68 -63
q52 0 81.5 44t29.5 112zM354 569q0 67 -68 67q-55 0 -83 -44t-28 -116q0 -63 68 -63q52 0 81.5 44.5t29.5 111.5z" />
    <glyph glyph-name="guilsinglleft" unicode="&#x2039;" horiz-adv-x="335" 
d="M324 415l-168 -179l85 -173l-70 -40l-108 222l201 216z" />
    <glyph glyph-name="guilsinglright" unicode="&#x203a;" horiz-adv-x="335" 
d="M276 239l-202 -216l-61 46l169 180l-85 173l70 39z" />
    <glyph glyph-name="fraction" unicode="&#x2044;" horiz-adv-x="350" 
d="M568 763l-722 -917h-77l723 917h76z" />
    <glyph glyph-name="uni2070" unicode="&#x2070;" horiz-adv-x="347" 
d="M388 572q7 -22 7 -54q0 -37 -8 -71q-19 -92 -70.5 -149t-123.5 -57q-58 0 -84 40.5t-26 101.5q0 25 8 67q18 83 72.5 142t117.5 59q82 0 107 -79zM314 535q-6 56 -44 56q-31 0 -60 -43q-24 -36 -37 -98q-10 -46 -10 -79q0 -27 10 -49t34 -22q35 0 64 48q20 32 35 98
q9 41 9 70q0 13 -1 19z" />
    <glyph glyph-name="uni2074" unicode="&#x2074;" horiz-adv-x="349" 
d="M375 383l-13 -62h-42l-6 1v-6t-1 -7l-14 -63l-77 -16l17 80l3 12q-2 0 -6.5 -0.5t-6.5 -0.5h-166l11 51l198 273h82q-1 -2 -42.5 -60.5t-81 -112.5t-68.5 -90l13 1h74l6 -1q0 7 2 14.5t5.5 18l5.5 16.5l29 100l66 16l-30 -144q0 -3 -1.5 -6.5t-3 -8t-2.5 -6.5l6 1h43z
" />
    <glyph glyph-name="uni2075" unicode="&#x2075;" horiz-adv-x="308" 
d="M371 641l-25 -64h-124l-26 -83q20 2 27 2q51 0 82 -24t31 -67q0 -48 -32.5 -90t-79.5 -62q-53 -23 -109 -23q-29 0 -53 6l-3 62q32 -12 59 -12q48 0 91.5 29t43.5 74q0 47 -61 47q-44 0 -94 -18l68 223h205z" />
    <glyph glyph-name="uni2076" unicode="&#x2076;" horiz-adv-x="343" 
d="M386 618q-60 -17 -113 -51.5t-80 -82.5q40 17 70 17q44 0 76 -26.5t32 -69.5q0 -67 -53.5 -116t-121.5 -49q-56 0 -88 33t-32 89q0 98 84 184q49 51 97.5 78t120.5 48zM289 395q0 21 -13.5 33t-34.5 12q-36 0 -72 -21q-11 -37 -11 -62q0 -57 49 -57q36 0 59 29t23 66z
" />
    <glyph glyph-name="uni2077" unicode="&#x2077;" horiz-adv-x="340" 
d="M421 641l-28 -65q-82 -87 -140 -165q-65 -90 -97 -166l-91 -21q50 113 139 228q52 67 111 125q-4 0 -13 -0.5t-14 -0.5h-171l32 65h272z" />
    <glyph glyph-name="uni2078" unicode="&#x2078;" horiz-adv-x="349" 
d="M399 571q0 -72 -89 -111q22 -15 33 -24t20.5 -24t9.5 -33q0 -62 -56 -101t-124 -39q-52 0 -88.5 24t-36.5 69q0 41 26 73t67 51q-40 28 -40 71q0 4 2 16q11 53 59 80.5t106 27.5q51 0 81 -21.5t30 -58.5zM291 362q0 15 -9 24q-18 19 -68 42q-65 -32 -65 -83q0 -47 61 -47
q30 0 55.5 17.5t25.5 46.5zM322 558q0 35 -52 35q-26 0 -48.5 -13.5t-22.5 -38.5q0 -29 54 -53q61 28 68 61q1 3 1 9z" />
    <glyph glyph-name="uni2079" unicode="&#x2079;" horiz-adv-x="354" 
d="M410 541q0 -64 -38.5 -127.5t-94.5 -108.5q-88 -72 -191 -86l-34 49q42 6 73 18q104 41 149 105q-32 -10 -51 -10q-49 0 -78 28t-29 73q0 69 55 119.5t125 50.5q51 0 82.5 -30.5t31.5 -80.5zM329 533q0 28 -13 43t-35 15q-36 0 -59.5 -32t-23.5 -70q0 -47 47 -47
q36 0 66 19q18 38 18 72z" />
    <glyph glyph-name="uni2080" unicode="&#x2080;" horiz-adv-x="347" 
d="M341 17q0 -41 -7 -70q-19 -92 -70.5 -149t-123.5 -57q-58 0 -84 40.5t-26 101.5q0 25 8 67q18 83 72.5 142t117.5 59q58 0 85.5 -38t27.5 -96zM261 35q-6 56 -45 56q-30 0 -59 -43q-24 -36 -37 -98q-11 -50 -11 -79q0 -27 10.5 -49t34.5 -22q36 0 64 48q20 32 35 98
q9 41 9 70q0 13 -1 19z" />
    <glyph glyph-name="uni2081" unicode="&#x2081;" horiz-adv-x="290" 
d="M260 144l-71 -332h59l-13 -62h-197l13 62h63l52 242q-33 -19 -95 -38l-10 43l145 85h54z" />
    <glyph glyph-name="uni2082" unicode="&#x2082;" horiz-adv-x="330" 
d="M329 60q0 -29 -13 -58t-40 -58t-43.5 -44t-49.5 -42q-21 -17 -61 -47q4 0 13.5 0.5t13.5 0.5h139l-30 -62h-254l10 47q41 25 113 87q30 26 49 44t43 53t24 61q0 20 -12.5 31.5t-33.5 11.5q-9 0 -18.5 -2t-15.5 -3.5t-18 -7.5l-15 -7.5t-17.5 -10t-15.5 -8.5l-30 42
q90 63 162 63q45 0 72.5 -25.5t27.5 -65.5z" />
    <glyph glyph-name="uni2083" unicode="&#x2083;" horiz-adv-x="332" 
d="M331 67q0 -34 -20 -62t-52 -43q46 -23 46 -69q0 -47 -39 -86t-88 -57q-52 -19 -121 -19q-28 0 -43 2l-6 58q34 -6 47 -6q78 0 126 35q41 30 41 71q0 29 -28 38q-16 5 -64 5h-22l13 59h23q21 0 35 1.5t32 6.5t27.5 17.5t9.5 32.5q0 36 -47 36q-40 0 -102 -38l-31 45
q76 57 155 57q48 0 78 -23t30 -61z" />
    <glyph glyph-name="uni2084" unicode="&#x2084;" horiz-adv-x="349" 
d="M322 -117l-13 -62h-42l-6 1q-1 -2 -1 -6.5v-6.5l-14 -63l-77 -16l20 92q-2 0 -6.5 -0.5t-6.5 -0.5h-166l11 51l198 273h82q-1 -2 -42.5 -60.5t-81 -112.5t-68.5 -90l13 1h74l6 -1q0 6 12 49l30 100l66 16l-30 -144l-7 -21l6 1h43z" />
    <glyph glyph-name="uni2085" unicode="&#x2085;" horiz-adv-x="308" 
d="M318 141l-25 -64h-124l-26 -83q20 2 27 2q51 0 82 -24t31 -67q0 -48 -32.5 -90t-79.5 -62q-53 -23 -109 -23q-29 0 -53 6l-3 64q36 -14 59 -14q48 0 91.5 29t43.5 74q0 47 -61 47q-44 0 -94 -18l68 223h205z" />
    <glyph glyph-name="uni2086" unicode="&#x2086;" horiz-adv-x="343" 
d="M333 118q-60 -17 -113 -51.5t-80 -82.5q40 17 70 17q44 0 76 -26.5t32 -69.5q0 -67 -53.5 -116t-121.5 -49q-56 0 -88 33t-32 89q0 98 84 184q49 51 97.5 78t120.5 48zM236 -105q0 21 -14 33t-35 12q-35 0 -71 -21q-11 -37 -11 -62q0 -57 49 -57q36 0 59 29t23 66z" />
    <glyph glyph-name="uni2087" unicode="&#x2087;" horiz-adv-x="340" 
d="M368 141l-28 -65q-82 -87 -140 -165q-65 -90 -97 -166l-92 -21q48 110 140 228q52 67 111 125q-4 0 -13 -0.5t-14 -0.5h-171l32 65h272z" />
    <glyph glyph-name="uni2088" unicode="&#x2088;" horiz-adv-x="349" 
d="M346 71q0 -72 -89 -111q2 -1 13 -8.5t14 -10t11 -9t10.5 -10.5t7 -10.5t6 -14t1.5 -15.5q0 -63 -53.5 -103t-126.5 -40q-52 0 -88.5 24t-36.5 69q0 41 26 73t67 51q-40 28 -40 70q0 59 52.5 92t114.5 33q51 0 81 -21.5t30 -58.5zM238 -138q0 15 -9 24q-18 19 -68 42
q-65 -32 -65 -83q0 -47 61 -47q30 0 55.5 17.5t25.5 46.5zM269 58q0 35 -52 35q-26 0 -48.5 -13.5t-22.5 -38.5q0 -29 54 -53q69 33 69 70z" />
    <glyph glyph-name="uni2089" unicode="&#x2089;" horiz-adv-x="354" 
d="M357 41q0 -64 -38.5 -127.5t-94.5 -108.5q-88 -72 -192 -86l-33 49q42 6 73 18q104 41 149 105q-32 -10 -51 -10q-49 0 -78.5 28t-29.5 73q0 69 55 119.5t125 50.5q51 0 83 -30.5t32 -80.5zM276 33q0 28 -13.5 43t-35.5 15q-36 0 -59 -32t-23 -70q0 -47 47 -47
q36 0 66 19q18 38 18 72z" />
    <glyph glyph-name="Euro" unicode="&#x20ac;" horiz-adv-x="638" 
d="M674 665l-34 -81q-43 41 -113 41q-71 0 -128 -47t-82 -118h243l-16 -75h-255q-8 -28 -17 -79h255l-16 -75h-245q0 -85 36.5 -124.5t113.5 -39.5q72 0 136 43v-82q-82 -38 -160 -38q-107 0 -167.5 65t-60.5 176h-114l16 75h103q6 40 18 79h-104l16 75h116q45 112 126 177
t192 65q81 0 141 -37z" />
    <glyph glyph-name="uni20B4" unicode="&#x20b4;" horiz-adv-x="555" 
d="M525 231h-356q-30 -35 -30 -76t31 -65.5t81 -24.5q95 0 188 52l21 -76q-106 -54 -219 -54q-83 0 -135 41.5t-52 107.5q0 53 28 95h-63l18 75h121q28 19 143 79h-248l15 75h356q44 39 44 85q0 35 -22.5 57.5t-69.5 22.5q-84 0 -180 -64l-27 77q113 66 221 66
q78 0 120.5 -39.5t42.5 -95.5q0 -59 -38 -109h59l-15 -75h-132q-21 -13 -46 -26.5t-57 -29t-47 -23.5h265z" />
    <glyph glyph-name="afii61352" unicode="&#x2116;" horiz-adv-x="948" 
d="M649 688l-146 -688h-101l-113 381q-17 55 -27 97q-2 7 -7 31t-11 53q-5 -48 -12 -88q-5 -33 -19 -102l-75 -372h-98l146 688h110l120 -397q17 -55 24 -100l9 -58q11 71 17 106l18 99l71 350h94zM963 580q0 -39 -16 -86t-45 -78q-43 -47 -116 -47q-47 0 -75 27
q-29 28 -29 80q0 43 16.5 89.5t47.5 78.5q44 44 109 44q52 0 79 -26q29 -27 29 -82zM897 582q0 58 -51 58q-30 0 -50 -20q-18 -18 -33 -63.5t-15 -80.5q0 -59 53 -59q29 0 49 19q22 20 34.5 65t12.5 81zM888 203h-269l12 56h268z" />
    <glyph glyph-name="uni2117" unicode="&#x2117;" horiz-adv-x="874" 
d="M809 354q0 -157 -109.5 -264.5t-262.5 -107.5q-154 0 -263 107.5t-109 264.5t109 264.5t263 107.5q153 0 262.5 -107.5t109.5 -264.5zM743 354q0 134 -89 226t-217 92q-129 0 -217.5 -91.5t-88.5 -226.5t88.5 -226.5t217.5 -91.5q128 0 217 92t89 226zM601 444
q0 -65 -38 -99t-100 -34h-64v-161h-57v413h116q61 0 89 -18q54 -35 54 -101zM538 434q0 42 -22 61q-21 18 -72 18h-45v-153h61q40 0 58 21q20 23 20 53z" />
    <glyph glyph-name="trademark" unicode="&#x2122;" horiz-adv-x="949" 
d="M914 688l-50 -430h-77l37 291v5l1 3l-153 -299h-66l-25 304q-1 -9 -6 -24l-80 -280h-78l130 430h99l21 -261q1 -12 1 -31q2 3 7 14t8 17l131 261h100zM440 688l-22 -65h-113l-75 -365h-78l75 365h-113l13 65h313z" />
    <glyph glyph-name="Omega" unicode="&#x2126;" horiz-adv-x="708" 
d="M681 461q0 -109 -60.5 -215.5t-148.5 -163.5h133l-32 -82h-217v73q88 43 153.5 164.5t65.5 231.5q0 153 -139 153q-98 0 -163 -78q-41 -50 -62 -123t-21 -144q0 -66 22.5 -122t65.5 -82l-16 -73h-211v82h119q-87 76 -87 208q0 94 36.5 181t103.5 144q98 85 227 85
q110 0 170.5 -65.5t60.5 -173.5z" />
    <glyph glyph-name="uni2150" unicode="&#x2150;" horiz-adv-x="1012" 
d="M312 644l-71 -332h59l-13 -62h-197l13 62h63l52 242q-33 -19 -95 -38l-10 43l145 85h54zM900 763l-722 -917h-77l723 917h76zM1040 391l-28 -65q-82 -87 -140 -165q-65 -90 -97 -166l-92 -21q48 110 140 228q52 67 111 125q-4 0 -13 -0.5t-14 -0.5h-171l32 65h272z" />
    <glyph glyph-name="uni2151" unicode="&#x2151;" horiz-adv-x="1026" 
d="M312 644l-71 -332h59l-13 -62h-197l13 62h63l52 242q-33 -19 -95 -38l-10 43l145 85h54zM920 763l-722 -917h-77l723 917h76zM1029 291q0 -64 -38.5 -127.5t-94.5 -108.5q-88 -72 -192 -86l-33 49q42 6 73 18q104 41 149 105q-32 -10 -51 -10q-49 0 -78.5 28t-29.5 73
q0 69 55 119.5t125 50.5q51 0 83 -30.5t32 -80.5zM948 283q0 28 -13.5 43t-35.5 15q-36 0 -59 -32t-23 -70q0 -47 47 -47q36 0 66 19q18 38 18 72z" />
    <glyph glyph-name="uni2152" unicode="&#x2152;" horiz-adv-x="1309" 
d="M312 644l-71 -332h59l-13 -62h-197l13 62h63l52 242q-33 -19 -95 -38l-10 43l145 85h54zM920 763l-722 -917h-77l723 917h76zM932 394l-71 -332h59l-13 -62h-197l13 62h63l52 242q-33 -19 -95 -38l-10 43l145 85h54zM1303 267q0 -41 -7 -70q-19 -92 -70.5 -149
t-123.5 -57q-58 0 -84 40.5t-26 101.5q0 25 8 67q18 83 72.5 142t117.5 59q58 0 85.5 -38t27.5 -96zM1223 285q-6 56 -45 56q-30 0 -59 -43q-24 -36 -37 -98q-11 -50 -11 -79q0 -27 10.5 -49t34.5 -22q36 0 64 48q20 32 35 98q9 41 9 70q0 13 -1 19z" />
    <glyph glyph-name="onethird" unicode="&#x2153;" horiz-adv-x="1004" 
d="M312 644l-71 -332h59l-13 -62h-197l13 62h63l52 242q-33 -19 -95 -38l-10 43l145 85h54zM910 763l-722 -917h-77l723 917h76zM1003 317q0 -34 -20 -62t-52 -43q46 -23 46 -69q0 -47 -39 -86t-88 -57q-52 -19 -121 -19q-28 0 -43 2l-6 58q34 -6 47 -6q78 0 126 35
q41 30 41 71q0 29 -28 38q-16 5 -64 5h-22l13 59h23q21 0 35 1.5t32 6.5t27.5 17.5t9.5 32.5q0 36 -47 36q-40 0 -102 -38l-31 45q76 57 155 57q48 0 78 -23t30 -61z" />
    <glyph glyph-name="twothirds" unicode="&#x2154;" horiz-adv-x="1022" 
d="M370 560q0 -52 -35 -95.5t-111 -106.5q-12 -10 -36.5 -27.5t-27.5 -19.5q4 0 15 0.5t15 0.5h139l-30 -62h-254l10 47q45 27 114 87q115 99 115 158q0 20 -12.5 31.5t-33.5 11.5q-9 0 -18.5 -2t-15.5 -3.5t-18 -7.5l-15 -7.5t-17.5 -10t-15.5 -8.5l-30 42q90 63 162 63
q45 0 72.5 -25.5t27.5 -65.5zM928 763l-722 -917h-77l723 917h76zM1021 317q0 -34 -20 -62t-52 -43q46 -23 46 -69q0 -47 -39 -86t-88 -57q-52 -19 -121 -19q-28 0 -43 2l-6 58q34 -6 47 -6q78 0 126 35q41 30 41 71q0 29 -28 38q-16 5 -64 5h-22l13 59h23q21 0 35 1.5
t32 6.5t27.5 17.5t9.5 32.5q0 36 -47 36q-40 0 -102 -38l-31 45q76 57 155 57q48 0 78 -23t30 -61z" />
    <glyph glyph-name="uni2155" unicode="&#x2155;" horiz-adv-x="980" 
d="M312 644l-71 -332h59l-13 -62h-197l13 62h63l52 242q-33 -19 -95 -38l-10 43l145 85h54zM910 763l-722 -917h-77l723 917h76zM990 391l-25 -64h-124l-26 -83q20 2 27 2q51 0 82 -24t31 -67q0 -48 -32.5 -90t-79.5 -62q-53 -23 -109 -23q-29 0 -53 6l-3 64q36 -14 59 -14
q48 0 91.5 29t43.5 74q0 47 -61 47q-44 0 -94 -18l68 223h205z" />
    </font>
</defs>
</svg>
