<?xml version="1.0" standalone="no"?>
<!DOCTYPE svg PUBLIC "-//W3C//DTD SVG 1.1//EN" "http://www.w3.org/Graphics/SVG/1.1/DTD/svg11.dtd" >
<svg>
<metadata>
Created by FontForge 20120731 at Sat Feb  6 17:04:03 2016
 By ,,,
2005 Erik Spiekermann published by FSI FontShop International GmbH
</metadata>
<defs>
<font id="FFMetaPro-Medium" horiz-adv-x="1" >
  <font-face 
    font-family="FF Meta Pro Med"
    font-weight="500"
    font-stretch="normal"
    units-per-em="1000"
    panose-1="0 0 0 0 0 0 0 0 0 0"
    ascent="754"
    descent="-246"
    x-height="506"
    cap-height="692"
    bbox="-451 -301 1413 1121"
    underline-thickness="81"
    underline-position="-22"
    unicode-range="U+000D-FB06"
  />
<missing-glyph horiz-adv-x="556" 
d="M66 0v692h424v-692h-424zM116 50h324v592h-324v-592z" />
    <glyph glyph-name=".notdef" horiz-adv-x="556" 
d="M66 0v692h424v-692h-424zM116 50h324v592h-324v-592z" />
    <glyph glyph-name=".null" horiz-adv-x="0" 
 />
    <glyph glyph-name=".null" horiz-adv-x="0" 
 />
    <glyph glyph-name="nonmarkingreturn" horiz-adv-x="333" 
 />
    <glyph glyph-name="CR" unicode="&#xd;" horiz-adv-x="225" 
 />
    <glyph glyph-name="space" unicode=" " horiz-adv-x="225" 
 />
    <glyph glyph-name="exclam" unicode="!" horiz-adv-x="296" 
d="M213 706l-24 -494h-84l-25 475zM221 64q0 -31 -22 -52.5t-52 -21.5q-31 0 -51.5 21.5t-20.5 52.5q0 30 21 51.5t52 21.5q30 0 51.5 -21.5t21.5 -51.5z" />
    <glyph glyph-name="quotedbl" unicode="&#x22;" horiz-adv-x="453" 
d="M378 442h-102v267h102v-267zM177 442h-102v267h102v-267z" />
    <glyph glyph-name="numbersign" unicode="#" horiz-adv-x="566" 
d="M531 425h-100l-20 -141h90v-77h-100l-29 -207h-83l29 207h-112l-29 -207h-82l28 207h-88v77h99l19 141h-89v77h100l28 206h83l-29 -206h112l29 206h82l-28 -206h90v-77zM348 425h-112l-20 -141h113z" />
    <glyph glyph-name="dollar" unicode="$" horiz-adv-x="589" 
d="M544 210q0 -92 -64.5 -151.5t-157.5 -69.5v-88h-72v87q-109 3 -205 60l44 89q98 -56 192 -56q65 0 99 31t34 78q0 75 -95 103l-84 25q-94 28 -130 78q-33 45 -33 107q0 83 53 138t144 68v76h72v-76q103 -6 187 -66l-52 -81q-88 53 -159 53q-58 0 -88 -26t-30 -68
q0 -64 80 -85l94 -26q82 -22 125 -73q46 -52 46 -127z" />
    <glyph glyph-name="percent" unicode="%" horiz-adv-x="844" 
d="M368 528q0 -79 -45 -124q-46 -46 -122 -46q-77 0 -121.5 46t-44.5 125q0 78 45.5 124.5t119.5 46.5q78 0 123 -45t45 -127zM809 162q0 -77 -44.5 -124t-122.5 -47q-77 0 -121.5 46t-44.5 125q0 78 45.5 124.5t119.5 46.5q79 0 123.5 -45.5t44.5 -125.5zM638 690
l-351 -690h-79l350 690h80zM277 527q0 57 -18.5 83t-58.5 26q-75 0 -75 -104q0 -59 18.5 -84.5t58.5 -25.5q75 0 75 105zM718 160q0 58 -18.5 83.5t-58.5 25.5q-75 0 -75 -103q0 -60 18 -85t59 -25q75 0 75 104z" />
    <glyph glyph-name="ampersand" unicode="&#x26;" horiz-adv-x="699" 
d="M694 0h-151l-53 53q-66 -66 -193 -66q-116 0 -179 50t-63 136q0 61 33.5 101.5t99.5 72.5q-49 39 -69 73.5t-20 79.5q0 70 53.5 116.5t136.5 46.5q84 0 139 -42.5t55 -113.5q0 -55 -35 -93t-102 -70l136 -132q14 36 14 122h92q0 -121 -34 -195zM425 115l-178 174
q-74 -41 -74 -113q0 -51 34 -80t94 -29q84 0 124 48zM367 507q0 35 -21.5 57t-55.5 22t-55.5 -20t-21.5 -56q0 -25 15 -48.5t57 -62.5q82 41 82 108z" />
    <glyph glyph-name="quotesingle" unicode="'" horiz-adv-x="252" 
d="M177 442h-102v267h102v-267z" />
    <glyph glyph-name="parenleft" unicode="(" horiz-adv-x="313" 
d="M328 -103l-29 -60q-68 25 -120.5 78t-82.5 127q-41 102 -41 280q0 146 35 236q60 154 208 220l28 -61q-90 -61 -124 -143q-36 -84 -36 -250q0 -136 21 -221q19 -75 50 -125t91 -81z" />
    <glyph glyph-name="parenright" unicode=")" horiz-adv-x="314" 
d="M259 310q0 -146 -32 -242q-27 -79 -82 -140t-131 -91l-29 61q95 54 135 172q27 81 27 240q0 96 -19 196q-27 143 -141 211l28 61q131 -52 199 -194q45 -95 45 -274z" />
    <glyph glyph-name="asterisk" unicode="*" horiz-adv-x="466" 
d="M436 531l-136 -45l86 -118l-67 -51l-87 121l-84 -118l-66 50l86 116l-138 47l27 79l136 -48v144h82v-144l136 46z" />
    <glyph glyph-name="plus" unicode="+" horiz-adv-x="610" 
d="M555 232h-199v-200h-102v200h-199v104h199v200h102v-200h199v-104z" />
    <glyph glyph-name="comma" unicode="," horiz-adv-x="292" 
d="M227 35q0 -61 -37 -110t-95 -69l-40 50q30 10 49 30t19 41q0 12 -22 21q-43 17 -43 67q0 34 23 57t56 23q39 0 64.5 -31t25.5 -79z" />
    <glyph glyph-name="hyphen" unicode="-" horiz-adv-x="329" 
d="M274 221h-219v102h219v-102z" />
    <glyph glyph-name="period" unicode="." horiz-adv-x="287" 
d="M222 67q0 -34 -23 -58t-55 -24q-33 0 -56 24t-23 58q0 33 22.5 56t54.5 23q33 0 56.5 -23t23.5 -56z" />
    <glyph glyph-name="slash" unicode="/" horiz-adv-x="450" 
d="M395 762l-264 -913h-76l263 913h77z" />
    <glyph glyph-name="zero" unicode="0" horiz-adv-x="572" 
d="M517 252q0 -120 -63.5 -192.5t-167.5 -72.5q-107 0 -169 71.5t-62 193.5q0 121 63.5 193.5t167.5 72.5q107 0 169 -72t62 -194zM397 245q0 106 -28 148.5t-84 42.5q-110 0 -110 -177q0 -105 28 -147.5t84 -42.5q110 0 110 176z" />
    <glyph glyph-name="one" unicode="1" horiz-adv-x="440" 
d="M390 0h-294v89h103v301q-58 -36 -127 -63l-27 58l183 132h77v-428h85v-89z" />
    <glyph glyph-name="two" unicode="2" horiz-adv-x="561" 
d="M496 91l-23 -91h-401v98l119 77q86 56 122.5 95t36.5 82q0 37 -24.5 56.5t-67.5 19.5q-64 0 -144 -63l-59 64q108 96 233 96q84 0 136 -42.5t52 -113.5q0 -63 -52 -122t-162 -126l-56 -34q36 4 101 4h189z" />
    <glyph glyph-name="three" unicode="3" horiz-adv-x="534" 
d="M479 51q0 -72 -47 -125q-98 -109 -299 -109q-39 0 -69 4l-25 75q32 -5 61 -5q117 0 185 50q67 49 67 119q0 64 -58 90q-28 13 -98 13q-11 0 -25.5 -0.5t-16.5 -0.5v88q21 -3 62 -3q125 0 125 91q0 41 -26.5 65.5t-73.5 24.5q-68 0 -151 -55l-55 65q46 39 105.5 60.5
t117.5 21.5q89 0 146.5 -47.5t57.5 -120.5q0 -109 -113 -149q62 -19 96 -59t34 -93z" />
    <glyph glyph-name="four" unicode="4" horiz-adv-x="545" 
d="M510 8h-47q-8 0 -19 1l-12 1q4 -12 4 -36v-143l-105 -18v164q0 6 0.5 18.5t0.5 13.5l-14 -1h-23h-260v78l205 437h115l-160 -342q-22 -48 -46 -84q12 3 31 3h120q6 0 19.5 -0.5t15.5 -0.5q-5 37 7 163l8 88l86 21v-185q0 -66 -3 -87q1 0 14 0.5t20 0.5h43v-92z" />
    <glyph glyph-name="five" unicode="5" horiz-adv-x="520" 
d="M455 63q0 -109 -86.5 -178.5t-216.5 -69.5q-41 0 -74 8l-23 80q45 -13 85 -13q85 0 140.5 46.5t55.5 116.5q0 54 -34.5 85.5t-91.5 31.5q-63 0 -137 -25l32 361h320l-16 -93h-203l-15 -163q35 5 57 5q91 0 149 -52.5t58 -139.5z" />
    <glyph glyph-name="six" unicode="6" horiz-adv-x="586" 
d="M526 209q0 -95 -65 -159.5t-162 -64.5q-106 0 -172.5 77.5t-66.5 201.5q0 94 42.5 177.5t114.5 146.5q97 85 224 122l24 -77q-109 -35 -176 -102q-68 -68 -94 -161q50 44 125 44q85 0 145.5 -58t60.5 -147zM408 207q0 56 -29 88t-77 32q-54 0 -116 -41q-3 -15 -3 -59
q0 -76 29 -116.5t83 -40.5q52 0 82.5 37t30.5 100z" />
    <glyph glyph-name="seven" unicode="7" horiz-adv-x="508" 
d="M473 506l-20 -100q-50 -72 -89 -141q-114 -196 -169 -427l-124 -32q22 98 61 201q42 110 91 203q65 123 131 203q-17 -4 -65 -4h-254l25 97h413z" />
    <glyph glyph-name="eight" unicode="8" horiz-adv-x="597" 
d="M542 186q0 -89 -67.5 -146.5t-183.5 -57.5q-107 0 -171.5 52t-64.5 136q0 61 36.5 107t93.5 66q-50 19 -79.5 62t-29.5 91q0 79 62 128t165 49q95 0 154.5 -46t59.5 -119q0 -45 -31.5 -87.5t-103.5 -65.5q160 -59 160 -169zM420 163q0 48 -33.5 74t-129.5 65
q-82 -47 -82 -123q0 -53 34.5 -84.5t93.5 -31.5q52 0 84.5 28t32.5 72zM399 509q0 40 -28 62.5t-78 22.5q-48 0 -77 -24t-29 -64q0 -32 23.5 -55t91.5 -55q97 48 97 113z" />
    <glyph glyph-name="nine" unicode="9" horiz-adv-x="571" 
d="M516 262q0 -188 -150 -332q-108 -101 -236 -135l-59 66q95 21 185 96q78 65 109 151q-52 -31 -103 -31q-89 0 -148 61.5t-59 155.5q0 99 66.5 164.5t166.5 65.5q104 0 166 -70.5t62 -191.5zM397 284q0 71 -30.5 113t-81.5 42q-50 0 -80 -39t-30 -103q0 -61 30 -97t81 -36
q53 0 101 44q10 41 10 76z" />
    <glyph glyph-name="colon" unicode=":" horiz-adv-x="305" 
d="M229 63q0 -32 -23 -54.5t-55 -22.5t-54 22.5t-22 54.5q0 33 22.5 56.5t55.5 23.5q31 0 53.5 -23.5t22.5 -56.5zM230 372q0 -33 -23 -55.5t-55 -22.5t-54 22t-22 54q0 33 22.5 56.5t54.5 23.5t54.5 -23t22.5 -55z" />
    <glyph glyph-name="semicolon" unicode=";" horiz-adv-x="323" 
d="M248 32q0 -60 -37.5 -109t-95.5 -69l-40 49q30 10 49 30t19 40q0 9 -10 16t-22.5 12.5t-22.5 21.5t-10 39q0 34 23 57.5t56 23.5q40 0 65.5 -31t25.5 -80zM234 371q0 -32 -22.5 -55t-54.5 -23t-55 23t-23 55t22.5 55.5t53.5 23.5q32 0 55.5 -23.5t23.5 -55.5z" />
    <glyph glyph-name="less" unicode="&#x3c;" horiz-adv-x="378" 
d="M333 81l-88 -69l-220 287l220 288l88 -71l-165 -217z" />
    <glyph glyph-name="equal" unicode="=" horiz-adv-x="645" 
d="M590 344h-535v101h535v-101zM590 162h-535v101h535v-101z" />
    <glyph glyph-name="greater" unicode="&#x3e;" horiz-adv-x="377" 
d="M352 299l-219 -287l-88 69l164 218l-164 217l88 71z" />
    <glyph glyph-name="question" unicode="?" horiz-adv-x="473" 
d="M408 543q0 -33 -10 -59.5t-29 -46.5t-29.5 -28t-28.5 -20q-67 -45 -67 -127q0 -20 3 -39h-94q-8 35 -8 62q0 85 78 148q6 4 20 14.5t21 16.5t16.5 16.5t13.5 22.5t4 27q0 37 -24.5 57t-62.5 20q-61 0 -118 -45l-48 71q76 69 188 69q74 0 124.5 -43.5t50.5 -115.5zM287 64
q0 -32 -22.5 -54.5t-53.5 -22.5t-52.5 22.5t-21.5 54.5q0 31 21.5 52.5t53.5 21.5q30 0 52.5 -21.5t22.5 -52.5z" />
    <glyph glyph-name="at" unicode="@" horiz-adv-x="921" 
d="M866 276q0 -129 -66 -209.5t-161 -80.5q-55 0 -83.5 24.5t-31.5 62.5q-28 -33 -67.5 -54t-82.5 -21q-50 0 -86.5 37.5t-36.5 107.5q0 127 73.5 218.5t202.5 91.5q70 0 137 -36q-20 -67 -63 -269q-7 -31 -7 -52q0 -24 11.5 -33.5t36.5 -9.5q54 0 92.5 64t38.5 159
q0 119 -84.5 200.5t-219.5 81.5q-141 0 -230.5 -105.5t-89.5 -247.5q0 -131 87 -216t215 -85q78 0 144 22l18 -68q-70 -23 -162 -23q-80 0 -151 24.5t-126 70.5t-87 117t-32 158q0 178 117.5 299t296.5 121q171 0 284 -96.5t113 -252.5zM561 380q-15 7 -41 7q-59 0 -101 -40
t-59 -94t-17 -114q0 -38 12.5 -53t39.5 -15q36 0 75 34.5t52 95.5z" />
    <glyph glyph-name="A" unicode="A" horiz-adv-x="587" 
d="M584 0h-126l-56 182h-224l-56 -182h-119l227 693h133zM376 278q-5 11 -41.5 145t-40.5 155h-1q-63 -231 -87 -300h170z" />
    <glyph glyph-name="B" unicode="B" horiz-adv-x="611" 
d="M556 196q0 -196 -270 -196h-201v692h183q77 0 113.5 -7t68.5 -27q78 -50 78 -136q0 -56 -31 -95.5t-88 -55.5q79 -19 113 -67t34 -108zM429 207q0 37 -18 65t-47 36q-20 6 -64 6h-101v-219h104q63 0 94.5 31t31.5 81zM407 504q0 30 -15.5 53.5t-40.5 32.5q-22 8 -65 8
h-87v-189h96q34 0 51.5 5t33.5 21q27 28 27 69z" />
    <glyph glyph-name="C" unicode="C" horiz-adv-x="577" 
d="M542 50q-80 -61 -189 -61q-136 0 -219 100q-79 96 -79 247q0 124 46 210q39 74 106.5 116.5t148.5 42.5q107 0 172 -54l-53 -76q-53 39 -118 39q-91 0 -138 -83q-36 -63 -36 -182q0 -113 27 -172q45 -98 154 -98q69 0 124 44z" />
    <glyph glyph-name="D" unicode="D" horiz-adv-x="631" 
d="M576 344q0 -154 -73 -247q-43 -55 -96.5 -76t-150.5 -21h-171v692h144q100 0 162 -22t110 -76q75 -87 75 -250zM448 332q0 149 -44 209q-24 33 -53.5 46.5t-76.5 13.5h-73v-507h76q90 0 130.5 59t40.5 179z" />
    <glyph glyph-name="E" unicode="E" horiz-adv-x="509" 
d="M479 0h-394v692h384l-15 -94h-252v-189h211v-95h-211v-216h277v-98z" />
    <glyph glyph-name="F" unicode="F" horiz-adv-x="441" 
d="M451 692l-14 -94h-237v-188h193v-93h-193v-317h-115v692h366z" />
    <glyph glyph-name="G" unicode="G" horiz-adv-x="649" 
d="M574 49q-96 -58 -216 -58q-147 0 -226 98q-77 94 -77 252q0 209 130 306q71 54 171 54q121 0 206 -73l-58 -72q-69 53 -146 53q-175 0 -175 -274q0 -144 51 -204q44 -52 131 -52q51 0 92 22v180h-118l-16 94h251v-326z" />
    <glyph glyph-name="H" unicode="H" horiz-adv-x="636" 
d="M551 0h-116v320h-236v-320h-114v692h114v-278h236v278h116v-692z" />
    <glyph glyph-name="I" unicode="I" horiz-adv-x="288" 
d="M203 0h-118v692h118v-692z" />
    <glyph glyph-name="J" unicode="J" horiz-adv-x="293" 
d="M208 128q0 -83 -9 -122t-32 -71q-41 -57 -117 -85l-54 61q58 32 80 78q16 33 16 129v574h116v-564z" />
    <glyph glyph-name="K" unicode="K" horiz-adv-x="581" 
d="M586 0h-150l-233 369l225 323h142l-240 -321zM202 0h-117v692h117v-692z" />
    <glyph glyph-name="L" unicode="L" horiz-adv-x="473" 
d="M458 95l-19 -95h-354v692h117v-597h256z" />
    <glyph glyph-name="M" unicode="M" horiz-adv-x="826" 
d="M761 0h-113l-32 429q-5 73 -5 120q-16 -74 -27 -111l-126 -438h-98l-115 419q-19 66 -30 131q0 -32 -7 -132l-30 -418h-113l63 692h153l106 -392q11 -41 26 -118q7 50 25 116l109 394h153z" />
    <glyph glyph-name="N" unicode="N" horiz-adv-x="639" 
d="M554 0h-121l-155 325q-68 141 -88 205l-3 -3q5 -58 7 -192l4 -335h-113v692h130l168 -338q48 -96 71 -178l3 3q-10 117 -10 197l-2 316h109v-692z" />
    <glyph glyph-name="O" unicode="O" horiz-adv-x="688" 
d="M633 345q0 -164 -75 -260t-209 -96q-143 0 -218.5 98.5t-75.5 258.5q0 168 78.5 262t210.5 94q141 0 215 -99t74 -258zM502 338q0 136 -35.5 205.5t-123.5 69.5q-84 0 -122 -65.5t-38 -194.5q0 -138 38.5 -207.5t124.5 -69.5q79 0 117.5 62.5t38.5 199.5z" />
    <glyph glyph-name="P" unicode="P" horiz-adv-x="565" 
d="M540 485q0 -100 -64 -160.5t-160 -60.5h-117v-264h-114v692h184q73 0 109.5 -7.5t66.5 -25.5q95 -56 95 -174zM413 478q0 58 -28 87q-32 34 -96 34h-90v-243h90q124 0 124 122z" />
    <glyph glyph-name="Q" unicode="Q" horiz-adv-x="688" 
d="M707 -39l-31 -77q-26 -11 -55 -11q-58 0 -133 50q-73 49 -143 67q-140 0 -215 99t-75 258q0 167 78.5 261t209.5 94q139 0 214.5 -96t75.5 -261q0 -229 -142 -318q26 -10 76 -41q48 -29 95 -29q22 0 45 4zM501 338q0 140 -36 207.5t-123 67.5q-83 0 -121 -64.5
t-38 -195.5q0 -150 41 -213t122 -63q78 0 116.5 61t38.5 200z" />
    <glyph glyph-name="R" unicode="R" horiz-adv-x="583" 
d="M558 0h-137l-60 107q-69 122 -118 171q-20 20 -45 21v-299h-113v692h211q111 0 168 -56t57 -142q0 -78 -47 -134t-125 -56q32 -16 107 -138zM401 493q0 54 -32.5 80t-107.5 26h-63v-219h59q84 0 113 29q31 31 31 84z" />
    <glyph glyph-name="S" unicode="S" horiz-adv-x="597" 
d="M547 209q0 -92 -72 -157t-198 -65q-124 0 -227 62l44 88q98 -57 187 -57q64 0 100 29t36 81q0 74 -103 103l-74 21q-97 28 -134 83q-29 43 -29 101q0 91 65.5 148t169.5 57q125 0 219 -66l-52 -81q-89 53 -163 53q-51 0 -82 -25.5t-31 -68.5q0 -32 20.5 -51t71.5 -34
l82 -24q79 -23 124.5 -72.5t45.5 -124.5z" />
    <glyph glyph-name="T" unicode="T" horiz-adv-x="484" 
d="M499 692l-15 -96h-174v-596h-115v596h-175v96h479z" />
    <glyph glyph-name="U" unicode="U" horiz-adv-x="639" 
d="M559 194q0 -96 -63.5 -151t-176.5 -55q-127 0 -183 56.5t-56 148.5v499h116v-465q0 -78 29 -109.5t94 -31.5q125 0 125 141v465h115v-498z" />
    <glyph glyph-name="V" unicode="V" horiz-adv-x="568" 
d="M573 692l-238 -695h-107l-233 695h126l125 -392q25 -76 36 -139h2q17 70 42 145l127 386h120z" />
    <glyph glyph-name="W" unicode="W" horiz-adv-x="826" 
d="M816 692l-164 -696h-132l-71 321q-24 107 -34 200h-3q-29 -169 -35 -197l-67 -324h-135l-165 696h123l69 -322q26 -123 37 -222h3q20 129 38 214l72 330h129l72 -344q23 -114 34 -195h3q34 196 40 225l66 314h120z" />
    <glyph glyph-name="X" unicode="X" horiz-adv-x="550" 
d="M555 0h-138l-143 274l-138 -274h-141l212 371l-186 321h140l111 -214l109 214h136l-176 -313z" />
    <glyph glyph-name="Y" unicode="Y" horiz-adv-x="528" 
d="M543 692l-221 -413v-279h-119v280l-218 412h139l104 -217q23 -48 37 -89q17 42 38 87l106 219h134z" />
    <glyph glyph-name="Z" unicode="Z" horiz-adv-x="541" 
d="M496 94l-29 -94h-422v84l270 449q16 25 46 68q-28 -4 -75 -4h-228l26 95h406v-87l-269 -454q-8 -14 -40 -59q2 0 12 0.5t25.5 1t31.5 0.5h246z" />
    <glyph glyph-name="bracketleft" unicode="[" horiz-adv-x="299" 
d="M274 -155h-189v888h189v-76h-91v-738h91v-74z" />
    <glyph glyph-name="backslash" unicode="\" horiz-adv-x="420" 
d="M405 -19l-92 -30l-298 776l91 31z" />
    <glyph glyph-name="bracketright" unicode="]" horiz-adv-x="299" 
d="M214 -155h-189v74h91v738h-91v76h189v-888z" />
    <glyph glyph-name="asciicircum" unicode="^" horiz-adv-x="610" 
d="M555 318h-112l-138 286l-138 -286h-112l194 390h112z" />
    <glyph glyph-name="underscore" unicode="_" horiz-adv-x="510" 
d="M505 -143h-500v81h500v-81z" />
    <glyph glyph-name="grave" unicode="`" horiz-adv-x="324" 
d="M289 623l-34 -63l-220 102l50 93z" />
    <glyph glyph-name="a" unicode="a" horiz-adv-x="525" 
d="M483 49l-57 -70q-51 20 -69 68q-55 -62 -139 -62t-126 41.5t-42 110.5q0 87 64 131.5t186 44.5h34v27q0 48 -14 68.5t-56 20.5q-29 0 -64.5 -13t-54.5 -24t-32 -21l-49 79q109 69 215 69q120 0 154 -84q9 -23 8 -124l-2 -145q-1 -52 7 -74.5t37 -42.5zM332 238h-8
q-8 1 -12 1q-80 0 -111.5 -23t-31.5 -73q0 -36 18.5 -57t51.5 -21q55 0 91 53z" />
    <glyph glyph-name="b" unicode="b" horiz-adv-x="567" 
d="M512 261q0 -121 -56.5 -196.5t-145.5 -75.5q-76 0 -123 58q-6 -34 -14 -47h-101q13 33 13 113v477q0 82 -13 122l114 25q8 -48 8 -101v-118q0 -39 -3 -48l4 -1q50 49 120 49q91 0 144 -69.5t53 -187.5zM388 260q0 77 -21 121t-76 44t-96 -51v-247q42 -44 94 -44t75.5 41
t23.5 136z" />
    <glyph glyph-name="c" unicode="c" horiz-adv-x="467" 
d="M432 54q-67 -67 -162 -67q-103 0 -159 68.5t-56 191.5q0 130 65.5 201t157.5 71q81 0 140 -55l-55 -73q-43 39 -85 39q-55 0 -80 -51q-21 -43 -21 -141q0 -101 34 -138q26 -29 67 -29q52 0 102 50z" />
    <glyph glyph-name="d" unicode="d" horiz-adv-x="565" 
d="M496 0h-101q-5 11 -9 39q-50 -50 -124 -50q-96 0 -151.5 70t-55.5 189t59 193t151 74q64 0 109 -46q-3 24 -3 83v185l109 -17v-544q0 -136 16 -176zM371 129v257q-38 41 -92 41q-52 0 -77 -43t-25 -135q0 -88 22.5 -128t82.5 -40q29 0 53 14t36 34z" />
    <glyph glyph-name="e" unicode="e" horiz-adv-x="523" 
d="M478 223h-302v-8q0 -62 28.5 -103t96.5 -41t126 50l43 -67q-79 -67 -182 -67q-107 0 -170 71.5t-63 193.5q0 126 63 198q59 68 155 68q82 0 139 -52q66 -60 66 -220v-23zM364 304q0 61 -24.5 96t-66.5 35q-46 0 -71 -34.5t-25 -96.5h187z" />
    <glyph glyph-name="f" unicode="f" horiz-adv-x="317" 
d="M352 706l-36 -70q-38 18 -61 18q-29 0 -45.5 -19t-16.5 -52v-77h132l-28 -76h-103v-430h-109v430h-47v76h49q-3 18 -3 75q0 76 42 115t112 39q63 0 114 -29z" />
    <glyph glyph-name="g" unicode="g" horiz-adv-x="546" 
d="M556 458q-38 -33 -88 -33q-24 0 -39 5q33 -33 33 -88q0 -67 -52 -111t-140 -44q-68 -25 -68 -48q0 -8 2.5 -11.5t16.5 -6t36.5 -3t70.5 -0.5q68 0 118 -36t50 -108q0 -80 -61 -123t-164 -43t-164.5 34.5t-61.5 103.5q0 24 10 54h104q-8 -16 -8 -36q0 -35 29 -54t82 -19
q57 0 88.5 21.5t31.5 57.5q0 40 -33 55t-107 15q-97 0 -131.5 18.5t-34.5 58.5q0 34 24.5 53t71.5 34q-115 33 -115 143q0 77 55.5 124t146.5 47q40 0 88.5 -13t65.5 -13q49 0 92 35zM345 348q0 87 -87 87q-42 0 -64.5 -22.5t-22.5 -65.5q0 -85 87 -85t87 86z" />
    <glyph glyph-name="h" unicode="h" horiz-adv-x="574" 
d="M489 0h-107v344q0 45 -15.5 63t-48.5 18q-62 0 -122 -62v-363h-111v602q0 67 -10 110l111 24q10 -41 10 -119v-108q0 -12 -0.5 -25t-1 -22t-0.5 -10q73 66 155 66q43 0 76 -18t47 -44q17 -33 17 -99v-357z" />
    <glyph glyph-name="i" unicode="i" horiz-adv-x="281" 
d="M196 0h-111v498l111 20v-518zM214 654q0 -30 -21.5 -51.5t-52.5 -21.5q-30 0 -50.5 21.5t-20.5 51.5q0 31 21 52.5t52 21.5q30 0 51 -21.5t21 -52.5z" />
    <glyph glyph-name="j" unicode="j" horiz-adv-x="281" 
d="M196 12q0 -105 -37 -152q-37 -46 -95 -72l-47 64q39 27 53.5 61.5t14.5 97.5v487l111 20v-506zM213 656q0 -31 -21.5 -53t-52.5 -22q-30 0 -51 21t-21 52q0 30 21.5 52t51.5 22t51.5 -21.5t21.5 -50.5z" />
    <glyph glyph-name="k" unicode="k" horiz-adv-x="521" 
d="M194 0h-109v589q0 68 -11 122l110 27q10 -53 10 -134v-604zM526 0h-133l-191 286l150 220h133l-173 -214z" />
    <glyph glyph-name="l" unicode="l" horiz-adv-x="282" 
d="M262 1q-30 -12 -66 -12q-32 0 -54 11.5t-33 25.5t-17 37.5t-6.5 36.5t-0.5 32v431q0 88 -10 148l113 25q9 -35 9 -139v-429q0 -74 11 -91q5 -7 15.5 -9.5t20.5 1.5z" />
    <glyph glyph-name="m" unicode="m" horiz-adv-x="808" 
d="M723 0h-108v350q0 44 -11 60t-41 16q-45 0 -107 -58v-368h-105v347q0 44 -12 61t-43 17q-50 0 -104 -50v-375h-107v363q0 87 -18 128l100 28q15 -24 18 -65q62 64 134 64q75 0 121 -74q73 74 151 74q132 0 132 -148v-370z" />
    <glyph glyph-name="n" unicode="n" horiz-adv-x="556" 
d="M471 0h-109v336q0 51 -13 69.5t-45 18.5q-24 0 -55 -16t-56 -41v-367h-108v372q0 71 -19 120l100 28q18 -34 18 -72q82 70 155 70q60 0 96 -36t36 -104v-378z" />
    <glyph glyph-name="o" unicode="o" horiz-adv-x="547" 
d="M497 251q0 -122 -60.5 -193t-163.5 -71t-163 71.5t-60 193.5q0 121 60 193.5t161 72.5q106 0 166 -72.5t60 -194.5zM376 249q0 102 -26.5 144t-77.5 42q-52 0 -76 -42t-24 -134q0 -106 25.5 -148t77.5 -42q101 0 101 180z" />
    <glyph glyph-name="p" unicode="p" horiz-adv-x="565" 
d="M510 264q0 -127 -52.5 -200.5t-148.5 -73.5q-67 0 -120 41q0 -1 0.5 -8.5t1 -19t0.5 -22.5v-169l-106 -27v590q0 73 -10 126l101 18q7 -23 8 -62q49 60 135 60q82 0 136.5 -64t54.5 -189zM392 252q0 89 -21 131.5t-73 42.5q-61 0 -107 -52v-252q45 -45 94 -45
q55 0 81 42.5t26 132.5z" />
    <glyph glyph-name="q" unicode="q" horiz-adv-x="565" 
d="M492 506q-12 -47 -12 -144v-551l-104 -27v188q0 14 0.5 29.5t1 25.5t0.5 12q-51 -51 -119 -51q-88 0 -146 65t-58 189q0 131 54 204t150 73q40 0 75 -16.5t54 -45.5q1 29 9 49h95zM375 134v242q-37 50 -97 50q-104 0 -104 -166q0 -101 27 -141t80 -40q28 0 53 15.5
t41 39.5z" />
    <glyph glyph-name="r" unicode="r" horiz-adv-x="350" 
d="M355 512l-34 -102q-19 7 -31 7q-34 0 -60.5 -22t-34.5 -53v-342h-110v357q0 85 -18 136l101 26q19 -36 19 -80q59 81 129 81q22 0 39 -8z" />
    <glyph glyph-name="s" unicode="s" horiz-adv-x="484" 
d="M439 158q0 -77 -57 -124.5t-148 -47.5q-93 0 -194 56l39 79q92 -53 164 -53q36 0 59 20t23 51q0 29 -19.5 45.5t-62.5 25.5l-61 13q-57 12 -89 49t-32 90q0 71 52 116t136 45q85 0 167 -44l-36 -76q-70 37 -124 37q-35 0 -56 -18t-21 -47q0 -23 15 -36.5t53 -23.5l63 -16
q129 -33 129 -141z" />
    <glyph glyph-name="t" unicode="t" horiz-adv-x="341" 
d="M316 9q-48 -22 -99 -22q-69 0 -100.5 35.5t-31.5 94.5v313h-56v76h56q0 87 5 125l113 27q-9 -74 -9 -152h121l-29 -76h-93v-284q0 -47 13 -64t49 -17q20 0 47 10z" />
    <glyph glyph-name="u" unicode="u" horiz-adv-x="552" 
d="M498 36l-76 -52q-32 23 -44 63q-55 -62 -144 -62q-84 0 -126 50q-28 34 -28 120v343l108 20v-339q0 -55 14.5 -82t59.5 -27q28 0 57 19.5t42 46.5v362l106 20v-381q0 -75 31 -101z" />
    <glyph glyph-name="v" unicode="v" horiz-adv-x="483" 
d="M473 506l-184 -508h-97l-182 504l113 16l88 -273q15 -46 31 -113h2q9 54 30 117l84 257h115z" />
    <glyph glyph-name="w" unicode="w" horiz-adv-x="708" 
d="M693 506l-143 -508h-103l-62 233q-25 93 -33 138h-2q-6 -40 -33 -143l-61 -228h-103l-138 501l109 15l55 -245q18 -78 26 -133h3q11 69 29 136l65 234h108l57 -228q25 -100 32 -144h3q8 62 25 136l52 236h114z" />
    <glyph glyph-name="x" unicode="x" horiz-adv-x="487" 
d="M492 0h-138q-48 77 -110 189q-14 -28 -54.5 -97.5t-55.5 -91.5h-139l188 274l-146 217l119 24q53 -87 92 -164q11 27 40 83.5t40 71.5h128l-149 -230z" />
    <glyph glyph-name="y" unicode="y" horiz-adv-x="493" 
d="M483 506l-179 -517q-34 -100 -73.5 -144.5t-123.5 -60.5l-36 71q55 15 85.5 45.5t51.5 99.5h-35q-12 49 -48 157l-115 341l112 19l93 -308q4 -13 10.5 -39l12.5 -50l5 -25q19 76 38 137l84 274h118z" />
    <glyph glyph-name="z" unicode="z" horiz-adv-x="469" 
d="M429 77l-32 -77h-357v73l254 355h-234v78h358v-78l-240 -351h251z" />
    <glyph glyph-name="braceleft" unicode="{" horiz-adv-x="358" 
d="M333 -155h-90q-50 0 -84 35t-34 102v174q0 30 -19 51t-40 28t-41 8v91q33 1 66.5 23t33.5 65v175q0 66 33.5 101t84.5 35h90v-91h-49q-37 0 -49 -19.5t-12 -51.5v-168q0 -100 -93 -113v-4q93 -10 93 -111v-168q0 -72 61 -72h49v-90z" />
    <glyph glyph-name="bar" unicode="|" horiz-adv-x="270" 
d="M185 -207h-100v964h100v-964z" />
    <glyph glyph-name="braceright" unicode="}" horiz-adv-x="358" 
d="M333 243q-35 -1 -67.5 -22t-32.5 -65v-175q0 -67 -33.5 -101.5t-84.5 -34.5h-90v90h48q62 0 62 72v167q0 102 94 112v5q-94 10 -94 111v169q0 32 -12 51.5t-50 19.5h-48v91h91q49 0 83 -35t34 -102v-174q0 -43 33 -65t67 -23v-91z" />
    <glyph glyph-name="asciitilde" unicode="~" horiz-adv-x="566" 
d="M511 305q-49 -88 -123 -88q-38 0 -107 33q-77 37 -107 37q-19 0 -36.5 -11t-27.5 -23.5t-23 -33.5l-32 84q50 87 123 87q37 0 107 -32q8 -4 26.5 -12.5t29 -13t25 -8.5t26.5 -4q19 0 36.5 12t26.5 23t24 33z" />
    <glyph glyph-name="uni00A0" unicode="&#xa0;" horiz-adv-x="225" 
 />
    <glyph glyph-name="exclamdown" unicode="&#xa1;" horiz-adv-x="295" 
d="M215 -175l-134 -20l25 493h83zM220 449q0 -31 -21.5 -52.5t-52.5 -21.5q-30 0 -50.5 21.5t-20.5 51.5q0 31 21 52.5t52 21.5q30 0 51 -21t21 -52z" />
    <glyph glyph-name="cent" unicode="&#xa2;" horiz-adv-x="471" 
d="M436 56q-55 -55 -123 -64v-94h-75v94q-88 10 -133 76q-50 70 -50 181q0 118 54 186t128 82v88h76v-87q51 -2 109 -53l-54 -72q-40 40 -89 40q-52 0 -79.5 -52t-27.5 -138q0 -80 28.5 -125t81.5 -45q62 0 102 50z" />
    <glyph glyph-name="sterling" unicode="&#xa3;" horiz-adv-x="592" 
d="M567 656l-81 -87q-47 45 -97 45q-122 0 -122 -146v-62h158v-86h-158v-223h250v-97h-472v97h100v223h-96v86h96v77q0 105 63 171t170 66q120 0 189 -64z" />
    <glyph glyph-name="currency" unicode="&#xa4;" horiz-adv-x="457" 
d="M402 94l-94 -57l-39 67q-40 -5 -45 -5q-3 0 -48 6l-39 -68l-91 57l43 68q-30 38 -30 108q0 68 33 111l-46 69l96 56l39 -67q28 4 41 4q8 0 48 -5l36 68l92 -56l-42 -66q33 -36 33 -115q0 -62 -32 -105zM298 269q0 110 -77 110q-42 0 -57 -26t-15 -78q0 -70 20 -91
q21 -22 55 -22q74 0 74 107z" />
    <glyph glyph-name="yen" unicode="&#xa5;" horiz-adv-x="568" 
d="M563 692l-159 -295h123v-83h-166l-19 -35v-53h185v-83h-185v-143h-119v143h-179v83h179v53l-20 35h-159v83h118l-157 295h139l104 -217q23 -47 37 -89q17 42 38 87l106 219h134z" />
    <glyph glyph-name="brokenbar" unicode="&#xa6;" horiz-adv-x="270" 
d="M185 363h-100v394h100v-394zM185 -207h-100v394h100v-394z" />
    <glyph glyph-name="section" unicode="&#xa7;" horiz-adv-x="562" 
d="M517 282q0 -42 -24 -76.5t-63 -54.5q62 -46 62 -122q0 -45 -20.5 -80t-54.5 -55.5t-73.5 -31t-80.5 -10.5q-161 0 -218 123l106 51q11 -37 43.5 -56t73.5 -19q37 0 65 17t28 52q0 17 -8.5 30.5t-28 25.5t-33.5 18.5t-43 18.5q-74 31 -120 62q-67 47 -67 123q0 93 95 146
q-71 45 -71 117q0 79 62 122.5t143 43.5q66 0 122 -24t82 -77l-104 -59q-12 29 -38.5 45t-58.5 16q-34 0 -58 -17.5t-24 -49.5q0 -45 57 -70l98 -44q33 -15 55.5 -28t46.5 -32.5t36.5 -46t12.5 -58.5zM403 260q0 50 -79 87l-95 45q-55 -26 -55 -70q0 -19 6.5 -33t21 -25
t24.5 -16.5t30 -14.5l99 -46q48 24 48 73z" />
    <glyph glyph-name="dieresis" unicode="&#xa8;" horiz-adv-x="454" 
d="M399 630q0 -29 -20 -49.5t-48 -20.5t-47.5 20.5t-19.5 49.5t20 49.5t48 20.5q27 0 47 -20.5t20 -49.5zM189 630q0 -29 -19.5 -49.5t-47.5 -20.5t-47.5 20.5t-19.5 49.5t19.5 49.5t47.5 20.5t47.5 -20.5t19.5 -49.5z" />
    <glyph glyph-name="copyright" unicode="&#xa9;" horiz-adv-x="850" 
d="M795 355q0 -155 -108.5 -263.5t-261.5 -108.5t-261.5 108.5t-108.5 263.5t108.5 263.5t261.5 108.5t261.5 -108.5t108.5 -263.5zM711 355q0 124 -83.5 211t-202.5 87t-202 -87t-83 -211q0 -125 83.5 -212.5t201.5 -87.5q119 0 202.5 88t83.5 212zM551 179
q-48 -39 -116 -39q-85 0 -136 58q-50 58 -50 149q0 77 28 130q24 46 66.5 71.5t93.5 25.5q65 0 105 -33l-38 -57q-32 23 -66 23q-46 0 -71 -36q-23 -35 -23 -107q0 -82 17 -112q26 -47 80 -47q38 0 72 27z" />
    <glyph glyph-name="ordfeminine" unicode="&#xaa;" horiz-adv-x="422" 
d="M375 417l-41 -54q-42 18 -54 53q-42 -48 -105 -48q-62 0 -93.5 31.5t-31.5 83.5q0 131 187 131h26v27q0 33 -12 47t-41 14q-51 0 -114 -43l-36 60q89 51 162 51q67 0 99 -36q26 -30 24 -85l-3 -143q-1 -40 5.5 -56.5t27.5 -32.5zM382 234h-342v66h342v-66zM261 559
q-1 0 -7 0.5t-8 0.5q-66 0 -90 -21q-18 -17 -18 -52q0 -28 14 -43.5t39 -15.5q41 0 69 40z" />
    <glyph glyph-name="guillemotleft" unicode="&#xab;" horiz-adv-x="517" 
d="M482 70l-74 -50l-152 226l152 227l74 -50l-116 -177zM260 70l-74 -50l-151 226l151 227l74 -50l-115 -177z" />
    <glyph glyph-name="logicalnot" unicode="&#xac;" horiz-adv-x="535" 
d="M480 66h-107v140h-318v93h425v-233z" />
    <glyph glyph-name="uni00AD" unicode="&#xad;" horiz-adv-x="329" 
d="M274 221h-219v102h219v-102z" />
    <glyph glyph-name="registered" unicode="&#xae;" horiz-adv-x="850" 
d="M795 355q0 -155 -108.5 -263.5t-261.5 -108.5t-261.5 108.5t-108.5 263.5t108.5 263.5t261.5 108.5t261.5 -108.5t108.5 -263.5zM711 355q0 124 -83.5 211t-202.5 87t-202 -87t-83 -211q0 -125 83.5 -212.5t201.5 -87.5q119 0 202.5 88t83.5 212zM597 149h-99
q-33 58 -39 69q-32 58 -45 78t-24 24q-6 3 -13 3v-174h-82v417h155q55 0 89 -33.5t34 -88.5q0 -47 -27.5 -80.5t-65.5 -34.5q11 -10 17 -18q25 -33 100 -162zM484 442q0 39 -30 51q-18 6 -47 6h-30v-113h28q48 0 63 14q16 16 16 42z" />
    <glyph glyph-name="macron" unicode="&#xaf;" horiz-adv-x="355" 
d="M325 672h-295v70h295v-70z" />
    <glyph glyph-name="degree" unicode="&#xb0;" horiz-adv-x="403" 
d="M368 528q0 -79 -45 -124.5t-122 -45.5t-121.5 46t-44.5 125q0 78 45.5 124.5t119.5 46.5q79 0 123.5 -45.5t44.5 -126.5zM277 527q0 57 -18.5 83t-58.5 26q-75 0 -75 -104q0 -57 18.5 -83.5t58.5 -26.5q75 0 75 105z" />
    <glyph glyph-name="plusminus" unicode="&#xb1;" horiz-adv-x="517" 
d="M462 277h-150v-143h-107v143h-150v100h150v137h107v-137h150v-100zM460 0h-403v100h403v-100z" />
    <glyph glyph-name="twosuperior" unicode="&#xb2;" horiz-adv-x="384" 
d="M339 321l-19 -71h-263v56q46 36 99 92q75 79 75 129q0 25 -14 38.5t-36 13.5t-40.5 -9.5t-48.5 -31.5l-47 51q77 64 156 64q55 0 90 -33t35 -84q0 -32 -21.5 -69.5t-41 -58t-54.5 -54.5l-36 -34q5 0 15.5 0.5t14.5 0.5h136z" />
    <glyph glyph-name="threesuperior" unicode="&#xb3;" horiz-adv-x="381" 
d="M336 374q0 -41 -27.5 -73t-72.5 -50q-53 -20 -118 -20q-15 0 -48 4l-23 64q32 -6 54 -6q74 0 113 32q26 21 26 55t-30 44q-18 6 -59 6h-30v66h34q79 0 79 43q0 19 -12.5 30.5t-37.5 11.5q-38 0 -93 -37l-46 53q70 56 149 56q57 0 94.5 -30t37.5 -76q0 -52 -50 -85
q60 -30 60 -88z" />
    <glyph glyph-name="acute" unicode="&#xb4;" horiz-adv-x="324" 
d="M289 662l-220 -102l-34 63l204 132z" />
    <glyph glyph-name="mu" unicode="&#xb5;" horiz-adv-x="551" 
d="M497 37l-76 -51q-32 24 -44 63q-55 -63 -144 -63q-29 0 -46 17q3 -30 3 -45v-146l-110 -27v714l108 21v-349q0 -57 18 -77q20 -22 53 -22q30 0 59 18.5t41 45.5v360l107 22v-384q0 -28 7 -51.5t13 -32.5t11 -13z" />
    <glyph glyph-name="paragraph" unicode="&#xb6;" horiz-adv-x="607" 
d="M522 -125h-79v767h-115v-767h-80v458q-95 0 -154 51.5t-59 130.5q0 96 61 145t168 49h258v-834z" />
    <glyph glyph-name="periodcentered" unicode="&#xb7;" horiz-adv-x="286" 
d="M221 276q0 -33 -23 -57t-55 -24q-33 0 -55.5 24t-22.5 57q0 34 23 57.5t55 23.5q33 0 55.5 -23.5t22.5 -57.5z" />
    <glyph glyph-name="cedilla" unicode="&#xb8;" horiz-adv-x="296" 
d="M241 -112q0 -36 -27.5 -61t-75.5 -25q-39 0 -83 24l26 54q32 -15 54 -15q12 0 21.5 7.5t9.5 17.5q0 11 -8.5 18.5t-23.5 7.5q-9 0 -29 -5l-5 21l21 80l64 -7l-14 -41q70 -8 70 -76z" />
    <glyph glyph-name="onesuperior" unicode="&#xb9;" horiz-adv-x="336" 
d="M291 250h-204v70h64v229q-46 -26 -82 -38l-24 49l130 87h60v-327h56v-70z" />
    <glyph glyph-name="ordmasculine" unicode="&#xba;" horiz-adv-x="421" 
d="M376 564q0 -88 -44 -142t-123 -54q-76 0 -121 53t-45 144t45 144.5t120 53.5q80 0 124 -53.5t44 -145.5zM282 563q0 73 -18.5 102.5t-54.5 29.5q-38 0 -55 -30t-17 -94q0 -75 18.5 -105.5t55.5 -30.5q71 0 71 128zM381 234h-341v66h341v-66z" />
    <glyph glyph-name="guillemotright" unicode="&#xbb;" horiz-adv-x="518" 
d="M483 246l-152 -226l-74 50l116 176l-116 177l74 50zM261 246l-151 -226l-75 50l117 176l-117 177l75 50z" />
    <glyph glyph-name="onequarter" unicode="&#xbc;" horiz-adv-x="990" 
d="M291 250h-204v70h64v229q-46 -26 -82 -38l-24 49l130 87h60v-327h56v-70zM814 764l-525 -917h-88l525 917h88zM922 308v-162v-3l-1 -2q1 0 3.5 0.5t3.5 0.5h39v-71h-39q-1 0 -3.5 0.5t-3.5 0.5q0 -1 0.5 -5.5t0.5 -6.5v-68l-83 -14v86q0 1 0.5 4t0.5 4q-1 0 -5 -0.5
t-6 -0.5h-167v56l110 271h92q-3 -6 -22 -56t-43.5 -108.5t-43.5 -91.5h81l4 -1v4q0 19 11 146z" />
    <glyph glyph-name="onehalf" unicode="&#xbd;" horiz-adv-x="979" 
d="M291 250h-204v70h64v229q-46 -26 -82 -38l-24 49l130 87h60v-327h56v-70zM794 764l-525 -917h-88l525 917h88zM956 71l-19 -71h-263v56q46 36 99 92q75 79 75 129q0 25 -14 38.5t-36 13.5t-40.5 -9.5t-48.5 -31.5l-47 51q77 64 156 64q55 0 90 -33t35 -84
q0 -32 -21.5 -69.5t-41 -58t-54.5 -54.5l-36 -34q5 0 15.5 0.5t14.5 0.5h136z" />
    <glyph glyph-name="threequarters" unicode="&#xbe;" horiz-adv-x="1035" 
d="M336 374q0 -41 -27.5 -73t-72.5 -50q-53 -20 -118 -20q-15 0 -48 4l-23 64q32 -6 54 -6q74 0 113 32q26 21 26 55t-30 44q-18 6 -59 6h-30v66h34q79 0 79 43q0 19 -12.5 30.5t-37.5 11.5q-38 0 -93 -37l-46 53q70 56 149 56q57 0 94.5 -30t37.5 -76q0 -52 -50 -85
q60 -30 60 -88zM839 764l-525 -917h-88l525 917h88zM967 308v-162q0 -1 -1 -3v-2q1 0 3.5 0.5t3.5 0.5h39v-71h-39q-1 0 -3.5 0.5t-3.5 0.5q0 -1 0.5 -5.5t0.5 -6.5v-68l-83 -14v86q0 1 0.5 4t0.5 4q-1 0 -5 -0.5t-6 -0.5h-167v56l110 271h92q-3 -6 -22 -56t-43.5 -108.5
t-43.5 -91.5h81l4 -1v4q0 19 11 146z" />
    <glyph glyph-name="questiondown" unicode="&#xbf;" horiz-adv-x="471" 
d="M426 -123q-76 -69 -187 -69q-75 0 -124.5 43t-49.5 115q0 33 9.5 60t28 46.5t29.5 28.5t28 20q68 46 68 124q0 8 -3 41h94l1 -10q2 -10 4 -25.5t2 -28.5q0 -88 -76 -144l-11 -8q-34 -25 -49.5 -43.5t-15.5 -46.5q0 -37 24 -57t62 -20q64 0 118 45zM335 446
q0 -31 -22.5 -53t-53.5 -22q-30 0 -52 22t-22 53q0 32 22 54t53 22t53 -22t22 -54z" />
    <glyph glyph-name="Agrave" unicode="&#xc0;" horiz-adv-x="587" 
d="M584 0h-126l-56 182h-224l-56 -182h-119l227 693h133zM376 278q-5 11 -41.5 145t-40.5 155h-1q-63 -231 -87 -300h170zM399 783l-34 -63l-220 102l50 93z" />
    <glyph glyph-name="Aacute" unicode="&#xc1;" horiz-adv-x="587" 
d="M584 0h-126l-56 182h-224l-56 -182h-119l227 693h133zM376 278q-5 11 -41.5 145t-40.5 155h-1q-63 -231 -87 -300h170zM451 822l-220 -102l-34 63l204 132z" />
    <glyph glyph-name="Acircumflex" unicode="&#xc2;" horiz-adv-x="587" 
d="M584 0h-126l-56 182h-224l-56 -182h-119l227 693h133zM376 278q-5 11 -41.5 145t-40.5 155h-1q-63 -231 -87 -300h170zM471 776l-40 -61l-138 82l-134 -82l-38 61l174 136z" />
    <glyph glyph-name="Atilde" unicode="&#xc3;" horiz-adv-x="587" 
d="M584 0h-126l-56 182h-224l-56 -182h-119l227 693h133zM376 278q-5 11 -41.5 145t-40.5 155h-1q-63 -231 -87 -300h170zM466 809q-27 -34 -53.5 -50t-67.5 -16q-31 0 -66 20.5t-64 20.5q-21 0 -34 -8.5t-32 -28.5l-36 61q27 35 53 50.5t67 15.5q31 0 66 -20.5t64 -20.5
q22 0 35 8.5t32 28.5z" />
    <glyph glyph-name="Adieresis" unicode="&#xc4;" horiz-adv-x="587" 
d="M584 0h-126l-56 182h-224l-56 -182h-119l227 693h133zM376 278q-5 11 -41.5 145t-40.5 155h-1q-63 -231 -87 -300h170zM259 790q0 -29 -19.5 -49.5t-47.5 -20.5t-47.5 20.5t-19.5 49.5t19.5 49.5t47.5 20.5t47.5 -20.5t19.5 -49.5zM468 790q0 -29 -19.5 -49.5
t-47.5 -20.5t-47.5 20.5t-19.5 49.5t19.5 49.5t47.5 20.5t47.5 -20.5t19.5 -49.5z" />
    <glyph glyph-name="Aring" unicode="&#xc5;" horiz-adv-x="587" 
d="M584 0h-126l-56 182h-224l-56 -182h-119l227 693h133zM376 278q-5 11 -41.5 145t-40.5 155h-1q-63 -231 -87 -300h170zM399 820q0 -43 -31 -74t-75 -31t-75 31t-31 74q0 44 31.5 75t74.5 31t74.5 -31t31.5 -75zM351 820q0 24 -17 41.5t-41 17.5t-41 -17.5t-17 -41.5
t17 -41.5t41 -17.5t41 17.5t17 41.5z" />
    <glyph glyph-name="AE" unicode="&#xc6;" horiz-adv-x="853" 
d="M823 0h-393v184h-212l-106 -184h-127l416 691h412l-15 -94h-252v-188h211v-95h-211v-216h277v-98zM434 560q-4 0 -5 -1q-4 -10 -73.5 -133.5t-83.5 -146.5h158v181q0 52 4 100z" />
    <glyph glyph-name="Ccedilla" unicode="&#xc7;" horiz-adv-x="577" 
d="M542 50q-80 -61 -193 -61h-8l-8 -27q36 -4 53 -25t17 -50q0 -35 -28 -60t-75 -25q-39 0 -83 24l25 53q33 -15 55 -15q12 0 21.5 7.5t9.5 17.5q0 11 -9 18t-23 7q-11 0 -26 -5l-10 15l19 73q-105 28 -164.5 118t-59.5 222q0 123 46 209q39 75 106.5 117t148.5 42
q107 0 172 -54l-53 -76q-55 39 -118 39q-87 0 -135 -76q-39 -64 -39 -188q0 -120 29 -177q49 -93 152 -93q69 0 124 44z" />
    <glyph glyph-name="Egrave" unicode="&#xc8;" horiz-adv-x="509" 
d="M479 0h-394v692h384l-15 -94h-252v-189h211v-95h-211v-216h277v-98zM384 783l-34 -63l-220 102l50 93z" />
    <glyph glyph-name="Eacute" unicode="&#xc9;" horiz-adv-x="509" 
d="M479 0h-394v692h384l-15 -94h-252v-189h211v-95h-211v-216h277v-98zM404 822l-220 -102l-34 63l204 132z" />
    <glyph glyph-name="Ecircumflex" unicode="&#xca;" horiz-adv-x="509" 
d="M479 0h-394v692h384l-15 -94h-252v-189h211v-95h-211v-216h277v-98zM454 776l-40 -61l-138 82l-134 -82l-38 61l174 136z" />
    <glyph glyph-name="Edieresis" unicode="&#xcb;" horiz-adv-x="509" 
d="M479 0h-394v692h384l-15 -94h-252v-189h211v-95h-211v-216h277v-98zM233 790q0 -29 -19.5 -49.5t-47.5 -20.5t-47.5 20.5t-19.5 49.5t19.5 49.5t47.5 20.5t47.5 -20.5t19.5 -49.5zM442 790q0 -29 -19.5 -49.5t-47.5 -20.5t-47.5 20.5t-19.5 49.5t19.5 49.5t47.5 20.5
t47.5 -20.5t19.5 -49.5z" />
    <glyph glyph-name="Igrave" unicode="&#xcc;" horiz-adv-x="288" 
d="M203 0h-118v692h118v-692zM243 785l-34 -63l-220 102l50 93z" />
    <glyph glyph-name="Iacute" unicode="&#xcd;" horiz-adv-x="288" 
d="M203 0h-118v692h118v-692zM302 824l-220 -102l-34 63l204 132z" />
    <glyph glyph-name="Icircumflex" unicode="&#xce;" horiz-adv-x="288" 
d="M203 0h-118v692h118v-692zM319 778l-40 -61l-138 82l-134 -82l-38 61l174 136z" />
    <glyph glyph-name="Idieresis" unicode="&#xcf;" horiz-adv-x="288" 
d="M203 0h-118v692h118v-692zM106 791q0 -29 -19.5 -49.5t-47.5 -20.5t-47.5 20.5t-19.5 49.5t19.5 49.5t47.5 20.5t47.5 -20.5t19.5 -49.5zM315 791q0 -29 -19.5 -49.5t-47.5 -20.5t-47.5 20.5t-19.5 49.5t19.5 49.5t47.5 20.5t47.5 -20.5t19.5 -49.5z" />
    <glyph glyph-name="Eth" unicode="&#xd0;" horiz-adv-x="631" 
d="M576 344q0 -154 -73 -247q-43 -55 -96.5 -76t-150.5 -21h-171v311h-79v79h79v302h144q100 0 162 -22t110 -76q75 -87 75 -250zM448 332q0 149 -44 209q-24 33 -53.5 46.5t-76.5 13.5h-73v-211h130l-5 -79h-125v-217h76q90 0 130.5 59t40.5 179z" />
    <glyph glyph-name="Ntilde" unicode="&#xd1;" horiz-adv-x="639" 
d="M554 0h-121l-155 325q-68 141 -88 205l-3 -3q5 -58 7 -192l4 -335h-113v692h130l168 -338q48 -96 71 -178l3 3q-10 117 -10 197l-2 316h109v-692zM496 809q-27 -34 -53.5 -50t-67.5 -16q-31 0 -66 20.5t-64 20.5q-21 0 -34 -8.5t-32 -28.5l-36 61q27 35 53 50.5t67 15.5
q31 0 66 -20.5t64 -20.5q22 0 35 8.5t32 28.5z" />
    <glyph glyph-name="Ograve" unicode="&#xd2;" horiz-adv-x="688" 
d="M633 345q0 -164 -75 -260t-209 -96q-143 0 -218.5 98.5t-75.5 258.5q0 168 78.5 262t210.5 94q141 0 215 -99t74 -258zM502 338q0 136 -35.5 205.5t-123.5 69.5q-84 0 -122 -65.5t-38 -194.5q0 -138 38.5 -207.5t124.5 -69.5q79 0 117.5 62.5t38.5 199.5zM455 783
l-34 -63l-220 102l50 93z" />
    <glyph glyph-name="Oacute" unicode="&#xd3;" horiz-adv-x="688" 
d="M633 345q0 -164 -75 -260t-209 -96q-143 0 -218.5 98.5t-75.5 258.5q0 168 78.5 262t210.5 94q141 0 215 -99t74 -258zM502 338q0 136 -35.5 205.5t-123.5 69.5q-84 0 -122 -65.5t-38 -194.5q0 -138 38.5 -207.5t124.5 -69.5q79 0 117.5 62.5t38.5 199.5zM490 824
l-220 -102l-34 63l204 132z" />
    <glyph glyph-name="Ocircumflex" unicode="&#xd4;" horiz-adv-x="688" 
d="M633 345q0 -164 -75 -260t-209 -96q-143 0 -218.5 98.5t-75.5 258.5q0 168 78.5 262t210.5 94q141 0 215 -99t74 -258zM502 338q0 136 -35.5 205.5t-123.5 69.5q-84 0 -122 -65.5t-38 -194.5q0 -138 38.5 -207.5t124.5 -69.5q79 0 117.5 62.5t38.5 199.5zM521 776
l-40 -61l-138 82l-134 -82l-38 61l174 136z" />
    <glyph glyph-name="Otilde" unicode="&#xd5;" horiz-adv-x="688" 
d="M633 345q0 -164 -75 -260t-209 -96q-143 0 -218.5 98.5t-75.5 258.5q0 168 78.5 262t210.5 94q141 0 215 -99t74 -258zM502 338q0 136 -35.5 205.5t-123.5 69.5q-84 0 -122 -65.5t-38 -194.5q0 -138 38.5 -207.5t124.5 -69.5q79 0 117.5 62.5t38.5 199.5zM511 809
q-27 -34 -53.5 -50t-67.5 -16q-31 0 -66 20.5t-64 20.5q-21 0 -34 -8.5t-32 -28.5l-36 61q27 35 53 50.5t67 15.5q31 0 66 -20.5t64 -20.5q22 0 35 8.5t32 28.5z" />
    <glyph glyph-name="Odieresis" unicode="&#xd6;" horiz-adv-x="688" 
d="M633 345q0 -164 -75 -260t-209 -96q-143 0 -218.5 98.5t-75.5 258.5q0 168 78.5 262t210.5 94q141 0 215 -99t74 -258zM502 338q0 136 -35.5 205.5t-123.5 69.5q-84 0 -122 -65.5t-38 -194.5q0 -138 38.5 -207.5t124.5 -69.5q79 0 117.5 62.5t38.5 199.5zM306 790
q0 -29 -19.5 -49.5t-47.5 -20.5t-47.5 20.5t-19.5 49.5t19.5 49.5t47.5 20.5t47.5 -20.5t19.5 -49.5zM516 790q0 -29 -19.5 -49.5t-47.5 -20.5t-47.5 20.5t-19.5 49.5t19.5 49.5t47.5 20.5t47.5 -20.5t19.5 -49.5z" />
    <glyph glyph-name="multiply" unicode="&#xd7;" horiz-adv-x="598" 
d="M513 142l-72 -72l-141 141l-141 -141l-74 74l141 141l-141 141l72 72l141 -141l141 141l74 -74l-141 -141z" />
    <glyph glyph-name="Oslash" unicode="&#xd8;" horiz-adv-x="688" 
d="M633 344q0 -189 -99 -282q-78 -74 -186 -74q-90 0 -154 40l-67 -114l-62 36l75 125q-85 103 -85 271q0 166 77.5 261t210.5 95q83 0 150 -40l61 103l63 -36l-69 -114q48 -56 66.5 -117.5t18.5 -153.5zM441 575q-41 38 -97 38q-83 0 -122 -63t-39 -199q0 -101 21 -170z
M501 337q0 99 -20 167l-236 -394q13 -13 42 -24t59 -11q79 0 117 63t38 199z" />
    <glyph glyph-name="Ugrave" unicode="&#xd9;" horiz-adv-x="639" 
d="M559 194q0 -96 -63.5 -151t-176.5 -55q-127 0 -183 56.5t-56 148.5v499h116v-465q0 -78 29 -109.5t94 -31.5q125 0 125 141v465h115v-498zM425 783l-34 -63l-220 102l50 93z" />
    <glyph glyph-name="Uacute" unicode="&#xda;" horiz-adv-x="639" 
d="M559 194q0 -96 -63.5 -151t-176.5 -55q-127 0 -183 56.5t-56 148.5v499h116v-465q0 -78 29 -109.5t94 -31.5q125 0 125 141v465h115v-498zM456 822l-220 -102l-34 63l204 132z" />
    <glyph glyph-name="Ucircumflex" unicode="&#xdb;" horiz-adv-x="639" 
d="M559 194q0 -96 -63.5 -151t-176.5 -55q-127 0 -183 56.5t-56 148.5v499h116v-465q0 -78 29 -109.5t94 -31.5q125 0 125 141v465h115v-498zM496 776l-40 -61l-138 82l-134 -82l-38 61l174 136z" />
    <glyph glyph-name="Udieresis" unicode="&#xdc;" horiz-adv-x="639" 
d="M559 194q0 -96 -63.5 -151t-176.5 -55q-127 0 -183 56.5t-56 148.5v499h116v-465q0 -78 29 -109.5t94 -31.5q125 0 125 141v465h115v-498zM293 790q0 -29 -19.5 -49.5t-47.5 -20.5t-47.5 20.5t-19.5 49.5t19.5 49.5t47.5 20.5t47.5 -20.5t19.5 -49.5zM502 791
q0 -29 -19.5 -49.5t-47.5 -20.5t-47.5 20.5t-19.5 49.5t19.5 49.5t47.5 20.5t47.5 -20.5t19.5 -49.5z" />
    <glyph glyph-name="Yacute" unicode="&#xdd;" horiz-adv-x="528" 
d="M543 692l-221 -413v-279h-119v280l-218 412h139l104 -217q23 -48 37 -89q17 42 38 87l106 219h134zM410 824l-220 -102l-34 63l204 132z" />
    <glyph glyph-name="Thorn" unicode="&#xde;" horiz-adv-x="565" 
d="M540 375q0 -100 -64 -160.5t-160 -60.5h-117v-154h-114v692h114v-110h70q73 0 109.5 -7.5t66.5 -25.5q95 -56 95 -174zM413 368q0 58 -28 87q-32 34 -96 34h-90v-243h90q124 0 124 122z" />
    <glyph glyph-name="germandbls" unicode="&#xdf;" horiz-adv-x="597" 
d="M552 185q0 -87 -58.5 -142.5t-153.5 -55.5q-54 0 -81 13l26 75q25 -8 42 -8q48 0 76.5 30.5t28.5 81.5q0 35 -17 60.5t-41.5 40t-49 28t-41.5 34.5t-17 49q0 24 11 40.5t27 26.5t31.5 20t26.5 28t11 43q0 41 -22.5 63t-60.5 22q-85 0 -85 -122v-411q0 -56 -16 -101h-109
q14 59 14 122v301h-79v83h79v18q0 76 26 114q55 80 173 80q91 0 146 -44t55 -116q0 -62 -51 -102q-15 -12 -36.5 -22.5t-32.5 -17.5t-11 -17q0 -12 15.5 -21.5t47 -24t50.5 -26.5q76 -48 76 -142z" />
    <glyph glyph-name="agrave" unicode="&#xe0;" horiz-adv-x="525" 
d="M483 49l-57 -70q-51 20 -69 68q-55 -62 -139 -62t-126 41.5t-42 110.5q0 87 64 131.5t186 44.5h34v27q0 48 -14 68.5t-56 20.5q-29 0 -64.5 -13t-54.5 -24t-32 -21l-49 79q109 69 215 69q120 0 154 -84q9 -23 8 -124l-2 -145q-1 -52 7 -74.5t37 -42.5zM332 238h-8
q-8 1 -12 1q-80 0 -111.5 -23t-31.5 -73q0 -36 18.5 -57t51.5 -21q55 0 91 53zM369 623l-34 -63l-220 102l50 93z" />
    <glyph glyph-name="aacute" unicode="&#xe1;" horiz-adv-x="525" 
d="M483 49l-57 -70q-51 20 -69 68q-55 -62 -139 -62t-126 41.5t-42 110.5q0 87 64 131.5t186 44.5h34v27q0 48 -14 68.5t-56 20.5q-29 0 -64.5 -13t-54.5 -24t-32 -21l-49 79q109 69 215 69q120 0 154 -84q9 -23 8 -124l-2 -145q-1 -52 7 -74.5t37 -42.5zM332 238h-8
q-8 1 -12 1q-80 0 -111.5 -23t-31.5 -73q0 -36 18.5 -57t51.5 -21q55 0 91 53zM405 662l-220 -102l-34 63l204 132z" />
    <glyph glyph-name="acircumflex" unicode="&#xe2;" horiz-adv-x="525" 
d="M483 49l-57 -70q-51 20 -69 68q-55 -62 -139 -62t-126 41.5t-42 110.5q0 87 64 131.5t186 44.5h34v27q0 48 -14 68.5t-56 20.5q-29 0 -64.5 -13t-54.5 -24t-32 -21l-49 79q109 69 215 69q120 0 154 -84q9 -23 8 -124l-2 -145q-1 -52 7 -74.5t37 -42.5zM332 238h-8
q-8 1 -12 1q-80 0 -111.5 -23t-31.5 -73q0 -36 18.5 -57t51.5 -21q55 0 91 53zM437 616l-40 -61l-138 82l-134 -82l-38 61l174 136z" />
    <glyph glyph-name="atilde" unicode="&#xe3;" horiz-adv-x="525" 
d="M483 49l-57 -70q-51 20 -69 68q-55 -62 -139 -62t-126 41.5t-42 110.5q0 87 64 131.5t186 44.5h34v27q0 48 -14 68.5t-56 20.5q-29 0 -64.5 -13t-54.5 -24t-32 -21l-49 79q109 69 215 69q120 0 154 -84q9 -23 8 -124l-2 -145q-1 -52 7 -74.5t37 -42.5zM332 238h-8
q-8 1 -12 1q-80 0 -111.5 -23t-31.5 -73q0 -36 18.5 -57t51.5 -21q55 0 91 53zM432 649q-27 -34 -53.5 -50t-67.5 -16q-31 0 -66 20.5t-64 20.5q-21 0 -34 -8.5t-32 -28.5l-36 61q27 35 53 50.5t67 15.5q31 0 66 -20.5t64 -20.5q22 0 35 8.5t32 28.5z" />
    <glyph glyph-name="adieresis" unicode="&#xe4;" horiz-adv-x="525" 
d="M483 49l-57 -70q-51 20 -69 68q-55 -62 -139 -62t-126 41.5t-42 110.5q0 87 64 131.5t186 44.5h34v27q0 48 -14 68.5t-56 20.5q-29 0 -64.5 -13t-54.5 -24t-32 -21l-49 79q109 69 215 69q120 0 154 -84q9 -23 8 -124l-2 -145q-1 -52 7 -74.5t37 -42.5zM332 238h-8
q-8 1 -12 1q-80 0 -111.5 -23t-31.5 -73q0 -36 18.5 -57t51.5 -21q55 0 91 53zM225 630q0 -29 -19.5 -49.5t-47.5 -20.5t-47.5 20.5t-19.5 49.5t19.5 49.5t47.5 20.5t47.5 -20.5t19.5 -49.5zM434 630q0 -29 -19.5 -49.5t-47.5 -20.5t-47.5 20.5t-19.5 49.5t19.5 49.5
t47.5 20.5t47.5 -20.5t19.5 -49.5z" />
    <glyph glyph-name="aring" unicode="&#xe5;" horiz-adv-x="525" 
d="M483 49l-57 -70q-51 20 -69 68q-55 -62 -139 -62t-126 41.5t-42 110.5q0 87 64 131.5t186 44.5h34v27q0 48 -14 68.5t-56 20.5q-29 0 -64.5 -13t-54.5 -24t-32 -21l-49 79q109 69 215 69q120 0 154 -84q9 -23 8 -124l-2 -145q-1 -52 7 -74.5t37 -42.5zM332 238h-8
q-8 1 -12 1q-80 0 -111.5 -23t-31.5 -73q0 -36 18.5 -57t51.5 -21q55 0 91 53zM371 660q0 -43 -31 -74t-75 -31t-75 31t-31 74q0 44 31.5 75t74.5 31t74.5 -31t31.5 -75zM323 660q0 24 -17 41.5t-41 17.5t-41 -17.5t-17 -41.5t17 -41.5t41 -17.5t41 17.5t17 41.5z" />
    <glyph glyph-name="ae" unicode="&#xe6;" horiz-adv-x="785" 
d="M740 223h-301v-21q0 -59 33 -95.5t90 -36.5q69 0 127 50l41 -66q-77 -67 -180 -67q-121 0 -171 77q-69 -80 -161 -80q-84 0 -126 42t-42 110q0 87 64 131.5t186 44.5q5 0 15 -0.5t19 -0.5v29q0 50 -13 68q-15 21 -57 21q-71 0 -152 -57l-48 78q110 69 215 69
q76 0 127 -54q56 54 128 54q90 0 142 -54q34 -36 49 -86.5t15 -132.5v-23zM332 237q-4 0 -11 0.5t-9 0.5q-80 0 -111.5 -22t-31.5 -73q0 -37 18.5 -58t51.5 -21q56 0 91 53zM625 304q0 60 -23 96.5t-68 36.5t-69.5 -34t-24.5 -99h185z" />
    <glyph glyph-name="ccedilla" unicode="&#xe7;" horiz-adv-x="467" 
d="M432 57q-65 -68 -158 -68l-8 -27q69 -8 69 -75q0 -36 -27.5 -60.5t-75.5 -24.5q-40 0 -82 23l25 54q34 -15 54 -15q13 0 22 7.5t9 17.5q0 25 -32 25q-15 0 -25 -5l-11 15l19 72q-66 16 -106 70q-50 70 -50 183q0 155 93 227q55 44 129 44q80 0 141 -54l-55 -73
q-43 39 -85 39q-54 0 -77.5 -47t-23.5 -145t33 -136q27 -31 68 -31q54 0 102 50z" />
    <glyph glyph-name="egrave" unicode="&#xe8;" horiz-adv-x="523" 
d="M478 223h-302v-8q0 -62 28.5 -103t96.5 -41t126 50l43 -67q-79 -67 -182 -67q-107 0 -170 71.5t-63 193.5q0 126 63 198q59 68 155 68q82 0 139 -52q66 -60 66 -220v-23zM364 304q0 61 -24.5 96t-66.5 35q-46 0 -71 -34.5t-25 -96.5h187zM368 623l-34 -63l-220 102l50 93
z" />
    <glyph glyph-name="eacute" unicode="&#xe9;" horiz-adv-x="523" 
d="M478 223h-302v-8q0 -62 28.5 -103t96.5 -41t126 50l43 -67q-79 -67 -182 -67q-107 0 -170 71.5t-63 193.5q0 126 63 198q59 68 155 68q82 0 139 -52q66 -60 66 -220v-23zM364 304q0 61 -24.5 96t-66.5 35q-46 0 -71 -34.5t-25 -96.5h187zM407 662l-220 -102l-34 63
l204 132z" />
    <glyph glyph-name="ecircumflex" unicode="&#xea;" horiz-adv-x="523" 
d="M478 223h-302v-8q0 -62 28.5 -103t96.5 -41t126 50l43 -67q-79 -67 -182 -67q-107 0 -170 71.5t-63 193.5q0 126 63 198q59 68 155 68q82 0 139 -52q66 -60 66 -220v-23zM364 304q0 61 -24.5 96t-66.5 35q-46 0 -71 -34.5t-25 -96.5h187zM449 616l-40 -61l-138 82
l-134 -82l-38 61l174 136z" />
    <glyph glyph-name="edieresis" unicode="&#xeb;" horiz-adv-x="523" 
d="M478 223h-302v-8q0 -62 28.5 -103t96.5 -41t126 50l43 -67q-79 -67 -182 -67q-107 0 -170 71.5t-63 193.5q0 126 63 198q59 68 155 68q82 0 139 -52q66 -60 66 -220v-23zM364 304q0 61 -24.5 96t-66.5 35q-46 0 -71 -34.5t-25 -96.5h187zM234 630q0 -29 -19.5 -49.5
t-47.5 -20.5t-47.5 20.5t-19.5 49.5t19.5 49.5t47.5 20.5t47.5 -20.5t19.5 -49.5zM443 630q0 -29 -19.5 -49.5t-47.5 -20.5t-47.5 20.5t-19.5 49.5t19.5 49.5t47.5 20.5t47.5 -20.5t19.5 -49.5z" />
    <glyph glyph-name="igrave" unicode="&#xec;" horiz-adv-x="281" 
d="M196 0h-111v498l111 20v-518zM239 623l-34 -63l-220 102l50 93z" />
    <glyph glyph-name="iacute" unicode="&#xed;" horiz-adv-x="281" 
d="M196 0h-111v498l111 20v-518zM299 662l-220 -102l-34 63l204 132z" />
    <glyph glyph-name="icircumflex" unicode="&#xee;" horiz-adv-x="281" 
d="M196 0h-111v498l111 20v-518zM317 616l-40 -61l-138 82l-134 -82l-38 61l174 136z" />
    <glyph glyph-name="idieresis" unicode="&#xef;" horiz-adv-x="281" 
d="M196 0h-111v498l111 20v-518zM103 630q0 -29 -19.5 -49.5t-47.5 -20.5t-47.5 20.5t-19.5 49.5t19.5 49.5t47.5 20.5t47.5 -20.5t19.5 -49.5zM312 630q0 -29 -19.5 -49.5t-47.5 -20.5t-47.5 20.5t-19.5 49.5t19.5 49.5t47.5 20.5t47.5 -20.5t19.5 -49.5z" />
    <glyph glyph-name="eth" unicode="&#xf0;" horiz-adv-x="570" 
d="M373 645l-36 -40q36 -28 61 -57q117 -137 117 -302q0 -122 -62.5 -191t-161.5 -69q-96 0 -158.5 64t-62.5 168q0 95 59 153.5t151 58.5q40 0 76 -9q-32 55 -82 97l-7 6l-30 -35l-71 36l35 40q-69 36 -147 44l67 81q74 -8 149 -46l32 37zM397 238q0 10 -8 74
q-42 24 -101 24q-45 0 -71 -31.5t-26 -88.5q0 -59 28.5 -94.5t77.5 -35.5q48 0 74 41.5t26 110.5z" />
    <glyph glyph-name="ntilde" unicode="&#xf1;" horiz-adv-x="556" 
d="M471 0h-109v336q0 51 -13 69.5t-45 18.5q-24 0 -55 -16t-56 -41v-367h-108v372q0 71 -19 120l100 28q18 -34 18 -72q82 70 155 70q60 0 96 -36t36 -104v-378zM450 649q-27 -34 -53.5 -50t-67.5 -16q-31 0 -66 20.5t-64 20.5q-21 0 -34 -8.5t-32 -28.5l-36 61
q27 35 53 50.5t67 15.5q31 0 66 -20.5t64 -20.5q22 0 35 8.5t32 28.5z" />
    <glyph glyph-name="ograve" unicode="&#xf2;" horiz-adv-x="547" 
d="M497 251q0 -122 -60.5 -193t-163.5 -71t-163 71.5t-60 193.5q0 121 60 193.5t161 72.5q106 0 166 -72.5t60 -194.5zM376 249q0 102 -26.5 144t-77.5 42q-52 0 -76 -42t-24 -134q0 -106 25.5 -148t77.5 -42q101 0 101 180zM366 623l-34 -63l-220 102l50 93z" />
    <glyph glyph-name="oacute" unicode="&#xf3;" horiz-adv-x="547" 
d="M497 251q0 -122 -60.5 -193t-163.5 -71t-163 71.5t-60 193.5q0 121 60 193.5t161 72.5q106 0 166 -72.5t60 -194.5zM376 249q0 102 -26.5 144t-77.5 42q-52 0 -76 -42t-24 -134q0 -106 25.5 -148t77.5 -42q101 0 101 180zM415 662l-220 -102l-34 63l204 132z" />
    <glyph glyph-name="ocircumflex" unicode="&#xf4;" horiz-adv-x="547" 
d="M497 251q0 -122 -60.5 -193t-163.5 -71t-163 71.5t-60 193.5q0 121 60 193.5t161 72.5q106 0 166 -72.5t60 -194.5zM376 249q0 102 -26.5 144t-77.5 42q-52 0 -76 -42t-24 -134q0 -106 25.5 -148t77.5 -42q101 0 101 180zM447 616l-40 -61l-138 82l-134 -82l-38 61
l174 136z" />
    <glyph glyph-name="otilde" unicode="&#xf5;" horiz-adv-x="547" 
d="M497 251q0 -122 -60.5 -193t-163.5 -71t-163 71.5t-60 193.5q0 121 60 193.5t161 72.5q106 0 166 -72.5t60 -194.5zM376 249q0 102 -26.5 144t-77.5 42q-52 0 -76 -42t-24 -134q0 -106 25.5 -148t77.5 -42q101 0 101 180zM445 649q-27 -34 -53.5 -50t-67.5 -16
q-31 0 -66 20.5t-64 20.5q-21 0 -34 -8.5t-32 -28.5l-36 61q27 35 53 50.5t67 15.5q31 0 66 -20.5t64 -20.5q22 0 35 8.5t32 28.5z" />
    <glyph glyph-name="odieresis" unicode="&#xf6;" horiz-adv-x="547" 
d="M497 251q0 -122 -60.5 -193t-163.5 -71t-163 71.5t-60 193.5q0 121 60 193.5t161 72.5q106 0 166 -72.5t60 -194.5zM376 249q0 102 -26.5 144t-77.5 42q-52 0 -76 -42t-24 -134q0 -106 25.5 -148t77.5 -42q101 0 101 180zM233 630q0 -29 -19.5 -49.5t-47.5 -20.5
t-47.5 20.5t-19.5 49.5t19.5 49.5t47.5 20.5t47.5 -20.5t19.5 -49.5zM441 630q0 -29 -19.5 -49.5t-47.5 -20.5t-47.5 20.5t-19.5 49.5t19.5 49.5t47.5 20.5t47.5 -20.5t19.5 -49.5z" />
    <glyph glyph-name="divide" unicode="&#xf7;" horiz-adv-x="615" 
d="M560 220h-505v93h505v-93zM382 63q0 -32 -23 -54.5t-55 -22.5t-54 22.5t-22 54.5q0 33 22.5 56.5t55.5 23.5q31 0 53.5 -23.5t22.5 -56.5zM383 472q0 -33 -23 -55.5t-55 -22.5q-31 0 -53.5 22t-22.5 54q0 33 22.5 56.5t54.5 23.5t54.5 -23t22.5 -55z" />
    <glyph glyph-name="oslash" unicode="&#xf8;" horiz-adv-x="546" 
d="M496 251q0 -124 -60 -194t-164 -70q-62 0 -106 27l-55 -91l-53 31l58 98q-66 74 -66 200q0 122 60 194t161 72q60 0 110 -25l55 91l53 -31l-60 -100q67 -70 67 -202zM375 249q0 54 -11 96l-152 -254q30 -22 63 -22q52 0 76 43t24 137zM333 413q-26 22 -61 22
q-51 0 -76 -42t-25 -134q0 -44 11 -99z" />
    <glyph glyph-name="ugrave" unicode="&#xf9;" horiz-adv-x="552" 
d="M498 36l-76 -52q-32 23 -44 63q-55 -62 -144 -62q-84 0 -126 50q-28 34 -28 120v343l108 20v-339q0 -55 14.5 -82t59.5 -27q28 0 57 19.5t42 46.5v362l106 20v-381q0 -75 31 -101zM395 623l-34 -63l-220 102l50 93z" />
    <glyph glyph-name="uacute" unicode="&#xfa;" horiz-adv-x="552" 
d="M498 36l-76 -52q-32 23 -44 63q-55 -62 -144 -62q-84 0 -126 50q-28 34 -28 120v343l108 20v-339q0 -55 14.5 -82t59.5 -27q28 0 57 19.5t42 46.5v362l106 20v-381q0 -75 31 -101zM415 662l-220 -102l-34 63l204 132z" />
    <glyph glyph-name="ucircumflex" unicode="&#xfb;" horiz-adv-x="552" 
d="M498 36l-76 -52q-32 23 -44 63q-55 -62 -144 -62q-84 0 -126 50q-28 34 -28 120v343l108 20v-339q0 -55 14.5 -82t59.5 -27q28 0 57 19.5t42 46.5v362l106 20v-381q0 -75 31 -101zM450 616l-40 -61l-138 82l-134 -82l-38 61l174 136z" />
    <glyph glyph-name="udieresis" unicode="&#xfc;" horiz-adv-x="552" 
d="M498 36l-76 -52q-32 23 -44 63q-55 -62 -144 -62q-84 0 -126 50q-28 34 -28 120v343l108 20v-339q0 -55 14.5 -82t59.5 -27q28 0 57 19.5t42 46.5v362l106 20v-381q0 -75 31 -101zM237 630q0 -29 -19.5 -49.5t-47.5 -20.5t-47.5 20.5t-19.5 49.5t19.5 49.5t47.5 20.5
t47.5 -20.5t19.5 -49.5zM446 630q0 -29 -19.5 -49.5t-47.5 -20.5t-47.5 20.5t-19.5 49.5t19.5 49.5t47.5 20.5t47.5 -20.5t19.5 -49.5z" />
    <glyph glyph-name="yacute" unicode="&#xfd;" horiz-adv-x="493" 
d="M483 506l-179 -517q-34 -100 -73.5 -144.5t-123.5 -60.5l-36 71q55 15 85.5 45.5t51.5 99.5h-35q-12 49 -48 157l-115 341l112 19l93 -308q4 -13 10.5 -39l12.5 -50l5 -25q19 76 38 137l84 274h118zM408 662l-220 -102l-34 63l204 132z" />
    <glyph glyph-name="thorn" unicode="&#xfe;" horiz-adv-x="567" 
d="M512 261q0 -121 -56.5 -196.5t-145.5 -75.5q-71 0 -119 55v-232l-106 -26v804q0 82 -13 122l114 25q8 -48 8 -101v-118q0 -39 -3 -48l4 -1q50 49 120 49q91 0 144 -69.5t53 -187.5zM388 260q0 77 -21 121t-76 44t-96 -51v-247q42 -44 94 -44t75.5 41t23.5 136z" />
    <glyph glyph-name="ydieresis" unicode="&#xff;" horiz-adv-x="493" 
d="M483 506l-179 -517q-34 -100 -73.5 -144.5t-123.5 -60.5l-36 71q55 15 85.5 45.5t51.5 99.5h-35q-12 49 -48 157l-115 341l112 19l93 -308q4 -13 10.5 -39l12.5 -50l5 -25q19 76 38 137l84 274h118zM219 630q0 -29 -19.5 -49.5t-47.5 -20.5t-47.5 20.5t-19.5 49.5
t19.5 49.5t47.5 20.5t47.5 -20.5t19.5 -49.5zM428 630q0 -29 -19.5 -49.5t-47.5 -20.5t-47.5 20.5t-19.5 49.5t19.5 49.5t47.5 20.5t47.5 -20.5t19.5 -49.5z" />
    <glyph glyph-name="Amacron" unicode="&#x100;" horiz-adv-x="587" 
d="M584 0h-126l-56 182h-224l-56 -182h-119l227 693h133zM376 278q-5 11 -41.5 145t-40.5 155h-1q-63 -231 -87 -300h170zM447 752h-295v76h295v-76z" />
    <glyph glyph-name="amacron" unicode="&#x101;" horiz-adv-x="525" 
d="M483 49l-57 -70q-51 20 -69 68q-55 -62 -139 -62t-126 41.5t-42 110.5q0 87 64 131.5t186 44.5h34v27q0 48 -14 68.5t-56 20.5q-29 0 -64.5 -13t-54.5 -24t-32 -21l-49 79q109 69 215 69q120 0 154 -84q9 -23 8 -124l-2 -145q-1 -52 7 -74.5t37 -42.5zM332 238h-8
q-8 1 -12 1q-80 0 -111.5 -23t-31.5 -73q0 -36 18.5 -57t51.5 -21q55 0 91 53zM413 591h-295v76h295v-76z" />
    <glyph glyph-name="Abreve" unicode="&#x102;" horiz-adv-x="587" 
d="M584 0h-126l-56 182h-224l-56 -182h-119l227 693h133zM376 278q-5 11 -41.5 145t-40.5 155h-1q-63 -231 -87 -300h170zM474 822q-15 -20 -36 -43t-62.5 -51t-77.5 -28q-28 0 -58 15t-54.5 38t-39 39t-24.5 30l35 45q75 -71 145 -71q62 0 141 71z" />
    <glyph glyph-name="abreve" unicode="&#x103;" horiz-adv-x="525" 
d="M483 49l-57 -70q-51 20 -69 68q-55 -62 -139 -62t-126 41.5t-42 110.5q0 87 64 131.5t186 44.5h34v27q0 48 -14 68.5t-56 20.5q-29 0 -64.5 -13t-54.5 -24t-32 -21l-49 79q109 69 215 69q120 0 154 -84q9 -23 8 -124l-2 -145q-1 -52 7 -74.5t37 -42.5zM332 238h-8
q-8 1 -12 1q-80 0 -111.5 -23t-31.5 -73q0 -36 18.5 -57t51.5 -21q55 0 91 53zM439 658q-15 -20 -36 -43t-62.5 -51t-77.5 -28q-28 0 -58 15t-54.5 38t-39 39t-24.5 30l35 45q71 -71 145 -71q62 0 141 71z" />
    <glyph glyph-name="Aogonek" unicode="&#x104;" horiz-adv-x="587" 
d="M601 -173q-54 -26 -99 -26q-46 0 -73.5 25t-27.5 65q0 53 57 110l-56 181h-224l-56 -182h-119l227 693h133l221 -693h-5q-33 0 -63.5 -31.5t-30.5 -63.5q0 -34 34 -34q29 0 57 14zM376 278q-5 11 -41.5 145t-40.5 155h-1q-63 -231 -87 -300h170z" />
    <glyph glyph-name="aogonek" unicode="&#x105;" horiz-adv-x="525" 
d="M502 -173q-54 -26 -99 -26q-46 0 -73.5 25t-27.5 65q0 55 74 122q-11 13 -19 34q-55 -62 -139 -62t-126 41.5t-42 110.5q0 87 64 131.5t186 44.5h34v27q0 48 -14 68.5t-56 20.5q-29 0 -64.5 -13t-54.5 -24t-32 -21l-49 79q109 69 215 69q120 0 154 -84q9 -23 8 -124
l-2 -159q-1 -56 45 -117q-97 -77 -97 -129q0 -35 33 -35q29 0 57 14zM332 238h-8q-8 1 -12 1q-80 0 -111.5 -23t-31.5 -73q0 -36 18.5 -57t51.5 -21q55 0 91 53z" />
    <glyph glyph-name="Cacute" unicode="&#x106;" horiz-adv-x="577" 
d="M542 50q-80 -61 -189 -61q-136 0 -219 100q-79 96 -79 247q0 124 46 210q39 74 106.5 116.5t148.5 42.5q107 0 172 -54l-53 -76q-53 39 -118 39q-91 0 -138 -83q-36 -63 -36 -182q0 -113 27 -172q45 -98 154 -98q69 0 124 44zM500 822l-220 -102l-34 63l204 132z" />
    <glyph glyph-name="cacute" unicode="&#x107;" horiz-adv-x="467" 
d="M432 54q-67 -67 -162 -67q-103 0 -159 68.5t-56 191.5q0 130 65.5 201t157.5 71q81 0 140 -55l-55 -73q-43 39 -85 39q-55 0 -80 -51q-21 -43 -21 -141q0 -101 34 -138q26 -29 67 -29q52 0 102 50zM419 662l-220 -102l-34 63l204 132z" />
    <glyph glyph-name="Ccircumflex" unicode="&#x108;" horiz-adv-x="577" 
d="M542 50q-80 -61 -189 -61q-136 0 -219 100q-79 96 -79 247q0 124 46 210q39 74 106.5 116.5t148.5 42.5q107 0 172 -54l-53 -76q-53 39 -118 39q-91 0 -138 -83q-36 -63 -36 -182q0 -113 27 -172q45 -98 154 -98q69 0 124 44zM531 776l-40 -61l-138 82l-134 -82l-38 61
l174 136z" />
    <glyph glyph-name="ccircumflex" unicode="&#x109;" horiz-adv-x="467" 
d="M432 54q-67 -67 -162 -67q-103 0 -159 68.5t-56 191.5q0 130 65.5 201t157.5 71q81 0 140 -55l-55 -73q-43 39 -85 39q-55 0 -80 -51q-21 -43 -21 -141q0 -101 34 -138q26 -29 67 -29q52 0 102 50zM453 616l-40 -61l-138 82l-134 -82l-38 61l174 136z" />
    <glyph glyph-name="Cdotaccent" unicode="&#x10a;" horiz-adv-x="577" 
d="M542 50q-80 -61 -189 -61q-136 0 -219 100q-79 96 -79 247q0 124 46 210q39 74 106.5 116.5t148.5 42.5q107 0 172 -54l-53 -76q-53 39 -118 39q-91 0 -138 -83q-36 -63 -36 -182q0 -113 27 -172q45 -98 154 -98q69 0 124 44zM429 795q0 -31 -21.5 -53t-52.5 -22
q-30 0 -51 22t-21 53t21.5 53t51.5 22t51.5 -22t21.5 -53z" />
    <glyph glyph-name="cdotaccent" unicode="&#x10b;" horiz-adv-x="467" 
d="M432 54q-67 -67 -162 -67q-103 0 -159 68.5t-56 191.5q0 130 65.5 201t157.5 71q81 0 140 -55l-55 -73q-43 39 -85 39q-55 0 -80 -51q-21 -43 -21 -141q0 -101 34 -138q26 -29 67 -29q52 0 102 50zM352 653q0 -31 -21.5 -53t-52.5 -22q-30 0 -51 22t-21 53t21.5 53
t51.5 22t51.5 -22t21.5 -53z" />
    <glyph glyph-name="Ccaron" unicode="&#x10c;" horiz-adv-x="577" 
d="M542 50q-80 -61 -189 -61q-136 0 -219 100q-79 96 -79 247q0 124 46 210q39 74 106.5 116.5t148.5 42.5q107 0 172 -54l-53 -76q-53 39 -118 39q-91 0 -138 -83q-36 -63 -36 -182q0 -113 27 -172q45 -98 154 -98q69 0 124 44zM527 857l-174 -137l-176 137l40 60l139 -81
l134 81z" />
    <glyph glyph-name="ccaron" unicode="&#x10d;" horiz-adv-x="467" 
d="M432 54q-67 -67 -162 -67q-103 0 -159 68.5t-56 191.5q0 130 65.5 201t157.5 71q81 0 140 -55l-55 -73q-43 39 -85 39q-55 0 -80 -51q-21 -43 -21 -141q0 -101 34 -138q26 -29 67 -29q52 0 102 50zM448 697l-174 -137l-176 137l40 60l139 -81l134 81z" />
    <glyph glyph-name="Dcaron" unicode="&#x10e;" horiz-adv-x="631" 
d="M576 344q0 -154 -73 -247q-43 -55 -96.5 -76t-150.5 -21h-171v692h144q100 0 162 -22t110 -76q75 -87 75 -250zM448 332q0 149 -44 209q-24 33 -53.5 46.5t-76.5 13.5h-73v-507h76q90 0 130.5 59t40.5 179zM467 857l-174 -137l-176 137l40 60l139 -81l134 81z" />
    <glyph glyph-name="dcaron" unicode="&#x10f;" horiz-adv-x="560" 
d="M496 0h-101q-5 11 -9 39q-50 -50 -124 -50q-96 0 -151.5 70t-55.5 189t59 193t151 74q64 0 109 -46q-3 24 -3 83v185l109 -17v-544q0 -136 16 -176zM371 129v257q-38 41 -92 41q-52 0 -77 -43t-25 -135q0 -88 22.5 -128t82.5 -40q29 0 53 14t36 34zM673 648
q0 -48 -33 -89q-29 -36 -80 -55l-35 41q58 22 58 61q0 5 -17 12q-37 13 -37 54q0 27 19.5 45.5t47.5 18.5q35 0 56 -24t21 -64z" />
    <glyph glyph-name="Dcroat" unicode="&#x110;" horiz-adv-x="631" 
d="M576 344q0 -154 -73 -247q-43 -55 -96.5 -76t-150.5 -21h-171v311h-79v79h79v302h144q100 0 162 -22t110 -76q75 -87 75 -250zM448 332q0 149 -44 209q-24 33 -53.5 46.5t-76.5 13.5h-73v-211h130l-5 -79h-125v-217h76q90 0 130.5 59t40.5 179z" />
    <glyph glyph-name="dcroat" unicode="&#x111;" horiz-adv-x="565" 
d="M558 581h-78v-405q0 -136 16 -176h-101q-5 11 -9 39q-50 -50 -124 -50q-96 0 -151.5 70t-55.5 189t59 193t151 74q64 0 109 -46q-3 24 -3 83v29h-108v70h108v86l109 -17v-69h78v-70zM371 129v257q-38 41 -92 41q-52 0 -77 -43t-25 -135q0 -88 22.5 -128t82.5 -40
q29 0 53 14t36 34z" />
    <glyph glyph-name="Emacron" unicode="&#x112;" horiz-adv-x="509" 
d="M479 0h-394v692h384l-15 -94h-252v-189h211v-95h-211v-216h277v-98zM426 752h-295v76h295v-76z" />
    <glyph glyph-name="emacron" unicode="&#x113;" horiz-adv-x="523" 
d="M478 223h-302v-8q0 -62 28.5 -103t96.5 -41t126 50l43 -67q-79 -67 -182 -67q-107 0 -170 71.5t-63 193.5q0 126 63 198q59 68 155 68q82 0 139 -52q66 -60 66 -220v-23zM364 304q0 61 -24.5 96t-66.5 35q-46 0 -71 -34.5t-25 -96.5h187zM420 591h-295v76h295v-76z" />
    <glyph glyph-name="Ebreve" unicode="&#x114;" horiz-adv-x="509" 
d="M479 0h-394v692h384l-15 -94h-252v-189h211v-95h-211v-216h277v-98zM451 855q-15 -20 -36 -43t-62.5 -51t-77.5 -28q-28 0 -58 15t-54.5 38t-39 39t-24.5 30l35 45q75 -71 145 -71q62 0 141 71z" />
    <glyph glyph-name="ebreve" unicode="&#x115;" horiz-adv-x="523" 
d="M478 223h-302v-8q0 -62 28.5 -103t96.5 -41t126 50l43 -67q-79 -67 -182 -67q-107 0 -170 71.5t-63 193.5q0 126 63 198q59 68 155 68q82 0 139 -52q66 -60 66 -220v-23zM364 304q0 61 -24.5 96t-66.5 35q-46 0 -71 -34.5t-25 -96.5h187zM456 682q-15 -20 -36 -43
t-62.5 -51t-77.5 -28q-28 0 -58 15t-54.5 38t-39 39t-24.5 30l35 45q71 -71 145 -71q62 0 141 71z" />
    <glyph glyph-name="Edotaccent" unicode="&#x116;" horiz-adv-x="509" 
d="M479 0h-394v692h384l-15 -94h-252v-189h211v-95h-211v-216h277v-98zM356 795q0 -31 -21.5 -53t-52.5 -22q-30 0 -51 22t-21 53t21.5 53t51.5 22t51.5 -22t21.5 -53z" />
    <glyph glyph-name="edotaccent" unicode="&#x117;" horiz-adv-x="523" 
d="M478 223h-302v-8q0 -62 28.5 -103t96.5 -41t126 50l43 -67q-79 -67 -182 -67q-107 0 -170 71.5t-63 193.5q0 126 63 198q59 68 155 68q82 0 139 -52q66 -60 66 -220v-23zM364 304q0 61 -24.5 96t-66.5 35q-46 0 -71 -34.5t-25 -96.5h187zM349 656q0 -31 -21.5 -53
t-52.5 -22q-30 0 -51 22t-21 53t21.5 53t51.5 22t51.5 -22t21.5 -53z" />
    <glyph glyph-name="Eogonek" unicode="&#x118;" horiz-adv-x="509" 
d="M501 -173q-54 -26 -99 -26q-46 0 -73.5 25t-27.5 65q0 52 57 109h-273v692h384l-15 -94h-252v-189h211v-95h-211v-216h277v-98q-33 0 -63 -31.5t-30 -63.5q0 -34 34 -34q28 0 56 14z" />
    <glyph glyph-name="eogonek" unicode="&#x119;" horiz-adv-x="523" 
d="M478 223h-302v-8q0 -62 28.5 -103t96.5 -41t126 50l43 -67q-24 -18 -37.5 -29t-37 -33t-35.5 -44t-12 -42q0 -35 33 -35q29 0 57 14l25 -58q-54 -26 -99 -26q-46 0 -73.5 25t-27.5 65q0 47 48 97q-8 -1 -23 -1q-107 0 -170 71.5t-63 193.5q0 126 63 198q59 68 155 68
q82 0 139 -52q66 -60 66 -220v-23zM364 304q0 61 -24.5 96t-66.5 35q-46 0 -71 -34.5t-25 -96.5h187z" />
    <glyph glyph-name="Ecaron" unicode="&#x11a;" horiz-adv-x="509" 
d="M479 0h-394v692h384l-15 -94h-252v-189h211v-95h-211v-216h277v-98zM450 857l-174 -137l-176 137l40 60l139 -81l134 81z" />
    <glyph glyph-name="ecaron" unicode="&#x11b;" horiz-adv-x="523" 
d="M478 223h-302v-8q0 -62 28.5 -103t96.5 -41t126 50l43 -67q-79 -67 -182 -67q-107 0 -170 71.5t-63 193.5q0 126 63 198q59 68 155 68q82 0 139 -52q66 -60 66 -220v-23zM364 304q0 61 -24.5 96t-66.5 35q-46 0 -71 -34.5t-25 -96.5h187zM447 697l-174 -137l-176 137
l40 60l139 -81l134 81z" />
    <glyph glyph-name="Gcircumflex" unicode="&#x11c;" horiz-adv-x="649" 
d="M574 49q-96 -58 -216 -58q-147 0 -226 98q-77 94 -77 252q0 209 130 306q71 54 171 54q121 0 206 -73l-58 -72q-69 53 -146 53q-175 0 -175 -274q0 -144 51 -204q44 -52 131 -52q51 0 92 22v180h-118l-16 94h251v-326zM531 776l-40 -61l-138 82l-134 -82l-38 61l174 136z
" />
    <glyph glyph-name="gcircumflex" unicode="&#x11d;" horiz-adv-x="546" 
d="M556 458q-38 -33 -88 -33q-24 0 -39 5q33 -33 33 -88q0 -67 -52 -111t-140 -44q-68 -25 -68 -48q0 -8 2.5 -11.5t16.5 -6t36.5 -3t70.5 -0.5q68 0 118 -36t50 -108q0 -80 -61 -123t-164 -43t-164.5 34.5t-61.5 103.5q0 24 10 54h104q-8 -16 -8 -36q0 -35 29 -54t82 -19
q57 0 88.5 21.5t31.5 57.5q0 40 -33 55t-107 15q-97 0 -131.5 18.5t-34.5 58.5q0 34 24.5 53t71.5 34q-115 33 -115 143q0 77 55.5 124t146.5 47q40 0 88.5 -13t65.5 -13q49 0 92 35zM345 348q0 87 -87 87q-42 0 -64.5 -22.5t-22.5 -65.5q0 -85 87 -85t87 86zM435 616
l-40 -61l-138 82l-134 -82l-38 61l174 136z" />
    <glyph glyph-name="Gbreve" unicode="&#x11e;" horiz-adv-x="649" 
d="M574 49q-96 -58 -216 -58q-147 0 -226 98q-77 94 -77 252q0 209 130 306q71 54 171 54q121 0 206 -73l-58 -72q-69 53 -146 53q-175 0 -175 -274q0 -144 51 -204q44 -52 131 -52q51 0 92 22v180h-118l-16 94h251v-326zM531 855q-15 -20 -36 -43t-62.5 -51t-77.5 -28
q-28 0 -58 15t-54.5 38t-39 39t-24.5 30l35 45q75 -71 145 -71q62 0 141 71z" />
    <glyph glyph-name="gbreve" unicode="&#x11f;" horiz-adv-x="546" 
d="M556 458q-38 -33 -88 -33q-24 0 -39 5q33 -33 33 -88q0 -67 -52 -111t-140 -44q-68 -25 -68 -48q0 -8 2.5 -11.5t16.5 -6t36.5 -3t70.5 -0.5q68 0 118 -36t50 -108q0 -80 -61 -123t-164 -43t-164.5 34.5t-61.5 103.5q0 24 10 54h104q-8 -16 -8 -36q0 -35 29 -54t82 -19
q57 0 88.5 21.5t31.5 57.5q0 40 -33 55t-107 15q-97 0 -131.5 18.5t-34.5 58.5q0 34 24.5 53t71.5 34q-115 33 -115 143q0 77 55.5 124t146.5 47q40 0 88.5 -13t65.5 -13q49 0 92 35zM345 348q0 87 -87 87q-42 0 -64.5 -22.5t-22.5 -65.5q0 -85 87 -85t87 86zM453 658
q-15 -20 -36 -43t-62.5 -51t-77.5 -28q-28 0 -58 15t-54.5 38t-39 39t-24.5 30l35 45q71 -71 145 -71q62 0 141 71z" />
    <glyph glyph-name="Gdotaccent" unicode="&#x120;" horiz-adv-x="649" 
d="M574 49q-96 -58 -216 -58q-147 0 -226 98q-77 94 -77 252q0 209 130 306q71 54 171 54q121 0 206 -73l-58 -72q-69 53 -146 53q-175 0 -175 -274q0 -144 51 -204q44 -52 131 -52q51 0 92 22v180h-118l-16 94h251v-326zM429 795q0 -31 -21.5 -53t-52.5 -22q-30 0 -51 22
t-21 53t21.5 53t51.5 22t51.5 -22t21.5 -53z" />
    <glyph glyph-name="gdotaccent" unicode="&#x121;" horiz-adv-x="546" 
d="M556 458q-38 -33 -88 -33q-24 0 -39 5q33 -33 33 -88q0 -67 -52 -111t-140 -44q-68 -25 -68 -48q0 -8 2.5 -11.5t16.5 -6t36.5 -3t70.5 -0.5q68 0 118 -36t50 -108q0 -80 -61 -123t-164 -43t-164.5 34.5t-61.5 103.5q0 24 10 54h104q-8 -16 -8 -36q0 -35 29 -54t82 -19
q57 0 88.5 21.5t31.5 57.5q0 40 -33 55t-107 15q-97 0 -131.5 18.5t-34.5 58.5q0 34 24.5 53t71.5 34q-115 33 -115 143q0 77 55.5 124t146.5 47q40 0 88.5 -13t65.5 -13q49 0 92 35zM345 348q0 87 -87 87q-42 0 -64.5 -22.5t-22.5 -65.5q0 -85 87 -85t87 86zM333 653
q0 -31 -21.5 -53t-52.5 -22q-30 0 -51 22t-21 53t21.5 53t51.5 22t51.5 -22t21.5 -53z" />
    <glyph glyph-name="Gcommaaccent" unicode="&#x122;" horiz-adv-x="649" 
d="M574 49q-96 -58 -216 -58q-147 0 -226 98q-77 94 -77 252q0 209 130 306q71 54 171 54q121 0 206 -73l-58 -72q-69 53 -146 53q-175 0 -175 -274q0 -144 51 -204q44 -52 131 -52q51 0 92 22v180h-118l-16 94h251v-326zM425 -138q0 -48 -33 -89q-29 -36 -80 -55l-35 41
q58 22 58 61q0 5 -17 12q-37 13 -37 54q0 27 19.5 45.5t47.5 18.5q35 0 56 -24t21 -64z" />
    <glyph glyph-name="gcommaaccent" unicode="&#x123;" horiz-adv-x="546" 
d="M556 458q-38 -33 -88 -33q-24 0 -39 5q33 -33 33 -88q0 -67 -52 -111t-140 -44q-68 -25 -68 -48q0 -8 2.5 -11.5t16.5 -6t36.5 -3t70.5 -0.5q68 0 118 -36t50 -108q0 -80 -61 -123t-164 -43t-164.5 34.5t-61.5 103.5q0 24 10 54h104q-8 -16 -8 -36q0 -35 29 -54t82 -19
q57 0 88.5 21.5t31.5 57.5q0 40 -33 55t-107 15q-97 0 -131.5 18.5t-34.5 58.5q0 34 24.5 53t71.5 34q-115 33 -115 143q0 77 55.5 124t146.5 47q40 0 88.5 -13t65.5 -13q49 0 92 35zM345 348q0 87 -87 87q-42 0 -64.5 -22.5t-22.5 -65.5q0 -85 87 -85t87 86zM337 755
q-53 -20 -58 -61q0 -5 17 -12q37 -13 37 -54q0 -27 -19.5 -45.5t-47.5 -18.5q-35 0 -56 24t-21 64q0 48 33 89q29 36 80 55z" />
    <glyph glyph-name="Hcircumflex" unicode="&#x124;" horiz-adv-x="636" 
d="M551 0h-116v320h-236v-320h-114v692h114v-278h236v278h116v-692zM491 776l-40 -61l-138 82l-134 -82l-38 61l174 136z" />
    <glyph glyph-name="hcircumflex" unicode="&#x125;" horiz-adv-x="574" 
d="M489 0h-107v344q0 45 -15.5 63t-48.5 18q-62 0 -122 -62v-363h-111v602q0 67 -10 110l111 24q10 -41 10 -119v-108q0 -12 -0.5 -25t-1 -22t-0.5 -10q73 66 155 66q43 0 76 -18t47 -44q17 -33 17 -99v-357zM315 776l-40 -61l-138 82l-134 -82l-38 61l174 136z" />
    <glyph glyph-name="Hbar" unicode="&#x126;" horiz-adv-x="636" 
d="M551 0h-116v320h-236v-320h-114v494h-80v90h80v108h114v-108h236v108h116v-108h80v-90h-80v-494zM199 414h236v80h-236v-80z" />
    <glyph glyph-name="hbar" unicode="&#x127;" horiz-adv-x="574" 
d="M489 0h-107v344q0 45 -15.5 63t-48.5 18q-62 0 -122 -62v-363h-111v581h-55v70h53q-1 24 -8 61l111 24q7 -33 9 -85h170v-70h-169v-72q0 -12 -0.5 -25t-1 -22t-0.5 -10q73 66 155 66q43 0 76 -18t47 -44q17 -33 17 -99v-357z" />
    <glyph glyph-name="Itilde" unicode="&#x128;" horiz-adv-x="288" 
d="M203 0h-118v692h118v-692zM319 809q-27 -34 -53.5 -50t-67.5 -16q-31 0 -66 20.5t-64 20.5q-21 0 -34 -8.5t-32 -28.5l-36 61q27 35 53 50.5t67 15.5q31 0 66 -20.5t64 -20.5q22 0 35 8.5t32 28.5z" />
    <glyph glyph-name="itilde" unicode="&#x129;" horiz-adv-x="281" 
d="M196 0h-111v498l111 20v-518zM322 649q-27 -34 -53.5 -50t-67.5 -16q-31 0 -66 20.5t-64 20.5q-21 0 -34 -8.5t-32 -28.5l-36 61q27 35 53 50.5t67 15.5q31 0 66 -20.5t64 -20.5q22 0 35 8.5t32 28.5z" />
    <glyph glyph-name="Imacron" unicode="&#x12a;" horiz-adv-x="288" 
d="M203 0h-118v692h118v-692zM294 752h-295v76h295v-76z" />
    <glyph glyph-name="imacron" unicode="&#x12b;" horiz-adv-x="281" 
d="M196 0h-111v498l111 20v-518zM288 591h-295v76h295v-76z" />
    <glyph glyph-name="Ibreve" unicode="&#x12c;" horiz-adv-x="288" 
d="M203 0h-118v692h118v-692zM319 855q-15 -20 -36 -43t-62.5 -51t-77.5 -28q-28 0 -58 15t-54.5 38t-39 39t-24.5 30l35 45q75 -71 145 -71q62 0 141 71z" />
    <glyph glyph-name="ibreve" unicode="&#x12d;" horiz-adv-x="281" 
d="M196 0h-111v498l111 20v-518zM321 682q-15 -20 -36 -43t-62.5 -51t-77.5 -28q-28 0 -58 15t-54.5 38t-39 39t-24.5 30l35 45q71 -71 145 -71q62 0 141 71z" />
    <glyph glyph-name="Iogonek" unicode="&#x12e;" horiz-adv-x="288" 
d="M236 -173q-54 -26 -99 -26q-47 0 -74 26t-27 64q0 58 49 109v692h118v-692h-5q-29 0 -54 -29t-25 -61q0 -39 35 -39q29 0 57 14z" />
    <glyph glyph-name="iogonek" unicode="&#x12f;" horiz-adv-x="281" 
d="M236 -173q-54 -26 -99 -26q-47 0 -74 26t-27 64q0 58 49 109v498l111 20v-518q-27 0 -52 -29.5t-25 -60.5q0 -39 35 -39q29 0 57 14zM214 654q0 -30 -21.5 -51.5t-52.5 -21.5q-30 0 -50.5 21.5t-20.5 51.5q0 31 21 52.5t52 21.5q30 0 51 -21.5t21 -52.5z" />
    <glyph glyph-name="Idotaccent" unicode="&#x130;" horiz-adv-x="288" 
d="M203 0h-118v692h118v-692zM218 795q0 -31 -21.5 -53t-52.5 -22q-30 0 -51 22t-21 53t21.5 53t51.5 22t51.5 -22t21.5 -53z" />
    <glyph glyph-name="dotlessi" unicode="&#x131;" horiz-adv-x="281" 
d="M196 0h-111v498l111 20v-518z" />
    <glyph glyph-name="IJ" unicode="&#x132;" horiz-adv-x="581" 
d="M203 0h-118v692h118v-692zM496 128q0 -83 -9 -122t-32 -71q-41 -57 -117 -85l-54 61q58 32 80 78q16 33 16 129v574h116v-564z" />
    <glyph glyph-name="ij" unicode="&#x133;" horiz-adv-x="562" 
d="M196 0h-111v498l111 20v-518zM214 654q0 -30 -21.5 -51.5t-52.5 -21.5q-30 0 -50.5 21.5t-20.5 51.5q0 31 21 52.5t52 21.5q30 0 51 -21.5t21 -52.5zM477 12q0 -105 -37 -152q-37 -46 -95 -72l-47 64q39 27 53.5 61.5t14.5 97.5v487l111 20v-506zM494 656
q0 -31 -21.5 -53t-52.5 -22q-30 0 -51 21t-21 52q0 30 21.5 52t51.5 22t51.5 -21.5t21.5 -50.5z" />
    <glyph glyph-name="Jcircumflex" unicode="&#x134;" horiz-adv-x="293" 
d="M208 128q0 -83 -9 -122t-32 -71q-41 -57 -117 -85l-54 61q58 32 80 78q16 33 16 129v574h116v-564zM325 776l-40 -61l-138 82l-134 -82l-38 61l174 136z" />
    <glyph glyph-name="jcircumflex" unicode="&#x135;" horiz-adv-x="281" 
d="M196 12q0 -105 -37 -152q-37 -46 -95 -72l-47 64q39 27 53.5 61.5t14.5 97.5v487l111 20v-506zM315 616l-40 -61l-138 82l-134 -82l-38 61l174 136z" />
    <glyph glyph-name="Kcommaaccent" unicode="&#x136;" horiz-adv-x="581" 
d="M586 0h-150l-233 369l225 323h142l-240 -321zM202 0h-117v692h117v-692zM379 -139q0 -48 -33 -89q-29 -36 -80 -55l-35 41q58 22 58 61q0 5 -17 12q-37 13 -37 54q0 27 19.5 45.5t47.5 18.5q35 0 56 -24t21 -64z" />
    <glyph glyph-name="kcommaaccent" unicode="&#x137;" horiz-adv-x="521" 
d="M194 0h-109v589q0 68 -11 122l110 27q10 -53 10 -134v-604zM526 0h-133l-191 286l150 220h133l-173 -214zM357 -139q0 -48 -33 -89q-29 -36 -80 -55l-35 41q58 22 58 61q0 5 -17 12q-37 13 -37 54q0 27 19.5 45.5t47.5 18.5q35 0 56 -24t21 -64z" />
    <glyph glyph-name="kgreenlandic" unicode="&#x138;" horiz-adv-x="521" 
d="M194 0h-109v384q0 68 -11 122l110 27q10 -53 10 -134v-399zM526 0h-133l-191 286l150 220h133l-173 -214z" />
    <glyph glyph-name="Lacute" unicode="&#x139;" horiz-adv-x="473" 
d="M458 95l-19 -95h-354v692h117v-597h256zM301 822l-220 -102l-34 63l204 132z" />
    <glyph glyph-name="lacute" unicode="&#x13a;" horiz-adv-x="282" 
d="M262 1q-30 -12 -66 -12q-32 0 -54 11.5t-33 25.5t-17 37.5t-6.5 36.5t-0.5 32v431q0 88 -10 148l113 25q9 -35 9 -139v-429q0 -74 11 -91q5 -7 15.5 -9.5t20.5 1.5zM284 843l-220 -102l-34 63l204 132z" />
    <glyph glyph-name="Lcommaaccent" unicode="&#x13b;" horiz-adv-x="473" 
d="M458 95l-19 -95h-354v692h117v-597h256zM334 -138q0 -48 -33 -89q-29 -36 -80 -55l-35 41q58 22 58 61q0 5 -17 12q-37 13 -37 54q0 27 19.5 45.5t47.5 18.5q35 0 56 -24t21 -64z" />
    <glyph glyph-name="lcommaaccent" unicode="&#x13c;" horiz-adv-x="282" 
d="M262 1q-30 -12 -66 -12q-32 0 -54 11.5t-33 25.5t-17 37.5t-6.5 36.5t-0.5 32v431q0 88 -10 148l113 25q9 -35 9 -139v-429q0 -74 11 -91q5 -7 15.5 -9.5t20.5 1.5zM246 -140q0 -48 -33 -89q-29 -36 -80 -55l-35 41q58 22 58 61q0 5 -17 12q-37 13 -37 54q0 27 19.5 45.5
t47.5 18.5q35 0 56 -24t21 -64z" />
    <glyph glyph-name="Lcaron" unicode="&#x13d;" horiz-adv-x="473" 
d="M458 95l-19 -95h-354v692h117v-597h256zM439 608q0 -48 -33 -89q-29 -36 -80 -55l-35 41q58 22 58 61q0 5 -17 12q-37 13 -37 54q0 27 19.5 45.5t47.5 18.5q35 0 56 -24t21 -64z" />
    <glyph glyph-name="lcaron" unicode="&#x13e;" horiz-adv-x="282" 
d="M262 1q-30 -12 -66 -12q-32 0 -54 11.5t-33 25.5t-17 37.5t-6.5 36.5t-0.5 32v431q0 88 -10 148l113 25q9 -35 9 -139v-429q0 -74 11 -91q5 -7 15.5 -9.5t20.5 1.5zM390 648q0 -48 -33 -89q-29 -36 -80 -55l-35 41q58 22 58 61q0 5 -17 12q-37 13 -37 54q0 27 19.5 45.5
t47.5 18.5q35 0 56 -24t21 -64z" />
    <glyph glyph-name="Ldot" unicode="&#x13f;" horiz-adv-x="473" 
d="M458 95l-19 -95h-354v692h117v-597h256zM448 385q0 -31 -21.5 -53t-52.5 -22q-30 0 -51 22t-21 53t21.5 53t51.5 22t51.5 -22t21.5 -53z" />
    <glyph glyph-name="ldot" unicode="&#x140;" horiz-adv-x="383" 
d="M262 1q-30 -12 -66 -12q-32 0 -54 11.5t-33 25.5t-17 37.5t-6.5 36.5t-0.5 32v431q0 88 -10 148l113 25q9 -35 9 -139v-429q0 -74 11 -91q5 -7 15.5 -9.5t20.5 1.5zM403 384q0 -31 -21.5 -53t-52.5 -22q-30 0 -51 22t-21 53t21.5 53t51.5 22t51.5 -22t21.5 -53z" />
    <glyph glyph-name="Lslash" unicode="&#x141;" horiz-adv-x="473" 
d="M458 95l-19 -95h-354v294l-56 -18v92l56 18v306h117v-268l174 56v-92l-174 -56v-237h256z" />
    <glyph glyph-name="lslash" unicode="&#x142;" horiz-adv-x="282" 
d="M262 1q-30 -12 -66 -12q-32 0 -54 11.5t-33 25.5t-17 37.5t-6.5 36.5t-0.5 32v158l-42 -14v92l42 14v181q0 88 -10 148l113 25q9 -35 9 -139v-177l57 20v-92l-57 -20v-160q0 -74 11 -91q5 -7 15.5 -9.5t20.5 1.5z" />
    <glyph glyph-name="Nacute" unicode="&#x143;" horiz-adv-x="639" 
d="M554 0h-121l-155 325q-68 141 -88 205l-3 -3q5 -58 7 -192l4 -335h-113v692h130l168 -338q48 -96 71 -178l3 3q-10 117 -10 197l-2 316h109v-692zM457 822l-220 -102l-34 63l204 132z" />
    <glyph glyph-name="nacute" unicode="&#x144;" horiz-adv-x="556" 
d="M471 0h-109v336q0 51 -13 69.5t-45 18.5q-24 0 -55 -16t-56 -41v-367h-108v372q0 71 -19 120l100 28q18 -34 18 -72q82 70 155 70q60 0 96 -36t36 -104v-378zM411 662l-220 -102l-34 63l204 132z" />
    <glyph glyph-name="Ncommaaccent" unicode="&#x145;" horiz-adv-x="639" 
d="M554 0h-121l-155 325q-68 141 -88 205l-3 -3q5 -58 7 -192l4 -335h-113v692h130l168 -338q48 -96 71 -178l3 3q-10 117 -10 197l-2 316h109v-692zM390 -139q0 -48 -33 -89q-29 -36 -80 -55l-35 41q58 22 58 61q0 5 -17 12q-37 13 -37 54q0 27 19.5 45.5t47.5 18.5
q35 0 56 -24t21 -64z" />
    <glyph glyph-name="ncommaaccent" unicode="&#x146;" horiz-adv-x="556" 
d="M471 0h-109v336q0 51 -13 69.5t-45 18.5q-24 0 -55 -16t-56 -41v-367h-108v372q0 71 -19 120l100 28q18 -34 18 -72q82 70 155 70q60 0 96 -36t36 -104v-378zM351 -140q0 -48 -33 -89q-29 -36 -80 -55l-35 41q58 22 58 61q0 5 -17 12q-37 13 -37 54q0 27 19.5 45.5
t47.5 18.5q35 0 56 -24t21 -64z" />
    <glyph glyph-name="Ncaron" unicode="&#x147;" horiz-adv-x="639" 
d="M554 0h-121l-155 325q-68 141 -88 205l-3 -3q5 -58 7 -192l4 -335h-113v692h130l168 -338q48 -96 71 -178l3 3q-10 117 -10 197l-2 316h109v-692zM498 857l-174 -137l-176 137l40 60l139 -81l134 81z" />
    <glyph glyph-name="ncaron" unicode="&#x148;" horiz-adv-x="556" 
d="M471 0h-109v336q0 51 -13 69.5t-45 18.5q-24 0 -55 -16t-56 -41v-367h-108v372q0 71 -19 120l100 28q18 -34 18 -72q82 70 155 70q60 0 96 -36t36 -104v-378zM449 697l-174 -137l-176 137l40 60l139 -81l134 81z" />
    <glyph glyph-name="napostrophe" unicode="&#x149;" horiz-adv-x="556" 
d="M471 0h-109v336q0 51 -13 69.5t-45 18.5q-24 0 -55 -16t-56 -41v-367h-108v372q0 71 -19 120l100 28q18 -34 18 -72q82 70 155 70q60 0 96 -36t36 -104v-378zM66 637q0 -48 -33 -89q-29 -36 -80 -55l-35 41q58 22 58 61q0 5 -17 12q-37 13 -37 54q0 27 19.5 45.5
t47.5 18.5q35 0 56 -24t21 -64z" />
    <glyph glyph-name="Eng" unicode="&#x14a;" horiz-adv-x="639" 
d="M554 25q0 -105 -37 -152q-37 -46 -95 -72l-47 64q30 19 47 49t17 61q0 11 -6 25l-155 325q-68 141 -88 205l-3 -3q5 -58 7 -192l4 -335h-113v692h130l168 -338q48 -96 71 -178l3 3q-10 117 -10 197l-2 316h109v-667z" />
    <glyph glyph-name="eng" unicode="&#x14b;" horiz-adv-x="556" 
d="M295 -136q36 26 51.5 56.5t15.5 79.5v336q0 51 -13 69.5t-45 18.5q-24 0 -55 -16t-56 -41v-367h-108v372q0 71 -19 120l100 28q18 -34 18 -72q82 70 155 70q60 0 96 -36t36 -104v-353q0 -105 -37 -152q-37 -46 -95 -72z" />
    <glyph glyph-name="Omacron" unicode="&#x14c;" horiz-adv-x="688" 
d="M633 345q0 -164 -75 -260t-209 -96q-143 0 -218.5 98.5t-75.5 258.5q0 168 78.5 262t210.5 94q141 0 215 -99t74 -258zM502 338q0 136 -35.5 205.5t-123.5 69.5q-84 0 -122 -65.5t-38 -194.5q0 -138 38.5 -207.5t124.5 -69.5q79 0 117.5 62.5t38.5 199.5zM494 752h-295
v76h295v-76z" />
    <glyph glyph-name="omacron" unicode="&#x14d;" horiz-adv-x="547" 
d="M497 251q0 -122 -60.5 -193t-163.5 -71t-163 71.5t-60 193.5q0 121 60 193.5t161 72.5q106 0 166 -72.5t60 -194.5zM376 249q0 102 -26.5 144t-77.5 42q-52 0 -76 -42t-24 -134q0 -106 25.5 -148t77.5 -42q101 0 101 180zM419 591h-295v76h295v-76z" />
    <glyph glyph-name="Obreve" unicode="&#x14e;" horiz-adv-x="688" 
d="M633 345q0 -164 -75 -260t-209 -96q-143 0 -218.5 98.5t-75.5 258.5q0 168 78.5 262t210.5 94q141 0 215 -99t74 -258zM502 338q0 136 -35.5 205.5t-123.5 69.5q-84 0 -122 -65.5t-38 -194.5q0 -138 38.5 -207.5t124.5 -69.5q79 0 117.5 62.5t38.5 199.5zM518 855
q-15 -20 -36 -43t-62.5 -51t-77.5 -28q-28 0 -58 15t-54.5 38t-39 39t-24.5 30l35 45q75 -71 145 -71q62 0 141 71z" />
    <glyph glyph-name="obreve" unicode="&#x14f;" horiz-adv-x="547" 
d="M497 251q0 -122 -60.5 -193t-163.5 -71t-163 71.5t-60 193.5q0 121 60 193.5t161 72.5q106 0 166 -72.5t60 -194.5zM376 249q0 102 -26.5 144t-77.5 42q-52 0 -76 -42t-24 -134q0 -106 25.5 -148t77.5 -42q101 0 101 180zM447 682q-15 -20 -36 -43t-62.5 -51t-77.5 -28
q-28 0 -58 15t-54.5 38t-39 39t-24.5 30l35 45q71 -71 145 -71q62 0 141 71z" />
    <glyph glyph-name="Ohungarumlaut" unicode="&#x150;" horiz-adv-x="688" 
d="M633 345q0 -164 -75 -260t-209 -96q-143 0 -218.5 98.5t-75.5 258.5q0 168 78.5 262t210.5 94q141 0 215 -99t74 -258zM502 338q0 136 -35.5 205.5t-123.5 69.5q-84 0 -122 -65.5t-38 -194.5q0 -138 38.5 -207.5t124.5 -69.5q79 0 117.5 62.5t38.5 199.5zM418 910
l-146 -191l-60 38l117 207zM643 886l-175 -163l-51 48l147 184z" />
    <glyph glyph-name="ohungarumlaut" unicode="&#x151;" horiz-adv-x="547" 
d="M497 251q0 -122 -60.5 -193t-163.5 -71t-163 71.5t-60 193.5q0 121 60 193.5t161 72.5q106 0 166 -72.5t60 -194.5zM376 249q0 102 -26.5 144t-77.5 42q-52 0 -76 -42t-24 -134q0 -106 25.5 -148t77.5 -42q101 0 101 180zM314 771l-114 -211l-65 28l83 223zM528 752
l-147 -188l-58 39l117 205z" />
    <glyph glyph-name="OE" unicode="&#x152;" horiz-adv-x="861" 
d="M831 0h-422q-105 0 -154.5 11.5t-97.5 53.5q-102 90 -102 282q0 148 73 244q79 102 240 102q54 0 62 -1h384l-15 -94h-252v-189h210v-95h-210v-216h284v-98zM437 99v486q-63 9 -82 9q-67 0 -104 -33q-61 -53 -61 -202q0 -134 38 -200q40 -69 124 -69q40 0 85 9z" />
    <glyph glyph-name="oe" unicode="&#x153;" horiz-adv-x="830" 
d="M785 223h-301v-16q0 -66 33.5 -101.5t90.5 -35.5q68 0 126 50l42 -66q-86 -67 -181 -67q-110 0 -163 69q-58 -69 -159 -69q-104 0 -163.5 72t-59.5 193q0 123 61 194.5t160 71.5q97 0 158 -67q56 68 151 68q101 0 153 -66.5t52 -193.5v-36zM376 249q0 102 -26.5 144
t-77.5 42t-75.5 -41t-24.5 -135q0 -101 25 -145.5t78 -44.5q101 0 101 180zM672 304q0 62 -24 97.5t-68 35.5q-45 0 -70 -34.5t-25 -98.5h187z" />
    <glyph glyph-name="Racute" unicode="&#x154;" horiz-adv-x="583" 
d="M558 0h-137l-60 107q-69 122 -118 171q-20 20 -45 21v-299h-113v692h211q111 0 168 -56t57 -142q0 -78 -47 -134t-125 -56q32 -16 107 -138zM401 493q0 54 -32.5 80t-107.5 26h-63v-219h59q84 0 113 29q31 31 31 84zM410 822l-220 -102l-34 63l204 132z" />
    <glyph glyph-name="racute" unicode="&#x155;" horiz-adv-x="350" 
d="M355 512l-34 -102q-19 7 -31 7q-34 0 -60.5 -22t-34.5 -53v-342h-110v357q0 85 -18 136l101 26q19 -36 19 -80q59 81 129 81q22 0 39 -8zM333 662l-220 -102l-34 63l204 132z" />
    <glyph glyph-name="Rcommaaccent" unicode="&#x156;" horiz-adv-x="583" 
d="M558 0h-137l-60 107q-69 122 -118 171q-20 20 -45 21v-299h-113v692h211q111 0 168 -56t57 -142q0 -78 -47 -134t-125 -56q32 -16 107 -138zM401 493q0 54 -32.5 80t-107.5 26h-63v-219h59q84 0 113 29q31 31 31 84zM369 -140q0 -48 -33 -89q-29 -36 -80 -55l-35 41
q58 22 58 61q0 5 -17 12q-37 13 -37 54q0 27 19.5 45.5t47.5 18.5q35 0 56 -24t21 -64z" />
    <glyph glyph-name="rcommaaccent" unicode="&#x157;" horiz-adv-x="350" 
d="M355 512l-34 -102q-19 7 -31 7q-34 0 -60.5 -22t-34.5 -53v-342h-110v357q0 85 -18 136l101 26q19 -36 19 -80q59 81 129 81q22 0 39 -8zM217 -140q0 -48 -33 -89q-29 -36 -80 -55l-35 41q58 22 58 61q0 5 -17 12q-37 13 -37 54q0 27 19.5 45.5t47.5 18.5q35 0 56 -24
t21 -64z" />
    <glyph glyph-name="Rcaron" unicode="&#x158;" horiz-adv-x="583" 
d="M558 0h-137l-60 107q-69 122 -118 171q-20 20 -45 21v-299h-113v692h211q111 0 168 -56t57 -142q0 -78 -47 -134t-125 -56q32 -16 107 -138zM401 493q0 54 -32.5 80t-107.5 26h-63v-219h59q84 0 113 29q31 31 31 84zM456 857l-174 -137l-176 137l40 60l139 -81l134 81z
" />
    <glyph glyph-name="rcaron" unicode="&#x159;" horiz-adv-x="350" 
d="M355 512l-34 -102q-19 7 -31 7q-34 0 -60.5 -22t-34.5 -53v-342h-110v357q0 85 -18 136l101 26q19 -36 19 -80q59 81 129 81q22 0 39 -8zM381 697l-174 -137l-176 137l40 60l139 -81l134 81z" />
    <glyph glyph-name="Sacute" unicode="&#x15a;" horiz-adv-x="597" 
d="M547 209q0 -92 -72 -157t-198 -65q-124 0 -227 62l44 88q98 -57 187 -57q64 0 100 29t36 81q0 74 -103 103l-74 21q-97 28 -134 83q-29 43 -29 101q0 91 65.5 148t169.5 57q125 0 219 -66l-52 -81q-89 53 -163 53q-51 0 -82 -25.5t-31 -68.5q0 -32 20.5 -51t71.5 -34
l82 -24q79 -23 124.5 -72.5t45.5 -124.5zM460 822l-220 -102l-34 63l204 132z" />
    <glyph glyph-name="sacute" unicode="&#x15b;" horiz-adv-x="484" 
d="M439 158q0 -77 -57 -124.5t-148 -47.5q-93 0 -194 56l39 79q92 -53 164 -53q36 0 59 20t23 51q0 29 -19.5 45.5t-62.5 25.5l-61 13q-57 12 -89 49t-32 90q0 71 52 116t136 45q85 0 167 -44l-36 -76q-70 37 -124 37q-35 0 -56 -18t-21 -47q0 -23 15 -36.5t53 -23.5l63 -16
q129 -33 129 -141zM385 662l-220 -102l-34 63l204 132z" />
    <glyph glyph-name="Scircumflex" unicode="&#x15c;" horiz-adv-x="597" 
d="M547 209q0 -92 -72 -157t-198 -65q-124 0 -227 62l44 88q98 -57 187 -57q64 0 100 29t36 81q0 74 -103 103l-74 21q-97 28 -134 83q-29 43 -29 101q0 91 65.5 148t169.5 57q125 0 219 -66l-52 -81q-89 53 -163 53q-51 0 -82 -25.5t-31 -68.5q0 -32 20.5 -51t71.5 -34
l82 -24q79 -23 124.5 -72.5t45.5 -124.5zM493 776l-40 -61l-138 82l-134 -82l-38 61l174 136z" />
    <glyph glyph-name="scircumflex" unicode="&#x15d;" horiz-adv-x="484" 
d="M439 158q0 -77 -57 -124.5t-148 -47.5q-93 0 -194 56l39 79q92 -53 164 -53q36 0 59 20t23 51q0 29 -19.5 45.5t-62.5 25.5l-61 13q-57 12 -89 49t-32 90q0 71 52 116t136 45q85 0 167 -44l-36 -76q-70 37 -124 37q-35 0 -56 -18t-21 -47q0 -23 15 -36.5t53 -23.5l63 -16
q129 -33 129 -141zM428 616l-40 -61l-138 82l-134 -82l-38 61l174 136z" />
    <glyph glyph-name="Scedilla" unicode="&#x15e;" horiz-adv-x="597" 
d="M547 209q0 -85 -62 -148t-173 -72l-8 -25q70 -8 70 -76q0 -36 -27.5 -61t-75.5 -25q-39 0 -83 24l26 54q34 -15 54 -15q12 0 21.5 7.5t9.5 17.5q0 11 -8.5 18.5t-23.5 7.5q-9 0 -29 -5l-5 21l14 56q-110 8 -197 61l44 88q98 -57 187 -57q64 0 100 29t36 81q0 74 -103 103
l-74 21q-97 28 -134 83q-29 43 -29 101q0 91 65.5 148t169.5 57q125 0 219 -66l-52 -81q-89 53 -163 53q-51 0 -82 -25.5t-31 -68.5q0 -32 20.5 -51t71.5 -34l82 -24q79 -23 124.5 -72.5t45.5 -124.5z" />
    <glyph glyph-name="scedilla" unicode="&#x15f;" horiz-adv-x="484" 
d="M331 -112q0 -36 -27.5 -61t-75.5 -25q-39 0 -83 24l26 54q33 -15 54 -15q12 0 21.5 7.5t9.5 17.5q0 11 -8.5 18.5t-23.5 7.5q-9 0 -29 -5l-5 21l14 56q-82 8 -164 54l39 79q92 -53 164 -53q36 0 59 20t23 51q0 29 -19.5 45.5t-62.5 25.5l-61 13q-57 12 -89 49t-32 90
q0 71 52 116t136 45q85 0 167 -44l-36 -76q-70 37 -124 37q-35 0 -56 -18t-21 -47q0 -23 15 -36.5t53 -23.5l63 -16q129 -33 129 -141q0 -69 -46.5 -115t-123.5 -55l-8 -24q70 -8 70 -76z" />
    <glyph glyph-name="Scaron" unicode="&#x160;" horiz-adv-x="597" 
d="M547 209q0 -92 -72 -157t-198 -65q-124 0 -227 62l44 88q98 -57 187 -57q64 0 100 29t36 81q0 74 -103 103l-74 21q-97 28 -134 83q-29 43 -29 101q0 91 65.5 148t169.5 57q125 0 219 -66l-52 -81q-89 53 -163 53q-51 0 -82 -25.5t-31 -68.5q0 -32 20.5 -51t71.5 -34
l82 -24q79 -23 124.5 -72.5t45.5 -124.5zM475 863l-174 -137l-176 137l40 60l139 -81l134 81z" />
    <glyph glyph-name="scaron" unicode="&#x161;" horiz-adv-x="484" 
d="M439 158q0 -77 -57 -124.5t-148 -47.5q-93 0 -194 56l39 79q92 -53 164 -53q36 0 59 20t23 51q0 29 -19.5 45.5t-62.5 25.5l-61 13q-57 12 -89 49t-32 90q0 71 52 116t136 45q85 0 167 -44l-36 -76q-70 37 -124 37q-35 0 -56 -18t-21 -47q0 -23 15 -36.5t53 -23.5l63 -16
q129 -33 129 -141zM411 693l-174 -137l-176 137l40 60l139 -81l134 81z" />
    <glyph glyph-name="Tcommaaccent" unicode="&#x162;" horiz-adv-x="484" 
d="M344 -112q0 -36 -27.5 -61t-75.5 -25q-39 0 -83 24l26 54q33 -15 54 -15q12 0 21.5 7.5t9.5 17.5q0 11 -8.5 18.5t-23.5 7.5q-9 0 -29 -5l-5 21l18 68h-26v596h-175v96h479l-15 -96h-174v-596h-24l-12 -36q70 -8 70 -76z" />
    <glyph glyph-name="tcommaaccent" unicode="&#x163;" horiz-adv-x="341" 
d="M308 -112q0 -36 -27.5 -61t-75.5 -25q-39 0 -83 24l26 54q34 -15 54 -15q12 0 21.5 7.5t9.5 17.5q0 11 -8.5 18.5t-23.5 7.5q-9 0 -29 -5l-5 21l15 58q-97 16 -97 127v313h-56v76h56q0 87 5 125l113 27q-9 -74 -9 -152h121l-29 -76h-93v-284q0 -47 13 -64t49 -17
q20 0 47 10l14 -66q-39 -16 -70 -20l-8 -25q70 -8 70 -76z" />
    <glyph glyph-name="Tcaron" unicode="&#x164;" horiz-adv-x="484" 
d="M499 692l-15 -96h-174v-596h-115v596h-175v96h479zM423 857l-174 -137l-176 137l40 60l139 -81l134 81z" />
    <glyph glyph-name="tcaron" unicode="&#x165;" horiz-adv-x="341" 
d="M316 9q-48 -22 -99 -22q-69 0 -100.5 35.5t-31.5 94.5v313h-56v76h56q0 87 5 125l113 27q-9 -74 -9 -152h121l-29 -76h-93v-284q0 -47 13 -64t49 -17q20 0 47 10zM388 689q0 -48 -33 -89q-29 -36 -80 -55l-35 41q58 22 58 61q0 5 -17 12q-37 13 -37 54q0 27 19.5 45.5
t47.5 18.5q35 0 56 -24t21 -64z" />
    <glyph glyph-name="Tbar" unicode="&#x166;" horiz-adv-x="484" 
d="M499 692l-15 -96h-174v-180h99v-83h-99v-333h-115v333h-101v83h101v180h-175v96h479z" />
    <glyph glyph-name="tbar" unicode="&#x167;" horiz-adv-x="341" 
d="M85 284v146h-56v76h56q0 87 5 125l113 27q-9 -74 -9 -152h121l-29 -76h-93v-146h122l-29 -76h-93v-62q0 -47 13 -64t49 -17q20 0 47 10l14 -66q-48 -22 -99 -22q-69 0 -100.5 35.5t-31.5 94.5v91h-56v76h56z" />
    <glyph glyph-name="Utilde" unicode="&#x168;" horiz-adv-x="639" 
d="M559 194q0 -96 -63.5 -151t-176.5 -55q-127 0 -183 56.5t-56 148.5v499h116v-465q0 -78 29 -109.5t94 -31.5q125 0 125 141v465h115v-498zM494 809q-27 -34 -53.5 -50t-67.5 -16q-31 0 -66 20.5t-64 20.5q-21 0 -34 -8.5t-32 -28.5l-36 61q27 35 53 50.5t67 15.5
q31 0 66 -20.5t64 -20.5q22 0 35 8.5t32 28.5z" />
    <glyph glyph-name="utilde" unicode="&#x169;" horiz-adv-x="552" 
d="M498 36l-76 -52q-32 23 -44 63q-55 -62 -144 -62q-84 0 -126 50q-28 34 -28 120v343l108 20v-339q0 -55 14.5 -82t59.5 -27q28 0 57 19.5t42 46.5v362l106 20v-381q0 -75 31 -101zM453 649q-27 -34 -53.5 -50t-67.5 -16q-31 0 -66 20.5t-64 20.5q-21 0 -34 -8.5
t-32 -28.5l-36 61q27 35 53 50.5t67 15.5q31 0 66 -20.5t64 -20.5q22 0 35 8.5t32 28.5z" />
    <glyph glyph-name="Umacron" unicode="&#x16a;" horiz-adv-x="639" 
d="M559 194q0 -96 -63.5 -151t-176.5 -55q-127 0 -183 56.5t-56 148.5v499h116v-465q0 -78 29 -109.5t94 -31.5q125 0 125 141v465h115v-498zM470 752h-295v76h295v-76z" />
    <glyph glyph-name="umacron" unicode="&#x16b;" horiz-adv-x="552" 
d="M498 36l-76 -52q-32 23 -44 63q-55 -62 -144 -62q-84 0 -126 50q-28 34 -28 120v343l108 20v-339q0 -55 14.5 -82t59.5 -27q28 0 57 19.5t42 46.5v362l106 20v-381q0 -75 31 -101zM425 591h-295v76h295v-76z" />
    <glyph glyph-name="Ubreve" unicode="&#x16c;" horiz-adv-x="639" 
d="M559 194q0 -96 -63.5 -151t-176.5 -55q-127 0 -183 56.5t-56 148.5v499h116v-465q0 -78 29 -109.5t94 -31.5q125 0 125 141v465h115v-498zM494 855q-15 -20 -36 -43t-62.5 -51t-77.5 -28q-28 0 -58 15t-54.5 38t-39 39t-24.5 30l35 45q75 -71 145 -71q62 0 141 71z" />
    <glyph glyph-name="ubreve" unicode="&#x16d;" horiz-adv-x="552" 
d="M498 36l-76 -52q-32 23 -44 63q-55 -62 -144 -62q-84 0 -126 50q-28 34 -28 120v343l108 20v-339q0 -55 14.5 -82t59.5 -27q28 0 57 19.5t42 46.5v362l106 20v-381q0 -75 31 -101zM450 682q-15 -20 -36 -43t-62.5 -51t-77.5 -28q-28 0 -58 15t-54.5 38t-39 39t-24.5 30
l35 45q71 -71 145 -71q62 0 141 71z" />
    <glyph glyph-name="Uring" unicode="&#x16e;" horiz-adv-x="639" 
d="M559 194q0 -96 -63.5 -151t-176.5 -55q-127 0 -183 56.5t-56 148.5v499h116v-465q0 -78 29 -109.5t94 -31.5q125 0 125 141v465h115v-498zM424 820q0 -43 -31 -74t-75 -31t-75 31t-31 74q0 44 31 75t75 31t75 -31t31 -75zM376 820q0 24 -17 41.5t-41 17.5t-41 -17.5
t-17 -41.5t17 -41.5t41 -17.5t41 17.5t17 41.5z" />
    <glyph glyph-name="uring" unicode="&#x16f;" horiz-adv-x="552" 
d="M498 36l-76 -52q-32 23 -44 63q-55 -62 -144 -62q-84 0 -126 50q-28 34 -28 120v343l108 20v-339q0 -55 14.5 -82t59.5 -27q28 0 57 19.5t42 46.5v362l106 20v-381q0 -75 31 -101zM388 660q0 -43 -31 -74t-75 -31t-75 31t-31 74q0 44 31 75t75 31t75 -31t31 -75zM340 660
q0 24 -17 41.5t-41 17.5t-41 -17.5t-17 -41.5t17 -41.5t41 -17.5t41 17.5t17 41.5z" />
    <glyph glyph-name="Uhungarumlaut" unicode="&#x170;" horiz-adv-x="639" 
d="M559 194q0 -96 -63.5 -151t-176.5 -55q-127 0 -183 56.5t-56 148.5v499h116v-465q0 -78 29 -109.5t94 -31.5q125 0 125 141v465h115v-498zM386 910l-146 -191l-60 38l117 207zM611 886l-175 -163l-51 48l147 184z" />
    <glyph glyph-name="uhungarumlaut" unicode="&#x171;" horiz-adv-x="552" 
d="M498 36l-76 -52q-32 23 -44 63q-55 -62 -144 -62q-84 0 -126 50q-28 34 -28 120v343l108 20v-339q0 -55 14.5 -82t59.5 -27q28 0 57 19.5t42 46.5v362l106 20v-381q0 -75 31 -101zM316 771l-114 -211l-65 28l83 223zM530 752l-147 -188l-58 39l117 205z" />
    <glyph glyph-name="Uogonek" unicode="&#x172;" horiz-adv-x="639" 
d="M559 194q0 -70 -36.5 -122.5t-118.5 -73.5q-28 -7 -55 -33.5t-27 -59.5q0 -34 34 -34q29 0 57 14l25 -58q-54 -26 -99 -26q-46 0 -73.5 25t-27.5 65q0 48 46 98q-108 8 -156 63.5t-48 140.5v499h116v-465q0 -78 29 -109.5t94 -31.5q125 0 125 141v465h115v-498z" />
    <glyph glyph-name="uogonek" unicode="&#x173;" horiz-adv-x="552" 
d="M521 -173q-54 -26 -99 -26q-46 0 -73.5 25t-27.5 65q0 55 73 121q-10 14 -16 35q-55 -62 -144 -62q-84 0 -126 50q-28 34 -28 120v343l108 20v-339q0 -55 14.5 -82t59.5 -27q28 0 57 19.5t42 46.5v362l106 20v-381q0 -31 7 -56t14 -34.5t12 -13.5q-94 -73 -94 -128
q0 -34 33 -34q29 0 57 14z" />
    <glyph glyph-name="Wcircumflex" unicode="&#x174;" horiz-adv-x="826" 
d="M816 692l-164 -696h-132l-71 321q-24 107 -34 200h-3q-29 -169 -35 -197l-67 -324h-135l-165 696h123l69 -322q26 -123 37 -222h3q20 129 38 214l72 330h129l72 -344q23 -114 34 -195h3q34 196 40 225l66 314h120zM588 776l-40 -61l-138 82l-134 -82l-38 61l174 136z" />
    <glyph glyph-name="wcircumflex" unicode="&#x175;" horiz-adv-x="708" 
d="M693 506l-143 -508h-103l-62 233q-25 93 -33 138h-2q-6 -40 -33 -143l-61 -228h-103l-138 501l109 15l55 -245q18 -78 26 -133h3q11 69 29 136l65 234h108l57 -228q25 -100 32 -144h3q8 62 25 136l52 236h114zM526 616l-40 -61l-138 82l-134 -82l-38 61l174 136z" />
    <glyph glyph-name="Ycircumflex" unicode="&#x176;" horiz-adv-x="528" 
d="M543 692l-221 -413v-279h-119v280l-218 412h139l104 -217q23 -48 37 -89q17 42 38 87l106 219h134zM441 776l-40 -61l-138 82l-134 -82l-38 61l174 136z" />
    <glyph glyph-name="ycircumflex" unicode="&#x177;" horiz-adv-x="493" 
d="M483 506l-179 -517q-34 -100 -73.5 -144.5t-123.5 -60.5l-36 71q55 15 85.5 45.5t51.5 99.5h-35q-12 49 -48 157l-115 341l112 19l93 -308q4 -13 10.5 -39l12.5 -50l5 -25q19 76 38 137l84 274h118zM418 616l-40 -61l-138 82l-134 -82l-38 61l174 136z" />
    <glyph glyph-name="Ydieresis" unicode="&#x178;" horiz-adv-x="528" 
d="M543 692l-221 -413v-279h-119v280l-218 412h139l104 -217q23 -48 37 -89q17 42 38 87l106 219h134zM225 790q0 -29 -19.5 -49.5t-47.5 -20.5t-47.5 20.5t-19.5 49.5t19.5 49.5t47.5 20.5t47.5 -20.5t19.5 -49.5zM434 790q0 -29 -19.5 -49.5t-47.5 -20.5t-47.5 20.5
t-19.5 49.5t19.5 49.5t47.5 20.5t47.5 -20.5t19.5 -49.5z" />
    <glyph glyph-name="Zacute" unicode="&#x179;" horiz-adv-x="541" 
d="M496 94l-29 -94h-422v84l270 449q16 25 46 68q-28 -4 -75 -4h-228l26 95h406v-87l-269 -454q-8 -14 -40 -59q2 0 12 0.5t25.5 1t31.5 0.5h246zM425 822l-220 -102l-34 63l204 132z" />
    <glyph glyph-name="zacute" unicode="&#x17a;" horiz-adv-x="469" 
d="M429 77l-32 -77h-357v73l254 355h-234v78h358v-78l-240 -351h251zM377 662l-220 -102l-34 63l204 132z" />
    <glyph glyph-name="Zdotaccent" unicode="&#x17b;" horiz-adv-x="541" 
d="M496 94l-29 -94h-422v84l270 449q16 25 46 68q-28 -4 -75 -4h-228l26 95h406v-87l-269 -454q-8 -14 -40 -59q2 0 12 0.5t25.5 1t31.5 0.5h246zM356 795q0 -31 -21.5 -53t-52.5 -22q-30 0 -51 22t-21 53t21.5 53t51.5 22t51.5 -22t21.5 -53z" />
    <glyph glyph-name="zdotaccent" unicode="&#x17c;" horiz-adv-x="469" 
d="M429 77l-32 -77h-357v73l254 355h-234v78h358v-78l-240 -351h251zM315 656q0 -31 -21.5 -53t-52.5 -22q-30 0 -51 22t-21 53t21.5 53t51.5 22t51.5 -22t21.5 -53z" />
    <glyph glyph-name="Zcaron" unicode="&#x17d;" horiz-adv-x="541" 
d="M496 94l-29 -94h-422v84l270 449q16 25 46 68q-28 -4 -75 -4h-228l26 95h406v-87l-269 -454q-8 -14 -40 -59q2 0 12 0.5t25.5 1t31.5 0.5h246zM444 863l-174 -137l-176 137l40 60l139 -81l134 81z" />
    <glyph glyph-name="zcaron" unicode="&#x17e;" horiz-adv-x="469" 
d="M429 77l-32 -77h-357v73l254 355h-234v78h358v-78l-240 -351h251zM400 693l-174 -137l-176 137l40 60l139 -81l134 81z" />
    <glyph glyph-name="longs" unicode="&#x17f;" horiz-adv-x="347" 
d="M290 735q38 0 98 -27l-44 -74q-25 17 -57 17q-82 0 -82 -122v-529h-111v423h-79v83h79v35q0 76 26 114q55 80 170 80z" />
    <glyph glyph-name="uni018F" unicode="&#x18f;" horiz-adv-x="663" 
d="M52 377h421v23q0 42 -9.5 78t-30 67.5t-58.5 49.5t-90 18q-93 0 -171 -64l-47 71q61 46 115 64t125 18q142 0 221.5 -93t79.5 -261q0 -95 -28.5 -174t-94.5 -131.5t-160 -52.5q-115 0 -181 63q-92 89 -92 303v21zM471 288h-287q0 -104 37.5 -158t103.5 -54
q69 0 107.5 57.5t38.5 154.5z" />
    <glyph glyph-name="florin" unicode="&#x192;" horiz-adv-x="329" 
d="M374 707l-35 -70q-35 18 -57 18q-28 0 -45.5 -18.5t-19.5 -52.5l-5 -78h123l-29 -78h-98l-26 -387q-7 -115 -30.5 -157t-105.5 -95l-51 75q51 38 65.5 66.5t18.5 92.5l26 405h-43v78h51l4 76q4 78 47 116t107 38q56 0 103 -29z" />
    <glyph glyph-name="uni01B5" unicode="&#x1b5;" horiz-adv-x="541" 
d="M496 94l-29 -94h-422v84l133 221h-76v81h124l89 147q16 25 46 68q-28 -4 -75 -4h-228l26 95h406v-87l-130 -219h77v-81h-125l-91 -154q-8 -14 -40 -59q2 0 12 0.5t25.5 1t31.5 0.5h246z" />
    <glyph glyph-name="uni01B6" unicode="&#x1b6;" horiz-adv-x="469" 
d="M429 77l-32 -77h-357v73l100 140h-55v81h113l96 134h-234v78h358v-78l-92 -134h54v-81h-109l-93 -136h251z" />
    <glyph glyph-name="uni01C4" unicode="&#x1c4;" horiz-adv-x="1172" 
d="M576 344q0 -154 -73 -247q-43 -55 -96.5 -76t-150.5 -21h-171v692h144q100 0 162 -22t110 -76q75 -87 75 -250zM448 332q0 149 -44 209q-24 33 -53.5 46.5t-76.5 13.5h-73v-507h76q90 0 130.5 59t40.5 179zM1127 94l-29 -94h-422v84l270 449q16 25 46 68q-28 -4 -75 -4
h-228l26 95h406v-87l-269 -454q-8 -14 -40 -59q2 0 12 0.5t25.5 1t31.5 0.5h246zM1075 863l-174 -137l-176 137l40 60l139 -81l134 81z" />
    <glyph glyph-name="uni01C5" unicode="&#x1c5;" horiz-adv-x="1100" 
d="M576 344q0 -154 -73 -247q-43 -55 -96.5 -76t-150.5 -21h-171v692h144q100 0 162 -22t110 -76q75 -87 75 -250zM448 332q0 149 -44 209q-24 33 -53.5 46.5t-76.5 13.5h-73v-507h76q90 0 130.5 59t40.5 179zM1060 77l-32 -77h-357v73l254 355h-234v78h358v-78l-240 -351
h251zM1031 693l-174 -137l-176 137l40 60l139 -81l134 81z" />
    <glyph glyph-name="uni01C6" unicode="&#x1c6;" horiz-adv-x="1034" 
d="M496 0h-101q-5 11 -9 39q-50 -50 -124 -50q-96 0 -151.5 70t-55.5 189t59 193t151 74q64 0 109 -46q-3 24 -3 83v185l109 -17v-544q0 -136 16 -176zM371 129v257q-38 41 -92 41q-52 0 -77 -43t-25 -135q0 -88 22.5 -128t82.5 -40q29 0 53 14t36 34zM994 77l-32 -77h-357
v73l254 355h-234v78h358v-78l-240 -351h251zM965 693l-174 -137l-176 137l40 60l139 -81l134 81z" />
    <glyph glyph-name="uni01C7" unicode="&#x1c7;" horiz-adv-x="766" 
d="M458 95l-19 -95h-354v692h117v-597h256zM681 128q0 -83 -9 -122t-32 -71q-41 -57 -117 -85l-54 61q58 32 80 78q16 33 16 129v574h116v-564z" />
    <glyph glyph-name="uni01C8" unicode="&#x1c8;" horiz-adv-x="754" 
d="M458 95l-19 -95h-354v692h117v-597h256zM669 12q0 -105 -37 -152q-37 -46 -95 -72l-47 64q39 27 53.5 61.5t14.5 97.5v487l111 20v-506zM686 656q0 -31 -21.5 -53t-52.5 -22q-30 0 -51 21t-21 52q0 30 21.5 52t51.5 22t51.5 -21.5t21.5 -50.5z" />
    <glyph glyph-name="uni01C9" unicode="&#x1c9;" horiz-adv-x="563" 
d="M262 1q-30 -12 -66 -12q-32 0 -54 11.5t-33 25.5t-17 37.5t-6.5 36.5t-0.5 32v431q0 88 -10 148l113 25q9 -35 9 -139v-429q0 -74 11 -91q5 -7 15.5 -9.5t20.5 1.5zM478 12q0 -105 -37 -152q-37 -46 -95 -72l-47 64q39 27 53.5 61.5t14.5 97.5v487l111 20v-506zM495 656
q0 -31 -21.5 -53t-52.5 -22q-30 0 -51 21t-21 52q0 30 21.5 52t51.5 22t51.5 -21.5t21.5 -50.5z" />
    <glyph glyph-name="uni01CA" unicode="&#x1ca;" horiz-adv-x="932" 
d="M554 0h-121l-155 325q-68 141 -88 205l-3 -3q5 -58 7 -192l4 -335h-113v692h130l168 -338q48 -96 71 -178l3 3q-10 117 -10 197l-2 316h109v-692zM847 128q0 -83 -9 -122t-32 -71q-41 -57 -117 -85l-54 61q58 32 80 78q16 33 16 129v574h116v-564z" />
    <glyph glyph-name="uni01CB" unicode="&#x1cb;" horiz-adv-x="920" 
d="M554 0h-121l-155 325q-68 141 -88 205l-3 -3q5 -58 7 -192l4 -335h-113v692h130l168 -338q48 -96 71 -178l3 3q-10 117 -10 197l-2 316h109v-692zM835 12q0 -105 -37 -152q-37 -46 -95 -72l-47 64q39 27 53.5 61.5t14.5 97.5v487l111 20v-506zM852 656q0 -31 -21.5 -53
t-52.5 -22q-30 0 -51 21t-21 52q0 30 21.5 52t51.5 22t51.5 -21.5t21.5 -50.5z" />
    <glyph glyph-name="uni01CC" unicode="&#x1cc;" horiz-adv-x="837" 
d="M471 0h-109v336q0 51 -13 69.5t-45 18.5q-24 0 -55 -16t-56 -41v-367h-108v372q0 71 -19 120l100 28q18 -34 18 -72q82 70 155 70q60 0 96 -36t36 -104v-378zM752 12q0 -105 -37 -152q-37 -46 -95 -72l-47 64q39 27 53.5 61.5t14.5 97.5v487l111 20v-506zM769 656
q0 -31 -21.5 -53t-52.5 -22q-30 0 -51 21t-21 52q0 30 21.5 52t51.5 22t51.5 -21.5t21.5 -50.5z" />
    <glyph glyph-name="uni01F1" unicode="&#x1f1;" horiz-adv-x="1172" 
d="M576 344q0 -154 -73 -247q-43 -55 -96.5 -76t-150.5 -21h-171v692h144q100 0 162 -22t110 -76q75 -87 75 -250zM448 332q0 149 -44 209q-24 33 -53.5 46.5t-76.5 13.5h-73v-507h76q90 0 130.5 59t40.5 179zM1127 94l-29 -94h-422v84l270 449q16 25 46 68q-28 -4 -75 -4
h-228l26 95h406v-87l-269 -454q-8 -14 -40 -59q2 0 12 0.5t25.5 1t31.5 0.5h246z" />
    <glyph glyph-name="uni01F2" unicode="&#x1f2;" horiz-adv-x="1100" 
d="M576 344q0 -154 -73 -247q-43 -55 -96.5 -76t-150.5 -21h-171v692h144q100 0 162 -22t110 -76q75 -87 75 -250zM448 332q0 149 -44 209q-24 33 -53.5 46.5t-76.5 13.5h-73v-507h76q90 0 130.5 59t40.5 179zM1060 77l-32 -77h-357v73l254 355h-234v78h358v-78l-240 -351
h251z" />
    <glyph glyph-name="uni01F3" unicode="&#x1f3;" horiz-adv-x="1034" 
d="M496 0h-101q-5 11 -9 39q-50 -50 -124 -50q-96 0 -151.5 70t-55.5 189t59 193t151 74q64 0 109 -46q-3 24 -3 83v185l109 -17v-544q0 -136 16 -176zM371 129v257q-38 41 -92 41q-52 0 -77 -43t-25 -135q0 -88 22.5 -128t82.5 -40q29 0 53 14t36 34zM994 77l-32 -77h-357
v73l254 355h-234v78h358v-78l-240 -351h251z" />
    <glyph glyph-name="Aringacute" unicode="&#x1fa;" horiz-adv-x="587" 
d="M584 0h-126l-56 182h-224l-56 -182h-119l227 693h133zM376 278q-5 11 -41.5 145t-40.5 155h-1q-63 -231 -87 -300h170zM399 820q0 -43 -31 -74t-75 -31t-75 31t-31 74q0 44 31.5 75t74.5 31t74.5 -31t31.5 -75zM351 820q0 24 -17 41.5t-41 17.5t-41 -17.5t-17 -41.5
t17 -41.5t41 -17.5t41 17.5t17 41.5zM451 1028l-220 -102l-34 63l204 132z" />
    <glyph glyph-name="aringacute" unicode="&#x1fb;" horiz-adv-x="525" 
d="M483 49l-57 -70q-51 20 -69 68q-55 -62 -139 -62t-126 41.5t-42 110.5q0 87 64 131.5t186 44.5h34v27q0 48 -14 68.5t-56 20.5q-29 0 -64.5 -13t-54.5 -24t-32 -21l-49 79q109 69 215 69q120 0 154 -84q9 -23 8 -124l-2 -145q-1 -52 7 -74.5t37 -42.5zM332 238h-8
q-8 1 -12 1q-80 0 -111.5 -23t-31.5 -73q0 -36 18.5 -57t51.5 -21q55 0 91 53zM371 660q0 -43 -31 -74t-75 -31t-75 31t-31 74q0 44 31.5 75t74.5 31t74.5 -31t31.5 -75zM323 660q0 24 -17 41.5t-41 17.5t-41 -17.5t-17 -41.5t17 -41.5t41 -17.5t41 17.5t17 41.5zM405 868
l-220 -102l-34 63l204 132z" />
    <glyph glyph-name="AEacute" unicode="&#x1fc;" horiz-adv-x="853" 
d="M823 0h-393v184h-212l-106 -184h-127l416 691h412l-15 -94h-252v-188h211v-95h-211v-216h277v-98zM434 560q-4 0 -5 -1q-4 -10 -73.5 -133.5t-83.5 -146.5h158v181q0 52 4 100zM758 824l-220 -102l-34 63l204 132z" />
    <glyph glyph-name="aeacute" unicode="&#x1fd;" horiz-adv-x="785" 
d="M740 223h-301v-21q0 -59 33 -95.5t90 -36.5q69 0 127 50l41 -66q-77 -67 -180 -67q-121 0 -171 77q-69 -80 -161 -80q-84 0 -126 42t-42 110q0 87 64 131.5t186 44.5q5 0 15 -0.5t19 -0.5v29q0 50 -13 68q-15 21 -57 21q-71 0 -152 -57l-48 78q110 69 215 69
q76 0 127 -54q56 54 128 54q90 0 142 -54q34 -36 49 -86.5t15 -132.5v-23zM332 237q-4 0 -11 0.5t-9 0.5q-80 0 -111.5 -22t-31.5 -73q0 -37 18.5 -58t51.5 -21q56 0 91 53zM625 304q0 60 -23 96.5t-68 36.5t-69.5 -34t-24.5 -99h185zM515 662l-220 -102l-34 63l204 132z
" />
    <glyph glyph-name="Oslashacute" unicode="&#x1fe;" horiz-adv-x="688" 
d="M633 344q0 -189 -99 -282q-78 -74 -186 -74q-90 0 -154 40l-67 -114l-62 36l75 125q-85 103 -85 271q0 166 77.5 261t210.5 95q83 0 150 -40l61 103l63 -36l-69 -114q48 -56 66.5 -117.5t18.5 -153.5zM441 575q-41 38 -97 38q-83 0 -122 -63t-39 -199q0 -101 21 -170z
M501 337q0 99 -20 167l-236 -394q13 -13 42 -24t59 -11q79 0 117 63t38 199zM495 824l-220 -102l-34 63l204 132z" />
    <glyph glyph-name="oslashacute" unicode="&#x1ff;" horiz-adv-x="546" 
d="M496 251q0 -124 -60 -194t-164 -70q-62 0 -106 27l-55 -91l-53 31l58 98q-66 74 -66 200q0 122 60 194t161 72q60 0 110 -25l55 91l53 -31l-60 -100q67 -70 67 -202zM375 249q0 54 -11 96l-152 -254q30 -22 63 -22q52 0 76 43t24 137zM333 413q-26 22 -61 22
q-51 0 -76 -42t-25 -134q0 -44 11 -99zM420 662l-220 -102l-34 63l204 132z" />
    <glyph glyph-name="Scommaaccent" unicode="&#x218;" horiz-adv-x="597" 
d="M547 209q0 -92 -72 -157t-198 -65q-124 0 -227 62l44 88q98 -57 187 -57q64 0 100 29t36 81q0 74 -103 103l-74 21q-97 28 -134 83q-29 43 -29 101q0 91 65.5 148t169.5 57q125 0 219 -66l-52 -81q-89 53 -163 53q-51 0 -82 -25.5t-31 -68.5q0 -32 20.5 -51t71.5 -34
l82 -24q79 -23 124.5 -72.5t45.5 -124.5zM368 -138q0 -48 -33 -89q-29 -36 -80 -55l-35 41q58 22 58 61q0 5 -17 12q-37 13 -37 54q0 27 19.5 45.5t47.5 18.5q35 0 56 -24t21 -64z" />
    <glyph glyph-name="scommaaccent" unicode="&#x219;" horiz-adv-x="484" 
d="M439 158q0 -77 -57 -124.5t-148 -47.5q-93 0 -194 56l39 79q92 -53 164 -53q36 0 59 20t23 51q0 29 -19.5 45.5t-62.5 25.5l-61 13q-57 12 -89 49t-32 90q0 71 52 116t136 45q85 0 167 -44l-36 -76q-70 37 -124 37q-35 0 -56 -18t-21 -47q0 -23 15 -36.5t53 -23.5l63 -16
q129 -33 129 -141zM311 -139q0 -48 -33 -89q-29 -36 -80 -55l-35 41q58 22 58 61q0 5 -17 12q-37 13 -37 54q0 27 19.5 45.5t47.5 18.5q35 0 56 -24t21 -64z" />
    <glyph glyph-name="uni021A" unicode="&#x21a;" horiz-adv-x="484" 
d="M499 692l-15 -96h-174v-596h-115v596h-175v96h479zM328 -140q0 -48 -33 -89q-29 -36 -80 -55l-35 41q58 22 58 61q0 5 -17 12q-37 13 -37 54q0 27 19.5 45.5t47.5 18.5q35 0 56 -24t21 -64z" />
    <glyph glyph-name="uni021B" unicode="&#x21b;" horiz-adv-x="341" 
d="M316 9q-48 -22 -99 -22q-69 0 -100.5 35.5t-31.5 94.5v313h-56v76h56q0 87 5 125l113 27q-9 -74 -9 -152h121l-29 -76h-93v-284q0 -47 13 -64t49 -17q20 0 47 10zM264 -140q0 -48 -33 -89q-29 -36 -80 -55l-35 41q58 22 58 61q0 5 -17 12q-37 13 -37 54q0 27 19.5 45.5
t47.5 18.5q35 0 56 -24t21 -64z" />
    <glyph glyph-name="uni0237" unicode="&#x237;" horiz-adv-x="281" 
d="M196 12q0 -105 -37 -152q-37 -46 -95 -72l-47 64q39 27 53.5 61.5t14.5 97.5v487l111 20v-506z" />
    <glyph glyph-name="uni0259" unicode="&#x259;" horiz-adv-x="520" 
d="M47 282h302v8q0 62 -28.5 103t-96.5 41t-126 -50l-43 67q79 67 182 67q107 0 170 -71.5t63 -193.5q0 -126 -63 -198q-59 -68 -155 -68q-82 0 -139 52q-66 60 -66 220v23zM348 201h-187q0 -61 24.5 -96t66.5 -35q46 0 71 34.5t25 96.5z" />
    <glyph glyph-name="uni02BB" unicode="&#x2bb;" horiz-adv-x="277" 
d="M227 665q-30 -10 -49 -29.5t-19 -39.5q0 -9 10 -15.5t22.5 -12t22.5 -21.5t10 -41q0 -33 -23 -56.5t-56 -23.5q-39 0 -64.5 31t-25.5 80q0 59 36.5 108t95.5 70z" />
    <glyph glyph-name="afii57929" unicode="&#x2bc;" horiz-adv-x="277" 
d="M222 597q0 -63 -39 -114q-35 -44 -92 -64l-41 49q31 10 49.5 29.5t18.5 41.5q0 11 -22 21q-43 18 -43 67q0 34 23 57t56 23q39 0 64.5 -31t25.5 -79z" />
    <glyph glyph-name="circumflex" unicode="&#x2c6;" horiz-adv-x="410" 
d="M380 616l-40 -61l-138 82l-134 -82l-38 61l174 136z" />
    <glyph glyph-name="caron" unicode="&#x2c7;" horiz-adv-x="410" 
d="M380 693l-174 -137l-176 137l40 60l139 -81l134 81z" />
    <glyph glyph-name="breve" unicode="&#x2d8;" horiz-adv-x="396" 
d="M366 695q-14 -19 -34.5 -41t-60 -48.5t-73.5 -26.5t-74 26.5t-60 48.5t-34 41l33 43q71 -67 139 -67q59 0 134 67z" />
    <glyph glyph-name="dotaccent" unicode="&#x2d9;" horiz-adv-x="216" 
d="M181 653q0 -31 -21.5 -53t-52.5 -22q-30 0 -51 22t-21 53t21.5 53t51.5 22t51.5 -22t21.5 -53z" />
    <glyph glyph-name="ring" unicode="&#x2da;" horiz-adv-x="282" 
d="M247 660q0 -43 -31 -74t-75 -31t-75 31t-31 74q0 44 31.5 75t74.5 31t74.5 -31t31.5 -75zM199 660q0 24 -17 41.5t-41 17.5t-41 -17.5t-17 -41.5t17 -41.5t41 -17.5t41 17.5t17 41.5z" />
    <glyph glyph-name="ogonek" unicode="&#x2db;" horiz-adv-x="296" 
d="M241 -174q-44 -24 -83 -24q-48 0 -75.5 25t-27.5 63q0 44 22.5 79.5t45.5 53.5l60 -35q-52 -49 -52 -90q0 -13 8 -23t22 -10q20 0 54 15z" />
    <glyph glyph-name="tilde" unicode="&#x2dc;" horiz-adv-x="403" 
d="M378 649q-27 -34 -53.5 -50t-67.5 -16q-31 0 -66 20.5t-64 20.5q-21 0 -34 -8.5t-32 -28.5l-36 61q27 35 53 50.5t67 15.5q31 0 66 -20.5t64 -20.5q22 0 35 8.5t32 28.5z" />
    <glyph glyph-name="hungarumlaut" unicode="&#x2dd;" horiz-adv-x="463" 
d="M214 736l-114 -211l-65 28l83 223zM428 717l-147 -188l-58 39l117 205z" />
    <glyph glyph-name="gravecomb" unicode="&#x300;" 
d="M366 623l-34 -63l-220 102l50 93z" />
    <glyph glyph-name="acutecomb" unicode="&#x301;" 
d="M415 662l-220 -102l-34 63l204 132z" />
    <glyph glyph-name="uni0302" unicode="&#x302;" 
d="M447 616l-40 -61l-138 82l-134 -82l-38 61l174 136z" />
    <glyph glyph-name="tildecomb" unicode="&#x303;" 
d="M445 649q-27 -34 -53.5 -50t-67.5 -16q-31 0 -66 20.5t-64 20.5q-21 0 -34 -8.5t-32 -28.5l-36 61q27 35 53 50.5t67 15.5q31 0 66 -20.5t64 -20.5q22 0 35 8.5t32 28.5z" />
    <glyph glyph-name="uni0304" unicode="&#x304;" 
d="M325 559h-295v76h295v-76z" />
    <glyph glyph-name="uni0306" unicode="&#x306;" 
d="M375 682q-15 -20 -36 -43t-62.5 -51t-77.5 -28q-28 0 -58 15t-54.5 38t-39 39t-24.5 30l35 45q71 -71 145 -71q62 0 141 71z" />
    <glyph glyph-name="uni0307" unicode="&#x307;" 
d="M181 653q0 -31 -21.5 -53t-52.5 -22q-30 0 -51 22t-21 53t21.5 53t51.5 22t51.5 -22t21.5 -53z" />
    <glyph glyph-name="uni0308" unicode="&#x308;" 
d="M-54 630q0 -29 -20 -49.5t-48 -20.5t-47.5 20.5t-19.5 49.5t20 49.5t48 20.5q27 0 47 -20.5t20 -49.5zM-264 630q0 -29 -19.5 -49.5t-47.5 -20.5t-47.5 20.5t-19.5 49.5t19.5 49.5t47.5 20.5t47.5 -20.5t19.5 -49.5z" />
    <glyph glyph-name="uni030A" unicode="&#x30a;" 
d="M371 660q0 -43 -31 -74t-75 -31t-75 31t-31 74q0 44 31.5 75t74.5 31t74.5 -31t31.5 -75zM323 660q0 24 -17 41.5t-41 17.5t-41 -17.5t-17 -41.5t17 -41.5t41 -17.5t41 17.5t17 41.5z" />
    <glyph glyph-name="uni030B" unicode="&#x30b;" 
d="M214 771l-114 -211l-65 28l83 223zM428 752l-147 -188l-58 39l117 205z" />
    <glyph glyph-name="uni030C" unicode="&#x30c;" 
d="M400 693l-174 -137l-176 137l40 60l139 -81l134 81z" />
    <glyph glyph-name="uni0312" unicode="&#x312;" 
d="M216 768q-53 -20 -58 -61q0 -5 17 -12q37 -13 37 -54q0 -27 -19.5 -45.5t-47.5 -18.5q-35 0 -56 24t-21 64q0 48 33 89q29 36 80 55z" />
    <glyph glyph-name="uni0313" unicode="&#x313;" 
d="M-6 608q0 -48 -33 -89q-29 -36 -80 -55l-35 41q53 20 58 61q0 5 -17 12q-37 13 -37 54q0 27 19.5 45.5t47.5 18.5q35 0 56 -24t21 -64z" />
    <glyph glyph-name="uni0326" unicode="&#x326;" 
d="M214 -139q0 -48 -33 -89q-29 -36 -80 -55l-35 41q58 22 58 61q0 5 -17 12q-37 13 -37 54q0 27 19.5 45.5t47.5 18.5q35 0 56 -24t21 -64z" />
    <glyph glyph-name="uni0327" unicode="&#x327;" 
d="M241 -112q0 -36 -27.5 -61t-75.5 -25q-39 0 -83 24l26 54q32 -15 54 -15q12 0 21.5 7.5t9.5 17.5q0 11 -8.5 18.5t-23.5 7.5q-9 0 -29 -5l-5 21l21 80l64 -7l-14 -41q70 -8 70 -76z" />
    <glyph glyph-name="uni0328" unicode="&#x328;" 
d="M241 -174q-44 -24 -83 -24q-48 0 -75.5 25t-27.5 63q0 44 22.5 79.5t45.5 53.5l60 -35q-52 -49 -52 -90q0 -13 8 -23t22 -10q20 0 54 15z" />
    <glyph glyph-name="uni037E" unicode="&#x37e;" horiz-adv-x="323" 
d="M248 32q0 -60 -37.5 -109t-95.5 -69l-40 49q30 10 49 30t19 40q0 9 -10 16t-22.5 12.5t-22.5 21.5t-10 39q0 34 23 57.5t56 23.5q40 0 65.5 -31t25.5 -80zM234 371q0 -32 -22.5 -55t-54.5 -23t-55 23t-23 55t22.5 55.5t53.5 23.5q32 1 55.5 -23t23.5 -56z" />
    <glyph glyph-name="tonos" unicode="&#x384;" horiz-adv-x="325" 
d="M245 755l-101 -195l-62 26l69 206z" />
    <glyph glyph-name="dieresistonos" unicode="&#x385;" horiz-adv-x="513" 
d="M390 794l-101 -194l-62 26l69 206zM468 630q0 -28 -19.5 -48.5t-46.5 -20.5t-46.5 20.5t-19.5 48.5t19.5 48.5t46.5 20.5q26 0 46 -20.5t20 -48.5zM207 630q0 -28 -19.5 -48.5t-46.5 -20.5t-46.5 20.5t-19.5 48.5t20 48.5t47 20.5t46 -20.5t19 -48.5z" />
    <glyph glyph-name="Alphatonos" unicode="&#x386;" horiz-adv-x="587" 
d="M584 0h-126l-56 182h-224l-56 -182h-119l227 693h133zM376 278q-5 11 -41.5 145t-40.5 155h-1q-63 -231 -87 -300h170zM96 666l-101 -195l-62 26l69 206z" />
    <glyph glyph-name="anoteleia" unicode="&#x387;" horiz-adv-x="286" 
d="M221 276q0 -33 -23 -57t-55 -24q-33 0 -55.5 24t-22.5 57q0 34 23 57.5t55 23.5q33 0 55.5 -23.5t22.5 -57.5z" />
    <glyph glyph-name="Epsilontonos" unicode="&#x388;" horiz-adv-x="509" 
d="M479 0h-394v692h384l-15 -94h-252v-189h211v-95h-211v-216h277v-98zM14 664l-101 -195l-62 26l69 206z" />
    <glyph glyph-name="Etatonos" unicode="&#x389;" horiz-adv-x="636" 
d="M551 0h-116v320h-236v-320h-114v692h114v-278h236v278h116v-692zM14 664l-101 -195l-62 26l69 206z" />
    <glyph glyph-name="Iotatonos" unicode="&#x38a;" horiz-adv-x="288" 
d="M203 0h-118v692h118v-692zM14 665l-101 -195l-62 26l69 206z" />
    <glyph glyph-name="Omicrontonos" unicode="&#x38c;" horiz-adv-x="688" 
d="M633 345q0 -164 -75 -260t-209 -96q-143 0 -218.5 98.5t-75.5 258.5q0 168 78.5 262t210.5 94q141 0 215 -99t74 -258zM502 338q0 136 -35.5 205.5t-123.5 69.5q-84 0 -122 -65.5t-38 -194.5q0 -138 38.5 -207.5t124.5 -69.5q79 0 117.5 62.5t38.5 199.5zM55 665
l-101 -195l-62 26l69 206z" />
    <glyph glyph-name="Upsilontonos" unicode="&#x38e;" horiz-adv-x="528" 
d="M543 692l-221 -413v-279h-119v280l-218 412h139l104 -217q23 -48 37 -89q17 42 38 87l106 219h134zM-20 665l-101 -195l-62 26l69 206z" />
    <glyph glyph-name="Omegatonos" unicode="&#x38f;" horiz-adv-x="706" 
d="M651 369q0 -77 -38 -152.5t-97 -120.5h130l-20 -96h-239v85q63 42 98 125t35 165q0 47 -8 86.5t-25.5 75t-52 56t-81.5 20.5q-169 0 -169 -240q0 -82 34.5 -164t98.5 -124v-85h-257l21 96h107q-59 45 -96 120.5t-37 152.5q0 148 79.5 240.5t219.5 92.5q135 0 216 -92
t81 -241zM56 665l-101 -195l-62 26l69 206z" />
    <glyph glyph-name="iotadieresistonos" unicode="&#x390;" horiz-adv-x="280" 
d="M267 1q-30 -12 -66 -12q-32 0 -54 11.5t-33 25.5t-17 37.5t-6.5 36.5t-0.5 32v250q0 73 -10 110l111 25q11 -46 11 -120v-229q0 -74 11 -91q5 -7 15.5 -9.5t20.5 1.5zM268 794l-101 -194l-62 26l69 206zM346 630q0 -28 -19.5 -48.5t-46.5 -20.5t-46.5 20.5t-19.5 48.5
t19.5 48.5t46.5 20.5q26 0 46 -20.5t20 -48.5zM85 630q0 -28 -19.5 -48.5t-46.5 -20.5t-46.5 20.5t-19.5 48.5t20 48.5t47 20.5t46 -20.5t19 -48.5z" />
    <glyph glyph-name="Alpha" unicode="&#x391;" horiz-adv-x="587" 
d="M584 0h-126l-56 182h-224l-56 -182h-119l227 693h133zM376 278q-5 11 -41.5 145t-40.5 155h-1q-63 -231 -87 -300h170z" />
    <glyph glyph-name="Beta" unicode="&#x392;" horiz-adv-x="611" 
d="M556 196q0 -196 -270 -196h-201v692h183q77 0 113.5 -7t68.5 -27q78 -50 78 -136q0 -56 -31 -95.5t-88 -55.5q79 -19 113 -67t34 -108zM429 207q0 37 -18 65t-47 36q-20 6 -64 6h-101v-219h104q63 0 94.5 31t31.5 81zM407 504q0 30 -15.5 53.5t-40.5 32.5q-22 8 -65 8
h-87v-189h96q34 0 51.5 5t33.5 21q27 28 27 69z" />
    <glyph glyph-name="Gamma" unicode="&#x393;" horiz-adv-x="429" 
d="M442 692l-15 -95h-227v-597h-116v692h358z" />
    <glyph glyph-name="uni0394" unicode="&#x394;" horiz-adv-x="608" 
d="M583 88l-18 -88h-542v81l223 612h119zM456 97l-104 324q-3 11 -24 73t-25 77h-2q-28 -97 -47 -151l-108 -323h310z" />
    <glyph glyph-name="Epsilon" unicode="&#x395;" horiz-adv-x="509" 
d="M479 0h-394v692h384l-15 -94h-252v-189h211v-95h-211v-216h277v-98z" />
    <glyph glyph-name="Zeta" unicode="&#x396;" horiz-adv-x="541" 
d="M496 94l-29 -94h-422v84l270 449q16 25 46 68q-28 -4 -75 -4h-228l26 95h406v-87l-269 -454q-8 -14 -40 -59q2 0 12 0.5t25.5 1t31.5 0.5h246z" />
    <glyph glyph-name="Eta" unicode="&#x397;" horiz-adv-x="636" 
d="M551 0h-116v320h-236v-320h-114v692h114v-278h236v278h116v-692z" />
    <glyph glyph-name="Theta" unicode="&#x398;" horiz-adv-x="696" 
d="M641 345q0 -158 -76 -257t-214 -99q-144 0 -221 99.5t-77 257.5q0 162 78.5 259t214.5 97q141 0 218 -99.5t77 -257.5zM510 314h-328q9 -238 167 -238q154 0 161 238zM507 408q-17 205 -161 205q-148 0 -163 -205h324z" />
    <glyph glyph-name="Iota" unicode="&#x399;" horiz-adv-x="288" 
d="M203 0h-118v692h118v-692z" />
    <glyph glyph-name="Kappa" unicode="&#x39a;" horiz-adv-x="581" 
d="M586 0h-150l-233 369l225 323h142l-240 -321zM202 0h-117v692h117v-692z" />
    <glyph glyph-name="Lambda" unicode="&#x39b;" horiz-adv-x="566" 
d="M561 0h-125l-110 385q0 1 -43 179h-4q-31 -131 -45 -180l-110 -384h-119l214 693h133z" />
    <glyph glyph-name="Mu" unicode="&#x39c;" horiz-adv-x="826" 
d="M761 0h-113l-32 429q-5 73 -5 120q-16 -74 -27 -111l-126 -438h-98l-115 419q-19 66 -30 131q0 -32 -7 -132l-30 -418h-113l63 692h153l106 -392q11 -41 26 -118q7 50 25 116l109 394h153z" />
    <glyph glyph-name="Nu" unicode="&#x39d;" horiz-adv-x="639" 
d="M554 0h-121l-155 325q-68 141 -88 205l-3 -3q5 -58 7 -192l4 -335h-113v692h130l168 -338q48 -96 71 -178l3 3q-10 117 -10 197l-2 316h109v-692z" />
    <glyph glyph-name="Xi" unicode="&#x39e;" horiz-adv-x="519" 
d="M488 0h-460l18 106h442v-106zM478 692l-17 -102h-413v102h430zM433 413l-17 -101h-337l17 101h337z" />
    <glyph glyph-name="Omicron" unicode="&#x39f;" horiz-adv-x="688" 
d="M633 345q0 -164 -75 -260t-209 -96q-143 0 -218.5 98.5t-75.5 258.5q0 168 78.5 262t210.5 94q141 0 215 -99t74 -258zM502 338q0 136 -35.5 205.5t-123.5 69.5q-84 0 -122 -65.5t-38 -194.5q0 -138 38.5 -207.5t124.5 -69.5q79 0 117.5 62.5t38.5 199.5z" />
    <glyph glyph-name="Pi" unicode="&#x3a0;" horiz-adv-x="625" 
d="M540 0h-116v597h-227v-597h-113v692h456v-692z" />
    <glyph glyph-name="Rho" unicode="&#x3a1;" horiz-adv-x="565" 
d="M540 485q0 -100 -64 -160.5t-160 -60.5h-117v-264h-114v692h184q73 0 109.5 -7.5t66.5 -25.5q95 -56 95 -174zM413 478q0 58 -28 87q-32 34 -96 34h-90v-243h90q124 0 124 122z" />
    <glyph glyph-name="Sigma" unicode="&#x3a3;" horiz-adv-x="504" 
d="M476 692l-30 -96h-192q-15 0 -63 4q18 -14 47 -53l129 -172l-153 -238q-8 -13 -34 -45q24 2 60 2h235l-16 -94h-418v79l194 292l-185 239l29 82h397z" />
    <glyph glyph-name="Tau" unicode="&#x3a4;" horiz-adv-x="484" 
d="M499 692l-15 -96h-174v-596h-115v596h-175v96h479z" />
    <glyph glyph-name="Upsilon" unicode="&#x3a5;" horiz-adv-x="528" 
d="M543 692l-221 -413v-279h-119v280l-218 412h139l104 -217q23 -48 37 -89q17 42 38 87l106 219h134z" />
    <glyph glyph-name="Phi" unicode="&#x3a6;" horiz-adv-x="776" 
d="M733 348q0 -108 -73 -184.5t-214 -88.5v-75h-117v76q-74 6 -130 30.5t-89.5 62.5t-50 83.5t-16.5 97.5q0 111 74 187.5t212 85.5v69h117v-69q75 -6 132.5 -31.5t90 -64t48.5 -84t16 -95.5zM329 166v365q-158 -23 -158 -177q0 -164 158 -188zM602 343q0 164 -156 188v-365
q156 24 156 177z" />
    <glyph glyph-name="Chi" unicode="&#x3a7;" horiz-adv-x="550" 
d="M555 0h-138l-143 274l-138 -274h-141l212 371l-186 321h140l111 -214l109 214h136l-176 -313z" />
    <glyph glyph-name="Psi" unicode="&#x3a8;" horiz-adv-x="746" 
d="M691 420q0 -119 -70.5 -189.5t-190.5 -74.5v-156h-115v156q-121 4 -190.5 74.5t-69.5 189.5v272h113v-263q0 -77 30.5 -125.5t116.5 -59.5v448h115v-448q46 6 76.5 23t45 44t20 54.5t5.5 63.5v263h114v-272z" />
    <glyph glyph-name="uni03A9" unicode="&#x3a9;" horiz-adv-x="706" 
d="M651 369q0 -77 -38 -152.5t-97 -120.5h130l-20 -96h-239v85q63 42 98 125t35 165q0 47 -8 86.5t-25.5 75t-52 56t-81.5 20.5q-169 0 -169 -240q0 -82 34.5 -164t98.5 -124v-85h-257l21 96h107q-59 45 -96 120.5t-37 152.5q0 148 79.5 240.5t219.5 92.5q135 0 216 -92
t81 -241z" />
    <glyph glyph-name="Iotadieresis" unicode="&#x3aa;" horiz-adv-x="288" 
d="M203 0h-118v692h118v-692zM316 790q0 -29 -20 -49.5t-48 -20.5t-47.5 20.5t-19.5 49.5t20 49.5t48 20.5q27 0 47 -20.5t20 -49.5zM105 790q0 -29 -19.5 -49.5t-47.5 -20.5t-47.5 20.5t-19.5 49.5t19.5 49.5t47.5 20.5t47.5 -20.5t19.5 -49.5z" />
    <glyph glyph-name="Upsilondieresis" unicode="&#x3ab;" horiz-adv-x="528" 
d="M543 692l-221 -413v-279h-119v280l-218 412h139l104 -217q23 -48 37 -89q17 42 38 87l106 219h134zM440 790q0 -29 -20 -49.5t-48 -20.5t-47.5 20.5t-19.5 49.5t20 49.5t48 20.5q27 0 47 -20.5t20 -49.5zM229 790q0 -29 -19.5 -49.5t-47.5 -20.5t-47.5 20.5t-19.5 49.5
t19.5 49.5t47.5 20.5t47.5 -20.5t19.5 -49.5z" />
    <glyph glyph-name="alphatonos" unicode="&#x3ac;" horiz-adv-x="570" 
d="M524 51l-57 -70q-55 23 -74 72q-50 -63 -134 -63q-69 0 -116.5 38t-67.5 93.5t-20 122.5q0 53 11 100.5t34 88t64 64.5t95 24q83 0 127 -62q1 32 9 49h95q-12 -46 -12 -144v-195q0 -51 8 -74t38 -44zM373 136v242q-37 50 -95 50q-104 0 -104 -166q0 -28 1.5 -49
t7.5 -47.5t17 -43.5t31.5 -29t49.5 -12q57 0 92 55zM411 749l-101 -195l-62 26l69 206z" />
    <glyph glyph-name="epsilontonos" unicode="&#x3ad;" horiz-adv-x="510" 
d="M486 54q-95 -70 -221 -70q-86 0 -146 38t-60 119q0 50 29.5 84.5t75.5 45.5q-86 32 -86 108q0 63 53.5 104t137.5 41q108 0 200 -68l-42 -68q-70 49 -148 49q-40 0 -63 -18t-23 -42q0 -67 91 -67h68v-78h-63q-105 0 -105 -85q0 -34 28.5 -53t71.5 -19q85 0 157 52z
M406 749l-101 -195l-62 26l69 206z" />
    <glyph glyph-name="etatonos" unicode="&#x3ae;" horiz-adv-x="556" 
d="M516 49l-57 -70q-30 12 -48 27q-49 43 -49 123v207q0 51 -13 69.5t-45 18.5q-24 0 -55 -16t-56 -41v-367h-108v372q0 71 -19 120l100 28q18 -34 18 -72q82 70 155 70q60 0 96 -36t36 -104v-217q0 -51 7.5 -71t37.5 -41zM412 749l-101 -195l-62 26l69 206z" />
    <glyph glyph-name="iotatonos" unicode="&#x3af;" horiz-adv-x="280" 
d="M267 1q-30 -12 -66 -12q-32 0 -54 11.5t-33 25.5t-17 37.5t-6.5 36.5t-0.5 32v250q0 73 -10 110l111 25q11 -46 11 -120v-229q0 -74 11 -91q5 -7 15.5 -9.5t20.5 1.5zM287 749l-101 -195l-62 26l69 206z" />
    <glyph glyph-name="upsilondieresistonos" unicode="&#x3b0;" horiz-adv-x="544" 
d="M472 160q0 -80 -50.5 -127t-146.5 -47q-94 0 -142 46t-48 125v341l108 20v-345q0 -103 86 -103q87 0 87 104v324l106 20v-358zM395 794l-101 -194l-62 26l69 206zM473 630q0 -28 -19.5 -48.5t-46.5 -20.5t-46.5 20.5t-19.5 48.5t19.5 48.5t46.5 20.5q26 0 46 -20.5
t20 -48.5zM212 630q0 -28 -19.5 -48.5t-46.5 -20.5t-46.5 20.5t-19.5 48.5t20 48.5t47 20.5t46 -20.5t19 -48.5z" />
    <glyph glyph-name="alpha" unicode="&#x3b1;" horiz-adv-x="570" 
d="M524 51l-57 -70q-55 23 -74 72q-50 -63 -134 -63q-69 0 -116.5 38t-67.5 93.5t-20 122.5q0 53 11 100.5t34 88t64 64.5t95 24q83 0 127 -62q1 32 9 49h95q-12 -46 -12 -144v-195q0 -51 8 -74t38 -44zM373 136v242q-37 50 -95 50q-104 0 -104 -166q0 -28 1.5 -49
t7.5 -47.5t17 -43.5t31.5 -29t49.5 -12q57 0 92 55z" />
    <glyph glyph-name="beta" unicode="&#x3b2;" horiz-adv-x="582" 
d="M538 197q0 -84 -55.5 -147t-167.5 -63q-64 0 -130 51q3 -15 3 -57v-169l-106 -27v692q0 238 213 238q87 0 142.5 -50.5t55.5 -125.5q0 -54 -27 -94t-77 -56q70 -17 109.5 -69.5t39.5 -122.5zM419 195q0 72 -36.5 107.5t-121.5 35.5h-15l15 79h8q115 0 115 114
q0 47 -23 75t-71 28q-54 0 -78 -36t-24 -110v-361q20 -23 54.5 -39.5t60.5 -16.5q57 0 86.5 35t29.5 89z" />
    <glyph glyph-name="gamma" unicode="&#x3b3;" horiz-adv-x="497" 
d="M484 506l-174 -503v-191l-109 -27v218l-125 386q-13 38 -37 38q-10 0 -18 -4l-23 70q42 24 83 24q71 0 91 -72l58 -203q9 -33 27 -114q11 54 30 118l79 260h118z" />
    <glyph glyph-name="delta" unicode="&#x3b4;" horiz-adv-x="544" 
d="M495 251q0 -118 -59 -191t-165 -73q-102 0 -162 71.5t-60 193.5q0 112 53.5 177.5t146.5 69.5q-84 71 -145 102l15 91h342l-15 -90h-173q98 -64 160 -153.5t62 -197.5zM374 246q0 85 -24 128.5t-79 43.5q-101 0 -101 -163q0 -90 23.5 -138t80.5 -48q100 0 100 177z" />
    <glyph glyph-name="epsilon" unicode="&#x3b5;" horiz-adv-x="510" 
d="M481 54q-95 -70 -221 -70q-86 0 -146 38t-60 119q0 50 29.5 84.5t75.5 45.5q-86 32 -86 108q0 63 53.5 104t137.5 41q108 0 200 -68l-42 -68q-70 49 -148 49q-40 0 -63 -18t-23 -42q0 -67 91 -67h68v-78h-63q-105 0 -105 -85q0 -34 28.5 -53t71.5 -19q85 0 157 52z" />
    <glyph glyph-name="zeta" unicode="&#x3b6;" horiz-adv-x="467" 
d="M464 692l-14 -89q-128 -83 -201 -191t-73 -212q0 -89 96 -89h45q69 0 102.5 -38t33.5 -99q0 -75 -82 -182l-62 41q41 58 41 105q0 62 -62 62h-46q-86 0 -136.5 48.5t-50.5 128.5q0 120 72 229.5t185 190.5h-231l15 95h368z" />
    <glyph glyph-name="eta" unicode="&#x3b7;" horiz-adv-x="556" 
d="M516 49l-57 -70q-30 12 -48 27q-49 43 -49 123v207q0 51 -13 69.5t-45 18.5q-24 0 -55 -16t-56 -41v-367h-108v372q0 71 -19 120l100 28q18 -34 18 -72q82 70 155 70q60 0 96 -36t36 -104v-217q0 -51 7.5 -71t37.5 -41z" />
    <glyph glyph-name="theta" unicode="&#x3b8;" horiz-adv-x="557" 
d="M499 343q0 -354 -221 -354q-220 0 -220 356q0 70 10 129t33 113t68 84.5t109 30.5q54 0 94.5 -21t64 -54.5t38 -82.5t19.5 -96t5 -105zM381 319h-205q0 -41 1.5 -68.5t7.5 -65.5t16.5 -61t30 -39.5t47.5 -16.5q29 0 49 18t30 41.5t15.5 63t6.5 64.5t1 64zM380 398
q-1 48 -4.5 80.5t-13 69.5t-31 56t-53.5 19q-27 0 -46 -15.5t-29.5 -37t-16.5 -55.5t-7.5 -58t-2.5 -59h204z" />
    <glyph glyph-name="iota" unicode="&#x3b9;" horiz-adv-x="280" 
d="M262 1q-30 -12 -66 -12q-32 0 -54 11.5t-33 25.5t-17 37.5t-6.5 36.5t-0.5 32v250q0 73 -10 110l111 25q11 -46 11 -120v-229q0 -74 11 -91q5 -7 15.5 -9.5t20.5 1.5z" />
    <glyph glyph-name="kappa" unicode="&#x3ba;" horiz-adv-x="514" 
d="M519 0h-133l-185 277l157 229h134l-180 -223zM194 0h-109v376q0 79 -10 116l109 25q10 -45 10 -115v-402z" />
    <glyph glyph-name="lambda" unicode="&#x3bb;" horiz-adv-x="504" 
d="M504 1q-37 -14 -64 -14q-79 0 -99 75l-61 233q-15 57 -26 110l-2 -1q-11 -56 -27 -107l-96 -308l-112 19l119 342q34 100 50 157l37 -3q-1 5 -5.5 24.5t-7.5 29.5t-9 28t-13 28.5t-16.5 21.5t-23 16.5t-29.5 5.5q-23 0 -51 -10l-12 65q45 21 88 21q36 0 62 -12t44 -36.5
t28.5 -49.5t22.5 -64l145 -483q4 -13 9 -17.5t17 -4.5q10 0 14 1z" />
    <glyph glyph-name="uni03BC" unicode="&#x3bc;" horiz-adv-x="551" 
d="M497 37l-76 -51q-32 24 -44 63q-55 -63 -144 -63q-29 0 -46 17q3 -30 3 -45v-146l-110 -27v714l108 21v-349q0 -57 18 -77q20 -22 53 -22q30 0 59 18.5t41 45.5v360l107 22v-384q0 -28 7 -51.5t13 -32.5t11 -13z" />
    <glyph glyph-name="nu" unicode="&#x3bd;" horiz-adv-x="483" 
d="M473 506l-184 -508h-97l-182 504l113 16l88 -273q15 -46 31 -113h2q9 54 30 117l84 257h115z" />
    <glyph glyph-name="xi" unicode="&#x3be;" horiz-adv-x="491" 
d="M480 692l-15 -95h-156q-44 0 -72.5 -33t-28.5 -71t28 -62.5t72 -24.5h108l-14 -83h-86q-68 0 -104.5 -35.5t-36.5 -87.5q0 -89 102 -89h58q69 0 102.5 -38t33.5 -99q0 -74 -83 -182l-62 41q41 58 41 105q0 62 -61 62h-59q-87 0 -140 49t-53 128q0 67 39.5 120t97.5 67
q-42 13 -71 47t-29 77q0 33 20 66t46 43h-90l16 95h397z" />
    <glyph glyph-name="omicron" unicode="&#x3bf;" horiz-adv-x="547" 
d="M497 251q0 -122 -60.5 -193t-163.5 -71t-163 71.5t-60 193.5q0 121 60 193.5t161 72.5q106 0 166 -72.5t60 -194.5zM376 249q0 102 -26.5 144t-77.5 42q-52 0 -76 -42t-24 -134q0 -106 25.5 -148t77.5 -42q101 0 101 180z" />
    <glyph glyph-name="pi" unicode="&#x3c0;" horiz-adv-x="561" 
d="M540 506l-30 -80h-45v-264q0 -50 8 -70.5t38 -41.5l-57 -70q-30 12 -48 27q-50 44 -50 123v296h-152v-426h-109v426h-60v80h505z" />
    <glyph glyph-name="rho" unicode="&#x3c1;" horiz-adv-x="534" 
d="M485 259q0 -70 -18 -128t-65 -99.5t-118 -41.5q-67 0 -120 41q2 -14 2 -50v-169l-109 -27v489q0 244 210 244q99 0 158.5 -68.5t59.5 -190.5zM367 253q0 96 -25.5 139t-75.5 43q-100 0 -100 -149v-164q47 -45 93 -45q56 0 82 43t26 133z" />
    <glyph glyph-name="sigma1" unicode="&#x3c2;" horiz-adv-x="466" 
d="M432 -32q0 -31 -14 -65t-29 -56t-40 -54l-62 41q41 56 41 102q0 35 -31 50q-6 3 -37.5 12.5t-35.5 10.5q-169 57 -169 242q0 130 65.5 199t157.5 69q81 0 140 -55l-55 -73q-43 39 -85 39q-55 0 -80 -51q-21 -43 -21 -139q0 -49 30 -84t74 -50q87 -29 107 -43
q44 -32 44 -95z" />
    <glyph glyph-name="sigma" unicode="&#x3c3;" horiz-adv-x="557" 
d="M548 506l-29 -78h-85q62 -63 62 -177q0 -118 -59 -191t-165 -73q-102 0 -162 71.5t-60 193.5q0 120 59.5 187t161.5 67h277zM375 249q0 90 -23.5 134.5t-79.5 44.5q-101 0 -101 -169q0 -93 23 -141.5t81 -48.5q100 0 100 180z" />
    <glyph glyph-name="tau" unicode="&#x3c4;" horiz-adv-x="414" 
d="M399 506l-29 -79h-118v-281q0 -47 13 -64t49 -17q21 0 48 10l13 -66q-48 -22 -98 -22q-133 0 -133 138v302h-129v79h384z" />
    <glyph glyph-name="upsilon" unicode="&#x3c5;" horiz-adv-x="544" 
d="M467 160q0 -80 -50.5 -127t-146.5 -47q-94 0 -142 46t-48 125v341l108 20v-345q0 -103 86 -103q87 0 87 104v324l106 20v-358z" />
    <glyph glyph-name="phi" unicode="&#x3c6;" horiz-adv-x="688" 
d="M639 251q0 -106 -62 -179t-179 -84v-176l-108 -27v203q-112 10 -176.5 81.5t-64.5 184.5q0 100 53 171t143 90v-82q-76 -36 -76 -173q0 -163 121 -188v441q38 5 74 5q126 0 200.5 -71.5t74.5 -195.5zM519 249q0 166 -121 185v-362q60 12 90.5 59t30.5 118z" />
    <glyph glyph-name="chi" unicode="&#x3c7;" horiz-adv-x="487" 
d="M492 0h-138q-48 77 -110 189q-14 -28 -54.5 -97.5t-55.5 -91.5h-139l188 274l-146 217l119 24q53 -87 92 -164q11 27 40 83.5t40 71.5h128l-149 -230z" />
    <glyph glyph-name="psi" unicode="&#x3c8;" horiz-adv-x="679" 
d="M609 226q0 -108 -57 -169t-158 -66v-179l-108 -27v206q-99 5 -158 64t-59 175v268l108 20v-299q0 -58 26.5 -96.5t82.5 -46.5v522q0 68 -11 114l111 24q8 -43 8 -105v-555q53 7 81 43t28 94v285l106 20v-292z" />
    <glyph glyph-name="omega" unicode="&#x3c9;" horiz-adv-x="693" 
d="M644 200q0 -92 -45 -152t-130 -60q-82 0 -122 81q-40 -81 -123 -81q-85 0 -130 60t-45 152q0 189 136 322l62 -36q-79 -109 -79 -258q0 -72 19 -108t50 -36q23 0 39 26t16 72v196h109v-196q0 -47 15 -72.5t40 -25.5q31 0 50 36t19 108q0 149 -76 256l59 40
q136 -133 136 -324z" />
    <glyph glyph-name="iotadieresis" unicode="&#x3ca;" horiz-adv-x="280" 
d="M262 1q-30 -12 -66 -12q-32 0 -54 11.5t-33 25.5t-17 37.5t-6.5 36.5t-0.5 32v250q0 73 -10 110l111 25q11 -46 11 -120v-229q0 -74 11 -91q5 -7 15.5 -9.5t20.5 1.5zM114 630q0 -29 -19.5 -49.5t-47.5 -20.5t-47.5 20.5t-19.5 49.5t19.5 49.5t47.5 20.5t47.5 -20.5
t19.5 -49.5zM300 630q0 -29 -19.5 -49.5t-47.5 -20.5t-47.5 20.5t-19.5 49.5t19.5 49.5t47.5 20.5t47.5 -20.5t19.5 -49.5z" />
    <glyph glyph-name="upsilondieresis" unicode="&#x3cb;" horiz-adv-x="544" 
d="M467 160q0 -80 -50.5 -127t-146.5 -47q-94 0 -142 46t-48 125v341l108 20v-345q0 -103 86 -103q87 0 87 104v324l106 20v-358zM444 630q0 -29 -20 -49.5t-48 -20.5t-47.5 20.5t-19.5 49.5t20 49.5t48 20.5q27 0 47 -20.5t20 -49.5zM235 630q0 -29 -19.5 -49.5
t-47.5 -20.5t-47.5 20.5t-19.5 49.5t19.5 49.5t47.5 20.5t47.5 -20.5t19.5 -49.5z" />
    <glyph glyph-name="omicrontonos" unicode="&#x3cc;" horiz-adv-x="547" 
d="M497 251q0 -122 -60.5 -193t-163.5 -71t-163 71.5t-60 193.5q0 121 60 193.5t161 72.5q106 0 166 -72.5t60 -194.5zM376 249q0 102 -26.5 144t-77.5 42q-52 0 -76 -42t-24 -134q0 -106 25.5 -148t77.5 -42q101 0 101 180zM399 749l-101 -195l-62 26l69 206z" />
    <glyph glyph-name="upsilontonos" unicode="&#x3cd;" horiz-adv-x="544" 
d="M472 160q0 -80 -50.5 -127t-146.5 -47q-94 0 -142 46t-48 125v341l108 20v-345q0 -103 86 -103q87 0 87 104v324l106 20v-358zM406 749l-101 -195l-62 26l69 206z" />
    <glyph glyph-name="omegatonos" unicode="&#x3ce;" horiz-adv-x="693" 
d="M649 200q0 -92 -45 -152t-130 -60q-82 0 -122 81q-40 -81 -123 -81q-85 0 -130 60t-45 152q0 189 136 322l62 -36q-79 -109 -79 -258q0 -72 19 -108t50 -36q23 0 39 26t16 72v196h109v-196q0 -47 15 -72.5t40 -25.5q31 0 50 36t19 108q0 149 -76 256l59 40
q136 -133 136 -324zM481 749l-101 -195l-62 26l69 206z" />
    <glyph glyph-name="uni03D0" unicode="&#x3d0;" horiz-adv-x="582" 
d="M538 197q0 -84 -55.5 -147t-167.5 -63q-38 0 -73.5 16t-58.5 45q-7 -36 -14 -48h-100q13 35 13 114v363q0 238 213 238q87 0 142.5 -50.5t55.5 -125.5q0 -54 -27 -94t-77 -56q70 -17 109.5 -69.5t39.5 -122.5zM419 195q0 72 -36.5 107.5t-121.5 35.5h-15l15 79h8
q115 0 115 114q0 47 -23 75t-71 28q-53 0 -76 -36t-23 -110v-361q21 -23 53.5 -39.5t58.5 -16.5q57 0 86.5 35t29.5 89z" />
    <glyph glyph-name="theta1" unicode="&#x3d1;" horiz-adv-x="568" 
d="M62 187q0 50 -12 92l102 15q13 -35 13 -108q0 -56 26 -86.5t72 -30.5q123 0 134 227q-43 6 -78.5 14t-77 20t-73 30t-58 41.5t-41 56t-14.5 71.5q0 79 58 132.5t138 53.5q128 0 197.5 -99.5t69.5 -257.5q0 -188 -66 -279.5t-187 -91.5q-91 0 -147 51t-56 149zM164 521
q0 -37 16 -62.5t51 -41.5t70 -24t94 -17q0 42 -6.5 83t-20.5 82t-42 66t-67 25q-40 0 -67.5 -28.5t-27.5 -82.5z" />
    <glyph glyph-name="Upsilon1" unicode="&#x3d2;" horiz-adv-x="500" 
d="M309 237v-237h-119v237q0 246 -205 372l64 90q161 -95 204 -252q48 160 204 252l58 -85q-206 -126 -206 -377z" />
    <glyph glyph-name="uni03D3" unicode="&#x3d3;" horiz-adv-x="500" 
d="M309 237v-237h-119v237q0 246 -205 372l64 90q161 -95 204 -252q48 160 204 252l58 -85q-206 -126 -206 -377zM-69 665l-101 -195l-62 26l69 206z" />
    <glyph glyph-name="uni03D4" unicode="&#x3d4;" horiz-adv-x="500" 
d="M309 237v-237h-119v237q0 246 -205 372l64 90q161 -95 204 -252q48 160 204 252l58 -85q-206 -126 -206 -377zM422 816q0 -29 -20 -49.5t-48 -20.5t-47.5 20.5t-19.5 49.5t20 49.5t48 20.5q27 0 47 -20.5t20 -49.5zM212 816q0 -29 -19.5 -49.5t-47.5 -20.5t-47.5 20.5
t-19.5 49.5t19.5 49.5t47.5 20.5t47.5 -20.5t19.5 -49.5z" />
    <glyph glyph-name="phi1" unicode="&#x3d5;" horiz-adv-x="683" 
d="M634 251q0 -105 -61 -177.5t-178 -84.5v-181l-108 -24v205q-111 10 -174.5 80.5t-63.5 182.5q0 114 63.5 183.5t174.5 79.5v83q0 73 -10 114l110 24q8 -43 8 -105v-116q111 -10 175 -79.5t64 -184.5zM287 74v358q-118 -21 -118 -178q0 -155 118 -180zM513 249
q0 163 -118 183v-358q118 26 118 175z" />
    <glyph glyph-name="uni0400" unicode="&#x400;" horiz-adv-x="509" 
d="M479 0h-394v692h384l-15 -94h-252v-189h211v-95h-211v-216h277v-98zM384 783l-34 -63l-220 102l50 93z" />
    <glyph glyph-name="afii10023" unicode="&#x401;" horiz-adv-x="509" 
d="M479 0h-394v692h384l-15 -94h-252v-189h211v-95h-211v-216h277v-98zM233 790q0 -29 -19.5 -49.5t-47.5 -20.5t-47.5 20.5t-19.5 49.5t19.5 49.5t47.5 20.5t47.5 -20.5t19.5 -49.5zM442 790q0 -29 -19.5 -49.5t-47.5 -20.5t-47.5 20.5t-19.5 49.5t19.5 49.5t47.5 20.5
t47.5 -20.5t19.5 -49.5z" />
    <glyph glyph-name="afii10051" unicode="&#x402;" horiz-adv-x="669" 
d="M475 692l-14 -96h-186v-192q71 33 135 33q82 0 132 -46q62 -58 62 -178q0 -115 -55 -175q-46 -50 -121 -50q-47 0 -100 22l20 83q29 -18 64 -18q34 0 51 24q19 28 19 111q0 78 -23 106q-25 31 -77 31q-53 0 -107 -27v-320h-115v596h-165v96h480z" />
    <glyph glyph-name="afii10052" unicode="&#x403;" horiz-adv-x="429" 
d="M442 692l-15 -95h-227v-597h-116v692h358zM402 824l-220 -102l-34 63l204 132z" />
    <glyph glyph-name="afii10053" unicode="&#x404;" horiz-adv-x="601" 
d="M407 403v-90h-224v-9q0 -128 45 -179q40 -45 120 -45q86 0 149 54l49 -74q-35 -31 -84 -49q-57 -21 -120 -21q-132 0 -206 78q-81 86 -81 265q0 198 95 292q79 77 201 77q106 0 185 -57l-51 -78q-56 45 -135 45q-73 0 -115 -42q-50 -50 -50 -158v-9h222z" />
    <glyph glyph-name="afii10054" unicode="&#x405;" horiz-adv-x="597" 
d="M547 209q0 -92 -72 -157t-198 -65q-124 0 -227 62l44 88q98 -57 187 -57q64 0 100 29t36 81q0 74 -103 103l-74 21q-97 28 -134 83q-29 43 -29 101q0 91 65.5 148t169.5 57q125 0 219 -66l-52 -81q-89 53 -163 53q-51 0 -82 -25.5t-31 -68.5q0 -32 20.5 -51t71.5 -34
l82 -24q79 -23 124.5 -72.5t45.5 -124.5z" />
    <glyph glyph-name="afii10055" unicode="&#x406;" horiz-adv-x="288" 
d="M203 0h-118v692h118v-692z" />
    <glyph glyph-name="afii10056" unicode="&#x407;" horiz-adv-x="288" 
d="M203 0h-118v692h118v-692zM106 791q0 -29 -19.5 -49.5t-47.5 -20.5t-47.5 20.5t-19.5 49.5t19.5 49.5t47.5 20.5t47.5 -20.5t19.5 -49.5zM315 791q0 -29 -19.5 -49.5t-47.5 -20.5t-47.5 20.5t-19.5 49.5t19.5 49.5t47.5 20.5t47.5 -20.5t19.5 -49.5z" />
    <glyph glyph-name="afii10057" unicode="&#x408;" horiz-adv-x="293" 
d="M208 128q0 -83 -9 -122t-32 -71q-41 -57 -117 -85l-54 61q58 32 80 78q16 33 16 129v574h116v-564z" />
    <glyph glyph-name="afii10058" unicode="&#x409;" horiz-adv-x="911" 
d="M404 0v598h-147l-5 -112q-6 -154 -24 -287q-15 -110 -59 -154q-41 -40 -122 -50l-31 -4l-21 81l20 5q38 10 61 32q20 19 32 51.5t15 55.5t9 77q13 134 17 286l3 113h367v-278h96q118 0 177 -46q74 -58 74 -162q0 -88 -53 -141q-65 -65 -208 -65h-201zM519 94h75
q80 0 113 32q31 31 31 82t-30 81q-31 31 -98 31h-91v-226z" />
    <glyph glyph-name="afii10059" unicode="&#x40a;" horiz-adv-x="943" 
d="M436 0v320h-236v-320h-115v692h115v-278h236v278h115v-278h96q118 0 177 -46q74 -58 74 -162q0 -88 -53 -141q-65 -65 -208 -65h-201zM551 94h75q80 0 113 32q31 31 31 82t-30 81q-31 31 -98 31h-91v-226z" />
    <glyph glyph-name="afii10060" unicode="&#x40b;" horiz-adv-x="663" 
d="M476 692l-15 -96h-186v-193q73 34 143 34q86 0 135 -45q45 -43 45 -120v-272h-115v241q0 55 -25 81q-23 25 -71 25q-51 0 -112 -27v-320h-115v596h-165v96h481z" />
    <glyph glyph-name="afii10061" unicode="&#x40c;" horiz-adv-x="620" 
d="M560 701l22 -79l-32 -8q-30 -8 -39 -17q-13 -13 -21 -45l-18 -72q-14 -59 -41 -84q-21 -19 -49 -28v-2q26 -9 43 -25q30 -28 44 -79l31 -111q10 -38 23 -49q13 -13 42 -21l30 -9l-21 -81l-38 4q-80 9 -110 39q-23 23 -35 81l-25 115q-12 50 -32 68q-23 21 -68 21h-66
v-319h-115v692h115v-279h76q47 0 70 22q16 16 28 65l19 84q12 55 37 79q22 22 82 31zM464 822l-220 -102l-34 63l204 132z" />
    <glyph glyph-name="uni040D" unicode="&#x40d;" horiz-adv-x="655" 
d="M570 0h-115v397q0 58 6 140q-20 -58 -50 -120l-207 -417h-119v692h115v-401q0 -53 -7 -132q19 57 53 126l200 407h124v-692zM450 783l-34 -63l-220 102l50 93z" />
    <glyph glyph-name="afii10062" unicode="&#x40e;" horiz-adv-x="529" 
d="M123 692l112 -294q28 -74 41 -124q13 53 44 143l93 275h121l-188 -523q-40 -113 -72 -143q-39 -36 -120 -48l-29 -4l-21 84l19 5q53 15 76 39q20 21 37 72l11 32l-56 -7l-196 493h128zM376 877l57 -32q-12 -33 -36 -59q-42 -44 -119 -44t-122 47q-21 21 -35 56l57 31
q13 -25 39 -41q24 -15 60 -15t60 15q25 15 39 42z" />
    <glyph glyph-name="afii10145" unicode="&#x40f;" horiz-adv-x="625" 
d="M85 692h115v-598h225v598h115v-692h-173v-176h-108v176h-174v692z" />
    <glyph glyph-name="afii10017" unicode="&#x410;" horiz-adv-x="587" 
d="M584 0h-126l-56 182h-224l-56 -182h-119l227 693h133zM376 278q-5 11 -41.5 145t-40.5 155h-1q-63 -231 -87 -300h170z" />
    <glyph glyph-name="afii10018" unicode="&#x411;" horiz-adv-x="609" 
d="M85 692h416l-15 -94h-286v-184h96q39 0 64 -2t67.5 -16t70.5 -42q56 -55 56 -152q0 -88 -49 -138q-62 -64 -214 -64h-206v692zM200 94h98q65 0 98 31q30 29 30 83t-30 82q-31 30 -98 30h-98v-226z" />
    <glyph glyph-name="afii10019" unicode="&#x412;" horiz-adv-x="611" 
d="M556 196q0 -196 -270 -196h-201v692h183q77 0 113.5 -7t68.5 -27q78 -50 78 -136q0 -56 -31 -95.5t-88 -55.5q79 -19 113 -67t34 -108zM429 207q0 37 -18 65t-47 36q-20 6 -64 6h-101v-219h104q63 0 94.5 31t31.5 81zM407 504q0 30 -15.5 53.5t-40.5 32.5q-22 8 -65 8
h-87v-189h96q34 0 51.5 5t33.5 21q27 28 27 69z" />
    <glyph glyph-name="afii10020" unicode="&#x413;" horiz-adv-x="429" 
d="M442 692l-15 -95h-227v-597h-116v692h358z" />
    <glyph glyph-name="afii10021" unicode="&#x414;" horiz-adv-x="646" 
d="M545 692v-598h54v-269h-108v175h-373v-175h-108v269h45q61 121 89 252q22 103 29 267l3 79h369zM272 600l-5 -80q-8 -128 -30 -221q-26 -105 -78 -205h271v506h-158z" />
    <glyph glyph-name="afii10022" unicode="&#x415;" horiz-adv-x="509" 
d="M479 0h-394v692h384l-15 -94h-252v-189h211v-95h-211v-216h277v-98z" />
    <glyph glyph-name="afii10024" unicode="&#x416;" horiz-adv-x="901" 
d="M845 702l23 -79l-33 -8q-23 -5 -38 -19q-12 -12 -21 -45l-21 -78q-16 -55 -39 -78q-18 -18 -46 -28v-2q26 -9 43 -26q27 -26 42 -77l30 -107q10 -39 25 -54t52 -24l19 -5l-21 -81l-46 5q-70 7 -98 35t-41 93l-21 99q-11 56 -31 75q-22 21 -71 21h-44v-319h-115v319h-44
q-49 0 -71 -21q-20 -19 -31 -75l-21 -99q-13 -65 -41 -93t-98 -35l-46 -5l-21 81l19 5q37 9 52 24t25 54l30 107q15 51 42 77q18 17 43 26v2q-28 10 -46 28q-23 23 -39 78l-21 78q-10 34 -21 45q-15 14 -38 19l-33 8l23 79l38 -6q3 -1 14.5 -2.5t15.5 -2.5t13.5 -3t14 -4
t12 -5.5t13 -7.5t11.5 -10q22 -20 32 -68l21 -93q12 -49 30 -66q23 -21 64 -21h58v279h115v-279h58q41 0 64 21q18 17 30 66l21 93q10 48 32 68q6 6 11.5 10t13 7.5t12 5.5t14 4t13.5 3t15.5 2.5t14.5 2.5z" />
    <glyph glyph-name="afii10025" unicode="&#x417;" horiz-adv-x="562" 
d="M229 313h-63v88h70q57 0 88 27q31 28 31 80q0 47 -29 74q-30 30 -89 30q-43 0 -77 -15q-28 -12 -51 -31l-54 76q38 27 85 43q51 17 116 17q96 0 153 -41q71 -52 71 -143q0 -69 -44 -112q-29 -29 -72 -42q61 -11 98 -48q45 -45 45 -117q0 -84 -57 -141q-67 -68 -200 -68
q-78 0 -137 22q-37 14 -78 42l53 78q69 -52 156 -52q65 0 98 32t33 90q0 52 -31 81q-33 30 -115 30z" />
    <glyph glyph-name="afii10026" unicode="&#x418;" horiz-adv-x="655" 
d="M570 0h-115v397q0 58 6 140q-20 -58 -50 -120l-207 -417h-119v692h115v-401q0 -53 -7 -132q19 57 53 126l200 407h124v-692z" />
    <glyph glyph-name="afii10027" unicode="&#x419;" horiz-adv-x="655" 
d="M570 0h-115v397q0 58 6 140q-20 -58 -50 -120l-207 -417h-119v692h115v-401q0 -53 -7 -132q19 57 53 126l200 407h124v-692zM427 873l57 -32q-12 -33 -36 -59q-42 -44 -119 -44t-122 47q-21 21 -35 56l57 31q13 -25 39 -41q24 -15 60 -15t60 15q25 15 39 42z" />
    <glyph glyph-name="afii10028" unicode="&#x41a;" horiz-adv-x="620" 
d="M560 701l22 -79l-32 -8q-30 -8 -39 -17q-13 -13 -21 -45l-18 -72q-14 -59 -41 -84q-21 -19 -49 -28v-2q26 -9 43 -25q30 -28 44 -79l31 -111q10 -38 23 -49q13 -13 42 -21l30 -9l-21 -81l-38 4q-80 9 -110 39q-23 23 -35 81l-25 115q-12 50 -32 68q-23 21 -68 21h-66
v-319h-115v692h115v-279h76q47 0 70 22q16 16 28 65l19 84q12 55 37 79q22 22 82 31z" />
    <glyph glyph-name="afii10029" unicode="&#x41b;" horiz-adv-x="604" 
d="M257 598l-5 -112q-6 -154 -24 -287q-15 -110 -59 -154q-41 -40 -122 -50l-31 -4l-21 81l20 5q38 10 61 32q26 25 37 63.5t19 120.5q13 134 17 286l3 113h367v-692h-115v598h-147z" />
    <glyph glyph-name="afii10030" unicode="&#x41c;" horiz-adv-x="826" 
d="M761 0h-113l-32 429q-5 73 -5 120q-16 -74 -27 -111l-126 -438h-98l-115 419q-19 66 -30 131q0 -32 -7 -132l-30 -418h-113l63 692h153l106 -392q11 -41 26 -118q7 50 25 116l109 394h153z" />
    <glyph glyph-name="afii10031" unicode="&#x41d;" horiz-adv-x="636" 
d="M551 0h-116v320h-236v-320h-114v692h114v-278h236v278h116v-692z" />
    <glyph glyph-name="afii10032" unicode="&#x41e;" horiz-adv-x="688" 
d="M633 345q0 -164 -75 -260t-209 -96q-143 0 -218.5 98.5t-75.5 258.5q0 168 78.5 262t210.5 94q141 0 215 -99t74 -258zM502 338q0 136 -35.5 205.5t-123.5 69.5q-84 0 -122 -65.5t-38 -194.5q0 -138 38.5 -207.5t124.5 -69.5q79 0 117.5 62.5t38.5 199.5z" />
    <glyph glyph-name="afii10033" unicode="&#x41f;" horiz-adv-x="616" 
d="M531 0h-115v598h-216v-598h-115v692h446v-692z" />
    <glyph glyph-name="afii10034" unicode="&#x420;" horiz-adv-x="565" 
d="M540 485q0 -100 -64 -160.5t-160 -60.5h-117v-264h-114v692h184q73 0 109.5 -7.5t66.5 -25.5q95 -56 95 -174zM413 478q0 58 -28 87q-32 34 -96 34h-90v-243h90q124 0 124 122z" />
    <glyph glyph-name="afii10035" unicode="&#x421;" horiz-adv-x="577" 
d="M542 50q-80 -61 -189 -61q-136 0 -219 100q-79 96 -79 247q0 124 46 210q39 74 106.5 116.5t148.5 42.5q107 0 172 -54l-53 -76q-53 39 -118 39q-91 0 -138 -83q-36 -63 -36 -182q0 -113 27 -172q45 -98 154 -98q69 0 124 44z" />
    <glyph glyph-name="afii10036" unicode="&#x422;" horiz-adv-x="484" 
d="M499 692l-15 -96h-174v-596h-115v596h-175v96h479z" />
    <glyph glyph-name="afii10037" unicode="&#x423;" horiz-adv-x="529" 
d="M123 692l112 -294q28 -74 41 -124q13 53 44 143l93 275h121l-188 -523q-40 -113 -72 -143q-39 -36 -120 -48l-29 -4l-21 84l19 5q53 15 76 39q20 21 37 72l11 32l-56 -7l-196 493h128z" />
    <glyph glyph-name="afii10038" unicode="&#x424;" horiz-adv-x="759" 
d="M437 0h-115v106h-10q-123 0 -190 69q-67 67 -67 191q0 132 69 199q66 65 189 65h9v103h115v-103h9q123 0 189 -65q69 -67 69 -199q0 -124 -67 -191q-67 -69 -190 -69h-10v-106zM432 550v-364h13q63 0 97 35q40 41 40 140q0 114 -41 155q-34 34 -96 34h-13zM327 550h-13
q-62 0 -96 -34q-41 -41 -41 -155q0 -99 40 -140q34 -35 97 -35h13v364z" />
    <glyph glyph-name="afii10039" unicode="&#x425;" horiz-adv-x="550" 
d="M555 0h-138l-143 274l-138 -274h-141l212 371l-186 321h140l111 -214l109 214h136l-176 -313z" />
    <glyph glyph-name="afii10040" unicode="&#x426;" horiz-adv-x="641" 
d="M85 692h115v-598h225v598h115v-598h54v-270h-108v176h-401v692z" />
    <glyph glyph-name="afii10041" unicode="&#x427;" horiz-adv-x="590" 
d="M505 0h-115v297q-67 -32 -149 -32q-90 0 -138 48q-43 43 -43 122v257h115v-225q0 -60 24 -85q25 -27 79 -27q56 0 112 24v313h115v-692z" />
    <glyph glyph-name="afii10042" unicode="&#x428;" horiz-adv-x="895" 
d="M200 692v-598h190v598h115v-598h190v598h115v-692h-725v692h115z" />
    <glyph glyph-name="afii10043" unicode="&#x429;" horiz-adv-x="895" 
d="M200 692v-598h190v598h115v-598h190v598h115v-598h54v-270h-108v176h-671v692h115z" />
    <glyph glyph-name="afii10044" unicode="&#x42a;" horiz-adv-x="711" 
d="M204 0v598h-199v94h314v-278h96q118 0 177 -46q74 -58 74 -162q0 -88 -53 -141q-65 -65 -208 -65h-201zM319 94h75q80 0 113 32q31 31 31 82t-30 81q-31 31 -98 31h-91v-226z" />
    <glyph glyph-name="afii10045" unicode="&#x42b;" horiz-adv-x="836" 
d="M85 0v692h115v-278h96q118 0 177 -46q74 -58 74 -162q0 -88 -53 -141q-65 -65 -208 -65h-201zM200 94h75q80 0 113 32q31 31 31 82t-30 81q-31 31 -98 31h-91v-226zM751 0h-118v692h118v-692z" />
    <glyph glyph-name="afii10046" unicode="&#x42c;" horiz-adv-x="592" 
d="M85 0v692h115v-278h96q118 0 177 -46q74 -58 74 -162q0 -88 -53 -141q-65 -65 -208 -65h-201zM200 94h75q80 0 113 32q31 31 31 82t-30 81q-31 31 -98 31h-91v-226z" />
    <glyph glyph-name="afii10047" unicode="&#x42d;" horiz-adv-x="585" 
d="M178 408h222v4q0 111 -51 161q-39 39 -112 39q-47 0 -82 -15q-31 -12 -55 -32l-48 76q36 27 76 42q49 19 111 19q120 0 197 -77q94 -95 94 -281q0 -181 -89 -272q-80 -82 -215 -82q-66 0 -121 22q-38 15 -70 42l53 80q27 -23 54 -36q38 -18 90 -18q81 0 121 47
q49 56 49 181v10h-224v90z" />
    <glyph glyph-name="afii10048" unicode="&#x42e;" horiz-adv-x="923" 
d="M200 414h111q11 136 86 214q71 74 188 74q116 0 188 -73q95 -96 95 -281q0 -187 -99 -286q-73 -72 -183 -72q-111 0 -179 67q-48 46 -72 118t-24 145h-111v-320h-115v692h115v-278zM740 346q0 178 -58 234q-36 34 -95 34t-95 -34q-58 -56 -58 -234t58 -234q36 -34 95 -34
t95 34q58 56 58 234z" />
    <glyph glyph-name="afii10049" unicode="&#x42f;" horiz-adv-x="616" 
d="M531 0h-115v294h-55q-63 0 -90 -25q-23 -21 -35 -75l-15 -72q-14 -65 -40 -91q-16 -16 -36 -22.5t-59 -11.5l-50 -6l-21 81l25 7q32 9 46 22q16 14 27 54l19 74q13 52 40 79q23 23 58 32v3q-60 12 -96 46q-46 46 -46 120q0 77 50 125q60 58 184 58h209v-692zM416 600h-83
q-64 0 -94 -30q-28 -26 -28 -76q0 -53 31 -81q31 -27 103 -27h71v214z" />
    <glyph glyph-name="afii10065" unicode="&#x430;" horiz-adv-x="525" 
d="M483 49l-57 -70q-51 20 -69 68q-55 -62 -139 -62t-126 41.5t-42 110.5q0 87 64 131.5t186 44.5h34v27q0 48 -14 68.5t-56 20.5q-29 0 -64.5 -13t-54.5 -24t-32 -21l-49 79q109 69 215 69q120 0 154 -84q9 -23 8 -124l-2 -145q-1 -52 7 -74.5t37 -42.5zM332 238h-8
q-8 1 -12 1q-80 0 -111.5 -23t-31.5 -73q0 -36 18.5 -57t51.5 -21q55 0 91 53z" />
    <glyph glyph-name="afii10066" unicode="&#x431;" horiz-adv-x="553" 
d="M446 774l40 -89q-21 -14 -57 -30q-10 -4 -59 -24l-131 -54q-77 -32 -90 -126l-4 -31l5 -1q19 34 50 56q44 31 102 31q87 0 144 -67q57 -70 57 -190t-60 -191q-62 -71 -165 -71q-102 0 -162 71q-27 32 -41.5 77.5t-17 81t-2.5 91.5q0 134 24 208q19 59 61 101
q43 41 109 69l158 67zM279 424q-51 0 -76 -42q-26 -43 -26 -136q0 -90 26 -135q25 -42 76 -42t76 42q26 43 26 135t-26 136q-25 42 -76 42z" />
    <glyph glyph-name="afii10067" unicode="&#x432;" horiz-adv-x="536" 
d="M80 506h210q91 0 131 -40q33 -33 33 -88q0 -47 -28 -78q-21 -23 -50 -32q39 -7 66 -34q34 -34 34 -88q0 -66 -41 -105q-47 -41 -129 -41h-226v506zM189 227v-153h80q49 0 72 20q20 18 20 53q0 46 -26 65q-20 15 -66 15h-80zM189 432v-133h71q46 0 67 20q18 17 18 47
q0 33 -19 50q-18 16 -62 16h-75z" />
    <glyph glyph-name="afii10068" unicode="&#x433;" horiz-adv-x="421" 
d="M196 424v-424h-111v506h316l-13 -82h-192z" />
    <glyph glyph-name="afii10069" unicode="&#x434;" horiz-adv-x="534" 
d="M509 82v-225h-102v143h-295v-143h-102v225h39q44 79 66 167q19 80 21 183l2 74h308v-424h63zM337 426h-113l-2 -47q-3 -84 -21 -159q-16 -64 -54 -138h190v344z" />
    <glyph glyph-name="afii10070" unicode="&#x435;" horiz-adv-x="523" 
d="M478 223h-302v-8q0 -62 28.5 -103t96.5 -41t126 50l43 -67q-79 -67 -182 -67q-107 0 -170 71.5t-63 193.5q0 126 63 198q59 68 155 68q82 0 139 -52q66 -60 66 -220v-23zM364 304q0 61 -24.5 96t-66.5 35q-46 0 -71 -34.5t-25 -96.5h187z" />
    <glyph glyph-name="afii10072" unicode="&#x436;" horiz-adv-x="723" 
d="M307 497l109 21v-212h39q30 0 46 16q12 12 19 46l12 56q8 39 30 61q24 24 68 27l47 4l20 -75l-26 -5q-19 -4 -28 -13q-8 -7 -15 -29l-18 -58q-9 -29 -24 -44t-42 -23v-2q21 -6 38 -22q17 -17 31 -57l21 -63q11 -32 20 -39q14 -12 41 -18l13 -3l-20 -75l-38 3
q-63 4 -90 30q-20 19 -31 67l-12 60q-10 45 -24 59q-16 15 -51 15h-26v-224h-109v224h-26q-35 0 -51 -15q-14 -14 -24 -59l-12 -60q-11 -48 -31 -67q-27 -26 -90 -30l-38 -3l-20 75l13 3q27 6 41 18q9 7 20 39l21 63q14 40 31 57q17 16 38 22v2q-26 7 -42 23q-13 12 -23 41
l-19 61q-7 22 -15 29q-9 9 -28 13l-26 5l20 75l47 -4q44 -3 68 -27q22 -22 30 -61l12 -56q7 -34 19 -46q16 -16 46 -16h39v191z" />
    <glyph glyph-name="afii10073" unicode="&#x437;" horiz-adv-x="458" 
d="M137 306h58q44 0 65 20q18 17 18 44q0 28 -17 44q-23 21 -65 21q-32 0 -65 -13q-20 -8 -46 -26l-44 69q35 24 70 37q45 17 105 17q92 0 139 -45q39 -37 39 -94q0 -49 -35 -83q-20 -20 -49 -29q37 -9 64 -36q34 -34 34 -85q0 -66 -45 -109q-53 -51 -154 -51q-83 0 -138 31
q-25 15 -46 32l48 71q23 -20 50 -33q35 -17 74 -17q44 0 67 21t23 55t-21 53q-24 22 -75 22h-54v84z" />
    <glyph glyph-name="afii10074" unicode="&#x438;" horiz-adv-x="570" 
d="M80 0v498l109 21v-265q0 -46 -4 -114h2q24 65 54 118l135 241l114 20v-519h-109v230q0 72 5 131h-2q-19 -54 -51 -112l-139 -249h-114z" />
    <glyph glyph-name="afii10075" unicode="&#x439;" horiz-adv-x="570" 
d="M80 0v498l109 21v-265q0 -46 -4 -114h2q24 65 54 118l135 241l114 20v-519h-109v230q0 72 5 131h-2q-19 -54 -51 -112l-139 -249h-114zM389 699l55 -31q-19 -53 -56 -77q-41 -31 -104 -31t-104 31q-37 24 -56 77l55 31q12 -17 21 -27q31 -33 86 -33q51 0 82 33
q9 10 21 27z" />
    <glyph glyph-name="afii10076" unicode="&#x43a;" horiz-adv-x="528" 
d="M80 0v497l109 21v-212h47q40 0 56 15q14 14 21 47l13 57q8 38 27 58q21 23 81 29l37 4l20 -75l-25 -5q-18 -3 -28 -12t-18 -34l-16 -54q-8 -29 -25 -46q-16 -16 -40 -21v-2q19 -5 37 -20q19 -19 30 -54l25 -75q7 -23 19 -34q10 -10 33 -15l20 -4l-20 -75l-34 3
q-71 6 -96 30q-21 21 -31 67l-16 71q-8 37 -23 50t-49 13h-45v-224h-109z" />
    <glyph glyph-name="afii10077" unicode="&#x43b;" horiz-adv-x="539" 
d="M142 506h317v-506h-109v424h-114l-4 -55q-4 -63 -9 -117q-9 -93 -15 -129q-9 -62 -39 -92q-32 -31 -105 -38l-27 -3l-22 75l22 5q31 8 49 26q6 6 11 14t8.5 18.5t6 19t4 23.5t2.5 23t2.5 26t2.5 26q6 59 13 165z" />
    <glyph glyph-name="afii10078" unicode="&#x43c;" horiz-adv-x="695" 
d="M105 506h134l81 -266q23 -77 26 -93q7 28 26 91l83 268h134l51 -506h-103l-25 295q-2 34 -2 85h-4q-11 -53 -20 -78l-99 -302h-87l-92 293q-16 48 -23 87h-4q0 -61 -2 -81l-23 -299h-101z" />
    <glyph glyph-name="afii10079" unicode="&#x43d;" horiz-adv-x="549" 
d="M196 0h-111v498l111 20v-208h162v188l111 20v-518h-111v227h-162v-227z" />
    <glyph glyph-name="afii10080" unicode="&#x43e;" horiz-adv-x="547" 
d="M497 251q0 -122 -60.5 -193t-163.5 -71t-163 71.5t-60 193.5q0 121 60 193.5t161 72.5q106 0 166 -72.5t60 -194.5zM376 249q0 102 -26.5 144t-77.5 42q-52 0 -76 -42t-24 -134q0 -106 25.5 -148t77.5 -42q101 0 101 180z" />
    <glyph glyph-name="afii10081" unicode="&#x43f;" horiz-adv-x="540" 
d="M189 0h-109v506h380v-506h-109v424h-162v-424z" />
    <glyph glyph-name="afii10082" unicode="&#x440;" horiz-adv-x="565" 
d="M510 264q0 -127 -52.5 -200.5t-148.5 -73.5q-67 0 -120 41q0 -1 0.5 -8.5t1 -19t0.5 -22.5v-169l-106 -27v590q0 73 -10 126l101 18q7 -23 8 -62q49 60 135 60q82 0 136.5 -64t54.5 -189zM392 252q0 89 -21 131.5t-73 42.5q-61 0 -107 -52v-252q45 -45 94 -45
q55 0 81 42.5t26 132.5z" />
    <glyph glyph-name="afii10083" unicode="&#x441;" horiz-adv-x="467" 
d="M432 54q-67 -67 -162 -67q-103 0 -159 68.5t-56 191.5q0 130 65.5 201t157.5 71q81 0 140 -55l-55 -73q-43 39 -85 39q-55 0 -80 -51q-21 -43 -21 -141q0 -101 34 -138q26 -29 67 -29q52 0 102 50z" />
    <glyph glyph-name="afii10084" unicode="&#x442;" horiz-adv-x="390" 
d="M245 424v-424h-109v424h-136v82h390l-14 -82h-131z" />
    <glyph glyph-name="afii10085" unicode="&#x443;" horiz-adv-x="493" 
d="M483 506l-179 -517q-34 -100 -73.5 -144.5t-123.5 -60.5l-36 71q55 15 85.5 45.5t51.5 99.5h-35q-12 49 -48 157l-115 341l112 19l93 -308q4 -13 10.5 -39l12.5 -50l5 -25q19 76 38 137l84 274h118z" />
    <glyph glyph-name="afii10086" unicode="&#x444;" horiz-adv-x="749" 
d="M429 737v-255q41 36 96 36q72 0 119 -59q55 -69 55 -198q0 -135 -51 -206q-49 -68 -130 -68q-53 0 -89 30v-205l-109 -27v232q-36 -30 -89 -30q-81 0 -130 68q-51 71 -51 206q0 129 55 198q47 59 119 59q55 0 96 -36v230zM429 398v-295q30 -28 69 -28q41 0 63 34t22 152
q0 106 -24 139q-22 30 -58 30q-37 0 -72 -32zM320 103v295q-35 32 -72 32q-36 0 -58 -30q-24 -33 -24 -139q0 -118 22 -152t63 -34q39 0 69 28z" />
    <glyph glyph-name="afii10087" unicode="&#x445;" horiz-adv-x="487" 
d="M492 0h-138q-48 77 -110 189q-14 -28 -54.5 -97.5t-55.5 -91.5h-139l188 274l-146 217l119 24q53 -87 92 -164q11 27 40 83.5t40 71.5h128l-149 -230z" />
    <glyph glyph-name="afii10088" unicode="&#x446;" horiz-adv-x="548" 
d="M346 497l109 21v-436h48v-225h-96v143h-327v497l109 21v-436h157v415z" />
    <glyph glyph-name="afii10089" unicode="&#x447;" horiz-adv-x="499" 
d="M310 497l109 21v-518h-109v202q-53 -21 -104 -21q-80 0 -120 40q-36 36 -36 107v169l109 21v-178q0 -43 20 -61q18 -16 55 -16q43 0 76 17v217z" />
    <glyph glyph-name="afii10090" unicode="&#x448;" horiz-adv-x="763" 
d="M80 497l109 21v-436h138v415l109 21v-436h138v415l109 21v-518h-603v497z" />
    <glyph glyph-name="afii10091" unicode="&#x449;" horiz-adv-x="763" 
d="M80 497l109 21v-436h138v415l109 21v-436h138v415l109 21v-436h48v-225h-96v143h-555v497z" />
    <glyph glyph-name="afii10092" unicode="&#x44a;" horiz-adv-x="563" 
d="M252 319h73q109 0 157 -49q41 -42 41 -113q0 -70 -39 -111q-45 -46 -150 -46h-191v424h-138v82h247v-187zM252 241v-163h63q50 0 72 22q20 20 20 58q0 41 -21 61q-23 22 -74 22h-60z" />
    <glyph glyph-name="afii10093" unicode="&#x44b;" horiz-adv-x="722" 
d="M80 497l109 21v-199h73q109 0 157 -49q41 -42 41 -113q0 -70 -39 -111q-45 -46 -150 -46h-191v497zM189 241v-163h63q50 0 72 22q20 20 20 58q0 41 -21 61q-23 22 -74 22h-60zM642 0h-111v498l111 20v-518z" />
    <glyph glyph-name="afii10094" unicode="&#x44c;" horiz-adv-x="500" 
d="M80 497l109 21v-199h73q109 0 157 -49q41 -42 41 -113q0 -70 -39 -111q-45 -46 -150 -46h-191v497zM189 241v-163h63q50 0 72 22q20 20 20 58q0 41 -21 61q-23 22 -74 22h-60z" />
    <glyph glyph-name="afii10095" unicode="&#x44d;" horiz-adv-x="477" 
d="M160 224v82h145v9q0 62 -31 95q-26 27 -72 27q-33 0 -61 -14q-21 -10 -39 -28l-53 66q27 25 66 41q40 17 93 17q93 0 147 -54q72 -71 72 -216q0 -136 -63 -202q-57 -60 -158 -60q-62 0 -109 23q-33 16 -62 45l53 65q8 -8 17.5 -15.5t15.5 -11.5l6 -4q31 -20 72 -20
q51 0 76 26q30 31 30 114v15h-145z" />
    <glyph glyph-name="afii10096" unicode="&#x44e;" horiz-adv-x="755" 
d="M189 307h81q3 94 63 156q56 56 147 56q94 0 151 -59q69 -69 69 -209q0 -141 -66 -208q-55 -56 -147 -56q-98 0 -154 58q-61 64 -64 180h-80v-225h-109v498l109 21v-212zM384 253q0 -124 35 -160q24 -24 61 -24t61 24q35 36 35 160t-35 160q-24 24 -61 24t-61 -24
q-35 -36 -35 -160z" />
    <glyph glyph-name="afii10097" unicode="&#x44f;" horiz-adv-x="524" 
d="M444 506v-506h-109v200h-46q-36 0 -53 -16q-12 -11 -22 -47l-14 -50q-13 -45 -30 -62q-26 -26 -82 -31l-49 -4l-19 75l16 4q24 6 39 18q12 11 22 40l15 45q10 30 26 44q19 19 42 23v2q-45 4 -77 36q-32 34 -32 87q0 61 39 98q46 44 147 44h187zM335 426h-63
q-46 0 -66 -19t-20 -53q0 -35 20 -54q24 -22 67 -22h62v148z" />
    <glyph glyph-name="uni0450" unicode="&#x450;" horiz-adv-x="523" 
d="M478 223h-302v-8q0 -62 28.5 -103t96.5 -41t126 50l43 -67q-79 -67 -182 -67q-107 0 -170 71.5t-63 193.5q0 126 63 198q59 68 155 68q82 0 139 -52q66 -60 66 -220v-23zM364 304q0 61 -24.5 96t-66.5 35q-46 0 -71 -34.5t-25 -96.5h187zM368 623l-34 -63l-220 102l50 93
z" />
    <glyph glyph-name="afii10071" unicode="&#x451;" horiz-adv-x="523" 
d="M478 223h-302v-8q0 -62 28.5 -103t96.5 -41t126 50l43 -67q-79 -67 -182 -67q-107 0 -170 71.5t-63 193.5q0 126 63 198q59 68 155 68q82 0 139 -52q66 -60 66 -220v-23zM364 304q0 61 -24.5 96t-66.5 35q-46 0 -71 -34.5t-25 -96.5h187zM234 630q0 -29 -19.5 -49.5
t-47.5 -20.5t-47.5 20.5t-19.5 49.5t19.5 49.5t47.5 20.5t47.5 -20.5t19.5 -49.5zM443 630q0 -29 -19.5 -49.5t-47.5 -20.5t-47.5 20.5t-19.5 49.5t19.5 49.5t47.5 20.5t47.5 -20.5t19.5 -49.5z" />
    <glyph glyph-name="afii10099" unicode="&#x452;" horiz-adv-x="589" 
d="M382 344q0 45 -15.5 63t-48.5 18q-62 0 -122 -62v-363h-111v556h-60v64h60q-1 53 -10 92l111 24q10 -41 10 -116h175l-23 -64h-152v-47q0 -12 -0.5 -25t-1 -22t-0.5 -10q73 66 155 66q43 0 76 -18t47 -44q17 -33 17 -99v-289q0 -43 -1.5 -70t-12 -66t-30.5 -67
q-39 -53 -98 -75l-48 64q34 21 53 51q20 29 25 57.5t5 77.5v304z" />
    <glyph glyph-name="afii10100" unicode="&#x453;" horiz-adv-x="421" 
d="M196 424v-424h-111v506h316l-13 -82h-192zM364 662l-220 -102l-34 63l204 132z" />
    <glyph glyph-name="afii10101" unicode="&#x454;" horiz-adv-x="482" 
d="M322 219h-145v-10q0 -83 30 -114q25 -26 76 -26q41 0 72 20l6 4q6 4 15.5 11.5t17.5 15.5l53 -65q-29 -29 -62 -45q-47 -23 -109 -23q-101 0 -158 60q-63 66 -63 202q0 145 72 216q54 54 147 54q53 0 93 -17q39 -16 66 -41l-53 -66q-18 18 -39 28q-28 14 -61 14
q-46 0 -72 -27q-31 -33 -31 -95v-14h145v-82z" />
    <glyph glyph-name="afii10102" unicode="&#x455;" horiz-adv-x="484" 
d="M439 158q0 -77 -57 -124.5t-148 -47.5q-93 0 -194 56l39 79q92 -53 164 -53q36 0 59 20t23 51q0 29 -19.5 45.5t-62.5 25.5l-61 13q-57 12 -89 49t-32 90q0 71 52 116t136 45q85 0 167 -44l-36 -76q-70 37 -124 37q-35 0 -56 -18t-21 -47q0 -23 15 -36.5t53 -23.5l63 -16
q129 -33 129 -141z" />
    <glyph glyph-name="afii10103" unicode="&#x456;" horiz-adv-x="281" 
d="M196 0h-111v498l111 20v-518zM214 654q0 -30 -21.5 -51.5t-52.5 -21.5q-30 0 -50.5 21.5t-20.5 51.5q0 31 21 52.5t52 21.5q30 0 51 -21.5t21 -52.5z" />
    <glyph glyph-name="afii10104" unicode="&#x457;" horiz-adv-x="281" 
d="M196 0h-111v498l111 20v-518zM103 630q0 -29 -19.5 -49.5t-47.5 -20.5t-47.5 20.5t-19.5 49.5t19.5 49.5t47.5 20.5t47.5 -20.5t19.5 -49.5zM312 630q0 -29 -19.5 -49.5t-47.5 -20.5t-47.5 20.5t-19.5 49.5t19.5 49.5t47.5 20.5t47.5 -20.5t19.5 -49.5z" />
    <glyph glyph-name="afii10105" unicode="&#x458;" horiz-adv-x="281" 
d="M196 12q0 -105 -37 -152q-37 -46 -95 -72l-47 64q39 27 53.5 61.5t14.5 97.5v487l111 20v-506zM213 656q0 -31 -21.5 -53t-52.5 -22q-30 0 -51 21t-21 52q0 30 21.5 52t51.5 22t51.5 -21.5t21.5 -50.5z" />
    <glyph glyph-name="afii10106" unicode="&#x459;" horiz-adv-x="770" 
d="M459 319h73q109 0 157 -49q41 -42 41 -113q0 -70 -39 -111q-45 -46 -150 -46h-191v424h-114l-4 -55q-4 -63 -9 -117q-8 -86 -15 -129q-9 -62 -39 -92q-32 -31 -105 -38l-27 -3l-22 75l22 5q31 8 49 26q6 6 11 14t8.5 18.5t6 19t4 23.5t2.5 23t2.5 26t2.5 26q6 59 13 165
l6 95h317v-187zM459 241v-163h63q50 0 72 22q20 20 20 58q0 41 -21 61q-23 22 -74 22h-60z" />
    <glyph glyph-name="afii10107" unicode="&#x45a;" horiz-adv-x="780" 
d="M360 497l109 21v-199h73q109 0 157 -49q41 -42 41 -113q0 -70 -39 -111q-45 -46 -150 -46h-191v241h-171v-241h-109v497l109 21v-199h171v178zM469 241v-163h63q50 0 72 22q20 20 20 58q0 41 -21 61q-23 22 -74 22h-60z" />
    <glyph glyph-name="afii10108" unicode="&#x45b;" horiz-adv-x="574" 
d="M489 0h-107v344q0 45 -15.5 63t-48.5 18q-62 0 -122 -62v-363h-111v556h-60v64h60q-1 53 -10 92l111 24q10 -41 10 -116h175l-23 -64h-152v-47q0 -12 -0.5 -25t-1 -22t-0.5 -10q73 66 155 66q43 0 76 -18t47 -44q17 -33 17 -99v-357z" />
    <glyph glyph-name="afii10109" unicode="&#x45c;" horiz-adv-x="528" 
d="M80 0v497l109 21v-212h47q40 0 56 15q14 14 21 47l13 57q8 38 27 58q21 23 81 29l37 4l20 -75l-25 -5q-18 -3 -28 -12t-18 -34l-16 -54q-8 -29 -25 -46q-16 -16 -40 -21v-2q19 -5 37 -20q19 -19 30 -54l25 -75q7 -23 19 -34q10 -10 33 -15l20 -4l-20 -75l-34 3
q-71 6 -96 30q-21 21 -31 67l-16 71q-8 37 -23 50t-49 13h-45v-224h-109zM415 662l-220 -102l-34 63l204 132z" />
    <glyph glyph-name="uni045D" unicode="&#x45d;" horiz-adv-x="570" 
d="M80 0v498l109 21v-265q0 -46 -4 -114h2q24 65 54 118l135 241l114 20v-519h-109v230q0 72 5 131h-2q-19 -54 -51 -112l-139 -249h-114zM395 623l-34 -63l-220 102l50 93z" />
    <glyph glyph-name="afii10110" unicode="&#x45e;" horiz-adv-x="493" 
d="M483 506l-179 -517q-34 -100 -73.5 -144.5t-123.5 -60.5l-36 71q55 15 85.5 45.5t51.5 99.5h-35q-12 49 -48 157l-115 341l112 19l93 -308q4 -13 10.5 -39l12.5 -50l5 -25q19 76 38 137l84 274h118zM352 731l55 -31q-19 -53 -56 -77q-41 -31 -104 -31t-104 31
q-37 24 -56 77l55 31q12 -17 21 -27q31 -33 86 -33q51 0 82 33q9 10 21 27z" />
    <glyph glyph-name="afii10193" unicode="&#x45f;" horiz-adv-x="535" 
d="M460 0h-138v-149h-98v149h-139v498l111 20v-436h153v416l111 20v-518z" />
    <glyph glyph-name="afii10146" unicode="&#x462;" horiz-adv-x="592" 
d="M85 0v536h-65v66h65v90h115v-90h110v-66h-110v-122h96q118 0 177 -46q74 -58 74 -162q0 -88 -53 -141q-65 -65 -208 -65h-201zM200 94h75q80 0 113 32q31 31 31 82t-30 81q-31 31 -98 31h-91v-226z" />
    <glyph glyph-name="afii10194" unicode="&#x463;" horiz-adv-x="500" 
d="M80 497l109 21v-66h105v-67h-105v-66h73q109 0 157 -49q41 -42 41 -113q0 -70 -39 -111q-45 -46 -150 -46h-191v385h-65v67h65v45zM189 241v-163h63q50 0 72 22q20 20 20 58q0 41 -21 61q-23 22 -74 22h-60z" />
    <glyph glyph-name="afii10147" unicode="&#x472;" horiz-adv-x="698" 
d="M643 345q0 -158 -76 -257t-214 -99q-144 0 -221 99.5t-77 257.5q0 162 78.5 259t214.5 97q141 0 218 -99.5t77 -257.5zM512 314h-328q9 -238 167 -238q154 0 161 238zM509 408q-17 205 -161 205q-148 0 -163 -205h324z" />
    <glyph glyph-name="afii10195" unicode="&#x473;" horiz-adv-x="547" 
d="M497 251q0 -122 -60.5 -193t-163.5 -71t-163 71.5t-60 193.5q0 121 60 193.5t161 72.5q106 0 166 -72.5t60 -194.5zM275 69q93 0 100 149h-202q4 -82 29.5 -115.5t72.5 -33.5zM272 435q-46 0 -70 -32.5t-29 -103.5h201q-6 74 -32 105t-70 31z" />
    <glyph glyph-name="afii10148" unicode="&#x474;" horiz-adv-x="568" 
d="M478 415l-143 -418h-107l-233 695h126l125 -392q25 -76 36 -139h2q17 70 42 145l54 161q25 75 41.5 109.5t41.5 61.5q52 55 148 65l35 -80q-68 -17 -106 -61q-4 -4 -7.5 -9t-7 -11.5t-6 -11.5t-6 -14t-6 -15t-7 -18.5t-6.5 -19.5t-7.5 -23t-8.5 -25z" />
    <glyph glyph-name="afii10196" unicode="&#x475;" horiz-adv-x="483" 
d="M392 280l-103 -282h-97l-182 504l113 16l88 -273q15 -46 31 -113h2q9 54 30 117l18 54q34 106 59 137q50 61 139 79l34 -80q-55 -13 -78.5 -44.5t-53.5 -114.5z" />
    <glyph glyph-name="afii10050" unicode="&#x490;" horiz-adv-x="429" 
d="M200 0h-115v692h253v99h104v-194h-242v-597z" />
    <glyph glyph-name="afii10098" unicode="&#x491;" horiz-adv-x="421" 
d="M401 424h-212v-424h-109v506h210v73l111 20v-175z" />
    <glyph glyph-name="uni0492" unicode="&#x492;" horiz-adv-x="429" 
d="M442 692l-15 -95h-227v-191h112v-83h-112v-323h-116v323h-79v83h79v286h358z" />
    <glyph glyph-name="uni0493" unicode="&#x493;" horiz-adv-x="421" 
d="M196 424v-140h104l-29 -76h-75v-208h-111v208h-70v76h70v222h316l-13 -82h-192z" />
    <glyph glyph-name="uni0496" unicode="&#x496;" horiz-adv-x="901" 
d="M845 702l23 -79l-33 -8q-23 -5 -38 -19q-12 -12 -21 -45l-21 -78q-16 -55 -39 -78q-18 -18 -46 -28v-2q26 -9 43 -26q27 -26 42 -77l30 -107q14 -48 33 -61h62v-270h-108v178q-33 6 -56 29q-28 28 -41 93l-21 99q-11 56 -31 75q-22 21 -71 21h-44v-319h-115v319h-44
q-49 0 -71 -21q-20 -19 -31 -75l-21 -99q-13 -65 -41 -93t-98 -35l-46 -5l-21 81l19 5q37 9 52 24t25 54l30 107q15 51 42 77q18 17 43 26v2q-28 10 -46 28q-23 23 -39 78l-21 78q-10 34 -21 45q-15 14 -38 19l-33 8l23 79l38 -6q3 -1 14.5 -2.5t15.5 -2.5t13.5 -3t14 -4
t12 -5.5t13 -7.5t11.5 -10q22 -20 32 -68l21 -93q12 -49 30 -66q23 -21 64 -21h58v279h115v-279h58q41 0 64 21q18 17 30 66l21 93q10 48 32 68q6 6 11.5 10t13 7.5t12 5.5t14 4t13.5 3t15.5 2.5t14.5 2.5z" />
    <glyph glyph-name="uni0497" unicode="&#x497;" horiz-adv-x="723" 
d="M307 497l109 21v-212h39q30 0 46 16q12 12 19 46l12 56q8 39 30 61q24 24 68 27l47 4l20 -75l-26 -5q-19 -4 -28 -13q-8 -7 -15 -29l-18 -58q-9 -29 -24 -44t-42 -23v-2q21 -6 38 -22q17 -17 31 -57l21 -63q1 -2 3 -8.5t3.5 -10t4 -9t6 -9t8.5 -6.5h49v-225h-96v141
q-34 7 -52 25q-20 19 -31 67l-12 60q-10 45 -24 59q-16 15 -51 15h-26v-224h-109v224h-26q-35 0 -51 -15q-14 -14 -24 -59l-12 -60q-11 -48 -31 -67q-27 -26 -90 -30l-38 -3l-20 75l13 3q27 6 41 18q9 7 20 39l21 63q14 40 31 57q17 16 38 22v2q-26 7 -42 23q-13 12 -23 41
l-19 61q-7 22 -15 29q-9 9 -28 13l-26 5l20 75l47 -4q44 -3 68 -27q22 -22 30 -61l12 -56q7 -34 19 -46q16 -16 46 -16h39v191z" />
    <glyph glyph-name="uni049A" unicode="&#x49a;" horiz-adv-x="620" 
d="M560 701l22 -79l-32 -8q-30 -8 -39 -17q-13 -13 -21 -45l-18 -72q-14 -59 -41 -84q-21 -19 -49 -28v-2q26 -9 43 -25q30 -28 44 -79l31 -111q13 -50 34 -57h61v-270h-108v178q-39 10 -61 32q-23 23 -35 81l-25 115q-12 50 -32 68q-23 21 -68 21h-66v-319h-115v692h115
v-279h76q47 0 70 22q16 16 28 65l19 84q12 55 37 79q22 22 82 31z" />
    <glyph glyph-name="uni049B" unicode="&#x49b;" horiz-adv-x="528" 
d="M80 0v497l109 21v-212h47q40 0 56 15q14 14 21 47l13 57q8 38 27 58q21 23 81 29l37 4l20 -75l-25 -5q-18 -3 -28 -12t-18 -34l-16 -54q-8 -29 -25 -46q-16 -16 -40 -21v-2q19 -5 37 -20q19 -19 30 -54l25 -75q8 -25 21 -36h51v-225h-96v141q-33 4 -54 25t-31 67l-16 71
q-8 37 -23 50t-49 13h-45v-224h-109z" />
    <glyph glyph-name="uni049C" unicode="&#x49c;" horiz-adv-x="649" 
d="M252 540h90v-123q21 6 33 18q16 16 28 65l19 84q12 55 37 79q22 22 82 31l48 7l22 -79l-32 -8q-30 -8 -39 -17q-13 -13 -21 -45l-18 -72q-14 -59 -41 -84q-21 -19 -49 -28v-2q26 -9 43 -25q30 -28 44 -79l31 -111q10 -38 23 -49q13 -13 42 -21l30 -9l-21 -81l-38 4
q-80 9 -110 39q-23 23 -35 81l-25 115q-12 50 -32 68q-9 8 -21 13v-120h-90v128h-52v-319h-115v692h115v-279h52v127z" />
    <glyph glyph-name="uni049D" unicode="&#x49d;" horiz-adv-x="548" 
d="M221 407h74v-97q13 4 20 11q16 16 21 47l11 57q8 38 27 58q21 23 81 29l37 4l20 -75l-25 -5q-18 -3 -28 -12q-12 -10 -18 -34l-14 -54q-8 -29 -25 -46q-16 -16 -40 -21v-2q19 -5 37 -20q19 -19 30 -54l22 -75q6 -21 19 -34q10 -10 33 -15l20 -4l-20 -75l-34 3
q-71 6 -96 30q-24 24 -31 67l-13 71q-6 35 -23 50l-11 7v-111h-74v117h-32v-224h-109v497l109 21v-212h32v101z" />
    <glyph glyph-name="uni04A2" unicode="&#x4a2;" horiz-adv-x="636" 
d="M551 692v-598h54v-270h-108v176h-62v320h-236v-320h-114v692h114v-278h236v278h116z" />
    <glyph glyph-name="uni04A3" unicode="&#x4a3;" horiz-adv-x="549" 
d="M196 0h-111v498l111 20v-208h162v188l111 20v-436h48v-225h-96v143h-63v227h-162v-227z" />
    <glyph glyph-name="uni04AE" unicode="&#x4ae;" horiz-adv-x="528" 
d="M543 692l-221 -413v-279h-119v280l-218 412h139l104 -217q23 -48 37 -89q17 42 38 87l106 219h134z" />
    <glyph glyph-name="uni04AF" unicode="&#x4af;" horiz-adv-x="466" 
d="M173 -215v216q-11 46 -48 156l-115 341l112 19l80 -275q9 -33 27 -114q11 54 30 118l79 260h118l-174 -503v-191z" />
    <glyph glyph-name="uni04B0" unicode="&#x4b0;" horiz-adv-x="528" 
d="M543 692l-192 -358h111v-83h-140v-251h-119v251h-140v83h111l-189 358h139l104 -217q23 -48 37 -89q17 42 38 87l106 219h134z" />
    <glyph glyph-name="uni04B1" unicode="&#x4b1;" horiz-adv-x="466" 
d="M384 0h-102v-188l-109 -27v215h-124v76h103q-5 16 -14.5 43.5t-12.5 37.5l-115 341l112 19l80 -275q9 -33 27 -114q11 54 30 118l79 260h118l-149 -430h106z" />
    <glyph glyph-name="uni04B2" unicode="&#x4b2;" horiz-adv-x="550" 
d="M554 94v-270h-108v176h-29l-143 274l-138 -274h-141l212 371l-186 321h140l111 -214l109 214h136l-176 -313l161 -285h52z" />
    <glyph glyph-name="uni04B3" unicode="&#x4b3;" horiz-adv-x="487" 
d="M456 506l-149 -230l130 -194h55v-225h-96v143h-42q-48 77 -110 189q-14 -28 -54.5 -97.5t-55.5 -91.5h-139l188 274l-146 217l119 24q53 -87 92 -164q11 27 40 83.5t40 71.5h128z" />
    <glyph glyph-name="uni04B6" unicode="&#x4b6;" horiz-adv-x="590" 
d="M505 692v-598h54v-270h-108v176h-61v297q-67 -32 -149 -32q-90 0 -138 48q-43 43 -43 122v257h115v-225q0 -60 24 -85q25 -27 79 -27q56 0 112 24v313h115z" />
    <glyph glyph-name="uni04B7" unicode="&#x4b7;" horiz-adv-x="499" 
d="M310 497l109 21v-436h48v-225h-96v143h-61v202q-53 -21 -104 -21q-80 0 -120 40q-36 36 -36 107v169l109 21v-178q0 -43 20 -61q18 -16 55 -16q43 0 76 17v217z" />
    <glyph glyph-name="uni04B8" unicode="&#x4b8;" horiz-adv-x="594" 
d="M509 0h-115v297q-29 -14 -65 -23v-132h-90v123q-88 0 -136 48q-43 43 -43 122v257h115v-225q0 -60 24 -85q13 -16 40 -22v131h90v-132q34 7 65 20v313h115v-692z" />
    <glyph glyph-name="uni04B9" unicode="&#x4b9;" horiz-adv-x="499" 
d="M310 497l109 21v-518h-109v202q-20 -8 -38 -13v-112h-74v104q-75 2 -112 40q-36 36 -36 107v169l109 21v-178q0 -43 20 -61q8 -8 19 -11v109h74v-111q15 2 38 14v217z" />
    <glyph glyph-name="uni04BA" unicode="&#x4ba;" horiz-adv-x="590" 
d="M85 692h115v-297q67 32 149 32q90 0 138 -48q43 -43 43 -122v-257h-115v225q0 60 -24 85q-25 27 -79 27q-56 0 -112 -24v-313h-115v692z" />
    <glyph glyph-name="uni04BB" unicode="&#x4bb;" horiz-adv-x="574" 
d="M489 0h-107v344q0 45 -15.5 63t-48.5 18q-62 0 -122 -62v-363h-111v602q0 67 -10 110l111 24q10 -41 10 -119v-108q0 -12 -0.5 -25t-1 -22t-0.5 -10q73 66 155 66q43 0 76 -18t47 -44q17 -33 17 -99v-357z" />
    <glyph glyph-name="uni04C0" unicode="&#x4c0;" horiz-adv-x="288" 
d="M203 0h-118v692h118v-692z" />
    <glyph glyph-name="uni04CF" unicode="&#x4cf;" horiz-adv-x="282" 
d="M197 0h-112v563q0 88 -10 148l113 25q9 -35 9 -139v-597z" />
    <glyph glyph-name="uni04D8" unicode="&#x4d8;" horiz-adv-x="663" 
d="M52 377h421v23q0 42 -9.5 78t-30 67.5t-58.5 49.5t-90 18q-93 0 -171 -64l-47 71q61 46 115 64t125 18q142 0 221.5 -93t79.5 -261q0 -95 -28.5 -174t-94.5 -131.5t-160 -52.5q-115 0 -181 63q-92 89 -92 303v21zM471 288h-287q0 -104 37.5 -158t103.5 -54
q69 0 107.5 57.5t38.5 154.5z" />
    <glyph glyph-name="afii10846" unicode="&#x4d9;" horiz-adv-x="520" 
d="M47 282h302v8q0 62 -28.5 103t-96.5 41t-126 -50l-43 67q79 67 182 67q107 0 170 -71.5t63 -193.5q0 -126 -63 -198q-59 -68 -155 -68q-82 0 -139 52q-66 60 -66 220v23zM348 201h-187q0 -61 24.5 -96t66.5 -35q46 0 71 34.5t25 96.5z" />
    <glyph glyph-name="uni04E2" unicode="&#x4e2;" horiz-adv-x="655" 
d="M570 0h-115v397q0 58 6 140q-20 -58 -50 -120l-207 -417h-119v692h115v-401q0 -53 -7 -132q19 57 53 126l200 407h124v-692zM478 752h-295v76h295v-76z" />
    <glyph glyph-name="uni04E3" unicode="&#x4e3;" horiz-adv-x="570" 
d="M80 0v498l109 21v-265q0 -46 -4 -114h2q24 65 54 118l135 241l114 20v-519h-109v230q0 72 5 131h-2q-19 -54 -51 -112l-139 -249h-114zM433 591h-295v76h295v-76z" />
    <glyph glyph-name="uni04E8" unicode="&#x4e8;" horiz-adv-x="698" 
d="M643 345q0 -158 -76 -257t-214 -99q-144 0 -221 99.5t-77 257.5q0 162 78.5 259t214.5 97q141 0 218 -99.5t77 -257.5zM512 314h-328q9 -238 167 -238q154 0 161 238zM509 408q-17 205 -161 205q-148 0 -163 -205h324z" />
    <glyph glyph-name="uni04E9" unicode="&#x4e9;" horiz-adv-x="547" 
d="M497 251q0 -122 -60.5 -193t-163.5 -71t-163 71.5t-60 193.5q0 121 60 193.5t161 72.5q106 0 166 -72.5t60 -194.5zM275 69q93 0 100 149h-202q4 -82 29.5 -115.5t72.5 -33.5zM272 435q-46 0 -70 -32.5t-29 -103.5h201q-6 74 -32 105t-70 31z" />
    <glyph glyph-name="uni04EE" unicode="&#x4ee;" horiz-adv-x="529" 
d="M123 692l112 -294q28 -74 41 -124q13 53 44 143l93 275h121l-188 -523q-40 -113 -72 -143q-39 -36 -120 -48l-29 -4l-21 84l19 5q53 15 76 39q20 21 37 72l11 32l-56 -7l-196 493h128zM416 752h-295v76h295v-76z" />
    <glyph glyph-name="uni04EF" unicode="&#x4ef;" horiz-adv-x="493" 
d="M483 506l-179 -517q-34 -100 -73.5 -144.5t-123.5 -60.5l-36 71q55 15 85.5 45.5t51.5 99.5h-35q-12 49 -48 157l-115 341l112 19l93 -308q4 -13 10.5 -39l12.5 -50l5 -25q19 76 38 137l84 274h118zM389 591h-295v76h295v-76z" />
    <glyph glyph-name="Wgrave" unicode="&#x1e80;" horiz-adv-x="826" 
d="M816 692l-164 -696h-132l-71 321q-24 107 -34 200h-3q-29 -169 -35 -197l-67 -324h-135l-165 696h123l69 -322q26 -123 37 -222h3q20 129 38 214l72 330h129l72 -344q23 -114 34 -195h3q34 196 40 225l66 314h120zM526 783l-34 -63l-220 102l50 93z" />
    <glyph glyph-name="wgrave" unicode="&#x1e81;" horiz-adv-x="708" 
d="M693 506l-143 -508h-103l-62 233q-25 93 -33 138h-2q-6 -40 -33 -143l-61 -228h-103l-138 501l109 15l55 -245q18 -78 26 -133h3q11 69 29 136l65 234h108l57 -228q25 -100 32 -144h3q8 62 25 136l52 236h114zM478 623l-34 -63l-220 102l50 93z" />
    <glyph glyph-name="Wacute" unicode="&#x1e82;" horiz-adv-x="826" 
d="M816 692l-164 -696h-132l-71 321q-24 107 -34 200h-3q-29 -169 -35 -197l-67 -324h-135l-165 696h123l69 -322q26 -123 37 -222h3q20 129 38 214l72 330h129l72 -344q23 -114 34 -195h3q34 196 40 225l66 314h120zM567 824l-220 -102l-34 63l204 132z" />
    <glyph glyph-name="wacute" unicode="&#x1e83;" horiz-adv-x="708" 
d="M693 506l-143 -508h-103l-62 233q-25 93 -33 138h-2q-6 -40 -33 -143l-61 -228h-103l-138 501l109 15l55 -245q18 -78 26 -133h3q11 69 29 136l65 234h108l57 -228q25 -100 32 -144h3q8 62 25 136l52 236h114zM478 662l-220 -102l-34 63l204 132z" />
    <glyph glyph-name="Wdieresis" unicode="&#x1e84;" horiz-adv-x="826" 
d="M816 692l-164 -696h-132l-71 321q-24 107 -34 200h-3q-29 -169 -35 -197l-67 -324h-135l-165 696h123l69 -322q26 -123 37 -222h3q20 129 38 214l72 330h129l72 -344q23 -114 34 -195h3q34 196 40 225l66 314h120zM586 790q0 -29 -20 -49.5t-48 -20.5t-47.5 20.5
t-19.5 49.5t20 49.5t48 20.5q27 0 47 -20.5t20 -49.5zM375 790q0 -29 -19.5 -49.5t-47.5 -20.5t-47.5 20.5t-19.5 49.5t19.5 49.5t47.5 20.5t47.5 -20.5t19.5 -49.5z" />
    <glyph glyph-name="wdieresis" unicode="&#x1e85;" horiz-adv-x="708" 
d="M693 506l-143 -508h-103l-62 233q-25 93 -33 138h-2q-6 -40 -33 -143l-61 -228h-103l-138 501l109 15l55 -245q18 -78 26 -133h3q11 69 29 136l65 234h108l57 -228q25 -100 32 -144h3q8 62 25 136l52 236h114zM523 630q0 -29 -20 -49.5t-48 -20.5t-47.5 20.5t-19.5 49.5
t20 49.5t48 20.5q27 0 47 -20.5t20 -49.5zM314 630q0 -29 -19.5 -49.5t-47.5 -20.5t-47.5 20.5t-19.5 49.5t19.5 49.5t47.5 20.5t47.5 -20.5t19.5 -49.5z" />
    <glyph glyph-name="uni1E8A" unicode="&#x1e8a;" horiz-adv-x="550" 
d="M555 0h-138l-143 274l-138 -274h-141l212 371l-186 321h140l111 -214l109 214h136l-176 -313zM342 795q0 -31 -21.5 -53t-52.5 -22q-30 0 -51 22t-21 53t21.5 53t51.5 22t51.5 -22t21.5 -53z" />
    <glyph glyph-name="uni1E8B" unicode="&#x1e8b;" horiz-adv-x="487" 
d="M492 0h-138q-48 77 -110 189q-14 -28 -54.5 -97.5t-55.5 -91.5h-139l188 274l-146 217l119 24q53 -87 92 -164q11 27 40 83.5t40 71.5h128l-149 -230zM321 653q0 -31 -21.5 -53t-52.5 -22q-30 0 -51 22t-21 53t21.5 53t51.5 22t51.5 -22t21.5 -53z" />
    <glyph glyph-name="Ygrave" unicode="&#x1ef2;" horiz-adv-x="528" 
d="M543 692l-221 -413v-279h-119v280l-218 412h139l104 -217q23 -48 37 -89q17 42 38 87l106 219h134zM377 783l-34 -63l-220 102l50 93z" />
    <glyph glyph-name="ygrave" unicode="&#x1ef3;" horiz-adv-x="493" 
d="M483 506l-179 -517q-34 -100 -73.5 -144.5t-123.5 -60.5l-36 71q55 15 85.5 45.5t51.5 99.5h-35q-12 49 -48 157l-115 341l112 19l93 -308q4 -13 10.5 -39l12.5 -50l5 -25q19 76 38 137l84 274h118zM336 623l-34 -63l-220 102l50 93z" />
    <glyph glyph-name="uni2007" unicode="&#x2007;" horiz-adv-x="572" 
 />
    <glyph glyph-name="uni2008" unicode="&#x2008;" horiz-adv-x="287" 
 />
    <glyph glyph-name="uni200B" unicode="&#x200b;" horiz-adv-x="0" 
 />
    <glyph glyph-name="endash" unicode="&#x2013;" horiz-adv-x="593" 
d="M538 233h-483v87h483v-87z" />
    <glyph glyph-name="emdash" unicode="&#x2014;" horiz-adv-x="819" 
d="M764 233h-709v87h709v-87z" />
    <glyph glyph-name="afii00208" unicode="&#x2015;" horiz-adv-x="819" 
d="M764 233h-709v87h709v-87z" />
    <glyph glyph-name="quoteleft" unicode="&#x2018;" horiz-adv-x="277" 
d="M227 665q-30 -10 -49 -29.5t-19 -39.5q0 -9 10 -15.5t22.5 -12t22.5 -21.5t10 -41q0 -33 -23 -56.5t-56 -23.5q-39 0 -64.5 31t-25.5 80q0 59 36.5 108t95.5 70z" />
    <glyph glyph-name="quoteright" unicode="&#x2019;" horiz-adv-x="277" 
d="M222 597q0 -63 -39 -114q-35 -44 -92 -64l-41 49q31 10 49.5 29.5t18.5 41.5q0 11 -22 21q-43 18 -43 67q0 34 23 57t56 23q39 0 64.5 -31t25.5 -79z" />
    <glyph glyph-name="quotesinglbase" unicode="&#x201a;" horiz-adv-x="277" 
d="M222 35q0 -62 -36.5 -109.5t-95.5 -69.5l-40 50q30 10 49 30t19 41q0 12 -22 21q-43 17 -43 67q0 34 23 57t56 23q39 0 64.5 -31t25.5 -79z" />
    <glyph glyph-name="quotedblleft" unicode="&#x201c;" horiz-adv-x="491" 
d="M441 665q-30 -9 -49 -28.5t-19 -41.5q0 -3 1.5 -6t5.5 -5.5t7 -4.5t9.5 -5.5t9.5 -5.5q33 -19 33 -62q0 -33 -23.5 -56.5t-56.5 -23.5q-39 0 -64 31t-25 80q0 63 38 112q34 45 93 66zM227 665q-31 -9 -50 -28.5t-19 -41.5q0 -8 10.5 -14.5t22.5 -12.5t22.5 -22t10.5 -40
q0 -33 -23 -56.5t-57 -23.5q-39 0 -64 31t-25 80q0 61 39 112q36 46 92 66z" />
    <glyph glyph-name="quotedblright" unicode="&#x201d;" horiz-adv-x="492" 
d="M223 597q0 -60 -36.5 -109t-95.5 -69l-41 49q31 10 50 29.5t19 41.5q0 4 -7.5 11t-14.5 10q-43 17 -43 67q0 34 22.5 57t56.5 23q39 0 64.5 -31t25.5 -79zM437 597q0 -63 -36.5 -110.5t-94.5 -67.5l-41 49q31 10 49.5 29.5t18.5 41.5q0 4 -7 11t-14 10q-43 18 -43 67
q0 34 22.5 57t56.5 23q39 0 64 -31t25 -79z" />
    <glyph glyph-name="quotedblbase" unicode="&#x201e;" horiz-adv-x="492" 
d="M437 35q0 -62 -36.5 -109.5t-95.5 -69.5l-40 50q30 10 49 30t19 41q0 12 -22 21q-43 17 -43 67q0 34 23 57t56 23q39 0 64.5 -31t25.5 -79zM222 35q0 -62 -36.5 -109.5t-95.5 -69.5l-40 50q30 10 49 30t19 41q0 12 -22 21q-43 17 -43 67q0 34 23 57t56 23q39 0 64.5 -31
t25.5 -79z" />
    <glyph glyph-name="dagger" unicode="&#x2020;" horiz-adv-x="486" 
d="M456 536l-17 -97h-143v-439h-109v439h-152v97h152v156h109v-156h160z" />
    <glyph glyph-name="daggerdbl" unicode="&#x2021;" horiz-adv-x="500" 
d="M465 537l-17 -99h-143v-184h160l-17 -99h-143v-155h-109v155h-152v99h152v184h-152v99h152v155h109v-155h160z" />
    <glyph glyph-name="bullet" unicode="&#x2022;" horiz-adv-x="500" 
d="M425 355q0 -74 -51 -125.5t-124 -51.5t-124 51.5t-51 125.5t51 125.5t124 51.5t124 -51.5t51 -125.5z" />
    <glyph glyph-name="ellipsis" unicode="&#x2026;" horiz-adv-x="772" 
d="M222 67q0 -34 -23 -58t-55 -24q-33 0 -56 24t-23 58q0 33 22.5 56t54.5 23q33 0 56.5 -23t23.5 -56zM707 67q0 -34 -23 -58t-55 -24q-33 0 -56 24t-23 58q0 33 23 56t55 23t55.5 -23t23.5 -56zM464 67q0 -34 -23 -58t-55 -24q-33 0 -55.5 24t-22.5 58q0 33 22.5 56
t54.5 23q33 0 56 -23t23 -56z" />
    <glyph glyph-name="perthousand" unicode="&#x2030;" horiz-adv-x="1218" 
d="M1183 162q0 -80 -45.5 -125.5t-122.5 -45.5t-121.5 46t-44.5 125q0 78 45.5 124.5t119.5 46.5q80 0 124.5 -46t44.5 -125zM368 528q0 -79 -45 -124.5t-122 -45.5t-121.5 46t-44.5 125q0 78 45.5 124.5t119.5 46.5q78 0 123 -45t45 -127zM809 162q0 -79 -45.5 -125
t-121.5 -46q-77 0 -121.5 46t-44.5 125q0 78 45.5 124.5t119.5 46.5q79 0 123.5 -45.5t44.5 -125.5zM639 692l-352 -692h-79l351 692h80zM277 527q0 57 -18.5 83t-58.5 26q-75 0 -75 -104q0 -58 18 -84t59 -26q75 0 75 105zM718 160q0 109 -77 109q-75 0 -75 -103
q0 -60 17.5 -85t59.5 -25q75 0 75 104zM1091 160q0 58 -18.5 83.5t-58.5 25.5q-74 0 -74 -103q0 -60 18 -85t58 -25q75 0 75 104z" />
    <glyph glyph-name="guilsinglleft" unicode="&#x2039;" horiz-adv-x="295" 
d="M260 70l-74 -50l-151 226l151 227l74 -50l-115 -177z" />
    <glyph glyph-name="guilsinglright" unicode="&#x203a;" horiz-adv-x="296" 
d="M261 246l-151 -226l-75 50l117 176l-117 177l75 50z" />
    <glyph glyph-name="fraction" unicode="&#x2044;" horiz-adv-x="303" 
d="M458 764l-525 -917h-88l525 917h88z" />
    <glyph glyph-name="uni2070" unicode="&#x2070;" horiz-adv-x="347" 
d="M324 448q0 -93 -41 -150t-110 -57q-76 0 -113 61t-37 148q0 90 42 146.5t108 56.5q77 0 114 -59t37 -146zM231 447q0 49 -9 85q-14 55 -48 55q-28 0 -44 -42q-13 -33 -13 -95q0 -143 56 -143q32 0 47 47q11 36 11 93z" />
    <glyph glyph-name="uni2074" unicode="&#x2074;" horiz-adv-x="351" 
d="M283 558v-160q0 -1 -1 -4v-3q1 0 3.5 0.5t3.5 0.5h39v-71h-39q-1 0 -3.5 0.5t-3.5 0.5q0 -1 0.5 -5.5t0.5 -6.5v-68l-83 -14v86q0 1 0.5 4t0.5 4q-1 0 -5 -0.5t-6 -0.5h-167v56l110 271h92q-3 -6 -22 -56t-43.5 -108.5t-43.5 -91.5h81l4 -1v4q0 19 11 146z" />
    <glyph glyph-name="uni2075" unicode="&#x2075;" horiz-adv-x="312" 
d="M289 382q0 -40 -23 -74.5t-61 -53.5q-46 -23 -108 -23q-23 0 -53 6l-21 69q44 -13 67 -13q47 0 77 24t30 59q0 57 -66 57q-40 0 -94 -19l22 230h214l-14 -72h-121l-7 -73q16 2 22 2q58 0 97 -32.5t39 -86.5z" />
    <glyph glyph-name="uni2076" unicode="&#x2076;" horiz-adv-x="346" 
d="M323 378q0 -58 -42.5 -97.5t-104.5 -39.5q-68 0 -110.5 47t-42.5 121q0 55 27.5 106t72.5 89q59 48 145 72l22 -61q-126 -44 -159 -123q34 14 58 14q56 0 95 -36.5t39 -91.5zM232 377q0 27 -14 43q-15 17 -39 17q-35 0 -62 -17q-1 -8 -1 -30q0 -82 58 -82q26 0 42 18.5
t16 50.5z" />
    <glyph glyph-name="uni2077" unicode="&#x2077;" horiz-adv-x="341" 
d="M318 644l-15 -71q-67 -95 -102 -165q-41 -83 -48 -125l-7 -37l-98 -24q19 78 40 129q53 133 124 220q-1 0 -8 -0.5t-9 -0.5h-172l21 74h274z" />
    <glyph glyph-name="uni2078" unicode="&#x2078;" horiz-adv-x="358" 
d="M335 363q0 -36 -22 -64t-59 -44t-79 -16q-58 0 -97 23q-55 33 -55 94q0 65 64 99q-51 32 -51 87q0 58 50 89q38 22 96 22q60 0 99 -28.5t39 -75.5q0 -56 -65 -88q80 -39 80 -98zM242 352q0 21 -16 34q-18 14 -71 36q-41 -23 -41 -61q0 -26 18 -42t49 -16q28 0 44.5 14
t16.5 35zM229 549q0 41 -53 41q-25 0 -39.5 -12t-14.5 -30q0 -29 59 -53q48 25 48 54z" />
    <glyph glyph-name="uni2079" unicode="&#x2079;" horiz-adv-x="348" 
d="M325 496q0 -115 -94 -198q-69 -63 -158 -81l-50 55q39 7 63 18q75 32 117 96q-23 -7 -41 -7q-58 0 -96.5 38t-38.5 95q0 61 43 101.5t108 40.5q63 0 103 -40q44 -43 44 -118zM233 507q0 38 -15.5 58.5t-41.5 20.5q-25 0 -40.5 -19.5t-15.5 -53.5q0 -32 15 -49.5t41 -17.5
q25 0 50 16q7 24 7 45z" />
    <glyph glyph-name="uni2080" unicode="&#x2080;" horiz-adv-x="347" 
d="M324 -52q0 -93 -41 -150t-110 -57q-76 0 -113 61t-37 148q0 90 42 146.5t108 56.5q77 0 114 -59t37 -146zM231 -53q0 49 -9 85q-14 55 -48 55q-28 0 -44 -42q-13 -33 -13 -95q0 -143 56 -143q32 0 47 47q11 36 11 93z" />
    <glyph glyph-name="uni2081" unicode="&#x2081;" horiz-adv-x="292" 
d="M269 -250h-204v70h64v229q-46 -26 -82 -38l-24 49l130 87h60v-327h56v-70z" />
    <glyph glyph-name="uni2082" unicode="&#x2082;" horiz-adv-x="340" 
d="M317 -179l-19 -71h-263v56q46 36 99 92q75 79 75 129q0 25 -14 38.5t-36 13.5t-40.5 -9.5t-48.5 -31.5l-47 51q77 64 156 64q55 0 90 -33t35 -84q0 -32 -21.5 -69.5t-41 -58t-54.5 -54.5l-36 -34q5 0 15.5 0.5t14.5 0.5h136z" />
    <glyph glyph-name="uni2083" unicode="&#x2083;" horiz-adv-x="337" 
d="M314 -126q0 -41 -27.5 -73t-72.5 -50q-53 -20 -118 -20q-15 0 -48 4l-23 64q32 -6 54 -6q74 0 113 32q26 21 26 55t-30 44q-18 6 -59 6h-30v66h34q79 0 79 43q0 19 -12.5 30.5t-37.5 11.5q-38 0 -93 -37l-46 53q70 56 149 56q57 0 94.5 -30t37.5 -76q0 -52 -50 -85
q60 -30 60 -88z" />
    <glyph glyph-name="uni2084" unicode="&#x2084;" horiz-adv-x="351" 
d="M283 58v-161q0 -2 -1 -4v-2q1 0 3.5 0.5t3.5 0.5h39v-71h-39q-1 0 -3.5 0.5t-3.5 0.5q0 -1 0.5 -5.5t0.5 -6.5v-68l-83 -14v86q0 1 0.5 4t0.5 4q-1 0 -5 -0.5t-6 -0.5h-167v56l110 271h92q-3 -6 -22 -56t-43.5 -108.5t-43.5 -91.5h81l4 -1v4q0 19 11 146z" />
    <glyph glyph-name="uni2085" unicode="&#x2085;" horiz-adv-x="312" 
d="M289 -118q0 -40 -23 -74.5t-61 -53.5q-46 -23 -108 -23q-23 0 -53 6l-21 69q44 -13 67 -13q47 0 77 24t30 59q0 57 -66 57q-40 0 -94 -19l22 230h214l-14 -72h-121l-7 -73q16 2 22 2q58 0 97 -32.5t39 -86.5z" />
    <glyph glyph-name="uni2086" unicode="&#x2086;" horiz-adv-x="346" 
d="M323 -122q0 -58 -42.5 -97.5t-104.5 -39.5q-68 0 -110.5 47t-42.5 121q0 55 27.5 106t72.5 89q59 48 145 72l22 -61q-126 -44 -159 -123q34 14 58 14q56 0 95 -36.5t39 -91.5zM232 -123q0 27 -14 43q-15 17 -39 17q-35 0 -62 -17q-1 -8 -1 -30q0 -82 58 -82q26 0 42 18.5
t16 50.5z" />
    <glyph glyph-name="uni2087" unicode="&#x2087;" horiz-adv-x="341" 
d="M318 144l-15 -71q-67 -95 -102 -165q-41 -83 -48 -125l-7 -37l-98 -24q19 78 40 129q53 133 124 220q-1 0 -8 -0.5t-9 -0.5h-172l21 74h274z" />
    <glyph glyph-name="uni2088" unicode="&#x2088;" horiz-adv-x="358" 
d="M335 -137q0 -36 -22 -64t-59 -44t-79 -16q-58 0 -97 23q-55 33 -55 94q0 65 64 99q-51 32 -51 87q0 58 50 89q38 22 96 22q60 0 99 -28.5t39 -75.5q0 -56 -65 -88q80 -39 80 -98zM242 -148q0 21 -16 34q-18 14 -71 36q-41 -23 -41 -61q0 -26 18 -42t49 -16q28 0 44.5 14
t16.5 35zM229 49q0 41 -53 41q-25 0 -39.5 -12t-14.5 -30q0 -29 59 -53q48 25 48 54z" />
    <glyph glyph-name="uni2089" unicode="&#x2089;" horiz-adv-x="348" 
d="M325 -4q0 -115 -94 -198q-69 -63 -158 -81l-50 55q39 7 63 18q75 32 117 96q-23 -7 -41 -7q-58 0 -96.5 38t-38.5 95q0 61 43 101.5t108 40.5q63 0 103 -40q44 -43 44 -118zM233 7q0 38 -15.5 58.5t-41.5 20.5q-25 0 -40.5 -19.5t-15.5 -53.5q0 -32 15 -49.5t41 -17.5
q25 0 50 16q7 24 7 45z" />
    <glyph glyph-name="Euro" unicode="&#x20ac;" horiz-adv-x="637" 
d="M602 30q-73 -41 -159 -41q-136 0 -219 100q-46 57 -66 134h-113v87h101q-1 25 1 76h-102v87h117q10 36 29 73q39 74 106.5 116.5t148.5 42.5q86 0 142 -34l-23 -96q-53 39 -118 39q-91 0 -138 -83q-15 -28 -23 -58h222v-87h-234q-3 -28 0 -76h234v-87h-224q5 -19 16 -46
q45 -98 154 -98q69 0 124 44z" />
    <glyph glyph-name="uni20B4" unicode="&#x20b4;" horiz-adv-x="589" 
d="M43 473h350q13 21 13 42q0 48 -29 74t-79 26q-77 0 -148 -51l-47 84q91 60 209 60q86 0 139 -48t53 -116q0 -36 -15 -71h57v-87h-130q-30 -24 -118 -76h248v-87h-346q-10 -19 -10 -41q0 -50 37 -77t98 -27q92 0 164 56l36 -89q-94 -59 -210 -59q-94 0 -157 50t-63 129
q0 32 10 58h-62v87h129q17 14 115 76h-244v87z" />
    <glyph glyph-name="afii61352" unicode="&#x2116;" horiz-adv-x="988" 
d="M554 0h-121l-155 325q-63 131 -89 202h-4q6 -68 7 -184l4 -343h-111v692h130l168 -338q43 -86 69 -178h2q-8 60 -9 200l-2 316h111v-692zM923 528q0 -22 -3 -43t-12.5 -44t-24 -39.5t-40.5 -27.5t-60 -11q-42 0 -71.5 16t-43.5 42.5t-20 52.5t-6 54q0 24 4.5 46.5t17 52
t43.5 47.5t76 18q46 0 76.5 -18.5t43 -49t16.5 -52t4 -44.5zM782 634q-20 0 -33 -9t-18 -27.5t-6 -32.5t-1 -37q0 -57 11.5 -82t47.5 -25q27 0 40.5 18t15.5 36.5t2 52.5q0 25 -1 39t-6.5 32t-18 26.5t-33.5 8.5zM918 202h-271v58h271v-58z" />
    <glyph glyph-name="uni2117" unicode="&#x2117;" horiz-adv-x="850" 
d="M795 355q0 -155 -108.5 -263.5t-261.5 -108.5t-261.5 108.5t-108.5 263.5t108.5 263.5t261.5 108.5t261.5 -108.5t108.5 -263.5zM711 355q0 124 -83.5 211t-202.5 87t-202 -87t-83 -211q0 -125 83.5 -212.5t201.5 -87.5q119 0 202.5 88t83.5 212zM455 303h-59v-154h-81
v417h112q72 0 105 -19q58 -34 58 -108q0 -62 -38.5 -99t-96.5 -37zM489 481q-15 17 -50 17h-43v-127h43q34 0 49 15.5t15 48.5q0 30 -14 46z" />
    <glyph glyph-name="trademark" unicode="&#x2122;" horiz-adv-x="995" 
d="M930 296h-89v301h-5l-113 -301h-58l-112 299l-5 1v-300h-89v412h127l109 -290l108 290h127v-412zM370 627h-123v-331h-89v331h-123v81h335v-81z" />
    <glyph glyph-name="Omega" unicode="&#x2126;" horiz-adv-x="706" 
d="M651 369q0 -77 -38 -152.5t-97 -120.5h130l-20 -96h-239v85q63 42 98 125t35 165q0 47 -8 86.5t-25.5 75t-52 56t-81.5 20.5q-169 0 -169 -240q0 -82 34.5 -164t98.5 -124v-85h-257l21 96h107q-59 45 -96 120.5t-37 152.5q0 148 79.5 240.5t219.5 92.5q135 0 216 -92
t81 -241z" />
    <glyph glyph-name="uni2150" unicode="&#x2150;" horiz-adv-x="980" 
d="M291 250h-204v70h64v229q-46 -26 -82 -38l-24 49l130 87h60v-327h56v-70zM784 764l-525 -917h-88l525 917h88zM957 394l-15 -71q-67 -95 -102 -165q-41 -83 -48 -125l-7 -37l-98 -24q19 78 40 129q53 133 124 220q-1 0 -8 -0.5t-9 -0.5h-172l21 74h274z" />
    <glyph glyph-name="uni2151" unicode="&#x2151;" horiz-adv-x="987" 
d="M291 250h-204v70h64v229q-46 -26 -82 -38l-24 49l130 87h60v-327h56v-70zM784 764l-525 -917h-88l525 917h88zM964 246q0 -115 -94 -198q-69 -63 -158 -81l-50 55q39 7 63 18q75 32 117 96q-23 -7 -41 -7q-58 0 -96.5 38t-38.5 95q0 61 43 101.5t108 40.5q63 0 103 -40
q44 -43 44 -118zM872 257q0 38 -15.5 58.5t-41.5 20.5q-25 0 -40.5 -19.5t-15.5 -53.5q0 -32 15 -49.5t41 -17.5q25 0 50 16q7 24 7 45z" />
    <glyph glyph-name="uni2152" unicode="&#x2152;" horiz-adv-x="1278" 
d="M291 250h-204v70h64v229q-46 -26 -82 -38l-24 49l130 87h60v-327h56v-70zM800 764l-525 -917h-88l525 917h88zM908 0h-204v70h64v229q-46 -26 -82 -38l-24 49l130 87h60v-327h56v-70zM1255 198q0 -93 -41 -150t-110 -57q-76 0 -113 61t-37 148q0 90 42 146.5t108 56.5
q77 0 114 -59t37 -146zM1162 197q0 49 -9 85q-14 55 -48 55q-28 0 -44 -42q-13 -33 -13 -95q0 -143 56 -143q32 0 47 47q11 36 11 93z" />
    <glyph glyph-name="onethird" unicode="&#x2153;" horiz-adv-x="976" 
d="M291 250h-204v70h64v229q-46 -26 -82 -38l-24 49l130 87h60v-327h56v-70zM789 764l-525 -917h-88l525 917h88zM953 124q0 -41 -27.5 -73t-72.5 -50q-53 -20 -118 -20q-15 0 -48 4l-23 64q32 -6 54 -6q74 0 113 32q26 21 26 55t-30 44q-18 6 -59 6h-30v66h34q79 0 79 43
q0 19 -12.5 30.5t-37.5 11.5q-24 0 -43 -8.5t-50 -28.5l-46 53q70 56 149 56q57 0 94.5 -30t37.5 -76q0 -52 -50 -85q60 -30 60 -88z" />
    <glyph glyph-name="twothirds" unicode="&#x2154;" horiz-adv-x="1024" 
d="M339 321l-19 -71h-263v56q46 36 99 92q75 79 75 129q0 25 -14 38.5t-36 13.5t-40.5 -9.5t-48.5 -31.5l-47 51q77 64 156 64q55 0 90 -33t35 -84q0 -32 -21.5 -69.5t-41 -58t-54.5 -54.5l-36 -34q5 0 15.5 0.5t14.5 0.5h136zM832 764l-525 -917h-88l525 917h88zM1001 124
q0 -41 -27.5 -73t-72.5 -50q-53 -20 -118 -20q-15 0 -48 4l-23 64q32 -6 54 -6q74 0 113 32q26 21 26 55t-30 44q-18 6 -59 6h-30v66h34q79 0 79 43q0 19 -12.5 30.5t-37.5 11.5q-24 0 -43 -8.5t-50 -28.5l-46 53q70 56 149 56q57 0 94.5 -30t37.5 -76q0 -52 -50 -85
q60 -30 60 -88z" />
    <glyph glyph-name="uni2155" unicode="&#x2155;" horiz-adv-x="951" 
d="M291 250h-204v70h64v229q-46 -26 -82 -38l-24 49l130 87h60v-327h56v-70zM784 764l-525 -917h-88l525 917h88zM928 132q0 -40 -23 -74.5t-61 -53.5q-46 -23 -108 -23q-23 0 -53 6l-21 69q44 -13 67 -13q47 0 77 24t30 59q0 57 -66 57q-40 0 -94 -19l22 230h214l-14 -72
h-121l-7 -73q16 2 22 2q58 0 97 -32.5t39 -86.5z" />
    <glyph glyph-name="uni2156" unicode="&#x2156;" horiz-adv-x="999" 
d="M339 321l-19 -71h-263v56q46 36 99 92q75 79 75 129q0 25 -14 38.5t-36 13.5t-40.5 -9.5t-48.5 -31.5l-47 51q77 64 156 64q55 0 90 -33t35 -84q0 -32 -21.5 -69.5t-41 -58t-54.5 -54.5l-36 -34q5 0 15.5 0.5t14.5 0.5h136zM832 764l-525 -917h-88l525 917h88zM976 132
q0 -40 -23 -74.5t-61 -53.5q-46 -23 -108 -23q-23 0 -53 6l-21 69q44 -13 67 -13q47 0 77 24t30 59q0 57 -66 57q-40 0 -94 -19l22 230h214l-14 -72h-121l-7 -73q16 2 22 2q58 0 97 -32.5t39 -86.5z" />
    <glyph glyph-name="uni2157" unicode="&#x2157;" horiz-adv-x="996" 
d="M336 374q0 -41 -27.5 -73t-72.5 -50q-53 -20 -118 -20q-15 0 -48 4l-23 64q32 -6 54 -6q74 0 113 32q26 21 26 55t-30 44q-18 6 -59 6h-30v66h34q79 0 79 43q0 19 -12.5 30.5t-37.5 11.5q-38 0 -93 -37l-46 53q70 56 149 56q57 0 94.5 -30t37.5 -76q0 -52 -50 -85
q60 -30 60 -88zM809 764l-525 -917h-88l525 917h88zM973 132q0 -40 -23 -74.5t-61 -53.5q-46 -23 -108 -23q-23 0 -53 6l-21 69q44 -13 67 -13q47 0 77 24t30 59q0 57 -66 57q-40 0 -94 -19l22 230h214l-14 -72h-121l-7 -73q16 2 22 2q58 0 97 -32.5t39 -86.5z" />
    <glyph glyph-name="uni2158" unicode="&#x2158;" horiz-adv-x="966" 
d="M283 558v-160q0 -1 -1 -4v-3q1 0 3.5 0.5t3.5 0.5h39v-71h-39q-1 0 -3.5 0.5t-3.5 0.5q0 -1 0.5 -5.5t0.5 -6.5v-68l-83 -14v86q0 1 0.5 4t0.5 4q-1 0 -5 -0.5t-6 -0.5h-167v56l110 271h92q-3 -6 -22 -56t-43.5 -108.5t-43.5 -91.5h81l4 -1v4q0 19 11 146zM809 764
l-525 -917h-88l525 917h88zM943 132q0 -40 -23 -74.5t-61 -53.5q-46 -23 -108 -23q-23 0 -53 6l-21 69q44 -13 67 -13q47 0 77 24t30 59q0 57 -66 57q-40 0 -94 -19l22 230h214l-14 -72h-121l-7 -73q16 2 22 2q58 0 97 -32.5t39 -86.5z" />
    <glyph glyph-name="uni2159" unicode="&#x2159;" horiz-adv-x="985" 
d="M291 250h-204v70h64v229q-46 -26 -82 -38l-24 49l130 87h60v-327h56v-70zM804 764l-525 -917h-88l525 917h88zM962 128q0 -58 -42.5 -97.5t-104.5 -39.5q-68 0 -110.5 47t-42.5 121q0 55 27.5 106t72.5 89q59 48 145 72l22 -61q-126 -44 -159 -123q34 14 58 14
q56 0 95 -36.5t39 -91.5zM871 127q0 27 -14 43q-15 17 -39 17q-35 0 -62 -17q-1 -8 -1 -30q0 -82 58 -82q26 0 42 18.5t16 50.5z" />
    <glyph glyph-name="uni215A" unicode="&#x215a;" horiz-adv-x="961" 
d="M289 382q0 -40 -23 -74.5t-61 -53.5q-46 -23 -108 -23q-23 0 -53 6l-21 69q44 -13 67 -13q47 0 77 24t30 59q0 57 -66 57q-40 0 -94 -19l22 230h214l-14 -72h-121l-7 -73q16 2 22 2q58 0 97 -32.5t39 -86.5zM775 764l-525 -917h-88l525 917h88zM938 128
q0 -58 -42.5 -97.5t-104.5 -39.5q-68 0 -110.5 47t-42.5 121q0 55 27.5 106t72.5 89q59 48 145 72l22 -61q-126 -44 -159 -123q34 14 58 14q56 0 95 -36.5t39 -91.5zM847 127q0 27 -14 43q-15 17 -39 17q-35 0 -62 -17q-1 -8 -1 -30q0 -82 58 -82q26 0 42 18.5t16 50.5z" />
    <glyph glyph-name="oneeighth" unicode="&#x215b;" horiz-adv-x="997" 
d="M291 250h-204v70h64v229q-46 -26 -82 -38l-24 49l130 87h60v-327h56v-70zM794 764l-525 -917h-88l525 917h88zM974 113q0 -36 -22 -64t-59 -44t-79 -16q-58 0 -97 23q-55 33 -55 94q0 65 64 99q-51 32 -51 87q0 58 50 89q38 22 96 22q60 0 99 -28.5t39 -75.5
q0 -56 -65 -88q80 -39 80 -98zM881 102q0 21 -16 34q-18 14 -71 36q-41 -23 -41 -61q0 -26 18 -42t49 -16q28 0 44.5 14t16.5 35zM868 299q0 41 -53 41q-25 0 -39.5 -12t-14.5 -30q0 -29 59 -53q48 25 48 54z" />
    <glyph glyph-name="threeeighths" unicode="&#x215c;" horiz-adv-x="1042" 
d="M336 374q0 -41 -27.5 -73t-72.5 -50q-53 -20 -118 -20q-15 0 -48 4l-23 64q32 -6 54 -6q74 0 113 32q26 21 26 55t-30 44q-18 6 -59 6h-30v66h34q79 0 79 43q0 19 -12.5 30.5t-37.5 11.5q-38 0 -93 -37l-46 53q70 56 149 56q57 0 94.5 -30t37.5 -76q0 -52 -50 -85
q60 -30 60 -88zM819 764l-525 -917h-88l525 917h88zM1019 113q0 -36 -22 -64t-59 -44t-79 -16q-58 0 -97 23q-55 33 -55 94q0 65 64 99q-51 32 -51 87q0 58 50 89q38 22 96 22q60 0 99 -28.5t39 -75.5q0 -56 -65 -88q80 -39 80 -98zM926 102q0 21 -16 34q-18 14 -71 36
q-41 -23 -41 -61q0 -26 18 -42t49 -16q28 0 44.5 14t16.5 35zM913 299q0 41 -53 41q-25 0 -39.5 -12t-14.5 -30q0 -29 59 -53q48 25 48 54z" />
    <glyph glyph-name="fiveeighths" unicode="&#x215d;" horiz-adv-x="973" 
d="M289 382q0 -40 -23 -74.5t-61 -53.5q-46 -23 -108 -23q-23 0 -53 6l-21 69q44 -13 67 -13q47 0 77 24t30 59q0 57 -66 57q-40 0 -94 -19l22 230h214l-14 -72h-121l-7 -73q16 2 22 2q58 0 97 -32.5t39 -86.5zM760 764l-525 -917h-88l525 917h88zM950 113q0 -36 -22 -64
t-59 -44t-79 -16q-58 0 -97 23q-55 33 -55 94q0 65 64 99q-51 32 -51 87q0 58 50 89q38 22 96 22q60 0 99 -28.5t39 -75.5q0 -56 -65 -88q80 -39 80 -98zM857 102q0 21 -16 34q-18 14 -71 36q-41 -23 -41 -61q0 -26 18 -42t49 -16q28 0 44.5 14t16.5 35zM844 299
q0 41 -53 41q-25 0 -39.5 -12t-14.5 -30q0 -29 59 -53q48 25 48 54z" />
    <glyph glyph-name="seveneighths" unicode="&#x215e;" horiz-adv-x="1002" 
d="M318 644l-15 -71q-67 -95 -102 -165q-41 -83 -48 -125l-7 -37l-98 -24q19 78 40 129q53 133 124 220q-1 0 -8 -0.5t-9 -0.5h-172l21 74h274zM709 764l-525 -917h-88l525 917h88zM979 113q0 -36 -22 -64t-59 -44t-79 -16q-58 0 -97 23q-55 33 -55 94q0 65 64 99
q-51 32 -51 87q0 58 50 89q38 22 96 22q60 0 99 -28.5t39 -75.5q0 -56 -65 -88q80 -39 80 -98zM886 102q0 21 -16 34q-18 14 -71 36q-41 -23 -41 -61q0 -26 18 -42t49 -16q28 0 44.5 14t16.5 35zM873 299q0 41 -53 41q-25 0 -39.5 -12t-14.5 -30q0 -29 59 -53q48 25 48 54z
" />
    <glyph glyph-name="uni215F" unicode="&#x215f;" horiz-adv-x="639" 
d="M291 250h-204v70h64v229q-46 -26 -82 -38l-24 49l130 87h60v-327h56v-70zM794 764l-525 -917h-88l525 917h88z" />
    <glyph glyph-name="uni2189" unicode="&#x2189;" horiz-adv-x="987" 
d="M324 448q0 -93 -41 -150t-110 -57q-76 0 -113 61t-37 148q0 90 42 146.5t108 56.5q77 0 114 -59t37 -146zM231 447q0 49 -9 85q-14 55 -48 55q-28 0 -44 -42q-13 -33 -13 -95q0 -143 56 -143q32 0 47 47q11 36 11 93zM785 764l-525 -917h-88l525 917h88zM964 124
q0 -41 -27.5 -73t-72.5 -50q-53 -20 -118 -20q-15 0 -48 4l-23 64q32 -6 54 -6q74 0 113 32q26 21 26 55t-30 44q-18 6 -59 6h-30v66h34q79 0 79 43q0 19 -12.5 30.5t-37.5 11.5q-24 0 -43 -8.5t-50 -28.5l-46 53q70 56 149 56q57 0 94.5 -30t37.5 -76q0 -52 -50 -85
q60 -30 60 -88z" />
    <glyph glyph-name="arrowleft" unicode="&#x2190;" horiz-adv-x="1201" 
d="M1176 274q0 -28 -20 -48t-48 -20t-48 20t-20 48t20 48t48 20t48 -20t20 -48zM973 274q0 -28 -19.5 -48t-48.5 -20t-48.5 20t-19.5 48t19.5 48t48.5 20t48.5 -20t19.5 -48zM473 694q0 -28 -19.5 -48t-48.5 -20t-48.5 20t-19.5 48t19.5 48t48.5 20t48.5 -20t19.5 -48z
M770 274q0 -28 -20 -48t-48 -20t-48 20t-20 48t20 48t48 20t48 -20t20 -48zM369 554q0 -28 -19.5 -48t-48.5 -20t-48.5 20t-19.5 48t19.5 48t48.5 20t48.5 -20t19.5 -48zM567 274q0 -28 -19.5 -48t-48.5 -20t-48.5 20t-19.5 48t19.5 48t48.5 20t48.5 -20t19.5 -48zM265 414
q0 -28 -19.5 -48t-48.5 -20t-48.5 20t-19.5 48t19.5 48t48.5 20t48.5 -20t19.5 -48zM364 274q0 -28 -20 -48t-48 -20t-48 20t-20 48t20 48t48 20t48 -20t20 -48zM161 274q0 -28 -19.5 -48t-48.5 -20t-48.5 20t-19.5 48t19.5 48t48.5 20t48.5 -20t19.5 -48zM265 134
q0 -28 -19.5 -48t-48.5 -20t-48.5 20t-19.5 48t19.5 48t48.5 20t48.5 -20t19.5 -48zM369 -6q0 -28 -19.5 -48t-48.5 -20t-48.5 20t-19.5 48t19.5 48t48.5 20t48.5 -20t19.5 -48zM473 -146q0 -28 -19.5 -48t-48.5 -20t-48.5 20t-19.5 48t19.5 48t48.5 20t48.5 -20t19.5 -48z
" />
    <glyph glyph-name="arrowup" unicode="&#x2191;" horiz-adv-x="1201" 
d="M1089 470q0 -28 -19.5 -48t-48.5 -20t-48.5 20t-19.5 48t19.5 48t48.5 20t48.5 -20t19.5 -48zM949 574q0 -28 -19.5 -48t-48.5 -20t-48.5 20t-19.5 48t19.5 48t48.5 20t48.5 -20t19.5 -48zM809 678q0 -28 -19.5 -48t-48.5 -20t-48.5 20t-19.5 48t19.5 48t48.5 20
t48.5 -20t19.5 -48zM669 782q0 -28 -19.5 -48t-48.5 -20t-48.5 20t-19.5 48t19.5 48t48.5 20t48.5 -20t19.5 -48zM669 579q0 -29 -19.5 -48.5t-48.5 -19.5t-48.5 19.5t-19.5 48.5t19.5 48.5t48.5 19.5t48.5 -19.5t19.5 -48.5zM529 678q0 -28 -19.5 -48t-48.5 -20t-48.5 20
t-19.5 48t19.5 48t48.5 20t48.5 -20t19.5 -48zM669 376q0 -28 -19.5 -48t-48.5 -20t-48.5 20t-19.5 48t19.5 48t48.5 20t48.5 -20t19.5 -48zM389 574q0 -28 -19.5 -48t-48.5 -20t-48.5 20t-19.5 48t19.5 48t48.5 20t48.5 -20t19.5 -48zM669 173q0 -29 -19.5 -48.5
t-48.5 -19.5t-48.5 19.5t-19.5 48.5t19.5 48.5t48.5 19.5t48.5 -19.5t19.5 -48.5zM249 470q0 -28 -19.5 -48t-48.5 -20t-48.5 20t-19.5 48t19.5 48t48.5 20t48.5 -20t19.5 -48zM669 -30q0 -28 -19.5 -48t-48.5 -20t-48.5 20t-19.5 48t19.5 48t48.5 20t48.5 -20t19.5 -48z
M669 -233q0 -29 -19.5 -48.5t-48.5 -19.5t-48.5 19.5t-19.5 48.5t19.5 48.5t48.5 19.5t48.5 -19.5t19.5 -48.5z" />
    <glyph glyph-name="arrowright" unicode="&#x2192;" horiz-adv-x="1201" 
d="M864 694q0 -28 -20 -48t-48 -20t-48 20t-20 48t20 48t48 20t48 -20t20 -48zM968 554q0 -28 -20 -48t-48 -20t-48 20t-20 48t20 48t48 20t48 -20t20 -48zM1072 414q0 -28 -20 -48t-48 -20t-48 20t-20 48t20 48t48 20t48 -20t20 -48zM1176 274q0 -28 -20 -48t-48 -20
t-48 20t-20 48t20 48t48 20t48 -20t20 -48zM973 274q0 -28 -19.5 -48t-48.5 -20t-48.5 20t-19.5 48t19.5 48t48.5 20t48.5 -20t19.5 -48zM1072 134q0 -28 -20 -48t-48 -20t-48 20t-20 48t20 48t48 20t48 -20t20 -48zM770 274q0 -28 -20 -48t-48 -20t-48 20t-20 48t20 48
t48 20t48 -20t20 -48zM968 -6q0 -28 -20 -48t-48 -20t-48 20t-20 48t20 48t48 20t48 -20t20 -48zM567 274q0 -28 -19.5 -48t-48.5 -20t-48.5 20t-19.5 48t19.5 48t48.5 20t48.5 -20t19.5 -48zM864 -146q0 -28 -20 -48t-48 -20t-48 20t-20 48t20 48t48 20t48 -20t20 -48z
M364 274q0 -28 -20 -48t-48 -20t-48 20t-20 48t20 48t48 20t48 -20t20 -48zM161 274q0 -28 -19.5 -48t-48.5 -20t-48.5 20t-19.5 48t19.5 48t48.5 20t48.5 -20t19.5 -48z" />
    <glyph glyph-name="arrowdown" unicode="&#x2193;" horiz-adv-x="1201" 
d="M669 782q0 -28 -19.5 -48t-48.5 -20t-48.5 20t-19.5 48t19.5 48t48.5 20t48.5 -20t19.5 -48zM669 579q0 -29 -19.5 -48.5t-48.5 -19.5t-48.5 19.5t-19.5 48.5t19.5 48.5t48.5 19.5t48.5 -19.5t19.5 -48.5zM1089 79q0 -29 -19.5 -48.5t-48.5 -19.5t-48.5 19.5t-19.5 48.5
t19.5 48.5t48.5 19.5t48.5 -19.5t19.5 -48.5zM669 376q0 -28 -19.5 -48t-48.5 -20t-48.5 20t-19.5 48t19.5 48t48.5 20t48.5 -20t19.5 -48zM949 -25q0 -29 -19.5 -48.5t-48.5 -19.5t-48.5 19.5t-19.5 48.5t19.5 48.5t48.5 19.5t48.5 -19.5t19.5 -48.5zM669 173
q0 -29 -19.5 -48.5t-48.5 -19.5t-48.5 19.5t-19.5 48.5t19.5 48.5t48.5 19.5t48.5 -19.5t19.5 -48.5zM809 -129q0 -29 -19.5 -48.5t-48.5 -19.5t-48.5 19.5t-19.5 48.5t19.5 48.5t48.5 19.5t48.5 -19.5t19.5 -48.5zM669 -30q0 -28 -19.5 -48t-48.5 -20t-48.5 20t-19.5 48
t19.5 48t48.5 20t48.5 -20t19.5 -48zM669 -233q0 -29 -19.5 -48.5t-48.5 -19.5t-48.5 19.5t-19.5 48.5t19.5 48.5t48.5 19.5t48.5 -19.5t19.5 -48.5zM529 -129q0 -29 -19.5 -48.5t-48.5 -19.5t-48.5 19.5t-19.5 48.5t19.5 48.5t48.5 19.5t48.5 -19.5t19.5 -48.5zM389 -25
q0 -29 -19.5 -48.5t-48.5 -19.5t-48.5 19.5t-19.5 48.5t19.5 48.5t48.5 19.5t48.5 -19.5t19.5 -48.5zM249 79q0 -29 -19.5 -48.5t-48.5 -19.5t-48.5 19.5t-19.5 48.5t19.5 48.5t48.5 19.5t48.5 -19.5t19.5 -48.5z" />
    <glyph glyph-name="uni2196" unicode="&#x2196;" horiz-adv-x="1201" 
d="M290 508q-20 -20 -48 -20t-48 20t-20 48q0 27 20 48t48 21q27 0 47.5 -21t20.5 -48q0 -28 -20 -48zM239 163q-20 -20 -48 -20t-48 20t-20 48q0 27 20 48t48 21q27 0 47.5 -21t20.5 -48q0 -28 -20 -48zM462 534q-20 -20 -48 -20t-48 20t-20 48q0 26 20 47t48 21
q27 0 47.5 -20.5t20.5 -47.5q0 -28 -20 -48zM635 559q-20 -20 -48 -20t-48 20t-20 48q0 26 20 47t48 21q27 0 47.5 -20.5t20.5 -47.5q0 -28 -20 -48zM807 585q-20 -20 -48 -20t-48 20t-20 48q0 26 20 47t48 21q27 0 47.5 -20.5t20.5 -47.5q0 -28 -20 -48zM577 221
q-20 -20 -48 -20t-48 20t-20 48q0 26 20 47t48 21q27 0 47.5 -20.5t20.5 -47.5q0 -28 -20 -48zM720 78q-20 -20 -48 -20t-48 20t-20 48q0 26 20 47t48 21q27 0 47.5 -20.5t20.5 -47.5q0 -28 -20 -48zM864 -66q-20 -20 -48 -20t-48 20t-20 48q0 26 20 47t48 21
q27 0 47.5 -20.5t20.5 -47.5q0 -28 -20 -48zM1007 -209q-20 -20 -48 -20t-48 20t-20 48q0 26 20 47t48 21q27 0 47.5 -20.5t20.5 -47.5q0 -28 -20 -48zM264 336q-20 -20 -48 -20t-48 20t-20 48q0 26 20 47t48 21q27 0 47.5 -20.5t20.5 -47.5q0 -28 -20 -48zM433 365
q-20 -20 -48 -20t-48 20t-20 48q0 26 20 47t48 21q27 0 47.5 -20.5t20.5 -47.5q0 -28 -20 -48zM213 -9q-20 -20 -48 -20t-48 20t-20 48q0 26 20 47t48 21q27 0 47.5 -20.5t20.5 -47.5q0 -28 -20 -48z" />
    <glyph glyph-name="uni2197" unicode="&#x2197;" horiz-adv-x="1201" 
d="M931 508q-20 -20 -48 -20t-48 20t-20 48q0 27 20 48t48 21q27 0 47.5 -21t20.5 -48q0 -28 -20 -48zM759 534q-20 -20 -49 -20q-28 0 -48 20t-20 48q0 26 20 47t48 21q27 0 48 -20.5t21 -47.5q0 -28 -20 -48zM982 163q-20 -20 -48 -20t-48 20t-20 48q0 27 20 48t48 21
q27 0 47.5 -21t20.5 -48q0 -28 -20 -48zM957 336q-20 -20 -49 -20q-28 0 -48 20t-20 48q0 26 20 47t48 21q27 0 48 -20.5t21 -47.5q0 -28 -20 -48zM788 365q-20 -20 -49 -20q-28 0 -48 20t-20 48q0 26 20 47t48 21q27 0 48 -20.5t21 -47.5q0 -28 -20 -48zM586 559
q-20 -20 -48 -20t-48 20t-20 48q0 26 20 47t48 21q27 0 47.5 -20.5t20.5 -47.5q0 -28 -20 -48zM413 585q-20 -20 -48 -20t-48 20t-20 48q0 26 20 47t48 21q27 0 47.5 -20.5t20.5 -47.5q0 -28 -20 -48zM1007 -9q-20 -20 -48 -20t-48 20t-20 48q0 26 20 47t48 21
q27 0 47.5 -20.5t20.5 -47.5q0 -28 -20 -48zM644 221q-20 -20 -48 -20t-48 20t-20 48q0 26 20 47t48 21q27 0 47.5 -20.5t20.5 -47.5q0 -28 -20 -48zM500 78q-20 -20 -48 -20t-48 20t-20 48q0 26 20 47t48 21q27 0 47.5 -20.5t20.5 -47.5q0 -28 -20 -48zM357 -66
q-20 -20 -48 -20t-48 20t-20 48q0 26 20 47t48 21q27 0 47.5 -20.5t20.5 -47.5q0 -28 -20 -48zM213 -209q-20 -20 -48 -20t-48 20t-20 48q0 26 20 47t48 21q27 0 47.5 -20.5t20.5 -47.5q0 -28 -20 -48z" />
    <glyph glyph-name="uni2198" unicode="&#x2198;" horiz-adv-x="1201" 
d="M957 40q-20 -20 -49 -20q-28 0 -48 20t-20 48q0 26 20 47t48 21q27 0 48 -20.5t21 -47.5q0 -28 -20 -48zM788 11q-20 -20 -49 -20q-28 0 -48 20t-20 48q0 26 20 47t48 21q27 0 48 -20.5t21 -47.5q0 -28 -20 -48zM759 -158q-20 -20 -49 -20q-28 0 -48 20t-20 48
q0 26 20 47t48 21q27 0 48 -20.5t21 -47.5q0 -28 -20 -48zM982 212q-20 -20 -48 -20t-48 20t-20 48q0 26 20 47t48 21q27 0 47.5 -20.5t20.5 -47.5q0 -28 -20 -48zM413 -209q-20 -20 -48 -20t-48 20t-20 48q0 26 20 47t48 21q27 0 47.5 -20.5t20.5 -47.5q0 -28 -20 -48z
M357 441q-20 -20 -48 -20t-48 20t-20 48q0 26 20 47t48 21q27 0 47.5 -20.5t20.5 -47.5q0 -28 -20 -48zM500 298q-20 -20 -48 -20t-48 20t-20 48q0 26 20 47t48 21q27 0 47.5 -20.5t20.5 -47.5q0 -28 -20 -48zM644 154q-20 -20 -48 -20t-48 20t-20 48q0 26 20 47t48 21
q27 0 47.5 -20.5t20.5 -47.5q0 -28 -20 -48zM931 -133q-20 -20 -48 -20t-48 20t-20 48q0 26 20 47t48 21q27 0 47.5 -20.5t20.5 -47.5q0 -28 -20 -48zM213 585q-20 -20 -48 -20t-48 20t-20 48q0 26 20 47t48 21q27 0 47.5 -20.5t20.5 -47.5q0 -28 -20 -48zM1007 385
q-20 -20 -48 -20t-48 20t-20 48q0 26 20 47t48 21q27 0 47.5 -20.5t20.5 -47.5q0 -28 -20 -48zM586 -184q-20 -20 -48 -20t-48 20t-20 48q0 26 20 47t48 21q27 0 47.5 -20.5t20.5 -47.5q0 -28 -20 -48z" />
    </font>
</defs>
</svg>
