<?xml version="1.0" standalone="no"?>
<!DOCTYPE svg PUBLIC "-//W3C//DTD SVG 1.1//EN" "http://www.w3.org/Graphics/SVG/1.1/DTD/svg11.dtd" >
<svg xmlns="http://www.w3.org/2000/svg">
<metadata></metadata>
<defs>
<font id="webfontregular" horiz-adv-x="1024" >
<font-face units-per-em="2048" ascent="1507" descent="-541" />
<missing-glyph horiz-adv-x="546" />
<glyph unicode="&#xfb01;" horiz-adv-x="1185" d="M-309 -336q0 47 45 84l213 -55q65 72 99 184.5t71 374.5l86 588l-135 -15v68l155 63q46 247 163.5 395t266.5 148q71 0 120.5 -35.5t49.5 -87.5q0 -80 -100 -104l-168 137q-116 -76 -184 -477h340l256 55h53l-148 -766q-6 -30 -6 -51q0 -80 97 -80q51 0 153 31v-64 q-172 -71 -291 -71q-129 0 -129 137q0 28 13 104l120 613h-475l-82 -582q-23 -166 -55.5 -268.5t-89.5 -190.5q-75 -113 -162.5 -177t-167.5 -64q-47 0 -77.5 30t-30.5 76zM899 1331q0 47 32.5 80t78.5 33q44 0 77 -34t33 -79q0 -44 -33 -76t-79 -32t-77.5 31t-31.5 77z" />
<glyph unicode="&#xfb02;" horiz-adv-x="1173" d="M-309 -336q0 47 45 84l213 -55q64 70 97.5 182t72.5 377l86 588l-135 -15v68l155 63q53 257 166.5 400t265.5 143q79 0 127 -45l271 53h55q-11 -73 -25 -133l-206 -1030q-23 -118 -23 -164q0 -47 28.5 -72.5t82.5 -25.5q44 0 147 33v-64q-177 -69 -278 -69q-68 0 -105 37 t-37 104q0 65 35 246l197 1003l-101 10l-100 -110l-168 137q-117 -80 -184 -477h286v-94h-303l-82 -580q-22 -160 -53.5 -261.5t-85.5 -184.5q-73 -117 -163.5 -185.5t-170.5 -68.5q-49 0 -79.5 30t-30.5 76z" />
<glyph unicode="&#xfb03;" horiz-adv-x="1773" d="M-309 -336q0 47 45 84l213 -55q64 70 97.5 182t72.5 377l86 588l-135 -15v68l155 63q46 247 163.5 395t266.5 148q71 0 120.5 -35.5t49.5 -87.5q0 -80 -100 -104l-168 137q-117 -76 -184 -477h444q49 266 166 416.5t268 150.5q71 0 120.5 -35.5t49.5 -87.5 q0 -80 -100 -104l-168 137q-117 -76 -184 -477h348l248 55h53l-148 -766q-6 -24 -6 -51q0 -38 24.5 -59t70.5 -21q53 0 155 31v-64q-175 -71 -289 -71q-131 0 -131 137q0 31 13 104l120 613h-475l-82 -582q-23 -168 -56 -272t-91 -191q-73 -110 -161 -173.5t-165 -63.5 q-49 0 -79.5 30t-30.5 76q0 47 45 84l213 -55q64 70 97.5 182t72.5 377l86 588h-445l-82 -582q-23 -168 -56 -272t-91 -191q-73 -110 -161 -173.5t-165 -63.5q-49 0 -79.5 30t-30.5 76zM1495 1327v2q0 47 32.5 80t78.5 33q44 0 77 -34t33 -79q0 -44 -33 -76t-79 -32 t-77.5 32t-31.5 74z" />
<glyph unicode="&#xfb04;" horiz-adv-x="1787" d="M-309 -336q0 47 45 84l213 -55q64 70 97.5 182t72.5 377l86 588l-135 -15v68l155 63q46 247 163.5 395t266.5 148q71 0 120.5 -35.5t49.5 -87.5q0 -80 -100 -104l-168 137q-117 -76 -184 -477h444q49 266 166 416.5t268 150.5q81 0 133 -45l271 53h55q-3 -18 -11.5 -65.5 t-12.5 -69.5l-207 -1028q-23 -124 -23 -160q0 -102 111 -102q44 0 147 33v-64q-173 -69 -276 -69q-69 0 -107.5 36.5t-38.5 102.5q0 63 37 248l197 1003l-101 10l-104 -110l-168 137q-117 -76 -184 -477h288v-92h-305l-82 -582q-23 -168 -56 -272t-91 -191 q-73 -110 -161 -173.5t-165 -63.5q-49 0 -79.5 30t-30.5 76q0 47 45 84l213 -55q64 70 97.5 182t72.5 377l86 588h-445l-82 -582q-23 -168 -56 -272t-91 -191q-73 -110 -161 -173.5t-165 -63.5q-49 0 -79.5 30t-30.5 76z" />
<glyph horiz-adv-x="0" />
<glyph horiz-adv-x="682" />
<glyph unicode=" "  horiz-adv-x="546" />
<glyph unicode="&#x09;" horiz-adv-x="546" />
<glyph unicode="&#xa0;" horiz-adv-x="546" />
<glyph unicode="!" horiz-adv-x="692" d="M125 98q0 50 33.5 83.5t83.5 33.5q47 0 81.5 -35t34.5 -82q0 -48 -34.5 -82t-83.5 -34q-46 0 -80.5 34.5t-34.5 81.5zM225 350l92 783q19 152 52.5 209t105.5 57q43 0 67.5 -23.5t24.5 -66.5q0 -50 -35 -176l-206 -783h-101z" />
<glyph unicode="&#x22;" horiz-adv-x="679" d="M141 864l23 457q0 27 8 55q24 86 102 86q32 0 51 -18t19 -49t-16 -74l-154 -457h-33zM471 864l23 457q0 27 8 55q24 86 102 86q32 0 51 -18t19 -49q0 -29 -17 -74l-153 -457h-33z" />
<glyph unicode="#" horiz-adv-x="1527" d="M133 471v96h326l98 299h-324v97h357l170 491l96 -37l-162 -454h316l164 489l96 -35l-160 -454h285v-97h-318l-100 -299h334v-96h-367l-172 -518l-96 33l164 485h-314l-170 -518l-96 33l168 485h-295zM563 567h305l105 299h-309z" />
<glyph unicode="$" horiz-adv-x="1138" d="M43 90l66 313h106l-20 -229l18 -24q55 -26 106 -41l111 567q-209 104 -209 291q0 135 91.5 241.5t244.5 147.5l33 166h80l-29 -152l119 6l26 146h80l-28 -154q103 -12 215 -53l-64 -299h-92l10 196l-24 35q-33 20 -64 23l-102 -537q123 -55 182 -131.5t59 -179.5 q0 -149 -95.5 -253t-280.5 -155l-43 -223h-82l39 209h-115l-39 -209h-80l39 215q-140 20 -258 84zM393 1018q0 -97 72 -154l74 381q-146 -84 -146 -227zM397 96q86 0 119 2l92 490l-106 47zM535 815l108 -49l98 516q-25 2 -45 2q-26 0 -73 -6zM602 127q85 32 130.5 95 t45.5 149q0 124 -94 176z" />
<glyph unicode="%" horiz-adv-x="1744" d="M102 829q0 131 45 258.5t117 204.5q104 107 244 107q113 0 176.5 -77.5t63.5 -213.5q0 -129 -45 -256t-119 -205q-103 -106 -242 -106q-114 0 -177 75.5t-63 212.5zM238 0l1140 1374h125l-1141 -1374h-124zM244 797q0 -94 26.5 -138.5t83.5 -44.5q99 0 168 144 q38 78 61 183t23 202q0 182 -117 182q-93 0 -159 -135q-39 -80 -62.5 -187.5t-23.5 -205.5zM997 264q0 131 45 258.5t117 204.5q107 107 244 107q112 0 175.5 -77t63.5 -214q0 -129 -45 -256t-118 -205q-104 -107 -242 -107q-114 0 -177 76t-63 213zM1139 231 q0 -94 26.5 -138t83.5 -44q99 0 168 144q38 78 61 183t23 202q0 182 -117 182q-93 0 -159 -135q-38 -78 -62 -187t-24 -207z" />
<glyph unicode="&#x26;" horiz-adv-x="1441" d="M41 311q0 133 83.5 237.5t268.5 201.5q-112 158 -112 278q0 155 127 264t307 109q138 0 221.5 -72.5t83.5 -193.5q0 -134 -101.5 -231t-316.5 -167l305 -405q45 42 85.5 103t92.5 163l-24 33l-100 20v86h401v-86l-145 -18q-126 -235 -259 -371q66 -98 145 -140t189 -38 v-82l-145 -8l-45 -2q-76 0 -123 29t-137 131q-212 -175 -447 -175q-157 0 -255.5 93t-98.5 241zM225 373q0 -120 76.5 -197.5t196.5 -77.5q73 0 143 27.5t152 89.5l-353 471q-117 -75 -166 -146.5t-49 -166.5zM434 1075q0 -66 27 -128.5t94 -153.5q152 55 224.5 135 t72.5 190q0 88 -47 139.5t-129 51.5q-101 0 -171.5 -68t-70.5 -166z" />
<glyph unicode="'" horiz-adv-x="350" d="M141 864l23 457q0 27 8 55q24 86 102 86q32 0 51 -18t19 -49t-16 -74l-154 -457h-33z" />
<glyph unicode="(" horiz-adv-x="858" d="M162 274q0 156 39.5 342t103.5 332q127 291 371 436q69 41 126.5 59.5t137.5 26.5l-16 -86q-252 -41 -398 -311q-80 -150 -138 -398.5t-58 -441.5q0 -187 74 -300t214 -138l-16 -86q-201 20 -320.5 173.5t-119.5 391.5z" />
<glyph unicode=")" horiz-adv-x="858" d="M-113 -291l17 86q122 19 223.5 98.5t173.5 212.5q80 150 138.5 398.5t58.5 441.5q0 187 -74.5 300t-214.5 138l16 86q201 -20 321 -173.5t120 -391.5q0 -155 -39.5 -340.5t-104.5 -335.5q-126 -287 -370 -434q-68 -41 -126.5 -59.5t-138.5 -26.5z" />
<glyph unicode="*" d="M203 1169l149 37l195 -143l-12 -25l-263 17zM268 692l35 148l238 166l18 -15l-143 -248zM557 1346l105 124l57 -124l-115 -256h-29zM580 991l24 15l172 -166l-20 -148l-127 53zM623 1065l249 141l136 -37l-115 -114l-266 -17z" />
<glyph unicode="+" horiz-adv-x="1705" d="M244 551v119h538v551h119v-551h541v-119h-541v-551h-119v551h-538z" />
<glyph unicode="," horiz-adv-x="569" d="M-117 -346l13 67q120 22 191.5 96.5t88.5 196.5h-131q-18 30 -18 60q0 63 41 103t106 40q60 0 94.5 -37t34.5 -102q0 -155 -121 -277t-299 -147z" />
<glyph unicode="-" horiz-adv-x="653" d="M47 424l27 137h458l-26 -137h-459z" />
<glyph unicode="." horiz-adv-x="569" d="M55 111q0 52 35 87t88 35q51 0 86 -35.5t35 -86.5t-36 -86t-87 -35t-86 35t-35 86z" />
<glyph unicode="/" horiz-adv-x="985" d="M-227 -190l1177 1564h125l-1177 -1564h-125z" />
<glyph unicode="0" horiz-adv-x="1110" d="M68 381q0 165 71 305t193.5 221.5t267.5 81.5q166 0 267.5 -111t101.5 -294q0 -122 -43.5 -235t-124.5 -202q-151 -167 -367 -167q-169 0 -267.5 107.5t-98.5 293.5zM244 371q0 -145 53.5 -223t151.5 -78q142 0 240.5 152t98.5 372q0 149 -53.5 227t-154.5 78 q-92 0 -169 -70.5t-122 -192t-45 -265.5z" />
<glyph unicode="1" horiz-adv-x="870" d="M41 0v84l188 12l25 23l141 717l-4 4l-217 -27v80l369 96h53l-174 -862l20 -35l181 -8v-84h-582z" />
<glyph unicode="2" horiz-adv-x="958" d="M-18 0l18 115l383 276q264 191 264 379q0 85 -49.5 135.5t-132.5 50.5q-72 0 -158 -41l-49 -167q-31 -7 -59 -7q-45 0 -69 20t-24 58q0 59 52.5 110t141.5 81t192 30q157 0 248 -72.5t91 -197.5q0 -113 -73 -201t-289 -237l-276 -191h614l-27 -141h-798z" />
<glyph unicode="3" horiz-adv-x="966" d="M-39 -129q0 47 32.5 76.5t86.5 29.5q22 0 49 -8l37 -145q79 -25 125 -25q126 0 218.5 90.5t92.5 214.5q0 93 -58.5 141t-172.5 48q-57 0 -142 -14l31 133q172 -1 279.5 82t107.5 217q0 83 -48.5 134.5t-125.5 51.5q-48 0 -127 -20l-53 -162q-39 -8 -64 -8q-96 0 -96 81 q0 82 107.5 141.5t255.5 59.5q151 0 238 -66.5t87 -181.5t-91.5 -212t-254.5 -156q149 -4 226 -64.5t77 -171.5q0 -109 -72 -208.5t-194 -159.5q-119 -58 -276 -58q-127 0 -201 43t-74 117z" />
<glyph unicode="4" horiz-adv-x="1013" d="M-55 125l20 106l742 754h116l-145 -762h227l-22 -98h-224l-79 -412h-156l82 412h-561zM94 223h430l105 555z" />
<glyph unicode="5" horiz-adv-x="948" d="M-41 -125q0 49 32 82t79 33q18 0 47 -8l51 -164q67 -21 102 -21q135 0 227.5 93t92.5 231q0 231 -271 231q-95 0 -215 -24l119 635h649l-30 -138h-531l-73 -387q115 23 182 23q158 0 253 -78t95 -209q0 -126 -73 -234t-197.5 -171.5t-268.5 -63.5q-121 0 -195.5 46.5 t-74.5 123.5z" />
<glyph unicode="6" horiz-adv-x="1089" d="M80 426q0 195 88.5 375t247.5 307q108 87 233 137t299 76l10 -129l-86 22q-401 -70 -577 -522q168 125 330 125q146 0 235.5 -93.5t89.5 -244.5q0 -132 -67 -248t-179.5 -185t-240.5 -69q-173 0 -278 122.5t-105 326.5zM252 385q0 -151 59.5 -235t165.5 -84 q125 0 213 115.5t88 279.5q0 118 -61 185t-168 67q-72 0 -134.5 -28.5t-140.5 -96.5q-22 -113 -22 -203z" />
<glyph unicode="7" horiz-adv-x="976" d="M10 -297l789 1112h-543l-63 -170h-87l62 318h805l-19 -91l-772 -1105v-64h-172z" />
<glyph unicode="8" horiz-adv-x="1056" d="M23 283q0 122 79 212.5t252 166.5q-164 100 -164 260q0 152 130 261t313 109q145 0 234 -77t89 -203q0 -109 -68.5 -192t-217.5 -152q121 -60 177 -129t56 -158q0 -111 -67 -203t-183 -145t-254 -53q-173 0 -274.5 81.5t-101.5 221.5zM188 307q0 -102 76 -171.5 t187 -69.5q118 0 200 76.5t82 185.5q0 85 -62 144t-237 142q-117 -46 -181.5 -126.5t-64.5 -180.5zM362 965q0 -80 46.5 -130.5t193.5 -129.5q100 61 146.5 134t46.5 167q0 92 -50.5 144t-138.5 52q-106 0 -175 -67t-69 -170z" />
<glyph unicode="9" horiz-adv-x="1075" d="M70 471q0 135 70 254.5t187.5 190.5t250.5 71q166 0 267 -106t101 -279q0 -290 -218 -543t-599 -405l-47 117l86 -7q325 150 506 465q-161 -90 -285 -90q-141 0 -230 93t-89 239zM244 502q0 -124 61.5 -191t175.5 -67q53 0 104 16t122 55q71 180 71 322 q0 123 -56.5 193.5t-156.5 70.5q-132 0 -226.5 -118t-94.5 -281z" />
<glyph unicode=":" horiz-adv-x="569" d="M55 111q0 52 35 87t88 35q51 0 86 -35.5t35 -86.5t-36 -86t-87 -35t-86 35t-35 86zM197 854q0 53 35 88t87 35q51 0 86 -35.5t35 -87.5q0 -51 -35.5 -86t-87.5 -35q-51 0 -85.5 35t-34.5 86z" />
<glyph unicode=";" horiz-adv-x="569" d="M-117 -346l13 67q120 22 191.5 96.5t88.5 196.5h-131q-18 30 -18 60q0 63 41 103t106 40q60 0 94.5 -37t34.5 -102q0 -155 -121 -277t-299 -147zM186 854q0 52 35 87.5t88 35.5q51 0 86 -36t35 -87t-35.5 -86t-87.5 -35q-51 0 -86 35t-35 86z" />
<glyph unicode="&#x3c;" horiz-adv-x="1705" d="M264 559v103l1178 483v-127l-1000 -408l1000 -405v-129z" />
<glyph unicode="=" horiz-adv-x="1705" d="M244 360v119h1198v-119h-1198zM244 741v119h1198v-119h-1198z" />
<glyph unicode="&#x3e;" horiz-adv-x="1705" d="M264 76v129l1000 405l-1000 408v127l1178 -483v-103z" />
<glyph unicode="?" horiz-adv-x="995" d="M193 98q0 49 34 83t84 34q46 0 80.5 -35t34.5 -82t-35 -81.5t-82 -34.5t-81.5 34.5t-34.5 81.5zM211 1182q0 92 99 154.5t245 62.5q167 0 261.5 -78.5t94.5 -218.5q0 -327 -465 -512l-47 -240h-106l57 299q182 65 277.5 176.5t95.5 259.5q0 112 -58.5 163.5t-189.5 56.5 l-123 -203q-23 -2 -41 -2q-47 0 -73.5 22t-26.5 60z" />
<glyph unicode="@" horiz-adv-x="1929" d="M156 500q0 259 120.5 469t333.5 329t475 119q318 0 508.5 -178t190.5 -477q0 -149 -51 -279.5t-146 -224.5q-69 -69 -151 -107t-160 -38q-77 0 -112.5 42t-35.5 134q-90 -91 -160.5 -131.5t-140.5 -40.5q-113 0 -183.5 91.5t-70.5 237.5q0 110 41.5 213.5t110 180 t162.5 122.5t194 46q88 0 203 -56l37 47h111q-17 -43 -48 -178l-88 -393q-16 -68 -16 -113q0 -40 22.5 -64t59.5 -24q81 0 157.5 76.5t123.5 201t47 257.5q0 256 -163.5 411.5t-432.5 155.5q-223 0 -405 -104.5t-285 -288.5t-103 -410q0 -333 202 -536t533 -203 q137 0 264.5 36t270.5 114l28 -70q-329 -180 -622 -180q-172 0 -325 59.5t-267 171.5q-229 226 -229 582zM748 469q0 -109 43 -168t122 -59q58 0 109 31.5t111 103.5l84 430l-84 115q-24 4 -56 4q-88 0 -164 -61.5t-120.5 -167t-44.5 -228.5z" />
<glyph unicode="A" horiz-adv-x="1241" d="M-162 0v78l113 10l756 1298h135l219 -1261l35 -37l100 -10v-78h-448v78l120 10l15 31l-64 389h-497l-220 -389l17 -31l125 -10v-78h-406zM373 596h428l-94 590z" />
<glyph unicode="B" horiz-adv-x="1208" d="M-53 0v78l129 10l35 31l217 1136l-21 31l-131 10v78h526q214 0 313 -62.5t99 -197.5q0 -103 -50.5 -185t-145.5 -136q-55 -31 -164 -64q164 -9 243.5 -78t79.5 -202q0 -222 -156 -335.5t-462 -113.5h-512zM285 90q70 -6 147 -6q214 0 329.5 90.5t115.5 259.5 q0 121 -76 178.5t-236 57.5q-46 0 -170 -11zM412 756q73 -6 108 -6q180 0 287.5 93.5t107.5 250.5q0 101 -69.5 150.5t-214.5 49.5q-35 0 -121 -6z" />
<glyph unicode="C" horiz-adv-x="1232" d="M78 543q0 175 64.5 333.5t174 273t262 182t320.5 67.5q160 0 371 -70l-58 -315h-86v196l-16 39q-108 51 -215 51q-172 0 -314.5 -101t-223.5 -277t-81 -390q0 -221 108.5 -339.5t311.5 -118.5q80 0 181 26l38 35l91 236h88l-56 -324q-229 -72 -405 -72q-255 0 -405 153.5 t-150 414.5z" />
<glyph unicode="D" horiz-adv-x="1345" d="M-53 0v78l131 10l33 31l219 1136l-21 31l-133 10v78h465q313 0 476 -134t163 -392q0 -231 -110 -430.5t-296 -306.5q-196 -111 -495 -111h-432zM291 94h112q135 0 255 41.5t198 116.5q100 94 162.5 268.5t62.5 356.5q0 204 -113 303.5t-343 99.5h-111z" />
<glyph unicode="E" horiz-adv-x="1114" d="M-53 0v78l129 10l35 31l219 1136l-23 31l-131 10v78h952l-57 -299h-98v174l-23 31h-440l-100 -520h311l37 28l45 150h88l-86 -449h-84l8 148l-24 29h-314l-110 -572h522l37 33l69 207h95l-66 -334h-991z" />
<glyph unicode="F" horiz-adv-x="1044" d="M-51 0v78l129 10l33 31l219 1136l-21 31l-131 10v78h930l-64 -321h-98v194l-20 33h-414l-102 -541h288l37 31l47 148h90l-88 -451h-88l9 147l-25 31h-289l-100 -526l28 -31l144 -10v-78h-514z" />
<glyph unicode="G" horiz-adv-x="1357" d="M78 547q0 197 87 373t245 299q229 180 536 180q187 0 361 -60l-60 -325h-108l6 192l-19 43q-105 51 -208 51q-130 0 -249 -60.5t-205 -162.5t-137 -244t-51 -298q0 -212 110 -336.5t298 -124.5q79 0 217 30l78 437l-21 28l-133 11v79h504v-79l-131 -11l-33 -28l-96 -494 q-264 -72 -430 -72q-255 0 -408 156t-153 416z" />
<glyph unicode="H" horiz-adv-x="1458" d="M-53 0v78l131 10l33 31l219 1136l-21 31l-133 10v78h500v-78l-135 -10l-31 -31l-96 -489h667l97 489l-25 31l-131 10v78h500v-78l-136 -10l-32 -31l-217 -1136l20 -31l131 -10v-78h-495v78l133 10l30 31l105 553h-666l-106 -553l24 -31l131 -10v-78h-497z" />
<glyph unicode="I" horiz-adv-x="638" d="M-41 0v78l131 10l33 31l219 1136l-23 31l-131 10v78h500v-78l-135 -10l-33 -31l-219 -1136l25 -31l133 -10v-78h-500z" />
<glyph unicode="J" horiz-adv-x="905" d="M-86 25l68 344h102v-260l25 -27q39 -8 71 -8q65 0 108 19t78 71.5t60 134.5t51 217l144 739l-23 31l-131 10v78h498v-78l-134 -10l-32 -31l-137 -731q-59 -308 -167.5 -428.5t-326.5 -120.5q-76 0 -132 11t-122 39z" />
<glyph unicode="K" horiz-adv-x="1288" d="M-53 0v78l131 10l33 31l219 1136l-23 31l-131 10v78h498v-78l-133 -10l-33 -31l-111 -559h60l563 555l-12 35l-144 10v78h496v-82l-170 -12l-539 -526l291 -566q36 -68 74 -89t129 -21h39v-78q-131 -8 -189 -8q-101 0 -143.5 27t-89.5 122l-238 469h-143l-94 -491l26 -31 l133 -10v-78h-499z" />
<glyph unicode="L" d="M-53 0v78l131 10l33 31l219 1136l-21 31l-133 10v78h498v-78l-133 -10l-33 -31l-225 -1161h434l37 33l80 246h98l-72 -373h-913z" />
<glyph unicode="M" horiz-adv-x="1722" d="M-51 0v78l129 10l33 31l217 1136l-23 31l-129 10v78h418v-55l186 -1043l574 1035v63h426v-78l-129 -10l-33 -31l-217 -1136l20 -31l131 -10v-78h-485v78l147 10l21 31l219 1149l-706 -1268h-91l-221 1262l-213 -1143l31 -31l121 -10v-78h-426z" />
<glyph unicode="N" horiz-adv-x="1402" d="M-66 0v78l132 10l32 31l219 1136l-20 31l-133 10v78h352v-51l490 -1038l188 970l-20 31l-132 10v78h431v-78l-132 -10l-32 -31l-240 -1255h-119l-538 1139l-199 -1020l23 -31l131 -10v-78h-433z" />
<glyph unicode="O" horiz-adv-x="1447" d="M82 543q0 204 89.5 396t240.5 310q190 150 426 150q235 0 382.5 -157t147.5 -406q0 -174 -59 -333.5t-159 -275t-237.5 -184t-287.5 -68.5q-243 0 -393 157t-150 411zM281 522q0 -205 95 -326.5t255 -121.5q110 0 209 63t174 180q74 118 114.5 256t40.5 275 q0 212 -95.5 332t-262.5 120q-139 0 -261.5 -107.5t-195.5 -287.5t-73 -383z" />
<glyph unicode="P" horiz-adv-x="1114" d="M-53 0v78l131 10l33 31l219 1136l-23 31l-131 10v78h436q130 0 206.5 -11.5t133.5 -39.5q164 -85 164 -287q0 -227 -174.5 -373.5t-445.5 -146.5q-47 0 -131 4l-78 -401l14 -31l131 -10v-78h-485zM383 616q37 -4 78 -4q221 0 343 107t122 301q0 135 -78.5 200.5 t-241.5 65.5q-24 0 -94 -4z" />
<glyph unicode="Q" horiz-adv-x="1447" d="M82 541q0 172 60 330.5t161 274t239.5 184.5t288.5 69q239 0 388 -155t149 -404q0 -259 -124.5 -477.5t-330.5 -319.5q83 -158 142 -209t157 -51q85 0 220 53v-69q-121 -55 -191.5 -75t-142.5 -20q-171 0 -281 158q-28 39 -82 156q-62 -11 -108 -11q-244 0 -394.5 156 t-150.5 410zM281 522q0 -205 95 -326.5t255 -121.5q110 0 209 63t174 180q74 118 114.5 256t40.5 275q0 212 -95.5 332t-262.5 120q-139 0 -261.5 -107.5t-195.5 -287.5t-73 -383z" />
<glyph unicode="R" horiz-adv-x="1239" d="M-53 0v78l131 10l33 29l219 1138l-23 31l-145 10v78h518q223 0 328.5 -72t105.5 -223q0 -331 -409 -430q57 -15 90.5 -34t62.5 -61.5t49 -101t49 -167.5q23 -88 51.5 -131t74.5 -59.5t132 -16.5v-76q-94 -12 -145 -12q-159 0 -225 92q-25 37 -40 84.5t-44 181.5 q-24 105 -39 143t-47 68q-32 29 -69.5 40t-102.5 11q-62 0 -117 -2l-96 -489l24 -31l133 -10v-78h-499zM403 707q44 -5 78 -5q204 0 319 90.5t115 251.5q0 123 -75 179.5t-236 56.5q-53 0 -90 -2z" />
<glyph unicode="S" horiz-adv-x="1099" d="M18 70l68 325h107l-21 -235l21 -27q126 -59 233 -59q151 0 247.5 81.5t96.5 209.5q0 97 -63 151q-25 19 -45.5 30.5t-139.5 71.5q-187 95 -255 170t-68 185q0 184 145 305t365 121q89 0 163.5 -14t174.5 -48l-66 -311h-90l8 203l-25 37q-91 39 -180 39q-138 0 -229.5 -79 t-91.5 -198q0 -107 82 -168q30 -21 53.5 -33.5t146.5 -70.5q163 -75 229 -151t66 -189q0 -193 -156 -317t-399 -124q-105 0 -190.5 21.5t-186.5 73.5z" />
<glyph unicode="T" horiz-adv-x="1157" d="M102 1069l60 305h1102l-62 -305h-110l8 191l-23 30h-291l-225 -1171l27 -31l133 -10v-78h-500v78l131 10l33 31l219 1171h-289l-34 -30l-66 -191h-113z" />
<glyph unicode="U" horiz-adv-x="1353" d="M133 305q0 54 25 187l147 763l-22 31l-131 10v78h497v-78l-133 -10l-33 -31l-145 -745q-19 -104 -19 -154q0 -126 74 -191t217 -65q181 0 278 95t140 315l146 745l-25 31l-133 10v78h428v-78l-129 -10l-35 -31l-150 -763q-31 -160 -67 -239.5t-105 -141.5 q-148 -136 -409 -136q-199 0 -307.5 86t-108.5 244z" />
<glyph unicode="V" horiz-adv-x="1208" d="M63 1296v78h429v-78l-115 -10l-15 -31l162 -1067l555 1067l-16 31l-119 10v78h385v-78l-108 -12l-703 -1294h-127l-198 1259l-33 37z" />
<glyph unicode="W" horiz-adv-x="1839" d="M104 1296v78h439v-78l-117 -10l-14 -31l75 -964l508 1083h133l115 -1098l449 979l-17 31l-121 10v78h394v-78l-119 -12l-600 -1284h-117l-121 1124l-522 -1124h-129l-102 1249l-35 37z" />
<glyph unicode="X" horiz-adv-x="1165" d="M-170 0v78l133 10l35 31l510 577l-246 559l-20 31l-131 10v78h497v-78l-135 -10l-31 -31l183 -424l372 424l-12 31l-117 10v78h426v-78l-143 -10l-479 -549l270 -618l21 -31l131 -10v-78h-496v78l133 10l33 31l-201 471l-422 -471l21 -31l133 -10v-78h-465z" />
<glyph unicode="Y" horiz-adv-x="1150" d="M63 1296v78h498v-78l-133 -10l-33 -31l185 -579l428 579l-21 31l-131 10v78h459v-78l-135 -10l-33 -31l-520 -680l-90 -456l26 -31l133 -10v-78h-497v78l129 10l32 31l86 438l-229 698l-20 31z" />
<glyph unicode="Z" horiz-adv-x="1138" d="M-51 0l14 84l967 1192h-508l-45 -27l-70 -192h-106l61 317h909l-18 -86l-969 -1188h586l29 27l82 244h100l-70 -371h-962z" />
<glyph unicode="[" horiz-adv-x="862" d="M100 -270l330 1720h485l-16 -88h-324l-296 -1546h323l-16 -86h-486z" />
<glyph unicode="\" horiz-adv-x="985" d="M72 1374h114l813 -1564h-114z" />
<glyph unicode="]" horiz-adv-x="862" d="M-84 -270l16 88h324l297 1546h-324l17 86h485l-330 -1720h-485z" />
<glyph unicode="^" horiz-adv-x="1705" d="M242 834l522 565h178l520 -565h-92l-518 436l-520 -436h-90z" />
<glyph unicode="_" d="M0 -164h1024v-119h-1024v119z" />
<glyph unicode="`" d="M467 1522h203l123 -389h-103z" />
<glyph unicode="a" horiz-adv-x="1083" d="M43 340q0 177 75 326.5t204.5 236t283.5 86.5q104 0 201 -47l41 45h106q-32 -66 -77 -293l-74 -362q-21 -102 -21 -146q0 -92 105 -92q27 0 121 21v-62q-102 -41 -157 -56t-101 -15q-63 0 -91 40.5t-28 131.5q-89 -92 -161.5 -132t-150.5 -40q-128 0 -202 96t-74 262z M211 354q0 -248 176 -248q63 0 117 30t129 106l106 540l-82 125q-14 2 -32 2q-116 0 -211 -72.5t-149 -200t-54 -282.5z" />
<glyph unicode="b" horiz-adv-x="1028" d="M51 72l240 1290l-178 31v53l311 61h68q-35 -116 -48 -188l-88 -481q99 81 170.5 116t135.5 35q118 0 191 -98t73 -256q0 -181 -75.5 -331t-206.5 -236t-288 -86q-82 0 -150.5 20t-154.5 70zM225 147q86 -81 181 -81q89 0 171 77t131.5 205.5t49.5 269.5q0 114 -46 180 t-126 66q-48 0 -102 -23.5t-142 -82.5z" />
<glyph unicode="c" horiz-adv-x="815" d="M39 356q0 126 43.5 243t116.5 202.5t172.5 136.5t206.5 51q79 0 133.5 -40t54.5 -99q0 -47 -34.5 -78t-94.5 -35l-119 156q-138 0 -227.5 -142t-89.5 -362q0 -135 52.5 -210t147.5 -75q77 0 154.5 40t169.5 128v-94q-193 -196 -387 -196q-136 0 -217.5 102t-81.5 272z " />
<glyph unicode="d" horiz-adv-x="1083" d="M41 346q0 155 56.5 284.5t164.5 223.5q153 135 342 135q79 0 162 -28l72 411l-181 17v57l314 61h53l-219 -1226q-12 -76 -12 -113q0 -82 86 -82q52 0 137 20v-61q-171 -59 -256 -59q-133 0 -133 149q0 19 2 37q-150 -190 -322 -190q-124 0 -195 97.5t-71 266.5zM209 360 q0 -123 45 -192.5t123 -69.5q66 0 130.5 41.5t137.5 132.5l90 514l-98 117q-44 6 -55 6q-96 0 -182.5 -76.5t-138.5 -203.5t-52 -269z" />
<glyph unicode="e" horiz-adv-x="866" d="M39 350q0 159 67 300.5t185 232.5q137 106 272 106q94 0 151.5 -56t57.5 -147q0 -139 -144 -224t-415 -107q-6 -49 -6 -88q0 -126 56 -199.5t151 -73.5q78 0 156 39.5t178 128.5v-96q-198 -184 -398 -184q-146 0 -228.5 97.5t-82.5 270.5zM223 524q96 7 160 25.5 t119 52.5q123 78 123 189q0 47 -31.5 79.5t-77.5 32.5q-94 0 -171.5 -100t-121.5 -279z" />
<glyph unicode="f" horiz-adv-x="598" d="M-309 -336q0 47 45 84l213 -55q64 70 97.5 182t72.5 377l86 588l-135 -15v68l155 63q46 247 163.5 395t266.5 148q71 0 120.5 -35.5t49.5 -87.5q0 -80 -100 -104l-168 137q-117 -76 -184 -477h289v-92h-306l-82 -582q-23 -168 -56 -272t-91 -191q-73 -110 -161 -173.5 t-165 -63.5q-49 0 -79.5 30t-30.5 76z" />
<glyph unicode="g" horiz-adv-x="980" d="M-68 -174q0 95 64 162.5t209 122.5q-2 16 -2 34q0 51 19 96.5t63 102.5q-189 81 -189 254q0 161 117 276t281 115q50 0 91 -11t101 -40h293v-88h-211q27 -76 27 -139q0 -121 -65 -215.5t-179 -137.5q-80 -28 -197 -28q-26 -48 -26 -121l325 -148q160 -72 160 -198 q0 -82 -67.5 -153.5t-182 -113.5t-246.5 -42q-175 0 -280 74t-105 198zM94 -133q0 -101 77.5 -164t203.5 -63q119 0 200.5 51.5t81.5 126.5q0 77 -116 131l-260 121q-187 -49 -187 -203zM258 573q0 -83 35.5 -129.5t99.5 -46.5q95 0 167.5 99t72.5 229q0 89 -36.5 138.5 t-102.5 49.5q-61 0 -116 -47.5t-87.5 -126.5t-32.5 -166z" />
<glyph unicode="h" horiz-adv-x="1120" d="M47 0l281 1372l-193 21v53l322 61h63q-44 -174 -82 -362l-67 -350q138 108 226 151t173 43q74 0 120 -45.5t46 -118.5q0 -60 -29 -184l-71 -317q-21 -94 -21 -134q0 -50 27 -76t78 -26q40 0 114 18v-55q-162 -65 -252 -65q-143 0 -143 127q0 51 14 108l88 379 q21 99 21 137q0 60 -27 92.5t-76 32.5q-125 0 -311 -168l-127 -694h-174z" />
<glyph unicode="i" horiz-adv-x="585" d="M66 868v52l303 67h53l-148 -766q-6 -24 -6 -51q0 -38 24 -59t70 -21q54 0 156 31v-64q-175 -71 -289 -71q-131 0 -131 137q0 31 13 104l120 611zM299 1329q0 47 32.5 80t78.5 33q44 0 77 -34t33 -79q0 -44 -33 -76t-79 -32t-77.5 31t-31.5 77z" />
<glyph unicode="j" horiz-adv-x="550" d="M-262 -336q0 48 45 84l211 -55q65 74 98.5 184t73.5 375l92 604l-207 25v47l311 59h74l-114 -729q-29 -181 -57 -272t-81 -174q-73 -117 -165.5 -185.5t-174.5 -68.5q-47 0 -76.5 30t-29.5 76zM289 1329q0 46 32 78.5t78 32.5q44 0 77.5 -33.5t33.5 -77.5 q0 -45 -33 -77.5t-78 -32.5q-46 0 -78 32t-32 78z" />
<glyph unicode="k" horiz-adv-x="1050" d="M49 0l277 1380l-189 13v53l322 61h57l-219 -1020l379 392q107 110 182 110q47 0 81 -31t34 -75q0 -41 -26 -70t-87 -57l-74 80q-88 -64 -264 -222q79 -178 112.5 -245.5t74.5 -137.5q85 -143 194 -143q48 0 105 14v-57q-179 -55 -244 -55q-110 0 -189 157l-174 353 l-116 -107l-66 -393h-170z" />
<glyph unicode="l" horiz-adv-x="550" d="M70 121q0 68 36 248l197 1003l-182 21v53l311 61h55q-3 -18 -11.5 -65.5t-12.5 -69.5l-207 -1028q-23 -124 -23 -160q0 -102 111 -102q45 0 148 33v-64q-173 -69 -277 -69q-69 0 -107 36.5t-38 102.5z" />
<glyph unicode="m" horiz-adv-x="1667" d="M63 0l170 838l-167 30v52l303 67h51l-37 -194q130 104 222.5 150t170.5 46q148 0 160 -188q120 98 210 143t167 45q74 0 120 -49t46 -127q0 -50 -25 -172l-70 -317q-22 -105 -22 -136q0 -46 27.5 -73t74.5 -27q44 0 117 18v-55q-166 -65 -256 -65q-66 0 -102.5 31 t-36.5 89q0 49 16 115l88 379q19 90 19 135q0 61 -26.5 94t-76.5 33q-126 0 -276 -166l-133 -696h-170l123 600q18 94 18 141q0 54 -29 87.5t-75 33.5q-105 0 -299 -168l-129 -694h-173z" />
<glyph unicode="n" horiz-adv-x="1136" d="M63 0l170 838l-167 30v52l303 67h51l-37 -196q142 112 230 155t173 43q73 0 119.5 -45.5t46.5 -116.5q0 -59 -28 -186l-70 -317q-23 -106 -23 -136q0 -47 27.5 -73.5t77.5 -26.5q41 0 115 18v-57q-97 -37 -150 -50t-104 -13q-69 0 -105.5 32t-36.5 93q0 41 17 110l88 379 q18 77 18 135q0 127 -102 127q-124 0 -311 -170l-127 -692h-175z" />
<glyph unicode="o" horiz-adv-x="1028" d="M41 369q0 170 70.5 313t192 225t265.5 82q158 0 252 -108.5t94 -288.5q0 -123 -42 -236t-112 -195t-167 -130.5t-203 -48.5q-160 0 -255 105t-95 282zM215 377q0 -149 51.5 -231.5t145.5 -82.5q91 0 166.5 71t119 193.5t43.5 268.5q0 151 -52 231t-152 80q-88 0 -162 -71 t-117 -193t-43 -266z" />
<glyph unicode="p" horiz-adv-x="1062" d="M-129 -385l121 25l20 22l215 1192l-159 20v52l290 61h54l-25 -125q101 69 172.5 98t140.5 29q120 0 188 -94t68 -260q0 -275 -174 -461q-82 -86 -183 -134t-202 -48q-72 0 -161 39l-68 -381l194 -35v-61h-491v61zM256 137q96 -55 176 -55q68 0 128.5 32.5t103.5 92.5 q59 85 91.5 197t32.5 227q0 110 -50.5 180t-129.5 70q-50 0 -99.5 -23t-135.5 -86z" />
<glyph unicode="q" horiz-adv-x="1040" d="M41 352q0 169 74.5 316t201 234t271.5 87q91 0 196 -43l54 51h98q-22 -92 -25 -110l-211 -1233l197 -35v-65h-504v65l125 25l23 24l82 473q-93 -84 -163.5 -118.5t-144.5 -34.5q-126 0 -200 98.5t-74 265.5zM209 360q0 -122 48.5 -188t137.5 -66q61 0 116.5 28t125.5 95 l98 555l-102 121q-20 2 -37 2q-104 0 -193 -74t-141.5 -200t-52.5 -273z" />
<glyph unicode="r" horiz-adv-x="821" d="M63 0l170 838l-167 30v52l303 67h41l-66 -280q110 149 197.5 215.5t173.5 66.5q47 0 77.5 -31.5t30.5 -78.5q0 -59 -39 -95t-102 -36h-10l-54 110q-141 -57 -206 -139t-93 -238l-83 -481h-173z" />
<glyph unicode="s" horiz-adv-x="757" d="M-35 160q0 47 29.5 77.5t75.5 30.5q22 0 40 -8t50 -31l-37 -102q31 -38 65.5 -55t83.5 -17q83 0 134 46.5t51 121.5q0 52 -29.5 93t-112.5 104q-78 59 -99 77.5t-46 47.5q-49 55 -49 135q0 126 103.5 217.5t246.5 91.5q86 0 139.5 -36t53.5 -93q0 -44 -31 -71t-88 -33 l-86 118q-36 23 -66 23q-60 0 -100.5 -40t-40.5 -97q0 -48 28 -83t126 -110q77 -59 101 -79.5t48 -45.5q57 -60 57 -147q0 -137 -106.5 -225t-272.5 -88q-121 0 -194.5 49t-73.5 129z" />
<glyph unicode="t" horiz-adv-x="681" d="M90 170q0 58 16 139l111 555l-127 -10v61l150 66l102 205h94l-43 -234h295v-88h-311l-107 -547q-12 -61 -12 -94q0 -59 32 -90t93 -31q77 0 195 39v-65q-210 -90 -322 -90q-81 0 -123.5 47t-42.5 137z" />
<glyph unicode="u" horiz-adv-x="1142" d="M70 870v52l321 69l33 -28l-129 -598q-23 -108 -23 -150q0 -54 30.5 -85.5t84.5 -31.5q123 0 295 131l154 742h165l-145 -670q-20 -98 -20 -135t29 -60.5t75 -23.5q33 0 117 22v-57q-113 -39 -165.5 -52t-100.5 -13q-119 0 -119 133q0 19 2 39q-197 -172 -373 -172 q-91 0 -144 51.5t-53 140.5q0 45 17 125l119 541z" />
<glyph unicode="v" horiz-adv-x="929" d="M-16 872v52l206 65q82 0 115 -47t45 -186l53 -561q133 172 202.5 283t111.5 222l-39 250q55 39 104 39q48 0 77.5 -30t29.5 -80q0 -188 -357 -639q-115 -140 -204 -244h-99q29 64 29 139q0 18 -4 72l-51 479q-14 141 -62 174z" />
<glyph unicode="w" horiz-adv-x="1460" d="M0 874v50l236 69l71 -4l45 -807q172 328 237.5 460t139.5 300l123 14q16 -331 55 -802l101 137q174 251 231 414l-41 239q45 45 102 45q50 0 79.5 -29.5t29.5 -78.5q0 -109 -107 -288.5t-419 -592.5h-119l-49 715q-114 -233 -391 -715h-134l17 45l-55 811z" />
<glyph unicode="x" horiz-adv-x="976" d="M-96 92q0 87 100 105l94 -88q75 40 150.5 141.5t134.5 241.5q-44 156 -79 236t-77 120l-170 22v50l207 71q10 2 27 2q77 0 119 -92q18 -38 28.5 -74.5t65.5 -246.5q200 409 391 409q49 0 83 -32t34 -78q0 -38 -24 -66t-77 -51l-88 80q-138 -37 -274 -350q48 -168 59 -203 t31 -82q46 -119 137 -119q46 0 113 21v-64q-91 -35 -140 -47t-94 -12q-55 0 -93 31.5t-64 99.5q-31 87 -76 280q-108 -222 -199.5 -318.5t-191.5 -96.5q-57 0 -92 30.5t-35 79.5z" />
<glyph unicode="y" horiz-adv-x="972" d="M-231 -309q0 43 28.5 72.5t81.5 39.5l121 -120q91 6 174.5 89.5t177.5 260.5l-127 622q-25 132 -82 213l-174 15v45l201 65q10 2 27 2q79 0 118 -86q20 -41 32.5 -92t53.5 -262l68 -346q132 332 322 778h38l162 -53v-43l-104 -62q-60 -70 -101.5 -143.5t-132.5 -269.5 q-97 -214 -166 -341.5t-147 -234.5q-206 -284 -401 -284q-70 0 -120 39.5t-50 95.5z" />
<glyph unicode="z" horiz-adv-x="901" d="M-29 39l705 790l-203 -45q-120 60 -182 60q-73 0 -127 -66l108 -131q-23 -36 -44.5 -50.5t-51.5 -14.5q-44 0 -70 31.5t-26 86.5q0 110 85 199.5t191 89.5q38 0 77.5 -12.5t107.5 -48.5q78 -41 121 -41q24 0 63 16l39 101l125 -66l-707 -788l199 51q160 -68 213 -68 q69 0 123 74l-113 125q46 74 101 74q42 0 70 -34.5t28 -86.5q0 -112 -87.5 -200.5t-197.5 -88.5q-60 0 -168 45q-107 43 -155 43q-25 0 -62 -18l-49 -89z" />
<glyph unicode="{" horiz-adv-x="995" d="M106 549l17 90q27 -2 57 -2q132 0 198 59t95 205l41 209q34 175 142 252.5t319 77.5h26l-14 -76q-150 -3 -216.5 -56t-92.5 -190l-33 -166q-34 -169 -106.5 -246.5t-229.5 -111.5q114 -28 163.5 -82t49.5 -150q0 -46 -12 -114l-33 -170q-20 -108 -20 -148 q0 -63 54.5 -93.5t172.5 -31.5l-16 -79q-106 0 -146 3t-84 15q-141 38 -141 195q0 58 20 161l35 174q13 73 13 109q0 95 -48.5 130.5t-177.5 35.5h-33z" />
<glyph unicode="|" d="M449 -512v2048h126v-2048h-126z" />
<glyph unicode="}" horiz-adv-x="995" d="M-39 -274l14 79q85 2 135.5 13t87 43t56 81.5t35.5 135.5l33 170q29 154 106.5 234t228.5 112q-109 23 -161 77.5t-52 143.5q0 48 17 137l33 166q12 70 12 101q0 72 -54.5 107t-172.5 38l14 76h24q183 0 266 -55.5t83 -178.5q0 -45 -11 -96l-41 -209q-14 -74 -14 -110 q0 -154 199 -154l61 2l-16 -90h-41q-146 0 -214 -60.5t-97 -214.5l-33 -174q-29 -148 -78.5 -227t-137 -113t-239.5 -34h-43z" />
<glyph unicode="~" horiz-adv-x="1705" d="M254 539q55 123 127.5 176t179.5 53q83 0 148 -29l307 -133q64 -28 133 -28t113.5 37t87.5 130l102 -63q-55 -123 -127.5 -176t-179.5 -53q-82 0 -148 28l-307 133q-66 29 -133 29q-69 0 -113.5 -37.5t-87.5 -130.5z" />
<glyph unicode="&#xa1;" horiz-adv-x="692" d="M53 -340q0 52 35 178l209 783h98l-92 -783q-19 -152 -52.5 -209t-105.5 -57q-43 0 -67.5 23.5t-24.5 64.5zM262 872q0 48 35 82.5t84 34.5q46 0 80.5 -35.5t34.5 -81.5q0 -47 -34 -81.5t-81 -34.5q-49 0 -84 34.5t-35 81.5z" />
<glyph unicode="&#xa2;" horiz-adv-x="1138" d="M86 393q0 240 147.5 412.5t391.5 218.5l39 207h92l-39 -203h28q86 0 141.5 -9.5t119.5 -35.5l-43 -231h-109l10 145q-75 41 -164 41l-161 -844q98 0 180 39l45 152h108l-47 -240q-128 -45 -247 -45q-31 0 -58 2l-39 -203h-92l39 207q-166 28 -254 127t-88 260zM260 399 q0 -120 47.5 -196.5t138.5 -104.5l160 832q-157 -49 -251.5 -194.5t-94.5 -336.5z" />
<glyph unicode="&#xa3;" horiz-adv-x="1138" d="M-43 0v117q152 32 222.5 139.5t111.5 368.5h-144v94h160q37 334 179 507t378 173q113 0 184.5 -42t71.5 -108q0 -52 -38 -82t-126 -47l-92 178q-164 0 -249.5 -129t-135.5 -450h377v-94h-395q-53 -338 -295 -475l2 -5q104 11 141 11h609v-156h-961z" />
<glyph unicode="&#xa4;" horiz-adv-x="1138" d="M35 424l207 205q-47 66 -67.5 125.5t-20.5 130.5t20.5 130.5t67.5 125.5l-207 205l71 73l207 -207q69 50 127.5 70.5t128.5 20.5q71 0 131 -21t129 -70l205 207l72 -73l-205 -205q86 -124 86 -256t-86 -256l205 -205l-72 -74l-205 207q-66 -47 -125.5 -67.5t-134.5 -20.5 q-74 0 -131.5 20t-124.5 68l-207 -207zM256 887q0 -131 92.5 -223.5t222.5 -92.5q129 0 221.5 93t92.5 223q0 131 -92.5 222t-225.5 91q-128 0 -219.5 -92t-91.5 -221z" />
<glyph unicode="&#xa5;" horiz-adv-x="1138" d="M41 483v84h412l-60 211h-293v84h269l-111 395l-106 21v82h440v-82l-125 -12l-23 -23l142 -561l375 545l-13 28l-98 23v82h375v-82l-123 -25l-279 -391h262v-84h-321l-150 -211h414v-84h-428l-68 -362l29 -29l137 -10v-82h-522v82l150 10l43 29l67 362h-395z" />
<glyph unicode="&#xa6;" d="M449 -358v716h126v-716h-126zM449 666v716h126v-716h-126z" />
<glyph unicode="&#xa7;" d="M8 -223l45 264h101l-7 -184q94 -54 185 -54q101 0 173.5 58.5t72.5 140.5q0 62 -43 105t-166 104q-91 46 -123 66t-60 47q-84 87 -84 206q0 123 80 220t232 157q-91 54 -126.5 102.5t-35.5 120.5q0 152 125.5 246t329.5 94q124 0 266 -47l-51 -264h-91l9 164 q-99 61 -187 61q-94 0 -166.5 -59t-72.5 -137q0 -44 23.5 -76t78.5 -63q50 -28 156 -82q217 -114 217 -287q0 -118 -82.5 -217t-237.5 -168q170 -86 170 -221q0 -151 -130.5 -256t-319.5 -105q-123 0 -281 64zM264 590q0 -80 49.5 -133t190.5 -125q118 70 170.5 139 t52.5 152q0 78 -54.5 135.5t-180.5 109.5q-228 -101 -228 -278z" />
<glyph unicode="&#xa8;" d="M471 1329q0 44 30 74.5t74 30.5q43 0 74 -31t31 -74q0 -42 -32 -73t-75 -31q-41 0 -71.5 30.5t-30.5 73.5zM852 1329q0 43 31 74t75 31q41 0 72 -31t31 -74t-31 -73.5t-74 -30.5q-41 0 -72.5 31.5t-31.5 72.5z" />
<glyph unicode="&#xa9;" horiz-adv-x="1843" d="M133 692q0 217 106.5 400t290.5 289t402 106q208 0 387.5 -107.5t285 -290.5t105.5 -395q0 -159 -63 -305t-169 -251.5t-252 -168.5t-306 -63t-305.5 62.5t-251 167.5t-168 250.5t-62.5 305.5zM223 692q0 -143 55.5 -273t149 -224t223 -149.5t271.5 -55.5q141 0 270 56.5 t223 151t149.5 225t55.5 273.5q0 145 -55.5 276t-150 225.5t-225.5 150t-276 55.5q-139 0 -266.5 -57t-220.5 -152.5t-148 -227t-55 -274.5zM449 692q0 218 139.5 351t369.5 133q121 0 285 -48v-245h-88l-31 153q-80 45 -159 45q-148 0 -243 -109t-95 -278 q0 -164 93.5 -276.5t231.5 -112.5q68 0 176 39l27 172h88v-256q-153 -51 -297 -51q-221 0 -359 134t-138 349z" />
<glyph unicode="&#xaa;" horiz-adv-x="751" d="M111 733q0 163 102.5 275t253.5 112q63 0 125 -26l24 26h68q-17 -34 -49 -176l-47 -217q-13 -60 -13 -88q0 -53 66 -53q22 0 76 12v-37q-109 -43 -162 -43q-40 0 -57 24.5t-17 78.5q-68 -62 -106.5 -82.5t-89.5 -20.5q-82 0 -128 57.5t-46 157.5zM219 741 q0 -149 109 -149q39 0 71 17t82 65l68 323l-51 76q-126 2 -202.5 -89t-76.5 -243z" />
<glyph unicode="&#xab;" horiz-adv-x="905" d="M27 410l30 163l389 273l-26 -135l-283 -219l199 -222l-27 -133zM430 410l31 163l389 273l-27 -135l-282 -219l198 -222l-26 -133z" />
<glyph unicode="&#xac;" horiz-adv-x="1705" d="M254 551v119h1198v-502h-115v383h-1083z" />
<glyph unicode="&#xad;" horiz-adv-x="653" d="M47 424l27 137h458l-26 -137h-459z" />
<glyph unicode="&#xae;" horiz-adv-x="1126" d="M66 969q0 102 39 194t105.5 158.5t158.5 105.5t194 39q136 0 250.5 -66t181 -180.5t66.5 -250.5t-66.5 -250.5t-181 -181t-250.5 -66.5t-250.5 66.5t-180.5 181t-66 250.5zM141 969q0 -175 123.5 -298.5t298.5 -123.5t298.5 123.5t123.5 298.5t-123.5 298.5t-298.5 123.5 t-298.5 -123.5t-123.5 -298.5zM319 1196v43h259q198 0 198 -129q0 -56 -38 -93t-111 -50q88 -18 123 -121q2 -7 10 -31q14 -38 39 -52.5t80 -14.5v-46q-36 -8 -76 -8q-98 0 -144 125q-15 42 -20 51q-18 39 -43 53.5t-80 14.5h-35v-184l78 -9v-45h-233v43l63 9v432zM481 987 l33 -2q75 0 115.5 26.5t40.5 75.5q0 51 -41.5 79t-116.5 28l-31 -2v-205z" />
<glyph unicode="&#xaf;" d="M451 1276l18 104h616l-18 -104h-616z" />
<glyph unicode="&#xb0;" horiz-adv-x="675" d="M154 1169q0 121 82 203t204 82q114 0 196.5 -83t82.5 -200q0 -118 -83 -201t-202 -83q-118 0 -199 81.5t-81 200.5zM236 1171q0 -85 58.5 -143.5t141.5 -58.5q84 0 142.5 58.5t58.5 143.5t-58.5 143t-144.5 58q-82 0 -140 -59t-58 -142z" />
<glyph unicode="&#xb1;" horiz-adv-x="1705" d="M209 39v119h1198v-119h-1198zM209 717v119h539v344h118v-344h541v-119h-541v-344h-118v344h-539z" />
<glyph unicode="&#xb2;" horiz-adv-x="716" d="M-63 815l18 90q248 161 364 256q187 150 187 289q0 58 -34.5 90.5t-96.5 32.5q-51 0 -109 -25l-24 -127q-46 -24 -76 -24q-34 0 -53 15.5t-19 43.5q0 50 46 96.5t122 74.5t158 28q109 0 172 -52t63 -141q0 -135 -172 -282q-63 -55 -132 -104.5t-218 -145.5h344l45 102h82 l-45 -217h-622z" />
<glyph unicode="&#xb3;" horiz-adv-x="716" d="M-18 940q0 34 25 56t63 22q20 0 53 -8l18 -105q46 -28 99 -28q97 0 161 57t64 145q0 57 -38.5 91t-102.5 34l-50 -2l-45 -4l13 88q65 0 96.5 4.5t64.5 18.5q111 45 111 147q0 56 -35.5 89.5t-95.5 33.5q-53 0 -113 -35l-18 -117q-47 -18 -74 -18q-29 0 -48 18.5t-19 45.5 q0 72 96 127t223 55q107 0 170.5 -47t63.5 -127q0 -75 -57.5 -135.5t-155.5 -88.5q79 -10 121 -51.5t42 -109.5q0 -119 -116.5 -207t-274.5 -88q-104 0 -172.5 39.5t-68.5 99.5z" />
<glyph unicode="&#xb4;" d="M629 1133l272 389h203l-375 -389h-100z" />
<glyph unicode="&#xb5;" horiz-adv-x="1142" d="M-8 -446l303 1419h160l-131 -600q-23 -112 -23 -158q0 -54 30.5 -85.5t84.5 -31.5q123 0 295 131l153 742h166l-145 -670q-21 -103 -21 -135q0 -37 29.5 -60.5t75.5 -23.5q32 0 116 22v-57q-113 -39 -165.5 -52t-100.5 -13q-119 0 -119 133q0 19 2 39 q-197 -172 -372 -172q-64 0 -80 24l-98 -452h-160z" />
<glyph unicode="&#xb6;" horiz-adv-x="991" d="M53 973q0 209 116 305t368 96h401v-74l-127 -20v-1442h-100v1452h-156v-715q-261 -2 -381.5 93.5t-120.5 304.5z" />
<glyph unicode="&#xb7;" horiz-adv-x="569" d="M166 686q0 52 35 87.5t88 35.5q51 0 86 -36t35 -87t-35.5 -86t-87.5 -35q-51 0 -86 35t-35 86z" />
<glyph unicode="&#xb8;" d="M260 -426l14 72q59 -15 117 -15q72 0 114 28t42 75q0 28 -22 43.5t-62 15.5q-22 0 -47 -4l43 221h73l-24 -127q20 2 41 2q131 0 131 -112q0 -94 -80.5 -158t-198.5 -64q-56 0 -141 23z" />
<glyph unicode="&#xb9;" horiz-adv-x="716" d="M92 815v70l141 8l15 14l123 617l-4 4l-195 -23v68l313 82h45l-151 -752l8 -12l117 -6v-70h-412z" />
<glyph unicode="&#xba;" horiz-adv-x="751" d="M129 750q0 155 97 262.5t237 107.5q98 0 157.5 -65t59.5 -174q0 -149 -97.5 -256t-234.5 -107q-100 0 -159.5 63t-59.5 169zM238 754q0 -90 33 -138.5t94 -48.5q86 0 146 94t60 226q0 89 -33 136.5t-96 47.5q-86 0 -145 -92.5t-59 -224.5z" />
<glyph unicode="&#xbb;" horiz-adv-x="905" d="M-12 137l24 133l283 222l-197 219l25 135l285 -273l-31 -163zM391 137l25 133l282 222l-196 219l24 135l285 -273l-31 -163z" />
<glyph unicode="&#xbc;" horiz-adv-x="1812" d="M139 528v70l142 8l14 15l123 616l-4 4l-195 -22v67l313 82h46l-152 -752l8 -12l117 -6v-70h-412zM293 0l1139 1374h124l-1138 -1374h-125zM975 233l18 91l549 507h94l-100 -501h145l-20 -97h-143l-58 -278h-125l58 278h-418zM1128 330h281l68 327z" />
<glyph unicode="&#xbd;" horiz-adv-x="1812" d="M139 528v70l142 8l14 15l123 616l-4 4l-195 -22v67l313 82h46l-152 -752l8 -12l117 -6v-70h-412zM293 0l1139 1374h124l-1138 -1374h-125zM1006 0l18 90q253 165 365 256q186 149 186 289q0 58 -34.5 90.5t-96.5 32.5q-51 0 -109 -25l-24 -127q-47 -24 -76 -24 q-34 0 -53 15.5t-19 43.5q0 50 46 96.5t122 74.5t158 28q109 0 172 -52t63 -141q0 -135 -172 -282q-63 -55 -132 -104.5t-218 -145.5h344l45 102h82l-45 -217h-622z" />
<glyph unicode="&#xbe;" horiz-adv-x="1812" d="M43 653q0 34 25 56t63 22q20 0 53 -8l19 -105q46 -28 98 -28q97 0 161 57.5t64 145.5q0 57 -38.5 91t-102.5 34l-49 -3l-45 -4l12 88q65 0 97 4.5t65 18.5q110 44 110 147q0 56 -35.5 89.5t-95.5 33.5q-52 0 -112 -35l-19 -116q-49 -19 -73 -19q-29 0 -48.5 18.5 t-19.5 45.5q0 72 96.5 127t223.5 55q107 0 170 -47t63 -127q0 -75 -57.5 -135t-155.5 -88q79 -10 121.5 -52t42.5 -110q0 -119 -116.5 -207t-274.5 -88q-104 0 -173 39.5t-69 99.5zM293 0l1139 1374h124l-1138 -1374h-125zM975 233l18 91l549 507h94l-100 -501h145l-20 -97 h-143l-58 -278h-125l58 278h-418zM1128 330h281l68 327z" />
<glyph unicode="&#xbf;" horiz-adv-x="995" d="M-20 -131q0 115 62 217t181 182q61 43 221 113l48 240h106l-57 -299q-373 -138 -373 -437q0 -112 58.5 -164t189.5 -55l123 203q20 2 39 2q102 0 102 -82q0 -92 -99 -154.5t-245 -62.5q-167 0 -261.5 78.5t-94.5 218.5zM465 872q0 47 35 82t82 35q46 0 81 -35.5t35 -81.5 q0 -47 -34.5 -81.5t-81.5 -34.5t-82 34.5t-35 81.5z" />
<glyph unicode="&#xc0;" horiz-adv-x="1241" d="M-162 0v78l113 10l756 1298h135l219 -1261l35 -37l100 -10v-78h-448v78l120 10l15 31l-64 389h-497l-220 -389l17 -31l125 -10v-78h-406zM373 596h428l-94 590zM541 1835h215l127 -313h-117z" />
<glyph unicode="&#xc1;" horiz-adv-x="1241" d="M-162 0v78l113 10l756 1298h135l219 -1261l35 -37l100 -10v-78h-448v78l120 10l15 31l-64 389h-497l-220 -389l17 -31l125 -10v-78h-406zM373 596h428l-94 590zM684 1522l285 313h221l-385 -313h-121z" />
<glyph unicode="&#xc2;" horiz-adv-x="1241" d="M-162 0v78l113 10l756 1298h135l219 -1261l35 -37l100 -10v-78h-448v78l120 10l15 31l-64 389h-497l-220 -389l17 -31l125 -10v-78h-406zM373 596h428l-94 590zM481 1522l299 313h129l156 -313h-117l-121 194l-227 -194h-119z" />
<glyph unicode="&#xc3;" horiz-adv-x="1241" d="M-162 0v78l113 10l756 1298h135l219 -1261l35 -37l100 -10v-78h-448v78l120 10l15 31l-64 389h-497l-220 -389l17 -31l125 -10v-78h-406zM373 596h428l-94 590zM469 1552q40 220 221 220q36 0 70.5 -11t99.5 -43q73 -37 103 -37q67 0 94 115h90q-11 -100 -71.5 -160.5 t-149.5 -60.5q-43 0 -78 11t-127 54q-47 23 -72 23q-32 0 -55.5 -29.5t-32.5 -81.5h-92z" />
<glyph unicode="&#xc4;" horiz-adv-x="1241" d="M-162 0v78l113 10l756 1298h135l219 -1261l35 -37l100 -10v-78h-448v78l120 10l15 31l-64 389h-497l-220 -389l17 -31l125 -10v-78h-406zM373 596h428l-94 590zM510 1673q0 44 30 74.5t74 30.5q43 0 74 -31t31 -74q0 -42 -32 -73t-75 -31q-41 0 -71.5 30.5t-30.5 73.5z M891 1673q0 43 31 74t75 31q41 0 72 -31t31 -74t-31 -73.5t-74 -30.5q-41 0 -72.5 31.5t-31.5 72.5z" />
<glyph unicode="&#xc5;" horiz-adv-x="1241" d="M-162 0v78l113 10l756 1298h135l219 -1261l35 -37l100 -10v-78h-448v78l120 10l15 31l-64 389h-497l-220 -389l17 -31l125 -10v-78h-406zM373 596h428l-94 590zM608 1735q0 94 64 157.5t159 63.5q91 0 155.5 -64t64.5 -155q0 -94 -64 -157.5t-158 -63.5q-92 0 -156.5 64 t-64.5 155zM692 1735q0 -55 40.5 -95.5t96.5 -40.5q57 0 97.5 40t40.5 96q0 58 -40.5 97.5t-99.5 39.5q-54 0 -94.5 -41t-40.5 -96z" />
<glyph unicode="&#xc6;" horiz-adv-x="1785" d="M-236 0v78l125 26l934 1145l-12 31l-119 12v82h1108l-59 -299h-96v174l-23 31h-440l-101 -520h312l34 28l48 150h88l-88 -449h-84l8 148l-23 29h-313l-111 -572h523l34 33l72 207h94l-65 -334h-989v78l129 10l32 31l80 405h-493l-326 -399l4 -29l131 -18v-78h-414z M446 621h435l131 692z" />
<glyph unicode="&#xc7;" horiz-adv-x="1232" d="M78 543q0 175 64.5 333.5t174 273t262 182t320.5 67.5q160 0 371 -70l-58 -315h-86v196l-16 39q-108 51 -215 51q-172 0 -314.5 -101t-223.5 -277t-81 -390q0 -221 108.5 -339.5t311.5 -118.5q80 0 181 26l38 35l91 236h88l-56 -324q-221 -69 -399 -72l-21 -100 q14 2 35 2q138 0 138 -115q0 -95 -79.5 -157t-201.5 -62q-56 0 -139 21l14 74q64 -17 119 -17q69 0 111 28.5t42 74.5q0 29 -22 45t-62 16q-1 0 -47 -4l39 199q-235 26 -361 172t-126 391z" />
<glyph unicode="&#xc8;" horiz-adv-x="1114" d="M-53 0v78l129 10l35 31l219 1136l-23 31l-131 10v78h952l-57 -299h-98v174l-23 31h-440l-100 -520h311l37 28l45 150h88l-86 -449h-84l8 148l-24 29h-314l-110 -572h522l37 33l69 207h95l-66 -334h-991zM465 1835h215l127 -313h-117z" />
<glyph unicode="&#xc9;" horiz-adv-x="1114" d="M-53 0v78l129 10l35 31l219 1136l-23 31l-131 10v78h952l-57 -299h-98v174l-23 31h-440l-100 -520h311l37 28l45 150h88l-86 -449h-84l8 148l-24 29h-314l-110 -572h522l37 33l69 207h95l-66 -334h-991zM608 1522l285 313h221l-385 -313h-121z" />
<glyph unicode="&#xca;" horiz-adv-x="1114" d="M-53 0v78l129 10l35 31l219 1136l-23 31l-131 10v78h952l-57 -299h-98v174l-23 31h-440l-100 -520h311l37 28l45 150h88l-86 -449h-84l8 148l-24 29h-314l-110 -572h522l37 33l69 207h95l-66 -334h-991zM403 1522l299 313h129l156 -313h-117l-120 194l-228 -194h-119z " />
<glyph unicode="&#xcb;" horiz-adv-x="1114" d="M-53 0v78l129 10l35 31l219 1136l-23 31l-131 10v78h952l-57 -299h-98v174l-23 31h-440l-100 -520h311l37 28l45 150h88l-86 -449h-84l8 148l-24 29h-314l-110 -572h522l37 33l69 207h95l-66 -334h-991zM434 1673q0 44 30.5 74.5t74.5 30.5q43 0 73.5 -31t30.5 -74 t-31.5 -73.5t-74.5 -30.5q-41 0 -72 30.5t-31 73.5zM815 1673q0 43 31.5 74t75.5 31q41 0 71.5 -31t30.5 -74t-30.5 -73.5t-73.5 -30.5q-41 0 -73 31.5t-32 72.5z" />
<glyph unicode="&#xcc;" horiz-adv-x="638" d="M-41 0v78l131 10l33 31l219 1136l-23 31l-131 10v78h500v-78l-135 -10l-33 -31l-219 -1136l25 -31l133 -10v-78h-500zM233 1835h216l126 -313h-116z" />
<glyph unicode="&#xcd;" horiz-adv-x="638" d="M-41 0v78l131 10l33 31l219 1136l-23 31l-131 10v78h500v-78l-135 -10l-33 -31l-219 -1136l25 -31l133 -10v-78h-500zM377 1522l285 313h221l-385 -313h-121z" />
<glyph unicode="&#xce;" horiz-adv-x="638" d="M-41 0v78l131 10l33 31l219 1136l-23 31l-131 10v78h500v-78l-135 -10l-33 -31l-219 -1136l25 -31l133 -10v-78h-500zM174 1522l299 313h129l156 -313h-117l-121 194l-227 -194h-119z" />
<glyph unicode="&#xcf;" horiz-adv-x="638" d="M-41 0v78l131 10l33 31l219 1136l-23 31l-131 10v78h500v-78l-135 -10l-33 -31l-219 -1136l25 -31l133 -10v-78h-500zM203 1673q0 44 30 74.5t74 30.5q43 0 74 -31t31 -74q0 -42 -32 -73t-75 -31q-41 0 -71.5 30.5t-30.5 73.5zM584 1673q0 43 31 74t75 31q41 0 72 -31 t31 -74t-31 -73.5t-74 -30.5q-41 0 -72.5 31.5t-31.5 72.5z" />
<glyph unicode="&#xd0;" horiz-adv-x="1345" d="M-53 0v78l131 10l33 31l108 559h-176l10 94h183l94 483l-21 31l-133 10v78h465q313 0 476 -134t163 -392q0 -231 -110 -430.5t-296 -306.5q-196 -111 -495 -111h-432zM291 94h112q138 0 257.5 41.5t195.5 116.5q100 99 162.5 271t62.5 351q0 205 -113 305.5t-343 100.5 h-111l-96 -508h307l-18 -94h-308z" />
<glyph unicode="&#xd1;" horiz-adv-x="1402" d="M-66 0v78l132 10l32 31l219 1136l-20 31l-133 10v78h352v-51l490 -1038l188 970l-20 31l-132 10v78h431v-78l-132 -10l-32 -31l-240 -1255h-119l-538 1139l-199 -1020l23 -31l131 -10v-78h-433zM537 1552q40 220 221 220q36 0 70.5 -11t99.5 -43q73 -37 102 -37 q67 0 94 115h90q-10 -100 -71 -160.5t-150 -60.5q-43 0 -78 11t-127 54q-47 23 -71 23q-32 0 -55.5 -29.5t-32.5 -81.5h-92z" />
<glyph unicode="&#xd2;" horiz-adv-x="1447" d="M82 543q0 204 89.5 396t240.5 310q190 150 426 150q235 0 382.5 -157t147.5 -406q0 -174 -59 -333.5t-159 -275t-237.5 -184t-287.5 -68.5q-243 0 -393 157t-150 411zM281 522q0 -205 95 -326.5t255 -121.5q110 0 209 63t174 180q74 118 114.5 256t40.5 275 q0 212 -95.5 332t-262.5 120q-139 0 -261.5 -107.5t-195.5 -287.5t-73 -383zM618 1835h216l127 -313h-117z" />
<glyph unicode="&#xd3;" horiz-adv-x="1447" d="M82 543q0 204 89.5 396t240.5 310q190 150 426 150q235 0 382.5 -157t147.5 -406q0 -174 -59 -333.5t-159 -275t-237.5 -184t-287.5 -68.5q-243 0 -393 157t-150 411zM281 522q0 -205 95 -326.5t255 -121.5q110 0 209 63t174 180q74 118 114.5 256t40.5 275 q0 212 -95.5 332t-262.5 120q-139 0 -261.5 -107.5t-195.5 -287.5t-73 -383zM774 1522l285 313h221l-385 -313h-121z" />
<glyph unicode="&#xd4;" horiz-adv-x="1447" d="M82 543q0 204 89.5 396t240.5 310q190 150 426 150q235 0 382.5 -157t147.5 -406q0 -174 -59 -333.5t-159 -275t-237.5 -184t-287.5 -68.5q-243 0 -393 157t-150 411zM281 522q0 -205 95 -326.5t255 -121.5q110 0 209 63t174 180q74 118 114.5 256t40.5 275 q0 212 -95.5 332t-262.5 120q-139 0 -261.5 -107.5t-195.5 -287.5t-73 -383zM571 1522l299 313h129l156 -313h-117l-120 194l-228 -194h-119z" />
<glyph unicode="&#xd5;" horiz-adv-x="1447" d="M82 543q0 204 89.5 396t240.5 310q190 150 426 150q235 0 382.5 -157t147.5 -406q0 -174 -59 -333.5t-159 -275t-237.5 -184t-287.5 -68.5q-243 0 -393 157t-150 411zM281 522q0 -205 95 -326.5t255 -121.5q110 0 209 63t174 180q74 118 114.5 256t40.5 275 q0 212 -95.5 332t-262.5 120q-139 0 -261.5 -107.5t-195.5 -287.5t-73 -383zM569 1552q40 220 222 220q36 0 70.5 -11t99.5 -43q73 -37 102 -37q67 0 94 115h90q-11 -100 -71.5 -160.5t-149.5 -60.5q-43 0 -78 11t-127 54q-47 23 -71 23q-32 0 -55.5 -29.5t-32.5 -81.5h-93z " />
<glyph unicode="&#xd6;" horiz-adv-x="1447" d="M82 543q0 204 89.5 396t240.5 310q190 150 426 150q235 0 382.5 -157t147.5 -406q0 -174 -59 -333.5t-159 -275t-237.5 -184t-287.5 -68.5q-243 0 -393 157t-150 411zM281 522q0 -205 95 -326.5t255 -121.5q110 0 209 63t174 180q74 118 114.5 256t40.5 275 q0 212 -95.5 332t-262.5 120q-139 0 -261.5 -107.5t-195.5 -287.5t-73 -383zM612 1673q0 44 30.5 74.5t74.5 30.5q43 0 73.5 -31t30.5 -74t-31.5 -73.5t-74.5 -30.5q-41 0 -72 30.5t-31 73.5zM993 1673q0 43 31.5 74t75.5 31q41 0 71.5 -31t30.5 -74t-30.5 -73.5 t-73.5 -30.5q-41 0 -73 31.5t-32 72.5z" />
<glyph unicode="&#xd7;" horiz-adv-x="1705" d="M285 135l475 475l-475 477l80 82l477 -477l475 477l82 -82l-475 -477l475 -475l-82 -82l-475 475l-477 -475z" />
<glyph unicode="&#xd8;" horiz-adv-x="1447" d="M82 543q0 171 60 329.5t161 273.5t239.5 184t288.5 69q130 0 244 -51l113 174l76 -47l-113 -172q217 -167 217 -467q0 -174 -59 -333.5t-159 -275t-238 -184t-289 -68.5q-155 0 -289 76l-131 -203l-66 50l131 202q-186 163 -186 443zM281 532q0 -183 69 -303l658 1014 q-89 57 -191 57q-108 0 -206 -59.5t-169 -171.5q-76 -117 -118.5 -258t-42.5 -279zM406 162q98 -88 225 -88q111 0 209.5 62.5t173.5 180.5q155 242 155 535q0 208 -96 330z" />
<glyph unicode="&#xd9;" horiz-adv-x="1353" d="M133 305q0 54 25 187l147 763l-22 31l-131 10v78h497v-78l-133 -10l-33 -31l-145 -745q-19 -104 -19 -154q0 -126 74 -191t217 -65q181 0 278 95t140 315l146 745l-25 31l-133 10v78h428v-78l-129 -10l-35 -31l-150 -763q-31 -160 -67 -239.5t-105 -141.5 q-148 -136 -409 -136q-199 0 -307.5 86t-108.5 244zM588 1835h215l127 -313h-117z" />
<glyph unicode="&#xda;" horiz-adv-x="1353" d="M133 305q0 54 25 187l147 763l-22 31l-131 10v78h497v-78l-133 -10l-33 -31l-145 -745q-19 -104 -19 -154q0 -126 74 -191t217 -65q181 0 278 95t140 315l146 745l-25 31l-133 10v78h428v-78l-129 -10l-35 -31l-150 -763q-31 -160 -67 -239.5t-105 -141.5 q-148 -136 -409 -136q-199 0 -307.5 86t-108.5 244zM731 1522l285 313h221l-385 -313h-121z" />
<glyph unicode="&#xdb;" horiz-adv-x="1353" d="M133 305q0 54 25 187l147 763l-22 31l-131 10v78h497v-78l-133 -10l-33 -31l-145 -745q-19 -104 -19 -154q0 -126 74 -191t217 -65q181 0 278 95t140 315l146 745l-25 31l-133 10v78h428v-78l-129 -10l-35 -31l-150 -763q-31 -160 -67 -239.5t-105 -141.5 q-148 -136 -409 -136q-199 0 -307.5 86t-108.5 244zM539 1522l299 313h129l155 -313h-116l-121 194l-228 -194h-118z" />
<glyph unicode="&#xdc;" horiz-adv-x="1353" d="M133 305q0 54 25 187l147 763l-22 31l-131 10v78h497v-78l-133 -10l-33 -31l-145 -745q-19 -104 -19 -154q0 -126 74 -191t217 -65q181 0 278 95t140 315l146 745l-25 31l-133 10v78h428v-78l-129 -10l-35 -31l-150 -763q-31 -160 -67 -239.5t-105 -141.5 q-148 -136 -409 -136q-199 0 -307.5 86t-108.5 244zM580 1673q0 44 30 74.5t74 30.5q43 0 73.5 -31t30.5 -74t-31.5 -73.5t-74.5 -30.5q-41 0 -71.5 30.5t-30.5 73.5zM961 1673q0 43 31 74t75 31q41 0 71.5 -31t30.5 -74t-30.5 -73.5t-73.5 -30.5q-41 0 -72.5 31.5 t-31.5 72.5z" />
<glyph unicode="&#xdd;" horiz-adv-x="1150" d="M63 1296v78h498v-78l-133 -10l-33 -31l185 -579l428 579l-21 31l-131 10v78h459v-78l-135 -10l-33 -31l-520 -680l-90 -456l26 -31l133 -10v-78h-497v78l129 10l32 31l86 438l-229 698l-20 31zM598 1522l285 313h221l-385 -313h-121z" />
<glyph unicode="&#xde;" horiz-adv-x="1114" d="M-53 0v78l129 10l33 31l221 1136l-25 31l-129 10v78h498v-78l-133 -10l-33 -31l-27 -139h80q206 0 307 -37q92 -34 145.5 -114.5t53.5 -186.5q0 -227 -175.5 -373.5t-449.5 -146.5q-61 0 -129 4l-28 -143l14 -31l131 -10v-78h-483zM332 358q35 -2 65 -2q227 0 349 104 t122 298q0 138 -76 203t-239 65l-90 -2z" />
<glyph unicode="&#xdf;" horiz-adv-x="1167" d="M-317 -336q0 50 45 84l213 -55q63 72 97.5 184.5t72.5 374.5l86 588q100 671 559 671q141 0 223 -70.5t82 -191.5q0 -104 -66 -354q-59 6 -92 6q-104 0 -165.5 -39.5t-61.5 -105.5q0 -45 29.5 -81.5t123.5 -107.5q132 -100 168.5 -148.5t36.5 -123.5 q0 -136 -107.5 -224.5t-271.5 -88.5q-122 0 -194 48t-72 130q0 47 29.5 77.5t75.5 30.5q38 0 90 -39l-37 -102q32 -40 65 -56t84 -16q83 0 134 46.5t51 121.5q0 41 -18 74.5t-62 73.5q-61 49 -127 98q-69 54 -99 102.5t-30 108.5q0 123 89.5 205.5t242.5 99.5q47 176 47 266 q0 83 -46 126.5t-133 43.5q-308 0 -387 -538l-92 -625q-26 -180 -58 -278.5t-95 -190.5q-74 -107 -160 -169t-162 -62q-47 0 -77.5 30t-30.5 76z" />
<glyph unicode="&#xe0;" horiz-adv-x="1083" d="M43 340q0 177 75 326.5t204.5 236t283.5 86.5q104 0 201 -47l41 45h106q-32 -66 -77 -293l-74 -362q-21 -102 -21 -146q0 -92 105 -92q27 0 121 21v-62q-102 -41 -157 -56t-101 -15q-63 0 -91 40.5t-28 131.5q-89 -92 -161.5 -132t-150.5 -40q-128 0 -202 96t-74 262z M211 354q0 -248 176 -248q63 0 117 30t129 106l106 540l-82 125q-14 2 -32 2q-116 0 -211 -72.5t-149 -200t-54 -282.5zM399 1522h203l123 -389h-102z" />
<glyph unicode="&#xe1;" horiz-adv-x="1083" d="M43 340q0 177 75 326.5t204.5 236t283.5 86.5q104 0 201 -47l41 45h106q-32 -66 -77 -293l-74 -362q-21 -102 -21 -146q0 -92 105 -92q27 0 121 21v-62q-102 -41 -157 -56t-101 -15q-63 0 -91 40.5t-28 131.5q-89 -92 -161.5 -132t-150.5 -40q-128 0 -202 96t-74 262z M211 354q0 -248 176 -248q63 0 117 30t129 106l106 540l-82 125q-14 2 -32 2q-116 0 -211 -72.5t-149 -200t-54 -282.5zM575 1133l273 389h203l-375 -389h-101z" />
<glyph unicode="&#xe2;" horiz-adv-x="1083" d="M43 340q0 177 75 326.5t204.5 236t283.5 86.5q104 0 201 -47l41 45h106q-32 -66 -77 -293l-74 -362q-21 -102 -21 -146q0 -92 105 -92q27 0 121 21v-62q-102 -41 -157 -56t-101 -15q-63 0 -91 40.5t-28 131.5q-89 -92 -161.5 -132t-150.5 -40q-128 0 -202 96t-74 262z M211 354q0 -248 176 -248q63 0 117 30t129 106l106 540l-82 125q-14 2 -32 2q-116 0 -211 -72.5t-149 -200t-54 -282.5zM336 1133l299 389h133l152 -389h-113l-125 288l-233 -288h-113z" />
<glyph unicode="&#xe3;" horiz-adv-x="1083" d="M43 340q0 177 75 326.5t204.5 236t283.5 86.5q104 0 201 -47l41 45h106q-32 -66 -77 -293l-74 -362q-21 -102 -21 -146q0 -92 105 -92q27 0 121 21v-62q-102 -41 -157 -56t-101 -15q-63 0 -91 40.5t-28 131.5q-89 -92 -161.5 -132t-150.5 -40q-128 0 -202 96t-74 262z M211 354q0 -248 176 -248q63 0 117 30t129 106l106 540l-82 125q-14 2 -32 2q-116 0 -211 -72.5t-149 -200t-54 -282.5zM328 1190q44 246 217 246q39 0 74 -14t104 -56q62 -37 96 -37q77 0 101 137h86q-15 -114 -74 -179.5t-146 -65.5q-71 0 -184 65q-63 37 -92 37 q-37 0 -62 -35t-32 -98h-88z" />
<glyph unicode="&#xe4;" horiz-adv-x="1083" d="M43 340q0 177 75 326.5t204.5 236t283.5 86.5q104 0 201 -47l41 45h106q-32 -66 -77 -293l-74 -362q-21 -102 -21 -146q0 -92 105 -92q27 0 121 21v-62q-102 -41 -157 -56t-101 -15q-63 0 -91 40.5t-28 131.5q-89 -92 -161.5 -132t-150.5 -40q-128 0 -202 96t-74 262z M211 354q0 -248 176 -248q63 0 117 30t129 106l106 540l-82 125q-14 2 -32 2q-116 0 -211 -72.5t-149 -200t-54 -282.5zM373 1329q0 44 30 74.5t74 30.5q43 0 74 -31t31 -74q0 -42 -32 -73t-75 -31q-41 0 -71.5 30.5t-30.5 73.5zM754 1329q0 43 31 74t75 31q41 0 72 -31 t31 -74t-31 -73.5t-74 -30.5q-41 0 -72.5 31.5t-31.5 72.5z" />
<glyph unicode="&#xe5;" horiz-adv-x="1083" d="M43 340q0 177 75 326.5t204.5 236t283.5 86.5q104 0 201 -47l41 45h106q-32 -66 -77 -293l-74 -362q-21 -102 -21 -146q0 -92 105 -92q27 0 121 21v-62q-102 -41 -157 -56t-101 -15q-63 0 -91 40.5t-28 131.5q-89 -92 -161.5 -132t-150.5 -40q-128 0 -202 96t-74 262z M211 354q0 -248 176 -248q63 0 117 30t129 106l106 540l-82 125q-14 2 -32 2q-116 0 -211 -72.5t-149 -200t-54 -282.5zM432 1362q0 94 64 157.5t159 63.5q91 0 155 -64t64 -155q0 -94 -63.5 -157.5t-157.5 -63.5q-92 0 -156.5 64t-64.5 155zM516 1362q0 -55 40.5 -95 t96.5 -40q57 0 97.5 39.5t40.5 95.5q0 58 -40.5 97.5t-99.5 39.5q-54 0 -94.5 -41t-40.5 -96z" />
<glyph unicode="&#xe6;" horiz-adv-x="1382" d="M6 190q0 301 586 359l24 125q13 76 13 98q0 62 -35.5 95.5t-99.5 33.5q-61 0 -140 -35l-32 -168h-201q5 128 124 209.5t302 81.5q97 0 148.5 -32t76.5 -107q169 139 305 139q95 0 153 -55.5t58 -147.5q0 -140 -149 -228t-410 -103q-6 -44 -6 -86q0 -126 56 -200.5 t151 -74.5q77 0 156 39.5t178 128.5v-96q-193 -184 -398 -184q-91 0 -155 37t-113 120q-214 -157 -387 -157q-94 0 -149.5 56.5t-55.5 151.5zM190 236q0 -63 35 -98.5t97 -35.5q63 0 122 23.5t136 79.5q-15 79 -15 137q0 73 10 131q-207 -29 -296 -84t-89 -153zM739 524 q181 12 291.5 85.5t110.5 181.5q0 47 -31.5 79.5t-75.5 32.5q-96 0 -172 -97.5t-123 -281.5z" />
<glyph unicode="&#xe7;" horiz-adv-x="815" d="M39 356q0 126 43.5 243t116.5 202.5t172.5 136.5t206.5 51q79 0 133.5 -40t54.5 -99q0 -47 -34.5 -78t-94.5 -35l-119 156q-138 0 -227.5 -142t-89.5 -362q0 -135 52.5 -210t147.5 -75q77 0 154.5 40t169.5 128v-94q-190 -193 -381 -196l-20 -99q23 2 43 2q63 0 96 -29 t33 -83q0 -94 -80.5 -158t-198.5 -64q-56 0 -141 23l14 72q59 -15 117 -15q72 0 113.5 28t41.5 75q0 28 -21.5 43.5t-59.5 15.5q-25 0 -50 -4l39 201q-117 35 -174 125t-57 241z" />
<glyph unicode="&#xe8;" horiz-adv-x="866" d="M39 350q0 159 67 300.5t185 232.5q137 106 272 106q94 0 151.5 -56t57.5 -147q0 -139 -144 -224t-415 -107q-6 -49 -6 -88q0 -126 56 -199.5t151 -73.5q78 0 156 39.5t178 128.5v-96q-198 -184 -398 -184q-146 0 -228.5 97.5t-82.5 270.5zM223 524q96 7 160 25.5 t119 52.5q123 78 123 189q0 47 -31.5 79.5t-77.5 32.5q-94 0 -171.5 -100t-121.5 -279zM319 1522h203l123 -389h-102z" />
<glyph unicode="&#xe9;" horiz-adv-x="866" d="M39 350q0 159 67 300.5t185 232.5q137 106 272 106q94 0 151.5 -56t57.5 -147q0 -139 -144 -224t-415 -107q-6 -49 -6 -88q0 -126 56 -199.5t151 -73.5q78 0 156 39.5t178 128.5v-96q-198 -184 -398 -184q-146 0 -228.5 97.5t-82.5 270.5zM223 524q96 7 160 25.5 t119 52.5q123 78 123 189q0 47 -31.5 79.5t-77.5 32.5q-94 0 -171.5 -100t-121.5 -279zM469 1133l272 389h203l-375 -389h-100z" />
<glyph unicode="&#xea;" horiz-adv-x="866" d="M39 350q0 159 67 300.5t185 232.5q137 106 272 106q94 0 151.5 -56t57.5 -147q0 -139 -144 -224t-415 -107q-6 -49 -6 -88q0 -126 56 -199.5t151 -73.5q78 0 156 39.5t178 128.5v-96q-198 -184 -398 -184q-146 0 -228.5 97.5t-82.5 270.5zM223 524q96 7 160 25.5 t119 52.5q123 78 123 189q0 47 -31.5 79.5t-77.5 32.5q-94 0 -171.5 -100t-121.5 -279zM250 1133l299 389h133l152 -389h-113l-125 288l-234 -288h-112z" />
<glyph unicode="&#xeb;" horiz-adv-x="866" d="M39 350q0 159 67 300.5t185 232.5q137 106 272 106q94 0 151.5 -56t57.5 -147q0 -139 -144 -224t-415 -107q-6 -49 -6 -88q0 -126 56 -199.5t151 -73.5q78 0 156 39.5t178 128.5v-96q-198 -184 -398 -184q-146 0 -228.5 97.5t-82.5 270.5zM223 524q96 7 160 25.5 t119 52.5q123 78 123 189q0 47 -31.5 79.5t-77.5 32.5q-94 0 -171.5 -100t-121.5 -279zM283 1329q0 44 30 74.5t74 30.5q43 0 74 -31t31 -74q0 -42 -32 -73t-75 -31q-41 0 -71.5 30.5t-30.5 73.5zM664 1329q0 43 31 74t75 31q41 0 71.5 -31t30.5 -74t-30.5 -73.5 t-73.5 -30.5q-41 0 -72.5 31.5t-31.5 72.5z" />
<glyph unicode="&#xec;" horiz-adv-x="585" d="M66 868v52l303 67h53l-148 -766q-6 -24 -6 -51q0 -38 24 -59t70 -21q54 0 156 31v-64q-175 -71 -289 -71q-131 0 -131 137q0 31 13 104l120 611zM96 1522h203l123 -389h-103z" />
<glyph unicode="&#xed;" horiz-adv-x="585" d="M66 868v52l303 67h53l-148 -766q-6 -24 -6 -51q0 -38 24 -59t70 -21q54 0 156 31v-64q-175 -71 -289 -71q-131 0 -131 137q0 31 13 104l120 611zM244 1133l272 389h203l-375 -389h-100z" />
<glyph unicode="&#xee;" horiz-adv-x="585" d="M29 1133l299 389h133l151 -389h-112l-125 288l-234 -288h-112zM66 868v52l303 67h53l-148 -766q-6 -24 -6 -51q0 -38 24 -59t70 -21q54 0 156 31v-64q-175 -71 -289 -71q-131 0 -131 137q0 31 13 104l120 611z" />
<glyph unicode="&#xef;" horiz-adv-x="585" d="M63 1329q0 44 30.5 74.5t74.5 30.5q43 0 73.5 -31t30.5 -74t-31.5 -73.5t-74.5 -30.5q-42 0 -72.5 30.5t-30.5 73.5zM66 868v52l303 67h53l-148 -766q-6 -24 -6 -51q0 -38 24 -59t70 -21q54 0 156 31v-64q-175 -71 -289 -71q-131 0 -131 137q0 31 13 104l120 611z M444 1329q0 43 31.5 74t75.5 31q41 0 71.5 -31t30.5 -74t-30.5 -73.5t-73.5 -30.5q-41 0 -73 31.5t-32 72.5z" />
<glyph unicode="&#xf0;" horiz-adv-x="1028" d="M41 369q0 168 68 311t185.5 226t256.5 83q47 0 121 -14q-32 74 -94 209l-285 -115l-29 76l268 104l-71 105l-160 41l8 57l240 33l125 -178l241 94l31 -72l-229 -92q98 -185 142 -334.5t44 -292.5q0 -271 -145.5 -449.5t-366.5 -178.5q-161 0 -255.5 104.5t-94.5 282.5z M215 371q0 -147 52 -227.5t147 -80.5q138 0 229.5 152t91.5 381q0 139 -43 299q-71 18 -121 18q-92 0 -159.5 -46.5t-118.5 -145.5q-78 -156 -78 -350z" />
<glyph unicode="&#xf1;" horiz-adv-x="1136" d="M63 0l170 838l-167 30v52l303 67h51l-37 -196q142 112 230 155t173 43q73 0 119.5 -45.5t46.5 -116.5q0 -59 -28 -186l-70 -317q-23 -106 -23 -136q0 -47 27.5 -73.5t77.5 -26.5q41 0 115 18v-57q-97 -37 -150 -50t-104 -13q-69 0 -105.5 32t-36.5 93q0 41 17 110l88 379 q18 77 18 135q0 127 -102 127q-124 0 -311 -170l-127 -692h-175zM315 1190q43 246 217 246q39 0 75 -14t104 -56q62 -37 96 -37q76 0 100 137h86q-15 -114 -74 -179.5t-145 -65.5q-71 0 -184 65q-63 37 -92 37q-37 0 -62.5 -35t-32.5 -98h-88z" />
<glyph unicode="&#xf2;" horiz-adv-x="1028" d="M41 369q0 170 70.5 313t192 225t265.5 82q158 0 252 -108.5t94 -288.5q0 -123 -42 -236t-112 -195t-167 -130.5t-203 -48.5q-160 0 -255 105t-95 282zM215 377q0 -149 51.5 -231.5t145.5 -82.5q91 0 166.5 71t119 193.5t43.5 268.5q0 151 -52 231t-152 80q-88 0 -162 -71 t-117 -193t-43 -266zM371 1522h202l123 -389h-102z" />
<glyph unicode="&#xf3;" horiz-adv-x="1028" d="M41 369q0 170 70.5 313t192 225t265.5 82q158 0 252 -108.5t94 -288.5q0 -123 -42 -236t-112 -195t-167 -130.5t-203 -48.5q-160 0 -255 105t-95 282zM215 377q0 -149 51.5 -231.5t145.5 -82.5q91 0 166.5 71t119 193.5t43.5 268.5q0 151 -52 231t-152 80q-88 0 -162 -71 t-117 -193t-43 -266zM520 1133l273 389h202l-374 -389h-101z" />
<glyph unicode="&#xf4;" horiz-adv-x="1028" d="M41 369q0 170 70.5 313t192 225t265.5 82q158 0 252 -108.5t94 -288.5q0 -123 -42 -236t-112 -195t-167 -130.5t-203 -48.5q-160 0 -255 105t-95 282zM215 377q0 -149 51.5 -231.5t145.5 -82.5q91 0 166.5 71t119 193.5t43.5 268.5q0 151 -52 231t-152 80q-88 0 -162 -71 t-117 -193t-43 -266zM311 1133l299 389h133l152 -389h-113l-125 288l-233 -288h-113z" />
<glyph unicode="&#xf5;" horiz-adv-x="1028" d="M41 369q0 170 70.5 313t192 225t265.5 82q158 0 252 -108.5t94 -288.5q0 -123 -42 -236t-112 -195t-167 -130.5t-203 -48.5q-160 0 -255 105t-95 282zM215 377q0 -149 51.5 -231.5t145.5 -82.5q91 0 166.5 71t119 193.5t43.5 268.5q0 151 -52 231t-152 80q-88 0 -162 -71 t-117 -193t-43 -266zM301 1190q43 246 217 246q39 0 74 -14t104 -56q62 -37 97 -37q76 0 100 137h86q-15 -114 -74 -179.5t-145 -65.5q-72 0 -185 65q-63 37 -92 37q-37 0 -62 -35t-32 -98h-88z" />
<glyph unicode="&#xf6;" horiz-adv-x="1028" d="M41 369q0 170 70.5 313t192 225t265.5 82q158 0 252 -108.5t94 -288.5q0 -123 -42 -236t-112 -195t-167 -130.5t-203 -48.5q-160 0 -255 105t-95 282zM215 377q0 -149 51.5 -231.5t145.5 -82.5q91 0 166.5 71t119 193.5t43.5 268.5q0 151 -52 231t-152 80q-88 0 -162 -71 t-117 -193t-43 -266zM344 1329q0 44 30.5 74.5t74.5 30.5q43 0 73.5 -31t30.5 -74q0 -42 -32 -73t-75 -31q-41 0 -71.5 30.5t-30.5 73.5zM725 1329q0 43 31 74t75 31q41 0 72 -31t31 -74t-31 -73.5t-74 -30.5q-41 0 -72.5 31.5t-31.5 72.5z" />
<glyph unicode="&#xf7;" horiz-adv-x="1705" d="M244 551v119h1198v-119h-1198zM729 250q0 48 34 81.5t83 33.5q46 0 79 -34t33 -81t-33.5 -81t-80.5 -34t-81 34t-34 81zM729 971q0 47 34 80.5t83 33.5q46 0 79 -33.5t33 -80.5t-33.5 -81t-80.5 -34t-81 34t-34 81z" />
<glyph unicode="&#xf8;" horiz-adv-x="1028" d="M41 371q0 168 70.5 310.5t191.5 225t264 82.5q97 0 170 -41l107 172l57 -37l-110 -172q124 -118 124 -321q0 -123 -41.5 -235.5t-111.5 -194t-166.5 -130t-202.5 -48.5q-82 0 -160 32l-114 -178l-51 35l108 178q-71 65 -103 141.5t-32 180.5zM203 379q0 -65 9 -110.5 t34 -102.5l434 686q-58 55 -135 55q-92 0 -171 -71t-125 -192.5t-46 -264.5zM289 113q50 -50 123 -50q95 0 173.5 70.5t123.5 193t45 269.5q0 115 -35 195z" />
<glyph unicode="&#xf9;" horiz-adv-x="1142" d="M70 870v52l321 69l33 -28l-129 -598q-23 -108 -23 -150q0 -54 30.5 -85.5t84.5 -31.5q123 0 295 131l154 742h165l-145 -670q-20 -98 -20 -135t29 -60.5t75 -23.5q33 0 117 22v-57q-113 -39 -165.5 -52t-100.5 -13q-119 0 -119 133q0 19 2 39q-197 -172 -373 -172 q-91 0 -144 51.5t-53 140.5q0 45 17 125l119 541zM436 1522h203l123 -389h-103z" />
<glyph unicode="&#xfa;" horiz-adv-x="1142" d="M70 870v52l321 69l33 -28l-129 -598q-23 -108 -23 -150q0 -54 30.5 -85.5t84.5 -31.5q123 0 295 131l154 742h165l-145 -670q-20 -98 -20 -135t29 -60.5t75 -23.5q33 0 117 22v-57q-113 -39 -165.5 -52t-100.5 -13q-119 0 -119 133q0 19 2 39q-197 -172 -373 -172 q-91 0 -144 51.5t-53 140.5q0 45 17 125l119 541zM537 1133l272 389h203l-375 -389h-100z" />
<glyph unicode="&#xfb;" horiz-adv-x="1142" d="M70 870v52l321 69l33 -28l-129 -598q-23 -108 -23 -150q0 -54 30.5 -85.5t84.5 -31.5q123 0 295 131l154 742h165l-145 -670q-20 -98 -20 -135t29 -60.5t75 -23.5q33 0 117 22v-57q-113 -39 -165.5 -52t-100.5 -13q-119 0 -119 133q0 19 2 39q-197 -172 -373 -172 q-91 0 -144 51.5t-53 140.5q0 45 17 125l119 541zM365 1133l299 389h133l151 -389h-112l-125 288l-234 -288h-112z" />
<glyph unicode="&#xfc;" horiz-adv-x="1142" d="M70 870v52l321 69l33 -28l-129 -598q-23 -108 -23 -150q0 -54 30.5 -85.5t84.5 -31.5q123 0 295 131l154 742h165l-145 -670q-20 -98 -20 -135t29 -60.5t75 -23.5q33 0 117 22v-57q-113 -39 -165.5 -52t-100.5 -13q-119 0 -119 133q0 19 2 39q-197 -172 -373 -172 q-91 0 -144 51.5t-53 140.5q0 45 17 125l119 541zM397 1329q0 44 30.5 74.5t74.5 30.5q43 0 73.5 -31t30.5 -74t-31.5 -73.5t-74.5 -30.5q-42 0 -72.5 30.5t-30.5 73.5zM778 1329q0 43 31.5 74t75.5 31q41 0 71.5 -31t30.5 -74t-30.5 -73.5t-73.5 -30.5q-41 0 -73 31.5 t-32 72.5z" />
<glyph unicode="&#xfd;" horiz-adv-x="972" d="M-231 -309q0 43 28.5 72.5t81.5 39.5l121 -120q91 6 174.5 89.5t177.5 260.5l-127 622q-25 132 -82 213l-174 15v45l201 65q10 2 27 2q79 0 118 -86q20 -41 32.5 -92t53.5 -262l68 -346q132 332 322 778h38l162 -53v-43l-104 -62q-60 -70 -101.5 -143.5t-132.5 -269.5 q-97 -214 -166 -341.5t-147 -234.5q-206 -284 -401 -284q-70 0 -120 39.5t-50 95.5zM449 1133l272 389h203l-375 -389h-100z" />
<glyph unicode="&#xfe;" horiz-adv-x="1062" d="M-129 -385l121 25l20 22l305 1710l-182 21v53l311 61h56l-25 -133l-90 -512q102 70 173 98.5t142 28.5q118 0 186 -95t68 -259q0 -275 -174 -461q-79 -86 -181 -134t-204 -48q-72 0 -161 39l-68 -381l194 -35v-61h-491v61zM256 137q96 -55 176 -55q68 0 128.5 32.5 t101.5 92.5q58 83 91 194.5t33 227.5q0 114 -49 183t-129 69q-50 0 -99.5 -23t-135.5 -86z" />
<glyph unicode="&#xff;" horiz-adv-x="972" d="M-231 -309q0 43 28.5 72.5t81.5 39.5l121 -120q91 6 174.5 89.5t177.5 260.5l-127 622q-25 132 -82 213l-174 15v45l201 65q10 2 27 2q79 0 118 -86q20 -41 32.5 -92t53.5 -262l68 -346q132 332 322 778h38l162 -53v-43l-104 -62q-60 -70 -101.5 -143.5t-132.5 -269.5 q-97 -214 -166 -341.5t-147 -234.5q-206 -284 -401 -284q-70 0 -120 39.5t-50 95.5zM289 1329q0 44 30 74.5t74 30.5q43 0 74 -31t31 -74q0 -42 -32 -73t-75 -31q-41 0 -71.5 30.5t-30.5 73.5zM670 1329q0 43 31 74t75 31q41 0 72 -31t31 -74t-31 -73.5t-74 -30.5 q-41 0 -72.5 31.5t-31.5 72.5z" />
<glyph unicode="&#x152;" horiz-adv-x="2039" d="M82 545q0 139 38.5 269.5t108.5 235.5t163 184t209 122t239 43q148 0 243.5 -62.5t155.5 -197.5l41 235h774l-59 -299h-99v174l-20 31h-440l-101 -520h312l34 28l48 150h88l-88 -449h-84l8 148l-23 29h-313l-111 -572h523l34 33l72 207h94l-65 -334h-844l31 174 q-108 -108 -207 -153.5t-226 -45.5q-239 0 -387.5 157.5t-148.5 412.5zM281 520q0 -204 95 -325t255 -121q238 0 399 268q64 107 100.5 242t36.5 266q0 210 -95 330t-261 120q-139 0 -261.5 -107.5t-195.5 -288t-73 -384.5z" />
<glyph unicode="&#x153;" horiz-adv-x="1531" d="M41 371q0 168 70.5 310.5t191.5 225t264 82.5q108 0 180.5 -45t126.5 -145q181 190 357 190q92 0 149.5 -56t57.5 -147q0 -139 -143.5 -224t-415.5 -107q-7 -51 -7 -88q0 -124 57 -198.5t152 -74.5q77 0 154 39t178 129v-96q-104 -97 -198.5 -140.5t-198.5 -43.5 q-97 0 -162.5 39.5t-108.5 123.5q-83 -86 -167.5 -124.5t-186.5 -38.5q-161 0 -255.5 105t-94.5 284zM217 371q0 -148 50.5 -228t142.5 -80q89 0 162.5 70t116 192t42.5 267q0 152 -52 233.5t-147 81.5q-87 0 -159.5 -71t-114 -194.5t-41.5 -270.5zM891 524q84 7 132.5 18.5 t98.5 35.5q78 37 123 93.5t45 119.5q0 47 -30 79.5t-74 32.5q-97 0 -172.5 -97t-122.5 -282z" />
<glyph unicode="&#x178;" horiz-adv-x="1150" d="M63 1296v78h498v-78l-133 -10l-33 -31l185 -579l428 579l-21 31l-131 10v78h459v-78l-135 -10l-33 -31l-520 -680l-90 -456l26 -31l133 -10v-78h-497v78l129 10l32 31l86 438l-229 698l-20 31zM453 1673q0 44 30 74.5t74 30.5q43 0 74 -31t31 -74q0 -42 -32 -73t-75 -31 q-41 0 -71.5 30.5t-30.5 73.5zM834 1673q0 43 31 74t75 31q41 0 71.5 -31t30.5 -74t-30.5 -73.5t-73.5 -30.5q-41 0 -72.5 31.5t-31.5 72.5z" />
<glyph unicode="&#x2c6;" d="M436 1133l299 389h133l152 -389h-113l-125 288l-233 -288h-113z" />
<glyph unicode="&#x2dc;" d="M426 1190q44 246 217 246q39 0 74 -14t104 -56q62 -37 97 -37q76 0 100 137h86q-15 -114 -74 -179.5t-145 -65.5q-72 0 -185 65q-63 37 -92 37q-37 0 -62 -35t-32 -98h-88z" />
<glyph unicode="&#x2000;" horiz-adv-x="978" />
<glyph unicode="&#x2001;" horiz-adv-x="1956" />
<glyph unicode="&#x2002;" horiz-adv-x="978" />
<glyph unicode="&#x2003;" horiz-adv-x="1956" />
<glyph unicode="&#x2004;" horiz-adv-x="652" />
<glyph unicode="&#x2005;" horiz-adv-x="489" />
<glyph unicode="&#x2006;" horiz-adv-x="326" />
<glyph unicode="&#x2007;" horiz-adv-x="326" />
<glyph unicode="&#x2008;" horiz-adv-x="244" />
<glyph unicode="&#x2009;" horiz-adv-x="391" />
<glyph unicode="&#x200a;" horiz-adv-x="108" />
<glyph unicode="&#x2010;" horiz-adv-x="653" d="M47 424l27 137h458l-26 -137h-459z" />
<glyph unicode="&#x2011;" horiz-adv-x="653" d="M47 424l27 137h458l-26 -137h-459z" />
<glyph unicode="&#x2012;" horiz-adv-x="653" d="M47 424l27 137h458l-26 -137h-459z" />
<glyph unicode="&#x2013;" d="M-49 430l24 125h1022l-22 -125h-1024z" />
<glyph unicode="&#x2014;" horiz-adv-x="2048" d="M-39 430l25 125h2044l-25 -125h-2044z" />
<glyph unicode="&#x2018;" horiz-adv-x="415" d="M141 1038q0 196 273 422h88q-122 -113 -176 -198t-54 -164h131q15 -35 15 -56q0 -57 -43 -97t-105 -40q-58 0 -93.5 36.5t-35.5 96.5z" />
<glyph unicode="&#x2019;" horiz-adv-x="415" d="M104 905q122 113 176.5 199t53.5 164h-131q-15 29 -15 53q0 58 43 98.5t105 40.5q58 0 93.5 -36.5t35.5 -96.5q0 -98 -70 -207t-202 -215h-89z" />
<glyph unicode="&#x201a;" horiz-adv-x="415" d="M-133 -336q232 213 229 363h-131q-14 28 -14 53q0 58 42.5 98.5t104.5 40.5q58 0 93.5 -36.5t35.5 -96.5q0 -200 -272 -422h-88z" />
<glyph unicode="&#x201c;" horiz-adv-x="829" d="M141 1038q0 196 273 422h88q-121 -112 -176.5 -199.5t-53.5 -162.5h131q15 -35 15 -56q0 -57 -43 -97t-105 -40q-58 0 -93.5 36.5t-35.5 96.5zM555 1038q0 197 272 422h88q-122 -113 -177 -200t-52 -162h131q14 -28 14 -54q0 -57 -43 -98t-104 -41q-58 0 -93.5 36.5 t-35.5 96.5z" />
<glyph unicode="&#x201d;" horiz-adv-x="829" d="M115 905q122 113 176 199t53 164h-131q-14 27 -14 53q0 58 42.5 98.5t104.5 40.5q58 0 93.5 -36.5t35.5 -96.5q0 -98 -70 -207t-202 -215h-88zM526 905q122 113 176.5 199t53.5 164h-131q-15 35 -15 55q0 56 44 96.5t104 40.5q58 0 93.5 -36.5t35.5 -96.5 q0 -99 -70.5 -207.5t-202.5 -214.5h-88z" />
<glyph unicode="&#x201e;" horiz-adv-x="829" d="M-127 -336q232 213 229 363h-131q-14 28 -14 53q0 58 42.5 98.5t104.5 40.5q58 0 93.5 -36.5t35.5 -96.5q0 -200 -272 -422h-88zM285 -336q120 110 175 197.5t54 165.5h-131q-14 28 -14 55q0 57 43 97t104 40q58 0 93.5 -36.5t35.5 -96.5q0 -203 -272 -422h-88z" />
<glyph unicode="&#x2022;" horiz-adv-x="1208" d="M307 760q0 125 86.5 211t212.5 86q120 0 206.5 -87t86.5 -208q0 -123 -87 -210t-210 -87t-209 86t-86 209z" />
<glyph unicode="&#x2026;" horiz-adv-x="2048" d="M102 113q0 56 37 92.5t94 36.5q54 0 91.5 -37.5t37.5 -91.5t-38.5 -92.5t-92.5 -38.5t-91.5 38.5t-37.5 92.5zM784 111q0 55 39 93t95 38q52 0 89 -38.5t37 -92.5t-37.5 -91.5t-91.5 -37.5t-92.5 37.5t-38.5 91.5zM1468 111q0 55 38 93t93 38q53 0 91.5 -38.5t38.5 -92.5 t-39 -91.5t-93 -37.5t-91.5 37.5t-37.5 91.5z" />
<glyph unicode="&#x202f;" horiz-adv-x="391" />
<glyph unicode="&#x2039;" horiz-adv-x="501" d="M27 410l30 163l389 273l-26 -135l-283 -219l199 -222l-27 -133z" />
<glyph unicode="&#x203a;" horiz-adv-x="501" d="M-12 137l24 133l283 222l-197 219l25 135l285 -273l-31 -163z" />
<glyph unicode="&#x205f;" horiz-adv-x="489" />
<glyph unicode="&#x20ac;" horiz-adv-x="1138" d="M25 489v86h163q10 94 41 213h-145v86h172q74 206 176 326q88 102 187 150.5t233 48.5q77 0 163 -22t134 -48l-57 -315h-66v196l-16 39q-51 54 -181 54q-115 0 -197.5 -69t-146.5 -206q-25 -56 -57 -154h442v-86h-464q-31 -119 -41 -213h446v-86h-455q-4 -66 -4 -96 q0 -307 248 -307q100 0 170 35.5t150 111.5v-100q-67 -69 -160 -113.5t-189 -44.5q-196 0 -292.5 112.5t-96.5 361.5v40h-157z" />
<glyph unicode="&#x2122;" horiz-adv-x="1683" d="M242 1214v142h469v-142h-54l-12 82l-14 13h-107v-439l78 -8v-45h-250v43l80 8v441h-106l-17 -13l-12 -82h-55zM772 1309v47h209v-25l139 -368l142 366v27h204v-47l-65 -11v-428l65 -10v-43h-219v43l62 10v435l-189 -488h-45l-180 488v-435l63 -8v-45h-184v45l64 8v428z " />
<glyph unicode="&#x25fc;" horiz-adv-x="993" d="M0 0v993h993v-993h-993z" />
</font>
</defs>
</svg>
